999
"DXF R12 Output" (www.mydxf.blogspot.com)
 0 
SECTION
 2 
HEADER
 9 
$ACADVER
 1 
AC1009
 9 
$EXTMIN
 10 
 0 
 20 
 0 
 9 
$EXTMAX
 10 
 8.5 
 20 
 11 
 0 
ENDSEC
 0 
SECTION
 2 
ENTITIES
0
LINE
8
Calque 1
10
372.609000
20
215.321000
11
339.390600
21
248.539400
0
LINE
8
Calque 1
10
339.390600
20
248.539400
11
338.213330
21
248.038430
0
LINE
8
Calque 1
10
338.213330
20
248.038430
11
336.325098
21
247.356446
0
LINE
8
Calque 1
10
336.325098
20
247.356446
11
334.391487
21
246.923747
0
LINE
8
Calque 1
10
334.391487
20
246.923747
11
332.269488
21
246.717815
0
LINE
8
Calque 1
10
332.269488
20
246.717815
11
329.816090
21
246.716130
0
LINE
8
Calque 1
10
329.816090
20
246.716130
11
327.086069
21
246.934537
0
LINE
8
Calque 1
10
327.086069
20
246.934537
11
324.800034
21
247.422630
0
LINE
8
Calque 1
10
324.800034
20
247.422630
11
322.740969
21
248.245905
0
LINE
8
Calque 1
10
322.740969
20
248.245905
11
320.691860
21
249.469860
0
LINE
8
Calque 1
10
320.691860
20
249.469860
11
318.757527
21
251.076159
0
LINE
8
Calque 1
10
318.757527
20
251.076159
11
317.051327
21
253.045477
0
LINE
8
Calque 1
10
317.051327
20
253.045477
11
315.686434
21
255.224927
0
LINE
8
Calque 1
10
315.686434
20
255.224927
11
314.776020
21
257.461620
0
LINE
8
Calque 1
10
314.776020
20
257.461620
11
314.359991
21
258.554511
0
LINE
8
Calque 1
10
314.359991
20
258.554511
11
314.162072
21
258.717124
0
LINE
8
Calque 1
10
314.162072
20
258.717124
11
313.926870
21
258.687380
0
LINE
8
Calque 1
10
313.926870
20
258.687380
11
311.009767
21
257.772462
0
LINE
8
Calque 1
10
311.009767
20
257.772462
11
307.894620
21
257.322950
0
LINE
8
Calque 1
10
307.894620
20
257.322950
11
305.515098
21
257.338110
0
LINE
8
Calque 1
10
305.515098
20
257.338110
11
303.512130
21
257.720760
0
LINE
8
Calque 1
10
303.512130
20
257.720760
11
301.792280
21
258.500063
0
LINE
8
Calque 1
10
301.792280
20
258.500063
11
300.262110
21
259.705180
0
LINE
8
Calque 1
10
300.262110
20
259.705180
11
299.038605
21
261.122680
0
LINE
8
Calque 1
10
299.038605
20
261.122680
11
298.391610
21
262.668160
0
LINE
8
Calque 1
10
298.391610
20
262.668160
11
298.101700
21
264.429516
0
LINE
8
Calque 1
10
298.101700
20
264.429516
11
298.175136
21
266.325912
0
LINE
8
Calque 1
10
298.175136
20
266.325912
11
298.596274
21
268.236916
0
LINE
8
Calque 1
10
298.596274
20
268.236916
11
299.349470
21
270.042090
0
LINE
8
Calque 1
10
299.349470
20
270.042090
11
301.247416
21
273.839400
0
LINE
8
Calque 1
10
301.247416
20
273.839400
11
301.538865
21
274.916951
0
LINE
8
Calque 1
10
301.538865
20
274.916951
11
301.655270
21
276.143880
0
LINE
8
Calque 1
10
301.655270
20
276.143880
11
301.664479
21
278.004758
0
LINE
8
Calque 1
10
301.664479
20
278.004758
11
301.431484
21
279.972716
0
LINE
8
Calque 1
10
301.431484
20
279.972716
11
300.924834
21
282.227296
0
LINE
8
Calque 1
10
300.924834
20
282.227296
11
300.113080
21
284.948040
0
LINE
8
Calque 1
10
300.113080
20
284.948040
11
299.068350
21
288.519410
0
LINE
8
Calque 1
10
299.068350
20
288.519410
11
291.471187
21
296.358067
0
LINE
8
Calque 1
10
291.471187
20
296.358067
11
273.205650
21
314.724610
0
LINE
8
Calque 1
10
273.205650
20
314.724610
11
247.342950
21
340.588310
0
LINE
8
Calque 1
10
247.342950
20
340.588310
11
326.651550
21
419.896910
0
LINE
8
Calque 1
10
326.651550
20
419.896910
11
405.960150
21
499.205510
0
LINE
8
Calque 1
10
405.960150
20
499.205510
11
485.268750
21
419.896910
0
LINE
8
Calque 1
10
485.268750
20
419.896910
11
564.577350
21
340.588310
0
LINE
8
Calque 1
10
564.577350
20
340.588310
11
538.714550
21
314.724610
0
LINE
8
Calque 1
10
538.714550
20
314.724610
11
520.449012
21
296.358022
0
LINE
8
Calque 1
10
520.449012
20
296.358022
11
512.851850
21
288.519410
0
LINE
8
Calque 1
10
512.851850
20
288.519410
11
511.807110
21
284.948040
0
LINE
8
Calque 1
10
511.807110
20
284.948040
11
510.675481
21
280.863065
0
LINE
8
Calque 1
10
510.675481
20
280.863065
11
510.214456
21
277.562751
0
LINE
8
Calque 1
10
510.214456
20
277.562751
11
510.232712
21
276.144189
0
LINE
8
Calque 1
10
510.232712
20
276.144189
11
510.415368
21
274.846607
0
LINE
8
Calque 1
10
510.415368
20
274.846607
11
510.761342
21
273.644945
0
LINE
8
Calque 1
10
510.761342
20
273.644945
11
511.269550
21
272.514140
0
LINE
8
Calque 1
10
511.269550
20
272.514140
11
513.145139
21
268.752612
0
LINE
8
Calque 1
10
513.145139
20
268.752612
11
513.503599
21
267.594315
0
LINE
8
Calque 1
10
513.503599
20
267.594315
11
513.715000
21
266.310980
0
LINE
8
Calque 1
10
513.715000
20
266.310980
11
513.828689
21
264.275496
0
LINE
8
Calque 1
10
513.828689
20
264.275496
11
513.550039
21
262.580412
0
LINE
8
Calque 1
10
513.550039
20
262.580412
11
512.839642
21
261.099173
0
LINE
8
Calque 1
10
512.839642
20
261.099173
11
511.658090
21
259.705220
0
LINE
8
Calque 1
10
511.658090
20
259.705220
11
510.150825
21
258.484316
0
LINE
8
Calque 1
10
510.150825
20
258.484316
11
508.344700
21
257.752450
0
LINE
8
Calque 1
10
508.344700
20
257.752450
11
506.006631
21
257.328375
0
LINE
8
Calque 1
10
506.006631
20
257.328375
11
503.396644
21
257.352365
0
LINE
8
Calque 1
10
503.396644
20
257.352365
11
500.672834
21
257.810140
0
LINE
8
Calque 1
10
500.672834
20
257.810140
11
497.993300
21
258.687420
0
LINE
8
Calque 1
10
497.993300
20
258.687420
11
497.758098
21
258.717171
0
LINE
8
Calque 1
10
497.758098
20
258.717171
11
497.560179
21
258.554570
0
LINE
8
Calque 1
10
497.560179
20
258.554570
11
497.144150
21
257.461660
0
LINE
8
Calque 1
10
497.144150
20
257.461660
11
496.233736
21
255.224967
0
LINE
8
Calque 1
10
496.233736
20
255.224967
11
494.868842
21
253.045517
0
LINE
8
Calque 1
10
494.868842
20
253.045517
11
493.162643
21
251.076199
0
LINE
8
Calque 1
10
493.162643
20
251.076199
11
491.228310
21
249.469900
0
LINE
8
Calque 1
10
491.228310
20
249.469900
11
489.179201
21
248.245945
0
LINE
8
Calque 1
10
489.179201
20
248.245945
11
487.120136
21
247.422670
0
LINE
8
Calque 1
10
487.120136
20
247.422670
11
484.834101
21
246.934577
0
LINE
8
Calque 1
10
484.834101
20
246.934577
11
482.104080
21
246.716170
0
LINE
8
Calque 1
10
482.104080
20
246.716170
11
479.650714
21
246.717854
0
LINE
8
Calque 1
10
479.650714
20
246.717854
11
477.528731
21
246.923779
0
LINE
8
Calque 1
10
477.528731
20
246.923779
11
475.595158
21
247.356457
0
LINE
8
Calque 1
10
475.595158
20
247.356457
11
473.707020
21
248.038400
0
LINE
8
Calque 1
10
473.707020
20
248.038400
11
472.529940
21
248.539280
0
LINE
8
Calque 1
10
472.529940
20
248.539280
11
439.310840
21
215.320980
0
LINE
8
Calque 1
10
439.310840
20
215.320980
11
405.959640
21
182.102680
0
LINE
8
Calque 1
10
405.959640
20
182.102680
11
372.609140
21
215.321080
0
LINE
8
Calque 1
10
372.609140
20
215.321080
11
372.609000
21
215.321000
0
LINE
8
Calque 1
10
408.076700
20
193.310900
11
410.416220
21
195.305114
0
LINE
8
Calque 1
10
410.416220
20
195.305114
11
411.508732
21
196.427691
0
LINE
8
Calque 1
10
411.508732
20
196.427691
11
411.821240
21
196.929840
0
LINE
8
Calque 1
10
411.821240
20
196.929840
11
412.384030
21
197.339290
0
LINE
8
Calque 1
10
412.384030
20
197.339290
11
412.856500
21
197.696925
0
LINE
8
Calque 1
10
412.856500
20
197.696925
11
412.959670
21
197.996720
0
LINE
8
Calque 1
10
412.959670
20
197.996720
11
412.912982
21
198.157980
0
LINE
8
Calque 1
10
412.912982
20
198.157980
11
413.025070
21
198.182590
0
LINE
8
Calque 1
10
413.025070
20
198.182590
11
414.551019
21
199.491361
0
LINE
8
Calque 1
10
414.551019
20
199.491361
11
417.903480
21
202.740090
0
LINE
8
Calque 1
10
417.903480
20
202.740090
11
423.188000
21
207.946170
0
LINE
8
Calque 1
10
423.188000
20
207.946170
11
424.807280
21
209.599810
0
LINE
8
Calque 1
10
424.807280
20
209.599810
11
426.072360
21
210.677590
0
LINE
8
Calque 1
10
426.072360
20
210.677590
11
426.316077
21
210.802605
0
LINE
8
Calque 1
10
426.316077
20
210.802605
11
426.512830
21
211.103180
0
LINE
8
Calque 1
10
426.512830
20
211.103180
11
427.674110
21
212.492240
0
LINE
8
Calque 1
10
427.674110
20
212.492240
11
429.949890
21
214.686980
0
LINE
8
Calque 1
10
429.949890
20
214.686980
11
432.385470
21
217.134380
0
LINE
8
Calque 1
10
432.385470
20
217.134380
11
433.774530
21
218.350510
0
LINE
8
Calque 1
10
433.774530
20
218.350510
11
433.944242
21
218.447662
0
LINE
8
Calque 1
10
433.944242
20
218.447662
11
434.027480
21
218.681240
0
LINE
8
Calque 1
10
434.027480
20
218.681240
11
434.570471
21
219.381144
0
LINE
8
Calque 1
10
434.570471
20
219.381144
11
435.845560
21
220.599470
0
LINE
8
Calque 1
10
435.845560
20
220.599470
11
437.073391
21
221.790934
0
LINE
8
Calque 1
10
437.073391
20
221.790934
11
437.502810
21
222.426280
0
LINE
8
Calque 1
10
437.502810
20
222.426280
11
437.499386
21
222.536607
0
LINE
8
Calque 1
10
437.499386
20
222.536607
11
437.686920
21
222.465780
0
LINE
8
Calque 1
10
437.686920
20
222.465780
11
437.963446
21
222.463387
0
LINE
8
Calque 1
10
437.963446
20
222.463387
11
438.154750
21
222.818790
0
LINE
8
Calque 1
10
438.154750
20
222.818790
11
438.314019
21
223.173889
0
LINE
8
Calque 1
10
438.314019
20
223.173889
11
438.493950
21
223.251330
0
LINE
8
Calque 1
10
438.493950
20
223.251330
11
438.798054
21
223.358009
0
LINE
8
Calque 1
10
438.798054
20
223.358009
11
439.255870
21
223.783460
0
LINE
8
Calque 1
10
439.255870
20
223.783460
11
439.656930
21
224.435900
0
LINE
8
Calque 1
10
439.656930
20
224.435900
11
440.254000
21
225.021130
0
LINE
8
Calque 1
10
440.254000
20
225.021130
11
443.288870
21
227.865400
0
LINE
8
Calque 1
10
443.288870
20
227.865400
11
448.124300
21
232.637980
0
LINE
8
Calque 1
10
448.124300
20
232.637980
11
450.688160
21
235.151520
0
LINE
8
Calque 1
10
450.688160
20
235.151520
11
448.101680
21
235.329330
0
LINE
8
Calque 1
10
448.101680
20
235.329330
11
445.808646
21
235.579564
0
LINE
8
Calque 1
10
445.808646
20
235.579564
11
443.927700
21
235.931490
0
LINE
8
Calque 1
10
443.927700
20
235.931490
11
442.077826
21
236.559872
0
LINE
8
Calque 1
10
442.077826
20
236.559872
11
440.063375
21
237.466420
0
LINE
8
Calque 1
10
440.063375
20
237.466420
11
438.102399
21
238.542393
0
LINE
8
Calque 1
10
438.102399
20
238.542393
11
436.412950
21
239.679050
0
LINE
8
Calque 1
10
436.412950
20
239.679050
11
434.210350
21
241.348500
0
LINE
8
Calque 1
10
434.210350
20
241.348500
11
433.986904
21
241.400034
0
LINE
8
Calque 1
10
433.986904
20
241.400034
11
433.582750
21
241.207376
0
LINE
8
Calque 1
10
433.582750
20
241.207376
11
431.694311
21
239.584646
0
LINE
8
Calque 1
10
431.694311
20
239.584646
11
419.830850
21
227.855700
0
LINE
8
Calque 1
10
419.830850
20
227.855700
11
405.960050
21
213.986700
0
LINE
8
Calque 1
10
405.960050
20
213.986700
11
392.003250
21
227.918300
0
LINE
8
Calque 1
10
392.003250
20
227.918300
11
378.046450
21
241.849900
0
LINE
8
Calque 1
10
378.046450
20
241.849900
11
377.384990
21
241.191530
0
LINE
8
Calque 1
10
377.384990
20
241.191530
11
376.245217
21
240.208744
0
LINE
8
Calque 1
10
376.245217
20
240.208744
11
374.759260
21
239.141586
0
LINE
8
Calque 1
10
374.759260
20
239.141586
11
371.540670
21
237.283650
0
LINE
8
Calque 1
10
371.540670
20
237.283650
11
369.662811
21
236.485576
0
LINE
8
Calque 1
10
369.662811
20
236.485576
11
367.868025
21
235.922715
0
LINE
8
Calque 1
10
367.868025
20
235.922715
11
366.013742
21
235.558859
0
LINE
8
Calque 1
10
366.013742
20
235.558859
11
363.957390
21
235.357800
0
LINE
8
Calque 1
10
363.957390
20
235.357800
11
362.228914
21
235.197200
0
LINE
8
Calque 1
10
362.228914
20
235.197200
11
361.509990
21
235.016380
0
LINE
8
Calque 1
10
361.509990
20
235.016380
11
362.840570
21
233.531070
0
LINE
8
Calque 1
10
362.840570
20
233.531070
11
368.905540
21
227.610780
0
LINE
8
Calque 1
10
368.905540
20
227.610780
11
375.384730
21
221.331680
0
LINE
8
Calque 1
10
375.384730
20
221.331680
11
377.132430
21
219.553470
0
LINE
8
Calque 1
10
377.132430
20
219.553470
11
379.740580
21
217.031440
0
LINE
8
Calque 1
10
379.740580
20
217.031440
11
380.221750
21
216.498280
0
LINE
8
Calque 1
10
380.221750
20
216.498280
11
381.785560
21
214.844630
0
LINE
8
Calque 1
10
381.785560
20
214.844630
11
385.136904
21
211.571244
0
LINE
8
Calque 1
10
385.136904
20
211.571244
11
385.851660
21
210.656570
0
LINE
8
Calque 1
10
385.851660
20
210.656570
11
385.948809
21
210.477539
0
LINE
8
Calque 1
10
385.948809
20
210.477539
11
386.182390
21
210.389310
0
LINE
8
Calque 1
10
386.182390
20
210.389310
11
386.804572
21
209.920167
0
LINE
8
Calque 1
10
386.804572
20
209.920167
11
387.836030
21
208.825360
0
LINE
8
Calque 1
10
387.836030
20
208.825360
11
389.365470
21
207.261410
0
LINE
8
Calque 1
10
389.365470
20
207.261410
11
390.385060
21
206.311820
0
LINE
8
Calque 1
10
390.385060
20
206.311820
11
391.070271
21
205.657805
0
LINE
8
Calque 1
10
391.070271
20
205.657805
11
391.575910
21
205.385780
0
LINE
8
Calque 1
10
391.575910
20
205.385780
11
391.893429
21
205.249767
0
LINE
8
Calque 1
10
391.893429
20
205.249767
11
392.126340
21
204.922760
0
LINE
8
Calque 1
10
392.126340
20
204.922760
11
392.546949
21
204.254962
0
LINE
8
Calque 1
10
392.546949
20
204.254962
11
393.243415
21
203.463266
0
LINE
8
Calque 1
10
393.243415
20
203.463266
11
393.940391
21
202.829373
0
LINE
8
Calque 1
10
393.940391
20
202.829373
11
394.362530
21
202.634980
0
LINE
8
Calque 1
10
394.362530
20
202.634980
11
394.592976
21
202.536667
0
LINE
8
Calque 1
10
394.592976
20
202.536667
11
394.836180
21
202.108250
0
LINE
8
Calque 1
10
394.836180
20
202.108250
11
395.231551
21
201.501402
0
LINE
8
Calque 1
10
395.231551
20
201.501402
11
395.827870
21
200.974190
0
LINE
8
Calque 1
10
395.827870
20
200.974190
11
396.769710
21
200.182960
0
LINE
8
Calque 1
10
396.769710
20
200.182960
11
397.831032
21
199.009504
0
LINE
8
Calque 1
10
397.831032
20
199.009504
11
398.805730
21
198.242030
0
LINE
8
Calque 1
10
398.805730
20
198.242030
11
399.164450
21
197.686240
0
LINE
8
Calque 1
10
399.164450
20
197.686240
11
399.350006
21
197.344807
0
LINE
8
Calque 1
10
399.350006
20
197.344807
11
399.592180
21
197.304980
0
LINE
8
Calque 1
10
399.592180
20
197.304980
11
399.791620
21
197.345967
0
LINE
8
Calque 1
10
399.791620
20
197.345967
11
399.874570
21
197.199380
0
LINE
8
Calque 1
10
399.874570
20
197.199380
11
400.461485
21
196.365144
0
LINE
8
Calque 1
10
400.461485
20
196.365144
11
401.792706
21
195.019011
0
LINE
8
Calque 1
10
401.792706
20
195.019011
11
403.223950
21
193.766953
0
LINE
8
Calque 1
10
403.223950
20
193.766953
11
404.110930
21
193.214940
0
LINE
8
Calque 1
10
404.110930
20
193.214940
11
404.295657
21
193.124266
0
LINE
8
Calque 1
10
404.295657
20
193.124266
11
404.372490
21
192.906250
0
LINE
8
Calque 1
10
404.372490
20
192.906250
11
404.416281
21
192.732034
0
LINE
8
Calque 1
10
404.416281
20
192.732034
11
404.521520
21
192.746600
0
LINE
8
Calque 1
10
404.521520
20
192.746600
11
405.381420
21
192.703000
0
LINE
8
Calque 1
10
405.381420
20
192.703000
11
405.990515
21
192.601575
0
LINE
8
Calque 1
10
405.990515
20
192.601575
11
406.589049
21
192.656947
0
LINE
8
Calque 1
10
406.589049
20
192.656947
11
408.076660
21
193.310750
0
LINE
8
Calque 1
10
408.076660
20
193.310750
11
408.076700
21
193.310900
0
LINE
8
Calque 1
10
409.442480
20
231.157400
11
412.145093
21
231.904222
0
LINE
8
Calque 1
10
412.145093
20
231.904222
11
414.835334
21
233.085389
0
LINE
8
Calque 1
10
414.835334
20
233.085389
11
417.461696
21
234.656993
0
LINE
8
Calque 1
10
417.461696
20
234.656993
11
419.972672
21
236.575126
0
LINE
8
Calque 1
10
419.972672
20
236.575126
11
422.316756
21
238.795881
0
LINE
8
Calque 1
10
422.316756
20
238.795881
11
424.442440
21
241.275350
0
LINE
8
Calque 1
10
424.442440
20
241.275350
11
426.298217
21
243.969626
0
LINE
8
Calque 1
10
426.298217
20
243.969626
11
427.832580
21
246.834800
0
LINE
8
Calque 1
10
427.832580
20
246.834800
11
428.455219
21
248.342949
0
LINE
8
Calque 1
10
428.455219
20
248.342949
11
428.714190
21
249.289430
0
LINE
8
Calque 1
10
428.714190
20
249.289430
11
428.868028
21
249.844431
0
LINE
8
Calque 1
10
428.868028
20
249.844431
11
429.245704
21
250.351459
0
LINE
8
Calque 1
10
429.245704
20
250.351459
11
429.721463
21
250.686442
0
LINE
8
Calque 1
10
429.721463
20
250.686442
11
430.169550
21
250.725310
0
LINE
8
Calque 1
10
430.169550
20
250.725310
11
430.718690
21
250.059994
0
LINE
8
Calque 1
10
430.718690
20
250.059994
11
431.464570
21
248.680790
0
LINE
8
Calque 1
10
431.464570
20
248.680790
11
432.342629
21
247.083234
0
LINE
8
Calque 1
10
432.342629
20
247.083234
11
433.446561
21
245.523580
0
LINE
8
Calque 1
10
433.446561
20
245.523580
11
434.743902
21
244.030330
0
LINE
8
Calque 1
10
434.743902
20
244.030330
11
436.202186
21
242.631985
0
LINE
8
Calque 1
10
436.202186
20
242.631985
11
437.788950
21
241.357047
0
LINE
8
Calque 1
10
437.788950
20
241.357047
11
439.471728
21
240.234017
0
LINE
8
Calque 1
10
439.471728
20
240.234017
11
441.218056
21
239.291398
0
LINE
8
Calque 1
10
441.218056
20
239.291398
11
442.995470
21
238.557690
0
LINE
8
Calque 1
10
442.995470
20
238.557690
11
445.779028
21
237.812595
0
LINE
8
Calque 1
10
445.779028
20
237.812595
11
448.511110
21
237.521918
0
LINE
8
Calque 1
10
448.511110
20
237.521918
11
451.170851
21
237.678881
0
LINE
8
Calque 1
10
451.170851
20
237.678881
11
453.737386
21
238.276710
0
LINE
8
Calque 1
10
453.737386
20
238.276710
11
456.189851
21
239.308630
0
LINE
8
Calque 1
10
456.189851
20
239.308630
11
458.507379
21
240.767865
0
LINE
8
Calque 1
10
458.507379
20
240.767865
11
460.669107
21
242.647640
0
LINE
8
Calque 1
10
460.669107
20
242.647640
11
462.654170
21
244.941180
0
LINE
8
Calque 1
10
462.654170
20
244.941180
11
464.054572
21
247.028354
0
LINE
8
Calque 1
10
464.054572
20
247.028354
11
465.321590
21
249.347598
0
LINE
8
Calque 1
10
465.321590
20
249.347598
11
466.320528
21
251.625632
0
LINE
8
Calque 1
10
466.320528
20
251.625632
11
466.916690
21
253.589180
0
LINE
8
Calque 1
10
466.916690
20
253.589180
11
467.397852
21
255.049581
0
LINE
8
Calque 1
10
467.397852
20
255.049581
11
467.698281
21
255.462067
0
LINE
8
Calque 1
10
467.698281
20
255.462067
11
468.026585
21
255.659582
0
LINE
8
Calque 1
10
468.026585
20
255.659582
11
468.373748
21
255.639754
0
LINE
8
Calque 1
10
468.373748
20
255.639754
11
468.730752
21
255.400211
0
LINE
8
Calque 1
10
468.730752
20
255.400211
11
469.438220
21
254.252490
0
LINE
8
Calque 1
10
469.438220
20
254.252490
11
469.883815
21
253.463083
0
LINE
8
Calque 1
10
469.883815
20
253.463083
11
470.527564
21
252.683767
0
LINE
8
Calque 1
10
470.527564
20
252.683767
11
472.309391
21
251.221691
0
LINE
8
Calque 1
10
472.309391
20
251.221691
11
474.583445
21
249.998830
0
LINE
8
Calque 1
10
474.583445
20
249.998830
11
477.149470
21
249.147750
0
LINE
8
Calque 1
10
477.149470
20
249.147750
11
479.132661
21
248.850413
0
LINE
8
Calque 1
10
479.132661
20
248.850413
11
481.440676
21
248.757476
0
LINE
8
Calque 1
10
481.440676
20
248.757476
11
483.722503
21
248.867626
0
LINE
8
Calque 1
10
483.722503
20
248.867626
11
485.627130
21
249.179550
0
LINE
8
Calque 1
10
485.627130
20
249.179550
11
487.117797
21
249.664593
0
LINE
8
Calque 1
10
487.117797
20
249.664593
11
488.608720
21
250.327635
0
LINE
8
Calque 1
10
488.608720
20
250.327635
11
489.957961
21
251.097087
0
LINE
8
Calque 1
10
489.957961
20
251.097087
11
491.023580
21
251.901360
0
LINE
8
Calque 1
10
491.023580
20
251.901360
11
492.829976
21
253.892167
0
LINE
8
Calque 1
10
492.829976
20
253.892167
11
494.298042
21
256.177000
0
LINE
8
Calque 1
10
494.298042
20
256.177000
11
495.285716
21
258.489883
0
LINE
8
Calque 1
10
495.285716
20
258.489883
11
495.555009
21
259.573726
0
LINE
8
Calque 1
10
495.555009
20
259.573726
11
495.650930
21
260.564840
0
LINE
8
Calque 1
10
495.650930
20
260.564840
11
495.746374
21
261.228034
0
LINE
8
Calque 1
10
495.746374
20
261.228034
11
495.971290
21
261.689320
0
LINE
8
Calque 1
10
495.971290
20
261.689320
11
496.402069
21
261.933330
0
LINE
8
Calque 1
10
496.402069
20
261.933330
11
496.924454
21
261.994566
0
LINE
8
Calque 1
10
496.924454
20
261.994566
11
497.397209
21
261.880529
0
LINE
8
Calque 1
10
497.397209
20
261.880529
11
497.679100
21
261.598720
0
LINE
8
Calque 1
10
497.679100
20
261.598720
11
497.982161
21
261.206425
0
LINE
8
Calque 1
10
497.982161
20
261.206425
11
498.559778
21
260.813931
0
LINE
8
Calque 1
10
498.559778
20
260.813931
11
500.330480
21
260.093079
0
LINE
8
Calque 1
10
500.330480
20
260.093079
11
502.574799
21
259.565627
0
LINE
8
Calque 1
10
502.574799
20
259.565627
11
504.876330
21
259.361040
0
LINE
8
Calque 1
10
504.876330
20
259.361040
11
507.301523
21
259.634050
0
LINE
8
Calque 1
10
507.301523
20
259.634050
11
508.346709
21
259.967420
0
LINE
8
Calque 1
10
508.346709
20
259.967420
11
509.268676
21
260.425019
0
LINE
8
Calque 1
10
509.268676
20
260.425019
11
510.058713
21
261.001583
0
LINE
8
Calque 1
10
510.058713
20
261.001583
11
510.708109
21
261.691853
0
LINE
8
Calque 1
10
510.708109
20
261.691853
11
511.208155
21
262.490566
0
LINE
8
Calque 1
10
511.208155
20
262.490566
11
511.550140
21
263.392460
0
LINE
8
Calque 1
10
511.550140
20
263.392460
11
511.730970
21
264.838150
0
LINE
8
Calque 1
10
511.730970
20
264.838150
11
511.568571
21
266.472289
0
LINE
8
Calque 1
10
511.568571
20
266.472289
11
511.083854
21
268.186638
0
LINE
8
Calque 1
10
511.083854
20
268.186638
11
510.297730
21
269.872960
0
LINE
8
Calque 1
10
510.297730
20
269.872960
11
509.158515
21
271.969204
0
LINE
8
Calque 1
10
509.158515
20
271.969204
11
508.545992
21
273.525095
0
LINE
8
Calque 1
10
508.545992
20
273.525095
11
508.301499
21
275.124854
0
LINE
8
Calque 1
10
508.301499
20
275.124854
11
508.266370
21
277.352700
0
LINE
8
Calque 1
10
508.266370
20
277.352700
11
508.407164
21
280.434333
0
LINE
8
Calque 1
10
508.407164
20
280.434333
11
508.943170
21
282.776660
0
LINE
8
Calque 1
10
508.943170
20
282.776660
11
510.649470
21
288.650823
0
LINE
8
Calque 1
10
510.649470
20
288.650823
11
511.036140
21
290.527528
0
LINE
8
Calque 1
10
511.036140
20
290.527528
11
511.274270
21
292.365540
0
LINE
8
Calque 1
10
511.274270
20
292.365540
11
511.451077
21
295.236140
0
LINE
8
Calque 1
10
511.451077
20
295.236140
11
511.391247
21
298.033743
0
LINE
8
Calque 1
10
511.391247
20
298.033743
11
511.103756
21
300.722317
0
LINE
8
Calque 1
10
511.103756
20
300.722317
11
510.597579
21
303.265826
0
LINE
8
Calque 1
10
510.597579
20
303.265826
11
509.881692
21
305.628237
0
LINE
8
Calque 1
10
509.881692
20
305.628237
11
508.965071
21
307.773516
0
LINE
8
Calque 1
10
508.965071
20
307.773516
11
507.856692
21
309.665628
0
LINE
8
Calque 1
10
507.856692
20
309.665628
11
506.565530
21
311.268540
0
LINE
8
Calque 1
10
506.565530
20
311.268540
11
504.541557
21
312.986963
0
LINE
8
Calque 1
10
504.541557
20
312.986963
11
503.435082
21
313.636100
0
LINE
8
Calque 1
10
503.435082
20
313.636100
11
502.257141
21
314.148286
0
LINE
8
Calque 1
10
502.257141
20
314.148286
11
499.661440
21
314.771097
0
LINE
8
Calque 1
10
499.661440
20
314.771097
11
496.703610
21
314.873980
0
LINE
8
Calque 1
10
496.703610
20
314.873980
11
495.218799
21
314.721198
0
LINE
8
Calque 1
10
495.218799
20
314.721198
11
493.858766
21
314.391313
0
LINE
8
Calque 1
10
493.858766
20
314.391313
11
492.581121
21
313.853075
0
LINE
8
Calque 1
10
492.581121
20
313.853075
11
491.343472
21
313.075234
0
LINE
8
Calque 1
10
491.343472
20
313.075234
11
490.103428
21
312.026539
0
LINE
8
Calque 1
10
490.103428
20
312.026539
11
488.818597
21
310.675740
0
LINE
8
Calque 1
10
488.818597
20
310.675740
11
485.945010
21
306.942830
0
LINE
8
Calque 1
10
485.945010
20
306.942830
11
484.057224
21
304.474583
0
LINE
8
Calque 1
10
484.057224
20
304.474583
11
482.513949
21
303.008393
0
LINE
8
Calque 1
10
482.513949
20
303.008393
11
481.808913
21
302.607006
0
LINE
8
Calque 1
10
481.808913
20
302.607006
11
481.114897
21
302.403258
0
LINE
8
Calque 1
10
481.114897
20
302.403258
11
480.406865
21
302.379525
0
LINE
8
Calque 1
10
480.406865
20
302.379525
11
479.659780
21
302.518180
0
LINE
8
Calque 1
10
479.659780
20
302.518180
11
478.735112
21
302.904522
0
LINE
8
Calque 1
10
478.735112
20
302.904522
11
477.802092
21
303.599393
0
LINE
8
Calque 1
10
477.802092
20
303.599393
11
476.755519
21
304.698112
0
LINE
8
Calque 1
10
476.755519
20
304.698112
11
475.490190
21
306.296000
0
LINE
8
Calque 1
10
475.490190
20
306.296000
11
472.834903
21
309.537622
0
LINE
8
Calque 1
10
472.834903
20
309.537622
11
471.631801
21
310.730773
0
LINE
8
Calque 1
10
471.631801
20
310.730773
11
470.457226
21
311.677498
0
LINE
8
Calque 1
10
470.457226
20
311.677498
11
469.270303
21
312.406808
0
LINE
8
Calque 1
10
469.270303
20
312.406808
11
468.030156
21
312.947714
0
LINE
8
Calque 1
10
468.030156
20
312.947714
11
466.695910
21
313.329228
0
LINE
8
Calque 1
10
466.695910
20
313.329228
11
465.226690
21
313.580360
0
LINE
8
Calque 1
10
465.226690
20
313.580360
11
463.790319
21
313.684275
0
LINE
8
Calque 1
10
463.790319
20
313.684275
11
462.396096
21
313.630569
0
LINE
8
Calque 1
10
462.396096
20
313.630569
11
461.051412
21
313.421810
0
LINE
8
Calque 1
10
461.051412
20
313.421810
11
459.763657
21
313.060565
0
LINE
8
Calque 1
10
459.763657
20
313.060565
11
458.540224
21
312.549403
0
LINE
8
Calque 1
10
458.540224
20
312.549403
11
457.388503
21
311.890891
0
LINE
8
Calque 1
10
457.388503
20
311.890891
11
456.315884
21
311.087598
0
LINE
8
Calque 1
10
456.315884
20
311.087598
11
455.329760
21
310.142090
0
LINE
8
Calque 1
10
455.329760
20
310.142090
11
453.649897
21
308.045559
0
LINE
8
Calque 1
10
453.649897
20
308.045559
11
451.576360
21
305.127710
0
LINE
8
Calque 1
10
451.576360
20
305.127710
11
449.618774
21
302.401261
0
LINE
8
Calque 1
10
449.618774
20
302.401261
11
448.217680
21
300.764900
0
LINE
8
Calque 1
10
448.217680
20
300.764900
11
447.143601
21
300.021590
0
LINE
8
Calque 1
10
447.143601
20
300.021590
11
446.007556
21
299.567464
0
LINE
8
Calque 1
10
446.007556
20
299.567464
11
444.834643
21
299.409181
0
LINE
8
Calque 1
10
444.834643
20
299.409181
11
443.649960
21
299.553400
0
LINE
8
Calque 1
10
443.649960
20
299.553400
11
442.368567
21
300.000020
0
LINE
8
Calque 1
10
442.368567
20
300.000020
11
441.086885
21
300.797705
0
LINE
8
Calque 1
10
441.086885
20
300.797705
11
439.500268
21
302.177758
0
LINE
8
Calque 1
10
439.500268
20
302.177758
11
437.304070
21
304.371480
0
LINE
8
Calque 1
10
437.304070
20
304.371480
11
433.070740
21
308.472150
0
LINE
8
Calque 1
10
433.070740
20
308.472150
11
431.476736
21
309.536973
0
LINE
8
Calque 1
10
431.476736
20
309.536973
11
429.832828
21
310.277900
0
LINE
8
Calque 1
10
429.832828
20
310.277900
11
428.162502
21
310.695846
0
LINE
8
Calque 1
10
428.162502
20
310.695846
11
426.489245
21
310.791724
0
LINE
8
Calque 1
10
426.489245
20
310.791724
11
424.836544
21
310.566447
0
LINE
8
Calque 1
10
424.836544
20
310.566447
11
423.227884
21
310.020930
0
LINE
8
Calque 1
10
423.227884
20
310.020930
11
421.686754
21
309.156087
0
LINE
8
Calque 1
10
421.686754
20
309.156087
11
420.236640
21
307.972830
0
LINE
8
Calque 1
10
420.236640
20
307.972830
11
418.665390
21
306.160861
0
LINE
8
Calque 1
10
418.665390
20
306.160861
11
416.450970
21
303.306550
0
LINE
8
Calque 1
10
416.450970
20
303.306550
11
413.415992
21
299.501812
0
LINE
8
Calque 1
10
413.415992
20
299.501812
11
412.125710
21
298.160637
0
LINE
8
Calque 1
10
412.125710
20
298.160637
11
410.920689
21
297.145013
0
LINE
8
Calque 1
10
410.920689
20
297.145013
11
409.751272
21
296.418505
0
LINE
8
Calque 1
10
409.751272
20
296.418505
11
408.567801
21
295.944679
0
LINE
8
Calque 1
10
408.567801
20
295.944679
11
407.320620
21
295.687103
0
LINE
8
Calque 1
10
407.320620
20
295.687103
11
405.960070
21
295.609340
0
LINE
8
Calque 1
10
405.960070
20
295.609340
11
404.599510
21
295.687103
0
LINE
8
Calque 1
10
404.599510
20
295.687103
11
403.352322
21
295.944679
0
LINE
8
Calque 1
10
403.352322
20
295.944679
11
402.168847
21
296.418505
0
LINE
8
Calque 1
10
402.168847
20
296.418505
11
400.999429
21
297.145013
0
LINE
8
Calque 1
10
400.999429
20
297.145013
11
399.794409
21
298.160637
0
LINE
8
Calque 1
10
399.794409
20
298.160637
11
398.504131
21
299.501812
0
LINE
8
Calque 1
10
398.504131
20
299.501812
11
395.469170
21
303.306550
0
LINE
8
Calque 1
10
395.469170
20
303.306550
11
393.387820
21
306.010948
0
LINE
8
Calque 1
10
393.387820
20
306.010948
11
391.767817
21
307.838838
0
LINE
8
Calque 1
10
391.767817
20
307.838838
11
390.339046
21
309.060393
0
LINE
8
Calque 1
10
390.339046
20
309.060393
11
388.831390
21
309.945790
0
LINE
8
Calque 1
10
388.831390
20
309.945790
11
387.101644
21
310.615974
0
LINE
8
Calque 1
10
387.101644
20
310.615974
11
385.082180
21
310.759800
0
LINE
8
Calque 1
10
385.082180
20
310.759800
11
383.035307
21
310.610116
0
LINE
8
Calque 1
10
383.035307
20
310.610116
11
381.176520
21
309.916390
0
LINE
8
Calque 1
10
381.176520
20
309.916390
11
380.093664
21
309.331283
0
LINE
8
Calque 1
10
380.093664
20
309.331283
11
378.960124
21
308.482050
0
LINE
8
Calque 1
10
378.960124
20
308.482050
11
375.261180
21
304.907510
0
LINE
8
Calque 1
10
375.261180
20
304.907510
11
371.782263
21
301.594754
0
LINE
8
Calque 1
10
371.782263
20
301.594754
11
370.412927
21
300.516695
0
LINE
8
Calque 1
10
370.412927
20
300.516695
11
369.217490
21
299.787746
0
LINE
8
Calque 1
10
369.217490
20
299.787746
11
368.141314
21
299.380582
0
LINE
8
Calque 1
10
368.141314
20
299.380582
11
367.129762
21
299.267875
0
LINE
8
Calque 1
10
367.129762
20
299.267875
11
366.128196
21
299.422300
0
LINE
8
Calque 1
10
366.128196
20
299.422300
11
365.081980
21
299.816530
0
LINE
8
Calque 1
10
365.081980
20
299.816530
11
364.021144
21
300.470906
0
LINE
8
Calque 1
10
364.021144
20
300.470906
11
362.910572
21
301.542368
0
LINE
8
Calque 1
10
362.910572
20
301.542368
11
361.589142
21
303.212551
0
LINE
8
Calque 1
10
361.589142
20
303.212551
11
359.895730
21
305.663090
0
LINE
8
Calque 1
10
359.895730
20
305.663090
11
358.030830
21
308.287112
0
LINE
8
Calque 1
10
358.030830
20
308.287112
11
356.353155
21
310.240448
0
LINE
8
Calque 1
10
356.353155
20
310.240448
11
354.737715
21
311.650765
0
LINE
8
Calque 1
10
354.737715
20
311.650765
11
353.059520
21
312.645730
0
LINE
8
Calque 1
10
353.059520
20
312.645730
11
352.021119
21
313.103201
0
LINE
8
Calque 1
10
352.021119
20
313.103201
11
351.115900
21
313.348539
0
LINE
8
Calque 1
10
351.115900
20
313.348539
11
348.148650
21
313.461270
0
LINE
8
Calque 1
10
348.148650
20
313.461270
11
345.178007
21
313.334025
0
LINE
8
Calque 1
10
345.178007
20
313.334025
11
344.258316
21
313.084496
0
LINE
8
Calque 1
10
344.258316
20
313.084496
11
343.200140
21
312.623610
0
LINE
8
Calque 1
10
343.200140
20
312.623610
11
341.612837
21
311.722312
0
LINE
8
Calque 1
10
341.612837
20
311.722312
11
340.089560
21
310.510625
0
LINE
8
Calque 1
10
340.089560
20
310.510625
11
338.547840
21
308.912958
0
LINE
8
Calque 1
10
338.547840
20
308.912958
11
336.905210
21
306.853720
0
LINE
8
Calque 1
10
336.905210
20
306.853720
11
334.830785
21
304.275255
0
LINE
8
Calque 1
10
334.830785
20
304.275255
11
333.180560
21
302.815574
0
LINE
8
Calque 1
10
333.180560
20
302.815574
11
332.434957
21
302.455467
0
LINE
8
Calque 1
10
332.434957
20
302.455467
11
331.699925
21
302.315283
0
LINE
8
Calque 1
10
331.699925
20
302.315283
11
330.943638
21
302.375099
0
LINE
8
Calque 1
10
330.943638
20
302.375099
11
330.134270
21
302.614990
0
LINE
8
Calque 1
10
330.134270
20
302.614990
11
329.173608
21
303.119857
0
LINE
8
Calque 1
10
329.173608
20
303.119857
11
328.178402
21
304.001594
0
LINE
8
Calque 1
10
328.178402
20
304.001594
11
326.953768
21
305.466191
0
LINE
8
Calque 1
10
326.953768
20
305.466191
11
325.304820
21
307.719640
0
LINE
8
Calque 1
10
325.304820
20
307.719640
11
322.670637
21
311.072459
0
LINE
8
Calque 1
10
322.670637
20
311.072459
11
321.455226
21
312.289500
0
LINE
8
Calque 1
10
321.455226
20
312.289500
11
320.253877
21
313.236844
0
LINE
8
Calque 1
10
320.253877
20
313.236844
11
319.026296
21
313.941904
0
LINE
8
Calque 1
10
319.026296
20
313.941904
11
317.732189
21
314.432092
0
LINE
8
Calque 1
10
317.732189
20
314.432092
11
316.331262
21
314.734820
0
LINE
8
Calque 1
10
316.331262
20
314.734820
11
314.783220
21
314.877500
0
LINE
8
Calque 1
10
314.783220
20
314.877500
11
312.544747
21
314.809094
0
LINE
8
Calque 1
10
312.544747
20
314.809094
11
310.467401
21
314.404672
0
LINE
8
Calque 1
10
310.467401
20
314.404672
11
308.559656
21
313.670531
0
LINE
8
Calque 1
10
308.559656
20
313.670531
11
306.829981
21
312.612968
0
LINE
8
Calque 1
10
306.829981
20
312.612968
11
305.286849
21
311.238276
0
LINE
8
Calque 1
10
305.286849
20
311.238276
11
303.938730
21
309.552754
0
LINE
8
Calque 1
10
303.938730
20
309.552754
11
302.794097
21
307.562697
0
LINE
8
Calque 1
10
302.794097
20
307.562697
11
301.861420
21
305.274400
0
LINE
8
Calque 1
10
301.861420
20
305.274400
11
301.120560
21
302.370733
0
LINE
8
Calque 1
10
301.120560
20
302.370733
11
300.650767
21
299.002569
0
LINE
8
Calque 1
10
300.650767
20
299.002569
11
300.483078
21
295.504195
0
LINE
8
Calque 1
10
300.483078
20
295.504195
11
300.648530
21
292.209900
0
LINE
8
Calque 1
10
300.648530
20
292.209900
11
301.236220
21
288.748873
0
LINE
8
Calque 1
10
301.236220
20
288.748873
11
302.900190
21
283.041220
0
LINE
8
Calque 1
10
302.900190
20
283.041220
11
303.505941
21
280.494046
0
LINE
8
Calque 1
10
303.505941
20
280.494046
11
303.653870
21
277.352670
0
LINE
8
Calque 1
10
303.653870
20
277.352670
11
303.618726
21
275.124821
0
LINE
8
Calque 1
10
303.618726
20
275.124821
11
303.374217
21
273.525050
0
LINE
8
Calque 1
10
303.374217
20
273.525050
11
302.761680
21
271.969154
0
LINE
8
Calque 1
10
302.761680
20
271.969154
11
301.622450
21
269.872930
0
LINE
8
Calque 1
10
301.622450
20
269.872930
11
300.836334
21
268.186608
0
LINE
8
Calque 1
10
300.836334
20
268.186608
11
300.351616
21
266.472259
0
LINE
8
Calque 1
10
300.351616
20
266.472259
11
300.189213
21
264.838120
0
LINE
8
Calque 1
10
300.189213
20
264.838120
11
300.370040
21
263.392430
0
LINE
8
Calque 1
10
300.370040
20
263.392430
11
300.712025
21
262.490536
0
LINE
8
Calque 1
10
300.712025
20
262.490536
11
301.212071
21
261.691823
0
LINE
8
Calque 1
10
301.212071
20
261.691823
11
301.861467
21
261.001553
0
LINE
8
Calque 1
10
301.861467
20
261.001553
11
302.651504
21
260.424989
0
LINE
8
Calque 1
10
302.651504
20
260.424989
11
303.573471
21
259.967390
0
LINE
8
Calque 1
10
303.573471
20
259.967390
11
304.618657
21
259.634020
0
LINE
8
Calque 1
10
304.618657
20
259.634020
11
307.043850
21
259.361010
0
LINE
8
Calque 1
10
307.043850
20
259.361010
11
309.355950
21
259.565982
0
LINE
8
Calque 1
10
309.355950
20
259.565982
11
311.599925
21
260.095553
0
LINE
8
Calque 1
10
311.599925
20
260.095553
11
313.366870
21
260.821702
0
LINE
8
Calque 1
10
313.366870
20
260.821702
11
313.943674
21
261.218487
0
LINE
8
Calque 1
10
313.943674
20
261.218487
11
314.247880
21
261.616410
0
LINE
8
Calque 1
10
314.247880
20
261.616410
11
314.552904
21
261.913575
0
LINE
8
Calque 1
10
314.552904
20
261.913575
11
315.135540
21
261.958410
0
LINE
8
Calque 1
10
315.135540
20
261.958410
11
315.598742
21
261.849981
0
LINE
8
Calque 1
10
315.598742
20
261.849981
11
315.908840
21
261.497893
0
LINE
8
Calque 1
10
315.908840
20
261.497893
11
316.545880
21
259.096420
0
LINE
8
Calque 1
10
316.545880
20
259.096420
11
317.067238
21
257.351813
0
LINE
8
Calque 1
10
317.067238
20
257.351813
11
317.828047
21
255.710493
0
LINE
8
Calque 1
10
317.828047
20
255.710493
11
318.808158
21
254.192960
0
LINE
8
Calque 1
10
318.808158
20
254.192960
11
319.987422
21
252.819713
0
LINE
8
Calque 1
10
319.987422
20
252.819713
11
321.345693
21
251.611250
0
LINE
8
Calque 1
10
321.345693
20
251.611250
11
322.862820
21
250.588073
0
LINE
8
Calque 1
10
322.862820
20
250.588073
11
324.518655
21
249.770680
0
LINE
8
Calque 1
10
324.518655
20
249.770680
11
326.293050
21
249.179570
0
LINE
8
Calque 1
10
326.293050
20
249.179570
11
328.197677
21
248.867658
0
LINE
8
Calque 1
10
328.197677
20
248.867658
11
330.479504
21
248.757511
0
LINE
8
Calque 1
10
330.479504
20
248.757511
11
332.787519
21
248.850444
0
LINE
8
Calque 1
10
332.787519
20
248.850444
11
334.770710
21
249.147770
0
LINE
8
Calque 1
10
334.770710
20
249.147770
11
337.336735
21
249.998850
0
LINE
8
Calque 1
10
337.336735
20
249.998850
11
339.610789
21
251.221711
0
LINE
8
Calque 1
10
339.610789
20
251.221711
11
341.392616
21
252.683787
0
LINE
8
Calque 1
10
341.392616
20
252.683787
11
342.036365
21
253.463103
0
LINE
8
Calque 1
10
342.036365
20
253.463103
11
342.481960
21
254.252510
0
LINE
8
Calque 1
10
342.481960
20
254.252510
11
343.189427
21
255.400231
0
LINE
8
Calque 1
10
343.189427
20
255.400231
11
343.546432
21
255.639774
0
LINE
8
Calque 1
10
343.546432
20
255.639774
11
343.893595
21
255.659603
0
LINE
8
Calque 1
10
343.893595
20
255.659603
11
344.221899
21
255.462087
0
LINE
8
Calque 1
10
344.221899
20
255.462087
11
344.522327
21
255.049601
0
LINE
8
Calque 1
10
344.522327
20
255.049601
11
345.003490
21
253.589200
0
LINE
8
Calque 1
10
345.003490
20
253.589200
11
345.599652
21
251.625652
0
LINE
8
Calque 1
10
345.599652
20
251.625652
11
346.598590
21
249.347618
0
LINE
8
Calque 1
10
346.598590
20
249.347618
11
347.865608
21
247.028374
0
LINE
8
Calque 1
10
347.865608
20
247.028374
11
349.266010
21
244.941200
0
LINE
8
Calque 1
10
349.266010
20
244.941200
11
351.251073
21
242.647660
0
LINE
8
Calque 1
10
351.251073
20
242.647660
11
353.412802
21
240.767885
0
LINE
8
Calque 1
10
353.412802
20
240.767885
11
355.730332
21
239.308650
0
LINE
8
Calque 1
10
355.730332
20
239.308650
11
358.182797
21
238.276730
0
LINE
8
Calque 1
10
358.182797
20
238.276730
11
360.749333
21
237.678901
0
LINE
8
Calque 1
10
360.749333
20
237.678901
11
363.409074
21
237.521938
0
LINE
8
Calque 1
10
363.409074
20
237.521938
11
366.141155
21
237.812615
0
LINE
8
Calque 1
10
366.141155
20
237.812615
11
368.924710
21
238.557710
0
LINE
8
Calque 1
10
368.924710
20
238.557710
11
370.702117
21
239.291428
0
LINE
8
Calque 1
10
370.702117
20
239.291428
11
372.448441
21
240.234054
0
LINE
8
Calque 1
10
372.448441
20
240.234054
11
374.131216
21
241.357088
0
LINE
8
Calque 1
10
374.131216
20
241.357088
11
375.717979
21
242.632028
0
LINE
8
Calque 1
10
375.717979
20
242.632028
11
377.176264
21
244.030371
0
LINE
8
Calque 1
10
377.176264
20
244.030371
11
378.473607
21
245.523617
0
LINE
8
Calque 1
10
378.473607
20
245.523617
11
379.577544
21
247.083264
0
LINE
8
Calque 1
10
379.577544
20
247.083264
11
380.455610
21
248.680810
0
LINE
8
Calque 1
10
380.455610
20
248.680810
11
381.201490
21
250.060002
0
LINE
8
Calque 1
10
381.201490
20
250.060002
11
381.750630
21
250.725330
0
LINE
8
Calque 1
10
381.750630
20
250.725330
11
382.198717
21
250.686462
0
LINE
8
Calque 1
10
382.198717
20
250.686462
11
382.674476
21
250.351479
0
LINE
8
Calque 1
10
382.674476
20
250.351479
11
383.052152
21
249.844451
0
LINE
8
Calque 1
10
383.052152
20
249.844451
11
383.205990
21
249.289450
0
LINE
8
Calque 1
10
383.205990
20
249.289450
11
383.476072
21
248.274856
0
LINE
8
Calque 1
10
383.476072
20
248.274856
11
384.181157
21
246.662089
0
LINE
8
Calque 1
10
384.181157
20
246.662089
11
386.265380
21
242.949560
0
LINE
8
Calque 1
10
386.265380
20
242.949560
11
387.881105
21
240.826689
0
LINE
8
Calque 1
10
387.881105
20
240.826689
11
389.945570
21
238.499180
0
LINE
8
Calque 1
10
389.945570
20
238.499180
11
392.198140
21
236.369329
0
LINE
8
Calque 1
10
392.198140
20
236.369329
11
394.518198
21
234.580246
0
LINE
8
Calque 1
10
394.518198
20
234.580246
11
396.898364
21
233.134709
0
LINE
8
Calque 1
10
396.898364
20
233.134709
11
399.331261
21
232.035496
0
LINE
8
Calque 1
10
399.331261
20
232.035496
11
401.809509
21
231.285387
0
LINE
8
Calque 1
10
401.809509
20
231.285387
11
404.325729
21
230.887159
0
LINE
8
Calque 1
10
404.325729
20
230.887159
11
406.872542
21
230.843590
0
LINE
8
Calque 1
10
406.872542
20
230.843590
11
409.442570
21
231.157460
0
LINE
8
Calque 1
10
409.442570
20
231.157460
11
409.442480
21
231.157400
0
LINE
8
Calque 1
10
403.843360
20
243.494400
11
401.162941
21
244.189729
0
LINE
8
Calque 1
10
401.162941
20
244.189729
11
399.945316
21
244.728451
0
LINE
8
Calque 1
10
399.945316
20
244.728451
11
398.806944
21
245.396191
0
LINE
8
Calque 1
10
398.806944
20
245.396191
11
396.760544
21
247.123665
0
LINE
8
Calque 1
10
396.760544
20
247.123665
11
395.008920
21
249.382030
0
LINE
8
Calque 1
10
395.008920
20
249.382030
11
394.141151
21
250.869939
0
LINE
8
Calque 1
10
394.141151
20
250.869939
11
393.433835
21
252.403469
0
LINE
8
Calque 1
10
393.433835
20
252.403469
11
392.189110
21
256.380370
0
LINE
8
Calque 1
10
392.189110
20
256.380370
11
391.491340
21
259.727011
0
LINE
8
Calque 1
10
391.491340
20
259.727011
11
390.982941
21
263.860372
0
LINE
8
Calque 1
10
390.982941
20
263.860372
11
390.618814
21
269.273883
0
LINE
8
Calque 1
10
390.618814
20
269.273883
11
390.353860
21
276.460970
0
LINE
8
Calque 1
10
390.353860
20
276.460970
11
390.082725
21
284.039989
0
LINE
8
Calque 1
10
390.082725
20
284.039989
11
389.713644
21
288.935845
0
LINE
8
Calque 1
10
389.713644
20
288.935845
11
389.139098
21
292.062639
0
LINE
8
Calque 1
10
389.139098
20
292.062639
11
388.251570
21
294.334470
0
LINE
8
Calque 1
10
388.251570
20
294.334470
11
387.437255
21
295.640280
0
LINE
8
Calque 1
10
387.437255
20
295.640280
11
386.479637
21
296.570456
0
LINE
8
Calque 1
10
386.479637
20
296.570456
11
385.341701
21
297.151696
0
LINE
8
Calque 1
10
385.341701
20
297.151696
11
383.986430
21
297.410700
0
LINE
8
Calque 1
10
383.986430
20
297.410700
11
382.358286
21
297.348837
0
LINE
8
Calque 1
10
382.358286
20
297.348837
11
380.904849
21
296.907172
0
LINE
8
Calque 1
10
380.904849
20
296.907172
11
379.617892
21
296.074451
0
LINE
8
Calque 1
10
379.617892
20
296.074451
11
378.489191
21
294.839420
0
LINE
8
Calque 1
10
378.489191
20
294.839420
11
377.510521
21
293.190824
0
LINE
8
Calque 1
10
377.510521
20
293.190824
11
376.673656
21
291.117408
0
LINE
8
Calque 1
10
376.673656
20
291.117408
11
375.970371
21
288.607918
0
LINE
8
Calque 1
10
375.970371
20
288.607918
11
375.392440
21
285.651100
0
LINE
8
Calque 1
10
375.392440
20
285.651100
11
375.039196
21
281.817176
0
LINE
8
Calque 1
10
375.039196
20
281.817176
11
374.742090
21
275.993810
0
LINE
8
Calque 1
10
374.742090
20
275.993810
11
374.330464
21
267.844351
0
LINE
8
Calque 1
10
374.330464
20
267.844351
11
373.553940
21
261.477710
0
LINE
8
Calque 1
10
373.553940
20
261.477710
11
372.608482
21
256.587990
0
LINE
8
Calque 1
10
372.608482
20
256.587990
11
372.039376
21
254.668902
0
LINE
8
Calque 1
10
372.039376
20
254.668902
11
371.383132
21
253.052409
0
LINE
8
Calque 1
10
371.383132
20
253.052409
11
370.622586
21
251.702572
0
LINE
8
Calque 1
10
370.622586
20
251.702572
11
369.740570
21
250.583453
0
LINE
8
Calque 1
10
369.740570
20
250.583453
11
368.719920
21
249.659112
0
LINE
8
Calque 1
10
368.719920
20
249.659112
11
367.543470
21
248.893610
0
LINE
8
Calque 1
10
367.543470
20
248.893610
11
366.698371
21
248.465046
0
LINE
8
Calque 1
10
366.698371
20
248.465046
11
365.915909
21
248.231948
0
LINE
8
Calque 1
10
365.915909
20
248.231948
11
363.229820
21
248.116240
0
LINE
8
Calque 1
10
363.229820
20
248.116240
11
360.948246
21
248.214909
0
LINE
8
Calque 1
10
360.948246
20
248.214909
11
359.212002
21
248.559785
0
LINE
8
Calque 1
10
359.212002
20
248.559785
11
357.791843
21
249.224168
0
LINE
8
Calque 1
10
357.791843
20
249.224168
11
356.458520
21
250.281360
0
LINE
8
Calque 1
10
356.458520
20
250.281360
11
355.598595
21
251.216429
0
LINE
8
Calque 1
10
355.598595
20
251.216429
11
354.873291
21
252.299665
0
LINE
8
Calque 1
10
354.873291
20
252.299665
11
354.275828
21
253.556410
0
LINE
8
Calque 1
10
354.275828
20
253.556410
11
353.799430
21
255.012006
0
LINE
8
Calque 1
10
353.799430
20
255.012006
11
353.182717
21
258.621124
0
LINE
8
Calque 1
10
353.182717
20
258.621124
11
352.968930
21
263.329760
0
LINE
8
Calque 1
10
352.968930
20
263.329760
11
353.087175
21
267.983954
0
LINE
8
Calque 1
10
353.087175
20
267.983954
11
353.713890
21
272.722470
0
LINE
8
Calque 1
10
353.713890
20
272.722470
11
354.363437
21
277.773486
0
LINE
8
Calque 1
10
354.363437
20
277.773486
11
354.474500
21
284.099570
0
LINE
8
Calque 1
10
354.474500
20
284.099570
11
354.369322
21
289.808723
0
LINE
8
Calque 1
10
354.369322
20
289.808723
11
354.026530
21
293.238760
0
LINE
8
Calque 1
10
354.026530
20
293.238760
11
353.079626
21
297.288473
0
LINE
8
Calque 1
10
353.079626
20
297.288473
11
352.493045
21
298.868815
0
LINE
8
Calque 1
10
352.493045
20
298.868815
11
351.823755
21
300.164648
0
LINE
8
Calque 1
10
351.823755
20
300.164648
11
351.066290
21
301.184845
0
LINE
8
Calque 1
10
351.066290
20
301.184845
11
350.215182
21
301.938281
0
LINE
8
Calque 1
10
350.215182
20
301.938281
11
349.264964
21
302.433831
0
LINE
8
Calque 1
10
349.264964
20
302.433831
11
348.210170
21
302.680370
0
LINE
8
Calque 1
10
348.210170
20
302.680370
11
347.105267
21
302.694978
0
LINE
8
Calque 1
10
347.105267
20
302.694978
11
346.070219
21
302.486891
0
LINE
8
Calque 1
10
346.070219
20
302.486891
11
345.107579
21
302.063381
0
LINE
8
Calque 1
10
345.107579
20
302.063381
11
344.219897
21
301.431720
0
LINE
8
Calque 1
10
344.219897
20
301.431720
11
343.409727
21
300.599180
0
LINE
8
Calque 1
10
343.409727
20
300.599180
11
342.679620
21
299.573034
0
LINE
8
Calque 1
10
342.679620
20
299.573034
11
342.032128
21
298.360553
0
LINE
8
Calque 1
10
342.032128
20
298.360553
11
341.469802
21
296.969010
0
LINE
8
Calque 1
10
341.469802
20
296.969010
11
340.610860
21
293.677825
0
LINE
8
Calque 1
10
340.610860
20
293.677825
11
340.123209
21
289.757655
0
LINE
8
Calque 1
10
340.123209
20
289.757655
11
340.027264
21
285.266678
0
LINE
8
Calque 1
10
340.027264
20
285.266678
11
340.343440
21
280.263070
0
LINE
8
Calque 1
10
340.343440
20
280.263070
11
340.516919
21
277.595341
0
LINE
8
Calque 1
10
340.516919
20
277.595341
11
340.528061
21
274.788141
0
LINE
8
Calque 1
10
340.528061
20
274.788141
11
340.113967
21
269.160175
0
LINE
8
Calque 1
10
340.113967
20
269.160175
11
339.714049
21
266.541829
0
LINE
8
Calque 1
10
339.714049
20
266.541829
11
339.202426
21
264.188856
0
LINE
8
Calque 1
10
339.202426
20
264.188856
11
338.591757
21
262.202466
0
LINE
8
Calque 1
10
338.591757
20
262.202466
11
337.894700
21
260.683870
0
LINE
8
Calque 1
10
337.894700
20
260.683870
11
337.186536
21
259.644719
0
LINE
8
Calque 1
10
337.186536
20
259.644719
11
336.358211
21
258.724249
0
LINE
8
Calque 1
10
336.358211
20
258.724249
11
335.422016
21
257.934374
0
LINE
8
Calque 1
10
335.422016
20
257.934374
11
334.390240
21
257.287010
0
LINE
8
Calque 1
10
334.390240
20
257.287010
11
333.604431
21
256.912609
0
LINE
8
Calque 1
10
333.604431
20
256.912609
11
332.847701
21
256.700042
0
LINE
8
Calque 1
10
332.847701
20
256.700042
11
330.421490
21
256.583040
0
LINE
8
Calque 1
10
330.421490
20
256.583040
11
327.971489
21
256.703003
0
LINE
8
Calque 1
10
327.971489
20
256.703003
11
327.212797
21
256.934633
0
LINE
8
Calque 1
10
327.212797
20
256.934633
11
326.385450
21
257.353110
0
LINE
8
Calque 1
10
326.385450
20
257.353110
11
325.338935
21
258.034759
0
LINE
8
Calque 1
10
325.338935
20
258.034759
11
324.449472
21
258.854351
0
LINE
8
Calque 1
10
324.449472
20
258.854351
11
323.699158
21
259.853842
0
LINE
8
Calque 1
10
323.699158
20
259.853842
11
323.070092
21
261.075186
0
LINE
8
Calque 1
10
323.070092
20
261.075186
11
322.544374
21
262.560340
0
LINE
8
Calque 1
10
322.544374
20
262.560340
11
322.104102
21
264.351258
0
LINE
8
Calque 1
10
322.104102
20
264.351258
11
321.408290
21
269.018210
0
LINE
8
Calque 1
10
321.408290
20
269.018210
11
321.093820
21
273.386866
0
LINE
8
Calque 1
10
321.093820
20
273.386866
11
321.196410
21
279.072410
0
LINE
8
Calque 1
10
321.196410
20
279.072410
11
321.372547
21
285.567143
0
LINE
8
Calque 1
10
321.372547
20
285.567143
11
321.384857
21
291.092642
0
LINE
8
Calque 1
10
321.384857
20
291.092642
11
321.237264
21
295.365000
0
LINE
8
Calque 1
10
321.237264
20
295.365000
11
320.933690
21
298.100310
0
LINE
8
Calque 1
10
320.933690
20
298.100310
11
320.438467
21
299.985643
0
LINE
8
Calque 1
10
320.438467
20
299.985643
11
319.769194
21
301.718485
0
LINE
8
Calque 1
10
319.769194
20
301.718485
11
318.978689
21
303.183142
0
LINE
8
Calque 1
10
318.978689
20
303.183142
11
318.119770
21
304.263920
0
LINE
8
Calque 1
10
318.119770
20
304.263920
11
317.088284
21
305.019446
0
LINE
8
Calque 1
10
317.088284
20
305.019446
11
315.937394
21
305.451932
0
LINE
8
Calque 1
10
315.937394
20
305.451932
11
314.732268
21
305.578242
0
LINE
8
Calque 1
10
314.732268
20
305.578242
11
313.538070
21
305.415241
0
LINE
8
Calque 1
10
313.538070
20
305.415241
11
312.419967
21
304.979796
0
LINE
8
Calque 1
10
312.419967
20
304.979796
11
311.443126
21
304.288773
0
LINE
8
Calque 1
10
311.443126
20
304.288773
11
310.672711
21
303.359035
0
LINE
8
Calque 1
10
310.672711
20
303.359035
11
310.173890
21
302.207450
0
LINE
8
Calque 1
10
310.173890
20
302.207450
11
309.918920
21
300.147258
0
LINE
8
Calque 1
10
309.918920
20
300.147258
11
310.006745
21
297.316931
0
LINE
8
Calque 1
10
310.006745
20
297.316931
11
310.417790
21
293.959289
0
LINE
8
Calque 1
10
310.417790
20
293.959289
11
311.132480
21
290.317150
0
LINE
8
Calque 1
10
311.132480
20
290.317150
11
312.000937
21
285.932486
0
LINE
8
Calque 1
10
312.000937
20
285.932486
11
312.150250
21
281.453600
0
LINE
8
Calque 1
10
312.150250
20
281.453600
11
312.076240
21
278.146462
0
LINE
8
Calque 1
10
312.076240
20
278.146462
11
311.806750
21
275.520859
0
LINE
8
Calque 1
10
311.806750
20
275.520859
11
311.281840
21
273.202851
0
LINE
8
Calque 1
10
311.281840
20
273.202851
11
310.441570
21
270.818500
0
LINE
8
Calque 1
10
310.441570
20
270.818500
11
309.430689
21
268.697327
0
LINE
8
Calque 1
10
309.430689
20
268.697327
11
308.430504
21
267.344530
0
LINE
8
Calque 1
10
308.430504
20
267.344530
11
307.954442
21
266.975765
0
LINE
8
Calque 1
10
307.954442
20
266.975765
11
307.505077
21
266.822486
0
LINE
8
Calque 1
10
307.505077
20
266.822486
11
307.090417
21
266.892488
0
LINE
8
Calque 1
10
307.090417
20
266.892488
11
306.718470
21
267.193570
0
LINE
8
Calque 1
10
306.718470
20
267.193570
11
306.523166
21
267.692940
0
LINE
8
Calque 1
10
306.523166
20
267.692940
11
306.867540
21
268.450340
0
LINE
8
Calque 1
10
306.867540
20
268.450340
11
308.345305
21
271.372760
0
LINE
8
Calque 1
10
308.345305
20
271.372760
11
309.413930
21
274.574420
0
LINE
8
Calque 1
10
309.413930
20
274.574420
11
309.922489
21
277.315496
0
LINE
8
Calque 1
10
309.922489
20
277.315496
11
310.040320
21
281.321290
0
LINE
8
Calque 1
10
310.040320
20
281.321290
11
309.899132
21
285.686919
0
LINE
8
Calque 1
10
309.899132
20
285.686919
11
309.022420
21
290.052540
0
LINE
8
Calque 1
10
309.022420
20
290.052540
11
308.252988
21
293.967233
0
LINE
8
Calque 1
10
308.252988
20
293.967233
11
307.848115
21
297.519456
0
LINE
8
Calque 1
10
307.848115
20
297.519456
11
307.819022
21
300.539271
0
LINE
8
Calque 1
10
307.819022
20
300.539271
11
308.176930
21
302.856740
0
LINE
8
Calque 1
10
308.176930
20
302.856740
11
308.585145
21
303.940953
0
LINE
8
Calque 1
10
308.585145
20
303.940953
11
309.137513
21
304.898483
0
LINE
8
Calque 1
10
309.137513
20
304.898483
11
309.824470
21
305.722613
0
LINE
8
Calque 1
10
309.824470
20
305.722613
11
310.636452
21
306.406631
0
LINE
8
Calque 1
10
310.636452
20
306.406631
11
311.563896
21
306.943822
0
LINE
8
Calque 1
10
311.563896
20
306.943822
11
312.597238
21
307.327472
0
LINE
8
Calque 1
10
312.597238
20
307.327472
11
313.726914
21
307.550866
0
LINE
8
Calque 1
10
313.726914
20
307.550866
11
314.943360
21
307.607290
0
LINE
8
Calque 1
10
314.943360
20
307.607290
11
316.382215
21
307.475499
0
LINE
8
Calque 1
10
316.382215
20
307.475499
11
317.599194
21
307.130981
0
LINE
8
Calque 1
10
317.599194
20
307.130981
11
318.677661
21
306.539768
0
LINE
8
Calque 1
10
318.677661
20
306.539768
11
319.700980
21
305.667890
0
LINE
8
Calque 1
10
319.700980
20
305.667890
11
320.989425
21
304.049322
0
LINE
8
Calque 1
10
320.989425
20
304.049322
11
321.994795
21
302.012436
0
LINE
8
Calque 1
10
321.994795
20
302.012436
11
322.755650
21
299.456980
0
LINE
8
Calque 1
10
322.755650
20
299.456980
11
323.310550
21
296.282700
0
LINE
8
Calque 1
10
323.310550
20
296.282700
11
323.551181
21
294.165441
0
LINE
8
Calque 1
10
323.551181
20
294.165441
11
323.625231
21
291.573759
0
LINE
8
Calque 1
10
323.625231
20
291.573759
11
323.251750
21
278.278600
0
LINE
8
Calque 1
10
323.251750
20
278.278600
11
323.214854
21
273.958490
0
LINE
8
Calque 1
10
323.214854
20
273.958490
11
323.515570
21
270.870270
0
LINE
8
Calque 1
10
323.515570
20
270.870270
11
323.881523
21
269.066161
0
LINE
8
Calque 1
10
323.881523
20
269.066161
11
324.369500
21
267.468495
0
LINE
8
Calque 1
10
324.369500
20
267.468495
11
324.976635
21
266.081179
0
LINE
8
Calque 1
10
324.976635
20
266.081179
11
325.700062
21
264.908121
0
LINE
8
Calque 1
10
325.700062
20
264.908121
11
326.536917
21
263.953230
0
LINE
8
Calque 1
10
326.536917
20
263.953230
11
327.484334
21
263.220412
0
LINE
8
Calque 1
10
327.484334
20
263.220412
11
328.539446
21
262.713576
0
LINE
8
Calque 1
10
328.539446
20
262.713576
11
329.699390
21
262.436630
0
LINE
8
Calque 1
10
329.699390
20
262.436630
11
331.350114
21
262.365472
0
LINE
8
Calque 1
10
331.350114
20
262.365472
11
332.822164
21
262.616312
0
LINE
8
Calque 1
10
332.822164
20
262.616312
11
334.118966
21
263.192679
0
LINE
8
Calque 1
10
334.118966
20
263.192679
11
335.243949
21
264.098102
0
LINE
8
Calque 1
10
335.243949
20
264.098102
11
336.200539
21
265.336110
0
LINE
8
Calque 1
10
336.200539
20
265.336110
11
336.992165
21
266.910232
0
LINE
8
Calque 1
10
336.992165
20
266.910232
11
337.622252
21
268.823995
0
LINE
8
Calque 1
10
337.622252
20
268.823995
11
338.094230
21
271.080930
0
LINE
8
Calque 1
10
338.094230
20
271.080930
11
338.366706
21
273.223753
0
LINE
8
Calque 1
10
338.366706
20
273.223753
11
338.460767
21
275.460777
0
LINE
8
Calque 1
10
338.460767
20
275.460777
11
338.117130
21
281.850430
0
LINE
8
Calque 1
10
338.117130
20
281.850430
11
337.904930
21
286.242152
0
LINE
8
Calque 1
10
337.904930
20
286.242152
11
338.015213
21
290.235174
0
LINE
8
Calque 1
10
338.015213
20
290.235174
11
338.439803
21
293.802767
0
LINE
8
Calque 1
10
338.439803
20
293.802767
11
339.170525
21
296.918205
0
LINE
8
Calque 1
10
339.170525
20
296.918205
11
340.199203
21
299.554758
0
LINE
8
Calque 1
10
340.199203
20
299.554758
11
341.517662
21
301.685699
0
LINE
8
Calque 1
10
341.517662
20
301.685699
11
343.117726
21
303.284299
0
LINE
8
Calque 1
10
343.117726
20
303.284299
11
344.020805
21
303.875618
0
LINE
8
Calque 1
10
344.020805
20
303.875618
11
344.991220
21
304.323830
0
LINE
8
Calque 1
10
344.991220
20
304.323830
11
346.604945
21
304.754629
0
LINE
8
Calque 1
10
346.604945
20
304.754629
11
348.150497
21
304.825774
0
LINE
8
Calque 1
10
348.150497
20
304.825774
11
349.609750
21
304.548179
0
LINE
8
Calque 1
10
349.609750
20
304.548179
11
350.964577
21
303.932757
0
LINE
8
Calque 1
10
350.964577
20
303.932757
11
352.196852
21
302.990426
0
LINE
8
Calque 1
10
352.196852
20
302.990426
11
353.288447
21
301.732097
0
LINE
8
Calque 1
10
353.288447
20
301.732097
11
354.221235
21
300.168687
0
LINE
8
Calque 1
10
354.221235
20
300.168687
11
354.977090
21
298.311110
0
LINE
8
Calque 1
10
354.977090
20
298.311110
11
355.769865
21
295.513549
0
LINE
8
Calque 1
10
355.769865
20
295.513549
11
356.261895
21
292.593610
0
LINE
8
Calque 1
10
356.261895
20
292.593610
11
356.514923
21
289.012546
0
LINE
8
Calque 1
10
356.514923
20
289.012546
11
356.590690
21
284.231610
0
LINE
8
Calque 1
10
356.590690
20
284.231610
11
356.479136
21
277.804227
0
LINE
8
Calque 1
10
356.479136
20
277.804227
11
355.880060
21
272.667010
0
LINE
8
Calque 1
10
355.880060
20
272.667010
11
355.316964
21
267.918856
0
LINE
8
Calque 1
10
355.316964
20
267.918856
11
355.235147
21
264.168717
0
LINE
8
Calque 1
10
355.235147
20
264.168717
11
355.649069
21
261.120575
0
LINE
8
Calque 1
10
355.649069
20
261.120575
11
356.573190
21
258.478410
0
LINE
8
Calque 1
10
356.573190
20
258.478410
11
357.818831
21
256.390620
0
LINE
8
Calque 1
10
357.818831
20
256.390620
11
358.540559
21
255.570486
0
LINE
8
Calque 1
10
358.540559
20
255.570486
11
359.327727
21
254.899886
0
LINE
8
Calque 1
10
359.327727
20
254.899886
11
360.179961
21
254.379094
0
LINE
8
Calque 1
10
360.179961
20
254.379094
11
361.096885
21
254.008381
0
LINE
8
Calque 1
10
361.096885
20
254.008381
11
362.078126
21
253.788019
0
LINE
8
Calque 1
10
362.078126
20
253.788019
11
363.123310
21
253.718280
0
LINE
8
Calque 1
10
363.123310
20
253.718280
11
364.496312
21
253.851133
0
LINE
8
Calque 1
10
364.496312
20
253.851133
11
365.759434
21
254.234618
0
LINE
8
Calque 1
10
365.759434
20
254.234618
11
366.912565
21
254.868621
0
LINE
8
Calque 1
10
366.912565
20
254.868621
11
367.955595
21
255.753029
0
LINE
8
Calque 1
10
367.955595
20
255.753029
11
368.888414
21
256.887728
0
LINE
8
Calque 1
10
368.888414
20
256.887728
11
369.710913
21
258.272605
0
LINE
8
Calque 1
10
369.710913
20
258.272605
11
370.422982
21
259.907547
0
LINE
8
Calque 1
10
370.422982
20
259.907547
11
371.024510
21
261.792440
0
LINE
8
Calque 1
10
371.024510
20
261.792440
11
371.651072
21
264.499006
0
LINE
8
Calque 1
10
371.651072
20
264.499006
11
372.096561
21
267.493291
0
LINE
8
Calque 1
10
372.096561
20
267.493291
11
372.405072
21
271.165151
0
LINE
8
Calque 1
10
372.405072
20
271.165151
11
372.620700
21
275.904440
0
LINE
8
Calque 1
10
372.620700
20
275.904440
11
373.063519
21
284.025811
0
LINE
8
Calque 1
10
373.063519
20
284.025811
11
373.431703
21
286.713515
0
LINE
8
Calque 1
10
373.431703
20
286.713515
11
373.989600
21
289.390940
0
LINE
8
Calque 1
10
373.989600
20
289.390940
11
374.992634
21
292.611021
0
LINE
8
Calque 1
10
374.992634
20
292.611021
11
376.355944
21
295.333061
0
LINE
8
Calque 1
10
376.355944
20
295.333061
11
377.151508
21
296.473357
0
LINE
8
Calque 1
10
377.151508
20
296.473357
11
378.011707
21
297.448391
0
LINE
8
Calque 1
10
378.011707
20
297.448391
11
378.928064
21
298.244580
0
LINE
8
Calque 1
10
378.928064
20
298.244580
11
379.892100
21
298.848340
0
LINE
8
Calque 1
10
379.892100
20
298.848340
11
381.145902
21
299.275485
0
LINE
8
Calque 1
10
381.145902
20
299.275485
11
382.708697
21
299.508366
0
LINE
8
Calque 1
10
382.708697
20
299.508366
11
384.322699
21
299.526607
0
LINE
8
Calque 1
10
384.322699
20
299.526607
11
385.730120
21
299.309830
0
LINE
8
Calque 1
10
385.730120
20
299.309830
11
386.964107
21
298.749256
0
LINE
8
Calque 1
10
386.964107
20
298.749256
11
388.198620
21
297.814092
0
LINE
8
Calque 1
10
388.198620
20
297.814092
11
389.300802
21
296.625110
0
LINE
8
Calque 1
10
389.300802
20
296.625110
11
390.137800
21
295.303080
0
LINE
8
Calque 1
10
390.137800
20
295.303080
11
391.018555
21
293.050811
0
LINE
8
Calque 1
10
391.018555
20
293.050811
11
391.647426
21
290.285337
0
LINE
8
Calque 1
10
391.647426
20
290.285337
11
392.070177
21
286.731685
0
LINE
8
Calque 1
10
392.070177
20
286.731685
11
392.332570
21
282.114880
0
LINE
8
Calque 1
10
392.332570
20
282.114880
11
392.667105
21
275.596952
0
LINE
8
Calque 1
10
392.667105
20
275.596952
11
393.155480
21
270.542602
0
LINE
8
Calque 1
10
393.155480
20
270.542602
11
393.863357
21
266.449742
0
LINE
8
Calque 1
10
393.863357
20
266.449742
11
394.856400
21
262.816280
0
LINE
8
Calque 1
10
394.856400
20
262.816280
11
395.810777
21
260.244271
0
LINE
8
Calque 1
10
395.810777
20
260.244271
11
396.903239
21
257.984627
0
LINE
8
Calque 1
10
396.903239
20
257.984627
11
398.126169
21
256.051140
0
LINE
8
Calque 1
10
398.126169
20
256.051140
11
399.471950
21
254.457600
0
LINE
8
Calque 1
10
399.471950
20
254.457600
11
401.031139
21
253.051521
0
LINE
8
Calque 1
10
401.031139
20
253.051521
11
402.490396
21
252.164466
0
LINE
8
Calque 1
10
402.490396
20
252.164466
11
404.062463
21
251.701703
0
LINE
8
Calque 1
10
404.062463
20
251.701703
11
405.960080
21
251.568500
0
LINE
8
Calque 1
10
405.960080
20
251.568500
11
407.857691
21
251.701703
0
LINE
8
Calque 1
10
407.857691
20
251.701703
11
409.429755
21
252.164466
0
LINE
8
Calque 1
10
409.429755
20
252.164466
11
410.889012
21
253.051521
0
LINE
8
Calque 1
10
410.889012
20
253.051521
11
412.448200
21
254.457600
0
LINE
8
Calque 1
10
412.448200
20
254.457600
11
413.793981
21
256.051140
0
LINE
8
Calque 1
10
413.793981
20
256.051140
11
415.016911
21
257.984627
0
LINE
8
Calque 1
10
415.016911
20
257.984627
11
416.109373
21
260.244271
0
LINE
8
Calque 1
10
416.109373
20
260.244271
11
417.063750
21
262.816280
0
LINE
8
Calque 1
10
417.063750
20
262.816280
11
418.056792
21
266.449732
0
LINE
8
Calque 1
10
418.056792
20
266.449732
11
418.764670
21
270.542584
0
LINE
8
Calque 1
10
418.764670
20
270.542584
11
419.253045
21
275.596934
0
LINE
8
Calque 1
10
419.253045
20
275.596934
11
419.587580
21
282.114880
0
LINE
8
Calque 1
10
419.587580
20
282.114880
11
419.849974
21
286.731677
0
LINE
8
Calque 1
10
419.849974
20
286.731677
11
420.272727
21
290.285330
0
LINE
8
Calque 1
10
420.272727
20
290.285330
11
420.901600
21
293.050808
0
LINE
8
Calque 1
10
420.901600
20
293.050808
11
421.782350
21
295.303080
0
LINE
8
Calque 1
10
421.782350
20
295.303080
11
422.619347
21
296.625110
0
LINE
8
Calque 1
10
422.619347
20
296.625110
11
423.721530
21
297.814092
0
LINE
8
Calque 1
10
423.721530
20
297.814092
11
424.956042
21
298.749256
0
LINE
8
Calque 1
10
424.956042
20
298.749256
11
426.190030
21
299.309830
0
LINE
8
Calque 1
10
426.190030
20
299.309830
11
427.597451
21
299.526607
0
LINE
8
Calque 1
10
427.597451
20
299.526607
11
429.211452
21
299.508366
0
LINE
8
Calque 1
10
429.211452
20
299.508366
11
430.774247
21
299.275485
0
LINE
8
Calque 1
10
430.774247
20
299.275485
11
432.028050
21
298.848340
0
LINE
8
Calque 1
10
432.028050
20
298.848340
11
432.992086
21
298.244580
0
LINE
8
Calque 1
10
432.992086
20
298.244580
11
433.908443
21
297.448391
0
LINE
8
Calque 1
10
433.908443
20
297.448391
11
434.768642
21
296.473357
0
LINE
8
Calque 1
10
434.768642
20
296.473357
11
435.564206
21
295.333061
0
LINE
8
Calque 1
10
435.564206
20
295.333061
11
436.927516
21
292.611021
0
LINE
8
Calque 1
10
436.927516
20
292.611021
11
437.930550
21
289.390940
0
LINE
8
Calque 1
10
437.930550
20
289.390940
11
438.488447
21
286.713515
0
LINE
8
Calque 1
10
438.488447
20
286.713515
11
438.856631
21
284.025811
0
LINE
8
Calque 1
10
438.856631
20
284.025811
11
439.299450
21
275.904440
0
LINE
8
Calque 1
10
439.299450
20
275.904440
11
439.515082
21
271.165150
0
LINE
8
Calque 1
10
439.515082
20
271.165150
11
439.823592
21
267.493287
0
LINE
8
Calque 1
10
439.823592
20
267.493287
11
440.269079
21
264.499002
0
LINE
8
Calque 1
10
440.269079
20
264.499002
11
440.895640
21
261.792440
0
LINE
8
Calque 1
10
440.895640
20
261.792440
11
441.497168
21
259.907548
0
LINE
8
Calque 1
10
441.497168
20
259.907548
11
442.209237
21
258.272609
0
LINE
8
Calque 1
10
442.209237
20
258.272609
11
443.031736
21
256.887736
0
LINE
8
Calque 1
10
443.031736
20
256.887736
11
443.964555
21
255.753040
0
LINE
8
Calque 1
10
443.964555
20
255.753040
11
445.007585
21
254.868634
0
LINE
8
Calque 1
10
445.007585
20
254.868634
11
446.160716
21
254.234631
0
LINE
8
Calque 1
10
446.160716
20
254.234631
11
447.423838
21
253.851142
0
LINE
8
Calque 1
10
447.423838
20
253.851142
11
448.796840
21
253.718280
0
LINE
8
Calque 1
10
448.796840
20
253.718280
11
449.842024
21
253.788019
0
LINE
8
Calque 1
10
449.842024
20
253.788019
11
450.823265
21
254.008381
0
LINE
8
Calque 1
10
450.823265
20
254.008381
11
451.740189
21
254.379094
0
LINE
8
Calque 1
10
451.740189
20
254.379094
11
452.592422
21
254.899886
0
LINE
8
Calque 1
10
452.592422
20
254.899886
11
453.379591
21
255.570486
0
LINE
8
Calque 1
10
453.379591
20
255.570486
11
454.101319
21
256.390620
0
LINE
8
Calque 1
10
454.101319
20
256.390620
11
455.346960
21
258.478410
0
LINE
8
Calque 1
10
455.346960
20
258.478410
11
456.271689
21
261.122853
0
LINE
8
Calque 1
10
456.271689
20
261.122853
11
456.685290
21
264.172640
0
LINE
8
Calque 1
10
456.685290
20
264.172640
11
456.602083
21
267.922462
0
LINE
8
Calque 1
10
456.602083
20
267.922462
11
456.036390
21
272.667010
0
LINE
8
Calque 1
10
456.036390
20
272.667010
11
455.433704
21
277.801014
0
LINE
8
Calque 1
10
455.433704
20
277.801014
11
455.327060
21
284.231610
0
LINE
8
Calque 1
10
455.327060
20
284.231610
11
455.406313
21
289.014557
0
LINE
8
Calque 1
10
455.406313
20
289.014557
11
455.661217
21
292.599632
0
LINE
8
Calque 1
10
455.661217
20
292.599632
11
456.153043
21
295.520572
0
LINE
8
Calque 1
10
456.153043
20
295.520572
11
456.943060
21
298.311110
0
LINE
8
Calque 1
10
456.943060
20
298.311110
11
457.698915
21
300.168687
0
LINE
8
Calque 1
10
457.698915
20
300.168687
11
458.631703
21
301.732097
0
LINE
8
Calque 1
10
458.631703
20
301.732097
11
459.723298
21
302.990426
0
LINE
8
Calque 1
10
459.723298
20
302.990426
11
460.955572
21
303.932757
0
LINE
8
Calque 1
10
460.955572
20
303.932757
11
462.310400
21
304.548179
0
LINE
8
Calque 1
10
462.310400
20
304.548179
11
463.769653
21
304.825774
0
LINE
8
Calque 1
10
463.769653
20
304.825774
11
465.315205
21
304.754629
0
LINE
8
Calque 1
10
465.315205
20
304.754629
11
466.928930
21
304.323830
0
LINE
8
Calque 1
10
466.928930
20
304.323830
11
467.899345
21
303.875612
0
LINE
8
Calque 1
10
467.899345
20
303.875612
11
468.802424
21
303.284286
0
LINE
8
Calque 1
10
468.802424
20
303.284286
11
470.402488
21
301.685672
0
LINE
8
Calque 1
10
470.402488
20
301.685672
11
471.720947
21
299.554719
0
LINE
8
Calque 1
10
471.720947
20
299.554719
11
472.749625
21
296.918156
0
LINE
8
Calque 1
10
472.749625
20
296.918156
11
473.480347
21
293.802716
0
LINE
8
Calque 1
10
473.480347
20
293.802716
11
473.904937
21
290.235127
0
LINE
8
Calque 1
10
473.904937
20
290.235127
11
474.015220
21
286.242122
0
LINE
8
Calque 1
10
474.015220
20
286.242122
11
473.803020
21
281.850430
0
LINE
8
Calque 1
10
473.803020
20
281.850430
11
473.459375
21
275.460740
0
LINE
8
Calque 1
10
473.459375
20
275.460740
11
473.553439
21
273.223725
0
LINE
8
Calque 1
10
473.553439
20
273.223725
11
473.825920
21
271.080930
0
LINE
8
Calque 1
10
473.825920
20
271.080930
11
474.641564
21
267.610135
0
LINE
8
Calque 1
10
474.641564
20
267.610135
11
475.188312
21
266.233876
0
LINE
8
Calque 1
10
475.188312
20
266.233876
11
475.836605
21
265.083801
0
LINE
8
Calque 1
10
475.836605
20
265.083801
11
476.593138
21
264.149978
0
LINE
8
Calque 1
10
476.593138
20
264.149978
11
477.464606
21
263.422474
0
LINE
8
Calque 1
10
477.464606
20
263.422474
11
478.457705
21
262.891359
0
LINE
8
Calque 1
10
478.457705
20
262.891359
11
479.579130
21
262.546700
0
LINE
8
Calque 1
10
479.579130
20
262.546700
11
481.256285
21
262.356341
0
LINE
8
Calque 1
10
481.256285
20
262.356341
11
482.783809
21
262.531185
0
LINE
8
Calque 1
10
482.783809
20
262.531185
11
484.154520
21
263.064459
0
LINE
8
Calque 1
10
484.154520
20
263.064459
11
485.361239
21
263.949392
0
LINE
8
Calque 1
10
485.361239
20
263.949392
11
486.396785
21
265.179212
0
LINE
8
Calque 1
10
486.396785
20
265.179212
11
487.253977
21
266.747146
0
LINE
8
Calque 1
10
487.253977
20
266.747146
11
487.925636
21
268.646423
0
LINE
8
Calque 1
10
487.925636
20
268.646423
11
488.404580
21
270.870270
0
LINE
8
Calque 1
10
488.404580
20
270.870270
11
488.705307
21
273.958490
0
LINE
8
Calque 1
10
488.705307
20
273.958490
11
488.668400
21
278.278600
0
LINE
8
Calque 1
10
488.668400
20
278.278600
11
488.294896
21
291.573762
0
LINE
8
Calque 1
10
488.294896
20
291.573762
11
488.368952
21
294.165442
0
LINE
8
Calque 1
10
488.368952
20
294.165442
11
488.609600
21
296.282700
0
LINE
8
Calque 1
10
488.609600
20
296.282700
11
489.164500
21
299.456980
0
LINE
8
Calque 1
10
489.164500
20
299.456980
11
489.925355
21
302.012436
0
LINE
8
Calque 1
10
489.925355
20
302.012436
11
490.930725
21
304.049322
0
LINE
8
Calque 1
10
490.930725
20
304.049322
11
492.219170
21
305.667890
0
LINE
8
Calque 1
10
492.219170
20
305.667890
11
493.242489
21
306.539761
0
LINE
8
Calque 1
10
493.242489
20
306.539761
11
494.320956
21
307.130962
0
LINE
8
Calque 1
10
494.320956
20
307.130962
11
495.537935
21
307.475478
0
LINE
8
Calque 1
10
495.537935
20
307.475478
11
496.976790
21
307.607290
0
LINE
8
Calque 1
10
496.976790
20
307.607290
11
498.193237
21
307.550857
0
LINE
8
Calque 1
10
498.193237
20
307.550857
11
499.322914
21
307.327459
0
LINE
8
Calque 1
10
499.322914
20
307.327459
11
500.356257
21
306.943809
0
LINE
8
Calque 1
10
500.356257
20
306.943809
11
501.283702
21
306.406620
0
LINE
8
Calque 1
10
501.283702
20
306.406620
11
502.095686
21
305.722605
0
LINE
8
Calque 1
10
502.095686
20
305.722605
11
502.782645
21
304.898478
0
LINE
8
Calque 1
10
502.782645
20
304.898478
11
503.335014
21
303.940952
0
LINE
8
Calque 1
10
503.335014
20
303.940952
11
503.743230
21
302.856740
0
LINE
8
Calque 1
10
503.743230
20
302.856740
11
504.101133
21
300.539291
0
LINE
8
Calque 1
10
504.101133
20
300.539291
11
504.072036
21
297.519486
0
LINE
8
Calque 1
10
504.072036
20
297.519486
11
503.667162
21
293.967259
0
LINE
8
Calque 1
10
503.667162
20
293.967259
11
502.897730
21
290.052540
0
LINE
8
Calque 1
10
502.897730
20
290.052540
11
502.020882
21
285.686919
0
LINE
8
Calque 1
10
502.020882
20
285.686919
11
501.879830
21
281.321290
0
LINE
8
Calque 1
10
501.879830
20
281.321290
11
501.997804
21
277.315496
0
LINE
8
Calque 1
10
501.997804
20
277.315496
11
502.506220
21
274.574420
0
LINE
8
Calque 1
10
502.506220
20
274.574420
11
503.574845
21
271.372760
0
LINE
8
Calque 1
10
503.574845
20
271.372760
11
505.052610
21
268.450340
0
LINE
8
Calque 1
10
505.052610
20
268.450340
11
505.396984
21
267.692940
0
LINE
8
Calque 1
10
505.396984
20
267.692940
11
505.201680
21
267.193570
0
LINE
8
Calque 1
10
505.201680
20
267.193570
11
504.829733
21
266.892488
0
LINE
8
Calque 1
10
504.829733
20
266.892488
11
504.415073
21
266.822486
0
LINE
8
Calque 1
10
504.415073
20
266.822486
11
503.965708
21
266.975765
0
LINE
8
Calque 1
10
503.965708
20
266.975765
11
503.489646
21
267.344530
0
LINE
8
Calque 1
10
503.489646
20
267.344530
11
502.489461
21
268.697327
0
LINE
8
Calque 1
10
502.489461
20
268.697327
11
501.478580
21
270.818500
0
LINE
8
Calque 1
10
501.478580
20
270.818500
11
500.638380
21
273.202840
0
LINE
8
Calque 1
10
500.638380
20
273.202840
11
500.113587
21
275.520844
0
LINE
8
Calque 1
10
500.113587
20
275.520844
11
499.844121
21
278.146450
0
LINE
8
Calque 1
10
499.844121
20
278.146450
11
499.769900
21
281.453600
0
LINE
8
Calque 1
10
499.769900
20
281.453600
11
499.919284
21
285.932486
0
LINE
8
Calque 1
10
499.919284
20
285.932486
11
500.787670
21
290.317150
0
LINE
8
Calque 1
10
500.787670
20
290.317150
11
501.502360
21
293.959272
0
LINE
8
Calque 1
10
501.502360
20
293.959272
11
501.913405
21
297.316909
0
LINE
8
Calque 1
10
501.913405
20
297.316909
11
502.001230
21
300.147241
0
LINE
8
Calque 1
10
502.001230
20
300.147241
11
501.746260
21
302.207450
0
LINE
8
Calque 1
10
501.746260
20
302.207450
11
501.247439
21
303.359035
0
LINE
8
Calque 1
10
501.247439
20
303.359035
11
500.477024
21
304.288773
0
LINE
8
Calque 1
10
500.477024
20
304.288773
11
499.500183
21
304.979796
0
LINE
8
Calque 1
10
499.500183
20
304.979796
11
498.382080
21
305.415241
0
LINE
8
Calque 1
10
498.382080
20
305.415241
11
497.187882
21
305.578242
0
LINE
8
Calque 1
10
497.187882
20
305.578242
11
495.982756
21
305.451932
0
LINE
8
Calque 1
10
495.982756
20
305.451932
11
494.831866
21
305.019446
0
LINE
8
Calque 1
10
494.831866
20
305.019446
11
493.800380
21
304.263920
0
LINE
8
Calque 1
10
493.800380
20
304.263920
11
492.941461
21
303.183142
0
LINE
8
Calque 1
10
492.941461
20
303.183142
11
492.150956
21
301.718485
0
LINE
8
Calque 1
10
492.150956
20
301.718485
11
491.481683
21
299.985643
0
LINE
8
Calque 1
10
491.481683
20
299.985643
11
490.986460
21
298.100310
0
LINE
8
Calque 1
10
490.986460
20
298.100310
11
490.682886
21
295.364988
0
LINE
8
Calque 1
10
490.682886
20
295.364988
11
490.535292
21
291.092624
0
LINE
8
Calque 1
10
490.535292
20
291.092624
11
490.547603
21
285.567128
0
LINE
8
Calque 1
10
490.547603
20
285.567128
11
490.723740
21
279.072410
0
LINE
8
Calque 1
10
490.723740
20
279.072410
11
490.826335
21
273.386896
0
LINE
8
Calque 1
10
490.826335
20
273.386896
11
490.511870
21
269.018210
0
LINE
8
Calque 1
10
490.511870
20
269.018210
11
489.816052
21
264.351236
0
LINE
8
Calque 1
10
489.816052
20
264.351236
11
489.375778
21
262.560312
0
LINE
8
Calque 1
10
489.375778
20
262.560312
11
488.850059
21
261.075156
0
LINE
8
Calque 1
10
488.850059
20
261.075156
11
488.220993
21
259.853814
0
LINE
8
Calque 1
10
488.220993
20
259.853814
11
487.470679
21
258.854329
0
LINE
8
Calque 1
10
487.470679
20
258.854329
11
486.581215
21
258.034746
0
LINE
8
Calque 1
10
486.581215
20
258.034746
11
485.534700
21
257.353110
0
LINE
8
Calque 1
10
485.534700
20
257.353110
11
484.707353
21
256.934629
0
LINE
8
Calque 1
10
484.707353
20
256.934629
11
483.948661
21
256.702999
0
LINE
8
Calque 1
10
483.948661
20
256.702999
11
481.498660
21
256.583040
0
LINE
8
Calque 1
10
481.498660
20
256.583040
11
479.072449
21
256.700054
0
LINE
8
Calque 1
10
479.072449
20
256.700054
11
478.315719
21
256.912621
0
LINE
8
Calque 1
10
478.315719
20
256.912621
11
477.529910
21
257.287010
0
LINE
8
Calque 1
10
477.529910
20
257.287010
11
476.429021
21
257.973553
0
LINE
8
Calque 1
10
476.429021
20
257.973553
11
475.467706
21
258.798384
0
LINE
8
Calque 1
10
475.467706
20
258.798384
11
474.634247
21
259.783902
0
LINE
8
Calque 1
10
474.634247
20
259.783902
11
473.916926
21
260.952508
0
LINE
8
Calque 1
10
473.916926
20
260.952508
11
473.304024
21
262.326601
0
LINE
8
Calque 1
10
473.304024
20
262.326601
11
472.783823
21
263.928583
0
LINE
8
Calque 1
10
472.783823
20
263.928583
11
471.974650
21
267.905810
0
LINE
8
Calque 1
10
471.974650
20
267.905810
11
471.593326
21
271.176021
0
LINE
8
Calque 1
10
471.593326
20
271.176021
11
471.411566
21
274.559096
0
LINE
8
Calque 1
10
471.411566
20
274.559096
11
471.429046
21
278.068654
0
LINE
8
Calque 1
10
471.429046
20
278.068654
11
471.645440
21
281.718310
0
LINE
8
Calque 1
10
471.645440
20
281.718310
11
471.863667
21
285.833409
0
LINE
8
Calque 1
10
471.863667
20
285.833409
11
471.796819
21
289.577855
0
LINE
8
Calque 1
10
471.796819
20
289.577855
11
471.453675
21
292.919919
0
LINE
8
Calque 1
10
471.453675
20
292.919919
11
470.843014
21
295.827873
0
LINE
8
Calque 1
10
470.843014
20
295.827873
11
469.973613
21
298.269987
0
LINE
8
Calque 1
10
469.973613
20
298.269987
11
468.854252
21
300.214533
0
LINE
8
Calque 1
10
468.854252
20
300.214533
11
467.493708
21
301.629784
0
LINE
8
Calque 1
10
467.493708
20
301.629784
11
466.725736
21
302.129008
0
LINE
8
Calque 1
10
466.725736
20
302.129008
11
465.900760
21
302.484010
0
LINE
8
Calque 1
10
465.900760
20
302.484010
11
464.850427
21
302.684387
0
LINE
8
Calque 1
10
464.850427
20
302.684387
11
463.718765
21
302.664089
0
LINE
8
Calque 1
10
463.718765
20
302.664089
11
462.658690
21
302.440156
0
LINE
8
Calque 1
10
462.658690
20
302.440156
11
461.823120
21
302.029630
0
LINE
8
Calque 1
10
461.823120
20
302.029630
11
460.729244
21
301.023518
0
LINE
8
Calque 1
10
460.729244
20
301.023518
11
459.808762
21
299.735274
0
LINE
8
Calque 1
10
459.808762
20
299.735274
11
459.053033
21
298.129515
0
LINE
8
Calque 1
10
459.053033
20
298.129515
11
458.453412
21
296.170860
0
LINE
8
Calque 1
10
458.453412
20
296.170860
11
458.001258
21
293.823926
0
LINE
8
Calque 1
10
458.001258
20
293.823926
11
457.687927
21
291.053331
0
LINE
8
Calque 1
10
457.687927
20
291.053331
11
457.443160
21
284.099630
0
LINE
8
Calque 1
10
457.443160
20
284.099630
11
457.556929
21
277.818437
0
LINE
8
Calque 1
10
457.556929
20
277.818437
11
458.143610
21
272.854830
0
LINE
8
Calque 1
10
458.143610
20
272.854830
11
458.719290
21
268.804041
0
LINE
8
Calque 1
10
458.719290
20
268.804041
11
459.012762
21
265.799709
0
LINE
8
Calque 1
10
459.012762
20
265.799709
11
459.061821
21
263.226437
0
LINE
8
Calque 1
10
459.061821
20
263.226437
11
458.904260
21
260.468830
0
LINE
8
Calque 1
10
458.904260
20
260.468830
11
458.284497
21
255.925470
0
LINE
8
Calque 1
10
458.284497
20
255.925470
11
457.807621
21
254.128184
0
LINE
8
Calque 1
10
457.807621
20
254.128184
11
457.200580
21
252.608462
0
LINE
8
Calque 1
10
457.200580
20
252.608462
11
456.449248
21
251.337281
0
LINE
8
Calque 1
10
456.449248
20
251.337281
11
455.539500
21
250.285614
0
LINE
8
Calque 1
10
455.539500
20
250.285614
11
454.457209
21
249.424439
0
LINE
8
Calque 1
10
454.457209
20
249.424439
11
453.188250
21
248.724730
0
LINE
8
Calque 1
10
453.188250
20
248.724730
11
451.559659
21
248.224491
0
LINE
8
Calque 1
10
451.559659
20
248.224491
11
448.822620
21
248.116360
0
LINE
8
Calque 1
10
448.822620
20
248.116360
11
446.019394
21
248.229919
0
LINE
8
Calque 1
10
446.019394
20
248.229919
11
445.226247
21
248.462749
0
LINE
8
Calque 1
10
445.226247
20
248.462749
11
444.376680
21
248.893730
0
LINE
8
Calque 1
10
444.376680
20
248.893730
11
443.200387
21
249.659022
0
LINE
8
Calque 1
10
443.200387
20
249.659022
11
442.179952
21
250.582947
0
LINE
8
Calque 1
10
442.179952
20
250.582947
11
441.298146
21
251.701579
0
LINE
8
Calque 1
10
441.298146
20
251.701579
11
440.537736
21
253.050987
0
LINE
8
Calque 1
10
440.537736
20
253.050987
11
439.881493
21
254.667245
0
LINE
8
Calque 1
10
439.881493
20
254.667245
11
439.312185
21
256.586424
0
LINE
8
Calque 1
10
439.312185
20
256.586424
11
438.365450
21
261.477830
0
LINE
8
Calque 1
10
438.365450
20
261.477830
11
437.593445
21
267.749687
0
LINE
8
Calque 1
10
437.593445
20
267.749687
11
437.188070
21
275.848230
0
LINE
8
Calque 1
10
437.188070
20
275.848230
11
436.886312
21
281.759476
0
LINE
8
Calque 1
10
436.886312
20
281.759476
11
436.529880
21
285.637810
0
LINE
8
Calque 1
10
436.529880
20
285.637810
11
435.951320
21
288.599344
0
LINE
8
Calque 1
10
435.951320
20
288.599344
11
435.247758
21
291.112318
0
LINE
8
Calque 1
10
435.247758
20
291.112318
11
434.410844
21
293.188169
0
LINE
8
Calque 1
10
434.410844
20
293.188169
11
433.432227
21
294.838336
0
LINE
8
Calque 1
10
433.432227
20
294.838336
11
432.303557
21
296.074256
0
LINE
8
Calque 1
10
432.303557
20
296.074256
11
431.016483
21
296.907367
0
LINE
8
Calque 1
10
431.016483
20
296.907367
11
429.562654
21
297.349105
0
LINE
8
Calque 1
10
429.562654
20
297.349105
11
427.933720
21
297.410910
0
LINE
8
Calque 1
10
427.933720
20
297.410910
11
426.578449
21
297.151906
0
LINE
8
Calque 1
10
426.578449
20
297.151906
11
425.440512
21
296.570666
0
LINE
8
Calque 1
10
425.440512
20
296.570666
11
424.482895
21
295.640490
0
LINE
8
Calque 1
10
424.482895
20
295.640490
11
423.668580
21
294.334680
0
LINE
8
Calque 1
10
423.668580
20
294.334680
11
422.781052
21
292.062892
0
LINE
8
Calque 1
10
422.781052
20
292.062892
11
422.206506
21
288.936111
0
LINE
8
Calque 1
10
422.206506
20
288.936111
11
421.837425
21
284.040240
0
LINE
8
Calque 1
10
421.837425
20
284.040240
11
421.566290
21
276.461180
0
LINE
8
Calque 1
10
421.566290
20
276.461180
11
421.261345
21
268.639647
0
LINE
8
Calque 1
10
421.261345
20
268.639647
11
420.900900
21
263.161880
0
LINE
8
Calque 1
10
420.900900
20
263.161880
11
420.472017
21
260.077285
0
LINE
8
Calque 1
10
420.472017
20
260.077285
11
419.859171
21
256.988057
0
LINE
8
Calque 1
10
419.859171
20
256.988057
11
419.135852
21
254.216541
0
LINE
8
Calque 1
10
419.135852
20
254.216541
11
418.375550
21
252.085080
0
LINE
8
Calque 1
10
418.375550
20
252.085080
11
417.207006
21
249.866658
0
LINE
8
Calque 1
10
417.207006
20
249.866658
11
415.793765
21
247.889812
0
LINE
8
Calque 1
10
415.793765
20
247.889812
11
414.204829
21
246.237946
0
LINE
8
Calque 1
10
414.204829
20
246.237946
11
412.509200
21
244.994460
0
LINE
8
Calque 1
10
412.509200
20
244.994460
11
410.610501
21
244.149806
0
LINE
8
Calque 1
10
410.610501
20
244.149806
11
408.389974
21
243.593470
0
LINE
8
Calque 1
10
408.389974
20
243.593470
11
406.062622
21
243.362664
0
LINE
8
Calque 1
10
406.062622
20
243.362664
11
403.843450
21
243.494600
0
LINE
8
Calque 1
10
403.843450
20
243.494600
11
403.843360
21
243.494400
0
LINE
8
Calque 1
10
409.442980
20
246.005130
11
411.103057
21
246.690218
0
LINE
8
Calque 1
10
411.103057
20
246.690218
11
412.675119
21
247.763137
0
LINE
8
Calque 1
10
412.675119
20
247.763137
11
414.109749
21
249.182920
0
LINE
8
Calque 1
10
414.109749
20
249.182920
11
415.357530
21
250.908600
0
LINE
8
Calque 1
10
415.357530
20
250.908600
11
416.121650
21
252.428517
0
LINE
8
Calque 1
10
416.121650
20
252.428517
11
416.916725
21
254.422270
0
LINE
8
Calque 1
10
416.916725
20
254.422270
11
417.591867
21
256.474613
0
LINE
8
Calque 1
10
417.591867
20
256.474613
11
417.996190
21
258.170300
0
LINE
8
Calque 1
10
417.996190
20
258.170300
11
418.163970
21
259.228630
0
LINE
8
Calque 1
10
418.163970
20
259.228630
11
417.637140
21
258.117460
0
LINE
8
Calque 1
10
417.637140
20
258.117460
11
416.222214
21
255.650658
0
LINE
8
Calque 1
10
416.222214
20
255.650658
11
414.474758
21
253.433244
0
LINE
8
Calque 1
10
414.474758
20
253.433244
11
412.519284
21
251.601380
0
LINE
8
Calque 1
10
412.519284
20
251.601380
11
410.480310
21
250.291230
0
LINE
8
Calque 1
10
410.480310
20
250.291230
11
409.458067
21
249.822058
0
LINE
8
Calque 1
10
409.458067
20
249.822058
11
408.591071
21
249.566456
0
LINE
8
Calque 1
10
408.591071
20
249.566456
11
405.960030
21
249.439050
0
LINE
8
Calque 1
10
405.960030
20
249.439050
11
403.328989
21
249.566460
0
LINE
8
Calque 1
10
403.328989
20
249.566460
11
402.461993
21
249.822062
0
LINE
8
Calque 1
10
402.461993
20
249.822062
11
401.439750
21
250.291230
0
LINE
8
Calque 1
10
401.439750
20
250.291230
11
399.400776
21
251.601380
0
LINE
8
Calque 1
10
399.400776
20
251.601380
11
397.445302
21
253.433244
0
LINE
8
Calque 1
10
397.445302
20
253.433244
11
395.697846
21
255.650658
0
LINE
8
Calque 1
10
395.697846
20
255.650658
11
394.282920
21
258.117460
0
LINE
8
Calque 1
10
394.282920
20
258.117460
11
393.756090
21
259.228640
0
LINE
8
Calque 1
10
393.756090
20
259.228640
11
393.923870
21
258.170300
0
LINE
8
Calque 1
10
393.923870
20
258.170300
11
394.328193
21
256.474613
0
LINE
8
Calque 1
10
394.328193
20
256.474613
11
395.003335
21
254.422270
0
LINE
8
Calque 1
10
395.003335
20
254.422270
11
395.798410
21
252.428517
0
LINE
8
Calque 1
10
395.798410
20
252.428517
11
396.562530
21
250.908600
0
LINE
8
Calque 1
10
396.562530
20
250.908600
11
397.426436
21
249.681761
0
LINE
8
Calque 1
10
397.426436
20
249.681761
11
398.460817
21
248.514959
0
LINE
8
Calque 1
10
398.460817
20
248.514959
11
399.572512
21
247.502782
0
LINE
8
Calque 1
10
399.572512
20
247.502782
11
400.668360
21
246.739820
0
LINE
8
Calque 1
10
400.668360
20
246.739820
11
402.577174
21
245.945402
0
LINE
8
Calque 1
10
402.577174
20
245.945402
11
404.764524
21
245.550726
0
LINE
8
Calque 1
10
404.764524
20
245.550726
11
407.097447
21
245.566925
0
LINE
8
Calque 1
10
407.097447
20
245.566925
11
409.442980
21
246.005130
0
LINE
8
Calque 1
10
409.442980
20
246.005130
11
409.442980
21
246.005130
0
LINE
8
Calque 1
10
366.838780
20
250.956740
11
367.680502
21
251.590889
0
LINE
8
Calque 1
10
367.680502
20
251.590889
11
368.529044
21
252.439419
0
LINE
8
Calque 1
10
368.529044
20
252.439419
11
369.184654
21
253.278249
0
LINE
8
Calque 1
10
369.184654
20
253.278249
11
369.447580
21
253.883300
0
LINE
8
Calque 1
10
369.447580
20
253.883300
11
369.101256
21
253.747810
0
LINE
8
Calque 1
10
369.101256
20
253.747810
11
368.268610
21
253.165830
0
LINE
8
Calque 1
10
368.268610
20
253.165830
11
367.105761
21
252.394564
0
LINE
8
Calque 1
10
367.105761
20
252.394564
11
365.939334
21
251.901660
0
LINE
8
Calque 1
10
365.939334
20
251.901660
11
364.611715
21
251.639396
0
LINE
8
Calque 1
10
364.611715
20
251.639396
11
362.965290
21
251.560050
0
LINE
8
Calque 1
10
362.965290
20
251.560050
11
361.252746
21
251.677925
0
LINE
8
Calque 1
10
361.252746
20
251.677925
11
359.804941
21
252.077277
0
LINE
8
Calque 1
10
359.804941
20
252.077277
11
358.482344
21
252.815446
0
LINE
8
Calque 1
10
358.482344
20
252.815446
11
357.145420
21
253.949770
0
LINE
8
Calque 1
10
357.145420
20
253.949770
11
355.955760
21
255.105980
0
LINE
8
Calque 1
10
355.955760
20
255.105980
11
356.358750
21
254.124600
0
LINE
8
Calque 1
10
356.358750
20
254.124600
11
356.853383
21
253.100122
0
LINE
8
Calque 1
10
356.853383
20
253.100122
11
357.434215
21
252.240409
0
LINE
8
Calque 1
10
357.434215
20
252.240409
11
358.112874
21
251.538921
0
LINE
8
Calque 1
10
358.112874
20
251.538921
11
358.900990
21
250.989117
0
LINE
8
Calque 1
10
358.900990
20
250.989117
11
359.810194
21
250.584459
0
LINE
8
Calque 1
10
359.810194
20
250.584459
11
360.852115
21
250.318404
0
LINE
8
Calque 1
10
360.852115
20
250.318404
11
363.380630
21
250.175950
0
LINE
8
Calque 1
10
363.380630
20
250.175950
11
365.444539
21
250.375132
0
LINE
8
Calque 1
10
365.444539
20
250.375132
11
366.838780
21
250.956740
0
LINE
8
Calque 1
10
366.838780
20
250.956740
11
366.838780
21
250.956740
0
LINE
8
Calque 1
10
451.499580
20
250.369330
11
452.816738
21
250.900574
0
LINE
8
Calque 1
10
452.816738
20
250.900574
11
453.935211
21
251.705791
0
LINE
8
Calque 1
10
453.935211
20
251.705791
11
454.851336
21
252.781596
0
LINE
8
Calque 1
10
454.851336
20
252.781596
11
455.561450
21
254.124600
0
LINE
8
Calque 1
10
455.561450
20
254.124600
11
455.964440
21
255.105980
0
LINE
8
Calque 1
10
455.964440
20
255.105980
11
454.774780
21
253.949770
0
LINE
8
Calque 1
10
454.774780
20
253.949770
11
453.437856
21
252.815423
0
LINE
8
Calque 1
10
453.437856
20
252.815423
11
452.115259
21
252.077217
0
LINE
8
Calque 1
10
452.115259
20
252.077217
11
450.667454
21
251.677858
0
LINE
8
Calque 1
10
450.667454
20
251.677858
11
448.954910
21
251.560050
0
LINE
8
Calque 1
10
448.954910
20
251.560050
11
447.308485
21
251.639371
0
LINE
8
Calque 1
10
447.308485
20
251.639371
11
445.980866
21
251.901637
0
LINE
8
Calque 1
10
445.980866
20
251.901637
11
444.814439
21
252.394555
0
LINE
8
Calque 1
10
444.814439
20
252.394555
11
443.651590
21
253.165830
0
LINE
8
Calque 1
10
443.651590
20
253.165830
11
442.535780
21
253.846841
0
LINE
8
Calque 1
10
442.535780
20
253.846841
11
443.170860
21
252.693270
0
LINE
8
Calque 1
10
443.170860
20
252.693270
11
443.806820
21
251.937326
0
LINE
8
Calque 1
10
443.806820
20
251.937326
11
444.586961
21
251.272820
0
LINE
8
Calque 1
10
444.586961
20
251.272820
11
445.461072
21
250.736212
0
LINE
8
Calque 1
10
445.461072
20
250.736212
11
446.378940
21
250.363960
0
LINE
8
Calque 1
10
446.378940
20
250.363960
11
447.456049
21
250.189622
0
LINE
8
Calque 1
10
447.456049
20
250.189622
11
448.903680
21
250.132614
0
LINE
8
Calque 1
10
448.903680
20
250.132614
11
450.369101
21
250.192528
0
LINE
8
Calque 1
10
450.369101
20
250.192528
11
451.499580
21
250.368960
0
LINE
8
Calque 1
10
451.499580
20
250.368960
11
451.499580
21
250.369330
0
LINE
8
Calque 1
10
332.753580
20
258.888020
11
333.676034
21
259.336624
0
LINE
8
Calque 1
10
333.676034
20
259.336624
11
334.689932
21
260.059265
0
LINE
8
Calque 1
10
334.689932
20
260.059265
11
335.508542
21
260.823321
0
LINE
8
Calque 1
10
335.508542
20
260.823321
11
335.845130
21
261.396170
0
LINE
8
Calque 1
10
335.845130
20
261.396170
11
335.437267
21
261.381551
0
LINE
8
Calque 1
10
335.437267
20
261.381551
11
334.456660
21
260.974120
0
LINE
8
Calque 1
10
334.456660
20
260.974120
11
332.909064
21
260.414205
0
LINE
8
Calque 1
10
332.909064
20
260.414205
11
330.818640
21
260.288330
0
LINE
8
Calque 1
10
330.818640
20
260.288330
11
329.240315
21
260.354818
0
LINE
8
Calque 1
10
329.240315
20
260.354818
11
327.984396
21
260.579657
0
LINE
8
Calque 1
10
327.984396
20
260.579657
11
326.905216
21
261.003161
0
LINE
8
Calque 1
10
326.905216
20
261.003161
11
325.857110
21
261.665640
0
LINE
8
Calque 1
10
325.857110
20
261.665640
11
325.050860
21
262.120764
0
LINE
8
Calque 1
10
325.050860
20
262.120764
11
325.368950
21
261.266020
0
LINE
8
Calque 1
10
325.368950
20
261.266020
11
325.902217
21
260.469783
0
LINE
8
Calque 1
10
325.902217
20
260.469783
11
326.594090
21
259.800904
0
LINE
8
Calque 1
10
326.594090
20
259.800904
11
327.420952
21
259.266988
0
LINE
8
Calque 1
10
327.420952
20
259.266988
11
328.359190
21
258.875640
0
LINE
8
Calque 1
10
328.359190
20
258.875640
11
329.385187
21
258.634464
0
LINE
8
Calque 1
10
329.385187
20
258.634464
11
330.475328
21
258.551066
0
LINE
8
Calque 1
10
330.475328
20
258.551066
11
331.605997
21
258.633050
0
LINE
8
Calque 1
10
331.605997
20
258.633050
11
332.753580
21
258.888020
0
LINE
8
Calque 1
10
332.753580
20
258.888020
11
332.753580
21
258.888020
0
LINE
8
Calque 1
10
483.950580
20
258.976720
11
485.491877
21
259.932000
0
LINE
8
Calque 1
10
485.491877
20
259.932000
11
486.090068
21
260.559201
0
LINE
8
Calque 1
10
486.090068
20
260.559201
11
486.550520
21
261.266060
0
LINE
8
Calque 1
10
486.550520
20
261.266060
11
486.868610
21
262.120804
0
LINE
8
Calque 1
10
486.868610
20
262.120804
11
486.062360
21
261.665680
0
LINE
8
Calque 1
10
486.062360
20
261.665680
11
485.014254
21
261.003263
0
LINE
8
Calque 1
10
485.014254
20
261.003263
11
483.935074
21
260.579862
0
LINE
8
Calque 1
10
483.935074
20
260.579862
11
482.679155
21
260.355044
0
LINE
8
Calque 1
10
482.679155
20
260.355044
11
481.100830
21
260.288370
0
LINE
8
Calque 1
10
481.100830
20
260.288370
11
479.010406
21
260.414297
0
LINE
8
Calque 1
10
479.010406
20
260.414297
11
477.462810
21
260.974160
0
LINE
8
Calque 1
10
477.462810
20
260.974160
11
476.482202
21
261.381584
0
LINE
8
Calque 1
10
476.482202
20
261.381584
11
476.074340
21
261.396210
0
LINE
8
Calque 1
10
476.074340
20
261.396210
11
476.404114
21
260.844590
0
LINE
8
Calque 1
10
476.404114
20
260.844590
11
477.198315
21
260.080830
0
LINE
8
Calque 1
10
477.198315
20
260.080830
11
478.164258
21
259.352965
0
LINE
8
Calque 1
10
478.164258
20
259.352965
11
479.009260
21
258.909030
0
LINE
8
Calque 1
10
479.009260
20
258.909030
11
480.193792
21
258.672867
0
LINE
8
Calque 1
10
480.193792
20
258.672867
11
481.568975
21
258.607577
0
LINE
8
Calque 1
10
481.568975
20
258.607577
11
482.899631
21
258.709939
0
LINE
8
Calque 1
10
482.899631
20
258.709939
11
483.950580
21
258.976730
0
LINE
8
Calque 1
10
483.950580
20
258.976730
11
483.950580
21
258.976720
0
LINE
8
Calque 1
10
299.028000
20
302.933000
11
299.950413
21
306.171867
0
LINE
8
Calque 1
10
299.950413
20
306.171867
11
301.186854
21
309.074973
0
LINE
8
Calque 1
10
301.186854
20
309.074973
11
302.685613
21
311.540817
0
LINE
8
Calque 1
10
302.685613
20
311.540817
11
304.394980
21
313.467900
0
LINE
8
Calque 1
10
304.394980
20
313.467900
11
305.488270
21
314.455630
0
LINE
8
Calque 1
10
305.488270
20
314.455630
11
292.423770
21
327.522130
0
LINE
8
Calque 1
10
292.423770
20
327.522130
11
279.359270
21
340.588630
0
LINE
8
Calque 1
10
279.359270
20
340.588630
11
301.186570
21
362.417130
0
LINE
8
Calque 1
10
301.186570
20
362.417130
11
323.013870
21
384.245630
0
LINE
8
Calque 1
10
323.013870
20
384.245630
11
323.051770
21
388.809140
0
LINE
8
Calque 1
10
323.051770
20
388.809140
11
323.160264
21
392.299086
0
LINE
8
Calque 1
10
323.160264
20
392.299086
11
323.450640
21
395.331196
0
LINE
8
Calque 1
10
323.450640
20
395.331196
11
323.965416
21
398.218003
0
LINE
8
Calque 1
10
323.965416
20
398.218003
11
324.747110
21
401.272040
0
LINE
8
Calque 1
10
324.747110
20
401.272040
11
325.705513
21
404.206326
0
LINE
8
Calque 1
10
325.705513
20
404.206326
11
326.885732
21
407.101951
0
LINE
8
Calque 1
10
326.885732
20
407.101951
11
328.284408
21
409.955527
0
LINE
8
Calque 1
10
328.284408
20
409.955527
11
329.898180
21
412.763665
0
LINE
8
Calque 1
10
329.898180
20
412.763665
11
331.723690
21
415.522978
0
LINE
8
Calque 1
10
331.723690
20
415.522978
11
333.757578
21
418.230079
0
LINE
8
Calque 1
10
333.757578
20
418.230079
11
335.996483
21
420.881579
0
LINE
8
Calque 1
10
335.996483
20
420.881579
11
338.437047
21
423.474090
0
LINE
8
Calque 1
10
338.437047
20
423.474090
11
341.075910
21
426.004225
0
LINE
8
Calque 1
10
341.075910
20
426.004225
11
343.909713
21
428.468595
0
LINE
8
Calque 1
10
343.909713
20
428.468595
11
346.935094
21
430.863812
0
LINE
8
Calque 1
10
346.935094
20
430.863812
11
350.148696
21
433.186490
0
LINE
8
Calque 1
10
350.148696
20
433.186490
11
353.547158
21
435.433239
0
LINE
8
Calque 1
10
353.547158
20
435.433239
11
357.127121
21
437.600673
0
LINE
8
Calque 1
10
357.127121
20
437.600673
11
360.885225
21
439.685402
0
LINE
8
Calque 1
10
360.885225
20
439.685402
11
364.818110
21
441.684040
0
LINE
8
Calque 1
10
364.818110
20
441.684040
11
370.501470
21
444.278810
0
LINE
8
Calque 1
10
370.501470
20
444.278810
11
376.365955
21
446.652010
0
LINE
8
Calque 1
10
376.365955
20
446.652010
11
382.012767
21
448.652130
0
LINE
8
Calque 1
10
382.012767
20
448.652130
11
387.043110
21
450.127660
0
LINE
8
Calque 1
10
387.043110
20
450.127660
11
389.424360
21
450.730980
0
LINE
8
Calque 1
10
389.424360
20
450.730980
11
397.692590
21
458.959610
0
LINE
8
Calque 1
10
397.692590
20
458.959610
11
405.960820
21
467.188230
0
LINE
8
Calque 1
10
405.960820
20
467.188230
11
414.229050
21
458.959610
0
LINE
8
Calque 1
10
414.229050
20
458.959610
11
422.497280
21
450.730980
0
LINE
8
Calque 1
10
422.497280
20
450.730980
11
424.878530
21
450.127660
0
LINE
8
Calque 1
10
424.878530
20
450.127660
11
428.292431
21
449.165775
0
LINE
8
Calque 1
10
428.292431
20
449.165775
11
432.009323
21
447.944925
0
LINE
8
Calque 1
10
432.009323
20
447.944925
11
439.926374
21
444.904081
0
LINE
8
Calque 1
10
439.926374
20
444.904081
11
447.778278
21
441.360626
0
LINE
8
Calque 1
10
447.778278
20
441.360626
11
451.413736
21
439.511513
0
LINE
8
Calque 1
10
451.413736
20
439.511513
11
454.713630
21
437.670060
0
LINE
8
Calque 1
10
454.713630
20
437.670060
11
460.996202
21
433.699346
0
LINE
8
Calque 1
10
460.996202
20
433.699346
11
466.649658
21
429.554943
0
LINE
8
Calque 1
10
466.649658
20
429.554943
11
471.670906
21
425.240320
0
LINE
8
Calque 1
10
471.670906
20
425.240320
11
476.056855
21
420.758948
0
LINE
8
Calque 1
10
476.056855
20
420.758948
11
479.804413
21
416.114295
0
LINE
8
Calque 1
10
479.804413
20
416.114295
11
481.437830
21
413.731824
0
LINE
8
Calque 1
10
481.437830
20
413.731824
11
482.910489
21
411.309833
0
LINE
8
Calque 1
10
482.910489
20
411.309833
11
484.222006
21
408.848758
0
LINE
8
Calque 1
10
484.222006
20
408.848758
11
485.371992
21
406.349032
0
LINE
8
Calque 1
10
485.371992
20
406.349032
11
486.360062
21
403.811088
0
LINE
8
Calque 1
10
486.360062
20
403.811088
11
487.185830
21
401.235360
0
LINE
8
Calque 1
10
487.185830
20
401.235360
11
487.947473
21
398.225269
0
LINE
8
Calque 1
10
487.947473
20
398.225269
11
488.461556
21
395.283868
0
LINE
8
Calque 1
10
488.461556
20
395.283868
11
488.759304
21
392.178587
0
LINE
8
Calque 1
10
488.759304
20
392.178587
11
488.871940
21
388.676860
0
LINE
8
Calque 1
10
488.871940
20
388.676860
11
488.907740
21
384.245670
0
LINE
8
Calque 1
10
488.907740
20
384.245670
11
510.735040
21
362.417170
0
LINE
8
Calque 1
10
510.735040
20
362.417170
11
532.562340
21
340.588670
0
LINE
8
Calque 1
10
532.562340
20
340.588670
11
519.497840
21
327.522170
0
LINE
8
Calque 1
10
519.497840
20
327.522170
11
506.433340
21
314.455670
0
LINE
8
Calque 1
10
506.433340
20
314.455670
11
507.526630
21
313.467940
0
LINE
8
Calque 1
10
507.526630
20
313.467940
11
508.778393
21
312.155757
0
LINE
8
Calque 1
10
508.778393
20
312.155757
11
509.900769
21
310.605459
0
LINE
8
Calque 1
10
509.900769
20
310.605459
11
510.887377
21
308.834181
0
LINE
8
Calque 1
10
510.887377
20
308.834181
11
511.731839
21
306.859055
0
LINE
8
Calque 1
10
511.731839
20
306.859055
11
512.427774
21
304.697215
0
LINE
8
Calque 1
10
512.427774
20
304.697215
11
512.968802
21
302.365793
0
LINE
8
Calque 1
10
512.968802
20
302.365793
11
513.348544
21
299.881924
0
LINE
8
Calque 1
10
513.348544
20
299.881924
11
513.560620
21
297.262740
0
LINE
8
Calque 1
10
513.560620
20
297.262740
11
513.770784
21
294.428116
0
LINE
8
Calque 1
10
513.770784
20
294.428116
11
513.918149
21
293.899121
0
LINE
8
Calque 1
10
513.918149
20
293.899121
11
514.126860
21
293.757010
0
LINE
8
Calque 1
10
514.126860
20
293.757010
11
514.361236
21
293.806095
0
LINE
8
Calque 1
10
514.361236
20
293.806095
11
514.361140
21
293.924090
0
LINE
8
Calque 1
10
514.361140
20
293.924090
11
514.297670
21
294.221958
0
LINE
8
Calque 1
10
514.297670
20
294.221958
11
514.468158
21
294.585127
0
LINE
8
Calque 1
10
514.468158
20
294.585127
11
514.765608
21
294.866280
0
LINE
8
Calque 1
10
514.765608
20
294.866280
11
515.083030
21
294.918100
0
LINE
8
Calque 1
10
515.083030
20
294.918100
11
515.518320
21
295.044505
0
LINE
8
Calque 1
10
515.518320
20
295.044505
11
516.054800
21
295.589410
0
LINE
8
Calque 1
10
516.054800
20
295.589410
11
516.586089
21
296.163896
0
LINE
8
Calque 1
10
516.586089
20
296.163896
11
517.018940
21
296.402840
0
LINE
8
Calque 1
10
517.018940
20
296.402840
11
517.232533
21
296.471727
0
LINE
8
Calque 1
10
517.232533
20
296.471727
11
517.236740
21
296.637350
0
LINE
8
Calque 1
10
517.236740
20
296.637350
11
517.296770
21
296.845427
0
LINE
8
Calque 1
10
517.296770
20
296.845427
11
517.644620
21
297.016410
0
LINE
8
Calque 1
10
517.644620
20
297.016410
11
518.000581
21
297.207707
0
LINE
8
Calque 1
10
518.000581
20
297.207707
11
517.997630
21
297.484250
0
LINE
8
Calque 1
10
517.997630
20
297.484250
11
517.928248
21
297.669657
0
LINE
8
Calque 1
10
517.928248
20
297.669657
11
518.053130
21
297.649730
0
LINE
8
Calque 1
10
518.053130
20
297.649730
11
524.557668
21
303.862866
0
LINE
8
Calque 1
10
524.557668
20
303.862866
11
539.837730
21
319.022430
0
LINE
8
Calque 1
10
539.837730
20
319.022430
11
561.367030
21
340.552930
0
LINE
8
Calque 1
10
561.367030
20
340.552930
11
556.837870
21
345.266960
0
LINE
8
Calque 1
10
556.837870
20
345.266960
11
479.134770
21
423.138160
0
LINE
8
Calque 1
10
479.134770
20
423.138160
11
405.960870
21
496.295260
0
LINE
8
Calque 1
10
405.960870
20
496.295260
11
332.786970
21
423.138160
0
LINE
8
Calque 1
10
332.786970
20
423.138160
11
255.083870
21
345.267060
0
LINE
8
Calque 1
10
255.083870
20
345.267060
11
250.554730
21
340.553020
0
LINE
8
Calque 1
10
250.554730
20
340.553020
11
272.480930
21
318.625620
0
LINE
8
Calque 1
10
272.480930
20
318.625620
11
294.555330
21
296.766120
0
LINE
8
Calque 1
10
294.555330
20
296.766120
11
295.289470
21
296.221560
0
LINE
8
Calque 1
10
295.289470
20
296.221560
11
295.701920
21
295.609180
0
LINE
8
Calque 1
10
295.701920
20
295.609180
11
295.621775
21
295.575745
0
LINE
8
Calque 1
10
295.621775
20
295.575745
11
295.673671
21
295.487535
0
LINE
8
Calque 1
10
295.673671
20
295.487535
11
296.050470
21
295.219350
0
LINE
8
Calque 1
10
296.050470
20
295.219350
11
297.034330
21
294.823850
0
LINE
8
Calque 1
10
297.034330
20
294.823850
11
297.324331
21
294.740045
0
LINE
8
Calque 1
10
297.324331
20
294.740045
11
297.349440
21
294.550850
0
LINE
8
Calque 1
10
297.349440
20
294.550850
11
297.355136
21
294.363990
0
LINE
8
Calque 1
10
297.355136
20
294.363990
11
297.598410
21
294.286270
0
LINE
8
Calque 1
10
297.598410
20
294.286270
11
297.905904
21
294.118124
0
LINE
8
Calque 1
10
297.905904
20
294.118124
11
298.051660
21
293.690950
0
LINE
8
Calque 1
10
298.051660
20
293.690950
11
298.083137
21
293.752085
0
LINE
8
Calque 1
10
298.083137
20
293.752085
11
298.138734
21
294.358614
0
LINE
8
Calque 1
10
298.138734
20
294.358614
11
298.290870
21
296.799810
0
LINE
8
Calque 1
10
298.290870
20
296.799810
11
298.589305
21
300.129430
0
LINE
8
Calque 1
10
298.589305
20
300.129430
11
299.028140
21
302.933090
0
LINE
8
Calque 1
10
299.028140
20
302.933090
11
299.028000
21
302.933000
0
LINE
8
Calque 1
10
369.469100
20
302.477160
11
371.207315
21
303.997449
0
LINE
8
Calque 1
10
371.207315
20
303.997449
11
373.743680
21
306.553570
0
LINE
8
Calque 1
10
373.743680
20
306.553570
11
376.411721
21
309.197185
0
LINE
8
Calque 1
10
376.411721
20
309.197185
11
378.466510
21
310.927840
0
LINE
8
Calque 1
10
378.466510
20
310.927840
11
379.925714
21
311.772646
0
LINE
8
Calque 1
10
379.925714
20
311.772646
11
381.440306
21
312.404082
0
LINE
8
Calque 1
10
381.440306
20
312.404082
11
382.988435
21
312.820850
0
LINE
8
Calque 1
10
382.988435
20
312.820850
11
384.548252
21
313.021658
0
LINE
8
Calque 1
10
384.548252
20
313.021658
11
386.097908
21
313.005207
0
LINE
8
Calque 1
10
386.097908
20
313.005207
11
387.615553
21
312.770205
0
LINE
8
Calque 1
10
387.615553
20
312.770205
11
389.079337
21
312.315354
0
LINE
8
Calque 1
10
389.079337
20
312.315354
11
390.467410
21
311.639360
0
LINE
8
Calque 1
10
390.467410
20
311.639360
11
391.806080
21
310.954930
0
LINE
8
Calque 1
10
391.806080
20
310.954930
11
393.905570
21
314.989820
0
LINE
8
Calque 1
10
393.905570
20
314.989820
11
396.223330
21
320.220738
0
LINE
8
Calque 1
10
396.223330
20
320.220738
11
398.274673
21
325.653761
0
LINE
8
Calque 1
10
398.274673
20
325.653761
11
400.056331
21
331.274888
0
LINE
8
Calque 1
10
400.056331
20
331.274888
11
401.565036
21
337.070120
0
LINE
8
Calque 1
10
401.565036
20
337.070120
11
402.797521
21
343.025459
0
LINE
8
Calque 1
10
402.797521
20
343.025459
11
403.750517
21
349.126904
0
LINE
8
Calque 1
10
403.750517
20
349.126904
11
404.420756
21
355.360458
0
LINE
8
Calque 1
10
404.420756
20
355.360458
11
404.804970
21
361.712120
0
LINE
8
Calque 1
10
404.804970
20
361.712120
11
404.947794
21
364.593414
0
LINE
8
Calque 1
10
404.947794
20
364.593414
11
405.148438
21
366.295171
0
LINE
8
Calque 1
10
405.148438
20
366.295171
11
405.466310
21
367.105180
0
LINE
8
Calque 1
10
405.466310
20
367.105180
11
405.960820
21
367.311230
0
LINE
8
Calque 1
10
405.960820
20
367.311230
11
406.455330
21
367.105180
0
LINE
8
Calque 1
10
406.455330
20
367.105180
11
406.773203
21
366.295171
0
LINE
8
Calque 1
10
406.773203
20
366.295171
11
406.973846
21
364.593414
0
LINE
8
Calque 1
10
406.973846
20
364.593414
11
407.116670
21
361.712120
0
LINE
8
Calque 1
10
407.116670
20
361.712120
11
407.501042
21
355.356874
0
LINE
8
Calque 1
10
407.501042
20
355.356874
11
408.171455
21
349.121431
0
LINE
8
Calque 1
10
408.171455
20
349.121431
11
409.124821
21
343.019016
0
LINE
8
Calque 1
10
409.124821
20
343.019016
11
410.358052
21
337.062858
0
LINE
8
Calque 1
10
410.358052
20
337.062858
11
411.868061
21
331.266182
0
LINE
8
Calque 1
10
411.868061
20
331.266182
11
413.651758
21
325.642215
0
LINE
8
Calque 1
10
413.651758
20
325.642215
11
415.706057
21
320.204186
0
LINE
8
Calque 1
10
415.706057
20
320.204186
11
418.027870
21
314.965320
0
LINE
8
Calque 1
10
418.027870
20
314.965320
11
419.458886
21
312.128446
0
LINE
8
Calque 1
10
419.458886
20
312.128446
11
420.174470
21
311.008450
0
LINE
8
Calque 1
10
420.174470
20
311.008450
11
423.750188
21
312.645195
0
LINE
8
Calque 1
10
423.750188
20
312.645195
11
424.873797
21
312.906910
0
LINE
8
Calque 1
10
424.873797
20
312.906910
11
426.189400
21
313.008620
0
LINE
8
Calque 1
10
426.189400
20
313.008620
11
428.114805
21
312.983601
0
LINE
8
Calque 1
10
428.114805
20
312.983601
11
429.628640
21
312.703470
0
LINE
8
Calque 1
10
429.628640
20
312.703470
11
431.048760
21
312.406900
0
LINE
8
Calque 1
10
431.048760
20
312.406900
11
429.978620
21
314.712300
0
LINE
8
Calque 1
10
429.978620
20
314.712300
11
427.341169
21
319.977320
0
LINE
8
Calque 1
10
427.341169
20
319.977320
11
424.655189
21
325.976126
0
LINE
8
Calque 1
10
424.655189
20
325.976126
11
422.130149
21
332.216719
0
LINE
8
Calque 1
10
422.130149
20
332.216719
11
419.975520
21
338.207100
0
LINE
8
Calque 1
10
419.975520
20
338.207100
11
417.857699
21
345.150484
0
LINE
8
Calque 1
10
417.857699
20
345.150484
11
416.086261
21
352.239797
0
LINE
8
Calque 1
10
416.086261
20
352.239797
11
414.657982
21
359.501568
0
LINE
8
Calque 1
10
414.657982
20
359.501568
11
413.569641
21
366.962325
0
LINE
8
Calque 1
10
413.569641
20
366.962325
11
412.818015
21
374.648598
0
LINE
8
Calque 1
10
412.818015
20
374.648598
11
412.399881
21
382.586916
0
LINE
8
Calque 1
10
412.399881
20
382.586916
11
412.312017
21
390.803807
0
LINE
8
Calque 1
10
412.312017
20
390.803807
11
412.551200
21
399.325800
0
LINE
8
Calque 1
10
412.551200
20
399.325800
11
412.909251
21
405.256729
0
LINE
8
Calque 1
10
412.909251
20
405.256729
11
413.416890
21
410.727161
0
LINE
8
Calque 1
10
413.416890
20
410.727161
11
414.080774
21
415.769716
0
LINE
8
Calque 1
10
414.080774
20
415.769716
11
414.907560
21
420.417013
0
LINE
8
Calque 1
10
414.907560
20
420.417013
11
415.903906
21
424.701670
0
LINE
8
Calque 1
10
415.903906
20
424.701670
11
417.076470
21
428.656308
0
LINE
8
Calque 1
10
417.076470
20
428.656308
11
418.431909
21
432.313545
0
LINE
8
Calque 1
10
418.431909
20
432.313545
11
419.976880
21
435.706000
0
LINE
8
Calque 1
10
419.976880
20
435.706000
11
421.153983
21
437.964687
0
LINE
8
Calque 1
10
421.153983
20
437.964687
11
421.611813
21
438.631322
0
LINE
8
Calque 1
10
421.611813
20
438.631322
11
422.071882
21
439.045211
0
LINE
8
Calque 1
10
422.071882
20
439.045211
11
422.601232
21
439.248150
0
LINE
8
Calque 1
10
422.601232
20
439.248150
11
423.266903
21
439.281935
0
LINE
8
Calque 1
10
423.266903
20
439.281935
11
425.275370
21
439.009220
0
LINE
8
Calque 1
10
425.275370
20
439.009220
11
428.318737
21
438.360467
0
LINE
8
Calque 1
10
428.318737
20
438.360467
11
431.663365
21
437.357059
0
LINE
8
Calque 1
10
431.663365
20
437.357059
11
435.234125
21
436.033645
0
LINE
8
Calque 1
10
435.234125
20
436.033645
11
438.955887
21
434.424879
0
LINE
8
Calque 1
10
438.955887
20
434.424879
11
442.753523
21
432.565411
0
LINE
8
Calque 1
10
442.753523
20
432.565411
11
446.551902
21
430.489895
0
LINE
8
Calque 1
10
446.551902
20
430.489895
11
450.275894
21
428.232980
0
LINE
8
Calque 1
10
450.275894
20
428.232980
11
453.850370
21
425.829320
0
LINE
8
Calque 1
10
453.850370
20
425.829320
11
457.662355
21
422.963511
0
LINE
8
Calque 1
10
457.662355
20
422.963511
11
461.208415
21
419.969960
0
LINE
8
Calque 1
10
461.208415
20
419.969960
11
464.469581
21
416.870475
0
LINE
8
Calque 1
10
464.469581
20
416.870475
11
467.426882
21
413.686864
0
LINE
8
Calque 1
10
467.426882
20
413.686864
11
470.061351
21
410.440935
0
LINE
8
Calque 1
10
470.061351
20
410.440935
11
472.354018
21
407.154496
0
LINE
8
Calque 1
10
472.354018
20
407.154496
11
474.285914
21
403.849355
0
LINE
8
Calque 1
10
474.285914
20
403.849355
11
475.838070
21
400.547320
0
LINE
8
Calque 1
10
475.838070
20
400.547320
11
476.946845
21
397.570084
0
LINE
8
Calque 1
10
476.946845
20
397.570084
11
477.696606
21
394.803345
0
LINE
8
Calque 1
10
477.696606
20
394.803345
11
478.149429
21
391.957368
0
LINE
8
Calque 1
10
478.149429
20
391.957368
11
478.367390
21
388.742420
0
LINE
8
Calque 1
10
478.367390
20
388.742420
11
478.377469
21
384.775768
0
LINE
8
Calque 1
10
478.377469
20
384.775768
11
477.824890
21
381.381350
0
LINE
8
Calque 1
10
477.824890
20
381.381350
11
477.228316
21
378.073197
0
LINE
8
Calque 1
10
477.228316
20
378.073197
11
476.838131
21
374.816533
0
LINE
8
Calque 1
10
476.838131
20
374.816533
11
476.655316
21
371.622377
0
LINE
8
Calque 1
10
476.655316
20
371.622377
11
476.680850
21
368.501750
0
LINE
8
Calque 1
10
476.680850
20
368.501750
11
476.908590
21
365.603908
0
LINE
8
Calque 1
10
476.908590
20
365.603908
11
477.368192
21
363.090789
0
LINE
8
Calque 1
10
477.368192
20
363.090789
11
478.127071
21
360.690550
0
LINE
8
Calque 1
10
478.127071
20
360.690550
11
479.252640
21
358.131350
0
LINE
8
Calque 1
10
479.252640
20
358.131350
11
480.965812
21
355.069016
0
LINE
8
Calque 1
10
480.965812
20
355.069016
11
483.275012
21
351.910335
0
LINE
8
Calque 1
10
483.275012
20
351.910335
11
486.594227
21
348.146112
0
LINE
8
Calque 1
10
486.594227
20
348.146112
11
491.337440
21
343.267150
0
LINE
8
Calque 1
10
491.337440
20
343.267150
11
498.035810
21
336.553350
0
LINE
8
Calque 1
10
498.035810
20
336.553350
11
498.035000
21
330.755000
0
LINE
8
Calque 1
10
498.035000
20
330.755000
11
497.816236
21
323.381055
0
LINE
8
Calque 1
10
497.816236
20
323.381055
11
497.537698
21
320.712912
0
LINE
8
Calque 1
10
497.537698
20
320.712912
11
497.141870
21
318.662800
0
LINE
8
Calque 1
10
497.141870
20
318.662800
11
496.806320
21
317.369230
0
LINE
8
Calque 1
10
496.806320
20
317.369230
11
498.760330
21
317.192160
0
LINE
8
Calque 1
10
498.760330
20
317.192160
11
500.601720
21
316.923508
0
LINE
8
Calque 1
10
500.601720
20
316.923508
11
502.284950
21
316.526260
0
LINE
8
Calque 1
10
502.284950
20
316.526260
11
503.855560
21
316.037440
0
LINE
8
Calque 1
10
503.855560
20
316.037440
11
504.561320
21
316.869540
0
LINE
8
Calque 1
10
504.561320
20
316.869540
11
505.817772
21
318.861918
0
LINE
8
Calque 1
10
505.817772
20
318.861918
11
507.122028
21
321.802093
0
LINE
8
Calque 1
10
507.122028
20
321.802093
11
508.333347
21
325.328291
0
LINE
8
Calque 1
10
508.333347
20
325.328291
11
509.310990
21
329.078740
0
LINE
8
Calque 1
10
509.310990
20
329.078740
11
509.818822
21
332.031679
0
LINE
8
Calque 1
10
509.818822
20
332.031679
11
510.113651
21
334.966088
0
LINE
8
Calque 1
10
510.113651
20
334.966088
11
510.157697
21
337.295152
0
LINE
8
Calque 1
10
510.157697
20
337.295152
11
510.073870
21
338.049302
0
LINE
8
Calque 1
10
510.073870
20
338.049302
11
509.913180
21
338.432060
0
LINE
8
Calque 1
10
509.913180
20
338.432060
11
506.898540
21
340.038010
0
LINE
8
Calque 1
10
506.898540
20
340.038010
11
503.655326
21
341.841355
0
LINE
8
Calque 1
10
503.655326
20
341.841355
11
500.469219
21
344.039545
0
LINE
8
Calque 1
10
500.469219
20
344.039545
11
497.406055
21
346.563675
0
LINE
8
Calque 1
10
497.406055
20
346.563675
11
494.531669
21
349.344839
0
LINE
8
Calque 1
10
494.531669
20
349.344839
11
491.911898
21
352.314130
0
LINE
8
Calque 1
10
491.911898
20
352.314130
11
489.612579
21
355.402643
0
LINE
8
Calque 1
10
489.612579
20
355.402643
11
487.699547
21
358.541471
0
LINE
8
Calque 1
10
487.699547
20
358.541471
11
486.238640
21
361.661710
0
LINE
8
Calque 1
10
486.238640
20
361.661710
11
485.669790
21
363.281145
0
LINE
8
Calque 1
10
485.669790
20
363.281145
11
485.254249
21
364.909355
0
LINE
8
Calque 1
10
485.254249
20
364.909355
11
484.990264
21
366.635907
0
LINE
8
Calque 1
10
484.990264
20
366.635907
11
484.876084
21
368.550371
0
LINE
8
Calque 1
10
484.876084
20
368.550371
11
485.090132
21
373.301307
0
LINE
8
Calque 1
10
485.090132
20
373.301307
11
485.882380
21
379.878710
0
LINE
8
Calque 1
10
485.882380
20
379.878710
11
486.562761
21
386.452960
0
LINE
8
Calque 1
10
486.562761
20
386.452960
11
486.662310
21
389.377400
0
LINE
8
Calque 1
10
486.662310
20
389.377400
11
486.598011
21
392.122157
0
LINE
8
Calque 1
10
486.598011
20
392.122157
11
486.367299
21
394.733816
0
LINE
8
Calque 1
10
486.367299
20
394.733816
11
485.967609
21
397.258956
0
LINE
8
Calque 1
10
485.967609
20
397.258956
11
485.396374
21
399.744160
0
LINE
8
Calque 1
10
485.396374
20
399.744160
11
484.651030
21
402.236010
0
LINE
8
Calque 1
10
484.651030
20
402.236010
11
483.128054
21
406.165440
0
LINE
8
Calque 1
10
483.128054
20
406.165440
11
481.198292
21
410.008221
0
LINE
8
Calque 1
10
481.198292
20
410.008221
11
478.867331
21
413.757474
0
LINE
8
Calque 1
10
478.867331
20
413.757474
11
476.140760
21
417.406322
0
LINE
8
Calque 1
10
476.140760
20
417.406322
11
473.024166
21
420.947888
0
LINE
8
Calque 1
10
473.024166
20
420.947888
11
469.523138
21
424.375293
0
LINE
8
Calque 1
10
469.523138
20
424.375293
11
465.643263
21
427.681659
0
LINE
8
Calque 1
10
465.643263
20
427.681659
11
461.390130
21
430.860110
0
LINE
8
Calque 1
10
461.390130
20
430.860110
11
456.709656
21
433.945838
0
LINE
8
Calque 1
10
456.709656
20
433.945838
11
451.710888
21
436.876878
0
LINE
8
Calque 1
10
451.710888
20
436.876878
11
446.481319
21
439.614813
0
LINE
8
Calque 1
10
446.481319
20
439.614813
11
441.108443
21
442.121226
0
LINE
8
Calque 1
10
441.108443
20
442.121226
11
435.679752
21
444.357700
0
LINE
8
Calque 1
10
435.679752
20
444.357700
11
430.282741
21
446.285816
0
LINE
8
Calque 1
10
430.282741
20
446.285816
11
425.004902
21
447.867159
0
LINE
8
Calque 1
10
425.004902
20
447.867159
11
419.933730
21
449.063310
0
LINE
8
Calque 1
10
419.933730
20
449.063310
11
418.302853
21
449.364514
0
LINE
8
Calque 1
10
418.302853
20
449.364514
11
417.341809
21
449.300135
0
LINE
8
Calque 1
10
417.341809
20
449.300135
11
416.598908
21
448.691863
0
LINE
8
Calque 1
10
416.598908
20
448.691863
11
415.622460
21
447.361390
0
LINE
8
Calque 1
10
415.622460
20
447.361390
11
414.245139
21
445.194324
0
LINE
8
Calque 1
10
414.245139
20
445.194324
11
412.936277
21
442.683813
0
LINE
8
Calque 1
10
412.936277
20
442.683813
11
411.711637
21
439.876538
0
LINE
8
Calque 1
10
411.711637
20
439.876538
11
410.586984
21
436.819183
0
LINE
8
Calque 1
10
410.586984
20
436.819183
11
409.578081
21
433.558428
0
LINE
8
Calque 1
10
409.578081
20
433.558428
11
408.700694
21
430.140956
0
LINE
8
Calque 1
10
408.700694
20
430.140956
11
407.970585
21
426.613449
0
LINE
8
Calque 1
10
407.970585
20
426.613449
11
407.403520
21
423.022590
0
LINE
8
Calque 1
10
407.403520
20
423.022590
11
407.018210
21
418.997000
0
LINE
8
Calque 1
10
407.018210
20
418.997000
11
406.904598
21
418.047253
0
LINE
8
Calque 1
10
406.904598
20
418.047253
11
406.489050
21
417.581810
0
LINE
8
Calque 1
10
406.489050
20
417.581810
11
405.850106
21
417.407843
0
LINE
8
Calque 1
10
405.850106
20
417.407843
11
405.347836
21
417.607741
0
LINE
8
Calque 1
10
405.347836
20
417.607741
11
405.019298
21
418.148471
0
LINE
8
Calque 1
10
405.019298
20
418.148471
11
404.901550
21
418.997000
0
LINE
8
Calque 1
10
404.901550
20
418.997000
11
404.668064
21
421.969557
0
LINE
8
Calque 1
10
404.668064
20
421.969557
11
404.043779
21
425.965681
0
LINE
8
Calque 1
10
404.043779
20
425.965681
11
403.142951
21
430.356990
0
LINE
8
Calque 1
10
403.142951
20
430.356990
11
402.079840
21
434.515100
0
LINE
8
Calque 1
10
402.079840
20
434.515100
11
400.903930
21
438.049063
0
LINE
8
Calque 1
10
400.903930
20
438.049063
11
399.451120
21
441.583166
0
LINE
8
Calque 1
10
399.451120
20
441.583166
11
397.866670
21
444.794786
0
LINE
8
Calque 1
10
397.866670
20
444.794786
11
396.295840
21
447.361300
0
LINE
8
Calque 1
10
396.295840
20
447.361300
11
395.320599
21
448.691697
0
LINE
8
Calque 1
10
395.320599
20
448.691697
11
394.578136
21
449.299985
0
LINE
8
Calque 1
10
394.578136
20
449.299985
11
393.617073
21
449.364410
0
LINE
8
Calque 1
10
393.617073
20
449.364410
11
391.986030
21
449.063220
0
LINE
8
Calque 1
10
391.986030
20
449.063220
11
386.914890
21
447.867082
0
LINE
8
Calque 1
10
386.914890
20
447.867082
11
381.637075
21
446.285749
0
LINE
8
Calque 1
10
381.637075
20
446.285749
11
376.240078
21
444.357638
0
LINE
8
Calque 1
10
376.240078
20
444.357638
11
370.811393
21
442.121166
0
LINE
8
Calque 1
10
370.811393
20
442.121166
11
365.438511
21
439.614752
0
LINE
8
Calque 1
10
365.438511
20
439.614752
11
360.208928
21
436.876811
0
LINE
8
Calque 1
10
360.208928
20
436.876811
11
355.210137
21
433.945761
0
LINE
8
Calque 1
10
355.210137
20
433.945761
11
350.529630
21
430.860020
0
LINE
8
Calque 1
10
350.529630
20
430.860020
11
345.541478
21
427.090305
0
LINE
8
Calque 1
10
345.541478
20
427.090305
11
341.083883
21
423.152047
0
LINE
8
Calque 1
10
341.083883
20
423.152047
11
337.162637
21
419.053316
0
LINE
8
Calque 1
10
337.162637
20
419.053316
11
333.783530
21
414.802178
0
LINE
8
Calque 1
10
333.783530
20
414.802178
11
330.952355
21
410.406701
0
LINE
8
Calque 1
10
330.952355
20
410.406701
11
328.674902
21
405.874954
0
LINE
8
Calque 1
10
328.674902
20
405.874954
11
326.956963
21
401.215004
0
LINE
8
Calque 1
10
326.956963
20
401.215004
11
325.804330
21
396.434920
0
LINE
8
Calque 1
10
325.804330
20
396.434920
11
325.374378
21
393.006764
0
LINE
8
Calque 1
10
325.374378
20
393.006764
11
325.250921
21
389.240905
0
LINE
8
Calque 1
10
325.250921
20
389.240905
11
325.433759
21
385.163804
0
LINE
8
Calque 1
10
325.433759
20
385.163804
11
325.922690
21
380.801920
0
LINE
8
Calque 1
10
325.922690
20
380.801920
11
326.556295
21
375.866130
0
LINE
8
Calque 1
10
326.556295
20
375.866130
11
326.930336
21
371.758715
0
LINE
8
Calque 1
10
326.930336
20
371.758715
11
327.043394
21
368.501103
0
LINE
8
Calque 1
10
327.043394
20
368.501103
11
326.894050
21
366.114720
0
LINE
8
Calque 1
10
326.894050
20
366.114720
11
326.549747
21
364.391270
0
LINE
8
Calque 1
10
326.549747
20
364.391270
11
326.014035
21
362.614683
0
LINE
8
Calque 1
10
326.014035
20
362.614683
11
324.415565
21
358.958348
0
LINE
8
Calque 1
10
324.415565
20
358.958348
11
322.192998
21
355.258212
0
LINE
8
Calque 1
10
322.192998
20
355.258212
11
319.440691
21
351.626768
0
LINE
8
Calque 1
10
319.440691
20
351.626768
11
316.253005
21
348.176511
0
LINE
8
Calque 1
10
316.253005
20
348.176511
11
312.724297
21
345.019938
0
LINE
8
Calque 1
10
312.724297
20
345.019938
11
308.948926
21
342.269542
0
LINE
8
Calque 1
10
308.948926
20
342.269542
11
305.021250
21
340.037820
0
LINE
8
Calque 1
10
305.021250
20
340.037820
11
302.006610
21
338.431870
0
LINE
8
Calque 1
10
302.006610
20
338.431870
11
301.845920
21
338.049112
0
LINE
8
Calque 1
10
301.845920
20
338.049112
11
301.762093
21
337.294962
0
LINE
8
Calque 1
10
301.762093
20
337.294962
11
301.806139
21
334.965897
0
LINE
8
Calque 1
10
301.806139
20
334.965897
11
302.100968
21
332.031489
0
LINE
8
Calque 1
10
302.100968
20
332.031489
11
302.608800
21
329.078550
0
LINE
8
Calque 1
10
302.608800
20
329.078550
11
303.586443
21
325.328112
0
LINE
8
Calque 1
10
303.586443
20
325.328112
11
304.797763
21
321.801925
0
LINE
8
Calque 1
10
304.797763
20
321.801925
11
306.102018
21
318.861750
0
LINE
8
Calque 1
10
306.102018
20
318.861750
11
307.358470
21
316.869350
0
LINE
8
Calque 1
10
307.358470
20
316.869350
11
308.064230
21
316.037250
0
LINE
8
Calque 1
10
308.064230
20
316.037250
11
309.634840
21
316.526070
0
LINE
8
Calque 1
10
309.634840
20
316.526070
11
311.474973
21
316.972345
0
LINE
8
Calque 1
10
311.474973
20
316.972345
11
313.364807
21
317.193759
0
LINE
8
Calque 1
10
313.364807
20
317.193759
11
315.230345
21
317.186098
0
LINE
8
Calque 1
10
315.230345
20
317.186098
11
316.997590
21
316.945150
0
LINE
8
Calque 1
10
316.997590
20
316.945150
11
318.392469
21
316.577182
0
LINE
8
Calque 1
10
318.392469
20
316.577182
11
319.696277
21
316.074278
0
LINE
8
Calque 1
10
319.696277
20
316.074278
11
320.934643
21
315.416425
0
LINE
8
Calque 1
10
320.934643
20
315.416425
11
322.133196
21
314.583611
0
LINE
8
Calque 1
10
322.133196
20
314.583611
11
324.513387
21
312.313051
0
LINE
8
Calque 1
10
324.513387
20
312.313051
11
327.041890
21
309.102500
0
LINE
8
Calque 1
10
327.041890
20
309.102500
11
329.536071
21
305.850534
0
LINE
8
Calque 1
10
329.536071
20
305.850534
11
330.462556
21
304.991925
0
LINE
8
Calque 1
10
330.462556
20
304.991925
11
331.277294
21
304.629540
0
LINE
8
Calque 1
10
331.277294
20
304.629540
11
332.056778
21
304.751862
0
LINE
8
Calque 1
10
332.056778
20
304.751862
11
332.877500
21
305.347371
0
LINE
8
Calque 1
10
332.877500
20
305.347371
11
333.815953
21
306.404550
0
LINE
8
Calque 1
10
333.815953
20
306.404550
11
334.948630
21
307.911880
0
LINE
8
Calque 1
10
334.948630
20
307.911880
11
337.686840
21
311.327260
0
LINE
8
Calque 1
10
337.686840
20
311.327260
11
338.738283
21
312.352419
0
LINE
8
Calque 1
10
338.738283
20
312.352419
11
339.869587
21
313.248306
0
LINE
8
Calque 1
10
339.869587
20
313.248306
11
342.326631
21
314.650744
0
LINE
8
Calque 1
10
342.326631
20
314.650744
11
344.967666
21
315.531531
0
LINE
8
Calque 1
10
344.967666
20
315.531531
11
347.702387
21
315.887624
0
LINE
8
Calque 1
10
347.702387
20
315.887624
11
350.440491
21
315.715978
0
LINE
8
Calque 1
10
350.440491
20
315.715978
11
353.091670
21
315.013552
0
LINE
8
Calque 1
10
353.091670
20
315.013552
11
355.565622
21
313.777300
0
LINE
8
Calque 1
10
355.565622
20
313.777300
11
356.707917
21
312.958039
0
LINE
8
Calque 1
10
356.707917
20
312.958039
11
357.772040
21
312.004180
0
LINE
8
Calque 1
10
357.772040
20
312.004180
11
359.588453
21
309.851651
0
LINE
8
Calque 1
10
359.588453
20
309.851651
11
361.736200
21
306.895790
0
LINE
8
Calque 1
10
361.736200
20
306.895790
11
363.699671
21
304.158366
0
LINE
8
Calque 1
10
363.699671
20
304.158366
11
365.073020
21
302.531010
0
LINE
8
Calque 1
10
365.073020
20
302.531010
11
366.074305
21
301.888865
0
LINE
8
Calque 1
10
366.074305
20
301.888865
11
367.139342
21
301.665800
0
LINE
8
Calque 1
10
367.139342
20
301.665800
11
368.269986
21
301.861790
0
LINE
8
Calque 1
10
368.269986
20
301.861790
11
369.468090
21
302.476810
0
LINE
8
Calque 1
10
369.468090
20
302.476810
11
369.469100
21
302.477160
0
LINE
8
Calque 1
10
345.387600
20
337.766960
11
344.456024
21
341.558610
0
LINE
8
Calque 1
10
344.456024
20
341.558610
11
343.484360
21
346.541350
0
LINE
8
Calque 1
10
343.484360
20
346.541350
11
343.243843
21
349.532461
0
LINE
8
Calque 1
10
343.243843
20
349.532461
11
343.135850
21
353.751510
0
LINE
8
Calque 1
10
343.135850
20
353.751510
11
343.122250
21
358.845010
0
LINE
8
Calque 1
10
343.122250
20
358.845010
11
341.484150
21
359.390300
0
LINE
8
Calque 1
10
341.484150
20
359.390300
11
339.988470
21
360.062242
0
LINE
8
Calque 1
10
339.988470
20
360.062242
11
338.719260
21
360.935560
0
LINE
8
Calque 1
10
338.719260
20
360.935560
11
337.880351
21
361.869738
0
LINE
8
Calque 1
10
337.880351
20
361.869738
11
337.579406
21
362.796716
0
LINE
8
Calque 1
10
337.579406
20
362.796716
11
337.811564
21
363.856964
0
LINE
8
Calque 1
10
337.811564
20
363.856964
11
338.571960
21
365.190950
0
LINE
8
Calque 1
10
338.571960
20
365.190950
11
339.383170
21
366.666465
0
LINE
8
Calque 1
10
339.383170
20
366.666465
11
339.551360
21
368.233660
0
LINE
8
Calque 1
10
339.551360
20
368.233660
11
339.752670
21
369.921125
0
LINE
8
Calque 1
10
339.752670
20
369.921125
11
340.465320
21
371.373667
0
LINE
8
Calque 1
10
340.465320
20
371.373667
11
341.856893
21
372.822141
0
LINE
8
Calque 1
10
341.856893
20
372.822141
11
344.094970
21
374.497400
0
LINE
8
Calque 1
10
344.094970
20
374.497400
11
346.667800
21
376.407560
0
LINE
8
Calque 1
10
346.667800
20
376.407560
11
346.943815
21
377.700692
0
LINE
8
Calque 1
10
346.943815
20
377.700692
11
347.218180
21
380.340720
0
LINE
8
Calque 1
10
347.218180
20
380.340720
11
347.665628
21
384.632072
0
LINE
8
Calque 1
10
347.665628
20
384.632072
11
348.375995
21
388.131607
0
LINE
8
Calque 1
10
348.375995
20
388.131607
11
349.515039
21
391.450449
0
LINE
8
Calque 1
10
349.515039
20
391.450449
11
351.248520
21
395.199720
0
LINE
8
Calque 1
10
351.248520
20
395.199720
11
353.548495
21
399.465401
0
LINE
8
Calque 1
10
353.548495
20
399.465401
11
354.199839
21
400.201547
0
LINE
8
Calque 1
10
354.199839
20
400.201547
11
354.775550
21
400.384020
0
LINE
8
Calque 1
10
354.775550
20
400.384020
11
355.292915
21
400.262349
0
LINE
8
Calque 1
10
355.292915
20
400.262349
11
355.600940
21
399.969820
0
LINE
8
Calque 1
10
355.600940
20
399.969820
11
355.546308
21
398.691425
0
LINE
8
Calque 1
10
355.546308
20
398.691425
11
355.191780
21
396.199500
0
LINE
8
Calque 1
10
355.191780
20
396.199500
11
354.431559
21
391.119408
0
LINE
8
Calque 1
10
354.431559
20
391.119408
11
353.924363
21
386.439357
0
LINE
8
Calque 1
10
353.924363
20
386.439357
11
353.691519
21
382.410378
0
LINE
8
Calque 1
10
353.691519
20
382.410378
11
353.754360
21
379.283500
0
LINE
8
Calque 1
10
353.754360
20
379.283500
11
353.972636
21
377.728825
0
LINE
8
Calque 1
10
353.972636
20
377.728825
11
354.137790
21
377.441658
0
LINE
8
Calque 1
10
354.137790
20
377.441658
11
354.378000
21
377.365270
0
LINE
8
Calque 1
10
354.378000
20
377.365270
11
355.261500
21
377.236570
0
LINE
8
Calque 1
10
355.261500
20
377.236570
11
356.487760
21
376.880957
0
LINE
8
Calque 1
10
356.487760
20
376.880957
11
359.555688
21
375.671902
0
LINE
8
Calque 1
10
359.555688
20
375.671902
11
362.756047
21
374.103932
0
LINE
8
Calque 1
10
362.756047
20
374.103932
11
365.263100
21
372.542870
0
LINE
8
Calque 1
10
365.263100
20
372.542870
11
367.183167
21
370.845931
0
LINE
8
Calque 1
10
367.183167
20
370.845931
11
367.801313
21
370.076005
0
LINE
8
Calque 1
10
367.801313
20
370.076005
11
368.194505
21
369.351005
0
LINE
8
Calque 1
10
368.194505
20
369.351005
11
368.364972
21
368.665354
0
LINE
8
Calque 1
10
368.364972
20
368.665354
11
368.314941
21
368.013474
0
LINE
8
Calque 1
10
368.314941
20
368.013474
11
368.046641
21
367.389788
0
LINE
8
Calque 1
10
368.046641
20
367.389788
11
367.562300
21
366.788720
0
LINE
8
Calque 1
10
367.562300
20
366.788720
11
366.469953
21
365.867910
0
LINE
8
Calque 1
10
366.469953
20
365.867910
11
364.995009
21
364.881520
0
LINE
8
Calque 1
10
364.995009
20
364.881520
11
361.194026
21
362.852374
0
LINE
8
Calque 1
10
361.194026
20
362.852374
11
356.752756
21
360.982023
0
LINE
8
Calque 1
10
356.752756
20
360.982023
11
352.264600
21
359.551210
0
LINE
8
Calque 1
10
352.264600
20
359.551210
11
349.723630
21
358.787100
0
LINE
8
Calque 1
10
349.723630
20
358.787100
11
349.012274
21
356.201721
0
LINE
8
Calque 1
10
349.012274
20
356.201721
11
348.154990
21
351.568400
0
LINE
8
Calque 1
10
348.154990
20
351.568400
11
347.801740
21
347.958489
0
LINE
8
Calque 1
10
347.801740
20
347.958489
11
347.567560
21
343.366310
0
LINE
8
Calque 1
10
347.567560
20
343.366310
11
347.391823
21
339.493064
0
LINE
8
Calque 1
10
347.391823
20
339.493064
11
347.179140
21
337.611630
0
LINE
8
Calque 1
10
347.179140
20
337.611630
11
346.788251
21
337.237959
0
LINE
8
Calque 1
10
346.788251
20
337.237959
11
346.255971
21
337.148247
0
LINE
8
Calque 1
10
346.255971
20
337.148247
11
345.737403
21
337.329050
0
LINE
8
Calque 1
10
345.737403
20
337.329050
11
345.387650
21
337.766920
0
LINE
8
Calque 1
10
345.387650
20
337.766920
11
345.387600
21
337.766960
0
LINE
8
Calque 1
10
495.892600
20
329.209770
11
495.694170
21
333.709060
0
LINE
8
Calque 1
10
495.694170
20
333.709060
11
495.469933
21
335.544971
0
LINE
8
Calque 1
10
495.469933
20
335.544971
11
495.305280
21
335.858290
0
LINE
8
Calque 1
10
495.305280
20
335.858290
11
495.061810
21
335.921750
0
LINE
8
Calque 1
10
495.061810
20
335.921750
11
494.769715
21
335.949390
0
LINE
8
Calque 1
10
494.769715
20
335.949390
11
494.713630
21
336.066670
0
LINE
8
Calque 1
10
494.713630
20
336.066670
11
494.582540
21
336.632110
0
LINE
8
Calque 1
10
494.582540
20
336.632110
11
494.386679
21
336.868721
0
LINE
8
Calque 1
10
494.386679
20
336.868721
11
494.335410
21
336.653210
0
LINE
8
Calque 1
10
494.335410
20
336.653210
11
494.255556
21
336.435569
0
LINE
8
Calque 1
10
494.255556
20
336.435569
11
493.990880
21
336.572610
0
LINE
8
Calque 1
10
493.990880
20
336.572610
11
493.275549
21
336.155617
0
LINE
8
Calque 1
10
493.275549
20
336.155617
11
491.303221
21
334.374127
0
LINE
8
Calque 1
10
491.303221
20
334.374127
11
482.283080
21
325.481910
0
LINE
8
Calque 1
10
482.283080
20
325.481910
11
472.795342
21
315.858185
0
LINE
8
Calque 1
10
472.795342
20
315.858185
11
471.476878
21
314.289510
0
LINE
8
Calque 1
10
471.476878
20
314.289510
11
471.346812
21
313.963580
0
LINE
8
Calque 1
10
471.346812
20
313.963580
11
471.444880
21
313.809010
0
LINE
8
Calque 1
10
471.444880
20
313.809010
11
473.860170
21
311.684782
0
LINE
8
Calque 1
10
473.860170
20
311.684782
11
476.237330
21
309.059570
0
LINE
8
Calque 1
10
476.237330
20
309.059570
11
476.964390
21
308.010420
0
LINE
8
Calque 1
10
476.964390
20
308.010420
11
486.441610
21
317.484910
0
LINE
8
Calque 1
10
486.441610
20
317.484910
11
495.918840
21
326.959390
0
LINE
8
Calque 1
10
495.918840
20
326.959390
11
495.892640
21
329.209730
0
LINE
8
Calque 1
10
495.892640
20
329.209730
11
495.892600
21
329.209770
0
LINE
8
Calque 1
10
307.852600
20
344.276170
11
310.109094
21
345.890823
0
LINE
8
Calque 1
10
310.109094
20
345.890823
11
312.263044
21
347.623363
0
LINE
8
Calque 1
10
312.263044
20
347.623363
11
314.302356
21
349.460868
0
LINE
8
Calque 1
10
314.302356
20
349.460868
11
316.214934
21
351.390415
0
LINE
8
Calque 1
10
316.214934
20
351.390415
11
317.988682
21
353.399082
0
LINE
8
Calque 1
10
317.988682
20
353.399082
11
319.611506
21
355.473945
0
LINE
8
Calque 1
10
319.611506
20
355.473945
11
321.071311
21
357.602082
0
LINE
8
Calque 1
10
321.071311
20
357.602082
11
322.356000
21
359.770570
0
LINE
8
Calque 1
10
322.356000
20
359.770570
11
322.586684
21
360.393965
0
LINE
8
Calque 1
10
322.586684
20
360.393965
11
321.714999
21
359.746124
0
LINE
8
Calque 1
10
321.714999
20
359.746124
11
314.436280
21
352.626820
0
LINE
8
Calque 1
10
314.436280
20
352.626820
11
306.237888
21
344.354586
0
LINE
8
Calque 1
10
306.237888
20
344.354586
11
304.918614
21
342.839842
0
LINE
8
Calque 1
10
304.918614
20
342.839842
11
304.758857
21
342.530320
0
LINE
8
Calque 1
10
304.758857
20
342.530320
11
304.858030
21
342.440320
0
LINE
8
Calque 1
10
304.858030
20
342.440320
11
307.852610
21
344.276180
0
LINE
8
Calque 1
10
307.852610
20
344.276180
11
307.852600
21
344.276170
0
LINE
8
Calque 1
10
506.802600
20
343.167920
11
497.485850
21
352.626770
0
LINE
8
Calque 1
10
497.485850
20
352.626770
11
490.207131
21
359.746074
0
LINE
8
Calque 1
10
490.207131
20
359.746074
11
489.335446
21
360.393915
0
LINE
8
Calque 1
10
489.335446
20
360.393915
11
489.566130
21
359.770520
0
LINE
8
Calque 1
10
489.566130
20
359.770520
11
491.446918
21
356.717233
0
LINE
8
Calque 1
10
491.446918
20
356.717233
11
493.727675
21
353.667411
0
LINE
8
Calque 1
10
493.727675
20
353.667411
11
496.297520
21
350.757294
0
LINE
8
Calque 1
10
496.297520
20
350.757294
11
499.045570
21
348.123120
0
LINE
8
Calque 1
10
499.045570
20
348.123120
11
503.701264
21
344.542200
0
LINE
8
Calque 1
10
503.701264
20
344.542200
11
505.904725
21
343.050931
0
LINE
8
Calque 1
10
505.904725
20
343.050931
11
507.064100
21
342.440310
0
LINE
8
Calque 1
10
507.064100
20
342.440310
11
507.098028
21
342.654047
0
LINE
8
Calque 1
10
507.098028
20
342.654047
11
506.802600
21
343.167920
0
LINE
8
Calque 1
10
506.802600
20
343.167920
11
506.802600
21
343.167920
0
LINE
8
Calque 1
10
465.928000
20
355.560520
11
465.979500
21
360.358510
0
LINE
8
Calque 1
10
465.979500
20
360.358510
11
466.605305
21
360.682246
0
LINE
8
Calque 1
10
466.605305
20
360.682246
11
467.865070
21
361.072020
0
LINE
8
Calque 1
10
467.865070
20
361.072020
11
470.257191
21
361.930390
0
LINE
8
Calque 1
10
470.257191
20
361.930390
11
470.956903
21
362.398212
0
LINE
8
Calque 1
10
470.956903
20
362.398212
11
471.258430
21
362.856410
0
LINE
8
Calque 1
10
471.258430
20
362.856410
11
471.062310
21
363.552523
0
LINE
8
Calque 1
10
471.062310
20
363.552523
11
470.479490
21
364.648370
0
LINE
8
Calque 1
10
470.479490
20
364.648370
11
469.780511
21
366.075455
0
LINE
8
Calque 1
10
469.780511
20
366.075455
11
469.541590
21
367.637120
0
LINE
8
Calque 1
10
469.541590
20
367.637120
11
469.350210
21
369.022849
0
LINE
8
Calque 1
10
469.350210
20
369.022849
11
468.986030
21
370.064170
0
LINE
8
Calque 1
10
468.986030
20
370.064170
11
467.915274
21
371.166507
0
LINE
8
Calque 1
10
467.915274
20
371.166507
11
466.009100
21
372.666990
0
LINE
8
Calque 1
10
466.009100
20
372.666990
11
463.786167
21
374.305386
0
LINE
8
Calque 1
10
463.786167
20
374.305386
11
462.621444
21
375.504195
0
LINE
8
Calque 1
10
462.621444
20
375.504195
11
462.317085
21
376.121775
0
LINE
8
Calque 1
10
462.317085
20
376.121775
11
462.134689
21
376.849082
0
LINE
8
Calque 1
10
462.134689
20
376.849082
11
461.945660
21
378.925710
0
LINE
8
Calque 1
10
461.945660
20
378.925710
11
461.606250
21
382.577294
0
LINE
8
Calque 1
10
461.606250
20
382.577294
11
461.072605
21
385.821059
0
LINE
8
Calque 1
10
461.072605
20
385.821059
11
460.337517
21
388.691749
0
LINE
8
Calque 1
10
460.337517
20
388.691749
11
459.393780
21
391.224110
0
LINE
8
Calque 1
10
459.393780
20
391.224110
11
458.782630
21
392.446550
0
LINE
8
Calque 1
10
458.782630
20
392.446550
11
459.071970
21
389.469990
0
LINE
8
Calque 1
10
459.071970
20
389.469990
11
459.326857
21
385.966335
0
LINE
8
Calque 1
10
459.326857
20
385.966335
11
459.453062
21
381.597644
0
LINE
8
Calque 1
10
459.453062
20
381.597644
11
459.431987
21
377.807426
0
LINE
8
Calque 1
10
459.431987
20
377.807426
11
459.245030
21
376.039190
0
LINE
8
Calque 1
10
459.245030
20
376.039190
11
456.435320
21
375.140990
0
LINE
8
Calque 1
10
456.435320
20
375.140990
11
453.274566
21
374.113839
0
LINE
8
Calque 1
10
453.274566
20
374.113839
11
450.195104
21
372.712074
0
LINE
8
Calque 1
10
450.195104
20
372.712074
11
447.506000
21
371.097314
0
LINE
8
Calque 1
10
447.506000
20
371.097314
11
445.516320
21
369.431180
0
LINE
8
Calque 1
10
445.516320
20
369.431180
11
444.722570
21
368.585250
0
LINE
8
Calque 1
10
444.722570
20
368.585250
11
445.683660
21
367.749750
0
LINE
8
Calque 1
10
445.683660
20
367.749750
11
448.114464
21
366.145774
0
LINE
8
Calque 1
10
448.114464
20
366.145774
11
451.698906
21
364.386580
0
LINE
8
Calque 1
10
451.698906
20
364.386580
11
455.838575
21
362.736308
0
LINE
8
Calque 1
10
455.838575
20
362.736308
11
459.935060
21
361.459100
0
LINE
8
Calque 1
10
459.935060
20
361.459100
11
463.161070
21
360.485920
0
LINE
8
Calque 1
10
463.161070
20
360.485920
11
463.557874
21
359.350445
0
LINE
8
Calque 1
10
463.557874
20
359.350445
11
464.123129
21
356.940034
0
LINE
8
Calque 1
10
464.123129
20
356.940034
11
465.165250
21
351.080690
0
LINE
8
Calque 1
10
465.165250
20
351.080690
11
465.624660
21
347.627770
0
LINE
8
Calque 1
10
465.624660
20
347.627770
11
465.837780
21
349.333500
0
LINE
8
Calque 1
10
465.837780
20
349.333500
11
465.952191
21
351.866309
0
LINE
8
Calque 1
10
465.952191
20
351.866309
11
465.927980
21
355.560530
0
LINE
8
Calque 1
10
465.927980
20
355.560530
11
465.928000
21
355.560520
0
LINE
8
Calque 1
10
474.754040
20
364.658560
11
474.566278
21
367.057104
0
LINE
8
Calque 1
10
474.566278
20
367.057104
11
474.488180
21
370.855260
0
LINE
8
Calque 1
10
474.488180
20
370.855260
11
474.487000
21
375.650000
0
LINE
8
Calque 1
10
474.487000
20
375.650000
11
468.772590
21
381.336230
0
LINE
8
Calque 1
10
468.772590
20
381.336230
11
464.780304
21
385.196691
0
LINE
8
Calque 1
10
464.780304
20
385.196691
11
463.599698
21
386.250085
0
LINE
8
Calque 1
10
463.599698
20
386.250085
11
463.206310
21
386.493300
0
LINE
8
Calque 1
10
463.206310
20
386.493300
11
463.695501
21
383.682794
0
LINE
8
Calque 1
10
463.695501
20
383.682794
11
464.066440
21
379.746680
0
LINE
8
Calque 1
10
464.066440
20
379.746680
11
464.223162
21
377.861403
0
LINE
8
Calque 1
10
464.223162
20
377.861403
11
464.581440
21
376.706212
0
LINE
8
Calque 1
10
464.581440
20
376.706212
11
465.418158
21
375.804525
0
LINE
8
Calque 1
10
465.418158
20
375.804525
11
467.010200
21
374.679760
0
LINE
8
Calque 1
10
467.010200
20
374.679760
11
469.288242
21
372.955116
0
LINE
8
Calque 1
10
469.288242
20
372.955116
11
470.774910
21
371.341572
0
LINE
8
Calque 1
10
470.774910
20
371.341572
11
471.257513
21
370.525005
0
LINE
8
Calque 1
10
471.257513
20
370.525005
11
471.585513
21
369.674461
0
LINE
8
Calque 1
10
471.585513
20
369.674461
11
471.835360
21
367.789110
0
LINE
8
Calque 1
10
471.835360
20
367.789110
11
471.868496
21
366.905608
0
LINE
8
Calque 1
10
471.868496
20
366.905608
11
472.043974
21
366.268592
0
LINE
8
Calque 1
10
472.043974
20
366.268592
11
472.489397
21
365.612598
0
LINE
8
Calque 1
10
472.489397
20
365.612598
11
473.332370
21
364.672160
0
LINE
8
Calque 1
10
473.332370
20
364.672160
11
474.921150
21
363.159040
0
LINE
8
Calque 1
10
474.921150
20
363.159040
11
474.752860
21
364.658460
0
LINE
8
Calque 1
10
474.752860
20
364.658460
11
474.754040
21
364.658560
0
LINE
8
Calque 1
10
457.189040
20
384.442860
11
456.663770
21
391.061930
0
LINE
8
Calque 1
10
456.663770
20
391.061930
11
456.248586
21
393.458166
0
LINE
8
Calque 1
10
456.248586
20
393.458166
11
455.967993
21
394.094172
0
LINE
8
Calque 1
10
455.967993
20
394.094172
11
455.552100
21
394.633800
0
LINE
8
Calque 1
10
455.552100
20
394.633800
11
436.909529
21
413.426845
0
LINE
8
Calque 1
10
436.909529
20
413.426845
11
419.951300
21
430.129400
0
LINE
8
Calque 1
10
419.951300
20
430.129400
11
419.040786
21
427.710625
0
LINE
8
Calque 1
10
419.040786
20
427.710625
11
417.717240
21
423.005880
0
LINE
8
Calque 1
10
417.717240
20
423.005880
11
417.121040
21
420.624630
0
LINE
8
Calque 1
10
417.121040
20
420.624630
11
437.138840
21
400.582430
0
LINE
8
Calque 1
10
437.138840
20
400.582430
11
457.264740
21
380.540230
0
LINE
8
Calque 1
10
457.264740
20
380.540230
11
457.188940
21
384.442840
0
LINE
8
Calque 1
10
457.188940
20
384.442840
11
457.189040
21
384.442860
0
LINE
8
Calque 1
10
406.324440
20
431.368160
11
406.529292
21
431.306711
0
LINE
8
Calque 1
10
406.529292
20
431.306711
11
406.723540
21
431.546885
0
LINE
8
Calque 1
10
406.723540
20
431.546885
11
407.236880
21
433.256330
0
LINE
8
Calque 1
10
407.236880
20
433.256330
11
408.707020
21
438.089290
0
LINE
8
Calque 1
10
408.707020
20
438.089290
11
409.413626
21
440.376393
0
LINE
8
Calque 1
10
409.413626
20
440.376393
11
409.414374
21
440.860632
0
LINE
8
Calque 1
10
409.414374
20
440.860632
11
409.225730
21
441.177070
0
LINE
8
Calque 1
10
409.225730
20
441.177070
11
408.577233
21
441.719178
0
LINE
8
Calque 1
10
408.577233
20
441.719178
11
407.785044
21
442.106399
0
LINE
8
Calque 1
10
407.785044
20
442.106399
11
406.897061
21
442.338731
0
LINE
8
Calque 1
10
406.897061
20
442.338731
11
405.961180
21
442.416175
0
LINE
8
Calque 1
10
405.961180
20
442.416175
11
405.025299
21
442.338731
0
LINE
8
Calque 1
10
405.025299
20
442.338731
11
404.137316
21
442.106399
0
LINE
8
Calque 1
10
404.137316
20
442.106399
11
403.345127
21
441.719178
0
LINE
8
Calque 1
10
403.345127
20
441.719178
11
402.696630
21
441.177070
0
LINE
8
Calque 1
10
402.696630
20
441.177070
11
402.507986
21
440.860632
0
LINE
8
Calque 1
10
402.507986
20
440.860632
11
402.508734
21
440.376393
0
LINE
8
Calque 1
10
402.508734
20
440.376393
11
403.215340
21
438.089290
0
LINE
8
Calque 1
10
403.215340
20
438.089290
11
404.685480
21
433.256330
0
LINE
8
Calque 1
10
404.685480
20
433.256330
11
405.198820
21
431.546900
0
LINE
8
Calque 1
10
405.198820
20
431.546900
11
405.393068
21
431.306716
0
LINE
8
Calque 1
10
405.393068
20
431.306716
11
405.597920
21
431.368160
0
LINE
8
Calque 1
10
405.597920
20
431.368160
11
405.961180
21
431.537345
0
LINE
8
Calque 1
10
405.961180
20
431.537345
11
406.324440
21
431.368160
0
LINE
8
Calque 1
10
406.324440
20
431.368160
11
406.324440
21
431.368160
 0 
ENDSEC
 0 
EOF