999
"DXF R12 Output" (www.mydxf.blogspot.com)
 0 
SECTION
 2 
HEADER
 9 
$ACADVER
 1 
AC1009
 9 
$EXTMIN
 10 
 0 
 20 
 0 
 9 
$EXTMAX
 10 
 8.5 
 20 
 11 
 0 
ENDSEC
 0 
SECTION
 2 
ENTITIES
0
LINE
8
Calque 1
10
344.831000
20
475.729000
11
265.588600
21
554.971800
0
LINE
8
Calque 1
10
265.588600
20
554.971800
11
344.897400
21
634.280600
0
LINE
8
Calque 1
10
344.897400
20
634.280600
11
424.206100
21
713.589300
0
LINE
8
Calque 1
10
424.206100
20
713.589300
11
503.514800
21
634.280600
0
LINE
8
Calque 1
10
503.514800
20
634.280600
11
582.823600
21
554.971800
0
LINE
8
Calque 1
10
582.823600
20
554.971800
11
503.581200
21
475.729000
0
LINE
8
Calque 1
10
503.581200
20
475.729000
11
424.206100
21
396.486300
0
LINE
8
Calque 1
10
424.206100
20
396.486300
11
344.831000
21
475.729000
0
LINE
8
Calque 1
10
344.831000
20
475.729000
11
344.831000
21
475.729000
0
LINE
8
Calque 1
10
426.322700
20
407.694600
11
428.662220
21
409.688812
0
LINE
8
Calque 1
10
428.662220
20
409.688812
11
429.754732
21
410.811370
0
LINE
8
Calque 1
10
429.754732
20
410.811370
11
430.067240
21
411.313500
0
LINE
8
Calque 1
10
430.067240
20
411.313500
11
430.630030
21
411.723000
0
LINE
8
Calque 1
10
430.630030
20
411.723000
11
431.102500
21
412.080612
0
LINE
8
Calque 1
10
431.102500
20
412.080612
11
431.205670
21
412.380400
0
LINE
8
Calque 1
10
431.205670
20
412.380400
11
431.158982
21
412.541675
0
LINE
8
Calque 1
10
431.158982
20
412.541675
11
431.271070
21
412.566300
0
LINE
8
Calque 1
10
431.271070
20
412.566300
11
432.797019
21
413.875075
0
LINE
8
Calque 1
10
432.797019
20
413.875075
11
436.149480
21
417.123800
0
LINE
8
Calque 1
10
436.149480
20
417.123800
11
441.434000
21
422.329900
0
LINE
8
Calque 1
10
441.434000
20
422.329900
11
443.053280
21
423.983500
0
LINE
8
Calque 1
10
443.053280
20
423.983500
11
444.318360
21
425.061300
0
LINE
8
Calque 1
10
444.318360
20
425.061300
11
444.562077
21
425.186312
0
LINE
8
Calque 1
10
444.562077
20
425.186312
11
444.758830
21
425.486900
0
LINE
8
Calque 1
10
444.758830
20
425.486900
11
445.920110
21
426.875900
0
LINE
8
Calque 1
10
445.920110
20
426.875900
11
448.195890
21
429.070700
0
LINE
8
Calque 1
10
448.195890
20
429.070700
11
450.631470
21
431.518100
0
LINE
8
Calque 1
10
450.631470
20
431.518100
11
452.020530
21
432.734200
0
LINE
8
Calque 1
10
452.020530
20
432.734200
11
452.190242
21
432.831337
0
LINE
8
Calque 1
10
452.190242
20
432.831337
11
452.273480
21
433.064900
0
LINE
8
Calque 1
10
452.273480
20
433.064900
11
452.816471
21
433.764812
0
LINE
8
Calque 1
10
452.816471
20
433.764812
11
454.091560
21
434.983200
0
LINE
8
Calque 1
10
454.091560
20
434.983200
11
455.319391
21
436.174625
0
LINE
8
Calque 1
10
455.319391
20
436.174625
11
455.748810
21
436.810000
0
LINE
8
Calque 1
10
455.748810
20
436.810000
11
455.745386
21
436.920375
0
LINE
8
Calque 1
10
455.745386
20
436.920375
11
455.932920
21
436.850000
0
LINE
8
Calque 1
10
455.932920
20
436.850000
11
456.209446
21
436.846462
0
LINE
8
Calque 1
10
456.209446
20
436.846462
11
456.400750
21
437.203000
0
LINE
8
Calque 1
10
456.400750
20
437.203000
11
456.560019
21
437.558125
0
LINE
8
Calque 1
10
456.560019
20
437.558125
11
456.739950
21
437.635600
0
LINE
8
Calque 1
10
456.739950
20
437.635600
11
457.044054
21
437.742350
0
LINE
8
Calque 1
10
457.044054
20
437.742350
11
457.501870
21
438.167700
0
LINE
8
Calque 1
10
457.501870
20
438.167700
11
457.902930
21
438.820100
0
LINE
8
Calque 1
10
457.902930
20
438.820100
11
458.500000
21
439.405300
0
LINE
8
Calque 1
10
458.500000
20
439.405300
11
461.516430
21
442.249600
0
LINE
8
Calque 1
10
461.516430
20
442.249600
11
464.823720
21
445.468100
0
LINE
8
Calque 1
10
464.823720
20
445.468100
11
468.364530
21
448.973800
0
LINE
8
Calque 1
10
468.364530
20
448.973800
11
470.199882
21
450.772137
0
LINE
8
Calque 1
10
470.199882
20
450.772137
11
471.120610
21
451.520100
0
LINE
8
Calque 1
10
471.120610
20
451.520100
11
471.265471
21
451.565675
0
LINE
8
Calque 1
10
471.265471
20
451.565675
11
471.235440
21
451.674700
0
LINE
8
Calque 1
10
471.235440
20
451.674700
11
471.566767
21
452.175212
0
LINE
8
Calque 1
10
471.566767
20
452.175212
11
472.580400
21
453.161500
0
LINE
8
Calque 1
10
472.580400
20
453.161500
11
475.294100
21
455.783600
0
LINE
8
Calque 1
10
475.294100
20
455.783600
11
476.202981
21
456.643150
0
LINE
8
Calque 1
10
476.202981
20
456.643150
11
476.683170
21
456.898500
0
LINE
8
Calque 1
10
476.683170
20
456.898500
11
476.806695
21
456.904762
0
LINE
8
Calque 1
10
476.806695
20
456.904762
11
476.858070
21
457.164600
0
LINE
8
Calque 1
10
476.858070
20
457.164600
11
476.979239
21
457.475987
0
LINE
8
Calque 1
10
476.979239
20
457.475987
11
477.270560
21
457.605500
0
LINE
8
Calque 1
10
477.270560
20
457.605500
11
477.519292
21
457.674425
0
LINE
8
Calque 1
10
477.519292
20
457.674425
11
477.538060
21
457.840100
0
LINE
8
Calque 1
10
477.538060
20
457.840100
11
477.551406
21
458.101887
0
LINE
8
Calque 1
10
477.551406
20
458.101887
11
477.787030
21
458.401700
0
LINE
8
Calque 1
10
477.787030
20
458.401700
11
478.180990
21
458.554800
0
LINE
8
Calque 1
10
478.180990
20
458.554800
11
479.040420
21
459.382300
0
LINE
8
Calque 1
10
479.040420
20
459.382300
11
480.164900
21
460.558700
0
LINE
8
Calque 1
10
480.164900
20
460.558700
11
483.684020
21
463.934600
0
LINE
8
Calque 1
10
483.684020
20
463.934600
11
487.584360
21
467.558700
0
LINE
8
Calque 1
10
487.584360
20
467.558700
11
487.997997
21
467.926987
0
LINE
8
Calque 1
10
487.997997
20
467.926987
11
488.084980
21
468.217800
0
LINE
8
Calque 1
10
488.084980
20
468.217800
11
488.052980
21
468.384200
0
LINE
8
Calque 1
10
488.052980
20
468.384200
11
488.180580
21
468.453400
0
LINE
8
Calque 1
10
488.180580
20
468.453400
11
490.895540
21
470.834700
0
LINE
8
Calque 1
10
490.895540
20
470.834700
11
493.580300
21
473.215900
0
LINE
8
Calque 1
10
493.580300
20
473.215900
11
493.729374
21
473.332487
0
LINE
8
Calque 1
10
493.729374
20
473.332487
11
493.791380
21
473.612800
0
LINE
8
Calque 1
10
493.791380
20
473.612800
11
493.865530
21
473.893112
0
LINE
8
Calque 1
10
493.865530
20
473.893112
11
494.043810
21
474.009700
0
LINE
8
Calque 1
10
494.043810
20
474.009700
11
496.050230
21
475.729500
0
LINE
8
Calque 1
10
496.050230
20
475.729500
11
497.907620
21
477.449300
0
LINE
8
Calque 1
10
497.907620
20
477.449300
11
500.502980
21
479.896700
0
LINE
8
Calque 1
10
500.502980
20
479.896700
11
504.911660
21
484.063900
0
LINE
8
Calque 1
10
504.911660
20
484.063900
11
511.615940
21
490.277900
0
LINE
8
Calque 1
10
511.615940
20
490.277900
11
512.652556
21
491.184712
0
LINE
8
Calque 1
10
512.652556
20
491.184712
11
513.238250
21
491.512600
0
LINE
8
Calque 1
10
513.238250
20
491.512600
11
513.370717
21
491.507562
0
LINE
8
Calque 1
10
513.370717
20
491.507562
11
513.317650
21
491.613300
0
LINE
8
Calque 1
10
513.317650
20
491.613300
11
513.577485
21
492.111091
0
LINE
8
Calque 1
10
513.577485
20
492.111091
11
514.371750
21
493.001075
0
LINE
8
Calque 1
10
514.371750
20
493.001075
11
515.264032
21
493.836722
0
LINE
8
Calque 1
10
515.264032
20
493.836722
11
515.817920
21
494.171500
0
LINE
8
Calque 1
10
515.817920
20
494.171500
11
515.958067
21
494.255075
0
LINE
8
Calque 1
10
515.958067
20
494.255075
11
516.016360
21
494.530500
0
LINE
8
Calque 1
10
516.016360
20
494.530500
11
516.083107
21
494.780587
0
LINE
8
Calque 1
10
516.083107
20
494.780587
11
516.243590
21
494.802600
0
LINE
8
Calque 1
10
516.243590
20
494.802600
11
517.075680
21
495.351350
0
LINE
8
Calque 1
10
517.075680
20
495.351350
11
518.757130
21
496.867600
0
LINE
8
Calque 1
10
518.757130
20
496.867600
11
521.043440
21
498.937500
0
LINE
8
Calque 1
10
521.043440
20
498.937500
11
521.820710
21
499.568900
0
LINE
8
Calque 1
10
521.820710
20
499.568900
11
523.829130
21
501.394100
0
LINE
8
Calque 1
10
523.829130
20
501.394100
11
526.422750
21
503.709200
0
LINE
8
Calque 1
10
526.422750
20
503.709200
11
527.485334
21
504.596750
0
LINE
8
Calque 1
10
527.485334
20
504.596750
11
528.126800
21
504.965900
0
LINE
8
Calque 1
10
528.126800
20
504.965900
11
528.412606
21
505.082075
0
LINE
8
Calque 1
10
528.412606
20
505.082075
11
528.620090
21
505.361300
0
LINE
8
Calque 1
10
528.620090
20
505.361300
11
528.796799
21
505.597550
0
LINE
8
Calque 1
10
528.796799
20
505.597550
11
529.008660
21
505.610300
0
LINE
8
Calque 1
10
529.008660
20
505.610300
11
529.175945
21
505.625837
0
LINE
8
Calque 1
10
529.175945
20
505.625837
11
529.245520
21
505.869600
0
LINE
8
Calque 1
10
529.245520
20
505.869600
11
529.478685
21
506.276675
0
LINE
8
Calque 1
10
529.478685
20
506.276675
11
530.039270
21
506.685700
0
LINE
8
Calque 1
10
530.039270
20
506.685700
11
530.599859
21
507.046325
0
LINE
8
Calque 1
10
530.599859
20
507.046325
11
530.833020
21
507.336900
0
LINE
8
Calque 1
10
530.833020
20
507.336900
11
531.103094
21
507.604475
0
LINE
8
Calque 1
10
531.103094
20
507.604475
11
531.752420
21
507.910000
0
LINE
8
Calque 1
10
531.752420
20
507.910000
11
532.555490
21
508.358800
0
LINE
8
Calque 1
10
532.555490
20
508.358800
11
532.521122
21
508.631064
0
LINE
8
Calque 1
10
532.521122
20
508.631064
11
532.716906
21
508.974812
0
LINE
8
Calque 1
10
532.716906
20
508.974812
11
533.025140
21
509.246355
0
LINE
8
Calque 1
10
533.025140
20
509.246355
11
533.328120
21
509.302000
0
LINE
8
Calque 1
10
533.328120
20
509.302000
11
533.763410
21
509.428450
0
LINE
8
Calque 1
10
533.763410
20
509.428450
11
534.299890
21
509.973400
0
LINE
8
Calque 1
10
534.299890
20
509.973400
11
534.831179
21
510.547837
0
LINE
8
Calque 1
10
534.831179
20
510.547837
11
535.264030
21
510.786800
0
LINE
8
Calque 1
10
535.264030
20
510.786800
11
535.477623
21
510.855675
0
LINE
8
Calque 1
10
535.477623
20
510.855675
11
535.481830
21
511.021300
0
LINE
8
Calque 1
10
535.481830
20
511.021300
11
535.541860
21
511.229375
0
LINE
8
Calque 1
10
535.541860
20
511.229375
11
535.889710
21
511.400400
0
LINE
8
Calque 1
10
535.889710
20
511.400400
11
536.245671
21
511.591700
0
LINE
8
Calque 1
10
536.245671
20
511.591700
11
536.242720
21
511.868200
0
LINE
8
Calque 1
10
536.242720
20
511.868200
11
536.173338
21
512.053625
0
LINE
8
Calque 1
10
536.173338
20
512.053625
11
536.298220
21
512.033700
0
LINE
8
Calque 1
10
536.298220
20
512.033700
11
542.802758
21
518.246750
0
LINE
8
Calque 1
10
542.802758
20
518.246750
11
558.082820
21
533.406400
0
LINE
8
Calque 1
10
558.082820
20
533.406400
11
579.612120
21
554.936800
0
LINE
8
Calque 1
10
579.612120
20
554.936800
11
575.082960
21
559.650900
0
LINE
8
Calque 1
10
575.082960
20
559.650900
11
497.379860
21
637.522000
0
LINE
8
Calque 1
10
497.379860
20
637.522000
11
424.205960
21
710.679100
0
LINE
8
Calque 1
10
424.205960
20
710.679100
11
351.032060
21
637.522000
0
LINE
8
Calque 1
10
351.032060
20
637.522000
11
273.328960
21
559.650900
0
LINE
8
Calque 1
10
273.328960
20
559.650900
11
268.799820
21
554.936800
0
LINE
8
Calque 1
10
268.799820
20
554.936800
11
290.726020
21
533.009500
0
LINE
8
Calque 1
10
290.726020
20
533.009500
11
312.800420
21
511.150000
0
LINE
8
Calque 1
10
312.800420
20
511.150000
11
313.534560
21
510.605400
0
LINE
8
Calque 1
10
313.534560
20
510.605400
11
313.947010
21
509.993000
0
LINE
8
Calque 1
10
313.947010
20
509.993000
11
313.866865
21
509.959568
0
LINE
8
Calque 1
10
313.866865
20
509.959568
11
313.918761
21
509.871366
0
LINE
8
Calque 1
10
313.918761
20
509.871366
11
314.295560
21
509.603200
0
LINE
8
Calque 1
10
314.295560
20
509.603200
11
315.279420
21
509.207700
0
LINE
8
Calque 1
10
315.279420
20
509.207700
11
315.569421
21
509.125763
0
LINE
8
Calque 1
10
315.569421
20
509.125763
11
315.594530
21
508.934700
0
LINE
8
Calque 1
10
315.594530
20
508.934700
11
315.600226
21
508.747838
0
LINE
8
Calque 1
10
315.600226
20
508.747838
11
315.843500
21
508.670100
0
LINE
8
Calque 1
10
315.843500
20
508.670100
11
316.147088
21
508.505500
0
LINE
8
Calque 1
10
316.147088
20
508.505500
11
316.274590
21
508.074800
0
LINE
8
Calque 1
10
316.274590
20
508.074800
11
316.322888
21
507.639387
0
LINE
8
Calque 1
10
316.322888
20
507.639387
11
316.520570
21
508.008800
0
LINE
8
Calque 1
10
316.520570
20
508.008800
11
316.738498
21
508.301837
0
LINE
8
Calque 1
10
316.738498
20
508.301837
11
316.884380
21
507.633900
0
LINE
8
Calque 1
10
316.884380
20
507.633900
11
317.158310
21
507.170900
0
LINE
8
Calque 1
10
317.158310
20
507.170900
11
317.277509
21
507.105900
0
LINE
8
Calque 1
10
317.277509
20
507.105900
11
317.208810
21
507.281200
0
LINE
8
Calque 1
10
317.208810
20
507.281200
11
317.142453
21
507.604505
0
LINE
8
Calque 1
10
317.142453
20
507.604505
11
317.583929
21
507.384837
0
LINE
8
Calque 1
10
317.583929
20
507.384837
11
319.547060
21
505.627500
0
LINE
8
Calque 1
10
319.547060
20
505.627500
11
320.229128
21
504.996637
0
LINE
8
Calque 1
10
320.229128
20
504.996637
11
320.389373
21
504.895448
0
LINE
8
Calque 1
10
320.389373
20
504.895448
11
320.392120
21
504.966000
0
LINE
8
Calque 1
10
320.392120
20
504.966000
11
320.413848
21
505.032775
0
LINE
8
Calque 1
10
320.413848
20
505.032775
11
320.756320
21
504.635300
0
LINE
8
Calque 1
10
320.756320
20
504.635300
11
321.593460
21
503.907700
0
LINE
8
Calque 1
10
321.593460
20
503.907700
11
322.486909
21
503.328625
0
LINE
8
Calque 1
10
322.486909
20
503.328625
11
324.942420
21
501.063400
0
LINE
8
Calque 1
10
324.942420
20
501.063400
11
326.637070
21
499.674400
0
LINE
8
Calque 1
10
326.637070
20
499.674400
11
326.752726
21
499.594750
0
LINE
8
Calque 1
10
326.752726
20
499.594750
11
326.702970
21
499.403200
0
LINE
8
Calque 1
10
326.702970
20
499.403200
11
326.653920
21
499.233088
0
LINE
8
Calque 1
10
326.653920
20
499.233088
11
326.771370
21
499.204800
0
LINE
8
Calque 1
10
326.771370
20
499.204800
11
327.957055
21
498.441562
0
LINE
8
Calque 1
10
327.957055
20
498.441562
11
328.959950
21
497.430000
0
LINE
8
Calque 1
10
328.959950
20
497.430000
11
329.154380
21
497.256900
0
LINE
8
Calque 1
10
329.154380
20
497.256900
11
330.344710
21
496.198500
0
LINE
8
Calque 1
10
330.344710
20
496.198500
11
331.577960
21
495.176500
0
LINE
8
Calque 1
10
331.577960
20
495.176500
11
332.487210
21
494.382700
0
LINE
8
Calque 1
10
332.487210
20
494.382700
11
333.298140
21
493.589000
0
LINE
8
Calque 1
10
333.298140
20
493.589000
11
335.371890
21
491.670700
0
LINE
8
Calque 1
10
335.371890
20
491.670700
11
341.682860
21
485.783800
0
LINE
8
Calque 1
10
341.682860
20
485.783800
11
343.115210
21
484.324900
0
LINE
8
Calque 1
10
343.115210
20
484.324900
11
344.434060
21
483.046200
0
LINE
8
Calque 1
10
344.434060
20
483.046200
11
347.557320
21
480.205600
0
LINE
8
Calque 1
10
347.557320
20
480.205600
11
349.973580
21
477.978500
0
LINE
8
Calque 1
10
349.973580
20
477.978500
11
351.131320
21
476.902525
0
LINE
8
Calque 1
10
351.131320
20
476.902525
11
352.025270
21
475.736100
0
LINE
8
Calque 1
10
352.025270
20
475.736100
11
352.056820
21
475.638200
0
LINE
8
Calque 1
10
352.056820
20
475.638200
11
352.327470
21
475.597300
0
LINE
8
Calque 1
10
352.327470
20
475.597300
11
352.638904
21
475.522050
0
LINE
8
Calque 1
10
352.638904
20
475.522050
11
352.768440
21
475.341200
0
LINE
8
Calque 1
10
352.768440
20
475.341200
11
352.960148
21
475.059850
0
LINE
8
Calque 1
10
352.960148
20
475.059850
11
353.421060
21
474.743100
0
LINE
8
Calque 1
10
353.421060
20
474.743100
11
354.078871
21
474.234700
0
LINE
8
Calque 1
10
354.078871
20
474.234700
11
354.743980
21
473.492600
0
LINE
8
Calque 1
10
354.743980
20
473.492600
11
355.217373
21
472.919450
0
LINE
8
Calque 1
10
355.217373
20
472.919450
11
355.414270
21
472.817300
0
LINE
8
Calque 1
10
355.414270
20
472.817300
11
355.647435
21
472.758587
0
LINE
8
Calque 1
10
355.647435
20
472.758587
11
356.208020
21
472.290000
0
LINE
8
Calque 1
10
356.208020
20
472.290000
11
356.768609
21
471.646325
0
LINE
8
Calque 1
10
356.768609
20
471.646325
11
357.001770
21
471.166600
0
LINE
8
Calque 1
10
357.001770
20
471.166600
11
357.076950
21
470.956637
0
LINE
8
Calque 1
10
357.076950
20
470.956637
11
357.257700
21
470.961700
0
LINE
8
Calque 1
10
357.257700
20
470.961700
11
357.537410
21
470.915175
0
LINE
8
Calque 1
10
357.537410
20
470.915175
11
357.850510
21
470.580500
0
LINE
8
Calque 1
10
357.850510
20
470.580500
11
358.399820
21
470.041000
0
LINE
8
Calque 1
10
358.399820
20
470.041000
11
359.857530
21
468.690500
0
LINE
8
Calque 1
10
359.857530
20
468.690500
11
361.426010
21
467.036900
0
LINE
8
Calque 1
10
361.426010
20
467.036900
11
364.288290
21
464.286400
0
LINE
8
Calque 1
10
364.288290
20
464.286400
11
366.166906
21
462.557913
0
LINE
8
Calque 1
10
366.166906
20
462.557913
11
367.118050
21
461.839000
0
LINE
8
Calque 1
10
367.118050
20
461.839000
11
367.278389
21
461.794000
0
LINE
8
Calque 1
10
367.278389
20
461.794000
11
367.255720
21
461.686000
0
LINE
8
Calque 1
10
367.255720
20
461.686000
11
367.519789
21
461.258916
0
LINE
8
Calque 1
10
367.519789
20
461.258916
11
368.378736
21
460.350800
0
LINE
8
Calque 1
10
368.378736
20
460.350800
11
370.959250
21
458.007300
0
LINE
8
Calque 1
10
370.959250
20
458.007300
11
371.519428
21
457.411100
0
LINE
8
Calque 1
10
371.519428
20
457.411100
11
371.644440
21
456.986200
0
LINE
8
Calque 1
10
371.644440
20
456.986200
11
371.585515
21
456.828688
0
LINE
8
Calque 1
10
371.585515
20
456.828688
11
371.690240
21
456.880500
0
LINE
8
Calque 1
10
371.690240
20
456.880500
11
372.030908
21
456.848628
0
LINE
8
Calque 1
10
372.030908
20
456.848628
11
372.517068
21
456.502825
0
LINE
8
Calque 1
10
372.517068
20
456.502825
11
372.952591
21
456.019509
0
LINE
8
Calque 1
10
372.952591
20
456.019509
11
373.141350
21
455.575100
0
LINE
8
Calque 1
10
373.141350
20
455.575100
11
373.208384
21
455.327412
0
LINE
8
Calque 1
10
373.208384
20
455.327412
11
373.369550
21
455.224400
0
LINE
8
Calque 1
10
373.369550
20
455.224400
11
374.559114
21
454.455350
0
LINE
8
Calque 1
10
374.559114
20
454.455350
11
375.169287
21
453.892794
0
LINE
8
Calque 1
10
375.169287
20
453.892794
11
375.363530
21
453.566000
0
LINE
8
Calque 1
10
375.363530
20
453.566000
11
375.485798
21
453.334162
0
LINE
8
Calque 1
10
375.485798
20
453.334162
11
375.979390
21
452.976100
0
LINE
8
Calque 1
10
375.979390
20
452.976100
11
376.696081
21
452.395200
0
LINE
8
Calque 1
10
376.696081
20
452.395200
11
377.354730
21
451.627400
0
LINE
8
Calque 1
10
377.354730
20
451.627400
11
378.156030
21
450.726500
0
LINE
8
Calque 1
10
378.156030
20
450.726500
11
379.378700
21
449.648300
0
LINE
8
Calque 1
10
379.378700
20
449.648300
11
381.343430
21
447.677000
0
LINE
8
Calque 1
10
381.343430
20
447.677000
11
387.077670
21
442.074400
0
LINE
8
Calque 1
10
387.077670
20
442.074400
11
393.630670
21
435.716100
0
LINE
8
Calque 1
10
393.630670
20
435.716100
11
395.378370
21
433.937900
0
LINE
8
Calque 1
10
395.378370
20
433.937900
11
397.986520
21
431.415900
0
LINE
8
Calque 1
10
397.986520
20
431.415900
11
398.467690
21
430.882700
0
LINE
8
Calque 1
10
398.467690
20
430.882700
11
400.031500
21
429.229100
0
LINE
8
Calque 1
10
400.031500
20
429.229100
11
403.382844
21
425.955713
0
LINE
8
Calque 1
10
403.382844
20
425.955713
11
404.097600
21
425.041000
0
LINE
8
Calque 1
10
404.097600
20
425.041000
11
404.194749
21
424.861988
0
LINE
8
Calque 1
10
404.194749
20
424.861988
11
404.428330
21
424.773800
0
LINE
8
Calque 1
10
404.428330
20
424.773800
11
405.050513
21
424.304625
0
LINE
8
Calque 1
10
405.050513
20
424.304625
11
406.081970
21
423.209800
0
LINE
8
Calque 1
10
406.081970
20
423.209800
11
407.611410
21
421.645800
0
LINE
8
Calque 1
10
407.611410
20
421.645800
11
408.631000
21
420.696300
0
LINE
8
Calque 1
10
408.631000
20
420.696300
11
409.316211
21
420.042225
0
LINE
8
Calque 1
10
409.316211
20
420.042225
11
409.821850
21
419.770200
0
LINE
8
Calque 1
10
409.821850
20
419.770200
11
410.139369
21
419.634212
0
LINE
8
Calque 1
10
410.139369
20
419.634212
11
410.372280
21
419.307200
0
LINE
8
Calque 1
10
410.372280
20
419.307200
11
410.792889
21
418.639400
0
LINE
8
Calque 1
10
410.792889
20
418.639400
11
411.489355
21
417.847700
0
LINE
8
Calque 1
10
411.489355
20
417.847700
11
412.186331
21
417.213800
0
LINE
8
Calque 1
10
412.186331
20
417.213800
11
412.608470
21
417.019400
0
LINE
8
Calque 1
10
412.608470
20
417.019400
11
412.838916
21
416.921012
0
LINE
8
Calque 1
10
412.838916
20
416.921012
11
413.082120
21
416.492700
0
LINE
8
Calque 1
10
413.082120
20
416.492700
11
413.477491
21
415.885825
0
LINE
8
Calque 1
10
413.477491
20
415.885825
11
414.073810
21
415.358600
0
LINE
8
Calque 1
10
414.073810
20
415.358600
11
415.015650
21
414.567400
0
LINE
8
Calque 1
10
415.015650
20
414.567400
11
416.076973
21
413.393962
0
LINE
8
Calque 1
10
416.076973
20
413.393962
11
417.051670
21
412.626500
0
LINE
8
Calque 1
10
417.051670
20
412.626500
11
417.410390
21
412.070700
0
LINE
8
Calque 1
10
417.410390
20
412.070700
11
417.595946
21
411.729225
0
LINE
8
Calque 1
10
417.595946
20
411.729225
11
417.838120
21
411.689400
0
LINE
8
Calque 1
10
417.838120
20
411.689400
11
418.037560
21
411.730575
0
LINE
8
Calque 1
10
418.037560
20
411.730575
11
418.120510
21
411.583800
0
LINE
8
Calque 1
10
418.120510
20
411.583800
11
418.707425
21
410.749583
0
LINE
8
Calque 1
10
418.707425
20
410.749583
11
420.038646
21
409.403462
0
LINE
8
Calque 1
10
420.038646
20
409.403462
11
421.469890
21
408.151411
0
LINE
8
Calque 1
10
421.469890
20
408.151411
11
422.356870
21
407.599400
0
LINE
8
Calque 1
10
422.356870
20
407.599400
11
422.541598
21
407.508725
0
LINE
8
Calque 1
10
422.541598
20
407.508725
11
422.618430
21
407.290700
0
LINE
8
Calque 1
10
422.618430
20
407.290700
11
422.662221
21
407.116462
0
LINE
8
Calque 1
10
422.662221
20
407.116462
11
422.767460
21
407.131000
0
LINE
8
Calque 1
10
422.767460
20
407.131000
11
423.627360
21
407.087000
0
LINE
8
Calque 1
10
423.627360
20
407.087000
11
424.236455
21
406.985530
0
LINE
8
Calque 1
10
424.236455
20
406.985530
11
424.834989
21
407.040837
0
LINE
8
Calque 1
10
424.834989
20
407.040837
11
426.322600
21
407.694800
0
LINE
8
Calque 1
10
426.322600
20
407.694800
11
426.322700
21
407.694600
0
LINE
8
Calque 1
10
360.838300
20
491.736400
11
297.603200
21
554.971800
0
LINE
8
Calque 1
10
297.603200
20
554.971800
11
360.904600
21
618.273300
0
LINE
8
Calque 1
10
360.904600
20
618.273300
11
424.206000
21
681.574700
0
LINE
8
Calque 1
10
424.206000
20
681.574700
11
487.507400
21
618.273300
0
LINE
8
Calque 1
10
487.507400
20
618.273300
11
550.808800
21
554.971800
0
LINE
8
Calque 1
10
550.808800
20
554.971800
11
487.573700
21
491.736400
0
LINE
8
Calque 1
10
487.573700
20
491.736400
11
424.205900
21
428.500900
0
LINE
8
Calque 1
10
424.205900
20
428.500900
11
360.838100
21
491.736400
0
LINE
8
Calque 1
10
360.838100
20
491.736400
11
360.838300
21
491.736400
0
LINE
8
Calque 1
10
439.393700
20
451.282300
11
441.820203
21
454.408200
0
LINE
8
Calque 1
10
441.820203
20
454.408200
11
444.810930
21
457.724900
0
LINE
8
Calque 1
10
444.810930
20
457.724900
11
445.901940
21
459.055800
0
LINE
8
Calque 1
10
445.901940
20
459.055800
11
445.673233
21
459.449373
0
LINE
8
Calque 1
10
445.673233
20
459.449373
11
445.030996
21
460.094669
0
LINE
8
Calque 1
10
445.030996
20
460.094669
11
442.769228
21
461.940200
0
LINE
8
Calque 1
10
442.769228
20
461.940200
11
439.643230
21
464.191931
0
LINE
8
Calque 1
10
439.643230
20
464.191931
11
436.179600
21
466.449400
0
LINE
8
Calque 1
10
436.179600
20
466.449400
11
434.641555
21
467.444731
0
LINE
8
Calque 1
10
434.641555
20
467.444731
11
433.737183
21
468.195975
0
LINE
8
Calque 1
10
433.737183
20
468.195975
11
433.309604
21
468.871131
0
LINE
8
Calque 1
10
433.309604
20
468.871131
11
433.201940
21
469.638200
0
LINE
8
Calque 1
10
433.201940
20
469.638200
11
433.394721
21
470.434530
0
LINE
8
Calque 1
10
433.394721
20
470.434530
11
433.929995
21
471.064313
0
LINE
8
Calque 1
10
433.929995
20
471.064313
11
434.743159
21
471.477589
0
LINE
8
Calque 1
10
434.743159
20
471.477589
11
435.769610
21
471.624400
0
LINE
8
Calque 1
10
435.769610
20
471.624400
11
436.905873
21
471.507837
0
LINE
8
Calque 1
10
436.905873
20
471.507837
11
438.249767
21
471.176977
0
LINE
8
Calque 1
10
438.249767
20
471.176977
11
441.413693
21
469.940338
0
LINE
8
Calque 1
10
441.413693
20
469.940338
11
444.967877
21
468.050430
0
LINE
8
Calque 1
10
444.967877
20
468.050430
11
448.618810
21
465.643200
0
LINE
8
Calque 1
10
448.618810
20
465.643200
11
451.135450
21
463.955000
0
LINE
8
Calque 1
10
451.135450
20
463.955000
11
453.228749
21
465.530062
0
LINE
8
Calque 1
10
453.228749
20
465.530062
11
455.909680
21
467.782900
0
LINE
8
Calque 1
10
455.909680
20
467.782900
11
456.010041
21
467.998398
0
LINE
8
Calque 1
10
456.010041
20
467.998398
11
455.840844
21
468.281688
0
LINE
8
Calque 1
10
455.840844
20
468.281688
11
454.447440
21
469.308700
0
LINE
8
Calque 1
10
454.447440
20
469.308700
11
449.897378
21
471.941777
0
LINE
8
Calque 1
10
449.897378
20
471.941777
11
444.846008
21
474.242913
0
LINE
8
Calque 1
10
444.846008
20
474.242913
11
439.685328
21
476.054242
0
LINE
8
Calque 1
10
439.685328
20
476.054242
11
437.186497
21
476.726897
0
LINE
8
Calque 1
10
437.186497
20
476.726897
11
434.807340
21
477.217900
0
LINE
8
Calque 1
10
434.807340
20
477.217900
11
432.666671
21
477.758538
0
LINE
8
Calque 1
10
432.666671
20
477.758538
11
432.256477
21
478.100673
0
LINE
8
Calque 1
10
432.256477
20
478.100673
11
432.143550
21
478.562800
0
LINE
8
Calque 1
10
432.143550
20
478.562800
11
433.772480
21
482.450564
0
LINE
8
Calque 1
10
433.772480
20
482.450564
11
438.382189
21
492.638038
0
LINE
8
Calque 1
10
438.382189
20
492.638038
11
454.881450
21
528.277200
0
LINE
8
Calque 1
10
454.881450
20
528.277200
11
463.804734
21
547.175263
0
LINE
8
Calque 1
10
463.804734
20
547.175263
11
465.730288
21
550.942195
0
LINE
8
Calque 1
10
465.730288
20
550.942195
11
466.574650
21
552.166300
0
LINE
8
Calque 1
10
466.574650
20
552.166300
11
466.870419
21
552.221977
0
LINE
8
Calque 1
10
466.870419
20
552.221977
11
467.304510
21
552.085663
0
LINE
8
Calque 1
10
467.304510
20
552.085663
11
468.823610
21
551.127900
0
LINE
8
Calque 1
10
468.823610
20
551.127900
11
472.110469
21
548.596197
0
LINE
8
Calque 1
10
472.110469
20
548.596197
11
475.726373
21
545.485775
0
LINE
8
Calque 1
10
475.726373
20
545.485775
11
479.231519
21
542.192166
0
LINE
8
Calque 1
10
479.231519
20
542.192166
11
482.186110
21
539.110900
0
LINE
8
Calque 1
10
482.186110
20
539.110900
11
483.625360
21
537.495200
0
LINE
8
Calque 1
10
483.625360
20
537.495200
11
487.785170
21
537.568200
0
LINE
8
Calque 1
10
487.785170
20
537.568200
11
491.944980
21
537.641200
0
LINE
8
Calque 1
10
491.944980
20
537.641200
11
490.969060
21
539.096400
0
LINE
8
Calque 1
10
490.969060
20
539.096400
11
488.620540
21
542.271400
0
LINE
8
Calque 1
10
488.620540
20
542.271400
11
486.947820
21
544.569200
0
LINE
8
Calque 1
10
486.947820
20
544.569200
11
486.764942
21
545.162569
0
LINE
8
Calque 1
10
486.764942
20
545.162569
11
486.829174
21
545.703381
0
LINE
8
Calque 1
10
486.829174
20
545.703381
11
487.105492
21
546.170609
0
LINE
8
Calque 1
10
487.105492
20
546.170609
11
487.558871
21
546.543225
0
LINE
8
Calque 1
10
487.558871
20
546.543225
11
488.154286
21
546.800200
0
LINE
8
Calque 1
10
488.154286
20
546.800200
11
488.856710
21
546.920506
0
LINE
8
Calque 1
10
488.856710
20
546.920506
11
489.631120
21
546.883116
0
LINE
8
Calque 1
10
489.631120
20
546.883116
11
490.442490
21
546.667000
0
LINE
8
Calque 1
10
490.442490
20
546.667000
11
491.741571
21
545.885356
0
LINE
8
Calque 1
10
491.741571
20
545.885356
11
493.249436
21
544.490025
0
LINE
8
Calque 1
10
493.249436
20
544.490025
11
494.883468
21
542.568231
0
LINE
8
Calque 1
10
494.883468
20
542.568231
11
496.561050
21
540.207200
0
LINE
8
Calque 1
10
496.561050
20
540.207200
11
498.329000
21
537.508900
0
LINE
8
Calque 1
10
498.329000
20
537.508900
11
501.219000
21
537.509000
0
LINE
8
Calque 1
10
501.219000
20
537.509000
11
503.260522
21
537.573713
0
LINE
8
Calque 1
10
503.260522
20
537.573713
11
504.109650
21
537.729700
0
LINE
8
Calque 1
10
504.109650
20
537.729700
11
503.094199
21
539.386825
0
LINE
8
Calque 1
10
503.094199
20
539.386825
11
500.589180
21
542.761900
0
LINE
8
Calque 1
10
500.589180
20
542.761900
11
499.525130
21
544.310125
0
LINE
8
Calque 1
10
499.525130
20
544.310125
11
499.082560
21
545.300500
0
LINE
8
Calque 1
10
499.082560
20
545.300500
11
499.222820
21
545.865392
0
LINE
8
Calque 1
10
499.222820
20
545.865392
11
499.617798
21
546.349687
0
LINE
8
Calque 1
10
499.617798
20
546.349687
11
500.228786
21
546.720489
0
LINE
8
Calque 1
10
500.228786
20
546.720489
11
501.017080
21
546.944900
0
LINE
8
Calque 1
10
501.017080
20
546.944900
11
501.840150
21
546.955450
0
LINE
8
Calque 1
10
501.840150
20
546.955450
11
502.704604
21
546.725211
0
LINE
8
Calque 1
10
502.704604
20
546.725211
11
503.612646
21
546.252288
0
LINE
8
Calque 1
10
503.612646
20
546.252288
11
504.566478
21
545.534787
0
LINE
8
Calque 1
10
504.566478
20
545.534787
11
506.620317
21
543.358470
0
LINE
8
Calque 1
10
506.620317
20
543.358470
11
508.883740
21
540.181100
0
LINE
8
Calque 1
10
508.883740
20
540.181100
11
510.591940
21
537.531200
0
LINE
8
Calque 1
10
510.591940
20
537.531200
11
517.794240
21
537.520200
0
LINE
8
Calque 1
10
517.794240
20
537.520200
11
524.996550
21
537.509200
0
LINE
8
Calque 1
10
524.996550
20
537.509200
11
522.808220
21
540.420800
0
LINE
8
Calque 1
10
522.808220
20
540.420800
11
520.526449
21
543.722956
0
LINE
8
Calque 1
10
520.526449
20
543.722956
11
517.925688
21
547.857200
0
LINE
8
Calque 1
10
517.925688
20
547.857200
11
515.594675
21
551.852994
0
LINE
8
Calque 1
10
515.594675
20
551.852994
11
514.122150
21
554.739800
0
LINE
8
Calque 1
10
514.122150
20
554.739800
11
514.170961
21
555.467428
0
LINE
8
Calque 1
10
514.170961
20
555.467428
11
514.758903
21
556.873150
0
LINE
8
Calque 1
10
514.758903
20
556.873150
11
517.919720
21
562.466700
0
LINE
8
Calque 1
10
517.919720
20
562.466700
11
521.983721
21
568.761000
0
LINE
8
Calque 1
10
521.983721
20
568.761000
11
523.714028
21
571.151503
0
LINE
8
Calque 1
10
523.714028
20
571.151503
11
524.723350
21
572.287200
0
LINE
8
Calque 1
10
524.723350
20
572.287200
11
524.961899
21
572.477869
0
LINE
8
Calque 1
10
524.961899
20
572.477869
11
524.967870
21
572.630330
0
LINE
8
Calque 1
10
524.967870
20
572.630330
11
524.122663
21
572.836388
0
LINE
8
Calque 1
10
524.122663
20
572.836388
11
517.887750
21
572.963400
0
LINE
8
Calque 1
10
517.887750
20
572.963400
11
510.764000
21
572.964000
0
LINE
8
Calque 1
10
510.764000
20
572.964000
11
508.996060
21
570.265700
0
LINE
8
Calque 1
10
508.996060
20
570.265700
11
507.491019
21
568.154444
0
LINE
8
Calque 1
10
507.491019
20
568.154444
11
505.892365
21
566.215275
0
LINE
8
Calque 1
10
505.892365
20
566.215275
11
504.412323
21
564.687219
0
LINE
8
Calque 1
10
504.412323
20
564.687219
11
503.263120
21
563.809300
0
LINE
8
Calque 1
10
503.263120
20
563.809300
11
502.324574
21
563.507300
0
LINE
8
Calque 1
10
502.324574
20
563.507300
11
501.269675
21
563.438925
0
LINE
8
Calque 1
10
501.269675
20
563.438925
11
500.298708
21
563.595438
0
LINE
8
Calque 1
10
500.298708
20
563.595438
11
499.611960
21
563.968100
0
LINE
8
Calque 1
10
499.611960
20
563.968100
11
499.145955
21
564.634695
0
LINE
8
Calque 1
10
499.145955
20
564.634695
11
499.183214
21
565.410838
0
LINE
8
Calque 1
10
499.183214
20
565.410838
11
499.805658
21
566.532186
0
LINE
8
Calque 1
10
499.805658
20
566.532186
11
501.095210
21
568.234400
0
LINE
8
Calque 1
10
501.095210
20
568.234400
11
503.154766
21
571.051363
0
LINE
8
Calque 1
10
503.154766
20
571.051363
11
504.109880
21
572.751200
0
LINE
8
Calque 1
10
504.109880
20
572.751200
11
503.263861
21
572.901475
0
LINE
8
Calque 1
10
503.263861
20
572.901475
11
501.229820
21
572.964000
0
LINE
8
Calque 1
10
501.229820
20
572.964000
11
498.350000
21
572.964000
0
LINE
8
Calque 1
10
498.350000
20
572.964000
11
497.259970
21
571.178000
0
LINE
8
Calque 1
10
497.259970
20
571.178000
11
494.620336
21
567.373163
0
LINE
8
Calque 1
10
494.620336
20
567.373163
11
493.314799
21
565.824589
0
LINE
8
Calque 1
10
493.314799
20
565.824589
11
492.163140
21
564.695500
0
LINE
8
Calque 1
10
492.163140
20
564.695500
11
490.708077
21
563.794147
0
LINE
8
Calque 1
10
490.708077
20
563.794147
11
489.240012
21
563.427825
0
LINE
8
Calque 1
10
489.240012
20
563.427825
11
487.949987
21
563.609341
0
LINE
8
Calque 1
10
487.949987
20
563.609341
11
487.431439
21
563.909539
0
LINE
8
Calque 1
10
487.431439
20
563.909539
11
487.029040
21
564.351500
0
LINE
8
Calque 1
10
487.029040
20
564.351500
11
486.781680
21
564.897692
0
LINE
8
Calque 1
10
486.781680
20
564.897692
11
486.942751
21
565.579813
0
LINE
8
Calque 1
10
486.942751
20
565.579813
11
487.689065
21
566.760927
0
LINE
8
Calque 1
10
487.689065
20
566.760927
11
489.197430
21
568.804100
0
LINE
8
Calque 1
10
489.197430
20
568.804100
11
491.546230
21
572.177600
0
LINE
8
Calque 1
10
491.546230
20
572.177600
11
491.952880
21
572.964000
0
LINE
8
Calque 1
10
491.952880
20
572.964000
11
487.749000
21
572.964000
0
LINE
8
Calque 1
10
487.749000
20
572.964000
11
483.544000
21
572.964000
0
LINE
8
Calque 1
10
483.544000
20
572.964000
11
482.800830
21
571.891600
0
LINE
8
Calque 1
10
482.800830
20
571.891600
11
480.567962
21
569.418458
0
LINE
8
Calque 1
10
480.567962
20
569.418458
11
476.783727
21
565.831388
0
LINE
8
Calque 1
10
476.783727
20
565.831388
11
472.495895
21
562.082598
0
LINE
8
Calque 1
10
472.495895
20
562.082598
11
468.752230
21
559.124300
0
LINE
8
Calque 1
10
468.752230
20
559.124300
11
467.407479
21
558.260209
0
LINE
8
Calque 1
10
467.407479
20
558.260209
11
466.905682
21
558.195314
0
LINE
8
Calque 1
10
466.905682
20
558.195314
11
466.426569
21
558.458250
0
LINE
8
Calque 1
10
466.426569
20
558.458250
11
465.901865
21
559.111318
0
LINE
8
Calque 1
10
465.901865
20
559.111318
11
465.263294
21
560.216816
0
LINE
8
Calque 1
10
465.263294
20
560.216816
11
463.371450
21
564.034300
0
LINE
8
Calque 1
10
463.371450
20
564.034300
11
455.850297
21
579.937437
0
LINE
8
Calque 1
10
455.850297
20
579.937437
11
445.408986
21
602.423175
0
LINE
8
Calque 1
10
445.408986
20
602.423175
11
436.141757
21
622.623850
0
LINE
8
Calque 1
10
436.141757
20
622.623850
11
432.142850
21
631.671800
0
LINE
8
Calque 1
10
432.142850
20
631.671800
11
432.248100
21
632.146522
0
LINE
8
Calque 1
10
432.248100
20
632.146522
11
432.621954
21
632.495300
0
LINE
8
Calque 1
10
432.621954
20
632.495300
11
433.351568
21
632.767128
0
LINE
8
Calque 1
10
433.351568
20
632.767128
11
434.524100
21
633.011000
0
LINE
8
Calque 1
10
434.524100
20
633.011000
11
437.170510
21
633.569296
0
LINE
8
Calque 1
10
437.170510
20
633.569296
11
439.956896
21
634.340214
0
LINE
8
Calque 1
10
439.956896
20
634.340214
11
445.645166
21
636.393487
0
LINE
8
Calque 1
10
445.645166
20
636.393487
11
450.980053
21
638.917967
0
LINE
8
Calque 1
10
450.980053
20
638.917967
11
453.324710
21
640.277893
0
LINE
8
Calque 1
10
453.324710
20
640.277893
11
455.352700
21
641.660800
0
LINE
8
Calque 1
10
455.352700
20
641.660800
11
456.205240
21
642.300500
0
LINE
8
Calque 1
10
456.205240
20
642.300500
11
453.683920
21
644.420400
0
LINE
8
Calque 1
10
453.683920
20
644.420400
11
451.162610
21
646.540200
0
LINE
8
Calque 1
10
451.162610
20
646.540200
11
449.562580
21
645.337500
0
LINE
8
Calque 1
10
449.562580
20
645.337500
11
445.717684
21
642.739570
0
LINE
8
Calque 1
10
445.717684
20
642.739570
11
441.803314
21
640.588238
0
LINE
8
Calque 1
10
441.803314
20
640.588238
11
438.308627
21
639.122311
0
LINE
8
Calque 1
10
438.308627
20
639.122311
11
436.871526
21
638.721003
0
LINE
8
Calque 1
10
436.871526
20
638.721003
11
435.722780
21
638.580600
0
LINE
8
Calque 1
10
435.722780
20
638.580600
11
435.019233
21
638.664053
0
LINE
8
Calque 1
10
435.019233
20
638.664053
11
434.407636
21
638.896773
0
LINE
8
Calque 1
10
434.407636
20
638.896773
11
433.904657
21
639.252304
0
LINE
8
Calque 1
10
433.904657
20
639.252304
11
433.526964
21
639.704188
0
LINE
8
Calque 1
10
433.526964
20
639.704188
11
433.291225
21
640.225966
0
LINE
8
Calque 1
10
433.291225
20
640.225966
11
433.214107
21
640.791183
0
LINE
8
Calque 1
10
433.214107
20
640.791183
11
433.312280
21
641.373380
0
LINE
8
Calque 1
10
433.312280
20
641.373380
11
433.602410
21
641.946100
0
LINE
8
Calque 1
10
433.602410
20
641.946100
11
434.776670
21
642.903413
0
LINE
8
Calque 1
10
434.776670
20
642.903413
11
437.036510
21
644.400800
0
LINE
8
Calque 1
10
437.036510
20
644.400800
11
441.846572
21
647.644063
0
LINE
8
Calque 1
10
441.846572
20
647.644063
11
443.744376
21
649.115689
0
LINE
8
Calque 1
10
443.744376
20
649.115689
11
445.078140
21
650.321000
0
LINE
8
Calque 1
10
445.078140
20
650.321000
11
445.974870
21
651.249500
0
LINE
8
Calque 1
10
445.974870
20
651.249500
11
443.868370
21
653.580200
0
LINE
8
Calque 1
10
443.868370
20
653.580200
11
441.416701
21
656.408225
0
LINE
8
Calque 1
10
441.416701
20
656.408225
11
439.022040
21
659.454800
0
LINE
8
Calque 1
10
439.022040
20
659.454800
11
438.732835
21
659.695197
0
LINE
8
Calque 1
10
438.732835
20
659.695197
11
438.240009
21
659.539275
0
LINE
8
Calque 1
10
438.240009
20
659.539275
11
435.450160
21
657.328000
0
LINE
8
Calque 1
10
435.450160
20
657.328000
11
430.042063
21
652.958414
0
LINE
8
Calque 1
10
430.042063
20
652.958414
11
425.102524
21
649.295769
0
LINE
8
Calque 1
10
425.102524
20
649.295769
11
420.535625
21
646.291820
0
LINE
8
Calque 1
10
420.535625
20
646.291820
11
416.245447
21
643.898325
0
LINE
8
Calque 1
10
416.245447
20
643.898325
11
412.136071
21
642.067039
0
LINE
8
Calque 1
10
412.136071
20
642.067039
11
408.111577
21
640.749719
0
LINE
8
Calque 1
10
408.111577
20
640.749719
11
404.076047
21
639.898120
0
LINE
8
Calque 1
10
404.076047
20
639.898120
11
399.933560
21
639.464000
0
LINE
8
Calque 1
10
399.933560
20
639.464000
11
396.894490
21
639.290400
0
LINE
8
Calque 1
10
396.894490
20
639.290400
11
395.534810
21
638.215700
0
LINE
8
Calque 1
10
395.534810
20
638.215700
11
391.644732
21
634.826099
0
LINE
8
Calque 1
10
391.644732
20
634.826099
11
387.491670
21
630.643577
0
LINE
8
Calque 1
10
387.491670
20
630.643577
11
383.212224
21
625.843187
0
LINE
8
Calque 1
10
383.212224
20
625.843187
11
378.942996
21
620.599987
0
LINE
8
Calque 1
10
378.942996
20
620.599987
11
374.820589
21
615.089033
0
LINE
8
Calque 1
10
374.820589
20
615.089033
11
370.981605
21
609.485380
0
LINE
8
Calque 1
10
370.981605
20
609.485380
11
367.562644
21
603.964083
0
LINE
8
Calque 1
10
367.562644
20
603.964083
11
364.700310
21
598.700200
0
LINE
8
Calque 1
10
364.700310
20
598.700200
11
362.838958
21
594.721684
0
LINE
8
Calque 1
10
362.838958
20
594.721684
11
361.417872
21
591.126925
0
LINE
8
Calque 1
10
361.417872
20
591.126925
11
360.464468
21
587.993603
0
LINE
8
Calque 1
10
360.464468
20
587.993603
11
360.006160
21
585.399400
0
LINE
8
Calque 1
10
360.006160
20
585.399400
11
359.878520
21
583.944200
0
LINE
8
Calque 1
10
359.878520
20
583.944200
11
361.542890
21
583.018100
0
LINE
8
Calque 1
10
361.542890
20
583.018100
11
363.117423
21
581.937208
0
LINE
8
Calque 1
10
363.117423
20
581.937208
11
364.879470
21
580.415213
0
LINE
8
Calque 1
10
364.879470
20
580.415213
11
366.542877
21
578.720811
0
LINE
8
Calque 1
10
366.542877
20
578.720811
11
367.821490
21
577.122700
0
LINE
8
Calque 1
10
367.821490
20
577.122700
11
369.278826
21
574.647703
0
LINE
8
Calque 1
10
369.278826
20
574.647703
11
370.526671
21
571.863125
0
LINE
8
Calque 1
10
370.526671
20
571.863125
11
371.516188
21
568.894534
0
LINE
8
Calque 1
10
371.516188
20
568.894534
11
372.198540
21
565.867500
0
LINE
8
Calque 1
10
372.198540
20
565.867500
11
372.739574
21
561.287238
0
LINE
8
Calque 1
10
372.739574
20
561.287238
11
372.787240
21
559.578342
0
LINE
8
Calque 1
10
372.787240
20
559.578342
11
372.657170
21
558.712100
0
LINE
8
Calque 1
10
372.657170
20
558.712100
11
371.670090
21
558.450611
0
LINE
8
Calque 1
10
371.670090
20
558.450611
11
369.592820
21
558.387563
0
LINE
8
Calque 1
10
369.592820
20
558.387563
11
367.006562
21
558.514958
0
LINE
8
Calque 1
10
367.006562
20
558.514958
11
364.492520
21
558.824800
0
LINE
8
Calque 1
10
364.492520
20
558.824800
11
361.664303
21
559.484101
0
LINE
8
Calque 1
10
361.664303
20
559.484101
11
359.247244
21
560.419183
0
LINE
8
Calque 1
10
359.247244
20
560.419183
11
357.218375
21
561.656901
0
LINE
8
Calque 1
10
357.218375
20
561.656901
11
355.554730
21
563.224113
0
LINE
8
Calque 1
10
355.554730
20
563.224113
11
354.233340
21
565.147672
0
LINE
8
Calque 1
10
354.233340
20
565.147672
11
353.231236
21
567.454436
0
LINE
8
Calque 1
10
353.231236
20
567.454436
11
352.525452
21
570.171260
0
LINE
8
Calque 1
10
352.525452
20
570.171260
11
352.093020
21
573.325000
0
LINE
8
Calque 1
10
352.093020
20
573.325000
11
351.906290
21
575.405900
0
LINE
8
Calque 1
10
351.906290
20
575.405900
11
350.380500
21
575.233300
0
LINE
8
Calque 1
10
350.380500
20
575.233300
11
347.358720
21
574.687544
0
LINE
8
Calque 1
10
347.358720
20
574.687544
11
343.580770
21
573.701950
0
LINE
8
Calque 1
10
343.580770
20
573.701950
11
339.500060
21
572.408031
0
LINE
8
Calque 1
10
339.500060
20
572.408031
11
335.570000
21
570.937300
0
LINE
8
Calque 1
10
335.570000
20
570.937300
11
327.870784
21
567.496320
0
LINE
8
Calque 1
10
327.870784
20
567.496320
11
320.397075
21
563.651738
0
LINE
8
Calque 1
10
320.397075
20
563.651738
11
314.066553
21
559.908011
0
LINE
8
Calque 1
10
314.066553
20
559.908011
11
311.616763
21
558.231612
0
LINE
8
Calque 1
10
311.616763
20
558.231612
11
309.796900
21
556.769600
0
LINE
8
Calque 1
10
309.796900
20
556.769600
11
308.233190
21
555.347500
0
LINE
8
Calque 1
10
308.233190
20
555.347500
11
308.696650
21
554.640200
0
LINE
8
Calque 1
10
308.696650
20
554.640200
11
309.596170
21
553.664737
0
LINE
8
Calque 1
10
309.596170
20
553.664737
11
311.161248
21
552.402806
0
LINE
8
Calque 1
10
311.161248
20
552.402806
11
315.858506
21
549.282700
0
LINE
8
Calque 1
10
315.858506
20
549.282700
11
321.929287
21
545.806194
0
LINE
8
Calque 1
10
321.929287
20
545.806194
11
328.514450
21
542.499600
0
LINE
8
Calque 1
10
328.514450
20
542.499600
11
335.079253
21
539.619489
0
LINE
8
Calque 1
10
335.079253
20
539.619489
11
340.881611
21
537.447163
0
LINE
8
Calque 1
10
340.881611
20
537.447163
11
346.076464
21
535.930655
0
LINE
8
Calque 1
10
346.076464
20
535.930655
11
350.818750
21
535.018000
0
LINE
8
Calque 1
10
350.818750
20
535.018000
11
351.912310
21
534.867600
0
LINE
8
Calque 1
10
351.912310
20
534.867600
11
352.095190
21
536.916300
0
LINE
8
Calque 1
10
352.095190
20
536.916300
11
352.597798
21
540.444209
0
LINE
8
Calque 1
10
352.597798
20
540.444209
11
353.438183
21
543.369475
0
LINE
8
Calque 1
10
353.438183
20
543.369475
11
354.647984
21
545.774353
0
LINE
8
Calque 1
10
354.647984
20
545.774353
11
356.258840
21
547.741100
0
LINE
8
Calque 1
10
356.258840
20
547.741100
11
357.318732
21
548.663338
0
LINE
8
Calque 1
10
357.318732
20
548.663338
11
358.482981
21
549.456520
0
LINE
8
Calque 1
10
358.482981
20
549.456520
11
359.774498
21
550.128215
0
LINE
8
Calque 1
10
359.774498
20
550.128215
11
361.216191
21
550.685988
0
LINE
8
Calque 1
10
361.216191
20
550.685988
11
364.641751
21
551.490036
0
LINE
8
Calque 1
10
364.641751
20
551.490036
11
368.942940
21
551.929200
0
LINE
8
Calque 1
10
368.942940
20
551.929200
11
371.313042
21
552.022005
0
LINE
8
Calque 1
10
371.313042
20
552.022005
11
372.027745
21
551.949951
0
LINE
8
Calque 1
10
372.027745
20
551.949951
11
372.490911
21
551.750563
0
LINE
8
Calque 1
10
372.490911
20
551.750563
11
372.749064
21
551.387566
0
LINE
8
Calque 1
10
372.749064
20
551.387566
11
372.848725
21
550.824689
0
LINE
8
Calque 1
10
372.848725
20
550.824689
11
372.758660
21
548.954200
0
LINE
8
Calque 1
10
372.758660
20
548.954200
11
372.308400
21
545.176428
0
LINE
8
Calque 1
10
372.308400
20
545.176428
11
371.570321
21
541.685884
0
LINE
8
Calque 1
10
371.570321
20
541.685884
11
370.548047
21
538.489468
0
LINE
8
Calque 1
10
370.548047
20
538.489468
11
369.245205
21
535.594075
0
LINE
8
Calque 1
10
369.245205
20
535.594075
11
367.665420
21
533.006604
0
LINE
8
Calque 1
10
367.665420
20
533.006604
11
365.812317
21
530.733953
0
LINE
8
Calque 1
10
365.812317
20
530.733953
11
363.689522
21
528.783019
0
LINE
8
Calque 1
10
363.689522
20
528.783019
11
361.300660
21
527.160700
0
LINE
8
Calque 1
10
361.300660
20
527.160700
11
360.360533
21
526.518466
0
LINE
8
Calque 1
10
360.360533
20
526.518466
11
359.945706
21
525.772300
0
LINE
8
Calque 1
10
359.945706
20
525.772300
11
359.989094
21
524.570359
0
LINE
8
Calque 1
10
359.989094
20
524.570359
11
360.423610
21
522.560800
0
LINE
8
Calque 1
10
360.423610
20
522.560800
11
361.056224
21
520.235408
0
LINE
8
Calque 1
10
361.056224
20
520.235408
11
361.860644
21
517.925063
0
LINE
8
Calque 1
10
361.860644
20
517.925063
11
364.413040
21
512.242100
0
LINE
8
Calque 1
10
364.413040
20
512.242100
11
367.932134
21
505.712261
0
LINE
8
Calque 1
10
367.932134
20
505.712261
11
372.225940
21
498.910088
0
LINE
8
Calque 1
10
372.225940
20
498.910088
11
377.232246
21
491.927820
0
LINE
8
Calque 1
10
377.232246
20
491.927820
11
382.888840
21
484.857700
0
LINE
8
Calque 1
10
382.888840
20
484.857700
11
385.903285
21
481.487908
0
LINE
8
Calque 1
10
385.903285
20
481.487908
11
389.548030
21
477.697713
0
LINE
8
Calque 1
10
389.548030
20
477.697713
11
393.015505
21
474.302936
0
LINE
8
Calque 1
10
393.015505
20
474.302936
11
395.498140
21
472.119400
0
LINE
8
Calque 1
10
395.498140
20
472.119400
11
397.085640
21
470.914800
0
LINE
8
Calque 1
10
397.085640
20
470.914800
11
400.525220
21
470.748100
0
LINE
8
Calque 1
10
400.525220
20
470.748100
11
404.466328
21
470.358482
0
LINE
8
Calque 1
10
404.466328
20
470.358482
11
408.335331
21
469.545872
0
LINE
8
Calque 1
10
408.335331
20
469.545872
11
412.227676
21
468.261882
0
LINE
8
Calque 1
10
412.227676
20
468.261882
11
416.238807
21
466.458125
0
LINE
8
Calque 1
10
416.238807
20
466.458125
11
420.464172
21
464.086215
0
LINE
8
Calque 1
10
420.464172
20
464.086215
11
424.999215
21
461.097766
0
LINE
8
Calque 1
10
424.999215
20
461.097766
11
429.939383
21
457.444389
0
LINE
8
Calque 1
10
429.939383
20
457.444389
11
435.380120
21
453.077700
0
LINE
8
Calque 1
10
435.380120
20
453.077700
11
438.723350
21
450.461900
0
LINE
8
Calque 1
10
438.723350
20
450.461900
11
439.393030
21
451.282900
0
LINE
8
Calque 1
10
439.393030
20
451.282900
11
439.393700
21
451.282300
0
LINE
8
Calque 1
10
412.584500
20
479.835900
11
410.111078
21
480.123091
0
LINE
8
Calque 1
10
410.111078
20
480.123091
11
408.671633
21
480.493400
0
LINE
8
Calque 1
10
408.671633
20
480.493400
11
407.576298
21
481.254834
0
LINE
8
Calque 1
10
407.576298
20
481.254834
11
406.135210
21
482.715400
0
LINE
8
Calque 1
10
406.135210
20
482.715400
11
403.194763
21
486.075561
0
LINE
8
Calque 1
10
403.194763
20
486.075561
11
400.359412
21
489.915634
0
LINE
8
Calque 1
10
400.359412
20
489.915634
11
397.679487
21
494.137022
0
LINE
8
Calque 1
10
397.679487
20
494.137022
11
395.205317
21
498.641125
0
LINE
8
Calque 1
10
395.205317
20
498.641125
11
392.987235
21
503.329343
0
LINE
8
Calque 1
10
392.987235
20
503.329343
11
391.075569
21
508.103078
0
LINE
8
Calque 1
10
391.075569
20
508.103078
11
389.520651
21
512.863730
0
LINE
8
Calque 1
10
389.520651
20
512.863730
11
388.372810
21
517.512700
0
LINE
8
Calque 1
10
388.372810
20
517.512700
11
387.741620
21
520.997891
0
LINE
8
Calque 1
10
387.741620
20
520.997891
11
387.361741
21
524.133825
0
LINE
8
Calque 1
10
387.361741
20
524.133825
11
387.205874
21
527.238522
0
LINE
8
Calque 1
10
387.205874
20
527.238522
11
387.246720
21
530.630000
0
LINE
8
Calque 1
10
387.246720
20
530.630000
11
387.695444
21
536.377034
0
LINE
8
Calque 1
10
387.695444
20
536.377034
11
388.535192
21
543.148550
0
LINE
8
Calque 1
10
388.535192
20
543.148550
11
389.500809
21
549.079016
0
LINE
8
Calque 1
10
389.500809
20
549.079016
11
389.947958
21
551.145876
0
LINE
8
Calque 1
10
389.947958
20
551.145876
11
390.327140
21
552.302900
0
LINE
8
Calque 1
10
390.327140
20
552.302900
11
390.622650
21
552.855000
0
LINE
8
Calque 1
10
390.622650
20
552.855000
11
425.387000
21
552.855000
0
LINE
8
Calque 1
10
425.387000
20
552.855000
11
454.556213
21
552.787288
0
LINE
8
Calque 1
10
454.556213
20
552.787288
11
459.307395
21
552.661908
0
LINE
8
Calque 1
10
459.307395
20
552.661908
11
460.567300
21
552.439300
0
LINE
8
Calque 1
10
460.567300
20
552.439300
11
460.983070
21
551.880700
0
LINE
8
Calque 1
10
460.983070
20
551.880700
11
426.327170
21
480.094600
0
LINE
8
Calque 1
10
426.327170
20
480.094600
11
425.976138
21
479.891464
0
LINE
8
Calque 1
10
425.976138
20
479.891464
11
425.045751
21
479.765062
0
LINE
8
Calque 1
10
425.045751
20
479.765062
11
420.313410
21
479.660600
0
LINE
8
Calque 1
10
420.313410
20
479.660600
11
412.584380
21
479.835900
0
LINE
8
Calque 1
10
412.584380
20
479.835900
11
412.584500
21
479.835900
0
LINE
8
Calque 1
10
344.963400
20
549.738700
11
341.391530
21
551.621500
0
LINE
8
Calque 1
10
341.391530
20
551.621500
11
337.158190
21
553.817100
0
LINE
8
Calque 1
10
337.158190
20
553.817100
11
335.982085
21
554.424025
0
LINE
8
Calque 1
10
335.982085
20
554.424025
11
335.726706
21
554.719547
0
LINE
8
Calque 1
10
335.726706
20
554.719547
11
335.621200
21
555.068300
0
LINE
8
Calque 1
10
335.621200
20
555.068300
11
335.645708
21
555.450969
0
LINE
8
Calque 1
10
335.645708
20
555.450969
11
335.917618
21
555.793400
0
LINE
8
Calque 1
10
335.917618
20
555.793400
11
337.737870
21
556.792700
0
LINE
8
Calque 1
10
337.737870
20
556.792700
11
342.551770
21
559.301500
0
LINE
8
Calque 1
10
342.551770
20
559.301500
11
344.744837
21
560.446636
0
LINE
8
Calque 1
10
344.744837
20
560.446636
11
346.126779
21
560.849562
0
LINE
8
Calque 1
10
346.126779
20
560.849562
11
346.665586
21
560.777651
0
LINE
8
Calque 1
10
346.665586
20
560.777651
11
347.184021
21
560.526133
0
LINE
8
Calque 1
10
347.184021
20
560.526133
11
348.402990
21
559.492200
0
LINE
8
Calque 1
10
348.402990
20
559.492200
11
349.726490
21
558.313495
0
LINE
8
Calque 1
10
349.726490
20
558.313495
11
350.880809
21
557.480662
0
LINE
8
Calque 1
10
350.880809
20
557.480662
11
352.036671
21
556.888373
0
LINE
8
Calque 1
10
352.036671
20
556.888373
11
353.364800
21
556.431300
0
LINE
8
Calque 1
10
353.364800
20
556.431300
11
354.711986
21
555.826648
0
LINE
8
Calque 1
10
354.711986
20
555.826648
11
355.092126
21
555.475122
0
LINE
8
Calque 1
10
355.092126
20
555.475122
11
355.270884
21
555.117362
0
LINE
8
Calque 1
10
355.270884
20
555.117362
11
355.243950
21
554.773295
0
LINE
8
Calque 1
10
355.243950
20
554.773295
11
355.007015
21
554.462845
0
LINE
8
Calque 1
10
355.007015
20
554.462845
11
354.555768
21
554.205938
0
LINE
8
Calque 1
10
354.555768
20
554.205938
11
353.885900
21
554.022500
0
LINE
8
Calque 1
10
353.885900
20
554.022500
11
352.548844
21
553.633895
0
LINE
8
Calque 1
10
352.548844
20
553.633895
11
351.157748
21
552.959812
0
LINE
8
Calque 1
10
351.157748
20
552.959812
11
349.793932
21
552.047098
0
LINE
8
Calque 1
10
349.793932
20
552.047098
11
348.538720
21
550.942600
0
LINE
8
Calque 1
10
348.538720
20
550.942600
11
347.527701
21
550.001739
0
LINE
8
Calque 1
10
347.527701
20
550.001739
11
346.734954
21
549.534662
0
LINE
8
Calque 1
10
346.734954
20
549.534662
11
345.950260
21
549.470580
0
LINE
8
Calque 1
10
345.950260
20
549.470580
11
344.963400
21
549.738700
0
LINE
8
Calque 1
10
344.963400
20
549.738700
11
344.963400
21
549.738700
0
LINE
8
Calque 1
10
390.640000
20
557.816000
11
390.332777
21
558.235823
0
LINE
8
Calque 1
10
390.332777
20
558.235823
11
390.039284
21
559.060338
0
LINE
8
Calque 1
10
390.039284
20
559.060338
11
389.292190
21
562.644600
0
LINE
8
Calque 1
10
389.292190
20
562.644600
11
387.917779
21
571.417800
0
LINE
8
Calque 1
10
387.917779
20
571.417800
11
387.505108
21
575.286134
0
LINE
8
Calque 1
10
387.505108
20
575.286134
11
387.272564
21
578.879175
0
LINE
8
Calque 1
10
387.272564
20
578.879175
11
387.217976
21
582.249588
0
LINE
8
Calque 1
10
387.217976
20
582.249588
11
387.339172
21
585.450038
0
LINE
8
Calque 1
10
387.339172
20
585.450038
11
387.633980
21
588.533187
0
LINE
8
Calque 1
10
387.633980
20
588.533187
11
388.100230
21
591.551700
0
LINE
8
Calque 1
10
388.100230
20
591.551700
11
389.142320
21
596.164562
0
LINE
8
Calque 1
10
389.142320
20
596.164562
11
390.577355
21
600.866955
0
LINE
8
Calque 1
10
390.577355
20
600.866955
11
392.370451
21
605.587785
0
LINE
8
Calque 1
10
392.370451
20
605.587785
11
394.486720
21
610.255963
0
LINE
8
Calque 1
10
394.486720
20
610.255963
11
396.891278
21
614.800394
0
LINE
8
Calque 1
10
396.891278
20
614.800394
11
399.549240
21
619.149989
0
LINE
8
Calque 1
10
399.549240
20
619.149989
11
402.425719
21
623.233655
0
LINE
8
Calque 1
10
402.425719
20
623.233655
11
405.485830
21
626.980300
0
LINE
8
Calque 1
10
405.485830
20
626.980300
11
406.998694
21
628.580317
0
LINE
8
Calque 1
10
406.998694
20
628.580317
11
408.274819
21
629.535738
0
LINE
8
Calque 1
10
408.274819
20
629.535738
11
409.703440
21
630.059439
0
LINE
8
Calque 1
10
409.703440
20
630.059439
11
411.673790
21
630.364300
0
LINE
8
Calque 1
10
411.673790
20
630.364300
11
415.510422
21
630.602989
0
LINE
8
Calque 1
10
415.510422
20
630.602989
11
420.227324
21
630.672863
0
LINE
8
Calque 1
10
420.227324
20
630.672863
11
424.300859
21
630.578205
0
LINE
8
Calque 1
10
424.300859
20
630.578205
11
426.207390
21
630.323300
0
LINE
8
Calque 1
10
426.207390
20
630.323300
11
443.109419
21
595.631225
0
LINE
8
Calque 1
10
443.109419
20
595.631225
11
460.618490
21
559.273700
0
LINE
8
Calque 1
10
460.618490
20
559.273700
11
460.846551
21
558.467512
0
LINE
8
Calque 1
10
460.846551
20
558.467512
11
460.456620
21
557.884600
0
LINE
8
Calque 1
10
460.456620
20
557.884600
11
460.203075
21
557.710447
0
LINE
8
Calque 1
10
460.203075
20
557.710447
11
459.572199
21
557.579194
0
LINE
8
Calque 1
10
459.572199
20
557.579194
11
455.585267
21
557.421125
0
LINE
8
Calque 1
10
455.585267
20
557.421125
11
425.558420
21
557.352900
0
LINE
8
Calque 1
10
425.558420
20
557.352900
11
396.165233
21
557.420912
0
LINE
8
Calque 1
10
396.165233
20
557.420912
11
391.766893
21
557.559661
0
LINE
8
Calque 1
10
391.766893
20
557.559661
11
390.963027
21
557.670893
0
LINE
8
Calque 1
10
390.963027
20
557.670893
11
390.640120
21
557.816000
0
LINE
8
Calque 1
10
390.640120
20
557.816000
11
390.640000
21
557.816000
0
LINE
8
Calque 1
10
425.710200
20
453.388000
11
427.336996
21
454.540500
0
LINE
8
Calque 1
10
427.336996
20
454.540500
11
428.111286
21
455.275638
0
LINE
8
Calque 1
10
428.111286
20
455.275638
11
428.439400
21
455.752700
0
LINE
8
Calque 1
10
428.439400
20
455.752700
11
426.171741
21
457.574338
0
LINE
8
Calque 1
10
426.171741
20
457.574338
11
421.477150
21
460.867100
0
LINE
8
Calque 1
10
421.477150
20
460.867100
11
418.925806
21
462.448272
0
LINE
8
Calque 1
10
418.925806
20
462.448272
11
416.036370
21
464.035650
0
LINE
8
Calque 1
10
416.036370
20
464.035650
11
413.188724
21
465.431703
0
LINE
8
Calque 1
10
413.188724
20
465.431703
11
410.762750
21
466.438900
0
LINE
8
Calque 1
10
410.762750
20
466.438900
11
408.648060
21
467.130500
0
LINE
8
Calque 1
10
408.648060
20
467.130500
11
410.538400
21
465.046063
0
LINE
8
Calque 1
10
410.538400
20
465.046063
11
415.140951
21
460.435175
0
LINE
8
Calque 1
10
415.140951
20
460.435175
11
419.956632
21
455.761475
0
LINE
8
Calque 1
10
419.956632
20
455.761475
11
422.486360
21
453.488600
0
LINE
8
Calque 1
10
422.486360
20
453.488600
11
423.256445
21
453.235183
0
LINE
8
Calque 1
10
423.256445
20
453.235183
11
424.084966
21
453.132862
0
LINE
8
Calque 1
10
424.084966
20
453.132862
11
424.920164
21
453.183261
0
LINE
8
Calque 1
10
424.920164
20
453.183261
11
425.710280
21
453.388000
0
LINE
8
Calque 1
10
425.710280
20
453.388000
11
425.710200
21
453.388000
0
LINE
8
Calque 1
10
440.221600
20
468.083300
11
437.957021
21
468.980175
0
LINE
8
Calque 1
10
437.957021
20
468.980175
11
436.606757
21
469.363044
0
LINE
8
Calque 1
10
436.606757
20
469.363044
11
435.849500
21
469.468300
0
LINE
8
Calque 1
10
435.849500
20
469.468300
11
436.246608
21
469.036325
0
LINE
8
Calque 1
10
436.246608
20
469.036325
11
437.618130
21
468.136200
0
LINE
8
Calque 1
10
437.618130
20
468.136200
11
439.448584
21
467.150450
0
LINE
8
Calque 1
10
439.448584
20
467.150450
11
439.848700
21
467.128116
0
LINE
8
Calque 1
10
439.848700
20
467.128116
11
440.164410
21
467.338300
0
LINE
8
Calque 1
10
440.164410
20
467.338300
11
440.501305
21
467.753512
0
LINE
8
Calque 1
10
440.501305
20
467.753512
11
440.221610
21
468.083300
0
LINE
8
Calque 1
10
440.221610
20
468.083300
11
440.221600
21
468.083300
0
LINE
8
Calque 1
10
478.502100
20
505.693600
11
508.852500
21
536.054500
0
LINE
8
Calque 1
10
508.852500
20
536.054500
11
507.885800
21
537.642000
0
LINE
8
Calque 1
10
507.885800
20
537.642000
11
505.462805
21
541.204412
0
LINE
8
Calque 1
10
505.462805
20
541.204412
11
504.411538
21
542.537339
0
LINE
8
Calque 1
10
504.411538
20
542.537339
11
503.843810
21
543.065900
0
LINE
8
Calque 1
10
503.843810
20
543.065900
11
503.630632
21
542.995884
0
LINE
8
Calque 1
10
503.630632
20
542.995884
11
503.637018
21
542.746900
0
LINE
8
Calque 1
10
503.637018
20
542.746900
11
504.388620
21
541.478400
0
LINE
8
Calque 1
10
504.388620
20
541.478400
11
506.368971
21
538.285350
0
LINE
8
Calque 1
10
506.368971
20
538.285350
11
507.285290
21
536.358000
0
LINE
8
Calque 1
10
507.285290
20
536.358000
11
506.869510
21
535.544200
0
LINE
8
Calque 1
10
506.869510
20
535.544200
11
506.302969
21
535.350509
0
LINE
8
Calque 1
10
506.302969
20
535.350509
11
505.168464
21
535.209412
0
LINE
8
Calque 1
10
505.168464
20
535.209412
11
501.949322
21
535.087850
0
LINE
8
Calque 1
10
501.949322
20
535.087850
11
498.719602
21
535.185212
0
LINE
8
Calque 1
10
498.719602
20
535.185212
11
497.571874
21
535.317772
0
LINE
8
Calque 1
10
497.571874
20
535.317772
11
496.986820
21
535.507200
0
LINE
8
Calque 1
10
496.986820
20
535.507200
11
496.676627
21
535.435237
0
LINE
8
Calque 1
10
496.676627
20
535.435237
11
495.872677
21
534.818509
0
LINE
8
Calque 1
10
495.872677
20
534.818509
11
491.867692
21
531.061775
0
LINE
8
Calque 1
10
491.867692
20
531.061775
11
467.858720
21
507.232300
0
LINE
8
Calque 1
10
467.858720
20
507.232300
11
439.148920
21
478.579000
0
LINE
8
Calque 1
10
439.148920
20
478.579000
11
441.740790
21
477.729400
0
LINE
8
Calque 1
10
441.740790
20
477.729400
11
446.109480
21
476.127300
0
LINE
8
Calque 1
10
446.109480
20
476.127300
11
448.019020
21
475.353700
0
LINE
8
Calque 1
10
448.019020
20
475.353700
11
478.502120
21
505.693800
0
LINE
8
Calque 1
10
478.502120
20
505.693800
11
478.502100
21
505.693600
0
LINE
8
Calque 1
10
359.638100
20
517.548200
11
358.368756
21
521.709200
0
LINE
8
Calque 1
10
358.368756
20
521.709200
11
357.639210
21
525.685400
0
LINE
8
Calque 1
10
357.639210
20
525.685400
11
357.594500
21
527.250162
0
LINE
8
Calque 1
10
357.594500
20
527.250162
11
357.822821
21
527.624098
0
LINE
8
Calque 1
10
357.822821
20
527.624098
11
358.298020
21
528.006800
0
LINE
8
Calque 1
10
358.298020
20
528.006800
11
359.131530
21
528.623100
0
LINE
8
Calque 1
10
359.131530
20
528.623100
11
356.696610
21
531.068100
0
LINE
8
Calque 1
10
356.696610
20
531.068100
11
354.635584
21
533.008325
0
LINE
8
Calque 1
10
354.635584
20
533.008325
11
354.197629
21
533.225006
0
LINE
8
Calque 1
10
354.197629
20
533.225006
11
353.951490
21
533.089000
0
LINE
8
Calque 1
10
353.951490
20
533.089000
11
353.606927
21
532.885589
0
LINE
8
Calque 1
10
353.606927
20
532.885589
11
352.966897
21
532.776034
0
LINE
8
Calque 1
10
352.966897
20
532.776034
11
350.955696
21
532.824400
0
LINE
8
Calque 1
10
350.955696
20
532.824400
11
348.228397
21
533.205916
0
LINE
8
Calque 1
10
348.228397
20
533.205916
11
345.095510
21
533.892400
0
LINE
8
Calque 1
10
345.095510
20
533.892400
11
340.994470
21
535.003400
0
LINE
8
Calque 1
10
340.994470
20
535.003400
11
341.570981
21
534.293997
0
LINE
8
Calque 1
10
341.570981
20
534.293997
11
343.531866
21
532.218900
0
LINE
8
Calque 1
10
343.531866
20
532.218900
11
350.375500
21
525.251500
0
LINE
8
Calque 1
10
350.375500
20
525.251500
11
360.356030
21
515.375800
0
LINE
8
Calque 1
10
360.356030
20
515.375800
11
359.638100
21
517.548200
0
LINE
8
Calque 1
10
359.638100
20
517.548200
11
359.638100
21
517.548200
0
LINE
8
Calque 1
10
522.506100
20
549.736900
11
523.641970
21
550.946588
0
LINE
8
Calque 1
10
523.641970
20
550.946588
11
523.857416
21
551.207008
0
LINE
8
Calque 1
10
523.857416
20
551.207008
11
523.782050
21
551.174900
0
LINE
8
Calque 1
10
523.782050
20
551.174900
11
523.313454
21
550.895750
0
LINE
8
Calque 1
10
523.313454
20
550.895750
11
523.038830
21
550.986200
0
LINE
8
Calque 1
10
523.038830
20
550.986200
11
522.565110
21
551.268000
0
LINE
8
Calque 1
10
522.565110
20
551.268000
11
522.504440
21
551.153900
0
LINE
8
Calque 1
10
522.504440
20
551.153900
11
522.779170
21
550.879600
0
LINE
8
Calque 1
10
522.779170
20
550.879600
11
523.135831
21
550.552187
0
LINE
8
Calque 1
10
523.135831
20
550.552187
11
522.829770
21
550.482700
0
LINE
8
Calque 1
10
522.829770
20
550.482700
11
522.502763
21
550.396187
0
LINE
8
Calque 1
10
522.502763
20
550.396187
11
522.366750
21
550.194100
0
LINE
8
Calque 1
10
522.366750
20
550.194100
11
522.288743
21
550.044400
0
LINE
8
Calque 1
10
522.288743
20
550.044400
11
522.101190
21
550.078000
0
LINE
8
Calque 1
10
522.101190
20
550.078000
11
521.961215
21
550.383362
0
LINE
8
Calque 1
10
521.961215
20
550.383362
11
521.997580
21
550.887400
0
LINE
8
Calque 1
10
521.997580
20
550.887400
11
522.031782
21
551.388500
0
LINE
8
Calque 1
10
522.031782
20
551.388500
11
521.749590
21
551.532600
0
LINE
8
Calque 1
10
521.749590
20
551.532600
11
521.403866
21
551.441675
0
LINE
8
Calque 1
10
521.403866
20
551.441675
11
521.148330
21
551.223100
0
LINE
8
Calque 1
10
521.148330
20
551.223100
11
521.108754
21
551.031825
0
LINE
8
Calque 1
10
521.108754
20
551.031825
11
521.362120
21
551.069000
0
LINE
8
Calque 1
10
521.362120
20
551.069000
11
521.637688
21
551.081675
0
LINE
8
Calque 1
10
521.637688
20
551.081675
11
521.480370
21
550.616600
0
LINE
8
Calque 1
10
521.480370
20
550.616600
11
521.198575
21
550.247036
0
LINE
8
Calque 1
10
521.198575
20
550.247036
11
520.852339
21
550.084313
0
LINE
8
Calque 1
10
520.852339
20
550.084313
11
520.527018
21
550.141808
0
LINE
8
Calque 1
10
520.527018
20
550.141808
11
520.307970
21
550.432900
0
LINE
8
Calque 1
10
520.307970
20
550.432900
11
520.152075
21
550.599963
0
LINE
8
Calque 1
10
520.152075
20
550.599963
11
519.922020
21
550.567300
0
LINE
8
Calque 1
10
519.922020
20
550.567300
11
519.769631
21
550.529213
0
LINE
8
Calque 1
10
519.769631
20
550.529213
11
519.852720
21
550.738100
0
LINE
8
Calque 1
10
519.852720
20
550.738100
11
520.090286
21
550.920550
0
LINE
8
Calque 1
10
520.090286
20
550.920550
11
520.397370
21
550.630800
0
LINE
8
Calque 1
10
520.397370
20
550.630800
11
520.692700
21
550.360813
0
LINE
8
Calque 1
10
520.692700
20
550.360813
11
520.912640
21
550.476100
0
LINE
8
Calque 1
10
520.912640
20
550.476100
11
521.007290
21
550.803627
0
LINE
8
Calque 1
10
521.007290
20
550.803627
11
520.763914
21
550.985137
0
LINE
8
Calque 1
10
520.763914
20
550.985137
11
519.097030
21
550.953800
0
LINE
8
Calque 1
10
519.097030
20
550.953800
11
518.989911
21
550.845636
0
LINE
8
Calque 1
10
518.989911
20
550.845636
11
519.044795
21
550.553787
0
LINE
8
Calque 1
10
519.044795
20
550.553787
11
519.657120
21
549.371900
0
LINE
8
Calque 1
10
519.657120
20
549.371900
11
520.618840
21
547.828400
0
LINE
8
Calque 1
10
520.618840
20
547.828400
11
522.506140
21
549.736900
0
LINE
8
Calque 1
10
522.506140
20
549.736900
11
522.506100
21
549.736900
0
LINE
8
Calque 1
10
518.464110
20
556.199600
11
518.791117
21
556.164787
0
LINE
8
Calque 1
10
518.791117
20
556.164787
11
518.927130
21
556.029100
0
LINE
8
Calque 1
10
518.927130
20
556.029100
11
519.102004
21
555.883488
0
LINE
8
Calque 1
10
519.102004
20
555.883488
11
519.522450
21
555.824200
0
LINE
8
Calque 1
10
519.522450
20
555.824200
11
520.888550
21
555.650900
0
LINE
8
Calque 1
10
520.888550
20
555.650900
11
521.460560
21
555.577313
0
LINE
8
Calque 1
10
521.460560
20
555.577313
11
521.341910
21
555.857800
0
LINE
8
Calque 1
10
521.341910
20
555.857800
11
521.206902
21
556.160538
0
LINE
8
Calque 1
10
521.206902
20
556.160538
11
521.670200
21
556.201600
0
LINE
8
Calque 1
10
521.670200
20
556.201600
11
522.093584
21
556.121438
0
LINE
8
Calque 1
10
522.093584
20
556.121438
11
522.204720
21
555.982700
0
LINE
8
Calque 1
10
522.204720
20
555.982700
11
522.362400
21
555.636300
0
LINE
8
Calque 1
10
522.362400
20
555.636300
11
522.552366
21
555.581925
0
LINE
8
Calque 1
10
522.552366
20
555.581925
11
522.631490
21
555.684300
0
LINE
8
Calque 1
10
522.631490
20
555.684300
11
522.859213
21
555.873538
0
LINE
8
Calque 1
10
522.859213
20
555.873538
11
523.391600
21
555.934450
0
LINE
8
Calque 1
10
523.391600
20
555.934450
11
524.003068
21
555.867788
0
LINE
8
Calque 1
10
524.003068
20
555.867788
11
524.468030
21
555.674300
0
LINE
8
Calque 1
10
524.468030
20
555.674300
11
524.727866
21
555.500125
0
LINE
8
Calque 1
10
524.727866
20
555.500125
11
524.662150
21
555.684300
0
LINE
8
Calque 1
10
524.662150
20
555.684300
11
524.608786
21
555.953800
0
LINE
8
Calque 1
10
524.608786
20
555.953800
11
524.743650
21
556.163000
0
LINE
8
Calque 1
10
524.743650
20
556.163000
11
524.933563
21
556.197863
0
LINE
8
Calque 1
10
524.933563
20
556.197863
11
525.012550
21
556.048900
0
LINE
8
Calque 1
10
525.012550
20
556.048900
11
525.129130
21
555.851013
0
LINE
8
Calque 1
10
525.129130
20
555.851013
11
525.409420
21
555.768700
0
LINE
8
Calque 1
10
525.409420
20
555.768700
11
525.698309
21
555.861920
0
LINE
8
Calque 1
10
525.698309
20
555.861920
11
525.787995
21
556.128138
0
LINE
8
Calque 1
10
525.787995
20
556.128138
11
525.372020
21
557.098900
0
LINE
8
Calque 1
10
525.372020
20
557.098900
11
522.816119
21
559.912775
0
LINE
8
Calque 1
10
522.816119
20
559.912775
11
520.474230
21
562.118700
0
LINE
8
Calque 1
10
520.474230
20
562.118700
11
518.952505
21
559.793813
0
LINE
8
Calque 1
10
518.952505
20
559.793813
11
517.281920
21
556.767300
0
LINE
8
Calque 1
10
517.281920
20
556.767300
11
517.258320
21
555.863600
0
LINE
8
Calque 1
10
517.258320
20
555.863600
11
517.447259
21
555.578113
0
LINE
8
Calque 1
10
517.447259
20
555.578113
11
517.712930
21
555.797600
0
LINE
8
Calque 1
10
517.712930
20
555.797600
11
518.052461
21
556.068188
0
LINE
8
Calque 1
10
518.052461
20
556.068188
11
518.464120
21
556.202200
0
LINE
8
Calque 1
10
518.464120
20
556.202200
11
518.464110
21
556.199600
0
LINE
8
Calque 1
10
504.681310
20
568.136000
11
507.015818
21
571.321250
0
LINE
8
Calque 1
10
507.015818
20
571.321250
11
508.594400
21
573.942200
0
LINE
8
Calque 1
10
508.594400
20
573.942200
11
478.344400
21
604.552300
0
LINE
8
Calque 1
10
478.344400
20
604.552300
11
448.108400
21
634.950200
0
LINE
8
Calque 1
10
448.108400
20
634.950200
11
445.351600
21
633.893300
0
LINE
8
Calque 1
10
445.351600
20
633.893300
11
440.630600
21
632.247300
0
LINE
8
Calque 1
10
440.630600
20
632.247300
11
438.666390
21
631.658200
0
LINE
8
Calque 1
10
438.666390
20
631.658200
11
459.416890
21
610.976100
0
LINE
8
Calque 1
10
459.416890
20
610.976100
11
492.393728
21
578.213162
0
LINE
8
Calque 1
10
492.393728
20
578.213162
11
496.197429
21
574.707295
0
LINE
8
Calque 1
10
496.197429
20
574.707295
11
496.664419
21
574.487565
0
LINE
8
Calque 1
10
496.664419
20
574.487565
11
496.836290
21
574.647800
0
LINE
8
Calque 1
10
496.836290
20
574.647800
11
497.228126
21
574.879014
0
LINE
8
Calque 1
10
497.228126
20
574.879014
11
498.024328
21
575.003588
0
LINE
8
Calque 1
10
498.024328
20
575.003588
11
502.056080
21
575.020300
0
LINE
8
Calque 1
10
502.056080
20
575.020300
11
505.662335
21
574.891308
0
LINE
8
Calque 1
10
505.662335
20
574.891308
11
506.659552
21
574.691053
0
LINE
8
Calque 1
10
506.659552
20
574.691053
11
507.166524
21
574.317612
0
LINE
8
Calque 1
10
507.166524
20
574.317612
11
507.218518
21
573.708977
0
LINE
8
Calque 1
10
507.218518
20
573.708977
11
506.850806
21
572.803136
0
LINE
8
Calque 1
10
506.850806
20
572.803136
11
504.997340
21
569.851800
0
LINE
8
Calque 1
10
504.997340
20
569.851800
11
503.316630
21
567.222800
0
LINE
8
Calque 1
10
503.316630
20
567.222800
11
503.424012
21
567.109353
0
LINE
8
Calque 1
10
503.424012
20
567.109353
11
503.716703
21
567.243425
0
LINE
8
Calque 1
10
503.716703
20
567.243425
11
504.681270
21
568.136000
0
LINE
8
Calque 1
10
504.681270
20
568.136000
11
504.681310
21
568.136000
0
LINE
8
Calque 1
10
344.963310
20
576.405000
11
350.112726
21
577.398738
0
LINE
8
Calque 1
10
350.112726
20
577.398738
11
352.285548
21
577.645327
0
LINE
8
Calque 1
10
352.285548
20
577.645327
11
353.457290
21
577.620200
0
LINE
8
Calque 1
10
353.457290
20
577.620200
11
353.785340
21
577.359488
0
LINE
8
Calque 1
10
353.785340
20
577.359488
11
354.037250
21
576.939100
0
LINE
8
Calque 1
10
354.037250
20
576.939100
11
354.225761
21
576.741117
0
LINE
8
Calque 1
10
354.225761
20
576.741117
11
354.643143
21
576.938488
0
LINE
8
Calque 1
10
354.643143
20
576.938488
11
356.844930
21
579.024600
0
LINE
8
Calque 1
10
356.844930
20
579.024600
11
359.454930
21
581.644400
0
LINE
8
Calque 1
10
359.454930
20
581.644400
11
358.629100
21
582.071400
0
LINE
8
Calque 1
10
358.629100
20
582.071400
11
357.994276
21
582.566338
0
LINE
8
Calque 1
10
357.994276
20
582.566338
11
357.637260
21
583.159900
0
LINE
8
Calque 1
10
357.637260
20
583.159900
11
357.639245
21
584.494602
0
LINE
8
Calque 1
10
357.639245
20
584.494602
11
357.967386
21
586.662338
0
LINE
8
Calque 1
10
357.967386
20
586.662338
11
358.532019
21
589.191405
0
LINE
8
Calque 1
10
358.532019
20
589.191405
11
359.243480
21
591.610100
0
LINE
8
Calque 1
10
359.243480
20
591.610100
11
360.083840
21
594.311700
0
LINE
8
Calque 1
10
360.083840
20
594.311700
11
350.507850
21
584.825200
0
LINE
8
Calque 1
10
350.507850
20
584.825200
11
343.944534
21
578.137713
0
LINE
8
Calque 1
10
343.944534
20
578.137713
11
342.068923
21
576.147555
0
LINE
8
Calque 1
10
342.068923
20
576.147555
11
341.523730
21
575.469100
0
LINE
8
Calque 1
10
341.523730
20
575.469100
11
344.963310
21
576.405000
0
LINE
8
Calque 1
10
344.963310
20
576.405000
11
344.963310
21
576.405000
0
LINE
8
Calque 1
10
439.258810
20
641.793600
11
440.399927
21
642.361475
0
LINE
8
Calque 1
10
440.399927
20
642.361475
11
440.400589
21
642.579019
0
LINE
8
Calque 1
10
440.400589
20
642.579019
11
440.127160
21
642.885400
0
LINE
8
Calque 1
10
440.127160
20
642.885400
11
439.798878
21
643.163298
0
LINE
8
Calque 1
10
439.798878
20
643.163298
11
439.435941
21
643.192338
0
LINE
8
Calque 1
10
439.435941
20
643.192338
11
437.729290
21
642.283900
0
LINE
8
Calque 1
10
437.729290
20
642.283900
11
435.847740
21
641.030100
0
LINE
8
Calque 1
10
435.847740
20
641.030100
11
436.188066
21
640.958513
0
LINE
8
Calque 1
10
436.188066
20
640.958513
11
437.039532
21
641.099850
0
LINE
8
Calque 1
10
437.039532
20
641.099850
11
439.258810
21
641.793600
0
LINE
8
Calque 1
10
439.258810
20
641.793600
11
439.258810
21
641.793600
0
LINE
8
Calque 1
10
415.474810
20
645.942900
11
418.066000
21
647.351461
0
LINE
8
Calque 1
10
418.066000
20
647.351461
11
421.083206
21
649.198538
0
LINE
8
Calque 1
10
421.083206
20
649.198538
11
424.140464
21
651.237220
0
LINE
8
Calque 1
10
424.140464
20
651.237220
11
426.851810
21
653.220600
0
LINE
8
Calque 1
10
426.851810
20
653.220600
11
428.496460
21
654.499300
0
LINE
8
Calque 1
10
428.496460
20
654.499300
11
427.768660
21
655.259000
0
LINE
8
Calque 1
10
427.768660
20
655.259000
11
426.538146
21
656.205795
0
LINE
8
Calque 1
10
426.538146
20
656.205795
11
425.126189
21
656.736238
0
LINE
8
Calque 1
10
425.126189
20
656.736238
11
423.658347
21
656.823411
0
LINE
8
Calque 1
10
423.658347
20
656.823411
11
422.260180
21
656.440400
0
LINE
8
Calque 1
10
422.260180
20
656.440400
11
419.766562
21
654.252588
0
LINE
8
Calque 1
10
419.766562
20
654.252588
11
414.944150
21
649.548900
0
LINE
8
Calque 1
10
414.944150
20
649.548900
11
408.463350
21
643.053800
0
LINE
8
Calque 1
10
408.463350
20
643.053800
11
410.447730
21
643.749700
0
LINE
8
Calque 1
10
410.447730
20
643.749700
11
415.474810
21
645.942900
0
LINE
8
Calque 1
10
415.474810
20
645.942900
11
415.474810
21
645.942900
 0 
ENDSEC
 0 
EOF