999
"DXF R12 Output" (www.mydxf.blogspot.com)
 0 
SECTION
 2 
HEADER
 9 
$ACADVER
 1 
AC1009
 9 
$EXTMIN
 10 
 0 
 20 
 0 
 9 
$EXTMAX
 10 
 8.5 
 20 
 11 
 0 
ENDSEC
 0 
SECTION
 2 
ENTITIES
0
LINE
8
Calque 1
10
326.585000
20
507.659000
11
247.342600
21
586.901800
0
LINE
8
Calque 1
10
247.342600
20
586.901800
11
326.651300
21
666.210600
0
LINE
8
Calque 1
10
326.651300
20
666.210600
11
405.960000
21
745.519300
0
LINE
8
Calque 1
10
405.960000
20
745.519300
11
485.268800
21
666.210600
0
LINE
8
Calque 1
10
485.268800
20
666.210600
11
564.577600
21
586.901800
0
LINE
8
Calque 1
10
564.577600
20
586.901800
11
485.335200
21
507.659000
0
LINE
8
Calque 1
10
485.335200
20
507.659000
11
405.960100
21
428.416300
0
LINE
8
Calque 1
10
405.960100
20
428.416300
11
326.585100
21
507.659000
0
LINE
8
Calque 1
10
326.585100
20
507.659000
11
326.585000
21
507.659000
0
LINE
8
Calque 1
10
408.076700
20
439.624600
11
410.416224
21
441.618812
0
LINE
8
Calque 1
10
410.416224
20
441.618812
11
411.508733
21
442.741370
0
LINE
8
Calque 1
10
411.508733
20
442.741370
11
411.821240
21
443.243500
0
LINE
8
Calque 1
10
411.821240
20
443.243500
11
412.384030
21
443.653000
0
LINE
8
Calque 1
10
412.384030
20
443.653000
11
412.856501
21
444.010612
0
LINE
8
Calque 1
10
412.856501
20
444.010612
11
412.959680
21
444.310400
0
LINE
8
Calque 1
10
412.959680
20
444.310400
11
412.912992
21
444.471675
0
LINE
8
Calque 1
10
412.912992
20
444.471675
11
413.025080
21
444.496300
0
LINE
8
Calque 1
10
413.025080
20
444.496300
11
414.551029
21
445.805075
0
LINE
8
Calque 1
10
414.551029
20
445.805075
11
417.903490
21
449.053800
0
LINE
8
Calque 1
10
417.903490
20
449.053800
11
423.188020
21
454.259900
0
LINE
8
Calque 1
10
423.188020
20
454.259900
11
424.807300
21
455.913500
0
LINE
8
Calque 1
10
424.807300
20
455.913500
11
426.072370
21
456.991300
0
LINE
8
Calque 1
10
426.072370
20
456.991300
11
426.316087
21
457.116312
0
LINE
8
Calque 1
10
426.316087
20
457.116312
11
426.512840
21
457.416900
0
LINE
8
Calque 1
10
426.512840
20
457.416900
11
427.674120
21
458.805900
0
LINE
8
Calque 1
10
427.674120
20
458.805900
11
429.949900
21
461.000700
0
LINE
8
Calque 1
10
429.949900
20
461.000700
11
432.385480
21
463.448100
0
LINE
8
Calque 1
10
432.385480
20
463.448100
11
433.774550
21
464.664200
0
LINE
8
Calque 1
10
433.774550
20
464.664200
11
433.944259
21
464.761337
0
LINE
8
Calque 1
10
433.944259
20
464.761337
11
434.027500
21
464.994900
0
LINE
8
Calque 1
10
434.027500
20
464.994900
11
434.570486
21
465.694812
0
LINE
8
Calque 1
10
434.570486
20
465.694812
11
435.845570
21
466.913200
0
LINE
8
Calque 1
10
435.845570
20
466.913200
11
437.073405
21
468.104625
0
LINE
8
Calque 1
10
437.073405
20
468.104625
11
437.502820
21
468.740000
0
LINE
8
Calque 1
10
437.502820
20
468.740000
11
437.499396
21
468.850250
0
LINE
8
Calque 1
10
437.499396
20
468.850250
11
437.686930
21
468.779000
0
LINE
8
Calque 1
10
437.686930
20
468.779000
11
437.963465
21
468.775462
0
LINE
8
Calque 1
10
437.963465
20
468.775462
11
438.154770
21
469.132000
0
LINE
8
Calque 1
10
438.154770
20
469.132000
11
438.314039
21
469.487125
0
LINE
8
Calque 1
10
438.314039
20
469.487125
11
438.493970
21
469.564600
0
LINE
8
Calque 1
10
438.493970
20
469.564600
11
438.798070
21
469.671350
0
LINE
8
Calque 1
10
438.798070
20
469.671350
11
439.255890
21
470.096700
0
LINE
8
Calque 1
10
439.255890
20
470.096700
11
439.656950
21
470.749100
0
LINE
8
Calque 1
10
439.656950
20
470.749100
11
440.254010
21
471.334300
0
LINE
8
Calque 1
10
440.254010
20
471.334300
11
443.270440
21
474.178600
0
LINE
8
Calque 1
10
443.270440
20
474.178600
11
446.577740
21
477.397100
0
LINE
8
Calque 1
10
446.577740
20
477.397100
11
450.118550
21
480.902800
0
LINE
8
Calque 1
10
450.118550
20
480.902800
11
451.953894
21
482.701137
0
LINE
8
Calque 1
10
451.953894
20
482.701137
11
452.874620
21
483.449100
0
LINE
8
Calque 1
10
452.874620
20
483.449100
11
453.019485
21
483.494675
0
LINE
8
Calque 1
10
453.019485
20
483.494675
11
452.989450
21
483.603700
0
LINE
8
Calque 1
10
452.989450
20
483.603700
11
453.320779
21
484.104212
0
LINE
8
Calque 1
10
453.320779
20
484.104212
11
454.334420
21
485.090500
0
LINE
8
Calque 1
10
454.334420
20
485.090500
11
457.048120
21
487.712600
0
LINE
8
Calque 1
10
457.048120
20
487.712600
11
457.956992
21
488.572150
0
LINE
8
Calque 1
10
457.956992
20
488.572150
11
458.437180
21
488.827500
0
LINE
8
Calque 1
10
458.437180
20
488.827500
11
458.560710
21
488.833762
0
LINE
8
Calque 1
10
458.560710
20
488.833762
11
458.612090
21
489.093600
0
LINE
8
Calque 1
10
458.612090
20
489.093600
11
458.733259
21
489.404987
0
LINE
8
Calque 1
10
458.733259
20
489.404987
11
459.024580
21
489.534500
0
LINE
8
Calque 1
10
459.024580
20
489.534500
11
459.273307
21
489.603425
0
LINE
8
Calque 1
10
459.273307
20
489.603425
11
459.292070
21
489.769100
0
LINE
8
Calque 1
10
459.292070
20
489.769100
11
459.305416
21
490.030887
0
LINE
8
Calque 1
10
459.305416
20
490.030887
11
459.541040
21
490.330700
0
LINE
8
Calque 1
10
459.541040
20
490.330700
11
459.935000
21
490.483800
0
LINE
8
Calque 1
10
459.935000
20
490.483800
11
460.794440
21
491.311300
0
LINE
8
Calque 1
10
460.794440
20
491.311300
11
461.918910
21
492.487700
0
LINE
8
Calque 1
10
461.918910
20
492.487700
11
465.438040
21
495.863600
0
LINE
8
Calque 1
10
465.438040
20
495.863600
11
469.338370
21
499.487700
0
LINE
8
Calque 1
10
469.338370
20
499.487700
11
469.752007
21
499.855987
0
LINE
8
Calque 1
10
469.752007
20
499.855987
11
469.838990
21
500.146800
0
LINE
8
Calque 1
10
469.838990
20
500.146800
11
469.806990
21
500.313200
0
LINE
8
Calque 1
10
469.806990
20
500.313200
11
469.934590
21
500.382400
0
LINE
8
Calque 1
10
469.934590
20
500.382400
11
472.649540
21
502.763700
0
LINE
8
Calque 1
10
472.649540
20
502.763700
11
475.334310
21
505.144900
0
LINE
8
Calque 1
10
475.334310
20
505.144900
11
475.483379
21
505.261487
0
LINE
8
Calque 1
10
475.483379
20
505.261487
11
475.545380
21
505.541800
0
LINE
8
Calque 1
10
475.545380
20
505.541800
11
475.619530
21
505.822112
0
LINE
8
Calque 1
10
475.619530
20
505.822112
11
475.797810
21
505.938700
0
LINE
8
Calque 1
10
475.797810
20
505.938700
11
477.804240
21
507.658500
0
LINE
8
Calque 1
10
477.804240
20
507.658500
11
479.661620
21
509.378300
0
LINE
8
Calque 1
10
479.661620
20
509.378300
11
482.256980
21
511.825700
0
LINE
8
Calque 1
10
482.256980
20
511.825700
11
486.665660
21
515.992900
0
LINE
8
Calque 1
10
486.665660
20
515.992900
11
493.369950
21
522.206900
0
LINE
8
Calque 1
10
493.369950
20
522.206900
11
494.406561
21
523.113713
0
LINE
8
Calque 1
10
494.406561
20
523.113713
11
494.992250
21
523.441600
0
LINE
8
Calque 1
10
494.992250
20
523.441600
11
495.124725
21
523.436562
0
LINE
8
Calque 1
10
495.124725
20
523.436562
11
495.071650
21
523.542300
0
LINE
8
Calque 1
10
495.071650
20
523.542300
11
495.331485
21
524.040091
0
LINE
8
Calque 1
10
495.331485
20
524.040091
11
496.125750
21
524.930075
0
LINE
8
Calque 1
10
496.125750
20
524.930075
11
497.018032
21
525.765722
0
LINE
8
Calque 1
10
497.018032
20
525.765722
11
497.571920
21
526.100500
0
LINE
8
Calque 1
10
497.571920
20
526.100500
11
497.712067
21
526.184075
0
LINE
8
Calque 1
10
497.712067
20
526.184075
11
497.770360
21
526.459500
0
LINE
8
Calque 1
10
497.770360
20
526.459500
11
497.837111
21
526.709587
0
LINE
8
Calque 1
10
497.837111
20
526.709587
11
497.997590
21
526.731600
0
LINE
8
Calque 1
10
497.997590
20
526.731600
11
498.829685
21
527.280350
0
LINE
8
Calque 1
10
498.829685
20
527.280350
11
500.511140
21
528.796600
0
LINE
8
Calque 1
10
500.511140
20
528.796600
11
502.797440
21
530.866500
0
LINE
8
Calque 1
10
502.797440
20
530.866500
11
503.574710
21
531.497900
0
LINE
8
Calque 1
10
503.574710
20
531.497900
11
505.583130
21
533.323100
0
LINE
8
Calque 1
10
505.583130
20
533.323100
11
508.176760
21
535.638200
0
LINE
8
Calque 1
10
508.176760
20
535.638200
11
509.239339
21
536.525750
0
LINE
8
Calque 1
10
509.239339
20
536.525750
11
509.880800
21
536.894900
0
LINE
8
Calque 1
10
509.880800
20
536.894900
11
510.166607
21
537.011075
0
LINE
8
Calque 1
10
510.166607
20
537.011075
11
510.374100
21
537.290300
0
LINE
8
Calque 1
10
510.374100
20
537.290300
11
510.550809
21
537.526550
0
LINE
8
Calque 1
10
510.550809
20
537.526550
11
510.762670
21
537.539300
0
LINE
8
Calque 1
10
510.762670
20
537.539300
11
510.929951
21
537.554838
0
LINE
8
Calque 1
10
510.929951
20
537.554838
11
510.999530
21
537.798600
0
LINE
8
Calque 1
10
510.999530
20
537.798600
11
511.232691
21
538.205675
0
LINE
8
Calque 1
10
511.232691
20
538.205675
11
511.793280
21
538.614700
0
LINE
8
Calque 1
10
511.793280
20
538.614700
11
512.353865
21
538.975325
0
LINE
8
Calque 1
10
512.353865
20
538.975325
11
512.587030
21
539.265900
0
LINE
8
Calque 1
10
512.587030
20
539.265900
11
512.857104
21
539.533475
0
LINE
8
Calque 1
10
512.857104
20
539.533475
11
513.506430
21
539.839000
0
LINE
8
Calque 1
10
513.506430
20
539.839000
11
514.309490
21
540.287800
0
LINE
8
Calque 1
10
514.309490
20
540.287800
11
514.275122
21
540.560064
0
LINE
8
Calque 1
10
514.275122
20
540.560064
11
514.470907
21
540.903813
0
LINE
8
Calque 1
10
514.470907
20
540.903813
11
514.779144
21
541.175355
0
LINE
8
Calque 1
10
514.779144
20
541.175355
11
515.082130
21
541.231000
0
LINE
8
Calque 1
10
515.082130
20
541.231000
11
515.517419
21
541.357450
0
LINE
8
Calque 1
10
515.517419
20
541.357450
11
516.053890
21
541.902400
0
LINE
8
Calque 1
10
516.053890
20
541.902400
11
516.585182
21
542.476838
0
LINE
8
Calque 1
10
516.585182
20
542.476838
11
517.018030
21
542.715800
0
LINE
8
Calque 1
10
517.018030
20
542.715800
11
517.231630
21
542.784675
0
LINE
8
Calque 1
10
517.231630
20
542.784675
11
517.235830
21
542.950300
0
LINE
8
Calque 1
10
517.235830
20
542.950300
11
517.295865
21
543.158375
0
LINE
8
Calque 1
10
517.295865
20
543.158375
11
517.643720
21
543.329400
0
LINE
8
Calque 1
10
517.643720
20
543.329400
11
517.999680
21
543.520700
0
LINE
8
Calque 1
10
517.999680
20
543.520700
11
517.996720
21
543.797200
0
LINE
8
Calque 1
10
517.996720
20
543.797200
11
517.927341
21
543.982625
0
LINE
8
Calque 1
10
517.927341
20
543.982625
11
518.052220
21
543.962700
0
LINE
8
Calque 1
10
518.052220
20
543.962700
11
524.556761
21
550.175750
0
LINE
8
Calque 1
10
524.556761
20
550.175750
11
539.836820
21
565.335400
0
LINE
8
Calque 1
10
539.836820
20
565.335400
11
561.366120
21
586.865800
0
LINE
8
Calque 1
10
561.366120
20
586.865800
11
556.836950
21
591.579900
0
LINE
8
Calque 1
10
556.836950
20
591.579900
11
479.133850
21
669.451000
0
LINE
8
Calque 1
10
479.133850
20
669.451000
11
405.959950
21
742.608100
0
LINE
8
Calque 1
10
405.959950
20
742.608100
11
332.786050
21
669.451000
0
LINE
8
Calque 1
10
332.786050
20
669.451000
11
255.082950
21
591.579900
0
LINE
8
Calque 1
10
255.082950
20
591.579900
11
250.553810
21
586.865800
0
LINE
8
Calque 1
10
250.553810
20
586.865800
11
272.480010
21
564.938500
0
LINE
8
Calque 1
10
272.480010
20
564.938500
11
294.554410
21
543.079000
0
LINE
8
Calque 1
10
294.554410
20
543.079000
11
295.288540
21
542.534400
0
LINE
8
Calque 1
10
295.288540
20
542.534400
11
295.701000
21
541.922000
0
LINE
8
Calque 1
10
295.701000
20
541.922000
11
295.620855
21
541.888568
0
LINE
8
Calque 1
10
295.620855
20
541.888568
11
295.672749
21
541.800366
0
LINE
8
Calque 1
10
295.672749
20
541.800366
11
296.049546
21
541.532200
0
LINE
8
Calque 1
10
296.049546
20
541.532200
11
297.033410
21
541.136700
0
LINE
8
Calque 1
10
297.033410
20
541.136700
11
297.323411
21
541.054763
0
LINE
8
Calque 1
10
297.323411
20
541.054763
11
297.348520
21
540.863700
0
LINE
8
Calque 1
10
297.348520
20
540.863700
11
297.354216
21
540.676838
0
LINE
8
Calque 1
10
297.354216
20
540.676838
11
297.597490
21
540.599100
0
LINE
8
Calque 1
10
297.597490
20
540.599100
11
297.901077
21
540.434500
0
LINE
8
Calque 1
10
297.901077
20
540.434500
11
298.028580
21
540.003800
0
LINE
8
Calque 1
10
298.028580
20
540.003800
11
298.076877
21
539.568388
0
LINE
8
Calque 1
10
298.076877
20
539.568388
11
298.274560
21
539.937800
0
LINE
8
Calque 1
10
298.274560
20
539.937800
11
298.492486
21
540.230838
0
LINE
8
Calque 1
10
298.492486
20
540.230838
11
298.638360
21
539.562900
0
LINE
8
Calque 1
10
298.638360
20
539.562900
11
298.912290
21
539.099900
0
LINE
8
Calque 1
10
298.912290
20
539.099900
11
299.031496
21
539.034900
0
LINE
8
Calque 1
10
299.031496
20
539.034900
11
298.962790
21
539.210200
0
LINE
8
Calque 1
10
298.962790
20
539.210200
11
298.896437
21
539.533505
0
LINE
8
Calque 1
10
298.896437
20
539.533505
11
299.337914
21
539.313838
0
LINE
8
Calque 1
10
299.337914
20
539.313838
11
301.301050
21
537.556500
0
LINE
8
Calque 1
10
301.301050
20
537.556500
11
301.983117
21
536.925638
0
LINE
8
Calque 1
10
301.983117
20
536.925638
11
302.143363
21
536.824448
0
LINE
8
Calque 1
10
302.143363
20
536.824448
11
302.146110
21
536.895000
0
LINE
8
Calque 1
10
302.146110
20
536.895000
11
302.167834
21
536.961775
0
LINE
8
Calque 1
10
302.167834
20
536.961775
11
302.510310
21
536.564300
0
LINE
8
Calque 1
10
302.510310
20
536.564300
11
303.347440
21
535.836700
0
LINE
8
Calque 1
10
303.347440
20
535.836700
11
304.240892
21
535.257625
0
LINE
8
Calque 1
10
304.240892
20
535.257625
11
306.696400
21
532.992400
0
LINE
8
Calque 1
10
306.696400
20
532.992400
11
308.391050
21
531.603400
0
LINE
8
Calque 1
10
308.391050
20
531.603400
11
308.506706
21
531.523750
0
LINE
8
Calque 1
10
308.506706
20
531.523750
11
308.456950
21
531.332200
0
LINE
8
Calque 1
10
308.456950
20
531.332200
11
308.407900
21
531.162088
0
LINE
8
Calque 1
10
308.407900
20
531.162088
11
308.525350
21
531.133800
0
LINE
8
Calque 1
10
308.525350
20
531.133800
11
309.711026
21
530.370563
0
LINE
8
Calque 1
10
309.711026
20
530.370563
11
310.713920
21
529.359000
0
LINE
8
Calque 1
10
310.713920
20
529.359000
11
310.908350
21
529.185900
0
LINE
8
Calque 1
10
310.908350
20
529.185900
11
312.098680
21
528.127500
0
LINE
8
Calque 1
10
312.098680
20
528.127500
11
313.331930
21
527.105500
0
LINE
8
Calque 1
10
313.331930
20
527.105500
11
314.241190
21
526.311700
0
LINE
8
Calque 1
10
314.241190
20
526.311700
11
315.052110
21
525.518000
0
LINE
8
Calque 1
10
315.052110
20
525.518000
11
317.125870
21
523.599700
0
LINE
8
Calque 1
10
317.125870
20
523.599700
11
323.436830
21
517.712800
0
LINE
8
Calque 1
10
323.436830
20
517.712800
11
324.869190
21
516.253900
0
LINE
8
Calque 1
10
324.869190
20
516.253900
11
326.188040
21
514.975200
0
LINE
8
Calque 1
10
326.188040
20
514.975200
11
329.311290
21
512.134600
0
LINE
8
Calque 1
10
329.311290
20
512.134600
11
331.727560
21
509.907500
0
LINE
8
Calque 1
10
331.727560
20
509.907500
11
332.885292
21
508.831525
0
LINE
8
Calque 1
10
332.885292
20
508.831525
11
333.779250
21
507.665100
0
LINE
8
Calque 1
10
333.779250
20
507.665100
11
333.810799
21
507.567200
0
LINE
8
Calque 1
10
333.810799
20
507.567200
11
334.081440
21
507.526300
0
LINE
8
Calque 1
10
334.081440
20
507.526300
11
334.392877
21
507.451050
0
LINE
8
Calque 1
10
334.392877
20
507.451050
11
334.522410
21
507.270200
0
LINE
8
Calque 1
10
334.522410
20
507.270200
11
334.714117
21
506.988850
0
LINE
8
Calque 1
10
334.714117
20
506.988850
11
335.175030
21
506.672100
0
LINE
8
Calque 1
10
335.175030
20
506.672100
11
335.832845
21
506.163700
0
LINE
8
Calque 1
10
335.832845
20
506.163700
11
336.497950
21
505.421600
0
LINE
8
Calque 1
10
336.497950
20
505.421600
11
336.971347
21
504.848450
0
LINE
8
Calque 1
10
336.971347
20
504.848450
11
337.168250
21
504.746300
0
LINE
8
Calque 1
10
337.168250
20
504.746300
11
337.401411
21
504.687588
0
LINE
8
Calque 1
10
337.401411
20
504.687588
11
337.962000
21
504.219000
0
LINE
8
Calque 1
10
337.962000
20
504.219000
11
338.522585
21
503.575325
0
LINE
8
Calque 1
10
338.522585
20
503.575325
11
338.755750
21
503.095600
0
LINE
8
Calque 1
10
338.755750
20
503.095600
11
338.830926
21
502.885638
0
LINE
8
Calque 1
10
338.830926
20
502.885638
11
339.011680
21
502.890700
0
LINE
8
Calque 1
10
339.011680
20
502.890700
11
339.291386
21
502.844175
0
LINE
8
Calque 1
10
339.291386
20
502.844175
11
339.604490
21
502.509500
0
LINE
8
Calque 1
10
339.604490
20
502.509500
11
340.153790
21
501.970000
0
LINE
8
Calque 1
10
340.153790
20
501.970000
11
341.611500
21
500.619500
0
LINE
8
Calque 1
10
341.611500
20
500.619500
11
343.179980
21
498.965900
0
LINE
8
Calque 1
10
343.179980
20
498.965900
11
346.042270
21
496.215400
0
LINE
8
Calque 1
10
346.042270
20
496.215400
11
347.920877
21
494.486913
0
LINE
8
Calque 1
10
347.920877
20
494.486913
11
348.872020
21
493.768000
0
LINE
8
Calque 1
10
348.872020
20
493.768000
11
349.032362
21
493.723000
0
LINE
8
Calque 1
10
349.032362
20
493.723000
11
349.009690
21
493.615000
0
LINE
8
Calque 1
10
349.009690
20
493.615000
11
349.273759
21
493.187916
0
LINE
8
Calque 1
10
349.273759
20
493.187916
11
350.132707
21
492.279800
0
LINE
8
Calque 1
10
350.132707
20
492.279800
11
352.713230
21
489.936300
0
LINE
8
Calque 1
10
352.713230
20
489.936300
11
353.273399
21
489.340100
0
LINE
8
Calque 1
10
353.273399
20
489.340100
11
353.398410
21
488.915200
0
LINE
8
Calque 1
10
353.398410
20
488.915200
11
353.339485
21
488.757688
0
LINE
8
Calque 1
10
353.339485
20
488.757688
11
353.444210
21
488.809500
0
LINE
8
Calque 1
10
353.444210
20
488.809500
11
353.784882
21
488.777628
0
LINE
8
Calque 1
10
353.784882
20
488.777628
11
354.271041
21
488.431825
0
LINE
8
Calque 1
10
354.271041
20
488.431825
11
354.706563
21
487.948509
0
LINE
8
Calque 1
10
354.706563
20
487.948509
11
354.895320
21
487.504100
0
LINE
8
Calque 1
10
354.895320
20
487.504100
11
354.962354
21
487.256413
0
LINE
8
Calque 1
10
354.962354
20
487.256413
11
355.123520
21
487.153400
0
LINE
8
Calque 1
10
355.123520
20
487.153400
11
356.313084
21
486.384350
0
LINE
8
Calque 1
10
356.313084
20
486.384350
11
356.923257
21
485.821794
0
LINE
8
Calque 1
10
356.923257
20
485.821794
11
357.117500
21
485.495000
0
LINE
8
Calque 1
10
357.117500
20
485.495000
11
357.239769
21
485.263163
0
LINE
8
Calque 1
10
357.239769
20
485.263163
11
357.733370
21
484.905100
0
LINE
8
Calque 1
10
357.733370
20
484.905100
11
358.450057
21
484.324200
0
LINE
8
Calque 1
10
358.450057
20
484.324200
11
359.108710
21
483.556400
0
LINE
8
Calque 1
10
359.108710
20
483.556400
11
359.910010
21
482.655500
0
LINE
8
Calque 1
10
359.910010
20
482.655500
11
361.132670
21
481.577300
0
LINE
8
Calque 1
10
361.132670
20
481.577300
11
363.097400
21
479.606000
0
LINE
8
Calque 1
10
363.097400
20
479.606000
11
368.831640
21
474.003400
0
LINE
8
Calque 1
10
368.831640
20
474.003400
11
375.384640
21
467.645100
0
LINE
8
Calque 1
10
375.384640
20
467.645100
11
377.132340
21
465.866900
0
LINE
8
Calque 1
10
377.132340
20
465.866900
11
379.740490
21
463.344900
0
LINE
8
Calque 1
10
379.740490
20
463.344900
11
380.221660
21
462.811700
0
LINE
8
Calque 1
10
380.221660
20
462.811700
11
381.785470
21
461.158100
0
LINE
8
Calque 1
10
381.785470
20
461.158100
11
385.136814
21
457.884713
0
LINE
8
Calque 1
10
385.136814
20
457.884713
11
385.851570
21
456.970000
0
LINE
8
Calque 1
10
385.851570
20
456.970000
11
385.948722
21
456.790988
0
LINE
8
Calque 1
10
385.948722
20
456.790988
11
386.182300
21
456.702800
0
LINE
8
Calque 1
10
386.182300
20
456.702800
11
386.804482
21
456.233625
0
LINE
8
Calque 1
10
386.804482
20
456.233625
11
387.835940
21
455.138800
0
LINE
8
Calque 1
10
387.835940
20
455.138800
11
389.365380
21
453.574800
0
LINE
8
Calque 1
10
389.365380
20
453.574800
11
390.384980
21
452.625300
0
LINE
8
Calque 1
10
390.384980
20
452.625300
11
391.070182
21
451.971225
0
LINE
8
Calque 1
10
391.070182
20
451.971225
11
391.575820
21
451.699200
0
LINE
8
Calque 1
10
391.575820
20
451.699200
11
391.893342
21
451.563213
0
LINE
8
Calque 1
10
391.893342
20
451.563213
11
392.126250
21
451.236200
0
LINE
8
Calque 1
10
392.126250
20
451.236200
11
392.546863
21
450.568400
0
LINE
8
Calque 1
10
392.546863
20
450.568400
11
393.243330
21
449.776700
0
LINE
8
Calque 1
10
393.243330
20
449.776700
11
393.940307
21
449.142800
0
LINE
8
Calque 1
10
393.940307
20
449.142800
11
394.362450
21
448.948400
0
LINE
8
Calque 1
10
394.362450
20
448.948400
11
394.592895
21
448.850013
0
LINE
8
Calque 1
10
394.592895
20
448.850013
11
394.836090
21
448.421700
0
LINE
8
Calque 1
10
394.836090
20
448.421700
11
395.231461
21
447.814825
0
LINE
8
Calque 1
10
395.231461
20
447.814825
11
395.827780
21
447.287600
0
LINE
8
Calque 1
10
395.827780
20
447.287600
11
396.769620
21
446.496400
0
LINE
8
Calque 1
10
396.769620
20
446.496400
11
397.830944
21
445.322963
0
LINE
8
Calque 1
10
397.830944
20
445.322963
11
398.805650
21
444.555500
0
LINE
8
Calque 1
10
398.805650
20
444.555500
11
399.164360
21
443.999700
0
LINE
8
Calque 1
10
399.164360
20
443.999700
11
399.349916
21
443.658225
0
LINE
8
Calque 1
10
399.349916
20
443.658225
11
399.592090
21
443.618400
0
LINE
8
Calque 1
10
399.592090
20
443.618400
11
399.791535
21
443.659200
0
LINE
8
Calque 1
10
399.791535
20
443.659200
11
399.874490
21
443.512800
0
LINE
8
Calque 1
10
399.874490
20
443.512800
11
400.461405
21
442.678583
0
LINE
8
Calque 1
10
400.461405
20
442.678583
11
401.792625
21
441.332463
0
LINE
8
Calque 1
10
401.792625
20
441.332463
11
403.223865
21
440.080411
0
LINE
8
Calque 1
10
403.223865
20
440.080411
11
404.110840
21
439.528400
0
LINE
8
Calque 1
10
404.110840
20
439.528400
11
404.295567
21
439.437725
0
LINE
8
Calque 1
10
404.295567
20
439.437725
11
404.372400
21
439.219700
0
LINE
8
Calque 1
10
404.372400
20
439.219700
11
404.416191
21
439.045463
0
LINE
8
Calque 1
10
404.416191
20
439.045463
11
404.521430
21
439.060000
0
LINE
8
Calque 1
10
404.521430
20
439.060000
11
405.381330
21
439.016000
0
LINE
8
Calque 1
10
405.381330
20
439.016000
11
405.990426
21
438.914530
0
LINE
8
Calque 1
10
405.990426
20
438.914530
11
406.588962
21
438.969838
0
LINE
8
Calque 1
10
406.588962
20
438.969838
11
408.076570
21
439.623800
0
LINE
8
Calque 1
10
408.076570
20
439.623800
11
408.076700
21
439.624600
0
LINE
8
Calque 1
10
342.592300
20
523.666400
11
279.357200
21
586.901800
0
LINE
8
Calque 1
10
279.357200
20
586.901800
11
342.658600
21
650.203300
0
LINE
8
Calque 1
10
342.658600
20
650.203300
11
405.960000
21
713.504700
0
LINE
8
Calque 1
10
405.960000
20
713.504700
11
469.261400
21
650.203300
0
LINE
8
Calque 1
10
469.261400
20
650.203300
11
532.562800
21
586.901800
0
LINE
8
Calque 1
10
532.562800
20
586.901800
11
469.327700
21
523.666400
0
LINE
8
Calque 1
10
469.327700
20
523.666400
11
405.959900
21
460.430900
0
LINE
8
Calque 1
10
405.959900
20
460.430900
11
342.592100
21
523.666400
0
LINE
8
Calque 1
10
342.592100
20
523.666400
11
342.592300
21
523.666400
0
LINE
8
Calque 1
10
407.464200
20
485.314600
11
409.207871
21
486.723512
0
LINE
8
Calque 1
10
409.207871
20
486.723512
11
412.354170
21
489.721300
0
LINE
8
Calque 1
10
412.354170
20
489.721300
11
415.926115
21
493.428825
0
LINE
8
Calque 1
10
415.926115
20
493.428825
11
416.415518
21
494.238569
0
LINE
8
Calque 1
10
416.415518
20
494.238569
11
416.503520
21
494.933900
0
LINE
8
Calque 1
10
416.503520
20
494.933900
11
416.708580
21
496.232562
0
LINE
8
Calque 1
10
416.708580
20
496.232562
11
417.196090
21
497.833400
0
LINE
8
Calque 1
10
417.196090
20
497.833400
11
417.694993
21
499.620570
0
LINE
8
Calque 1
10
417.694993
20
499.620570
11
418.014051
21
501.752112
0
LINE
8
Calque 1
10
418.014051
20
501.752112
11
418.128376
21
503.977798
0
LINE
8
Calque 1
10
418.128376
20
503.977798
11
418.013080
21
506.047400
0
LINE
8
Calque 1
10
418.013080
20
506.047400
11
417.821930
21
507.577200
0
LINE
8
Calque 1
10
417.821930
20
507.577200
11
417.179690
21
506.973900
0
LINE
8
Calque 1
10
417.179690
20
506.973900
11
416.728866
21
506.445250
0
LINE
8
Calque 1
10
416.728866
20
506.445250
11
416.362310
21
505.589225
0
LINE
8
Calque 1
10
416.362310
20
505.589225
11
415.347470
21
501.214900
0
LINE
8
Calque 1
10
415.347470
20
501.214900
11
414.337232
21
497.449006
0
LINE
8
Calque 1
10
414.337232
20
497.449006
11
413.755104
21
496.052331
0
LINE
8
Calque 1
10
413.755104
20
496.052331
11
413.102077
21
494.952825
0
LINE
8
Calque 1
10
413.102077
20
494.952825
11
412.363487
21
494.130228
0
LINE
8
Calque 1
10
412.363487
20
494.130228
11
411.524664
21
493.564281
0
LINE
8
Calque 1
10
411.524664
20
493.564281
11
410.570941
21
493.234725
0
LINE
8
Calque 1
10
410.570941
20
493.234725
11
409.487650
21
493.121300
0
LINE
8
Calque 1
10
409.487650
20
493.121300
11
408.397238
21
493.248536
0
LINE
8
Calque 1
10
408.397238
20
493.248536
11
407.542055
21
493.647337
0
LINE
8
Calque 1
10
407.542055
20
493.647337
11
406.939449
21
494.305095
0
LINE
8
Calque 1
10
406.939449
20
494.305095
11
406.606770
21
495.209200
0
LINE
8
Calque 1
10
406.606770
20
495.209200
11
406.370952
21
495.837912
0
LINE
8
Calque 1
10
406.370952
20
495.837912
11
405.960070
21
496.036200
0
LINE
8
Calque 1
10
405.960070
20
496.036200
11
405.549187
21
495.837912
0
LINE
8
Calque 1
10
405.549187
20
495.837912
11
405.313370
21
495.209200
0
LINE
8
Calque 1
10
405.313370
20
495.209200
11
404.990856
21
494.349286
0
LINE
8
Calque 1
10
404.990856
20
494.349286
11
404.423486
21
493.707577
0
LINE
8
Calque 1
10
404.423486
20
493.707577
11
403.667007
21
493.288619
0
LINE
8
Calque 1
10
403.667007
20
493.288619
11
402.777166
21
493.096962
0
LINE
8
Calque 1
10
402.777166
20
493.096962
11
401.809710
21
493.137154
0
LINE
8
Calque 1
10
401.809710
20
493.137154
11
400.820386
21
493.413742
0
LINE
8
Calque 1
10
400.820386
20
493.413742
11
399.864940
21
493.931275
0
LINE
8
Calque 1
10
399.864940
20
493.931275
11
398.999120
21
494.694300
0
LINE
8
Calque 1
10
398.999120
20
494.694300
11
398.337351
21
495.672658
0
LINE
8
Calque 1
10
398.337351
20
495.672658
11
397.706635
21
497.100912
0
LINE
8
Calque 1
10
397.706635
20
497.100912
11
397.115549
21
498.956011
0
LINE
8
Calque 1
10
397.115549
20
498.956011
11
396.572670
21
501.214900
0
LINE
8
Calque 1
10
396.572670
20
501.214900
11
395.557834
21
505.589225
0
LINE
8
Calque 1
10
395.557834
20
505.589225
11
395.191278
21
506.445250
0
LINE
8
Calque 1
10
395.191278
20
506.445250
11
394.740450
21
506.973900
0
LINE
8
Calque 1
10
394.740450
20
506.973900
11
394.098210
21
507.577200
0
LINE
8
Calque 1
10
394.098210
20
507.577200
11
393.907070
21
506.047400
0
LINE
8
Calque 1
10
393.907070
20
506.047400
11
393.791781
21
503.977798
0
LINE
8
Calque 1
10
393.791781
20
503.977798
11
393.906116
21
501.752112
0
LINE
8
Calque 1
10
393.906116
20
501.752112
11
394.225174
21
499.620570
0
LINE
8
Calque 1
10
394.225174
20
499.620570
11
394.724050
21
497.833400
0
LINE
8
Calque 1
10
394.724050
20
497.833400
11
395.211452
21
496.232562
0
LINE
8
Calque 1
10
395.211452
20
496.232562
11
395.416630
21
494.933900
0
LINE
8
Calque 1
10
395.416630
20
494.933900
11
395.504644
21
494.238542
0
LINE
8
Calque 1
10
395.504644
20
494.238542
11
395.994112
21
493.428537
0
LINE
8
Calque 1
10
395.994112
20
493.428537
11
399.565970
21
489.719600
0
LINE
8
Calque 1
10
399.565970
20
489.719600
11
402.687781
21
486.726125
0
LINE
8
Calque 1
10
402.687781
20
486.726125
11
404.372570
21
485.329700
0
LINE
8
Calque 1
10
404.372570
20
485.329700
11
405.910180
21
485.064837
0
LINE
8
Calque 1
10
405.910180
20
485.064837
11
407.464200
21
485.314700
0
LINE
8
Calque 1
10
407.464200
20
485.314700
11
407.464200
21
485.314600
0
LINE
8
Calque 1
10
393.107500
20
495.058500
11
392.999442
21
495.795337
0
LINE
8
Calque 1
10
392.999442
20
495.795337
11
392.538450
21
497.241300
0
LINE
8
Calque 1
10
392.538450
20
497.241300
11
392.143114
21
498.435128
0
LINE
8
Calque 1
10
392.143114
20
498.435128
11
391.928474
21
499.602500
0
LINE
8
Calque 1
10
391.928474
20
499.602500
11
391.815470
21
503.954800
0
LINE
8
Calque 1
10
391.815470
20
503.954800
11
391.905133
21
507.734680
0
LINE
8
Calque 1
10
391.905133
20
507.734680
11
392.261764
21
510.037687
0
LINE
8
Calque 1
10
392.261764
20
510.037687
11
392.571570
21
510.735545
0
LINE
8
Calque 1
10
392.571570
20
510.735545
11
392.985772
21
511.184402
0
LINE
8
Calque 1
10
392.985772
20
511.184402
11
393.516922
21
511.424329
0
LINE
8
Calque 1
10
393.516922
20
511.424329
11
394.177570
21
511.495400
0
LINE
8
Calque 1
10
394.177570
20
511.495400
11
394.848424
21
511.386735
0
LINE
8
Calque 1
10
394.848424
20
511.386735
11
395.457390
21
511.043320
0
LINE
8
Calque 1
10
395.457390
20
511.043320
11
396.017226
21
510.439030
0
LINE
8
Calque 1
10
396.017226
20
510.439030
11
396.540689
21
509.547737
0
LINE
8
Calque 1
10
396.540689
20
509.547737
11
397.529523
21
506.799636
0
LINE
8
Calque 1
10
397.529523
20
506.799636
11
398.525950
21
502.590000
0
LINE
8
Calque 1
10
398.525950
20
502.590000
11
399.112112
21
500.011706
0
LINE
8
Calque 1
10
399.112112
20
500.011706
11
399.676712
21
498.116400
0
LINE
8
Calque 1
10
399.676712
20
498.116400
11
400.261012
21
496.788319
0
LINE
8
Calque 1
10
400.261012
20
496.788319
11
400.906270
21
495.911700
0
LINE
8
Calque 1
10
400.906270
20
495.911700
11
401.481087
21
495.545314
0
LINE
8
Calque 1
10
401.481087
20
495.545314
11
402.166174
21
495.372887
0
LINE
8
Calque 1
10
402.166174
20
495.372887
11
402.773521
21
495.413592
0
LINE
8
Calque 1
10
402.773521
20
495.413592
11
403.115120
21
495.686600
0
LINE
8
Calque 1
10
403.115120
20
495.686600
11
402.837180
21
499.192300
0
LINE
8
Calque 1
10
402.837180
20
499.192300
11
402.594328
21
502.899836
0
LINE
8
Calque 1
10
402.594328
20
502.899836
11
402.878802
21
505.852412
0
LINE
8
Calque 1
10
402.878802
20
505.852412
11
403.213953
21
507.022889
0
LINE
8
Calque 1
10
403.213953
20
507.022889
11
403.675133
21
507.977383
0
LINE
8
Calque 1
10
403.675133
20
507.977383
11
404.260410
21
508.706813
0
LINE
8
Calque 1
10
404.260410
20
508.706813
11
404.967850
21
509.202100
0
LINE
8
Calque 1
10
404.967850
20
509.202100
11
405.960035
21
509.554675
0
LINE
8
Calque 1
10
405.960035
20
509.554675
11
406.952220
21
509.202100
0
LINE
8
Calque 1
10
406.952220
20
509.202100
11
407.659671
21
508.706813
0
LINE
8
Calque 1
10
407.659671
20
508.706813
11
408.244952
21
507.977383
0
LINE
8
Calque 1
10
408.244952
20
507.977383
11
408.706132
21
507.022889
0
LINE
8
Calque 1
10
408.706132
20
507.022889
11
409.041279
21
505.852412
0
LINE
8
Calque 1
10
409.041279
20
505.852412
11
409.325744
21
502.899836
0
LINE
8
Calque 1
10
409.325744
20
502.899836
11
409.082890
21
499.192300
0
LINE
8
Calque 1
10
409.082890
20
499.192300
11
408.804950
21
495.686600
0
LINE
8
Calque 1
10
408.804950
20
495.686600
11
409.146545
21
495.413592
0
LINE
8
Calque 1
10
409.146545
20
495.413592
11
409.753891
21
495.372887
0
LINE
8
Calque 1
10
409.753891
20
495.372887
11
410.438977
21
495.545314
0
LINE
8
Calque 1
10
410.438977
20
495.545314
11
411.013790
21
495.911700
0
LINE
8
Calque 1
10
411.013790
20
495.911700
11
411.659054
21
496.788319
0
LINE
8
Calque 1
10
411.659054
20
496.788319
11
412.243356
21
498.116400
0
LINE
8
Calque 1
10
412.243356
20
498.116400
11
412.807958
21
500.011706
0
LINE
8
Calque 1
10
412.807958
20
500.011706
11
413.394120
21
502.590000
0
LINE
8
Calque 1
10
413.394120
20
502.590000
11
414.390546
21
506.799636
0
LINE
8
Calque 1
10
414.390546
20
506.799636
11
415.379377
21
509.547737
0
LINE
8
Calque 1
10
415.379377
20
509.547737
11
415.902840
21
510.439030
0
LINE
8
Calque 1
10
415.902840
20
510.439030
11
416.462676
21
511.043320
0
LINE
8
Calque 1
10
416.462676
20
511.043320
11
417.071643
21
511.386735
0
LINE
8
Calque 1
10
417.071643
20
511.386735
11
417.742500
21
511.495400
0
LINE
8
Calque 1
10
417.742500
20
511.495400
11
418.403147
21
511.424329
0
LINE
8
Calque 1
10
418.403147
20
511.424329
11
418.934295
21
511.184402
0
LINE
8
Calque 1
10
418.934295
20
511.184402
11
419.348495
21
510.735545
0
LINE
8
Calque 1
10
419.348495
20
510.735545
11
419.658299
21
510.037687
0
LINE
8
Calque 1
10
419.658299
20
510.037687
11
420.014928
21
507.734680
0
LINE
8
Calque 1
10
420.014928
20
507.734680
11
420.104600
21
503.954800
0
LINE
8
Calque 1
10
420.104600
20
503.954800
11
419.991577
21
499.602500
0
LINE
8
Calque 1
10
419.991577
20
499.602500
11
419.776952
21
498.435128
0
LINE
8
Calque 1
10
419.776952
20
498.435128
11
419.381620
21
497.241300
0
LINE
8
Calque 1
10
419.381620
20
497.241300
11
418.920619
21
495.795337
0
LINE
8
Calque 1
10
418.920619
20
495.795337
11
418.812560
21
495.058500
0
LINE
8
Calque 1
10
418.812560
20
495.058500
11
419.086742
21
494.838730
0
LINE
8
Calque 1
10
419.086742
20
494.838730
11
419.478467
21
494.827133
0
LINE
8
Calque 1
10
419.478467
20
494.827133
11
420.489148
21
495.335387
0
LINE
8
Calque 1
10
420.489148
20
495.335387
11
421.593799
21
496.397123
0
LINE
8
Calque 1
10
421.593799
20
496.397123
11
422.541620
21
497.826200
0
LINE
8
Calque 1
10
422.541620
20
497.826200
11
423.136822
21
499.142959
0
LINE
8
Calque 1
10
423.136822
20
499.142959
11
423.594558
21
500.541900
0
LINE
8
Calque 1
10
423.594558
20
500.541900
11
424.337160
21
504.472900
0
LINE
8
Calque 1
10
424.337160
20
504.472900
11
425.132477
21
508.898852
0
LINE
8
Calque 1
10
425.132477
20
508.898852
11
425.570488
21
510.505950
0
LINE
8
Calque 1
10
425.570488
20
510.505950
11
426.055305
21
511.750787
0
LINE
8
Calque 1
10
426.055305
20
511.750787
11
426.601854
21
512.664608
0
LINE
8
Calque 1
10
426.601854
20
512.664608
11
427.225063
21
513.278655
0
LINE
8
Calque 1
10
427.225063
20
513.278655
11
427.939859
21
513.624171
0
LINE
8
Calque 1
10
427.939859
20
513.624171
11
428.761170
21
513.732400
0
LINE
8
Calque 1
10
428.761170
20
513.732400
11
429.846068
21
513.492452
0
LINE
8
Calque 1
10
429.846068
20
513.492452
11
430.750800
21
512.777987
0
LINE
8
Calque 1
10
430.750800
20
512.777987
11
431.468452
21
511.597080
0
LINE
8
Calque 1
10
431.468452
20
511.597080
11
431.992110
21
509.957800
0
LINE
8
Calque 1
10
431.992110
20
509.957800
11
432.368295
21
507.794622
0
LINE
8
Calque 1
10
432.368295
20
507.794622
11
432.387349
21
505.847875
0
LINE
8
Calque 1
10
432.387349
20
505.847875
11
432.017691
21
503.753566
0
LINE
8
Calque 1
10
432.017691
20
503.753566
11
431.227740
21
501.147700
0
LINE
8
Calque 1
10
431.227740
20
501.147700
11
430.037120
21
497.417100
0
LINE
8
Calque 1
10
430.037120
20
497.417100
11
430.353070
21
497.365866
0
LINE
8
Calque 1
10
430.353070
20
497.365866
11
431.138705
21
497.675475
0
LINE
8
Calque 1
10
431.138705
20
497.675475
11
433.145750
21
498.909900
0
LINE
8
Calque 1
10
433.145750
20
498.909900
11
434.291518
21
499.912628
0
LINE
8
Calque 1
10
434.291518
20
499.912628
11
435.136183
21
500.907575
0
LINE
8
Calque 1
10
435.136183
20
500.907575
11
435.694944
21
501.916434
0
LINE
8
Calque 1
10
435.694944
20
501.916434
11
435.983000
21
502.960900
0
LINE
8
Calque 1
10
435.983000
20
502.960900
11
436.277469
21
504.175766
0
LINE
8
Calque 1
10
436.277469
20
504.175766
11
436.812809
21
505.469475
0
LINE
8
Calque 1
10
436.812809
20
505.469475
11
437.586287
21
506.836497
0
LINE
8
Calque 1
10
437.586287
20
506.836497
11
438.595170
21
508.271300
0
LINE
8
Calque 1
10
438.595170
20
508.271300
11
440.053499
21
510.415056
0
LINE
8
Calque 1
10
440.053499
20
510.415056
11
440.445749
21
511.317097
0
LINE
8
Calque 1
10
440.445749
20
511.317097
11
440.619841
21
512.191275
0
LINE
8
Calque 1
10
440.619841
20
512.191275
11
440.580613
21
513.101612
0
LINE
8
Calque 1
10
440.580613
20
513.101612
11
440.332903
21
514.112131
0
LINE
8
Calque 1
10
440.332903
20
514.112131
11
439.231390
21
516.689800
0
LINE
8
Calque 1
10
439.231390
20
516.689800
11
438.438180
21
518.364427
0
LINE
8
Calque 1
10
438.438180
20
518.364427
11
438.025566
21
519.485562
0
LINE
8
Calque 1
10
438.025566
20
519.485562
11
437.870459
21
520.520692
0
LINE
8
Calque 1
10
437.870459
20
520.520692
11
437.849770
21
521.937300
0
LINE
8
Calque 1
10
437.849770
20
521.937300
11
437.973562
21
523.817670
0
LINE
8
Calque 1
10
437.973562
20
523.817670
11
438.375020
21
525.518987
0
LINE
8
Calque 1
10
438.375020
20
525.518987
11
439.117271
21
527.229961
0
LINE
8
Calque 1
10
439.117271
20
527.229961
11
440.263440
21
529.139300
0
LINE
8
Calque 1
10
440.263440
20
529.139300
11
441.722666
21
531.043111
0
LINE
8
Calque 1
10
441.722666
20
531.043111
11
443.519473
21
532.905291
0
LINE
8
Calque 1
10
443.519473
20
532.905291
11
445.555613
21
534.660431
0
LINE
8
Calque 1
10
445.555613
20
534.660431
11
447.732839
21
536.243125
0
LINE
8
Calque 1
10
447.732839
20
536.243125
11
449.952902
21
537.587966
0
LINE
8
Calque 1
10
449.952902
20
537.587966
11
452.117555
21
538.629547
0
LINE
8
Calque 1
10
452.117555
20
538.629547
11
454.128550
21
539.302461
0
LINE
8
Calque 1
10
454.128550
20
539.302461
11
455.887640
21
539.541300
0
LINE
8
Calque 1
10
455.887640
20
539.541300
11
457.484881
21
539.242975
0
LINE
8
Calque 1
10
457.484881
20
539.242975
11
460.045580
21
538.170800
0
LINE
8
Calque 1
10
460.045580
20
538.170800
11
462.636585
21
537.092162
0
LINE
8
Calque 1
10
462.636585
20
537.092162
11
464.432920
21
536.693100
0
LINE
8
Calque 1
10
464.432920
20
536.693100
11
465.265802
21
536.663402
0
LINE
8
Calque 1
10
465.265802
20
536.663402
11
465.908881
21
536.764512
0
LINE
8
Calque 1
10
465.908881
20
536.764512
11
467.475630
21
537.618400
0
LINE
8
Calque 1
10
467.475630
20
537.618400
11
468.802374
21
538.632403
0
LINE
8
Calque 1
10
468.802374
20
538.632403
11
470.247742
21
540.008111
0
LINE
8
Calque 1
10
470.247742
20
540.008111
11
473.335734
21
543.637037
0
LINE
8
Calque 1
10
473.335734
20
543.637037
11
476.422374
21
548.089970
0
LINE
8
Calque 1
10
476.422374
20
548.089970
11
479.190430
21
552.951700
0
LINE
8
Calque 1
10
479.190430
20
552.951700
11
480.392931
21
555.509014
0
LINE
8
Calque 1
10
480.392931
20
555.509014
11
481.427225
21
558.049387
0
LINE
8
Calque 1
10
481.427225
20
558.049387
11
482.151672
21
560.195392
0
LINE
8
Calque 1
10
482.151672
20
560.195392
11
482.424630
21
561.569600
0
LINE
8
Calque 1
10
482.424630
20
561.569600
11
482.075779
21
562.534800
0
LINE
8
Calque 1
10
482.075779
20
562.534800
11
481.237050
21
563.919400
0
LINE
8
Calque 1
10
481.237050
20
563.919400
11
478.160674
21
568.412264
0
LINE
8
Calque 1
10
478.160674
20
568.412264
11
475.997579
21
571.941462
0
LINE
8
Calque 1
10
475.997579
20
571.941462
11
474.477675
21
574.989330
0
LINE
8
Calque 1
10
474.477675
20
574.989330
11
473.330870
21
578.038200
0
LINE
8
Calque 1
10
473.330870
20
578.038200
11
472.440351
21
581.015758
0
LINE
8
Calque 1
10
472.440351
20
581.015758
11
471.878695
21
583.692162
0
LINE
8
Calque 1
10
471.878695
20
583.692162
11
471.558449
21
586.623511
0
LINE
8
Calque 1
10
471.558449
20
586.623511
11
471.392160
21
590.365900
0
LINE
8
Calque 1
10
471.392160
20
590.365900
11
471.359392
21
594.126932
0
LINE
8
Calque 1
10
471.359392
20
594.126932
11
471.484726
21
597.632370
0
LINE
8
Calque 1
10
471.484726
20
597.632370
11
471.782524
21
600.961289
0
LINE
8
Calque 1
10
471.782524
20
600.961289
11
472.267144
21
604.192762
0
LINE
8
Calque 1
10
472.267144
20
604.192762
11
472.952947
21
607.405866
0
LINE
8
Calque 1
10
472.952947
20
607.405866
11
473.854294
21
610.679673
0
LINE
8
Calque 1
10
473.854294
20
610.679673
11
474.985545
21
614.093260
0
LINE
8
Calque 1
10
474.985545
20
614.093260
11
476.361060
21
617.725700
0
LINE
8
Calque 1
10
476.361060
20
617.725700
11
477.827099
21
621.733075
0
LINE
8
Calque 1
10
477.827099
20
621.733075
11
478.018122
21
622.961112
0
LINE
8
Calque 1
10
478.018122
20
622.961112
11
478.047950
21
624.472500
0
LINE
8
Calque 1
10
478.047950
20
624.472500
11
477.958738
21
626.445111
0
LINE
8
Calque 1
10
477.958738
20
626.445111
11
477.656874
21
628.307087
0
LINE
8
Calque 1
10
477.656874
20
628.307087
11
477.088765
21
630.295795
0
LINE
8
Calque 1
10
477.088765
20
630.295795
11
476.200820
21
632.648600
0
LINE
8
Calque 1
10
476.200820
20
632.648600
11
474.618598
21
635.938125
0
LINE
8
Calque 1
10
474.618598
20
635.938125
11
472.565342
21
639.330344
0
LINE
8
Calque 1
10
472.565342
20
639.330344
11
470.188515
21
642.658709
0
LINE
8
Calque 1
10
470.188515
20
642.658709
11
467.635584
21
645.756675
0
LINE
8
Calque 1
10
467.635584
20
645.756675
11
465.054013
21
648.457694
0
LINE
8
Calque 1
10
465.054013
20
648.457694
11
462.591269
21
650.595219
0
LINE
8
Calque 1
10
462.591269
20
650.595219
11
460.394816
21
652.002703
0
LINE
8
Calque 1
10
460.394816
20
652.002703
11
459.442532
21
652.380634
0
LINE
8
Calque 1
10
459.442532
20
652.380634
11
458.612120
21
652.513600
0
LINE
8
Calque 1
10
458.612120
20
652.513600
11
457.559740
21
652.319175
0
LINE
8
Calque 1
10
457.559740
20
652.319175
11
456.140830
21
651.771500
0
LINE
8
Calque 1
10
456.140830
20
651.771500
11
454.520560
21
650.946475
0
LINE
8
Calque 1
10
454.520560
20
650.946475
11
452.864100
21
649.920000
0
LINE
8
Calque 1
10
452.864100
20
649.920000
11
450.917625
21
648.444341
0
LINE
8
Calque 1
10
450.917625
20
648.444341
11
448.763196
21
646.588150
0
LINE
8
Calque 1
10
448.763196
20
646.588150
11
446.823577
21
644.734509
0
LINE
8
Calque 1
10
446.823577
20
644.734509
11
445.521530
21
643.266500
0
LINE
8
Calque 1
10
445.521530
20
643.266500
11
444.368986
21
641.544406
0
LINE
8
Calque 1
10
444.368986
20
641.544406
11
443.636387
21
639.967475
0
LINE
8
Calque 1
10
443.636387
20
639.967475
11
443.202188
21
638.185831
0
LINE
8
Calque 1
10
443.202188
20
638.185831
11
442.944840
21
635.849600
0
LINE
8
Calque 1
10
442.944840
20
635.849600
11
442.667924
21
633.309631
0
LINE
8
Calque 1
10
442.667924
20
633.309631
11
442.217851
21
631.248875
0
LINE
8
Calque 1
10
442.217851
20
631.248875
11
441.501725
21
629.352106
0
LINE
8
Calque 1
10
441.501725
20
629.352106
11
440.426650
21
627.304100
0
LINE
8
Calque 1
10
440.426650
20
627.304100
11
438.581075
21
624.412715
0
LINE
8
Calque 1
10
438.581075
20
624.412715
11
436.476036
21
621.668909
0
LINE
8
Calque 1
10
436.476036
20
621.668909
11
434.144579
21
619.101180
0
LINE
8
Calque 1
10
434.144579
20
619.101180
11
431.619746
21
616.738025
0
LINE
8
Calque 1
10
431.619746
20
616.738025
11
428.934583
21
614.607942
0
LINE
8
Calque 1
10
428.934583
20
614.607942
11
426.122133
21
612.739428
0
LINE
8
Calque 1
10
426.122133
20
612.739428
11
423.215441
21
611.160982
0
LINE
8
Calque 1
10
423.215441
20
611.160982
11
420.247550
21
609.901100
0
LINE
8
Calque 1
10
420.247550
20
609.901100
11
416.680854
21
608.762178
0
LINE
8
Calque 1
10
416.680854
20
608.762178
11
413.109723
21
607.948662
0
LINE
8
Calque 1
10
413.109723
20
607.948662
11
409.535634
21
607.460553
0
LINE
8
Calque 1
10
409.535634
20
607.460553
11
405.960065
21
607.297850
0
LINE
8
Calque 1
10
405.960065
20
607.297850
11
402.384494
21
607.460553
0
LINE
8
Calque 1
10
402.384494
20
607.460553
11
398.810399
21
607.948662
0
LINE
8
Calque 1
10
398.810399
20
607.948662
11
395.239259
21
608.762178
0
LINE
8
Calque 1
10
395.239259
20
608.762178
11
391.672550
21
609.901100
0
LINE
8
Calque 1
10
391.672550
20
609.901100
11
388.704668
21
611.160982
0
LINE
8
Calque 1
10
388.704668
20
611.160982
11
385.797978
21
612.739428
0
LINE
8
Calque 1
10
385.797978
20
612.739428
11
382.985528
21
614.607942
0
LINE
8
Calque 1
10
382.985528
20
614.607942
11
380.300361
21
616.738025
0
LINE
8
Calque 1
10
380.300361
20
616.738025
11
377.775525
21
619.101180
0
LINE
8
Calque 1
10
377.775525
20
619.101180
11
375.444064
21
621.668909
0
LINE
8
Calque 1
10
375.444064
20
621.668909
11
373.339023
21
624.412715
0
LINE
8
Calque 1
10
373.339023
20
624.412715
11
371.493450
21
627.304100
0
LINE
8
Calque 1
10
371.493450
20
627.304100
11
370.416359
21
629.355711
0
LINE
8
Calque 1
10
370.416359
20
629.355711
11
369.700307
21
631.254987
0
LINE
8
Calque 1
10
369.700307
20
631.254987
11
369.250937
21
633.323145
0
LINE
8
Calque 1
10
369.250937
20
633.323145
11
368.973890
21
635.881400
0
LINE
8
Calque 1
10
368.973890
20
635.881400
11
368.604735
21
639.012162
0
LINE
8
Calque 1
10
368.604735
20
639.012162
11
368.268459
21
640.015845
0
LINE
8
Calque 1
10
368.268459
20
640.015845
11
367.704370
21
641.173100
0
LINE
8
Calque 1
10
367.704370
20
641.173100
11
366.519292
21
642.976620
0
LINE
8
Calque 1
10
366.519292
20
642.976620
11
364.769121
21
645.014337
0
LINE
8
Calque 1
10
364.769121
20
645.014337
11
362.629935
21
647.099586
0
LINE
8
Calque 1
10
362.629935
20
647.099586
11
360.277810
21
649.045700
0
LINE
8
Calque 1
10
360.277810
20
649.045700
11
358.346113
21
650.360017
0
LINE
8
Calque 1
10
358.346113
20
650.360017
11
356.363226
21
651.467812
0
LINE
8
Calque 1
10
356.363226
20
651.467812
11
354.604051
21
652.231602
0
LINE
8
Calque 1
10
354.604051
20
652.231602
11
353.343490
21
652.513900
0
LINE
8
Calque 1
10
353.343490
20
652.513900
11
352.506968
21
652.381380
0
LINE
8
Calque 1
10
352.506968
20
652.381380
11
351.549696
21
652.004701
0
LINE
8
Calque 1
10
351.549696
20
652.004701
11
349.346115
21
650.601392
0
LINE
8
Calque 1
10
349.346115
20
650.601392
11
346.879181
21
648.469035
0
LINE
8
Calque 1
10
346.879181
20
648.469035
11
344.295324
21
645.772687
0
LINE
8
Calque 1
10
344.295324
20
645.772687
11
341.740975
21
642.677411
0
LINE
8
Calque 1
10
341.740975
20
642.677411
11
339.362565
21
639.348264
0
LINE
8
Calque 1
10
339.362565
20
639.348264
11
337.306527
21
635.950307
0
LINE
8
Calque 1
10
337.306527
20
635.950307
11
335.719290
21
632.648600
0
LINE
8
Calque 1
10
335.719290
20
632.648600
11
334.830801
21
630.294459
0
LINE
8
Calque 1
10
334.830801
20
630.294459
11
334.262902
21
628.306000
0
LINE
8
Calque 1
10
334.262902
20
628.306000
11
333.961776
21
626.444816
0
LINE
8
Calque 1
10
333.961776
20
626.444816
11
333.873600
21
624.472500
0
LINE
8
Calque 1
10
333.873600
20
624.472500
11
333.904750
21
622.962575
0
LINE
8
Calque 1
10
333.904750
20
622.962575
11
334.095714
21
621.731125
0
LINE
8
Calque 1
10
334.095714
20
621.731125
11
335.546920
21
617.725700
0
LINE
8
Calque 1
10
335.546920
20
617.725700
11
336.939306
21
614.027085
0
LINE
8
Calque 1
10
336.939306
20
614.027085
11
338.079660
21
610.584414
0
LINE
8
Calque 1
10
338.079660
20
610.584414
11
338.984034
21
607.309520
0
LINE
8
Calque 1
10
338.984034
20
607.309520
11
339.668476
21
604.114237
0
LINE
8
Calque 1
10
339.668476
20
604.114237
11
340.149039
21
600.910400
0
LINE
8
Calque 1
10
340.149039
20
600.910400
11
340.441774
21
597.609842
0
LINE
8
Calque 1
10
340.441774
20
597.609842
11
340.562730
21
594.124397
0
LINE
8
Calque 1
10
340.562730
20
594.124397
11
340.527960
21
590.365900
0
LINE
8
Calque 1
10
340.527960
20
590.365900
11
340.361669
21
586.623511
0
LINE
8
Calque 1
10
340.361669
20
586.623511
11
340.041420
21
583.692162
0
LINE
8
Calque 1
10
340.041420
20
583.692162
11
339.479761
21
581.015758
0
LINE
8
Calque 1
10
339.479761
20
581.015758
11
338.589240
21
578.038200
0
LINE
8
Calque 1
10
338.589240
20
578.038200
11
337.442441
21
574.989330
0
LINE
8
Calque 1
10
337.442441
20
574.989330
11
335.922539
21
571.941462
0
LINE
8
Calque 1
10
335.922539
20
571.941462
11
333.759442
21
568.412264
0
LINE
8
Calque 1
10
333.759442
20
568.412264
11
330.683060
21
563.919400
0
LINE
8
Calque 1
10
330.683060
20
563.919400
11
329.844340
21
562.534800
0
LINE
8
Calque 1
10
329.844340
20
562.534800
11
329.495490
21
561.569600
0
LINE
8
Calque 1
10
329.495490
20
561.569600
11
329.768447
21
560.195392
0
LINE
8
Calque 1
10
329.768447
20
560.195392
11
330.492890
21
558.049387
0
LINE
8
Calque 1
10
330.492890
20
558.049387
11
331.527181
21
555.509014
0
LINE
8
Calque 1
10
331.527181
20
555.509014
11
332.729680
21
552.951700
0
LINE
8
Calque 1
10
332.729680
20
552.951700
11
335.497714
21
548.089970
0
LINE
8
Calque 1
10
335.497714
20
548.089970
11
338.584346
21
543.637037
0
LINE
8
Calque 1
10
338.584346
20
543.637037
11
341.672346
21
540.008111
0
LINE
8
Calque 1
10
341.672346
20
540.008111
11
343.117723
21
538.632403
0
LINE
8
Calque 1
10
343.117723
20
538.632403
11
344.444480
21
537.618400
0
LINE
8
Calque 1
10
344.444480
20
537.618400
11
346.011225
21
536.764625
0
LINE
8
Calque 1
10
346.011225
20
536.764625
11
346.654303
21
536.663387
0
LINE
8
Calque 1
10
346.654303
20
536.663387
11
347.487190
21
536.693100
0
LINE
8
Calque 1
10
347.487190
20
536.693100
11
349.283524
21
537.092162
0
LINE
8
Calque 1
10
349.283524
20
537.092162
11
351.874520
21
538.170800
0
LINE
8
Calque 1
10
351.874520
20
538.170800
11
354.435223
21
539.242975
0
LINE
8
Calque 1
10
354.435223
20
539.242975
11
356.032460
21
539.541300
0
LINE
8
Calque 1
10
356.032460
20
539.541300
11
357.791568
21
539.302461
0
LINE
8
Calque 1
10
357.791568
20
539.302461
11
359.802574
21
538.629547
0
LINE
8
Calque 1
10
359.802574
20
538.629547
11
361.967232
21
537.587966
0
LINE
8
Calque 1
10
361.967232
20
537.587966
11
364.187295
21
536.243125
0
LINE
8
Calque 1
10
364.187295
20
536.243125
11
366.364516
21
534.660431
0
LINE
8
Calque 1
10
366.364516
20
534.660431
11
368.400648
21
532.905291
0
LINE
8
Calque 1
10
368.400648
20
532.905291
11
370.197445
21
531.043111
0
LINE
8
Calque 1
10
370.197445
20
531.043111
11
371.656660
21
529.139300
0
LINE
8
Calque 1
10
371.656660
20
529.139300
11
372.802767
21
527.229961
0
LINE
8
Calque 1
10
372.802767
20
527.229961
11
373.544915
21
525.518987
0
LINE
8
Calque 1
10
373.544915
20
525.518987
11
373.946353
21
523.817670
0
LINE
8
Calque 1
10
373.946353
20
523.817670
11
374.070330
21
521.937300
0
LINE
8
Calque 1
10
374.070330
20
521.937300
11
374.049622
21
520.518075
0
LINE
8
Calque 1
10
374.049622
20
520.518075
11
373.892438
21
519.480375
0
LINE
8
Calque 1
10
373.892438
20
519.480375
11
373.471940
21
518.348212
0
LINE
8
Calque 1
10
373.471940
20
518.348212
11
372.661290
21
516.645600
0
LINE
8
Calque 1
10
372.661290
20
516.645600
11
371.559588
21
514.087016
0
LINE
8
Calque 1
10
371.559588
20
514.087016
11
371.312591
21
513.088642
0
LINE
8
Calque 1
10
371.312591
20
513.088642
11
371.275122
21
512.189725
0
LINE
8
Calque 1
10
371.275122
20
512.189725
11
371.452402
21
511.324399
0
LINE
8
Calque 1
10
371.452402
20
511.324399
11
371.849650
21
510.426797
0
LINE
8
Calque 1
10
371.849650
20
510.426797
11
373.324930
21
508.271300
0
LINE
8
Calque 1
10
373.324930
20
508.271300
11
374.333812
21
506.836497
0
LINE
8
Calque 1
10
374.333812
20
506.836497
11
375.107287
21
505.469475
0
LINE
8
Calque 1
10
375.107287
20
505.469475
11
375.642627
21
504.175766
0
LINE
8
Calque 1
10
375.642627
20
504.175766
11
375.937100
21
502.960900
0
LINE
8
Calque 1
10
375.937100
20
502.960900
11
376.225156
21
501.916434
0
LINE
8
Calque 1
10
376.225156
20
501.916434
11
376.783916
21
500.907575
0
LINE
8
Calque 1
10
376.783916
20
500.907575
11
377.628578
21
499.912628
0
LINE
8
Calque 1
10
377.628578
20
499.912628
11
378.774340
21
498.909900
0
LINE
8
Calque 1
10
378.774340
20
498.909900
11
380.781394
21
497.675475
0
LINE
8
Calque 1
10
380.781394
20
497.675475
11
381.567030
21
497.365866
0
LINE
8
Calque 1
10
381.567030
20
497.365866
11
381.882980
21
497.417100
0
LINE
8
Calque 1
10
381.882980
20
497.417100
11
380.692350
21
501.147700
0
LINE
8
Calque 1
10
380.692350
20
501.147700
11
379.902405
21
503.753566
0
LINE
8
Calque 1
10
379.902405
20
503.753566
11
379.532750
21
505.847875
0
LINE
8
Calque 1
10
379.532750
20
505.847875
11
379.551805
21
507.794622
0
LINE
8
Calque 1
10
379.551805
20
507.794622
11
379.927990
21
509.957800
0
LINE
8
Calque 1
10
379.927990
20
509.957800
11
380.451644
21
511.597080
0
LINE
8
Calque 1
10
380.451644
20
511.597080
11
381.169295
21
512.777987
0
LINE
8
Calque 1
10
381.169295
20
512.777987
11
382.074026
21
513.492452
0
LINE
8
Calque 1
10
382.074026
20
513.492452
11
383.158920
21
513.732400
0
LINE
8
Calque 1
10
383.158920
20
513.732400
11
383.980231
21
513.624171
0
LINE
8
Calque 1
10
383.980231
20
513.624171
11
384.695028
21
513.278655
0
LINE
8
Calque 1
10
384.695028
20
513.278655
11
385.318239
21
512.664608
0
LINE
8
Calque 1
10
385.318239
20
512.664608
11
385.864790
21
511.750787
0
LINE
8
Calque 1
10
385.864790
20
511.750787
11
386.349608
21
510.505950
0
LINE
8
Calque 1
10
386.349608
20
510.505950
11
386.787622
21
508.898852
0
LINE
8
Calque 1
10
386.787622
20
508.898852
11
387.582940
21
504.472900
0
LINE
8
Calque 1
10
387.582940
20
504.472900
11
388.325541
21
500.541900
0
LINE
8
Calque 1
10
388.325541
20
500.541900
11
388.783274
21
499.142959
0
LINE
8
Calque 1
10
388.783274
20
499.142959
11
389.378470
21
497.826200
0
LINE
8
Calque 1
10
389.378470
20
497.826200
11
390.326291
21
496.397123
0
LINE
8
Calque 1
10
390.326291
20
496.397123
11
391.430942
21
495.335387
0
LINE
8
Calque 1
10
391.430942
20
495.335387
11
392.441623
21
494.827133
0
LINE
8
Calque 1
10
392.441623
20
494.827133
11
392.833348
21
494.838730
0
LINE
8
Calque 1
10
392.833348
20
494.838730
11
393.107530
21
495.058500
0
LINE
8
Calque 1
10
393.107530
20
495.058500
11
393.107500
21
495.058500
0
LINE
8
Calque 1
10
397.393280
20
540.634900
11
396.551254
21
541.697287
0
LINE
8
Calque 1
10
396.551254
20
541.697287
11
396.012910
21
543.227600
0
LINE
8
Calque 1
10
396.012910
20
543.227600
11
395.761962
21
544.612403
0
LINE
8
Calque 1
10
395.761962
20
544.612403
11
395.744989
21
545.945925
0
LINE
8
Calque 1
10
395.744989
20
545.945925
11
395.971869
21
547.357334
0
LINE
8
Calque 1
10
395.971869
20
547.357334
11
396.452480
21
548.975800
0
LINE
8
Calque 1
10
396.452480
20
548.975800
11
396.912284
21
551.048225
0
LINE
8
Calque 1
10
396.912284
20
551.048225
11
397.214700
21
554.225700
0
LINE
8
Calque 1
10
397.214700
20
554.225700
11
397.404891
21
556.646180
0
LINE
8
Calque 1
10
397.404891
20
556.646180
11
397.659767
21
558.257737
0
LINE
8
Calque 1
10
397.659767
20
558.257737
11
398.042298
21
559.325002
0
LINE
8
Calque 1
10
398.042298
20
559.325002
11
398.615450
21
560.112600
0
LINE
8
Calque 1
10
398.615450
20
560.112600
11
399.066430
21
560.462998
0
LINE
8
Calque 1
10
399.066430
20
560.462998
11
399.596321
21
560.660381
0
LINE
8
Calque 1
10
399.596321
20
560.660381
11
400.779982
21
560.624850
0
LINE
8
Calque 1
10
400.779982
20
560.624850
11
401.940728
21
560.063494
0
LINE
8
Calque 1
10
401.940728
20
560.063494
11
402.852850
21
559.033800
0
LINE
8
Calque 1
10
402.852850
20
559.033800
11
403.120399
21
557.279100
0
LINE
8
Calque 1
10
403.120399
20
557.279100
11
403.258160
21
553.035000
0
LINE
8
Calque 1
10
403.258160
20
553.035000
11
403.368980
21
545.744600
0
LINE
8
Calque 1
10
403.368980
20
545.744600
11
403.260754
21
543.963137
0
LINE
8
Calque 1
10
403.260754
20
543.963137
11
402.644770
21
542.484000
0
LINE
8
Calque 1
10
402.644770
20
542.484000
11
401.954823
21
541.414269
0
LINE
8
Calque 1
10
401.954823
20
541.414269
11
401.198586
21
540.640225
0
LINE
8
Calque 1
10
401.198586
20
540.640225
11
400.344956
21
540.137194
0
LINE
8
Calque 1
10
400.344956
20
540.137194
11
399.362830
21
539.880500
0
LINE
8
Calque 1
10
399.362830
20
539.880500
11
398.357591
21
539.922863
0
LINE
8
Calque 1
10
398.357591
20
539.922863
11
397.393280
21
540.634900
0
LINE
8
Calque 1
10
397.393280
20
540.634900
11
397.393280
21
540.634900
0
LINE
8
Calque 1
10
411.247580
20
540.293500
11
410.320348
21
541.047372
0
LINE
8
Calque 1
10
410.320348
20
541.047372
11
409.473662
21
542.201275
0
LINE
8
Calque 1
10
409.473662
20
542.201275
11
408.817383
21
543.570766
0
LINE
8
Calque 1
10
408.817383
20
543.570766
11
408.461370
21
544.971400
0
LINE
8
Calque 1
10
408.461370
20
544.971400
11
408.430794
21
546.525275
0
LINE
8
Calque 1
10
408.430794
20
546.525275
11
408.609760
21
548.295600
0
LINE
8
Calque 1
10
408.609760
20
548.295600
11
408.808401
21
550.638237
0
LINE
8
Calque 1
10
408.808401
20
550.638237
11
408.745660
21
553.863400
0
LINE
8
Calque 1
10
408.745660
20
553.863400
11
408.672002
21
556.430375
0
LINE
8
Calque 1
10
408.672002
20
556.430375
11
408.811189
21
558.114000
0
LINE
8
Calque 1
10
408.811189
20
558.114000
11
409.222886
21
559.215925
0
LINE
8
Calque 1
10
409.222886
20
559.215925
11
409.966760
21
560.037800
0
LINE
8
Calque 1
10
409.966760
20
560.037800
11
410.818893
21
560.538598
0
LINE
8
Calque 1
10
410.818893
20
560.538598
11
411.733139
21
560.719662
0
LINE
8
Calque 1
10
411.733139
20
560.719662
11
412.598662
21
560.578545
0
LINE
8
Calque 1
10
412.598662
20
560.578545
11
413.304630
21
560.112800
0
LINE
8
Calque 1
10
413.304630
20
560.112800
11
413.877776
21
559.325202
0
LINE
8
Calque 1
10
413.877776
20
559.325202
11
414.260304
21
558.257937
0
LINE
8
Calque 1
10
414.260304
20
558.257937
11
414.515179
21
556.646380
0
LINE
8
Calque 1
10
414.515179
20
556.646380
11
414.705370
21
554.225900
0
LINE
8
Calque 1
10
414.705370
20
554.225900
11
415.007787
21
551.048425
0
LINE
8
Calque 1
10
415.007787
20
551.048425
11
415.467600
21
548.976000
0
LINE
8
Calque 1
10
415.467600
20
548.976000
11
415.948206
21
547.357534
0
LINE
8
Calque 1
10
415.948206
20
547.357534
11
416.175082
21
545.946125
0
LINE
8
Calque 1
10
416.175082
20
545.946125
11
416.158108
21
544.612603
0
LINE
8
Calque 1
10
416.158108
20
544.612603
11
415.907160
21
543.227800
0
LINE
8
Calque 1
10
415.907160
20
543.227800
11
415.373861
21
541.707538
0
LINE
8
Calque 1
10
415.373861
20
541.707538
11
414.560460
21
540.666000
0
LINE
8
Calque 1
10
414.560460
20
540.666000
11
413.785996
21
540.086897
0
LINE
8
Calque 1
10
413.785996
20
540.086897
11
413.016752
21
539.836425
0
LINE
8
Calque 1
10
413.016752
20
539.836425
11
412.191142
21
539.907666
0
LINE
8
Calque 1
10
412.191142
20
539.907666
11
411.247580
21
540.293700
0
LINE
8
Calque 1
10
411.247580
20
540.293700
11
411.247580
21
540.293500
0
LINE
8
Calque 1
10
365.580280
20
569.158600
11
364.136998
21
570.138895
0
LINE
8
Calque 1
10
364.136998
20
570.138895
11
362.120602
21
571.936587
0
LINE
8
Calque 1
10
362.120602
20
571.936587
11
359.846585
21
574.249436
0
LINE
8
Calque 1
10
359.846585
20
574.249436
11
357.630440
21
576.775200
0
LINE
8
Calque 1
10
357.630440
20
576.775200
11
354.876935
21
580.270486
0
LINE
8
Calque 1
10
354.876935
20
580.270486
11
354.088561
21
581.492404
0
LINE
8
Calque 1
10
354.088561
20
581.492404
11
353.661429
21
582.471787
0
LINE
8
Calque 1
10
353.661429
20
582.471787
11
353.572280
21
583.289597
0
LINE
8
Calque 1
10
353.572280
20
583.289597
11
353.797856
21
584.026795
0
LINE
8
Calque 1
10
353.797856
20
584.026795
11
354.314899
21
584.764342
0
LINE
8
Calque 1
10
354.314899
20
584.764342
11
355.100150
21
585.583200
0
LINE
8
Calque 1
10
355.100150
20
585.583200
11
356.440414
21
586.717539
0
LINE
8
Calque 1
10
356.440414
20
586.717539
11
357.891331
21
587.652912
0
LINE
8
Calque 1
10
357.891331
20
587.652912
11
359.339821
21
588.326555
0
LINE
8
Calque 1
10
359.339821
20
588.326555
11
360.672800
21
588.675700
0
LINE
8
Calque 1
10
360.672800
20
588.675700
11
361.636596
21
588.610961
0
LINE
8
Calque 1
10
361.636596
20
588.610961
11
362.734754
21
588.117737
0
LINE
8
Calque 1
10
362.734754
20
588.117737
11
364.085630
21
587.124170
0
LINE
8
Calque 1
10
364.085630
20
587.124170
11
365.807580
21
585.558400
0
LINE
8
Calque 1
10
365.807580
20
585.558400
11
367.276032
21
584.332562
0
LINE
8
Calque 1
10
367.276032
20
584.332562
11
368.532730
21
583.576000
0
LINE
8
Calque 1
10
368.532730
20
583.576000
11
369.330385
21
583.356295
0
LINE
8
Calque 1
10
369.330385
20
583.356295
11
370.277001
21
583.438287
0
LINE
8
Calque 1
10
370.277001
20
583.438287
11
374.474590
21
584.931000
0
LINE
8
Calque 1
10
374.474590
20
584.931000
11
375.937943
21
585.274934
0
LINE
8
Calque 1
10
375.937943
20
585.274934
11
377.396214
21
585.064225
0
LINE
8
Calque 1
10
377.396214
20
585.064225
11
379.062443
21
584.227453
0
LINE
8
Calque 1
10
379.062443
20
584.227453
11
381.149670
21
582.693200
0
LINE
8
Calque 1
10
381.149670
20
582.693200
11
383.540118
21
580.633211
0
LINE
8
Calque 1
10
383.540118
20
580.633211
11
386.025572
21
578.297587
0
LINE
8
Calque 1
10
386.025572
20
578.297587
11
387.976063
21
576.301470
0
LINE
8
Calque 1
10
387.976063
20
576.301470
11
388.761620
21
575.260000
0
LINE
8
Calque 1
10
388.761620
20
575.260000
11
388.649601
21
574.727183
0
LINE
8
Calque 1
10
388.649601
20
574.727183
11
388.302622
21
574.349287
0
LINE
8
Calque 1
10
388.302622
20
574.349287
11
387.668525
21
574.092573
0
LINE
8
Calque 1
10
387.668525
20
574.092573
11
386.695150
21
573.923300
0
LINE
8
Calque 1
10
386.695150
20
573.923300
11
385.771255
21
573.762775
0
LINE
8
Calque 1
10
385.771255
20
573.762775
11
384.912259
21
573.444075
0
LINE
8
Calque 1
10
384.912259
20
573.444075
11
382.352660
21
571.833400
0
LINE
8
Calque 1
10
382.352660
20
571.833400
11
380.205351
21
570.457522
0
LINE
8
Calque 1
10
380.205351
20
570.457522
11
378.643682
21
569.809275
0
LINE
8
Calque 1
10
378.643682
20
569.809275
11
377.966987
21
569.732132
0
LINE
8
Calque 1
10
377.966987
20
569.732132
11
377.298131
21
569.805841
0
LINE
8
Calque 1
10
377.298131
20
569.805841
11
375.799170
21
570.364400
0
LINE
8
Calque 1
10
375.799170
20
570.364400
11
374.258470
21
571.100800
0
LINE
8
Calque 1
10
374.258470
20
571.100800
11
371.389970
21
570.038900
0
LINE
8
Calque 1
10
371.389970
20
570.038900
11
369.135042
21
569.250020
0
LINE
8
Calque 1
10
369.135042
20
569.250020
11
367.619329
21
568.871287
0
LINE
8
Calque 1
10
367.619329
20
568.871287
11
366.536513
21
568.856286
0
LINE
8
Calque 1
10
366.536513
20
568.856286
11
365.580280
21
569.158600
0
LINE
8
Calque 1
10
365.580280
20
569.158600
11
365.580280
21
569.158600
0
LINE
8
Calque 1
10
443.921480
20
568.917900
11
440.267550
21
570.117700
0
LINE
8
Calque 1
10
440.267550
20
570.117700
11
437.678150
21
571.108800
0
LINE
8
Calque 1
10
437.678150
20
571.108800
11
436.129120
21
570.368400
0
LINE
8
Calque 1
10
436.129120
20
570.368400
11
434.625384
21
569.807050
0
LINE
8
Calque 1
10
434.625384
20
569.807050
11
433.955410
21
569.732353
0
LINE
8
Calque 1
10
433.955410
20
569.732353
11
433.278125
21
569.808800
0
LINE
8
Calque 1
10
433.278125
20
569.808800
11
431.715908
21
570.456600
0
LINE
8
Calque 1
10
431.715908
20
570.456600
11
429.567300
21
571.833400
0
LINE
8
Calque 1
10
429.567300
20
571.833400
11
427.007709
21
573.444075
0
LINE
8
Calque 1
10
427.007709
20
573.444075
11
426.148710
21
573.762775
0
LINE
8
Calque 1
10
426.148710
20
573.762775
11
425.224810
21
573.923300
0
LINE
8
Calque 1
10
425.224810
20
573.923300
11
424.251446
21
574.092573
0
LINE
8
Calque 1
10
424.251446
20
574.092573
11
423.617361
21
574.349287
0
LINE
8
Calque 1
10
423.617361
20
574.349287
11
423.270385
21
574.727183
0
LINE
8
Calque 1
10
423.270385
20
574.727183
11
423.158350
21
575.260000
0
LINE
8
Calque 1
10
423.158350
20
575.260000
11
423.943991
21
576.301470
0
LINE
8
Calque 1
10
423.943991
20
576.301470
11
425.894471
21
578.297587
0
LINE
8
Calque 1
10
425.894471
20
578.297587
11
428.379876
21
580.633211
0
LINE
8
Calque 1
10
428.379876
20
580.633211
11
430.770290
21
582.693200
0
LINE
8
Calque 1
10
430.770290
20
582.693200
11
432.857517
21
584.227453
0
LINE
8
Calque 1
10
432.857517
20
584.227453
11
434.523747
21
585.064225
0
LINE
8
Calque 1
10
434.523747
20
585.064225
11
435.982021
21
585.274934
0
LINE
8
Calque 1
10
435.982021
20
585.274934
11
437.445380
21
584.931000
0
LINE
8
Calque 1
10
437.445380
20
584.931000
11
441.642969
21
583.438287
0
LINE
8
Calque 1
10
441.642969
20
583.438287
11
442.589585
21
583.356295
0
LINE
8
Calque 1
10
442.589585
20
583.356295
11
443.387240
21
583.576000
0
LINE
8
Calque 1
10
443.387240
20
583.576000
11
444.643934
21
584.332562
0
LINE
8
Calque 1
10
444.643934
20
584.332562
11
446.112390
21
585.558400
0
LINE
8
Calque 1
10
446.112390
20
585.558400
11
447.834340
21
587.124170
0
LINE
8
Calque 1
10
447.834340
20
587.124170
11
449.185215
21
588.117737
0
LINE
8
Calque 1
10
449.185215
20
588.117737
11
450.283370
21
588.610961
0
LINE
8
Calque 1
10
450.283370
20
588.610961
11
451.247160
21
588.675700
0
LINE
8
Calque 1
10
451.247160
20
588.675700
11
452.580145
21
588.326555
0
LINE
8
Calque 1
10
452.580145
20
588.326555
11
454.028636
21
587.652912
0
LINE
8
Calque 1
10
454.028636
20
587.652912
11
455.479552
21
586.717539
0
LINE
8
Calque 1
10
455.479552
20
586.717539
11
456.819810
21
585.583200
0
LINE
8
Calque 1
10
456.819810
20
585.583200
11
457.605064
21
584.764342
0
LINE
8
Calque 1
10
457.605064
20
584.764342
11
458.122108
21
584.026795
0
LINE
8
Calque 1
10
458.122108
20
584.026795
11
458.347684
21
583.289597
0
LINE
8
Calque 1
10
458.347684
20
583.289597
11
458.258535
21
582.471787
0
LINE
8
Calque 1
10
458.258535
20
582.471787
11
457.831402
21
581.492404
0
LINE
8
Calque 1
10
457.831402
20
581.492404
11
457.043027
21
580.270486
0
LINE
8
Calque 1
10
457.043027
20
580.270486
11
454.289520
21
576.775200
0
LINE
8
Calque 1
10
454.289520
20
576.775200
11
452.016541
21
574.192212
0
LINE
8
Calque 1
10
452.016541
20
574.192212
11
449.737330
21
571.855300
0
LINE
8
Calque 1
10
449.737330
20
571.855300
11
447.818794
21
570.133898
0
LINE
8
Calque 1
10
447.818794
20
570.133898
11
446.408816
21
569.170962
0
LINE
8
Calque 1
10
446.408816
20
569.170962
11
445.209133
21
568.815845
0
LINE
8
Calque 1
10
445.209133
20
568.815845
11
443.921480
21
568.917900
0
LINE
8
Calque 1
10
443.921480
20
568.917900
11
443.921480
21
568.917900
0
LINE
8
Calque 1
10
384.815080
20
507.490900
11
384.028329
21
510.373437
0
LINE
8
Calque 1
10
384.028329
20
510.373437
11
383.660556
21
511.108155
0
LINE
8
Calque 1
10
383.660556
20
511.108155
11
383.288760
21
511.426200
0
LINE
8
Calque 1
10
383.288760
20
511.426200
11
382.893907
21
511.304034
0
LINE
8
Calque 1
10
382.893907
20
511.304034
11
382.504626
21
510.763575
0
LINE
8
Calque 1
10
382.504626
20
510.763575
11
382.177087
21
509.913778
0
LINE
8
Calque 1
10
382.177087
20
509.913778
11
381.967460
21
508.863600
0
LINE
8
Calque 1
10
381.967460
20
508.863600
11
381.804510
21
507.487700
0
LINE
8
Calque 1
10
381.804510
20
507.487700
11
383.497320
21
505.776100
0
LINE
8
Calque 1
10
383.497320
20
505.776100
11
384.660011
21
504.680903
0
LINE
8
Calque 1
10
384.660011
20
504.680903
11
385.003288
21
504.475554
0
LINE
8
Calque 1
10
385.003288
20
504.475554
11
385.203721
21
504.519025
0
LINE
8
Calque 1
10
385.203721
20
504.519025
11
385.223670
21
505.414384
0
LINE
8
Calque 1
10
385.223670
20
505.414384
11
384.815080
21
507.490900
0
LINE
8
Calque 1
10
384.815080
20
507.490900
11
384.815080
21
507.490900
0
LINE
8
Calque 1
10
430.035580
20
508.180500
11
429.740716
21
509.997712
0
LINE
8
Calque 1
10
429.740716
20
509.997712
11
429.439379
21
510.763233
0
LINE
8
Calque 1
10
429.439379
20
510.763233
11
429.093210
21
511.245600
0
LINE
8
Calque 1
10
429.093210
20
511.245600
11
428.692826
21
511.443150
0
LINE
8
Calque 1
10
428.692826
20
511.443150
11
428.308920
21
511.203600
0
LINE
8
Calque 1
10
428.308920
20
511.203600
11
427.914874
21
510.398969
0
LINE
8
Calque 1
10
427.914874
20
510.398969
11
427.444454
21
508.888325
0
LINE
8
Calque 1
10
427.444454
20
508.888325
11
426.705950
21
505.330000
0
LINE
8
Calque 1
10
426.705950
20
505.330000
11
426.535320
21
503.954800
0
LINE
8
Calque 1
10
426.535320
20
503.954800
11
428.286190
21
505.667000
0
LINE
8
Calque 1
10
428.286190
20
505.667000
11
429.685536
21
507.196450
0
LINE
8
Calque 1
10
429.685536
20
507.196450
11
429.959314
21
507.710084
0
LINE
8
Calque 1
10
429.959314
20
507.710084
11
430.035580
21
508.180500
0
LINE
8
Calque 1
10
430.035580
20
508.180500
11
430.035580
21
508.180500
0
LINE
8
Calque 1
10
371.808080
20
520.510400
11
371.946572
21
521.987095
0
LINE
8
Calque 1
10
371.946572
20
521.987095
11
371.760739
21
523.548211
0
LINE
8
Calque 1
10
371.760739
20
523.548211
11
371.265759
21
525.166756
0
LINE
8
Calque 1
10
371.265759
20
525.166756
11
370.476812
21
526.815737
0
LINE
8
Calque 1
10
370.476812
20
526.815737
11
369.409079
21
528.468165
0
LINE
8
Calque 1
10
369.409079
20
528.468165
11
368.077737
21
530.097045
0
LINE
8
Calque 1
10
368.077737
20
530.097045
11
366.497968
21
531.675388
0
LINE
8
Calque 1
10
366.497968
20
531.675388
11
364.684950
21
533.176200
0
LINE
8
Calque 1
10
364.684950
20
533.176200
11
361.456118
21
535.373562
0
LINE
8
Calque 1
10
361.456118
20
535.373562
11
358.457850
21
536.776300
0
LINE
8
Calque 1
10
358.457850
20
536.776300
11
357.160079
21
537.224198
0
LINE
8
Calque 1
10
357.160079
20
537.224198
11
356.232091
21
537.382737
0
LINE
8
Calque 1
10
356.232091
20
537.382737
11
355.384183
21
537.257308
0
LINE
8
Calque 1
10
355.384183
20
537.257308
11
354.326650
21
536.853300
0
LINE
8
Calque 1
10
354.326650
20
536.853300
11
352.998370
21
536.281900
0
LINE
8
Calque 1
10
352.998370
20
536.281900
11
361.950520
21
527.325500
0
LINE
8
Calque 1
10
361.950520
20
527.325500
11
367.559633
21
521.737608
0
LINE
8
Calque 1
10
367.559633
20
521.737608
11
370.354125
21
519.235637
0
LINE
8
Calque 1
10
370.354125
20
519.235637
11
371.032516
21
518.909142
0
LINE
8
Calque 1
10
371.032516
20
518.909142
11
371.411205
21
519.074848
0
LINE
8
Calque 1
10
371.411205
20
519.074848
11
371.624842
21
519.639665
0
LINE
8
Calque 1
10
371.624842
20
519.639665
11
371.808080
21
520.510500
0
LINE
8
Calque 1
10
371.808080
20
520.510500
11
371.808080
21
520.510400
0
LINE
8
Calque 1
10
457.626780
20
536.825900
11
456.597097
21
537.246403
0
LINE
8
Calque 1
10
456.597097
20
537.246403
11
455.735302
21
537.380350
0
LINE
8
Calque 1
10
455.735302
20
537.380350
11
454.778066
21
537.224572
0
LINE
8
Calque 1
10
454.778066
20
537.224572
11
453.462060
21
536.775900
0
LINE
8
Calque 1
10
453.462060
20
536.775900
11
451.826763
21
536.071884
0
LINE
8
Calque 1
10
451.826763
20
536.071884
11
450.187227
21
535.197691
0
LINE
8
Calque 1
10
450.187227
20
535.197691
11
447.017555
21
533.034950
0
LINE
8
Calque 1
10
447.017555
20
533.034950
11
444.197286
21
530.480034
0
LINE
8
Calque 1
10
444.197286
20
530.480034
11
442.994502
21
529.115622
0
LINE
8
Calque 1
10
442.994502
20
529.115622
11
441.970660
21
527.725300
0
LINE
8
Calque 1
10
441.970660
20
527.725300
11
440.822010
21
525.546148
0
LINE
8
Calque 1
10
440.822010
20
525.546148
11
440.166444
21
523.304062
0
LINE
8
Calque 1
10
440.166444
20
523.304062
11
440.034556
21
521.169095
0
LINE
8
Calque 1
10
440.034556
20
521.169095
11
440.174552
21
520.194923
0
LINE
8
Calque 1
10
440.174552
20
520.194923
11
440.456940
21
519.311300
0
LINE
8
Calque 1
10
440.456940
20
519.311300
11
440.904020
21
518.263900
0
LINE
8
Calque 1
10
440.904020
20
518.263900
11
449.897230
21
527.248800
0
LINE
8
Calque 1
10
449.897230
20
527.248800
11
458.890450
21
536.233600
0
LINE
8
Calque 1
10
458.890450
20
536.233600
11
457.626780
21
536.825900
0
LINE
8
Calque 1
10
327.475780
20
562.908900
11
328.211535
21
564.226812
0
LINE
8
Calque 1
10
328.211535
20
564.226812
11
329.764250
21
566.534200
0
LINE
8
Calque 1
10
329.764250
20
566.534200
11
331.898750
21
569.546000
0
LINE
8
Calque 1
10
331.898750
20
569.546000
11
325.207200
21
576.242600
0
LINE
8
Calque 1
10
325.207200
20
576.242600
11
319.583077
21
581.739838
0
LINE
8
Calque 1
10
319.583077
20
581.739838
11
318.572181
21
582.515277
0
LINE
8
Calque 1
10
318.572181
20
582.515277
11
318.327649
21
582.578140
0
LINE
8
Calque 1
10
318.327649
20
582.578140
11
318.184920
21
582.488600
0
LINE
8
Calque 1
10
318.184920
20
582.488600
11
317.951342
21
582.260525
0
LINE
8
Calque 1
10
317.951342
20
582.260525
11
317.854190
21
582.344900
0
LINE
8
Calque 1
10
317.854190
20
582.344900
11
317.718901
21
582.520537
0
LINE
8
Calque 1
10
317.718901
20
582.520537
11
317.391170
21
582.509500
0
LINE
8
Calque 1
10
317.391170
20
582.509500
11
317.249537
21
582.520150
0
LINE
8
Calque 1
10
317.249537
20
582.520150
11
317.559210
21
582.744700
0
LINE
8
Calque 1
10
317.559210
20
582.744700
11
317.951367
21
583.072925
0
LINE
8
Calque 1
10
317.951367
20
583.072925
11
317.889940
21
583.307700
0
LINE
8
Calque 1
10
317.889940
20
583.307700
11
317.677832
21
583.347562
0
LINE
8
Calque 1
10
317.677832
20
583.347562
11
317.589610
21
583.182300
0
LINE
8
Calque 1
10
317.589610
20
583.182300
11
317.440405
21
582.997987
0
LINE
8
Calque 1
10
317.440405
20
582.997987
11
317.060710
21
583.009500
0
LINE
8
Calque 1
10
317.060710
20
583.009500
11
316.643645
21
583.036950
0
LINE
8
Calque 1
10
316.643645
20
583.036950
11
316.383630
21
582.908100
0
LINE
8
Calque 1
10
316.383630
20
582.908100
11
316.140780
21
582.703098
0
LINE
8
Calque 1
10
316.140780
20
582.703098
11
315.842435
21
582.684312
0
LINE
8
Calque 1
10
315.842435
20
582.684312
11
315.569763
21
582.833245
0
LINE
8
Calque 1
10
315.569763
20
582.833245
11
315.403930
21
583.131400
0
LINE
8
Calque 1
10
315.403930
20
583.131400
11
315.252935
21
583.255062
0
LINE
8
Calque 1
10
315.252935
20
583.255062
11
315.011520
21
582.668400
0
LINE
8
Calque 1
10
315.011520
20
582.668400
11
314.767941
21
582.013837
0
LINE
8
Calque 1
10
314.767941
20
582.013837
11
314.682170
21
582.403800
0
LINE
8
Calque 1
10
314.682170
20
582.403800
11
314.610286
21
582.770537
0
LINE
8
Calque 1
10
314.610286
20
582.770537
11
314.500280
21
582.723500
0
LINE
8
Calque 1
10
314.500280
20
582.723500
11
314.313531
21
582.519450
0
LINE
8
Calque 1
10
314.313531
20
582.519450
11
313.992000
21
582.689500
0
LINE
8
Calque 1
10
313.992000
20
582.689500
11
313.699825
21
582.862675
0
LINE
8
Calque 1
10
313.699825
20
582.862675
11
313.620860
21
582.671500
0
LINE
8
Calque 1
10
313.620860
20
582.671500
11
313.454084
21
582.469775
0
LINE
8
Calque 1
10
313.454084
20
582.469775
11
312.959400
21
582.511800
0
LINE
8
Calque 1
10
312.959400
20
582.511800
11
312.460985
21
582.553437
0
LINE
8
Calque 1
10
312.460985
20
582.553437
11
312.293890
21
582.342100
0
LINE
8
Calque 1
10
312.293890
20
582.342100
11
312.237140
21
582.167212
0
LINE
8
Calque 1
10
312.237140
20
582.167212
11
312.053790
21
582.379100
0
LINE
8
Calque 1
10
312.053790
20
582.379100
11
311.926078
21
582.766087
0
LINE
8
Calque 1
10
311.926078
20
582.766087
11
311.950510
21
583.172800
0
LINE
8
Calque 1
10
311.950510
20
583.172800
11
312.009081
21
583.446187
0
LINE
8
Calque 1
10
312.009081
20
583.446187
11
311.811190
21
583.209800
0
LINE
8
Calque 1
10
311.811190
20
583.209800
11
311.658260
21
582.632700
0
LINE
8
Calque 1
10
311.658260
20
582.632700
11
311.663354
21
582.447775
0
LINE
8
Calque 1
10
311.663354
20
582.447775
11
311.508510
21
582.273800
0
LINE
8
Calque 1
10
311.508510
20
582.273800
11
311.308851
21
582.333400
0
LINE
8
Calque 1
10
311.308851
20
582.333400
11
311.208920
21
582.718500
0
LINE
8
Calque 1
10
311.208920
20
582.718500
11
311.158080
21
583.090625
0
LINE
8
Calque 1
10
311.158080
20
583.090625
11
311.056600
21
582.863200
0
LINE
8
Calque 1
10
311.056600
20
582.863200
11
310.904459
21
582.574800
0
LINE
8
Calque 1
10
310.904459
20
582.574800
11
310.709470
21
582.536300
0
LINE
8
Calque 1
10
310.709470
20
582.536300
11
310.501768
21
582.482400
0
LINE
8
Calque 1
10
310.501768
20
582.482400
11
310.319070
21
582.156100
0
LINE
8
Calque 1
10
310.319070
20
582.156100
11
310.094638
21
581.818325
0
LINE
8
Calque 1
10
310.094638
20
581.818325
11
309.770860
21
581.783700
0
LINE
8
Calque 1
10
309.770860
20
581.783700
11
309.472997
21
581.969055
0
LINE
8
Calque 1
10
309.472997
20
581.969055
11
309.396271
21
582.156387
0
LINE
8
Calque 1
10
309.396271
20
582.156387
11
309.526765
21
582.268252
0
LINE
8
Calque 1
10
309.526765
20
582.268252
11
309.850560
21
582.227200
0
LINE
8
Calque 1
10
309.850560
20
582.227200
11
310.119665
21
582.181662
0
LINE
8
Calque 1
10
310.119665
20
582.181662
11
309.784360
21
582.491700
0
LINE
8
Calque 1
10
309.784360
20
582.491700
11
309.503190
21
582.795837
0
LINE
8
Calque 1
10
309.503190
20
582.795837
11
309.585920
21
582.924100
0
LINE
8
Calque 1
10
309.585920
20
582.924100
11
309.819498
21
583.014987
0
LINE
8
Calque 1
10
309.819498
20
583.014987
11
309.916650
21
583.227600
0
LINE
8
Calque 1
10
309.916650
20
583.227600
11
309.742434
21
583.329062
0
LINE
8
Calque 1
10
309.742434
20
583.329062
11
309.268990
21
583.098200
0
LINE
8
Calque 1
10
309.268990
20
583.098200
11
308.765553
21
582.868275
0
LINE
8
Calque 1
10
308.765553
20
582.868275
11
308.470030
21
582.918700
0
LINE
8
Calque 1
10
308.470030
20
582.918700
11
308.202420
21
583.079437
0
LINE
8
Calque 1
10
308.202420
20
583.079437
11
307.771460
21
583.122200
0
LINE
8
Calque 1
10
307.771460
20
583.122200
11
307.369111
21
583.025912
0
LINE
8
Calque 1
10
307.369111
20
583.025912
11
307.805960
21
582.609900
0
LINE
8
Calque 1
10
307.805960
20
582.609900
11
308.141121
21
582.277187
0
LINE
8
Calque 1
10
308.141121
20
582.277187
11
308.129940
21
582.138800
0
LINE
8
Calque 1
10
308.129940
20
582.138800
11
307.195820
21
582.815100
0
LINE
8
Calque 1
10
307.195820
20
582.815100
11
306.689875
21
583.236800
0
LINE
8
Calque 1
10
306.689875
20
583.236800
11
306.590818
21
583.222519
0
LINE
8
Calque 1
10
306.590818
20
583.222519
11
306.582390
21
583.063000
0
LINE
8
Calque 1
10
306.582390
20
583.063000
11
309.772787
21
579.643892
0
LINE
8
Calque 1
10
309.772787
20
579.643892
11
316.758690
21
572.524237
0
LINE
8
Calque 1
10
316.758690
20
572.524237
11
323.798518
21
565.481964
0
LINE
8
Calque 1
10
323.798518
20
565.481964
11
327.150690
21
562.295000
0
LINE
8
Calque 1
10
327.150690
20
562.295000
11
327.475690
21
562.908500
0
LINE
8
Calque 1
10
327.475690
20
562.908500
11
327.475780
21
562.908900
0
LINE
8
Calque 1
10
312.777480
20
582.055400
11
313.284600
21
582.034400
0
LINE
8
Calque 1
10
313.284600
20
582.034400
11
313.248541
21
581.927587
0
LINE
8
Calque 1
10
313.248541
20
581.927587
11
312.937330
21
581.895400
0
LINE
8
Calque 1
10
312.937330
20
581.895400
11
312.662671
21
581.948387
0
LINE
8
Calque 1
10
312.662671
20
581.948387
11
312.777480
21
582.055300
0
LINE
8
Calque 1
10
312.777480
20
582.055300
11
312.777480
21
582.055400
0
LINE
8
Calque 1
10
316.398960
20
582.668400
11
316.679160
21
582.932900
0
LINE
8
Calque 1
10
316.679160
20
582.932900
11
316.795840
21
582.668400
0
LINE
8
Calque 1
10
316.795840
20
582.668400
11
316.713531
21
582.481500
0
LINE
8
Calque 1
10
316.713531
20
582.481500
11
316.515640
21
582.403800
0
LINE
8
Calque 1
10
316.515640
20
582.403800
11
316.365785
21
582.481500
0
LINE
8
Calque 1
10
316.365785
20
582.481500
11
316.398960
21
582.668400
0
LINE
8
Calque 1
10
316.398960
20
582.668400
11
316.398960
21
582.668400
0
LINE
8
Calque 1
10
495.522960
20
572.932200
11
502.829404
21
580.307075
0
LINE
8
Calque 1
10
502.829404
20
580.307075
11
504.921976
21
582.443653
0
LINE
8
Calque 1
10
504.921976
20
582.443653
11
505.434363
21
582.978236
0
LINE
8
Calque 1
10
505.434363
20
582.978236
11
505.536060
21
583.101400
0
LINE
8
Calque 1
10
505.536060
20
583.101400
11
505.067355
21
582.824312
0
LINE
8
Calque 1
10
505.067355
20
582.824312
11
504.792840
21
582.915700
0
LINE
8
Calque 1
10
504.792840
20
582.915700
11
504.319130
21
583.197500
0
LINE
8
Calque 1
10
504.319130
20
583.197500
11
504.258455
21
583.083400
0
LINE
8
Calque 1
10
504.258455
20
583.083400
11
504.533180
21
582.809100
0
LINE
8
Calque 1
10
504.533180
20
582.809100
11
504.889845
21
582.481687
0
LINE
8
Calque 1
10
504.889845
20
582.481687
11
504.583780
21
582.412200
0
LINE
8
Calque 1
10
504.583780
20
582.412200
11
504.256772
21
582.325687
0
LINE
8
Calque 1
10
504.256772
20
582.325687
11
504.120760
21
582.123600
0
LINE
8
Calque 1
10
504.120760
20
582.123600
11
504.042754
21
581.973900
0
LINE
8
Calque 1
10
504.042754
20
581.973900
11
503.855210
21
582.007500
0
LINE
8
Calque 1
10
503.855210
20
582.007500
11
503.715231
21
582.312862
0
LINE
8
Calque 1
10
503.715231
20
582.312862
11
503.751600
21
582.816900
0
LINE
8
Calque 1
10
503.751600
20
582.816900
11
503.785797
21
583.318000
0
LINE
8
Calque 1
10
503.785797
20
583.318000
11
503.503600
21
583.462100
0
LINE
8
Calque 1
10
503.503600
20
583.462100
11
503.157881
21
583.371175
0
LINE
8
Calque 1
10
503.157881
20
583.371175
11
502.902350
21
583.152600
0
LINE
8
Calque 1
10
502.902350
20
583.152600
11
502.862769
21
582.961325
0
LINE
8
Calque 1
10
502.862769
20
582.961325
11
503.116130
21
582.998500
0
LINE
8
Calque 1
10
503.116130
20
582.998500
11
503.391697
21
583.011175
0
LINE
8
Calque 1
10
503.391697
20
583.011175
11
503.234380
21
582.546100
0
LINE
8
Calque 1
10
503.234380
20
582.546100
11
502.952585
21
582.176536
0
LINE
8
Calque 1
10
502.952585
20
582.176536
11
502.606349
21
582.013812
0
LINE
8
Calque 1
10
502.606349
20
582.013812
11
502.281028
21
582.071308
0
LINE
8
Calque 1
10
502.281028
20
582.071308
11
502.061980
21
582.362400
0
LINE
8
Calque 1
10
502.061980
20
582.362400
11
501.906085
21
582.529463
0
LINE
8
Calque 1
10
501.906085
20
582.529463
11
501.676030
21
582.496800
0
LINE
8
Calque 1
10
501.676030
20
582.496800
11
501.523641
21
582.458713
0
LINE
8
Calque 1
10
501.523641
20
582.458713
11
501.606730
21
582.667600
0
LINE
8
Calque 1
10
501.606730
20
582.667600
11
501.841124
21
582.855625
0
LINE
8
Calque 1
10
501.841124
20
582.855625
11
502.136800
21
582.580600
0
LINE
8
Calque 1
10
502.136800
20
582.580600
11
502.410931
21
582.325462
0
LINE
8
Calque 1
10
502.410931
20
582.325462
11
502.625580
21
582.320000
0
LINE
8
Calque 1
10
502.625580
20
582.320000
11
502.777435
21
582.720217
0
LINE
8
Calque 1
10
502.777435
20
582.720217
11
502.441184
21
582.965588
0
LINE
8
Calque 1
10
502.441184
20
582.965588
11
501.806933
21
583.001089
0
LINE
8
Calque 1
10
501.806933
20
583.001089
11
501.064790
21
582.771700
0
LINE
8
Calque 1
10
501.064790
20
582.771700
11
500.143849
21
582.418662
0
LINE
8
Calque 1
10
500.143849
20
582.418662
11
499.968884
21
582.466980
0
LINE
8
Calque 1
10
499.968884
20
582.466980
11
500.019730
21
582.668700
0
LINE
8
Calque 1
10
500.019730
20
582.668700
11
500.014034
21
582.855513
0
LINE
8
Calque 1
10
500.014034
20
582.855513
11
499.770760
21
582.933200
0
LINE
8
Calque 1
10
499.770760
20
582.933200
11
499.479439
21
582.868525
0
LINE
8
Calque 1
10
499.479439
20
582.868525
11
499.358270
21
582.712800
0
LINE
8
Calque 1
10
499.358270
20
582.712800
11
499.241689
21
582.557063
0
LINE
8
Calque 1
10
499.241689
20
582.557063
11
498.961390
21
582.492300
0
LINE
8
Calque 1
10
498.961390
20
582.492300
11
498.681100
21
582.566587
0
LINE
8
Calque 1
10
498.681100
20
582.566587
11
498.564520
21
582.745200
0
LINE
8
Calque 1
10
498.564520
20
582.745200
11
498.441856
21
582.821950
0
LINE
8
Calque 1
10
498.441856
20
582.821950
11
498.146940
21
582.651200
0
LINE
8
Calque 1
10
498.146940
20
582.651200
11
497.602477
21
582.374992
0
LINE
8
Calque 1
10
497.602477
20
582.374992
11
496.977255
21
582.266137
0
LINE
8
Calque 1
10
496.977255
20
582.266137
11
496.492771
21
582.333064
0
LINE
8
Calque 1
10
496.492771
20
582.333064
11
496.370520
21
582.584200
0
LINE
8
Calque 1
10
496.370520
20
582.584200
11
496.547206
21
582.825420
0
LINE
8
Calque 1
10
496.547206
20
582.825420
11
496.808043
21
582.920587
0
LINE
8
Calque 1
10
496.808043
20
582.920587
11
497.409170
21
582.660200
0
LINE
8
Calque 1
10
497.409170
20
582.660200
11
497.616431
21
582.551150
0
LINE
8
Calque 1
10
497.616431
20
582.551150
11
497.682580
21
582.792500
0
LINE
8
Calque 1
10
497.682580
20
582.792500
11
497.567180
21
583.082800
0
LINE
8
Calque 1
10
497.567180
20
583.082800
11
496.802400
21
583.214300
0
LINE
8
Calque 1
10
496.802400
20
583.214300
11
496.359393
21
583.331500
0
LINE
8
Calque 1
10
496.359393
20
583.331500
11
496.316060
21
583.197300
0
LINE
8
Calque 1
10
496.316060
20
583.197300
11
496.348889
21
583.011075
0
LINE
8
Calque 1
10
496.348889
20
583.011075
11
496.198890
21
582.933600
0
LINE
8
Calque 1
10
496.198890
20
582.933600
11
496.000609
21
583.030737
0
LINE
8
Calque 1
10
496.000609
20
583.030737
11
495.917370
21
583.264300
0
LINE
8
Calque 1
10
495.917370
20
583.264300
11
495.716879
21
583.264887
0
LINE
8
Calque 1
10
495.716879
20
583.264887
11
495.236780
21
582.801300
0
LINE
8
Calque 1
10
495.236780
20
582.801300
11
494.796386
21
582.322125
0
LINE
8
Calque 1
10
494.796386
20
582.322125
11
494.691460
21
582.284700
0
LINE
8
Calque 1
10
494.691460
20
582.284700
11
494.582360
21
582.946200
0
LINE
8
Calque 1
10
494.582360
20
582.946200
11
494.386500
21
583.182787
0
LINE
8
Calque 1
10
494.386500
20
583.182787
11
494.335240
21
582.967200
0
LINE
8
Calque 1
10
494.335240
20
582.967200
11
494.255416
21
582.749800
0
LINE
8
Calque 1
10
494.255416
20
582.749800
11
493.992150
21
582.885200
0
LINE
8
Calque 1
10
493.992150
20
582.885200
11
493.495721
21
582.685645
0
LINE
8
Calque 1
10
493.495721
20
582.685645
11
492.265815
21
581.648387
0
LINE
8
Calque 1
10
492.265815
20
581.648387
11
486.835890
21
576.358800
0
LINE
8
Calque 1
10
486.835890
20
576.358800
11
480.018670
21
569.551000
0
LINE
8
Calque 1
10
480.018670
20
569.551000
11
482.154860
21
566.536700
0
LINE
8
Calque 1
10
482.154860
20
566.536700
11
483.708771
21
564.227750
0
LINE
8
Calque 1
10
483.708771
20
564.227750
11
484.445010
21
562.909100
0
LINE
8
Calque 1
10
484.445010
20
562.909100
11
484.769960
21
562.295700
0
LINE
8
Calque 1
10
484.769960
20
562.295700
11
495.523060
21
572.932400
0
LINE
8
Calque 1
10
495.523060
20
572.932400
11
495.522960
21
572.932200
0
LINE
8
Calque 1
10
313.224000
20
582.933000
11
312.745370
21
583.193600
0
LINE
8
Calque 1
10
312.745370
20
583.193600
11
312.625826
21
583.121125
0
LINE
8
Calque 1
10
312.625826
20
583.121125
11
312.827170
21
582.933000
0
LINE
8
Calque 1
10
312.827170
20
582.933000
11
313.292350
21
582.686700
0
LINE
8
Calque 1
10
313.292350
20
582.686700
11
313.224040
21
582.933000
0
LINE
8
Calque 1
10
313.224040
20
582.933000
11
313.224000
21
582.933000
0
LINE
8
Calque 1
10
307.103240
20
588.011100
11
307.416842
21
588.047787
0
LINE
8
Calque 1
10
307.416842
20
588.047787
11
307.774560
21
587.878900
0
LINE
8
Calque 1
10
307.774560
20
587.878900
11
308.055810
21
587.713137
0
LINE
8
Calque 1
10
308.055810
20
587.713137
11
307.987830
21
588.032400
0
LINE
8
Calque 1
10
307.987830
20
588.032400
11
307.938405
21
588.366050
0
LINE
8
Calque 1
10
307.938405
20
588.366050
11
308.335170
21
588.221500
0
LINE
8
Calque 1
10
308.335170
20
588.221500
11
308.858380
21
587.686200
0
LINE
8
Calque 1
10
308.858380
20
587.686200
11
308.971974
21
587.479772
0
LINE
8
Calque 1
10
308.971974
20
587.479772
11
309.249449
21
587.442900
0
LINE
8
Calque 1
10
309.249449
20
587.442900
11
309.595847
21
587.562928
0
LINE
8
Calque 1
10
309.595847
20
587.562928
11
309.916210
21
587.827200
0
LINE
8
Calque 1
10
309.916210
20
587.827200
11
310.299896
21
588.051711
0
LINE
8
Calque 1
10
310.299896
20
588.051711
11
310.840508
21
588.103187
0
LINE
8
Calque 1
10
310.840508
20
588.103187
11
311.403061
21
587.989270
0
LINE
8
Calque 1
10
311.403061
20
587.989270
11
311.852570
21
587.717600
0
LINE
8
Calque 1
10
311.852570
20
587.717600
11
312.171774
21
587.588075
0
LINE
8
Calque 1
10
312.171774
20
587.588075
11
312.603080
21
587.717300
0
LINE
8
Calque 1
10
312.603080
20
587.717300
11
313.091710
21
587.805300
0
LINE
8
Calque 1
10
313.091710
20
587.805300
11
313.465030
21
587.941100
0
LINE
8
Calque 1
10
313.465030
20
587.941100
11
313.798339
21
588.116825
0
LINE
8
Calque 1
10
313.798339
20
588.116825
11
314.027270
21
587.941100
0
LINE
8
Calque 1
10
314.027270
20
587.941100
11
314.224907
21
587.785762
0
LINE
8
Calque 1
10
314.224907
20
587.785762
11
314.443650
21
587.994100
0
LINE
8
Calque 1
10
314.443650
20
587.994100
11
314.621051
21
588.198525
0
LINE
8
Calque 1
10
314.621051
20
588.198525
11
314.675160
21
588.022100
0
LINE
8
Calque 1
10
314.675160
20
588.022100
11
314.775452
21
587.788537
0
LINE
8
Calque 1
10
314.775452
20
587.788537
11
315.011180
21
587.691400
0
LINE
8
Calque 1
10
315.011180
20
587.691400
11
318.347377
21
590.793850
0
LINE
8
Calque 1
10
318.347377
20
590.793850
11
325.902280
21
598.252900
0
LINE
8
Calque 1
10
325.902280
20
598.252900
11
336.461380
21
608.814500
0
LINE
8
Calque 1
10
336.461380
20
608.814500
11
335.326030
21
612.068300
0
LINE
8
Calque 1
10
335.326030
20
612.068300
11
333.682380
21
616.507900
0
LINE
8
Calque 1
10
333.682380
20
616.507900
11
333.174080
21
617.693700
0
LINE
8
Calque 1
10
333.174080
20
617.693700
11
319.284680
21
603.817000
0
LINE
8
Calque 1
10
319.284680
20
603.817000
11
309.313005
21
593.757612
0
LINE
8
Calque 1
10
309.313005
20
593.757612
11
304.842880
21
589.058700
0
LINE
8
Calque 1
10
304.842880
20
589.058700
11
304.441269
21
588.245987
0
LINE
8
Calque 1
10
304.441269
20
588.245987
11
304.500865
21
588.004308
0
LINE
8
Calque 1
10
304.500865
20
588.004308
11
304.722390
21
587.745200
0
LINE
8
Calque 1
10
304.722390
20
587.745200
11
305.088111
21
587.456675
0
LINE
8
Calque 1
10
305.088111
20
587.456675
11
305.154260
21
587.817200
0
LINE
8
Calque 1
10
305.154260
20
587.817200
11
305.210146
21
588.184725
0
LINE
8
Calque 1
10
305.210146
20
588.184725
11
305.570750
21
587.807200
0
LINE
8
Calque 1
10
305.570750
20
587.807200
11
305.815689
21
587.541600
0
LINE
8
Calque 1
10
305.815689
20
587.541600
11
305.819720
21
587.624300
0
LINE
8
Calque 1
10
305.819720
20
587.624300
11
305.814077
21
587.862700
0
LINE
8
Calque 1
10
305.814077
20
587.862700
11
306.064680
21
587.955000
0
LINE
8
Calque 1
10
306.064680
20
587.955000
11
306.362137
21
587.819012
0
LINE
8
Calque 1
10
306.362137
20
587.819012
11
306.498060
21
587.492000
0
LINE
8
Calque 1
10
306.498060
20
587.492000
11
306.545130
21
587.202125
0
LINE
8
Calque 1
10
306.545130
20
587.202125
11
306.670020
21
587.426000
0
LINE
8
Calque 1
10
306.670020
20
587.426000
11
307.103280
21
588.006200
0
LINE
8
Calque 1
10
307.103280
20
588.006200
11
307.103240
21
588.011100
0
LINE
8
Calque 1
10
310.578170
20
587.695500
11
310.611324
21
587.882400
0
LINE
8
Calque 1
10
310.611324
20
587.882400
11
310.461500
21
587.960100
0
LINE
8
Calque 1
10
310.461500
20
587.960100
11
310.263609
21
587.882400
0
LINE
8
Calque 1
10
310.263609
20
587.882400
11
310.181300
21
587.695500
0
LINE
8
Calque 1
10
310.181300
20
587.695500
11
310.297970
21
587.431000
0
LINE
8
Calque 1
10
310.297970
20
587.431000
11
310.578170
21
587.695500
0
LINE
8
Calque 1
10
310.578170
20
587.695500
11
310.578170
21
587.695500
0
LINE
8
Calque 1
10
500.218170
20
588.129200
11
500.545177
21
588.094387
0
LINE
8
Calque 1
10
500.545177
20
588.094387
11
500.681190
21
587.958700
0
LINE
8
Calque 1
10
500.681190
20
587.958700
11
500.856062
21
587.813088
0
LINE
8
Calque 1
10
500.856062
20
587.813088
11
501.276500
21
587.753800
0
LINE
8
Calque 1
10
501.276500
20
587.753800
11
502.642610
21
587.580500
0
LINE
8
Calque 1
10
502.642610
20
587.580500
11
503.214615
21
587.506912
0
LINE
8
Calque 1
10
503.214615
20
587.506912
11
503.095960
21
587.787400
0
LINE
8
Calque 1
10
503.095960
20
587.787400
11
502.960952
21
588.090137
0
LINE
8
Calque 1
10
502.960952
20
588.090137
11
503.424250
21
588.131200
0
LINE
8
Calque 1
10
503.424250
20
588.131200
11
503.847634
21
588.051038
0
LINE
8
Calque 1
10
503.847634
20
588.051038
11
503.958770
21
587.912300
0
LINE
8
Calque 1
10
503.958770
20
587.912300
11
504.116450
21
587.565900
0
LINE
8
Calque 1
10
504.116450
20
587.565900
11
504.306420
21
587.511525
0
LINE
8
Calque 1
10
504.306420
20
587.511525
11
504.385540
21
587.613900
0
LINE
8
Calque 1
10
504.385540
20
587.613900
11
504.613267
21
587.803138
0
LINE
8
Calque 1
10
504.613267
20
587.803138
11
505.145654
21
587.864050
0
LINE
8
Calque 1
10
505.145654
20
587.864050
11
505.757119
21
587.797388
0
LINE
8
Calque 1
10
505.757119
20
587.797388
11
506.222080
21
587.603900
0
LINE
8
Calque 1
10
506.222080
20
587.603900
11
506.481916
21
587.429725
0
LINE
8
Calque 1
10
506.481916
20
587.429725
11
506.416200
21
587.613900
0
LINE
8
Calque 1
10
506.416200
20
587.613900
11
506.362836
21
587.883400
0
LINE
8
Calque 1
10
506.362836
20
587.883400
11
506.497700
21
588.092600
0
LINE
8
Calque 1
10
506.497700
20
588.092600
11
506.687612
21
588.127463
0
LINE
8
Calque 1
10
506.687612
20
588.127463
11
506.766600
21
587.978500
0
LINE
8
Calque 1
10
506.766600
20
587.978500
11
506.883185
21
587.780612
0
LINE
8
Calque 1
10
506.883185
20
587.780612
11
507.163480
21
587.698300
0
LINE
8
Calque 1
10
507.163480
20
587.698300
11
507.480244
21
587.810903
0
LINE
8
Calque 1
10
507.480244
20
587.810903
11
507.523156
21
588.144100
0
LINE
8
Calque 1
10
507.523156
20
588.144100
11
506.793270
21
589.444600
0
LINE
8
Calque 1
10
506.793270
20
589.444600
11
492.386470
21
604.088600
0
LINE
8
Calque 1
10
492.386470
20
604.088600
11
478.746770
21
617.700700
0
LINE
8
Calque 1
10
478.746770
20
617.700700
11
478.238480
21
616.514900
0
LINE
8
Calque 1
10
478.238480
20
616.514900
11
476.593010
21
612.070100
0
LINE
8
Calque 1
10
476.593010
20
612.070100
11
475.455840
21
608.811100
0
LINE
8
Calque 1
10
475.455840
20
608.811100
11
486.018040
21
598.313300
0
LINE
8
Calque 1
10
486.018040
20
598.313300
11
494.966236
21
589.557100
0
LINE
8
Calque 1
10
494.966236
20
589.557100
11
496.650807
21
588.132416
0
LINE
8
Calque 1
10
496.650807
20
588.132416
11
497.432040
21
587.795400
0
LINE
8
Calque 1
10
497.432040
20
587.795400
11
497.992872
21
587.847163
0
LINE
8
Calque 1
10
497.992872
20
587.847163
11
498.145120
21
587.999500
0
LINE
8
Calque 1
10
498.145120
20
587.999500
11
498.237052
21
588.142338
0
LINE
8
Calque 1
10
498.237052
20
588.142338
11
498.652880
21
588.170500
0
LINE
8
Calque 1
10
498.652880
20
588.170500
11
499.113831
21
588.031725
0
LINE
8
Calque 1
10
499.113831
20
588.031725
11
499.174980
21
587.709200
0
LINE
8
Calque 1
10
499.174980
20
587.709200
11
499.130467
21
587.436250
0
LINE
8
Calque 1
10
499.130467
20
587.436250
11
499.402920
21
587.698200
0
LINE
8
Calque 1
10
499.402920
20
587.698200
11
499.787770
21
587.989338
0
LINE
8
Calque 1
10
499.787770
20
587.989338
11
500.218280
21
588.131900
0
LINE
8
Calque 1
10
500.218280
20
588.131900
11
500.218170
21
588.129200
0
LINE
8
Calque 1
10
410.458270
20
614.011100
11
412.664070
21
614.426318
0
LINE
8
Calque 1
10
412.664070
20
614.426318
11
414.761867
21
614.986055
0
LINE
8
Calque 1
10
414.761867
20
614.986055
11
416.765381
21
615.697224
0
LINE
8
Calque 1
10
416.765381
20
615.697224
11
418.688331
21
616.566737
0
LINE
8
Calque 1
10
418.688331
20
616.566737
11
420.544436
21
617.601509
0
LINE
8
Calque 1
10
420.544436
20
617.601509
11
422.347415
21
618.808452
0
LINE
8
Calque 1
10
422.347415
20
618.808452
11
424.110986
21
620.194478
0
LINE
8
Calque 1
10
424.110986
20
620.194478
11
425.848870
21
621.766500
0
LINE
8
Calque 1
10
425.848870
20
621.766500
11
428.087216
21
624.147244
0
LINE
8
Calque 1
10
428.087216
20
624.147244
11
429.945577
21
626.580602
0
LINE
8
Calque 1
10
429.945577
20
626.580602
11
431.402157
21
629.005037
0
LINE
8
Calque 1
10
431.402157
20
629.005037
11
432.435162
21
631.359012
0
LINE
8
Calque 1
10
432.435162
20
631.359012
11
433.022801
21
633.580993
0
LINE
8
Calque 1
10
433.022801
20
633.580993
11
433.143277
21
635.609442
0
LINE
8
Calque 1
10
433.143277
20
635.609442
11
432.774798
21
637.382823
0
LINE
8
Calque 1
10
432.774798
20
637.382823
11
432.400390
21
638.154633
0
LINE
8
Calque 1
10
432.400390
20
638.154633
11
431.895570
21
638.839600
0
LINE
8
Calque 1
10
431.895570
20
638.839600
11
431.140550
21
639.684600
0
LINE
8
Calque 1
10
431.140550
20
639.684600
11
429.861390
21
639.183800
0
LINE
8
Calque 1
10
429.861390
20
639.183800
11
424.094458
21
637.180497
0
LINE
8
Calque 1
10
424.094458
20
637.180497
11
421.355770
21
636.451790
0
LINE
8
Calque 1
10
421.355770
20
636.451790
11
418.608611
21
635.886600
0
LINE
8
Calque 1
10
418.608611
20
635.886600
11
415.774237
21
635.471091
0
LINE
8
Calque 1
10
415.774237
20
635.471091
11
412.773904
21
635.191428
0
LINE
8
Calque 1
10
412.773904
20
635.191428
11
405.960390
21
634.984300
0
LINE
8
Calque 1
10
405.960390
20
634.984300
11
399.146832
21
635.191428
0
LINE
8
Calque 1
10
399.146832
20
635.191428
11
396.146496
21
635.471091
0
LINE
8
Calque 1
10
396.146496
20
635.471091
11
393.312127
21
635.886600
0
LINE
8
Calque 1
10
393.312127
20
635.886600
11
390.564979
21
636.451790
0
LINE
8
Calque 1
10
390.564979
20
636.451790
11
387.826304
21
637.180497
0
LINE
8
Calque 1
10
387.826304
20
637.180497
11
382.059390
21
639.183800
0
LINE
8
Calque 1
10
382.059390
20
639.183800
11
380.780230
21
639.684600
0
LINE
8
Calque 1
10
380.780230
20
639.684600
11
380.025200
21
638.839600
0
LINE
8
Calque 1
10
380.025200
20
638.839600
11
379.290358
21
637.757860
0
LINE
8
Calque 1
10
379.290358
20
637.757860
11
378.856447
21
636.502366
0
LINE
8
Calque 1
10
378.856447
20
636.502366
11
378.721587
21
635.083095
0
LINE
8
Calque 1
10
378.721587
20
635.083095
11
378.883897
21
633.510025
0
LINE
8
Calque 1
10
378.883897
20
633.510025
11
379.341499
21
631.793133
0
LINE
8
Calque 1
10
379.341499
20
631.793133
11
380.092512
21
629.942397
0
LINE
8
Calque 1
10
380.092512
20
629.942397
11
381.135055
21
627.967793
0
LINE
8
Calque 1
10
381.135055
20
627.967793
11
382.467250
21
625.879300
0
LINE
8
Calque 1
10
382.467250
20
625.879300
11
383.974294
21
623.988505
0
LINE
8
Calque 1
10
383.974294
20
623.988505
11
385.954871
21
621.902587
0
LINE
8
Calque 1
10
385.954871
20
621.902587
11
388.088241
21
619.937402
0
LINE
8
Calque 1
10
388.088241
20
619.937402
11
390.053660
21
618.408800
0
LINE
8
Calque 1
10
390.053660
20
618.408800
11
392.282885
21
617.054599
0
LINE
8
Calque 1
10
392.282885
20
617.054599
11
394.647711
21
615.920816
0
LINE
8
Calque 1
10
394.647711
20
615.920816
11
397.126247
21
615.012168
0
LINE
8
Calque 1
10
397.126247
20
615.012168
11
399.696600
21
614.333375
0
LINE
8
Calque 1
10
399.696600
20
614.333375
11
402.336880
21
613.889154
0
LINE
8
Calque 1
10
402.336880
20
613.889154
11
405.025194
21
613.684222
0
LINE
8
Calque 1
10
405.025194
20
613.684222
11
407.739651
21
613.723298
0
LINE
8
Calque 1
10
407.739651
20
613.723298
11
410.458360
21
614.011100
0
LINE
8
Calque 1
10
410.458360
20
614.011100
11
410.458270
21
614.011100
0
LINE
8
Calque 1
10
424.018170
20
660.013300
11
442.075970
21
641.977400
0
LINE
8
Calque 1
10
442.075970
20
641.977400
11
443.002010
21
643.432600
0
LINE
8
Calque 1
10
443.002010
20
643.432600
11
444.236502
21
645.039250
0
LINE
8
Calque 1
10
444.236502
20
645.039250
11
445.904150
21
646.858600
0
LINE
8
Calque 1
10
445.904150
20
646.858600
11
447.880250
21
648.829500
0
LINE
8
Calque 1
10
447.880250
20
648.829500
11
428.309350
21
668.402100
0
LINE
8
Calque 1
10
428.309350
20
668.402100
11
414.242487
21
682.341500
0
LINE
8
Calque 1
10
414.242487
20
682.341500
11
407.904750
21
688.370500
0
LINE
8
Calque 1
10
407.904750
20
688.370500
11
406.997003
21
688.655519
0
LINE
8
Calque 1
10
406.997003
20
688.655519
11
405.960360
21
688.750525
0
LINE
8
Calque 1
10
405.960360
20
688.750525
11
404.923717
21
688.655519
0
LINE
8
Calque 1
10
404.923717
20
688.655519
11
404.015970
21
688.370500
0
LINE
8
Calque 1
10
404.015970
20
688.370500
11
397.678202
21
682.341500
0
LINE
8
Calque 1
10
397.678202
20
682.341500
11
383.611370
21
668.402100
0
LINE
8
Calque 1
10
383.611370
20
668.402100
11
364.040470
21
648.829500
0
LINE
8
Calque 1
10
364.040470
20
648.829500
11
366.016570
21
646.858600
0
LINE
8
Calque 1
10
366.016570
20
646.858600
11
367.684210
21
645.039250
0
LINE
8
Calque 1
10
367.684210
20
645.039250
11
368.918710
21
643.432600
0
LINE
8
Calque 1
10
368.918710
20
643.432600
11
369.844750
21
641.977400
0
LINE
8
Calque 1
10
369.844750
20
641.977400
11
387.902550
21
660.013300
0
LINE
8
Calque 1
10
387.902550
20
660.013300
11
405.960350
21
678.049300
0
LINE
8
Calque 1
10
405.960350
20
678.049300
11
424.018170
21
660.013300
 0 
ENDSEC
 0 
EOF