999
"DXF R12 Output" (www.mydxf.blogspot.com)
 0 
SECTION
 2 
HEADER
 9 
$ACADVER
 1 
AC1009
 9 
$EXTMIN
 10 
 0 
 20 
 0 
 9 
$EXTMAX
 10 
 8.5 
 20 
 11 
 0 
ENDSEC
 0 
SECTION
 2 
ENTITIES
0
LINE
8
Calque 1
10
377.633000
20
456.611000
11
354.000300
21
480.244900
0
LINE
8
Calque 1
10
354.000300
20
480.244900
11
351.439570
21
480.545300
0
LINE
8
Calque 1
10
351.439570
20
480.545300
11
348.861173
21
480.959348
0
LINE
8
Calque 1
10
348.861173
20
480.959348
11
346.337533
21
481.590513
0
LINE
8
Calque 1
10
346.337533
20
481.590513
11
343.864956
21
482.439870
0
LINE
8
Calque 1
10
343.864956
20
482.439870
11
341.439750
21
483.508500
0
LINE
8
Calque 1
10
341.439750
20
483.508500
11
339.001846
21
484.879137
0
LINE
8
Calque 1
10
339.001846
20
484.879137
11
337.281220
21
486.421900
0
LINE
8
Calque 1
10
337.281220
20
486.421900
11
336.099389
21
487.899500
0
LINE
8
Calque 1
10
336.099389
20
487.899500
11
335.495860
21
489.140700
0
LINE
8
Calque 1
10
335.495860
20
489.140700
11
335.316917
21
490.469567
0
LINE
8
Calque 1
10
335.316917
20
490.469567
11
335.362419
21
492.148338
0
LINE
8
Calque 1
10
335.362419
20
492.148338
11
335.616388
21
493.989239
0
LINE
8
Calque 1
10
335.616388
20
493.989239
11
336.062850
21
495.804500
0
LINE
8
Calque 1
10
336.062850
20
495.804500
11
336.623570
21
497.619900
0
LINE
8
Calque 1
10
336.623570
20
497.619900
11
289.702670
21
544.541400
0
LINE
8
Calque 1
10
289.702670
20
544.541400
11
242.781770
21
591.462800
0
LINE
8
Calque 1
10
242.781770
20
591.462800
11
322.090270
21
670.771300
0
LINE
8
Calque 1
10
322.090270
20
670.771300
11
401.398770
21
750.079800
0
LINE
8
Calque 1
10
401.398770
20
750.079800
11
433.775570
21
717.703900
0
LINE
8
Calque 1
10
433.775570
20
717.703900
11
466.152370
21
685.327900
0
LINE
8
Calque 1
10
466.152370
20
685.327900
11
468.237750
21
686.990000
0
LINE
8
Calque 1
10
468.237750
20
686.990000
11
472.998579
21
690.410387
0
LINE
8
Calque 1
10
472.998579
20
690.410387
11
475.166792
21
691.784427
0
LINE
8
Calque 1
10
475.166792
20
691.784427
11
476.436370
21
692.431800
0
LINE
8
Calque 1
10
476.436370
20
692.431800
11
477.450002
21
692.483812
0
LINE
8
Calque 1
10
477.450002
20
692.483812
11
477.715399
21
692.298164
0
LINE
8
Calque 1
10
477.715399
20
692.298164
11
477.819812
21
691.972050
0
LINE
8
Calque 1
10
477.819812
20
691.972050
11
477.545572
21
690.900337
0
LINE
8
Calque 1
10
477.545572
20
690.900337
11
476.627050
21
689.272500
0
LINE
8
Calque 1
10
476.627050
20
689.272500
11
473.459920
21
683.669900
0
LINE
8
Calque 1
10
473.459920
20
683.669900
11
471.529490
21
679.965700
0
LINE
8
Calque 1
10
471.529490
20
679.965700
11
515.772990
21
635.714100
0
LINE
8
Calque 1
10
515.772990
20
635.714100
11
560.016490
21
591.462500
0
LINE
8
Calque 1
10
560.016490
20
591.462500
11
480.774190
21
512.219800
0
LINE
8
Calque 1
10
480.774190
20
512.219800
11
401.398890
21
432.977200
0
LINE
8
Calque 1
10
401.398890
20
432.977200
11
377.633190
21
456.611000
0
LINE
8
Calque 1
10
377.633190
20
456.611000
11
377.633000
21
456.611000
0
LINE
8
Calque 1
10
403.515800
20
444.185500
11
405.855320
21
446.179712
0
LINE
8
Calque 1
10
405.855320
20
446.179712
11
406.947832
21
447.302270
0
LINE
8
Calque 1
10
406.947832
20
447.302270
11
407.260340
21
447.804400
0
LINE
8
Calque 1
10
407.260340
20
447.804400
11
407.823130
21
448.213900
0
LINE
8
Calque 1
10
407.823130
20
448.213900
11
408.295600
21
448.571512
0
LINE
8
Calque 1
10
408.295600
20
448.571512
11
408.398770
21
448.871300
0
LINE
8
Calque 1
10
408.398770
20
448.871300
11
408.352082
21
449.032575
0
LINE
8
Calque 1
10
408.352082
20
449.032575
11
408.464170
21
449.057200
0
LINE
8
Calque 1
10
408.464170
20
449.057200
11
409.990119
21
450.365975
0
LINE
8
Calque 1
10
409.990119
20
450.365975
11
413.342580
21
453.614700
0
LINE
8
Calque 1
10
413.342580
20
453.614700
11
418.627100
21
458.820800
0
LINE
8
Calque 1
10
418.627100
20
458.820800
11
420.246380
21
460.474400
0
LINE
8
Calque 1
10
420.246380
20
460.474400
11
421.511460
21
461.552200
0
LINE
8
Calque 1
10
421.511460
20
461.552200
11
421.755177
21
461.677212
0
LINE
8
Calque 1
10
421.755177
20
461.677212
11
421.951930
21
461.977800
0
LINE
8
Calque 1
10
421.951930
20
461.977800
11
423.113210
21
463.366800
0
LINE
8
Calque 1
10
423.113210
20
463.366800
11
425.388990
21
465.561600
0
LINE
8
Calque 1
10
425.388990
20
465.561600
11
427.824570
21
468.009000
0
LINE
8
Calque 1
10
427.824570
20
468.009000
11
429.213630
21
469.225100
0
LINE
8
Calque 1
10
429.213630
20
469.225100
11
429.383342
21
469.322237
0
LINE
8
Calque 1
10
429.383342
20
469.322237
11
429.466580
21
469.555800
0
LINE
8
Calque 1
10
429.466580
20
469.555800
11
430.009571
21
470.255712
0
LINE
8
Calque 1
10
430.009571
20
470.255712
11
431.284660
21
471.474100
0
LINE
8
Calque 1
10
431.284660
20
471.474100
11
432.512491
21
472.665525
0
LINE
8
Calque 1
10
432.512491
20
472.665525
11
432.941910
21
473.300900
0
LINE
8
Calque 1
10
432.941910
20
473.300900
11
432.938486
21
473.411275
0
LINE
8
Calque 1
10
432.938486
20
473.411275
11
433.126020
21
473.340900
0
LINE
8
Calque 1
10
433.126020
20
473.340900
11
433.402546
21
473.337362
0
LINE
8
Calque 1
10
433.402546
20
473.337362
11
433.593850
21
473.693900
0
LINE
8
Calque 1
10
433.593850
20
473.693900
11
433.753119
21
474.049025
0
LINE
8
Calque 1
10
433.753119
20
474.049025
11
433.933050
21
474.126500
0
LINE
8
Calque 1
10
433.933050
20
474.126500
11
434.237154
21
474.233250
0
LINE
8
Calque 1
10
434.237154
20
474.233250
11
434.694970
21
474.658600
0
LINE
8
Calque 1
10
434.694970
20
474.658600
11
435.096030
21
475.311000
0
LINE
8
Calque 1
10
435.096030
20
475.311000
11
435.693100
21
475.896200
0
LINE
8
Calque 1
10
435.693100
20
475.896200
11
438.709530
21
478.740500
0
LINE
8
Calque 1
10
438.709530
20
478.740500
11
442.016820
21
481.959000
0
LINE
8
Calque 1
10
442.016820
20
481.959000
11
445.557630
21
485.464700
0
LINE
8
Calque 1
10
445.557630
20
485.464700
11
447.392982
21
487.263037
0
LINE
8
Calque 1
10
447.392982
20
487.263037
11
448.313710
21
488.011000
0
LINE
8
Calque 1
10
448.313710
20
488.011000
11
448.455470
21
488.059400
0
LINE
8
Calque 1
10
448.455470
20
488.059400
11
448.417980
21
488.176200
0
LINE
8
Calque 1
10
448.417980
20
488.176200
11
448.472932
21
488.436087
0
LINE
8
Calque 1
10
448.472932
20
488.436087
11
448.836900
21
488.828800
0
LINE
8
Calque 1
10
448.836900
20
488.828800
11
449.211668
21
489.165397
0
LINE
8
Calque 1
10
449.211668
20
489.165397
11
449.243042
21
489.292275
0
LINE
8
Calque 1
10
449.243042
20
489.292275
11
448.098050
21
488.944700
0
LINE
8
Calque 1
10
448.098050
20
488.944700
11
446.928474
21
488.680400
0
LINE
8
Calque 1
10
446.928474
20
488.680400
11
445.491182
21
488.564900
0
LINE
8
Calque 1
10
445.491182
20
488.564900
11
444.095339
21
488.606300
0
LINE
8
Calque 1
10
444.095339
20
488.606300
11
443.050110
21
488.812700
0
LINE
8
Calque 1
10
443.050110
20
488.812700
11
441.287650
21
489.913400
0
LINE
8
Calque 1
10
441.287650
20
489.913400
11
440.241960
21
490.741600
0
LINE
8
Calque 1
10
440.241960
20
490.741600
11
438.349170
21
490.289900
0
LINE
8
Calque 1
10
438.349170
20
490.289900
11
436.584922
21
489.760750
0
LINE
8
Calque 1
10
436.584922
20
489.760750
11
435.001170
21
489.123000
0
LINE
8
Calque 1
10
435.001170
20
489.123000
11
433.545960
21
488.407900
0
LINE
8
Calque 1
10
433.545960
20
488.407900
11
433.630960
21
486.093100
0
LINE
8
Calque 1
10
433.630960
20
486.093100
11
433.592716
21
483.920272
0
LINE
8
Calque 1
10
433.592716
20
483.920272
11
433.259784
21
482.191650
0
LINE
8
Calque 1
10
433.259784
20
482.191650
11
432.575242
21
480.728678
0
LINE
8
Calque 1
10
432.575242
20
480.728678
11
431.482170
21
479.352800
0
LINE
8
Calque 1
10
431.482170
20
479.352800
11
429.730211
21
477.832825
0
LINE
8
Calque 1
10
429.730211
20
477.832825
11
427.553676
21
476.468661
0
LINE
8
Calque 1
10
427.553676
20
476.468661
11
425.071851
21
475.296213
0
LINE
8
Calque 1
10
425.071851
20
475.296213
11
422.404022
21
474.351387
0
LINE
8
Calque 1
10
422.404022
20
474.351387
11
419.669474
21
473.670088
0
LINE
8
Calque 1
10
419.669474
20
473.670088
11
416.987493
21
473.288220
0
LINE
8
Calque 1
10
416.987493
20
473.288220
11
414.477363
21
473.241689
0
LINE
8
Calque 1
10
414.477363
20
473.241689
11
412.258370
21
473.566400
0
LINE
8
Calque 1
10
412.258370
20
473.566400
11
410.549920
21
474.005200
0
LINE
8
Calque 1
10
410.549920
20
474.005200
11
405.974480
21
469.435400
0
LINE
8
Calque 1
10
405.974480
20
469.435400
11
401.399040
21
464.865600
0
LINE
8
Calque 1
10
401.399040
20
464.865600
11
396.643840
21
469.615300
0
LINE
8
Calque 1
10
396.643840
20
469.615300
11
391.888630
21
474.365000
0
LINE
8
Calque 1
10
391.888630
20
474.365000
11
390.360020
21
474.020200
0
LINE
8
Calque 1
10
390.360020
20
474.020200
11
388.075760
21
473.736337
0
LINE
8
Calque 1
10
388.075760
20
473.736337
11
384.730370
21
473.537900
0
LINE
8
Calque 1
10
384.730370
20
473.537900
11
381.558003
21
473.528737
0
LINE
8
Calque 1
10
381.558003
20
473.528737
11
378.766409
21
473.734750
0
LINE
8
Calque 1
10
378.766409
20
473.734750
11
376.277895
21
474.165312
0
LINE
8
Calque 1
10
376.277895
20
474.165312
11
374.014770
21
474.829800
0
LINE
8
Calque 1
10
374.014770
20
474.829800
11
372.027493
21
475.709133
0
LINE
8
Calque 1
10
372.027493
20
475.709133
11
370.722852
21
476.753137
0
LINE
8
Calque 1
10
370.722852
20
476.753137
11
370.277186
21
477.394574
0
LINE
8
Calque 1
10
370.277186
20
477.394574
11
369.942976
21
478.146398
0
LINE
8
Calque 1
10
369.942976
20
478.146398
11
369.529990
21
480.073500
0
LINE
8
Calque 1
10
369.529990
20
480.073500
11
369.278352
21
481.695803
0
LINE
8
Calque 1
10
369.278352
20
481.695803
11
368.938187
21
482.688725
0
LINE
8
Calque 1
10
368.938187
20
482.688725
11
368.375014
21
483.289509
0
LINE
8
Calque 1
10
368.375014
20
483.289509
11
367.454350
21
483.735400
0
LINE
8
Calque 1
10
367.454350
20
483.735400
11
365.018940
21
484.433800
0
LINE
8
Calque 1
10
365.018940
20
484.433800
11
364.394790
21
484.491252
0
LINE
8
Calque 1
10
364.394790
20
484.491252
11
363.904604
21
484.362712
0
LINE
8
Calque 1
10
363.904604
20
484.362712
11
362.505590
21
483.118400
0
LINE
8
Calque 1
10
362.505590
20
483.118400
11
361.050580
21
481.643100
0
LINE
8
Calque 1
10
361.050580
20
481.643100
11
365.073450
21
477.749500
0
LINE
8
Calque 1
10
365.073450
20
477.749500
11
370.832500
21
472.206900
0
LINE
8
Calque 1
10
370.832500
20
472.206900
11
372.571590
21
470.428700
0
LINE
8
Calque 1
10
372.571590
20
470.428700
11
375.179740
21
467.906700
0
LINE
8
Calque 1
10
375.179740
20
467.906700
11
375.660910
21
467.373500
0
LINE
8
Calque 1
10
375.660910
20
467.373500
11
377.224720
21
465.719900
0
LINE
8
Calque 1
10
377.224720
20
465.719900
11
380.576064
21
462.446512
0
LINE
8
Calque 1
10
380.576064
20
462.446512
11
381.290820
21
461.531800
0
LINE
8
Calque 1
10
381.290820
20
461.531800
11
381.387969
21
461.352787
0
LINE
8
Calque 1
10
381.387969
20
461.352787
11
381.621550
21
461.264600
0
LINE
8
Calque 1
10
381.621550
20
461.264600
11
382.243732
21
460.795425
0
LINE
8
Calque 1
10
382.243732
20
460.795425
11
383.275190
21
459.700600
0
LINE
8
Calque 1
10
383.275190
20
459.700600
11
384.804630
21
458.136600
0
LINE
8
Calque 1
10
384.804630
20
458.136600
11
385.824220
21
457.187100
0
LINE
8
Calque 1
10
385.824220
20
457.187100
11
386.509431
21
456.533025
0
LINE
8
Calque 1
10
386.509431
20
456.533025
11
387.015070
21
456.261000
0
LINE
8
Calque 1
10
387.015070
20
456.261000
11
387.332589
21
456.125012
0
LINE
8
Calque 1
10
387.332589
20
456.125012
11
387.565500
21
455.798000
0
LINE
8
Calque 1
10
387.565500
20
455.798000
11
387.986109
21
455.130200
0
LINE
8
Calque 1
10
387.986109
20
455.130200
11
388.682575
21
454.338500
0
LINE
8
Calque 1
10
388.682575
20
454.338500
11
389.379551
21
453.704600
0
LINE
8
Calque 1
10
389.379551
20
453.704600
11
389.801690
21
453.510200
0
LINE
8
Calque 1
10
389.801690
20
453.510200
11
390.032136
21
453.411812
0
LINE
8
Calque 1
10
390.032136
20
453.411812
11
390.275340
21
452.983500
0
LINE
8
Calque 1
10
390.275340
20
452.983500
11
390.670711
21
452.376625
0
LINE
8
Calque 1
10
390.670711
20
452.376625
11
391.267030
21
451.849400
0
LINE
8
Calque 1
10
391.267030
20
451.849400
11
392.208870
21
451.058200
0
LINE
8
Calque 1
10
392.208870
20
451.058200
11
393.270192
21
449.884762
0
LINE
8
Calque 1
10
393.270192
20
449.884762
11
394.244890
21
449.117300
0
LINE
8
Calque 1
10
394.244890
20
449.117300
11
394.603610
21
448.561500
0
LINE
8
Calque 1
10
394.603610
20
448.561500
11
394.789166
21
448.220025
0
LINE
8
Calque 1
10
394.789166
20
448.220025
11
395.031340
21
448.180200
0
LINE
8
Calque 1
10
395.031340
20
448.180200
11
395.230780
21
448.221000
0
LINE
8
Calque 1
10
395.230780
20
448.221000
11
395.313730
21
448.074600
0
LINE
8
Calque 1
10
395.313730
20
448.074600
11
395.900645
21
447.240383
0
LINE
8
Calque 1
10
395.900645
20
447.240383
11
397.231866
21
445.894262
0
LINE
8
Calque 1
10
397.231866
20
445.894262
11
398.663110
21
444.642211
0
LINE
8
Calque 1
10
398.663110
20
444.642211
11
399.550090
21
444.090200
0
LINE
8
Calque 1
10
399.550090
20
444.090200
11
399.734817
21
443.999525
0
LINE
8
Calque 1
10
399.734817
20
443.999525
11
399.811650
21
443.781500
0
LINE
8
Calque 1
10
399.811650
20
443.781500
11
399.855441
21
443.607262
0
LINE
8
Calque 1
10
399.855441
20
443.607262
11
399.960680
21
443.621800
0
LINE
8
Calque 1
10
399.960680
20
443.621800
11
400.820580
21
443.577800
0
LINE
8
Calque 1
10
400.820580
20
443.577800
11
401.429675
21
443.476330
0
LINE
8
Calque 1
10
401.429675
20
443.476330
11
402.028209
21
443.531637
0
LINE
8
Calque 1
10
402.028209
20
443.531637
11
403.515820
21
444.185600
0
LINE
8
Calque 1
10
403.515820
20
444.185600
11
403.515800
21
444.185500
0
LINE
8
Calque 1
10
420.449100
20
476.121200
11
423.970179
21
477.224005
0
LINE
8
Calque 1
10
423.970179
20
477.224005
11
426.929549
21
478.587612
0
LINE
8
Calque 1
10
426.929549
20
478.587612
11
429.201219
21
480.141739
0
LINE
8
Calque 1
10
429.201219
20
480.141739
11
430.039795
21
480.968283
0
LINE
8
Calque 1
10
430.039795
20
480.968283
11
430.659200
21
481.816100
0
LINE
8
Calque 1
10
430.659200
20
481.816100
11
431.001302
21
482.486284
0
LINE
8
Calque 1
10
431.001302
20
482.486284
11
431.193632
21
483.216825
0
LINE
8
Calque 1
10
431.193632
20
483.216825
11
431.297070
21
485.947600
0
LINE
8
Calque 1
10
431.297070
20
485.947600
11
431.388887
21
488.576725
0
LINE
8
Calque 1
10
431.388887
20
488.576725
11
431.546879
21
489.208834
0
LINE
8
Calque 1
10
431.546879
20
489.208834
11
431.818010
21
489.659800
0
LINE
8
Calque 1
10
431.818010
20
489.659800
11
432.359497
21
490.152702
0
LINE
8
Calque 1
10
432.359497
20
490.152702
11
433.194783
21
490.674117
0
LINE
8
Calque 1
10
433.194783
20
490.674117
11
435.438221
21
491.685988
0
LINE
8
Calque 1
10
435.438221
20
491.685988
11
437.931261
21
492.462414
0
LINE
8
Calque 1
10
437.931261
20
492.462414
11
440.056840
21
492.770400
0
LINE
8
Calque 1
10
440.056840
20
492.770400
11
441.220461
21
492.582837
0
LINE
8
Calque 1
10
441.220461
20
492.582837
11
442.388620
21
491.838100
0
LINE
8
Calque 1
10
442.388620
20
491.838100
11
443.321166
21
491.170594
0
LINE
8
Calque 1
10
443.321166
20
491.170594
11
444.133010
21
490.798625
0
LINE
8
Calque 1
10
444.133010
20
490.798625
11
444.981582
21
490.675244
0
LINE
8
Calque 1
10
444.981582
20
490.675244
11
446.024310
21
490.753500
0
LINE
8
Calque 1
10
446.024310
20
490.753500
11
447.702696
21
491.214419
0
LINE
8
Calque 1
10
447.702696
20
491.214419
11
449.524158
21
492.141575
0
LINE
8
Calque 1
10
449.524158
20
492.141575
11
451.441210
21
493.505869
0
LINE
8
Calque 1
10
451.441210
20
493.505869
11
453.406370
21
495.278200
0
LINE
8
Calque 1
10
453.406370
20
495.278200
11
455.934086
21
498.081145
0
LINE
8
Calque 1
10
455.934086
20
498.081145
11
457.883494
21
500.847762
0
LINE
8
Calque 1
10
457.883494
20
500.847762
11
459.191282
21
503.473248
0
LINE
8
Calque 1
10
459.191282
20
503.473248
11
459.584784
21
504.700316
0
LINE
8
Calque 1
10
459.584784
20
504.700316
11
459.794140
21
505.852800
0
LINE
8
Calque 1
10
459.794140
20
505.852800
11
459.774176
21
507.369500
0
LINE
8
Calque 1
10
459.774176
20
507.369500
11
459.086690
21
509.068000
0
LINE
8
Calque 1
10
459.086690
20
509.068000
11
458.377948
21
510.286111
0
LINE
8
Calque 1
10
458.377948
20
510.286111
11
457.475564
21
511.490658
0
LINE
8
Calque 1
10
457.475564
20
511.490658
11
455.272587
21
513.704787
0
LINE
8
Calque 1
10
455.272587
20
513.704787
11
452.843182
21
515.401848
0
LINE
8
Calque 1
10
452.843182
20
515.401848
11
451.657763
21
515.960059
0
LINE
8
Calque 1
10
451.657763
20
515.960059
11
450.552770
21
516.273300
0
LINE
8
Calque 1
10
450.552770
20
516.273300
11
449.616492
21
516.552700
0
LINE
8
Calque 1
10
449.616492
20
516.552700
11
449.426102
21
516.783094
0
LINE
8
Calque 1
10
449.426102
20
516.783094
11
449.342870
21
517.129100
0
LINE
8
Calque 1
10
449.342870
20
517.129100
11
449.507144
21
517.783436
0
LINE
8
Calque 1
10
449.507144
20
517.783436
11
450.058040
21
518.780047
0
LINE
8
Calque 1
10
450.058040
20
518.780047
11
452.027606
21
521.443550
0
LINE
8
Calque 1
10
452.027606
20
521.443550
11
454.667390
21
524.406528
0
LINE
8
Calque 1
10
454.667390
20
524.406528
11
457.393210
21
526.955900
0
LINE
8
Calque 1
10
457.393210
20
526.955900
11
460.088780
21
528.859625
0
LINE
8
Calque 1
10
460.088780
20
528.859625
11
464.017530
21
531.349700
0
LINE
8
Calque 1
10
464.017530
20
531.349700
11
470.006740
21
535.080538
0
LINE
8
Calque 1
10
470.006740
20
535.080538
11
473.539670
21
537.788600
0
LINE
8
Calque 1
10
473.539670
20
537.788600
11
475.065134
21
539.160099
0
LINE
8
Calque 1
10
475.065134
20
539.160099
11
476.465305
21
540.622380
0
LINE
8
Calque 1
10
476.465305
20
540.622380
11
477.735848
21
542.168705
0
LINE
8
Calque 1
10
477.735848
20
542.168705
11
478.872427
21
543.792338
0
LINE
8
Calque 1
10
478.872427
20
543.792338
11
479.870710
21
545.486540
0
LINE
8
Calque 1
10
479.870710
20
545.486540
11
480.726361
21
547.244577
0
LINE
8
Calque 1
10
480.726361
20
547.244577
11
481.435046
21
549.059709
0
LINE
8
Calque 1
10
481.435046
20
549.059709
11
481.992430
21
550.925200
0
LINE
8
Calque 1
10
481.992430
20
550.925200
11
482.567554
21
554.127188
0
LINE
8
Calque 1
10
482.567554
20
554.127188
11
482.896250
21
559.315700
0
LINE
8
Calque 1
10
482.896250
20
559.315700
11
483.450604
21
568.301038
0
LINE
8
Calque 1
10
483.450604
20
568.301038
11
484.377970
21
575.426900
0
LINE
8
Calque 1
10
484.377970
20
575.426900
11
485.755555
21
582.187144
0
LINE
8
Calque 1
10
485.755555
20
582.187144
11
487.545309
21
588.447625
0
LINE
8
Calque 1
10
487.545309
20
588.447625
11
489.683331
21
594.015894
0
LINE
8
Calque 1
10
489.683331
20
594.015894
11
490.862973
21
596.480308
0
LINE
8
Calque 1
10
490.862973
20
596.480308
11
492.105720
21
598.699500
0
LINE
8
Calque 1
10
492.105720
20
598.699500
11
493.209570
21
600.613900
0
LINE
8
Calque 1
10
493.209570
20
600.613900
11
492.908884
21
600.528563
0
LINE
8
Calque 1
10
492.908884
20
600.528563
11
492.099156
21
600.017375
0
LINE
8
Calque 1
10
492.099156
20
600.017375
11
489.506570
21
598.094400
0
LINE
8
Calque 1
10
489.506570
20
598.094400
11
487.126107
21
595.999545
0
LINE
8
Calque 1
10
487.126107
20
595.999545
11
484.226998
21
593.145963
0
LINE
8
Calque 1
10
484.226998
20
593.145963
11
481.378600
21
590.116448
0
LINE
8
Calque 1
10
481.378600
20
590.116448
11
479.150270
21
587.493800
0
LINE
8
Calque 1
10
479.150270
20
587.493800
11
475.843603
21
582.865989
0
LINE
8
Calque 1
10
475.843603
20
582.865989
11
473.149598
21
578.330588
0
LINE
8
Calque 1
10
473.149598
20
578.330588
11
471.186741
21
574.110392
0
LINE
8
Calque 1
10
471.186741
20
574.110392
11
470.516521
21
572.188121
0
LINE
8
Calque 1
10
470.516521
20
572.188121
11
470.073520
21
570.428200
0
LINE
8
Calque 1
10
470.073520
20
570.428200
11
469.681940
21
567.120900
0
LINE
8
Calque 1
10
469.681940
20
567.120900
11
469.341715
21
564.884875
0
LINE
8
Calque 1
10
469.341715
20
564.884875
11
468.855930
21
563.041400
0
LINE
8
Calque 1
10
468.855930
20
563.041400
11
468.207907
21
561.687735
0
LINE
8
Calque 1
10
468.207907
20
561.687735
11
467.366704
21
560.505917
0
LINE
8
Calque 1
10
467.366704
20
560.505917
11
466.371539
21
559.518225
0
LINE
8
Calque 1
10
466.371539
20
559.518225
11
465.261626
21
558.746938
0
LINE
8
Calque 1
10
465.261626
20
558.746938
11
464.076184
21
558.214333
0
LINE
8
Calque 1
10
464.076184
20
558.214333
11
462.854428
21
557.942689
0
LINE
8
Calque 1
10
462.854428
20
557.942689
11
461.635574
21
557.954285
0
LINE
8
Calque 1
10
461.635574
20
557.954285
11
460.458840
21
558.271400
0
LINE
8
Calque 1
10
460.458840
20
558.271400
11
459.043621
21
559.105070
0
LINE
8
Calque 1
10
459.043621
20
559.105070
11
457.954468
21
560.303888
0
LINE
8
Calque 1
10
457.954468
20
560.303888
11
457.168491
21
561.901986
0
LINE
8
Calque 1
10
457.168491
20
561.901986
11
456.662800
21
563.933500
0
LINE
8
Calque 1
10
456.662800
20
563.933500
11
456.523947
21
565.288330
0
LINE
8
Calque 1
10
456.523947
20
565.288330
11
456.556228
21
566.650917
0
LINE
8
Calque 1
10
456.556228
20
566.650917
11
456.762286
21
568.029205
0
LINE
8
Calque 1
10
456.762286
20
568.029205
11
457.144766
21
569.431138
0
LINE
8
Calque 1
10
457.144766
20
569.431138
11
458.449571
21
572.337714
0
LINE
8
Calque 1
10
458.449571
20
572.337714
11
460.491800
21
575.434200
0
LINE
8
Calque 1
10
460.491800
20
575.434200
11
463.456958
21
578.673775
0
LINE
8
Calque 1
10
463.456958
20
578.673775
11
468.582520
21
583.800800
0
LINE
8
Calque 1
10
468.582520
20
583.800800
11
476.303164
21
591.589300
0
LINE
8
Calque 1
10
476.303164
20
591.589300
11
478.730632
21
594.354959
0
LINE
8
Calque 1
10
478.730632
20
594.354959
11
480.559820
21
596.754300
0
LINE
8
Calque 1
10
480.559820
20
596.754300
11
482.397038
21
599.648153
0
LINE
8
Calque 1
10
482.397038
20
599.648153
11
483.862505
21
602.548172
0
LINE
8
Calque 1
10
483.862505
20
602.548172
11
484.955223
21
605.448936
0
LINE
8
Calque 1
10
484.955223
20
605.448936
11
485.674196
21
608.345025
0
LINE
8
Calque 1
10
485.674196
20
608.345025
11
486.018427
21
611.231017
0
LINE
8
Calque 1
10
486.018427
20
611.231017
11
485.986917
21
614.101491
0
LINE
8
Calque 1
10
485.986917
20
614.101491
11
485.578671
21
616.951025
0
LINE
8
Calque 1
10
485.578671
20
616.951025
11
484.792690
21
619.774200
0
LINE
8
Calque 1
10
484.792690
20
619.774200
11
483.673934
21
622.461195
0
LINE
8
Calque 1
10
483.673934
20
622.461195
11
482.036734
21
625.412237
0
LINE
8
Calque 1
10
482.036734
20
625.412237
11
479.690144
21
628.937761
0
LINE
8
Calque 1
10
479.690144
20
628.937761
11
476.443220
21
633.348200
0
LINE
8
Calque 1
10
476.443220
20
633.348200
11
471.945923
21
639.535786
0
LINE
8
Calque 1
10
471.945923
20
639.535786
11
470.293470
21
642.087842
0
LINE
8
Calque 1
10
470.293470
20
642.087842
11
468.964766
21
644.419038
0
LINE
8
Calque 1
10
468.964766
20
644.419038
11
467.904526
21
646.634597
0
LINE
8
Calque 1
10
467.904526
20
646.634597
11
467.057462
21
648.839745
0
LINE
8
Calque 1
10
467.057462
20
648.839745
11
466.368289
21
651.139705
0
LINE
8
Calque 1
10
466.368289
20
651.139705
11
465.781720
21
653.639700
0
LINE
8
Calque 1
10
465.781720
20
653.639700
11
465.416738
21
656.714217
0
LINE
8
Calque 1
10
465.416738
20
656.714217
11
465.293015
21
660.731813
0
LINE
8
Calque 1
10
465.293015
20
660.731813
11
465.411145
21
664.813777
0
LINE
8
Calque 1
10
465.411145
20
664.813777
11
465.771720
21
668.081400
0
LINE
8
Calque 1
10
465.771720
20
668.081400
11
466.735674
21
672.310781
0
LINE
8
Calque 1
10
466.735674
20
672.310781
11
468.032690
21
676.494600
0
LINE
8
Calque 1
10
468.032690
20
676.494600
11
469.668818
21
680.650069
0
LINE
8
Calque 1
10
469.668818
20
680.650069
11
471.650110
21
684.794400
0
LINE
8
Calque 1
10
471.650110
20
684.794400
11
473.200980
21
688.035500
0
LINE
8
Calque 1
10
473.200980
20
688.035500
11
472.011713
21
687.295808
0
LINE
8
Calque 1
10
472.011713
20
687.295808
11
469.673150
21
685.435213
0
LINE
8
Calque 1
10
469.673150
20
685.435213
11
464.136190
21
680.502200
0
LINE
8
Calque 1
10
464.136190
20
680.502200
11
461.201321
21
677.495254
0
LINE
8
Calque 1
10
461.201321
20
677.495254
11
458.512398
21
674.400147
0
LINE
8
Calque 1
10
458.512398
20
674.400147
11
456.072358
21
671.221579
0
LINE
8
Calque 1
10
456.072358
20
671.221579
11
453.884141
21
667.964250
0
LINE
8
Calque 1
10
453.884141
20
667.964250
11
451.950687
21
664.632858
0
LINE
8
Calque 1
10
451.950687
20
664.632858
11
450.274934
21
661.232103
0
LINE
8
Calque 1
10
450.274934
20
661.232103
11
448.859822
21
657.766684
0
LINE
8
Calque 1
10
448.859822
20
657.766684
11
447.708290
21
654.241300
0
LINE
8
Calque 1
10
447.708290
20
654.241300
11
446.876116
21
651.058469
0
LINE
8
Calque 1
10
446.876116
20
651.058469
11
446.358616
21
648.249625
0
LINE
8
Calque 1
10
446.358616
20
648.249625
11
446.090944
21
645.342719
0
LINE
8
Calque 1
10
446.090944
20
645.342719
11
446.008250
21
641.865700
0
LINE
8
Calque 1
10
446.008250
20
641.865700
11
446.041185
21
639.085107
0
LINE
8
Calque 1
10
446.041185
20
639.085107
11
446.194848
21
636.699303
0
LINE
8
Calque 1
10
446.194848
20
636.699303
11
446.524077
21
634.539872
0
LINE
8
Calque 1
10
446.524077
20
634.539872
11
447.083710
21
632.438400
0
LINE
8
Calque 1
10
447.083710
20
632.438400
11
447.928585
21
630.226471
0
LINE
8
Calque 1
10
447.928585
20
630.226471
11
449.113540
21
627.735672
0
LINE
8
Calque 1
10
449.113540
20
627.735672
11
452.723040
21
621.243800
0
LINE
8
Calque 1
10
452.723040
20
621.243800
11
454.641519
21
617.747083
0
LINE
8
Calque 1
10
454.641519
20
617.747083
11
456.019023
21
614.744737
0
LINE
8
Calque 1
10
456.019023
20
614.744737
11
456.970928
21
611.949598
0
LINE
8
Calque 1
10
456.970928
20
611.949598
11
457.612610
21
609.074500
0
LINE
8
Calque 1
10
457.612610
20
609.074500
11
457.917655
21
606.674342
0
LINE
8
Calque 1
10
457.917655
20
606.674342
11
458.015944
21
604.352662
0
LINE
8
Calque 1
10
458.015944
20
604.352662
11
457.908115
21
602.397752
0
LINE
8
Calque 1
10
457.908115
20
602.397752
11
457.594810
21
601.097900
0
LINE
8
Calque 1
10
457.594810
20
601.097900
11
457.129366
21
600.412037
0
LINE
8
Calque 1
10
457.129366
20
600.412037
11
456.465878
21
599.801100
0
LINE
8
Calque 1
10
456.465878
20
599.801100
11
455.712438
21
599.346387
0
LINE
8
Calque 1
10
455.712438
20
599.346387
11
454.977140
21
599.129200
0
LINE
8
Calque 1
10
454.977140
20
599.129200
11
454.075825
21
599.095318
0
LINE
8
Calque 1
10
454.075825
20
599.095318
11
453.270637
21
599.204680
0
LINE
8
Calque 1
10
453.270637
20
599.204680
11
452.537589
21
599.477136
0
LINE
8
Calque 1
10
452.537589
20
599.477136
11
451.852694
21
599.932537
0
LINE
8
Calque 1
10
451.852694
20
599.932537
11
450.531409
21
601.471577
0
LINE
8
Calque 1
10
450.531409
20
601.471577
11
449.114880
21
603.980600
0
LINE
8
Calque 1
10
449.114880
20
603.980600
11
446.580932
21
608.440211
0
LINE
8
Calque 1
10
446.580932
20
608.440211
11
445.238803
21
610.381641
0
LINE
8
Calque 1
10
445.238803
20
610.381641
11
443.853568
21
612.122662
0
LINE
8
Calque 1
10
443.853568
20
612.122662
11
442.430471
21
613.657158
0
LINE
8
Calque 1
10
442.430471
20
613.657158
11
440.974760
21
614.979008
0
LINE
8
Calque 1
10
440.974760
20
614.979008
11
439.491681
21
616.082095
0
LINE
8
Calque 1
10
439.491681
20
616.082095
11
437.986480
21
616.960300
0
LINE
8
Calque 1
10
437.986480
20
616.960300
11
436.483020
21
617.656300
0
LINE
8
Calque 1
10
436.483020
20
617.656300
11
437.304740
21
616.267300
0
LINE
8
Calque 1
10
437.304740
20
616.267300
11
438.270021
21
614.692541
0
LINE
8
Calque 1
10
438.270021
20
614.692541
11
439.137616
21
612.960136
0
LINE
8
Calque 1
10
439.137616
20
612.960136
11
440.573817
21
609.092639
0
LINE
8
Calque 1
10
440.573817
20
609.092639
11
441.601488
21
604.805313
0
LINE
8
Calque 1
10
441.601488
20
604.805313
11
442.208774
21
600.238662
0
LINE
8
Calque 1
10
442.208774
20
600.238662
11
442.383819
21
595.533192
0
LINE
8
Calque 1
10
442.383819
20
595.533192
11
442.114769
21
590.829405
0
LINE
8
Calque 1
10
442.114769
20
590.829405
11
441.389768
21
586.267806
0
LINE
8
Calque 1
10
441.389768
20
586.267806
11
440.196960
21
581.988900
0
LINE
8
Calque 1
10
440.196960
20
581.988900
11
439.121569
21
579.402003
0
LINE
8
Calque 1
10
439.121569
20
579.402003
11
437.806258
21
577.245700
0
LINE
8
Calque 1
10
437.806258
20
577.245700
11
436.111044
21
575.330672
0
LINE
8
Calque 1
10
436.111044
20
575.330672
11
433.895950
21
573.467600
0
LINE
8
Calque 1
10
433.895950
20
573.467600
11
432.303193
21
572.352377
0
LINE
8
Calque 1
10
432.303193
20
572.352377
11
430.569797
21
571.321205
0
LINE
8
Calque 1
10
430.569797
20
571.321205
11
426.345058
21
569.378687
0
LINE
8
Calque 1
10
426.345058
20
569.378687
11
420.549664
21
567.375402
0
LINE
8
Calque 1
10
420.549664
20
567.375402
11
412.511550
21
565.046700
0
LINE
8
Calque 1
10
412.511550
20
565.046700
11
404.919578
21
562.825827
0
LINE
8
Calque 1
10
404.919578
20
562.825827
11
402.198833
21
561.884977
0
LINE
8
Calque 1
10
402.198833
20
561.884977
11
400.077200
21
561.002012
0
LINE
8
Calque 1
10
400.077200
20
561.002012
11
398.466392
21
560.135553
0
LINE
8
Calque 1
10
398.466392
20
560.135553
11
397.278122
21
559.244217
0
LINE
8
Calque 1
10
397.278122
20
559.244217
11
396.424104
21
558.286626
0
LINE
8
Calque 1
10
396.424104
20
558.286626
11
395.816050
21
557.221400
0
LINE
8
Calque 1
10
395.816050
20
557.221400
11
395.342743
21
555.861119
0
LINE
8
Calque 1
10
395.342743
20
555.861119
11
395.313779
21
555.305933
0
LINE
8
Calque 1
10
395.313779
20
555.305933
11
395.441356
21
554.790525
0
LINE
8
Calque 1
10
395.441356
20
554.790525
11
396.220379
21
553.748469
0
LINE
8
Calque 1
10
396.220379
20
553.748469
11
397.788300
21
552.473800
0
LINE
8
Calque 1
10
397.788300
20
552.473800
11
399.051161
21
551.430973
0
LINE
8
Calque 1
10
399.051161
20
551.430973
11
399.928934
21
550.447387
0
LINE
8
Calque 1
10
399.928934
20
550.447387
11
400.439190
21
549.498583
0
LINE
8
Calque 1
10
400.439190
20
549.498583
11
400.599500
21
548.560100
0
LINE
8
Calque 1
10
400.599500
20
548.560100
11
400.391936
21
547.539636
0
LINE
8
Calque 1
10
400.391936
20
547.539636
11
399.795895
21
546.356338
0
LINE
8
Calque 1
10
399.795895
20
546.356338
11
398.825251
21
545.032395
0
LINE
8
Calque 1
10
398.825251
20
545.032395
11
397.493880
21
543.590000
0
LINE
8
Calque 1
10
397.493880
20
543.590000
11
395.708561
21
541.972320
0
LINE
8
Calque 1
10
395.708561
20
541.972320
11
393.775343
21
540.496977
0
LINE
8
Calque 1
10
393.775343
20
540.496977
11
391.740733
21
539.186579
0
LINE
8
Calque 1
10
391.740733
20
539.186579
11
389.651239
21
538.063738
0
LINE
8
Calque 1
10
389.651239
20
538.063738
11
387.553369
21
537.151060
0
LINE
8
Calque 1
10
387.553369
20
537.151060
11
385.493630
21
536.471155
0
LINE
8
Calque 1
10
385.493630
20
536.471155
11
383.518531
21
536.046632
0
LINE
8
Calque 1
10
383.518531
20
536.046632
11
381.674580
21
535.900100
0
LINE
8
Calque 1
10
381.674580
20
535.900100
11
380.249635
21
536.011875
0
LINE
8
Calque 1
10
380.249635
20
536.011875
11
379.401800
21
536.412700
0
LINE
8
Calque 1
10
379.401800
20
536.412700
11
378.987678
21
536.941064
0
LINE
8
Calque 1
10
378.987678
20
536.941064
11
379.168290
21
537.482788
0
LINE
8
Calque 1
10
379.168290
20
537.482788
11
380.038392
21
538.146592
0
LINE
8
Calque 1
10
380.038392
20
538.146592
11
381.692740
21
539.041200
0
LINE
8
Calque 1
10
381.692740
20
539.041200
11
383.840241
21
540.344769
0
LINE
8
Calque 1
10
383.840241
20
540.344769
11
385.802809
21
541.957225
0
LINE
8
Calque 1
10
385.802809
20
541.957225
11
387.434542
21
543.740719
0
LINE
8
Calque 1
10
387.434542
20
543.740719
11
388.589540
21
545.557400
0
LINE
8
Calque 1
10
388.589540
20
545.557400
11
389.222082
21
547.247363
0
LINE
8
Calque 1
10
389.222082
20
547.247363
11
389.360510
21
549.303100
0
LINE
8
Calque 1
10
389.360510
20
549.303100
11
389.236707
21
551.297850
0
LINE
8
Calque 1
10
389.236707
20
551.297850
11
388.978198
21
551.862700
0
LINE
8
Calque 1
10
388.978198
20
551.862700
11
388.496390
21
552.478100
0
LINE
8
Calque 1
10
388.496390
20
552.478100
11
387.375825
21
553.868053
0
LINE
8
Calque 1
10
387.375825
20
553.868053
11
386.668029
21
554.960650
0
LINE
8
Calque 1
10
386.668029
20
554.960650
11
386.276446
21
555.937672
0
LINE
8
Calque 1
10
386.276446
20
555.937672
11
386.104520
21
556.980900
0
LINE
8
Calque 1
10
386.104520
20
556.980900
11
386.181393
21
559.154694
0
LINE
8
Calque 1
10
386.181393
20
559.154694
11
386.717914
21
561.353350
0
LINE
8
Calque 1
10
386.717914
20
561.353350
11
387.650440
21
563.393231
0
LINE
8
Calque 1
10
387.650440
20
563.393231
11
388.915330
21
565.090700
0
LINE
8
Calque 1
10
388.915330
20
565.090700
11
390.165415
21
566.279229
0
LINE
8
Calque 1
10
390.165415
20
566.279229
11
391.550237
21
567.343356
0
LINE
8
Calque 1
10
391.550237
20
567.343356
11
393.177867
21
568.330355
0
LINE
8
Calque 1
10
393.177867
20
568.330355
11
395.156372
21
569.287500
0
LINE
8
Calque 1
10
395.156372
20
569.287500
11
400.598286
21
571.301319
0
LINE
8
Calque 1
10
400.598286
20
571.301319
11
408.740530
21
573.763000
0
LINE
8
Calque 1
10
408.740530
20
573.763000
11
413.373246
21
575.155131
0
LINE
8
Calque 1
10
413.373246
20
575.155131
11
417.245049
21
576.465738
0
LINE
8
Calque 1
10
417.245049
20
576.465738
11
420.446324
21
577.745613
0
LINE
8
Calque 1
10
420.446324
20
577.745613
11
423.067455
21
579.045550
0
LINE
8
Calque 1
10
423.067455
20
579.045550
11
425.198827
21
580.416344
0
LINE
8
Calque 1
10
425.198827
20
580.416344
11
426.930824
21
581.908788
0
LINE
8
Calque 1
10
426.930824
20
581.908788
11
428.353830
21
583.573675
0
LINE
8
Calque 1
10
428.353830
20
583.573675
11
429.558230
21
585.461800
0
LINE
8
Calque 1
10
429.558230
20
585.461800
11
430.579334
21
587.620384
0
LINE
8
Calque 1
10
430.579334
20
587.620384
11
431.303677
21
589.915450
0
LINE
8
Calque 1
10
431.303677
20
589.915450
11
431.738547
21
592.376866
0
LINE
8
Calque 1
10
431.738547
20
592.376866
11
431.891230
21
595.034500
0
LINE
8
Calque 1
10
431.891230
20
595.034500
11
431.841187
21
597.389988
0
LINE
8
Calque 1
10
431.841187
20
597.389988
11
431.637479
21
599.464075
0
LINE
8
Calque 1
10
431.637479
20
599.464075
11
431.239114
21
601.539250
0
LINE
8
Calque 1
10
431.239114
20
601.539250
11
430.605100
21
603.898000
0
LINE
8
Calque 1
10
430.605100
20
603.898000
11
429.075940
21
608.253838
0
LINE
8
Calque 1
10
429.075940
20
608.253838
11
427.062010
21
612.503400
0
LINE
8
Calque 1
10
427.062010
20
612.503400
11
426.006943
21
614.630703
0
LINE
8
Calque 1
10
426.006943
20
614.630703
11
425.257261
21
616.540825
0
LINE
8
Calque 1
10
425.257261
20
616.540825
11
424.747349
21
618.431784
0
LINE
8
Calque 1
10
424.747349
20
618.431784
11
424.411590
21
620.501600
0
LINE
8
Calque 1
10
424.411590
20
620.501600
11
424.296276
21
623.650344
0
LINE
8
Calque 1
10
424.296276
20
623.650344
11
424.622691
21
627.377975
0
LINE
8
Calque 1
10
424.622691
20
627.377975
11
425.372625
21
631.550844
0
LINE
8
Calque 1
10
425.372625
20
631.550844
11
426.527870
21
636.035300
0
LINE
8
Calque 1
10
426.527870
20
636.035300
11
427.220460
21
638.754400
0
LINE
8
Calque 1
10
427.220460
20
638.754400
11
426.564905
21
638.239684
0
LINE
8
Calque 1
10
426.564905
20
638.239684
11
425.231749
21
636.774775
0
LINE
8
Calque 1
10
425.231749
20
636.774775
11
422.512260
21
633.291400
0
LINE
8
Calque 1
10
422.512260
20
633.291400
11
421.299574
21
631.306743
0
LINE
8
Calque 1
10
421.299574
20
631.306743
11
420.283386
21
629.357708
0
LINE
8
Calque 1
10
420.283386
20
629.357708
11
419.455225
21
627.414272
0
LINE
8
Calque 1
10
419.455225
20
627.414272
11
418.806618
21
625.446413
0
LINE
8
Calque 1
10
418.806618
20
625.446413
11
418.329092
21
623.424108
0
LINE
8
Calque 1
10
418.329092
20
623.424108
11
418.014175
21
621.317336
0
LINE
8
Calque 1
10
418.014175
20
621.317336
11
417.853396
21
619.096074
0
LINE
8
Calque 1
10
417.853396
20
619.096074
11
417.838280
21
616.730300
0
LINE
8
Calque 1
10
417.838280
20
616.730300
11
417.836140
21
614.017075
0
LINE
8
Calque 1
10
417.836140
20
614.017075
11
417.714360
21
612.695400
0
LINE
8
Calque 1
10
417.714360
20
612.695400
11
417.341459
21
612.421247
0
LINE
8
Calque 1
10
417.341459
20
612.421247
11
416.784656
21
612.392625
0
LINE
8
Calque 1
10
416.784656
20
612.392625
11
416.133483
21
612.596541
0
LINE
8
Calque 1
10
416.133483
20
612.596541
11
415.477470
21
613.020000
0
LINE
8
Calque 1
10
415.477470
20
613.020000
11
414.502693
21
614.273546
0
LINE
8
Calque 1
10
414.502693
20
614.273546
11
413.775200
21
616.111464
0
LINE
8
Calque 1
10
413.775200
20
616.111464
11
413.298784
21
618.419316
0
LINE
8
Calque 1
10
413.298784
20
618.419316
11
413.077234
21
621.082663
0
LINE
8
Calque 1
10
413.077234
20
621.082663
11
413.114342
21
623.987063
0
LINE
8
Calque 1
10
413.114342
20
623.987063
11
413.413898
21
627.018080
0
LINE
8
Calque 1
10
413.413898
20
627.018080
11
413.979694
21
630.061272
0
LINE
8
Calque 1
10
413.979694
20
630.061272
11
414.815520
21
633.002200
0
LINE
8
Calque 1
10
414.815520
20
633.002200
11
416.237325
21
636.468269
0
LINE
8
Calque 1
10
416.237325
20
636.468269
11
418.170295
21
640.080400
0
LINE
8
Calque 1
10
418.170295
20
640.080400
11
420.547145
21
643.725306
0
LINE
8
Calque 1
10
420.547145
20
643.725306
11
423.300590
21
647.289700
0
LINE
8
Calque 1
10
423.300590
20
647.289700
11
426.772696
21
651.054600
0
LINE
8
Calque 1
10
426.772696
20
651.054600
11
431.368143
21
655.500500
0
LINE
8
Calque 1
10
431.368143
20
655.500500
11
436.508588
21
660.090625
0
LINE
8
Calque 1
10
436.508588
20
660.090625
11
441.615690
21
664.288200
0
LINE
8
Calque 1
10
441.615690
20
664.288200
11
442.196687
21
664.789645
0
LINE
8
Calque 1
10
442.196687
20
664.789645
11
442.254824
21
664.918402
0
LINE
8
Calque 1
10
442.254824
20
664.918402
11
442.132718
21
664.966838
0
LINE
8
Calque 1
10
442.132718
20
664.966838
11
439.461840
21
664.372200
0
LINE
8
Calque 1
10
439.461840
20
664.372200
11
434.103931
21
662.759530
0
LINE
8
Calque 1
10
434.103931
20
662.759530
11
428.776342
21
660.725333
0
LINE
8
Calque 1
10
428.776342
20
660.725333
11
423.513930
21
658.290104
0
LINE
8
Calque 1
10
423.513930
20
658.290104
11
418.351553
21
655.474338
0
LINE
8
Calque 1
10
418.351553
20
655.474338
11
413.324068
21
652.298529
0
LINE
8
Calque 1
10
413.324068
20
652.298529
11
408.466332
21
648.783173
0
LINE
8
Calque 1
10
408.466332
20
648.783173
11
403.813204
21
644.948765
0
LINE
8
Calque 1
10
403.813204
20
644.948765
11
399.399540
21
640.815800
0
LINE
8
Calque 1
10
399.399540
20
640.815800
11
396.269590
21
637.576138
0
LINE
8
Calque 1
10
396.269590
20
637.576138
11
394.338740
21
635.372300
0
LINE
8
Calque 1
10
394.338740
20
635.372300
11
392.792690
21
632.939806
0
LINE
8
Calque 1
10
392.792690
20
632.939806
11
391.763853
21
630.519425
0
LINE
8
Calque 1
10
391.763853
20
630.519425
11
391.221154
21
628.013731
0
LINE
8
Calque 1
10
391.221154
20
628.013731
11
391.133520
21
625.325300
0
LINE
8
Calque 1
10
391.133520
20
625.325300
11
391.349391
21
623.306652
0
LINE
8
Calque 1
10
391.349391
20
623.306652
11
391.878550
21
621.761563
0
LINE
8
Calque 1
10
391.878550
20
621.761563
11
392.867902
21
620.409767
0
LINE
8
Calque 1
10
392.867902
20
620.409767
11
394.464350
21
618.971000
0
LINE
8
Calque 1
10
394.464350
20
618.971000
11
396.782160
21
616.938489
0
LINE
8
Calque 1
10
396.782160
20
616.938489
11
398.755967
21
614.862278
0
LINE
8
Calque 1
10
398.755967
20
614.862278
11
400.391524
21
612.731079
0
LINE
8
Calque 1
10
400.391524
20
612.731079
11
401.694586
21
610.533600
0
LINE
8
Calque 1
10
401.694586
20
610.533600
11
402.670905
21
608.258553
0
LINE
8
Calque 1
10
402.670905
20
608.258553
11
403.326235
21
605.894647
0
LINE
8
Calque 1
10
403.326235
20
605.894647
11
403.666329
21
603.430593
0
LINE
8
Calque 1
10
403.666329
20
603.430593
11
403.696940
21
600.855100
0
LINE
8
Calque 1
10
403.696940
20
600.855100
11
403.330705
21
597.822005
0
LINE
8
Calque 1
10
403.330705
20
597.822005
11
402.523315
21
594.985738
0
LINE
8
Calque 1
10
402.523315
20
594.985738
11
401.276162
21
592.350002
0
LINE
8
Calque 1
10
401.276162
20
592.350002
11
399.590640
21
589.918500
0
LINE
8
Calque 1
10
399.590640
20
589.918500
11
398.617335
21
588.881551
0
LINE
8
Calque 1
10
398.617335
20
588.881551
11
397.505153
21
587.949836
0
LINE
8
Calque 1
10
397.505153
20
587.949836
11
395.107800
21
586.513738
0
LINE
8
Calque 1
10
395.107800
20
586.513738
11
393.944447
21
586.065171
0
LINE
8
Calque 1
10
393.944447
20
586.065171
11
392.885857
21
585.833470
0
LINE
8
Calque 1
10
392.885857
20
585.833470
11
391.992938
21
585.846544
0
LINE
8
Calque 1
10
391.992938
20
585.846544
11
391.326600
21
586.132300
0
LINE
8
Calque 1
10
391.326600
20
586.132300
11
390.962055
21
586.587702
0
LINE
8
Calque 1
10
390.962055
20
586.587702
11
391.026571
21
587.101238
0
LINE
8
Calque 1
10
391.026571
20
587.101238
11
391.566499
21
587.763030
0
LINE
8
Calque 1
10
391.566499
20
587.763030
11
392.628190
21
588.663200
0
LINE
8
Calque 1
10
392.628190
20
588.663200
11
394.309621
21
590.214763
0
LINE
8
Calque 1
10
394.309621
20
590.214763
11
395.630834
21
591.937256
0
LINE
8
Calque 1
10
395.630834
20
591.937256
11
396.587625
21
593.809196
0
LINE
8
Calque 1
10
396.587625
20
593.809196
11
397.175789
21
595.809100
0
LINE
8
Calque 1
10
397.175789
20
595.809100
11
397.391122
21
597.915485
0
LINE
8
Calque 1
10
397.391122
20
597.915485
11
397.229419
21
600.106869
0
LINE
8
Calque 1
10
397.229419
20
600.106869
11
396.686477
21
602.361768
0
LINE
8
Calque 1
10
396.686477
20
602.361768
11
395.758090
21
604.658700
0
LINE
8
Calque 1
10
395.758090
20
604.658700
11
395.007961
21
605.952770
0
LINE
8
Calque 1
10
395.007961
20
605.952770
11
394.096339
21
607.215763
0
LINE
8
Calque 1
10
394.096339
20
607.215763
11
393.278892
21
608.126273
0
LINE
8
Calque 1
10
393.278892
20
608.126273
11
392.811290
21
608.362900
0
LINE
8
Calque 1
10
392.811290
20
608.362900
11
393.050600
21
607.194800
0
LINE
8
Calque 1
10
393.050600
20
607.194800
11
393.434807
21
605.768317
0
LINE
8
Calque 1
10
393.434807
20
605.768317
11
393.616515
21
604.314864
0
LINE
8
Calque 1
10
393.616515
20
604.314864
11
393.594667
21
602.829482
0
LINE
8
Calque 1
10
393.594667
20
602.829482
11
393.368204
21
601.307213
0
LINE
8
Calque 1
10
393.368204
20
601.307213
11
392.936067
21
599.743098
0
LINE
8
Calque 1
10
392.936067
20
599.743098
11
392.297200
21
598.132180
0
LINE
8
Calque 1
10
392.297200
20
598.132180
11
391.450544
21
596.469500
0
LINE
8
Calque 1
10
391.450544
20
596.469500
11
390.395040
21
594.750100
0
LINE
8
Calque 1
10
390.395040
20
594.750100
11
389.343819
21
593.362423
0
LINE
8
Calque 1
10
389.343819
20
593.362423
11
387.822911
21
591.684188
0
LINE
8
Calque 1
10
387.822911
20
591.684188
11
383.078580
21
587.151200
0
LINE
8
Calque 1
10
383.078580
20
587.151200
11
380.396098
21
584.376639
0
LINE
8
Calque 1
10
380.396098
20
584.376639
11
378.328736
21
581.539688
0
LINE
8
Calque 1
10
378.328736
20
581.539688
11
377.563915
21
580.160056
0
LINE
8
Calque 1
10
377.563915
20
580.160056
11
376.998702
21
578.839517
0
LINE
8
Calque 1
10
376.998702
20
578.839517
11
376.648371
21
577.602966
0
LINE
8
Calque 1
10
376.648371
20
577.602966
11
376.528200
21
576.475300
0
LINE
8
Calque 1
10
376.528200
20
576.475300
11
376.344693
21
575.177386
0
LINE
8
Calque 1
10
376.344693
20
575.177386
11
375.811254
21
573.786988
0
LINE
8
Calque 1
10
375.811254
20
573.786988
11
374.953505
21
572.356070
0
LINE
8
Calque 1
10
374.953505
20
572.356070
11
373.797070
21
570.936600
0
LINE
8
Calque 1
10
373.797070
20
570.936600
11
372.360305
21
569.542750
0
LINE
8
Calque 1
10
372.360305
20
569.542750
11
371.936449
21
569.326950
0
LINE
8
Calque 1
10
371.936449
20
569.326950
11
371.585490
21
569.342900
0
LINE
8
Calque 1
10
371.585490
20
569.342900
11
371.084187
21
569.632619
0
LINE
8
Calque 1
10
371.084187
20
569.632619
11
370.785550
21
570.322425
0
LINE
8
Calque 1
10
370.785550
20
570.322425
11
370.505450
21
574.213900
0
LINE
8
Calque 1
10
370.505450
20
574.213900
11
370.483301
21
577.140509
0
LINE
8
Calque 1
10
370.483301
20
577.140509
11
370.662720
21
579.594000
0
LINE
8
Calque 1
10
370.662720
20
579.594000
11
371.076964
21
581.837491
0
LINE
8
Calque 1
10
371.076964
20
581.837491
11
371.759290
21
584.134100
0
LINE
8
Calque 1
10
371.759290
20
584.134100
11
373.097093
21
587.544245
0
LINE
8
Calque 1
10
373.097093
20
587.544245
11
374.681524
21
590.553938
0
LINE
8
Calque 1
10
374.681524
20
590.553938
11
376.682412
21
593.442561
0
LINE
8
Calque 1
10
376.682412
20
593.442561
11
379.269590
21
596.489500
0
LINE
8
Calque 1
10
379.269590
20
596.489500
11
381.386303
21
599.083822
0
LINE
8
Calque 1
10
381.386303
20
599.083822
11
382.838430
21
601.564500
0
LINE
8
Calque 1
10
382.838430
20
601.564500
11
383.719364
21
604.133678
0
LINE
8
Calque 1
10
383.719364
20
604.133678
11
384.122500
21
606.993500
0
LINE
8
Calque 1
10
384.122500
20
606.993500
11
384.101979
21
609.784831
0
LINE
8
Calque 1
10
384.101979
20
609.784831
11
383.895343
21
610.826853
0
LINE
8
Calque 1
10
383.895343
20
610.826853
11
383.537440
21
611.667875
0
LINE
8
Calque 1
10
383.537440
20
611.667875
11
383.013007
21
612.333969
0
LINE
8
Calque 1
10
383.013007
20
612.333969
11
382.306781
21
612.851206
0
LINE
8
Calque 1
10
382.306781
20
612.851206
11
381.403500
21
613.245659
0
LINE
8
Calque 1
10
381.403500
20
613.245659
11
380.287900
21
613.543400
0
LINE
8
Calque 1
10
380.287900
20
613.543400
11
378.741512
21
613.951812
0
LINE
8
Calque 1
10
378.741512
20
613.951812
11
377.435005
21
614.475344
0
LINE
8
Calque 1
10
377.435005
20
614.475344
11
376.369366
21
615.112866
0
LINE
8
Calque 1
10
376.369366
20
615.112866
11
375.545579
21
615.863250
0
LINE
8
Calque 1
10
375.545579
20
615.863250
11
374.964628
21
616.725365
0
LINE
8
Calque 1
10
374.964628
20
616.725365
11
374.627498
21
617.698081
0
LINE
8
Calque 1
10
374.627498
20
617.698081
11
374.535174
21
618.780270
0
LINE
8
Calque 1
10
374.535174
20
618.780270
11
374.688640
21
619.970800
0
LINE
8
Calque 1
10
374.688640
20
619.970800
11
375.083183
21
621.275086
0
LINE
8
Calque 1
10
375.083183
20
621.275086
11
375.731523
21
622.847973
0
LINE
8
Calque 1
10
375.731523
20
622.847973
11
377.642570
21
626.542338
0
LINE
8
Calque 1
10
377.642570
20
626.542338
11
380.127742
21
630.539458
0
LINE
8
Calque 1
10
380.127742
20
630.539458
11
382.893000
21
634.324900
0
LINE
8
Calque 1
10
382.893000
20
634.324900
11
386.512804
21
638.295111
0
LINE
8
Calque 1
10
386.512804
20
638.295111
11
391.674468
21
643.110638
0
LINE
8
Calque 1
10
391.674468
20
643.110638
11
398.275347
21
648.680870
0
LINE
8
Calque 1
10
398.275347
20
648.680870
11
406.212800
21
654.915200
0
LINE
8
Calque 1
10
406.212800
20
654.915200
11
409.292870
21
657.387705
0
LINE
8
Calque 1
10
409.292870
20
657.387705
11
411.309735
21
659.413613
0
LINE
8
Calque 1
10
411.309735
20
659.413613
11
412.650857
21
661.463164
0
LINE
8
Calque 1
10
412.650857
20
661.463164
11
413.703700
21
664.006600
0
LINE
8
Calque 1
10
413.703700
20
664.006600
11
414.325410
21
666.301900
0
LINE
8
Calque 1
10
414.325410
20
666.301900
11
413.792594
21
666.131838
0
LINE
8
Calque 1
10
413.792594
20
666.131838
11
412.643780
21
665.354200
0
LINE
8
Calque 1
10
412.643780
20
665.354200
11
411.067486
21
664.273494
0
LINE
8
Calque 1
10
411.067486
20
664.273494
11
409.533375
21
663.463425
0
LINE
8
Calque 1
10
409.533375
20
663.463425
11
408.058904
21
662.931794
0
LINE
8
Calque 1
10
408.058904
20
662.931794
11
406.661530
21
662.686400
0
LINE
8
Calque 1
10
406.661530
20
662.686400
11
405.539013
21
662.678798
0
LINE
8
Calque 1
10
405.539013
20
662.678798
11
404.702435
21
662.874588
0
LINE
8
Calque 1
10
404.702435
20
662.874588
11
404.055645
21
663.315008
0
LINE
8
Calque 1
10
404.055645
20
663.315008
11
403.502490
21
664.041300
0
LINE
8
Calque 1
10
403.502490
20
664.041300
11
403.142319
21
664.758348
0
LINE
8
Calque 1
10
403.142319
20
664.758348
11
402.973602
21
665.464567
0
LINE
8
Calque 1
10
402.973602
20
665.464567
11
403.016071
21
666.203193
0
LINE
8
Calque 1
10
403.016071
20
666.203193
11
403.289458
21
667.017463
0
LINE
8
Calque 1
10
403.289458
20
667.017463
11
404.607909
21
669.045877
0
LINE
8
Calque 1
10
404.607909
20
669.045877
11
407.086810
21
671.895700
0
LINE
8
Calque 1
10
407.086810
20
671.895700
11
410.047124
21
675.439473
0
LINE
8
Calque 1
10
410.047124
20
675.439473
11
412.293034
21
678.877672
0
LINE
8
Calque 1
10
412.293034
20
678.877672
11
413.148499
21
680.560019
0
LINE
8
Calque 1
10
413.148499
20
680.560019
11
413.825858
21
682.219379
0
LINE
8
Calque 1
10
413.825858
20
682.219379
11
414.325274
21
683.856885
0
LINE
8
Calque 1
10
414.325274
20
683.856885
11
414.646913
21
685.473675
0
LINE
8
Calque 1
10
414.646913
20
685.473675
11
414.790938
21
687.070883
0
LINE
8
Calque 1
10
414.790938
20
687.070883
11
414.757516
21
688.649643
0
LINE
8
Calque 1
10
414.757516
20
688.649643
11
414.546810
21
690.211093
0
LINE
8
Calque 1
10
414.546810
20
690.211093
11
414.158985
21
691.756366
0
LINE
8
Calque 1
10
414.158985
20
691.756366
11
413.594206
21
693.286598
0
LINE
8
Calque 1
10
413.594206
20
693.286598
11
412.852637
21
694.802924
0
LINE
8
Calque 1
10
412.852637
20
694.802924
11
411.934444
21
696.306480
0
LINE
8
Calque 1
10
411.934444
20
696.306480
11
410.839790
21
697.798400
0
LINE
8
Calque 1
10
410.839790
20
697.798400
11
407.930138
21
700.698400
0
LINE
8
Calque 1
10
407.930138
20
700.698400
11
406.367052
21
702.028681
0
LINE
8
Calque 1
10
406.367052
20
702.028681
11
405.502720
21
702.587400
0
LINE
8
Calque 1
10
405.502720
20
702.587400
11
405.934170
21
701.089800
0
LINE
8
Calque 1
10
405.934170
20
701.089800
11
406.321750
21
699.678398
0
LINE
8
Calque 1
10
406.321750
20
699.678398
11
406.561531
21
698.111658
0
LINE
8
Calque 1
10
406.561531
20
698.111658
11
406.611584
21
694.721513
0
LINE
8
Calque 1
10
406.611584
20
694.721513
11
406.112110
21
691.338061
0
LINE
8
Calque 1
10
406.112110
20
691.338061
11
405.664982
21
689.779688
0
LINE
8
Calque 1
10
405.664982
20
689.779688
11
405.090890
21
688.380000
0
LINE
8
Calque 1
10
405.090890
20
688.380000
11
404.072666
21
686.722619
0
LINE
8
Calque 1
10
404.072666
20
686.722619
11
402.520376
21
685.280900
0
LINE
8
Calque 1
10
402.520376
20
685.280900
11
399.915163
21
683.674406
0
LINE
8
Calque 1
10
399.915163
20
683.674406
11
395.738170
21
681.522700
0
LINE
8
Calque 1
10
395.738170
20
681.522700
11
391.853138
21
679.532080
0
LINE
8
Calque 1
10
391.853138
20
679.532080
11
388.648556
21
677.739489
0
LINE
8
Calque 1
10
388.648556
20
677.739489
11
386.049672
21
676.080419
0
LINE
8
Calque 1
10
386.049672
20
676.080419
11
383.981733
21
674.490363
0
LINE
8
Calque 1
10
383.981733
20
674.490363
11
382.369985
21
672.904810
0
LINE
8
Calque 1
10
382.369985
20
672.904810
11
381.139678
21
671.259255
0
LINE
8
Calque 1
10
381.139678
20
671.259255
11
380.216057
21
669.489187
0
LINE
8
Calque 1
10
380.216057
20
669.489187
11
379.524370
21
667.530100
0
LINE
8
Calque 1
10
379.524370
20
667.530100
11
379.286934
21
666.407908
0
LINE
8
Calque 1
10
379.286934
20
666.407908
11
379.145674
21
664.725588
0
LINE
8
Calque 1
10
379.145674
20
664.725588
11
379.053290
21
657.608200
0
LINE
8
Calque 1
10
379.053290
20
657.608200
11
379.041690
21
649.273900
0
LINE
8
Calque 1
10
379.041690
20
649.273900
11
378.223740
21
647.554100
0
LINE
8
Calque 1
10
378.223740
20
647.554100
11
377.014365
21
645.563264
0
LINE
8
Calque 1
10
377.014365
20
645.563264
11
376.327645
21
644.803839
0
LINE
8
Calque 1
10
376.327645
20
644.803839
11
375.589679
21
644.204088
0
LINE
8
Calque 1
10
375.589679
20
644.204088
11
374.803048
21
643.765769
0
LINE
8
Calque 1
10
374.803048
20
643.765769
11
373.970336
21
643.490642
0
LINE
8
Calque 1
10
373.970336
20
643.490642
11
373.094122
21
643.380466
0
LINE
8
Calque 1
10
373.094122
20
643.380466
11
372.176990
21
643.437000
0
LINE
8
Calque 1
10
372.176990
20
643.437000
11
371.122658
21
643.753783
0
LINE
8
Calque 1
10
371.122658
20
643.753783
11
370.135615
21
644.353438
0
LINE
8
Calque 1
10
370.135615
20
644.353438
11
369.274032
21
645.190748
0
LINE
8
Calque 1
10
369.274032
20
645.190748
11
368.596080
21
646.220500
0
LINE
8
Calque 1
10
368.596080
20
646.220500
11
368.102170
21
647.480925
0
LINE
8
Calque 1
10
368.102170
20
647.480925
11
367.775438
21
648.991286
0
LINE
8
Calque 1
10
367.775438
20
648.991286
11
367.615477
21
650.742038
0
LINE
8
Calque 1
10
367.615477
20
650.742038
11
367.621879
21
652.723638
0
LINE
8
Calque 1
10
367.621879
20
652.723638
11
368.132143
21
657.341195
0
LINE
8
Calque 1
10
368.132143
20
657.341195
11
369.302970
21
662.767600
0
LINE
8
Calque 1
10
369.302970
20
662.767600
11
370.009231
21
665.144869
0
LINE
8
Calque 1
10
370.009231
20
665.144869
11
370.894738
21
667.460230
0
LINE
8
Calque 1
10
370.894738
20
667.460230
11
371.988429
21
669.760560
0
LINE
8
Calque 1
10
371.988429
20
669.760560
11
373.319243
21
672.092738
0
LINE
8
Calque 1
10
373.319243
20
672.092738
11
374.916115
21
674.503642
0
LINE
8
Calque 1
10
374.916115
20
674.503642
11
376.807986
21
677.040152
0
LINE
8
Calque 1
10
376.807986
20
677.040152
11
381.592470
21
682.677500
0
LINE
8
Calque 1
10
381.592470
20
682.677500
11
384.599800
21
686.183200
0
LINE
8
Calque 1
10
384.599800
20
686.183200
11
383.233875
21
685.560200
0
LINE
8
Calque 1
10
383.233875
20
685.560200
11
381.527570
21
684.533400
0
LINE
8
Calque 1
10
381.527570
20
684.533400
11
379.291710
21
682.174600
0
LINE
8
Calque 1
10
379.291710
20
682.174600
11
377.593874
21
680.372103
0
LINE
8
Calque 1
10
377.593874
20
680.372103
11
375.567509
21
678.767175
0
LINE
8
Calque 1
10
375.567509
20
678.767175
11
372.860269
21
677.117584
0
LINE
8
Calque 1
10
372.860269
20
677.117584
11
369.119810
21
675.181100
0
LINE
8
Calque 1
10
369.119810
20
675.181100
11
362.792370
21
671.909288
0
LINE
8
Calque 1
10
362.792370
20
671.909288
11
360.960953
21
670.781436
0
LINE
8
Calque 1
10
360.960953
20
670.781436
11
359.549770
21
669.725500
0
LINE
8
Calque 1
10
359.549770
20
669.725500
11
358.532142
21
668.735863
0
LINE
8
Calque 1
10
358.532142
20
668.735863
11
357.559655
21
667.513200
0
LINE
8
Calque 1
10
357.559655
20
667.513200
11
356.712050
21
666.169938
0
LINE
8
Calque 1
10
356.712050
20
666.169938
11
356.069070
21
664.818500
0
LINE
8
Calque 1
10
356.069070
20
664.818500
11
355.542967
21
662.941592
0
LINE
8
Calque 1
10
355.542967
20
662.941592
11
355.016219
21
660.058438
0
LINE
8
Calque 1
10
355.016219
20
660.058438
11
354.040790
21
651.787400
0
LINE
8
Calque 1
10
354.040790
20
651.787400
11
353.382862
21
645.427419
0
LINE
8
Calque 1
10
353.382862
20
645.427419
11
352.701281
21
640.795400
0
LINE
8
Calque 1
10
352.701281
20
640.795400
11
351.919390
21
637.474756
0
LINE
8
Calque 1
10
351.919390
20
637.474756
11
350.960530
21
635.048900
0
LINE
8
Calque 1
10
350.960530
20
635.048900
11
350.036502
21
633.492548
0
LINE
8
Calque 1
10
350.036502
20
633.492548
11
348.846473
21
631.898947
0
LINE
8
Calque 1
10
348.846473
20
631.898947
11
347.456023
21
630.327729
0
LINE
8
Calque 1
10
347.456023
20
630.327729
11
345.930735
21
628.838525
0
LINE
8
Calque 1
10
345.930735
20
628.838525
11
344.336190
21
627.490968
0
LINE
8
Calque 1
10
344.336190
20
627.490968
11
342.737970
21
626.344691
0
LINE
8
Calque 1
10
342.737970
20
626.344691
11
341.201656
21
625.459324
0
LINE
8
Calque 1
10
341.201656
20
625.459324
11
339.792830
21
624.894500
0
LINE
8
Calque 1
10
339.792830
20
624.894500
11
338.427001
21
624.637763
0
LINE
8
Calque 1
10
338.427001
20
624.637763
11
336.985643
21
624.603325
0
LINE
8
Calque 1
10
336.985643
20
624.603325
11
335.628333
21
624.782900
0
LINE
8
Calque 1
10
335.628333
20
624.782900
11
334.514650
21
625.168200
0
LINE
8
Calque 1
10
334.514650
20
625.168200
11
333.547857
21
625.820948
0
LINE
8
Calque 1
10
333.547857
20
625.820948
11
332.598275
21
626.736787
0
LINE
8
Calque 1
10
332.598275
20
626.736787
11
331.750483
21
627.821583
0
LINE
8
Calque 1
10
331.750483
20
627.821583
11
331.089060
21
628.981200
0
LINE
8
Calque 1
10
331.089060
20
628.981200
11
330.576476
21
630.489738
0
LINE
8
Calque 1
10
330.576476
20
630.489738
11
330.446430
21
632.291300
0
LINE
8
Calque 1
10
330.446430
20
632.291300
11
330.536251
21
633.782194
0
LINE
8
Calque 1
10
330.536251
20
633.782194
11
330.822514
21
635.262380
0
LINE
8
Calque 1
10
330.822514
20
635.262380
11
331.348305
21
636.812417
0
LINE
8
Calque 1
10
331.348305
20
636.812417
11
332.156710
21
638.512863
0
LINE
8
Calque 1
10
332.156710
20
638.512863
11
334.793708
21
642.687214
0
LINE
8
Calque 1
10
334.793708
20
642.687214
11
339.078200
21
648.429900
0
LINE
8
Calque 1
10
339.078200
20
648.429900
11
340.043830
21
649.918963
0
LINE
8
Calque 1
10
340.043830
20
649.918963
11
340.692960
21
651.340300
0
LINE
8
Calque 1
10
340.692960
20
651.340300
11
341.019238
21
653.229525
0
LINE
8
Calque 1
10
341.019238
20
653.229525
11
341.247616
21
655.993100
0
LINE
8
Calque 1
10
341.247616
20
655.993100
11
341.329574
21
658.765525
0
LINE
8
Calque 1
10
341.329574
20
658.765525
11
341.216590
21
660.681300
0
LINE
8
Calque 1
10
341.216590
20
660.681300
11
341.022300
21
661.709300
0
LINE
8
Calque 1
10
341.022300
20
661.709300
11
340.265560
21
659.638000
0
LINE
8
Calque 1
10
340.265560
20
659.638000
11
339.441620
21
657.603295
0
LINE
8
Calque 1
10
339.441620
20
657.603295
11
338.490825
21
655.753550
0
LINE
8
Calque 1
10
338.490825
20
655.753550
11
337.329990
21
653.997742
0
LINE
8
Calque 1
10
337.329990
20
653.997742
11
335.875928
21
652.244850
0
LINE
8
Calque 1
10
335.875928
20
652.244850
11
334.045450
21
650.403852
0
LINE
8
Calque 1
10
334.045450
20
650.403852
11
331.755371
21
648.383725
0
LINE
8
Calque 1
10
331.755371
20
648.383725
11
325.463660
21
643.442000
0
LINE
8
Calque 1
10
325.463660
20
643.442000
11
321.667512
21
640.421636
0
LINE
8
Calque 1
10
321.667512
20
640.421636
11
318.700106
21
637.688813
0
LINE
8
Calque 1
10
318.700106
20
637.688813
11
316.472127
21
635.152958
0
LINE
8
Calque 1
10
316.472127
20
635.152958
11
314.894260
21
632.723500
0
LINE
8
Calque 1
10
314.894260
20
632.723500
11
314.087322
21
631.027195
0
LINE
8
Calque 1
10
314.087322
20
631.027195
11
313.570391
21
629.442388
0
LINE
8
Calque 1
10
313.570391
20
629.442388
11
313.297917
21
627.781811
0
LINE
8
Calque 1
10
313.297917
20
627.781811
11
313.224350
21
625.858200
0
LINE
8
Calque 1
10
313.224350
20
625.858200
11
313.342910
21
623.824441
0
LINE
8
Calque 1
10
313.342910
20
623.824441
11
313.709731
21
622.050875
0
LINE
8
Calque 1
10
313.709731
20
622.050875
11
314.375046
21
620.369297
0
LINE
8
Calque 1
10
314.375046
20
620.369297
11
315.389090
21
618.611500
0
LINE
8
Calque 1
10
315.389090
20
618.611500
11
316.331429
21
617.053319
0
LINE
8
Calque 1
10
316.331429
20
617.053319
11
317.010925
21
615.646150
0
LINE
8
Calque 1
10
317.010925
20
615.646150
11
317.482723
21
614.256006
0
LINE
8
Calque 1
10
317.482723
20
614.256006
11
317.801970
21
612.748900
0
LINE
8
Calque 1
10
317.801970
20
612.748900
11
317.936557
21
610.795116
0
LINE
8
Calque 1
10
317.936557
20
610.795116
11
317.612619
21
608.710325
0
LINE
8
Calque 1
10
317.612619
20
608.710325
11
316.724649
21
606.084372
0
LINE
8
Calque 1
10
316.724649
20
606.084372
11
315.167140
21
602.507100
0
LINE
8
Calque 1
10
315.167140
20
602.507100
11
312.856891
21
597.077300
0
LINE
8
Calque 1
10
312.856891
20
597.077300
11
312.015729
21
594.639026
0
LINE
8
Calque 1
10
312.015729
20
594.639026
11
311.337878
21
592.196575
0
LINE
8
Calque 1
10
311.337878
20
592.196575
11
310.334118
21
586.733362
0
LINE
8
Calque 1
10
310.334118
20
586.733362
11
309.569630
21
579.556100
0
LINE
8
Calque 1
10
309.569630
20
579.556100
11
309.355631
21
574.896880
0
LINE
8
Calque 1
10
309.355631
20
574.896880
11
309.284055
21
568.501663
0
LINE
8
Calque 1
10
309.284055
20
568.501663
11
309.355017
21
561.978214
0
LINE
8
Calque 1
10
309.355017
20
561.978214
11
309.568630
21
556.934300
0
LINE
8
Calque 1
10
309.568630
20
556.934300
11
310.415098
21
548.542375
0
LINE
8
Calque 1
10
310.415098
20
548.542375
11
310.881871
21
545.259303
0
LINE
8
Calque 1
10
310.881871
20
545.259303
11
311.274120
21
543.406200
0
LINE
8
Calque 1
10
311.274120
20
543.406200
11
312.405595
21
540.838770
0
LINE
8
Calque 1
10
312.405595
20
540.838770
11
314.018253
21
538.157762
0
LINE
8
Calque 1
10
314.018253
20
538.157762
11
316.080382
21
535.410023
0
LINE
8
Calque 1
10
316.080382
20
535.410023
11
318.560270
21
532.642400
0
LINE
8
Calque 1
10
318.560270
20
532.642400
11
320.623201
21
530.626530
0
LINE
8
Calque 1
10
320.623201
20
530.626530
11
322.591796
21
528.975863
0
LINE
8
Calque 1
10
322.591796
20
528.975863
11
324.718178
21
527.497789
0
LINE
8
Calque 1
10
324.718178
20
527.497789
11
327.254470
21
525.999700
0
LINE
8
Calque 1
10
327.254470
20
525.999700
11
331.163365
21
523.545934
0
LINE
8
Calque 1
10
331.163365
20
523.545934
11
334.821821
21
520.761250
0
LINE
8
Calque 1
10
334.821821
20
520.761250
11
337.763977
21
518.034616
0
LINE
8
Calque 1
10
337.763977
20
518.034616
11
338.820860
21
516.814620
0
LINE
8
Calque 1
10
338.820860
20
516.814620
11
339.523970
21
515.755000
0
LINE
8
Calque 1
10
339.523970
20
515.755000
11
339.855331
21
515.023008
0
LINE
8
Calque 1
10
339.855331
20
515.023008
11
340.028879
21
514.188163
0
LINE
8
Calque 1
10
340.028879
20
514.188163
11
340.061880
21
510.717900
0
LINE
8
Calque 1
10
340.061880
20
510.717900
11
340.070394
21
508.013583
0
LINE
8
Calque 1
10
340.070394
20
508.013583
11
340.280625
21
506.297288
0
LINE
8
Calque 1
10
340.280625
20
506.297288
11
340.791403
21
505.180748
0
LINE
8
Calque 1
10
340.791403
20
505.180748
11
341.701560
21
504.275700
0
LINE
8
Calque 1
10
341.701560
20
504.275700
11
344.026276
21
502.294200
0
LINE
8
Calque 1
10
344.026276
20
502.294200
11
344.227738
21
501.908644
0
LINE
8
Calque 1
10
344.227738
20
501.908644
11
344.091760
21
501.585300
0
LINE
8
Calque 1
10
344.091760
20
501.585300
11
343.466990
21
501.113300
0
LINE
8
Calque 1
10
343.466990
20
501.113300
11
342.371970
21
500.650000
0
LINE
8
Calque 1
10
342.371970
20
500.650000
11
341.162473
21
500.103411
0
LINE
8
Calque 1
10
341.162473
20
500.103411
11
340.160458
21
499.277738
0
LINE
8
Calque 1
10
340.160458
20
499.277738
11
339.314678
21
498.117920
0
LINE
8
Calque 1
10
339.314678
20
498.117920
11
338.573890
21
496.568900
0
LINE
8
Calque 1
10
338.573890
20
496.568900
11
338.015746
21
494.861181
0
LINE
8
Calque 1
10
338.015746
20
494.861181
11
337.618536
21
493.028850
0
LINE
8
Calque 1
10
337.618536
20
493.028850
11
337.425441
21
491.330169
0
LINE
8
Calque 1
10
337.425441
20
491.330169
11
337.479640
21
490.023400
0
LINE
8
Calque 1
10
337.479640
20
490.023400
11
337.863732
21
489.020718
0
LINE
8
Calque 1
10
337.863732
20
489.020718
11
338.621995
21
488.014261
0
LINE
8
Calque 1
10
338.621995
20
488.014261
11
339.723131
21
487.022802
0
LINE
8
Calque 1
10
339.723131
20
487.022802
11
341.135840
21
486.065113
0
LINE
8
Calque 1
10
341.135840
20
486.065113
11
342.828824
21
485.159965
0
LINE
8
Calque 1
10
342.828824
20
485.159965
11
344.770785
21
484.326133
0
LINE
8
Calque 1
10
344.770785
20
484.326133
11
346.930423
21
483.582387
0
LINE
8
Calque 1
10
346.930423
20
483.582387
11
349.276440
21
482.947500
0
LINE
8
Calque 1
10
349.276440
20
482.947500
11
351.314565
21
482.702013
0
LINE
8
Calque 1
10
351.314565
20
482.702013
11
354.171240
21
482.594900
0
LINE
8
Calque 1
10
354.171240
20
482.594900
11
356.640474
21
482.668863
0
LINE
8
Calque 1
10
356.640474
20
482.668863
11
358.364278
21
483.009675
0
LINE
8
Calque 1
10
358.364278
20
483.009675
11
359.786832
21
483.773225
0
LINE
8
Calque 1
10
359.786832
20
483.773225
11
361.352320
21
485.115400
0
LINE
8
Calque 1
10
361.352320
20
485.115400
11
362.533190
21
486.076688
0
LINE
8
Calque 1
10
362.533190
20
486.076688
11
363.462180
21
486.586400
0
LINE
8
Calque 1
10
363.462180
20
486.586400
11
364.554678
21
486.645270
0
LINE
8
Calque 1
10
364.554678
20
486.645270
11
366.023158
21
486.447838
0
LINE
8
Calque 1
10
366.023158
20
486.447838
11
367.599424
21
486.046836
0
LINE
8
Calque 1
10
367.599424
20
486.046836
11
369.015280
21
485.495000
0
LINE
8
Calque 1
10
369.015280
20
485.495000
11
370.055920
21
484.881339
0
LINE
8
Calque 1
10
370.055920
20
484.881339
11
370.735729
21
484.143563
0
LINE
8
Calque 1
10
370.735729
20
484.143563
11
371.178243
21
483.083830
0
LINE
8
Calque 1
10
371.178243
20
483.083830
11
371.507000
21
481.504300
0
LINE
8
Calque 1
10
371.507000
20
481.504300
11
371.846218
21
479.668845
0
LINE
8
Calque 1
10
371.846218
20
479.668845
11
372.196928
21
478.558313
0
LINE
8
Calque 1
10
372.196928
20
478.558313
11
372.685693
21
477.907098
0
LINE
8
Calque 1
10
372.685693
20
477.907098
11
373.439080
21
477.449600
0
LINE
8
Calque 1
10
373.439080
20
477.449600
11
375.432607
21
476.656752
0
LINE
8
Calque 1
10
375.432607
20
476.656752
11
377.674014
21
476.129038
0
LINE
8
Calque 1
10
377.674014
20
476.129038
11
380.356254
21
475.834255
0
LINE
8
Calque 1
10
380.356254
20
475.834255
11
383.672280
21
475.740200
0
LINE
8
Calque 1
10
383.672280
20
475.740200
11
387.849661
21
475.842125
0
LINE
8
Calque 1
10
387.849661
20
475.842125
11
390.471250
21
476.303600
0
LINE
8
Calque 1
10
390.471250
20
476.303600
11
392.762658
21
476.988516
0
LINE
8
Calque 1
10
392.762658
20
476.988516
11
394.175515
21
477.744100
0
LINE
8
Calque 1
10
394.175515
20
477.744100
11
395.075133
21
478.867109
0
LINE
8
Calque 1
10
395.075133
20
478.867109
11
395.826820
21
480.654300
0
LINE
8
Calque 1
10
395.826820
20
480.654300
11
396.255222
21
481.397275
0
LINE
8
Calque 1
10
396.255222
20
481.397275
11
396.987360
21
481.896200
0
LINE
8
Calque 1
10
396.987360
20
481.896200
11
398.148153
21
482.204325
0
LINE
8
Calque 1
10
398.148153
20
482.204325
11
399.862520
21
482.374900
0
LINE
8
Calque 1
10
399.862520
20
482.374900
11
402.061836
21
482.394675
0
LINE
8
Calque 1
10
402.061836
20
482.394675
11
404.145599
21
482.221025
0
LINE
8
Calque 1
10
404.145599
20
482.221025
11
405.861095
21
481.887663
0
LINE
8
Calque 1
10
405.861095
20
481.887663
11
406.955610
21
481.428300
0
LINE
8
Calque 1
10
406.955610
20
481.428300
11
407.874319
21
480.452538
0
LINE
8
Calque 1
10
407.874319
20
480.452538
11
409.154280
21
478.784900
0
LINE
8
Calque 1
10
409.154280
20
478.784900
11
410.419501
21
477.141575
0
LINE
8
Calque 1
10
410.419501
20
477.141575
11
411.302770
21
476.224100
0
LINE
8
Calque 1
10
411.302770
20
476.224100
11
411.978782
21
475.896610
0
LINE
8
Calque 1
10
411.978782
20
475.896610
11
412.850657
21
475.658302
0
LINE
8
Calque 1
10
412.850657
20
475.658302
11
415.057305
21
475.450638
0
LINE
8
Calque 1
10
415.057305
20
475.450638
11
417.673333
21
475.603930
0
LINE
8
Calque 1
10
417.673333
20
475.603930
11
420.449360
21
476.121000
0
LINE
8
Calque 1
10
420.449360
20
476.121000
11
420.449100
21
476.121200
0
LINE
8
Calque 1
10
380.548000
20
479.280400
11
378.241757
21
479.704834
0
LINE
8
Calque 1
10
378.241757
20
479.704834
11
376.599285
21
480.271075
0
LINE
8
Calque 1
10
376.599285
20
480.271075
11
375.469145
21
481.052753
0
LINE
8
Calque 1
10
375.469145
20
481.052753
11
374.699900
21
482.123500
0
LINE
8
Calque 1
10
374.699900
20
482.123500
11
374.537216
21
482.727272
0
LINE
8
Calque 1
10
374.537216
20
482.727272
11
374.690215
21
483.245075
0
LINE
8
Calque 1
10
374.690215
20
483.245075
11
375.137176
21
483.643741
0
LINE
8
Calque 1
10
375.137176
20
483.643741
11
375.856380
21
483.890100
0
LINE
8
Calque 1
10
375.856380
20
483.890100
11
376.522358
21
484.112208
0
LINE
8
Calque 1
10
376.522358
20
484.112208
11
376.977605
21
484.501987
0
LINE
8
Calque 1
10
376.977605
20
484.501987
11
377.238639
21
485.081798
0
LINE
8
Calque 1
10
377.238639
20
485.081798
11
377.321980
21
485.874000
0
LINE
8
Calque 1
10
377.321980
20
485.874000
11
377.131469
21
486.639200
0
LINE
8
Calque 1
10
377.131469
20
486.639200
11
376.399210
21
487.280500
0
LINE
8
Calque 1
10
376.399210
20
487.280500
11
375.769233
21
487.815569
0
LINE
8
Calque 1
10
375.769233
20
487.815569
11
375.504266
21
488.369200
0
LINE
8
Calque 1
10
375.504266
20
488.369200
11
375.604064
21
488.943081
0
LINE
8
Calque 1
10
375.604064
20
488.943081
11
376.068380
21
489.538900
0
LINE
8
Calque 1
10
376.068380
20
489.538900
11
377.076520
21
490.149881
0
LINE
8
Calque 1
10
377.076520
20
490.149881
11
378.620737
21
490.581050
0
LINE
8
Calque 1
10
378.620737
20
490.581050
11
380.723529
21
490.836644
0
LINE
8
Calque 1
10
380.723529
20
490.836644
11
383.407390
21
490.920900
0
LINE
8
Calque 1
10
383.407390
20
490.920900
11
386.802789
21
490.787531
0
LINE
8
Calque 1
10
386.802789
20
490.787531
11
389.178715
21
490.338150
0
LINE
8
Calque 1
10
389.178715
20
490.338150
11
390.055344
21
489.971857
0
LINE
8
Calque 1
10
390.055344
20
489.971857
11
390.762266
21
489.498844
0
LINE
8
Calque 1
10
390.762266
20
489.498844
11
391.327869
21
488.909871
0
LINE
8
Calque 1
10
391.327869
20
488.909871
11
391.780540
21
488.195700
0
LINE
8
Calque 1
10
391.780540
20
488.195700
11
392.008175
21
487.546388
0
LINE
8
Calque 1
10
392.008175
20
487.546388
11
391.991171
21
486.983400
0
LINE
8
Calque 1
10
391.991171
20
486.983400
11
391.740019
21
486.545888
0
LINE
8
Calque 1
10
391.740019
20
486.545888
11
391.265210
21
486.273000
0
LINE
8
Calque 1
10
391.265210
20
486.273000
11
390.612311
21
485.984225
0
LINE
8
Calque 1
10
390.612311
20
485.984225
11
390.140365
21
485.573425
0
LINE
8
Calque 1
10
390.140365
20
485.573425
11
389.853886
21
485.046187
0
LINE
8
Calque 1
10
389.853886
20
485.046187
11
389.757390
21
484.408100
0
LINE
8
Calque 1
10
389.757390
20
484.408100
11
389.789782
21
483.865113
0
LINE
8
Calque 1
10
389.789782
20
483.865113
11
389.959524
21
483.458025
0
LINE
8
Calque 1
10
389.959524
20
483.458025
11
391.146460
21
482.432200
0
LINE
8
Calque 1
10
391.146460
20
482.432200
11
391.660327
21
481.950537
0
LINE
8
Calque 1
10
391.660327
20
481.950537
11
391.874060
21
481.558500
0
LINE
8
Calque 1
10
391.874060
20
481.558500
11
391.636692
21
481.051581
0
LINE
8
Calque 1
10
391.636692
20
481.051581
11
391.031616
21
480.463475
0
LINE
8
Calque 1
10
391.031616
20
480.463475
11
390.219378
21
479.922131
0
LINE
8
Calque 1
10
390.219378
20
479.922131
11
389.360520
21
479.555500
0
LINE
8
Calque 1
10
389.360520
20
479.555500
11
387.682377
21
479.301409
0
LINE
8
Calque 1
10
387.682377
20
479.301409
11
385.208236
21
479.156950
0
LINE
8
Calque 1
10
385.208236
20
479.156950
11
382.607107
21
479.142991
0
LINE
8
Calque 1
10
382.607107
20
479.142991
11
380.548000
21
479.280400
0
LINE
8
Calque 1
10
380.548000
20
479.280400
11
380.548000
21
479.280400
0
LINE
8
Calque 1
10
384.730310
20
481.467100
11
382.071800
21
484.179000
0
LINE
8
Calque 1
10
382.071800
20
484.179000
11
380.245349
21
485.907525
0
LINE
8
Calque 1
10
380.245349
20
485.907525
11
379.729523
21
486.327047
0
LINE
8
Calque 1
10
379.729523
20
486.327047
11
379.587330
21
486.354900
0
LINE
8
Calque 1
10
379.587330
20
486.354900
11
379.679333
21
485.639130
0
LINE
8
Calque 1
10
379.679333
20
485.639130
11
379.522240
21
484.783887
0
LINE
8
Calque 1
10
379.522240
20
484.783887
11
379.150017
21
483.900727
0
LINE
8
Calque 1
10
379.150017
20
483.900727
11
378.596630
21
483.101200
0
LINE
8
Calque 1
10
378.596630
20
483.101200
11
377.882080
21
482.074900
0
LINE
8
Calque 1
10
377.882080
20
482.074900
11
378.466750
21
481.857172
0
LINE
8
Calque 1
10
378.466750
20
481.857172
11
379.607879
21
481.652625
0
LINE
8
Calque 1
10
379.607879
20
481.652625
11
382.547500
21
481.424300
0
LINE
8
Calque 1
10
382.547500
20
481.424300
11
384.730310
21
481.467300
0
LINE
8
Calque 1
10
384.730310
20
481.467300
11
384.730310
21
481.467100
0
LINE
8
Calque 1
10
413.073210
20
479.279800
11
412.235993
21
479.575703
0
LINE
8
Calque 1
10
412.235993
20
479.575703
11
411.502057
21
480.012325
0
LINE
8
Calque 1
10
411.502057
20
480.012325
11
410.964153
21
480.520759
0
LINE
8
Calque 1
10
410.964153
20
480.520759
11
410.715030
21
481.032100
0
LINE
8
Calque 1
10
410.715030
20
481.032100
11
410.887936
21
481.615325
0
LINE
8
Calque 1
10
410.887936
20
481.615325
11
411.442630
21
482.311800
0
LINE
8
Calque 1
10
411.442630
20
482.311800
11
412.083452
21
483.253005
0
LINE
8
Calque 1
10
412.083452
20
483.253005
11
412.158847
21
484.155312
0
LINE
8
Calque 1
10
412.158847
20
484.155312
11
411.998143
21
484.533822
0
LINE
8
Calque 1
10
411.998143
20
484.533822
11
411.712442
21
484.832939
0
LINE
8
Calque 1
10
411.712442
20
484.832939
11
411.307196
21
485.029439
0
LINE
8
Calque 1
10
411.307196
20
485.029439
11
410.787860
21
485.100100
0
LINE
8
Calque 1
10
410.787860
20
485.100100
11
410.227852
21
485.266875
0
LINE
8
Calque 1
10
410.227852
20
485.266875
11
409.762690
21
485.667800
0
LINE
8
Calque 1
10
409.762690
20
485.667800
11
409.513017
21
486.307962
0
LINE
8
Calque 1
10
409.513017
20
486.307962
11
409.883730
21
487.252100
0
LINE
8
Calque 1
10
409.883730
20
487.252100
11
410.727055
21
488.418019
0
LINE
8
Calque 1
10
410.727055
20
488.418019
11
412.000359
21
489.549366
0
LINE
8
Calque 1
10
412.000359
20
489.549366
11
413.607789
21
490.603486
0
LINE
8
Calque 1
10
413.607789
20
490.603486
11
415.453495
21
491.537725
0
LINE
8
Calque 1
10
415.453495
20
491.537725
11
417.441624
21
492.309430
0
LINE
8
Calque 1
10
417.441624
20
492.309430
11
419.476324
21
492.875947
0
LINE
8
Calque 1
10
419.476324
20
492.875947
11
421.461743
21
493.194621
0
LINE
8
Calque 1
10
421.461743
20
493.194621
11
423.302030
21
493.222800
0
LINE
8
Calque 1
10
423.302030
20
493.222800
11
424.785020
21
493.026137
0
LINE
8
Calque 1
10
424.785020
20
493.026137
11
425.624360
21
492.759800
0
LINE
8
Calque 1
10
425.624360
20
492.759800
11
425.913501
21
492.367231
0
LINE
8
Calque 1
10
425.913501
20
492.367231
11
425.983535
21
491.875250
0
LINE
8
Calque 1
10
425.983535
20
491.875250
11
425.836932
21
491.317719
0
LINE
8
Calque 1
10
425.836932
20
491.317719
11
425.476160
21
490.728500
0
LINE
8
Calque 1
10
425.476160
20
490.728500
11
425.102440
21
490.080075
0
LINE
8
Calque 1
10
425.102440
20
490.080075
11
424.947000
21
489.465700
0
LINE
8
Calque 1
10
424.947000
20
489.465700
11
425.113772
21
488.765361
0
LINE
8
Calque 1
10
425.113772
20
488.765361
11
425.544965
21
488.126587
0
LINE
8
Calque 1
10
425.544965
20
488.126587
11
426.136898
21
487.661270
0
LINE
8
Calque 1
10
426.136898
20
487.661270
11
426.785890
21
487.481300
0
LINE
8
Calque 1
10
426.785890
20
487.481300
11
427.407918
21
487.380866
0
LINE
8
Calque 1
10
427.407918
20
487.380866
11
427.833835
21
487.064075
0
LINE
8
Calque 1
10
427.833835
20
487.064075
11
428.081544
21
486.507697
0
LINE
8
Calque 1
10
428.081544
20
486.507697
11
428.168950
21
485.688500
0
LINE
8
Calque 1
10
428.168950
20
485.688500
11
428.108570
21
484.814967
0
LINE
8
Calque 1
10
428.108570
20
484.814967
11
427.846670
21
484.089212
0
LINE
8
Calque 1
10
427.846670
20
484.089212
11
427.303288
21
483.367527
0
LINE
8
Calque 1
10
427.303288
20
483.367527
11
426.398460
21
482.506200
0
LINE
8
Calque 1
10
426.398460
20
482.506200
11
425.131605
21
481.573921
0
LINE
8
Calque 1
10
425.131605
20
481.573921
11
423.616562
21
480.760272
0
LINE
8
Calque 1
10
423.616562
20
480.760272
11
421.920455
21
480.081505
0
LINE
8
Calque 1
10
421.920455
20
480.081505
11
420.110406
21
479.553875
0
LINE
8
Calque 1
10
420.110406
20
479.553875
11
418.253540
21
479.193636
0
LINE
8
Calque 1
10
418.253540
20
479.193636
11
416.416978
21
479.017041
0
LINE
8
Calque 1
10
416.416978
20
479.017041
11
414.667843
21
479.040344
0
LINE
8
Calque 1
10
414.667843
20
479.040344
11
413.073260
21
479.279800
0
LINE
8
Calque 1
10
413.073260
20
479.279800
11
413.073210
21
479.279800
0
LINE
8
Calque 1
10
421.234910
20
482.106600
11
423.857750
21
483.325713
0
LINE
8
Calque 1
10
423.857750
20
483.325713
11
424.951572
21
484.038042
0
LINE
8
Calque 1
10
424.951572
20
484.038042
11
425.606030
21
484.647800
0
LINE
8
Calque 1
10
425.606030
20
484.647800
11
425.837076
21
485.187862
0
LINE
8
Calque 1
10
425.837076
20
485.187862
11
425.277630
21
485.587900
0
LINE
8
Calque 1
10
425.277630
20
485.587900
11
424.010240
21
486.449200
0
LINE
8
Calque 1
10
424.010240
20
486.449200
11
423.652995
21
486.682200
0
LINE
8
Calque 1
10
423.652995
20
486.682200
11
423.182097
21
486.514100
0
LINE
8
Calque 1
10
423.182097
20
486.514100
11
420.702950
21
484.138800
0
LINE
8
Calque 1
10
420.702950
20
484.138800
11
417.935510
21
481.337500
0
LINE
8
Calque 1
10
417.935510
20
481.337500
11
418.985950
21
481.521900
0
LINE
8
Calque 1
10
418.985950
20
481.521900
11
421.234910
21
482.106600
0
LINE
8
Calque 1
10
421.234910
20
482.106600
11
421.234910
21
482.106600
0
LINE
8
Calque 1
10
398.302710
20
485.920500
11
397.340490
21
486.304806
0
LINE
8
Calque 1
10
397.340490
20
486.304806
11
396.568892
21
486.960050
0
LINE
8
Calque 1
10
396.568892
20
486.960050
11
395.980178
21
487.895269
0
LINE
8
Calque 1
10
395.980178
20
487.895269
11
395.566610
21
489.119500
0
LINE
8
Calque 1
10
395.566610
20
489.119500
11
395.005666
21
491.039548
0
LINE
8
Calque 1
10
395.005666
20
491.039548
11
394.667923
21
491.692749
0
LINE
8
Calque 1
10
394.667923
20
491.692749
11
394.230155
21
492.195637
0
LINE
8
Calque 1
10
394.230155
20
492.195637
11
393.645977
21
492.588890
0
LINE
8
Calque 1
10
393.645977
20
492.588890
11
392.869006
21
492.913183
0
LINE
8
Calque 1
10
392.869006
20
492.913183
11
390.551150
21
493.517600
0
LINE
8
Calque 1
10
390.551150
20
493.517600
11
387.420157
21
493.874937
0
LINE
8
Calque 1
10
387.420157
20
493.874937
11
383.121545
21
493.985450
0
LINE
8
Calque 1
10
383.121545
20
493.985450
11
378.866636
21
493.852287
0
LINE
8
Calque 1
10
378.866636
20
493.852287
11
375.866750
21
493.478600
0
LINE
8
Calque 1
10
375.866750
20
493.478600
11
374.828411
21
493.184502
0
LINE
8
Calque 1
10
374.828411
20
493.184502
11
374.078502
21
492.841362
0
LINE
8
Calque 1
10
374.078502
20
492.841362
11
372.559460
21
491.471000
0
LINE
8
Calque 1
10
372.559460
20
491.471000
11
371.123137
21
490.151662
0
LINE
8
Calque 1
10
371.123137
20
490.151662
11
370.525058
21
489.895395
0
LINE
8
Calque 1
10
370.525058
20
489.895395
11
369.764710
21
489.759700
0
LINE
8
Calque 1
10
369.764710
20
489.759700
11
368.491828
21
489.717287
0
LINE
8
Calque 1
10
368.491828
20
489.717287
11
367.124544
21
489.854725
0
LINE
8
Calque 1
10
367.124544
20
489.854725
11
365.879133
21
490.137250
0
LINE
8
Calque 1
10
365.879133
20
490.137250
11
364.971870
21
490.530100
0
LINE
8
Calque 1
10
364.971870
20
490.530100
11
364.351765
21
491.053712
0
LINE
8
Calque 1
10
364.351765
20
491.053712
11
363.901236
21
491.749300
0
LINE
8
Calque 1
10
363.901236
20
491.749300
11
363.571227
21
492.721712
0
LINE
8
Calque 1
10
363.571227
20
492.721712
11
363.312680
21
494.075800
0
LINE
8
Calque 1
10
363.312680
20
494.075800
11
362.988819
21
495.719642
0
LINE
8
Calque 1
10
362.988819
20
495.719642
11
362.549302
21
496.945237
0
LINE
8
Calque 1
10
362.549302
20
496.945237
11
361.931177
21
497.881239
0
LINE
8
Calque 1
10
361.931177
20
497.881239
11
361.071490
21
498.656300
0
LINE
8
Calque 1
10
361.071490
20
498.656300
11
358.477114
21
500.169175
0
LINE
8
Calque 1
10
358.477114
20
500.169175
11
357.190593
21
500.744862
0
LINE
8
Calque 1
10
357.190593
20
500.744862
11
356.368730
21
500.974500
0
LINE
8
Calque 1
10
356.368730
20
500.974500
11
355.903527
21
501.144348
0
LINE
8
Calque 1
10
355.903527
20
501.144348
11
355.515894
21
501.557412
0
LINE
8
Calque 1
10
355.515894
20
501.557412
11
355.299821
21
502.069645
0
LINE
8
Calque 1
10
355.299821
20
502.069645
11
355.349300
21
502.537000
0
LINE
8
Calque 1
10
355.349300
20
502.537000
11
356.361449
21
503.287966
0
LINE
8
Calque 1
10
356.361449
20
503.287966
11
358.648605
21
504.593950
0
LINE
8
Calque 1
10
358.648605
20
504.593950
11
365.018830
21
507.772300
0
LINE
8
Calque 1
10
365.018830
20
507.772300
11
369.070478
21
509.545892
0
LINE
8
Calque 1
10
369.070478
20
509.545892
11
373.189517
21
511.182580
0
LINE
8
Calque 1
10
373.189517
20
511.182580
11
381.516205
21
514.010962
0
LINE
8
Calque 1
10
381.516205
20
514.010962
11
385.667068
21
515.185518
0
LINE
8
Calque 1
10
385.667068
20
515.185518
11
389.771755
21
516.188889
0
LINE
8
Calque 1
10
389.771755
20
516.188889
11
393.801873
21
517.012506
0
LINE
8
Calque 1
10
393.801873
20
517.012506
11
397.729030
21
517.647800
0
LINE
8
Calque 1
10
397.729030
20
517.647800
11
403.286172
21
518.233648
0
LINE
8
Calque 1
10
403.286172
20
518.233648
11
408.628256
21
518.343762
0
LINE
8
Calque 1
10
408.628256
20
518.343762
11
414.399177
21
517.962420
0
LINE
8
Calque 1
10
414.399177
20
517.962420
11
421.242830
21
517.073900
0
LINE
8
Calque 1
10
421.242830
20
517.073900
11
425.058268
21
516.573709
0
LINE
8
Calque 1
10
425.058268
20
516.573709
11
428.457063
21
516.293844
0
LINE
8
Calque 1
10
428.457063
20
516.293844
11
431.466751
21
516.237470
0
LINE
8
Calque 1
10
431.466751
20
516.237470
11
434.114867
21
516.407750
0
LINE
8
Calque 1
10
434.114867
20
516.407750
11
436.428948
21
516.807849
0
LINE
8
Calque 1
10
436.428948
20
516.807849
11
438.436528
21
517.440931
0
LINE
8
Calque 1
10
438.436528
20
517.440931
11
440.165144
21
518.310160
0
LINE
8
Calque 1
10
440.165144
20
518.310160
11
441.642330
21
519.418700
0
LINE
8
Calque 1
10
441.642330
20
519.418700
11
442.586248
21
520.408844
0
LINE
8
Calque 1
10
442.586248
20
520.408844
11
443.349764
21
521.534775
0
LINE
8
Calque 1
10
443.349764
20
521.534775
11
443.974288
21
522.869919
0
LINE
8
Calque 1
10
443.974288
20
522.869919
11
444.501230
21
524.487700
0
LINE
8
Calque 1
10
444.501230
20
524.487700
11
445.036969
21
526.952580
0
LINE
8
Calque 1
10
445.036969
20
526.952580
11
445.239979
21
529.267620
0
LINE
8
Calque 1
10
445.239979
20
529.267620
11
445.107744
21
531.440585
0
LINE
8
Calque 1
10
445.107744
20
531.440585
11
444.637746
21
533.479237
0
LINE
8
Calque 1
10
444.637746
20
533.479237
11
443.827471
21
535.391342
0
LINE
8
Calque 1
10
443.827471
20
535.391342
11
442.674400
21
537.184661
0
LINE
8
Calque 1
10
442.674400
20
537.184661
11
441.176019
21
538.866959
0
LINE
8
Calque 1
10
441.176019
20
538.866959
11
439.329810
21
540.446000
0
LINE
8
Calque 1
10
439.329810
20
540.446000
11
437.699227
21
541.513212
0
LINE
8
Calque 1
10
437.699227
20
541.513212
11
436.048122
21
542.183375
0
LINE
8
Calque 1
10
436.048122
20
542.183375
11
434.128882
21
542.526800
0
LINE
8
Calque 1
10
434.128882
20
542.526800
11
431.693890
21
542.613800
0
LINE
8
Calque 1
10
431.693890
20
542.613800
11
428.711202
21
542.469325
0
LINE
8
Calque 1
10
428.711202
20
542.469325
11
426.389580
21
541.897800
0
LINE
8
Calque 1
10
426.389580
20
541.897800
11
423.879659
21
540.864152
0
LINE
8
Calque 1
10
423.879659
20
540.864152
11
421.959217
21
539.601013
0
LINE
8
Calque 1
10
421.959217
20
539.601013
11
420.643145
21
538.120992
0
LINE
8
Calque 1
10
420.643145
20
538.120992
11
420.216399
21
537.303592
0
LINE
8
Calque 1
10
420.216399
20
537.303592
11
419.946330
21
536.436700
0
LINE
8
Calque 1
10
419.946330
20
536.436700
11
419.679797
21
534.566200
0
LINE
8
Calque 1
10
419.679797
20
534.566200
11
420.045530
21
532.829800
0
LINE
8
Calque 1
10
420.045530
20
532.829800
11
420.400972
21
531.912733
0
LINE
8
Calque 1
10
420.400972
20
531.912733
11
420.856960
21
531.116763
0
LINE
8
Calque 1
10
420.856960
20
531.116763
11
421.335140
21
530.555711
0
LINE
8
Calque 1
10
421.335140
20
530.555711
11
421.757160
21
530.343400
0
LINE
8
Calque 1
10
421.757160
20
530.343400
11
421.878799
21
530.642875
0
LINE
8
Calque 1
10
421.878799
20
530.642875
11
421.849560
21
531.362800
0
LINE
8
Calque 1
10
421.849560
20
531.362800
11
421.833005
21
532.162762
0
LINE
8
Calque 1
10
421.833005
20
532.162762
11
421.986589
21
532.955877
0
LINE
8
Calque 1
10
421.986589
20
532.955877
11
422.741855
21
534.438037
0
LINE
8
Calque 1
10
422.741855
20
534.438037
11
423.990711
21
535.642230
0
LINE
8
Calque 1
10
423.990711
20
535.642230
11
424.761283
21
536.087883
0
LINE
8
Calque 1
10
424.761283
20
536.087883
11
425.608510
21
536.401400
0
LINE
8
Calque 1
10
425.608510
20
536.401400
11
426.750306
21
536.631631
0
LINE
8
Calque 1
10
426.750306
20
536.631631
11
427.794255
21
536.653850
0
LINE
8
Calque 1
10
427.794255
20
536.653850
11
428.815944
21
536.461869
0
LINE
8
Calque 1
10
428.815944
20
536.461869
11
429.890960
21
536.049500
0
LINE
8
Calque 1
10
429.890960
20
536.049500
11
430.824948
21
535.499873
0
LINE
8
Calque 1
10
430.824948
20
535.499873
11
431.581435
21
534.819689
0
LINE
8
Calque 1
10
431.581435
20
534.819689
11
432.166090
21
534.030773
0
LINE
8
Calque 1
10
432.166090
20
534.030773
11
432.584586
21
533.154945
0
LINE
8
Calque 1
10
432.584586
20
533.154945
11
432.842593
21
532.214030
0
LINE
8
Calque 1
10
432.842593
20
532.214030
11
432.945782
21
531.229851
0
LINE
8
Calque 1
10
432.945782
20
531.229851
11
432.710390
21
529.218988
0
LINE
8
Calque 1
10
432.710390
20
529.218988
11
431.923778
21
527.296938
0
LINE
8
Calque 1
10
431.923778
20
527.296938
11
431.337942
21
526.423776
0
LINE
8
Calque 1
10
431.337942
20
526.423776
11
430.631314
21
525.638286
0
LINE
8
Calque 1
10
430.631314
20
525.638286
11
429.809565
21
524.962290
0
LINE
8
Calque 1
10
429.809565
20
524.962290
11
428.878365
21
524.417612
0
LINE
8
Calque 1
10
428.878365
20
524.417612
11
427.843387
21
524.026075
0
LINE
8
Calque 1
10
427.843387
20
524.026075
11
426.710300
21
523.809500
0
LINE
8
Calque 1
10
426.710300
20
523.809500
11
425.142415
21
523.798761
0
LINE
8
Calque 1
10
425.142415
20
523.798761
11
423.538179
21
524.065477
0
LINE
8
Calque 1
10
423.538179
20
524.065477
11
421.944505
21
524.583069
0
LINE
8
Calque 1
10
421.944505
20
524.583069
11
420.408305
21
525.324962
0
LINE
8
Calque 1
10
420.408305
20
525.324962
11
418.976492
21
526.264579
0
LINE
8
Calque 1
10
418.976492
20
526.264579
11
417.695979
21
527.375342
0
LINE
8
Calque 1
10
417.695979
20
527.375342
11
416.613677
21
528.630675
0
LINE
8
Calque 1
10
416.613677
20
528.630675
11
415.776500
21
530.004000
0
LINE
8
Calque 1
10
415.776500
20
530.004000
11
415.151229
21
531.700025
0
LINE
8
Calque 1
10
415.151229
20
531.700025
11
415.025180
21
534.053200
0
LINE
8
Calque 1
10
415.025180
20
534.053200
11
415.162799
21
536.465737
0
LINE
8
Calque 1
10
415.162799
20
536.465737
11
415.432521
21
537.333658
0
LINE
8
Calque 1
10
415.432521
20
537.333658
11
415.923030
21
538.396100
0
LINE
8
Calque 1
10
415.923030
20
538.396100
11
416.646702
21
539.640094
0
LINE
8
Calque 1
10
416.646702
20
539.640094
11
417.566678
21
540.844322
0
LINE
8
Calque 1
10
417.566678
20
540.844322
11
418.666814
21
541.996139
0
LINE
8
Calque 1
10
418.666814
20
541.996139
11
419.930966
21
543.082900
0
LINE
8
Calque 1
10
419.930966
20
543.082900
11
422.886736
21
545.010678
0
LINE
8
Calque 1
10
422.886736
20
545.010678
11
426.304830
21
546.526500
0
LINE
8
Calque 1
10
426.304830
20
546.526500
11
428.709890
21
547.203137
0
LINE
8
Calque 1
10
428.709890
20
547.203137
11
431.574910
21
547.797500
0
LINE
8
Calque 1
10
431.574910
20
547.797500
11
434.816328
21
548.517425
0
LINE
8
Calque 1
10
434.816328
20
548.517425
11
437.595690
21
549.630725
0
LINE
8
Calque 1
10
437.595690
20
549.630725
11
440.429262
21
551.402787
0
LINE
8
Calque 1
10
440.429262
20
551.402787
11
443.833310
21
554.099000
0
LINE
8
Calque 1
10
443.833310
20
554.099000
11
445.992935
21
555.801888
0
LINE
8
Calque 1
10
445.992935
20
555.801888
11
447.425750
21
556.734900
0
LINE
8
Calque 1
10
447.425750
20
556.734900
11
448.276721
21
556.977487
0
LINE
8
Calque 1
10
448.276721
20
556.977487
11
448.816780
21
556.532100
0
LINE
8
Calque 1
10
448.816780
20
556.532100
11
449.156396
21
555.911287
0
LINE
8
Calque 1
10
449.156396
20
555.911287
11
448.783580
21
555.116400
0
LINE
8
Calque 1
10
448.783580
20
555.116400
11
448.054729
21
553.597347
0
LINE
8
Calque 1
10
448.054729
20
553.597347
11
447.603466
21
551.667350
0
LINE
8
Calque 1
10
447.603466
20
551.667350
11
447.373208
21
548.939728
0
LINE
8
Calque 1
10
447.373208
20
548.939728
11
447.307370
21
545.027800
0
LINE
8
Calque 1
10
447.307370
20
545.027800
11
447.380156
21
540.553062
0
LINE
8
Calque 1
10
447.380156
20
540.553062
11
447.601060
21
538.705200
0
LINE
8
Calque 1
10
447.601060
20
538.705200
11
447.782361
21
538.472169
0
LINE
8
Calque 1
10
447.782361
20
538.472169
11
447.969489
21
538.491100
0
LINE
8
Calque 1
10
447.969489
20
538.491100
11
448.641930
21
539.498900
0
LINE
8
Calque 1
10
448.641930
20
539.498900
11
449.908343
21
541.431156
0
LINE
8
Calque 1
10
449.908343
20
541.431156
11
451.360249
21
543.185344
0
LINE
8
Calque 1
10
451.360249
20
543.185344
11
452.934084
21
544.718028
0
LINE
8
Calque 1
10
452.934084
20
544.718028
11
454.566287
21
545.985775
0
LINE
8
Calque 1
10
454.566287
20
545.985775
11
456.193296
21
546.945150
0
LINE
8
Calque 1
10
456.193296
20
546.945150
11
457.751547
21
547.552719
0
LINE
8
Calque 1
10
457.751547
20
547.552719
11
459.177479
21
547.765047
0
LINE
8
Calque 1
10
459.177479
20
547.765047
11
460.407530
21
547.538700
0
LINE
8
Calque 1
10
460.407530
20
547.538700
11
460.907525
21
547.253853
0
LINE
8
Calque 1
10
460.907525
20
547.253853
11
461.232555
21
546.892244
0
LINE
8
Calque 1
10
461.232555
20
546.892244
11
461.384387
21
546.462581
0
LINE
8
Calque 1
10
461.384387
20
546.462581
11
461.364789
21
545.973575
0
LINE
8
Calque 1
10
461.364789
20
545.973575
11
460.818376
21
544.852369
0
LINE
8
Calque 1
10
460.818376
20
544.852369
11
459.607460
21
543.598300
0
LINE
8
Calque 1
10
459.607460
20
543.598300
11
457.792122
21
541.623494
0
LINE
8
Calque 1
10
457.792122
20
541.623494
11
455.854140
21
538.754631
0
LINE
8
Calque 1
10
455.854140
20
538.754631
11
453.895814
21
535.224334
0
LINE
8
Calque 1
10
453.895814
20
535.224334
11
452.019445
21
531.265225
0
LINE
8
Calque 1
10
452.019445
20
531.265225
11
450.327334
21
527.109925
0
LINE
8
Calque 1
10
450.327334
20
527.109925
11
448.921782
21
522.991056
0
LINE
8
Calque 1
10
448.921782
20
522.991056
11
447.905091
21
519.141241
0
LINE
8
Calque 1
10
447.905091
20
519.141241
11
447.379560
21
515.793100
0
LINE
8
Calque 1
10
447.379560
20
515.793100
11
447.291964
21
515.286087
0
LINE
8
Calque 1
10
447.291964
20
515.286087
11
447.077307
21
514.880100
0
LINE
8
Calque 1
10
447.077307
20
514.880100
11
445.981390
21
514.006400
0
LINE
8
Calque 1
10
445.981390
20
514.006400
11
443.749699
21
512.342292
0
LINE
8
Calque 1
10
443.749699
20
512.342292
11
441.704505
21
510.379562
0
LINE
8
Calque 1
10
441.704505
20
510.379562
11
439.839213
21
508.111077
0
LINE
8
Calque 1
10
439.839213
20
508.111077
11
438.147230
21
505.529700
0
LINE
8
Calque 1
10
438.147230
20
505.529700
11
437.180671
21
503.673372
0
LINE
8
Calque 1
10
437.180671
20
503.673372
11
436.549681
21
501.954575
0
LINE
8
Calque 1
10
436.549681
20
501.954575
11
436.240489
21
500.324241
0
LINE
8
Calque 1
10
436.240489
20
500.324241
11
436.239320
21
498.733300
0
LINE
8
Calque 1
10
436.239320
20
498.733300
11
436.399830
21
497.014400
0
LINE
8
Calque 1
10
436.399830
20
497.014400
11
435.408730
21
496.106600
0
LINE
8
Calque 1
10
435.408730
20
496.106600
11
434.138454
21
495.175962
0
LINE
8
Calque 1
10
434.138454
20
495.175962
11
432.476160
21
494.213300
0
LINE
8
Calque 1
10
432.476160
20
494.213300
11
430.894190
21
493.539336
0
LINE
8
Calque 1
10
430.894190
20
493.539336
11
429.620181
21
493.345887
0
LINE
8
Calque 1
10
429.620181
20
493.345887
11
428.473375
21
493.640520
0
LINE
8
Calque 1
10
428.473375
20
493.640520
11
427.273010
21
494.430800
0
LINE
8
Calque 1
10
427.273010
20
494.430800
11
426.203883
21
495.239987
0
LINE
8
Calque 1
10
426.203883
20
495.239987
11
425.339249
21
495.697425
0
LINE
8
Calque 1
10
425.339249
20
495.697425
11
424.417860
21
495.899600
0
LINE
8
Calque 1
10
424.417860
20
495.899600
11
423.178470
21
495.943000
0
LINE
8
Calque 1
10
423.178470
20
495.943000
11
421.376585
21
495.825825
0
LINE
8
Calque 1
10
421.376585
20
495.825825
11
419.408961
21
495.500866
0
LINE
8
Calque 1
10
419.408961
20
495.500866
11
415.273926
21
494.332975
0
LINE
8
Calque 1
10
415.273926
20
494.332975
11
411.368213
21
492.650097
0
LINE
8
Calque 1
10
411.368213
20
492.650097
11
409.687242
21
491.681403
0
LINE
8
Calque 1
10
409.687242
20
491.681403
11
408.286670
21
490.663000
0
LINE
8
Calque 1
10
408.286670
20
490.663000
11
407.161707
21
489.473287
0
LINE
8
Calque 1
10
407.161707
20
489.473287
11
406.213820
21
488.068100
0
LINE
8
Calque 1
10
406.213820
20
488.068100
11
405.410884
21
486.838987
0
LINE
8
Calque 1
10
405.410884
20
486.838987
11
404.649610
21
486.164200
0
LINE
8
Calque 1
10
404.649610
20
486.164200
11
403.474175
21
485.890077
0
LINE
8
Calque 1
10
403.474175
20
485.890077
11
401.681411
21
485.744812
0
LINE
8
Calque 1
10
401.681411
20
485.744812
11
399.786020
21
485.748217
0
LINE
8
Calque 1
10
399.786020
20
485.748217
11
398.302700
21
485.920100
0
LINE
8
Calque 1
10
398.302700
20
485.920100
11
398.302710
21
485.920500
0
LINE
8
Calque 1
10
403.061210
20
489.968600
11
407.059014
21
493.632175
0
LINE
8
Calque 1
10
407.059014
20
493.632175
11
415.668410
21
502.122300
0
LINE
8
Calque 1
10
415.668410
20
502.122300
11
425.388172
21
511.994437
0
LINE
8
Calque 1
10
425.388172
20
511.994437
11
426.767899
21
513.615652
0
LINE
8
Calque 1
10
426.767899
20
513.615652
11
426.900554
21
513.933328
0
LINE
8
Calque 1
10
426.900554
20
513.933328
11
426.780910
21
514.050300
0
LINE
8
Calque 1
10
426.780910
20
514.050300
11
421.391430
21
514.875700
0
LINE
8
Calque 1
10
421.391430
20
514.875700
11
416.645230
21
515.556400
0
LINE
8
Calque 1
10
416.645230
20
515.556400
11
409.022300
21
507.936900
0
LINE
8
Calque 1
10
409.022300
20
507.936900
11
401.399380
21
500.317300
0
LINE
8
Calque 1
10
401.399380
20
500.317300
11
394.786310
21
506.926400
0
LINE
8
Calque 1
10
394.786310
20
506.926400
11
388.173250
21
513.535500
0
LINE
8
Calque 1
10
388.173250
20
513.535500
11
385.724190
21
512.913300
0
LINE
8
Calque 1
10
385.724190
20
512.913300
11
381.245814
21
511.656887
0
LINE
8
Calque 1
10
381.245814
20
511.656887
11
378.847180
21
510.795800
0
LINE
8
Calque 1
10
378.847180
20
510.795800
11
385.439655
21
503.947250
0
LINE
8
Calque 1
10
385.439655
20
503.947250
11
395.910680
21
493.612100
0
LINE
8
Calque 1
10
395.910680
20
493.612100
11
397.630470
21
491.743300
0
LINE
8
Calque 1
10
397.630470
20
491.743300
11
398.977097
21
490.470280
0
LINE
8
Calque 1
10
398.977097
20
490.470280
11
400.302760
21
489.759412
0
LINE
8
Calque 1
10
400.302760
20
489.759412
11
401.649963
21
489.596814
0
LINE
8
Calque 1
10
401.649963
20
489.596814
11
403.061210
21
489.968600
0
LINE
8
Calque 1
10
403.061210
20
489.968600
11
403.061210
21
489.968600
0
LINE
8
Calque 1
10
371.074410
20
493.103700
11
372.014440
21
494.228200
0
LINE
8
Calque 1
10
372.014440
20
494.228200
11
367.133470
21
499.116300
0
LINE
8
Calque 1
10
367.133470
20
499.116300
11
362.252500
21
504.004300
0
LINE
8
Calque 1
10
362.252500
20
504.004300
11
360.595340
21
503.187900
0
LINE
8
Calque 1
10
360.595340
20
503.187900
11
358.938190
21
502.371600
0
LINE
8
Calque 1
10
358.938190
20
502.371600
11
360.348760
21
501.656800
0
LINE
8
Calque 1
10
360.348760
20
501.656800
11
361.653699
21
500.863844
0
LINE
8
Calque 1
10
361.653699
20
500.863844
11
362.889126
21
499.878100
0
LINE
8
Calque 1
10
362.889126
20
499.878100
11
363.920856
21
498.820506
0
LINE
8
Calque 1
10
363.920856
20
498.820506
11
364.614700
21
497.812000
0
LINE
8
Calque 1
10
364.614700
20
497.812000
11
365.039691
21
496.566662
0
LINE
8
Calque 1
10
365.039691
20
496.566662
11
365.391310
21
494.889700
0
LINE
8
Calque 1
10
365.391310
20
494.889700
11
365.710105
21
493.364611
0
LINE
8
Calque 1
10
365.710105
20
493.364611
11
366.210585
21
492.483087
0
LINE
8
Calque 1
10
366.210585
20
492.483087
11
367.070060
21
492.077270
0
LINE
8
Calque 1
10
367.070060
20
492.077270
11
368.465840
21
491.979300
0
LINE
8
Calque 1
10
368.465840
20
491.979300
11
369.435078
21
491.999681
0
LINE
8
Calque 1
10
369.435078
20
491.999681
11
370.038501
21
492.127350
0
LINE
8
Calque 1
10
370.038501
20
492.127350
11
370.507736
21
492.462094
0
LINE
8
Calque 1
10
370.507736
20
492.462094
11
371.074410
21
493.103700
0
LINE
8
Calque 1
10
371.074410
20
493.103700
11
371.074410
21
493.103700
0
LINE
8
Calque 1
10
429.658810
20
527.916400
11
430.124733
21
528.563691
0
LINE
8
Calque 1
10
430.124733
20
528.563691
11
430.142185
21
528.706325
0
LINE
8
Calque 1
10
430.142185
20
528.706325
11
428.904730
21
527.516400
0
LINE
8
Calque 1
10
428.904730
20
527.516400
11
428.235161
21
526.735400
0
LINE
8
Calque 1
10
428.235161
20
526.735400
11
428.195326
21
526.606303
0
LINE
8
Calque 1
10
428.195326
20
526.606303
11
428.368130
21
526.676500
0
LINE
8
Calque 1
10
428.368130
20
526.676500
11
429.658810
21
527.916400
0
LINE
8
Calque 1
10
429.658810
20
527.916400
11
429.658810
21
527.916400
0
LINE
8
Calque 1
10
456.360710
20
543.374600
11
457.276687
21
544.635875
0
LINE
8
Calque 1
10
457.276687
20
544.635875
11
457.536790
21
545.160500
0
LINE
8
Calque 1
10
457.536790
20
545.160500
11
456.098080
21
544.379400
0
LINE
8
Calque 1
10
456.098080
20
544.379400
11
454.679509
21
543.302519
0
LINE
8
Calque 1
10
454.679509
20
543.302519
11
453.211461
21
541.886825
0
LINE
8
Calque 1
10
453.211461
20
541.886825
11
451.858938
21
540.307519
0
LINE
8
Calque 1
10
451.858938
20
540.307519
11
450.786940
21
538.739800
0
LINE
8
Calque 1
10
450.786940
20
538.739800
11
449.783443
21
537.201461
0
LINE
8
Calque 1
10
449.783443
20
537.201461
11
448.900364
21
536.306163
0
LINE
8
Calque 1
10
448.900364
20
536.306163
11
448.032545
21
535.980583
0
LINE
8
Calque 1
10
448.032545
20
535.980583
11
447.074830
21
536.151400
0
LINE
8
Calque 1
10
447.074830
20
536.151400
11
446.376898
21
536.612645
0
LINE
8
Calque 1
10
446.376898
20
536.612645
11
445.819154
21
537.398912
0
LINE
8
Calque 1
10
445.819154
20
537.398912
11
445.414565
21
538.484973
0
LINE
8
Calque 1
10
445.414565
20
538.484973
11
445.176100
21
539.845600
0
LINE
8
Calque 1
10
445.176100
20
539.845600
11
444.828540
21
542.459400
0
LINE
8
Calque 1
10
444.828540
20
542.459400
11
444.657790
21
543.330200
0
LINE
8
Calque 1
10
444.657790
20
543.330200
11
443.493360
21
542.143800
0
LINE
8
Calque 1
10
443.493360
20
542.143800
11
442.328940
21
540.957300
0
LINE
8
Calque 1
10
442.328940
20
540.957300
11
443.733770
21
539.420900
0
LINE
8
Calque 1
10
443.733770
20
539.420900
11
444.784872
21
538.060584
0
LINE
8
Calque 1
10
444.784872
20
538.060584
11
445.813697
21
536.404450
0
LINE
8
Calque 1
10
445.813697
20
536.404450
11
446.596549
21
534.849041
0
LINE
8
Calque 1
10
446.596549
20
534.849041
11
446.909730
21
533.790900
0
LINE
8
Calque 1
10
446.909730
20
533.790900
11
447.240722
21
533.957976
0
LINE
8
Calque 1
10
447.240722
20
533.957976
11
448.127255
21
534.736569
0
LINE
8
Calque 1
10
448.127255
20
534.736569
11
450.941796
21
537.494350
0
LINE
8
Calque 1
10
450.941796
20
537.494350
11
454.103049
21
540.796331
0
LINE
8
Calque 1
10
454.103049
20
540.796331
11
456.360710
21
543.374600
0
LINE
8
Calque 1
10
456.360710
20
543.374600
11
456.360710
21
543.374600
0
LINE
8
Calque 1
10
349.805710
20
486.320200
11
346.054337
21
487.377100
0
LINE
8
Calque 1
10
346.054337
20
487.377100
11
343.271650
21
488.527900
0
LINE
8
Calque 1
10
343.271650
20
488.527900
11
342.417898
21
489.175992
0
LINE
8
Calque 1
10
342.417898
20
489.175992
11
341.872210
21
489.938938
0
LINE
8
Calque 1
10
341.872210
20
489.938938
11
341.586195
21
490.918089
0
LINE
8
Calque 1
10
341.586195
20
490.918089
11
341.511460
21
492.214800
0
LINE
8
Calque 1
10
341.511460
20
492.214800
11
341.771879
21
494.303386
0
LINE
8
Calque 1
10
341.771879
20
494.303386
11
342.478247
21
496.088287
0
LINE
8
Calque 1
10
342.478247
20
496.088287
11
343.584160
21
497.487970
0
LINE
8
Calque 1
10
343.584160
20
497.487970
11
344.272443
21
498.017875
0
LINE
8
Calque 1
10
344.272443
20
498.017875
11
345.043210
21
498.420900
0
LINE
8
Calque 1
10
345.043210
20
498.420900
11
346.435749
21
498.795720
0
LINE
8
Calque 1
10
346.435749
20
498.795720
11
348.243061
21
498.984437
0
LINE
8
Calque 1
10
348.243061
20
498.984437
11
350.269458
21
498.977761
0
LINE
8
Calque 1
10
350.269458
20
498.977761
11
352.319250
21
498.766400
0
LINE
8
Calque 1
10
352.319250
20
498.766400
11
355.302645
21
498.098709
0
LINE
8
Calque 1
10
355.302645
20
498.098709
11
357.539650
21
497.155675
0
LINE
8
Calque 1
10
357.539650
20
497.155675
11
358.384089
21
496.577523
0
LINE
8
Calque 1
10
358.384089
20
496.577523
11
359.048930
21
495.926478
0
LINE
8
Calque 1
10
359.048930
20
495.926478
11
359.536506
21
495.201188
0
LINE
8
Calque 1
10
359.536506
20
495.201188
11
359.849150
21
494.400300
0
LINE
8
Calque 1
10
359.849150
20
494.400300
11
360.022675
21
493.467016
0
LINE
8
Calque 1
10
360.022675
20
493.467016
11
359.963312
21
492.785000
0
LINE
8
Calque 1
10
359.963312
20
492.785000
11
359.663241
21
492.329484
0
LINE
8
Calque 1
10
359.663241
20
492.329484
11
359.114640
21
492.075700
0
LINE
8
Calque 1
10
359.114640
20
492.075700
11
358.185538
21
491.712297
0
LINE
8
Calque 1
10
358.185538
20
491.712297
11
357.778252
21
491.194975
0
LINE
8
Calque 1
10
357.778252
20
491.194975
11
357.894741
21
490.531666
0
LINE
8
Calque 1
10
357.894741
20
490.531666
11
358.536960
21
489.730300
0
LINE
8
Calque 1
10
358.536960
20
489.730300
11
359.097545
21
489.097188
0
LINE
8
Calque 1
10
359.097545
20
489.097188
11
359.330710
21
488.642800
0
LINE
8
Calque 1
10
359.330710
20
488.642800
11
359.115776
21
488.125497
0
LINE
8
Calque 1
10
359.115776
20
488.125497
11
358.579634
21
487.439275
0
LINE
8
Calque 1
10
358.579634
20
487.439275
11
357.885269
21
486.764416
0
LINE
8
Calque 1
10
357.885269
20
486.764416
11
357.195670
21
486.281200
0
LINE
8
Calque 1
10
357.195670
20
486.281200
11
355.968916
21
486.005144
0
LINE
8
Calque 1
10
355.968916
20
486.005144
11
354.029650
21
485.921200
0
LINE
8
Calque 1
10
354.029650
20
485.921200
11
351.825904
21
486.027006
0
LINE
8
Calque 1
10
351.825904
20
486.027006
11
349.805710
21
486.320200
0
LINE
8
Calque 1
10
349.805710
20
486.320200
11
349.805710
21
486.320200
0
LINE
8
Calque 1
10
356.138700
20
488.259000
11
356.377374
21
488.529638
0
LINE
8
Calque 1
10
356.377374
20
488.529638
11
356.193700
21
488.890800
0
LINE
8
Calque 1
10
356.193700
20
488.890800
11
355.625094
21
489.989567
0
LINE
8
Calque 1
10
355.625094
20
489.989567
11
355.537085
21
491.217138
0
LINE
8
Calque 1
10
355.537085
20
491.217138
11
355.911173
21
492.416564
0
LINE
8
Calque 1
10
355.911173
20
492.416564
11
356.728860
21
493.430900
0
LINE
8
Calque 1
10
356.728860
20
493.430900
11
357.253280
21
493.985986
0
LINE
8
Calque 1
10
357.253280
20
493.985986
11
357.347787
21
494.458638
0
LINE
8
Calque 1
10
357.347787
20
494.458638
11
356.994841
21
494.911695
0
LINE
8
Calque 1
10
356.994841
20
494.911695
11
356.176900
21
495.408000
0
LINE
8
Calque 1
10
356.176900
20
495.408000
11
354.790889
21
495.969952
0
LINE
8
Calque 1
10
354.790889
20
495.969952
11
353.153154
21
496.385063
0
LINE
8
Calque 1
10
353.153154
20
496.385063
11
351.335267
21
496.639467
0
LINE
8
Calque 1
10
351.335267
20
496.639467
11
349.408800
21
496.719300
0
LINE
8
Calque 1
10
349.408800
20
496.719300
11
347.365449
21
496.663528
0
LINE
8
Calque 1
10
347.365449
20
496.663528
11
346.461601
21
496.447350
0
LINE
8
Calque 1
10
346.461601
20
496.447350
11
346.393748
21
496.240736
0
LINE
8
Calque 1
10
346.393748
20
496.240736
11
346.558878
21
495.947972
0
LINE
8
Calque 1
10
346.558878
20
495.947972
11
347.518900
21
495.042600
0
LINE
8
Calque 1
10
347.518900
20
495.042600
11
348.530636
21
494.049863
0
LINE
8
Calque 1
10
348.530636
20
494.049863
11
348.834440
21
493.470900
0
LINE
8
Calque 1
10
348.834440
20
493.470900
11
348.777977
21
493.317313
0
LINE
8
Calque 1
10
348.777977
20
493.317313
11
348.883740
21
493.370800
0
LINE
8
Calque 1
10
348.883740
20
493.370800
11
349.224407
21
493.338928
0
LINE
8
Calque 1
10
349.224407
20
493.338928
11
349.710567
21
492.993125
0
LINE
8
Calque 1
10
349.710567
20
492.993125
11
350.146091
21
492.509809
0
LINE
8
Calque 1
10
350.146091
20
492.509809
11
350.334850
21
492.065400
0
LINE
8
Calque 1
10
350.334850
20
492.065400
11
350.401884
21
491.817712
0
LINE
8
Calque 1
10
350.401884
20
491.817712
11
350.563050
21
491.714700
0
LINE
8
Calque 1
10
350.563050
20
491.714700
11
351.750005
21
490.948037
0
LINE
8
Calque 1
10
351.750005
20
490.948037
11
352.366439
21
490.388620
0
LINE
8
Calque 1
10
352.366439
20
490.388620
11
352.567090
21
490.066400
0
LINE
8
Calque 1
10
352.567090
20
490.066400
11
352.689980
21
489.832638
0
LINE
8
Calque 1
10
352.689980
20
489.832638
11
353.170860
21
489.456600
0
LINE
8
Calque 1
10
353.170860
20
489.456600
11
354.252450
21
488.494700
0
LINE
8
Calque 1
10
354.252450
20
488.494700
11
354.615597
21
488.184202
0
LINE
8
Calque 1
10
354.615597
20
488.184202
11
355.100880
21
488.035188
0
LINE
8
Calque 1
10
355.100880
20
488.035188
11
355.633503
21
488.057005
0
LINE
8
Calque 1
10
355.633503
20
488.057005
11
356.138670
21
488.259000
0
LINE
8
Calque 1
10
356.138670
20
488.259000
11
356.138700
21
488.259000
0
LINE
8
Calque 1
10
443.891100
20
493.975400
11
443.603450
21
494.321734
0
LINE
8
Calque 1
10
443.603450
20
494.321734
11
443.492835
21
494.675625
0
LINE
8
Calque 1
10
443.492835
20
494.675625
11
443.776140
21
495.835900
0
LINE
8
Calque 1
10
443.776140
20
495.835900
11
443.916438
21
496.459407
0
LINE
8
Calque 1
10
443.916438
20
496.459407
11
443.891353
21
497.046284
0
LINE
8
Calque 1
10
443.891353
20
497.046284
11
443.720238
21
497.574675
0
LINE
8
Calque 1
10
443.720238
20
497.574675
11
443.422445
21
498.022725
0
LINE
8
Calque 1
10
443.422445
20
498.022725
11
443.017327
21
498.368578
0
LINE
8
Calque 1
10
443.017327
20
498.368578
11
442.524237
21
498.590378
0
LINE
8
Calque 1
10
442.524237
20
498.590378
11
441.962527
21
498.666271
0
LINE
8
Calque 1
10
441.962527
20
498.666271
11
441.351550
21
498.574400
0
LINE
8
Calque 1
10
441.351550
20
498.574400
11
440.287557
21
498.378663
0
LINE
8
Calque 1
10
440.287557
20
498.378663
11
439.667610
21
498.728100
0
LINE
8
Calque 1
10
439.667610
20
498.728100
11
439.449310
21
499.135403
0
LINE
8
Calque 1
10
439.449310
20
499.135403
11
439.389652
21
499.732061
0
LINE
8
Calque 1
10
439.389652
20
499.732061
11
439.703089
21
501.356338
0
LINE
8
Calque 1
10
439.703089
20
501.356338
11
440.521574
21
503.326720
0
LINE
8
Calque 1
10
440.521574
20
503.326720
11
441.758760
21
505.369000
0
LINE
8
Calque 1
10
441.758760
20
505.369000
11
443.831476
21
507.786205
0
LINE
8
Calque 1
10
443.831476
20
507.786205
11
446.229830
21
509.848238
0
LINE
8
Calque 1
10
446.229830
20
509.848238
11
448.585569
21
511.284152
0
LINE
8
Calque 1
10
448.585569
20
511.284152
11
449.632379
21
511.682643
0
LINE
8
Calque 1
10
449.632379
20
511.682643
11
450.530440
21
511.823000
0
LINE
8
Calque 1
10
450.530440
20
511.823000
11
451.569901
21
511.689750
0
LINE
8
Calque 1
10
451.569901
20
511.689750
11
452.590330
21
511.314681
0
LINE
8
Calque 1
10
452.590330
20
511.314681
11
453.554958
21
510.734816
0
LINE
8
Calque 1
10
453.554958
20
510.734816
11
454.427017
21
509.987175
0
LINE
8
Calque 1
10
454.427017
20
509.987175
11
455.169741
21
509.108781
0
LINE
8
Calque 1
10
455.169741
20
509.108781
11
455.746359
21
508.136656
0
LINE
8
Calque 1
10
455.746359
20
508.136656
11
456.120105
21
507.107822
0
LINE
8
Calque 1
10
456.120105
20
507.107822
11
456.254210
21
506.059300
0
LINE
8
Calque 1
10
456.254210
20
506.059300
11
456.100610
21
505.059427
0
LINE
8
Calque 1
10
456.100610
20
505.059427
11
455.666125
21
503.844839
0
LINE
8
Calque 1
10
455.666125
20
503.844839
11
454.134876
21
501.049363
0
LINE
8
Calque 1
10
454.134876
20
501.049363
11
452.021225
21
498.228555
0
LINE
8
Calque 1
10
452.021225
20
498.228555
11
450.858735
21
496.982303
0
LINE
8
Calque 1
10
450.858735
20
496.982303
11
449.685930
21
495.938100
0
LINE
8
Calque 1
10
449.685930
20
495.938100
11
447.918569
21
494.753563
0
LINE
8
Calque 1
10
447.918569
20
494.753563
11
446.216895
21
493.981900
0
LINE
8
Calque 1
10
446.216895
20
493.981900
11
444.801031
21
493.697663
0
LINE
8
Calque 1
10
444.801031
20
493.697663
11
444.269066
21
493.761625
0
LINE
8
Calque 1
10
444.269066
20
493.761625
11
443.891100
21
493.975400
0
LINE
8
Calque 1
10
443.891100
20
493.975400
11
443.891100
21
493.975400
0
LINE
8
Calque 1
10
448.894240
20
498.155800
11
450.684904
21
499.991736
0
LINE
8
Calque 1
10
450.684904
20
499.991736
11
452.345334
21
502.251113
0
LINE
8
Calque 1
10
452.345334
20
502.251113
11
453.568706
21
504.458683
0
LINE
8
Calque 1
10
453.568706
20
504.458683
11
453.920614
21
505.394526
0
LINE
8
Calque 1
10
453.920614
20
505.394526
11
454.048200
21
506.139200
0
LINE
8
Calque 1
10
454.048200
20
506.139200
11
453.946496
21
506.808802
0
LINE
8
Calque 1
10
453.946496
20
506.808802
11
453.660547
21
507.474367
0
LINE
8
Calque 1
10
453.660547
20
507.474367
11
452.682404
21
508.664738
0
LINE
8
Calque 1
10
452.682404
20
508.664738
11
451.406741
21
509.453014
0
LINE
8
Calque 1
10
451.406741
20
509.453014
11
450.748893
21
509.615962
0
LINE
8
Calque 1
10
450.748893
20
509.615962
11
450.126530
21
509.581900
0
LINE
8
Calque 1
10
450.126530
20
509.581900
11
449.350576
21
509.286885
0
LINE
8
Calque 1
10
449.350576
20
509.286885
11
448.445102
21
508.766591
0
LINE
8
Calque 1
10
448.445102
20
508.766591
11
446.440285
21
507.221775
0
LINE
8
Calque 1
10
446.440285
20
507.221775
11
444.501468
21
505.290672
0
LINE
8
Calque 1
10
444.501468
20
505.290672
11
443.018040
21
503.316500
0
LINE
8
Calque 1
10
443.018040
20
503.316500
11
442.281471
21
502.044572
0
LINE
8
Calque 1
10
442.281471
20
502.044572
11
442.010104
21
501.350875
0
LINE
8
Calque 1
10
442.010104
20
501.350875
11
442.183972
21
501.027041
0
LINE
8
Calque 1
10
442.183972
20
501.027041
11
442.783110
21
500.864700
0
LINE
8
Calque 1
10
442.783110
20
500.864700
11
444.042197
21
500.349922
0
LINE
8
Calque 1
10
444.042197
20
500.349922
11
445.105137
21
499.404325
0
LINE
8
Calque 1
10
445.105137
20
499.404325
11
445.839800
21
498.186891
0
LINE
8
Calque 1
10
445.839800
20
498.186891
11
446.114050
21
496.856600
0
LINE
8
Calque 1
10
446.114050
20
496.856600
11
446.114000
21
496.161000
0
LINE
8
Calque 1
10
446.114000
20
496.161000
11
446.924750
21
496.674400
0
LINE
8
Calque 1
10
446.924750
20
496.674400
11
448.894190
21
498.156200
0
LINE
8
Calque 1
10
448.894190
20
498.156200
11
448.894240
21
498.155800
0
LINE
8
Calque 1
10
345.139240
20
514.167700
11
344.495439
21
514.822739
0
LINE
8
Calque 1
10
344.495439
20
514.822739
11
343.768061
21
515.884588
0
LINE
8
Calque 1
10
343.768061
20
515.884588
11
343.173180
21
516.997792
0
LINE
8
Calque 1
10
343.173180
20
516.997792
11
342.926870
21
517.806900
0
LINE
8
Calque 1
10
342.926870
20
517.806900
11
340.942500
21
520.041900
0
LINE
8
Calque 1
10
340.942500
20
520.041900
11
339.223462
21
521.986975
0
LINE
8
Calque 1
10
339.223462
20
521.986975
11
338.995612
21
522.619219
0
LINE
8
Calque 1
10
338.995612
20
522.619219
11
338.958120
21
523.417100
0
LINE
8
Calque 1
10
338.958120
20
523.417100
11
339.165586
21
525.184356
0
LINE
8
Calque 1
10
339.165586
20
525.184356
11
339.872026
21
526.747425
0
LINE
8
Calque 1
10
339.872026
20
526.747425
11
341.203503
21
528.298981
0
LINE
8
Calque 1
10
341.203503
20
528.298981
11
343.286080
21
530.031700
0
LINE
8
Calque 1
10
343.286080
20
530.031700
11
347.308220
21
533.416000
0
LINE
8
Calque 1
10
347.308220
20
533.416000
11
348.694299
21
534.603900
0
LINE
8
Calque 1
10
348.694299
20
534.603900
11
350.182816
21
535.557050
0
LINE
8
Calque 1
10
350.182816
20
535.557050
11
351.829923
21
536.305900
0
LINE
8
Calque 1
10
351.829923
20
536.305900
11
353.691770
21
536.880900
0
LINE
8
Calque 1
10
353.691770
20
536.880900
11
355.276042
21
537.153516
0
LINE
8
Calque 1
10
355.276042
20
537.153516
11
357.239492
21
537.301841
0
LINE
8
Calque 1
10
357.239492
20
537.301841
11
361.723017
21
537.258025
0
LINE
8
Calque 1
10
361.723017
20
537.258025
11
365.980519
21
536.814272
0
LINE
8
Calque 1
10
365.980519
20
536.814272
11
367.661440
21
536.462675
0
LINE
8
Calque 1
10
367.661440
20
536.462675
11
368.850170
21
536.035400
0
LINE
8
Calque 1
10
368.850170
20
536.035400
11
369.561206
21
535.468700
0
LINE
8
Calque 1
10
369.561206
20
535.468700
11
370.219570
21
534.649700
0
LINE
8
Calque 1
10
370.219570
20
534.649700
11
370.550364
21
534.027392
0
LINE
8
Calque 1
10
370.550364
20
534.027392
11
370.737805
21
533.330713
0
LINE
8
Calque 1
10
370.737805
20
533.330713
11
370.840420
21
530.714000
0
LINE
8
Calque 1
10
370.840420
20
530.714000
11
370.712515
21
527.931800
0
LINE
8
Calque 1
10
370.712515
20
527.931800
11
370.436078
21
527.044447
0
LINE
8
Calque 1
10
370.436078
20
527.044447
11
369.914380
21
525.961100
0
LINE
8
Calque 1
10
369.914380
20
525.961100
11
369.143569
21
524.670608
0
LINE
8
Calque 1
10
369.143569
20
524.670608
11
368.300691
21
523.734538
0
LINE
8
Calque 1
10
368.300691
20
523.734538
11
367.312090
21
523.089298
0
LINE
8
Calque 1
10
367.312090
20
523.089298
11
366.104110
21
522.671300
0
LINE
8
Calque 1
10
366.104110
20
522.671300
11
362.203950
21
521.517158
0
LINE
8
Calque 1
10
362.203950
20
521.517158
11
358.445417
21
519.963013
0
LINE
8
Calque 1
10
358.445417
20
519.963013
11
354.712532
21
517.953711
0
LINE
8
Calque 1
10
354.712532
20
517.953711
11
350.889310
21
515.434100
0
LINE
8
Calque 1
10
350.889310
20
515.434100
11
348.823875
21
514.113963
0
LINE
8
Calque 1
10
348.823875
20
514.113963
11
348.093162
21
513.854248
0
LINE
8
Calque 1
10
348.093162
20
513.854248
11
347.317430
21
513.744900
0
LINE
8
Calque 1
10
347.317430
20
513.744900
11
346.082884
21
513.781625
0
LINE
8
Calque 1
10
346.082884
20
513.781625
11
345.139270
21
514.167700
0
LINE
8
Calque 1
10
345.139270
20
514.167700
11
345.139240
21
514.167700
0
LINE
8
Calque 1
10
349.733720
20
517.282000
11
351.910370
21
518.774200
0
LINE
8
Calque 1
10
351.910370
20
518.774200
11
350.858200
21
520.095700
0
LINE
8
Calque 1
10
350.858200
20
520.095700
11
350.115111
21
521.130825
0
LINE
8
Calque 1
10
350.115111
20
521.130825
11
349.806040
21
521.763800
0
LINE
8
Calque 1
10
349.806040
20
521.763800
11
349.697897
21
522.151325
0
LINE
8
Calque 1
10
349.697897
20
522.151325
11
349.371310
21
522.260600
0
LINE
8
Calque 1
10
349.371310
20
522.260600
11
348.823046
21
522.091400
0
LINE
8
Calque 1
10
348.823046
20
522.091400
11
348.049870
21
521.643500
0
LINE
8
Calque 1
10
348.049870
20
521.643500
11
345.609750
21
520.385800
0
LINE
8
Calque 1
10
345.609750
20
520.385800
11
344.333646
21
519.850013
0
LINE
8
Calque 1
10
344.333646
20
519.850013
11
344.284113
21
519.668627
0
LINE
8
Calque 1
10
344.284113
20
519.668627
11
344.473130
21
519.413300
0
LINE
8
Calque 1
10
344.473130
20
519.413300
11
345.179260
21
517.898700
0
LINE
8
Calque 1
10
345.179260
20
517.898700
11
345.573068
21
516.970628
0
LINE
8
Calque 1
10
345.573068
20
516.970628
11
346.005715
21
516.312875
0
LINE
8
Calque 1
10
346.005715
20
516.312875
11
346.481014
21
515.921034
0
LINE
8
Calque 1
10
346.481014
20
515.921034
11
347.002780
21
515.790700
0
LINE
8
Calque 1
10
347.002780
20
515.790700
11
348.033641
21
516.228363
0
LINE
8
Calque 1
10
348.033641
20
516.228363
11
349.733720
21
517.282000
0
LINE
8
Calque 1
10
349.733720
20
517.282000
11
349.733720
21
517.282000
0
LINE
8
Calque 1
10
357.082080
20
521.630700
11
359.992500
21
523.088200
0
LINE
8
Calque 1
10
359.992500
20
523.088200
11
359.541060
21
524.400900
0
LINE
8
Calque 1
10
359.541060
20
524.400900
11
359.078040
21
526.441200
0
LINE
8
Calque 1
10
359.078040
20
526.441200
11
359.041310
21
526.942481
0
LINE
8
Calque 1
10
359.041310
20
526.942481
11
358.894525
21
527.120775
0
LINE
8
Calque 1
10
358.894525
20
527.120775
11
357.924320
21
526.537200
0
LINE
8
Calque 1
10
357.924320
20
526.537200
11
355.612600
21
525.182850
0
LINE
8
Calque 1
10
355.612600
20
525.182850
11
352.903590
21
524.130900
0
LINE
8
Calque 1
10
352.903590
20
524.130900
11
351.393540
21
523.565300
0
LINE
8
Calque 1
10
351.393540
20
523.565300
11
351.753853
21
522.708498
0
LINE
8
Calque 1
10
351.753853
20
522.708498
11
352.573964
21
521.501212
0
LINE
8
Calque 1
10
352.573964
20
521.501212
11
353.462630
21
520.458570
0
LINE
8
Calque 1
10
353.462630
20
520.458570
11
354.028610
21
520.095700
0
LINE
8
Calque 1
10
354.028610
20
520.095700
11
357.082080
21
521.630900
0
LINE
8
Calque 1
10
357.082080
20
521.630900
11
357.082080
21
521.630700
0
LINE
8
Calque 1
10
345.704980
20
522.822100
11
347.663230
21
523.958500
0
LINE
8
Calque 1
10
347.663230
20
523.958500
11
348.298560
21
524.453400
0
LINE
8
Calque 1
10
348.298560
20
524.453400
11
347.633620
21
525.348100
0
LINE
8
Calque 1
10
347.633620
20
525.348100
11
346.722005
21
527.026575
0
LINE
8
Calque 1
10
346.722005
20
527.026575
11
346.366440
21
528.663500
0
LINE
8
Calque 1
10
346.366440
20
528.663500
11
346.310427
21
529.114095
0
LINE
8
Calque 1
10
346.310427
20
529.114095
11
346.082575
21
529.237737
0
LINE
8
Calque 1
10
346.082575
20
529.237737
11
344.752490
21
528.458600
0
LINE
8
Calque 1
10
344.752490
20
528.458600
11
343.056372
21
527.132611
0
LINE
8
Calque 1
10
343.056372
20
527.132611
11
341.916764
21
525.935913
0
LINE
8
Calque 1
10
341.916764
20
525.935913
11
341.275589
21
524.792183
0
LINE
8
Calque 1
10
341.275589
20
524.792183
11
341.074770
21
523.625100
0
LINE
8
Calque 1
10
341.074770
20
523.625100
11
341.158329
21
523.002854
0
LINE
8
Calque 1
10
341.158329
20
523.002854
11
341.402599
21
522.526380
0
LINE
8
Calque 1
10
341.402599
20
522.526380
11
341.797970
21
522.197343
0
LINE
8
Calque 1
10
341.797970
20
522.197343
11
342.334831
21
522.017413
0
LINE
8
Calque 1
10
342.334831
20
522.017413
11
343.794585
21
522.111539
0
LINE
8
Calque 1
10
343.794585
20
522.111539
11
345.704980
21
522.822100
0
LINE
8
Calque 1
10
345.704980
20
522.822100
11
345.704980
21
522.822100
0
LINE
8
Calque 1
10
364.579080
20
524.507000
11
365.933418
21
524.921319
0
LINE
8
Calque 1
10
365.933418
20
524.921319
11
366.867505
21
525.401825
0
LINE
8
Calque 1
10
366.867505
20
525.401825
11
367.548759
21
526.067319
0
LINE
8
Calque 1
10
367.548759
20
526.067319
11
368.144600
21
527.036600
0
LINE
8
Calque 1
10
368.144600
20
527.036600
11
368.588085
21
528.586188
0
LINE
8
Calque 1
10
368.588085
20
528.586188
11
368.758409
21
530.626575
0
LINE
8
Calque 1
10
368.758409
20
530.626575
11
368.646529
21
532.544825
0
LINE
8
Calque 1
10
368.646529
20
532.544825
11
368.481936
21
533.266605
0
LINE
8
Calque 1
10
368.481936
20
533.266605
11
368.243400
21
533.728000
0
LINE
8
Calque 1
10
368.243400
20
533.728000
11
367.582432
21
534.212964
0
LINE
8
Calque 1
10
367.582432
20
534.212964
11
366.767599
21
534.447438
0
LINE
8
Calque 1
10
366.767599
20
534.447438
11
365.911206
21
534.417667
0
LINE
8
Calque 1
10
365.911206
20
534.417667
11
365.125560
21
534.109900
0
LINE
8
Calque 1
10
365.125560
20
534.109900
11
364.270297
21
533.361537
0
LINE
8
Calque 1
10
364.270297
20
533.361537
11
363.282795
21
532.197525
0
LINE
8
Calque 1
10
363.282795
20
532.197525
11
362.346607
21
530.856850
0
LINE
8
Calque 1
10
362.346607
20
530.856850
11
361.645290
21
529.578500
0
LINE
8
Calque 1
10
361.645290
20
529.578500
11
361.331321
21
528.489336
0
LINE
8
Calque 1
10
361.331321
20
528.489336
11
361.230991
21
527.209738
0
LINE
8
Calque 1
10
361.230991
20
527.209738
11
361.343535
21
525.900270
0
LINE
8
Calque 1
10
361.343535
20
525.900270
11
361.668190
21
524.721500
0
LINE
8
Calque 1
10
361.668190
20
524.721500
11
361.918359
21
524.233513
0
LINE
8
Calque 1
10
361.918359
20
524.233513
11
362.315777
21
524.047700
0
LINE
8
Calque 1
10
362.315777
20
524.047700
11
363.117120
21
524.145163
0
LINE
8
Calque 1
10
363.117120
20
524.145163
11
364.579060
21
524.507000
0
LINE
8
Calque 1
10
364.579060
20
524.507000
11
364.579080
21
524.507000
0
LINE
8
Calque 1
10
354.424180
20
527.022300
11
356.963300
21
528.517433
0
LINE
8
Calque 1
10
356.963300
20
528.517433
11
359.013410
21
530.274213
0
LINE
8
Calque 1
10
359.013410
20
530.274213
11
360.439175
21
532.151161
0
LINE
8
Calque 1
10
360.439175
20
532.151161
11
360.875636
21
533.090487
0
LINE
8
Calque 1
10
360.875636
20
533.090487
11
361.105260
21
534.006800
0
LINE
8
Calque 1
10
361.105260
20
534.006800
11
361.170319
21
534.620131
0
LINE
8
Calque 1
10
361.170319
20
534.620131
11
361.102769
21
534.956975
0
LINE
8
Calque 1
10
361.102769
20
534.956975
11
360.826177
21
535.130731
0
LINE
8
Calque 1
10
360.826177
20
535.130731
11
360.264110
21
535.254800
0
LINE
8
Calque 1
10
360.264110
20
535.254800
11
359.020477
21
535.337969
0
LINE
8
Calque 1
10
359.020477
20
535.337969
11
357.347965
21
535.254150
0
LINE
8
Calque 1
10
357.347965
20
535.254150
11
353.863710
21
534.687100
0
LINE
8
Calque 1
10
353.863710
20
534.687100
11
352.419146
21
534.236922
0
LINE
8
Calque 1
10
352.419146
20
534.236922
11
351.169631
21
533.689300
0
LINE
8
Calque 1
10
351.169631
20
533.689300
11
350.112869
21
533.043053
0
LINE
8
Calque 1
10
350.112869
20
533.043053
11
349.246560
21
532.297000
0
LINE
8
Calque 1
10
349.246560
20
532.297000
11
348.791487
21
531.781133
0
LINE
8
Calque 1
10
348.791487
20
531.781133
11
348.537455
21
531.310913
0
LINE
8
Calque 1
10
348.537455
20
531.310913
11
348.412210
21
529.865300
0
LINE
8
Calque 1
10
348.412210
20
529.865300
11
348.499077
21
528.812513
0
LINE
8
Calque 1
10
348.499077
20
528.812513
11
348.735290
21
527.829625
0
LINE
8
Calque 1
10
348.735290
20
527.829625
11
349.114865
21
526.934900
0
LINE
8
Calque 1
10
349.114865
20
526.934900
11
349.631820
21
526.146600
0
LINE
8
Calque 1
10
349.631820
20
526.146600
11
350.264767
21
525.893686
0
LINE
8
Calque 1
10
350.264767
20
525.893686
11
351.375804
21
525.973838
0
LINE
8
Calque 1
10
351.375804
20
525.973838
11
352.812939
21
526.359295
0
LINE
8
Calque 1
10
352.812939
20
526.359295
11
354.424180
21
527.022300
0
LINE
8
Calque 1
10
354.424180
20
527.022300
11
354.424180
21
527.022300
0
LINE
8
Calque 1
10
326.216380
20
542.977700
11
325.404090
21
544.124700
0
LINE
8
Calque 1
10
325.404090
20
544.124700
11
324.533017
21
544.854888
0
LINE
8
Calque 1
10
324.533017
20
544.854888
11
322.642500
21
545.690300
0
LINE
8
Calque 1
10
322.642500
20
545.690300
11
320.453094
21
546.715805
0
LINE
8
Calque 1
10
320.453094
20
546.715805
11
319.702252
21
547.271405
0
LINE
8
Calque 1
10
319.702252
20
547.271405
11
319.162244
21
547.882638
0
LINE
8
Calque 1
10
319.162244
20
547.882638
11
318.819264
21
548.569803
0
LINE
8
Calque 1
10
318.819264
20
548.569803
11
318.659506
21
549.353202
0
LINE
8
Calque 1
10
318.659506
20
549.353202
11
318.834440
21
551.289900
0
LINE
8
Calque 1
10
318.834440
20
551.289900
11
319.140706
21
552.410259
0
LINE
8
Calque 1
10
319.140706
20
552.410259
11
319.510386
21
553.225350
0
LINE
8
Calque 1
10
319.510386
20
553.225350
11
319.936213
21
553.723191
0
LINE
8
Calque 1
10
319.936213
20
553.723191
11
320.410920
21
553.891800
0
LINE
8
Calque 1
10
320.410920
20
553.891800
11
320.888679
21
553.784303
0
LINE
8
Calque 1
10
320.888679
20
553.784303
11
321.215067
21
553.457525
0
LINE
8
Calque 1
10
321.215067
20
553.457525
11
321.393785
21
552.905034
0
LINE
8
Calque 1
10
321.393785
20
552.905034
11
321.428530
21
552.120400
0
LINE
8
Calque 1
10
321.428530
20
552.120400
11
321.505981
21
551.222725
0
LINE
8
Calque 1
10
321.505981
20
551.222725
11
321.755190
21
550.590400
0
LINE
8
Calque 1
10
321.755190
20
550.590400
11
322.722147
21
549.945863
0
LINE
8
Calque 1
10
322.722147
20
549.945863
11
324.527530
21
549.022100
0
LINE
8
Calque 1
10
324.527530
20
549.022100
11
326.199369
21
548.149242
0
LINE
8
Calque 1
10
326.199369
20
548.149242
11
327.240640
21
547.321113
0
LINE
8
Calque 1
10
327.240640
20
547.321113
11
327.807363
21
546.364527
0
LINE
8
Calque 1
10
327.807363
20
546.364527
11
328.055560
21
545.106300
0
LINE
8
Calque 1
10
328.055560
20
545.106300
11
327.981630
21
543.774313
0
LINE
8
Calque 1
10
327.981630
20
543.774313
11
327.561441
21
542.872525
0
LINE
8
Calque 1
10
327.561441
20
542.872525
11
327.263226
21
542.631249
0
LINE
8
Calque 1
10
327.263226
20
542.631249
11
326.928517
21
542.555475
0
LINE
8
Calque 1
10
326.928517
20
542.555475
11
326.574005
21
542.664520
0
LINE
8
Calque 1
10
326.574005
20
542.664520
11
326.216380
21
542.977700
0
LINE
8
Calque 1
10
326.216380
20
542.977700
11
326.216380
21
542.977700
0
LINE
8
Calque 1
10
336.865180
20
544.205800
11
336.676640
21
544.996075
0
LINE
8
Calque 1
10
336.676640
20
544.996075
11
336.735000
21
546.676900
0
LINE
8
Calque 1
10
336.735000
20
546.676900
11
336.796495
21
548.457147
0
LINE
8
Calque 1
10
336.796495
20
548.457147
11
336.587539
21
549.711325
0
LINE
8
Calque 1
10
336.587539
20
549.711325
11
336.044448
21
550.622866
0
LINE
8
Calque 1
10
336.044448
20
550.622866
11
335.103540
21
551.375200
0
LINE
8
Calque 1
10
335.103540
20
551.375200
11
333.352341
21
552.785266
0
LINE
8
Calque 1
10
333.352341
20
552.785266
11
332.749527
21
553.562829
0
LINE
8
Calque 1
10
332.749527
20
553.562829
11
332.320522
21
554.409475
0
LINE
8
Calque 1
10
332.320522
20
554.409475
11
332.059292
21
555.340749
0
LINE
8
Calque 1
10
332.059292
20
555.340749
11
331.959801
21
556.372197
0
LINE
8
Calque 1
10
331.959801
20
556.372197
11
332.221890
21
558.797800
0
LINE
8
Calque 1
10
332.221890
20
558.797800
11
332.812488
21
560.921737
0
LINE
8
Calque 1
10
332.812488
20
560.921737
11
333.734052
21
563.280870
0
LINE
8
Calque 1
10
333.734052
20
563.280870
11
334.937353
21
565.792247
0
LINE
8
Calque 1
10
334.937353
20
565.792247
11
336.373162
21
568.372913
0
LINE
8
Calque 1
10
336.373162
20
568.372913
11
337.992250
21
570.939914
0
LINE
8
Calque 1
10
337.992250
20
570.939914
11
339.745387
21
573.410298
0
LINE
8
Calque 1
10
339.745387
20
573.410298
11
341.583343
21
575.701112
0
LINE
8
Calque 1
10
341.583343
20
575.701112
11
343.456890
21
577.729400
0
LINE
8
Calque 1
10
343.456890
20
577.729400
11
344.751780
21
578.963047
0
LINE
8
Calque 1
10
344.751780
20
578.963047
11
345.872536
21
579.752975
0
LINE
8
Calque 1
10
345.872536
20
579.752975
11
347.339652
21
580.385216
0
LINE
8
Calque 1
10
347.339652
20
580.385216
11
349.673620
21
581.145800
0
LINE
8
Calque 1
10
349.673620
20
581.145800
11
351.782590
21
581.974900
0
LINE
8
Calque 1
10
351.782590
20
581.974900
11
354.252310
21
583.154400
0
LINE
8
Calque 1
10
354.252310
20
583.154400
11
356.082925
21
584.068827
0
LINE
8
Calque 1
10
356.082925
20
584.068827
11
357.225414
21
584.489988
0
LINE
8
Calque 1
10
357.225414
20
584.489988
11
357.888936
21
584.463605
0
LINE
8
Calque 1
10
357.888936
20
584.463605
11
358.282650
21
584.035400
0
LINE
8
Calque 1
10
358.282650
20
584.035400
11
358.390044
21
583.432063
0
LINE
8
Calque 1
10
358.390044
20
583.432063
11
357.886000
21
582.646400
0
LINE
8
Calque 1
10
357.886000
20
582.646400
11
355.867788
21
579.795328
0
LINE
8
Calque 1
10
355.867788
20
579.795328
11
354.257909
21
576.503425
0
LINE
8
Calque 1
10
354.257909
20
576.503425
11
352.872158
21
572.310434
0
LINE
8
Calque 1
10
352.872158
20
572.310434
11
351.526330
21
566.756100
0
LINE
8
Calque 1
10
351.526330
20
566.756100
11
349.894610
21
560.273800
0
LINE
8
Calque 1
10
349.894610
20
560.273800
11
348.607141
21
556.988092
0
LINE
8
Calque 1
10
348.607141
20
556.988092
11
347.092200
21
554.222238
0
LINE
8
Calque 1
10
347.092200
20
554.222238
11
345.409162
21
552.067614
0
LINE
8
Calque 1
10
345.409162
20
552.067614
11
344.523161
21
551.248070
0
LINE
8
Calque 1
10
344.523161
20
551.248070
11
343.617400
21
550.615600
0
LINE
8
Calque 1
10
343.617400
20
550.615600
11
342.471118
21
549.783995
0
LINE
8
Calque 1
10
342.471118
20
549.783995
11
341.364484
21
548.665863
0
LINE
8
Calque 1
10
341.364484
20
548.665863
11
340.323255
21
547.291098
0
LINE
8
Calque 1
10
340.323255
20
547.291098
11
339.373190
21
545.689600
0
LINE
8
Calque 1
10
339.373190
20
545.689600
11
338.471647
21
544.207775
0
LINE
8
Calque 1
10
338.471647
20
544.207775
11
338.131429
21
543.918541
0
LINE
8
Calque 1
10
338.131429
20
543.918541
11
337.785340
21
543.837600
0
LINE
8
Calque 1
10
337.785340
20
543.837600
11
337.261494
21
543.945763
0
LINE
8
Calque 1
10
337.261494
20
543.945763
11
336.865140
21
544.205800
0
LINE
8
Calque 1
10
336.865140
20
544.205800
11
336.865180
21
544.205800
0
LINE
8
Calque 1
10
463.305180
20
502.781100
11
464.824270
21
504.079300
0
LINE
8
Calque 1
10
464.824270
20
504.079300
11
465.205334
21
504.426263
0
LINE
8
Calque 1
10
465.205334
20
504.426263
11
465.278770
21
504.708200
0
LINE
8
Calque 1
10
465.278770
20
504.708200
11
465.246770
21
504.874600
0
LINE
8
Calque 1
10
465.246770
20
504.874600
11
465.374370
21
504.943800
0
LINE
8
Calque 1
10
465.374370
20
504.943800
11
468.089330
21
507.325100
0
LINE
8
Calque 1
10
468.089330
20
507.325100
11
470.774090
21
509.706300
0
LINE
8
Calque 1
10
470.774090
20
509.706300
11
470.923164
21
509.822888
0
LINE
8
Calque 1
10
470.923164
20
509.822888
11
470.985170
21
510.103200
0
LINE
8
Calque 1
10
470.985170
20
510.103200
11
471.059320
21
510.383513
0
LINE
8
Calque 1
10
471.059320
20
510.383513
11
471.237600
21
510.500100
0
LINE
8
Calque 1
10
471.237600
20
510.500100
11
473.244020
21
512.219900
0
LINE
8
Calque 1
10
473.244020
20
512.219900
11
475.101410
21
513.939700
0
LINE
8
Calque 1
10
475.101410
20
513.939700
11
477.696770
21
516.387100
0
LINE
8
Calque 1
10
477.696770
20
516.387100
11
482.105450
21
520.554300
0
LINE
8
Calque 1
10
482.105450
20
520.554300
11
488.809730
21
526.768300
0
LINE
8
Calque 1
10
488.809730
20
526.768300
11
489.846346
21
527.675113
0
LINE
8
Calque 1
10
489.846346
20
527.675113
11
490.432040
21
528.003000
0
LINE
8
Calque 1
10
490.432040
20
528.003000
11
490.564507
21
527.997963
0
LINE
8
Calque 1
10
490.564507
20
527.997963
11
490.511440
21
528.103700
0
LINE
8
Calque 1
10
490.511440
20
528.103700
11
490.771275
21
528.601491
0
LINE
8
Calque 1
10
490.771275
20
528.601491
11
491.565540
21
529.491475
0
LINE
8
Calque 1
10
491.565540
20
529.491475
11
492.457822
21
530.327122
0
LINE
8
Calque 1
10
492.457822
20
530.327122
11
493.011710
21
530.661900
0
LINE
8
Calque 1
10
493.011710
20
530.661900
11
493.151857
21
530.745475
0
LINE
8
Calque 1
10
493.151857
20
530.745475
11
493.210150
21
531.020900
0
LINE
8
Calque 1
10
493.210150
20
531.020900
11
493.276897
21
531.270988
0
LINE
8
Calque 1
10
493.276897
20
531.270988
11
493.437380
21
531.293000
0
LINE
8
Calque 1
10
493.437380
20
531.293000
11
494.269470
21
531.841750
0
LINE
8
Calque 1
10
494.269470
20
531.841750
11
495.950920
21
533.358000
0
LINE
8
Calque 1
10
495.950920
20
533.358000
11
498.237230
21
535.427900
0
LINE
8
Calque 1
10
498.237230
20
535.427900
11
499.014500
21
536.059300
0
LINE
8
Calque 1
10
499.014500
20
536.059300
11
501.022920
21
537.884500
0
LINE
8
Calque 1
10
501.022920
20
537.884500
11
503.616540
21
540.199600
0
LINE
8
Calque 1
10
503.616540
20
540.199600
11
504.679124
21
541.087150
0
LINE
8
Calque 1
10
504.679124
20
541.087150
11
505.320590
21
541.456300
0
LINE
8
Calque 1
10
505.320590
20
541.456300
11
505.606396
21
541.572475
0
LINE
8
Calque 1
10
505.606396
20
541.572475
11
505.813880
21
541.851700
0
LINE
8
Calque 1
10
505.813880
20
541.851700
11
505.990589
21
542.087950
0
LINE
8
Calque 1
10
505.990589
20
542.087950
11
506.202450
21
542.100700
0
LINE
8
Calque 1
10
506.202450
20
542.100700
11
506.369735
21
542.116613
0
LINE
8
Calque 1
10
506.369735
20
542.116613
11
506.439310
21
542.360000
0
LINE
8
Calque 1
10
506.439310
20
542.360000
11
506.672475
21
542.767075
0
LINE
8
Calque 1
10
506.672475
20
542.767075
11
507.233060
21
543.176100
0
LINE
8
Calque 1
10
507.233060
20
543.176100
11
507.793649
21
543.536725
0
LINE
8
Calque 1
10
507.793649
20
543.536725
11
508.026810
21
543.827300
0
LINE
8
Calque 1
10
508.026810
20
543.827300
11
508.296884
21
544.094875
0
LINE
8
Calque 1
10
508.296884
20
544.094875
11
508.946210
21
544.400400
0
LINE
8
Calque 1
10
508.946210
20
544.400400
11
509.749280
21
544.849200
0
LINE
8
Calque 1
10
509.749280
20
544.849200
11
509.714912
21
545.121464
0
LINE
8
Calque 1
10
509.714912
20
545.121464
11
509.910696
21
545.465213
0
LINE
8
Calque 1
10
509.910696
20
545.465213
11
510.218930
21
545.736755
0
LINE
8
Calque 1
10
510.218930
20
545.736755
11
510.521910
21
545.792400
0
LINE
8
Calque 1
10
510.521910
20
545.792400
11
510.957200
21
545.918850
0
LINE
8
Calque 1
10
510.957200
20
545.918850
11
511.493680
21
546.463800
0
LINE
8
Calque 1
10
511.493680
20
546.463800
11
512.024969
21
547.038238
0
LINE
8
Calque 1
10
512.024969
20
547.038238
11
512.457820
21
547.277200
0
LINE
8
Calque 1
10
512.457820
20
547.277200
11
512.671412
21
547.346075
0
LINE
8
Calque 1
10
512.671412
20
547.346075
11
512.675620
21
547.511700
0
LINE
8
Calque 1
10
512.675620
20
547.511700
11
512.735650
21
547.719775
0
LINE
8
Calque 1
10
512.735650
20
547.719775
11
513.083500
21
547.890800
0
LINE
8
Calque 1
10
513.083500
20
547.890800
11
513.439461
21
548.082100
0
LINE
8
Calque 1
10
513.439461
20
548.082100
11
513.436510
21
548.358600
0
LINE
8
Calque 1
10
513.436510
20
548.358600
11
513.367127
21
548.544025
0
LINE
8
Calque 1
10
513.367127
20
548.544025
11
513.492010
21
548.524100
0
LINE
8
Calque 1
10
513.492010
20
548.524100
11
519.996547
21
554.737150
0
LINE
8
Calque 1
10
519.996547
20
554.737150
11
535.276610
21
569.896800
0
LINE
8
Calque 1
10
535.276610
20
569.896800
11
556.805910
21
591.427200
0
LINE
8
Calque 1
10
556.805910
20
591.427200
11
552.276830
21
596.141300
0
LINE
8
Calque 1
10
552.276830
20
596.141300
11
509.247530
21
639.338500
0
LINE
8
Calque 1
10
509.247530
20
639.338500
11
470.747330
21
677.821600
0
LINE
8
Calque 1
10
470.747330
20
677.821600
11
470.450320
21
677.041600
0
LINE
8
Calque 1
10
470.450320
20
677.041600
11
469.411487
21
674.021124
0
LINE
8
Calque 1
10
469.411487
20
674.021124
11
468.579877
21
670.971900
0
LINE
8
Calque 1
10
468.579877
20
670.971900
11
467.957826
21
667.917182
0
LINE
8
Calque 1
10
467.957826
20
667.917182
11
467.547670
21
664.880225
0
LINE
8
Calque 1
10
467.547670
20
664.880225
11
467.351746
21
661.884284
0
LINE
8
Calque 1
10
467.351746
20
661.884284
11
467.372390
21
658.952613
0
LINE
8
Calque 1
10
467.372390
20
658.952613
11
467.611939
21
656.108466
0
LINE
8
Calque 1
10
467.611939
20
656.108466
11
468.072730
21
653.375100
0
LINE
8
Calque 1
10
468.072730
20
653.375100
11
468.611340
21
650.861600
0
LINE
8
Calque 1
10
468.611340
20
650.861600
11
498.306540
21
621.162100
0
LINE
8
Calque 1
10
498.306540
20
621.162100
11
528.001840
21
591.462700
0
LINE
8
Calque 1
10
528.001840
20
591.462700
11
505.352240
21
568.774600
0
LINE
8
Calque 1
10
505.352240
20
568.774600
11
486.940227
21
550.191763
0
LINE
8
Calque 1
10
486.940227
20
550.191763
11
483.212901
21
546.238895
0
LINE
8
Calque 1
10
483.212901
20
546.238895
11
481.834040
21
544.499100
0
LINE
8
Calque 1
10
481.834040
20
544.499100
11
479.771777
21
541.308741
0
LINE
8
Calque 1
10
479.771777
20
541.308741
11
477.158431
21
538.273350
0
LINE
8
Calque 1
10
477.158431
20
538.273350
11
473.985265
21
535.383984
0
LINE
8
Calque 1
10
473.985265
20
535.383984
11
470.243540
21
532.631700
0
LINE
8
Calque 1
10
470.243540
20
532.631700
11
468.258996
21
531.239528
0
LINE
8
Calque 1
10
468.258996
20
531.239528
11
466.366661
21
529.681925
0
LINE
8
Calque 1
10
466.366661
20
529.681925
11
460.440970
21
523.922500
0
LINE
8
Calque 1
10
460.440970
20
523.922500
11
453.997880
21
517.453700
0
LINE
8
Calque 1
10
453.997880
20
517.453700
11
454.884720
21
516.831300
0
LINE
8
Calque 1
10
454.884720
20
516.831300
11
457.520296
21
514.545250
0
LINE
8
Calque 1
10
457.520296
20
514.545250
11
459.906160
21
511.902200
0
LINE
8
Calque 1
10
459.906160
20
511.902200
11
460.752207
21
510.615362
0
LINE
8
Calque 1
10
460.752207
20
510.615362
11
461.375360
21
509.325202
0
LINE
8
Calque 1
10
461.375360
20
509.325202
11
461.776226
21
508.019725
0
LINE
8
Calque 1
10
461.776226
20
508.019725
11
461.955416
21
506.686938
0
LINE
8
Calque 1
10
461.955416
20
506.686938
11
461.913539
21
505.314846
0
LINE
8
Calque 1
10
461.913539
20
505.314846
11
461.651202
21
503.891455
0
LINE
8
Calque 1
10
461.651202
20
503.891455
11
461.169016
21
502.404771
0
LINE
8
Calque 1
10
461.169016
20
502.404771
11
460.467590
21
500.842800
0
LINE
8
Calque 1
10
460.467590
20
500.842800
11
459.798670
21
499.519900
0
LINE
8
Calque 1
10
459.798670
20
499.519900
11
461.092410
21
500.697900
0
LINE
8
Calque 1
10
461.092410
20
500.697900
11
463.305080
21
502.781100
0
LINE
8
Calque 1
10
463.305080
20
502.781100
11
463.305180
21
502.781100
0
LINE
8
Calque 1
10
339.481180
20
503.271000
11
338.568202
21
504.458583
0
LINE
8
Calque 1
10
338.568202
20
504.458583
11
338.064774
21
505.700588
0
LINE
8
Calque 1
10
338.064774
20
505.700588
11
337.862281
21
507.458573
0
LINE
8
Calque 1
10
337.862281
20
507.458573
11
337.852110
21
510.194100
0
LINE
8
Calque 1
10
337.852110
20
510.194100
11
337.849987
21
512.935192
0
LINE
8
Calque 1
10
337.849987
20
512.935192
11
337.596254
21
514.602088
0
LINE
8
Calque 1
10
337.596254
20
514.602088
11
336.874211
21
515.839814
0
LINE
8
Calque 1
10
336.874211
20
515.839814
11
335.467160
21
517.293400
0
LINE
8
Calque 1
10
335.467160
20
517.293400
11
333.515758
21
518.994792
0
LINE
8
Calque 1
10
333.515758
20
518.994792
11
330.970176
21
520.956988
0
LINE
8
Calque 1
10
330.970176
20
520.956988
11
328.360584
21
522.789714
0
LINE
8
Calque 1
10
328.360584
20
522.789714
11
326.217150
21
524.102700
0
LINE
8
Calque 1
10
326.217150
20
524.102700
11
322.609662
21
526.253438
0
LINE
8
Calque 1
10
322.609662
20
526.253438
11
319.305100
21
528.874800
0
LINE
8
Calque 1
10
319.305100
20
528.874800
11
317.435666
21
530.627588
0
LINE
8
Calque 1
10
317.435666
20
530.627588
11
315.657845
21
532.523872
0
LINE
8
Calque 1
10
315.657845
20
532.523872
11
314.005771
21
534.513957
0
LINE
8
Calque 1
10
314.005771
20
534.513957
11
312.513574
21
536.548150
0
LINE
8
Calque 1
10
312.513574
20
536.548150
11
311.215386
21
538.576755
0
LINE
8
Calque 1
10
311.215386
20
538.576755
11
310.145340
21
540.550078
0
LINE
8
Calque 1
10
310.145340
20
540.550078
11
309.337567
21
542.418425
0
LINE
8
Calque 1
10
309.337567
20
542.418425
11
308.826200
21
544.132100
0
LINE
8
Calque 1
10
308.826200
20
544.132100
11
308.151135
21
549.138400
0
LINE
8
Calque 1
10
308.151135
20
549.138400
11
307.507180
21
555.965100
0
LINE
8
Calque 1
10
307.507180
20
555.965100
11
307.292740
21
558.964500
0
LINE
8
Calque 1
10
307.292740
20
558.964500
11
291.045240
21
575.213600
0
LINE
8
Calque 1
10
291.045240
20
575.213600
11
274.797740
21
591.462700
0
LINE
8
Calque 1
10
274.797740
20
591.462700
11
292.987040
21
609.653500
0
LINE
8
Calque 1
10
292.987040
20
609.653500
11
307.452465
21
624.254738
0
LINE
8
Calque 1
10
307.452465
20
624.254738
11
310.349587
21
627.353955
0
LINE
8
Calque 1
10
310.349587
20
627.353955
11
311.179240
21
628.505000
0
LINE
8
Calque 1
10
311.179240
20
628.505000
11
311.429366
21
630.007327
0
LINE
8
Calque 1
10
311.429366
20
630.007327
11
312.092445
21
631.902438
0
LINE
8
Calque 1
10
312.092445
20
631.902438
11
313.053282
21
633.913255
0
LINE
8
Calque 1
10
313.053282
20
633.913255
11
314.196680
21
635.762700
0
LINE
8
Calque 1
10
314.196680
20
635.762700
11
315.878853
21
637.763148
0
LINE
8
Calque 1
10
315.878853
20
637.763148
11
318.309335
21
640.195138
0
LINE
8
Calque 1
10
318.309335
20
640.195138
11
321.170999
21
642.759258
0
LINE
8
Calque 1
10
321.170999
20
642.759258
11
324.146720
21
645.156100
0
LINE
8
Calque 1
10
324.146720
20
645.156100
11
329.156343
21
649.046014
0
LINE
8
Calque 1
10
329.156343
20
649.046014
11
332.616137
21
652.017188
0
LINE
8
Calque 1
10
332.616137
20
652.017188
11
334.945423
21
654.461917
0
LINE
8
Calque 1
10
334.945423
20
654.461917
11
336.563520
21
656.772500
0
LINE
8
Calque 1
10
336.563520
20
656.772500
11
337.651027
21
658.865791
0
LINE
8
Calque 1
10
337.651027
20
658.865791
11
338.394729
21
660.913800
0
LINE
8
Calque 1
10
338.394729
20
660.913800
11
338.821351
21
663.011159
0
LINE
8
Calque 1
10
338.821351
20
663.011159
11
338.957620
21
665.252500
0
LINE
8
Calque 1
10
338.957620
20
665.252500
11
339.043270
21
667.508363
0
LINE
8
Calque 1
10
339.043270
20
667.508363
11
339.197414
21
667.952627
0
LINE
8
Calque 1
10
339.197414
20
667.952627
11
339.467620
21
668.181500
0
LINE
8
Calque 1
10
339.467620
20
668.181500
11
339.953633
21
668.267326
0
LINE
8
Calque 1
10
339.953633
20
668.267326
11
340.470305
21
668.047666
0
LINE
8
Calque 1
10
340.470305
20
668.047666
11
340.999367
21
667.552797
0
LINE
8
Calque 1
10
340.999367
20
667.552797
11
341.522551
21
666.813000
0
LINE
8
Calque 1
10
341.522551
20
666.813000
11
342.478214
21
664.719734
0
LINE
8
Calque 1
10
342.478214
20
664.719734
11
343.191150
21
662.010100
0
LINE
8
Calque 1
10
343.191150
20
662.010100
11
343.526800
21
660.194100
0
LINE
8
Calque 1
10
343.526800
20
660.194100
11
372.463000
21
689.129400
0
LINE
8
Calque 1
10
372.463000
20
689.129400
11
401.399200
21
718.064700
0
LINE
8
Calque 1
10
401.399200
20
718.064700
11
426.391600
21
693.073400
0
LINE
8
Calque 1
10
426.391600
20
693.073400
11
451.481100
21
668.203100
0
LINE
8
Calque 1
10
451.481100
20
668.203100
11
452.208500
21
669.382400
0
LINE
8
Calque 1
10
452.208500
20
669.382400
11
454.022084
21
672.084605
0
LINE
8
Calque 1
10
454.022084
20
672.084605
11
456.451884
21
675.228588
0
LINE
8
Calque 1
10
456.451884
20
675.228588
11
459.187734
21
678.433152
0
LINE
8
Calque 1
10
459.187734
20
678.433152
11
461.919470
21
681.317100
0
LINE
8
Calque 1
10
461.919470
20
681.317100
11
464.370100
21
683.970000
0
LINE
8
Calque 1
10
464.370100
20
683.970000
11
432.884600
21
715.684600
0
LINE
8
Calque 1
10
432.884600
20
715.684600
11
401.399100
21
747.169300
0
LINE
8
Calque 1
10
401.399100
20
747.169300
11
328.225300
21
674.012300
0
LINE
8
Calque 1
10
328.225300
20
674.012300
11
250.522300
21
596.141300
0
LINE
8
Calque 1
10
250.522300
20
596.141300
11
245.993160
21
591.427200
0
LINE
8
Calque 1
10
245.993160
20
591.427200
11
267.919260
21
569.499900
0
LINE
8
Calque 1
10
267.919260
20
569.499900
11
289.993660
21
547.640400
0
LINE
8
Calque 1
10
289.993660
20
547.640400
11
290.727800
21
547.095800
0
LINE
8
Calque 1
10
290.727800
20
547.095800
11
291.140250
21
546.483400
0
LINE
8
Calque 1
10
291.140250
20
546.483400
11
291.060105
21
546.449968
0
LINE
8
Calque 1
10
291.060105
20
546.449968
11
291.111999
21
546.361766
0
LINE
8
Calque 1
10
291.111999
20
546.361766
11
291.488796
21
546.093600
0
LINE
8
Calque 1
10
291.488796
20
546.093600
11
292.472660
21
545.698100
0
LINE
8
Calque 1
10
292.472660
20
545.698100
11
292.762661
21
545.616163
0
LINE
8
Calque 1
10
292.762661
20
545.616163
11
292.787770
21
545.425100
0
LINE
8
Calque 1
10
292.787770
20
545.425100
11
292.793466
21
545.238238
0
LINE
8
Calque 1
10
292.793466
20
545.238238
11
293.036740
21
545.160500
0
LINE
8
Calque 1
10
293.036740
20
545.160500
11
293.340327
21
544.995900
0
LINE
8
Calque 1
10
293.340327
20
544.995900
11
293.467830
21
544.565200
0
LINE
8
Calque 1
10
293.467830
20
544.565200
11
293.516127
21
544.129788
0
LINE
8
Calque 1
10
293.516127
20
544.129788
11
293.713810
21
544.499200
0
LINE
8
Calque 1
10
293.713810
20
544.499200
11
293.931737
21
544.792238
0
LINE
8
Calque 1
10
293.931737
20
544.792238
11
294.077620
21
544.124300
0
LINE
8
Calque 1
10
294.077620
20
544.124300
11
294.351550
21
543.661300
0
LINE
8
Calque 1
10
294.351550
20
543.661300
11
294.470749
21
543.596300
0
LINE
8
Calque 1
10
294.470749
20
543.596300
11
294.402050
21
543.771600
0
LINE
8
Calque 1
10
294.402050
20
543.771600
11
294.335693
21
544.094905
0
LINE
8
Calque 1
10
294.335693
20
544.094905
11
294.777169
21
543.875238
0
LINE
8
Calque 1
10
294.777169
20
543.875238
11
296.740300
21
542.117900
0
LINE
8
Calque 1
10
296.740300
20
542.117900
11
297.422367
21
541.487038
0
LINE
8
Calque 1
10
297.422367
20
541.487038
11
297.582613
21
541.385848
0
LINE
8
Calque 1
10
297.582613
20
541.385848
11
297.585360
21
541.456400
0
LINE
8
Calque 1
10
297.585360
20
541.456400
11
297.607087
21
541.523175
0
LINE
8
Calque 1
10
297.607087
20
541.523175
11
297.949560
21
541.125700
0
LINE
8
Calque 1
10
297.949560
20
541.125700
11
298.786700
21
540.398100
0
LINE
8
Calque 1
10
298.786700
20
540.398100
11
299.680149
21
539.819025
0
LINE
8
Calque 1
10
299.680149
20
539.819025
11
302.135660
21
537.553800
0
LINE
8
Calque 1
10
302.135660
20
537.553800
11
303.830310
21
536.164800
0
LINE
8
Calque 1
10
303.830310
20
536.164800
11
303.945966
21
536.085150
0
LINE
8
Calque 1
10
303.945966
20
536.085150
11
303.896210
21
535.893600
0
LINE
8
Calque 1
10
303.896210
20
535.893600
11
303.847160
21
535.723488
0
LINE
8
Calque 1
10
303.847160
20
535.723488
11
303.964610
21
535.695200
0
LINE
8
Calque 1
10
303.964610
20
535.695200
11
305.150295
21
534.931963
0
LINE
8
Calque 1
10
305.150295
20
534.931963
11
306.153190
21
533.920400
0
LINE
8
Calque 1
10
306.153190
20
533.920400
11
306.248190
21
533.849400
0
LINE
8
Calque 1
10
306.248190
20
533.849400
11
307.438520
21
532.791000
0
LINE
8
Calque 1
10
307.438520
20
532.791000
11
308.771150
21
531.666600
0
LINE
8
Calque 1
10
308.771150
20
531.666600
11
309.680400
21
530.872800
0
LINE
8
Calque 1
10
309.680400
20
530.872800
11
310.491330
21
530.079100
0
LINE
8
Calque 1
10
310.491330
20
530.079100
11
312.565080
21
528.160800
0
LINE
8
Calque 1
10
312.565080
20
528.160800
11
318.876050
21
522.273900
0
LINE
8
Calque 1
10
318.876050
20
522.273900
11
320.308400
21
520.815000
0
LINE
8
Calque 1
10
320.308400
20
520.815000
11
321.627250
21
519.536300
0
LINE
8
Calque 1
10
321.627250
20
519.536300
11
324.750510
21
516.695700
0
LINE
8
Calque 1
10
324.750510
20
516.695700
11
327.166770
21
514.468600
0
LINE
8
Calque 1
10
327.166770
20
514.468600
11
328.324510
21
513.392625
0
LINE
8
Calque 1
10
328.324510
20
513.392625
11
329.218460
21
512.226200
0
LINE
8
Calque 1
10
329.218460
20
512.226200
11
329.250010
21
512.128300
0
LINE
8
Calque 1
10
329.250010
20
512.128300
11
329.520660
21
512.087400
0
LINE
8
Calque 1
10
329.520660
20
512.087400
11
329.832094
21
512.012150
0
LINE
8
Calque 1
10
329.832094
20
512.012150
11
329.961630
21
511.831300
0
LINE
8
Calque 1
10
329.961630
20
511.831300
11
330.153337
21
511.549950
0
LINE
8
Calque 1
10
330.153337
20
511.549950
11
330.614250
21
511.233200
0
LINE
8
Calque 1
10
330.614250
20
511.233200
11
331.272061
21
510.724800
0
LINE
8
Calque 1
10
331.272061
20
510.724800
11
331.937170
21
509.982700
0
LINE
8
Calque 1
10
331.937170
20
509.982700
11
332.410562
21
509.409550
0
LINE
8
Calque 1
10
332.410562
20
509.409550
11
332.607460
21
509.307400
0
LINE
8
Calque 1
10
332.607460
20
509.307400
11
332.840625
21
509.248688
0
LINE
8
Calque 1
10
332.840625
20
509.248688
11
333.401210
21
508.780100
0
LINE
8
Calque 1
10
333.401210
20
508.780100
11
333.961799
21
508.136425
0
LINE
8
Calque 1
10
333.961799
20
508.136425
11
334.194960
21
507.656700
0
LINE
8
Calque 1
10
334.194960
20
507.656700
11
334.270140
21
507.446738
0
LINE
8
Calque 1
10
334.270140
20
507.446738
11
334.450890
21
507.451800
0
LINE
8
Calque 1
10
334.450890
20
507.451800
11
334.730600
21
507.405275
0
LINE
8
Calque 1
10
334.730600
20
507.405275
11
335.043700
21
507.070600
0
LINE
8
Calque 1
10
335.043700
20
507.070600
11
335.572700
21
506.531100
0
LINE
8
Calque 1
10
335.572700
20
506.531100
11
336.366397
21
505.902663
0
LINE
8
Calque 1
10
336.366397
20
505.902663
11
338.296000
21
503.919800
0
LINE
8
Calque 1
10
338.296000
20
503.919800
11
339.606181
21
502.578438
0
LINE
8
Calque 1
10
339.606181
20
502.578438
11
340.100940
21
502.297800
0
LINE
8
Calque 1
10
340.100940
20
502.297800
11
340.015445
21
502.583600
0
LINE
8
Calque 1
10
340.015445
20
502.583600
11
339.480940
21
503.270800
0
LINE
8
Calque 1
10
339.480940
20
503.270800
11
339.481180
21
503.271000
0
LINE
8
Calque 1
10
464.079180
20
560.625100
11
464.837904
21
561.163713
0
LINE
8
Calque 1
10
464.837904
20
561.163713
11
465.621040
21
561.920200
0
LINE
8
Calque 1
10
465.621040
20
561.920200
11
466.245365
21
562.805816
0
LINE
8
Calque 1
10
466.245365
20
562.805816
11
466.803770
21
563.878650
0
LINE
8
Calque 1
10
466.803770
20
563.878650
11
467.175928
21
564.871609
0
LINE
8
Calque 1
10
467.175928
20
564.871609
11
467.241510
21
565.517600
0
LINE
8
Calque 1
10
467.241510
20
565.517600
11
466.359484
21
564.903538
0
LINE
8
Calque 1
10
466.359484
20
564.903538
11
464.373450
21
563.023400
0
LINE
8
Calque 1
10
464.373450
20
563.023400
11
462.068379
21
560.598725
0
LINE
8
Calque 1
10
462.068379
20
560.598725
11
462.017558
21
560.288722
0
LINE
8
Calque 1
10
462.017558
20
560.288722
11
462.469540
21
560.241800
0
LINE
8
Calque 1
10
462.469540
20
560.241800
11
463.300550
21
560.354400
0
LINE
8
Calque 1
10
463.300550
20
560.354400
11
464.079180
21
560.625100
0
LINE
8
Calque 1
10
464.079180
20
560.625100
11
464.079180
21
560.625100
0
LINE
8
Calque 1
10
494.004980
20
580.536100
11
499.162156
21
585.762100
0
LINE
8
Calque 1
10
499.162156
20
585.762100
11
500.600901
21
587.244953
0
LINE
8
Calque 1
10
500.600901
20
587.244953
11
500.935258
21
587.601542
0
LINE
8
Calque 1
10
500.935258
20
587.601542
11
500.974820
21
587.662600
0
LINE
8
Calque 1
10
500.974820
20
587.662600
11
500.506122
21
587.385288
0
LINE
8
Calque 1
10
500.506122
20
587.385288
11
500.231600
21
587.476600
0
LINE
8
Calque 1
10
500.231600
20
587.476600
11
499.757880
21
587.758400
0
LINE
8
Calque 1
10
499.757880
20
587.758400
11
499.697210
21
587.644300
0
LINE
8
Calque 1
10
499.697210
20
587.644300
11
499.971940
21
587.370000
0
LINE
8
Calque 1
10
499.971940
20
587.370000
11
500.328601
21
587.042587
0
LINE
8
Calque 1
10
500.328601
20
587.042587
11
500.022540
21
586.973100
0
LINE
8
Calque 1
10
500.022540
20
586.973100
11
499.695532
21
586.886587
0
LINE
8
Calque 1
10
499.695532
20
586.886587
11
499.559520
21
586.684500
0
LINE
8
Calque 1
10
499.559520
20
586.684500
11
499.481512
21
586.534800
0
LINE
8
Calque 1
10
499.481512
20
586.534800
11
499.293960
21
586.568400
0
LINE
8
Calque 1
10
499.293960
20
586.568400
11
499.153985
21
586.873763
0
LINE
8
Calque 1
10
499.153985
20
586.873763
11
499.190350
21
587.377800
0
LINE
8
Calque 1
10
499.190350
20
587.377800
11
499.224552
21
587.878900
0
LINE
8
Calque 1
10
499.224552
20
587.878900
11
498.942360
21
588.023000
0
LINE
8
Calque 1
10
498.942360
20
588.023000
11
498.596636
21
587.932075
0
LINE
8
Calque 1
10
498.596636
20
587.932075
11
498.341100
21
587.713500
0
LINE
8
Calque 1
10
498.341100
20
587.713500
11
498.301524
21
587.522225
0
LINE
8
Calque 1
10
498.301524
20
587.522225
11
498.554890
21
587.559400
0
LINE
8
Calque 1
10
498.554890
20
587.559400
11
498.830457
21
587.572075
0
LINE
8
Calque 1
10
498.830457
20
587.572075
11
498.673140
21
587.107000
0
LINE
8
Calque 1
10
498.673140
20
587.107000
11
498.391345
21
586.737436
0
LINE
8
Calque 1
10
498.391345
20
586.737436
11
498.045109
21
586.574713
0
LINE
8
Calque 1
10
498.045109
20
586.574713
11
497.719788
21
586.632208
0
LINE
8
Calque 1
10
497.719788
20
586.632208
11
497.500740
21
586.923300
0
LINE
8
Calque 1
10
497.500740
20
586.923300
11
497.344845
21
587.090363
0
LINE
8
Calque 1
10
497.344845
20
587.090363
11
497.114790
21
587.057700
0
LINE
8
Calque 1
10
497.114790
20
587.057700
11
496.962401
21
587.019612
0
LINE
8
Calque 1
10
496.962401
20
587.019612
11
497.045490
21
587.228500
0
LINE
8
Calque 1
10
497.045490
20
587.228500
11
497.279882
21
587.416525
0
LINE
8
Calque 1
10
497.279882
20
587.416525
11
497.575550
21
587.141500
0
LINE
8
Calque 1
10
497.575550
20
587.141500
11
497.849689
21
586.886363
0
LINE
8
Calque 1
10
497.849689
20
586.886363
11
498.064330
21
586.880900
0
LINE
8
Calque 1
10
498.064330
20
586.880900
11
498.216190
21
587.281117
0
LINE
8
Calque 1
10
498.216190
20
587.281117
11
497.879939
21
587.526488
0
LINE
8
Calque 1
10
497.879939
20
587.526488
11
497.245689
21
587.561989
0
LINE
8
Calque 1
10
497.245689
20
587.561989
11
496.503550
21
587.332600
0
LINE
8
Calque 1
10
496.503550
20
587.332600
11
495.582609
21
586.979563
0
LINE
8
Calque 1
10
495.582609
20
586.979563
11
495.407644
21
587.027880
0
LINE
8
Calque 1
10
495.407644
20
587.027880
11
495.458490
21
587.229600
0
LINE
8
Calque 1
10
495.458490
20
587.229600
11
495.452794
21
587.416413
0
LINE
8
Calque 1
10
495.452794
20
587.416413
11
495.209520
21
587.494100
0
LINE
8
Calque 1
10
495.209520
20
587.494100
11
494.918199
21
587.429425
0
LINE
8
Calque 1
10
494.918199
20
587.429425
11
494.797030
21
587.273700
0
LINE
8
Calque 1
10
494.797030
20
587.273700
11
494.680445
21
587.117963
0
LINE
8
Calque 1
10
494.680445
20
587.117963
11
494.400150
21
587.053200
0
LINE
8
Calque 1
10
494.400150
20
587.053200
11
494.119860
21
587.127488
0
LINE
8
Calque 1
10
494.119860
20
587.127488
11
494.003280
21
587.306100
0
LINE
8
Calque 1
10
494.003280
20
587.306100
11
493.880611
21
587.382850
0
LINE
8
Calque 1
10
493.880611
20
587.382850
11
493.585690
21
587.212100
0
LINE
8
Calque 1
10
493.585690
20
587.212100
11
493.041227
21
586.935892
0
LINE
8
Calque 1
10
493.041227
20
586.935892
11
492.416005
21
586.827037
0
LINE
8
Calque 1
10
492.416005
20
586.827037
11
491.931521
21
586.893964
0
LINE
8
Calque 1
10
491.931521
20
586.893964
11
491.809270
21
587.145100
0
LINE
8
Calque 1
10
491.809270
20
587.145100
11
491.985961
21
587.386320
0
LINE
8
Calque 1
10
491.985961
20
587.386320
11
492.246797
21
587.481487
0
LINE
8
Calque 1
10
492.246797
20
587.481487
11
492.847930
21
587.221100
0
LINE
8
Calque 1
10
492.847930
20
587.221100
11
493.055186
21
587.112050
0
LINE
8
Calque 1
10
493.055186
20
587.112050
11
493.121330
21
587.353400
0
LINE
8
Calque 1
10
493.121330
20
587.353400
11
493.005930
21
587.643700
0
LINE
8
Calque 1
10
493.005930
20
587.643700
11
492.241160
21
587.775200
0
LINE
8
Calque 1
10
492.241160
20
587.775200
11
491.798147
21
587.892400
0
LINE
8
Calque 1
10
491.798147
20
587.892400
11
491.754810
21
587.758200
0
LINE
8
Calque 1
10
491.754810
20
587.758200
11
491.787639
21
587.571975
0
LINE
8
Calque 1
10
491.787639
20
587.571975
11
491.637640
21
587.494500
0
LINE
8
Calque 1
10
491.637640
20
587.494500
11
491.439364
21
587.591637
0
LINE
8
Calque 1
10
491.439364
20
587.591637
11
491.356130
21
587.825200
0
LINE
8
Calque 1
10
491.356130
20
587.825200
11
491.155634
21
587.825412
0
LINE
8
Calque 1
10
491.155634
20
587.825412
11
490.675530
21
587.362200
0
LINE
8
Calque 1
10
490.675530
20
587.362200
11
490.235145
21
586.883025
0
LINE
8
Calque 1
10
490.235145
20
586.883025
11
490.130220
21
586.845600
0
LINE
8
Calque 1
10
490.130220
20
586.845600
11
490.047920
21
587.472700
0
LINE
8
Calque 1
10
490.047920
20
587.472700
11
489.819709
21
587.439152
0
LINE
8
Calque 1
10
489.819709
20
587.439152
11
489.490787
21
586.848873
0
LINE
8
Calque 1
10
489.490787
20
586.848873
11
488.633311
21
584.348012
0
LINE
8
Calque 1
10
488.633311
20
584.348012
11
487.680505
21
580.669895
0
LINE
8
Calque 1
10
487.680505
20
580.669895
11
486.837380
21
576.514300
0
LINE
8
Calque 1
10
486.837380
20
576.514300
11
486.381601
21
573.669537
0
LINE
8
Calque 1
10
486.381601
20
573.669537
11
486.398210
21
572.942400
0
LINE
8
Calque 1
10
486.398210
20
572.942400
11
494.004980
21
580.536700
0
LINE
8
Calque 1
10
494.004980
20
580.536700
11
494.004980
21
580.536100
0
LINE
8
Calque 1
10
307.850980
20
585.112600
11
307.924530
21
586.740238
0
LINE
8
Calque 1
10
307.924530
20
586.740238
11
307.871061
21
587.017323
0
LINE
8
Calque 1
10
307.871061
20
587.017323
11
307.755980
21
586.964700
0
LINE
8
Calque 1
10
307.755980
20
586.964700
11
307.520272
21
586.700100
0
LINE
8
Calque 1
10
307.520272
20
586.700100
11
307.444810
21
586.964700
0
LINE
8
Calque 1
10
307.444810
20
586.964700
11
307.451810
21
587.758400
0
LINE
8
Calque 1
10
307.451810
20
587.758400
11
307.441601
21
588.018362
0
LINE
8
Calque 1
10
307.441601
20
588.018362
11
307.236040
21
587.771400
0
LINE
8
Calque 1
10
307.236040
20
587.771400
11
307.097030
21
587.194300
0
LINE
8
Calque 1
10
307.097030
20
587.194300
11
307.102124
21
587.009325
0
LINE
8
Calque 1
10
307.102124
20
587.009325
11
306.947280
21
586.835300
0
LINE
8
Calque 1
10
306.947280
20
586.835300
11
306.747621
21
586.894950
0
LINE
8
Calque 1
10
306.747621
20
586.894950
11
306.647690
21
587.280100
0
LINE
8
Calque 1
10
306.647690
20
587.280100
11
306.596850
21
587.652225
0
LINE
8
Calque 1
10
306.596850
20
587.652225
11
306.495370
21
587.424800
0
LINE
8
Calque 1
10
306.495370
20
587.424800
11
306.343229
21
587.136400
0
LINE
8
Calque 1
10
306.343229
20
587.136400
11
306.148240
21
587.097900
0
LINE
8
Calque 1
10
306.148240
20
587.097900
11
305.940537
21
587.044000
0
LINE
8
Calque 1
10
305.940537
20
587.044000
11
305.757840
21
586.717700
0
LINE
8
Calque 1
10
305.757840
20
586.717700
11
305.533407
21
586.379925
0
LINE
8
Calque 1
10
305.533407
20
586.379925
11
305.209630
21
586.345300
0
LINE
8
Calque 1
10
305.209630
20
586.345300
11
304.911767
21
586.530655
0
LINE
8
Calque 1
10
304.911767
20
586.530655
11
304.835041
21
586.717987
0
LINE
8
Calque 1
10
304.835041
20
586.717987
11
304.965535
21
586.829852
0
LINE
8
Calque 1
10
304.965535
20
586.829852
11
305.289330
21
586.788800
0
LINE
8
Calque 1
10
305.289330
20
586.788800
11
305.558435
21
586.743262
0
LINE
8
Calque 1
10
305.558435
20
586.743262
11
305.223130
21
587.053300
0
LINE
8
Calque 1
10
305.223130
20
587.053300
11
304.941956
21
587.357437
0
LINE
8
Calque 1
10
304.941956
20
587.357437
11
305.024690
21
587.485700
0
LINE
8
Calque 1
10
305.024690
20
587.485700
11
305.258267
21
587.576575
0
LINE
8
Calque 1
10
305.258267
20
587.576575
11
305.355420
21
587.789100
0
LINE
8
Calque 1
10
305.355420
20
587.789100
11
305.181204
21
587.890650
0
LINE
8
Calque 1
10
305.181204
20
587.890650
11
304.707760
21
587.659800
0
LINE
8
Calque 1
10
304.707760
20
587.659800
11
304.204322
21
587.429863
0
LINE
8
Calque 1
10
304.204322
20
587.429863
11
303.908800
21
587.480200
0
LINE
8
Calque 1
10
303.908800
20
587.480200
11
303.641190
21
587.641025
0
LINE
8
Calque 1
10
303.641190
20
587.641025
11
303.210230
21
587.683800
0
LINE
8
Calque 1
10
303.210230
20
587.683800
11
302.807881
21
587.587513
0
LINE
8
Calque 1
10
302.807881
20
587.587513
11
303.244730
21
587.171500
0
LINE
8
Calque 1
10
303.244730
20
587.171500
11
303.579891
21
586.838788
0
LINE
8
Calque 1
10
303.579891
20
586.838788
11
303.568710
21
586.700400
0
LINE
8
Calque 1
10
303.568710
20
586.700400
11
302.634590
21
587.376700
0
LINE
8
Calque 1
10
302.634590
20
587.376700
11
302.131184
21
587.795375
0
LINE
8
Calque 1
10
302.131184
20
587.795375
11
302.030424
21
587.783781
0
LINE
8
Calque 1
10
302.030424
20
587.783781
11
302.020530
21
587.628900
0
LINE
8
Calque 1
10
302.020530
20
587.628900
11
302.834959
21
586.555950
0
LINE
8
Calque 1
10
302.834959
20
586.555950
11
304.705680
21
584.571900
0
LINE
8
Calque 1
10
304.705680
20
584.571900
11
306.414511
21
582.894414
0
LINE
8
Calque 1
10
306.414511
20
582.894414
11
306.935505
21
582.491169
0
LINE
8
Calque 1
10
306.935505
20
582.491169
11
307.289041
21
582.387688
0
LINE
8
Calque 1
10
307.289041
20
582.387688
11
307.516239
21
582.591046
0
LINE
8
Calque 1
10
307.516239
20
582.591046
11
307.658216
21
583.108317
0
LINE
8
Calque 1
10
307.658216
20
583.108317
11
307.850980
21
585.112900
0
LINE
8
Calque 1
10
307.850980
20
585.112900
11
307.850980
21
585.112600
0
LINE
8
Calque 1
10
302.541930
20
592.571900
11
302.855529
21
592.608588
0
LINE
8
Calque 1
10
302.855529
20
592.608588
11
303.213250
21
592.439700
0
LINE
8
Calque 1
10
303.213250
20
592.439700
11
303.494496
21
592.273937
0
LINE
8
Calque 1
10
303.494496
20
592.273937
11
303.426520
21
592.593200
0
LINE
8
Calque 1
10
303.426520
20
592.593200
11
303.377057
21
592.926850
0
LINE
8
Calque 1
10
303.377057
20
592.926850
11
303.773860
21
592.782300
0
LINE
8
Calque 1
10
303.773860
20
592.782300
11
304.297070
21
592.247000
0
LINE
8
Calque 1
10
304.297070
20
592.247000
11
304.410662
21
592.040572
0
LINE
8
Calque 1
10
304.410662
20
592.040572
11
304.688134
21
592.003700
0
LINE
8
Calque 1
10
304.688134
20
592.003700
11
305.034529
21
592.123728
0
LINE
8
Calque 1
10
305.034529
20
592.123728
11
305.354890
21
592.388000
0
LINE
8
Calque 1
10
305.354890
20
592.388000
11
305.726701
21
592.612541
0
LINE
8
Calque 1
10
305.726701
20
592.612541
11
306.250084
21
592.666250
0
LINE
8
Calque 1
10
306.250084
20
592.666250
11
306.813507
21
592.555034
0
LINE
8
Calque 1
10
306.813507
20
592.555034
11
307.305440
21
592.284800
0
LINE
8
Calque 1
10
307.305440
20
592.284800
11
307.638412
21
592.159463
0
LINE
8
Calque 1
10
307.638412
20
592.159463
11
307.997470
21
592.253800
0
LINE
8
Calque 1
10
307.997470
20
592.253800
11
308.582790
21
592.356100
0
LINE
8
Calque 1
10
308.582790
20
592.356100
11
308.786656
21
592.403652
0
LINE
8
Calque 1
10
308.786656
20
592.403652
11
309.057621
21
592.913063
0
LINE
8
Calque 1
10
309.057621
20
592.913063
11
310.108130
21
596.064500
0
LINE
8
Calque 1
10
310.108130
20
596.064500
11
311.297039
21
599.242750
0
LINE
8
Calque 1
10
311.297039
20
599.242750
11
313.008720
21
603.208200
0
LINE
8
Calque 1
10
313.008720
20
603.208200
11
315.276810
21
608.395700
0
LINE
8
Calque 1
10
315.276810
20
608.395700
11
314.729797
21
608.037140
0
LINE
8
Calque 1
10
314.729797
20
608.037140
11
313.148907
21
606.608587
0
LINE
8
Calque 1
10
313.148907
20
606.608587
11
308.194712
21
601.831225
0
LINE
8
Calque 1
10
308.194712
20
601.831225
11
303.032667
21
596.643050
0
LINE
8
Calque 1
10
303.032667
20
596.643050
11
300.281210
21
593.623500
0
LINE
8
Calque 1
10
300.281210
20
593.623500
11
299.879897
21
592.810788
0
LINE
8
Calque 1
10
299.879897
20
592.810788
11
299.939536
21
592.569108
0
LINE
8
Calque 1
10
299.939536
20
592.569108
11
300.161070
21
592.310000
0
LINE
8
Calque 1
10
300.161070
20
592.310000
11
300.526795
21
592.021475
0
LINE
8
Calque 1
10
300.526795
20
592.021475
11
300.592940
21
592.382000
0
LINE
8
Calque 1
10
300.592940
20
592.382000
11
300.648827
21
592.749525
0
LINE
8
Calque 1
10
300.648827
20
592.749525
11
301.009440
21
592.372000
0
LINE
8
Calque 1
10
301.009440
20
592.372000
11
301.254377
21
592.106400
0
LINE
8
Calque 1
10
301.254377
20
592.106400
11
301.258400
21
592.189100
0
LINE
8
Calque 1
10
301.258400
20
592.189100
11
301.252759
21
592.427500
0
LINE
8
Calque 1
10
301.252759
20
592.427500
11
301.503370
21
592.519800
0
LINE
8
Calque 1
10
301.503370
20
592.519800
11
301.800827
21
592.383812
0
LINE
8
Calque 1
10
301.800827
20
592.383812
11
301.936750
21
592.056800
0
LINE
8
Calque 1
10
301.936750
20
592.056800
11
301.983820
21
591.766888
0
LINE
8
Calque 1
10
301.983820
20
591.766888
11
302.108710
21
591.990800
0
LINE
8
Calque 1
10
302.108710
20
591.990800
11
302.541970
21
592.570900
0
LINE
8
Calque 1
10
302.541970
20
592.570900
11
302.541930
21
592.571900
0
LINE
8
Calque 1
10
306.016860
20
592.256300
11
306.050012
21
592.443200
0
LINE
8
Calque 1
10
306.050012
20
592.443200
11
305.900180
21
592.520900
0
LINE
8
Calque 1
10
305.900180
20
592.520900
11
305.702289
21
592.443200
0
LINE
8
Calque 1
10
305.702289
20
592.443200
11
305.619980
21
592.256300
0
LINE
8
Calque 1
10
305.619980
20
592.256300
11
305.736660
21
591.991800
0
LINE
8
Calque 1
10
305.736660
20
591.991800
11
306.016860
21
592.256300
0
LINE
8
Calque 1
10
306.016860
20
592.256300
11
306.016860
21
592.256300
0
LINE
8
Calque 1
10
495.656860
20
592.690000
11
495.983867
21
592.655188
0
LINE
8
Calque 1
10
495.983867
20
592.655188
11
496.119880
21
592.519500
0
LINE
8
Calque 1
10
496.119880
20
592.519500
11
496.294754
21
592.373888
0
LINE
8
Calque 1
10
496.294754
20
592.373888
11
496.715200
21
592.314600
0
LINE
8
Calque 1
10
496.715200
20
592.314600
11
498.081300
21
592.141300
0
LINE
8
Calque 1
10
498.081300
20
592.141300
11
498.653310
21
592.067713
0
LINE
8
Calque 1
10
498.653310
20
592.067713
11
498.534660
21
592.348200
0
LINE
8
Calque 1
10
498.534660
20
592.348200
11
498.399652
21
592.650938
0
LINE
8
Calque 1
10
498.399652
20
592.650938
11
498.862950
21
592.692000
0
LINE
8
Calque 1
10
498.862950
20
592.692000
11
499.286334
21
592.611838
0
LINE
8
Calque 1
10
499.286334
20
592.611838
11
499.397470
21
592.473100
0
LINE
8
Calque 1
10
499.397470
20
592.473100
11
499.555150
21
592.126700
0
LINE
8
Calque 1
10
499.555150
20
592.126700
11
499.745116
21
592.072325
0
LINE
8
Calque 1
10
499.745116
20
592.072325
11
499.824240
21
592.174700
0
LINE
8
Calque 1
10
499.824240
20
592.174700
11
500.051962
21
592.363938
0
LINE
8
Calque 1
10
500.051962
20
592.363938
11
500.584350
21
592.424850
0
LINE
8
Calque 1
10
500.584350
20
592.424850
11
501.195817
21
592.358188
0
LINE
8
Calque 1
10
501.195817
20
592.358188
11
501.660780
21
592.164700
0
LINE
8
Calque 1
10
501.660780
20
592.164700
11
501.920616
21
591.990525
0
LINE
8
Calque 1
10
501.920616
20
591.990525
11
501.854900
21
592.174700
0
LINE
8
Calque 1
10
501.854900
20
592.174700
11
501.801536
21
592.444200
0
LINE
8
Calque 1
10
501.801536
20
592.444200
11
501.936400
21
592.653400
0
LINE
8
Calque 1
10
501.936400
20
592.653400
11
502.126312
21
592.688263
0
LINE
8
Calque 1
10
502.126312
20
592.688263
11
502.205300
21
592.539300
0
LINE
8
Calque 1
10
502.205300
20
592.539300
11
502.321881
21
592.341413
0
LINE
8
Calque 1
10
502.321881
20
592.341413
11
502.602180
21
592.259100
0
LINE
8
Calque 1
10
502.602180
20
592.259100
11
502.918705
21
592.341817
0
LINE
8
Calque 1
10
502.918705
20
592.341817
11
503.009743
21
592.591850
0
LINE
8
Calque 1
10
503.009743
20
592.591850
11
502.507365
21
593.605150
0
LINE
8
Calque 1
10
502.507365
20
593.605150
11
501.079059
21
595.321575
0
LINE
8
Calque 1
10
501.079059
20
595.321575
11
498.708840
21
597.763700
0
LINE
8
Calque 1
10
498.708840
20
597.763700
11
495.949470
21
600.490200
0
LINE
8
Calque 1
10
495.949470
20
600.490200
11
494.927070
21
598.954400
0
LINE
8
Calque 1
10
494.927070
20
598.954400
11
492.689362
21
595.029975
0
LINE
8
Calque 1
10
492.689362
20
595.029975
11
492.001322
21
593.458072
0
LINE
8
Calque 1
10
492.001322
20
593.458072
11
491.870370
21
592.698700
0
LINE
8
Calque 1
10
491.870370
20
592.698700
11
492.300739
21
592.497369
0
LINE
8
Calque 1
10
492.300739
20
592.497369
11
492.921042
21
592.389825
0
LINE
8
Calque 1
10
492.921042
20
592.389825
11
493.445477
21
592.400294
0
LINE
8
Calque 1
10
493.445477
20
592.400294
11
493.588240
21
592.553000
0
LINE
8
Calque 1
10
493.588240
20
592.553000
11
493.676970
21
592.700988
0
LINE
8
Calque 1
10
493.676970
20
592.700988
11
494.091470
21
592.731300
0
LINE
8
Calque 1
10
494.091470
20
592.731300
11
494.552421
21
592.592525
0
LINE
8
Calque 1
10
494.552421
20
592.592525
11
494.613570
21
592.270000
0
LINE
8
Calque 1
10
494.613570
20
592.270000
11
494.569057
21
591.997050
0
LINE
8
Calque 1
10
494.569057
20
591.997050
11
494.841510
21
592.259000
0
LINE
8
Calque 1
10
494.841510
20
592.259000
11
495.226355
21
592.550138
0
LINE
8
Calque 1
10
495.226355
20
592.550138
11
495.656860
21
592.692700
0
LINE
8
Calque 1
10
495.656860
20
592.692700
11
495.656860
21
592.690000
0
LINE
8
Calque 1
10
487.321730
20
599.233800
11
490.563630
21
601.648300
0
LINE
8
Calque 1
10
490.563630
20
601.648300
11
492.880040
21
603.339800
0
LINE
8
Calque 1
10
492.880040
20
603.339800
11
490.479240
21
605.967000
0
LINE
8
Calque 1
10
490.479240
20
605.967000
11
488.010990
21
608.425000
0
LINE
8
Calque 1
10
488.010990
20
608.425000
11
487.453290
21
606.165900
0
LINE
8
Calque 1
10
487.453290
20
606.165900
11
486.773476
21
603.904700
0
LINE
8
Calque 1
10
486.773476
20
603.904700
11
485.922190
21
601.640500
0
LINE
8
Calque 1
10
485.922190
20
601.640500
11
485.149514
21
599.618050
0
LINE
8
Calque 1
10
485.149514
20
599.618050
11
485.173858
21
599.195706
0
LINE
8
Calque 1
10
485.173858
20
599.195706
11
485.415970
21
598.858000
0
LINE
8
Calque 1
10
485.415970
20
598.858000
11
485.813835
21
598.480261
0
LINE
8
Calque 1
10
485.813835
20
598.480261
11
486.168664
21
598.398163
0
LINE
8
Calque 1
10
486.168664
20
598.398163
11
486.623586
21
598.639933
0
LINE
8
Calque 1
10
486.623586
20
598.639933
11
487.321730
21
599.233800
0
LINE
8
Calque 1
10
487.321730
20
599.233800
11
487.321730
21
599.233800
0
LINE
8
Calque 1
10
339.431730
20
627.136200
11
340.903717
21
627.839995
0
LINE
8
Calque 1
10
340.903717
20
627.839995
11
342.470317
21
628.851713
0
LINE
8
Calque 1
10
342.470317
20
628.851713
11
344.056751
21
630.117323
0
LINE
8
Calque 1
10
344.056751
20
630.117323
11
345.588240
21
631.582800
0
LINE
8
Calque 1
10
345.588240
20
631.582800
11
347.620548
21
633.906428
0
LINE
8
Calque 1
10
347.620548
20
633.906428
11
348.991109
21
636.074075
0
LINE
8
Calque 1
10
348.991109
20
636.074075
11
349.920180
21
638.528409
0
LINE
8
Calque 1
10
349.920180
20
638.528409
11
350.628020
21
641.712100
0
LINE
8
Calque 1
10
350.628020
20
641.712100
11
351.128260
21
644.621000
0
LINE
8
Calque 1
10
351.128260
20
644.621000
11
342.793880
21
636.441800
0
LINE
8
Calque 1
10
342.793880
20
636.441800
11
334.459510
21
627.938200
0
LINE
8
Calque 1
10
334.459510
20
627.938200
11
334.820953
21
627.603545
0
LINE
8
Calque 1
10
334.820953
20
627.603545
11
335.671169
21
627.176463
0
LINE
8
Calque 1
10
335.671169
20
627.176463
11
336.658985
21
626.808798
0
LINE
8
Calque 1
10
336.658985
20
626.808798
11
337.433230
21
626.652400
0
LINE
8
Calque 1
10
337.433230
20
626.652400
11
339.431730
21
627.136200
0
LINE
8
Calque 1
10
339.431730
20
627.136200
11
339.431730
21
627.136200
0
LINE
8
Calque 1
10
444.372730
20
649.670900
11
444.774730
21
651.919900
0
LINE
8
Calque 1
10
444.774730
20
651.919900
11
441.545380
21
655.161000
0
LINE
8
Calque 1
10
441.545380
20
655.161000
11
438.076820
21
658.402200
0
LINE
8
Calque 1
10
438.076820
20
658.402200
11
436.340201
21
657.081063
0
LINE
8
Calque 1
10
436.340201
20
657.081063
11
432.895840
21
653.985800
0
LINE
8
Calque 1
10
432.895840
20
653.985800
11
431.428920
21
652.612100
0
LINE
8
Calque 1
10
431.428920
20
652.612100
11
437.514330
21
646.507700
0
LINE
8
Calque 1
10
437.514330
20
646.507700
11
443.599750
21
640.403400
0
LINE
8
Calque 1
10
443.599750
20
640.403400
11
443.785240
21
643.912700
0
LINE
8
Calque 1
10
443.785240
20
643.912700
11
444.372730
21
649.670900
0
LINE
8
Calque 1
10
444.372730
20
649.670900
11
444.372730
21
649.670900
0
LINE
8
Calque 1
10
376.792430
20
661.208000
11
376.993549
21
665.154566
0
LINE
8
Calque 1
10
376.993549
20
665.154566
11
377.608579
21
668.514050
0
LINE
8
Calque 1
10
377.608579
20
668.514050
11
378.655029
21
671.351759
0
LINE
8
Calque 1
10
378.655029
20
671.351759
11
379.345509
21
672.595357
0
LINE
8
Calque 1
10
379.345509
20
672.595357
11
380.150410
21
673.733000
0
LINE
8
Calque 1
10
380.150410
20
673.733000
11
380.257914
21
673.891485
0
LINE
8
Calque 1
10
380.257914
20
673.891485
11
380.194527
21
673.877533
0
LINE
8
Calque 1
10
380.194527
20
673.877533
11
379.607444
21
673.379813
0
LINE
8
Calque 1
10
379.607444
20
673.379813
11
376.958590
21
670.837600
0
LINE
8
Calque 1
10
376.958590
20
670.837600
11
372.810100
21
666.736600
0
LINE
8
Calque 1
10
372.810100
20
666.736600
11
372.036360
21
664.327300
0
LINE
8
Calque 1
10
372.036360
20
664.327300
11
371.264030
21
661.651697
0
LINE
8
Calque 1
10
371.264030
20
661.651697
11
370.658137
21
658.972625
0
LINE
8
Calque 1
10
370.658137
20
658.972625
11
370.233314
21
656.365141
0
LINE
8
Calque 1
10
370.233314
20
656.365141
11
370.004190
21
653.904300
0
LINE
8
Calque 1
10
370.004190
20
653.904300
11
369.855560
21
651.126100
0
LINE
8
Calque 1
10
369.855560
20
651.126100
11
373.323990
21
654.561900
0
LINE
8
Calque 1
10
373.323990
20
654.561900
11
376.792430
21
657.997700
0
LINE
8
Calque 1
10
376.792430
20
657.997700
11
376.792430
21
661.208000
0
LINE
8
Calque 1
10
426.401830
20
662.076900
11
430.701290
21
663.858800
0
LINE
8
Calque 1
10
430.701290
20
663.858800
11
432.090360
21
664.485200
0
LINE
8
Calque 1
10
432.090360
20
664.485200
11
423.925840
21
672.784400
0
LINE
8
Calque 1
10
423.925840
20
672.784400
11
415.761330
21
680.945700
0
LINE
8
Calque 1
10
415.761330
20
680.945700
11
414.946740
21
679.205000
0
LINE
8
Calque 1
10
414.946740
20
679.205000
11
413.314014
21
676.290388
0
LINE
8
Calque 1
10
413.314014
20
676.290388
11
411.324910
21
673.309700
0
LINE
8
Calque 1
10
411.324910
20
673.309700
11
411.280247
21
673.071080
0
LINE
8
Calque 1
10
411.280247
20
673.071080
11
411.447457
21
672.713238
0
LINE
8
Calque 1
10
411.447457
20
672.713238
11
412.506500
21
671.503800
0
LINE
8
Calque 1
10
412.506500
20
671.503800
11
414.098750
21
670.043800
0
LINE
8
Calque 1
10
414.098750
20
670.043800
11
414.718060
21
670.837600
0
LINE
8
Calque 1
10
414.718060
20
670.837600
11
415.223925
21
671.429188
0
LINE
8
Calque 1
10
415.223925
20
671.429188
11
415.801040
21
671.631300
0
LINE
8
Calque 1
10
415.801040
20
671.631300
11
416.428658
21
671.506491
0
LINE
8
Calque 1
10
416.428658
20
671.506491
11
416.806580
21
671.083650
0
LINE
8
Calque 1
10
416.806580
20
671.083650
11
416.966942
21
670.290159
0
LINE
8
Calque 1
10
416.966942
20
670.290159
11
416.941880
21
669.053400
0
LINE
8
Calque 1
10
416.941880
20
669.053400
11
416.812790
21
667.265700
0
LINE
8
Calque 1
10
416.812790
20
667.265700
11
420.015830
21
664.024600
0
LINE
8
Calque 1
10
420.015830
20
664.024600
11
423.355150
21
660.783400
0
LINE
8
Calque 1
10
423.355150
20
660.783400
11
426.401830
21
662.076900
0
LINE
8
Calque 1
10
426.401830
20
662.076900
11
426.401830
21
662.076900
0
LINE
8
Calque 1
10
387.890530
20
679.884500
11
395.431160
21
683.851200
0
LINE
8
Calque 1
10
395.431160
20
683.851200
11
401.537790
21
687.100900
0
LINE
8
Calque 1
10
401.537790
20
687.100900
11
402.323698
21
687.957488
0
LINE
8
Calque 1
10
402.323698
20
687.957488
11
403.073632
21
689.193725
0
LINE
8
Calque 1
10
403.073632
20
689.193725
11
403.641951
21
690.525850
0
LINE
8
Calque 1
10
403.641951
20
690.525850
11
403.883010
21
691.670100
0
LINE
8
Calque 1
10
403.883010
20
691.670100
11
403.775857
21
692.513900
0
LINE
8
Calque 1
10
403.775857
20
692.513900
11
403.250790
21
692.978500
0
LINE
8
Calque 1
10
403.250790
20
692.978500
11
402.424080
21
693.233450
0
LINE
8
Calque 1
10
402.424080
20
693.233450
11
401.399861
21
693.309150
0
LINE
8
Calque 1
10
401.399861
20
693.309150
11
400.351832
21
693.207775
0
LINE
8
Calque 1
10
400.351832
20
693.207775
11
399.453690
21
692.931500
0
LINE
8
Calque 1
10
399.453690
20
692.931500
11
396.416374
21
690.196550
0
LINE
8
Calque 1
10
396.416374
20
690.196550
11
390.285570
21
684.176900
0
LINE
8
Calque 1
10
390.285570
20
684.176900
11
384.192120
21
677.958263
0
LINE
8
Calque 1
10
384.192120
20
677.958263
11
383.357924
21
676.971514
0
LINE
8
Calque 1
10
383.357924
20
676.971514
11
383.430031
21
676.939872
0
LINE
8
Calque 1
10
383.430031
20
676.939872
11
383.803920
21
677.189800
0
LINE
8
Calque 1
10
383.803920
20
677.189800
11
387.890530
21
679.884800
0
LINE
8
Calque 1
10
387.890530
20
679.884800
11
387.890530
21
679.884500
 0 
ENDSEC
 0 
EOF