999
"DXF R12 Output" (www.mydxf.blogspot.com)
 0 
SECTION
 2 
HEADER
 9 
$ACADVER
 1 
AC1009
 9 
$EXTMIN
 10 
 0 
 20 
 0 
 9 
$EXTMAX
 10 
 8.5 
 20 
 11 
 0 
ENDSEC
 0 
SECTION
 2 
ENTITIES
0
LINE
8
Calque 1
10
346.652000
20
483.031000
11
310.283500
21
519.400200
0
LINE
8
Calque 1
10
310.283500
20
519.400200
11
308.306470
21
517.429600
0
LINE
8
Calque 1
10
308.306470
20
517.429600
11
306.978843
21
516.164045
0
LINE
8
Calque 1
10
306.978843
20
516.164045
11
306.069285
21
515.468163
0
LINE
8
Calque 1
10
306.069285
20
515.468163
11
305.440819
21
515.261598
0
LINE
8
Calque 1
10
305.440819
20
515.261598
11
304.956470
21
515.464000
0
LINE
8
Calque 1
10
304.956470
20
515.464000
11
304.665446
21
515.858216
0
LINE
8
Calque 1
10
304.665446
20
515.858216
11
304.619050
21
516.515775
0
LINE
8
Calque 1
10
304.619050
20
516.515775
11
305.346150
21
519.515000
0
LINE
8
Calque 1
10
305.346150
20
519.515000
11
306.206050
21
522.793200
0
LINE
8
Calque 1
10
306.206050
20
522.793200
11
305.832139
21
523.354274
0
LINE
8
Calque 1
10
305.832139
20
523.354274
11
304.520652
21
524.816900
0
LINE
8
Calque 1
10
304.520652
20
524.816900
11
298.260064
21
531.285475
0
LINE
8
Calque 1
10
298.260064
20
531.285475
11
265.414250
21
564.266600
0
LINE
8
Calque 1
10
265.414250
20
564.266600
11
224.536450
21
605.147200
0
LINE
8
Calque 1
10
224.536450
20
605.147200
11
262.097250
21
642.708700
0
LINE
8
Calque 1
10
262.097250
20
642.708700
11
299.658050
21
680.270200
0
LINE
8
Calque 1
10
299.658050
20
680.270200
11
299.859680
21
688.651200
0
LINE
8
Calque 1
10
299.859680
20
688.651200
11
300.098752
21
695.435948
0
LINE
8
Calque 1
10
300.098752
20
695.435948
11
300.542745
21
699.377213
0
LINE
8
Calque 1
10
300.542745
20
699.377213
11
300.905712
21
700.577211
0
LINE
8
Calque 1
10
300.905712
20
700.577211
11
301.396860
21
701.421145
0
LINE
8
Calque 1
10
301.396860
20
701.421145
11
302.041839
21
702.027285
0
LINE
8
Calque 1
10
302.041839
20
702.027285
11
302.866300
21
702.513900
0
LINE
8
Calque 1
10
302.866300
20
702.513900
11
303.719205
21
702.890400
0
LINE
8
Calque 1
10
303.719205
20
702.890400
11
304.772059
21
703.084425
0
LINE
8
Calque 1
10
304.772059
20
703.084425
11
309.996200
21
703.149600
0
LINE
8
Calque 1
10
309.996200
20
703.149600
11
315.327346
21
703.021738
0
LINE
8
Calque 1
10
315.327346
20
703.021738
11
316.865491
21
702.811720
0
LINE
8
Calque 1
10
316.865491
20
702.811720
11
318.462860
21
702.435700
0
LINE
8
Calque 1
10
318.462860
20
702.435700
11
321.108700
21
701.747600
0
LINE
8
Calque 1
10
321.108700
20
701.747600
11
352.131100
21
732.755800
0
LINE
8
Calque 1
10
352.131100
20
732.755800
11
383.153500
21
763.764100
0
LINE
8
Calque 1
10
383.153500
20
763.764100
11
414.175900
21
732.755800
0
LINE
8
Calque 1
10
414.175900
20
732.755800
11
445.198300
21
701.747600
0
LINE
8
Calque 1
10
445.198300
20
701.747600
11
447.844140
21
702.435700
0
LINE
8
Calque 1
10
447.844140
20
702.435700
11
449.441509
21
702.811580
0
LINE
8
Calque 1
10
449.441509
20
702.811580
11
450.979654
21
703.021663
0
LINE
8
Calque 1
10
450.979654
20
703.021663
11
456.310800
21
703.149600
0
LINE
8
Calque 1
10
456.310800
20
703.149600
11
461.534941
21
703.084388
0
LINE
8
Calque 1
10
461.534941
20
703.084388
11
462.587795
21
702.890414
0
LINE
8
Calque 1
10
462.587795
20
702.890414
11
463.440700
21
702.513900
0
LINE
8
Calque 1
10
463.440700
20
702.513900
11
464.265161
21
702.027285
0
LINE
8
Calque 1
10
464.265161
20
702.027285
11
464.910140
21
701.421145
0
LINE
8
Calque 1
10
464.910140
20
701.421145
11
465.401288
21
700.577211
0
LINE
8
Calque 1
10
465.401288
20
700.577211
11
465.764255
21
699.377213
0
LINE
8
Calque 1
10
465.764255
20
699.377213
11
466.208248
21
695.435948
0
LINE
8
Calque 1
10
466.208248
20
695.435948
11
466.447320
21
688.651200
0
LINE
8
Calque 1
10
466.447320
20
688.651200
11
466.648950
21
680.270200
0
LINE
8
Calque 1
10
466.648950
20
680.270200
11
504.209750
21
642.708700
0
LINE
8
Calque 1
10
504.209750
20
642.708700
11
541.770550
21
605.147200
0
LINE
8
Calque 1
10
541.770550
20
605.147200
11
500.892750
21
564.266600
0
LINE
8
Calque 1
10
500.892750
20
564.266600
11
468.046975
21
531.285475
0
LINE
8
Calque 1
10
468.046975
20
531.285475
11
461.786400
21
524.816900
0
LINE
8
Calque 1
10
461.786400
20
524.816900
11
460.474930
21
523.354274
0
LINE
8
Calque 1
10
460.474930
20
523.354274
11
460.101050
21
522.793200
0
LINE
8
Calque 1
10
460.101050
20
522.793200
11
460.960950
21
519.515000
0
LINE
8
Calque 1
10
460.960950
20
519.515000
11
461.688050
21
516.515775
0
LINE
8
Calque 1
10
461.688050
20
516.515775
11
461.641654
21
515.858216
0
LINE
8
Calque 1
10
461.641654
20
515.858216
11
461.350630
21
515.464000
0
LINE
8
Calque 1
10
461.350630
20
515.464000
11
460.866281
21
515.261598
0
LINE
8
Calque 1
10
460.866281
20
515.261598
11
460.237815
21
515.468163
0
LINE
8
Calque 1
10
460.237815
20
515.468163
11
459.328257
21
516.164045
0
LINE
8
Calque 1
10
459.328257
20
516.164045
11
458.000630
21
517.429600
0
LINE
8
Calque 1
10
458.000630
20
517.429600
11
456.023600
21
519.400200
0
LINE
8
Calque 1
10
456.023600
20
519.400200
11
419.655100
21
483.031000
0
LINE
8
Calque 1
10
419.655100
20
483.031000
11
383.153600
21
446.661800
0
LINE
8
Calque 1
10
383.153600
20
446.661800
11
346.652100
21
483.031000
0
LINE
8
Calque 1
10
346.652100
20
483.031000
11
346.652000
21
483.031000
0
LINE
8
Calque 1
10
385.270200
20
457.870100
11
387.609720
21
459.864312
0
LINE
8
Calque 1
10
387.609720
20
459.864312
11
388.702232
21
460.986870
0
LINE
8
Calque 1
10
388.702232
20
460.986870
11
389.014740
21
461.489000
0
LINE
8
Calque 1
10
389.014740
20
461.489000
11
389.577530
21
461.898500
0
LINE
8
Calque 1
10
389.577530
20
461.898500
11
390.050000
21
462.256112
0
LINE
8
Calque 1
10
390.050000
20
462.256112
11
390.153170
21
462.555900
0
LINE
8
Calque 1
10
390.153170
20
462.555900
11
390.106482
21
462.717175
0
LINE
8
Calque 1
10
390.106482
20
462.717175
11
390.218570
21
462.741800
0
LINE
8
Calque 1
10
390.218570
20
462.741800
11
391.744519
21
464.050575
0
LINE
8
Calque 1
10
391.744519
20
464.050575
11
395.096980
21
467.299300
0
LINE
8
Calque 1
10
395.096980
20
467.299300
11
400.381500
21
472.505400
0
LINE
8
Calque 1
10
400.381500
20
472.505400
11
402.000780
21
474.159000
0
LINE
8
Calque 1
10
402.000780
20
474.159000
11
403.265860
21
475.236800
0
LINE
8
Calque 1
10
403.265860
20
475.236800
11
403.509577
21
475.361812
0
LINE
8
Calque 1
10
403.509577
20
475.361812
11
403.706330
21
475.662400
0
LINE
8
Calque 1
10
403.706330
20
475.662400
11
404.867610
21
477.051400
0
LINE
8
Calque 1
10
404.867610
20
477.051400
11
407.143390
21
479.246200
0
LINE
8
Calque 1
10
407.143390
20
479.246200
11
409.578970
21
481.693600
0
LINE
8
Calque 1
10
409.578970
20
481.693600
11
410.968030
21
482.909700
0
LINE
8
Calque 1
10
410.968030
20
482.909700
11
411.137742
21
483.006837
0
LINE
8
Calque 1
10
411.137742
20
483.006837
11
411.220980
21
483.240400
0
LINE
8
Calque 1
10
411.220980
20
483.240400
11
411.763971
21
483.940312
0
LINE
8
Calque 1
10
411.763971
20
483.940312
11
413.039060
21
485.158700
0
LINE
8
Calque 1
10
413.039060
20
485.158700
11
414.266891
21
486.350125
0
LINE
8
Calque 1
10
414.266891
20
486.350125
11
414.696310
21
486.985500
0
LINE
8
Calque 1
10
414.696310
20
486.985500
11
414.692886
21
487.095875
0
LINE
8
Calque 1
10
414.692886
20
487.095875
11
414.880420
21
487.025500
0
LINE
8
Calque 1
10
414.880420
20
487.025500
11
415.156946
21
487.021962
0
LINE
8
Calque 1
10
415.156946
20
487.021962
11
415.348250
21
487.378500
0
LINE
8
Calque 1
10
415.348250
20
487.378500
11
415.507519
21
487.733625
0
LINE
8
Calque 1
10
415.507519
20
487.733625
11
415.687450
21
487.811100
0
LINE
8
Calque 1
10
415.687450
20
487.811100
11
415.991554
21
487.917850
0
LINE
8
Calque 1
10
415.991554
20
487.917850
11
416.449370
21
488.343200
0
LINE
8
Calque 1
10
416.449370
20
488.343200
11
416.850430
21
488.995600
0
LINE
8
Calque 1
10
416.850430
20
488.995600
11
417.447500
21
489.580800
0
LINE
8
Calque 1
10
417.447500
20
489.580800
11
420.463930
21
492.425100
0
LINE
8
Calque 1
10
420.463930
20
492.425100
11
423.771220
21
495.643600
0
LINE
8
Calque 1
10
423.771220
20
495.643600
11
427.312030
21
499.149300
0
LINE
8
Calque 1
10
427.312030
20
499.149300
11
429.147382
21
500.947637
0
LINE
8
Calque 1
10
429.147382
20
500.947637
11
430.068110
21
501.695600
0
LINE
8
Calque 1
10
430.068110
20
501.695600
11
430.212971
21
501.741175
0
LINE
8
Calque 1
10
430.212971
20
501.741175
11
430.182940
21
501.850200
0
LINE
8
Calque 1
10
430.182940
20
501.850200
11
430.514267
21
502.350712
0
LINE
8
Calque 1
10
430.514267
20
502.350712
11
431.527900
21
503.337000
0
LINE
8
Calque 1
10
431.527900
20
503.337000
11
434.241600
21
505.959100
0
LINE
8
Calque 1
10
434.241600
20
505.959100
11
435.150481
21
506.818650
0
LINE
8
Calque 1
10
435.150481
20
506.818650
11
435.630670
21
507.074000
0
LINE
8
Calque 1
10
435.630670
20
507.074000
11
435.754195
21
507.080262
0
LINE
8
Calque 1
10
435.754195
20
507.080262
11
435.805570
21
507.340100
0
LINE
8
Calque 1
10
435.805570
20
507.340100
11
435.926739
21
507.651487
0
LINE
8
Calque 1
10
435.926739
20
507.651487
11
436.218060
21
507.781000
0
LINE
8
Calque 1
10
436.218060
20
507.781000
11
436.466792
21
507.849925
0
LINE
8
Calque 1
10
436.466792
20
507.849925
11
436.485560
21
508.015600
0
LINE
8
Calque 1
10
436.485560
20
508.015600
11
436.498906
21
508.277387
0
LINE
8
Calque 1
10
436.498906
20
508.277387
11
436.734530
21
508.577200
0
LINE
8
Calque 1
10
436.734530
20
508.577200
11
437.128490
21
508.730300
0
LINE
8
Calque 1
10
437.128490
20
508.730300
11
437.987920
21
509.557800
0
LINE
8
Calque 1
10
437.987920
20
509.557800
11
439.112400
21
510.734200
0
LINE
8
Calque 1
10
439.112400
20
510.734200
11
442.631520
21
514.110100
0
LINE
8
Calque 1
10
442.631520
20
514.110100
11
446.531860
21
517.734200
0
LINE
8
Calque 1
10
446.531860
20
517.734200
11
446.945497
21
518.102487
0
LINE
8
Calque 1
10
446.945497
20
518.102487
11
447.032480
21
518.393300
0
LINE
8
Calque 1
10
447.032480
20
518.393300
11
446.999317
21
518.559750
0
LINE
8
Calque 1
10
446.999317
20
518.559750
11
447.124180
21
518.629000
0
LINE
8
Calque 1
10
447.124180
20
518.629000
11
449.891790
21
521.053100
0
LINE
8
Calque 1
10
449.891790
20
521.053100
11
452.422070
21
523.477300
0
LINE
8
Calque 1
10
452.422070
20
523.477300
11
451.023790
21
525.644800
0
LINE
8
Calque 1
10
451.023790
20
525.644800
11
449.203433
21
528.633162
0
LINE
8
Calque 1
10
449.203433
20
528.633162
11
447.445282
21
531.839625
0
LINE
8
Calque 1
10
447.445282
20
531.839625
11
445.824453
21
535.120000
0
LINE
8
Calque 1
10
445.824453
20
535.120000
11
444.416060
21
538.330100
0
LINE
8
Calque 1
10
444.416060
20
538.330100
11
443.988000
21
539.378200
0
LINE
8
Calque 1
10
443.988000
20
539.378200
11
413.570800
21
508.961800
0
LINE
8
Calque 1
10
413.570800
20
508.961800
11
383.153600
21
478.545400
0
LINE
8
Calque 1
10
383.153600
20
478.545400
11
352.736400
21
508.961800
0
LINE
8
Calque 1
10
352.736400
20
508.961800
11
322.319200
21
539.378200
0
LINE
8
Calque 1
10
322.319200
20
539.378200
11
321.891140
21
538.330100
0
LINE
8
Calque 1
10
321.891140
20
538.330100
11
320.482610
21
535.119664
0
LINE
8
Calque 1
10
320.482610
20
535.119664
11
318.861671
21
531.839112
0
LINE
8
Calque 1
10
318.861671
20
531.839112
11
317.103260
21
528.632305
0
LINE
8
Calque 1
10
317.103260
20
528.632305
11
315.282310
21
525.643100
0
LINE
8
Calque 1
10
315.282310
20
525.643100
11
314.271421
21
523.900987
0
LINE
8
Calque 1
10
314.271421
20
523.900987
11
314.093085
21
523.395392
0
LINE
8
Calque 1
10
314.093085
20
523.395392
11
314.118420
21
523.102000
0
LINE
8
Calque 1
10
314.118420
20
523.102000
11
314.285924
21
522.912112
0
LINE
8
Calque 1
10
314.285924
20
522.912112
11
314.357960
21
522.977900
0
LINE
8
Calque 1
10
314.357960
20
522.977900
11
314.593900
21
522.929737
0
LINE
8
Calque 1
10
314.593900
20
522.929737
11
315.155760
21
522.465400
0
LINE
8
Calque 1
10
315.155760
20
522.465400
11
315.716349
21
521.821725
0
LINE
8
Calque 1
10
315.716349
20
521.821725
11
315.949510
21
521.342000
0
LINE
8
Calque 1
10
315.949510
20
521.342000
11
316.024690
21
521.132037
0
LINE
8
Calque 1
10
316.024690
20
521.132037
11
316.205440
21
521.137100
0
LINE
8
Calque 1
10
316.205440
20
521.137100
11
316.485150
21
521.090575
0
LINE
8
Calque 1
10
316.485150
20
521.090575
11
316.798250
21
520.755900
0
LINE
8
Calque 1
10
316.798250
20
520.755900
11
317.347560
21
520.216400
0
LINE
8
Calque 1
10
317.347560
20
520.216400
11
318.805270
21
518.865900
0
LINE
8
Calque 1
10
318.805270
20
518.865900
11
320.373750
21
517.212300
0
LINE
8
Calque 1
10
320.373750
20
517.212300
11
323.236030
21
514.461800
0
LINE
8
Calque 1
10
323.236030
20
514.461800
11
325.114646
21
512.733312
0
LINE
8
Calque 1
10
325.114646
20
512.733312
11
326.065790
21
512.014400
0
LINE
8
Calque 1
10
326.065790
20
512.014400
11
326.226129
21
511.969400
0
LINE
8
Calque 1
10
326.226129
20
511.969400
11
326.203460
21
511.861400
0
LINE
8
Calque 1
10
326.203460
20
511.861400
11
326.467529
21
511.434316
0
LINE
8
Calque 1
10
326.467529
20
511.434316
11
327.326476
21
510.526200
0
LINE
8
Calque 1
10
327.326476
20
510.526200
11
329.906990
21
508.182700
0
LINE
8
Calque 1
10
329.906990
20
508.182700
11
330.467167
21
507.586500
0
LINE
8
Calque 1
10
330.467167
20
507.586500
11
330.592180
21
507.161600
0
LINE
8
Calque 1
10
330.592180
20
507.161600
11
330.533255
21
507.004087
0
LINE
8
Calque 1
10
330.533255
20
507.004087
11
330.637980
21
507.055900
0
LINE
8
Calque 1
10
330.637980
20
507.055900
11
330.978647
21
507.024028
0
LINE
8
Calque 1
10
330.978647
20
507.024028
11
331.464807
21
506.678225
0
LINE
8
Calque 1
10
331.464807
20
506.678225
11
331.900331
21
506.194909
0
LINE
8
Calque 1
10
331.900331
20
506.194909
11
332.089090
21
505.750500
0
LINE
8
Calque 1
10
332.089090
20
505.750500
11
332.156124
21
505.502812
0
LINE
8
Calque 1
10
332.156124
20
505.502812
11
332.317290
21
505.399800
0
LINE
8
Calque 1
10
332.317290
20
505.399800
11
333.506854
21
504.630750
0
LINE
8
Calque 1
10
333.506854
20
504.630750
11
334.117027
21
504.068194
0
LINE
8
Calque 1
10
334.117027
20
504.068194
11
334.311270
21
503.741400
0
LINE
8
Calque 1
10
334.311270
20
503.741400
11
334.433537
21
503.509562
0
LINE
8
Calque 1
10
334.433537
20
503.509562
11
334.927130
21
503.151500
0
LINE
8
Calque 1
10
334.927130
20
503.151500
11
335.643821
21
502.570600
0
LINE
8
Calque 1
10
335.643821
20
502.570600
11
336.302470
21
501.802800
0
LINE
8
Calque 1
10
336.302470
20
501.802800
11
337.103770
21
500.901900
0
LINE
8
Calque 1
10
337.103770
20
500.901900
11
338.326440
21
499.823700
0
LINE
8
Calque 1
10
338.326440
20
499.823700
11
340.291170
21
497.852400
0
LINE
8
Calque 1
10
340.291170
20
497.852400
11
346.025410
21
492.249800
0
LINE
8
Calque 1
10
346.025410
20
492.249800
11
352.578410
21
485.891500
0
LINE
8
Calque 1
10
352.578410
20
485.891500
11
354.326110
21
484.113300
0
LINE
8
Calque 1
10
354.326110
20
484.113300
11
356.934260
21
481.591300
0
LINE
8
Calque 1
10
356.934260
20
481.591300
11
357.415430
21
481.058100
0
LINE
8
Calque 1
10
357.415430
20
481.058100
11
358.979240
21
479.404500
0
LINE
8
Calque 1
10
358.979240
20
479.404500
11
362.330584
21
476.131112
0
LINE
8
Calque 1
10
362.330584
20
476.131112
11
363.045340
21
475.216400
0
LINE
8
Calque 1
10
363.045340
20
475.216400
11
363.142489
21
475.037387
0
LINE
8
Calque 1
10
363.142489
20
475.037387
11
363.376070
21
474.949200
0
LINE
8
Calque 1
10
363.376070
20
474.949200
11
363.998252
21
474.480025
0
LINE
8
Calque 1
10
363.998252
20
474.480025
11
365.029710
21
473.385200
0
LINE
8
Calque 1
10
365.029710
20
473.385200
11
366.559150
21
471.821200
0
LINE
8
Calque 1
10
366.559150
20
471.821200
11
367.578740
21
470.871700
0
LINE
8
Calque 1
10
367.578740
20
470.871700
11
368.263951
21
470.217625
0
LINE
8
Calque 1
10
368.263951
20
470.217625
11
368.769590
21
469.945600
0
LINE
8
Calque 1
10
368.769590
20
469.945600
11
369.087109
21
469.809612
0
LINE
8
Calque 1
10
369.087109
20
469.809612
11
369.320020
21
469.482600
0
LINE
8
Calque 1
10
369.320020
20
469.482600
11
369.740629
21
468.814800
0
LINE
8
Calque 1
10
369.740629
20
468.814800
11
370.437095
21
468.023100
0
LINE
8
Calque 1
10
370.437095
20
468.023100
11
371.134071
21
467.389200
0
LINE
8
Calque 1
10
371.134071
20
467.389200
11
371.556210
21
467.194800
0
LINE
8
Calque 1
10
371.556210
20
467.194800
11
371.786656
21
467.096412
0
LINE
8
Calque 1
10
371.786656
20
467.096412
11
372.029860
21
466.668100
0
LINE
8
Calque 1
10
372.029860
20
466.668100
11
372.425231
21
466.061225
0
LINE
8
Calque 1
10
372.425231
20
466.061225
11
373.021550
21
465.534000
0
LINE
8
Calque 1
10
373.021550
20
465.534000
11
373.963390
21
464.742800
0
LINE
8
Calque 1
10
373.963390
20
464.742800
11
375.024713
21
463.569362
0
LINE
8
Calque 1
10
375.024713
20
463.569362
11
375.999410
21
462.801900
0
LINE
8
Calque 1
10
375.999410
20
462.801900
11
376.358130
21
462.246100
0
LINE
8
Calque 1
10
376.358130
20
462.246100
11
376.543686
21
461.904625
0
LINE
8
Calque 1
10
376.543686
20
461.904625
11
376.785860
21
461.864800
0
LINE
8
Calque 1
10
376.785860
20
461.864800
11
376.985300
21
461.905975
0
LINE
8
Calque 1
10
376.985300
20
461.905975
11
377.068250
21
461.759200
0
LINE
8
Calque 1
10
377.068250
20
461.759200
11
377.655165
21
460.924983
0
LINE
8
Calque 1
10
377.655165
20
460.924983
11
378.986386
21
459.578862
0
LINE
8
Calque 1
10
378.986386
20
459.578862
11
380.417630
21
458.326811
0
LINE
8
Calque 1
10
380.417630
20
458.326811
11
381.304610
21
457.774800
0
LINE
8
Calque 1
10
381.304610
20
457.774800
11
381.489338
21
457.684125
0
LINE
8
Calque 1
10
381.489338
20
457.684125
11
381.566170
21
457.466100
0
LINE
8
Calque 1
10
381.566170
20
457.466100
11
381.609961
21
457.291862
0
LINE
8
Calque 1
10
381.609961
20
457.291862
11
381.715200
21
457.306400
0
LINE
8
Calque 1
10
381.715200
20
457.306400
11
382.575100
21
457.262400
0
LINE
8
Calque 1
10
382.575100
20
457.262400
11
383.184195
21
457.160930
0
LINE
8
Calque 1
10
383.184195
20
457.160930
11
383.782729
21
457.216237
0
LINE
8
Calque 1
10
383.782729
20
457.216237
11
385.270340
21
457.870200
0
LINE
8
Calque 1
10
385.270340
20
457.870200
11
385.270200
21
457.870100
0
LINE
8
Calque 1
10
387.916030
20
504.444000
11
389.517687
21
505.192204
0
LINE
8
Calque 1
10
389.517687
20
505.192204
11
391.058650
21
506.110311
0
LINE
8
Calque 1
10
391.058650
20
506.110311
11
392.573744
21
507.231984
0
LINE
8
Calque 1
10
392.573744
20
507.231984
11
394.097796
21
508.590888
0
LINE
8
Calque 1
10
394.097796
20
508.590888
11
397.312085
21
512.155045
0
LINE
8
Calque 1
10
397.312085
20
512.155045
11
400.980130
21
517.072100
0
LINE
8
Calque 1
10
400.980130
20
517.072100
11
402.424235
21
518.952725
0
LINE
8
Calque 1
10
402.424235
20
518.952725
11
403.388880
21
519.900800
0
LINE
8
Calque 1
10
403.388880
20
519.900800
11
404.405487
21
520.219867
0
LINE
8
Calque 1
10
404.405487
20
520.219867
11
405.937014
21
520.492538
0
LINE
8
Calque 1
10
405.937014
20
520.492538
11
410.405620
21
520.879300
0
LINE
8
Calque 1
10
410.405620
20
520.879300
11
413.815436
21
521.134312
0
LINE
8
Calque 1
10
413.815436
20
521.134312
11
414.462430
21
521.295452
0
LINE
8
Calque 1
10
414.462430
20
521.295452
11
414.638960
21
521.514200
0
LINE
8
Calque 1
10
414.638960
20
521.514200
11
412.382900
21
525.223400
0
LINE
8
Calque 1
10
412.382900
20
525.223400
11
410.378164
21
528.400755
0
LINE
8
Calque 1
10
410.378164
20
528.400755
11
409.271406
21
530.421713
0
LINE
8
Calque 1
10
409.271406
20
530.421713
11
408.798370
21
531.865864
0
LINE
8
Calque 1
10
408.798370
20
531.865864
11
408.694800
21
533.312800
0
LINE
8
Calque 1
10
408.694800
20
533.312800
11
408.774915
21
534.525536
0
LINE
8
Calque 1
10
408.774915
20
534.525536
11
409.044132
21
535.735995
0
LINE
8
Calque 1
10
409.044132
20
535.735995
11
409.530233
21
536.989291
0
LINE
8
Calque 1
10
409.530233
20
536.989291
11
410.261001
21
538.330538
0
LINE
8
Calque 1
10
410.261001
20
538.330538
11
412.567667
21
541.457336
0
LINE
8
Calque 1
10
412.567667
20
541.457336
11
416.186390
21
545.477300
0
LINE
8
Calque 1
10
416.186390
20
545.477300
11
420.392907
21
550.214250
0
LINE
8
Calque 1
10
420.392907
20
550.214250
11
421.492405
21
551.773728
0
LINE
8
Calque 1
10
421.492405
20
551.773728
11
422.021060
21
552.919300
0
LINE
8
Calque 1
10
422.021060
20
552.919300
11
422.138610
21
554.493263
0
LINE
8
Calque 1
10
422.138610
20
554.493263
11
421.993360
21
557.314400
0
LINE
8
Calque 1
10
421.993360
20
557.314400
11
421.873187
21
562.578566
0
LINE
8
Calque 1
10
421.873187
20
562.578566
11
422.331600
21
568.160450
0
LINE
8
Calque 1
10
422.331600
20
568.160450
11
423.357763
21
573.976859
0
LINE
8
Calque 1
10
423.357763
20
573.976859
11
424.940840
21
579.944600
0
LINE
8
Calque 1
10
424.940840
20
579.944600
11
426.766752
21
585.427175
0
LINE
8
Calque 1
10
426.766752
20
585.427175
11
428.544200
21
589.229300
0
LINE
8
Calque 1
10
428.544200
20
589.229300
11
430.225652
21
592.127450
0
LINE
8
Calque 1
10
430.225652
20
592.127450
11
432.308765
21
595.139900
0
LINE
8
Calque 1
10
432.308765
20
595.139900
11
435.052170
21
598.614275
0
LINE
8
Calque 1
10
435.052170
20
598.614275
11
438.714500
21
602.898200
0
LINE
8
Calque 1
10
438.714500
20
602.898200
11
442.192543
21
607.124350
0
LINE
8
Calque 1
10
442.192543
20
607.124350
11
442.759027
21
608.133641
0
LINE
8
Calque 1
10
442.759027
20
608.133641
11
442.792132
21
608.424200
0
LINE
8
Calque 1
10
442.792132
20
608.424200
11
442.674860
21
608.595600
0
LINE
8
Calque 1
10
442.674860
20
608.595600
11
441.863521
21
608.907947
0
LINE
8
Calque 1
10
441.863521
20
608.907947
11
440.674695
21
609.159375
0
LINE
8
Calque 1
10
440.674695
20
609.159375
11
439.406707
21
609.302016
0
LINE
8
Calque 1
10
439.406707
20
609.302016
11
438.357880
21
609.288000
0
LINE
8
Calque 1
10
438.357880
20
609.288000
11
434.623126
21
608.908862
0
LINE
8
Calque 1
10
434.623126
20
608.908862
11
433.836346
21
609.063211
0
LINE
8
Calque 1
10
433.836346
20
609.063211
11
433.075200
21
609.470900
0
LINE
8
Calque 1
10
433.075200
20
609.470900
11
431.434247
21
610.718636
0
LINE
8
Calque 1
10
431.434247
20
610.718636
11
430.187456
21
612.244238
0
LINE
8
Calque 1
10
430.187456
20
612.244238
11
429.429892
21
613.896945
0
LINE
8
Calque 1
10
429.429892
20
613.896945
11
429.264278
21
614.723852
0
LINE
8
Calque 1
10
429.264278
20
614.723852
11
429.256620
21
615.526000
0
LINE
8
Calque 1
10
429.256620
20
615.526000
11
429.575115
21
616.750798
0
LINE
8
Calque 1
10
429.575115
20
616.750798
11
430.410566
21
618.294863
0
LINE
8
Calque 1
10
430.410566
20
618.294863
11
431.912327
21
620.390795
0
LINE
8
Calque 1
10
431.912327
20
620.390795
11
434.229750
21
623.271200
0
LINE
8
Calque 1
10
434.229750
20
623.271200
11
436.109411
21
625.611441
0
LINE
8
Calque 1
10
436.109411
20
625.611441
11
437.249144
21
627.224425
0
LINE
8
Calque 1
10
437.249144
20
627.224425
11
437.735505
21
628.250647
0
LINE
8
Calque 1
10
437.735505
20
628.250647
11
437.655050
21
628.830600
0
LINE
8
Calque 1
10
437.655050
20
628.830600
11
437.115368
21
629.207114
0
LINE
8
Calque 1
10
437.115368
20
629.207114
11
436.148677
21
629.500387
0
LINE
8
Calque 1
10
436.148677
20
629.500387
11
432.630640
21
629.901900
0
LINE
8
Calque 1
10
432.630640
20
629.901900
11
429.678715
21
630.260687
0
LINE
8
Calque 1
10
429.678715
20
630.260687
11
429.078970
21
630.577280
0
LINE
8
Calque 1
10
429.078970
20
630.577280
11
428.797450
21
631.066100
0
LINE
8
Calque 1
10
428.797450
20
631.066100
11
428.767404
21
631.641434
0
LINE
8
Calque 1
10
428.767404
20
631.641434
11
429.150665
21
632.436800
0
LINE
8
Calque 1
10
429.150665
20
632.436800
11
431.875290
21
635.789900
0
LINE
8
Calque 1
10
431.875290
20
635.789900
11
433.716794
21
638.030937
0
LINE
8
Calque 1
10
433.716794
20
638.030937
11
434.482730
21
639.181700
0
LINE
8
Calque 1
10
434.482730
20
639.181700
11
434.299392
21
639.541187
0
LINE
8
Calque 1
10
434.299392
20
639.541187
11
433.687250
21
639.810450
0
LINE
8
Calque 1
10
433.687250
20
639.810450
11
430.803770
21
640.179400
0
LINE
8
Calque 1
10
430.803770
20
640.179400
11
428.707832
21
640.420441
0
LINE
8
Calque 1
10
428.707832
20
640.420441
11
427.551025
21
640.831525
0
LINE
8
Calque 1
10
427.551025
20
640.831525
11
427.278166
21
641.134496
0
LINE
8
Calque 1
10
427.278166
20
641.134496
11
427.184133
21
641.520372
0
LINE
8
Calque 1
10
427.184133
20
641.520372
11
427.457940
21
642.594700
0
LINE
8
Calque 1
10
427.457940
20
642.594700
11
428.141178
21
643.763112
0
LINE
8
Calque 1
10
428.141178
20
643.763112
11
429.304227
21
645.316425
0
LINE
8
Calque 1
10
429.304227
20
645.316425
11
432.181720
21
648.472700
0
LINE
8
Calque 1
10
432.181720
20
648.472700
11
433.448107
21
649.534059
0
LINE
8
Calque 1
10
433.448107
20
649.534059
11
433.940652
21
649.785550
0
LINE
8
Calque 1
10
433.940652
20
649.785550
11
434.381870
21
649.847575
0
LINE
8
Calque 1
10
434.381870
20
649.847575
11
434.803588
21
649.717628
0
LINE
8
Calque 1
10
434.803588
20
649.717628
11
435.237633
21
649.393203
0
LINE
8
Calque 1
10
435.237633
20
649.393203
11
436.270020
21
648.150900
0
LINE
8
Calque 1
10
436.270020
20
648.150900
11
440.418057
21
641.918267
0
LINE
8
Calque 1
10
440.418057
20
641.918267
11
444.682489
21
634.582712
0
LINE
8
Calque 1
10
444.682489
20
634.582712
11
448.365211
21
627.417952
0
LINE
8
Calque 1
10
448.365211
20
627.417952
11
449.770274
21
624.297655
0
LINE
8
Calque 1
10
449.770274
20
624.297655
11
450.768120
21
621.697700
0
LINE
8
Calque 1
10
450.768120
20
621.697700
11
451.451686
21
619.298414
0
LINE
8
Calque 1
10
451.451686
20
619.298414
11
451.817229
21
616.994312
0
LINE
8
Calque 1
10
451.817229
20
616.994312
11
451.891620
21
614.491780
0
LINE
8
Calque 1
10
451.891620
20
614.491780
11
451.701730
21
611.497200
0
LINE
8
Calque 1
10
451.701730
20
611.497200
11
451.066187
21
606.369408
0
LINE
8
Calque 1
10
451.066187
20
606.369408
11
450.006191
21
601.636912
0
LINE
8
Calque 1
10
450.006191
20
601.636912
11
448.178918
21
596.077711
0
LINE
8
Calque 1
10
448.178918
20
596.077711
11
445.241540
21
588.469800
0
LINE
8
Calque 1
10
445.241540
20
588.469800
11
442.640109
21
581.518903
0
LINE
8
Calque 1
10
442.640109
20
581.518903
11
441.754377
21
578.669380
0
LINE
8
Calque 1
10
441.754377
20
578.669380
11
441.108785
21
576.064650
0
LINE
8
Calque 1
10
441.108785
20
576.064650
11
440.675943
21
573.575345
0
LINE
8
Calque 1
10
440.675943
20
573.575345
11
440.428464
21
571.072097
0
LINE
8
Calque 1
10
440.428464
20
571.072097
11
440.380040
21
565.506300
0
LINE
8
Calque 1
10
440.380040
20
565.506300
11
440.705603
21
560.980494
0
LINE
8
Calque 1
10
440.705603
20
560.980494
11
441.388990
21
556.277580
0
LINE
8
Calque 1
10
441.388990
20
556.277580
11
442.405478
21
551.478185
0
LINE
8
Calque 1
10
442.405478
20
551.478185
11
443.730340
21
546.662937
0
LINE
8
Calque 1
10
443.730340
20
546.662937
11
445.338852
21
541.912467
0
LINE
8
Calque 1
10
445.338852
20
541.912467
11
447.206290
21
537.307402
0
LINE
8
Calque 1
10
447.206290
20
537.307402
11
449.307927
21
532.928370
0
LINE
8
Calque 1
10
449.307927
20
532.928370
11
451.619040
21
528.856000
0
LINE
8
Calque 1
10
451.619040
20
528.856000
11
454.915357
21
524.074025
0
LINE
8
Calque 1
10
454.915357
20
524.074025
11
456.560757
21
521.964194
0
LINE
8
Calque 1
10
456.560757
20
521.964194
11
457.777710
21
520.612800
0
LINE
8
Calque 1
10
457.777710
20
520.612800
11
458.504944
21
520.002412
0
LINE
8
Calque 1
10
458.504944
20
520.002412
11
458.458350
21
520.480500
0
LINE
8
Calque 1
10
458.458350
20
520.480500
11
457.643530
21
524.205400
0
LINE
8
Calque 1
10
457.643530
20
524.205400
11
456.708445
21
529.494409
0
LINE
8
Calque 1
10
456.708445
20
529.494409
11
456.098041
21
534.803120
0
LINE
8
Calque 1
10
456.098041
20
534.803120
11
455.811455
21
540.108637
0
LINE
8
Calque 1
10
455.811455
20
540.108637
11
455.847827
21
545.388062
0
LINE
8
Calque 1
10
455.847827
20
545.388062
11
456.206298
21
550.618499
0
LINE
8
Calque 1
10
456.206298
20
550.618499
11
456.886006
21
555.777048
0
LINE
8
Calque 1
10
456.886006
20
555.777048
11
457.886090
21
560.840815
0
LINE
8
Calque 1
10
457.886090
20
560.840815
11
459.205690
21
565.786900
0
LINE
8
Calque 1
10
459.205690
20
565.786900
11
460.666489
21
570.084553
0
LINE
8
Calque 1
10
460.666489
20
570.084553
11
462.583336
21
574.549025
0
LINE
8
Calque 1
10
462.583336
20
574.549025
11
465.330810
21
579.974584
0
LINE
8
Calque 1
10
465.330810
20
579.974584
11
469.283490
21
587.155500
0
LINE
8
Calque 1
10
469.283490
20
587.155500
11
474.101250
21
596.073714
0
LINE
8
Calque 1
10
474.101250
20
596.073714
11
477.426674
21
603.145138
0
LINE
8
Calque 1
10
477.426674
20
603.145138
11
478.612602
21
606.185778
0
LINE
8
Calque 1
10
478.612602
20
606.185778
11
479.524856
21
609.001692
0
LINE
8
Calque 1
10
479.524856
20
609.001692
11
480.196573
21
611.671869
0
LINE
8
Calque 1
10
480.196573
20
611.671869
11
480.660890
21
614.275300
0
LINE
8
Calque 1
10
480.660890
20
614.275300
11
480.930720
21
616.507798
0
LINE
8
Calque 1
10
480.930720
20
616.507798
11
481.021214
21
618.389437
0
LINE
8
Calque 1
10
481.021214
20
618.389437
11
480.932545
21
620.231458
0
LINE
8
Calque 1
10
480.932545
20
620.231458
11
480.664890
21
622.345100
0
LINE
8
Calque 1
10
480.664890
20
622.345100
11
480.123957
21
625.157189
0
LINE
8
Calque 1
10
480.123957
20
625.157189
11
479.188707
21
628.374887
0
LINE
8
Calque 1
10
479.188707
20
628.374887
11
477.568142
21
632.877167
0
LINE
8
Calque 1
10
477.568142
20
632.877167
11
474.971260
21
639.543000
0
LINE
8
Calque 1
10
474.971260
20
639.543000
11
471.049748
21
649.891758
0
LINE
8
Calque 1
10
471.049748
20
649.891758
11
468.337799
21
658.259138
0
LINE
8
Calque 1
10
468.337799
20
658.259138
11
467.341064
21
662.030095
0
LINE
8
Calque 1
10
467.341064
20
662.030095
11
466.533505
21
665.702048
0
LINE
8
Calque 1
10
466.533505
20
665.702048
11
465.334960
21
673.277400
0
LINE
8
Calque 1
10
465.334960
20
673.277400
11
464.784460
21
677.643000
0
LINE
8
Calque 1
10
464.784460
20
677.643000
11
464.391070
21
687.961800
0
LINE
8
Calque 1
10
464.391070
20
687.961800
11
464.135112
21
694.807188
0
LINE
8
Calque 1
10
464.135112
20
694.807188
11
463.854780
21
698.447000
0
LINE
8
Calque 1
10
463.854780
20
698.447000
11
463.456779
21
699.606075
0
LINE
8
Calque 1
10
463.456779
20
699.606075
11
462.889690
21
700.431400
0
LINE
8
Calque 1
10
462.889690
20
700.431400
11
462.415636
21
700.785852
0
LINE
8
Calque 1
10
462.415636
20
700.785852
11
461.658636
21
700.984013
0
LINE
8
Calque 1
10
461.658636
20
700.984013
11
457.509670
21
701.150000
0
LINE
8
Calque 1
10
457.509670
20
701.150000
11
453.139891
21
701.121150
0
LINE
8
Calque 1
10
453.139891
20
701.121150
11
449.923920
21
700.691200
0
LINE
8
Calque 1
10
449.923920
20
700.691200
11
446.135094
21
699.758383
0
LINE
8
Calque 1
10
446.135094
20
699.758383
11
441.681191
21
698.309088
0
LINE
8
Calque 1
10
441.681191
20
698.309088
11
436.793903
21
696.425973
0
LINE
8
Calque 1
10
436.793903
20
696.425973
11
431.704920
21
694.191700
0
LINE
8
Calque 1
10
431.704920
20
694.191700
11
423.925151
21
690.190325
0
LINE
8
Calque 1
10
423.925151
20
690.190325
11
420.703988
21
688.337791
0
LINE
8
Calque 1
10
420.703988
20
688.337791
11
419.152920
21
687.260100
0
LINE
8
Calque 1
10
419.152920
20
687.260100
11
418.548489
21
686.236188
0
LINE
8
Calque 1
10
418.548489
20
686.236188
11
417.928674
21
684.634550
0
LINE
8
Calque 1
10
417.928674
20
684.634550
11
416.480560
21
679.209100
0
LINE
8
Calque 1
10
416.480560
20
679.209100
11
415.024930
21
673.520600
0
LINE
8
Calque 1
10
415.024930
20
673.520600
11
413.805539
21
670.808016
0
LINE
8
Calque 1
10
413.805539
20
670.808016
11
411.885500
21
667.710625
0
LINE
8
Calque 1
10
411.885500
20
667.710625
11
409.450428
21
664.497397
0
LINE
8
Calque 1
10
409.450428
20
664.497397
11
406.685940
21
661.437300
0
LINE
8
Calque 1
10
406.685940
20
661.437300
11
404.682125
21
659.570813
0
LINE
8
Calque 1
10
404.682125
20
659.570813
11
404.089145
21
659.218083
0
LINE
8
Calque 1
10
404.089145
20
659.218083
11
403.594990
21
659.122200
0
LINE
8
Calque 1
10
403.594990
20
659.122200
11
402.942256
21
659.230362
0
LINE
8
Calque 1
10
402.942256
20
659.230362
11
402.492270
21
659.490400
0
LINE
8
Calque 1
10
402.492270
20
659.490400
11
402.200631
21
660.439000
0
LINE
8
Calque 1
10
402.200631
20
660.439000
11
401.928620
21
662.202400
0
LINE
8
Calque 1
10
401.928620
20
662.202400
11
401.496249
21
665.291062
0
LINE
8
Calque 1
10
401.496249
20
665.291062
11
401.283864
21
665.853742
0
LINE
8
Calque 1
10
401.283864
20
665.853742
11
401.016530
21
666.001400
0
LINE
8
Calque 1
10
401.016530
20
666.001400
11
400.243625
21
665.613805
0
LINE
8
Calque 1
10
400.243625
20
665.613805
11
398.892705
21
664.518912
0
LINE
8
Calque 1
10
398.892705
20
664.518912
11
394.917940
21
660.614600
0
LINE
8
Calque 1
10
394.917940
20
660.614600
11
391.742940
21
657.538800
0
LINE
8
Calque 1
10
391.742940
20
657.538800
11
391.382676
21
657.646789
0
LINE
8
Calque 1
10
391.382676
20
657.646789
11
390.923906
21
658.072488
0
LINE
8
Calque 1
10
390.923906
20
658.072488
11
389.105160
21
660.577400
0
LINE
8
Calque 1
10
389.105160
20
660.577400
11
385.325345
21
665.791150
0
LINE
8
Calque 1
10
385.325345
20
665.791150
11
383.153920
21
668.382600
0
LINE
8
Calque 1
10
383.153920
20
668.382600
11
382.445599
21
667.647561
0
LINE
8
Calque 1
10
382.445599
20
667.647561
11
380.968291
21
665.772062
0
LINE
8
Calque 1
10
380.968291
20
665.772062
11
377.212230
21
660.577400
0
LINE
8
Calque 1
10
377.212230
20
660.577400
11
375.406549
21
658.084075
0
LINE
8
Calque 1
10
375.406549
20
658.084075
11
374.940522
21
657.650572
0
LINE
8
Calque 1
10
374.940522
20
657.650572
11
374.574390
21
657.538800
0
LINE
8
Calque 1
10
374.574390
20
657.538800
11
371.399390
21
660.615300
0
LINE
8
Calque 1
10
371.399390
20
660.615300
11
367.413550
21
664.521475
0
LINE
8
Calque 1
10
367.413550
20
664.521475
11
366.062761
21
665.614744
0
LINE
8
Calque 1
10
366.062761
20
665.614744
11
365.291310
21
666.001400
0
LINE
8
Calque 1
10
365.291310
20
666.001400
11
365.023976
21
665.853742
0
LINE
8
Calque 1
10
365.023976
20
665.853742
11
364.811590
21
665.291063
0
LINE
8
Calque 1
10
364.811590
20
665.291063
11
364.379210
21
662.202400
0
LINE
8
Calque 1
10
364.379210
20
662.202400
11
364.107207
21
660.439000
0
LINE
8
Calque 1
10
364.107207
20
660.439000
11
363.815570
21
659.490400
0
LINE
8
Calque 1
10
363.815570
20
659.490400
11
363.365580
21
659.230363
0
LINE
8
Calque 1
10
363.365580
20
659.230363
11
362.712850
21
659.122200
0
LINE
8
Calque 1
10
362.712850
20
659.122200
11
362.218695
21
659.218083
0
LINE
8
Calque 1
10
362.218695
20
659.218083
11
361.625715
21
659.570813
0
LINE
8
Calque 1
10
361.625715
20
659.570813
11
359.621900
21
661.437300
0
LINE
8
Calque 1
10
359.621900
20
661.437300
11
356.857412
21
664.497397
0
LINE
8
Calque 1
10
356.857412
20
664.497397
11
354.422340
21
667.710625
0
LINE
8
Calque 1
10
354.422340
20
667.710625
11
352.502301
21
670.808016
0
LINE
8
Calque 1
10
352.502301
20
670.808016
11
351.282910
21
673.520600
0
LINE
8
Calque 1
10
351.282910
20
673.520600
11
349.827280
21
679.209100
0
LINE
8
Calque 1
10
349.827280
20
679.209100
11
348.379166
21
684.634550
0
LINE
8
Calque 1
10
348.379166
20
684.634550
11
347.759351
21
686.236188
0
LINE
8
Calque 1
10
347.759351
20
686.236188
11
347.154920
21
687.260100
0
LINE
8
Calque 1
10
347.154920
20
687.260100
11
345.603838
21
688.337791
0
LINE
8
Calque 1
10
345.603838
20
688.337791
11
342.382666
21
690.190325
0
LINE
8
Calque 1
10
342.382666
20
690.190325
11
334.602920
21
694.191700
0
LINE
8
Calque 1
10
334.602920
20
694.191700
11
329.513957
21
696.425973
0
LINE
8
Calque 1
10
329.513957
20
696.425973
11
324.626664
21
698.309088
0
LINE
8
Calque 1
10
324.626664
20
698.309088
11
320.172749
21
699.758383
0
LINE
8
Calque 1
10
320.172749
20
699.758383
11
316.383920
21
700.691200
0
LINE
8
Calque 1
10
316.383920
20
700.691200
11
313.167949
21
701.121788
0
LINE
8
Calque 1
10
313.167949
20
701.121788
11
308.798170
21
701.150000
0
LINE
8
Calque 1
10
308.798170
20
701.150000
11
304.649200
21
700.983938
0
LINE
8
Calque 1
10
304.649200
20
700.983938
11
303.892200
21
700.785823
0
LINE
8
Calque 1
10
303.892200
20
700.785823
11
303.418150
21
700.431400
0
LINE
8
Calque 1
10
303.418150
20
700.431400
11
302.851057
21
699.606075
0
LINE
8
Calque 1
10
302.851057
20
699.606075
11
302.453060
21
698.447000
0
LINE
8
Calque 1
10
302.453060
20
698.447000
11
302.172727
21
694.807188
0
LINE
8
Calque 1
10
302.172727
20
694.807188
11
301.916770
21
687.961800
0
LINE
8
Calque 1
10
301.916770
20
687.961800
11
301.523370
21
677.643000
0
LINE
8
Calque 1
10
301.523370
20
677.643000
11
300.973520
21
673.277400
0
LINE
8
Calque 1
10
300.973520
20
673.277400
11
299.775663
21
665.716322
0
LINE
8
Calque 1
10
299.775663
20
665.716322
11
298.965729
21
662.039139
0
LINE
8
Calque 1
10
298.965729
20
662.039139
11
297.966142
21
658.259400
0
LINE
8
Calque 1
10
297.966142
20
658.259400
11
295.251075
21
649.877878
0
LINE
8
Calque 1
10
295.251075
20
649.877878
11
291.336580
21
639.543000
0
LINE
8
Calque 1
10
291.336580
20
639.543000
11
288.739692
21
632.877167
0
LINE
8
Calque 1
10
288.739692
20
632.877167
11
287.119125
21
628.374888
0
LINE
8
Calque 1
10
287.119125
20
628.374888
11
286.183877
21
625.157189
0
LINE
8
Calque 1
10
286.183877
20
625.157189
11
285.642950
21
622.345100
0
LINE
8
Calque 1
10
285.642950
20
622.345100
11
285.375004
21
620.230881
0
LINE
8
Calque 1
10
285.375004
20
620.230881
11
285.286262
21
618.388650
0
LINE
8
Calque 1
10
285.286262
20
618.388650
11
285.376865
21
616.507194
0
LINE
8
Calque 1
10
285.376865
20
616.507194
11
285.646950
21
614.275300
0
LINE
8
Calque 1
10
285.646950
20
614.275300
11
286.111525
21
611.655410
0
LINE
8
Calque 1
10
286.111525
20
611.655410
11
286.776749
21
608.990545
0
LINE
8
Calque 1
10
286.776749
20
608.990545
11
287.680148
21
606.191386
0
LINE
8
Calque 1
10
287.680148
20
606.191386
11
288.859247
21
603.168613
0
LINE
8
Calque 1
10
288.859247
20
603.168613
11
292.194647
21
596.094948
0
LINE
8
Calque 1
10
292.194647
20
596.094948
11
297.083150
21
587.055000
0
LINE
8
Calque 1
10
297.083150
20
587.055000
11
301.004978
21
579.923158
0
LINE
8
Calque 1
10
301.004978
20
579.923158
11
303.735847
21
574.523713
0
LINE
8
Calque 1
10
303.735847
20
574.523713
11
305.644968
21
570.072886
0
LINE
8
Calque 1
10
305.644968
20
570.072886
11
307.101550
21
565.786900
0
LINE
8
Calque 1
10
307.101550
20
565.786900
11
308.419955
21
560.844404
0
LINE
8
Calque 1
10
308.419955
20
560.844404
11
309.418954
21
555.782983
0
LINE
8
Calque 1
10
309.418954
20
555.782983
11
310.097699
21
550.625273
0
LINE
8
Calque 1
10
310.097699
20
550.625273
11
310.455344
21
545.393913
0
LINE
8
Calque 1
10
310.455344
20
545.393913
11
310.491041
21
540.111538
0
LINE
8
Calque 1
10
310.491041
20
540.111538
11
310.203944
21
534.800786
0
LINE
8
Calque 1
10
310.203944
20
534.800786
11
309.593206
21
529.484294
0
LINE
8
Calque 1
10
309.593206
20
529.484294
11
308.657980
21
524.184700
0
LINE
8
Calque 1
10
308.657980
20
524.184700
11
307.848890
21
520.480500
0
LINE
8
Calque 1
10
307.848890
20
520.480500
11
307.802296
21
520.002413
0
LINE
8
Calque 1
10
307.802296
20
520.002413
11
308.529530
21
520.612800
0
LINE
8
Calque 1
10
308.529530
20
520.612800
11
309.746483
21
521.964194
0
LINE
8
Calque 1
10
309.746483
20
521.964194
11
311.391882
21
524.074025
0
LINE
8
Calque 1
10
311.391882
20
524.074025
11
314.688200
21
528.856000
0
LINE
8
Calque 1
10
314.688200
20
528.856000
11
316.999307
21
532.928370
0
LINE
8
Calque 1
10
316.999307
20
532.928370
11
319.100940
21
537.307402
0
LINE
8
Calque 1
10
319.100940
20
537.307402
11
320.968376
21
541.912467
0
LINE
8
Calque 1
10
320.968376
20
541.912467
11
322.576889
21
546.662938
0
LINE
8
Calque 1
10
322.576889
20
546.662938
11
323.901753
21
551.478185
0
LINE
8
Calque 1
10
323.901753
20
551.478185
11
324.918243
21
556.277580
0
LINE
8
Calque 1
10
324.918243
20
556.277580
11
325.601634
21
560.980494
0
LINE
8
Calque 1
10
325.601634
20
560.980494
11
325.927200
21
565.506300
0
LINE
8
Calque 1
10
325.927200
20
565.506300
11
325.878776
21
571.072097
0
LINE
8
Calque 1
10
325.878776
20
571.072097
11
325.631297
21
573.575345
0
LINE
8
Calque 1
10
325.631297
20
573.575345
11
325.198455
21
576.064650
0
LINE
8
Calque 1
10
325.198455
20
576.064650
11
324.552862
21
578.669380
0
LINE
8
Calque 1
10
324.552862
20
578.669380
11
323.667131
21
581.518903
0
LINE
8
Calque 1
10
323.667131
20
581.518903
11
321.065700
21
588.469800
0
LINE
8
Calque 1
10
321.065700
20
588.469800
11
318.128317
21
596.077711
0
LINE
8
Calque 1
10
318.128317
20
596.077711
11
316.301040
21
601.636913
0
LINE
8
Calque 1
10
316.301040
20
601.636913
11
315.241043
21
606.369408
0
LINE
8
Calque 1
10
315.241043
20
606.369408
11
314.605500
21
611.497200
0
LINE
8
Calque 1
10
314.605500
20
611.497200
11
314.415610
21
614.491780
0
LINE
8
Calque 1
10
314.415610
20
614.491780
11
314.490001
21
616.994313
0
LINE
8
Calque 1
10
314.490001
20
616.994313
11
314.855544
21
619.298414
0
LINE
8
Calque 1
10
314.855544
20
619.298414
11
315.539110
21
621.697700
0
LINE
8
Calque 1
10
315.539110
20
621.697700
11
316.536981
21
624.297655
0
LINE
8
Calque 1
10
316.536981
20
624.297655
11
317.942058
21
627.417952
0
LINE
8
Calque 1
10
317.942058
20
627.417952
11
321.624786
21
634.582713
0
LINE
8
Calque 1
10
321.624786
20
634.582713
11
325.889201
21
641.918267
0
LINE
8
Calque 1
10
325.889201
20
641.918267
11
330.037210
21
648.150900
0
LINE
8
Calque 1
10
330.037210
20
648.150900
11
331.069597
21
649.393203
0
LINE
8
Calque 1
10
331.069597
20
649.393203
11
331.503642
21
649.717628
0
LINE
8
Calque 1
10
331.503642
20
649.717628
11
331.925360
21
649.847575
0
LINE
8
Calque 1
10
331.925360
20
649.847575
11
332.366578
21
649.785550
0
LINE
8
Calque 1
10
332.366578
20
649.785550
11
332.859123
21
649.534059
0
LINE
8
Calque 1
10
332.859123
20
649.534059
11
334.125510
21
648.472700
0
LINE
8
Calque 1
10
334.125510
20
648.472700
11
337.003002
21
645.316425
0
LINE
8
Calque 1
10
337.003002
20
645.316425
11
338.166052
21
643.763113
0
LINE
8
Calque 1
10
338.166052
20
643.763113
11
338.849290
21
642.594700
0
LINE
8
Calque 1
10
338.849290
20
642.594700
11
339.123097
21
641.520372
0
LINE
8
Calque 1
10
339.123097
20
641.520372
11
339.029064
21
641.134496
0
LINE
8
Calque 1
10
339.029064
20
641.134496
11
338.756205
21
640.831525
0
LINE
8
Calque 1
10
338.756205
20
640.831525
11
337.599398
21
640.420441
0
LINE
8
Calque 1
10
337.599398
20
640.420441
11
335.503460
21
640.179400
0
LINE
8
Calque 1
10
335.503460
20
640.179400
11
332.619980
21
639.810450
0
LINE
8
Calque 1
10
332.619980
20
639.810450
11
332.007837
21
639.541187
0
LINE
8
Calque 1
10
332.007837
20
639.541187
11
331.824500
21
639.181700
0
LINE
8
Calque 1
10
331.824500
20
639.181700
11
332.590436
21
638.030938
0
LINE
8
Calque 1
10
332.590436
20
638.030938
11
334.431940
21
635.789900
0
LINE
8
Calque 1
10
334.431940
20
635.789900
11
337.156565
21
632.436800
0
LINE
8
Calque 1
10
337.156565
20
632.436800
11
337.539826
21
631.641434
0
LINE
8
Calque 1
10
337.539826
20
631.641434
11
337.509780
21
631.066100
0
LINE
8
Calque 1
10
337.509780
20
631.066100
11
337.228260
21
630.577280
0
LINE
8
Calque 1
10
337.228260
20
630.577280
11
336.628515
21
630.260688
0
LINE
8
Calque 1
10
336.628515
20
630.260688
11
333.676590
21
629.901900
0
LINE
8
Calque 1
10
333.676590
20
629.901900
11
330.158552
21
629.500387
0
LINE
8
Calque 1
10
330.158552
20
629.500387
11
329.191862
21
629.207114
0
LINE
8
Calque 1
10
329.191862
20
629.207114
11
328.652180
21
628.830600
0
LINE
8
Calque 1
10
328.652180
20
628.830600
11
328.571725
21
628.250647
0
LINE
8
Calque 1
10
328.571725
20
628.250647
11
329.058086
21
627.224425
0
LINE
8
Calque 1
10
329.058086
20
627.224425
11
330.197819
21
625.611441
0
LINE
8
Calque 1
10
330.197819
20
625.611441
11
332.077480
21
623.271200
0
LINE
8
Calque 1
10
332.077480
20
623.271200
11
334.394903
21
620.390795
0
LINE
8
Calque 1
10
334.394903
20
620.390795
11
335.896664
21
618.294863
0
LINE
8
Calque 1
10
335.896664
20
618.294863
11
336.732115
21
616.750798
0
LINE
8
Calque 1
10
336.732115
20
616.750798
11
337.050610
21
615.526000
0
LINE
8
Calque 1
10
337.050610
20
615.526000
11
337.042952
21
614.723852
0
LINE
8
Calque 1
10
337.042952
20
614.723852
11
336.877338
21
613.896945
0
LINE
8
Calque 1
10
336.877338
20
613.896945
11
336.119774
21
612.244238
0
LINE
8
Calque 1
10
336.119774
20
612.244238
11
334.872983
21
610.718636
0
LINE
8
Calque 1
10
334.872983
20
610.718636
11
333.232030
21
609.470900
0
LINE
8
Calque 1
10
333.232030
20
609.470900
11
332.470884
21
609.063211
0
LINE
8
Calque 1
10
332.470884
20
609.063211
11
331.684104
21
608.908863
0
LINE
8
Calque 1
10
331.684104
20
608.908863
11
327.949350
21
609.288000
0
LINE
8
Calque 1
10
327.949350
20
609.288000
11
326.900523
21
609.302016
0
LINE
8
Calque 1
10
326.900523
20
609.302016
11
325.632535
21
609.159375
0
LINE
8
Calque 1
10
325.632535
20
609.159375
11
324.443709
21
608.907947
0
LINE
8
Calque 1
10
324.443709
20
608.907947
11
323.632370
21
608.595600
0
LINE
8
Calque 1
10
323.632370
20
608.595600
11
323.510707
21
608.420479
0
LINE
8
Calque 1
10
323.510707
20
608.420479
11
323.550473
21
608.119419
0
LINE
8
Calque 1
10
323.550473
20
608.119419
11
324.199584
21
607.021000
0
LINE
8
Calque 1
10
324.199584
20
607.021000
11
328.373150
21
602.009600
0
LINE
8
Calque 1
10
328.373150
20
602.009600
11
333.218858
21
596.172086
0
LINE
8
Calque 1
10
333.218858
20
596.172086
11
335.071950
21
593.636698
0
LINE
8
Calque 1
10
335.071950
20
593.636698
11
336.629732
21
591.215138
0
LINE
8
Calque 1
10
336.629732
20
591.215138
11
337.955604
21
588.801091
0
LINE
8
Calque 1
10
337.955604
20
588.801091
11
339.112965
21
586.288245
0
LINE
8
Calque 1
10
339.112965
20
586.288245
11
340.165214
21
583.570286
0
LINE
8
Calque 1
10
340.165214
20
583.570286
11
341.175750
21
580.540900
0
LINE
8
Calque 1
10
341.175750
20
580.540900
11
342.857113
21
574.370969
0
LINE
8
Calque 1
10
342.857113
20
574.370969
11
343.937924
21
568.479400
0
LINE
8
Calque 1
10
343.937924
20
568.479400
11
344.421433
21
562.842231
0
LINE
8
Calque 1
10
344.421433
20
562.842231
11
344.310890
21
557.435500
0
LINE
8
Calque 1
10
344.310890
20
557.435500
11
344.170942
21
554.523563
0
LINE
8
Calque 1
10
344.170942
20
554.523563
11
344.287690
21
552.913700
0
LINE
8
Calque 1
10
344.287690
20
552.913700
11
344.816099
21
551.770648
0
LINE
8
Calque 1
10
344.816099
20
551.770648
11
345.916199
21
550.211713
0
LINE
8
Calque 1
10
345.916199
20
550.211713
11
350.120830
21
545.477300
0
LINE
8
Calque 1
10
350.120830
20
545.477300
11
353.739554
21
541.457336
0
LINE
8
Calque 1
10
353.739554
20
541.457336
11
356.046222
21
538.330537
0
LINE
8
Calque 1
10
356.046222
20
538.330537
11
356.776991
21
536.989291
0
LINE
8
Calque 1
10
356.776991
20
536.989291
11
357.263092
21
535.735995
0
LINE
8
Calque 1
10
357.263092
20
535.735995
11
357.532308
21
534.525536
0
LINE
8
Calque 1
10
357.532308
20
534.525536
11
357.612420
21
533.312800
0
LINE
8
Calque 1
10
357.612420
20
533.312800
11
357.508947
21
531.865864
0
LINE
8
Calque 1
10
357.508947
20
531.865864
11
357.035900
21
530.421713
0
LINE
8
Calque 1
10
357.035900
20
530.421713
11
355.929088
21
528.400755
0
LINE
8
Calque 1
10
355.929088
20
528.400755
11
353.924320
21
525.223400
0
LINE
8
Calque 1
10
353.924320
20
525.223400
11
351.668270
21
521.514200
0
LINE
8
Calque 1
10
351.668270
20
521.514200
11
351.844800
21
521.295452
0
LINE
8
Calque 1
10
351.844800
20
521.295452
11
352.491794
21
521.134312
0
LINE
8
Calque 1
10
352.491794
20
521.134312
11
355.901610
21
520.879300
0
LINE
8
Calque 1
10
355.901610
20
520.879300
11
360.370216
21
520.492538
0
LINE
8
Calque 1
10
360.370216
20
520.492538
11
361.901743
21
520.219867
0
LINE
8
Calque 1
10
361.901743
20
520.219867
11
362.918350
21
519.900800
0
LINE
8
Calque 1
10
362.918350
20
519.900800
11
363.882995
21
518.952725
0
LINE
8
Calque 1
10
363.882995
20
518.952725
11
365.327100
21
517.072100
0
LINE
8
Calque 1
10
365.327100
20
517.072100
11
368.860548
21
512.323861
0
LINE
8
Calque 1
10
368.860548
20
512.323861
11
371.963607
21
508.828112
0
LINE
8
Calque 1
10
371.963607
20
508.828112
11
373.423315
21
507.480790
0
LINE
8
Calque 1
10
373.423315
20
507.480790
11
374.858913
21
506.363633
0
LINE
8
Calque 1
10
374.858913
20
506.363633
11
376.298231
21
505.448987
0
LINE
8
Calque 1
10
376.298231
20
505.448987
11
377.769100
21
504.709200
0
LINE
8
Calque 1
10
377.769100
20
504.709200
11
379.242656
21
504.116681
0
LINE
8
Calque 1
10
379.242656
20
504.116681
11
380.525862
21
503.777700
0
LINE
8
Calque 1
10
380.525862
20
503.777700
11
381.909122
21
503.640394
0
LINE
8
Calque 1
10
381.909122
20
503.640394
11
383.682840
21
503.652900
0
LINE
8
Calque 1
10
383.682840
20
503.652900
11
386.034255
21
503.864850
0
LINE
8
Calque 1
10
386.034255
20
503.864850
11
387.916170
21
504.444000
0
LINE
8
Calque 1
10
387.916170
20
504.444000
11
387.916030
21
504.444000
0
LINE
8
Calque 1
10
366.814030
20
557.852900
11
366.135350
21
560.243400
0
LINE
8
Calque 1
10
366.135350
20
560.243400
11
365.765757
21
561.773653
0
LINE
8
Calque 1
10
365.765757
20
561.773653
11
365.274027
21
563.201736
0
LINE
8
Calque 1
10
365.274027
20
563.201736
11
364.620474
21
564.586035
0
LINE
8
Calque 1
10
364.620474
20
564.586035
11
363.765411
21
565.984938
0
LINE
8
Calque 1
10
363.765411
20
565.984938
11
361.292013
21
569.060095
0
LINE
8
Calque 1
10
361.292013
20
569.060095
11
357.536340
21
572.894300
0
LINE
8
Calque 1
10
357.536340
20
572.894300
11
354.365474
21
576.116287
0
LINE
8
Calque 1
10
354.365474
20
576.116287
11
352.255460
21
578.512300
0
LINE
8
Calque 1
10
352.255460
20
578.512300
11
350.208079
21
581.744898
0
LINE
8
Calque 1
10
350.208079
20
581.744898
11
348.404294
21
585.567362
0
LINE
8
Calque 1
10
348.404294
20
585.567362
11
346.958894
21
589.698695
0
LINE
8
Calque 1
10
346.958894
20
589.698695
11
345.986670
21
593.857900
0
LINE
8
Calque 1
10
345.986670
20
593.857900
11
345.777226
21
595.441369
0
LINE
8
Calque 1
10
345.777226
20
595.441369
11
345.802820
21
596.475800
0
LINE
8
Calque 1
10
345.802820
20
596.475800
11
346.078149
21
597.039231
0
LINE
8
Calque 1
10
346.078149
20
597.039231
11
346.617910
21
597.209700
0
LINE
8
Calque 1
10
346.617910
20
597.209700
11
347.021637
21
597.135245
0
LINE
8
Calque 1
10
347.021637
20
597.135245
11
347.395059
21
596.823238
0
LINE
8
Calque 1
10
347.395059
20
596.823238
11
348.493290
21
594.954700
0
LINE
8
Calque 1
10
348.493290
20
594.954700
11
349.389616
21
593.452002
0
LINE
8
Calque 1
10
349.389616
20
593.452002
11
350.579076
21
591.783677
0
LINE
8
Calque 1
10
350.579076
20
591.783677
11
353.683874
21
588.116463
0
LINE
8
Calque 1
10
353.683874
20
588.116463
11
357.500629
21
584.285692
0
LINE
8
Calque 1
10
357.500629
20
584.285692
11
361.722290
21
580.624000
0
LINE
8
Calque 1
10
361.722290
20
580.624000
11
365.802625
21
577.141778
0
LINE
8
Calque 1
10
365.802625
20
577.141778
11
367.091431
21
575.699386
0
LINE
8
Calque 1
10
367.091431
20
575.699386
11
367.977727
21
574.246750
0
LINE
8
Calque 1
10
367.977727
20
574.246750
11
368.535315
21
572.626826
0
LINE
8
Calque 1
10
368.535315
20
572.626826
11
368.837994
21
570.682572
0
LINE
8
Calque 1
10
368.837994
20
570.682572
11
368.973820
21
565.192900
0
LINE
8
Calque 1
10
368.973820
20
565.192900
11
368.906811
21
561.322661
0
LINE
8
Calque 1
10
368.906811
20
561.322661
11
368.708394
21
558.982712
0
LINE
8
Calque 1
10
368.708394
20
558.982712
11
368.321057
21
557.830183
0
LINE
8
Calque 1
10
368.321057
20
557.830183
11
368.038572
21
557.592053
0
LINE
8
Calque 1
10
368.038572
20
557.592053
11
367.687290
21
557.522200
0
LINE
8
Calque 1
10
367.687290
20
557.522200
11
367.179756
21
557.619338
0
LINE
8
Calque 1
10
367.179756
20
557.619338
11
366.814070
21
557.852900
0
LINE
8
Calque 1
10
366.814070
20
557.852900
11
366.814030
21
557.852900
0
LINE
8
Calque 1
10
397.680730
20
558.514400
11
397.427757
21
560.681600
0
LINE
8
Calque 1
10
397.427757
20
560.681600
11
397.329480
21
565.195100
0
LINE
8
Calque 1
10
397.329480
20
565.195100
11
397.401534
21
569.783761
0
LINE
8
Calque 1
10
397.401534
20
569.783761
11
397.768796
21
572.759388
0
LINE
8
Calque 1
10
397.768796
20
572.759388
11
398.114693
21
573.859529
0
LINE
8
Calque 1
10
398.114693
20
573.859529
11
398.596268
21
574.817070
0
LINE
8
Calque 1
10
398.596268
20
574.817070
11
400.048950
21
576.651900
0
LINE
8
Calque 1
10
400.048950
20
576.651900
11
401.888074
21
578.362963
0
LINE
8
Calque 1
10
401.888074
20
578.362963
11
404.584710
21
580.624000
0
LINE
8
Calque 1
10
404.584710
20
580.624000
11
408.806345
21
584.285692
0
LINE
8
Calque 1
10
408.806345
20
584.285692
11
412.623089
21
588.116463
0
LINE
8
Calque 1
10
412.623089
20
588.116463
11
415.727893
21
591.783677
0
LINE
8
Calque 1
10
415.727893
20
591.783677
11
416.917365
21
593.452002
0
LINE
8
Calque 1
10
416.917365
20
593.452002
11
417.813710
21
594.954700
0
LINE
8
Calque 1
10
417.813710
20
594.954700
11
418.911941
21
596.823238
0
LINE
8
Calque 1
10
418.911941
20
596.823238
11
419.285363
21
597.135245
0
LINE
8
Calque 1
10
419.285363
20
597.135245
11
419.689090
21
597.209700
0
LINE
8
Calque 1
10
419.689090
20
597.209700
11
420.228851
21
597.039231
0
LINE
8
Calque 1
10
420.228851
20
597.039231
11
420.504180
21
596.475800
0
LINE
8
Calque 1
10
420.504180
20
596.475800
11
420.529774
21
595.441369
0
LINE
8
Calque 1
10
420.529774
20
595.441369
11
420.320330
21
593.857900
0
LINE
8
Calque 1
10
420.320330
20
593.857900
11
419.348106
21
589.698695
0
LINE
8
Calque 1
10
419.348106
20
589.698695
11
417.902706
21
585.567362
0
LINE
8
Calque 1
10
417.902706
20
585.567362
11
416.098921
21
581.744898
0
LINE
8
Calque 1
10
416.098921
20
581.744898
11
414.051540
21
578.512300
0
LINE
8
Calque 1
10
414.051540
20
578.512300
11
411.941526
21
576.116287
0
LINE
8
Calque 1
10
411.941526
20
576.116287
11
408.770660
21
572.894300
0
LINE
8
Calque 1
10
408.770660
20
572.894300
11
405.014987
21
569.060095
0
LINE
8
Calque 1
10
405.014987
20
569.060095
11
402.541589
21
565.984937
0
LINE
8
Calque 1
10
402.541589
20
565.984937
11
401.686526
21
564.586035
0
LINE
8
Calque 1
10
401.686526
20
564.586035
11
401.032973
21
563.201736
0
LINE
8
Calque 1
10
401.032973
20
563.201736
11
400.541243
21
561.773653
0
LINE
8
Calque 1
10
400.541243
20
561.773653
11
400.171650
21
560.243400
0
LINE
8
Calque 1
10
400.171650
20
560.243400
11
399.852525
21
558.834316
0
LINE
8
Calque 1
10
399.852525
20
558.834316
11
399.542902
21
558.008225
0
LINE
8
Calque 1
10
399.542902
20
558.008225
11
399.159679
21
557.619422
0
LINE
8
Calque 1
10
399.159679
20
557.619422
11
398.619750
21
557.522200
0
LINE
8
Calque 1
10
398.619750
20
557.522200
11
398.070044
21
557.732100
0
LINE
8
Calque 1
10
398.070044
20
557.732100
11
397.680770
21
558.514400
0
LINE
8
Calque 1
10
397.680770
20
558.514400
11
397.680730
21
558.514400
0
LINE
8
Calque 1
10
369.488130
20
577.489300
11
369.022674
21
578.168138
0
LINE
8
Calque 1
10
369.022674
20
578.168138
11
368.776180
21
579.678500
0
LINE
8
Calque 1
10
368.776180
20
579.678500
11
368.555166
21
581.289234
0
LINE
8
Calque 1
10
368.555166
20
581.289234
11
368.178642
21
582.859372
0
LINE
8
Calque 1
10
368.178642
20
582.859372
11
367.616194
21
584.447280
0
LINE
8
Calque 1
10
367.616194
20
584.447280
11
366.837407
21
586.111325
0
LINE
8
Calque 1
10
366.837407
20
586.111325
11
364.509162
21
589.901291
0
LINE
8
Calque 1
10
364.509162
20
589.901291
11
360.950590
21
594.696200
0
LINE
8
Calque 1
10
360.950590
20
594.696200
11
359.103573
21
597.162553
0
LINE
8
Calque 1
10
359.103573
20
597.162553
11
357.863621
21
599.118925
0
LINE
8
Calque 1
10
357.863621
20
599.118925
11
357.035887
21
600.919334
0
LINE
8
Calque 1
10
357.035887
20
600.919334
11
356.425520
21
602.917800
0
LINE
8
Calque 1
10
356.425520
20
602.917800
11
356.038434
21
605.177928
0
LINE
8
Calque 1
10
356.038434
20
605.177928
11
355.776940
21
608.059150
0
LINE
8
Calque 1
10
355.776940
20
608.059150
11
355.688066
21
610.806047
0
LINE
8
Calque 1
10
355.688066
20
610.806047
11
355.818840
21
612.663200
0
LINE
8
Calque 1
10
355.818840
20
612.663200
11
356.083532
21
613.433884
0
LINE
8
Calque 1
10
356.083532
20
613.433884
11
356.457859
21
613.934625
0
LINE
8
Calque 1
10
356.457859
20
613.934625
11
356.905271
21
614.134278
0
LINE
8
Calque 1
10
356.905271
20
614.134278
11
357.389220
21
614.001700
0
LINE
8
Calque 1
10
357.389220
20
614.001700
11
358.019030
21
612.879963
0
LINE
8
Calque 1
10
358.019030
20
612.879963
11
358.930090
21
610.563400
0
LINE
8
Calque 1
10
358.930090
20
610.563400
11
360.401669
21
606.855045
0
LINE
8
Calque 1
10
360.401669
20
606.855045
11
362.004400
21
603.783338
0
LINE
8
Calque 1
10
362.004400
20
603.783338
11
363.787356
21
601.267286
0
LINE
8
Calque 1
10
363.787356
20
601.267286
11
365.799610
21
599.225900
0
LINE
8
Calque 1
10
365.799610
20
599.225900
11
367.307491
21
597.770261
0
LINE
8
Calque 1
10
367.307491
20
597.770261
11
368.654340
21
596.128236
0
LINE
8
Calque 1
10
368.654340
20
596.128236
11
369.828269
21
594.326365
0
LINE
8
Calque 1
10
369.828269
20
594.326365
11
370.817391
21
592.391188
0
LINE
8
Calque 1
10
370.817391
20
592.391188
11
371.609819
21
590.349243
0
LINE
8
Calque 1
10
371.609819
20
590.349243
11
372.193664
21
588.227070
0
LINE
8
Calque 1
10
372.193664
20
588.227070
11
372.557040
21
586.051210
0
LINE
8
Calque 1
10
372.557040
20
586.051210
11
372.688060
21
583.848200
0
LINE
8
Calque 1
10
372.688060
20
583.848200
11
372.581821
21
581.137525
0
LINE
8
Calque 1
10
372.581821
20
581.137525
11
372.345564
21
580.303803
0
LINE
8
Calque 1
10
372.345564
20
580.303803
11
371.908650
21
579.366000
0
LINE
8
Calque 1
10
371.908650
20
579.366000
11
371.233807
21
578.188080
0
LINE
8
Calque 1
10
371.233807
20
578.188080
11
370.631887
21
577.503162
0
LINE
8
Calque 1
10
370.631887
20
577.503162
11
370.063220
21
577.280489
0
LINE
8
Calque 1
10
370.063220
20
577.280489
11
369.488130
21
577.489300
0
LINE
8
Calque 1
10
369.488130
20
577.489300
11
369.488130
21
577.489300
0
LINE
8
Calque 1
10
395.534930
20
577.616200
11
394.879860
21
578.397187
0
LINE
8
Calque 1
10
394.879860
20
578.397187
11
394.240540
21
579.539000
0
LINE
8
Calque 1
10
394.240540
20
579.539000
11
393.749126
21
581.380534
0
LINE
8
Calque 1
10
393.749126
20
581.380534
11
393.580651
21
583.769775
0
LINE
8
Calque 1
10
393.580651
20
583.769775
11
393.736021
21
586.363728
0
LINE
8
Calque 1
10
393.736021
20
586.363728
11
394.216140
21
588.819400
0
LINE
8
Calque 1
10
394.216140
20
588.819400
11
395.309652
21
591.910194
0
LINE
8
Calque 1
10
395.309652
20
591.910194
11
396.747600
21
594.716100
0
LINE
8
Calque 1
10
396.747600
20
594.716100
11
398.492605
21
597.175281
0
LINE
8
Calque 1
10
398.492605
20
597.175281
11
400.507290
21
599.225900
0
LINE
8
Calque 1
10
400.507290
20
599.225900
11
402.519548
21
601.267286
0
LINE
8
Calque 1
10
402.519548
20
601.267286
11
404.302504
21
603.783338
0
LINE
8
Calque 1
10
404.302504
20
603.783338
11
405.905233
21
606.855045
0
LINE
8
Calque 1
10
405.905233
20
606.855045
11
407.376810
21
610.563400
0
LINE
8
Calque 1
10
407.376810
20
610.563400
11
408.287870
21
612.879963
0
LINE
8
Calque 1
10
408.287870
20
612.879963
11
408.917680
21
614.001700
0
LINE
8
Calque 1
10
408.917680
20
614.001700
11
409.401629
21
614.134278
0
LINE
8
Calque 1
10
409.401629
20
614.134278
11
409.849041
21
613.934625
0
LINE
8
Calque 1
10
409.849041
20
613.934625
11
410.223368
21
613.433884
0
LINE
8
Calque 1
10
410.223368
20
613.433884
11
410.488060
21
612.663200
0
LINE
8
Calque 1
10
410.488060
20
612.663200
11
410.618840
21
610.806047
0
LINE
8
Calque 1
10
410.618840
20
610.806047
11
410.529975
21
608.059150
0
LINE
8
Calque 1
10
410.529975
20
608.059150
11
410.268483
21
605.177928
0
LINE
8
Calque 1
10
410.268483
20
605.177928
11
409.881380
21
602.917800
0
LINE
8
Calque 1
10
409.881380
20
602.917800
11
409.271017
21
600.919334
0
LINE
8
Calque 1
10
409.271017
20
600.919334
11
408.443282
21
599.118925
0
LINE
8
Calque 1
10
408.443282
20
599.118925
11
407.203329
21
597.162553
0
LINE
8
Calque 1
10
407.203329
20
597.162553
11
405.356310
21
594.696200
0
LINE
8
Calque 1
10
405.356310
20
594.696200
11
401.807332
21
589.921111
0
LINE
8
Calque 1
10
401.807332
20
589.921111
11
399.495640
21
586.164363
0
LINE
8
Calque 1
10
399.495640
20
586.164363
11
398.719899
21
584.506976
0
LINE
8
Calque 1
10
398.719899
20
584.506976
11
398.152828
21
582.911108
0
LINE
8
Calque 1
10
398.152828
20
582.911108
11
397.760875
21
581.312401
0
LINE
8
Calque 1
10
397.760875
20
581.312401
11
397.510490
21
579.646500
0
LINE
8
Calque 1
10
397.510490
20
579.646500
11
397.235332
21
578.128888
0
LINE
8
Calque 1
10
397.235332
20
578.128888
11
397.032579
21
577.722089
0
LINE
8
Calque 1
10
397.032579
20
577.722089
11
396.754960
21
577.459000
0
LINE
8
Calque 1
10
396.754960
20
577.459000
11
396.182065
21
577.243900
0
LINE
8
Calque 1
10
396.182065
20
577.243900
11
395.534950
21
577.616200
0
LINE
8
Calque 1
10
395.534950
20
577.616200
11
395.534930
21
577.616200
0
LINE
8
Calque 1
10
308.110130
20
542.176400
11
308.052871
21
548.759625
0
LINE
8
Calque 1
10
308.052871
20
548.759625
11
307.804760
21
552.230500
0
LINE
8
Calque 1
10
307.804760
20
552.230500
11
307.465480
21
554.214900
0
LINE
8
Calque 1
10
307.465480
20
554.214900
11
282.008580
21
579.680900
0
LINE
8
Calque 1
10
282.008580
20
579.680900
11
256.551680
21
605.146900
0
LINE
8
Calque 1
10
256.551680
20
605.146900
11
272.192580
21
620.823600
0
LINE
8
Calque 1
10
272.192580
20
620.823600
11
287.833480
21
636.500300
0
LINE
8
Calque 1
10
287.833480
20
636.500300
11
290.364010
21
642.850300
0
LINE
8
Calque 1
10
290.364010
20
642.850300
11
293.499971
21
651.147169
0
LINE
8
Calque 1
10
293.499971
20
651.147169
11
295.798906
21
658.349000
0
LINE
8
Calque 1
10
295.798906
20
658.349000
11
297.479589
21
665.229981
0
LINE
8
Calque 1
10
297.479589
20
665.229981
11
298.760790
21
672.564300
0
LINE
8
Calque 1
10
298.760790
20
672.564300
11
299.280510
21
676.532600
0
LINE
8
Calque 1
10
299.280510
20
676.532600
11
296.789144
21
674.192798
0
LINE
8
Calque 1
10
296.789144
20
674.192798
11
290.140432
21
667.673962
0
LINE
8
Calque 1
10
290.140432
20
667.673962
11
269.323285
21
647.029525
0
LINE
8
Calque 1
10
269.323285
20
647.029525
11
246.733701
21
624.459950
0
LINE
8
Calque 1
10
246.733701
20
624.459950
11
232.276310
21
609.825900
0
LINE
8
Calque 1
10
232.276310
20
609.825900
11
227.747280
21
605.111800
0
LINE
8
Calque 1
10
227.747280
20
605.111800
11
249.673480
21
583.184500
0
LINE
8
Calque 1
10
249.673480
20
583.184500
11
271.747880
21
561.325000
0
LINE
8
Calque 1
10
271.747880
20
561.325000
11
272.482020
21
560.780400
0
LINE
8
Calque 1
10
272.482020
20
560.780400
11
272.894470
21
560.168000
0
LINE
8
Calque 1
10
272.894470
20
560.168000
11
272.814325
21
560.134568
0
LINE
8
Calque 1
10
272.814325
20
560.134568
11
272.866221
21
560.046366
0
LINE
8
Calque 1
10
272.866221
20
560.046366
11
273.243020
21
559.778200
0
LINE
8
Calque 1
10
273.243020
20
559.778200
11
274.226880
21
559.382700
0
LINE
8
Calque 1
10
274.226880
20
559.382700
11
274.516881
21
559.300763
0
LINE
8
Calque 1
10
274.516881
20
559.300763
11
274.541990
21
559.109700
0
LINE
8
Calque 1
10
274.541990
20
559.109700
11
274.547686
21
558.922838
0
LINE
8
Calque 1
10
274.547686
20
558.922838
11
274.790960
21
558.845100
0
LINE
8
Calque 1
10
274.790960
20
558.845100
11
275.094547
21
558.680500
0
LINE
8
Calque 1
10
275.094547
20
558.680500
11
275.222050
21
558.249800
0
LINE
8
Calque 1
10
275.222050
20
558.249800
11
275.270310
21
557.814388
0
LINE
8
Calque 1
10
275.270310
20
557.814388
11
275.468030
21
558.183800
0
LINE
8
Calque 1
10
275.468030
20
558.183800
11
275.685957
21
558.476838
0
LINE
8
Calque 1
10
275.685957
20
558.476838
11
275.831840
21
557.808900
0
LINE
8
Calque 1
10
275.831840
20
557.808900
11
276.105770
21
557.345900
0
LINE
8
Calque 1
10
276.105770
20
557.345900
11
276.224969
21
557.280900
0
LINE
8
Calque 1
10
276.224969
20
557.280900
11
276.156270
21
557.456200
0
LINE
8
Calque 1
10
276.156270
20
557.456200
11
276.089913
21
557.779505
0
LINE
8
Calque 1
10
276.089913
20
557.779505
11
276.531389
21
557.559838
0
LINE
8
Calque 1
10
276.531389
20
557.559838
11
278.494520
21
555.802500
0
LINE
8
Calque 1
10
278.494520
20
555.802500
11
279.176587
21
555.171650
0
LINE
8
Calque 1
10
279.176587
20
555.171650
11
279.336833
21
555.070491
0
LINE
8
Calque 1
10
279.336833
20
555.070491
11
279.339580
21
555.141100
0
LINE
8
Calque 1
10
279.339580
20
555.141100
11
279.361307
21
555.207450
0
LINE
8
Calque 1
10
279.361307
20
555.207450
11
279.703780
21
554.810300
0
LINE
8
Calque 1
10
279.703780
20
554.810300
11
280.540920
21
554.082700
0
LINE
8
Calque 1
10
280.540920
20
554.082700
11
281.434369
21
553.503625
0
LINE
8
Calque 1
10
281.434369
20
553.503625
11
283.889880
21
551.238400
0
LINE
8
Calque 1
10
283.889880
20
551.238400
11
285.584530
21
549.849400
0
LINE
8
Calque 1
10
285.584530
20
549.849400
11
285.700186
21
549.769750
0
LINE
8
Calque 1
10
285.700186
20
549.769750
11
285.650430
21
549.578200
0
LINE
8
Calque 1
10
285.650430
20
549.578200
11
285.601380
21
549.408088
0
LINE
8
Calque 1
10
285.601380
20
549.408088
11
285.718830
21
549.379800
0
LINE
8
Calque 1
10
285.718830
20
549.379800
11
286.979584
21
548.551538
0
LINE
8
Calque 1
10
286.979584
20
548.551538
11
287.704462
21
547.913236
0
LINE
8
Calque 1
10
287.704462
20
547.913236
11
287.969550
21
547.550400
0
LINE
8
Calque 1
10
287.969550
20
547.550400
11
288.101840
21
547.431900
0
LINE
8
Calque 1
10
288.101840
20
547.431900
11
289.292170
21
546.373500
0
LINE
8
Calque 1
10
289.292170
20
546.373500
11
290.525420
21
545.351500
0
LINE
8
Calque 1
10
290.525420
20
545.351500
11
291.434670
21
544.557700
0
LINE
8
Calque 1
10
291.434670
20
544.557700
11
292.245600
21
543.764000
0
LINE
8
Calque 1
10
292.245600
20
543.764000
11
294.319350
21
541.845700
0
LINE
8
Calque 1
10
294.319350
20
541.845700
11
300.630320
21
535.958800
0
LINE
8
Calque 1
10
300.630320
20
535.958800
11
302.063800
21
534.503600
0
LINE
8
Calque 1
10
302.063800
20
534.503600
11
303.779530
21
532.875900
0
LINE
8
Calque 1
10
303.779530
20
532.875900
11
306.159650
21
530.706000
0
LINE
8
Calque 1
10
306.159650
20
530.706000
11
307.350280
21
529.502300
0
LINE
8
Calque 1
10
307.350280
20
529.502300
11
307.713240
21
531.804500
0
LINE
8
Calque 1
10
307.713240
20
531.804500
11
307.993996
21
535.547688
0
LINE
8
Calque 1
10
307.993996
20
535.547688
11
308.110120
21
542.176500
0
LINE
8
Calque 1
10
308.110120
20
542.176500
11
308.110130
21
542.176400
0
LINE
8
Calque 1
10
460.967130
20
531.579700
11
463.847600
21
534.238900
0
LINE
8
Calque 1
10
463.847600
20
534.238900
11
470.563020
21
540.452900
0
LINE
8
Calque 1
10
470.563020
20
540.452900
11
471.599636
21
541.359713
0
LINE
8
Calque 1
10
471.599636
20
541.359713
11
472.185330
21
541.687600
0
LINE
8
Calque 1
10
472.185330
20
541.687600
11
472.317797
21
541.682938
0
LINE
8
Calque 1
10
472.317797
20
541.682938
11
472.264730
21
541.788300
0
LINE
8
Calque 1
10
472.264730
20
541.788300
11
472.524565
21
542.286091
0
LINE
8
Calque 1
10
472.524565
20
542.286091
11
473.318830
21
543.176075
0
LINE
8
Calque 1
10
473.318830
20
543.176075
11
474.211112
21
544.011722
0
LINE
8
Calque 1
10
474.211112
20
544.011722
11
474.765000
21
544.346500
0
LINE
8
Calque 1
10
474.765000
20
544.346500
11
474.905148
21
544.430075
0
LINE
8
Calque 1
10
474.905148
20
544.430075
11
474.963440
21
544.705500
0
LINE
8
Calque 1
10
474.963440
20
544.705500
11
475.030188
21
544.955588
0
LINE
8
Calque 1
10
475.030188
20
544.955588
11
475.190670
21
544.977600
0
LINE
8
Calque 1
10
475.190670
20
544.977600
11
476.022760
21
545.526350
0
LINE
8
Calque 1
10
476.022760
20
545.526350
11
477.704210
21
547.042600
0
LINE
8
Calque 1
10
477.704210
20
547.042600
11
479.990520
21
549.112500
0
LINE
8
Calque 1
10
479.990520
20
549.112500
11
480.767790
21
549.743900
0
LINE
8
Calque 1
10
480.767790
20
549.743900
11
482.776210
21
551.569100
0
LINE
8
Calque 1
10
482.776210
20
551.569100
11
485.369830
21
553.884200
0
LINE
8
Calque 1
10
485.369830
20
553.884200
11
486.432414
21
554.771800
0
LINE
8
Calque 1
10
486.432414
20
554.771800
11
487.073880
21
555.141000
0
LINE
8
Calque 1
10
487.073880
20
555.141000
11
487.359686
21
555.257125
0
LINE
8
Calque 1
10
487.359686
20
555.257125
11
487.567170
21
555.536300
0
LINE
8
Calque 1
10
487.567170
20
555.536300
11
487.743879
21
555.772550
0
LINE
8
Calque 1
10
487.743879
20
555.772550
11
487.955740
21
555.785300
0
LINE
8
Calque 1
10
487.955740
20
555.785300
11
488.123025
21
555.800838
0
LINE
8
Calque 1
10
488.123025
20
555.800838
11
488.192600
21
556.044600
0
LINE
8
Calque 1
10
488.192600
20
556.044600
11
488.425765
21
556.451675
0
LINE
8
Calque 1
10
488.425765
20
556.451675
11
488.986350
21
556.860700
0
LINE
8
Calque 1
10
488.986350
20
556.860700
11
489.546939
21
557.221325
0
LINE
8
Calque 1
10
489.546939
20
557.221325
11
489.780100
21
557.511900
0
LINE
8
Calque 1
10
489.780100
20
557.511900
11
490.050174
21
557.779475
0
LINE
8
Calque 1
10
490.050174
20
557.779475
11
490.699500
21
558.085000
0
LINE
8
Calque 1
10
490.699500
20
558.085000
11
491.502570
21
558.533800
0
LINE
8
Calque 1
10
491.502570
20
558.533800
11
491.468202
21
558.806064
0
LINE
8
Calque 1
10
491.468202
20
558.806064
11
491.663986
21
559.149813
0
LINE
8
Calque 1
10
491.663986
20
559.149813
11
491.972220
21
559.421355
0
LINE
8
Calque 1
10
491.972220
20
559.421355
11
492.275200
21
559.477000
0
LINE
8
Calque 1
10
492.275200
20
559.477000
11
492.710490
21
559.603450
0
LINE
8
Calque 1
10
492.710490
20
559.603450
11
493.246970
21
560.148400
0
LINE
8
Calque 1
10
493.246970
20
560.148400
11
493.778259
21
560.722838
0
LINE
8
Calque 1
10
493.778259
20
560.722838
11
494.211110
21
560.961800
0
LINE
8
Calque 1
10
494.211110
20
560.961800
11
494.424702
21
561.030675
0
LINE
8
Calque 1
10
494.424702
20
561.030675
11
494.428910
21
561.196300
0
LINE
8
Calque 1
10
494.428910
20
561.196300
11
494.488940
21
561.404375
0
LINE
8
Calque 1
10
494.488940
20
561.404375
11
494.836790
21
561.575400
0
LINE
8
Calque 1
10
494.836790
20
561.575400
11
495.192751
21
561.766700
0
LINE
8
Calque 1
10
495.192751
20
561.766700
11
495.189800
21
562.043200
0
LINE
8
Calque 1
10
495.189800
20
562.043200
11
495.120417
21
562.228625
0
LINE
8
Calque 1
10
495.120417
20
562.228625
11
495.245300
21
562.208700
0
LINE
8
Calque 1
10
495.245300
20
562.208700
11
501.749837
21
568.421750
0
LINE
8
Calque 1
10
501.749837
20
568.421750
11
517.029900
21
583.581400
0
LINE
8
Calque 1
10
517.029900
20
583.581400
11
538.559200
21
605.111800
0
LINE
8
Calque 1
10
538.559200
20
605.111800
11
534.030170
21
609.825900
0
LINE
8
Calque 1
10
534.030170
20
609.825900
11
519.572767
21
624.459950
0
LINE
8
Calque 1
10
519.572767
20
624.459950
11
496.983184
21
647.029525
0
LINE
8
Calque 1
10
496.983184
20
647.029525
11
476.166044
21
667.673963
0
LINE
8
Calque 1
10
476.166044
20
667.673963
11
469.517335
21
674.192798
0
LINE
8
Calque 1
10
469.517335
20
674.192798
11
467.025970
21
676.532600
0
LINE
8
Calque 1
10
467.025970
20
676.532600
11
467.545690
21
672.564300
0
LINE
8
Calque 1
10
467.545690
20
672.564300
11
468.826891
21
665.229981
0
LINE
8
Calque 1
10
468.826891
20
665.229981
11
470.507574
21
658.349000
0
LINE
8
Calque 1
10
470.507574
20
658.349000
11
472.806509
21
651.147169
0
LINE
8
Calque 1
10
472.806509
20
651.147169
11
475.942470
21
642.850300
0
LINE
8
Calque 1
10
475.942470
20
642.850300
11
478.473000
21
636.500300
0
LINE
8
Calque 1
10
478.473000
20
636.500300
11
494.113900
21
620.823600
0
LINE
8
Calque 1
10
494.113900
20
620.823600
11
509.754800
21
605.146900
0
LINE
8
Calque 1
10
509.754800
20
605.146900
11
484.297900
21
579.680900
0
LINE
8
Calque 1
10
484.297900
20
579.680900
11
458.841000
21
554.214900
0
LINE
8
Calque 1
10
458.841000
20
554.214900
11
458.503070
21
552.230500
0
LINE
8
Calque 1
10
458.503070
20
552.230500
11
458.237984
21
548.419827
0
LINE
8
Calque 1
10
458.237984
20
548.419827
11
458.155537
21
542.506613
0
LINE
8
Calque 1
10
458.155537
20
542.506613
11
458.253207
21
536.475592
0
LINE
8
Calque 1
10
458.253207
20
536.475592
11
458.528470
21
532.311500
0
LINE
8
Calque 1
10
458.528470
20
532.311500
11
458.894450
21
529.722700
0
LINE
8
Calque 1
10
458.894450
20
529.722700
11
459.454510
21
530.181500
0
LINE
8
Calque 1
10
459.454510
20
530.181500
11
460.967190
21
531.579700
0
LINE
8
Calque 1
10
460.967190
20
531.579700
11
460.967130
21
531.579700
0
LINE
8
Calque 1
10
355.210130
20
531.842400
11
355.433581
21
532.969587
0
LINE
8
Calque 1
10
355.433581
20
532.969587
11
355.397688
21
534.110194
0
LINE
8
Calque 1
10
355.397688
20
534.110194
11
355.061955
21
535.333704
0
LINE
8
Calque 1
10
355.061955
20
535.333704
11
354.385891
21
536.709600
0
LINE
8
Calque 1
10
354.385891
20
536.709600
11
353.329002
21
538.307365
0
LINE
8
Calque 1
10
353.329002
20
538.307365
11
351.850794
21
540.196481
0
LINE
8
Calque 1
10
351.850794
20
540.196481
11
347.468450
21
545.126700
0
LINE
8
Calque 1
10
347.468450
20
545.126700
11
344.673086
21
548.261297
0
LINE
8
Calque 1
10
344.673086
20
548.261297
11
342.964800
21
550.545750
0
LINE
8
Calque 1
10
342.964800
20
550.545750
11
342.110652
21
552.351928
0
LINE
8
Calque 1
10
342.110652
20
552.351928
11
341.877700
21
554.051700
0
LINE
8
Calque 1
10
341.877700
20
554.051700
11
341.716311
21
554.744170
0
LINE
8
Calque 1
10
341.716311
20
554.744170
11
340.888422
21
555.859537
0
LINE
8
Calque 1
10
340.888422
20
555.859537
11
335.170830
21
561.715500
0
LINE
8
Calque 1
10
335.170830
20
561.715500
11
328.463970
21
568.418500
0
LINE
8
Calque 1
10
328.463970
20
568.418500
11
328.279880
21
565.105300
0
LINE
8
Calque 1
10
328.279880
20
565.105300
11
327.734060
21
559.591000
0
LINE
8
Calque 1
10
327.734060
20
559.591000
11
327.372330
21
557.389900
0
LINE
8
Calque 1
10
327.372330
20
557.389900
11
340.892630
21
543.845300
0
LINE
8
Calque 1
10
340.892630
20
543.845300
11
350.502385
21
534.317075
0
LINE
8
Calque 1
10
350.502385
20
534.317075
11
354.620730
21
530.429000
0
LINE
8
Calque 1
10
354.620730
20
530.429000
11
355.210100
21
531.842400
0
LINE
8
Calque 1
10
355.210100
20
531.842400
11
355.210130
21
531.842400
0
LINE
8
Calque 1
10
438.571530
20
559.591000
11
438.025500
21
565.105300
0
LINE
8
Calque 1
10
438.025500
20
565.105300
11
437.841410
21
568.418500
0
LINE
8
Calque 1
10
437.841410
20
568.418500
11
431.134550
21
561.715500
0
LINE
8
Calque 1
10
431.134550
20
561.715500
11
425.416958
21
555.859538
0
LINE
8
Calque 1
10
425.416958
20
555.859538
11
424.589069
21
554.744170
0
LINE
8
Calque 1
10
424.589069
20
554.744170
11
424.427680
21
554.051700
0
LINE
8
Calque 1
10
424.427680
20
554.051700
11
424.193899
21
552.349205
0
LINE
8
Calque 1
10
424.193899
20
552.349205
11
423.338368
21
550.541888
0
LINE
8
Calque 1
10
423.338368
20
550.541888
11
421.629805
21
548.261002
0
LINE
8
Calque 1
10
421.629805
20
548.261002
11
418.836930
21
545.137800
0
LINE
8
Calque 1
10
418.836930
20
545.137800
11
414.336506
21
540.049041
0
LINE
8
Calque 1
10
414.336506
20
540.049041
11
412.831726
21
538.074660
0
LINE
8
Calque 1
10
412.831726
20
538.074660
11
411.775304
21
536.390400
0
LINE
8
Calque 1
10
411.775304
20
536.390400
11
411.130792
21
534.928853
0
LINE
8
Calque 1
10
411.130792
20
534.928853
11
410.861745
21
533.622609
0
LINE
8
Calque 1
10
410.861745
20
533.622609
11
410.931713
21
532.404261
0
LINE
8
Calque 1
10
410.931713
20
532.404261
11
411.304250
21
531.206400
0
LINE
8
Calque 1
10
411.304250
20
531.206400
11
411.747430
21
530.158200
0
LINE
8
Calque 1
10
411.747430
20
530.158200
11
425.340430
21
543.774100
0
LINE
8
Calque 1
10
425.340430
20
543.774100
11
438.933430
21
557.389900
0
LINE
8
Calque 1
10
438.933430
20
557.389900
11
438.571530
21
559.591000
0
LINE
8
Calque 1
10
289.072000
20
597.275000
11
287.857586
21
599.511525
0
LINE
8
Calque 1
10
287.857586
20
599.511525
11
287.019260
21
600.708700
0
LINE
8
Calque 1
10
287.019260
20
600.708700
11
286.713499
21
601.033325
0
LINE
8
Calque 1
10
286.713499
20
601.033325
11
286.779490
21
601.171800
0
LINE
8
Calque 1
10
286.779490
20
601.171800
11
287.013068
21
601.261388
0
LINE
8
Calque 1
10
287.013068
20
601.261388
11
287.110220
21
601.472700
0
LINE
8
Calque 1
10
287.110220
20
601.472700
11
286.936004
21
601.574162
0
LINE
8
Calque 1
10
286.936004
20
601.574162
11
286.462560
21
601.343300
0
LINE
8
Calque 1
10
286.462560
20
601.343300
11
285.959123
21
601.113375
0
LINE
8
Calque 1
10
285.959123
20
601.113375
11
285.663600
21
601.163800
0
LINE
8
Calque 1
10
285.663600
20
601.163800
11
285.395990
21
601.324538
0
LINE
8
Calque 1
10
285.395990
20
601.324538
11
284.965030
21
601.367300
0
LINE
8
Calque 1
10
284.965030
20
601.367300
11
284.562681
21
601.271012
0
LINE
8
Calque 1
10
284.562681
20
601.271012
11
284.999530
21
600.855000
0
LINE
8
Calque 1
10
284.999530
20
600.855000
11
285.334691
21
600.522287
0
LINE
8
Calque 1
10
285.334691
20
600.522287
11
285.323510
21
600.383900
0
LINE
8
Calque 1
10
285.323510
20
600.383900
11
284.389390
21
601.060200
0
LINE
8
Calque 1
10
284.389390
20
601.060200
11
283.885292
21
601.479700
0
LINE
8
Calque 1
10
283.885292
20
601.479700
11
283.784995
21
601.467366
0
LINE
8
Calque 1
10
283.784995
20
601.467366
11
283.775500
21
601.311200
0
LINE
8
Calque 1
10
283.775500
20
601.311200
11
287.044679
21
597.678100
0
LINE
8
Calque 1
10
287.044679
20
597.678100
11
290.481880
21
594.298500
0
LINE
8
Calque 1
10
290.481880
20
594.298500
11
289.071980
21
597.275000
0
LINE
8
Calque 1
10
289.071980
20
597.275000
11
289.072000
21
597.275000
0
LINE
8
Calque 1
10
286.845640
20
600.119300
11
286.615031
21
600.324725
0
LINE
8
Calque 1
10
286.615031
20
600.324725
11
286.596380
21
600.487400
0
LINE
8
Calque 1
10
286.596380
20
600.487400
11
287.110220
21
600.383900
0
LINE
8
Calque 1
10
287.110220
20
600.383900
11
287.340829
21
600.178512
0
LINE
8
Calque 1
10
287.340829
20
600.178512
11
287.359480
21
600.015800
0
LINE
8
Calque 1
10
287.359480
20
600.015800
11
286.845640
21
600.119300
0
LINE
8
Calque 1
10
286.845640
20
600.119300
11
286.845640
21
600.119300
0
LINE
8
Calque 1
10
479.597640
20
598.057200
11
482.044046
21
600.574125
0
LINE
8
Calque 1
10
482.044046
20
600.574125
11
482.658165
21
601.232653
0
LINE
8
Calque 1
10
482.658165
20
601.232653
11
482.767997
21
601.364708
0
LINE
8
Calque 1
10
482.767997
20
601.364708
11
482.729220
21
601.347300
0
LINE
8
Calque 1
10
482.729220
20
601.347300
11
482.260556
21
601.069388
0
LINE
8
Calque 1
10
482.260556
20
601.069388
11
481.986000
21
601.160400
0
LINE
8
Calque 1
10
481.986000
20
601.160400
11
481.512280
21
601.442200
0
LINE
8
Calque 1
10
481.512280
20
601.442200
11
481.451610
21
601.328100
0
LINE
8
Calque 1
10
481.451610
20
601.328100
11
481.726340
21
601.053800
0
LINE
8
Calque 1
10
481.726340
20
601.053800
11
482.083001
21
600.726387
0
LINE
8
Calque 1
10
482.083001
20
600.726387
11
481.776940
21
600.656900
0
LINE
8
Calque 1
10
481.776940
20
600.656900
11
481.449932
21
600.570387
0
LINE
8
Calque 1
10
481.449932
20
600.570387
11
481.313920
21
600.368300
0
LINE
8
Calque 1
10
481.313920
20
600.368300
11
481.235912
21
600.218600
0
LINE
8
Calque 1
10
481.235912
20
600.218600
11
481.048360
21
600.252200
0
LINE
8
Calque 1
10
481.048360
20
600.252200
11
480.908385
21
600.557563
0
LINE
8
Calque 1
10
480.908385
20
600.557563
11
480.944750
21
601.061600
0
LINE
8
Calque 1
10
480.944750
20
601.061600
11
480.978952
21
601.562700
0
LINE
8
Calque 1
10
480.978952
20
601.562700
11
480.696760
21
601.706800
0
LINE
8
Calque 1
10
480.696760
20
601.706800
11
480.351036
21
601.615875
0
LINE
8
Calque 1
10
480.351036
20
601.615875
11
480.095500
21
601.397300
0
LINE
8
Calque 1
10
480.095500
20
601.397300
11
480.055924
21
601.206025
0
LINE
8
Calque 1
10
480.055924
20
601.206025
11
480.309290
21
601.243200
0
LINE
8
Calque 1
10
480.309290
20
601.243200
11
480.584857
21
601.255875
0
LINE
8
Calque 1
10
480.584857
20
601.255875
11
480.427540
21
600.790800
0
LINE
8
Calque 1
10
480.427540
20
600.790800
11
480.141916
21
600.420709
0
LINE
8
Calque 1
10
480.141916
20
600.420709
11
479.792656
21
600.257150
0
LINE
8
Calque 1
10
479.792656
20
600.257150
11
479.478348
21
600.315741
0
LINE
8
Calque 1
10
479.478348
20
600.315741
11
479.297580
21
600.612100
0
LINE
8
Calque 1
10
479.297580
20
600.612100
11
479.294404
21
600.753800
0
LINE
8
Calque 1
10
479.294404
20
600.753800
11
479.371980
21
600.653100
0
LINE
8
Calque 1
10
479.371980
20
600.653100
11
479.533413
21
600.512206
0
LINE
8
Calque 1
10
479.533413
20
600.512206
11
479.739011
21
600.532750
0
LINE
8
Calque 1
10
479.739011
20
600.532750
11
479.915849
21
600.682294
0
LINE
8
Calque 1
10
479.915849
20
600.682294
11
479.991000
21
600.928400
0
LINE
8
Calque 1
10
479.991000
20
600.928400
11
479.874975
21
601.104188
0
LINE
8
Calque 1
10
479.874975
20
601.104188
11
479.596020
21
601.177300
0
LINE
8
Calque 1
10
479.596020
20
601.177300
11
478.841503
21
600.246550
0
LINE
8
Calque 1
10
478.841503
20
600.246550
11
477.477460
21
597.737800
0
LINE
8
Calque 1
10
477.477460
20
597.737800
11
475.825460
21
594.298200
0
LINE
8
Calque 1
10
475.825460
20
594.298200
11
479.597670
21
598.056900
0
LINE
8
Calque 1
10
479.597670
20
598.056900
11
479.597640
21
598.057200
0
LINE
8
Calque 1
10
284.296640
20
606.255700
11
284.595687
21
606.302662
0
LINE
8
Calque 1
10
284.595687
20
606.302662
11
284.918420
21
606.157700
0
LINE
8
Calque 1
10
284.918420
20
606.157700
11
285.258030
21
605.992500
0
LINE
8
Calque 1
10
285.258030
20
605.992500
11
284.310250
21
609.356100
0
LINE
8
Calque 1
10
284.310250
20
609.356100
11
284.201889
21
609.454171
0
LINE
8
Calque 1
10
284.201889
20
609.454171
11
284.005325
21
609.417220
0
LINE
8
Calque 1
10
284.005325
20
609.417220
11
283.423004
21
609.005963
0
LINE
8
Calque 1
10
283.423004
20
609.005963
11
282.714118
21
608.257748
0
LINE
8
Calque 1
10
282.714118
20
608.257748
11
282.029500
21
607.308000
0
LINE
8
Calque 1
10
282.029500
20
607.308000
11
281.633590
21
606.495288
0
LINE
8
Calque 1
10
281.633590
20
606.495288
11
281.915740
21
605.994500
0
LINE
8
Calque 1
10
281.915740
20
605.994500
11
282.281465
21
605.705975
0
LINE
8
Calque 1
10
282.281465
20
605.705975
11
282.347610
21
606.066500
0
LINE
8
Calque 1
10
282.347610
20
606.066500
11
282.403497
21
606.434025
0
LINE
8
Calque 1
10
282.403497
20
606.434025
11
282.764110
21
606.056500
0
LINE
8
Calque 1
10
282.764110
20
606.056500
11
283.009047
21
605.790900
0
LINE
8
Calque 1
10
283.009047
20
605.790900
11
283.013070
21
605.873600
0
LINE
8
Calque 1
10
283.013070
20
605.873600
11
283.007429
21
606.112000
0
LINE
8
Calque 1
10
283.007429
20
606.112000
11
283.258040
21
606.204300
0
LINE
8
Calque 1
10
283.258040
20
606.204300
11
283.555498
21
606.068313
0
LINE
8
Calque 1
10
283.555498
20
606.068313
11
283.691420
21
605.741300
0
LINE
8
Calque 1
10
283.691420
20
605.741300
11
283.738490
21
605.451388
0
LINE
8
Calque 1
10
283.738490
20
605.451388
11
283.863380
21
605.675300
0
LINE
8
Calque 1
10
283.863380
20
605.675300
11
284.296640
21
606.255400
0
LINE
8
Calque 1
10
284.296640
20
606.255400
11
284.296640
21
606.255700
0
LINE
8
Calque 1
10
482.341640
20
606.141700
11
482.908130
21
606.092500
0
LINE
8
Calque 1
10
482.908130
20
606.092500
11
483.384620
21
605.877100
0
LINE
8
Calque 1
10
483.384620
20
605.877100
11
483.649539
21
605.702237
0
LINE
8
Calque 1
10
483.649539
20
605.702237
11
483.609620
21
605.856100
0
LINE
8
Calque 1
10
483.609620
20
605.856100
11
483.556256
21
606.125638
0
LINE
8
Calque 1
10
483.556256
20
606.125638
11
483.691120
21
606.334800
0
LINE
8
Calque 1
10
483.691120
20
606.334800
11
483.881033
21
606.369675
0
LINE
8
Calque 1
10
483.881033
20
606.369675
11
483.960020
21
606.220800
0
LINE
8
Calque 1
10
483.960020
20
606.220800
11
484.076601
21
606.022875
0
LINE
8
Calque 1
10
484.076601
20
606.022875
11
484.356900
21
605.940600
0
LINE
8
Calque 1
10
484.356900
20
605.940600
11
484.672598
21
606.052653
0
LINE
8
Calque 1
10
484.672598
20
606.052653
11
484.717342
21
606.384925
0
LINE
8
Calque 1
10
484.717342
20
606.384925
11
483.998760
21
607.686800
0
LINE
8
Calque 1
10
483.998760
20
607.686800
11
482.644488
21
609.253550
0
LINE
8
Calque 1
10
482.644488
20
609.253550
11
482.221758
21
609.495744
0
LINE
8
Calque 1
10
482.221758
20
609.495744
11
482.001260
21
609.350000
0
LINE
8
Calque 1
10
482.001260
20
609.350000
11
481.190440
21
606.520100
0
LINE
8
Calque 1
10
481.190440
20
606.520100
11
481.250882
21
605.860087
0
LINE
8
Calque 1
10
481.250882
20
605.860087
11
481.383667
21
605.744567
0
LINE
8
Calque 1
10
481.383667
20
605.744567
11
481.545700
21
605.846200
0
LINE
8
Calque 1
10
481.545700
20
605.846200
11
482.341640
21
606.142100
0
LINE
8
Calque 1
10
482.341640
20
606.142100
11
482.341640
21
606.141700
0
LINE
8
Calque 1
10
332.897640
20
646.800800
11
332.255440
21
647.211700
0
LINE
8
Calque 1
10
332.255440
20
647.211700
11
331.042699
21
645.774262
0
LINE
8
Calque 1
10
331.042699
20
645.774262
11
328.807610
21
642.349400
0
LINE
8
Calque 1
10
328.807610
20
642.349400
11
328.805202
21
642.219612
0
LINE
8
Calque 1
10
328.805202
20
642.219612
11
329.173824
21
642.478475
0
LINE
8
Calque 1
10
329.173824
20
642.478475
11
330.772730
21
643.956500
0
LINE
8
Calque 1
10
330.772730
20
643.956500
11
332.744073
21
646.029987
0
LINE
8
Calque 1
10
332.744073
20
646.029987
11
332.989796
21
646.500223
0
LINE
8
Calque 1
10
332.989796
20
646.500223
11
332.897640
21
646.800800
0
LINE
8
Calque 1
10
332.897640
20
646.800800
11
332.897640
21
646.800800
0
LINE
8
Calque 1
10
436.022640
20
644.669600
11
434.754140
21
646.460387
0
LINE
8
Calque 1
10
434.754140
20
646.460387
11
434.052280
21
647.208900
0
LINE
8
Calque 1
10
434.052280
20
647.208900
11
433.411880
21
646.803000
0
LINE
8
Calque 1
10
433.411880
20
646.803000
11
433.313372
21
646.510194
0
LINE
8
Calque 1
10
433.313372
20
646.510194
11
433.525332
21
646.067650
0
LINE
8
Calque 1
10
433.525332
20
646.067650
11
435.283790
21
644.165300
0
LINE
8
Calque 1
10
435.283790
20
644.165300
11
437.596220
21
642.038200
0
LINE
8
Calque 1
10
437.596220
20
642.038200
11
436.022640
21
644.669600
0
LINE
8
Calque 1
10
436.022640
20
644.669600
11
436.022640
21
644.669600
0
LINE
8
Calque 1
10
396.740940
20
682.708200
11
410.328140
21
669.123000
0
LINE
8
Calque 1
10
410.328140
20
669.123000
11
411.154880
21
670.466600
0
LINE
8
Calque 1
10
411.154880
20
670.466600
11
412.125801
21
672.303172
0
LINE
8
Calque 1
10
412.125801
20
672.303172
11
412.989530
21
674.382800
0
LINE
8
Calque 1
10
412.989530
20
674.382800
11
413.608587
21
676.331928
0
LINE
8
Calque 1
10
413.608587
20
676.331928
11
413.845490
21
677.777000
0
LINE
8
Calque 1
10
413.845490
20
677.777000
11
412.646772
21
679.198185
0
LINE
8
Calque 1
10
412.646772
20
679.198185
11
409.477359
21
682.529095
0
LINE
8
Calque 1
10
409.477359
20
682.529095
11
399.786890
21
692.356787
0
LINE
8
Calque 1
10
399.786890
20
692.356787
11
389.894971
21
702.133461
0
LINE
8
Calque 1
10
389.894971
20
702.133461
11
386.473745
21
705.400598
0
LINE
8
Calque 1
10
386.473745
20
705.400598
11
384.922490
21
706.732500
0
LINE
8
Calque 1
10
384.922490
20
706.732500
11
384.101506
21
706.933087
0
LINE
8
Calque 1
10
384.101506
20
706.933087
11
383.153780
21
706.999950
0
LINE
8
Calque 1
10
383.153780
20
706.999950
11
382.206054
21
706.933087
0
LINE
8
Calque 1
10
382.206054
20
706.933087
11
381.385070
21
706.732500
0
LINE
8
Calque 1
10
381.385070
20
706.732500
11
379.833829
21
705.400598
0
LINE
8
Calque 1
10
379.833829
20
705.400598
11
376.412610
21
702.133461
0
LINE
8
Calque 1
10
376.412610
20
702.133461
11
366.520689
21
692.356787
0
LINE
8
Calque 1
10
366.520689
20
692.356787
11
356.830208
21
682.529095
0
LINE
8
Calque 1
10
356.830208
20
682.529095
11
353.660790
21
679.198185
0
LINE
8
Calque 1
10
353.660790
20
679.198185
11
352.462070
21
677.777000
0
LINE
8
Calque 1
10
352.462070
20
677.777000
11
352.698973
21
676.331928
0
LINE
8
Calque 1
10
352.698973
20
676.331928
11
353.318030
21
674.382800
0
LINE
8
Calque 1
10
353.318030
20
674.382800
11
354.181759
21
672.303172
0
LINE
8
Calque 1
10
354.181759
20
672.303172
11
355.152680
21
670.466600
0
LINE
8
Calque 1
10
355.152680
20
670.466600
11
355.979420
21
669.123000
0
LINE
8
Calque 1
10
355.979420
20
669.123000
11
369.566620
21
682.708200
0
LINE
8
Calque 1
10
369.566620
20
682.708200
11
383.153820
21
696.293400
0
LINE
8
Calque 1
10
383.153820
20
696.293400
11
396.740940
21
682.708200
0
LINE
8
Calque 1
10
363.375540
20
711.971300
11
383.153840
21
731.748200
0
LINE
8
Calque 1
10
383.153840
20
731.748200
11
402.976240
21
711.927100
0
LINE
8
Calque 1
10
402.976240
20
711.927100
11
422.798640
21
692.106000
0
LINE
8
Calque 1
10
422.798640
20
692.106000
11
426.458000
21
693.971300
0
LINE
8
Calque 1
10
426.458000
20
693.971300
11
433.123855
21
697.151775
0
LINE
8
Calque 1
10
433.123855
20
697.151775
11
439.708500
21
699.891700
0
LINE
8
Calque 1
10
439.708500
20
699.891700
11
442.685060
21
701.176400
0
LINE
8
Calque 1
10
442.685060
20
701.176400
11
412.919460
21
731.088100
0
LINE
8
Calque 1
10
412.919460
20
731.088100
11
383.153860
21
760.852800
0
LINE
8
Calque 1
10
383.153860
20
760.852800
11
353.388260
21
731.088100
0
LINE
8
Calque 1
10
353.388260
20
731.088100
11
323.622660
21
701.176400
0
LINE
8
Calque 1
10
323.622660
20
701.176400
11
326.599220
21
699.894400
0
LINE
8
Calque 1
10
326.599220
20
699.894400
11
333.980813
21
696.767300
0
LINE
8
Calque 1
10
333.980813
20
696.767300
11
340.688320
21
693.535200
0
LINE
8
Calque 1
10
340.688320
20
693.535200
11
343.333490
21
692.219000
0
LINE
8
Calque 1
10
343.333490
20
692.219000
11
349.329752
21
698.010875
0
LINE
8
Calque 1
10
349.329752
20
698.010875
11
363.375690
21
711.971300
0
LINE
8
Calque 1
10
363.375690
20
711.971300
11
363.375540
21
711.971300
 0 
ENDSEC
 0 
EOF