999
"DXF R12 Output" (www.mydxf.blogspot.com)
 0 
SECTION
 2 
HEADER
 9 
$ACADVER
 1 
AC1009
 9 
$EXTMIN
 10 
 0 
 20 
 0 
 9 
$EXTMAX
 10 
 8.5 
 20 
 11 
 0 
ENDSEC
 0 
SECTION
 2 
ENTITIES
0
LINE
8
Calque 1
10
372.951000
20
452.170000
11
335.353400
21
489.608600
0
LINE
8
Calque 1
10
335.353400
20
489.608600
11
327.680140
21
482.252700
0
LINE
8
Calque 1
10
327.680140
20
482.252700
11
321.576628
21
476.422100
0
LINE
8
Calque 1
10
321.576628
20
476.422100
11
319.956517
21
475.038525
0
LINE
8
Calque 1
10
319.956517
20
475.038525
11
319.038630
21
474.448300
0
LINE
8
Calque 1
10
319.038630
20
474.448300
11
317.708333
21
474.034366
0
LINE
8
Calque 1
10
317.708333
20
474.034366
11
316.055011
21
473.691481
0
LINE
8
Calque 1
10
316.055011
20
473.691481
11
312.339083
21
473.256450
0
LINE
8
Calque 1
10
312.339083
20
473.256450
11
309.010428
21
473.218394
0
LINE
8
Calque 1
10
309.010428
20
473.218394
11
307.841198
21
473.371727
0
LINE
8
Calque 1
10
307.841198
20
473.371727
11
307.188630
21
473.652500
0
LINE
8
Calque 1
10
307.188630
20
473.652500
11
306.918923
21
474.349119
0
LINE
8
Calque 1
10
306.918923
20
474.349119
11
306.797787
21
475.627792
0
LINE
8
Calque 1
10
306.797787
20
475.627792
11
306.939192
21
479.253713
0
LINE
8
Calque 1
10
306.939192
20
479.253713
11
307.488774
21
483.175077
0
LINE
8
Calque 1
10
307.488774
20
483.175077
11
307.877859
21
484.823055
0
LINE
8
Calque 1
10
307.877859
20
484.823055
11
308.322460
21
486.036700
0
LINE
8
Calque 1
10
308.322460
20
486.036700
11
310.439048
21
488.462588
0
LINE
8
Calque 1
10
310.439048
20
488.462588
11
314.973890
21
493.180400
0
LINE
8
Calque 1
10
314.973890
20
493.180400
11
322.279730
21
500.661000
0
LINE
8
Calque 1
10
322.279730
20
500.661000
11
323.328630
21
501.791600
0
LINE
8
Calque 1
10
323.328630
20
501.791600
11
287.616530
21
537.504400
0
LINE
8
Calque 1
10
287.616530
20
537.504400
11
251.904430
21
573.217200
0
LINE
8
Calque 1
10
251.904430
20
573.217200
11
331.212930
21
652.525700
0
LINE
8
Calque 1
10
331.212930
20
652.525700
11
410.521430
21
731.834200
0
LINE
8
Calque 1
10
410.521430
20
731.834200
11
443.396130
21
698.994500
0
LINE
8
Calque 1
10
443.396130
20
698.994500
11
470.232667
21
672.323737
0
LINE
8
Calque 1
10
470.232667
20
672.323737
11
475.710110
21
667.069180
0
LINE
8
Calque 1
10
475.710110
20
667.069180
11
477.858330
21
665.279800
0
LINE
8
Calque 1
10
477.858330
20
665.279800
11
480.952660
21
663.393100
0
LINE
8
Calque 1
10
480.952660
20
663.393100
11
482.741440
21
662.381500
0
LINE
8
Calque 1
10
482.741440
20
662.381500
11
497.416540
21
671.509600
0
LINE
8
Calque 1
10
497.416540
20
671.509600
11
508.300725
21
678.301075
0
LINE
8
Calque 1
10
508.300725
20
678.301075
11
511.267900
21
680.046719
0
LINE
8
Calque 1
10
511.267900
20
680.046719
11
512.494940
21
680.637700
0
LINE
8
Calque 1
10
512.494940
20
680.637700
11
513.145265
21
680.487486
0
LINE
8
Calque 1
10
513.145265
20
680.487486
11
513.702632
21
680.088113
0
LINE
8
Calque 1
10
513.702632
20
680.088113
11
514.092049
21
679.516483
0
LINE
8
Calque 1
10
514.092049
20
679.516483
11
514.238520
21
678.849500
0
LINE
8
Calque 1
10
514.238520
20
678.849500
11
513.699378
21
677.672147
0
LINE
8
Calque 1
10
513.699378
20
677.672147
11
512.040131
21
674.827375
0
LINE
8
Calque 1
10
512.040131
20
674.827375
11
505.110390
21
663.719700
0
LINE
8
Calque 1
10
505.110390
20
663.719700
11
495.982270
21
649.089300
0
LINE
8
Calque 1
10
495.982270
20
649.089300
11
496.993910
21
647.351900
0
LINE
8
Calque 1
10
496.993910
20
647.351900
11
498.880560
21
644.257500
0
LINE
8
Calque 1
10
498.880560
20
644.257500
11
500.741346
21
642.037580
0
LINE
8
Calque 1
10
500.741346
20
642.037580
11
506.268587
21
636.287513
0
LINE
8
Calque 1
10
506.268587
20
636.287513
11
534.447260
21
607.943400
0
LINE
8
Calque 1
10
534.447260
20
607.943400
11
569.138960
21
573.216700
0
LINE
8
Calque 1
10
569.138960
20
573.216700
11
489.896660
21
493.974100
0
LINE
8
Calque 1
10
489.896660
20
493.974100
11
410.521560
21
414.731500
0
LINE
8
Calque 1
10
410.521560
20
414.731500
11
372.950960
21
452.170000
0
LINE
8
Calque 1
10
372.950960
20
452.170000
11
372.951000
21
452.170000
0
LINE
8
Calque 1
10
412.638500
20
425.939800
11
414.978020
21
427.934012
0
LINE
8
Calque 1
10
414.978020
20
427.934012
11
416.070532
21
429.056570
0
LINE
8
Calque 1
10
416.070532
20
429.056570
11
416.383040
21
429.558700
0
LINE
8
Calque 1
10
416.383040
20
429.558700
11
416.945830
21
429.968200
0
LINE
8
Calque 1
10
416.945830
20
429.968200
11
417.418300
21
430.325812
0
LINE
8
Calque 1
10
417.418300
20
430.325812
11
417.521470
21
430.625600
0
LINE
8
Calque 1
10
417.521470
20
430.625600
11
417.473695
21
430.786875
0
LINE
8
Calque 1
10
417.473695
20
430.786875
11
417.583270
21
430.811500
0
LINE
8
Calque 1
10
417.583270
20
430.811500
11
419.069705
21
432.081387
0
LINE
8
Calque 1
10
419.069705
20
432.081387
11
422.332320
21
435.236700
0
LINE
8
Calque 1
10
422.332320
20
435.236700
11
427.620510
21
440.444500
0
LINE
8
Calque 1
10
427.620510
20
440.444500
11
429.369150
21
442.230400
0
LINE
8
Calque 1
10
429.369150
20
442.230400
11
430.634230
21
443.306500
0
LINE
8
Calque 1
10
430.634230
20
443.306500
11
430.877948
21
443.431512
0
LINE
8
Calque 1
10
430.877948
20
443.431512
11
431.074700
21
443.732100
0
LINE
8
Calque 1
10
431.074700
20
443.732100
11
432.235980
21
445.121100
0
LINE
8
Calque 1
10
432.235980
20
445.121100
11
434.511760
21
447.315900
0
LINE
8
Calque 1
10
434.511760
20
447.315900
11
436.947340
21
449.763300
0
LINE
8
Calque 1
10
436.947340
20
449.763300
11
438.336400
21
450.979400
0
LINE
8
Calque 1
10
438.336400
20
450.979400
11
438.506113
21
451.076538
0
LINE
8
Calque 1
10
438.506113
20
451.076538
11
438.589350
21
451.310100
0
LINE
8
Calque 1
10
438.589350
20
451.310100
11
439.132341
21
452.010012
0
LINE
8
Calque 1
10
439.132341
20
452.010012
11
440.407430
21
453.228400
0
LINE
8
Calque 1
10
440.407430
20
453.228400
11
441.635261
21
454.419825
0
LINE
8
Calque 1
10
441.635261
20
454.419825
11
442.064680
21
455.055200
0
LINE
8
Calque 1
10
442.064680
20
455.055200
11
442.061256
21
455.165575
0
LINE
8
Calque 1
10
442.061256
20
455.165575
11
442.248790
21
455.095200
0
LINE
8
Calque 1
10
442.248790
20
455.095200
11
442.525316
21
455.091662
0
LINE
8
Calque 1
10
442.525316
20
455.091662
11
442.716620
21
455.448200
0
LINE
8
Calque 1
10
442.716620
20
455.448200
11
442.875889
21
455.803325
0
LINE
8
Calque 1
10
442.875889
20
455.803325
11
443.055820
21
455.880800
0
LINE
8
Calque 1
10
443.055820
20
455.880800
11
443.359924
21
455.987550
0
LINE
8
Calque 1
10
443.359924
20
455.987550
11
443.817740
21
456.412900
0
LINE
8
Calque 1
10
443.817740
20
456.412900
11
444.218800
21
457.065300
0
LINE
8
Calque 1
10
444.218800
20
457.065300
11
444.815870
21
457.650500
0
LINE
8
Calque 1
10
444.815870
20
457.650500
11
447.832300
21
460.494800
0
LINE
8
Calque 1
10
447.832300
20
460.494800
11
451.139590
21
463.713300
0
LINE
8
Calque 1
10
451.139590
20
463.713300
11
454.680400
21
467.219000
0
LINE
8
Calque 1
10
454.680400
20
467.219000
11
456.515752
21
469.017337
0
LINE
8
Calque 1
10
456.515752
20
469.017337
11
457.436480
21
469.765300
0
LINE
8
Calque 1
10
457.436480
20
469.765300
11
457.581341
21
469.810875
0
LINE
8
Calque 1
10
457.581341
20
469.810875
11
457.551310
21
469.919900
0
LINE
8
Calque 1
10
457.551310
20
469.919900
11
457.882637
21
470.420412
0
LINE
8
Calque 1
10
457.882637
20
470.420412
11
458.896270
21
471.406700
0
LINE
8
Calque 1
10
458.896270
20
471.406700
11
461.609970
21
474.028800
0
LINE
8
Calque 1
10
461.609970
20
474.028800
11
462.518851
21
474.888350
0
LINE
8
Calque 1
10
462.518851
20
474.888350
11
462.999040
21
475.143700
0
LINE
8
Calque 1
10
462.999040
20
475.143700
11
463.122565
21
475.149962
0
LINE
8
Calque 1
10
463.122565
20
475.149962
11
463.173940
21
475.409800
0
LINE
8
Calque 1
10
463.173940
20
475.409800
11
463.295109
21
475.721187
0
LINE
8
Calque 1
10
463.295109
20
475.721187
11
463.586430
21
475.850700
0
LINE
8
Calque 1
10
463.586430
20
475.850700
11
463.835162
21
475.919625
0
LINE
8
Calque 1
10
463.835162
20
475.919625
11
463.853930
21
476.085300
0
LINE
8
Calque 1
10
463.853930
20
476.085300
11
463.867276
21
476.347087
0
LINE
8
Calque 1
10
463.867276
20
476.347087
11
464.102900
21
476.646900
0
LINE
8
Calque 1
10
464.102900
20
476.646900
11
464.496860
21
476.800000
0
LINE
8
Calque 1
10
464.496860
20
476.800000
11
465.356290
21
477.627500
0
LINE
8
Calque 1
10
465.356290
20
477.627500
11
466.480770
21
478.803900
0
LINE
8
Calque 1
10
466.480770
20
478.803900
11
469.999890
21
482.179800
0
LINE
8
Calque 1
10
469.999890
20
482.179800
11
473.900230
21
485.803900
0
LINE
8
Calque 1
10
473.900230
20
485.803900
11
474.313867
21
486.172187
0
LINE
8
Calque 1
10
474.313867
20
486.172187
11
474.400850
21
486.463000
0
LINE
8
Calque 1
10
474.400850
20
486.463000
11
474.373411
21
486.629450
0
LINE
8
Calque 1
10
474.373411
20
486.629450
11
474.511940
21
486.698700
0
LINE
8
Calque 1
10
474.511940
20
486.698700
11
477.225920
21
489.079900
0
LINE
8
Calque 1
10
477.225920
20
489.079900
11
479.895230
21
491.461200
0
LINE
8
Calque 1
10
479.895230
20
491.461200
11
480.044987
21
491.577737
0
LINE
8
Calque 1
10
480.044987
20
491.577737
11
480.107280
21
491.858000
0
LINE
8
Calque 1
10
480.107280
20
491.858000
11
480.181430
21
492.138312
0
LINE
8
Calque 1
10
480.181430
20
492.138312
11
480.359710
21
492.254900
0
LINE
8
Calque 1
10
480.359710
20
492.254900
11
482.366130
21
493.974700
0
LINE
8
Calque 1
10
482.366130
20
493.974700
11
484.222110
21
495.694500
0
LINE
8
Calque 1
10
484.222110
20
495.694500
11
487.149760
21
498.472600
0
LINE
8
Calque 1
10
487.149760
20
498.472600
11
489.255010
21
500.434650
0
LINE
8
Calque 1
10
489.255010
20
500.434650
11
490.348630
21
501.250700
0
LINE
8
Calque 1
10
490.348630
20
501.250700
11
490.575450
21
501.310137
0
LINE
8
Calque 1
10
490.575450
20
501.310137
11
490.596710
21
501.453200
0
LINE
8
Calque 1
10
490.596710
20
501.453200
11
490.902309
21
501.944762
0
LINE
8
Calque 1
10
490.902309
20
501.944762
11
491.812730
21
502.842300
0
LINE
8
Calque 1
10
491.812730
20
502.842300
11
499.254700
21
509.837200
0
LINE
8
Calque 1
10
499.254700
20
509.837200
11
502.133840
21
512.416800
0
LINE
8
Calque 1
10
502.133840
20
512.416800
11
502.273987
21
512.500325
0
LINE
8
Calque 1
10
502.273987
20
512.500325
11
502.332280
21
512.775700
0
LINE
8
Calque 1
10
502.332280
20
512.775700
11
502.399027
21
513.025787
0
LINE
8
Calque 1
10
502.399027
20
513.025787
11
502.559510
21
513.047800
0
LINE
8
Calque 1
10
502.559510
20
513.047800
11
503.382441
21
513.587687
0
LINE
8
Calque 1
10
503.382441
20
513.587687
11
505.041870
21
515.082700
0
LINE
8
Calque 1
10
505.041870
20
515.082700
11
507.394320
21
517.263200
0
LINE
8
Calque 1
10
507.394320
20
517.263200
11
512.633170
21
521.863100
0
LINE
8
Calque 1
10
512.633170
20
521.863100
11
513.706514
21
522.759100
0
LINE
8
Calque 1
10
513.706514
20
522.759100
11
514.268710
21
523.060200
0
LINE
8
Calque 1
10
514.268710
20
523.060200
11
514.518127
21
523.130087
0
LINE
8
Calque 1
10
514.518127
20
523.130087
11
514.839470
21
523.469600
0
LINE
8
Calque 1
10
514.839470
20
523.469600
11
515.153912
21
523.793962
0
LINE
8
Calque 1
10
515.153912
20
523.793962
11
515.386740
21
523.826800
0
LINE
8
Calque 1
10
515.386740
20
523.826800
11
515.510127
21
523.831113
0
LINE
8
Calque 1
10
515.510127
20
523.831113
11
515.561440
21
524.086300
0
LINE
8
Calque 1
10
515.561440
20
524.086300
11
515.794605
21
524.513512
0
LINE
8
Calque 1
10
515.794605
20
524.513512
11
516.355190
21
524.930900
0
LINE
8
Calque 1
10
516.355190
20
524.930900
11
516.915779
21
525.291525
0
LINE
8
Calque 1
10
516.915779
20
525.291525
11
517.148940
21
525.582100
0
LINE
8
Calque 1
10
517.148940
20
525.582100
11
517.419014
21
525.849675
0
LINE
8
Calque 1
10
517.419014
20
525.849675
11
518.068340
21
526.155200
0
LINE
8
Calque 1
10
518.068340
20
526.155200
11
518.871410
21
526.604000
0
LINE
8
Calque 1
10
518.871410
20
526.604000
11
518.837042
21
526.876264
0
LINE
8
Calque 1
10
518.837042
20
526.876264
11
519.032826
21
527.220012
0
LINE
8
Calque 1
10
519.032826
20
527.220012
11
519.341060
21
527.491555
0
LINE
8
Calque 1
10
519.341060
20
527.491555
11
519.644040
21
527.547200
0
LINE
8
Calque 1
10
519.644040
20
527.547200
11
520.079330
21
527.673650
0
LINE
8
Calque 1
10
520.079330
20
527.673650
11
520.615810
21
528.218600
0
LINE
8
Calque 1
10
520.615810
20
528.218600
11
521.147099
21
528.793037
0
LINE
8
Calque 1
10
521.147099
20
528.793037
11
521.579950
21
529.032000
0
LINE
8
Calque 1
10
521.579950
20
529.032000
11
521.793543
21
529.100875
0
LINE
8
Calque 1
10
521.793543
20
529.100875
11
521.797750
21
529.266500
0
LINE
8
Calque 1
10
521.797750
20
529.266500
11
521.857780
21
529.474575
0
LINE
8
Calque 1
10
521.857780
20
529.474575
11
522.205630
21
529.645600
0
LINE
8
Calque 1
10
522.205630
20
529.645600
11
522.561591
21
529.836900
0
LINE
8
Calque 1
10
522.561591
20
529.836900
11
522.558640
21
530.113400
0
LINE
8
Calque 1
10
522.558640
20
530.113400
11
522.489258
21
530.298825
0
LINE
8
Calque 1
10
522.489258
20
530.298825
11
522.614140
21
530.278900
0
LINE
8
Calque 1
10
522.614140
20
530.278900
11
529.118678
21
536.491950
0
LINE
8
Calque 1
10
529.118678
20
536.491950
11
544.398740
21
551.651600
0
LINE
8
Calque 1
10
544.398740
20
551.651600
11
565.928040
21
573.182000
0
LINE
8
Calque 1
10
565.928040
20
573.182000
11
561.399040
21
577.896100
0
LINE
8
Calque 1
10
561.399040
20
577.896100
11
529.551183
21
609.907325
0
LINE
8
Calque 1
10
529.551183
20
609.907325
11
510.693572
21
628.698709
0
LINE
8
Calque 1
10
510.693572
20
628.698709
11
502.332340
21
636.906900
0
LINE
8
Calque 1
10
502.332340
20
636.906900
11
502.708290
21
635.800600
0
LINE
8
Calque 1
10
502.708290
20
635.800600
11
503.601702
21
633.121423
0
LINE
8
Calque 1
10
503.601702
20
633.121423
11
504.433140
21
629.649487
0
LINE
8
Calque 1
10
504.433140
20
629.649487
11
505.115995
21
625.803358
0
LINE
8
Calque 1
10
505.115995
20
625.803358
11
505.563660
21
622.001600
0
LINE
8
Calque 1
10
505.563660
20
622.001600
11
505.704752
21
618.661966
0
LINE
8
Calque 1
10
505.704752
20
618.661966
11
505.620799
21
615.064350
0
LINE
8
Calque 1
10
505.620799
20
615.064350
11
505.325853
21
611.475509
0
LINE
8
Calque 1
10
505.325853
20
611.475509
11
504.833970
21
608.162200
0
LINE
8
Calque 1
10
504.833970
20
608.162200
11
504.411030
21
605.933000
0
LINE
8
Calque 1
10
504.411030
20
605.933000
11
520.767630
21
589.574800
0
LINE
8
Calque 1
10
520.767630
20
589.574800
11
537.124230
21
573.216700
0
LINE
8
Calque 1
10
537.124230
20
573.216700
11
473.823330
21
509.915700
0
LINE
8
Calque 1
10
473.823330
20
509.915700
11
410.522430
21
446.614800
0
LINE
8
Calque 1
10
410.522430
20
446.614800
11
381.303330
21
475.833000
0
LINE
8
Calque 1
10
381.303330
20
475.833000
11
352.084230
21
505.051200
0
LINE
8
Calque 1
10
352.084230
20
505.051200
11
350.024670
21
503.217100
0
LINE
8
Calque 1
10
350.024670
20
503.217100
11
339.665970
21
493.510300
0
LINE
8
Calque 1
10
339.665970
20
493.510300
11
339.478801
21
493.139638
0
LINE
8
Calque 1
10
339.478801
20
493.139638
11
339.836440
21
492.929700
0
LINE
8
Calque 1
10
339.836440
20
492.929700
11
340.383336
21
492.545325
0
LINE
8
Calque 1
10
340.383336
20
492.545325
11
340.974850
21
491.850900
0
LINE
8
Calque 1
10
340.974850
20
491.850900
11
341.845660
21
490.933800
0
LINE
8
Calque 1
10
341.845660
20
490.933800
11
342.238447
21
490.753925
0
LINE
8
Calque 1
10
342.238447
20
490.753925
11
342.726454
21
490.328875
0
LINE
8
Calque 1
10
342.726454
20
490.328875
11
343.142128
21
489.830513
0
LINE
8
Calque 1
10
343.142128
20
489.830513
11
343.317920
21
489.430700
0
LINE
8
Calque 1
10
343.317920
20
489.430700
11
343.408720
21
489.202362
0
LINE
8
Calque 1
10
343.408720
20
489.202362
11
343.627020
21
489.146000
0
LINE
8
Calque 1
10
343.627020
20
489.146000
11
343.936335
21
489.018175
0
LINE
8
Calque 1
10
343.936335
20
489.018175
11
344.245950
21
488.618400
0
LINE
8
Calque 1
10
344.245950
20
488.618400
11
344.504688
21
488.239050
0
LINE
8
Calque 1
10
344.504688
20
488.239050
11
344.691680
21
488.160600
0
LINE
8
Calque 1
10
344.691680
20
488.160600
11
345.168251
21
487.861612
0
LINE
8
Calque 1
10
345.168251
20
487.861612
11
346.123270
21
486.951600
0
LINE
8
Calque 1
10
346.123270
20
486.951600
11
347.742160
21
485.292800
0
LINE
8
Calque 1
10
347.742160
20
485.292800
11
351.945961
21
481.282987
0
LINE
8
Calque 1
10
351.945961
20
481.282987
11
353.434200
21
480.084100
0
LINE
8
Calque 1
10
353.434200
20
480.084100
11
353.594539
21
480.039100
0
LINE
8
Calque 1
10
353.594539
20
480.039100
11
353.571870
21
479.931100
0
LINE
8
Calque 1
10
353.571870
20
479.931100
11
353.835939
21
479.504016
0
LINE
8
Calque 1
10
353.835939
20
479.504016
11
354.694886
21
478.595900
0
LINE
8
Calque 1
10
354.694886
20
478.595900
11
357.275400
21
476.252400
0
LINE
8
Calque 1
10
357.275400
20
476.252400
11
357.835578
21
475.656200
0
LINE
8
Calque 1
10
357.835578
20
475.656200
11
357.960590
21
475.231300
0
LINE
8
Calque 1
10
357.960590
20
475.231300
11
357.901665
21
475.073787
0
LINE
8
Calque 1
10
357.901665
20
475.073787
11
358.006390
21
475.125600
0
LINE
8
Calque 1
10
358.006390
20
475.125600
11
358.347058
21
475.093728
0
LINE
8
Calque 1
10
358.347058
20
475.093728
11
358.833218
21
474.747925
0
LINE
8
Calque 1
10
358.833218
20
474.747925
11
359.268741
21
474.264609
0
LINE
8
Calque 1
10
359.268741
20
474.264609
11
359.457500
21
473.820200
0
LINE
8
Calque 1
10
359.457500
20
473.820200
11
359.524534
21
473.572512
0
LINE
8
Calque 1
10
359.524534
20
473.572512
11
359.685700
21
473.469500
0
LINE
8
Calque 1
10
359.685700
20
473.469500
11
360.875264
21
472.700450
0
LINE
8
Calque 1
10
360.875264
20
472.700450
11
361.485437
21
472.137894
0
LINE
8
Calque 1
10
361.485437
20
472.137894
11
361.679680
21
471.811100
0
LINE
8
Calque 1
10
361.679680
20
471.811100
11
361.801948
21
471.579262
0
LINE
8
Calque 1
10
361.801948
20
471.579262
11
362.295540
21
471.221200
0
LINE
8
Calque 1
10
362.295540
20
471.221200
11
363.012231
21
470.640300
0
LINE
8
Calque 1
10
363.012231
20
470.640300
11
363.670880
21
469.872500
0
LINE
8
Calque 1
10
363.670880
20
469.872500
11
364.472180
21
468.971600
0
LINE
8
Calque 1
10
364.472180
20
468.971600
11
365.694850
21
467.893400
0
LINE
8
Calque 1
10
365.694850
20
467.893400
11
367.659580
21
465.922000
0
LINE
8
Calque 1
10
367.659580
20
465.922000
11
373.976100
21
459.724200
0
LINE
8
Calque 1
10
373.976100
20
459.724200
11
379.481540
21
454.419500
0
LINE
8
Calque 1
10
379.481540
20
454.419500
11
380.770280
21
453.228900
0
LINE
8
Calque 1
10
380.770280
20
453.228900
11
381.828750
21
452.038200
0
LINE
8
Calque 1
10
381.828750
20
452.038200
11
382.643119
21
451.163962
0
LINE
8
Calque 1
10
382.643119
20
451.163962
11
384.302670
21
449.661000
0
LINE
8
Calque 1
10
384.302670
20
449.661000
11
384.783840
21
449.127800
0
LINE
8
Calque 1
10
384.783840
20
449.127800
11
386.347650
21
447.474200
0
LINE
8
Calque 1
10
386.347650
20
447.474200
11
389.698994
21
444.200812
0
LINE
8
Calque 1
10
389.698994
20
444.200812
11
390.413750
21
443.286100
0
LINE
8
Calque 1
10
390.413750
20
443.286100
11
390.667730
21
443.042400
0
LINE
8
Calque 1
10
390.667730
20
443.042400
11
392.189080
21
441.667800
0
LINE
8
Calque 1
10
392.189080
20
441.667800
11
394.783589
21
439.042987
0
LINE
8
Calque 1
10
394.783589
20
439.042987
11
395.674402
21
438.290873
0
LINE
8
Calque 1
10
395.674402
20
438.290873
11
396.176740
21
438.019800
0
LINE
8
Calque 1
10
396.176740
20
438.019800
11
396.466901
21
437.881562
0
LINE
8
Calque 1
10
396.466901
20
437.881562
11
396.688430
21
437.552300
0
LINE
8
Calque 1
10
396.688430
20
437.552300
11
397.109039
21
436.884500
0
LINE
8
Calque 1
10
397.109039
20
436.884500
11
397.805505
21
436.092800
0
LINE
8
Calque 1
10
397.805505
20
436.092800
11
398.502481
21
435.458900
0
LINE
8
Calque 1
10
398.502481
20
435.458900
11
398.924620
21
435.264500
0
LINE
8
Calque 1
10
398.924620
20
435.264500
11
399.155066
21
435.166112
0
LINE
8
Calque 1
10
399.155066
20
435.166112
11
399.398270
21
434.737800
0
LINE
8
Calque 1
10
399.398270
20
434.737800
11
399.793641
21
434.130925
0
LINE
8
Calque 1
10
399.793641
20
434.130925
11
400.389960
21
433.603700
0
LINE
8
Calque 1
10
400.389960
20
433.603700
11
401.331800
21
432.812500
0
LINE
8
Calque 1
10
401.331800
20
432.812500
11
402.393123
21
431.639062
0
LINE
8
Calque 1
10
402.393123
20
431.639062
11
403.367820
21
430.871600
0
LINE
8
Calque 1
10
403.367820
20
430.871600
11
403.726540
21
430.315800
0
LINE
8
Calque 1
10
403.726540
20
430.315800
11
403.912096
21
429.974325
0
LINE
8
Calque 1
10
403.912096
20
429.974325
11
404.154270
21
429.934500
0
LINE
8
Calque 1
10
404.154270
20
429.934500
11
404.353710
21
429.975675
0
LINE
8
Calque 1
10
404.353710
20
429.975675
11
404.436660
21
429.828900
0
LINE
8
Calque 1
10
404.436660
20
429.828900
11
405.023575
21
428.994683
0
LINE
8
Calque 1
10
405.023575
20
428.994683
11
406.354796
21
427.648562
0
LINE
8
Calque 1
10
406.354796
20
427.648562
11
407.786040
21
426.396511
0
LINE
8
Calque 1
10
407.786040
20
426.396511
11
408.673020
21
425.844500
0
LINE
8
Calque 1
10
408.673020
20
425.844500
11
408.857748
21
425.753825
0
LINE
8
Calque 1
10
408.857748
20
425.753825
11
408.934580
21
425.535800
0
LINE
8
Calque 1
10
408.934580
20
425.535800
11
408.978371
21
425.361562
0
LINE
8
Calque 1
10
408.978371
20
425.361562
11
409.083610
21
425.376100
0
LINE
8
Calque 1
10
409.083610
20
425.376100
11
409.943510
21
425.332100
0
LINE
8
Calque 1
10
409.943510
20
425.332100
11
410.552605
21
425.230630
0
LINE
8
Calque 1
10
410.552605
20
425.230630
11
411.151139
21
425.285938
0
LINE
8
Calque 1
10
411.151139
20
425.285938
11
412.638750
21
425.939900
0
LINE
8
Calque 1
10
412.638750
20
425.939900
11
412.638500
21
425.939800
0
LINE
8
Calque 1
10
412.183970
20
471.723200
11
425.226116
21
484.429150
0
LINE
8
Calque 1
10
425.226116
20
484.429150
11
457.617670
21
516.713700
0
LINE
8
Calque 1
10
457.617670
20
516.713700
11
492.802220
21
552.059837
0
LINE
8
Calque 1
10
492.802220
20
552.059837
11
499.895198
21
559.353098
0
LINE
8
Calque 1
10
499.895198
20
559.353098
11
501.803070
21
561.568400
0
LINE
8
Calque 1
10
501.803070
20
561.568400
11
498.098900
21
563.913800
0
LINE
8
Calque 1
10
498.098900
20
563.913800
11
494.791610
21
566.024200
0
LINE
8
Calque 1
10
494.791610
20
566.024200
11
462.644710
21
533.958900
0
LINE
8
Calque 1
10
462.644710
20
533.958900
11
421.199110
21
492.687075
0
LINE
8
Calque 1
10
421.199110
20
492.687075
11
412.988335
21
484.602141
0
LINE
8
Calque 1
10
412.988335
20
484.602141
11
410.543410
21
482.332500
0
LINE
8
Calque 1
10
410.543410
20
482.332500
11
390.944910
21
501.514800
0
LINE
8
Calque 1
10
390.944910
20
501.514800
11
371.365710
21
520.774800
0
LINE
8
Calque 1
10
371.365710
20
520.774800
11
370.233105
21
520.039725
0
LINE
8
Calque 1
10
370.233105
20
520.039725
11
367.969554
21
518.315325
0
LINE
8
Calque 1
10
367.969554
20
518.315325
11
365.749883
21
516.523088
0
LINE
8
Calque 1
10
365.749883
20
516.523088
11
364.748920
21
515.584500
0
LINE
8
Calque 1
10
364.748920
20
515.584500
11
371.564633
21
508.593291
0
LINE
8
Calque 1
10
371.564633
20
508.593291
11
386.606270
21
493.563975
0
LINE
8
Calque 1
10
386.606270
20
493.563975
11
401.765583
21
478.559822
0
LINE
8
Calque 1
10
401.765583
20
478.559822
11
408.934320
21
471.644100
0
LINE
8
Calque 1
10
408.934320
20
471.644100
11
409.712223
21
471.437997
0
LINE
8
Calque 1
10
409.712223
20
471.437997
11
410.556103
21
471.383525
0
LINE
8
Calque 1
10
410.556103
20
471.383525
11
411.401501
21
471.479091
0
LINE
8
Calque 1
10
411.401501
20
471.479091
11
412.183960
21
471.723100
0
LINE
8
Calque 1
10
412.183960
20
471.723100
11
412.183970
21
471.723200
0
LINE
8
Calque 1
10
315.536370
20
475.700700
11
318.297880
21
476.365200
0
LINE
8
Calque 1
10
318.297880
20
476.365200
11
320.834035
21
478.538263
0
LINE
8
Calque 1
10
320.834035
20
478.538263
11
325.840300
21
483.337000
0
LINE
8
Calque 1
10
325.840300
20
483.337000
11
336.336875
21
493.495063
0
LINE
8
Calque 1
10
336.336875
20
493.495063
11
346.209784
21
502.667892
0
LINE
8
Calque 1
10
346.209784
20
502.667892
11
355.408833
21
510.814972
0
LINE
8
Calque 1
10
355.408833
20
510.814972
11
363.883825
21
517.895787
0
LINE
8
Calque 1
10
363.883825
20
517.895787
11
371.584564
21
523.869823
0
LINE
8
Calque 1
10
371.584564
20
523.869823
11
378.460853
21
528.696564
0
LINE
8
Calque 1
10
378.460853
20
528.696564
11
384.462497
21
532.335495
0
LINE
8
Calque 1
10
384.462497
20
532.335495
11
387.119641
21
533.696870
0
LINE
8
Calque 1
10
387.119641
20
533.696870
11
389.539300
21
534.746100
0
LINE
8
Calque 1
10
389.539300
20
534.746100
11
392.244940
21
536.018100
0
LINE
8
Calque 1
10
392.244940
20
536.018100
11
393.313730
21
539.877800
0
LINE
8
Calque 1
10
393.313730
20
539.877800
11
394.061315
21
542.774323
0
LINE
8
Calque 1
10
394.061315
20
542.774323
11
394.873170
21
544.963737
0
LINE
8
Calque 1
10
394.873170
20
544.963737
11
395.851660
21
546.668708
0
LINE
8
Calque 1
10
395.851660
20
546.668708
11
397.099150
21
548.111900
0
LINE
8
Calque 1
10
397.099150
20
548.111900
11
398.523960
21
549.362256
0
LINE
8
Calque 1
10
398.523960
20
549.362256
11
400.070136
21
550.427080
0
LINE
8
Calque 1
10
400.070136
20
550.427080
11
401.772090
21
551.317554
0
LINE
8
Calque 1
10
401.772090
20
551.317554
11
403.664234
21
552.044862
0
LINE
8
Calque 1
10
403.664234
20
552.044862
11
405.780980
21
552.620188
0
LINE
8
Calque 1
10
405.780980
20
552.620188
11
408.156740
21
553.054714
0
LINE
8
Calque 1
10
408.156740
20
553.054714
11
413.822950
21
553.546100
0
LINE
8
Calque 1
10
413.822950
20
553.546100
11
416.759030
21
553.727875
0
LINE
8
Calque 1
10
416.759030
20
553.727875
11
418.236330
21
553.934700
0
LINE
8
Calque 1
10
418.236330
20
553.934700
11
418.592316
21
554.428411
0
LINE
8
Calque 1
10
418.592316
20
554.428411
11
418.928569
21
555.861262
0
LINE
8
Calque 1
10
418.928569
20
555.861262
11
419.910300
21
563.691900
0
LINE
8
Calque 1
10
419.910300
20
563.691900
11
420.411148
21
567.896883
0
LINE
8
Calque 1
10
420.411148
20
567.896883
11
420.812601
21
570.304087
0
LINE
8
Calque 1
10
420.812601
20
570.304087
11
421.246599
21
571.479248
0
LINE
8
Calque 1
10
421.246599
20
571.479248
11
421.845080
21
571.988100
0
LINE
8
Calque 1
10
421.845080
20
571.988100
11
423.348713
21
572.495150
0
LINE
8
Calque 1
10
423.348713
20
572.495150
11
425.036916
21
572.496925
0
LINE
8
Calque 1
10
425.036916
20
572.496925
11
427.144529
21
571.960312
0
LINE
8
Calque 1
10
427.144529
20
571.960312
11
429.906390
21
570.852200
0
LINE
8
Calque 1
10
429.906390
20
570.852200
11
434.782960
21
568.938841
0
LINE
8
Calque 1
10
434.782960
20
568.938841
11
439.671905
21
567.526650
0
LINE
8
Calque 1
10
439.671905
20
567.526650
11
444.626767
21
566.602934
0
LINE
8
Calque 1
10
444.626767
20
566.602934
11
449.701090
21
566.155000
0
LINE
8
Calque 1
10
449.701090
20
566.155000
11
453.682386
21
566.148992
0
LINE
8
Calque 1
10
453.682386
20
566.148992
11
457.659606
21
566.457111
0
LINE
8
Calque 1
10
457.659606
20
566.457111
11
461.608086
21
567.072559
0
LINE
8
Calque 1
10
461.608086
20
567.072559
11
465.503165
21
567.988538
0
LINE
8
Calque 1
10
465.503165
20
567.988538
11
469.320178
21
569.198249
0
LINE
8
Calque 1
10
469.320178
20
569.198249
11
473.034462
21
570.694895
0
LINE
8
Calque 1
10
473.034462
20
570.694895
11
476.621354
21
572.471678
0
LINE
8
Calque 1
10
476.621354
20
572.471678
11
480.056190
21
574.521800
0
LINE
8
Calque 1
10
480.056190
20
574.521800
11
482.783230
21
576.127300
0
LINE
8
Calque 1
10
482.783230
20
576.127300
11
496.460330
21
567.617300
0
LINE
8
Calque 1
10
496.460330
20
567.617300
11
510.798930
21
558.559400
0
LINE
8
Calque 1
10
510.798930
20
558.559400
11
511.724970
21
558.011500
0
LINE
8
Calque 1
10
511.724970
20
558.011500
11
511.212200
21
558.801200
0
LINE
8
Calque 1
10
511.212200
20
558.801200
11
501.053796
21
574.822875
0
LINE
8
Calque 1
10
501.053796
20
574.822875
11
493.677900
21
586.709800
0
LINE
8
Calque 1
10
493.677900
20
586.709800
11
494.031964
21
587.700600
0
LINE
8
Calque 1
10
494.031964
20
587.700600
11
495.073590
21
589.480700
0
LINE
8
Calque 1
10
495.073590
20
589.480700
11
496.683609
21
592.164781
0
LINE
8
Calque 1
10
496.683609
20
592.164781
11
498.248095
21
595.164500
0
LINE
8
Calque 1
10
498.248095
20
595.164500
11
499.642519
21
598.224819
0
LINE
8
Calque 1
10
499.642519
20
598.224819
11
500.742350
21
601.090700
0
LINE
8
Calque 1
10
500.742350
20
601.090700
11
501.626857
21
603.960454
0
LINE
8
Calque 1
10
501.626857
20
603.960454
11
502.343113
21
606.856835
0
LINE
8
Calque 1
10
502.343113
20
606.856835
11
502.891956
21
609.773007
0
LINE
8
Calque 1
10
502.891956
20
609.773007
11
503.274228
21
612.702136
0
LINE
8
Calque 1
10
503.274228
20
612.702136
11
503.490769
21
615.637386
0
LINE
8
Calque 1
10
503.490769
20
615.637386
11
503.542419
21
618.571922
0
LINE
8
Calque 1
10
503.542419
20
618.571922
11
503.430020
21
621.498909
0
LINE
8
Calque 1
10
503.430020
20
621.498909
11
503.154410
21
624.411513
0
LINE
8
Calque 1
10
503.154410
20
624.411513
11
502.716431
21
627.302897
0
LINE
8
Calque 1
10
502.716431
20
627.302897
11
502.116923
21
630.166226
0
LINE
8
Calque 1
10
502.116923
20
630.166226
11
501.356727
21
632.994667
0
LINE
8
Calque 1
10
501.356727
20
632.994667
11
500.436682
21
635.781383
0
LINE
8
Calque 1
10
500.436682
20
635.781383
11
499.357629
21
638.519539
0
LINE
8
Calque 1
10
499.357629
20
638.519539
11
498.120410
21
641.202301
0
LINE
8
Calque 1
10
498.120410
20
641.202301
11
496.725863
21
643.822833
0
LINE
8
Calque 1
10
496.725863
20
643.822833
11
495.174830
21
646.374300
0
LINE
8
Calque 1
10
495.174830
20
646.374300
11
493.601010
21
649.139300
0
LINE
8
Calque 1
10
493.601010
20
649.139300
11
502.418240
21
663.402600
0
LINE
8
Calque 1
10
502.418240
20
663.402600
11
510.808215
21
676.682150
0
LINE
8
Calque 1
10
510.808215
20
676.682150
11
511.570222
21
677.967356
0
LINE
8
Calque 1
10
511.570222
20
677.967356
11
511.549581
21
678.006662
0
LINE
8
Calque 1
10
511.549581
20
678.006662
11
511.435120
21
677.923900
0
LINE
8
Calque 1
10
511.435120
20
677.923900
11
497.189020
21
668.887200
0
LINE
8
Calque 1
10
497.189020
20
668.887200
11
487.174584
21
662.610775
0
LINE
8
Calque 1
10
487.174584
20
662.610775
11
482.766420
21
660.000200
0
LINE
8
Calque 1
10
482.766420
20
660.000200
11
481.936996
21
660.359612
0
LINE
8
Calque 1
10
481.936996
20
660.359612
11
480.526780
21
661.223700
0
LINE
8
Calque 1
10
480.526780
20
661.223700
11
478.177372
21
662.703975
0
LINE
8
Calque 1
10
478.177372
20
662.703975
11
475.746647
21
664.049919
0
LINE
8
Calque 1
10
475.746647
20
664.049919
11
473.242774
21
665.260225
0
LINE
8
Calque 1
10
473.242774
20
665.260225
11
470.673925
21
666.333589
0
LINE
8
Calque 1
10
470.673925
20
666.333589
11
465.373984
21
668.064268
0
LINE
8
Calque 1
10
465.373984
20
668.064268
11
459.912192
21
669.231512
0
LINE
8
Calque 1
10
459.912192
20
669.231512
11
454.353918
21
669.824881
0
LINE
8
Calque 1
10
454.353918
20
669.824881
11
448.764528
21
669.833930
0
LINE
8
Calque 1
10
448.764528
20
669.833930
11
445.978594
21
669.616071
0
LINE
8
Calque 1
10
445.978594
20
669.616071
11
443.209393
21
669.248217
0
LINE
8
Calque 1
10
443.209393
20
669.248217
11
440.465098
21
668.729062
0
LINE
8
Calque 1
10
440.465098
20
668.729062
11
437.753880
21
668.057300
0
LINE
8
Calque 1
10
437.753880
20
668.057300
11
433.917273
21
666.800522
0
LINE
8
Calque 1
10
433.917273
20
666.800522
11
429.976974
21
665.165200
0
LINE
8
Calque 1
10
429.976974
20
665.165200
11
426.187228
21
663.267528
0
LINE
8
Calque 1
10
426.187228
20
663.267528
11
422.802280
21
661.223700
0
LINE
8
Calque 1
10
422.802280
20
661.223700
11
421.391279
21
660.359612
0
LINE
8
Calque 1
10
421.391279
20
660.359612
11
420.559960
21
660.000200
0
LINE
8
Calque 1
10
420.559960
20
660.000200
11
416.694727
21
662.264675
0
LINE
8
Calque 1
10
416.694727
20
662.264675
11
407.989460
21
667.709000
0
LINE
8
Calque 1
10
407.989460
20
667.709000
11
393.631810
21
676.787675
0
LINE
8
Calque 1
10
393.631810
20
676.787675
11
391.971654
21
677.767850
0
LINE
8
Calque 1
10
391.971654
20
677.767850
11
391.829637
21
677.796301
0
LINE
8
Calque 1
10
391.829637
20
677.796301
11
391.882860
21
677.680100
0
LINE
8
Calque 1
10
391.882860
20
677.680100
11
400.906010
21
663.402200
0
LINE
8
Calque 1
10
400.906010
20
663.402200
11
409.728030
21
649.138900
0
LINE
8
Calque 1
10
409.728030
20
649.138900
11
408.140990
21
646.353900
0
LINE
8
Calque 1
10
408.140990
20
646.353900
11
406.088405
21
642.885789
0
LINE
8
Calque 1
10
406.088405
20
642.885789
11
404.303575
21
639.245752
0
LINE
8
Calque 1
10
404.303575
20
639.245752
11
402.796387
21
635.469854
0
LINE
8
Calque 1
10
402.796387
20
635.469854
11
401.576725
21
631.594162
0
LINE
8
Calque 1
10
401.576725
20
631.594162
11
400.654476
21
627.654745
0
LINE
8
Calque 1
10
400.654476
20
627.654745
11
400.039525
21
623.687667
0
LINE
8
Calque 1
10
400.039525
20
623.687667
11
399.741758
21
619.728997
0
LINE
8
Calque 1
10
399.741758
20
619.728997
11
399.771060
21
615.814800
0
LINE
8
Calque 1
10
399.771060
20
615.814800
11
400.265904
21
610.534686
0
LINE
8
Calque 1
10
400.265904
20
610.534686
11
401.245280
21
605.549013
0
LINE
8
Calque 1
10
401.245280
20
605.549013
11
402.790861
21
600.534333
0
LINE
8
Calque 1
10
402.790861
20
600.534333
11
404.984320
21
595.167200
0
LINE
8
Calque 1
10
404.984320
20
595.167200
11
405.913801
21
592.780400
0
LINE
8
Calque 1
10
405.913801
20
592.780400
11
406.120140
21
590.813000
0
LINE
8
Calque 1
10
406.120140
20
590.813000
11
406.053507
21
589.432678
0
LINE
8
Calque 1
10
406.053507
20
589.432678
11
405.806749
21
588.465250
0
LINE
8
Calque 1
10
405.806749
20
588.465250
11
405.335229
21
587.809897
0
LINE
8
Calque 1
10
405.335229
20
587.809897
11
404.594310
21
587.365800
0
LINE
8
Calque 1
10
404.594310
20
587.365800
11
401.895659
21
586.868750
0
LINE
8
Calque 1
10
401.895659
20
586.868750
11
396.611960
21
586.177000
0
LINE
8
Calque 1
10
396.611960
20
586.177000
11
388.570970
21
585.158900
0
LINE
8
Calque 1
10
388.570970
20
585.158900
11
387.902508
21
584.912794
0
LINE
8
Calque 1
10
387.902508
20
584.912794
11
387.514264
21
584.371300
0
LINE
8
Calque 1
10
387.514264
20
584.371300
11
387.327835
21
583.316656
0
LINE
8
Calque 1
10
387.327835
20
583.316656
11
387.264820
21
581.531100
0
LINE
8
Calque 1
10
387.264820
20
581.531100
11
387.054712
21
577.257640
0
LINE
8
Calque 1
10
387.054712
20
577.257640
11
386.532256
21
573.473531
0
LINE
8
Calque 1
10
386.532256
20
573.473531
11
385.691820
21
570.167707
0
LINE
8
Calque 1
10
385.691820
20
570.167707
11
384.527771
21
567.329100
0
LINE
8
Calque 1
10
384.527771
20
567.329100
11
383.034479
21
564.946643
0
LINE
8
Calque 1
10
383.034479
20
564.946643
11
381.206311
21
563.009269
0
LINE
8
Calque 1
10
381.206311
20
563.009269
11
379.037635
21
561.505910
0
LINE
8
Calque 1
10
379.037635
20
561.505910
11
376.522820
21
560.425500
0
LINE
8
Calque 1
10
376.522820
20
560.425500
11
372.577920
21
559.460100
0
LINE
8
Calque 1
10
372.577920
20
559.460100
11
369.635250
21
558.657800
0
LINE
8
Calque 1
10
369.635250
20
558.657800
11
368.725010
21
556.742300
0
LINE
8
Calque 1
10
368.725010
20
556.742300
11
367.705175
21
554.358539
0
LINE
8
Calque 1
10
367.705175
20
554.358539
11
366.172096
21
551.341038
0
LINE
8
Calque 1
10
366.172096
20
551.341038
11
364.345026
21
548.098292
0
LINE
8
Calque 1
10
364.345026
20
548.098292
11
362.443220
21
545.038800
0
LINE
8
Calque 1
10
362.443220
20
545.038800
11
358.956718
21
539.974619
0
LINE
8
Calque 1
10
358.956718
20
539.974619
11
354.964007
21
534.603730
0
LINE
8
Calque 1
10
354.964007
20
534.603730
11
350.428982
21
528.883985
0
LINE
8
Calque 1
10
350.428982
20
528.883985
11
345.315536
21
522.773238
0
LINE
8
Calque 1
10
345.315536
20
522.773238
11
339.587563
21
516.229342
0
LINE
8
Calque 1
10
339.587563
20
516.229342
11
333.208957
21
509.210152
0
LINE
8
Calque 1
10
333.208957
20
509.210152
11
318.355420
21
493.577300
0
LINE
8
Calque 1
10
318.355420
20
493.577300
11
313.269300
21
488.310442
0
LINE
8
Calque 1
10
313.269300
20
488.310442
11
310.661779
21
485.303213
0
LINE
8
Calque 1
10
310.661779
20
485.303213
11
309.999502
21
484.251799
0
LINE
8
Calque 1
10
309.999502
20
484.251799
11
309.611286
21
483.291102
0
LINE
8
Calque 1
10
309.611286
20
483.291102
11
309.196250
21
481.009600
0
LINE
8
Calque 1
10
309.196250
20
481.009600
11
308.927010
21
477.239300
0
LINE
8
Calque 1
10
308.927010
20
477.239300
11
308.922010
21
475.321100
0
LINE
8
Calque 1
10
308.922010
20
475.321100
11
311.237110
21
475.331100
0
LINE
8
Calque 1
10
311.237110
20
475.331100
11
313.455066
21
475.445575
0
LINE
8
Calque 1
10
313.455066
20
475.445575
11
315.536590
21
475.701500
0
LINE
8
Calque 1
10
315.536590
20
475.701500
11
315.536370
21
475.700700
0
LINE
8
Calque 1
10
393.051870
20
559.737000
11
392.944080
21
560.082042
0
LINE
8
Calque 1
10
392.944080
20
560.082042
11
393.001416
21
560.513513
0
LINE
8
Calque 1
10
393.001416
20
560.513513
11
393.734180
21
562.052100
0
LINE
8
Calque 1
10
393.734180
20
562.052100
11
397.832354
21
568.491050
0
LINE
8
Calque 1
10
397.832354
20
568.491050
11
402.345630
21
574.944700
0
LINE
8
Calque 1
10
402.345630
20
574.944700
11
403.507734
21
576.290967
0
LINE
8
Calque 1
10
403.507734
20
576.290967
11
404.666451
21
577.241488
0
LINE
8
Calque 1
10
404.666451
20
577.241488
11
406.127038
21
577.994814
0
LINE
8
Calque 1
10
406.127038
20
577.994814
11
408.194750
21
578.749500
0
LINE
8
Calque 1
10
408.194750
20
578.749500
11
409.702730
21
579.277598
0
LINE
8
Calque 1
10
409.702730
20
579.277598
11
410.707859
21
579.786263
0
LINE
8
Calque 1
10
410.707859
20
579.786263
11
411.635038
21
580.556770
0
LINE
8
Calque 1
10
411.635038
20
580.556770
11
412.909170
21
581.870400
0
LINE
8
Calque 1
10
412.909170
20
581.870400
11
414.358431
21
583.583645
0
LINE
8
Calque 1
10
414.358431
20
583.583645
11
416.431936
21
586.398688
0
LINE
8
Calque 1
10
416.431936
20
586.398688
11
423.768970
21
597.192700
0
LINE
8
Calque 1
10
423.768970
20
597.192700
11
432.482160
21
610.455300
0
LINE
8
Calque 1
10
432.482160
20
610.455300
11
429.897924
21
611.407213
0
LINE
8
Calque 1
10
429.897924
20
611.407213
11
423.684760
21
613.403800
0
LINE
8
Calque 1
10
423.684760
20
613.403800
11
416.606607
21
615.704838
0
LINE
8
Calque 1
10
416.606607
20
615.704838
11
414.996140
21
616.347433
0
LINE
8
Calque 1
10
414.996140
20
616.347433
11
414.292050
21
616.788100
0
LINE
8
Calque 1
10
414.292050
20
616.788100
11
413.819845
21
617.380570
0
LINE
8
Calque 1
10
413.819845
20
617.380570
11
413.651508
21
617.899963
0
LINE
8
Calque 1
10
413.651508
20
617.899963
11
413.870492
21
618.393798
0
LINE
8
Calque 1
10
413.870492
20
618.393798
11
414.560251
21
618.909600
0
LINE
8
Calque 1
10
414.560251
20
618.909600
11
417.685906
21
620.197188
0
LINE
8
Calque 1
10
417.685906
20
620.197188
11
423.696100
21
622.142900
0
LINE
8
Calque 1
10
423.696100
20
622.142900
11
430.354407
21
624.314600
0
LINE
8
Calque 1
10
430.354407
20
624.314600
11
431.915614
21
624.917403
0
LINE
8
Calque 1
10
431.915614
20
624.917403
11
432.379050
21
625.226900
0
LINE
8
Calque 1
10
432.379050
20
625.226900
11
422.975010
21
639.468300
0
LINE
8
Calque 1
10
422.975010
20
639.468300
11
416.143299
21
649.882975
0
LINE
8
Calque 1
10
416.143299
20
649.882975
11
414.324254
21
652.813275
0
LINE
8
Calque 1
10
414.324254
20
652.813275
11
413.696740
21
654.026300
0
LINE
8
Calque 1
10
413.696740
20
654.026300
11
413.811224
21
654.603622
0
LINE
8
Calque 1
10
413.811224
20
654.603622
11
414.124414
21
655.072475
0
LINE
8
Calque 1
10
414.124414
20
655.072475
11
414.590917
21
655.387241
0
LINE
8
Calque 1
10
414.590917
20
655.387241
11
415.165340
21
655.502300
0
LINE
8
Calque 1
10
415.165340
20
655.502300
11
416.390306
21
654.863780
0
LINE
8
Calque 1
10
416.390306
20
654.863780
11
419.348674
21
653.026113
0
LINE
8
Calque 1
10
419.348674
20
653.026113
11
429.732040
21
646.220700
0
LINE
8
Calque 1
10
429.732040
20
646.220700
11
443.978240
21
636.817700
0
LINE
8
Calque 1
10
443.978240
20
636.817700
11
444.288523
21
637.312045
0
LINE
8
Calque 1
10
444.288523
20
637.312045
11
444.903074
21
638.920562
0
LINE
8
Calque 1
10
444.903074
20
638.920562
11
447.053310
21
645.504000
0
LINE
8
Calque 1
10
447.053310
20
645.504000
11
448.743085
21
650.772491
0
LINE
8
Calque 1
10
448.743085
20
650.772491
11
449.857996
21
653.797600
0
LINE
8
Calque 1
10
449.857996
20
653.797600
11
450.657204
21
655.175484
0
LINE
8
Calque 1
10
450.657204
20
655.175484
11
451.019407
21
655.433016
0
LINE
8
Calque 1
10
451.019407
20
655.433016
11
451.399870
21
655.502300
0
LINE
8
Calque 1
10
451.399870
20
655.502300
11
451.782552
21
655.433409
0
LINE
8
Calque 1
10
451.782552
20
655.433409
11
452.146399
21
655.176925
0
LINE
8
Calque 1
10
452.146399
20
655.176925
11
452.948085
21
653.802300
0
LINE
8
Calque 1
10
452.948085
20
653.802300
11
454.065926
21
650.780675
0
LINE
8
Calque 1
10
454.065926
20
650.780675
11
455.760920
21
645.514300
0
LINE
8
Calque 1
10
455.760920
20
645.514300
11
457.775126
21
639.301125
0
LINE
8
Calque 1
10
457.775126
20
639.301125
11
458.735080
21
636.716900
0
LINE
8
Calque 1
10
458.735080
20
636.716900
11
472.899180
21
646.025000
0
LINE
8
Calque 1
10
472.899180
20
646.025000
11
482.920960
21
652.631075
0
LINE
8
Calque 1
10
482.920960
20
652.631075
11
487.419680
21
655.442900
0
LINE
8
Calque 1
10
487.419680
20
655.442900
11
487.983337
21
655.432362
0
LINE
8
Calque 1
10
487.983337
20
655.432362
11
488.544160
21
655.253600
0
LINE
8
Calque 1
10
488.544160
20
655.253600
11
488.936518
21
654.974547
0
LINE
8
Calque 1
10
488.936518
20
654.974547
11
489.088448
21
654.542906
0
LINE
8
Calque 1
10
489.088448
20
654.542906
11
488.908408
21
653.792956
0
LINE
8
Calque 1
10
488.908408
20
653.792956
11
488.304856
21
652.558975
0
LINE
8
Calque 1
10
488.304856
20
652.558975
11
485.461054
21
647.976031
0
LINE
8
Calque 1
10
485.461054
20
647.976031
11
479.824710
21
639.468300
0
LINE
8
Calque 1
10
479.824710
20
639.468300
11
470.421660
21
625.229500
0
LINE
8
Calque 1
10
470.421660
20
625.229500
11
470.892090
21
624.919769
0
LINE
8
Calque 1
10
470.892090
20
624.919769
11
472.463921
21
624.313975
0
LINE
8
Calque 1
10
472.463921
20
624.313975
11
479.104620
21
622.145800
0
LINE
8
Calque 1
10
479.104620
20
622.145800
11
484.452648
21
620.431022
0
LINE
8
Calque 1
10
484.452648
20
620.431022
11
487.468941
21
619.309550
0
LINE
8
Calque 1
10
487.468941
20
619.309550
11
488.802664
21
618.492053
0
LINE
8
Calque 1
10
488.802664
20
618.492053
11
489.041425
21
618.106879
0
LINE
8
Calque 1
10
489.041425
20
618.106879
11
489.102980
21
617.689200
0
LINE
8
Calque 1
10
489.102980
20
617.689200
11
488.952475
21
617.175213
0
LINE
8
Calque 1
10
488.952475
20
617.175213
11
488.590620
21
616.685000
0
LINE
8
Calque 1
10
488.590620
20
616.685000
11
485.619179
21
615.535012
0
LINE
8
Calque 1
10
485.619179
20
615.535012
11
479.194550
21
613.434700
0
LINE
8
Calque 1
10
479.194550
20
613.434700
11
472.620735
21
611.291588
0
LINE
8
Calque 1
10
472.620735
20
611.291588
11
470.955230
21
610.663248
0
LINE
8
Calque 1
10
470.955230
20
610.663248
11
470.428630
21
610.350800
0
LINE
8
Calque 1
10
470.428630
20
610.350800
11
479.824710
21
596.130100
0
LINE
8
Calque 1
10
479.824710
20
596.130100
11
485.288949
21
587.883277
0
LINE
8
Calque 1
10
485.288949
20
587.883277
11
488.133425
21
583.339963
0
LINE
8
Calque 1
10
488.133425
20
583.339963
11
488.793751
21
582.070382
0
LINE
8
Calque 1
10
488.793751
20
582.070382
11
489.063736
21
581.262592
0
LINE
8
Calque 1
10
489.063736
20
581.262592
11
489.031579
21
580.761897
0
LINE
8
Calque 1
10
489.031579
20
580.761897
11
488.785480
21
580.413600
0
LINE
8
Calque 1
10
488.785480
20
580.413600
11
488.437176
21
580.167478
0
LINE
8
Calque 1
10
488.437176
20
580.167478
11
487.936472
21
580.135308
0
LINE
8
Calque 1
10
487.936472
20
580.135308
11
487.128673
21
580.405287
0
LINE
8
Calque 1
10
487.128673
20
580.405287
11
485.859082
21
581.065613
0
LINE
8
Calque 1
10
485.859082
20
581.065613
11
481.315742
21
583.910086
0
LINE
8
Calque 1
10
481.315742
20
583.910086
11
473.068880
21
589.374300
0
LINE
8
Calque 1
10
473.068880
20
589.374300
11
458.845180
21
598.771600
0
LINE
8
Calque 1
10
458.845180
20
598.771600
11
458.533325
21
598.254264
0
LINE
8
Calque 1
10
458.533325
20
598.254264
11
457.909052
21
596.603237
0
LINE
8
Calque 1
10
457.909052
20
596.603237
11
455.761210
21
590.008000
0
LINE
8
Calque 1
10
455.761210
20
590.008000
11
453.663095
21
583.583488
0
LINE
8
Calque 1
10
453.663095
20
583.583488
11
452.513970
21
580.610700
0
LINE
8
Calque 1
10
452.513970
20
580.610700
11
451.978979
21
580.226916
0
LINE
8
Calque 1
10
451.978979
20
580.226916
11
451.382811
21
580.119675
0
LINE
8
Calque 1
10
451.382811
20
580.119675
11
450.795008
21
580.285547
0
LINE
8
Calque 1
10
450.795008
20
580.285547
11
450.285110
21
580.721100
0
LINE
8
Calque 1
10
450.285110
20
580.721100
11
449.128755
21
583.740450
0
LINE
8
Calque 1
10
449.128755
20
583.740450
11
447.038980
21
590.122200
0
LINE
8
Calque 1
10
447.038980
20
590.122200
11
444.812984
21
596.932238
0
LINE
8
Calque 1
10
444.812984
20
596.932238
11
444.236511
21
598.373808
0
LINE
8
Calque 1
10
444.236511
20
598.373808
11
443.926090
21
598.760700
0
LINE
8
Calque 1
10
443.926090
20
598.760700
11
431.037082
21
590.265338
0
LINE
8
Calque 1
10
431.037082
20
590.265338
11
417.671390
21
581.187600
0
LINE
8
Calque 1
10
417.671390
20
581.187600
11
414.853070
21
578.700900
0
LINE
8
Calque 1
10
414.853070
20
578.700900
11
413.926625
21
577.791534
0
LINE
8
Calque 1
10
413.926625
20
577.791534
11
413.333621
21
577.010925
0
LINE
8
Calque 1
10
413.333621
20
577.010925
11
412.879670
21
576.032428
0
LINE
8
Calque 1
10
412.879670
20
576.032428
11
412.370380
21
574.529400
0
LINE
8
Calque 1
10
412.370380
20
574.529400
11
411.672137
21
572.546903
0
LINE
8
Calque 1
10
411.672137
20
572.546903
11
410.975072
21
571.154525
0
LINE
8
Calque 1
10
410.975072
20
571.154525
11
410.082029
21
570.041634
0
LINE
8
Calque 1
10
410.082029
20
570.041634
11
408.795850
21
568.897600
0
LINE
8
Calque 1
10
408.795850
20
568.897600
11
402.860036
21
564.697113
0
LINE
8
Calque 1
10
402.860036
20
564.697113
11
396.086450
21
560.298400
0
LINE
8
Calque 1
10
396.086450
20
560.298400
11
394.782838
21
559.576069
0
LINE
8
Calque 1
10
394.782838
20
559.576069
11
393.935956
21
559.259000
0
LINE
8
Calque 1
10
393.935956
20
559.259000
11
393.405644
21
559.321281
0
LINE
8
Calque 1
10
393.405644
20
559.321281
11
393.051740
21
559.737000
0
LINE
8
Calque 1
10
393.051740
20
559.737000
11
393.051870
21
559.737000
0
LINE
8
Calque 1
10
332.146970
20
511.238300
11
338.044310
21
517.746600
0
LINE
8
Calque 1
10
338.044310
20
517.746600
11
338.634420
21
518.500200
0
LINE
8
Calque 1
10
338.634420
20
518.500200
11
311.276920
21
545.858600
0
LINE
8
Calque 1
10
311.276920
20
545.858600
11
283.919420
21
573.217100
0
LINE
8
Calque 1
10
283.919420
20
573.217100
11
336.413720
21
625.712000
0
LINE
8
Calque 1
10
336.413720
20
625.712000
11
377.970782
21
667.402675
0
LINE
8
Calque 1
10
377.970782
20
667.402675
11
386.480425
21
676.108737
0
LINE
8
Calque 1
10
386.480425
20
676.108737
11
388.984320
21
678.921900
0
LINE
8
Calque 1
10
388.984320
20
678.921900
11
389.170884
21
679.596850
0
LINE
8
Calque 1
10
389.170884
20
679.596850
11
389.543644
21
680.141450
0
LINE
8
Calque 1
10
389.543644
20
680.141450
11
390.053547
21
680.505225
0
LINE
8
Calque 1
10
390.053547
20
680.505225
11
390.651540
21
680.637700
0
LINE
8
Calque 1
10
390.651540
20
680.637700
11
391.409506
21
681.057192
0
LINE
8
Calque 1
10
391.409506
20
681.057192
11
393.118102
21
682.555513
0
LINE
8
Calque 1
10
393.118102
20
682.555513
11
400.929540
21
690.227700
0
LINE
8
Calque 1
10
400.929540
20
690.227700
11
410.522260
21
699.817800
0
LINE
8
Calque 1
10
410.522260
20
699.817800
11
425.032660
21
685.309200
0
LINE
8
Calque 1
10
425.032660
20
685.309200
11
439.543060
21
670.800600
0
LINE
8
Calque 1
10
439.543060
20
670.800600
11
441.767340
21
671.213300
0
LINE
8
Calque 1
10
441.767340
20
671.213300
11
445.101714
21
671.708347
0
LINE
8
Calque 1
10
445.101714
20
671.708347
11
448.550123
21
671.985781
0
LINE
8
Calque 1
10
448.550123
20
671.985781
11
452.063336
21
672.049119
0
LINE
8
Calque 1
10
452.063336
20
672.049119
11
455.592125
21
671.901875
0
LINE
8
Calque 1
10
455.592125
20
671.901875
11
459.087259
21
671.547566
0
LINE
8
Calque 1
10
459.087259
20
671.547566
11
462.499509
21
670.989706
0
LINE
8
Calque 1
10
462.499509
20
670.989706
11
465.779646
21
670.231812
0
LINE
8
Calque 1
10
465.779646
20
670.231812
11
468.878440
21
669.277400
0
LINE
8
Calque 1
10
468.878440
20
669.277400
11
470.317670
21
668.950400
0
LINE
8
Calque 1
10
470.317670
20
668.950400
11
440.419670
21
699.026400
0
LINE
8
Calque 1
10
440.419670
20
699.026400
11
410.521570
21
728.923600
0
LINE
8
Calque 1
10
410.521570
20
728.923600
11
337.347770
21
655.766600
0
LINE
8
Calque 1
10
337.347770
20
655.766600
11
259.644870
21
577.895600
0
LINE
8
Calque 1
10
259.644870
20
577.895600
11
255.115730
21
573.181500
0
LINE
8
Calque 1
10
255.115730
20
573.181500
11
277.041830
21
551.254200
0
LINE
8
Calque 1
10
277.041830
20
551.254200
11
299.116230
21
529.394700
0
LINE
8
Calque 1
10
299.116230
20
529.394700
11
299.850370
21
528.850100
0
LINE
8
Calque 1
10
299.850370
20
528.850100
11
300.262820
21
528.237700
0
LINE
8
Calque 1
10
300.262820
20
528.237700
11
300.182675
21
528.204268
0
LINE
8
Calque 1
10
300.182675
20
528.204268
11
300.234569
21
528.116066
0
LINE
8
Calque 1
10
300.234569
20
528.116066
11
300.611366
21
527.847900
0
LINE
8
Calque 1
10
300.611366
20
527.847900
11
301.595230
21
527.452400
0
LINE
8
Calque 1
10
301.595230
20
527.452400
11
301.885231
21
527.370463
0
LINE
8
Calque 1
10
301.885231
20
527.370463
11
301.910340
21
527.179400
0
LINE
8
Calque 1
10
301.910340
20
527.179400
11
301.916036
21
526.992538
0
LINE
8
Calque 1
10
301.916036
20
526.992538
11
302.159310
21
526.914800
0
LINE
8
Calque 1
10
302.159310
20
526.914800
11
302.462897
21
526.750200
0
LINE
8
Calque 1
10
302.462897
20
526.750200
11
302.590400
21
526.319500
0
LINE
8
Calque 1
10
302.590400
20
526.319500
11
302.638697
21
525.884088
0
LINE
8
Calque 1
10
302.638697
20
525.884088
11
302.836380
21
526.253500
0
LINE
8
Calque 1
10
302.836380
20
526.253500
11
303.054307
21
526.546538
0
LINE
8
Calque 1
10
303.054307
20
526.546538
11
303.200190
21
525.878600
0
LINE
8
Calque 1
10
303.200190
20
525.878600
11
303.474120
21
525.415600
0
LINE
8
Calque 1
10
303.474120
20
525.415600
11
303.593319
21
525.350600
0
LINE
8
Calque 1
10
303.593319
20
525.350600
11
303.524620
21
525.525900
0
LINE
8
Calque 1
10
303.524620
20
525.525900
11
303.458263
21
525.849205
0
LINE
8
Calque 1
10
303.458263
20
525.849205
11
303.899739
21
525.629538
0
LINE
8
Calque 1
10
303.899739
20
525.629538
11
305.862870
21
523.872200
0
LINE
8
Calque 1
10
305.862870
20
523.872200
11
306.544937
21
523.241350
0
LINE
8
Calque 1
10
306.544937
20
523.241350
11
306.705183
21
523.140191
0
LINE
8
Calque 1
10
306.705183
20
523.140191
11
306.707930
21
523.210800
0
LINE
8
Calque 1
10
306.707930
20
523.210800
11
306.729657
21
523.277150
0
LINE
8
Calque 1
10
306.729657
20
523.277150
11
307.072130
21
522.880000
0
LINE
8
Calque 1
10
307.072130
20
522.880000
11
307.909270
21
522.152400
0
LINE
8
Calque 1
10
307.909270
20
522.152400
11
308.802719
21
521.573325
0
LINE
8
Calque 1
10
308.802719
20
521.573325
11
311.258230
21
519.308100
0
LINE
8
Calque 1
10
311.258230
20
519.308100
11
312.952880
21
517.919100
0
LINE
8
Calque 1
10
312.952880
20
517.919100
11
313.068536
21
517.839450
0
LINE
8
Calque 1
10
313.068536
20
517.839450
11
313.018780
21
517.647900
0
LINE
8
Calque 1
10
313.018780
20
517.647900
11
312.969730
21
517.477788
0
LINE
8
Calque 1
10
312.969730
20
517.477788
11
313.087180
21
517.449500
0
LINE
8
Calque 1
10
313.087180
20
517.449500
11
314.190365
21
516.757675
0
LINE
8
Calque 1
10
314.190365
20
516.757675
11
315.205620
21
515.736300
0
LINE
8
Calque 1
10
315.205620
20
515.736300
11
315.370810
21
515.604000
0
LINE
8
Calque 1
10
315.370810
20
515.604000
11
316.561140
21
514.545600
0
LINE
8
Calque 1
10
316.561140
20
514.545600
11
317.893770
21
513.421200
0
LINE
8
Calque 1
10
317.893770
20
513.421200
11
318.803020
21
512.627400
0
LINE
8
Calque 1
10
318.803020
20
512.627400
11
319.585950
21
511.833700
0
LINE
8
Calque 1
10
319.585950
20
511.833700
11
322.976470
21
508.659000
0
LINE
8
Calque 1
10
322.976470
20
508.659000
11
325.376115
21
506.416825
0
LINE
8
Calque 1
10
325.376115
20
506.416825
11
326.545850
21
505.484000
0
LINE
8
Calque 1
10
326.545850
20
505.484000
11
328.312406
21
507.174213
0
LINE
8
Calque 1
10
328.312406
20
507.174213
11
332.146960
21
511.238400
0
LINE
8
Calque 1
10
332.146960
20
511.238400
11
332.146970
21
511.238300
0
LINE
8
Calque 1
10
354.110770
20
537.182500
11
354.205972
21
537.423984
0
LINE
8
Calque 1
10
354.205972
20
537.423984
11
354.073671
21
537.810289
0
LINE
8
Calque 1
10
354.073671
20
537.810289
11
352.433379
21
539.757338
0
LINE
8
Calque 1
10
352.433379
20
539.757338
11
338.797770
21
553.529000
0
LINE
8
Calque 1
10
338.797770
20
553.529000
11
325.675133
21
566.522563
0
LINE
8
Calque 1
10
325.675133
20
566.522563
11
323.425109
21
568.537020
0
LINE
8
Calque 1
10
323.425109
20
568.537020
11
322.950370
21
568.830523
0
LINE
8
Calque 1
10
322.950370
20
568.830523
11
322.746270
21
568.803200
0
LINE
8
Calque 1
10
322.746270
20
568.803200
11
322.512693
21
568.575538
0
LINE
8
Calque 1
10
322.512693
20
568.575538
11
322.415540
21
568.660100
0
LINE
8
Calque 1
10
322.415540
20
568.660100
11
322.280251
21
568.835738
0
LINE
8
Calque 1
10
322.280251
20
568.835738
11
321.952520
21
568.824700
0
LINE
8
Calque 1
10
321.952520
20
568.824700
11
321.810884
21
568.835350
0
LINE
8
Calque 1
10
321.810884
20
568.835350
11
322.120560
21
569.059900
0
LINE
8
Calque 1
10
322.120560
20
569.059900
11
322.512714
21
569.388125
0
LINE
8
Calque 1
10
322.512714
20
569.388125
11
322.451290
21
569.622900
0
LINE
8
Calque 1
10
322.451290
20
569.622900
11
322.239179
21
569.662762
0
LINE
8
Calque 1
10
322.239179
20
569.662762
11
322.150960
21
569.497500
0
LINE
8
Calque 1
10
322.150960
20
569.497500
11
322.001754
21
569.313187
0
LINE
8
Calque 1
10
322.001754
20
569.313187
11
321.622050
21
569.324700
0
LINE
8
Calque 1
10
321.622050
20
569.324700
11
321.204990
21
569.351775
0
LINE
8
Calque 1
10
321.204990
20
569.351775
11
320.944980
21
569.223300
0
LINE
8
Calque 1
10
320.944980
20
569.223300
11
320.702130
21
569.018298
0
LINE
8
Calque 1
10
320.702130
20
569.018298
11
320.403785
21
568.999512
0
LINE
8
Calque 1
10
320.403785
20
568.999512
11
320.131113
21
569.148445
0
LINE
8
Calque 1
10
320.131113
20
569.148445
11
319.965280
21
569.446600
0
LINE
8
Calque 1
10
319.965280
20
569.446600
11
319.814285
21
569.570262
0
LINE
8
Calque 1
10
319.814285
20
569.570262
11
319.572870
21
568.983600
0
LINE
8
Calque 1
10
319.572870
20
568.983600
11
319.329286
21
568.329037
0
LINE
8
Calque 1
10
319.329286
20
568.329037
11
319.243510
21
568.719000
0
LINE
8
Calque 1
10
319.243510
20
568.719000
11
319.171628
21
569.085737
0
LINE
8
Calque 1
10
319.171628
20
569.085737
11
319.061630
21
569.038700
0
LINE
8
Calque 1
10
319.061630
20
569.038700
11
318.874878
21
568.834650
0
LINE
8
Calque 1
10
318.874878
20
568.834650
11
318.553350
21
569.004700
0
LINE
8
Calque 1
10
318.553350
20
569.004700
11
318.261175
21
569.177875
0
LINE
8
Calque 1
10
318.261175
20
569.177875
11
318.182210
21
568.986700
0
LINE
8
Calque 1
10
318.182210
20
568.986700
11
318.015434
21
568.784975
0
LINE
8
Calque 1
10
318.015434
20
568.784975
11
317.520750
21
568.827000
0
LINE
8
Calque 1
10
317.520750
20
568.827000
11
317.022335
21
568.868637
0
LINE
8
Calque 1
10
317.022335
20
568.868637
11
316.855240
21
568.657300
0
LINE
8
Calque 1
10
316.855240
20
568.657300
11
316.798490
21
568.482412
0
LINE
8
Calque 1
10
316.798490
20
568.482412
11
316.615140
21
568.694300
0
LINE
8
Calque 1
10
316.615140
20
568.694300
11
316.487426
21
569.081287
0
LINE
8
Calque 1
10
316.487426
20
569.081287
11
316.511850
21
569.488000
0
LINE
8
Calque 1
10
316.511850
20
569.488000
11
316.570426
21
569.761387
0
LINE
8
Calque 1
10
316.570426
20
569.761387
11
316.372540
21
569.525000
0
LINE
8
Calque 1
10
316.372540
20
569.525000
11
316.219600
21
568.947900
0
LINE
8
Calque 1
10
316.219600
20
568.947900
11
316.224695
21
568.762975
0
LINE
8
Calque 1
10
316.224695
20
568.762975
11
316.069860
21
568.589000
0
LINE
8
Calque 1
10
316.069860
20
568.589000
11
315.870200
21
568.648600
0
LINE
8
Calque 1
10
315.870200
20
568.648600
11
315.770260
21
569.033700
0
LINE
8
Calque 1
10
315.770260
20
569.033700
11
315.719421
21
569.405825
0
LINE
8
Calque 1
10
315.719421
20
569.405825
11
315.617950
21
569.178400
0
LINE
8
Calque 1
10
315.617950
20
569.178400
11
315.465808
21
568.890000
0
LINE
8
Calque 1
10
315.465808
20
568.890000
11
315.270810
21
568.851500
0
LINE
8
Calque 1
10
315.270810
20
568.851500
11
315.063113
21
568.797600
0
LINE
8
Calque 1
10
315.063113
20
568.797600
11
314.880420
21
568.471300
0
LINE
8
Calque 1
10
314.880420
20
568.471300
11
314.655986
21
568.133525
0
LINE
8
Calque 1
10
314.655986
20
568.133525
11
314.332200
21
568.098900
0
LINE
8
Calque 1
10
314.332200
20
568.098900
11
314.034343
21
568.284255
0
LINE
8
Calque 1
10
314.034343
20
568.284255
11
313.957619
21
568.471587
0
LINE
8
Calque 1
10
313.957619
20
568.471587
11
314.088110
21
568.583452
0
LINE
8
Calque 1
10
314.088110
20
568.583452
11
314.411900
21
568.542400
0
LINE
8
Calque 1
10
314.411900
20
568.542400
11
314.681025
21
568.496862
0
LINE
8
Calque 1
10
314.681025
20
568.496862
11
314.345800
21
568.806900
0
LINE
8
Calque 1
10
314.345800
20
568.806900
11
314.064626
21
569.111037
0
LINE
8
Calque 1
10
314.064626
20
569.111037
11
314.147360
21
569.239300
0
LINE
8
Calque 1
10
314.147360
20
569.239300
11
314.380938
21
569.330187
0
LINE
8
Calque 1
10
314.380938
20
569.330187
11
314.478090
21
569.542800
0
LINE
8
Calque 1
10
314.478090
20
569.542800
11
314.303874
21
569.644262
0
LINE
8
Calque 1
10
314.303874
20
569.644262
11
313.830430
21
569.413400
0
LINE
8
Calque 1
10
313.830430
20
569.413400
11
313.326993
21
569.183475
0
LINE
8
Calque 1
10
313.326993
20
569.183475
11
313.031470
21
569.233900
0
LINE
8
Calque 1
10
313.031470
20
569.233900
11
312.763860
21
569.394637
0
LINE
8
Calque 1
10
312.763860
20
569.394637
11
312.332900
21
569.437400
0
LINE
8
Calque 1
10
312.332900
20
569.437400
11
311.930551
21
569.341112
0
LINE
8
Calque 1
10
311.930551
20
569.341112
11
312.367400
21
568.925100
0
LINE
8
Calque 1
10
312.367400
20
568.925100
11
312.702561
21
568.592387
0
LINE
8
Calque 1
10
312.702561
20
568.592387
11
312.691380
21
568.454000
0
LINE
8
Calque 1
10
312.691380
20
568.454000
11
311.757260
21
569.130300
0
LINE
8
Calque 1
10
311.757260
20
569.130300
11
311.250900
21
569.552512
0
LINE
8
Calque 1
10
311.250900
20
569.552512
11
311.152120
21
569.537789
0
LINE
8
Calque 1
10
311.152120
20
569.537789
11
311.143930
21
569.377500
0
LINE
8
Calque 1
10
311.143930
20
569.377500
11
316.773439
21
563.489012
0
LINE
8
Calque 1
10
316.773439
20
563.489012
11
330.219830
21
549.934100
0
LINE
8
Calque 1
10
330.219830
20
549.934100
11
349.232730
21
530.919800
0
LINE
8
Calque 1
10
349.232730
20
530.919800
11
351.467850
21
533.739700
0
LINE
8
Calque 1
10
351.467850
20
533.739700
11
354.110790
21
537.182100
0
LINE
8
Calque 1
10
354.110790
20
537.182100
11
354.110770
21
537.182500
0
LINE
8
Calque 1
10
317.338870
20
568.370600
11
317.845990
21
568.349600
0
LINE
8
Calque 1
10
317.845990
20
568.349600
11
317.809894
21
568.242788
0
LINE
8
Calque 1
10
317.809894
20
568.242788
11
317.498720
21
568.210600
0
LINE
8
Calque 1
10
317.498720
20
568.210600
11
317.224057
21
568.263588
0
LINE
8
Calque 1
10
317.224057
20
568.263588
11
317.338870
21
568.370500
0
LINE
8
Calque 1
10
317.338870
20
568.370500
11
317.338870
21
568.370600
0
LINE
8
Calque 1
10
320.960350
20
568.983600
11
321.240550
21
569.248100
0
LINE
8
Calque 1
10
321.240550
20
569.248100
11
321.357230
21
568.983600
0
LINE
8
Calque 1
10
321.357230
20
568.983600
11
321.274921
21
568.796700
0
LINE
8
Calque 1
10
321.274921
20
568.796700
11
321.077030
21
568.719000
0
LINE
8
Calque 1
10
321.077030
20
568.719000
11
320.927171
21
568.796700
0
LINE
8
Calque 1
10
320.927171
20
568.796700
11
320.960350
21
568.983600
0
LINE
8
Calque 1
10
320.960350
20
568.983600
11
320.960350
21
568.983600
0
LINE
8
Calque 1
10
509.620350
20
568.778400
11
510.191845
21
569.428738
0
LINE
8
Calque 1
10
510.191845
20
569.428738
11
510.235610
21
569.518298
0
LINE
8
Calque 1
10
510.235610
20
569.518298
11
510.097190
21
569.422600
0
LINE
8
Calque 1
10
510.097190
20
569.422600
11
509.628699
21
569.141425
0
LINE
8
Calque 1
10
509.628699
20
569.141425
11
509.353970
21
569.230900
0
LINE
8
Calque 1
10
509.353970
20
569.230900
11
508.880250
21
569.512700
0
LINE
8
Calque 1
10
508.880250
20
569.512700
11
508.819580
21
569.398600
0
LINE
8
Calque 1
10
508.819580
20
569.398600
11
509.094310
21
569.124300
0
LINE
8
Calque 1
10
509.094310
20
569.124300
11
509.450971
21
568.796888
0
LINE
8
Calque 1
10
509.450971
20
568.796888
11
509.144910
21
568.727400
0
LINE
8
Calque 1
10
509.144910
20
568.727400
11
508.817902
21
568.640888
0
LINE
8
Calque 1
10
508.817902
20
568.640888
11
508.681890
21
568.438800
0
LINE
8
Calque 1
10
508.681890
20
568.438800
11
508.603882
21
568.289100
0
LINE
8
Calque 1
10
508.603882
20
568.289100
11
508.416330
21
568.322700
0
LINE
8
Calque 1
10
508.416330
20
568.322700
11
508.276355
21
568.628063
0
LINE
8
Calque 1
10
508.276355
20
568.628063
11
508.312720
21
569.132100
0
LINE
8
Calque 1
10
508.312720
20
569.132100
11
508.346923
21
569.633200
0
LINE
8
Calque 1
10
508.346923
20
569.633200
11
508.064730
21
569.777300
0
LINE
8
Calque 1
10
508.064730
20
569.777300
11
507.719006
21
569.686375
0
LINE
8
Calque 1
10
507.719006
20
569.686375
11
507.463470
21
569.467800
0
LINE
8
Calque 1
10
507.463470
20
569.467800
11
507.434042
21
569.277488
0
LINE
8
Calque 1
10
507.434042
20
569.277488
11
507.749870
21
569.341500
0
LINE
8
Calque 1
10
507.749870
20
569.341500
11
508.075704
21
569.416800
0
LINE
8
Calque 1
10
508.075704
20
569.416800
11
507.910370
21
569.142600
0
LINE
8
Calque 1
10
507.910370
20
569.142600
11
507.730165
21
568.725675
0
LINE
8
Calque 1
10
507.730165
20
568.725675
11
507.936570
21
568.210500
0
LINE
8
Calque 1
10
507.936570
20
568.210500
11
508.427230
21
567.660600
0
LINE
8
Calque 1
10
508.427230
20
567.660600
11
509.620350
21
568.778400
0
LINE
8
Calque 1
10
509.620350
20
568.778400
11
509.620350
21
568.778400
0
LINE
8
Calque 1
10
317.785350
20
569.248100
11
317.306720
21
569.508700
0
LINE
8
Calque 1
10
317.306720
20
569.508700
11
317.187176
21
569.436225
0
LINE
8
Calque 1
10
317.187176
20
569.436225
11
317.388520
21
569.248100
0
LINE
8
Calque 1
10
317.388520
20
569.248100
11
317.853696
21
569.001800
0
LINE
8
Calque 1
10
317.853696
20
569.001800
11
317.785390
21
569.248100
0
LINE
8
Calque 1
10
317.785390
20
569.248100
11
317.785350
21
569.248100
0
LINE
8
Calque 1
10
311.664590
20
574.326200
11
311.978189
21
574.362888
0
LINE
8
Calque 1
10
311.978189
20
574.362888
11
312.335910
21
574.194000
0
LINE
8
Calque 1
10
312.335910
20
574.194000
11
312.617156
21
574.028238
0
LINE
8
Calque 1
10
312.617156
20
574.028238
11
312.549180
21
574.347500
0
LINE
8
Calque 1
10
312.549180
20
574.347500
11
312.499717
21
574.681150
0
LINE
8
Calque 1
10
312.499717
20
574.681150
11
312.896520
21
574.536600
0
LINE
8
Calque 1
10
312.896520
20
574.536600
11
313.419730
21
574.001300
0
LINE
8
Calque 1
10
313.419730
20
574.001300
11
313.533322
21
573.794872
0
LINE
8
Calque 1
10
313.533322
20
573.794872
11
313.810794
21
573.758000
0
LINE
8
Calque 1
10
313.810794
20
573.758000
11
314.157189
21
573.878028
0
LINE
8
Calque 1
10
314.157189
20
573.878028
11
314.477550
21
574.142300
0
LINE
8
Calque 1
10
314.477550
20
574.142300
11
314.861241
21
574.366811
0
LINE
8
Calque 1
10
314.861241
20
574.366811
11
315.401855
21
574.418288
0
LINE
8
Calque 1
10
315.401855
20
574.418288
11
315.964406
21
574.304370
0
LINE
8
Calque 1
10
315.964406
20
574.304370
11
316.413910
21
574.032700
0
LINE
8
Calque 1
10
316.413910
20
574.032700
11
316.733122
21
573.903175
0
LINE
8
Calque 1
10
316.733122
20
573.903175
11
317.164430
21
574.032400
0
LINE
8
Calque 1
10
317.164430
20
574.032400
11
317.653060
21
574.120400
0
LINE
8
Calque 1
10
317.653060
20
574.120400
11
318.026380
21
574.256200
0
LINE
8
Calque 1
10
318.026380
20
574.256200
11
318.359689
21
574.431925
0
LINE
8
Calque 1
10
318.359689
20
574.431925
11
318.588620
21
574.256200
0
LINE
8
Calque 1
10
318.588620
20
574.256200
11
318.786257
21
574.100862
0
LINE
8
Calque 1
10
318.786257
20
574.100862
11
319.005000
21
574.309200
0
LINE
8
Calque 1
10
319.005000
20
574.309200
11
319.182401
21
574.513625
0
LINE
8
Calque 1
10
319.182401
20
574.513625
11
319.236510
21
574.337200
0
LINE
8
Calque 1
10
319.236510
20
574.337200
11
319.336437
21
574.105413
0
LINE
8
Calque 1
10
319.336437
20
574.105413
11
319.571290
21
574.012600
0
LINE
8
Calque 1
10
319.571290
20
574.012600
11
331.964915
21
586.122975
0
LINE
8
Calque 1
10
331.964915
20
586.122975
11
361.297890
21
615.235100
0
LINE
8
Calque 1
10
361.297890
20
615.235100
11
402.693790
21
656.451500
0
LINE
8
Calque 1
10
402.693790
20
656.451500
11
400.538190
21
659.877400
0
LINE
8
Calque 1
10
400.538190
20
659.877400
11
398.030830
21
663.778400
0
LINE
8
Calque 1
10
398.030830
20
663.778400
11
397.671034
21
663.668397
0
LINE
8
Calque 1
10
397.671034
20
663.668397
11
396.581487
21
662.769358
0
LINE
8
Calque 1
10
396.581487
20
662.769358
11
390.716282
21
657.129037
0
LINE
8
Calque 1
10
390.716282
20
657.129037
11
353.763430
21
620.153500
0
LINE
8
Calque 1
10
353.763430
20
620.153500
11
322.600892
21
588.779487
0
LINE
8
Calque 1
10
322.600892
20
588.779487
11
309.346930
21
575.275800
0
LINE
8
Calque 1
10
309.346930
20
575.275800
11
308.988380
21
574.550175
0
LINE
8
Calque 1
10
308.988380
20
574.550175
11
309.280830
21
574.063200
0
LINE
8
Calque 1
10
309.280830
20
574.063200
11
309.649452
21
573.771262
0
LINE
8
Calque 1
10
309.649452
20
573.771262
11
309.715600
21
574.132200
0
LINE
8
Calque 1
10
309.715600
20
574.132200
11
309.771487
21
574.499725
0
LINE
8
Calque 1
10
309.771487
20
574.499725
11
310.132100
21
574.122200
0
LINE
8
Calque 1
10
310.132100
20
574.122200
11
310.377037
21
573.856600
0
LINE
8
Calque 1
10
310.377037
20
573.856600
11
310.381060
21
573.939300
0
LINE
8
Calque 1
10
310.381060
20
573.939300
11
310.375419
21
574.177700
0
LINE
8
Calque 1
10
310.375419
20
574.177700
11
310.626030
21
574.270000
0
LINE
8
Calque 1
10
310.626030
20
574.270000
11
310.923487
21
574.134012
0
LINE
8
Calque 1
10
310.923487
20
574.134012
11
311.059410
21
573.807000
0
LINE
8
Calque 1
10
311.059410
20
573.807000
11
311.106480
21
573.517125
0
LINE
8
Calque 1
10
311.106480
20
573.517125
11
311.231370
21
573.741000
0
LINE
8
Calque 1
10
311.231370
20
573.741000
11
311.664630
21
574.321200
0
LINE
8
Calque 1
10
311.664630
20
574.321200
11
311.664590
21
574.326200
0
LINE
8
Calque 1
10
315.139520
20
574.010700
11
315.172672
21
574.197513
0
LINE
8
Calque 1
10
315.172672
20
574.197513
11
315.022840
21
574.275200
0
LINE
8
Calque 1
10
315.022840
20
574.275200
11
314.824949
21
574.197513
0
LINE
8
Calque 1
10
314.824949
20
574.197513
11
314.742640
21
574.010700
0
LINE
8
Calque 1
10
314.742640
20
574.010700
11
314.859320
21
573.746100
0
LINE
8
Calque 1
10
314.859320
20
573.746100
11
315.139520
21
574.010700
0
LINE
8
Calque 1
10
315.139520
20
574.010700
11
315.139520
21
574.010700
0
LINE
8
Calque 1
10
507.634520
20
574.130500
11
507.530982
21
574.405250
0
LINE
8
Calque 1
10
507.530982
20
574.405250
11
507.986000
21
574.446300
0
LINE
8
Calque 1
10
507.986000
20
574.446300
11
508.409384
21
574.366138
0
LINE
8
Calque 1
10
508.409384
20
574.366138
11
508.520520
21
574.227400
0
LINE
8
Calque 1
10
508.520520
20
574.227400
11
508.678200
21
573.881000
0
LINE
8
Calque 1
10
508.678200
20
573.881000
11
508.868166
21
573.826625
0
LINE
8
Calque 1
10
508.868166
20
573.826625
11
508.947290
21
573.929000
0
LINE
8
Calque 1
10
508.947290
20
573.929000
11
509.175012
21
574.118238
0
LINE
8
Calque 1
10
509.175012
20
574.118238
11
509.707400
21
574.179150
0
LINE
8
Calque 1
10
509.707400
20
574.179150
11
510.318868
21
574.112488
0
LINE
8
Calque 1
10
510.318868
20
574.112488
11
510.783830
21
573.919000
0
LINE
8
Calque 1
10
510.783830
20
573.919000
11
511.043666
21
573.744825
0
LINE
8
Calque 1
10
511.043666
20
573.744825
11
510.977950
21
573.929000
0
LINE
8
Calque 1
10
510.977950
20
573.929000
11
510.924586
21
574.198500
0
LINE
8
Calque 1
10
510.924586
20
574.198500
11
511.059450
21
574.407700
0
LINE
8
Calque 1
10
511.059450
20
574.407700
11
511.249362
21
574.442563
0
LINE
8
Calque 1
10
511.249362
20
574.442563
11
511.328350
21
574.293600
0
LINE
8
Calque 1
10
511.328350
20
574.293600
11
511.444930
21
574.095712
0
LINE
8
Calque 1
10
511.444930
20
574.095712
11
511.725220
21
574.013400
0
LINE
8
Calque 1
10
511.725220
20
574.013400
11
512.005519
21
574.118350
0
LINE
8
Calque 1
10
512.005519
20
574.118350
11
512.122100
21
574.370600
0
LINE
8
Calque 1
10
512.122100
20
574.370600
11
511.767039
21
575.163367
0
LINE
8
Calque 1
10
511.767039
20
575.163367
11
510.515292
21
576.682838
0
LINE
8
Calque 1
10
510.515292
20
576.682838
11
504.202370
21
583.141600
0
LINE
8
Calque 1
10
504.202370
20
583.141600
11
497.815840
21
589.491600
0
LINE
8
Calque 1
10
497.815840
20
589.491600
11
497.324350
21
588.847600
0
LINE
8
Calque 1
10
497.324350
20
588.847600
11
496.501217
21
587.706744
0
LINE
8
Calque 1
10
496.501217
20
587.706744
11
496.368139
21
587.200818
0
LINE
8
Calque 1
10
496.368139
20
587.200818
11
496.472601
21
586.580400
0
LINE
8
Calque 1
10
496.472601
20
586.580400
11
497.549787
21
584.523606
0
LINE
8
Calque 1
10
497.549787
20
584.523606
11
500.044060
21
580.591400
0
LINE
8
Calque 1
10
500.044060
20
580.591400
11
503.436821
21
575.450087
0
LINE
8
Calque 1
10
503.436821
20
575.450087
11
504.183977
21
574.586389
0
LINE
8
Calque 1
10
504.183977
20
574.586389
11
504.637790
21
574.403400
0
LINE
8
Calque 1
10
504.637790
20
574.403400
11
505.065171
21
574.378325
0
LINE
8
Calque 1
10
505.065171
20
574.378325
11
505.242930
21
574.223800
0
LINE
8
Calque 1
10
505.242930
20
574.223800
11
505.378942
21
574.092375
0
LINE
8
Calque 1
10
505.378942
20
574.092375
11
505.705950
21
574.121900
0
LINE
8
Calque 1
10
505.705950
20
574.121900
11
506.489070
21
574.064900
0
LINE
8
Calque 1
10
506.489070
20
574.064900
11
507.368960
21
573.821300
0
LINE
8
Calque 1
10
507.368960
20
573.821300
11
507.753301
21
573.860725
0
LINE
8
Calque 1
10
507.753301
20
573.860725
11
507.634520
21
574.133700
0
LINE
8
Calque 1
10
507.634520
20
574.133700
11
507.634520
21
574.130500
0
LINE
8
Calque 1
10
421.942120
20
663.202800
11
423.222060
21
664.203900
0
LINE
8
Calque 1
10
423.222060
20
664.203900
11
421.610654
21
665.994083
0
LINE
8
Calque 1
10
421.610654
20
665.994083
11
418.014035
21
669.556338
0
LINE
8
Calque 1
10
418.014035
20
669.556338
11
414.288604
21
673.091273
0
LINE
8
Calque 1
10
414.288604
20
673.091273
11
412.290760
21
674.799500
0
LINE
8
Calque 1
10
412.290760
20
674.799500
11
411.398022
21
675.016597
0
LINE
8
Calque 1
10
411.398022
20
675.016597
11
410.397600
21
675.065900
0
LINE
8
Calque 1
10
410.397600
20
675.065900
11
409.410881
21
674.951403
0
LINE
8
Calque 1
10
409.410881
20
674.951403
11
408.559250
21
674.677100
0
LINE
8
Calque 1
10
408.559250
20
674.677100
11
407.623181
21
674.050950
0
LINE
8
Calque 1
10
407.623181
20
674.050950
11
406.569280
21
673.113400
0
LINE
8
Calque 1
10
406.569280
20
673.113400
11
405.431470
21
671.954000
0
LINE
8
Calque 1
10
405.431470
20
671.954000
11
406.852280
21
671.021300
0
LINE
8
Calque 1
10
406.852280
20
671.021300
11
420.553080
21
662.383300
0
LINE
8
Calque 1
10
420.553080
20
662.383300
11
421.942140
21
663.202800
0
LINE
8
Calque 1
10
421.942140
20
663.202800
11
421.942120
21
663.202800
 0 
ENDSEC
 0 
EOF