999
"DXF R12 Output" (www.mydxf.blogspot.com)
 0 
SECTION
 2 
HEADER
 9 
$ACADVER
 1 
AC1009
 9 
$EXTMIN
 10 
 0 
 20 
 0 
 9 
$EXTMAX
 10 
 8.5 
 20 
 11 
 0 
ENDSEC
 0 
SECTION
 2 
ENTITIES
0
LINE
8
Calque 1
10
363.715000
20
475.090000
11
326.163800
21
512.641900
0
LINE
8
Calque 1
10
326.163800
20
512.641900
11
316.090300
21
505.850700
0
LINE
8
Calque 1
10
316.090300
20
505.850700
11
308.038727
21
500.538612
0
LINE
8
Calque 1
10
308.038727
20
500.538612
11
306.107295
21
499.400695
0
LINE
8
Calque 1
10
306.107295
20
499.400695
11
305.223100
21
499.056700
0
LINE
8
Calque 1
10
305.223100
20
499.056700
11
304.682414
21
499.105610
0
LINE
8
Calque 1
10
304.682414
20
499.105610
11
304.395007
21
499.332763
0
LINE
8
Calque 1
10
304.395007
20
499.332763
11
304.417243
21
499.847540
0
LINE
8
Calque 1
10
304.417243
20
499.847540
11
304.805489
21
500.759325
0
LINE
8
Calque 1
10
304.805489
20
500.759325
11
306.905471
21
504.211450
0
LINE
8
Calque 1
10
306.905471
20
504.211450
11
311.145880
21
510.564200
0
LINE
8
Calque 1
10
311.145880
20
510.564200
11
318.017270
21
520.749600
0
LINE
8
Calque 1
10
318.017270
20
520.749600
11
280.399770
21
558.386600
0
LINE
8
Calque 1
10
280.399770
20
558.386600
11
242.782270
21
596.023500
0
LINE
8
Calque 1
10
242.782270
20
596.023500
11
275.524070
21
628.766200
0
LINE
8
Calque 1
10
275.524070
20
628.766200
11
308.265870
21
661.708700
0
LINE
8
Calque 1
10
308.265870
20
661.708700
11
306.259400
21
664.921300
0
LINE
8
Calque 1
10
306.259400
20
664.921300
11
304.999340
21
666.932067
0
LINE
8
Calque 1
10
304.999340
20
666.932067
11
304.403416
21
668.236212
0
LINE
8
Calque 1
10
304.403416
20
668.236212
11
304.342700
21
668.665838
0
LINE
8
Calque 1
10
304.342700
20
668.665838
11
304.433850
21
668.969852
0
LINE
8
Calque 1
10
304.433850
20
668.969852
11
304.672144
21
669.165267
0
LINE
8
Calque 1
10
304.672144
20
669.165267
11
305.052860
21
669.269100
0
LINE
8
Calque 1
10
305.052860
20
669.269100
11
305.510578
21
669.189066
0
LINE
8
Calque 1
10
305.510578
20
669.189066
11
306.255037
21
668.850075
0
LINE
8
Calque 1
10
306.255037
20
668.850075
11
308.688970
21
667.350900
0
LINE
8
Calque 1
10
308.688970
20
667.350900
11
311.901690
21
665.344400
0
LINE
8
Calque 1
10
311.901690
20
665.344400
11
356.750390
21
709.992500
0
LINE
8
Calque 1
10
356.750390
20
709.992500
11
401.399090
21
754.640700
0
LINE
8
Calque 1
10
401.399090
20
754.640700
11
438.540290
21
717.500200
0
LINE
8
Calque 1
10
438.540290
20
717.500200
11
464.847027
21
691.298825
0
LINE
8
Calque 1
10
464.847027
20
691.298825
11
475.939490
21
680.458800
0
LINE
8
Calque 1
10
475.939490
20
680.458800
11
498.468590
21
698.681900
0
LINE
8
Calque 1
10
498.468590
20
698.681900
11
514.942402
21
711.966550
0
LINE
8
Calque 1
10
514.942402
20
711.966550
11
519.531163
21
715.557519
0
LINE
8
Calque 1
10
519.531163
20
715.557519
11
521.299390
21
716.805900
0
LINE
8
Calque 1
10
521.299390
20
716.805900
11
521.749678
21
716.691158
0
LINE
8
Calque 1
10
521.749678
20
716.691158
11
522.097466
21
716.398188
0
LINE
8
Calque 1
10
522.097466
20
716.398188
11
522.283091
21
716.003873
0
LINE
8
Calque 1
10
522.283091
20
716.003873
11
522.246890
21
715.585100
0
LINE
8
Calque 1
10
522.246890
20
715.585100
11
503.948490
21
692.931100
0
LINE
8
Calque 1
10
503.948490
20
692.931100
11
485.801190
21
670.441900
0
LINE
8
Calque 1
10
485.801190
20
670.441900
11
522.908690
21
633.131700
0
LINE
8
Calque 1
10
522.908690
20
633.131700
11
560.016190
21
596.023500
0
LINE
8
Calque 1
10
560.016190
20
596.023500
11
515.368090
21
551.374800
0
LINE
8
Calque 1
10
515.368090
20
551.374800
11
470.719990
21
506.526100
0
LINE
8
Calque 1
10
470.719990
20
506.526100
11
472.726460
21
503.313400
0
LINE
8
Calque 1
10
472.726460
20
503.313400
11
474.225530
21
500.879450
0
LINE
8
Calque 1
10
474.225530
20
500.879450
11
474.564507
21
500.134994
0
LINE
8
Calque 1
10
474.564507
20
500.134994
11
474.644690
21
499.677300
0
LINE
8
Calque 1
10
474.644690
20
499.677300
11
474.540838
21
499.296566
0
LINE
8
Calque 1
10
474.540838
20
499.296566
11
474.345415
21
499.058263
0
LINE
8
Calque 1
10
474.345415
20
499.058263
11
474.041403
21
498.967109
0
LINE
8
Calque 1
10
474.041403
20
498.967109
11
473.611784
21
499.027825
0
LINE
8
Calque 1
10
473.611784
20
499.027825
11
472.307656
21
499.623750
0
LINE
8
Calque 1
10
472.307656
20
499.623750
11
470.296890
21
500.883800
0
LINE
8
Calque 1
10
470.296890
20
500.883800
11
467.083480
21
502.890300
0
LINE
8
Calque 1
10
467.083480
20
502.890300
11
434.207480
21
470.214200
0
LINE
8
Calque 1
10
434.207480
20
470.214200
11
401.399180
21
437.538200
0
LINE
8
Calque 1
10
401.399180
20
437.538200
11
363.714980
21
475.090000
0
LINE
8
Calque 1
10
363.714980
20
475.090000
11
363.715000
21
475.090000
0
LINE
8
Calque 1
10
403.515800
20
448.746500
11
405.855320
21
450.740712
0
LINE
8
Calque 1
10
405.855320
20
450.740712
11
406.947832
21
451.863270
0
LINE
8
Calque 1
10
406.947832
20
451.863270
11
407.260340
21
452.365400
0
LINE
8
Calque 1
10
407.260340
20
452.365400
11
407.823130
21
452.774900
0
LINE
8
Calque 1
10
407.823130
20
452.774900
11
408.295600
21
453.132512
0
LINE
8
Calque 1
10
408.295600
20
453.132512
11
408.398770
21
453.432300
0
LINE
8
Calque 1
10
408.398770
20
453.432300
11
408.352082
21
453.593575
0
LINE
8
Calque 1
10
408.352082
20
453.593575
11
408.464170
21
453.618200
0
LINE
8
Calque 1
10
408.464170
20
453.618200
11
409.990119
21
454.926975
0
LINE
8
Calque 1
10
409.990119
20
454.926975
11
413.342580
21
458.175700
0
LINE
8
Calque 1
10
413.342580
20
458.175700
11
418.627100
21
463.381800
0
LINE
8
Calque 1
10
418.627100
20
463.381800
11
420.246380
21
465.035400
0
LINE
8
Calque 1
10
420.246380
20
465.035400
11
421.511460
21
466.113200
0
LINE
8
Calque 1
10
421.511460
20
466.113200
11
421.755177
21
466.238212
0
LINE
8
Calque 1
10
421.755177
20
466.238212
11
421.951930
21
466.538800
0
LINE
8
Calque 1
10
421.951930
20
466.538800
11
423.113210
21
467.927800
0
LINE
8
Calque 1
10
423.113210
20
467.927800
11
425.388990
21
470.122600
0
LINE
8
Calque 1
10
425.388990
20
470.122600
11
427.824570
21
472.570000
0
LINE
8
Calque 1
10
427.824570
20
472.570000
11
429.213630
21
473.786100
0
LINE
8
Calque 1
10
429.213630
20
473.786100
11
429.383342
21
473.883237
0
LINE
8
Calque 1
10
429.383342
20
473.883237
11
429.466580
21
474.116800
0
LINE
8
Calque 1
10
429.466580
20
474.116800
11
430.009571
21
474.816712
0
LINE
8
Calque 1
10
430.009571
20
474.816712
11
431.284660
21
476.035100
0
LINE
8
Calque 1
10
431.284660
20
476.035100
11
432.512491
21
477.226525
0
LINE
8
Calque 1
10
432.512491
20
477.226525
11
432.941910
21
477.861900
0
LINE
8
Calque 1
10
432.941910
20
477.861900
11
432.938486
21
477.972275
0
LINE
8
Calque 1
10
432.938486
20
477.972275
11
433.126020
21
477.901900
0
LINE
8
Calque 1
10
433.126020
20
477.901900
11
433.402546
21
477.898362
0
LINE
8
Calque 1
10
433.402546
20
477.898362
11
433.593850
21
478.254900
0
LINE
8
Calque 1
10
433.593850
20
478.254900
11
433.753119
21
478.610025
0
LINE
8
Calque 1
10
433.753119
20
478.610025
11
433.933050
21
478.687500
0
LINE
8
Calque 1
10
433.933050
20
478.687500
11
434.237154
21
478.794250
0
LINE
8
Calque 1
10
434.237154
20
478.794250
11
434.694970
21
479.219600
0
LINE
8
Calque 1
10
434.694970
20
479.219600
11
435.096030
21
479.872000
0
LINE
8
Calque 1
10
435.096030
20
479.872000
11
435.693100
21
480.457200
0
LINE
8
Calque 1
10
435.693100
20
480.457200
11
438.709530
21
483.301500
0
LINE
8
Calque 1
10
438.709530
20
483.301500
11
442.016820
21
486.520000
0
LINE
8
Calque 1
10
442.016820
20
486.520000
11
445.557630
21
490.025700
0
LINE
8
Calque 1
10
445.557630
20
490.025700
11
447.392982
21
491.824037
0
LINE
8
Calque 1
10
447.392982
20
491.824037
11
448.313710
21
492.572000
0
LINE
8
Calque 1
10
448.313710
20
492.572000
11
448.458571
21
492.617575
0
LINE
8
Calque 1
10
448.458571
20
492.617575
11
448.428540
21
492.726600
0
LINE
8
Calque 1
10
448.428540
20
492.726600
11
448.759867
21
493.227112
0
LINE
8
Calque 1
10
448.759867
20
493.227112
11
449.773500
21
494.213400
0
LINE
8
Calque 1
10
449.773500
20
494.213400
11
452.487200
21
496.835500
0
LINE
8
Calque 1
10
452.487200
20
496.835500
11
453.396081
21
497.695050
0
LINE
8
Calque 1
10
453.396081
20
497.695050
11
453.876270
21
497.950400
0
LINE
8
Calque 1
10
453.876270
20
497.950400
11
453.999795
21
497.956287
0
LINE
8
Calque 1
10
453.999795
20
497.956287
11
454.051170
21
498.216500
0
LINE
8
Calque 1
10
454.051170
20
498.216500
11
454.172339
21
498.527887
0
LINE
8
Calque 1
10
454.172339
20
498.527887
11
454.463660
21
498.657400
0
LINE
8
Calque 1
10
454.463660
20
498.657400
11
454.712392
21
498.726325
0
LINE
8
Calque 1
10
454.712392
20
498.726325
11
454.731160
21
498.892000
0
LINE
8
Calque 1
10
454.731160
20
498.892000
11
454.744506
21
499.153787
0
LINE
8
Calque 1
10
454.744506
20
499.153787
11
454.980130
21
499.453600
0
LINE
8
Calque 1
10
454.980130
20
499.453600
11
455.374090
21
499.606700
0
LINE
8
Calque 1
10
455.374090
20
499.606700
11
456.233520
21
500.434200
0
LINE
8
Calque 1
10
456.233520
20
500.434200
11
457.434270
21
501.652800
0
LINE
8
Calque 1
10
457.434270
20
501.652800
11
460.626900
21
504.803000
0
LINE
8
Calque 1
10
460.626900
20
504.803000
11
462.043250
21
506.270000
0
LINE
8
Calque 1
10
462.043250
20
506.270000
11
454.945920
21
511.069700
0
LINE
8
Calque 1
10
454.945920
20
511.069700
11
447.848590
21
515.869400
0
LINE
8
Calque 1
10
447.848590
20
515.869400
11
424.625190
21
492.647000
0
LINE
8
Calque 1
10
424.625190
20
492.647000
11
401.401790
21
469.424700
0
LINE
8
Calque 1
10
401.401790
20
469.424700
11
397.310890
21
473.509300
0
LINE
8
Calque 1
10
397.310890
20
473.509300
11
394.204931
21
476.482225
0
LINE
8
Calque 1
10
394.204931
20
476.482225
11
393.399286
21
477.125753
0
LINE
8
Calque 1
10
393.399286
20
477.125753
11
393.087020
21
477.211600
0
LINE
8
Calque 1
10
393.087020
20
477.211600
11
391.766100
21
470.654900
0
LINE
8
Calque 1
10
391.766100
20
470.654900
11
390.835919
21
466.184375
0
LINE
8
Calque 1
10
390.835919
20
466.184375
11
390.267710
21
464.106500
0
LINE
8
Calque 1
10
390.267710
20
464.106500
11
389.913746
21
463.836781
0
LINE
8
Calque 1
10
389.913746
20
463.836781
11
389.493106
21
463.746800
0
LINE
8
Calque 1
10
389.493106
20
463.746800
11
389.072528
21
463.836669
0
LINE
8
Calque 1
10
389.072528
20
463.836669
11
388.718750
21
464.106500
0
LINE
8
Calque 1
10
388.718750
20
464.106500
11
387.854962
21
467.648800
0
LINE
8
Calque 1
10
387.854962
20
467.648800
11
386.213200
21
475.641300
0
LINE
8
Calque 1
10
386.213200
20
475.641300
11
384.017420
21
486.802800
0
LINE
8
Calque 1
10
384.017420
20
486.802800
11
372.243220
21
498.577000
0
LINE
8
Calque 1
10
372.243220
20
498.577000
11
360.469020
21
510.351200
0
LINE
8
Calque 1
10
360.469020
20
510.351200
11
359.756260
21
509.134900
0
LINE
8
Calque 1
10
359.756260
20
509.134900
11
359.064756
21
508.190575
0
LINE
8
Calque 1
10
359.064756
20
508.190575
11
358.425580
21
507.917800
0
LINE
8
Calque 1
10
358.425580
20
507.917800
11
357.743378
21
508.040748
0
LINE
8
Calque 1
10
357.743378
20
508.040748
11
357.403882
21
508.477562
0
LINE
8
Calque 1
10
357.403882
20
508.477562
11
357.378213
21
509.330195
0
LINE
8
Calque 1
10
357.378213
20
509.330195
11
357.637490
21
510.700600
0
LINE
8
Calque 1
10
357.637490
20
510.700600
11
358.110740
21
512.708000
0
LINE
8
Calque 1
10
358.110740
20
512.708000
11
351.755970
21
519.062800
0
LINE
8
Calque 1
10
351.755970
20
519.062800
11
345.401200
21
525.417500
0
LINE
8
Calque 1
10
345.401200
20
525.417500
11
339.202770
21
521.247500
0
LINE
8
Calque 1
10
339.202770
20
521.247500
11
332.381440
21
516.589675
0
LINE
8
Calque 1
10
332.381440
20
516.589675
11
331.335569
21
515.749653
0
LINE
8
Calque 1
10
331.335569
20
515.749653
11
331.064060
21
515.317800
0
LINE
8
Calque 1
10
331.064060
20
515.317800
11
331.059010
21
515.100662
0
LINE
8
Calque 1
10
331.059010
20
515.100662
11
331.170750
21
515.124200
0
LINE
8
Calque 1
10
331.170750
20
515.124200
11
331.490784
21
515.014637
0
LINE
8
Calque 1
10
331.490784
20
515.014637
11
331.986550
21
514.477500
0
LINE
8
Calque 1
10
331.986550
20
514.477500
11
332.425067
21
513.951600
0
LINE
8
Calque 1
10
332.425067
20
513.951600
11
332.607460
21
513.869100
0
LINE
8
Calque 1
10
332.607460
20
513.869100
11
332.840625
21
513.810387
0
LINE
8
Calque 1
10
332.840625
20
513.810387
11
333.401210
21
513.341800
0
LINE
8
Calque 1
10
333.401210
20
513.341800
11
333.961799
21
512.698125
0
LINE
8
Calque 1
10
333.961799
20
512.698125
11
334.194960
21
512.218400
0
LINE
8
Calque 1
10
334.194960
20
512.218400
11
334.270140
21
512.008437
0
LINE
8
Calque 1
10
334.270140
20
512.008437
11
334.450890
21
512.013500
0
LINE
8
Calque 1
10
334.450890
20
512.013500
11
334.730600
21
511.966975
0
LINE
8
Calque 1
10
334.730600
20
511.966975
11
335.043700
21
511.632300
0
LINE
8
Calque 1
10
335.043700
20
511.632300
11
335.593010
21
511.092800
0
LINE
8
Calque 1
10
335.593010
20
511.092800
11
337.050720
21
509.742300
0
LINE
8
Calque 1
10
337.050720
20
509.742300
11
338.619200
21
508.088700
0
LINE
8
Calque 1
10
338.619200
20
508.088700
11
341.481480
21
505.338200
0
LINE
8
Calque 1
10
341.481480
20
505.338200
11
343.360096
21
503.609713
0
LINE
8
Calque 1
10
343.360096
20
503.609713
11
344.311240
21
502.890800
0
LINE
8
Calque 1
10
344.311240
20
502.890800
11
344.471579
21
502.845800
0
LINE
8
Calque 1
10
344.471579
20
502.845800
11
344.448910
21
502.737800
0
LINE
8
Calque 1
10
344.448910
20
502.737800
11
344.712979
21
502.310716
0
LINE
8
Calque 1
10
344.712979
20
502.310716
11
345.571926
21
501.402600
0
LINE
8
Calque 1
10
345.571926
20
501.402600
11
348.152440
21
499.059100
0
LINE
8
Calque 1
10
348.152440
20
499.059100
11
348.712617
21
498.462900
0
LINE
8
Calque 1
10
348.712617
20
498.462900
11
348.837630
21
498.038000
0
LINE
8
Calque 1
10
348.837630
20
498.038000
11
348.778705
21
497.880487
0
LINE
8
Calque 1
10
348.778705
20
497.880487
11
348.883430
21
497.932300
0
LINE
8
Calque 1
10
348.883430
20
497.932300
11
349.224097
21
497.900428
0
LINE
8
Calque 1
10
349.224097
20
497.900428
11
349.710257
21
497.554625
0
LINE
8
Calque 1
10
349.710257
20
497.554625
11
350.145781
21
497.071309
0
LINE
8
Calque 1
10
350.145781
20
497.071309
11
350.334540
21
496.626900
0
LINE
8
Calque 1
10
350.334540
20
496.626900
11
350.401574
21
496.379212
0
LINE
8
Calque 1
10
350.401574
20
496.379212
11
350.562740
21
496.276200
0
LINE
8
Calque 1
10
350.562740
20
496.276200
11
351.752304
21
495.507150
0
LINE
8
Calque 1
10
351.752304
20
495.507150
11
352.362477
21
494.944594
0
LINE
8
Calque 1
10
352.362477
20
494.944594
11
352.556720
21
494.617800
0
LINE
8
Calque 1
10
352.556720
20
494.617800
11
352.678987
21
494.385962
0
LINE
8
Calque 1
10
352.678987
20
494.385962
11
353.172580
21
494.027900
0
LINE
8
Calque 1
10
353.172580
20
494.027900
11
353.889271
21
493.447000
0
LINE
8
Calque 1
10
353.889271
20
493.447000
11
354.547920
21
492.679200
0
LINE
8
Calque 1
10
354.547920
20
492.679200
11
355.349220
21
491.778300
0
LINE
8
Calque 1
10
355.349220
20
491.778300
11
356.571890
21
490.700100
0
LINE
8
Calque 1
10
356.571890
20
490.700100
11
358.536620
21
488.728800
0
LINE
8
Calque 1
10
358.536620
20
488.728800
11
364.270860
21
483.126200
0
LINE
8
Calque 1
10
364.270860
20
483.126200
11
370.823860
21
476.767900
0
LINE
8
Calque 1
10
370.823860
20
476.767900
11
372.571560
21
474.989700
0
LINE
8
Calque 1
10
372.571560
20
474.989700
11
375.179710
21
472.467700
0
LINE
8
Calque 1
10
375.179710
20
472.467700
11
375.660880
21
471.934500
0
LINE
8
Calque 1
10
375.660880
20
471.934500
11
377.224690
21
470.280900
0
LINE
8
Calque 1
10
377.224690
20
470.280900
11
380.576034
21
467.007512
0
LINE
8
Calque 1
10
380.576034
20
467.007512
11
381.290790
21
466.092800
0
LINE
8
Calque 1
10
381.290790
20
466.092800
11
381.387939
21
465.913788
0
LINE
8
Calque 1
10
381.387939
20
465.913788
11
381.621520
21
465.825600
0
LINE
8
Calque 1
10
381.621520
20
465.825600
11
382.243702
21
465.356425
0
LINE
8
Calque 1
10
382.243702
20
465.356425
11
383.275160
21
464.261600
0
LINE
8
Calque 1
10
383.275160
20
464.261600
11
384.804600
21
462.697600
0
LINE
8
Calque 1
10
384.804600
20
462.697600
11
385.824190
21
461.748100
0
LINE
8
Calque 1
10
385.824190
20
461.748100
11
386.509401
21
461.094025
0
LINE
8
Calque 1
10
386.509401
20
461.094025
11
387.015040
21
460.822000
0
LINE
8
Calque 1
10
387.015040
20
460.822000
11
387.332559
21
460.686012
0
LINE
8
Calque 1
10
387.332559
20
460.686012
11
387.565470
21
460.359000
0
LINE
8
Calque 1
10
387.565470
20
460.359000
11
387.986079
21
459.691200
0
LINE
8
Calque 1
10
387.986079
20
459.691200
11
388.682545
21
458.899500
0
LINE
8
Calque 1
10
388.682545
20
458.899500
11
389.379521
21
458.265600
0
LINE
8
Calque 1
10
389.379521
20
458.265600
11
389.801660
21
458.071200
0
LINE
8
Calque 1
10
389.801660
20
458.071200
11
390.032106
21
457.972812
0
LINE
8
Calque 1
10
390.032106
20
457.972812
11
390.275310
21
457.544500
0
LINE
8
Calque 1
10
390.275310
20
457.544500
11
390.670681
21
456.937625
0
LINE
8
Calque 1
10
390.670681
20
456.937625
11
391.267000
21
456.410400
0
LINE
8
Calque 1
10
391.267000
20
456.410400
11
392.208840
21
455.619200
0
LINE
8
Calque 1
10
392.208840
20
455.619200
11
393.270163
21
454.445762
0
LINE
8
Calque 1
10
393.270163
20
454.445762
11
394.244860
21
453.678300
0
LINE
8
Calque 1
10
394.244860
20
453.678300
11
394.603580
21
453.122500
0
LINE
8
Calque 1
10
394.603580
20
453.122500
11
394.789136
21
452.781025
0
LINE
8
Calque 1
10
394.789136
20
452.781025
11
395.031310
21
452.741200
0
LINE
8
Calque 1
10
395.031310
20
452.741200
11
395.230750
21
452.782000
0
LINE
8
Calque 1
10
395.230750
20
452.782000
11
395.313700
21
452.635600
0
LINE
8
Calque 1
10
395.313700
20
452.635600
11
395.900615
21
451.801383
0
LINE
8
Calque 1
10
395.900615
20
451.801383
11
397.231836
21
450.455262
0
LINE
8
Calque 1
10
397.231836
20
450.455262
11
398.663080
21
449.203211
0
LINE
8
Calque 1
10
398.663080
20
449.203211
11
399.550060
21
448.651200
0
LINE
8
Calque 1
10
399.550060
20
448.651200
11
399.734788
21
448.560525
0
LINE
8
Calque 1
10
399.734788
20
448.560525
11
399.811620
21
448.342500
0
LINE
8
Calque 1
10
399.811620
20
448.342500
11
399.855411
21
448.168262
0
LINE
8
Calque 1
10
399.855411
20
448.168262
11
399.960650
21
448.182800
0
LINE
8
Calque 1
10
399.960650
20
448.182800
11
400.820550
21
448.138800
0
LINE
8
Calque 1
10
400.820550
20
448.138800
11
401.429645
21
448.037330
0
LINE
8
Calque 1
10
401.429645
20
448.037330
11
402.028179
21
448.092637
0
LINE
8
Calque 1
10
402.028179
20
448.092637
11
403.515790
21
448.746600
0
LINE
8
Calque 1
10
403.515790
20
448.746600
11
403.515800
21
448.746500
0
LINE
8
Calque 1
10
396.215610
20
504.411600
11
401.446956
21
530.479962
0
LINE
8
Calque 1
10
401.446956
20
530.479962
11
402.699161
21
536.241267
0
LINE
8
Calque 1
10
402.699161
20
536.241267
11
403.255370
21
538.175500
0
LINE
8
Calque 1
10
403.255370
20
538.175500
11
403.727257
21
538.506975
0
LINE
8
Calque 1
10
403.727257
20
538.506975
11
404.214130
21
538.393100
0
LINE
8
Calque 1
10
404.214130
20
538.393100
11
406.446555
21
534.991387
0
LINE
8
Calque 1
10
406.446555
20
534.991387
11
411.122570
21
527.199100
0
LINE
8
Calque 1
10
411.122570
20
527.199100
11
417.538710
21
516.461100
0
LINE
8
Calque 1
10
417.538710
20
516.461100
11
414.372660
21
528.817900
0
LINE
8
Calque 1
10
414.372660
20
528.817900
11
412.180046
21
537.530100
0
LINE
8
Calque 1
10
412.180046
20
537.530100
11
411.354390
21
541.378700
0
LINE
8
Calque 1
10
411.354390
20
541.378700
11
411.602385
21
541.698303
0
LINE
8
Calque 1
10
411.602385
20
541.698303
11
412.000766
21
541.911050
0
LINE
8
Calque 1
10
412.000766
20
541.911050
11
412.447360
21
541.982572
0
LINE
8
Calque 1
10
412.447360
20
541.982572
11
412.839990
21
541.878500
0
LINE
8
Calque 1
10
412.839990
20
541.878500
11
440.689790
21
523.251500
0
LINE
8
Calque 1
10
440.689790
20
523.251500
11
467.270665
21
505.478938
0
LINE
8
Calque 1
10
467.270665
20
505.478938
11
469.673193
21
503.950761
0
LINE
8
Calque 1
10
469.673193
20
503.950761
11
469.701090
21
504.004159
0
LINE
8
Calque 1
10
469.701090
20
504.004159
11
469.536690
21
504.213200
0
LINE
8
Calque 1
10
469.536690
20
504.213200
11
450.614790
21
532.523600
0
LINE
8
Calque 1
10
450.614790
20
532.523600
11
431.728590
21
560.770200
0
LINE
8
Calque 1
10
431.728590
20
560.770200
11
431.627361
21
561.161528
0
LINE
8
Calque 1
10
431.627361
20
561.161528
11
431.698384
21
561.607775
0
LINE
8
Calque 1
10
431.698384
20
561.607775
11
431.907360
21
562.005534
0
LINE
8
Calque 1
10
431.907360
20
562.005534
11
432.219990
21
562.251400
0
LINE
8
Calque 1
10
432.219990
20
562.251400
11
436.041578
21
561.428588
0
LINE
8
Calque 1
10
436.041578
20
561.428588
11
444.705090
21
559.248800
0
LINE
8
Calque 1
10
444.705090
20
559.248800
11
456.900290
21
556.186500
0
LINE
8
Calque 1
10
456.900290
20
556.186500
11
446.233590
21
562.582300
0
LINE
8
Calque 1
10
446.233590
20
562.582300
11
438.562585
21
567.187150
0
LINE
8
Calque 1
10
438.562585
20
567.187150
11
435.215690
21
569.394400
0
LINE
8
Calque 1
10
435.215690
20
569.394400
11
435.109086
21
569.885912
0
LINE
8
Calque 1
10
435.109086
20
569.885912
11
435.437730
21
570.354700
0
LINE
8
Calque 1
10
435.437730
20
570.354700
11
437.413537
21
570.914686
0
LINE
8
Calque 1
10
437.413537
20
570.914686
11
443.258270
21
572.179887
0
LINE
8
Calque 1
10
443.258270
20
572.179887
11
469.315030
21
577.400100
0
LINE
8
Calque 1
10
469.315030
20
577.400100
11
492.841480
21
582.099625
0
LINE
8
Calque 1
10
492.841480
20
582.099625
11
502.520230
21
584.151500
0
LINE
8
Calque 1
10
502.520230
20
584.151500
11
469.132530
21
590.867800
0
LINE
8
Calque 1
10
469.132530
20
590.867800
11
443.152505
21
596.073537
0
LINE
8
Calque 1
10
443.152505
20
596.073537
11
437.379011
21
597.325792
0
LINE
8
Calque 1
10
437.379011
20
597.325792
11
435.434830
21
597.882000
0
LINE
8
Calque 1
10
435.434830
20
597.882000
11
435.103322
21
598.352200
0
LINE
8
Calque 1
10
435.103322
20
598.352200
11
435.217270
21
598.838600
0
LINE
8
Calque 1
10
435.217270
20
598.838600
11
438.618941
21
601.071050
0
LINE
8
Calque 1
10
438.618941
20
601.071050
11
446.411270
21
605.747000
0
LINE
8
Calque 1
10
446.411270
20
605.747000
11
454.062293
21
610.278437
0
LINE
8
Calque 1
10
454.062293
20
610.278437
11
457.124170
21
612.163200
0
LINE
8
Calque 1
10
457.124170
20
612.163200
11
444.764270
21
608.998300
0
LINE
8
Calque 1
10
444.764270
20
608.998300
11
436.068436
21
606.806250
0
LINE
8
Calque 1
10
436.068436
20
606.806250
11
432.228470
21
605.980100
0
LINE
8
Calque 1
10
432.228470
20
605.980100
11
431.901595
21
606.238020
0
LINE
8
Calque 1
10
431.901595
20
606.238020
11
431.691761
21
606.649437
0
LINE
8
Calque 1
10
431.691761
20
606.649437
11
431.634089
21
607.101036
0
LINE
8
Calque 1
10
431.634089
20
607.101036
11
431.763700
21
607.479500
0
LINE
8
Calque 1
10
431.763700
20
607.479500
11
472.440100
21
657.539200
0
LINE
8
Calque 1
10
472.440100
20
657.539200
11
510.786763
21
704.734513
0
LINE
8
Calque 1
10
510.786763
20
704.734513
11
513.744489
21
708.445605
0
LINE
8
Calque 1
10
513.744489
20
708.445605
11
513.562758
21
708.288611
0
LINE
8
Calque 1
10
513.562758
20
708.288611
11
513.185700
21
707.917200
0
LINE
8
Calque 1
10
513.185700
20
707.917200
11
462.914900
21
667.064400
0
LINE
8
Calque 1
10
462.914900
20
667.064400
11
412.855200
21
626.388000
0
LINE
8
Calque 1
10
412.855200
20
626.388000
11
412.476697
21
626.258491
0
LINE
8
Calque 1
10
412.476697
20
626.258491
11
412.025081
21
626.316275
0
LINE
8
Calque 1
10
412.025081
20
626.316275
11
411.613660
21
626.526122
0
LINE
8
Calque 1
10
411.613660
20
626.526122
11
411.355740
21
626.852800
0
LINE
8
Calque 1
10
411.355740
20
626.852800
11
412.181899
21
630.692763
0
LINE
8
Calque 1
10
412.181899
20
630.692763
11
414.374010
21
639.388600
0
LINE
8
Calque 1
10
414.374010
20
639.388600
11
417.538850
21
651.752500
0
LINE
8
Calque 1
10
417.538850
20
651.752500
11
415.654110
21
648.692375
0
LINE
8
Calque 1
10
415.654110
20
648.692375
11
411.122710
21
641.040000
0
LINE
8
Calque 1
10
411.122710
20
641.040000
11
406.446695
21
633.244963
0
LINE
8
Calque 1
10
406.446695
20
633.244963
11
404.214270
21
629.842000
0
LINE
8
Calque 1
10
404.214270
20
629.842000
11
403.727718
21
629.727625
0
LINE
8
Calque 1
10
403.727718
20
629.727625
11
403.257050
21
630.059200
0
LINE
8
Calque 1
10
403.257050
20
630.059200
11
402.699746
21
632.008048
0
LINE
8
Calque 1
10
402.699746
20
632.008048
11
401.443525
21
637.805213
0
LINE
8
Calque 1
10
401.443525
20
637.805213
11
396.208710
21
663.953000
0
LINE
8
Calque 1
10
396.208710
20
663.953000
11
389.493020
21
697.355000
0
LINE
8
Calque 1
10
389.493020
20
697.355000
11
382.775330
21
663.953800
0
LINE
8
Calque 1
10
382.775330
20
663.953800
11
377.546854
21
637.845438
0
LINE
8
Calque 1
10
377.546854
20
637.845438
11
376.285836
21
632.022658
0
LINE
8
Calque 1
10
376.285836
20
632.022658
11
375.727000
21
630.059200
0
LINE
8
Calque 1
10
375.727000
20
630.059200
11
375.257905
21
629.727600
0
LINE
8
Calque 1
10
375.257905
20
629.727600
11
374.771770
21
629.842100
0
LINE
8
Calque 1
10
374.771770
20
629.842100
11
372.539345
21
633.241813
0
LINE
8
Calque 1
10
372.539345
20
633.241813
11
367.863330
21
641.028800
0
LINE
8
Calque 1
10
367.863330
20
641.028800
11
363.331930
21
648.676075
0
LINE
8
Calque 1
10
363.331930
20
648.676075
11
361.447190
21
651.740100
0
LINE
8
Calque 1
10
361.447190
20
651.740100
11
367.690940
21
627.470700
0
LINE
8
Calque 1
10
367.690940
20
627.470700
11
367.649983
21
627.026767
0
LINE
8
Calque 1
10
367.649983
20
627.026767
11
367.364005
21
626.601013
0
LINE
8
Calque 1
10
367.364005
20
626.601013
11
366.944002
21
626.306677
0
LINE
8
Calque 1
10
366.944002
20
626.306677
11
366.500970
21
626.257000
0
LINE
8
Calque 1
10
366.500970
20
626.257000
11
338.428470
21
644.887500
0
LINE
8
Calque 1
10
338.428470
20
644.887500
11
311.723732
21
662.749613
0
LINE
8
Calque 1
10
311.723732
20
662.749613
11
309.310250
21
664.284623
0
LINE
8
Calque 1
10
309.310250
20
664.284623
11
309.281215
21
664.230990
0
LINE
8
Calque 1
10
309.281215
20
664.230990
11
309.444170
21
664.021500
0
LINE
8
Calque 1
10
309.444170
20
664.021500
11
340.344670
21
617.801100
0
LINE
8
Calque 1
10
340.344670
20
617.801100
11
344.538637
21
611.489113
0
LINE
8
Calque 1
10
344.538637
20
611.489113
11
346.671840
21
608.030500
0
LINE
8
Calque 1
10
346.671840
20
608.030500
11
347.122221
21
607.082741
0
LINE
8
Calque 1
10
347.122221
20
607.082741
11
347.245291
21
606.502163
0
LINE
8
Calque 1
10
347.245291
20
606.502163
11
347.103675
21
606.173378
0
LINE
8
Calque 1
10
347.103675
20
606.173378
11
346.760000
21
605.981000
0
LINE
8
Calque 1
10
346.760000
20
605.981000
11
342.916073
21
606.807575
0
LINE
8
Calque 1
10
342.916073
20
606.807575
11
334.207300
21
608.999300
0
LINE
8
Calque 1
10
334.207300
20
608.999300
11
321.841000
21
612.163200
0
LINE
8
Calque 1
10
321.841000
20
612.163200
11
324.913051
21
610.278438
0
LINE
8
Calque 1
10
324.913051
20
610.278438
11
332.570400
21
605.747000
0
LINE
8
Calque 1
10
332.570400
20
605.747000
11
340.365422
21
601.071050
0
LINE
8
Calque 1
10
340.365422
20
601.071050
11
343.768400
21
598.838600
0
LINE
8
Calque 1
10
343.768400
20
598.838600
11
343.882760
21
598.352238
0
LINE
8
Calque 1
10
343.882760
20
598.352238
11
343.551200
21
597.882300
0
LINE
8
Calque 1
10
343.551200
20
597.882300
11
341.595524
21
597.324294
0
LINE
8
Calque 1
10
341.595524
20
597.324294
11
335.786450
21
596.065825
0
LINE
8
Calque 1
10
335.786450
20
596.065825
11
309.657500
21
590.834000
0
LINE
8
Calque 1
10
309.657500
20
590.834000
11
276.255400
21
584.117300
0
LINE
8
Calque 1
10
276.255400
20
584.117300
11
309.656600
21
577.400700
0
LINE
8
Calque 1
10
309.656600
20
577.400700
11
335.785487
21
572.168938
0
LINE
8
Calque 1
10
335.785487
20
572.168938
11
341.595252
21
570.910364
0
LINE
8
Calque 1
10
341.595252
20
570.910364
11
343.551300
21
570.352300
0
LINE
8
Calque 1
10
343.551300
20
570.352300
11
343.882872
21
569.882450
0
LINE
8
Calque 1
10
343.882872
20
569.882450
11
343.768390
21
569.396100
0
LINE
8
Calque 1
10
343.768390
20
569.396100
11
340.368677
21
567.163650
0
LINE
8
Calque 1
10
340.368677
20
567.163650
11
332.581690
21
562.487700
0
LINE
8
Calque 1
10
332.581690
20
562.487700
11
324.934026
21
557.956263
0
LINE
8
Calque 1
10
324.934026
20
557.956263
11
321.869290
21
556.071500
0
LINE
8
Calque 1
10
321.869290
20
556.071500
11
334.221890
21
559.236400
0
LINE
8
Calque 1
10
334.221890
20
559.236400
11
342.917724
21
561.428450
0
LINE
8
Calque 1
10
342.917724
20
561.428450
11
346.757690
21
562.254600
0
LINE
8
Calque 1
10
346.757690
20
562.254600
11
347.075579
21
562.007039
0
LINE
8
Calque 1
10
347.075579
20
562.007039
11
347.287166
21
561.608738
0
LINE
8
Calque 1
10
347.287166
20
561.608738
11
347.358138
21
561.162267
0
LINE
8
Calque 1
10
347.358138
20
561.162267
11
347.254180
21
560.770200
0
LINE
8
Calque 1
10
347.254180
20
560.770200
11
328.628480
21
532.920500
0
LINE
8
Calque 1
10
328.628480
20
532.920500
11
310.826367
21
506.294113
0
LINE
8
Calque 1
10
310.826367
20
506.294113
11
309.316857
21
503.920348
0
LINE
8
Calque 1
10
309.316857
20
503.920348
11
309.377686
21
503.904238
0
LINE
8
Calque 1
10
309.377686
20
503.904238
11
309.588980
21
504.072800
0
LINE
8
Calque 1
10
309.588980
20
504.072800
11
337.899380
21
522.993100
0
LINE
8
Calque 1
10
337.899380
20
522.993100
11
366.145980
21
541.880100
0
LINE
8
Calque 1
10
366.145980
20
541.880100
11
366.538006
21
541.982828
0
LINE
8
Calque 1
10
366.538006
20
541.982828
11
366.984429
21
541.911575
0
LINE
8
Calque 1
10
366.984429
20
541.911575
11
367.382497
21
541.700634
0
LINE
8
Calque 1
10
367.382497
20
541.700634
11
367.629460
21
541.384300
0
LINE
8
Calque 1
10
367.629460
20
541.384300
11
366.807960
21
537.559750
0
LINE
8
Calque 1
10
366.807960
20
537.559750
11
364.628330
21
528.897700
0
LINE
8
Calque 1
10
364.628330
20
528.897700
11
361.563680
21
516.708600
0
LINE
8
Calque 1
10
361.563680
20
516.708600
11
367.958050
21
527.376700
0
LINE
8
Calque 1
10
367.958050
20
527.376700
11
372.562890
21
535.047750
0
LINE
8
Calque 1
10
372.562890
20
535.047750
11
374.770160
21
538.394600
0
LINE
8
Calque 1
10
374.770160
20
538.394600
11
375.261941
21
538.501175
0
LINE
8
Calque 1
10
375.261941
20
538.501175
11
375.731770
21
538.172600
0
LINE
8
Calque 1
10
375.731770
20
538.172600
11
376.290481
21
536.210456
0
LINE
8
Calque 1
10
376.290481
20
536.210456
11
377.551324
21
530.398825
0
LINE
8
Calque 1
10
377.551324
20
530.398825
11
382.766030
21
504.411600
0
LINE
8
Calque 1
10
382.766030
20
504.411600
11
389.490540
21
471.140300
0
LINE
8
Calque 1
10
389.490540
20
471.140300
11
396.215820
21
504.411600
0
LINE
8
Calque 1
10
396.215820
20
504.411600
11
396.215610
21
504.411600
0
LINE
8
Calque 1
10
388.757090
20
511.952200
11
384.793174
21
530.938037
0
LINE
8
Calque 1
10
384.793174
20
530.938037
11
381.026260
21
550.423600
0
LINE
8
Calque 1
10
381.026260
20
550.423600
11
382.172760
21
552.633925
0
LINE
8
Calque 1
10
382.172760
20
552.633925
11
384.929180
21
557.262100
0
LINE
8
Calque 1
10
384.929180
20
557.262100
11
388.268087
21
562.509687
0
LINE
8
Calque 1
10
388.268087
20
562.509687
11
389.011805
21
563.397133
0
LINE
8
Calque 1
10
389.011805
20
563.397133
11
389.486490
21
563.612100
0
LINE
8
Calque 1
10
389.486490
20
563.612100
11
389.961482
21
563.396902
0
LINE
8
Calque 1
10
389.961482
20
563.396902
11
390.706399
21
562.509187
0
LINE
8
Calque 1
10
390.706399
20
562.509187
11
394.050240
21
557.263500
0
LINE
8
Calque 1
10
394.050240
20
557.263500
11
396.811190
21
552.650237
0
LINE
8
Calque 1
10
396.811190
20
552.650237
11
397.959550
21
550.473800
0
LINE
8
Calque 1
10
397.959550
20
550.473800
11
394.189639
21
530.969925
0
LINE
8
Calque 1
10
394.189639
20
530.969925
11
390.228950
21
511.952200
0
LINE
8
Calque 1
10
390.228950
20
511.952200
11
389.900654
21
511.718637
0
LINE
8
Calque 1
10
389.900654
20
511.718637
11
389.492880
21
511.621500
0
LINE
8
Calque 1
10
389.492880
20
511.621500
11
389.085190
21
511.718637
0
LINE
8
Calque 1
10
389.085190
20
511.718637
11
388.757090
21
511.952200
0
LINE
8
Calque 1
10
388.757090
20
511.952200
11
388.757090
21
511.952200
0
LINE
8
Calque 1
10
338.216590
20
532.841100
11
337.899090
21
533.523300
0
LINE
8
Calque 1
10
337.899090
20
533.523300
11
348.533015
21
549.778063
0
LINE
8
Calque 1
10
348.533015
20
549.778063
11
359.684290
21
566.305900
0
LINE
8
Calque 1
10
359.684290
20
566.305900
11
362.036240
21
567.037600
0
LINE
8
Calque 1
10
362.036240
20
567.037600
11
367.259100
21
568.357900
0
LINE
8
Calque 1
10
367.259100
20
568.357900
11
373.576614
21
569.787950
0
LINE
8
Calque 1
10
373.576614
20
569.787950
11
374.580016
21
569.852941
0
LINE
8
Calque 1
10
374.580016
20
569.852941
11
374.999560
21
569.624100
0
LINE
8
Calque 1
10
374.999560
20
569.624100
11
375.228408
21
569.204552
0
LINE
8
Calque 1
10
375.228408
20
569.204552
11
375.163429
21
568.201137
0
LINE
8
Calque 1
10
375.163429
20
568.201137
11
373.733360
21
561.883600
0
LINE
8
Calque 1
10
373.733360
20
561.883600
11
372.413119
21
556.660738
0
LINE
8
Calque 1
10
372.413119
20
556.660738
11
371.681440
21
554.308800
0
LINE
8
Calque 1
10
371.681440
20
554.308800
11
355.153587
21
543.157525
0
LINE
8
Calque 1
10
355.153587
20
543.157525
11
338.898840
21
532.523600
0
LINE
8
Calque 1
10
338.898840
20
532.523600
11
338.216610
21
532.841100
0
LINE
8
Calque 1
10
338.216610
20
532.841100
11
338.216590
21
532.841100
0
LINE
8
Calque 1
10
423.624090
20
543.272000
11
407.303390
21
554.305300
0
LINE
8
Calque 1
10
407.303390
20
554.305300
11
406.570532
21
556.658850
0
LINE
8
Calque 1
10
406.570532
20
556.658850
11
405.248580
21
561.880700
0
LINE
8
Calque 1
10
405.248580
20
561.880700
11
403.814007
21
568.207050
0
LINE
8
Calque 1
10
403.814007
20
568.207050
11
403.751973
21
569.204534
0
LINE
8
Calque 1
10
403.751973
20
569.204534
11
403.985620
21
569.623600
0
LINE
8
Calque 1
10
403.985620
20
569.623600
11
404.404695
21
569.857130
0
LINE
8
Calque 1
10
404.404695
20
569.857130
11
405.402241
21
569.794437
0
LINE
8
Calque 1
10
405.402241
20
569.794437
11
411.728970
21
568.355100
0
LINE
8
Calque 1
10
411.728970
20
568.355100
11
416.948731
21
567.031062
0
LINE
8
Calque 1
10
416.948731
20
567.031062
11
419.296660
21
566.300800
0
LINE
8
Calque 1
10
419.296660
20
566.300800
11
430.450056
21
549.777262
0
LINE
8
Calque 1
10
430.450056
20
549.777262
11
441.086560
21
533.525600
0
LINE
8
Calque 1
10
441.086560
20
533.525600
11
440.994214
21
533.160623
0
LINE
8
Calque 1
10
440.994214
20
533.160623
11
440.753212
21
532.840037
0
LINE
8
Calque 1
10
440.753212
20
532.840037
11
440.417610
21
532.614983
0
LINE
8
Calque 1
10
440.417610
20
532.614983
11
440.041460
21
532.536600
0
LINE
8
Calque 1
10
440.041460
20
532.536600
11
435.049679
21
535.696562
0
LINE
8
Calque 1
10
435.049679
20
535.696562
11
423.624060
21
543.272000
0
LINE
8
Calque 1
10
423.624060
20
543.272000
11
423.624090
21
543.272000
0
LINE
8
Calque 1
10
336.443890
20
579.366500
11
317.526190
21
583.275900
0
LINE
8
Calque 1
10
317.526190
20
583.275900
11
317.211843
21
583.600695
0
LINE
8
Calque 1
10
317.211843
20
583.600695
11
317.062199
21
584.041337
0
LINE
8
Calque 1
10
317.062199
20
584.041337
11
317.091750
21
584.490436
0
LINE
8
Calque 1
10
317.091750
20
584.490436
11
317.314990
21
584.840600
0
LINE
8
Calque 1
10
317.314990
20
584.840600
11
336.386339
21
588.814562
0
LINE
8
Calque 1
10
336.386339
20
588.814562
11
355.890790
21
592.583400
0
LINE
8
Calque 1
10
355.890790
20
592.583400
11
358.036392
21
591.433925
0
LINE
8
Calque 1
10
358.036392
20
591.433925
11
362.637660
21
588.675100
0
LINE
8
Calque 1
10
362.637660
20
588.675100
11
367.881614
21
585.339475
0
LINE
8
Calque 1
10
367.881614
20
585.339475
11
368.771330
21
584.595203
0
LINE
8
Calque 1
10
368.771330
20
584.595203
11
368.987660
21
584.121400
0
LINE
8
Calque 1
10
368.987660
20
584.121400
11
368.771047
21
583.647223
0
LINE
8
Calque 1
10
368.771047
20
583.647223
11
367.880972
21
582.901537
0
LINE
8
Calque 1
10
367.880972
20
582.901537
11
362.639040
21
579.560000
0
LINE
8
Calque 1
10
362.639040
20
579.560000
11
357.797882
21
576.692500
0
LINE
8
Calque 1
10
357.797882
20
576.692500
11
355.627580
21
575.670900
0
LINE
8
Calque 1
10
355.627580
20
575.670900
11
336.443880
21
579.366500
0
LINE
8
Calque 1
10
336.443880
20
579.366500
11
336.443890
21
579.366500
0
LINE
8
Calque 1
10
416.348090
20
579.553600
11
411.100521
21
582.892575
0
LINE
8
Calque 1
10
411.100521
20
582.892575
11
410.213064
21
583.636309
0
LINE
8
Calque 1
10
410.213064
20
583.636309
11
409.998090
21
584.111000
0
LINE
8
Calque 1
10
409.998090
20
584.111000
11
410.213300
21
584.585986
0
LINE
8
Calque 1
10
410.213300
20
584.585986
11
411.101035
21
585.330888
0
LINE
8
Calque 1
10
411.101035
20
585.330888
11
416.346710
21
588.674700
0
LINE
8
Calque 1
10
416.346710
20
588.674700
11
420.947411
21
591.436550
0
LINE
8
Calque 1
10
420.947411
20
591.436550
11
423.093580
21
592.587100
0
LINE
8
Calque 1
10
423.093580
20
592.587100
11
442.598462
21
588.816013
0
LINE
8
Calque 1
10
442.598462
20
588.816013
11
461.657980
21
584.851200
0
LINE
8
Calque 1
10
461.657980
20
584.851200
11
461.891561
21
584.524488
0
LINE
8
Calque 1
10
461.891561
20
584.524488
11
461.988710
21
584.117300
0
LINE
8
Calque 1
10
461.988710
20
584.117300
11
461.891561
21
583.710250
0
LINE
8
Calque 1
10
461.891561
20
583.710250
11
461.657980
21
583.383600
0
LINE
8
Calque 1
10
461.657980
20
583.383600
11
442.649556
21
579.421038
0
LINE
8
Calque 1
10
442.649556
20
579.421038
11
423.156580
21
575.650700
0
LINE
8
Calque 1
10
423.156580
20
575.650700
11
420.967467
21
576.797250
0
LINE
8
Calque 1
10
420.967467
20
576.797250
11
416.348100
21
579.553600
0
LINE
8
Calque 1
10
416.348100
20
579.553600
11
416.348090
21
579.553600
0
LINE
8
Calque 1
10
367.194590
20
599.863300
11
360.032250
21
601.660000
0
LINE
8
Calque 1
10
360.032250
20
601.660000
11
356.585300
21
606.541875
0
LINE
8
Calque 1
10
356.585300
20
606.541875
11
348.778450
21
618.095000
0
LINE
8
Calque 1
10
348.778450
20
618.095000
11
340.326036
21
630.891350
0
LINE
8
Calque 1
10
340.326036
20
630.891350
11
338.520592
21
633.821487
0
LINE
8
Calque 1
10
338.520592
20
633.821487
11
338.028850
21
634.909100
0
LINE
8
Calque 1
10
338.028850
20
634.909100
11
338.214605
21
635.313692
0
LINE
8
Calque 1
10
338.214605
20
635.313692
11
338.584562
21
635.466275
0
LINE
8
Calque 1
10
338.584562
20
635.466275
11
339.328377
21
635.257808
0
LINE
8
Calque 1
10
339.328377
20
635.257808
11
340.635709
21
634.579250
0
LINE
8
Calque 1
10
340.635709
20
634.579250
11
345.699551
21
631.375700
0
LINE
8
Calque 1
10
345.699551
20
631.375700
11
355.293350
21
624.983300
0
LINE
8
Calque 1
10
355.293350
20
624.983300
11
371.676450
21
613.919800
0
LINE
8
Calque 1
10
371.676450
20
613.919800
11
372.405934
21
611.576075
0
LINE
8
Calque 1
10
372.405934
20
611.576075
11
373.728150
21
606.364500
0
LINE
8
Calque 1
10
373.728150
20
606.364500
11
375.148440
21
600.115087
0
LINE
8
Calque 1
10
375.148440
20
600.115087
11
375.233105
21
599.070127
0
LINE
8
Calque 1
10
375.233105
20
599.070127
11
375.033390
21
598.625400
0
LINE
8
Calque 1
10
375.033390
20
598.625400
11
374.304610
21
598.169100
0
LINE
8
Calque 1
10
374.304610
20
598.169100
11
367.194710
21
599.863300
0
LINE
8
Calque 1
10
367.194710
20
599.863300
11
367.194590
21
599.863300
0
LINE
8
Calque 1
10
403.952090
20
598.625900
11
403.751825
21
599.070584
0
LINE
8
Calque 1
10
403.751825
20
599.070584
11
403.835520
21
600.114950
0
LINE
8
Calque 1
10
403.835520
20
600.114950
11
405.251380
21
606.365000
0
LINE
8
Calque 1
10
405.251380
20
606.365000
11
406.571460
21
611.577100
0
LINE
8
Calque 1
10
406.571460
20
611.577100
11
407.303540
21
613.922700
0
LINE
8
Calque 1
10
407.303540
20
613.922700
11
423.693140
21
624.986000
0
LINE
8
Calque 1
10
423.693140
20
624.986000
11
436.329065
21
633.330713
0
LINE
8
Calque 1
10
436.329065
20
633.330713
11
439.210912
21
635.103083
0
LINE
8
Calque 1
10
439.210912
20
635.103083
11
440.282240
21
635.582200
0
LINE
8
Calque 1
10
440.282240
20
635.582200
11
440.687489
21
635.396423
0
LINE
8
Calque 1
10
440.687489
20
635.396423
11
440.840741
21
635.026675
0
LINE
8
Calque 1
10
440.840741
20
635.026675
11
440.632948
21
634.283184
0
LINE
8
Calque 1
10
440.632948
20
634.283184
11
439.955062
21
632.976175
0
LINE
8
Calque 1
10
439.955062
20
632.976175
11
436.752825
21
627.912512
0
LINE
8
Calque 1
10
436.752825
20
627.912512
11
430.361650
21
618.317500
0
LINE
8
Calque 1
10
430.361650
20
618.317500
11
419.298350
21
601.928000
0
LINE
8
Calque 1
10
419.298350
20
601.928000
11
412.035209
21
599.951838
0
LINE
8
Calque 1
10
412.035209
20
599.951838
11
404.446350
21
598.140300
0
LINE
8
Calque 1
10
404.446350
20
598.140300
11
403.952190
21
598.625900
0
LINE
8
Calque 1
10
403.952190
20
598.625900
11
403.952090
21
598.625900
0
LINE
8
Calque 1
10
388.333390
20
605.466000
11
383.775365
21
612.865238
0
LINE
8
Calque 1
10
383.775365
20
612.865238
11
381.027150
21
617.781000
0
LINE
8
Calque 1
10
381.027150
20
617.781000
11
384.796100
21
637.271563
0
LINE
8
Calque 1
10
384.796100
20
637.271563
11
388.759210
21
656.282500
0
LINE
8
Calque 1
10
388.759210
20
656.282500
11
389.085870
21
656.516063
0
LINE
8
Calque 1
10
389.085870
20
656.516063
11
389.492960
21
656.613200
0
LINE
8
Calque 1
10
389.492960
20
656.613200
11
389.899744
21
656.516063
0
LINE
8
Calque 1
10
389.899744
20
656.516063
11
390.225670
21
656.282500
0
LINE
8
Calque 1
10
390.225670
20
656.282500
11
394.188164
21
637.224400
0
LINE
8
Calque 1
10
394.188164
20
637.224400
11
397.961800
21
617.718100
0
LINE
8
Calque 1
10
397.961800
20
617.718100
11
396.812357
21
615.571875
0
LINE
8
Calque 1
10
396.812357
20
615.571875
11
394.051600
21
610.971200
0
LINE
8
Calque 1
10
394.051600
20
610.971200
11
391.485731
21
606.881939
0
LINE
8
Calque 1
10
391.485731
20
606.881939
11
389.994696
21
604.906788
0
LINE
8
Calque 1
10
389.994696
20
604.906788
11
389.503512
21
604.568814
0
LINE
8
Calque 1
10
389.503512
20
604.568814
11
389.102560
21
604.587542
0
LINE
8
Calque 1
10
389.102560
20
604.587542
11
388.732350
21
604.905696
0
LINE
8
Calque 1
10
388.732350
20
604.905696
11
388.333390
21
605.466000
0
LINE
8
Calque 1
10
388.333390
20
605.466000
11
388.333390
21
605.466000
0
LINE
8
Calque 1
10
402.903390
20
494.436000
11
405.653851
21
496.851938
0
LINE
8
Calque 1
10
405.653851
20
496.851938
11
411.220720
21
502.271400
0
LINE
8
Calque 1
10
411.220720
20
502.271400
11
418.793230
21
509.829800
0
LINE
8
Calque 1
10
418.793230
20
509.829800
11
416.674800
21
513.437600
0
LINE
8
Calque 1
10
416.674800
20
513.437600
11
414.322230
21
517.302400
0
LINE
8
Calque 1
10
414.322230
20
517.302400
11
413.783589
21
516.968469
0
LINE
8
Calque 1
10
413.783589
20
516.968469
11
412.446236
21
515.786550
0
LINE
8
Calque 1
10
412.446236
20
515.786550
11
407.748210
21
511.223600
0
LINE
8
Calque 1
10
407.748210
20
511.223600
11
401.408340
21
504.887800
0
LINE
8
Calque 1
10
401.408340
20
504.887800
11
400.238260
21
506.036200
0
LINE
8
Calque 1
10
400.238260
20
506.036200
11
399.068180
21
507.184500
0
LINE
8
Calque 1
10
399.068180
20
507.184500
11
398.778270
21
505.765000
0
LINE
8
Calque 1
10
398.778270
20
505.765000
11
397.734270
21
500.591600
0
LINE
8
Calque 1
10
397.734270
20
500.591600
11
396.980170
21
496.837700
0
LINE
8
Calque 1
10
396.980170
20
496.837700
11
398.065240
21
495.776600
0
LINE
8
Calque 1
10
398.065240
20
495.776600
11
399.252987
21
494.817192
0
LINE
8
Calque 1
10
399.252987
20
494.817192
11
400.436495
21
494.279162
0
LINE
8
Calque 1
10
400.436495
20
494.279162
11
401.643913
21
494.154702
0
LINE
8
Calque 1
10
401.643913
20
494.154702
11
402.903390
21
494.436000
0
LINE
8
Calque 1
10
402.903390
20
494.436000
11
402.903390
21
494.436000
0
LINE
8
Calque 1
10
469.208590
20
512.944400
11
470.765080
21
514.267400
0
LINE
8
Calque 1
10
470.765080
20
514.267400
11
470.920169
21
514.383938
0
LINE
8
Calque 1
10
470.920169
20
514.383938
11
470.984680
21
514.664200
0
LINE
8
Calque 1
10
470.984680
20
514.664200
11
471.058830
21
514.944513
0
LINE
8
Calque 1
10
471.058830
20
514.944513
11
471.237110
21
515.061100
0
LINE
8
Calque 1
10
471.237110
20
515.061100
11
473.243530
21
516.780900
0
LINE
8
Calque 1
10
473.243530
20
516.780900
11
475.100920
21
518.500700
0
LINE
8
Calque 1
10
475.100920
20
518.500700
11
477.696280
21
520.948100
0
LINE
8
Calque 1
10
477.696280
20
520.948100
11
482.104960
21
525.115300
0
LINE
8
Calque 1
10
482.104960
20
525.115300
11
488.809240
21
531.329300
0
LINE
8
Calque 1
10
488.809240
20
531.329300
11
489.845856
21
532.236112
0
LINE
8
Calque 1
10
489.845856
20
532.236112
11
490.431550
21
532.564000
0
LINE
8
Calque 1
10
490.431550
20
532.564000
11
490.564017
21
532.558963
0
LINE
8
Calque 1
10
490.564017
20
532.558963
11
490.510950
21
532.664700
0
LINE
8
Calque 1
10
490.510950
20
532.664700
11
490.770785
21
533.162491
0
LINE
8
Calque 1
10
490.770785
20
533.162491
11
491.565050
21
534.052475
0
LINE
8
Calque 1
10
491.565050
20
534.052475
11
492.457332
21
534.888122
0
LINE
8
Calque 1
10
492.457332
20
534.888122
11
493.011220
21
535.222900
0
LINE
8
Calque 1
10
493.011220
20
535.222900
11
493.151367
21
535.306475
0
LINE
8
Calque 1
10
493.151367
20
535.306475
11
493.209660
21
535.581900
0
LINE
8
Calque 1
10
493.209660
20
535.581900
11
493.276408
21
535.831987
0
LINE
8
Calque 1
10
493.276408
20
535.831987
11
493.436890
21
535.854000
0
LINE
8
Calque 1
10
493.436890
20
535.854000
11
494.268980
21
536.402750
0
LINE
8
Calque 1
10
494.268980
20
536.402750
11
495.950430
21
537.919000
0
LINE
8
Calque 1
10
495.950430
20
537.919000
11
498.236740
21
539.988900
0
LINE
8
Calque 1
10
498.236740
20
539.988900
11
499.014010
21
540.620300
0
LINE
8
Calque 1
10
499.014010
20
540.620300
11
501.022430
21
542.445500
0
LINE
8
Calque 1
10
501.022430
20
542.445500
11
503.616050
21
544.760600
0
LINE
8
Calque 1
10
503.616050
20
544.760600
11
504.678634
21
545.648200
0
LINE
8
Calque 1
10
504.678634
20
545.648200
11
505.320100
21
546.017400
0
LINE
8
Calque 1
10
505.320100
20
546.017400
11
505.605906
21
546.133525
0
LINE
8
Calque 1
10
505.605906
20
546.133525
11
505.813390
21
546.412700
0
LINE
8
Calque 1
10
505.813390
20
546.412700
11
505.990099
21
546.648950
0
LINE
8
Calque 1
10
505.990099
20
546.648950
11
506.201960
21
546.661700
0
LINE
8
Calque 1
10
506.201960
20
546.661700
11
506.369245
21
546.677238
0
LINE
8
Calque 1
10
506.369245
20
546.677238
11
506.438820
21
546.921000
0
LINE
8
Calque 1
10
506.438820
20
546.921000
11
506.671985
21
547.328075
0
LINE
8
Calque 1
10
506.671985
20
547.328075
11
507.232570
21
547.737100
0
LINE
8
Calque 1
10
507.232570
20
547.737100
11
507.793159
21
548.097725
0
LINE
8
Calque 1
10
507.793159
20
548.097725
11
508.026320
21
548.388300
0
LINE
8
Calque 1
10
508.026320
20
548.388300
11
508.296394
21
548.655875
0
LINE
8
Calque 1
10
508.296394
20
548.655875
11
508.945720
21
548.961400
0
LINE
8
Calque 1
10
508.945720
20
548.961400
11
509.748790
21
549.410200
0
LINE
8
Calque 1
10
509.748790
20
549.410200
11
509.714422
21
549.682464
0
LINE
8
Calque 1
10
509.714422
20
549.682464
11
509.910206
21
550.026213
0
LINE
8
Calque 1
10
509.910206
20
550.026213
11
510.218440
21
550.297755
0
LINE
8
Calque 1
10
510.218440
20
550.297755
11
510.521420
21
550.353400
0
LINE
8
Calque 1
10
510.521420
20
550.353400
11
510.956710
21
550.479850
0
LINE
8
Calque 1
10
510.956710
20
550.479850
11
511.493190
21
551.024800
0
LINE
8
Calque 1
10
511.493190
20
551.024800
11
512.024479
21
551.599238
0
LINE
8
Calque 1
10
512.024479
20
551.599238
11
512.457330
21
551.838200
0
LINE
8
Calque 1
10
512.457330
20
551.838200
11
512.670922
21
551.907075
0
LINE
8
Calque 1
10
512.670922
20
551.907075
11
512.675130
21
552.072700
0
LINE
8
Calque 1
10
512.675130
20
552.072700
11
512.735160
21
552.280775
0
LINE
8
Calque 1
10
512.735160
20
552.280775
11
513.083010
21
552.451800
0
LINE
8
Calque 1
10
513.083010
20
552.451800
11
513.438971
21
552.643100
0
LINE
8
Calque 1
10
513.438971
20
552.643100
11
513.436020
21
552.919600
0
LINE
8
Calque 1
10
513.436020
20
552.919600
11
513.366638
21
553.105025
0
LINE
8
Calque 1
10
513.366638
20
553.105025
11
513.491520
21
553.085100
0
LINE
8
Calque 1
10
513.491520
20
553.085100
11
519.996058
21
559.298150
0
LINE
8
Calque 1
10
519.996058
20
559.298150
11
535.276120
21
574.457800
0
LINE
8
Calque 1
10
535.276120
20
574.457800
11
556.805420
21
595.988200
0
LINE
8
Calque 1
10
556.805420
20
595.988200
11
552.276390
21
600.702300
0
LINE
8
Calque 1
10
552.276390
20
600.702300
11
538.073326
21
615.070597
0
LINE
8
Calque 1
10
538.073326
20
615.070597
11
515.161191
21
637.976425
0
LINE
8
Calque 1
10
515.161191
20
637.976425
11
493.803231
21
659.191191
0
LINE
8
Calque 1
10
493.803231
20
659.191191
11
484.262690
21
668.486300
0
LINE
8
Calque 1
10
484.262690
20
668.486300
11
477.634700
21
660.581900
0
LINE
8
Calque 1
10
477.634700
20
660.581900
11
471.287980
21
652.776700
0
LINE
8
Calque 1
10
471.287980
20
652.776700
11
499.644780
21
624.400100
0
LINE
8
Calque 1
10
499.644780
20
624.400100
11
528.001580
21
596.023500
0
LINE
8
Calque 1
10
528.001580
20
596.023500
11
492.877980
21
560.899200
0
LINE
8
Calque 1
10
492.877980
20
560.899200
11
457.754380
21
525.774900
0
LINE
8
Calque 1
10
457.754380
20
525.774900
11
459.777560
21
522.733100
0
LINE
8
Calque 1
10
459.777560
20
522.733100
11
465.335024
21
514.543825
0
LINE
8
Calque 1
10
465.335024
20
514.543825
11
466.912812
21
512.370134
0
LINE
8
Calque 1
10
466.912812
20
512.370134
11
467.588460
21
511.621500
0
LINE
8
Calque 1
10
467.588460
20
511.621500
11
469.208580
21
512.944400
0
LINE
8
Calque 1
10
469.208580
20
512.944400
11
469.208590
21
512.944400
0
LINE
8
Calque 1
10
427.564490
20
518.604500
11
434.014230
21
525.058200
0
LINE
8
Calque 1
10
434.014230
20
525.058200
11
430.379180
21
527.491100
0
LINE
8
Calque 1
10
430.379180
20
527.491100
11
426.744120
21
529.924000
0
LINE
8
Calque 1
10
426.744120
20
529.924000
11
423.938080
21
527.188900
0
LINE
8
Calque 1
10
423.938080
20
527.188900
11
419.802940
21
523.171700
0
LINE
8
Calque 1
10
419.802940
20
523.171700
11
418.473840
21
521.889600
0
LINE
8
Calque 1
10
418.473840
20
521.889600
11
419.502040
21
517.880000
0
LINE
8
Calque 1
10
419.502040
20
517.880000
11
421.059010
21
512.150700
0
LINE
8
Calque 1
10
421.059010
20
512.150700
11
427.564490
21
518.604500
0
LINE
8
Calque 1
10
427.564490
20
518.604500
11
427.564490
21
518.604500
0
LINE
8
Calque 1
10
376.787090
20
523.160300
11
375.352921
21
529.843713
0
LINE
8
Calque 1
10
375.352921
20
529.843713
11
374.914166
21
530.969080
0
LINE
8
Calque 1
10
374.914166
20
530.969080
11
374.377910
21
531.609600
0
LINE
8
Calque 1
10
374.377910
20
531.609600
11
373.485690
21
532.488900
0
LINE
8
Calque 1
10
373.485690
20
532.488900
11
371.262260
21
528.647100
0
LINE
8
Calque 1
10
371.262260
20
528.647100
11
369.038830
21
524.805200
0
LINE
8
Calque 1
10
369.038830
20
524.805200
11
373.640680
21
520.197800
0
LINE
8
Calque 1
10
373.640680
20
520.197800
11
378.273280
21
515.590300
0
LINE
8
Calque 1
10
378.273280
20
515.590300
11
376.787090
21
523.160300
0
LINE
8
Calque 1
10
376.787090
20
523.160300
11
376.787090
21
523.160300
0
LINE
8
Calque 1
10
325.866190
20
532.688600
11
330.817830
21
539.997900
0
LINE
8
Calque 1
10
330.817830
20
539.997900
11
324.418970
21
546.400800
0
LINE
8
Calque 1
10
324.418970
20
546.400800
11
318.020110
21
552.803600
0
LINE
8
Calque 1
10
318.020110
20
552.803600
11
316.062270
21
552.281200
0
LINE
8
Calque 1
10
316.062270
20
552.281200
11
314.404856
21
551.925050
0
LINE
8
Calque 1
10
314.404856
20
551.925050
11
313.982900
21
551.948341
0
LINE
8
Calque 1
10
313.982900
20
551.948341
11
313.698720
21
552.095400
0
LINE
8
Calque 1
10
313.698720
20
552.095400
11
313.309035
21
552.618338
0
LINE
8
Calque 1
10
313.309035
20
552.618338
11
313.321436
21
553.185750
0
LINE
8
Calque 1
10
313.321436
20
553.185750
11
313.727206
21
553.773563
0
LINE
8
Calque 1
10
313.727206
20
553.773563
11
314.517630
21
554.357700
0
LINE
8
Calque 1
10
314.517630
20
554.357700
11
315.742230
21
555.075300
0
LINE
8
Calque 1
10
315.742230
20
555.075300
11
303.924530
21
566.895200
0
LINE
8
Calque 1
10
303.924530
20
566.895200
11
292.106830
21
578.715100
0
LINE
8
Calque 1
10
292.106830
20
578.715100
11
280.864630
21
580.917700
0
LINE
8
Calque 1
10
280.864630
20
580.917700
11
273.931777
21
582.303020
0
LINE
8
Calque 1
10
273.931777
20
582.303020
11
270.375105
21
583.165037
0
LINE
8
Calque 1
10
270.375105
20
583.165037
11
269.547620
21
583.501084
0
LINE
8
Calque 1
10
269.547620
20
583.501084
11
269.185921
21
583.827836
0
LINE
8
Calque 1
10
269.185921
20
583.827836
11
269.163919
21
584.185804
0
LINE
8
Calque 1
10
269.163919
20
584.185804
11
269.355530
21
584.615500
0
LINE
8
Calque 1
10
269.355530
20
584.615500
11
269.760319
21
584.917087
0
LINE
8
Calque 1
10
269.760319
20
584.917087
11
270.840159
21
585.260975
0
LINE
8
Calque 1
10
270.840159
20
585.260975
11
276.177860
21
586.372500
0
LINE
8
Calque 1
10
276.177860
20
586.372500
11
282.853260
21
587.735900
0
LINE
8
Calque 1
10
282.853260
20
587.735900
11
278.886390
21
591.933300
0
LINE
8
Calque 1
10
278.886390
20
591.933300
11
274.799850
21
596.026200
0
LINE
8
Calque 1
10
274.799850
20
596.026200
11
298.015150
21
619.242700
0
LINE
8
Calque 1
10
298.015150
20
619.242700
11
321.230450
21
642.459200
0
LINE
8
Calque 1
10
321.230450
20
642.459200
11
315.506290
21
651.057500
0
LINE
8
Calque 1
10
315.506290
20
651.057500
11
309.674640
21
659.776900
0
LINE
8
Calque 1
10
309.674640
20
659.776900
11
282.480981
21
632.824175
0
LINE
8
Calque 1
10
282.480981
20
632.824175
11
250.522040
21
600.702300
0
LINE
8
Calque 1
10
250.522040
20
600.702300
11
245.993040
21
595.988200
0
LINE
8
Calque 1
10
245.993040
20
595.988200
11
267.919240
21
574.060900
0
LINE
8
Calque 1
10
267.919240
20
574.060900
11
289.993640
21
552.201400
0
LINE
8
Calque 1
10
289.993640
20
552.201400
11
290.727780
21
551.656800
0
LINE
8
Calque 1
10
290.727780
20
551.656800
11
291.140230
21
551.044400
0
LINE
8
Calque 1
10
291.140230
20
551.044400
11
291.060085
21
551.010968
0
LINE
8
Calque 1
10
291.060085
20
551.010968
11
291.111979
21
550.922766
0
LINE
8
Calque 1
10
291.111979
20
550.922766
11
291.488776
21
550.654600
0
LINE
8
Calque 1
10
291.488776
20
550.654600
11
292.472640
21
550.259100
0
LINE
8
Calque 1
10
292.472640
20
550.259100
11
292.762641
21
550.177162
0
LINE
8
Calque 1
10
292.762641
20
550.177162
11
292.787750
21
549.986100
0
LINE
8
Calque 1
10
292.787750
20
549.986100
11
292.793446
21
549.799237
0
LINE
8
Calque 1
10
292.793446
20
549.799237
11
293.036720
21
549.721500
0
LINE
8
Calque 1
10
293.036720
20
549.721500
11
293.340308
21
549.556900
0
LINE
8
Calque 1
10
293.340308
20
549.556900
11
293.467810
21
549.126200
0
LINE
8
Calque 1
10
293.467810
20
549.126200
11
293.516070
21
548.690787
0
LINE
8
Calque 1
10
293.516070
20
548.690787
11
293.713790
21
549.060200
0
LINE
8
Calque 1
10
293.713790
20
549.060200
11
293.931717
21
549.353237
0
LINE
8
Calque 1
10
293.931717
20
549.353237
11
294.077600
21
548.685300
0
LINE
8
Calque 1
10
294.077600
20
548.685300
11
294.351530
21
548.222300
0
LINE
8
Calque 1
10
294.351530
20
548.222300
11
294.470729
21
548.157300
0
LINE
8
Calque 1
10
294.470729
20
548.157300
11
294.402030
21
548.332600
0
LINE
8
Calque 1
10
294.402030
20
548.332600
11
294.335673
21
548.655905
0
LINE
8
Calque 1
10
294.335673
20
548.655905
11
294.777149
21
548.436238
0
LINE
8
Calque 1
10
294.777149
20
548.436238
11
296.740280
21
546.678900
0
LINE
8
Calque 1
10
296.740280
20
546.678900
11
297.422348
21
546.048050
0
LINE
8
Calque 1
10
297.422348
20
546.048050
11
297.582593
21
545.946891
0
LINE
8
Calque 1
10
297.582593
20
545.946891
11
297.585340
21
546.017500
0
LINE
8
Calque 1
10
297.585340
20
546.017500
11
297.607067
21
546.083850
0
LINE
8
Calque 1
10
297.607067
20
546.083850
11
297.949540
21
545.686700
0
LINE
8
Calque 1
10
297.949540
20
545.686700
11
298.786680
21
544.959100
0
LINE
8
Calque 1
10
298.786680
20
544.959100
11
299.680129
21
544.380025
0
LINE
8
Calque 1
10
299.680129
20
544.380025
11
302.135640
21
542.114800
0
LINE
8
Calque 1
10
302.135640
20
542.114800
11
303.830290
21
540.725800
0
LINE
8
Calque 1
10
303.830290
20
540.725800
11
303.945946
21
540.646150
0
LINE
8
Calque 1
10
303.945946
20
540.646150
11
303.896190
21
540.454600
0
LINE
8
Calque 1
10
303.896190
20
540.454600
11
303.847140
21
540.284488
0
LINE
8
Calque 1
10
303.847140
20
540.284488
11
303.964590
21
540.256200
0
LINE
8
Calque 1
10
303.964590
20
540.256200
11
305.067775
21
539.564375
0
LINE
8
Calque 1
10
305.067775
20
539.564375
11
306.083030
21
538.543000
0
LINE
8
Calque 1
10
306.083030
20
538.543000
11
306.248220
21
538.410700
0
LINE
8
Calque 1
10
306.248220
20
538.410700
11
307.438550
21
537.352300
0
LINE
8
Calque 1
10
307.438550
20
537.352300
11
308.771180
21
536.227900
0
LINE
8
Calque 1
10
308.771180
20
536.227900
11
309.680430
21
535.434100
0
LINE
8
Calque 1
10
309.680430
20
535.434100
11
310.468030
21
534.640400
0
LINE
8
Calque 1
10
310.468030
20
534.640400
11
313.197090
21
532.095100
0
LINE
8
Calque 1
10
313.197090
20
532.095100
11
317.383940
21
528.192500
0
LINE
8
Calque 1
10
317.383940
20
528.192500
11
319.739450
21
525.984600
0
LINE
8
Calque 1
10
319.739450
20
525.984600
11
320.347224
21
525.419950
0
LINE
8
Calque 1
10
320.347224
20
525.419950
11
320.715950
21
525.256700
0
LINE
8
Calque 1
10
320.715950
20
525.256700
11
325.866080
21
532.688700
0
LINE
8
Calque 1
10
325.866080
20
532.688700
11
325.866190
21
532.688600
0
LINE
8
Calque 1
10
363.913190
20
534.950900
11
364.773810
21
538.280500
0
LINE
8
Calque 1
10
364.773810
20
538.280500
11
362.020230
21
536.433000
0
LINE
8
Calque 1
10
362.020230
20
536.433000
11
359.266640
21
534.585600
0
LINE
8
Calque 1
10
359.266640
20
534.585600
11
361.084500
21
532.751000
0
LINE
8
Calque 1
10
361.084500
20
532.751000
11
362.402616
21
531.543563
0
LINE
8
Calque 1
10
362.402616
20
531.543563
11
362.809039
21
531.269192
0
LINE
8
Calque 1
10
362.809039
20
531.269192
11
362.977460
21
531.268900
0
LINE
8
Calque 1
10
362.977460
20
531.268900
11
363.913190
21
534.950900
0
LINE
8
Calque 1
10
363.913190
20
534.950900
11
363.913190
21
534.950900
0
LINE
8
Calque 1
10
461.123490
20
552.647300
11
456.341770
21
553.952000
0
LINE
8
Calque 1
10
456.341770
20
553.952000
11
451.885330
21
555.094000
0
LINE
8
Calque 1
10
451.885330
20
555.094000
11
447.780050
21
550.988800
0
LINE
8
Calque 1
10
447.780050
20
550.988800
11
443.674780
21
546.883500
0
LINE
8
Calque 1
10
443.674780
20
546.883500
11
446.113450
21
543.239800
0
LINE
8
Calque 1
10
446.113450
20
543.239800
11
448.552120
21
539.596100
0
LINE
8
Calque 1
10
448.552120
20
539.596100
11
455.000440
21
546.040400
0
LINE
8
Calque 1
10
455.000440
20
546.040400
11
459.634996
21
550.802638
0
LINE
8
Calque 1
10
459.634996
20
550.802638
11
460.813305
21
552.133695
0
LINE
8
Calque 1
10
460.813305
20
552.133695
11
461.123490
21
552.647300
0
LINE
8
Calque 1
10
461.123490
20
552.647300
11
461.123490
21
552.647300
0
LINE
8
Calque 1
10
341.723490
20
556.520500
11
343.347020
21
559.178400
0
LINE
8
Calque 1
10
343.347020
20
559.178400
11
339.996509
21
558.445813
0
LINE
8
Calque 1
10
339.996509
20
558.445813
11
336.592830
21
557.499400
0
LINE
8
Calque 1
10
336.592830
20
557.499400
11
338.153082
21
555.688975
0
LINE
8
Calque 1
10
338.153082
20
555.688975
11
339.937930
21
553.954900
0
LINE
8
Calque 1
10
339.937930
20
553.954900
11
341.723490
21
556.520500
0
LINE
8
Calque 1
10
341.723490
20
556.520500
11
341.723490
21
556.520500
0
LINE
8
Calque 1
10
475.838490
20
566.879000
11
487.702090
21
578.744800
0
LINE
8
Calque 1
10
487.702090
20
578.744800
11
480.122820
21
577.249300
0
LINE
8
Calque 1
10
480.122820
20
577.249300
11
472.543560
21
575.753800
0
LINE
8
Calque 1
10
472.543560
20
575.753800
11
464.334700
21
567.545000
0
LINE
8
Calque 1
10
464.334700
20
567.545000
11
456.125840
21
559.336100
0
LINE
8
Calque 1
10
456.125840
20
559.336100
11
459.784670
21
557.180800
0
LINE
8
Calque 1
10
459.784670
20
557.180800
11
463.709190
21
555.019400
0
LINE
8
Calque 1
10
463.709190
20
555.019400
11
467.381767
21
558.501875
0
LINE
8
Calque 1
10
467.381767
20
558.501875
11
475.838490
21
566.879000
0
LINE
8
Calque 1
10
475.838490
20
566.879000
11
475.838490
21
566.879000
0
LINE
8
Calque 1
10
333.967490
20
565.892700
11
337.633710
21
568.224400
0
LINE
8
Calque 1
10
337.633710
20
568.224400
11
336.846030
21
569.162600
0
LINE
8
Calque 1
10
336.846030
20
569.162600
11
336.223023
21
569.611223
0
LINE
8
Calque 1
10
336.223023
20
569.611223
11
335.060961
21
570.018888
0
LINE
8
Calque 1
10
335.060961
20
570.018888
11
328.842380
21
571.327200
0
LINE
8
Calque 1
10
328.842380
20
571.327200
11
321.364750
21
572.738700
0
LINE
8
Calque 1
10
321.364750
20
572.738700
11
322.499499
21
571.418513
0
LINE
8
Calque 1
10
322.499499
20
571.418513
11
325.595160
21
568.242300
0
LINE
8
Calque 1
10
325.595160
20
568.242300
11
330.194260
21
563.744400
0
LINE
8
Calque 1
10
330.194260
20
563.744400
11
333.967490
21
565.892700
0
LINE
8
Calque 1
10
333.967490
20
565.892700
11
333.967490
21
565.892700
0
LINE
8
Calque 1
10
499.167490
20
590.258300
11
500.678192
21
591.841375
0
LINE
8
Calque 1
10
500.678192
20
591.841375
11
501.007667
21
592.215575
0
LINE
8
Calque 1
10
501.007667
20
592.215575
11
500.974180
21
592.225500
0
LINE
8
Calque 1
10
500.974180
20
592.225500
11
500.505550
21
591.946938
0
LINE
8
Calque 1
10
500.505550
20
591.946938
11
500.230960
21
592.037600
0
LINE
8
Calque 1
10
500.230960
20
592.037600
11
499.757240
21
592.319400
0
LINE
8
Calque 1
10
499.757240
20
592.319400
11
499.696570
21
592.205300
0
LINE
8
Calque 1
10
499.696570
20
592.205300
11
499.971300
21
591.931000
0
LINE
8
Calque 1
10
499.971300
20
591.931000
11
500.327961
21
591.603588
0
LINE
8
Calque 1
10
500.327961
20
591.603588
11
500.021900
21
591.534100
0
LINE
8
Calque 1
10
500.021900
20
591.534100
11
499.694892
21
591.447588
0
LINE
8
Calque 1
10
499.694892
20
591.447588
11
499.558880
21
591.245500
0
LINE
8
Calque 1
10
499.558880
20
591.245500
11
499.480872
21
591.095800
0
LINE
8
Calque 1
10
499.480872
20
591.095800
11
499.293320
21
591.129400
0
LINE
8
Calque 1
10
499.293320
20
591.129400
11
499.153345
21
591.434763
0
LINE
8
Calque 1
10
499.153345
20
591.434763
11
499.189710
21
591.938800
0
LINE
8
Calque 1
10
499.189710
20
591.938800
11
499.223912
21
592.439900
0
LINE
8
Calque 1
10
499.223912
20
592.439900
11
498.941720
21
592.584000
0
LINE
8
Calque 1
10
498.941720
20
592.584000
11
498.595996
21
592.493075
0
LINE
8
Calque 1
10
498.595996
20
592.493075
11
498.340460
21
592.274500
0
LINE
8
Calque 1
10
498.340460
20
592.274500
11
498.300884
21
592.083225
0
LINE
8
Calque 1
10
498.300884
20
592.083225
11
498.554250
21
592.120400
0
LINE
8
Calque 1
10
498.554250
20
592.120400
11
498.829817
21
592.133075
0
LINE
8
Calque 1
10
498.829817
20
592.133075
11
498.672500
21
591.668000
0
LINE
8
Calque 1
10
498.672500
20
591.668000
11
498.390705
21
591.298436
0
LINE
8
Calque 1
10
498.390705
20
591.298436
11
498.044469
21
591.135713
0
LINE
8
Calque 1
10
498.044469
20
591.135713
11
497.719148
21
591.193208
0
LINE
8
Calque 1
10
497.719148
20
591.193208
11
497.500100
21
591.484300
0
LINE
8
Calque 1
10
497.500100
20
591.484300
11
497.344205
21
591.651363
0
LINE
8
Calque 1
10
497.344205
20
591.651363
11
497.114150
21
591.618700
0
LINE
8
Calque 1
10
497.114150
20
591.618700
11
496.961761
21
591.580613
0
LINE
8
Calque 1
10
496.961761
20
591.580613
11
497.044850
21
591.789500
0
LINE
8
Calque 1
10
497.044850
20
591.789500
11
497.279242
21
591.977525
0
LINE
8
Calque 1
10
497.279242
20
591.977525
11
497.574910
21
591.702500
0
LINE
8
Calque 1
10
497.574910
20
591.702500
11
497.849049
21
591.447363
0
LINE
8
Calque 1
10
497.849049
20
591.447363
11
498.063690
21
591.441900
0
LINE
8
Calque 1
10
498.063690
20
591.441900
11
498.215550
21
591.842117
0
LINE
8
Calque 1
10
498.215550
20
591.842117
11
497.879299
21
592.087488
0
LINE
8
Calque 1
10
497.879299
20
592.087488
11
497.245049
21
592.122989
0
LINE
8
Calque 1
10
497.245049
20
592.122989
11
496.502910
21
591.893600
0
LINE
8
Calque 1
10
496.502910
20
591.893600
11
495.581969
21
591.540563
0
LINE
8
Calque 1
10
495.581969
20
591.540563
11
495.407004
21
591.588880
0
LINE
8
Calque 1
10
495.407004
20
591.588880
11
495.457850
21
591.790600
0
LINE
8
Calque 1
10
495.457850
20
591.790600
11
495.452154
21
591.977413
0
LINE
8
Calque 1
10
495.452154
20
591.977413
11
495.208880
21
592.055100
0
LINE
8
Calque 1
10
495.208880
20
592.055100
11
494.917559
21
591.990425
0
LINE
8
Calque 1
10
494.917559
20
591.990425
11
494.796390
21
591.834700
0
LINE
8
Calque 1
10
494.796390
20
591.834700
11
494.679805
21
591.678963
0
LINE
8
Calque 1
10
494.679805
20
591.678963
11
494.399510
21
591.614200
0
LINE
8
Calque 1
10
494.399510
20
591.614200
11
494.119220
21
591.688488
0
LINE
8
Calque 1
10
494.119220
20
591.688488
11
494.002640
21
591.867100
0
LINE
8
Calque 1
10
494.002640
20
591.867100
11
493.879971
21
591.943850
0
LINE
8
Calque 1
10
493.879971
20
591.943850
11
493.585050
21
591.773100
0
LINE
8
Calque 1
10
493.585050
20
591.773100
11
493.040587
21
591.496892
0
LINE
8
Calque 1
10
493.040587
20
591.496892
11
492.415365
21
591.388038
0
LINE
8
Calque 1
10
492.415365
20
591.388038
11
491.930881
21
591.454964
0
LINE
8
Calque 1
10
491.930881
20
591.454964
11
491.808630
21
591.706100
0
LINE
8
Calque 1
10
491.808630
20
591.706100
11
491.985321
21
591.947320
0
LINE
8
Calque 1
10
491.985321
20
591.947320
11
492.246157
21
592.042488
0
LINE
8
Calque 1
10
492.246157
20
592.042488
11
492.847290
21
591.782100
0
LINE
8
Calque 1
10
492.847290
20
591.782100
11
493.054546
21
591.673050
0
LINE
8
Calque 1
10
493.054546
20
591.673050
11
493.120690
21
591.914400
0
LINE
8
Calque 1
10
493.120690
20
591.914400
11
493.005290
21
592.204700
0
LINE
8
Calque 1
10
493.005290
20
592.204700
11
492.240520
21
592.336200
0
LINE
8
Calque 1
10
492.240520
20
592.336200
11
491.797507
21
592.453400
0
LINE
8
Calque 1
10
491.797507
20
592.453400
11
491.754170
21
592.319200
0
LINE
8
Calque 1
10
491.754170
20
592.319200
11
491.786999
21
592.132975
0
LINE
8
Calque 1
10
491.786999
20
592.132975
11
491.637000
21
592.055500
0
LINE
8
Calque 1
10
491.637000
20
592.055500
11
491.438724
21
592.152638
0
LINE
8
Calque 1
10
491.438724
20
592.152638
11
491.355490
21
592.386200
0
LINE
8
Calque 1
10
491.355490
20
592.386200
11
491.154994
21
592.386413
0
LINE
8
Calque 1
10
491.154994
20
592.386413
11
490.674890
21
591.923200
0
LINE
8
Calque 1
10
490.674890
20
591.923200
11
490.234505
21
591.444025
0
LINE
8
Calque 1
10
490.234505
20
591.444025
11
490.129580
21
591.406600
0
LINE
8
Calque 1
10
490.129580
20
591.406600
11
490.020480
21
592.068100
0
LINE
8
Calque 1
10
490.020480
20
592.068100
11
489.824619
21
592.304688
0
LINE
8
Calque 1
10
489.824619
20
592.304688
11
489.773350
21
592.089100
0
LINE
8
Calque 1
10
489.773350
20
592.089100
11
489.693677
21
591.872775
0
LINE
8
Calque 1
10
489.693677
20
591.872775
11
489.435670
21
592.003100
0
LINE
8
Calque 1
10
489.435670
20
592.003100
11
489.212403
21
592.066889
0
LINE
8
Calque 1
10
489.212403
20
592.066889
11
488.891190
21
591.935612
0
LINE
8
Calque 1
10
488.891190
20
591.935612
11
487.816700
21
591.002400
0
LINE
8
Calque 1
10
487.816700
20
591.002400
11
486.531370
21
589.724900
0
LINE
8
Calque 1
10
486.531370
20
589.724900
11
487.951900
21
589.430600
0
LINE
8
Calque 1
10
487.951900
20
589.430600
11
496.257110
21
587.842800
0
LINE
8
Calque 1
10
496.257110
20
587.842800
11
497.271605
21
588.462725
0
LINE
8
Calque 1
10
497.271605
20
588.462725
11
499.167530
21
590.259100
0
LINE
8
Calque 1
10
499.167530
20
590.259100
11
499.167490
21
590.258300
0
LINE
8
Calque 1
10
302.444490
20
592.039200
11
302.224010
21
592.424500
0
LINE
8
Calque 1
10
302.224010
20
592.424500
11
302.068289
21
592.407625
0
LINE
8
Calque 1
10
302.068289
20
592.407625
11
302.003520
21
592.175500
0
LINE
8
Calque 1
10
302.003520
20
592.175500
11
302.068281
21
591.903437
0
LINE
8
Calque 1
10
302.068281
20
591.903437
11
302.224010
21
591.790300
0
LINE
8
Calque 1
10
302.224010
20
591.790300
11
302.444490
21
592.039200
0
LINE
8
Calque 1
10
302.444490
20
592.039200
11
302.444490
21
592.039200
0
LINE
8
Calque 1
10
303.625220
20
592.039000
11
303.581991
21
592.203088
0
LINE
8
Calque 1
10
303.581991
20
592.203088
11
303.262290
21
592.248600
0
LINE
8
Calque 1
10
303.262290
20
592.248600
11
302.935540
21
592.159713
0
LINE
8
Calque 1
10
302.935540
20
592.159713
11
302.875310
21
592.000100
0
LINE
8
Calque 1
10
302.875310
20
592.000100
11
303.245900
21
591.799100
0
LINE
8
Calque 1
10
303.245900
20
591.799100
11
303.625220
21
592.039100
0
LINE
8
Calque 1
10
303.625220
20
592.039100
11
303.625220
21
592.039000
0
LINE
8
Calque 1
10
302.541440
20
597.133100
11
302.855039
21
597.169738
0
LINE
8
Calque 1
10
302.855039
20
597.169738
11
303.212760
21
597.000800
0
LINE
8
Calque 1
10
303.212760
20
597.000800
11
303.494006
21
596.835038
0
LINE
8
Calque 1
10
303.494006
20
596.835038
11
303.426030
21
597.154300
0
LINE
8
Calque 1
10
303.426030
20
597.154300
11
303.376567
21
597.488000
0
LINE
8
Calque 1
10
303.376567
20
597.488000
11
303.773370
21
597.343500
0
LINE
8
Calque 1
10
303.773370
20
597.343500
11
304.296580
21
596.808200
0
LINE
8
Calque 1
10
304.296580
20
596.808200
11
304.410172
21
596.601716
0
LINE
8
Calque 1
10
304.410172
20
596.601716
11
304.687644
21
596.564825
0
LINE
8
Calque 1
10
304.687644
20
596.564825
11
305.034039
21
596.684872
0
LINE
8
Calque 1
10
305.034039
20
596.684872
11
305.354400
21
596.949200
0
LINE
8
Calque 1
10
305.354400
20
596.949200
11
305.738091
21
597.173653
0
LINE
8
Calque 1
10
305.738091
20
597.173653
11
306.278705
21
597.225100
0
LINE
8
Calque 1
10
306.278705
20
597.225100
11
306.841256
21
597.111172
0
LINE
8
Calque 1
10
306.841256
20
597.111172
11
307.290760
21
596.839500
0
LINE
8
Calque 1
10
307.290760
20
596.839500
11
307.609972
21
596.709988
0
LINE
8
Calque 1
10
307.609972
20
596.709988
11
308.041280
21
596.839300
0
LINE
8
Calque 1
10
308.041280
20
596.839300
11
308.529910
21
596.927300
0
LINE
8
Calque 1
10
308.529910
20
596.927300
11
308.903230
21
597.063100
0
LINE
8
Calque 1
10
308.903230
20
597.063100
11
309.236539
21
597.238863
0
LINE
8
Calque 1
10
309.236539
20
597.238863
11
309.465470
21
597.063100
0
LINE
8
Calque 1
10
309.465470
20
597.063100
11
309.663107
21
596.907725
0
LINE
8
Calque 1
10
309.663107
20
596.907725
11
309.881850
21
597.116100
0
LINE
8
Calque 1
10
309.881850
20
597.116100
11
310.059251
21
597.320488
0
LINE
8
Calque 1
10
310.059251
20
597.320488
11
310.113360
21
597.144100
0
LINE
8
Calque 1
10
310.113360
20
597.144100
11
310.213921
21
596.910538
0
LINE
8
Calque 1
10
310.213921
20
596.910538
11
310.450300
21
596.813400
0
LINE
8
Calque 1
10
310.450300
20
596.813400
11
312.454332
21
598.583600
0
LINE
8
Calque 1
10
312.454332
20
598.583600
11
316.805100
21
602.839600
0
LINE
8
Calque 1
10
316.805100
20
602.839600
11
322.827010
21
608.865800
0
LINE
8
Calque 1
10
322.827010
20
608.865800
11
319.134470
21
611.041700
0
LINE
8
Calque 1
10
319.134470
20
611.041700
11
315.220770
21
613.217300
0
LINE
8
Calque 1
10
315.220770
20
613.217300
11
312.761777
21
610.925258
0
LINE
8
Calque 1
10
312.761777
20
610.925258
11
307.655054
21
605.829313
0
LINE
8
Calque 1
10
307.655054
20
605.829313
11
302.543214
21
600.599736
0
LINE
8
Calque 1
10
302.543214
20
600.599736
11
300.068870
21
597.906800
0
LINE
8
Calque 1
10
300.068870
20
597.906800
11
299.888314
21
597.319200
0
LINE
8
Calque 1
10
299.888314
20
597.319200
11
300.169720
21
596.857900
0
LINE
8
Calque 1
10
300.169720
20
596.857900
11
300.526274
21
596.580175
0
LINE
8
Calque 1
10
300.526274
20
596.580175
11
300.592420
21
596.938900
0
LINE
8
Calque 1
10
300.592420
20
596.938900
11
300.648307
21
597.306425
0
LINE
8
Calque 1
10
300.648307
20
597.306425
11
301.008920
21
596.928900
0
LINE
8
Calque 1
10
301.008920
20
596.928900
11
301.253857
21
596.663300
0
LINE
8
Calque 1
10
301.253857
20
596.663300
11
301.257880
21
596.746000
0
LINE
8
Calque 1
10
301.257880
20
596.746000
11
301.252239
21
596.984400
0
LINE
8
Calque 1
10
301.252239
20
596.984400
11
301.502850
21
597.076700
0
LINE
8
Calque 1
10
301.502850
20
597.076700
11
301.800307
21
596.940713
0
LINE
8
Calque 1
10
301.800307
20
596.940713
11
301.936230
21
596.613700
0
LINE
8
Calque 1
10
301.936230
20
596.613700
11
301.983300
21
596.323788
0
LINE
8
Calque 1
10
301.983300
20
596.323788
11
302.108190
21
596.547700
0
LINE
8
Calque 1
10
302.108190
20
596.547700
11
302.541450
21
597.127800
0
LINE
8
Calque 1
10
302.541450
20
597.127800
11
302.541440
21
597.133100
0
LINE
8
Calque 1
10
306.016370
20
596.817300
11
306.049522
21
597.004200
0
LINE
8
Calque 1
10
306.049522
20
597.004200
11
305.899690
21
597.081900
0
LINE
8
Calque 1
10
305.899690
20
597.081900
11
305.701799
21
597.004200
0
LINE
8
Calque 1
10
305.701799
20
597.004200
11
305.619490
21
596.817300
0
LINE
8
Calque 1
10
305.619490
20
596.817300
11
305.736170
21
596.552800
0
LINE
8
Calque 1
10
305.736170
20
596.552800
11
306.016370
21
596.817300
0
LINE
8
Calque 1
10
306.016370
20
596.817300
11
306.016370
21
596.817300
0
LINE
8
Calque 1
10
495.656370
20
597.251000
11
495.983377
21
597.216188
0
LINE
8
Calque 1
10
495.983377
20
597.216188
11
496.119390
21
597.080500
0
LINE
8
Calque 1
10
496.119390
20
597.080500
11
496.294264
21
596.934888
0
LINE
8
Calque 1
10
496.294264
20
596.934888
11
496.714710
21
596.875600
0
LINE
8
Calque 1
10
496.714710
20
596.875600
11
498.080810
21
596.702300
0
LINE
8
Calque 1
10
498.080810
20
596.702300
11
498.652820
21
596.628713
0
LINE
8
Calque 1
10
498.652820
20
596.628713
11
498.534170
21
596.909200
0
LINE
8
Calque 1
10
498.534170
20
596.909200
11
498.399162
21
597.211938
0
LINE
8
Calque 1
10
498.399162
20
597.211938
11
498.862460
21
597.253000
0
LINE
8
Calque 1
10
498.862460
20
597.253000
11
499.285844
21
597.172838
0
LINE
8
Calque 1
10
499.285844
20
597.172838
11
499.396980
21
597.034100
0
LINE
8
Calque 1
10
499.396980
20
597.034100
11
499.554660
21
596.687700
0
LINE
8
Calque 1
10
499.554660
20
596.687700
11
499.744626
21
596.633325
0
LINE
8
Calque 1
10
499.744626
20
596.633325
11
499.823750
21
596.735700
0
LINE
8
Calque 1
10
499.823750
20
596.735700
11
500.051472
21
596.924938
0
LINE
8
Calque 1
10
500.051472
20
596.924938
11
500.583860
21
596.985850
0
LINE
8
Calque 1
10
500.583860
20
596.985850
11
501.195327
21
596.919188
0
LINE
8
Calque 1
10
501.195327
20
596.919188
11
501.660290
21
596.725700
0
LINE
8
Calque 1
10
501.660290
20
596.725700
11
501.920126
21
596.551525
0
LINE
8
Calque 1
10
501.920126
20
596.551525
11
501.854410
21
596.735700
0
LINE
8
Calque 1
10
501.854410
20
596.735700
11
501.801046
21
597.005200
0
LINE
8
Calque 1
10
501.801046
20
597.005200
11
501.935910
21
597.214400
0
LINE
8
Calque 1
10
501.935910
20
597.214400
11
502.125822
21
597.249263
0
LINE
8
Calque 1
10
502.125822
20
597.249263
11
502.204810
21
597.100300
0
LINE
8
Calque 1
10
502.204810
20
597.100300
11
502.321391
21
596.902413
0
LINE
8
Calque 1
10
502.321391
20
596.902413
11
502.601690
21
596.820100
0
LINE
8
Calque 1
10
502.601690
20
596.820100
11
502.918465
21
596.932703
0
LINE
8
Calque 1
10
502.918465
20
596.932703
11
502.961352
21
597.265900
0
LINE
8
Calque 1
10
502.961352
20
597.265900
11
502.231340
21
598.566400
0
LINE
8
Calque 1
10
502.231340
20
598.566400
11
481.233140
21
619.802000
0
LINE
8
Calque 1
10
481.233140
20
619.802000
11
461.002240
21
640.005800
0
LINE
8
Calque 1
10
461.002240
20
640.005800
11
458.386320
21
636.780800
0
LINE
8
Calque 1
10
458.386320
20
636.780800
11
455.698420
21
633.360600
0
LINE
8
Calque 1
10
455.698420
20
633.360600
11
461.209375
21
627.678830
0
LINE
8
Calque 1
10
461.209375
20
627.678830
11
473.464957
21
615.366338
0
LINE
8
Calque 1
10
473.464957
20
615.366338
11
485.865197
21
603.023077
0
LINE
8
Calque 1
10
485.865197
20
603.023077
11
491.810120
21
597.249000
0
LINE
8
Calque 1
10
491.810120
20
597.249000
11
492.988386
21
596.946338
0
LINE
8
Calque 1
10
492.988386
20
596.946338
11
493.470357
21
596.963039
0
LINE
8
Calque 1
10
493.470357
20
596.963039
11
493.587720
21
597.114000
0
LINE
8
Calque 1
10
493.587720
20
597.114000
11
493.676450
21
597.261988
0
LINE
8
Calque 1
10
493.676450
20
597.261988
11
494.090950
21
597.292300
0
LINE
8
Calque 1
10
494.090950
20
597.292300
11
494.551901
21
597.153525
0
LINE
8
Calque 1
10
494.551901
20
597.153525
11
494.613050
21
596.831000
0
LINE
8
Calque 1
10
494.613050
20
596.831000
11
494.568537
21
596.558050
0
LINE
8
Calque 1
10
494.568537
20
596.558050
11
494.840990
21
596.820000
0
LINE
8
Calque 1
10
494.840990
20
596.820000
11
495.225835
21
597.111138
0
LINE
8
Calque 1
10
495.225835
20
597.111138
11
495.656340
21
597.253700
0
LINE
8
Calque 1
10
495.656340
20
597.253700
11
495.656370
21
597.251000
0
LINE
8
Calque 1
10
331.249370
20
617.287600
11
335.309130
21
621.353700
0
LINE
8
Calque 1
10
335.309130
20
621.353700
11
332.871300
21
624.996200
0
LINE
8
Calque 1
10
332.871300
20
624.996200
11
330.433470
21
628.638600
0
LINE
8
Calque 1
10
330.433470
20
628.638600
11
323.989710
21
622.198900
0
LINE
8
Calque 1
10
323.989710
20
622.198900
11
317.637160
21
615.667900
0
LINE
8
Calque 1
10
317.637160
20
615.667900
11
326.789540
21
613.246400
0
LINE
8
Calque 1
10
326.789540
20
613.246400
11
328.264647
21
614.423138
0
LINE
8
Calque 1
10
328.264647
20
614.423138
11
331.249370
21
617.287600
0
LINE
8
Calque 1
10
331.249370
20
617.287600
11
331.249370
21
617.287600
0
LINE
8
Calque 1
10
356.482570
20
642.256200
11
359.241041
21
645.119938
0
LINE
8
Calque 1
10
359.241041
20
645.119938
11
360.388370
21
646.529500
0
LINE
8
Calque 1
10
360.388370
20
646.529500
11
359.149020
21
651.661800
0
LINE
8
Calque 1
10
359.149020
20
651.661800
11
357.909670
21
656.420200
0
LINE
8
Calque 1
10
357.909670
20
656.420200
11
355.009000
21
653.407800
0
LINE
8
Calque 1
10
355.009000
20
653.407800
11
348.540830
21
646.785500
0
LINE
8
Calque 1
10
348.540830
20
646.785500
11
344.973330
21
643.175500
0
LINE
8
Calque 1
10
344.973330
20
643.175500
11
348.513670
21
640.782200
0
LINE
8
Calque 1
10
348.513670
20
640.782200
11
352.315380
21
638.372900
0
LINE
8
Calque 1
10
352.315380
20
638.372900
11
353.647310
21
639.506575
0
LINE
8
Calque 1
10
353.647310
20
639.506575
11
356.482570
21
642.256200
0
LINE
8
Calque 1
10
356.482570
20
642.256200
11
356.482570
21
642.256200
0
LINE
8
Calque 1
10
441.924570
20
652.812900
11
445.228690
21
655.621800
0
LINE
8
Calque 1
10
445.228690
20
655.621800
11
438.924400
21
662.238864
0
LINE
8
Calque 1
10
438.924400
20
662.238864
11
424.766321
21
676.496863
0
LINE
8
Calque 1
10
424.766321
20
676.496863
11
410.368027
21
690.784955
0
LINE
8
Calque 1
10
410.368027
20
690.784955
11
403.343090
21
697.492300
0
LINE
8
Calque 1
10
403.343090
20
697.492300
11
402.434335
21
697.777656
0
LINE
8
Calque 1
10
402.434335
20
697.777656
11
401.397009
21
697.872550
0
LINE
8
Calque 1
10
401.397009
20
697.872550
11
400.358975
21
697.777319
0
LINE
8
Calque 1
10
400.358975
20
697.777319
11
399.448100
21
697.492300
0
LINE
8
Calque 1
10
399.448100
20
697.492300
11
398.026020
21
696.375813
0
LINE
8
Calque 1
10
398.026020
20
696.375813
11
395.786500
21
694.251100
0
LINE
8
Calque 1
10
395.786500
20
694.251100
11
392.964850
21
691.408600
0
LINE
8
Calque 1
10
392.964850
20
691.408600
11
393.741950
21
687.572100
0
LINE
8
Calque 1
10
393.741950
20
687.572100
11
394.810080
21
682.310700
0
LINE
8
Calque 1
10
394.810080
20
682.310700
11
395.101110
21
680.885800
0
LINE
8
Calque 1
10
395.101110
20
680.885800
11
398.251860
21
684.028300
0
LINE
8
Calque 1
10
398.251860
20
684.028300
11
401.402600
21
687.170900
0
LINE
8
Calque 1
10
401.402600
20
687.170900
11
419.855100
21
668.718400
0
LINE
8
Calque 1
10
419.855100
20
668.718400
11
438.544100
21
650.265900
0
LINE
8
Calque 1
10
438.544100
20
650.265900
11
441.924500
21
652.815600
0
LINE
8
Calque 1
10
441.924500
20
652.815600
11
441.924570
21
652.812900
0
LINE
8
Calque 1
10
373.055070
20
658.828800
11
381.088320
21
666.865300
0
LINE
8
Calque 1
10
381.088320
20
666.865300
11
382.642730
21
674.617500
0
LINE
8
Calque 1
10
382.642730
20
674.617500
11
384.121290
21
682.445500
0
LINE
8
Calque 1
10
384.121290
20
682.445500
11
372.068890
21
670.542600
0
LINE
8
Calque 1
10
372.068890
20
670.542600
11
360.092290
21
658.563900
0
LINE
8
Calque 1
10
360.092290
20
658.563900
11
362.383920
21
654.678100
0
LINE
8
Calque 1
10
362.383920
20
654.678100
11
364.848690
21
650.792300
0
LINE
8
Calque 1
10
364.848690
20
650.792300
11
373.055080
21
658.828800
0
LINE
8
Calque 1
10
373.055080
20
658.828800
11
373.055070
21
658.828800
0
LINE
8
Calque 1
10
429.775270
20
694.269100
11
458.151870
21
665.912300
0
LINE
8
Calque 1
10
458.151870
20
665.912300
11
465.957070
21
672.258000
0
LINE
8
Calque 1
10
465.957070
20
672.258000
11
471.490259
21
676.832350
0
LINE
8
Calque 1
10
471.490259
20
676.832350
11
473.832940
21
678.919400
0
LINE
8
Calque 1
10
473.832940
20
678.919400
11
463.233677
21
689.790063
0
LINE
8
Calque 1
10
463.233677
20
689.790063
11
437.651140
21
715.482600
0
LINE
8
Calque 1
10
437.651140
20
715.482600
11
401.398640
21
751.730200
0
LINE
8
Calque 1
10
401.398640
20
751.730200
11
357.610140
21
707.942300
0
LINE
8
Calque 1
10
357.610140
20
707.942300
11
313.828740
21
664.021800
0
LINE
8
Calque 1
10
313.828740
20
664.021800
11
322.493840
21
658.135400
0
LINE
8
Calque 1
10
322.493840
20
658.135400
11
331.151870
21
652.381600
0
LINE
8
Calque 1
10
331.151870
20
652.381600
11
366.275270
21
687.503700
0
LINE
8
Calque 1
10
366.275270
20
687.503700
11
401.398670
21
722.625900
0
LINE
8
Calque 1
10
401.398670
20
722.625900
11
429.775270
21
694.269100
 0 
ENDSEC
 0 
EOF