999
"DXF R12 Output" (www.mydxf.blogspot.com)
 0 
SECTION
 2 
HEADER
 9 
$ACADVER
 1 
AC1009
 9 
$EXTMIN
 10 
 0 
 20 
 0 
 9 
$EXTMAX
 10 
 8.5 
 20 
 11 
 0 
ENDSEC
 0 
SECTION
 2 
ENTITIES
0
LINE
8
Calque 1
10
326.585000
20
521.343000
11
247.342800
21
600.585600
0
LINE
8
Calque 1
10
247.342800
20
600.585600
11
280.726700
21
633.989300
0
LINE
8
Calque 1
10
280.726700
20
633.989300
11
314.110700
21
667.393100
0
LINE
8
Calque 1
10
314.110700
20
667.393100
11
312.102900
21
671.361800
0
LINE
8
Calque 1
10
312.102900
20
671.361800
11
306.694489
21
682.674933
0
LINE
8
Calque 1
10
306.694489
20
682.674933
11
301.665738
21
694.274838
0
LINE
8
Calque 1
10
301.665738
20
694.274838
11
297.707442
21
704.485048
0
LINE
8
Calque 1
10
297.707442
20
704.485048
11
296.345590
21
708.545123
0
LINE
8
Calque 1
10
296.345590
20
708.545123
11
295.510400
21
711.629100
0
LINE
8
Calque 1
10
295.510400
20
711.629100
11
295.419834
21
712.368174
0
LINE
8
Calque 1
10
295.419834
20
712.368174
11
295.519448
21
712.922123
0
LINE
8
Calque 1
10
295.519448
20
712.922123
11
295.829135
21
713.294102
0
LINE
8
Calque 1
10
295.829135
20
713.294102
11
296.368787
21
713.487263
0
LINE
8
Calque 1
10
296.368787
20
713.487263
11
297.158297
21
713.504759
0
LINE
8
Calque 1
10
297.158297
20
713.504759
11
298.217558
21
713.349745
0
LINE
8
Calque 1
10
298.217558
20
713.349745
11
301.224900
21
712.534800
0
LINE
8
Calque 1
10
301.224900
20
712.534800
11
308.726233
21
709.912450
0
LINE
8
Calque 1
10
308.726233
20
709.912450
11
317.395812
21
706.439150
0
LINE
8
Calque 1
10
317.395812
20
706.439150
11
326.662936
21
702.355350
0
LINE
8
Calque 1
10
326.662936
20
702.355350
11
335.956900
21
697.901500
0
LINE
8
Calque 1
10
335.956900
20
697.901500
11
341.757000
21
695.001400
0
LINE
8
Calque 1
10
341.757000
20
695.001400
11
373.858600
21
727.102200
0
LINE
8
Calque 1
10
373.858600
20
727.102200
11
405.960300
21
759.203000
0
LINE
8
Calque 1
10
405.960300
20
759.203000
11
485.268700
21
679.894600
0
LINE
8
Calque 1
10
485.268700
20
679.894600
11
564.577200
21
600.586100
0
LINE
8
Calque 1
10
564.577200
20
600.586100
11
529.586300
21
565.594400
0
LINE
8
Calque 1
10
529.586300
20
565.594400
11
494.595300
21
530.441500
0
LINE
8
Calque 1
10
494.595300
20
530.441500
11
495.235997
21
530.020523
0
LINE
8
Calque 1
10
495.235997
20
530.020523
11
496.799925
21
529.290388
0
LINE
8
Calque 1
10
496.799925
20
529.290388
11
500.548500
21
527.841300
0
LINE
8
Calque 1
10
500.548500
20
527.841300
11
502.482317
21
527.162836
0
LINE
8
Calque 1
10
502.482317
20
527.162836
11
503.636988
21
526.395638
0
LINE
8
Calque 1
10
503.636988
20
526.395638
11
504.404789
21
525.123595
0
LINE
8
Calque 1
10
504.404789
20
525.123595
11
505.178000
21
522.930600
0
LINE
8
Calque 1
10
505.178000
20
522.930600
11
507.819600
21
515.970563
0
LINE
8
Calque 1
10
507.819600
20
515.970563
11
511.814800
21
506.460900
0
LINE
8
Calque 1
10
511.814800
20
506.460900
11
514.590063
21
500.003667
0
LINE
8
Calque 1
10
514.590063
20
500.003667
11
516.076075
21
496.111388
0
LINE
8
Calque 1
10
516.076075
20
496.111388
11
516.410460
21
494.894942
0
LINE
8
Calque 1
10
516.410460
20
494.894942
11
516.512350
21
494.041139
0
LINE
8
Calque 1
10
516.512350
20
494.041139
11
516.411684
21
493.457113
0
LINE
8
Calque 1
10
516.411684
20
493.457113
11
516.138400
21
493.050000
0
LINE
8
Calque 1
10
516.138400
20
493.050000
11
515.717490
21
492.758178
0
LINE
8
Calque 1
10
515.717490
20
492.758178
11
515.136695
21
492.635777
0
LINE
8
Calque 1
10
515.136695
20
492.635777
11
514.314394
21
492.707872
0
LINE
8
Calque 1
10
514.314394
20
492.707872
11
513.168963
21
492.999538
0
LINE
8
Calque 1
10
513.168963
20
492.999538
11
509.582223
21
494.341880
0
LINE
8
Calque 1
10
509.582223
20
494.341880
11
503.723500
21
496.863400
0
LINE
8
Calque 1
10
503.723500
20
496.863400
11
493.597663
21
501.139425
0
LINE
8
Calque 1
10
493.597663
20
501.139425
11
486.035700
21
504.013400
0
LINE
8
Calque 1
10
486.035700
20
504.013400
11
484.057438
21
504.751150
0
LINE
8
Calque 1
10
484.057438
20
504.751150
11
482.864200
21
505.349400
0
LINE
8
Calque 1
10
482.864200
20
505.349400
11
482.145000
21
506.428925
0
LINE
8
Calque 1
10
482.145000
20
506.428925
11
481.256000
21
508.667800
0
LINE
8
Calque 1
10
481.256000
20
508.667800
11
479.476600
21
513.083000
0
LINE
8
Calque 1
10
479.476600
20
513.083000
11
478.671100
21
514.678600
0
LINE
8
Calque 1
10
478.671100
20
514.678600
11
442.381300
21
478.389500
0
LINE
8
Calque 1
10
442.381300
20
478.389500
11
405.959400
21
442.100400
0
LINE
8
Calque 1
10
405.959400
20
442.100400
11
326.585000
21
521.343000
0
LINE
8
Calque 1
10
326.585000
20
521.343000
11
326.585000
21
521.343000
0
LINE
8
Calque 1
10
408.076600
20
453.308700
11
410.416100
21
455.302912
0
LINE
8
Calque 1
10
410.416100
20
455.302912
11
411.508609
21
456.425470
0
LINE
8
Calque 1
10
411.508609
20
456.425470
11
411.821100
21
456.927600
0
LINE
8
Calque 1
10
411.821100
20
456.927600
11
412.383900
21
457.337100
0
LINE
8
Calque 1
10
412.383900
20
457.337100
11
412.856400
21
457.694712
0
LINE
8
Calque 1
10
412.856400
20
457.694712
11
412.959600
21
457.994500
0
LINE
8
Calque 1
10
412.959600
20
457.994500
11
412.912975
21
458.155775
0
LINE
8
Calque 1
10
412.912975
20
458.155775
11
413.024600
21
458.180400
0
LINE
8
Calque 1
10
413.024600
20
458.180400
11
414.550525
21
459.489175
0
LINE
8
Calque 1
10
414.550525
20
459.489175
11
417.903000
21
462.737900
0
LINE
8
Calque 1
10
417.903000
20
462.737900
11
423.187500
21
467.944000
0
LINE
8
Calque 1
10
423.187500
20
467.944000
11
424.806800
21
469.597600
0
LINE
8
Calque 1
10
424.806800
20
469.597600
11
426.071900
21
470.675400
0
LINE
8
Calque 1
10
426.071900
20
470.675400
11
426.315575
21
470.800412
0
LINE
8
Calque 1
10
426.315575
20
470.800412
11
426.512300
21
471.101000
0
LINE
8
Calque 1
10
426.512300
20
471.101000
11
427.673600
21
472.490000
0
LINE
8
Calque 1
10
427.673600
20
472.490000
11
429.949400
21
474.684800
0
LINE
8
Calque 1
10
429.949400
20
474.684800
11
432.385000
21
477.132200
0
LINE
8
Calque 1
10
432.385000
20
477.132200
11
433.774000
21
478.348300
0
LINE
8
Calque 1
10
433.774000
20
478.348300
11
433.943737
21
478.445437
0
LINE
8
Calque 1
10
433.943737
20
478.445437
11
434.027000
21
478.679000
0
LINE
8
Calque 1
10
434.027000
20
478.679000
11
434.570012
21
479.378912
0
LINE
8
Calque 1
10
434.570012
20
479.378912
11
435.845100
21
480.597300
0
LINE
8
Calque 1
10
435.845100
20
480.597300
11
437.072887
21
481.788725
0
LINE
8
Calque 1
10
437.072887
20
481.788725
11
437.502300
21
482.424100
0
LINE
8
Calque 1
10
437.502300
20
482.424100
11
437.500563
21
482.534475
0
LINE
8
Calque 1
10
437.500563
20
482.534475
11
437.686400
21
482.464100
0
LINE
8
Calque 1
10
437.686400
20
482.464100
11
437.962937
21
482.460562
0
LINE
8
Calque 1
10
437.962937
20
482.460562
11
438.154200
21
482.817100
0
LINE
8
Calque 1
10
438.154200
20
482.817100
11
438.313675
21
483.172225
0
LINE
8
Calque 1
10
438.313675
20
483.172225
11
438.493400
21
483.249700
0
LINE
8
Calque 1
10
438.493400
20
483.249700
11
438.797563
21
483.356450
0
LINE
8
Calque 1
10
438.797563
20
483.356450
11
439.255400
21
483.781800
0
LINE
8
Calque 1
10
439.255400
20
483.781800
11
439.656400
21
484.434200
0
LINE
8
Calque 1
10
439.656400
20
484.434200
11
440.253500
21
485.019400
0
LINE
8
Calque 1
10
440.253500
20
485.019400
11
443.269900
21
487.863700
0
LINE
8
Calque 1
10
443.269900
20
487.863700
11
446.577200
21
491.082200
0
LINE
8
Calque 1
10
446.577200
20
491.082200
11
450.118000
21
494.587900
0
LINE
8
Calque 1
10
450.118000
20
494.587900
11
451.953363
21
496.386237
0
LINE
8
Calque 1
10
451.953363
20
496.386237
11
452.874100
21
497.134200
0
LINE
8
Calque 1
10
452.874100
20
497.134200
11
453.018987
21
497.179775
0
LINE
8
Calque 1
10
453.018987
20
497.179775
11
452.988900
21
497.288800
0
LINE
8
Calque 1
10
452.988900
20
497.288800
11
453.320263
21
497.789312
0
LINE
8
Calque 1
10
453.320263
20
497.789312
11
454.333900
21
498.775600
0
LINE
8
Calque 1
10
454.333900
20
498.775600
11
457.047600
21
501.397700
0
LINE
8
Calque 1
10
457.047600
20
501.397700
11
457.956500
21
502.257250
0
LINE
8
Calque 1
10
457.956500
20
502.257250
11
458.436700
21
502.512600
0
LINE
8
Calque 1
10
458.436700
20
502.512600
11
458.560150
21
502.518862
0
LINE
8
Calque 1
10
458.560150
20
502.518862
11
458.611600
21
502.778700
0
LINE
8
Calque 1
10
458.611600
20
502.778700
11
458.732763
21
503.090087
0
LINE
8
Calque 1
10
458.732763
20
503.090087
11
459.024100
21
503.219600
0
LINE
8
Calque 1
10
459.024100
20
503.219600
11
459.272788
21
503.288525
0
LINE
8
Calque 1
10
459.272788
20
503.288525
11
459.291600
21
503.454200
0
LINE
8
Calque 1
10
459.291600
20
503.454200
11
459.304713
21
503.715987
0
LINE
8
Calque 1
10
459.304713
20
503.715987
11
459.540500
21
504.015800
0
LINE
8
Calque 1
10
459.540500
20
504.015800
11
459.934500
21
504.168900
0
LINE
8
Calque 1
10
459.934500
20
504.168900
11
460.793900
21
504.996400
0
LINE
8
Calque 1
10
460.793900
20
504.996400
11
461.918400
21
506.172800
0
LINE
8
Calque 1
10
461.918400
20
506.172800
11
465.437500
21
509.548700
0
LINE
8
Calque 1
10
465.437500
20
509.548700
11
469.337900
21
513.172800
0
LINE
8
Calque 1
10
469.337900
20
513.172800
11
469.751512
21
513.541087
0
LINE
8
Calque 1
10
469.751512
20
513.541087
11
469.838500
21
513.831900
0
LINE
8
Calque 1
10
469.838500
20
513.831900
11
469.806625
21
513.998300
0
LINE
8
Calque 1
10
469.806625
20
513.998300
11
469.934500
21
514.067500
0
LINE
8
Calque 1
10
469.934500
20
514.067500
11
472.649400
21
516.448800
0
LINE
8
Calque 1
10
472.649400
20
516.448800
11
475.334200
21
518.830100
0
LINE
8
Calque 1
10
475.334200
20
518.830100
11
475.490262
21
518.885656
0
LINE
8
Calque 1
10
475.490262
20
518.885656
11
475.540812
21
519.048761
0
LINE
8
Calque 1
10
475.540812
20
519.048761
11
475.341127
21
519.676239
0
LINE
8
Calque 1
10
475.341127
20
519.676239
11
473.848887
21
521.986612
0
LINE
8
Calque 1
10
473.848887
20
521.986612
11
471.109530
21
525.419155
0
LINE
8
Calque 1
10
471.109530
20
525.419155
11
467.375100
21
529.631800
0
LINE
8
Calque 1
10
467.375100
20
529.631800
11
464.606000
21
532.628400
0
LINE
8
Calque 1
10
464.606000
20
532.628400
11
435.282700
21
503.306100
0
LINE
8
Calque 1
10
435.282700
20
503.306100
11
405.959500
21
473.983700
0
LINE
8
Calque 1
10
405.959500
20
473.983700
11
342.658400
21
537.284700
0
LINE
8
Calque 1
10
342.658400
20
537.284700
11
279.357400
21
600.585800
0
LINE
8
Calque 1
10
279.357400
20
600.585800
11
302.432700
21
623.670900
0
LINE
8
Calque 1
10
302.432700
20
623.670900
11
325.508100
21
646.756100
0
LINE
8
Calque 1
10
325.508100
20
646.756100
11
323.370300
21
650.460300
0
LINE
8
Calque 1
10
323.370300
20
650.460300
11
318.334000
21
659.456100
0
LINE
8
Calque 1
10
318.334000
20
659.456100
11
315.183000
21
665.005500
0
LINE
8
Calque 1
10
315.183000
20
665.005500
11
307.159934
21
657.305939
0
LINE
8
Calque 1
10
307.159934
20
657.305939
11
288.962125
21
639.308887
0
LINE
8
Calque 1
10
288.962125
20
639.308887
11
268.849678
21
619.225017
0
LINE
8
Calque 1
10
268.849678
20
619.225017
11
255.082700
21
605.265000
0
LINE
8
Calque 1
10
255.082700
20
605.265000
11
250.553700
21
600.550900
0
LINE
8
Calque 1
10
250.553700
20
600.550900
11
272.479900
21
578.623600
0
LINE
8
Calque 1
10
272.479900
20
578.623600
11
294.554300
21
556.764100
0
LINE
8
Calque 1
10
294.554300
20
556.764100
11
295.288400
21
556.219500
0
LINE
8
Calque 1
10
295.288400
20
556.219500
11
295.700900
21
555.607100
0
LINE
8
Calque 1
10
295.700900
20
555.607100
11
295.620733
21
555.573668
0
LINE
8
Calque 1
10
295.620733
20
555.573668
11
295.672613
21
555.485466
0
LINE
8
Calque 1
10
295.672613
20
555.485466
11
296.049400
21
555.217300
0
LINE
8
Calque 1
10
296.049400
20
555.217300
11
297.033300
21
554.821800
0
LINE
8
Calque 1
10
297.033300
20
554.821800
11
297.323263
21
554.739862
0
LINE
8
Calque 1
10
297.323263
20
554.739862
11
297.348400
21
554.548800
0
LINE
8
Calque 1
10
297.348400
20
554.548800
11
297.354025
21
554.361937
0
LINE
8
Calque 1
10
297.354025
20
554.361937
11
297.597400
21
554.284200
0
LINE
8
Calque 1
10
297.597400
20
554.284200
11
297.900963
21
554.119600
0
LINE
8
Calque 1
10
297.900963
20
554.119600
11
298.028500
21
553.688900
0
LINE
8
Calque 1
10
298.028500
20
553.688900
11
298.076863
21
553.253487
0
LINE
8
Calque 1
10
298.076863
20
553.253487
11
298.274400
21
553.622900
0
LINE
8
Calque 1
10
298.274400
20
553.622900
11
298.492338
21
553.915937
0
LINE
8
Calque 1
10
298.492338
20
553.915937
11
298.638200
21
553.248000
0
LINE
8
Calque 1
10
298.638200
20
553.248000
11
298.912200
21
552.785000
0
LINE
8
Calque 1
10
298.912200
20
552.785000
11
299.031450
21
552.720000
0
LINE
8
Calque 1
10
299.031450
20
552.720000
11
298.963200
21
552.895300
0
LINE
8
Calque 1
10
298.963200
20
552.895300
11
298.896839
21
553.218605
0
LINE
8
Calque 1
10
298.896839
20
553.218605
11
299.338313
21
552.998938
0
LINE
8
Calque 1
10
299.338313
20
552.998938
11
301.301400
21
551.241600
0
LINE
8
Calque 1
10
301.301400
20
551.241600
11
301.983488
21
550.610750
0
LINE
8
Calque 1
10
301.983488
20
550.610750
11
302.143730
21
550.509591
0
LINE
8
Calque 1
10
302.143730
20
550.509591
11
302.146500
21
550.580200
0
LINE
8
Calque 1
10
302.146500
20
550.580200
11
302.168138
21
550.646550
0
LINE
8
Calque 1
10
302.168138
20
550.646550
11
302.510700
21
550.249400
0
LINE
8
Calque 1
10
302.510700
20
550.249400
11
303.347800
21
549.521800
0
LINE
8
Calque 1
10
303.347800
20
549.521800
11
304.241288
21
548.942725
0
LINE
8
Calque 1
10
304.241288
20
548.942725
11
306.696800
21
546.677500
0
LINE
8
Calque 1
10
306.696800
20
546.677500
11
308.391400
21
545.288500
0
LINE
8
Calque 1
10
308.391400
20
545.288500
11
308.507088
21
545.208850
0
LINE
8
Calque 1
10
308.507088
20
545.208850
11
308.457400
21
545.017300
0
LINE
8
Calque 1
10
308.457400
20
545.017300
11
308.408525
21
544.847172
0
LINE
8
Calque 1
10
308.408525
20
544.847172
11
308.525400
21
544.818900
0
LINE
8
Calque 1
10
308.525400
20
544.818900
11
309.711125
21
544.055642
0
LINE
8
Calque 1
10
309.711125
20
544.055642
11
310.714000
21
543.044060
0
LINE
8
Calque 1
10
310.714000
20
543.044060
11
310.908400
21
542.870960
0
LINE
8
Calque 1
10
310.908400
20
542.870960
11
312.098800
21
541.812560
0
LINE
8
Calque 1
10
312.098800
20
541.812560
11
313.332000
21
540.790560
0
LINE
8
Calque 1
10
313.332000
20
540.790560
11
314.241300
21
539.996760
0
LINE
8
Calque 1
10
314.241300
20
539.996760
11
315.052200
21
539.203060
0
LINE
8
Calque 1
10
315.052200
20
539.203060
11
317.126000
21
537.284760
0
LINE
8
Calque 1
10
317.126000
20
537.284760
11
323.436900
21
531.397860
0
LINE
8
Calque 1
10
323.436900
20
531.397860
11
324.869300
21
529.938960
0
LINE
8
Calque 1
10
324.869300
20
529.938960
11
326.188100
21
528.660260
0
LINE
8
Calque 1
10
326.188100
20
528.660260
11
329.311400
21
525.819660
0
LINE
8
Calque 1
10
329.311400
20
525.819660
11
331.727600
21
523.592560
0
LINE
8
Calque 1
10
331.727600
20
523.592560
11
332.885375
21
522.516585
0
LINE
8
Calque 1
10
332.885375
20
522.516585
11
333.779300
21
521.350160
0
LINE
8
Calque 1
10
333.779300
20
521.350160
11
333.811075
21
521.252260
0
LINE
8
Calque 1
10
333.811075
20
521.252260
11
334.081500
21
521.211360
0
LINE
8
Calque 1
10
334.081500
20
521.211360
11
334.392975
21
521.136110
0
LINE
8
Calque 1
10
334.392975
20
521.136110
11
334.522500
21
520.955260
0
LINE
8
Calque 1
10
334.522500
20
520.955260
11
334.714212
21
520.673910
0
LINE
8
Calque 1
10
334.714212
20
520.673910
11
335.175100
21
520.357160
0
LINE
8
Calque 1
10
335.175100
20
520.357160
11
335.832950
21
519.848760
0
LINE
8
Calque 1
10
335.832950
20
519.848760
11
336.498000
21
519.106660
0
LINE
8
Calque 1
10
336.498000
20
519.106660
11
336.971412
21
518.533510
0
LINE
8
Calque 1
10
336.971412
20
518.533510
11
337.168300
21
518.431360
0
LINE
8
Calque 1
10
337.168300
20
518.431360
11
337.401475
21
518.372648
0
LINE
8
Calque 1
10
337.401475
20
518.372648
11
337.962100
21
517.904060
0
LINE
8
Calque 1
10
337.962100
20
517.904060
11
338.522675
21
517.260385
0
LINE
8
Calque 1
10
338.522675
20
517.260385
11
338.755800
21
516.780660
0
LINE
8
Calque 1
10
338.755800
20
516.780660
11
338.831000
21
516.570698
0
LINE
8
Calque 1
10
338.831000
20
516.570698
11
339.011800
21
516.575760
0
LINE
8
Calque 1
10
339.011800
20
516.575760
11
339.291475
21
516.529235
0
LINE
8
Calque 1
10
339.291475
20
516.529235
11
339.604600
21
516.194560
0
LINE
8
Calque 1
10
339.604600
20
516.194560
11
340.153900
21
515.655060
0
LINE
8
Calque 1
10
340.153900
20
515.655060
11
341.611600
21
514.304560
0
LINE
8
Calque 1
10
341.611600
20
514.304560
11
343.180100
21
512.650960
0
LINE
8
Calque 1
10
343.180100
20
512.650960
11
346.042400
21
509.900460
0
LINE
8
Calque 1
10
346.042400
20
509.900460
11
347.920975
21
508.171973
0
LINE
8
Calque 1
10
347.920975
20
508.171973
11
348.872100
21
507.453060
0
LINE
8
Calque 1
10
348.872100
20
507.453060
11
349.032450
21
507.408060
0
LINE
8
Calque 1
10
349.032450
20
507.408060
11
349.009800
21
507.300060
0
LINE
8
Calque 1
10
349.009800
20
507.300060
11
349.273837
21
506.872976
0
LINE
8
Calque 1
10
349.273837
20
506.872976
11
350.132775
21
505.964860
0
LINE
8
Calque 1
10
350.132775
20
505.964860
11
352.713300
21
503.621360
0
LINE
8
Calque 1
10
352.713300
20
503.621360
11
353.273475
21
503.025160
0
LINE
8
Calque 1
10
353.273475
20
503.025160
11
353.398500
21
502.600260
0
LINE
8
Calque 1
10
353.398500
20
502.600260
11
353.339750
21
502.442748
0
LINE
8
Calque 1
10
353.339750
20
502.442748
11
353.444500
21
502.494560
0
LINE
8
Calque 1
10
353.444500
20
502.494560
11
353.785183
21
502.462688
0
LINE
8
Calque 1
10
353.785183
20
502.462688
11
354.271337
21
502.116885
0
LINE
8
Calque 1
10
354.271337
20
502.116885
11
354.706848
21
501.633569
0
LINE
8
Calque 1
10
354.706848
20
501.633569
11
354.895600
21
501.189160
0
LINE
8
Calque 1
10
354.895600
20
501.189160
11
354.962637
21
500.941473
0
LINE
8
Calque 1
10
354.962637
20
500.941473
11
355.123800
21
500.838460
0
LINE
8
Calque 1
10
355.123800
20
500.838460
11
356.313400
21
500.069410
0
LINE
8
Calque 1
10
356.313400
20
500.069410
11
356.923575
21
499.506854
0
LINE
8
Calque 1
10
356.923575
20
499.506854
11
357.117800
21
499.180060
0
LINE
8
Calque 1
10
357.117800
20
499.180060
11
357.240162
21
498.948223
0
LINE
8
Calque 1
10
357.240162
20
498.948223
11
357.733700
21
498.590160
0
LINE
8
Calque 1
10
357.733700
20
498.590160
11
358.450375
21
498.009260
0
LINE
8
Calque 1
10
358.450375
20
498.009260
11
359.109000
21
497.241460
0
LINE
8
Calque 1
10
359.109000
20
497.241460
11
359.910300
21
496.340560
0
LINE
8
Calque 1
10
359.910300
20
496.340560
11
361.133000
21
495.262360
0
LINE
8
Calque 1
10
361.133000
20
495.262360
11
363.097700
21
493.291060
0
LINE
8
Calque 1
10
363.097700
20
493.291060
11
368.831900
21
487.688460
0
LINE
8
Calque 1
10
368.831900
20
487.688460
11
375.384900
21
481.330160
0
LINE
8
Calque 1
10
375.384900
20
481.330160
11
377.132600
21
479.551960
0
LINE
8
Calque 1
10
377.132600
20
479.551960
11
379.740800
21
477.029960
0
LINE
8
Calque 1
10
379.740800
20
477.029960
11
380.222000
21
476.496760
0
LINE
8
Calque 1
10
380.222000
20
476.496760
11
381.785800
21
474.843160
0
LINE
8
Calque 1
10
381.785800
20
474.843160
11
385.137125
21
471.569773
0
LINE
8
Calque 1
10
385.137125
20
471.569773
11
385.851900
21
470.655060
0
LINE
8
Calque 1
10
385.851900
20
470.655060
11
385.949037
21
470.476048
0
LINE
8
Calque 1
10
385.949037
20
470.476048
11
386.182600
21
470.387860
0
LINE
8
Calque 1
10
386.182600
20
470.387860
11
386.804762
21
469.918685
0
LINE
8
Calque 1
10
386.804762
20
469.918685
11
387.836200
21
468.823860
0
LINE
8
Calque 1
10
387.836200
20
468.823860
11
389.365700
21
467.259860
0
LINE
8
Calque 1
10
389.365700
20
467.259860
11
390.385300
21
466.310360
0
LINE
8
Calque 1
10
390.385300
20
466.310360
11
391.070475
21
465.656285
0
LINE
8
Calque 1
10
391.070475
20
465.656285
11
391.576100
21
465.384260
0
LINE
8
Calque 1
10
391.576100
20
465.384260
11
391.893637
21
465.248273
0
LINE
8
Calque 1
10
391.893637
20
465.248273
11
392.126500
21
464.921260
0
LINE
8
Calque 1
10
392.126500
20
464.921260
11
392.547147
21
464.253460
0
LINE
8
Calque 1
10
392.547147
20
464.253460
11
393.243625
21
463.461760
0
LINE
8
Calque 1
10
393.243625
20
463.461760
11
393.940591
21
462.827860
0
LINE
8
Calque 1
10
393.940591
20
462.827860
11
394.362700
21
462.633460
0
LINE
8
Calque 1
10
394.362700
20
462.633460
11
394.593175
21
462.535073
0
LINE
8
Calque 1
10
394.593175
20
462.535073
11
394.836400
21
462.106760
0
LINE
8
Calque 1
10
394.836400
20
462.106760
11
395.231750
21
461.499885
0
LINE
8
Calque 1
10
395.231750
20
461.499885
11
395.828100
21
460.972660
0
LINE
8
Calque 1
10
395.828100
20
460.972660
11
396.769900
21
460.181460
0
LINE
8
Calque 1
10
396.769900
20
460.181460
11
397.831250
21
459.008023
0
LINE
8
Calque 1
10
397.831250
20
459.008023
11
398.805900
21
458.240560
0
LINE
8
Calque 1
10
398.805900
20
458.240560
11
399.164700
21
457.684760
0
LINE
8
Calque 1
10
399.164700
20
457.684760
11
399.350237
21
457.343285
0
LINE
8
Calque 1
10
399.350237
20
457.343285
11
399.592400
21
457.303460
0
LINE
8
Calque 1
10
399.592400
20
457.303460
11
399.791837
21
457.344260
0
LINE
8
Calque 1
10
399.791837
20
457.344260
11
399.874800
21
457.197860
0
LINE
8
Calque 1
10
399.874800
20
457.197860
11
400.461712
21
456.363643
0
LINE
8
Calque 1
10
400.461712
20
456.363643
11
401.792925
21
455.017523
0
LINE
8
Calque 1
10
401.792925
20
455.017523
11
403.224150
21
453.765471
0
LINE
8
Calque 1
10
403.224150
20
453.765471
11
404.111100
21
453.213460
0
LINE
8
Calque 1
10
404.111100
20
453.213460
11
404.295862
21
453.122785
0
LINE
8
Calque 1
10
404.295862
20
453.122785
11
404.372700
21
452.904760
0
LINE
8
Calque 1
10
404.372700
20
452.904760
11
404.416450
21
452.730523
0
LINE
8
Calque 1
10
404.416450
20
452.730523
11
404.521700
21
452.745060
0
LINE
8
Calque 1
10
404.521700
20
452.745060
11
405.381600
21
452.701060
0
LINE
8
Calque 1
10
405.381600
20
452.701060
11
405.990714
21
452.599590
0
LINE
8
Calque 1
10
405.990714
20
452.599590
11
406.589262
21
452.654898
0
LINE
8
Calque 1
10
406.589262
20
452.654898
11
408.076900
21
453.308860
0
LINE
8
Calque 1
10
408.076900
20
453.308860
11
408.076600
21
453.308700
0
LINE
8
Calque 1
10
514.174600
20
495.237900
11
512.979887
21
498.362200
0
LINE
8
Calque 1
10
512.979887
20
498.362200
11
509.838400
21
505.686800
0
LINE
8
Calque 1
10
509.838400
20
505.686800
11
505.869275
21
515.145737
0
LINE
8
Calque 1
10
505.869275
20
515.145737
11
503.176500
21
522.269100
0
LINE
8
Calque 1
10
503.176500
20
522.269100
11
502.188900
21
524.846800
0
LINE
8
Calque 1
10
502.188900
20
524.846800
11
501.499187
21
525.232575
0
LINE
8
Calque 1
10
501.499187
20
525.232575
11
500.187200
21
525.698600
0
LINE
8
Calque 1
10
500.187200
20
525.698600
11
497.712612
21
526.648848
0
LINE
8
Calque 1
10
497.712612
20
526.648848
11
494.579300
21
528.146137
0
LINE
8
Calque 1
10
494.579300
20
528.146137
11
491.310837
21
529.922708
0
LINE
8
Calque 1
10
491.310837
20
529.922708
11
488.430800
21
531.710800
0
LINE
8
Calque 1
10
488.430800
20
531.710800
11
484.194025
21
534.805602
0
LINE
8
Calque 1
10
484.194025
20
534.805602
11
479.743350
21
538.602862
0
LINE
8
Calque 1
10
479.743350
20
538.602862
11
474.305075
21
543.806842
0
LINE
8
Calque 1
10
474.305075
20
543.806842
11
467.105500
21
551.121800
0
LINE
8
Calque 1
10
467.105500
20
551.121800
11
455.502362
21
563.388166
0
LINE
8
Calque 1
10
455.502362
20
563.388166
11
446.256625
21
573.838575
0
LINE
8
Calque 1
10
446.256625
20
573.838575
11
442.412629
21
578.507185
0
LINE
8
Calque 1
10
442.412629
20
578.507185
11
439.031800
21
582.871072
0
LINE
8
Calque 1
10
439.031800
20
582.871072
11
436.072077
21
586.979992
0
LINE
8
Calque 1
10
436.072077
20
586.979992
11
433.491400
21
590.883700
0
LINE
8
Calque 1
10
433.491400
20
590.883700
11
431.242397
21
594.695900
0
LINE
8
Calque 1
10
431.242397
20
594.695900
11
429.791975
21
597.958725
0
LINE
8
Calque 1
10
429.791975
20
597.958725
11
428.861041
21
601.465562
0
LINE
8
Calque 1
10
428.861041
20
601.465562
11
428.170500
21
606.009800
0
LINE
8
Calque 1
10
428.170500
20
606.009800
11
427.670625
21
609.350075
0
LINE
8
Calque 1
10
427.670625
20
609.350075
11
427.255200
21
611.064800
0
LINE
8
Calque 1
10
427.255200
20
611.064800
11
426.633928
21
611.534753
0
LINE
8
Calque 1
10
426.633928
20
611.534753
11
425.394450
21
611.900775
0
LINE
8
Calque 1
10
425.394450
20
611.900775
11
423.465722
21
612.177284
0
LINE
8
Calque 1
10
423.465722
20
612.177284
11
420.776700
21
612.378700
0
LINE
8
Calque 1
10
420.776700
20
612.378700
11
417.734000
21
612.544600
0
LINE
8
Calque 1
10
417.734000
20
612.544600
11
417.236300
21
611.658400
0
LINE
8
Calque 1
10
417.236300
20
611.658400
11
415.402870
21
608.123509
0
LINE
8
Calque 1
10
415.402870
20
608.123509
11
413.916887
21
604.717525
0
LINE
8
Calque 1
10
413.916887
20
604.717525
11
412.878036
21
601.694303
0
LINE
8
Calque 1
10
412.878036
20
601.694303
11
412.386000
21
599.307700
0
LINE
8
Calque 1
10
412.386000
20
599.307700
11
412.176925
21
598.026087
0
LINE
8
Calque 1
10
412.176925
20
598.026087
11
411.893900
21
597.297000
0
LINE
8
Calque 1
10
411.893900
20
597.297000
11
411.203787
21
597.012575
0
LINE
8
Calque 1
10
411.203787
20
597.012575
11
410.015900
21
596.800000
0
LINE
8
Calque 1
10
410.015900
20
596.800000
11
408.110169
21
596.456153
0
LINE
8
Calque 1
10
408.110169
20
596.456153
11
405.910850
21
595.786000
0
LINE
8
Calque 1
10
405.910850
20
595.786000
11
403.377556
21
594.775197
0
LINE
8
Calque 1
10
403.377556
20
594.775197
11
400.469900
21
593.409400
0
LINE
8
Calque 1
10
400.469900
20
593.409400
11
396.699600
21
591.531600
0
LINE
8
Calque 1
10
396.699600
20
591.531600
11
396.709600
21
589.510200
0
LINE
8
Calque 1
10
396.709600
20
589.510200
11
396.920400
21
586.035025
0
LINE
8
Calque 1
10
396.920400
20
586.035025
11
397.381700
21
582.790400
0
LINE
8
Calque 1
10
397.381700
20
582.790400
11
397.629787
21
582.201337
0
LINE
8
Calque 1
10
397.629787
20
582.201337
11
398.006500
21
581.809900
0
LINE
8
Calque 1
10
398.006500
20
581.809900
11
402.813700
21
581.004800
0
LINE
8
Calque 1
10
402.813700
20
581.004800
11
407.478680
21
580.325144
0
LINE
8
Calque 1
10
407.478680
20
580.325144
11
410.785737
21
579.522075
0
LINE
8
Calque 1
10
410.785737
20
579.522075
11
413.702927
21
578.277069
0
LINE
8
Calque 1
10
413.702927
20
578.277069
11
417.198300
21
576.271600
0
LINE
8
Calque 1
10
417.198300
20
576.271600
11
423.404005
21
572.156041
0
LINE
8
Calque 1
10
423.404005
20
572.156041
11
430.418312
21
566.846200
0
LINE
8
Calque 1
10
430.418312
20
566.846200
11
438.264614
21
560.323459
0
LINE
8
Calque 1
10
438.264614
20
560.323459
11
446.966300
21
552.569200
0
LINE
8
Calque 1
10
446.966300
20
552.569200
11
453.762364
21
546.132062
0
LINE
8
Calque 1
10
453.762364
20
546.132062
11
461.573487
21
538.451125
0
LINE
8
Calque 1
10
461.573487
20
538.451125
11
468.543842
21
531.378700
0
LINE
8
Calque 1
10
468.543842
20
531.378700
11
472.817600
21
526.767100
0
LINE
8
Calque 1
10
472.817600
20
526.767100
11
476.336525
21
522.220162
0
LINE
8
Calque 1
10
476.336525
20
522.220162
11
479.330600
21
517.672250
0
LINE
8
Calque 1
10
479.330600
20
517.672250
11
481.697225
21
513.294212
0
LINE
8
Calque 1
10
481.697225
20
513.294212
11
483.333800
21
509.256900
0
LINE
8
Calque 1
10
483.333800
20
509.256900
11
483.823717
21
507.832686
0
LINE
8
Calque 1
10
483.823717
20
507.832686
11
484.306912
21
507.042662
0
LINE
8
Calque 1
10
484.306912
20
507.042662
11
485.101977
21
506.572833
0
LINE
8
Calque 1
10
485.101977
20
506.572833
11
486.527500
21
506.109200
0
LINE
8
Calque 1
10
486.527500
20
506.109200
11
494.264387
21
503.121775
0
LINE
8
Calque 1
10
494.264387
20
503.121775
11
504.651400
21
498.773100
0
LINE
8
Calque 1
10
504.651400
20
498.773100
11
512.691887
21
495.338362
0
LINE
8
Calque 1
10
512.691887
20
495.338362
11
513.917364
21
494.996152
0
LINE
8
Calque 1
10
513.917364
20
494.996152
11
514.125653
21
495.059631
0
LINE
8
Calque 1
10
514.125653
20
495.059631
11
514.176400
21
495.237900
0
LINE
8
Calque 1
10
514.176400
20
495.237900
11
514.174600
21
495.237900
0
LINE
8
Calque 1
10
407.622600
20
499.092000
11
414.506875
21
505.638850
0
LINE
8
Calque 1
10
414.506875
20
505.638850
11
430.691000
21
521.706500
0
LINE
8
Calque 1
10
430.691000
20
521.706500
11
452.908100
21
543.950300
0
LINE
8
Calque 1
10
452.908100
20
543.950300
11
449.893300
21
546.801940
0
LINE
8
Calque 1
10
449.893300
20
546.801940
11
446.696800
21
549.653540
0
LINE
8
Calque 1
10
446.696800
20
549.653540
11
426.345400
21
529.677540
0
LINE
8
Calque 1
10
426.345400
20
529.677540
11
405.974200
21
509.626140
0
LINE
8
Calque 1
10
405.974200
20
509.626140
11
393.016125
21
522.354902
0
LINE
8
Calque 1
10
393.016125
20
522.354902
11
362.144300
21
553.063340
0
LINE
8
Calque 1
10
362.144300
20
553.063340
11
326.066587
21
588.913115
0
LINE
8
Calque 1
10
326.066587
20
588.913115
11
319.847577
21
594.886256
0
LINE
8
Calque 1
10
319.847577
20
594.886256
11
318.602488
21
595.953748
0
LINE
8
Calque 1
10
318.602488
20
595.953748
11
318.184900
21
596.149040
0
LINE
8
Calque 1
10
318.184900
20
596.149040
11
317.951337
21
595.937727
0
LINE
8
Calque 1
10
317.951337
20
595.937727
11
317.854200
21
596.029040
0
LINE
8
Calque 1
10
317.854200
20
596.029040
11
317.718887
21
596.204677
0
LINE
8
Calque 1
10
317.718887
20
596.204677
11
317.391200
21
596.193640
0
LINE
8
Calque 1
10
317.391200
20
596.193640
11
317.249525
21
596.204290
0
LINE
8
Calque 1
10
317.249525
20
596.204290
11
317.559200
21
596.428840
0
LINE
8
Calque 1
10
317.559200
20
596.428840
11
317.951350
21
596.757065
0
LINE
8
Calque 1
10
317.951350
20
596.757065
11
317.889900
21
596.991840
0
LINE
8
Calque 1
10
317.889900
20
596.991840
11
317.677800
21
597.031702
0
LINE
8
Calque 1
10
317.677800
20
597.031702
11
317.589600
21
596.866440
0
LINE
8
Calque 1
10
317.589600
20
596.866440
11
317.440387
21
596.682127
0
LINE
8
Calque 1
10
317.440387
20
596.682127
11
317.060700
21
596.693640
0
LINE
8
Calque 1
10
317.060700
20
596.693640
11
316.643625
21
596.721090
0
LINE
8
Calque 1
10
316.643625
20
596.721090
11
316.383600
21
596.592240
0
LINE
8
Calque 1
10
316.383600
20
596.592240
11
316.140761
21
596.387238
0
LINE
8
Calque 1
10
316.140761
20
596.387238
11
315.842412
21
596.368452
0
LINE
8
Calque 1
10
315.842412
20
596.368452
11
315.569733
21
596.517385
0
LINE
8
Calque 1
10
315.569733
20
596.517385
11
315.403900
21
596.815540
0
LINE
8
Calque 1
10
315.403900
20
596.815540
11
315.339086
21
596.965173
0
LINE
8
Calque 1
10
315.339086
20
596.965173
11
315.253112
21
596.939202
0
LINE
8
Calque 1
10
315.253112
20
596.939202
11
315.011500
21
596.352540
0
LINE
8
Calque 1
10
315.011500
20
596.352540
11
314.767900
21
595.697977
0
LINE
8
Calque 1
10
314.767900
20
595.697977
11
314.682100
21
596.087940
0
LINE
8
Calque 1
10
314.682100
20
596.087940
11
314.610100
21
596.454677
0
LINE
8
Calque 1
10
314.610100
20
596.454677
11
314.500300
21
596.407640
0
LINE
8
Calque 1
10
314.500300
20
596.407640
11
314.313537
21
596.203590
0
LINE
8
Calque 1
10
314.313537
20
596.203590
11
313.992000
21
596.373640
0
LINE
8
Calque 1
10
313.992000
20
596.373640
11
313.699787
21
596.546815
0
LINE
8
Calque 1
10
313.699787
20
596.546815
11
313.620800
21
596.355640
0
LINE
8
Calque 1
10
313.620800
20
596.355640
11
313.454050
21
596.153915
0
LINE
8
Calque 1
10
313.454050
20
596.153915
11
312.959400
21
596.195940
0
LINE
8
Calque 1
10
312.959400
20
596.195940
11
312.460975
21
596.237577
0
LINE
8
Calque 1
10
312.460975
20
596.237577
11
312.293900
21
596.026240
0
LINE
8
Calque 1
10
312.293900
20
596.026240
11
312.238387
21
595.851352
0
LINE
8
Calque 1
10
312.238387
20
595.851352
11
312.053800
21
596.063240
0
LINE
8
Calque 1
10
312.053800
20
596.063240
11
311.926062
21
596.450227
0
LINE
8
Calque 1
10
311.926062
20
596.450227
11
311.950500
21
596.856940
0
LINE
8
Calque 1
10
311.950500
20
596.856940
11
312.009250
21
597.130327
0
LINE
8
Calque 1
10
312.009250
20
597.130327
11
311.811200
21
596.893940
0
LINE
8
Calque 1
10
311.811200
20
596.893940
11
311.658200
21
596.316840
0
LINE
8
Calque 1
10
311.658200
20
596.316840
11
311.663862
21
596.131915
0
LINE
8
Calque 1
10
311.663862
20
596.131915
11
311.508500
21
595.957940
0
LINE
8
Calque 1
10
311.508500
20
595.957940
11
311.308825
21
596.017540
0
LINE
8
Calque 1
10
311.308825
20
596.017540
11
311.208900
21
596.402640
0
LINE
8
Calque 1
10
311.208900
20
596.402640
11
311.157987
21
596.774765
0
LINE
8
Calque 1
10
311.157987
20
596.774765
11
311.056600
21
596.547340
0
LINE
8
Calque 1
10
311.056600
20
596.547340
11
310.904412
21
596.258940
0
LINE
8
Calque 1
10
310.904412
20
596.258940
11
310.709400
21
596.220440
0
LINE
8
Calque 1
10
310.709400
20
596.220440
11
310.501725
21
596.166540
0
LINE
8
Calque 1
10
310.501725
20
596.166540
11
310.319100
21
595.840240
0
LINE
8
Calque 1
10
310.319100
20
595.840240
11
310.094637
21
595.502465
0
LINE
8
Calque 1
10
310.094637
20
595.502465
11
309.770800
21
595.467840
0
LINE
8
Calque 1
10
309.770800
20
595.467840
11
309.472969
21
595.653195
0
LINE
8
Calque 1
10
309.472969
20
595.653195
11
309.396275
21
595.840527
0
LINE
8
Calque 1
10
309.396275
20
595.840527
11
309.526844
21
595.952392
0
LINE
8
Calque 1
10
309.526844
20
595.952392
11
309.850800
21
595.911340
0
LINE
8
Calque 1
10
309.850800
20
595.911340
11
310.119975
21
595.865802
0
LINE
8
Calque 1
10
310.119975
20
595.865802
11
309.784800
21
596.175840
0
LINE
8
Calque 1
10
309.784800
20
596.175840
11
309.503650
21
596.479977
0
LINE
8
Calque 1
10
309.503650
20
596.479977
11
309.586400
21
596.608240
0
LINE
8
Calque 1
10
309.586400
20
596.608240
11
309.819962
21
596.699127
0
LINE
8
Calque 1
10
309.819962
20
596.699127
11
309.917100
21
596.911740
0
LINE
8
Calque 1
10
309.917100
20
596.911740
11
309.742887
21
597.013202
0
LINE
8
Calque 1
10
309.742887
20
597.013202
11
309.269500
21
596.782340
0
LINE
8
Calque 1
10
309.269500
20
596.782340
11
308.766012
21
596.552415
0
LINE
8
Calque 1
10
308.766012
20
596.552415
11
308.470500
21
596.602840
0
LINE
8
Calque 1
10
308.470500
20
596.602840
11
308.202950
21
596.763577
0
LINE
8
Calque 1
10
308.202950
20
596.763577
11
307.771900
21
596.806340
0
LINE
8
Calque 1
10
307.771900
20
596.806340
11
307.369537
21
596.710052
0
LINE
8
Calque 1
10
307.369537
20
596.710052
11
307.805900
21
596.294040
0
LINE
8
Calque 1
10
307.805900
20
596.294040
11
308.141075
21
595.961327
0
LINE
8
Calque 1
10
308.141075
20
595.961327
11
308.129900
21
595.822940
0
LINE
8
Calque 1
10
308.129900
20
595.822940
11
307.195800
21
596.499240
0
LINE
8
Calque 1
10
307.195800
20
596.499240
11
306.689162
21
596.921765
0
LINE
8
Calque 1
10
306.689162
20
596.921765
11
306.590564
21
596.906743
0
LINE
8
Calque 1
10
306.590564
20
596.906743
11
306.582500
21
596.745940
0
LINE
8
Calque 1
10
306.582500
20
596.745940
11
321.744772
21
581.292099
0
LINE
8
Calque 1
10
321.744772
20
581.292099
11
355.085900
21
547.857965
0
LINE
8
Calque 1
10
355.085900
20
547.857965
11
388.589853
21
514.456943
0
LINE
8
Calque 1
10
388.589853
20
514.456943
11
404.240600
21
499.102440
0
LINE
8
Calque 1
10
404.240600
20
499.102440
11
405.055348
21
498.837485
0
LINE
8
Calque 1
10
405.055348
20
498.837485
11
405.920262
21
498.747252
0
LINE
8
Calque 1
10
405.920262
20
498.747252
11
406.790820
21
498.831863
0
LINE
8
Calque 1
10
406.790820
20
498.831863
11
407.622500
21
499.091440
0
LINE
8
Calque 1
10
407.622500
20
499.091440
11
407.622600
21
499.092000
0
LINE
8
Calque 1
10
312.777500
20
595.739500
11
313.284600
21
595.718500
0
LINE
8
Calque 1
10
313.284600
20
595.718500
11
313.248687
21
595.611688
0
LINE
8
Calque 1
10
313.248687
20
595.611688
11
312.937300
21
595.579500
0
LINE
8
Calque 1
10
312.937300
20
595.579500
11
312.662662
21
595.632488
0
LINE
8
Calque 1
10
312.662662
20
595.632488
11
312.777500
21
595.739400
0
LINE
8
Calque 1
10
312.777500
20
595.739400
11
312.777500
21
595.739500
0
LINE
8
Calque 1
10
316.399000
20
596.352500
11
316.679200
21
596.617000
0
LINE
8
Calque 1
10
316.679200
20
596.617000
11
316.795800
21
596.352500
0
LINE
8
Calque 1
10
316.795800
20
596.352500
11
316.713525
21
596.165600
0
LINE
8
Calque 1
10
316.713525
20
596.165600
11
316.515600
21
596.087900
0
LINE
8
Calque 1
10
316.515600
20
596.087900
11
316.365762
21
596.165600
0
LINE
8
Calque 1
10
316.365762
20
596.165600
11
316.399000
21
596.352500
0
LINE
8
Calque 1
10
316.399000
20
596.352500
11
316.399000
21
596.352500
0
LINE
8
Calque 1
10
492.612000
20
535.164600
11
494.184575
21
536.583050
0
LINE
8
Calque 1
10
494.184575
20
536.583050
11
494.993200
21
537.124600
0
LINE
8
Calque 1
10
494.993200
20
537.124600
11
495.125625
21
537.120325
0
LINE
8
Calque 1
10
495.125625
20
537.120325
11
495.072200
21
537.226900
0
LINE
8
Calque 1
10
495.072200
20
537.226900
11
495.332034
21
537.724691
0
LINE
8
Calque 1
10
495.332034
20
537.724691
11
496.126300
21
538.614675
0
LINE
8
Calque 1
10
496.126300
20
538.614675
11
497.018591
21
539.450322
0
LINE
8
Calque 1
10
497.018591
20
539.450322
11
497.572500
21
539.785100
0
LINE
8
Calque 1
10
497.572500
20
539.785100
11
497.712612
21
539.868675
0
LINE
8
Calque 1
10
497.712612
20
539.868675
11
497.770900
21
540.144100
0
LINE
8
Calque 1
10
497.770900
20
540.144100
11
497.837675
21
540.394188
0
LINE
8
Calque 1
10
497.837675
20
540.394188
11
497.998200
21
540.416200
0
LINE
8
Calque 1
10
497.998200
20
540.416200
11
498.830225
21
540.964950
0
LINE
8
Calque 1
10
498.830225
20
540.964950
11
500.511700
21
542.481200
0
LINE
8
Calque 1
10
500.511700
20
542.481200
11
502.798000
21
544.551100
0
LINE
8
Calque 1
10
502.798000
20
544.551100
11
503.575300
21
545.182540
0
LINE
8
Calque 1
10
503.575300
20
545.182540
11
505.583700
21
547.007740
0
LINE
8
Calque 1
10
505.583700
20
547.007740
11
508.177300
21
549.322840
0
LINE
8
Calque 1
10
508.177300
20
549.322840
11
509.239912
21
550.210440
0
LINE
8
Calque 1
10
509.239912
20
550.210440
11
509.881400
21
550.579640
0
LINE
8
Calque 1
10
509.881400
20
550.579640
11
510.167162
21
550.695765
0
LINE
8
Calque 1
10
510.167162
20
550.695765
11
510.374700
21
550.974940
0
LINE
8
Calque 1
10
510.374700
20
550.974940
11
510.551250
21
551.211190
0
LINE
8
Calque 1
10
510.551250
20
551.211190
11
510.763200
21
551.223940
0
LINE
8
Calque 1
10
510.763200
20
551.223940
11
510.930512
21
551.239478
0
LINE
8
Calque 1
10
510.930512
20
551.239478
11
511.000100
21
551.483240
0
LINE
8
Calque 1
10
511.000100
20
551.483240
11
511.233262
21
551.890315
0
LINE
8
Calque 1
10
511.233262
20
551.890315
11
511.793800
21
552.299340
0
LINE
8
Calque 1
10
511.793800
20
552.299340
11
512.354425
21
552.659965
0
LINE
8
Calque 1
10
512.354425
20
552.659965
11
512.587600
21
552.950540
0
LINE
8
Calque 1
10
512.587600
20
552.950540
11
512.857662
21
553.218115
0
LINE
8
Calque 1
10
512.857662
20
553.218115
11
513.507000
21
553.523640
0
LINE
8
Calque 1
10
513.507000
20
553.523640
11
514.310100
21
553.972440
0
LINE
8
Calque 1
10
514.310100
20
553.972440
11
514.275709
21
554.244704
0
LINE
8
Calque 1
10
514.275709
20
554.244704
11
514.471475
21
554.588453
0
LINE
8
Calque 1
10
514.471475
20
554.588453
11
514.779703
21
554.859995
0
LINE
8
Calque 1
10
514.779703
20
554.859995
11
515.082700
21
554.915640
0
LINE
8
Calque 1
10
515.082700
20
554.915640
11
515.518012
21
555.042090
0
LINE
8
Calque 1
10
515.518012
20
555.042090
11
516.054500
21
555.587040
0
LINE
8
Calque 1
10
516.054500
20
555.587040
11
516.585750
21
556.161478
0
LINE
8
Calque 1
10
516.585750
20
556.161478
11
517.018600
21
556.400440
0
LINE
8
Calque 1
10
517.018600
20
556.400440
11
517.232200
21
556.469315
0
LINE
8
Calque 1
10
517.232200
20
556.469315
11
517.236400
21
556.634940
0
LINE
8
Calque 1
10
517.236400
20
556.634940
11
517.296312
21
556.843015
0
LINE
8
Calque 1
10
517.296312
20
556.843015
11
517.644300
21
557.014040
0
LINE
8
Calque 1
10
517.644300
20
557.014040
11
518.000238
21
557.205340
0
LINE
8
Calque 1
10
518.000238
20
557.205340
11
517.997300
21
557.481840
0
LINE
8
Calque 1
10
517.997300
20
557.481840
11
517.927788
21
557.667265
0
LINE
8
Calque 1
10
517.927788
20
557.667265
11
518.052300
21
557.647340
0
LINE
8
Calque 1
10
518.052300
20
557.647340
11
524.556837
21
563.860390
0
LINE
8
Calque 1
10
524.556837
20
563.860390
11
539.836900
21
579.020040
0
LINE
8
Calque 1
10
539.836900
20
579.020040
11
561.366100
21
600.550440
0
LINE
8
Calque 1
10
561.366100
20
600.550440
11
556.837000
21
605.264540
0
LINE
8
Calque 1
10
556.837000
20
605.264540
11
479.134000
21
683.135540
0
LINE
8
Calque 1
10
479.134000
20
683.135540
11
405.960200
21
756.292540
0
LINE
8
Calque 1
10
405.960200
20
756.292540
11
374.878000
21
725.211140
0
LINE
8
Calque 1
10
374.878000
20
725.211140
11
352.982525
21
703.208640
0
LINE
8
Calque 1
10
352.982525
20
703.208640
11
343.987800
21
693.955240
0
LINE
8
Calque 1
10
343.987800
20
693.955240
11
348.882700
21
691.230440
0
LINE
8
Calque 1
10
348.882700
20
691.230440
11
357.985200
21
686.147540
0
LINE
8
Calque 1
10
357.985200
20
686.147540
11
362.384800
21
683.615040
0
LINE
8
Calque 1
10
362.384800
20
683.615040
11
384.172700
21
705.401640
0
LINE
8
Calque 1
10
384.172700
20
705.401640
11
405.960500
21
727.188340
0
LINE
8
Calque 1
10
405.960500
20
727.188340
11
469.261600
21
663.887240
0
LINE
8
Calque 1
10
469.261600
20
663.887240
11
532.562600
21
600.586240
0
LINE
8
Calque 1
10
532.562600
20
600.586240
11
504.566800
21
572.589540
0
LINE
8
Calque 1
10
504.566800
20
572.589540
11
476.571000
21
544.592840
0
LINE
8
Calque 1
10
476.571000
20
544.592840
11
479.302700
21
541.963840
0
LINE
8
Calque 1
10
479.302700
20
541.963840
11
484.051900
21
537.688440
0
LINE
8
Calque 1
10
484.051900
20
537.688440
11
487.831225
21
534.821953
0
LINE
8
Calque 1
10
487.831225
20
534.821953
11
490.362100
21
533.129740
0
LINE
8
Calque 1
10
490.362100
20
533.129740
11
492.611000
21
535.164640
0
LINE
8
Calque 1
10
492.611000
20
535.164640
11
492.612000
21
535.164600
0
LINE
8
Calque 1
10
485.733400
20
576.826400
11
499.954187
21
591.115075
0
LINE
8
Calque 1
10
499.954187
20
591.115075
11
504.150114
21
595.354897
0
LINE
8
Calque 1
10
504.150114
20
595.354897
11
505.235185
21
596.462168
0
LINE
8
Calque 1
10
505.235185
20
596.462168
11
505.536700
21
596.785200
0
LINE
8
Calque 1
10
505.536700
20
596.785200
11
505.067975
21
596.508300
0
LINE
8
Calque 1
10
505.067975
20
596.508300
11
504.793500
21
596.599800
0
LINE
8
Calque 1
10
504.793500
20
596.599800
11
504.319700
21
596.881600
0
LINE
8
Calque 1
10
504.319700
20
596.881600
11
504.259200
21
596.767500
0
LINE
8
Calque 1
10
504.259200
20
596.767500
11
504.533800
21
596.493200
0
LINE
8
Calque 1
10
504.533800
20
596.493200
11
504.890500
21
596.165787
0
LINE
8
Calque 1
10
504.890500
20
596.165787
11
504.584800
21
596.096300
0
LINE
8
Calque 1
10
504.584800
20
596.096300
11
504.257787
21
596.009787
0
LINE
8
Calque 1
10
504.257787
20
596.009787
11
504.121800
21
595.807700
0
LINE
8
Calque 1
10
504.121800
20
595.807700
11
504.043787
21
595.658000
0
LINE
8
Calque 1
10
504.043787
20
595.658000
11
503.856200
21
595.691600
0
LINE
8
Calque 1
10
503.856200
20
595.691600
11
503.716237
21
595.996963
0
LINE
8
Calque 1
10
503.716237
20
595.996963
11
503.752600
21
596.501000
0
LINE
8
Calque 1
10
503.752600
20
596.501000
11
503.786662
21
597.002100
0
LINE
8
Calque 1
10
503.786662
20
597.002100
11
503.504600
21
597.146200
0
LINE
8
Calque 1
10
503.504600
20
597.146200
11
503.158887
21
597.055275
0
LINE
8
Calque 1
10
503.158887
20
597.055275
11
502.903400
21
596.836700
0
LINE
8
Calque 1
10
502.903400
20
596.836700
11
502.863625
21
596.645425
0
LINE
8
Calque 1
10
502.863625
20
596.645425
11
503.117100
21
596.682600
0
LINE
8
Calque 1
10
503.117100
20
596.682600
11
503.392737
21
596.695275
0
LINE
8
Calque 1
10
503.392737
20
596.695275
11
503.235400
21
596.230200
0
LINE
8
Calque 1
10
503.235400
20
596.230200
11
502.953620
21
595.860636
0
LINE
8
Calque 1
10
502.953620
20
595.860636
11
502.607387
21
595.697913
0
LINE
8
Calque 1
10
502.607387
20
595.697913
11
502.282061
21
595.755408
0
LINE
8
Calque 1
10
502.282061
20
595.755408
11
502.063000
21
596.046500
0
LINE
8
Calque 1
10
502.063000
20
596.046500
11
501.906975
21
596.213563
0
LINE
8
Calque 1
10
501.906975
20
596.213563
11
501.677000
21
596.180900
0
LINE
8
Calque 1
10
501.677000
20
596.180900
11
501.524675
21
596.142812
0
LINE
8
Calque 1
10
501.524675
20
596.142812
11
501.608000
21
596.351700
0
LINE
8
Calque 1
10
501.608000
20
596.351700
11
501.842450
21
596.539725
0
LINE
8
Calque 1
10
501.842450
20
596.539725
11
502.138100
21
596.264700
0
LINE
8
Calque 1
10
502.138100
20
596.264700
11
502.412237
21
596.009563
0
LINE
8
Calque 1
10
502.412237
20
596.009563
11
502.626900
21
596.004100
0
LINE
8
Calque 1
10
502.626900
20
596.004100
11
502.778772
21
596.404317
0
LINE
8
Calque 1
10
502.778772
20
596.404317
11
502.442525
21
596.649688
0
LINE
8
Calque 1
10
502.442525
20
596.649688
11
501.808266
21
596.685189
0
LINE
8
Calque 1
10
501.808266
20
596.685189
11
501.066100
21
596.455800
0
LINE
8
Calque 1
10
501.066100
20
596.455800
11
500.145150
21
596.102763
0
LINE
8
Calque 1
10
500.145150
20
596.102763
11
499.970181
21
596.151080
0
LINE
8
Calque 1
10
499.970181
20
596.151080
11
500.021000
21
596.352800
0
LINE
8
Calque 1
10
500.021000
20
596.352800
11
500.015387
21
596.539613
0
LINE
8
Calque 1
10
500.015387
20
596.539613
11
499.772100
21
596.617300
0
LINE
8
Calque 1
10
499.772100
20
596.617300
11
499.480762
21
596.552625
0
LINE
8
Calque 1
10
499.480762
20
596.552625
11
499.359600
21
596.396900
0
LINE
8
Calque 1
10
499.359600
20
596.396900
11
499.243012
21
596.241163
0
LINE
8
Calque 1
10
499.243012
20
596.241163
11
498.962700
21
596.176400
0
LINE
8
Calque 1
10
498.962700
20
596.176400
11
498.682387
21
596.250688
0
LINE
8
Calque 1
10
498.682387
20
596.250688
11
498.565800
21
596.429300
0
LINE
8
Calque 1
10
498.565800
20
596.429300
11
498.443137
21
596.506050
0
LINE
8
Calque 1
10
498.443137
20
596.506050
11
498.148200
21
596.335300
0
LINE
8
Calque 1
10
498.148200
20
596.335300
11
497.603773
21
596.059092
0
LINE
8
Calque 1
10
497.603773
20
596.059092
11
496.978562
21
595.950237
0
LINE
8
Calque 1
10
496.978562
20
595.950237
11
496.494070
21
596.017164
0
LINE
8
Calque 1
10
496.494070
20
596.017164
11
496.371800
21
596.268300
0
LINE
8
Calque 1
10
496.371800
20
596.268300
11
496.548511
21
596.509520
0
LINE
8
Calque 1
10
496.548511
20
596.509520
11
496.809362
21
596.604687
0
LINE
8
Calque 1
10
496.809362
20
596.604687
11
497.410500
21
596.344300
0
LINE
8
Calque 1
10
497.410500
20
596.344300
11
497.617737
21
596.235250
0
LINE
8
Calque 1
10
497.617737
20
596.235250
11
497.683900
21
596.476600
0
LINE
8
Calque 1
10
497.683900
20
596.476600
11
497.568500
21
596.766900
0
LINE
8
Calque 1
10
497.568500
20
596.766900
11
496.803700
21
596.898400
0
LINE
8
Calque 1
10
496.803700
20
596.898400
11
496.360712
21
597.015600
0
LINE
8
Calque 1
10
496.360712
20
597.015600
11
496.317400
21
596.881400
0
LINE
8
Calque 1
10
496.317400
20
596.881400
11
496.350375
21
596.695175
0
LINE
8
Calque 1
10
496.350375
20
596.695175
11
496.200200
21
596.617700
0
LINE
8
Calque 1
10
496.200200
20
596.617700
11
496.001925
21
596.714837
0
LINE
8
Calque 1
10
496.001925
20
596.714837
11
495.918700
21
596.948400
0
LINE
8
Calque 1
10
495.918700
20
596.948400
11
495.718200
21
596.948987
0
LINE
8
Calque 1
10
495.718200
20
596.948987
11
495.238100
21
596.485400
0
LINE
8
Calque 1
10
495.238100
20
596.485400
11
494.797712
21
596.006225
0
LINE
8
Calque 1
10
494.797712
20
596.006225
11
494.692800
21
595.968800
0
LINE
8
Calque 1
10
494.692800
20
595.968800
11
494.583700
21
596.630300
0
LINE
8
Calque 1
10
494.583700
20
596.630300
11
494.381912
21
596.881800
0
LINE
8
Calque 1
10
494.381912
20
596.881800
11
494.336500
21
596.630800
0
LINE
8
Calque 1
10
494.336500
20
596.630800
11
494.268400
21
596.392163
0
LINE
8
Calque 1
10
494.268400
20
596.392163
11
494.010700
21
596.568800
0
LINE
8
Calque 1
10
494.010700
20
596.568800
11
493.068195
21
595.940398
0
LINE
8
Calque 1
10
493.068195
20
595.940398
11
490.231612
21
593.302512
0
LINE
8
Calque 1
10
490.231612
20
593.302512
11
476.547500
21
579.756500
0
LINE
8
Calque 1
10
476.547500
20
579.756500
11
459.473000
21
562.432000
0
LINE
8
Calque 1
10
459.473000
20
562.432000
11
462.297887
21
559.295725
0
LINE
8
Calque 1
10
462.297887
20
559.295725
11
465.181800
21
556.400800
0
LINE
8
Calque 1
10
465.181800
20
556.400800
11
485.734200
21
576.826800
0
LINE
8
Calque 1
10
485.734200
20
576.826800
11
485.733400
21
576.826400
0
LINE
8
Calque 1
10
392.731800
20
592.507100
11
395.073863
21
593.312125
0
LINE
8
Calque 1
10
395.073863
20
593.312125
11
398.608800
21
594.979200
0
LINE
8
Calque 1
10
398.608800
20
594.979200
11
401.684909
21
596.454864
0
LINE
8
Calque 1
10
401.684909
20
596.454864
11
404.506000
21
597.629787
0
LINE
8
Calque 1
10
404.506000
20
597.629787
11
406.952391
21
598.458417
0
LINE
8
Calque 1
10
406.952391
20
598.458417
11
408.904400
21
598.895200
0
LINE
8
Calque 1
10
408.904400
20
598.895200
11
410.128000
21
599.061100
0
LINE
8
Calque 1
10
410.128000
20
599.061100
11
410.275700
21
600.308200
0
LINE
8
Calque 1
10
410.275700
20
600.308200
11
410.658650
21
602.161986
0
LINE
8
Calque 1
10
410.658650
20
602.161986
11
411.412100
21
604.438312
0
LINE
8
Calque 1
10
411.412100
20
604.438312
11
412.522100
21
607.100233
0
LINE
8
Calque 1
10
412.522100
20
607.100233
11
413.974700
21
610.110800
0
LINE
8
Calque 1
10
413.974700
20
610.110800
11
415.567700
21
613.395800
0
LINE
8
Calque 1
10
415.567700
20
613.395800
11
416.458400
21
615.534800
0
LINE
8
Calque 1
10
416.458400
20
615.534800
11
416.787822
21
617.690605
0
LINE
8
Calque 1
10
416.787822
20
617.690605
11
416.998125
21
620.816262
0
LINE
8
Calque 1
10
416.998125
20
620.816262
11
417.037691
21
623.675314
0
LINE
8
Calque 1
10
417.037691
20
623.675314
11
416.854900
21
625.031300
0
LINE
8
Calque 1
10
416.854900
20
625.031300
11
415.463425
21
624.754587
0
LINE
8
Calque 1
10
415.463425
20
624.754587
11
412.521100
21
623.839700
0
LINE
8
Calque 1
10
412.521100
20
623.839700
11
409.472822
21
622.902492
0
LINE
8
Calque 1
10
409.472822
20
622.902492
11
407.109650
21
622.389737
0
LINE
8
Calque 1
10
407.109650
20
622.389737
11
405.396503
21
622.296214
0
LINE
8
Calque 1
10
405.396503
20
622.296214
11
404.298300
21
622.616700
0
LINE
8
Calque 1
10
404.298300
20
622.616700
11
403.464616
21
623.505833
0
LINE
8
Calque 1
10
403.464616
20
623.505833
11
402.261575
21
625.161662
0
LINE
8
Calque 1
10
402.261575
20
625.161662
11
399.934900
21
629.028500
0
LINE
8
Calque 1
10
399.934900
20
629.028500
11
399.040248
21
631.034967
0
LINE
8
Calque 1
10
399.040248
20
631.034967
11
398.212637
21
633.311012
0
LINE
8
Calque 1
10
398.212637
20
633.311012
11
397.489333
21
635.743527
0
LINE
8
Calque 1
10
397.489333
20
635.743527
11
396.907600
21
638.219400
0
LINE
8
Calque 1
10
396.907600
20
638.219400
11
396.410250
21
641.730037
0
LINE
8
Calque 1
10
396.410250
20
641.730037
11
396.323600
21
647.284800
0
LINE
8
Calque 1
10
396.323600
20
647.284800
11
396.453912
21
652.763150
0
LINE
8
Calque 1
10
396.453912
20
652.763150
11
396.777800
21
657.180100
0
LINE
8
Calque 1
10
396.777800
20
657.180100
11
397.091700
21
661.184600
0
LINE
8
Calque 1
10
397.091700
20
661.184600
11
394.256300
21
662.510700
0
LINE
8
Calque 1
10
394.256300
20
662.510700
11
389.682123
21
664.522847
0
LINE
8
Calque 1
10
389.682123
20
664.522847
11
385.530037
21
666.591150
0
LINE
8
Calque 1
10
385.530037
20
666.591150
11
381.537458
21
668.855278
0
LINE
8
Calque 1
10
381.537458
20
668.855278
11
377.441800
21
671.454900
0
LINE
8
Calque 1
10
377.441800
20
671.454900
11
368.701278
21
677.105028
0
LINE
8
Calque 1
10
368.701278
20
677.105028
11
359.884330
21
682.494512
0
LINE
8
Calque 1
10
359.884330
20
682.494512
11
351.038945
21
687.598116
0
LINE
8
Calque 1
10
351.038945
20
687.598116
11
342.213112
21
692.390600
0
LINE
8
Calque 1
10
342.213112
20
692.390600
11
333.454822
21
696.846728
0
LINE
8
Calque 1
10
333.454822
20
696.846728
11
324.812064
21
700.941262
0
LINE
8
Calque 1
10
324.812064
20
700.941262
11
316.332827
21
704.648966
0
LINE
8
Calque 1
10
316.332827
20
704.648966
11
308.065100
21
707.944600
0
LINE
8
Calque 1
10
308.065100
20
707.944600
11
301.428700
21
710.282550
0
LINE
8
Calque 1
10
301.428700
20
710.282550
11
297.800400
21
711.323900
0
LINE
8
Calque 1
10
297.800400
20
711.323900
11
298.767987
21
707.964525
0
LINE
8
Calque 1
10
298.767987
20
707.964525
11
301.153300
21
701.233000
0
LINE
8
Calque 1
10
301.153300
20
701.233000
11
303.636638
21
694.907982
0
LINE
8
Calque 1
10
303.636638
20
694.907982
11
306.444883
21
688.298419
0
LINE
8
Calque 1
10
306.444883
20
688.298419
11
309.544251
21
681.472621
0
LINE
8
Calque 1
10
309.544251
20
681.472621
11
312.900962
21
674.498900
0
LINE
8
Calque 1
10
312.900962
20
674.498900
11
316.481235
21
667.445566
0
LINE
8
Calque 1
10
316.481235
20
667.445566
11
320.251286
21
660.380931
0
LINE
8
Calque 1
10
320.251286
20
660.380931
11
324.177335
21
653.373305
0
LINE
8
Calque 1
10
324.177335
20
653.373305
11
328.225600
21
646.491000
0
LINE
8
Calque 1
10
328.225600
20
646.491000
11
331.247312
21
641.567350
0
LINE
8
Calque 1
10
331.247312
20
641.567350
11
336.634000
21
633.310100
0
LINE
8
Calque 1
10
336.634000
20
633.310100
11
339.804567
21
628.355594
0
LINE
8
Calque 1
10
339.804567
20
628.355594
11
342.178362
21
624.305550
0
LINE
8
Calque 1
10
342.178362
20
624.305550
11
344.129102
21
620.479306
0
LINE
8
Calque 1
10
344.129102
20
620.479306
11
346.030500
21
616.196200
0
LINE
8
Calque 1
10
346.030500
20
616.196200
11
347.867900
21
612.279400
0
LINE
8
Calque 1
10
347.867900
20
612.279400
11
348.189447
21
612.122412
0
LINE
8
Calque 1
10
348.189447
20
612.122412
11
348.869925
21
612.078075
0
LINE
8
Calque 1
10
348.869925
20
612.078075
11
352.033600
21
612.337400
0
LINE
8
Calque 1
10
352.033600
20
612.337400
11
359.774373
21
612.905591
0
LINE
8
Calque 1
10
359.774373
20
612.905591
11
363.148180
21
612.940129
0
LINE
8
Calque 1
10
363.148180
20
612.940129
11
366.258812
21
612.803225
0
LINE
8
Calque 1
10
366.258812
20
612.803225
11
369.157181
21
612.491074
0
LINE
8
Calque 1
10
369.157181
20
612.491074
11
371.894195
21
611.999872
0
LINE
8
Calque 1
10
371.894195
20
611.999872
11
374.520765
21
611.325815
0
LINE
8
Calque 1
10
374.520765
20
611.325815
11
377.087800
21
610.465100
0
LINE
8
Calque 1
10
377.087800
20
610.465100
11
380.079797
21
609.159745
0
LINE
8
Calque 1
10
380.079797
20
609.159745
11
382.907450
21
607.603637
0
LINE
8
Calque 1
10
382.907450
20
607.603637
11
385.190528
21
606.029661
0
LINE
8
Calque 1
10
385.190528
20
606.029661
11
386.548800
21
604.670700
0
LINE
8
Calque 1
10
386.548800
20
604.670700
11
386.859998
21
603.681545
0
LINE
8
Calque 1
10
386.859998
20
603.681545
11
386.779012
21
602.145237
0
LINE
8
Calque 1
10
386.779012
20
602.145237
11
386.284045
21
599.919361
0
LINE
8
Calque 1
10
386.284045
20
599.919361
11
385.353300
21
596.861500
0
LINE
8
Calque 1
10
385.353300
20
596.861500
11
384.000500
21
592.447300
0
LINE
8
Calque 1
10
384.000500
20
592.447300
11
384.214225
21
592.203200
0
LINE
8
Calque 1
10
384.214225
20
592.203200
11
384.728100
21
592.028100
0
LINE
8
Calque 1
10
384.728100
20
592.028100
11
386.212045
21
591.962948
0
LINE
8
Calque 1
10
386.212045
20
591.962948
11
388.471162
21
592.046887
0
LINE
8
Calque 1
10
388.471162
20
592.046887
11
392.731800
21
592.506900
0
LINE
8
Calque 1
10
392.731800
20
592.506900
11
392.731800
21
592.507100
0
LINE
8
Calque 1
10
396.081600
20
610.939000
11
391.716000
21
614.662600
0
LINE
8
Calque 1
10
391.716000
20
614.662600
11
388.393270
21
617.548895
0
LINE
8
Calque 1
10
388.393270
20
617.548895
11
385.732087
21
619.613538
0
LINE
8
Calque 1
10
385.732087
20
619.613538
11
382.778986
21
621.533186
0
LINE
8
Calque 1
10
382.778986
20
621.533186
11
378.580500
21
623.984500
0
LINE
8
Calque 1
10
378.580500
20
623.984500
11
371.243094
21
628.320763
0
LINE
8
Calque 1
10
371.243094
20
628.320763
11
368.613429
21
630.035059
0
LINE
8
Calque 1
10
368.613429
20
630.035059
11
366.514300
21
631.575300
0
LINE
8
Calque 1
10
366.514300
20
631.575300
11
364.824090
21
633.037859
0
LINE
8
Calque 1
10
364.824090
20
633.037859
11
363.421181
21
634.519113
0
LINE
8
Calque 1
10
363.421181
20
634.519113
11
362.183957
21
636.115434
0
LINE
8
Calque 1
10
362.183957
20
636.115434
11
360.990800
21
637.923200
0
LINE
8
Calque 1
10
360.990800
20
637.923200
11
359.021550
21
641.337313
0
LINE
8
Calque 1
10
359.021550
20
641.337313
11
356.936950
21
645.335975
0
LINE
8
Calque 1
10
356.936950
20
645.335975
11
355.132700
21
649.126625
0
LINE
8
Calque 1
10
355.132700
20
649.126625
11
354.004500
21
651.916700
0
LINE
8
Calque 1
10
354.004500
20
651.916700
11
353.471487
21
653.866963
0
LINE
8
Calque 1
10
353.471487
20
653.866963
11
353.442942
21
654.436517
0
LINE
8
Calque 1
10
353.442942
20
654.436517
11
353.548900
21
654.893300
0
LINE
8
Calque 1
10
353.548900
20
654.893300
11
353.850990
21
655.343345
0
LINE
8
Calque 1
10
353.850990
20
655.343345
11
354.357038
21
655.594328
0
LINE
8
Calque 1
10
354.357038
20
655.594328
11
355.091310
21
655.640360
0
LINE
8
Calque 1
10
355.091310
20
655.640360
11
356.078075
21
655.475550
0
LINE
8
Calque 1
10
356.078075
20
655.475550
11
358.906150
21
654.489847
0
LINE
8
Calque 1
10
358.906150
20
654.489847
11
363.035400
21
652.590100
0
LINE
8
Calque 1
10
363.035400
20
652.590100
11
367.980317
21
650.025978
0
LINE
8
Calque 1
10
367.980317
20
650.025978
11
371.938037
21
647.656275
0
LINE
8
Calque 1
10
371.938037
20
647.656275
11
374.944439
21
645.457459
0
LINE
8
Calque 1
10
374.944439
20
645.457459
11
377.035400
21
643.406000
0
LINE
8
Calque 1
10
377.035400
20
643.406000
11
378.431692
21
641.523455
0
LINE
8
Calque 1
10
378.431692
20
641.523455
11
380.280487
21
638.700138
0
LINE
8
Calque 1
10
380.280487
20
638.700138
11
385.335100
21
630.231900
0
LINE
8
Calque 1
10
385.335100
20
630.231900
11
387.704967
21
626.227556
0
LINE
8
Calque 1
10
387.704967
20
626.227556
11
389.707437
21
623.195625
0
LINE
8
Calque 1
10
389.707437
20
623.195625
11
391.841664
21
620.437481
0
LINE
8
Calque 1
10
391.841664
20
620.437481
11
394.606800
21
617.254500
0
LINE
8
Calque 1
10
394.606800
20
617.254500
11
396.985841
21
614.521361
0
LINE
8
Calque 1
10
396.985841
20
614.521361
11
398.229175
21
612.819538
0
LINE
8
Calque 1
10
398.229175
20
612.819538
11
398.489646
21
612.241765
0
LINE
8
Calque 1
10
398.489646
20
612.241765
11
398.543822
21
611.785495
0
LINE
8
Calque 1
10
398.543822
20
611.785495
11
398.417581
21
611.405288
0
LINE
8
Calque 1
10
398.417581
20
611.405288
11
398.136800
21
611.055700
0
LINE
8
Calque 1
10
398.136800
20
611.055700
11
397.713455
21
610.778266
0
LINE
8
Calque 1
10
397.713455
20
610.778266
11
397.194812
21
610.664350
0
LINE
8
Calque 1
10
397.194812
20
610.664350
11
396.633364
21
610.716934
0
LINE
8
Calque 1
10
396.633364
20
610.716934
11
396.081600
21
610.939000
0
LINE
8
Calque 1
10
396.081600
20
610.939000
11
396.081600
21
610.939000
0
LINE
8
Calque 1
10
313.224500
20
596.617000
11
312.745800
21
596.877600
0
LINE
8
Calque 1
10
312.745800
20
596.877600
11
312.626300
21
596.805125
0
LINE
8
Calque 1
10
312.626300
20
596.805125
11
312.827800
21
596.617000
0
LINE
8
Calque 1
10
312.827800
20
596.617000
11
313.292987
21
596.370700
0
LINE
8
Calque 1
10
313.292987
20
596.370700
11
313.224700
21
596.617000
0
LINE
8
Calque 1
10
313.224700
20
596.617000
11
313.224500
21
596.617000
0
LINE
8
Calque 1
10
307.103700
20
601.695100
11
307.417300
21
601.731787
0
LINE
8
Calque 1
10
307.417300
20
601.731787
11
307.775000
21
601.562900
0
LINE
8
Calque 1
10
307.775000
20
601.562900
11
308.056250
21
601.397137
0
LINE
8
Calque 1
10
308.056250
20
601.397137
11
307.988300
21
601.716400
0
LINE
8
Calque 1
10
307.988300
20
601.716400
11
307.938825
21
602.050050
0
LINE
8
Calque 1
10
307.938825
20
602.050050
11
308.335600
21
601.905500
0
LINE
8
Calque 1
10
308.335600
20
601.905500
11
308.858800
21
601.370200
0
LINE
8
Calque 1
10
308.858800
20
601.370200
11
308.972403
21
601.163772
0
LINE
8
Calque 1
10
308.972403
20
601.163772
11
309.249900
21
601.126900
0
LINE
8
Calque 1
10
309.249900
20
601.126900
11
309.596322
21
601.246928
0
LINE
8
Calque 1
10
309.596322
20
601.246928
11
309.916700
21
601.511200
0
LINE
8
Calque 1
10
309.916700
20
601.511200
11
310.300345
21
601.735711
0
LINE
8
Calque 1
10
310.300345
20
601.735711
11
310.840937
21
601.787187
0
LINE
8
Calque 1
10
310.840937
20
601.787187
11
311.403486
21
601.673270
0
LINE
8
Calque 1
10
311.403486
20
601.673270
11
311.853000
21
601.401600
0
LINE
8
Calque 1
10
311.853000
20
601.401600
11
312.172225
21
601.272075
0
LINE
8
Calque 1
10
312.172225
20
601.272075
11
312.603500
21
601.401300
0
LINE
8
Calque 1
10
312.603500
20
601.401300
11
313.092200
21
601.489300
0
LINE
8
Calque 1
10
313.092200
20
601.489300
11
313.465500
21
601.625100
0
LINE
8
Calque 1
10
313.465500
20
601.625100
11
313.798800
21
601.800825
0
LINE
8
Calque 1
10
313.798800
20
601.800825
11
314.027700
21
601.625100
0
LINE
8
Calque 1
10
314.027700
20
601.625100
11
314.225362
21
601.469762
0
LINE
8
Calque 1
10
314.225362
20
601.469762
11
314.444100
21
601.678100
0
LINE
8
Calque 1
10
314.444100
20
601.678100
11
314.621500
21
601.882525
0
LINE
8
Calque 1
10
314.621500
20
601.882525
11
314.675600
21
601.706100
0
LINE
8
Calque 1
10
314.675600
20
601.706100
11
314.775112
21
601.472537
0
LINE
8
Calque 1
10
314.775112
20
601.472537
11
315.011500
21
601.375400
0
LINE
8
Calque 1
10
315.011500
20
601.375400
11
318.756550
21
604.892262
0
LINE
8
Calque 1
10
318.756550
20
604.892262
11
327.294700
21
613.347800
0
LINE
8
Calque 1
10
327.294700
20
613.347800
11
339.246100
21
625.320200
0
LINE
8
Calque 1
10
339.246100
20
625.320200
11
336.842000
21
628.980700
0
LINE
8
Calque 1
10
336.842000
20
628.980700
11
334.438000
21
632.641300
0
LINE
8
Calque 1
10
334.438000
20
632.641300
11
319.916800
21
618.132800
0
LINE
8
Calque 1
10
319.916800
20
618.132800
11
309.499000
21
607.627200
0
LINE
8
Calque 1
10
309.499000
20
607.627200
11
304.843300
21
602.742700
0
LINE
8
Calque 1
10
304.843300
20
602.742700
11
304.441687
21
601.929987
0
LINE
8
Calque 1
10
304.441687
20
601.929987
11
304.501286
21
601.688308
0
LINE
8
Calque 1
10
304.501286
20
601.688308
11
304.722800
21
601.429200
0
LINE
8
Calque 1
10
304.722800
20
601.429200
11
305.088525
21
601.140675
0
LINE
8
Calque 1
10
305.088525
20
601.140675
11
305.154700
21
601.501200
0
LINE
8
Calque 1
10
305.154700
20
601.501200
11
305.210512
21
601.868725
0
LINE
8
Calque 1
10
305.210512
20
601.868725
11
305.571200
21
601.491200
0
LINE
8
Calque 1
10
305.571200
20
601.491200
11
305.816100
21
601.225600
0
LINE
8
Calque 1
10
305.816100
20
601.225600
11
305.820100
21
601.308300
0
LINE
8
Calque 1
10
305.820100
20
601.308300
11
305.813600
21
601.546700
0
LINE
8
Calque 1
10
305.813600
20
601.546700
11
306.065100
21
601.639000
0
LINE
8
Calque 1
10
306.065100
20
601.639000
11
306.362575
21
601.503012
0
LINE
8
Calque 1
10
306.362575
20
601.503012
11
306.498500
21
601.176000
0
LINE
8
Calque 1
10
306.498500
20
601.176000
11
306.545862
21
600.886125
0
LINE
8
Calque 1
10
306.545862
20
600.886125
11
306.670400
21
601.110000
0
LINE
8
Calque 1
10
306.670400
20
601.110000
11
307.103700
21
601.690200
0
LINE
8
Calque 1
10
307.103700
20
601.690200
11
307.103700
21
601.695100
0
LINE
8
Calque 1
10
310.578600
20
601.379500
11
310.611650
21
601.566400
0
LINE
8
Calque 1
10
310.611650
20
601.566400
11
310.462000
21
601.644100
0
LINE
8
Calque 1
10
310.462000
20
601.644100
11
310.264075
21
601.566400
0
LINE
8
Calque 1
10
310.264075
20
601.566400
11
310.181800
21
601.379500
0
LINE
8
Calque 1
10
310.181800
20
601.379500
11
310.298400
21
601.115000
0
LINE
8
Calque 1
10
310.298400
20
601.115000
11
310.578600
21
601.379500
0
LINE
8
Calque 1
10
310.578600
20
601.379500
11
310.578600
21
601.379500
0
LINE
8
Calque 1
10
500.218600
20
601.813200
11
500.545662
21
601.778387
0
LINE
8
Calque 1
10
500.545662
20
601.778387
11
500.681700
21
601.642700
0
LINE
8
Calque 1
10
500.681700
20
601.642700
11
500.856538
21
601.497088
0
LINE
8
Calque 1
10
500.856538
20
601.497088
11
501.277000
21
601.437800
0
LINE
8
Calque 1
10
501.277000
20
601.437800
11
502.643100
21
601.264500
0
LINE
8
Calque 1
10
502.643100
20
601.264500
11
503.215087
21
601.190912
0
LINE
8
Calque 1
10
503.215087
20
601.190912
11
503.096400
21
601.471400
0
LINE
8
Calque 1
10
503.096400
20
601.471400
11
502.961413
21
601.774137
0
LINE
8
Calque 1
10
502.961413
20
601.774137
11
503.424700
21
601.815200
0
LINE
8
Calque 1
10
503.424700
20
601.815200
11
503.848100
21
601.735037
0
LINE
8
Calque 1
10
503.848100
20
601.735037
11
503.959200
21
601.596300
0
LINE
8
Calque 1
10
503.959200
20
601.596300
11
504.116900
21
601.249900
0
LINE
8
Calque 1
10
504.116900
20
601.249900
11
504.306875
21
601.195525
0
LINE
8
Calque 1
10
504.306875
20
601.195525
11
504.386000
21
601.297900
0
LINE
8
Calque 1
10
504.386000
20
601.297900
11
504.613737
21
601.487138
0
LINE
8
Calque 1
10
504.613737
20
601.487138
11
505.146125
21
601.548050
0
LINE
8
Calque 1
10
505.146125
20
601.548050
11
505.757600
21
601.481388
0
LINE
8
Calque 1
10
505.757600
20
601.481388
11
506.222600
21
601.287900
0
LINE
8
Calque 1
10
506.222600
20
601.287900
11
506.482400
21
601.113725
0
LINE
8
Calque 1
10
506.482400
20
601.113725
11
506.416700
21
601.297900
0
LINE
8
Calque 1
10
506.416700
20
601.297900
11
506.363537
21
601.567400
0
LINE
8
Calque 1
10
506.363537
20
601.567400
11
506.498700
21
601.776600
0
LINE
8
Calque 1
10
506.498700
20
601.776600
11
506.688612
21
601.811463
0
LINE
8
Calque 1
10
506.688612
20
601.811463
11
506.767600
21
601.662500
0
LINE
8
Calque 1
10
506.767600
20
601.662500
11
506.884187
21
601.464612
0
LINE
8
Calque 1
10
506.884187
20
601.464612
11
507.164500
21
601.382300
0
LINE
8
Calque 1
10
507.164500
20
601.382300
11
507.454939
21
601.474080
0
LINE
8
Calque 1
10
507.454939
20
601.474080
11
507.539962
21
601.739963
0
LINE
8
Calque 1
10
507.539962
20
601.739963
11
507.096500
21
602.737300
0
LINE
8
Calque 1
10
507.096500
20
602.737300
11
491.342255
21
618.774570
0
LINE
8
Calque 1
10
491.342255
20
618.774570
11
457.509887
21
652.746263
0
LINE
8
Calque 1
10
457.509887
20
652.746263
11
423.685752
21
686.537523
0
LINE
8
Calque 1
10
423.685752
20
686.537523
11
407.956200
21
702.033500
0
LINE
8
Calque 1
10
407.956200
20
702.033500
11
407.090852
21
702.316055
0
LINE
8
Calque 1
10
407.090852
20
702.316055
11
406.098012
21
702.436637
0
LINE
8
Calque 1
10
406.098012
20
702.436637
11
405.093342
21
702.390927
0
LINE
8
Calque 1
10
405.093342
20
702.390927
11
404.192500
21
702.174600
0
LINE
8
Calque 1
10
404.192500
20
702.174600
11
399.586164
21
697.859967
0
LINE
8
Calque 1
10
399.586164
20
697.859967
11
390.131312
21
688.589738
0
LINE
8
Calque 1
10
390.131312
20
688.589738
11
380.807055
21
679.288064
0
LINE
8
Calque 1
10
380.807055
20
679.288064
11
376.592500
21
674.879100
0
LINE
8
Calque 1
10
376.592500
20
674.879100
11
379.548612
21
672.709875
0
LINE
8
Calque 1
10
379.548612
20
672.709875
11
383.441700
21
670.187400
0
LINE
8
Calque 1
10
383.441700
20
670.187400
11
383.681319
21
670.117947
0
LINE
8
Calque 1
10
383.681319
20
670.117947
11
384.024269
21
670.225778
0
LINE
8
Calque 1
10
384.024269
20
670.225778
11
385.503425
21
671.416025
0
LINE
8
Calque 1
10
385.503425
20
671.416025
11
395.017600
21
680.794000
0
LINE
8
Calque 1
10
395.017600
20
680.794000
11
405.961900
21
691.735900
0
LINE
8
Calque 1
10
405.961900
20
691.735900
11
433.676700
21
664.085600
0
LINE
8
Calque 1
10
433.676700
20
664.085600
11
483.137350
21
614.794787
0
LINE
8
Calque 1
10
483.137350
20
614.794787
11
496.352600
21
601.822500
0
LINE
8
Calque 1
10
496.352600
20
601.822500
11
497.547975
21
601.508975
0
LINE
8
Calque 1
10
497.547975
20
601.508975
11
498.033462
21
601.523531
0
LINE
8
Calque 1
10
498.033462
20
601.523531
11
498.150400
21
601.676200
0
LINE
8
Calque 1
10
498.150400
20
601.676200
11
498.239062
21
601.824188
0
LINE
8
Calque 1
10
498.239062
20
601.824188
11
498.653600
21
601.854500
0
LINE
8
Calque 1
10
498.653600
20
601.854500
11
499.114563
21
601.715725
0
LINE
8
Calque 1
10
499.114563
20
601.715725
11
499.175700
21
601.393200
0
LINE
8
Calque 1
10
499.175700
20
601.393200
11
499.131375
21
601.120250
0
LINE
8
Calque 1
10
499.131375
20
601.120250
11
499.403700
21
601.382200
0
LINE
8
Calque 1
10
499.403700
20
601.382200
11
499.788550
21
601.673250
0
LINE
8
Calque 1
10
499.788550
20
601.673250
11
500.219000
21
601.815800
0
LINE
8
Calque 1
10
500.219000
20
601.815800
11
500.218600
21
601.813200
 0 
ENDSEC
 0 
EOF