999
"DXF R12 Output" (www.mydxf.blogspot.com)
 0 
SECTION
 2 
HEADER
 9 
$ACADVER
 1 
AC1009
 9 
$EXTMIN
 10 
 0 
 20 
 0 
 9 
$EXTMAX
 10 
 8.5 
 20 
 11 
 0 
ENDSEC
 0 
SECTION
 2 
ENTITIES
0
LINE
8
Calque 1
10
335.709000
20
507.658000
11
256.467600
21
586.899700
0
LINE
8
Calque 1
10
256.467600
20
586.899700
11
262.907950
21
593.344100
0
LINE
8
Calque 1
10
262.907950
20
593.344100
11
269.348290
21
599.788500
0
LINE
8
Calque 1
10
269.348290
20
599.788500
11
267.864760
21
601.084100
0
LINE
8
Calque 1
10
267.864760
20
601.084100
11
266.535478
21
602.351317
0
LINE
8
Calque 1
10
266.535478
20
602.351317
11
265.339763
21
603.710065
0
LINE
8
Calque 1
10
265.339763
20
603.710065
11
264.278918
21
605.152572
0
LINE
8
Calque 1
10
264.278918
20
605.152572
11
263.354246
21
606.671069
0
LINE
8
Calque 1
10
263.354246
20
606.671069
11
262.567050
21
608.257785
0
LINE
8
Calque 1
10
262.567050
20
608.257785
11
261.918631
21
609.904951
0
LINE
8
Calque 1
10
261.918631
20
609.904951
11
261.043339
21
613.349550
0
LINE
8
Calque 1
10
261.043339
20
613.349550
11
260.738790
21
616.942705
0
LINE
8
Calque 1
10
260.738790
20
616.942705
11
261.015407
21
620.622256
0
LINE
8
Calque 1
10
261.015407
20
620.622256
11
261.883610
21
624.326041
0
LINE
8
Calque 1
10
261.883610
20
624.326041
11
263.353820
21
627.991900
0
LINE
8
Calque 1
10
263.353820
20
627.991900
11
264.315658
21
629.752509
0
LINE
8
Calque 1
10
264.315658
20
629.752509
11
265.278240
21
631.152275
0
LINE
8
Calque 1
10
265.278240
20
631.152275
11
266.150860
21
632.076353
0
LINE
8
Calque 1
10
266.150860
20
632.076353
11
266.842810
21
632.409900
0
LINE
8
Calque 1
10
266.842810
20
632.409900
11
267.283284
21
632.304098
0
LINE
8
Calque 1
10
267.283284
20
632.304098
11
267.692199
21
631.806263
0
LINE
8
Calque 1
10
267.692199
20
631.806263
11
269.028720
21
628.551900
0
LINE
8
Calque 1
10
269.028720
20
628.551900
11
269.836830
21
626.643453
0
LINE
8
Calque 1
10
269.836830
20
626.643453
11
270.764307
21
624.911556
0
LINE
8
Calque 1
10
270.764307
20
624.911556
11
271.814686
21
623.352488
0
LINE
8
Calque 1
10
271.814686
20
623.352488
11
272.991505
21
621.962525
0
LINE
8
Calque 1
10
272.991505
20
621.962525
11
274.298301
21
620.737947
0
LINE
8
Calque 1
10
274.298301
20
620.737947
11
275.738611
21
619.675031
0
LINE
8
Calque 1
10
275.738611
20
619.675031
11
277.315972
21
618.770056
0
LINE
8
Calque 1
10
277.315972
20
618.770056
11
279.033920
21
618.019300
0
LINE
8
Calque 1
10
279.033920
20
618.019300
11
282.683463
21
616.844688
0
LINE
8
Calque 1
10
282.683463
20
616.844688
11
285.300510
21
616.270300
0
LINE
8
Calque 1
10
285.300510
20
616.270300
11
286.493763
21
617.232083
0
LINE
8
Calque 1
10
286.493763
20
617.232083
11
289.531360
21
620.108363
0
LINE
8
Calque 1
10
289.531360
20
620.108363
11
301.083410
21
631.550000
0
LINE
8
Calque 1
10
301.083410
20
631.550000
11
313.822423
21
644.457613
0
LINE
8
Calque 1
10
313.822423
20
644.457613
11
316.138849
21
647.028439
0
LINE
8
Calque 1
10
316.138849
20
647.028439
11
316.994210
21
648.318500
0
LINE
8
Calque 1
10
316.994210
20
648.318500
11
318.352669
21
650.682650
0
LINE
8
Calque 1
10
318.352669
20
650.682650
11
320.687470
21
654.275900
0
LINE
8
Calque 1
10
320.687470
20
654.275900
11
323.002153
21
657.896888
0
LINE
8
Calque 1
10
323.002153
20
657.896888
11
324.312240
21
660.327700
0
LINE
8
Calque 1
10
324.312240
20
660.327700
11
324.795804
21
662.022425
0
LINE
8
Calque 1
10
324.795804
20
662.022425
11
325.033083
21
663.841125
0
LINE
8
Calque 1
10
325.033083
20
663.841125
11
325.020270
21
665.721063
0
LINE
8
Calque 1
10
325.020270
20
665.721063
11
324.753560
21
667.599500
0
LINE
8
Calque 1
10
324.753560
20
667.599500
11
324.376781
21
669.730437
0
LINE
8
Calque 1
10
324.376781
20
669.730437
11
324.520813
21
670.120864
0
LINE
8
Calque 1
10
324.520813
20
670.120864
11
324.910120
21
670.499600
0
LINE
8
Calque 1
10
324.910120
20
670.499600
11
325.667743
21
670.907453
0
LINE
8
Calque 1
10
325.667743
20
670.907453
11
326.663730
21
671.043375
0
LINE
8
Calque 1
10
326.663730
20
671.043375
11
327.733780
21
670.907384
0
LINE
8
Calque 1
10
327.733780
20
670.907384
11
328.713590
21
670.499500
0
LINE
8
Calque 1
10
328.713590
20
670.499500
11
329.841652
21
669.481225
0
LINE
8
Calque 1
10
329.841652
20
669.481225
11
330.821586
21
667.957150
0
LINE
8
Calque 1
10
330.821586
20
667.957150
11
331.603387
21
666.025375
0
LINE
8
Calque 1
10
331.603387
20
666.025375
11
332.137050
21
663.784000
0
LINE
8
Calque 1
10
332.137050
20
663.784000
11
332.309510
21
662.746600
0
LINE
8
Calque 1
10
332.309510
20
662.746600
11
361.128610
21
691.564800
0
LINE
8
Calque 1
10
361.128610
20
691.564800
11
389.947710
21
720.383000
0
LINE
8
Calque 1
10
389.947710
20
720.383000
11
389.948000
21
724.143000
0
LINE
8
Calque 1
10
389.948000
20
724.143000
11
389.852759
21
727.598438
0
LINE
8
Calque 1
10
389.852759
20
727.598438
11
389.623770
21
730.625700
0
LINE
8
Calque 1
10
389.623770
20
730.625700
11
389.293050
21
734.803300
0
LINE
8
Calque 1
10
389.293050
20
734.803300
11
389.392288
21
736.072225
0
LINE
8
Calque 1
10
389.392288
20
736.072225
11
389.620805
21
736.267741
0
LINE
8
Calque 1
10
389.620805
20
736.267741
11
390.055450
21
736.346200
0
LINE
8
Calque 1
10
390.055450
20
736.346200
11
390.976511
21
736.293552
0
LINE
8
Calque 1
10
390.976511
20
736.293552
11
391.881227
21
735.938930
0
LINE
8
Calque 1
10
391.881227
20
735.938930
11
392.753164
21
735.303439
0
LINE
8
Calque 1
10
392.753164
20
735.303439
11
393.575890
21
734.408188
0
LINE
8
Calque 1
10
393.575890
20
734.408188
11
394.332972
21
733.274281
0
LINE
8
Calque 1
10
394.332972
20
733.274281
11
395.007978
21
731.922827
0
LINE
8
Calque 1
10
395.007978
20
731.922827
11
395.584475
21
730.374931
0
LINE
8
Calque 1
10
395.584475
20
730.374931
11
396.046030
21
728.651700
0
LINE
8
Calque 1
10
396.046030
20
728.651700
11
396.537150
21
727.130400
0
LINE
8
Calque 1
10
396.537150
20
727.130400
11
405.888340
21
736.323800
0
LINE
8
Calque 1
10
405.888340
20
736.323800
11
415.084600
21
745.517200
0
LINE
8
Calque 1
10
415.084600
20
745.517200
11
469.584800
21
691.017500
0
LINE
8
Calque 1
10
469.584800
20
691.017500
11
524.085000
21
636.517800
0
LINE
8
Calque 1
10
524.085000
20
636.517800
11
527.858700
21
636.602800
0
LINE
8
Calque 1
10
527.858700
20
636.602800
11
533.014117
21
636.472646
0
LINE
8
Calque 1
10
533.014117
20
636.472646
11
538.017370
21
635.870570
0
LINE
8
Calque 1
10
538.017370
20
635.870570
11
542.780185
21
634.830600
0
LINE
8
Calque 1
10
542.780185
20
634.830600
11
547.214288
21
633.386763
0
LINE
8
Calque 1
10
547.214288
20
633.386763
11
551.231404
21
631.573086
0
LINE
8
Calque 1
10
551.231404
20
631.573086
11
554.743261
21
629.423598
0
LINE
8
Calque 1
10
554.743261
20
629.423598
11
556.282131
21
628.233559
0
LINE
8
Calque 1
10
556.282131
20
628.233559
11
557.661584
21
626.972327
0
LINE
8
Calque 1
10
557.661584
20
626.972327
11
558.870585
21
625.644156
0
LINE
8
Calque 1
10
558.870585
20
625.644156
11
559.898100
21
624.253300
0
LINE
8
Calque 1
10
559.898100
20
624.253300
11
561.232488
21
621.878241
0
LINE
8
Calque 1
10
561.232488
20
621.878241
11
561.470941
21
621.064139
0
LINE
8
Calque 1
10
561.470941
20
621.064139
11
561.418475
21
620.487200
0
LINE
8
Calque 1
10
561.418475
20
620.487200
11
561.071268
21
620.138579
0
LINE
8
Calque 1
10
561.071268
20
620.138579
11
560.425500
21
620.009434
0
LINE
8
Calque 1
10
560.425500
20
620.009434
11
559.477351
21
620.090922
0
LINE
8
Calque 1
10
559.477351
20
620.090922
11
558.223000
21
620.374200
0
LINE
8
Calque 1
10
558.223000
20
620.374200
11
555.482734
21
621.010039
0
LINE
8
Calque 1
10
555.482734
20
621.010039
11
552.515275
21
621.498738
0
LINE
8
Calque 1
10
552.515275
20
621.498738
11
549.350378
21
621.836292
0
LINE
8
Calque 1
10
549.350378
20
621.836292
11
546.017800
21
622.018700
0
LINE
8
Calque 1
10
546.017800
20
622.018700
11
540.088070
21
621.970700
0
LINE
8
Calque 1
10
540.088070
20
621.970700
11
538.822910
21
621.780900
0
LINE
8
Calque 1
10
538.822910
20
621.780900
11
556.261510
21
604.340800
0
LINE
8
Calque 1
10
556.261510
20
604.340800
11
573.700210
21
586.900600
0
LINE
8
Calque 1
10
573.700210
20
586.900600
11
494.458110
21
507.658200
0
LINE
8
Calque 1
10
494.458110
20
507.658200
11
415.083410
21
428.415800
0
LINE
8
Calque 1
10
415.083410
20
428.415800
11
335.709310
21
507.657600
0
LINE
8
Calque 1
10
335.709310
20
507.657600
11
335.709000
21
507.658000
0
LINE
8
Calque 1
10
417.199700
20
439.624500
11
419.539220
21
441.618713
0
LINE
8
Calque 1
10
419.539220
20
441.618713
11
420.631732
21
442.741270
0
LINE
8
Calque 1
10
420.631732
20
442.741270
11
420.944240
21
443.243400
0
LINE
8
Calque 1
10
420.944240
20
443.243400
11
421.507030
21
443.652900
0
LINE
8
Calque 1
10
421.507030
20
443.652900
11
421.979500
21
444.010513
0
LINE
8
Calque 1
10
421.979500
20
444.010513
11
422.082670
21
444.310300
0
LINE
8
Calque 1
10
422.082670
20
444.310300
11
422.035983
21
444.471575
0
LINE
8
Calque 1
10
422.035983
20
444.471575
11
422.148070
21
444.496200
0
LINE
8
Calque 1
10
422.148070
20
444.496200
11
423.674019
21
445.804975
0
LINE
8
Calque 1
10
423.674019
20
445.804975
11
427.026480
21
449.053700
0
LINE
8
Calque 1
10
427.026480
20
449.053700
11
432.311000
21
454.259800
0
LINE
8
Calque 1
10
432.311000
20
454.259800
11
433.930280
21
455.913400
0
LINE
8
Calque 1
10
433.930280
20
455.913400
11
435.195360
21
456.991200
0
LINE
8
Calque 1
10
435.195360
20
456.991200
11
435.439077
21
457.116213
0
LINE
8
Calque 1
10
435.439077
20
457.116213
11
435.635830
21
457.416800
0
LINE
8
Calque 1
10
435.635830
20
457.416800
11
436.797110
21
458.805800
0
LINE
8
Calque 1
10
436.797110
20
458.805800
11
439.072890
21
461.000600
0
LINE
8
Calque 1
10
439.072890
20
461.000600
11
441.508470
21
463.448000
0
LINE
8
Calque 1
10
441.508470
20
463.448000
11
442.897530
21
464.664100
0
LINE
8
Calque 1
10
442.897530
20
464.664100
11
443.067242
21
464.761237
0
LINE
8
Calque 1
10
443.067242
20
464.761237
11
443.150480
21
464.994800
0
LINE
8
Calque 1
10
443.150480
20
464.994800
11
443.693471
21
465.694712
0
LINE
8
Calque 1
10
443.693471
20
465.694712
11
444.968560
21
466.913100
0
LINE
8
Calque 1
10
444.968560
20
466.913100
11
446.196391
21
468.104525
0
LINE
8
Calque 1
10
446.196391
20
468.104525
11
446.625810
21
468.739900
0
LINE
8
Calque 1
10
446.625810
20
468.739900
11
446.622386
21
468.850150
0
LINE
8
Calque 1
10
446.622386
20
468.850150
11
446.809920
21
468.778900
0
LINE
8
Calque 1
10
446.809920
20
468.778900
11
447.086446
21
468.775362
0
LINE
8
Calque 1
10
447.086446
20
468.775362
11
447.277750
21
469.131900
0
LINE
8
Calque 1
10
447.277750
20
469.131900
11
447.437019
21
469.487025
0
LINE
8
Calque 1
10
447.437019
20
469.487025
11
447.616950
21
469.564500
0
LINE
8
Calque 1
10
447.616950
20
469.564500
11
447.921054
21
469.671250
0
LINE
8
Calque 1
10
447.921054
20
469.671250
11
448.378870
21
470.096600
0
LINE
8
Calque 1
10
448.378870
20
470.096600
11
448.779930
21
470.749000
0
LINE
8
Calque 1
10
448.779930
20
470.749000
11
449.377000
21
471.334200
0
LINE
8
Calque 1
10
449.377000
20
471.334200
11
452.393430
21
474.178500
0
LINE
8
Calque 1
10
452.393430
20
474.178500
11
455.700720
21
477.397000
0
LINE
8
Calque 1
10
455.700720
20
477.397000
11
459.241530
21
480.902700
0
LINE
8
Calque 1
10
459.241530
20
480.902700
11
461.076882
21
482.701037
0
LINE
8
Calque 1
10
461.076882
20
482.701037
11
461.997610
21
483.449000
0
LINE
8
Calque 1
10
461.997610
20
483.449000
11
462.142471
21
483.494575
0
LINE
8
Calque 1
10
462.142471
20
483.494575
11
462.112440
21
483.603600
0
LINE
8
Calque 1
10
462.112440
20
483.603600
11
462.443767
21
484.104112
0
LINE
8
Calque 1
10
462.443767
20
484.104112
11
463.457400
21
485.090400
0
LINE
8
Calque 1
10
463.457400
20
485.090400
11
466.171100
21
487.712500
0
LINE
8
Calque 1
10
466.171100
20
487.712500
11
467.079981
21
488.572050
0
LINE
8
Calque 1
10
467.079981
20
488.572050
11
467.560170
21
488.827400
0
LINE
8
Calque 1
10
467.560170
20
488.827400
11
467.683695
21
488.833662
0
LINE
8
Calque 1
10
467.683695
20
488.833662
11
467.735070
21
489.093500
0
LINE
8
Calque 1
10
467.735070
20
489.093500
11
467.856239
21
489.404887
0
LINE
8
Calque 1
10
467.856239
20
489.404887
11
468.147560
21
489.534400
0
LINE
8
Calque 1
10
468.147560
20
489.534400
11
468.396292
21
489.603325
0
LINE
8
Calque 1
10
468.396292
20
489.603325
11
468.415060
21
489.769000
0
LINE
8
Calque 1
10
468.415060
20
489.769000
11
468.428406
21
490.030787
0
LINE
8
Calque 1
10
468.428406
20
490.030787
11
468.664030
21
490.330600
0
LINE
8
Calque 1
10
468.664030
20
490.330600
11
469.057990
21
490.483700
0
LINE
8
Calque 1
10
469.057990
20
490.483700
11
469.917420
21
491.311200
0
LINE
8
Calque 1
10
469.917420
20
491.311200
11
471.041900
21
492.487600
0
LINE
8
Calque 1
10
471.041900
20
492.487600
11
474.561020
21
495.863500
0
LINE
8
Calque 1
10
474.561020
20
495.863500
11
478.461360
21
499.487600
0
LINE
8
Calque 1
10
478.461360
20
499.487600
11
478.874997
21
499.855887
0
LINE
8
Calque 1
10
478.874997
20
499.855887
11
478.961980
21
500.146700
0
LINE
8
Calque 1
10
478.961980
20
500.146700
11
478.929980
21
500.313100
0
LINE
8
Calque 1
10
478.929980
20
500.313100
11
479.057580
21
500.382300
0
LINE
8
Calque 1
10
479.057580
20
500.382300
11
481.772540
21
502.763600
0
LINE
8
Calque 1
10
481.772540
20
502.763600
11
484.457300
21
505.144800
0
LINE
8
Calque 1
10
484.457300
20
505.144800
11
484.606374
21
505.261387
0
LINE
8
Calque 1
10
484.606374
20
505.261387
11
484.668380
21
505.541700
0
LINE
8
Calque 1
10
484.668380
20
505.541700
11
484.742530
21
505.822012
0
LINE
8
Calque 1
10
484.742530
20
505.822012
11
484.920810
21
505.938600
0
LINE
8
Calque 1
10
484.920810
20
505.938600
11
486.927230
21
507.658400
0
LINE
8
Calque 1
10
486.927230
20
507.658400
11
488.784620
21
509.378200
0
LINE
8
Calque 1
10
488.784620
20
509.378200
11
491.379980
21
511.825600
0
LINE
8
Calque 1
10
491.379980
20
511.825600
11
495.788660
21
515.992800
0
LINE
8
Calque 1
10
495.788660
20
515.992800
11
502.492940
21
522.206800
0
LINE
8
Calque 1
10
502.492940
20
522.206800
11
503.529556
21
523.113613
0
LINE
8
Calque 1
10
503.529556
20
523.113613
11
504.115250
21
523.441500
0
LINE
8
Calque 1
10
504.115250
20
523.441500
11
504.247717
21
523.436462
0
LINE
8
Calque 1
10
504.247717
20
523.436462
11
504.194650
21
523.542200
0
LINE
8
Calque 1
10
504.194650
20
523.542200
11
504.454485
21
524.039991
0
LINE
8
Calque 1
10
504.454485
20
524.039991
11
505.248750
21
524.929975
0
LINE
8
Calque 1
10
505.248750
20
524.929975
11
506.141032
21
525.765622
0
LINE
8
Calque 1
10
506.141032
20
525.765622
11
506.694920
21
526.100400
0
LINE
8
Calque 1
10
506.694920
20
526.100400
11
506.835067
21
526.183975
0
LINE
8
Calque 1
10
506.835067
20
526.183975
11
506.893360
21
526.459400
0
LINE
8
Calque 1
10
506.893360
20
526.459400
11
506.960107
21
526.709488
0
LINE
8
Calque 1
10
506.960107
20
526.709488
11
507.120590
21
526.731500
0
LINE
8
Calque 1
10
507.120590
20
526.731500
11
507.952680
21
527.280250
0
LINE
8
Calque 1
10
507.952680
20
527.280250
11
509.634130
21
528.796500
0
LINE
8
Calque 1
10
509.634130
20
528.796500
11
511.920440
21
530.866400
0
LINE
8
Calque 1
10
511.920440
20
530.866400
11
512.697710
21
531.497800
0
LINE
8
Calque 1
10
512.697710
20
531.497800
11
514.706130
21
533.323000
0
LINE
8
Calque 1
10
514.706130
20
533.323000
11
517.299750
21
535.638100
0
LINE
8
Calque 1
10
517.299750
20
535.638100
11
518.362334
21
536.525650
0
LINE
8
Calque 1
10
518.362334
20
536.525650
11
519.003800
21
536.894800
0
LINE
8
Calque 1
10
519.003800
20
536.894800
11
519.289606
21
537.010975
0
LINE
8
Calque 1
10
519.289606
20
537.010975
11
519.497090
21
537.290200
0
LINE
8
Calque 1
10
519.497090
20
537.290200
11
519.673799
21
537.526450
0
LINE
8
Calque 1
10
519.673799
20
537.526450
11
519.885660
21
537.539200
0
LINE
8
Calque 1
10
519.885660
20
537.539200
11
520.052945
21
537.554738
0
LINE
8
Calque 1
10
520.052945
20
537.554738
11
520.122520
21
537.798500
0
LINE
8
Calque 1
10
520.122520
20
537.798500
11
520.355685
21
538.205575
0
LINE
8
Calque 1
10
520.355685
20
538.205575
11
520.916270
21
538.614600
0
LINE
8
Calque 1
10
520.916270
20
538.614600
11
521.476859
21
538.975225
0
LINE
8
Calque 1
10
521.476859
20
538.975225
11
521.710020
21
539.265800
0
LINE
8
Calque 1
10
521.710020
20
539.265800
11
521.980094
21
539.533375
0
LINE
8
Calque 1
10
521.980094
20
539.533375
11
522.629420
21
539.838900
0
LINE
8
Calque 1
10
522.629420
20
539.838900
11
523.432490
21
540.287700
0
LINE
8
Calque 1
10
523.432490
20
540.287700
11
523.398122
21
540.559964
0
LINE
8
Calque 1
10
523.398122
20
540.559964
11
523.593906
21
540.903713
0
LINE
8
Calque 1
10
523.593906
20
540.903713
11
523.902140
21
541.175255
0
LINE
8
Calque 1
10
523.902140
20
541.175255
11
524.205120
21
541.230900
0
LINE
8
Calque 1
10
524.205120
20
541.230900
11
524.640410
21
541.357350
0
LINE
8
Calque 1
10
524.640410
20
541.357350
11
525.176890
21
541.902300
0
LINE
8
Calque 1
10
525.176890
20
541.902300
11
525.708179
21
542.476738
0
LINE
8
Calque 1
10
525.708179
20
542.476738
11
526.141030
21
542.715700
0
LINE
8
Calque 1
10
526.141030
20
542.715700
11
526.354623
21
542.784575
0
LINE
8
Calque 1
10
526.354623
20
542.784575
11
526.358830
21
542.950200
0
LINE
8
Calque 1
10
526.358830
20
542.950200
11
526.418860
21
543.158275
0
LINE
8
Calque 1
10
526.418860
20
543.158275
11
526.766710
21
543.329300
0
LINE
8
Calque 1
10
526.766710
20
543.329300
11
527.122671
21
543.520600
0
LINE
8
Calque 1
10
527.122671
20
543.520600
11
527.119720
21
543.797100
0
LINE
8
Calque 1
10
527.119720
20
543.797100
11
527.050338
21
543.982525
0
LINE
8
Calque 1
10
527.050338
20
543.982525
11
527.175220
21
543.962600
0
LINE
8
Calque 1
10
527.175220
20
543.962600
11
533.679758
21
550.175650
0
LINE
8
Calque 1
10
533.679758
20
550.175650
11
548.959820
21
565.335300
0
LINE
8
Calque 1
10
548.959820
20
565.335300
11
570.489020
21
586.865700
0
LINE
8
Calque 1
10
570.489020
20
586.865700
11
565.960320
21
591.579800
0
LINE
8
Calque 1
10
565.960320
20
591.579800
11
548.877320
21
608.830000
0
LINE
8
Calque 1
10
548.877320
20
608.830000
11
536.323020
21
621.366200
0
LINE
8
Calque 1
10
536.323020
20
621.366200
11
535.072500
21
621.178600
0
LINE
8
Calque 1
10
535.072500
20
621.178600
11
533.409236
21
620.818020
0
LINE
8
Calque 1
10
533.409236
20
620.818020
11
531.471626
21
620.214713
0
LINE
8
Calque 1
10
531.471626
20
620.214713
11
527.398500
21
618.498200
0
LINE
8
Calque 1
10
527.398500
20
618.498200
11
524.418230
21
616.836950
0
LINE
8
Calque 1
10
524.418230
20
616.836950
11
523.945358
21
616.344978
0
LINE
8
Calque 1
10
523.945358
20
616.344978
11
523.996720
21
615.964100
0
LINE
8
Calque 1
10
523.996720
20
615.964100
11
524.608736
21
614.447867
0
LINE
8
Calque 1
10
524.608736
20
614.447867
11
525.148116
21
611.842138
0
LINE
8
Calque 1
10
525.148116
20
611.842138
11
525.532293
21
608.663989
0
LINE
8
Calque 1
10
525.532293
20
608.663989
11
525.678700
21
605.430500
0
LINE
8
Calque 1
10
525.678700
20
605.430500
11
525.679000
21
602.911000
0
LINE
8
Calque 1
10
525.679000
20
602.911000
11
533.681670
21
594.905100
0
LINE
8
Calque 1
10
533.681670
20
594.905100
11
541.684310
21
586.899200
0
LINE
8
Calque 1
10
541.684310
20
586.899200
11
503.916010
21
549.130200
0
LINE
8
Calque 1
10
503.916010
20
549.130200
11
466.147710
21
511.188300
0
LINE
8
Calque 1
10
466.147710
20
511.188300
11
466.769672
21
510.691712
0
LINE
8
Calque 1
10
466.769672
20
510.691712
11
468.270844
21
509.777150
0
LINE
8
Calque 1
10
468.270844
20
509.777150
11
471.722520
21
507.961000
0
LINE
8
Calque 1
10
471.722520
20
507.961000
11
474.712745
21
506.868062
0
LINE
8
Calque 1
10
474.712745
20
506.868062
11
477.741310
21
506.212000
0
LINE
8
Calque 1
10
477.741310
20
506.212000
11
479.347024
21
505.837200
0
LINE
8
Calque 1
10
479.347024
20
505.837200
11
479.830075
21
505.577451
0
LINE
8
Calque 1
10
479.830075
20
505.577451
11
480.104295
21
505.260575
0
LINE
8
Calque 1
10
480.104295
20
505.260575
11
480.172962
21
504.879902
0
LINE
8
Calque 1
10
480.172962
20
504.879902
11
480.039356
21
504.428762
0
LINE
8
Calque 1
10
480.039356
20
504.428762
11
479.178440
21
503.288400
0
LINE
8
Calque 1
10
479.178440
20
503.288400
11
478.051390
21
502.285409
0
LINE
8
Calque 1
10
478.051390
20
502.285409
11
476.648287
21
501.354981
0
LINE
8
Calque 1
10
476.648287
20
501.354981
11
474.964703
21
500.495531
0
LINE
8
Calque 1
10
474.964703
20
500.495531
11
472.996213
21
499.705475
0
LINE
8
Calque 1
10
472.996213
20
499.705475
11
468.186802
21
498.327206
0
LINE
8
Calque 1
10
468.186802
20
498.327206
11
462.184640
21
497.207500
0
LINE
8
Calque 1
10
462.184640
20
497.207500
11
459.570056
21
496.720289
0
LINE
8
Calque 1
10
459.570056
20
496.720289
11
457.491898
21
496.107162
0
LINE
8
Calque 1
10
457.491898
20
496.107162
11
455.821713
21
495.320130
0
LINE
8
Calque 1
10
455.821713
20
495.320130
11
454.431050
21
494.311200
0
LINE
8
Calque 1
10
454.431050
20
494.311200
11
453.586750
21
493.382364
0
LINE
8
Calque 1
10
453.586750
20
493.382364
11
453.167023
21
492.351837
0
LINE
8
Calque 1
10
453.167023
20
492.351837
11
453.137449
21
491.040192
0
LINE
8
Calque 1
10
453.137449
20
491.040192
11
453.463610
21
489.268000
0
LINE
8
Calque 1
10
453.463610
20
489.268000
11
453.856633
21
487.471769
0
LINE
8
Calque 1
10
453.856633
20
487.471769
11
454.035934
21
486.086764
0
LINE
8
Calque 1
10
454.035934
20
486.086764
11
453.948872
21
485.060055
0
LINE
8
Calque 1
10
453.948872
20
485.060055
11
453.542807
21
484.338712
0
LINE
8
Calque 1
10
453.542807
20
484.338712
11
452.765098
21
483.869806
0
LINE
8
Calque 1
10
452.765098
20
483.869806
11
451.563103
21
483.600405
0
LINE
8
Calque 1
10
451.563103
20
483.600405
11
447.675690
21
483.448400
0
LINE
8
Calque 1
10
447.675690
20
483.448400
11
443.439000
21
483.449000
0
LINE
8
Calque 1
10
443.439000
20
483.449000
11
429.641700
21
470.022800
0
LINE
8
Calque 1
10
429.641700
20
470.022800
11
415.449600
21
456.375700
0
LINE
8
Calque 1
10
415.449600
20
456.375700
11
415.005053
21
456.320237
0
LINE
8
Calque 1
10
415.005053
20
456.320237
11
414.473670
21
456.554200
0
LINE
8
Calque 1
10
414.473670
20
456.554200
11
400.309470
21
470.201400
0
LINE
8
Calque 1
10
400.309470
20
470.201400
11
386.726370
21
483.449000
0
LINE
8
Calque 1
10
386.726370
20
483.449000
11
382.490000
21
483.449000
0
LINE
8
Calque 1
10
382.490000
20
483.449000
11
378.602920
21
483.601019
0
LINE
8
Calque 1
10
378.602920
20
483.601019
11
377.401021
21
483.870432
0
LINE
8
Calque 1
10
377.401021
20
483.870432
11
376.623371
21
484.339350
0
LINE
8
Calque 1
10
376.623371
20
484.339350
11
376.217337
21
485.060699
0
LINE
8
Calque 1
10
376.217337
20
485.060699
11
376.130286
21
486.087406
0
LINE
8
Calque 1
10
376.130286
20
486.087406
11
376.309585
21
487.472398
0
LINE
8
Calque 1
10
376.309585
20
487.472398
11
376.702600
21
489.268600
0
LINE
8
Calque 1
10
376.702600
20
489.268600
11
377.028761
21
491.040792
0
LINE
8
Calque 1
10
377.028761
20
491.040792
11
376.999188
21
492.352438
0
LINE
8
Calque 1
10
376.999188
20
492.352438
11
376.579460
21
493.382964
0
LINE
8
Calque 1
10
376.579460
20
493.382964
11
375.735160
21
494.311800
0
LINE
8
Calque 1
10
375.735160
20
494.311800
11
374.344497
21
495.320730
0
LINE
8
Calque 1
10
374.344497
20
495.320730
11
372.674312
21
496.107763
0
LINE
8
Calque 1
10
372.674312
20
496.107763
11
370.596154
21
496.720889
0
LINE
8
Calque 1
10
370.596154
20
496.720889
11
367.981570
21
497.208100
0
LINE
8
Calque 1
10
367.981570
20
497.208100
11
361.979408
21
498.327806
0
LINE
8
Calque 1
10
361.979408
20
498.327806
11
357.169990
21
499.706075
0
LINE
8
Calque 1
10
357.169990
20
499.706075
11
355.201496
21
500.496131
0
LINE
8
Calque 1
10
355.201496
20
500.496131
11
353.517912
21
501.355581
0
LINE
8
Calque 1
10
353.517912
20
501.355581
11
352.114812
21
502.286009
0
LINE
8
Calque 1
10
352.114812
20
502.286009
11
350.987770
21
503.289000
0
LINE
8
Calque 1
10
350.987770
20
503.289000
11
350.091997
21
504.466709
0
LINE
8
Calque 1
10
350.091997
20
504.466709
11
349.969077
21
504.918257
0
LINE
8
Calque 1
10
349.969077
20
504.918257
11
350.071615
21
505.291975
0
LINE
8
Calque 1
10
350.071615
20
505.291975
11
350.406224
21
505.598146
0
LINE
8
Calque 1
10
350.406224
20
505.598146
11
350.979515
21
505.847053
0
LINE
8
Calque 1
10
350.979515
20
505.847053
11
352.868590
21
506.214200
0
LINE
8
Calque 1
10
352.868590
20
506.214200
11
355.654476
21
506.735305
0
LINE
8
Calque 1
10
355.654476
20
506.735305
11
358.321426
21
507.574288
0
LINE
8
Calque 1
10
358.321426
20
507.574288
11
360.806608
21
508.707102
0
LINE
8
Calque 1
10
360.806608
20
508.707102
11
363.047190
21
510.109700
0
LINE
8
Calque 1
10
363.047190
20
510.109700
11
364.082570
21
510.978725
0
LINE
8
Calque 1
10
364.082570
20
510.978725
11
364.087908
21
511.229863
0
LINE
8
Calque 1
10
364.087908
20
511.229863
11
363.840940
21
511.517000
0
LINE
8
Calque 1
10
363.840940
20
511.517000
11
363.506829
21
511.767952
0
LINE
8
Calque 1
10
363.506829
20
511.767952
11
363.024015
21
511.870338
0
LINE
8
Calque 1
10
363.024015
20
511.870338
11
360.711170
21
511.674900
0
LINE
8
Calque 1
10
360.711170
20
511.674900
11
358.587698
21
511.496472
0
LINE
8
Calque 1
10
358.587698
20
511.496472
11
356.850468
21
511.539650
0
LINE
8
Calque 1
10
356.850468
20
511.539650
11
355.347406
21
511.819603
0
LINE
8
Calque 1
10
355.347406
20
511.819603
11
353.926440
21
512.351500
0
LINE
8
Calque 1
10
353.926440
20
512.351500
11
352.140507
21
513.444721
0
LINE
8
Calque 1
10
352.140507
20
513.444721
11
350.445923
21
514.986383
0
LINE
8
Calque 1
10
350.445923
20
514.986383
11
348.887561
21
516.894994
0
LINE
8
Calque 1
10
348.887561
20
516.894994
11
347.510292
21
519.089062
0
LINE
8
Calque 1
10
347.510292
20
519.089062
11
346.358991
21
521.487099
0
LINE
8
Calque 1
10
346.358991
20
521.487099
11
345.478528
21
524.007611
0
LINE
8
Calque 1
10
345.478528
20
524.007611
11
344.913777
21
526.569108
0
LINE
8
Calque 1
10
344.913777
20
526.569108
11
344.709610
21
529.090100
0
LINE
8
Calque 1
10
344.709610
20
529.090100
11
344.703610
21
530.678200
0
LINE
8
Calque 1
10
344.703610
20
530.678200
11
318.837410
21
556.543300
0
LINE
8
Calque 1
10
318.837410
20
556.543300
11
292.971210
21
582.408500
0
LINE
8
Calque 1
10
292.971210
20
582.408500
11
291.386870
21
582.111300
0
LINE
8
Calque 1
10
291.386870
20
582.111300
11
289.169002
21
581.936394
0
LINE
8
Calque 1
10
289.169002
20
581.936394
11
286.131732
21
581.962975
0
LINE
8
Calque 1
10
286.131732
20
581.962975
11
283.125382
21
582.159619
0
LINE
8
Calque 1
10
283.125382
20
582.159619
11
281.000270
21
582.494900
0
LINE
8
Calque 1
10
281.000270
20
582.494900
11
279.160611
21
583.117293
0
LINE
8
Calque 1
10
279.160611
20
583.117293
11
277.507344
21
583.896691
0
LINE
8
Calque 1
10
277.507344
20
583.896691
11
276.041126
21
584.832450
0
LINE
8
Calque 1
10
276.041126
20
584.832450
11
274.762613
21
585.923925
0
LINE
8
Calque 1
10
274.762613
20
585.923925
11
273.672458
21
587.170472
0
LINE
8
Calque 1
10
273.672458
20
587.170472
11
272.771320
21
588.571447
0
LINE
8
Calque 1
10
272.771320
20
588.571447
11
272.059852
21
590.126204
0
LINE
8
Calque 1
10
272.059852
20
590.126204
11
271.538710
21
591.834100
0
LINE
8
Calque 1
10
271.538710
20
591.834100
11
270.986830
21
595.845400
0
LINE
8
Calque 1
10
270.986830
20
595.845400
11
270.804660
21
598.307300
0
LINE
8
Calque 1
10
270.804660
20
598.307300
11
269.763500
21
597.300600
0
LINE
8
Calque 1
10
269.763500
20
597.300600
11
264.199460
21
591.579800
0
LINE
8
Calque 1
10
264.199460
20
591.579800
11
259.676590
21
586.865700
0
LINE
8
Calque 1
10
259.676590
20
586.865700
11
281.602790
21
564.938400
0
LINE
8
Calque 1
10
281.602790
20
564.938400
11
303.677190
21
543.078900
0
LINE
8
Calque 1
10
303.677190
20
543.078900
11
304.411330
21
542.534300
0
LINE
8
Calque 1
10
304.411330
20
542.534300
11
304.823780
21
541.921900
0
LINE
8
Calque 1
10
304.823780
20
541.921900
11
304.743635
21
541.888468
0
LINE
8
Calque 1
10
304.743635
20
541.888468
11
304.795529
21
541.800266
0
LINE
8
Calque 1
10
304.795529
20
541.800266
11
305.172326
21
541.532100
0
LINE
8
Calque 1
10
305.172326
20
541.532100
11
306.156190
21
541.136600
0
LINE
8
Calque 1
10
306.156190
20
541.136600
11
306.446191
21
541.054662
0
LINE
8
Calque 1
10
306.446191
20
541.054662
11
306.471300
21
540.863600
0
LINE
8
Calque 1
10
306.471300
20
540.863600
11
306.476996
21
540.676738
0
LINE
8
Calque 1
10
306.476996
20
540.676738
11
306.720270
21
540.599000
0
LINE
8
Calque 1
10
306.720270
20
540.599000
11
307.023858
21
540.434400
0
LINE
8
Calque 1
10
307.023858
20
540.434400
11
307.151360
21
540.003700
0
LINE
8
Calque 1
10
307.151360
20
540.003700
11
307.199658
21
539.568287
0
LINE
8
Calque 1
10
307.199658
20
539.568287
11
307.397340
21
539.937700
0
LINE
8
Calque 1
10
307.397340
20
539.937700
11
307.615268
21
540.230738
0
LINE
8
Calque 1
10
307.615268
20
540.230738
11
307.761150
21
539.562800
0
LINE
8
Calque 1
10
307.761150
20
539.562800
11
308.035080
21
539.099800
0
LINE
8
Calque 1
10
308.035080
20
539.099800
11
308.154279
21
539.034800
0
LINE
8
Calque 1
10
308.154279
20
539.034800
11
308.085580
21
539.210100
0
LINE
8
Calque 1
10
308.085580
20
539.210100
11
308.019223
21
539.533405
0
LINE
8
Calque 1
10
308.019223
20
539.533405
11
308.460699
21
539.313738
0
LINE
8
Calque 1
10
308.460699
20
539.313738
11
310.423830
21
537.556400
0
LINE
8
Calque 1
10
310.423830
20
537.556400
11
311.105898
21
536.925538
0
LINE
8
Calque 1
10
311.105898
20
536.925538
11
311.266143
21
536.824348
0
LINE
8
Calque 1
10
311.266143
20
536.824348
11
311.268890
21
536.894900
0
LINE
8
Calque 1
10
311.268890
20
536.894900
11
311.290618
21
536.961675
0
LINE
8
Calque 1
10
311.290618
20
536.961675
11
311.633090
21
536.564200
0
LINE
8
Calque 1
10
311.633090
20
536.564200
11
312.470230
21
535.836600
0
LINE
8
Calque 1
10
312.470230
20
535.836600
11
313.363679
21
535.257525
0
LINE
8
Calque 1
10
313.363679
20
535.257525
11
315.819190
21
532.992300
0
LINE
8
Calque 1
10
315.819190
20
532.992300
11
317.513840
21
531.603300
0
LINE
8
Calque 1
10
317.513840
20
531.603300
11
317.629496
21
531.523650
0
LINE
8
Calque 1
10
317.629496
20
531.523650
11
317.579740
21
531.332100
0
LINE
8
Calque 1
10
317.579740
20
531.332100
11
317.530690
21
531.161988
0
LINE
8
Calque 1
10
317.530690
20
531.161988
11
317.648140
21
531.133700
0
LINE
8
Calque 1
10
317.648140
20
531.133700
11
318.833825
21
530.370463
0
LINE
8
Calque 1
10
318.833825
20
530.370463
11
319.836720
21
529.358900
0
LINE
8
Calque 1
10
319.836720
20
529.358900
11
320.031150
21
529.185800
0
LINE
8
Calque 1
10
320.031150
20
529.185800
11
321.221480
21
528.127400
0
LINE
8
Calque 1
10
321.221480
20
528.127400
11
322.454730
21
527.105400
0
LINE
8
Calque 1
10
322.454730
20
527.105400
11
323.363980
21
526.311600
0
LINE
8
Calque 1
10
323.363980
20
526.311600
11
324.174910
21
525.517900
0
LINE
8
Calque 1
10
324.174910
20
525.517900
11
326.248660
21
523.599600
0
LINE
8
Calque 1
10
326.248660
20
523.599600
11
332.559630
21
517.712700
0
LINE
8
Calque 1
10
332.559630
20
517.712700
11
333.991980
21
516.253800
0
LINE
8
Calque 1
10
333.991980
20
516.253800
11
335.310830
21
514.975100
0
LINE
8
Calque 1
10
335.310830
20
514.975100
11
338.434090
21
512.134500
0
LINE
8
Calque 1
10
338.434090
20
512.134500
11
340.850350
21
509.907400
0
LINE
8
Calque 1
10
340.850350
20
509.907400
11
342.008090
21
508.831425
0
LINE
8
Calque 1
10
342.008090
20
508.831425
11
342.902040
21
507.665000
0
LINE
8
Calque 1
10
342.902040
20
507.665000
11
342.933590
21
507.567100
0
LINE
8
Calque 1
10
342.933590
20
507.567100
11
343.204240
21
507.526200
0
LINE
8
Calque 1
10
343.204240
20
507.526200
11
343.515674
21
507.450950
0
LINE
8
Calque 1
10
343.515674
20
507.450950
11
343.645210
21
507.270100
0
LINE
8
Calque 1
10
343.645210
20
507.270100
11
343.836918
21
506.988750
0
LINE
8
Calque 1
10
343.836918
20
506.988750
11
344.297830
21
506.672000
0
LINE
8
Calque 1
10
344.297830
20
506.672000
11
344.955641
21
506.163600
0
LINE
8
Calque 1
10
344.955641
20
506.163600
11
345.620750
21
505.421500
0
LINE
8
Calque 1
10
345.620750
20
505.421500
11
346.094143
21
504.848350
0
LINE
8
Calque 1
10
346.094143
20
504.848350
11
346.291040
21
504.746200
0
LINE
8
Calque 1
10
346.291040
20
504.746200
11
346.524205
21
504.687488
0
LINE
8
Calque 1
10
346.524205
20
504.687488
11
347.084790
21
504.218900
0
LINE
8
Calque 1
10
347.084790
20
504.218900
11
347.645379
21
503.575225
0
LINE
8
Calque 1
10
347.645379
20
503.575225
11
347.878540
21
503.095500
0
LINE
8
Calque 1
10
347.878540
20
503.095500
11
347.953720
21
502.885538
0
LINE
8
Calque 1
10
347.953720
20
502.885538
11
348.134470
21
502.890600
0
LINE
8
Calque 1
10
348.134470
20
502.890600
11
348.414180
21
502.844075
0
LINE
8
Calque 1
10
348.414180
20
502.844075
11
348.727280
21
502.509400
0
LINE
8
Calque 1
10
348.727280
20
502.509400
11
349.276590
21
501.969900
0
LINE
8
Calque 1
10
349.276590
20
501.969900
11
350.734300
21
500.619400
0
LINE
8
Calque 1
10
350.734300
20
500.619400
11
352.302780
21
498.965800
0
LINE
8
Calque 1
10
352.302780
20
498.965800
11
355.165060
21
496.215300
0
LINE
8
Calque 1
10
355.165060
20
496.215300
11
357.043676
21
494.486813
0
LINE
8
Calque 1
10
357.043676
20
494.486813
11
357.994820
21
493.767900
0
LINE
8
Calque 1
10
357.994820
20
493.767900
11
358.155159
21
493.722900
0
LINE
8
Calque 1
10
358.155159
20
493.722900
11
358.132490
21
493.614900
0
LINE
8
Calque 1
10
358.132490
20
493.614900
11
358.396559
21
493.187816
0
LINE
8
Calque 1
10
358.396559
20
493.187816
11
359.255506
21
492.279700
0
LINE
8
Calque 1
10
359.255506
20
492.279700
11
361.836020
21
489.936200
0
LINE
8
Calque 1
10
361.836020
20
489.936200
11
362.396198
21
489.340000
0
LINE
8
Calque 1
10
362.396198
20
489.340000
11
362.521210
21
488.915100
0
LINE
8
Calque 1
10
362.521210
20
488.915100
11
362.462285
21
488.757588
0
LINE
8
Calque 1
10
362.462285
20
488.757588
11
362.567010
21
488.809400
0
LINE
8
Calque 1
10
362.567010
20
488.809400
11
362.907678
21
488.777528
0
LINE
8
Calque 1
10
362.907678
20
488.777528
11
363.393838
21
488.431725
0
LINE
8
Calque 1
10
363.393838
20
488.431725
11
363.829361
21
487.948409
0
LINE
8
Calque 1
10
363.829361
20
487.948409
11
364.018120
21
487.504000
0
LINE
8
Calque 1
10
364.018120
20
487.504000
11
364.085154
21
487.256313
0
LINE
8
Calque 1
10
364.085154
20
487.256313
11
364.246320
21
487.153300
0
LINE
8
Calque 1
10
364.246320
20
487.153300
11
365.435884
21
486.384250
0
LINE
8
Calque 1
10
365.435884
20
486.384250
11
366.046057
21
485.821694
0
LINE
8
Calque 1
10
366.046057
20
485.821694
11
366.240300
21
485.494900
0
LINE
8
Calque 1
10
366.240300
20
485.494900
11
366.362568
21
485.263063
0
LINE
8
Calque 1
10
366.362568
20
485.263063
11
366.856160
21
484.905000
0
LINE
8
Calque 1
10
366.856160
20
484.905000
11
367.572851
21
484.324100
0
LINE
8
Calque 1
10
367.572851
20
484.324100
11
368.231500
21
483.556300
0
LINE
8
Calque 1
10
368.231500
20
483.556300
11
369.032800
21
482.655400
0
LINE
8
Calque 1
10
369.032800
20
482.655400
11
370.255470
21
481.577200
0
LINE
8
Calque 1
10
370.255470
20
481.577200
11
372.220200
21
479.605900
0
LINE
8
Calque 1
10
372.220200
20
479.605900
11
377.954440
21
474.003300
0
LINE
8
Calque 1
10
377.954440
20
474.003300
11
384.507440
21
467.645000
0
LINE
8
Calque 1
10
384.507440
20
467.645000
11
386.255140
21
465.866800
0
LINE
8
Calque 1
10
386.255140
20
465.866800
11
388.863290
21
463.344800
0
LINE
8
Calque 1
10
388.863290
20
463.344800
11
389.344460
21
462.811600
0
LINE
8
Calque 1
10
389.344460
20
462.811600
11
390.908270
21
461.158000
0
LINE
8
Calque 1
10
390.908270
20
461.158000
11
394.259614
21
457.884613
0
LINE
8
Calque 1
10
394.259614
20
457.884613
11
394.974370
21
456.969900
0
LINE
8
Calque 1
10
394.974370
20
456.969900
11
395.071519
21
456.790888
0
LINE
8
Calque 1
10
395.071519
20
456.790888
11
395.305100
21
456.702700
0
LINE
8
Calque 1
10
395.305100
20
456.702700
11
395.927283
21
456.233525
0
LINE
8
Calque 1
10
395.927283
20
456.233525
11
396.958740
21
455.138700
0
LINE
8
Calque 1
10
396.958740
20
455.138700
11
398.488180
21
453.574700
0
LINE
8
Calque 1
10
398.488180
20
453.574700
11
399.507770
21
452.625200
0
LINE
8
Calque 1
10
399.507770
20
452.625200
11
400.192981
21
451.971125
0
LINE
8
Calque 1
10
400.192981
20
451.971125
11
400.698620
21
451.699100
0
LINE
8
Calque 1
10
400.698620
20
451.699100
11
401.016139
21
451.563113
0
LINE
8
Calque 1
10
401.016139
20
451.563113
11
401.249050
21
451.236100
0
LINE
8
Calque 1
10
401.249050
20
451.236100
11
401.669659
21
450.568300
0
LINE
8
Calque 1
10
401.669659
20
450.568300
11
402.366125
21
449.776600
0
LINE
8
Calque 1
10
402.366125
20
449.776600
11
403.063101
21
449.142700
0
LINE
8
Calque 1
10
403.063101
20
449.142700
11
403.485240
21
448.948300
0
LINE
8
Calque 1
10
403.485240
20
448.948300
11
403.715686
21
448.849913
0
LINE
8
Calque 1
10
403.715686
20
448.849913
11
403.958890
21
448.421600
0
LINE
8
Calque 1
10
403.958890
20
448.421600
11
404.354261
21
447.814725
0
LINE
8
Calque 1
10
404.354261
20
447.814725
11
404.950580
21
447.287500
0
LINE
8
Calque 1
10
404.950580
20
447.287500
11
405.892420
21
446.496300
0
LINE
8
Calque 1
10
405.892420
20
446.496300
11
406.953743
21
445.322863
0
LINE
8
Calque 1
10
406.953743
20
445.322863
11
407.928440
21
444.555400
0
LINE
8
Calque 1
10
407.928440
20
444.555400
11
408.287160
21
443.999600
0
LINE
8
Calque 1
10
408.287160
20
443.999600
11
408.472716
21
443.658125
0
LINE
8
Calque 1
10
408.472716
20
443.658125
11
408.714890
21
443.618300
0
LINE
8
Calque 1
10
408.714890
20
443.618300
11
408.914330
21
443.659100
0
LINE
8
Calque 1
10
408.914330
20
443.659100
11
408.997280
21
443.512700
0
LINE
8
Calque 1
10
408.997280
20
443.512700
11
409.584195
21
442.678483
0
LINE
8
Calque 1
10
409.584195
20
442.678483
11
410.915416
21
441.332363
0
LINE
8
Calque 1
10
410.915416
20
441.332363
11
412.346660
21
440.080311
0
LINE
8
Calque 1
10
412.346660
20
440.080311
11
413.233640
21
439.528300
0
LINE
8
Calque 1
10
413.233640
20
439.528300
11
413.418368
21
439.437625
0
LINE
8
Calque 1
10
413.418368
20
439.437625
11
413.495200
21
439.219600
0
LINE
8
Calque 1
10
413.495200
20
439.219600
11
413.538991
21
439.045363
0
LINE
8
Calque 1
10
413.538991
20
439.045363
11
413.644230
21
439.059900
0
LINE
8
Calque 1
10
413.644230
20
439.059900
11
414.504130
21
439.015900
0
LINE
8
Calque 1
10
414.504130
20
439.015900
11
415.113225
21
438.914430
0
LINE
8
Calque 1
10
415.113225
20
438.914430
11
415.711759
21
438.969738
0
LINE
8
Calque 1
10
415.711759
20
438.969738
11
417.199370
21
439.623700
0
LINE
8
Calque 1
10
417.199370
20
439.623700
11
417.199700
21
439.624500
0
LINE
8
Calque 1
10
428.902100
20
472.330000
11
442.467400
21
485.552200
0
LINE
8
Calque 1
10
442.467400
20
485.552200
11
446.833030
21
485.563200
0
LINE
8
Calque 1
10
446.833030
20
485.563200
11
450.029635
21
485.644175
0
LINE
8
Calque 1
10
450.029635
20
485.644175
11
451.584640
21
485.818300
0
LINE
8
Calque 1
10
451.584640
20
485.818300
11
451.768632
21
486.012150
0
LINE
8
Calque 1
10
451.768632
20
486.012150
11
451.813916
21
486.358025
0
LINE
8
Calque 1
10
451.813916
20
486.358025
11
451.460330
21
487.997100
0
LINE
8
Calque 1
10
451.460330
20
487.997100
11
451.035911
21
490.032322
0
LINE
8
Calque 1
10
451.035911
20
490.032322
11
450.937150
21
491.737375
0
LINE
8
Calque 1
10
450.937150
20
491.737375
11
451.166851
21
493.179666
0
LINE
8
Calque 1
10
451.166851
20
493.179666
11
451.727820
21
494.426600
0
LINE
8
Calque 1
10
451.727820
20
494.426600
11
452.606622
21
495.520192
0
LINE
8
Calque 1
10
452.606622
20
495.520192
11
453.823149
21
496.575188
0
LINE
8
Calque 1
10
453.823149
20
496.575188
11
455.271611
21
497.512489
0
LINE
8
Calque 1
10
455.271611
20
497.512489
11
456.846220
21
498.253000
0
LINE
8
Calque 1
10
456.846220
20
498.253000
11
459.261833
21
498.870663
0
LINE
8
Calque 1
10
459.261833
20
498.870663
11
463.083650
21
499.592500
0
LINE
8
Calque 1
10
463.083650
20
499.592500
11
466.839349
21
500.297830
0
LINE
8
Calque 1
10
466.839349
20
500.297830
11
470.040809
21
501.086288
0
LINE
8
Calque 1
10
470.040809
20
501.086288
11
472.733789
21
501.970877
0
LINE
8
Calque 1
10
472.733789
20
501.970877
11
474.964050
21
502.964600
0
LINE
8
Calque 1
10
474.964050
20
502.964600
11
476.769020
21
503.907900
0
LINE
8
Calque 1
10
476.769020
20
503.907900
11
474.149800
21
504.764800
0
LINE
8
Calque 1
10
474.149800
20
504.764800
11
470.926714
21
506.008202
0
LINE
8
Calque 1
10
470.926714
20
506.008202
11
467.713596
21
507.611238
0
LINE
8
Calque 1
10
467.713596
20
507.611238
11
464.607655
21
509.519880
0
LINE
8
Calque 1
10
464.607655
20
509.519880
11
461.706100
21
511.680100
0
LINE
8
Calque 1
10
461.706100
20
511.680100
11
459.778320
21
513.082700
0
LINE
8
Calque 1
10
459.778320
20
513.082700
11
458.673589
21
512.090950
0
LINE
8
Calque 1
10
458.673589
20
512.090950
11
456.615571
21
509.826300
0
LINE
8
Calque 1
10
456.615571
20
509.826300
11
454.535520
21
507.354650
0
LINE
8
Calque 1
10
454.535520
20
507.354650
11
453.364690
21
505.741900
0
LINE
8
Calque 1
10
453.364690
20
505.741900
11
452.831912
21
504.881523
0
LINE
8
Calque 1
10
452.831912
20
504.881523
11
452.295741
21
504.468138
0
LINE
8
Calque 1
10
452.295741
20
504.468138
11
451.755905
21
504.501658
0
LINE
8
Calque 1
10
451.755905
20
504.501658
11
451.212130
21
504.982000
0
LINE
8
Calque 1
10
451.212130
20
504.982000
11
449.703168
21
506.823850
0
LINE
8
Calque 1
10
449.703168
20
506.823850
11
449.406117
21
506.952522
0
LINE
8
Calque 1
10
449.406117
20
506.952522
11
449.146810
21
506.786500
0
LINE
8
Calque 1
10
449.146810
20
506.786500
11
448.733315
21
506.188300
0
LINE
8
Calque 1
10
448.733315
20
506.188300
11
448.290570
21
505.207600
0
LINE
8
Calque 1
10
448.290570
20
505.207600
11
447.144563
21
502.558980
0
LINE
8
Calque 1
10
447.144563
20
502.558980
11
445.699091
21
499.982838
0
LINE
8
Calque 1
10
445.699091
20
499.982838
11
443.975926
21
497.513852
0
LINE
8
Calque 1
10
443.975926
20
497.513852
11
441.996840
21
495.186700
0
LINE
8
Calque 1
10
441.996840
20
495.186700
11
440.741931
21
493.928345
0
LINE
8
Calque 1
10
440.741931
20
493.928345
11
439.790018
21
493.179513
0
LINE
8
Calque 1
10
439.790018
20
493.179513
11
439.076931
21
492.900573
0
LINE
8
Calque 1
10
439.076931
20
492.900573
11
438.538500
21
493.051900
0
LINE
8
Calque 1
10
438.538500
20
493.051900
11
438.321382
21
493.359147
0
LINE
8
Calque 1
10
438.321382
20
493.359147
11
438.180151
21
493.999525
0
LINE
8
Calque 1
10
438.180151
20
493.999525
11
438.040420
21
496.943200
0
LINE
8
Calque 1
10
438.040420
20
496.943200
11
437.969520
21
500.515000
0
LINE
8
Calque 1
10
437.969520
20
500.515000
11
435.219680
21
496.866200
0
LINE
8
Calque 1
10
435.219680
20
496.866200
11
431.749268
21
492.669263
0
LINE
8
Calque 1
10
431.749268
20
492.669263
11
430.525764
21
491.522914
0
LINE
8
Calque 1
10
430.525764
20
491.522914
11
429.749080
21
491.122300
0
LINE
8
Calque 1
10
429.749080
20
491.122300
11
429.219873
21
491.279973
0
LINE
8
Calque 1
10
429.219873
20
491.279973
11
428.854960
21
491.770338
0
LINE
8
Calque 1
10
428.854960
20
491.770338
11
428.643138
21
492.619408
0
LINE
8
Calque 1
10
428.643138
20
492.619408
11
428.573200
21
493.853200
0
LINE
8
Calque 1
10
428.573200
20
493.853200
11
428.411150
21
496.343600
0
LINE
8
Calque 1
10
428.411150
20
496.343600
11
428.191223
21
496.794463
0
LINE
8
Calque 1
10
428.191223
20
496.794463
11
427.615570
21
496.433600
0
LINE
8
Calque 1
10
427.615570
20
496.433600
11
426.655923
21
495.508852
0
LINE
8
Calque 1
10
426.655923
20
495.508852
11
425.612408
21
494.241288
0
LINE
8
Calque 1
10
425.612408
20
494.241288
11
424.659931
21
492.862780
0
LINE
8
Calque 1
10
424.659931
20
492.862780
11
423.973400
21
491.605200
0
LINE
8
Calque 1
10
423.973400
20
491.605200
11
423.447806
21
490.176542
0
LINE
8
Calque 1
10
423.447806
20
490.176542
11
423.068519
21
488.671263
0
LINE
8
Calque 1
10
423.068519
20
488.671263
11
422.874892
21
487.287802
0
LINE
8
Calque 1
10
422.874892
20
487.287802
11
422.906280
21
486.224600
0
LINE
8
Calque 1
10
422.906280
20
486.224600
11
422.902704
21
485.446488
0
LINE
8
Calque 1
10
422.902704
20
485.446488
11
422.526880
21
484.759500
0
LINE
8
Calque 1
10
422.526880
20
484.759500
11
421.976720
21
484.267563
0
LINE
8
Calque 1
10
421.976720
20
484.267563
11
421.344390
21
484.507700
0
LINE
8
Calque 1
10
421.344390
20
484.507700
11
417.996280
21
487.285900
0
LINE
8
Calque 1
10
417.996280
20
487.285900
11
415.083060
21
489.667100
0
LINE
8
Calque 1
10
415.083060
20
489.667100
11
412.169840
21
487.285900
0
LINE
8
Calque 1
10
412.169840
20
487.285900
11
408.821730
21
484.507700
0
LINE
8
Calque 1
10
408.821730
20
484.507700
11
408.189400
21
484.267563
0
LINE
8
Calque 1
10
408.189400
20
484.267563
11
407.639240
21
484.759500
0
LINE
8
Calque 1
10
407.639240
20
484.759500
11
407.263304
21
485.446488
0
LINE
8
Calque 1
10
407.263304
20
485.446488
11
407.259840
21
486.224600
0
LINE
8
Calque 1
10
407.259840
20
486.224600
11
407.291228
21
487.287802
0
LINE
8
Calque 1
10
407.291228
20
487.287802
11
407.097601
21
488.671263
0
LINE
8
Calque 1
10
407.097601
20
488.671263
11
406.718314
21
490.176542
0
LINE
8
Calque 1
10
406.718314
20
490.176542
11
406.192720
21
491.605200
0
LINE
8
Calque 1
10
406.192720
20
491.605200
11
405.506189
21
492.862780
0
LINE
8
Calque 1
10
405.506189
20
492.862780
11
404.553713
21
494.241288
0
LINE
8
Calque 1
10
404.553713
20
494.241288
11
403.510197
21
495.508852
0
LINE
8
Calque 1
10
403.510197
20
495.508852
11
402.550550
21
496.433600
0
LINE
8
Calque 1
10
402.550550
20
496.433600
11
401.974898
21
496.794463
0
LINE
8
Calque 1
10
401.974898
20
496.794463
11
401.754970
21
496.343600
0
LINE
8
Calque 1
10
401.754970
20
496.343600
11
401.592920
21
493.853200
0
LINE
8
Calque 1
10
401.592920
20
493.853200
11
401.522831
21
492.619408
0
LINE
8
Calque 1
10
401.522831
20
492.619408
11
401.311025
21
491.770338
0
LINE
8
Calque 1
10
401.311025
20
491.770338
11
400.946197
21
491.279973
0
LINE
8
Calque 1
10
400.946197
20
491.279973
11
400.417040
21
491.122300
0
LINE
8
Calque 1
10
400.417040
20
491.122300
11
399.640356
21
491.522914
0
LINE
8
Calque 1
10
399.640356
20
491.522914
11
398.416853
21
492.669263
0
LINE
8
Calque 1
10
398.416853
20
492.669263
11
394.946440
21
496.866200
0
LINE
8
Calque 1
10
394.946440
20
496.866200
11
392.196600
21
500.515000
0
LINE
8
Calque 1
10
392.196600
20
500.515000
11
392.125700
21
496.943200
0
LINE
8
Calque 1
10
392.125700
20
496.943200
11
391.985980
21
493.999525
0
LINE
8
Calque 1
10
391.985980
20
493.999525
11
391.844743
21
493.359147
0
LINE
8
Calque 1
10
391.844743
20
493.359147
11
391.627620
21
493.051900
0
LINE
8
Calque 1
10
391.627620
20
493.051900
11
391.089189
21
492.900616
0
LINE
8
Calque 1
10
391.089189
20
492.900616
11
390.376103
21
493.179625
0
LINE
8
Calque 1
10
390.376103
20
493.179625
11
389.424189
21
493.928472
0
LINE
8
Calque 1
10
389.424189
20
493.928472
11
388.169280
21
495.186700
0
LINE
8
Calque 1
10
388.169280
20
495.186700
11
386.190194
21
497.513852
0
LINE
8
Calque 1
10
386.190194
20
497.513852
11
384.467029
21
499.982838
0
LINE
8
Calque 1
10
384.467029
20
499.982838
11
383.021557
21
502.558980
0
LINE
8
Calque 1
10
383.021557
20
502.558980
11
381.875550
21
505.207600
0
LINE
8
Calque 1
10
381.875550
20
505.207600
11
381.432805
21
506.188300
0
LINE
8
Calque 1
10
381.432805
20
506.188300
11
381.019310
21
506.786500
0
LINE
8
Calque 1
10
381.019310
20
506.786500
11
380.711975
21
506.908502
0
LINE
8
Calque 1
10
380.711975
20
506.908502
11
380.339110
21
506.711763
0
LINE
8
Calque 1
10
380.339110
20
506.711763
11
379.021260
21
505.032100
0
LINE
8
Calque 1
10
379.021260
20
505.032100
11
378.578121
21
504.551438
0
LINE
8
Calque 1
10
378.578121
20
504.551438
11
378.180260
21
504.351500
0
LINE
8
Calque 1
10
378.180260
20
504.351500
11
377.755552
21
504.481414
0
LINE
8
Calque 1
10
377.755552
20
504.481414
11
377.370430
21
504.818113
0
LINE
8
Calque 1
10
377.370430
20
504.818113
11
377.090931
21
505.282030
0
LINE
8
Calque 1
10
377.090931
20
505.282030
11
376.983090
21
505.793600
0
LINE
8
Calque 1
10
376.983090
20
505.793600
11
376.762648
21
506.773284
0
LINE
8
Calque 1
10
376.762648
20
506.773284
11
376.169808
21
508.133350
0
LINE
8
Calque 1
10
376.169808
20
508.133350
11
375.307301
21
509.669366
0
LINE
8
Calque 1
10
375.307301
20
509.669366
11
374.277860
21
511.176900
0
LINE
8
Calque 1
10
374.277860
20
511.176900
11
369.746640
21
516.593600
0
LINE
8
Calque 1
10
369.746640
20
516.593600
11
367.272561
21
519.501164
0
LINE
8
Calque 1
10
367.272561
20
519.501164
11
365.437355
21
521.894463
0
LINE
8
Calque 1
10
365.437355
20
521.894463
11
363.892016
21
524.265355
0
LINE
8
Calque 1
10
363.892016
20
524.265355
11
362.287540
21
527.105700
0
LINE
8
Calque 1
10
362.287540
20
527.105700
11
360.145794
21
530.858214
0
LINE
8
Calque 1
10
360.145794
20
530.858214
11
358.397386
21
533.359963
0
LINE
8
Calque 1
10
358.397386
20
533.359963
11
356.804305
21
534.898730
0
LINE
8
Calque 1
10
356.804305
20
534.898730
11
355.128540
21
535.762300
0
LINE
8
Calque 1
10
355.128540
20
535.762300
11
354.165080
21
536.095900
0
LINE
8
Calque 1
10
354.165080
20
536.095900
11
354.356040
21
532.021300
0
LINE
8
Calque 1
10
354.356040
20
532.021300
11
354.445928
21
528.472725
0
LINE
8
Calque 1
10
354.445928
20
528.472725
11
354.308194
21
527.905881
0
LINE
8
Calque 1
10
354.308194
20
527.905881
11
354.010260
21
527.659400
0
LINE
8
Calque 1
10
354.010260
20
527.659400
11
353.478016
21
527.485870
0
LINE
8
Calque 1
10
353.478016
20
527.485870
11
352.987434
21
527.607138
0
LINE
8
Calque 1
10
352.987434
20
527.607138
11
352.470862
21
528.061911
0
LINE
8
Calque 1
10
352.470862
20
528.061911
11
351.860650
21
528.888900
0
LINE
8
Calque 1
10
351.860650
20
528.888900
11
350.965824
21
530.437589
0
LINE
8
Calque 1
10
350.965824
20
530.437589
11
350.366748
21
531.985538
0
LINE
8
Calque 1
10
350.366748
20
531.985538
11
350.024197
21
533.667267
0
LINE
8
Calque 1
10
350.024197
20
533.667267
11
349.898950
21
535.617300
0
LINE
8
Calque 1
10
349.898950
20
535.617300
11
349.800751
21
537.763075
0
LINE
8
Calque 1
10
349.800751
20
537.763075
11
349.650189
21
537.931284
0
LINE
8
Calque 1
10
349.650189
20
537.931284
11
349.372860
21
537.734300
0
LINE
8
Calque 1
10
349.372860
20
537.734300
11
348.574296
21
536.781580
0
LINE
8
Calque 1
10
348.574296
20
536.781580
11
347.918098
21
535.523528
0
LINE
8
Calque 1
10
347.918098
20
535.523528
11
347.413003
21
534.018956
0
LINE
8
Calque 1
10
347.413003
20
534.018956
11
347.067748
21
532.326675
0
LINE
8
Calque 1
10
347.067748
20
532.326675
11
346.891069
21
530.505497
0
LINE
8
Calque 1
10
346.891069
20
530.505497
11
346.891703
21
528.614234
0
LINE
8
Calque 1
10
346.891703
20
528.614234
11
347.078388
21
526.711698
0
LINE
8
Calque 1
10
347.078388
20
526.711698
11
347.459860
21
524.856700
0
LINE
8
Calque 1
10
347.459860
20
524.856700
11
347.982811
21
523.230792
0
LINE
8
Calque 1
10
347.982811
20
523.230792
11
348.673488
21
521.609225
0
LINE
8
Calque 1
10
348.673488
20
521.609225
11
350.438503
21
518.552550
0
LINE
8
Calque 1
10
350.438503
20
518.552550
11
351.453081
21
517.204161
0
LINE
8
Calque 1
10
351.453081
20
517.204161
11
352.515866
21
516.033550
0
LINE
8
Calque 1
10
352.515866
20
516.033550
11
353.596979
21
515.084077
0
LINE
8
Calque 1
10
353.596979
20
515.084077
11
354.666540
21
514.399100
0
LINE
8
Calque 1
10
354.666540
20
514.399100
11
355.613999
21
513.995036
0
LINE
8
Calque 1
10
355.613999
20
513.995036
11
356.828835
21
513.804788
0
LINE
8
Calque 1
10
356.828835
20
513.804788
11
362.608470
21
513.908200
0
LINE
8
Calque 1
10
362.608470
20
513.908200
11
364.980863
21
513.901200
0
LINE
8
Calque 1
10
364.980863
20
513.901200
11
365.566725
21
513.747044
0
LINE
8
Calque 1
10
365.566725
20
513.747044
11
366.048060
21
513.453200
0
LINE
8
Calque 1
10
366.048060
20
513.453200
11
366.653623
21
512.786362
0
LINE
8
Calque 1
10
366.653623
20
512.786362
11
366.876880
21
511.822300
0
LINE
8
Calque 1
10
366.876880
20
511.822300
11
366.885437
21
511.208684
0
LINE
8
Calque 1
10
366.885437
20
511.208684
11
366.749958
21
510.731850
0
LINE
8
Calque 1
10
366.749958
20
510.731850
11
365.736100
21
509.576900
0
LINE
8
Calque 1
10
365.736100
20
509.576900
11
363.773448
21
507.997319
0
LINE
8
Calque 1
10
363.773448
20
507.997319
11
361.393766
21
506.592450
0
LINE
8
Calque 1
10
361.393766
20
506.592450
11
358.689757
21
505.409506
0
LINE
8
Calque 1
10
358.689757
20
505.409506
11
355.754120
21
504.495700
0
LINE
8
Calque 1
10
355.754120
20
504.495700
11
353.407430
21
503.902500
0
LINE
8
Calque 1
10
353.407430
20
503.902500
11
355.207240
21
502.961900
0
LINE
8
Calque 1
10
355.207240
20
502.961900
11
357.435011
21
501.969667
0
LINE
8
Calque 1
10
357.435011
20
501.969667
11
360.127188
21
501.085762
0
LINE
8
Calque 1
10
360.127188
20
501.085762
11
363.328190
21
500.297577
0
LINE
8
Calque 1
10
363.328190
20
500.297577
11
367.082440
21
499.592500
0
LINE
8
Calque 1
10
367.082440
20
499.592500
11
370.904258
21
498.870662
0
LINE
8
Calque 1
10
370.904258
20
498.870662
11
373.319870
21
498.253000
0
LINE
8
Calque 1
10
373.319870
20
498.253000
11
374.894479
21
497.512489
0
LINE
8
Calque 1
10
374.894479
20
497.512489
11
376.342941
21
496.575187
0
LINE
8
Calque 1
10
376.342941
20
496.575187
11
377.559468
21
495.520192
0
LINE
8
Calque 1
10
377.559468
20
495.520192
11
378.438270
21
494.426600
0
LINE
8
Calque 1
10
378.438270
20
494.426600
11
378.999239
21
493.179666
0
LINE
8
Calque 1
10
378.999239
20
493.179666
11
379.228940
21
491.737375
0
LINE
8
Calque 1
10
379.228940
20
491.737375
11
379.130179
21
490.032322
0
LINE
8
Calque 1
10
379.130179
20
490.032322
11
378.705760
21
487.997100
0
LINE
8
Calque 1
10
378.705760
20
487.997100
11
378.352174
21
486.358025
0
LINE
8
Calque 1
10
378.352174
20
486.358025
11
378.397458
21
486.012150
0
LINE
8
Calque 1
10
378.397458
20
486.012150
11
378.581450
21
485.818300
0
LINE
8
Calque 1
10
378.581450
20
485.818300
11
380.136455
21
485.642675
0
LINE
8
Calque 1
10
380.136455
20
485.642675
11
383.333060
21
485.563200
0
LINE
8
Calque 1
10
383.333060
20
485.563200
11
387.698690
21
485.552200
0
LINE
8
Calque 1
10
387.698690
20
485.552200
11
401.263990
21
472.330000
0
LINE
8
Calque 1
10
401.263990
20
472.330000
11
415.083090
21
459.107800
0
LINE
8
Calque 1
10
415.083090
20
459.107800
11
428.902190
21
472.330000
0
LINE
8
Calque 1
10
428.902190
20
472.330000
11
428.902100
21
472.330000
0
LINE
8
Calque 1
10
412.286800
20
490.328700
11
414.040424
21
491.665638
0
LINE
8
Calque 1
10
414.040424
20
491.665638
11
415.083010
21
492.180800
0
LINE
8
Calque 1
10
415.083010
20
492.180800
11
416.135504
21
491.657600
0
LINE
8
Calque 1
10
416.135504
20
491.657600
11
417.918550
21
490.295600
0
LINE
8
Calque 1
10
417.918550
20
490.295600
11
419.415067
21
489.090439
0
LINE
8
Calque 1
10
419.415067
20
489.090439
11
419.903631
21
488.803658
0
LINE
8
Calque 1
10
419.903631
20
488.803658
11
420.270290
21
488.733913
0
LINE
8
Calque 1
10
420.270290
20
488.733913
11
420.553461
21
488.886078
0
LINE
8
Calque 1
10
420.553461
20
488.886078
11
420.791561
21
489.265030
0
LINE
8
Calque 1
10
420.791561
20
489.265030
11
421.286220
21
490.722800
0
LINE
8
Calque 1
10
421.286220
20
490.722800
11
421.943680
21
492.494930
0
LINE
8
Calque 1
10
421.943680
20
492.494930
11
422.828632
21
494.124288
0
LINE
8
Calque 1
10
422.828632
20
494.124288
11
424.013453
21
495.723777
0
LINE
8
Calque 1
10
424.013453
20
495.723777
11
425.570520
21
497.406300
0
LINE
8
Calque 1
10
425.570520
20
497.406300
11
427.483161
21
499.156875
0
LINE
8
Calque 1
10
427.483161
20
499.156875
11
428.064360
21
499.495228
0
LINE
8
Calque 1
10
428.064360
20
499.495228
11
428.550410
21
499.589100
0
LINE
8
Calque 1
10
428.550410
20
499.589100
11
429.244902
21
499.438775
0
LINE
8
Calque 1
10
429.244902
20
499.438775
11
429.754580
21
498.997900
0
LINE
8
Calque 1
10
429.754580
20
498.997900
11
429.906380
21
498.821626
0
LINE
8
Calque 1
10
429.906380
20
498.821626
11
430.108724
21
498.776327
0
LINE
8
Calque 1
10
430.108724
20
498.776327
11
430.985896
21
499.354038
0
LINE
8
Calque 1
10
430.985896
20
499.354038
11
436.876160
21
505.110400
0
LINE
8
Calque 1
10
436.876160
20
505.110400
11
443.583660
21
511.814000
0
LINE
8
Calque 1
10
443.583660
20
511.814000
11
443.540460
21
513.572900
0
LINE
8
Calque 1
10
443.540460
20
513.572900
11
443.422177
21
514.970562
0
LINE
8
Calque 1
10
443.422177
20
514.970562
11
443.198550
21
515.861000
0
LINE
8
Calque 1
10
443.198550
20
515.861000
11
442.899900
21
516.390100
0
LINE
8
Calque 1
10
442.899900
20
516.390100
11
442.733500
21
515.861000
0
LINE
8
Calque 1
10
442.733500
20
515.861000
11
441.772750
21
513.155488
0
LINE
8
Calque 1
10
441.772750
20
513.155488
11
440.750139
21
510.940764
0
LINE
8
Calque 1
10
440.750139
20
510.940764
11
439.673554
21
509.223442
0
LINE
8
Calque 1
10
439.673554
20
509.223442
11
438.550879
21
508.010138
0
LINE
8
Calque 1
10
438.550879
20
508.010138
11
437.390000
21
507.307466
0
LINE
8
Calque 1
10
437.390000
20
507.307466
11
436.198804
21
507.122042
0
LINE
8
Calque 1
10
436.198804
20
507.122042
11
434.985175
21
507.460482
0
LINE
8
Calque 1
10
434.985175
20
507.460482
11
433.757000
21
508.329400
0
LINE
8
Calque 1
10
433.757000
20
508.329400
11
432.634700
21
509.363900
0
LINE
8
Calque 1
10
432.634700
20
509.363900
11
432.019120
21
508.268600
0
LINE
8
Calque 1
10
432.019120
20
508.268600
11
431.070376
21
506.971837
0
LINE
8
Calque 1
10
431.070376
20
506.971837
11
429.653790
21
505.392100
0
LINE
8
Calque 1
10
429.653790
20
505.392100
11
428.209026
21
504.082683
0
LINE
8
Calque 1
10
428.209026
20
504.082683
11
426.935444
21
503.339037
0
LINE
8
Calque 1
10
426.935444
20
503.339037
11
425.669269
21
503.097648
0
LINE
8
Calque 1
10
425.669269
20
503.097648
11
424.246730
21
503.295000
0
LINE
8
Calque 1
10
424.246730
20
503.295000
11
422.959370
21
503.622400
0
LINE
8
Calque 1
10
422.959370
20
503.622400
11
419.021210
21
499.690800
0
LINE
8
Calque 1
10
419.021210
20
499.690800
11
415.083060
21
495.759300
0
LINE
8
Calque 1
10
415.083060
20
495.759300
11
411.144910
21
499.690800
0
LINE
8
Calque 1
10
411.144910
20
499.690800
11
407.206750
21
503.622400
0
LINE
8
Calque 1
10
407.206750
20
503.622400
11
405.919390
21
503.295000
0
LINE
8
Calque 1
10
405.919390
20
503.295000
11
404.496851
21
503.097677
0
LINE
8
Calque 1
10
404.496851
20
503.097677
11
403.230676
21
503.339112
0
LINE
8
Calque 1
10
403.230676
20
503.339112
11
401.957094
21
504.082767
0
LINE
8
Calque 1
10
401.957094
20
504.082767
11
400.512330
21
505.392100
0
LINE
8
Calque 1
10
400.512330
20
505.392100
11
399.095744
21
506.971837
0
LINE
8
Calque 1
10
399.095744
20
506.971837
11
398.147000
21
508.268600
0
LINE
8
Calque 1
10
398.147000
20
508.268600
11
397.531420
21
509.363900
0
LINE
8
Calque 1
10
397.531420
20
509.363900
11
396.409120
21
508.329400
0
LINE
8
Calque 1
10
396.409120
20
508.329400
11
395.635573
21
507.716180
0
LINE
8
Calque 1
10
395.635573
20
507.716180
11
394.870387
21
507.310475
0
LINE
8
Calque 1
10
394.870387
20
507.310475
11
394.113268
21
507.112333
0
LINE
8
Calque 1
10
394.113268
20
507.112333
11
393.363920
21
507.121800
0
LINE
8
Calque 1
10
393.363920
20
507.121800
11
392.622050
21
507.338923
0
LINE
8
Calque 1
10
392.622050
20
507.338923
11
391.887362
21
507.763750
0
LINE
8
Calque 1
10
391.887362
20
507.763750
11
391.159564
21
508.396327
0
LINE
8
Calque 1
10
391.159564
20
508.396327
11
390.438360
21
509.236700
0
LINE
8
Calque 1
10
390.438360
20
509.236700
11
389.734135
21
510.389661
0
LINE
8
Calque 1
10
389.734135
20
510.389661
11
388.908636
21
512.075938
0
LINE
8
Calque 1
10
388.908636
20
512.075938
11
387.432620
21
515.861000
0
LINE
8
Calque 1
10
387.432620
20
515.861000
11
387.266220
21
516.390100
0
LINE
8
Calque 1
10
387.266220
20
516.390100
11
386.967570
21
515.861000
0
LINE
8
Calque 1
10
386.967570
20
515.861000
11
386.743939
21
514.970562
0
LINE
8
Calque 1
10
386.743939
20
514.970562
11
386.625660
21
513.572900
0
LINE
8
Calque 1
10
386.625660
20
513.572900
11
386.582360
21
511.814000
0
LINE
8
Calque 1
10
386.582360
20
511.814000
11
393.289860
21
505.110400
0
LINE
8
Calque 1
10
393.289860
20
505.110400
11
399.180124
21
499.354038
0
LINE
8
Calque 1
10
399.180124
20
499.354038
11
400.057296
21
498.776327
0
LINE
8
Calque 1
10
400.057296
20
498.776327
11
400.259640
21
498.821626
0
LINE
8
Calque 1
10
400.259640
20
498.821626
11
400.411440
21
498.997900
0
LINE
8
Calque 1
10
400.411440
20
498.997900
11
400.921117
21
499.438775
0
LINE
8
Calque 1
10
400.921117
20
499.438775
11
401.615610
21
499.589100
0
LINE
8
Calque 1
10
401.615610
20
499.589100
11
402.101660
21
499.495228
0
LINE
8
Calque 1
10
402.101660
20
499.495228
11
402.682859
21
499.156875
0
LINE
8
Calque 1
10
402.682859
20
499.156875
11
404.595500
21
497.406300
0
LINE
8
Calque 1
10
404.595500
20
497.406300
11
406.151216
21
495.725394
0
LINE
8
Calque 1
10
406.151216
20
495.725394
11
407.335744
21
494.126875
0
LINE
8
Calque 1
10
407.335744
20
494.126875
11
408.221919
21
492.497194
0
LINE
8
Calque 1
10
408.221919
20
492.497194
11
408.882580
21
490.722800
0
LINE
8
Calque 1
10
408.882580
20
490.722800
11
409.495299
21
489.042713
0
LINE
8
Calque 1
10
409.495299
20
489.042713
11
409.751399
21
488.618698
0
LINE
8
Calque 1
10
409.751399
20
488.618698
11
409.971780
21
488.476600
0
LINE
8
Calque 1
10
409.971780
20
488.476600
11
412.286800
21
490.328700
0
LINE
8
Calque 1
10
412.286800
20
490.328700
11
412.286800
21
490.328700
0
LINE
8
Calque 1
10
416.575950
20
502.036500
11
417.663535
21
503.278411
0
LINE
8
Calque 1
10
417.663535
20
503.278411
11
418.441711
21
504.384413
0
LINE
8
Calque 1
10
418.441711
20
504.384413
11
418.971976
21
505.456908
0
LINE
8
Calque 1
10
418.971976
20
505.456908
11
419.315830
21
506.598300
0
LINE
8
Calque 1
10
419.315830
20
506.598300
11
419.747866
21
507.915689
0
LINE
8
Calque 1
10
419.747866
20
507.915689
11
420.304424
21
508.543088
0
LINE
8
Calque 1
10
420.304424
20
508.543088
11
420.632299
21
508.599367
0
LINE
8
Calque 1
10
420.632299
20
508.599367
11
420.994787
21
508.484742
0
LINE
8
Calque 1
10
420.994787
20
508.484742
11
421.828240
21
507.744900
0
LINE
8
Calque 1
10
421.828240
20
507.744900
11
422.795155
21
506.717502
0
LINE
8
Calque 1
10
422.795155
20
506.717502
11
423.717715
21
505.988463
0
LINE
8
Calque 1
10
423.717715
20
505.988463
11
424.601973
21
505.553892
0
LINE
8
Calque 1
10
424.601973
20
505.553892
11
425.453980
21
505.409900
0
LINE
8
Calque 1
10
425.453980
20
505.409900
11
426.038202
21
505.457989
0
LINE
8
Calque 1
10
426.038202
20
505.457989
11
426.552824
21
505.646413
0
LINE
8
Calque 1
10
426.552824
20
505.646413
11
427.864990
21
506.709200
0
LINE
8
Calque 1
10
427.864990
20
506.709200
11
429.106860
21
508.067375
0
LINE
8
Calque 1
10
429.106860
20
508.067375
11
430.164260
21
509.508500
0
LINE
8
Calque 1
10
430.164260
20
509.508500
11
431.437428
21
511.403444
0
LINE
8
Calque 1
10
431.437428
20
511.403444
11
432.372290
21
512.260800
0
LINE
8
Calque 1
10
432.372290
20
512.260800
11
432.774369
21
512.327582
0
LINE
8
Calque 1
10
432.774369
20
512.327582
11
433.165687
21
512.167606
0
LINE
8
Calque 1
10
433.165687
20
512.167606
11
434.014460
21
511.210900
0
LINE
8
Calque 1
10
434.014460
20
511.210900
11
434.900039
21
510.121645
0
LINE
8
Calque 1
10
434.900039
20
510.121645
11
435.733456
21
509.514536
0
LINE
8
Calque 1
10
435.733456
20
509.514536
11
436.534070
21
509.406043
0
LINE
8
Calque 1
10
436.534070
20
509.406043
11
437.321240
21
509.812638
0
LINE
8
Calque 1
10
437.321240
20
509.812638
11
438.114323
21
510.750790
0
LINE
8
Calque 1
10
438.114323
20
510.750790
11
438.932679
21
512.236970
0
LINE
8
Calque 1
10
438.932679
20
512.236970
11
439.795665
21
514.287650
0
LINE
8
Calque 1
10
439.795665
20
514.287650
11
440.722640
21
516.919300
0
LINE
8
Calque 1
10
440.722640
20
516.919300
11
441.641138
21
519.384263
0
LINE
8
Calque 1
10
441.641138
20
519.384263
11
441.975586
21
519.786095
0
LINE
8
Calque 1
10
441.975586
20
519.786095
11
442.380220
21
519.911000
0
LINE
8
Calque 1
10
442.380220
20
519.911000
11
442.778438
21
519.893634
0
LINE
8
Calque 1
10
442.778438
20
519.893634
11
443.152866
21
519.692425
0
LINE
8
Calque 1
10
443.152866
20
519.692425
11
444.179590
21
518.455800
0
LINE
8
Calque 1
10
444.179590
20
518.455800
11
445.046154
21
517.040325
0
LINE
8
Calque 1
10
445.046154
20
517.040325
11
445.582770
21
515.794800
0
LINE
8
Calque 1
10
445.582770
20
515.794800
11
446.046510
21
514.670300
0
LINE
8
Calque 1
10
446.046510
20
514.670300
11
446.634268
21
515.017019
0
LINE
8
Calque 1
10
446.634268
20
515.017019
11
447.587765
21
515.889000
0
LINE
8
Calque 1
10
447.587765
20
515.889000
11
449.581360
21
518.199700
0
LINE
8
Calque 1
10
449.581360
20
518.199700
11
451.180855
21
520.718613
0
LINE
8
Calque 1
10
451.180855
20
520.718613
11
452.253400
21
523.267900
0
LINE
8
Calque 1
10
452.253400
20
523.267900
11
452.705997
21
524.347453
0
LINE
8
Calque 1
10
452.705997
20
524.347453
11
453.195949
21
524.859575
0
LINE
8
Calque 1
10
453.195949
20
524.859575
11
453.877584
21
524.873584
0
LINE
8
Calque 1
10
453.877584
20
524.873584
11
454.905230
21
524.458800
0
LINE
8
Calque 1
10
454.905230
20
524.458800
11
456.050687
21
524.038950
0
LINE
8
Calque 1
10
456.050687
20
524.038950
11
457.059570
21
524.208600
0
LINE
8
Calque 1
10
457.059570
20
524.208600
11
458.080293
21
524.742513
0
LINE
8
Calque 1
10
458.080293
20
524.742513
11
459.167030
21
525.575000
0
LINE
8
Calque 1
10
459.167030
20
525.575000
11
460.392685
21
526.465800
0
LINE
8
Calque 1
10
460.392685
20
526.465800
11
461.820720
21
527.017000
0
LINE
8
Calque 1
10
461.820720
20
527.017000
11
463.637368
21
527.628227
0
LINE
8
Calque 1
10
463.637368
20
527.628227
11
465.291067
21
528.471350
0
LINE
8
Calque 1
10
465.291067
20
528.471350
11
466.783055
21
529.547779
0
LINE
8
Calque 1
10
466.783055
20
529.547779
11
468.114568
21
530.858925
0
LINE
8
Calque 1
10
468.114568
20
530.858925
11
469.286843
21
532.406199
0
LINE
8
Calque 1
10
469.286843
20
532.406199
11
470.301119
21
534.191013
0
LINE
8
Calque 1
10
470.301119
20
534.191013
11
471.158632
21
536.214776
0
LINE
8
Calque 1
10
471.158632
20
536.214776
11
471.860620
21
538.478900
0
LINE
8
Calque 1
10
471.860620
20
538.478900
11
472.240141
21
540.802713
0
LINE
8
Calque 1
10
472.240141
20
540.802713
11
472.615950
21
544.340700
0
LINE
8
Calque 1
10
472.615950
20
544.340700
11
473.077426
21
548.358688
0
LINE
8
Calque 1
10
473.077426
20
548.358688
11
473.810350
21
551.194600
0
LINE
8
Calque 1
10
473.810350
20
551.194600
11
475.269815
21
554.804014
0
LINE
8
Calque 1
10
475.269815
20
554.804014
11
477.434304
21
558.771188
0
LINE
8
Calque 1
10
477.434304
20
558.771188
11
480.587590
21
563.563567
0
LINE
8
Calque 1
10
480.587590
20
563.563567
11
485.013450
21
569.648600
0
LINE
8
Calque 1
10
485.013450
20
569.648600
11
488.637190
21
574.735000
0
LINE
8
Calque 1
10
488.637190
20
574.735000
11
488.423452
21
575.020463
0
LINE
8
Calque 1
10
488.423452
20
575.020463
11
487.909580
21
575.360300
0
LINE
8
Calque 1
10
487.909580
20
575.360300
11
487.104576
21
575.889703
0
LINE
8
Calque 1
10
487.104576
20
575.889703
11
486.475824
21
576.552625
0
LINE
8
Calque 1
10
486.475824
20
576.552625
11
486.016074
21
577.358834
0
LINE
8
Calque 1
10
486.016074
20
577.358834
11
485.718080
21
578.318100
0
LINE
8
Calque 1
10
485.718080
20
578.318100
11
485.428273
21
581.041722
0
LINE
8
Calque 1
10
485.428273
20
581.041722
11
485.273851
21
585.125900
0
LINE
8
Calque 1
10
485.273851
20
585.125900
11
485.275799
21
589.417828
0
LINE
8
Calque 1
10
485.275799
20
589.417828
11
485.455100
21
592.764700
0
LINE
8
Calque 1
10
485.455100
20
592.764700
11
485.858444
21
595.589111
0
LINE
8
Calque 1
10
485.858444
20
595.589111
11
486.439210
21
598.389361
0
LINE
8
Calque 1
10
486.439210
20
598.389361
11
487.191437
21
601.149503
0
LINE
8
Calque 1
10
487.191437
20
601.149503
11
488.109162
21
603.853588
0
LINE
8
Calque 1
10
488.109162
20
603.853588
11
489.186426
21
606.485668
0
LINE
8
Calque 1
10
489.186426
20
606.485668
11
490.417264
21
609.029795
0
LINE
8
Calque 1
10
490.417264
20
609.029795
11
491.795716
21
611.470022
0
LINE
8
Calque 1
10
491.795716
20
611.470022
11
493.315820
21
613.790400
0
LINE
8
Calque 1
10
493.315820
20
613.790400
11
494.458020
21
615.606800
0
LINE
8
Calque 1
10
494.458020
20
615.606800
11
493.951036
21
615.718214
0
LINE
8
Calque 1
10
493.951036
20
615.718214
11
492.654065
21
615.559338
0
LINE
8
Calque 1
10
492.654065
20
615.559338
11
489.034060
21
614.664300
0
LINE
8
Calque 1
10
489.034060
20
614.664300
11
486.730531
21
613.761563
0
LINE
8
Calque 1
10
486.730531
20
613.761563
11
484.536150
21
612.662100
0
LINE
8
Calque 1
10
484.536150
20
612.662100
11
482.646416
21
611.367134
0
LINE
8
Calque 1
10
482.646416
20
611.367134
11
480.835150
21
609.799000
0
LINE
8
Calque 1
10
480.835150
20
609.799000
11
479.332254
21
608.178891
0
LINE
8
Calque 1
10
479.332254
20
608.178891
11
478.367630
21
606.728000
0
LINE
8
Calque 1
10
478.367630
20
606.728000
11
477.972609
21
605.680816
0
LINE
8
Calque 1
10
477.972609
20
605.680816
11
477.820135
21
604.558125
0
LINE
8
Calque 1
10
477.820135
20
604.558125
11
477.904316
21
603.140797
0
LINE
8
Calque 1
10
477.904316
20
603.140797
11
478.219260
21
601.209700
0
LINE
8
Calque 1
10
478.219260
20
601.209700
11
478.499898
21
598.350178
0
LINE
8
Calque 1
10
478.499898
20
598.350178
11
478.500140
21
594.409100
0
LINE
8
Calque 1
10
478.500140
20
594.409100
11
478.227824
21
589.637472
0
LINE
8
Calque 1
10
478.227824
20
589.637472
11
477.690790
21
584.286300
0
LINE
8
Calque 1
10
477.690790
20
584.286300
11
477.277838
21
581.075536
0
LINE
8
Calque 1
10
477.277838
20
581.075536
11
476.928959
21
579.323063
0
LINE
8
Calque 1
10
476.928959
20
579.323063
11
476.508385
21
578.590383
0
LINE
8
Calque 1
10
476.508385
20
578.590383
11
475.880350
21
578.439000
0
LINE
8
Calque 1
10
475.880350
20
578.439000
11
475.377033
21
578.610341
0
LINE
8
Calque 1
10
475.377033
20
578.610341
11
475.101280
21
579.214525
0
LINE
8
Calque 1
10
475.101280
20
579.214525
11
475.030674
21
580.364297
0
LINE
8
Calque 1
10
475.030674
20
580.364297
11
475.142800
21
582.172400
0
LINE
8
Calque 1
10
475.142800
20
582.172400
11
475.412663
21
587.710720
0
LINE
8
Calque 1
10
475.412663
20
587.710720
11
475.256292
21
593.434859
0
LINE
8
Calque 1
10
475.256292
20
593.434859
11
474.689813
21
599.263150
0
LINE
8
Calque 1
10
474.689813
20
599.263150
11
473.729352
21
605.113925
0
LINE
8
Calque 1
10
473.729352
20
605.113925
11
472.391035
21
610.905515
0
LINE
8
Calque 1
10
472.391035
20
610.905515
11
470.690987
21
616.556253
0
LINE
8
Calque 1
10
470.690987
20
616.556253
11
468.645333
21
621.984471
0
LINE
8
Calque 1
10
468.645333
20
621.984471
11
466.270200
21
627.108500
0
LINE
8
Calque 1
10
466.270200
20
627.108500
11
463.473337
21
631.942275
0
LINE
8
Calque 1
10
463.473337
20
631.942275
11
462.019860
21
634.106084
0
LINE
8
Calque 1
10
462.019860
20
634.106084
11
460.776150
21
635.715100
0
LINE
8
Calque 1
10
460.776150
20
635.715100
11
459.854960
21
636.771300
0
LINE
8
Calque 1
10
459.854960
20
636.771300
11
457.637800
21
634.656700
0
LINE
8
Calque 1
10
457.637800
20
634.656700
11
453.454360
21
630.869122
0
LINE
8
Calque 1
10
453.454360
20
630.869122
11
448.661606
21
626.855700
0
LINE
8
Calque 1
10
448.661606
20
626.855700
11
443.769974
21
623.029628
0
LINE
8
Calque 1
10
443.769974
20
623.029628
11
439.289900
21
619.804100
0
LINE
8
Calque 1
10
439.289900
20
619.804100
11
435.533000
21
617.020600
0
LINE
8
Calque 1
10
435.533000
20
617.020600
11
434.766891
21
615.894406
0
LINE
8
Calque 1
10
434.766891
20
615.894406
11
434.012736
21
614.248650
0
LINE
8
Calque 1
10
434.012736
20
614.248650
11
433.343341
21
612.268769
0
LINE
8
Calque 1
10
433.343341
20
612.268769
11
432.831510
21
610.140200
0
LINE
8
Calque 1
10
432.831510
20
610.140200
11
431.637440
21
603.917100
0
LINE
8
Calque 1
10
431.637440
20
603.917100
11
431.031070
21
601.230483
0
LINE
8
Calque 1
10
431.031070
20
601.230483
11
430.294184
21
598.833938
0
LINE
8
Calque 1
10
430.294184
20
598.833938
11
429.398438
21
596.647898
0
LINE
8
Calque 1
10
429.398438
20
596.647898
11
428.315490
21
594.592800
0
LINE
8
Calque 1
10
428.315490
20
594.592800
11
426.386885
21
591.746898
0
LINE
8
Calque 1
10
426.386885
20
591.746898
11
423.980564
21
589.127638
0
LINE
8
Calque 1
10
423.980564
20
589.127638
11
420.750530
21
586.407258
0
LINE
8
Calque 1
10
420.750530
20
586.407258
11
416.350790
21
583.258000
0
LINE
8
Calque 1
10
416.350790
20
583.258000
11
412.062210
21
580.156592
0
LINE
8
Calque 1
10
412.062210
20
580.156592
11
409.019644
21
577.465463
0
LINE
8
Calque 1
10
409.019644
20
577.465463
11
407.862103
21
576.167390
0
LINE
8
Calque 1
10
407.862103
20
576.167390
11
406.891850
21
574.844252
0
LINE
8
Calque 1
10
406.891850
20
574.844252
11
405.347590
21
571.952600
0
LINE
8
Calque 1
10
405.347590
20
571.952600
11
404.433138
21
569.415347
0
LINE
8
Calque 1
10
404.433138
20
569.415347
11
403.752977
21
566.598250
0
LINE
8
Calque 1
10
403.752977
20
566.598250
11
403.327948
21
563.610753
0
LINE
8
Calque 1
10
403.327948
20
563.610753
11
403.178890
21
560.562300
0
LINE
8
Calque 1
10
403.178890
20
560.562300
11
403.118297
21
559.486208
0
LINE
8
Calque 1
10
403.118297
20
559.486208
11
402.915420
21
558.798438
0
LINE
8
Calque 1
10
402.915420
20
558.798438
11
402.534110
21
558.433673
0
LINE
8
Calque 1
10
402.534110
20
558.433673
11
401.938220
21
558.326600
0
LINE
8
Calque 1
10
401.938220
20
558.326600
11
401.451701
21
558.471438
0
LINE
8
Calque 1
10
401.451701
20
558.471438
11
401.212030
21
558.921900
0
LINE
8
Calque 1
10
401.212030
20
558.921900
11
400.970578
21
561.375473
0
LINE
8
Calque 1
10
400.970578
20
561.375473
11
401.018401
21
564.513713
0
LINE
8
Calque 1
10
401.018401
20
564.513713
11
401.324399
21
567.774145
0
LINE
8
Calque 1
10
401.324399
20
567.774145
11
401.857470
21
570.594300
0
LINE
8
Calque 1
10
401.857470
20
570.594300
11
402.412421
21
572.424378
0
LINE
8
Calque 1
10
402.412421
20
572.424378
11
403.096140
21
574.114919
0
LINE
8
Calque 1
10
403.096140
20
574.114919
11
403.957063
21
575.730544
0
LINE
8
Calque 1
10
403.957063
20
575.730544
11
405.043625
21
577.335875
0
LINE
8
Calque 1
10
405.043625
20
577.335875
11
406.404262
21
578.995534
0
LINE
8
Calque 1
10
406.404262
20
578.995534
11
408.087408
21
580.774144
0
LINE
8
Calque 1
10
408.087408
20
580.774144
11
412.614970
21
584.946700
0
LINE
8
Calque 1
10
412.614970
20
584.946700
11
415.416315
21
587.535222
0
LINE
8
Calque 1
10
415.416315
20
587.535222
11
417.766448
21
590.045519
0
LINE
8
Calque 1
10
417.766448
20
590.045519
11
419.707524
21
592.557438
0
LINE
8
Calque 1
10
419.707524
20
592.557438
11
421.281697
21
595.150825
0
LINE
8
Calque 1
10
421.281697
20
595.150825
11
422.531124
21
597.905528
0
LINE
8
Calque 1
10
422.531124
20
597.905528
11
423.497958
21
600.901394
0
LINE
8
Calque 1
10
423.497958
20
600.901394
11
424.224355
21
604.218269
0
LINE
8
Calque 1
10
424.224355
20
604.218269
11
424.752470
21
607.936000
0
LINE
8
Calque 1
10
424.752470
20
607.936000
11
425.163986
21
611.100588
0
LINE
8
Calque 1
10
425.163986
20
611.100588
11
425.642741
21
613.496650
0
LINE
8
Calque 1
10
425.642741
20
613.496650
11
426.299675
21
615.559788
0
LINE
8
Calque 1
10
426.299675
20
615.559788
11
427.245730
21
617.725600
0
LINE
8
Calque 1
10
427.245730
20
617.725600
11
428.413488
21
619.964547
0
LINE
8
Calque 1
10
428.413488
20
619.964547
11
429.813514
21
622.144375
0
LINE
8
Calque 1
10
429.813514
20
622.144375
11
431.735710
21
624.676216
0
LINE
8
Calque 1
10
431.735710
20
624.676216
11
434.469980
21
627.971200
0
LINE
8
Calque 1
10
434.469980
20
627.971200
11
436.876987
21
630.874006
0
LINE
8
Calque 1
10
436.876987
20
630.874006
11
438.538115
21
633.073500
0
LINE
8
Calque 1
10
438.538115
20
633.073500
11
439.696376
21
634.918244
0
LINE
8
Calque 1
10
439.696376
20
634.918244
11
440.594780
21
636.756800
0
LINE
8
Calque 1
10
440.594780
20
636.756800
11
441.045230
21
637.870894
0
LINE
8
Calque 1
10
441.045230
20
637.870894
11
441.289232
21
638.839075
0
LINE
8
Calque 1
10
441.289232
20
638.839075
11
441.409080
21
641.934900
0
LINE
8
Calque 1
10
441.409080
20
641.934900
11
441.293295
21
644.974725
0
LINE
8
Calque 1
10
441.293295
20
644.974725
11
440.779200
21
647.094300
0
LINE
8
Calque 1
10
440.779200
20
647.094300
11
439.986165
21
649.127127
0
LINE
8
Calque 1
10
439.986165
20
649.127127
11
438.895256
21
651.425613
0
LINE
8
Calque 1
10
438.895256
20
651.425613
11
435.745200
21
656.966000
0
LINE
8
Calque 1
10
435.745200
20
656.966000
11
433.757249
21
660.357620
0
LINE
8
Calque 1
10
433.757249
20
660.357620
11
431.947921
21
663.763175
0
LINE
8
Calque 1
10
431.947921
20
663.763175
11
430.318412
21
667.176205
0
LINE
8
Calque 1
10
430.318412
20
667.176205
11
428.869920
21
670.590253
0
LINE
8
Calque 1
10
428.869920
20
670.590253
11
427.603644
21
673.998860
0
LINE
8
Calque 1
10
427.603644
20
673.998860
11
426.520782
21
677.395568
0
LINE
8
Calque 1
10
426.520782
20
677.395568
11
425.622530
21
680.773917
0
LINE
8
Calque 1
10
425.622530
20
680.773917
11
424.910087
21
684.127450
0
LINE
8
Calque 1
10
424.910087
20
684.127450
11
424.384651
21
687.449708
0
LINE
8
Calque 1
10
424.384651
20
687.449708
11
424.047420
21
690.734232
0
LINE
8
Calque 1
10
424.047420
20
690.734232
11
423.899590
21
693.974565
0
LINE
8
Calque 1
10
423.899590
20
693.974565
11
423.942361
21
697.164247
0
LINE
8
Calque 1
10
423.942361
20
697.164247
11
424.176929
21
700.296820
0
LINE
8
Calque 1
10
424.176929
20
700.296820
11
424.604494
21
703.365825
0
LINE
8
Calque 1
10
424.604494
20
703.365825
11
425.226251
21
706.364805
0
LINE
8
Calque 1
10
425.226251
20
706.364805
11
426.043400
21
709.287300
0
LINE
8
Calque 1
10
426.043400
20
709.287300
11
426.553770
21
711.255800
0
LINE
8
Calque 1
10
426.553770
20
711.255800
11
425.416690
21
710.734200
0
LINE
8
Calque 1
10
425.416690
20
710.734200
11
424.420904
21
710.119431
0
LINE
8
Calque 1
10
424.420904
20
710.119431
11
423.433782
21
709.304568
0
LINE
8
Calque 1
10
423.433782
20
709.304568
11
421.516207
21
707.144280
0
LINE
8
Calque 1
10
421.516207
20
707.144280
11
419.725318
21
704.392774
0
LINE
8
Calque 1
10
419.725318
20
704.392774
11
418.122466
21
701.189488
0
LINE
8
Calque 1
10
418.122466
20
701.189488
11
416.769005
21
697.673859
0
LINE
8
Calque 1
10
416.769005
20
697.673859
11
415.726287
21
693.985327
0
LINE
8
Calque 1
10
415.726287
20
693.985327
11
415.055665
21
690.263328
0
LINE
8
Calque 1
10
415.055665
20
690.263328
11
414.818490
21
686.647300
0
LINE
8
Calque 1
10
414.818490
20
686.647300
11
414.883625
21
684.232878
0
LINE
8
Calque 1
10
414.883625
20
684.232878
11
415.091092
21
681.973070
0
LINE
8
Calque 1
10
415.091092
20
681.973070
11
415.458989
21
679.807699
0
LINE
8
Calque 1
10
415.458989
20
679.807699
11
416.005410
21
677.676588
0
LINE
8
Calque 1
10
416.005410
20
677.676588
11
416.748451
21
675.519559
0
LINE
8
Calque 1
10
416.748451
20
675.519559
11
417.706207
21
673.276436
0
LINE
8
Calque 1
10
417.706207
20
673.276436
11
420.338250
21
668.291200
0
LINE
8
Calque 1
10
420.338250
20
668.291200
11
422.080421
21
665.055436
0
LINE
8
Calque 1
10
422.080421
20
665.055436
11
423.183422
21
662.374588
0
LINE
8
Calque 1
10
423.183422
20
662.374588
11
423.761091
21
659.899445
0
LINE
8
Calque 1
10
423.761091
20
659.899445
11
423.927260
21
657.280800
0
LINE
8
Calque 1
10
423.927260
20
657.280800
11
423.820800
21
654.815425
0
LINE
8
Calque 1
10
423.820800
20
654.815425
11
423.644514
21
654.091116
0
LINE
8
Calque 1
10
423.644514
20
654.091116
11
423.346780
21
653.444300
0
LINE
8
Calque 1
10
423.346780
20
653.444300
11
422.693628
21
652.390133
0
LINE
8
Calque 1
10
422.693628
20
652.390133
11
422.011835
21
651.586513
0
LINE
8
Calque 1
10
422.011835
20
651.586513
11
421.279768
21
651.028348
0
LINE
8
Calque 1
10
421.279768
20
651.028348
11
420.475792
21
650.710550
0
LINE
8
Calque 1
10
420.475792
20
650.710550
11
419.578276
21
650.628027
0
LINE
8
Calque 1
10
419.578276
20
650.628027
11
418.565586
21
650.775688
0
LINE
8
Calque 1
10
418.565586
20
650.775688
11
417.416089
21
651.148442
0
LINE
8
Calque 1
10
417.416089
20
651.148442
11
416.108150
21
651.741200
0
LINE
8
Calque 1
10
416.108150
20
651.741200
11
413.832860
21
652.679200
0
LINE
8
Calque 1
10
413.832860
20
652.679200
11
414.055180
21
650.744200
0
LINE
8
Calque 1
10
414.055180
20
650.744200
11
414.328317
21
647.714450
0
LINE
8
Calque 1
10
414.328317
20
647.714450
11
414.418110
21
642.067200
0
LINE
8
Calque 1
10
414.418110
20
642.067200
11
414.330010
21
636.073988
0
LINE
8
Calque 1
10
414.330010
20
636.073988
11
414.181607
21
634.414683
0
LINE
8
Calque 1
10
414.181607
20
634.414683
11
413.932610
21
633.071400
0
LINE
8
Calque 1
10
413.932610
20
633.071400
11
413.100055
21
630.349759
0
LINE
8
Calque 1
10
413.100055
20
630.349759
11
411.978121
21
628.125500
0
LINE
8
Calque 1
10
411.978121
20
628.125500
11
410.574512
21
626.410641
0
LINE
8
Calque 1
10
410.574512
20
626.410641
11
408.896930
21
625.217200
0
LINE
8
Calque 1
10
408.896930
20
625.217200
11
407.652273
21
624.803455
0
LINE
8
Calque 1
10
407.652273
20
624.803455
11
406.015984
21
624.567338
0
LINE
8
Calque 1
10
406.015984
20
624.567338
11
404.231118
21
624.528377
0
LINE
8
Calque 1
10
404.231118
20
624.528377
11
402.540730
21
624.706100
0
LINE
8
Calque 1
10
402.540730
20
624.706100
11
401.594176
21
624.847781
0
LINE
8
Calque 1
10
401.594176
20
624.847781
11
400.877731
21
624.782195
0
LINE
8
Calque 1
10
400.877731
20
624.782195
11
400.359135
21
624.375953
0
LINE
8
Calque 1
10
400.359135
20
624.375953
11
400.006130
21
623.495663
0
LINE
8
Calque 1
10
400.006130
20
623.495663
11
399.786456
21
622.007933
0
LINE
8
Calque 1
10
399.786456
20
622.007933
11
399.667854
21
619.779373
0
LINE
8
Calque 1
10
399.667854
20
619.779373
11
399.604830
21
612.566200
0
LINE
8
Calque 1
10
399.604830
20
612.566200
11
399.510032
21
604.016913
0
LINE
8
Calque 1
10
399.510032
20
604.016913
11
399.334698
21
602.218352
0
LINE
8
Calque 1
10
399.334698
20
602.218352
11
399.012350
21
600.850000
0
LINE
8
Calque 1
10
399.012350
20
600.850000
11
397.900660
21
597.590700
0
LINE
8
Calque 1
10
397.900660
20
597.590700
11
397.335032
21
596.608625
0
LINE
8
Calque 1
10
397.335032
20
596.608625
11
397.039841
21
596.469047
0
LINE
8
Calque 1
10
397.039841
20
596.469047
11
396.635200
21
596.474500
0
LINE
8
Calque 1
10
396.635200
20
596.474500
11
396.060437
21
596.684775
0
LINE
8
Calque 1
10
396.060437
20
596.684775
11
395.839385
21
597.277850
0
LINE
8
Calque 1
10
395.839385
20
597.277850
11
395.960566
21
598.457425
0
LINE
8
Calque 1
10
395.960566
20
598.457425
11
396.412500
21
600.427200
0
LINE
8
Calque 1
10
396.412500
20
600.427200
11
396.883074
21
602.863656
0
LINE
8
Calque 1
10
396.883074
20
602.863656
11
397.091146
21
605.273600
0
LINE
8
Calque 1
10
397.091146
20
605.273600
11
397.029761
21
607.439944
0
LINE
8
Calque 1
10
397.029761
20
607.439944
11
396.691960
21
609.145600
0
LINE
8
Calque 1
10
396.691960
20
609.145600
11
395.834402
21
610.734775
0
LINE
8
Calque 1
10
395.834402
20
610.734775
11
394.333540
21
612.910300
0
LINE
8
Calque 1
10
394.333540
20
612.910300
11
392.789120
21
615.083988
0
LINE
8
Calque 1
10
392.789120
20
615.083988
11
391.826820
21
616.668700
0
LINE
8
Calque 1
10
391.826820
20
616.668700
11
391.278676
21
618.200630
0
LINE
8
Calque 1
10
391.278676
20
618.200630
11
390.957380
21
619.973263
0
LINE
8
Calque 1
10
390.957380
20
619.973263
11
390.864714
21
621.970389
0
LINE
8
Calque 1
10
390.864714
20
621.970389
11
391.002460
21
624.175800
0
LINE
8
Calque 1
10
391.002460
20
624.175800
11
391.438798
21
627.024144
0
LINE
8
Calque 1
10
391.438798
20
627.024144
11
392.116127
21
629.412025
0
LINE
8
Calque 1
10
392.116127
20
629.412025
11
393.132318
21
631.604119
0
LINE
8
Calque 1
10
393.132318
20
631.604119
11
394.585240
21
633.865100
0
LINE
8
Calque 1
10
394.585240
20
633.865100
11
395.648682
21
635.232083
0
LINE
8
Calque 1
10
395.648682
20
635.232083
11
396.916960
21
636.554713
0
LINE
8
Calque 1
10
396.916960
20
636.554713
11
401.260390
21
640.198100
0
LINE
8
Calque 1
10
401.260390
20
640.198100
11
404.025131
21
642.564288
0
LINE
8
Calque 1
10
404.025131
20
642.564288
11
404.977234
21
643.569261
0
LINE
8
Calque 1
10
404.977234
20
643.569261
11
405.680272
21
644.515350
0
LINE
8
Calque 1
10
405.680272
20
644.515350
11
406.162581
21
645.447452
0
LINE
8
Calque 1
10
406.162581
20
645.447452
11
406.452496
21
646.410463
0
LINE
8
Calque 1
10
406.452496
20
646.410463
11
406.578350
21
647.449280
0
LINE
8
Calque 1
10
406.578350
20
647.449280
11
406.568480
21
648.608800
0
LINE
8
Calque 1
10
406.568480
20
648.608800
11
406.362886
21
650.283395
0
LINE
8
Calque 1
10
406.362886
20
650.283395
11
405.871197
21
651.663963
0
LINE
8
Calque 1
10
405.871197
20
651.663963
11
404.965040
21
652.999998
0
LINE
8
Calque 1
10
404.965040
20
652.999998
11
403.516040
21
654.541000
0
LINE
8
Calque 1
10
403.516040
20
654.541000
11
402.136382
21
656.005725
0
LINE
8
Calque 1
10
402.136382
20
656.005725
11
401.307285
21
657.248375
0
LINE
8
Calque 1
10
401.307285
20
657.248375
11
400.902448
21
658.526988
0
LINE
8
Calque 1
10
400.902448
20
658.526988
11
400.795570
21
660.099600
0
LINE
8
Calque 1
10
400.795570
20
660.099600
11
401.051167
21
662.929789
0
LINE
8
Calque 1
10
401.051167
20
662.929789
11
401.399802
21
664.292065
0
LINE
8
Calque 1
10
401.399802
20
664.292065
11
401.921564
21
665.678688
0
LINE
8
Calque 1
10
401.921564
20
665.678688
11
403.562171
21
668.703642
0
LINE
8
Calque 1
10
403.562171
20
668.703642
11
406.128400
21
672.362000
0
LINE
8
Calque 1
10
406.128400
20
672.362000
11
408.848976
21
676.302959
0
LINE
8
Calque 1
10
408.848976
20
676.302959
11
409.784458
21
678.014285
0
LINE
8
Calque 1
10
409.784458
20
678.014285
11
410.472686
21
679.655075
0
LINE
8
Calque 1
10
410.472686
20
679.655075
11
410.940625
21
681.302006
0
LINE
8
Calque 1
10
410.940625
20
681.302006
11
411.215238
21
683.031753
0
LINE
8
Calque 1
10
411.215238
20
683.031753
11
411.323488
21
684.920993
0
LINE
8
Calque 1
10
411.323488
20
684.920993
11
411.292340
21
687.046400
0
LINE
8
Calque 1
10
411.292340
20
687.046400
11
411.142179
21
689.382820
0
LINE
8
Calque 1
10
411.142179
20
689.382820
11
410.862082
21
691.414056
0
LINE
8
Calque 1
10
410.862082
20
691.414056
11
410.401004
21
693.247133
0
LINE
8
Calque 1
10
410.401004
20
693.247133
11
409.707895
21
694.989075
0
LINE
8
Calque 1
10
409.707895
20
694.989075
11
408.731708
21
696.746908
0
LINE
8
Calque 1
10
408.731708
20
696.746908
11
407.421395
21
698.627656
0
LINE
8
Calque 1
10
407.421395
20
698.627656
11
403.594200
21
703.186000
0
LINE
8
Calque 1
10
403.594200
20
703.186000
11
400.135480
21
707.350537
0
LINE
8
Calque 1
10
400.135480
20
707.350537
11
398.974013
21
709.078117
0
LINE
8
Calque 1
10
398.974013
20
709.078117
11
397.958090
21
710.887700
0
LINE
8
Calque 1
10
397.958090
20
710.887700
11
397.070284
21
712.762250
0
LINE
8
Calque 1
10
397.070284
20
712.762250
11
396.436610
21
714.641975
0
LINE
8
Calque 1
10
396.436610
20
714.641975
11
395.915818
21
717.051687
0
LINE
8
Calque 1
10
395.915818
20
717.051687
11
395.366660
21
720.516200
0
LINE
8
Calque 1
10
395.366660
20
720.516200
11
394.526556
21
725.493155
0
LINE
8
Calque 1
10
394.526556
20
725.493155
11
393.635260
21
729.330362
0
LINE
8
Calque 1
10
393.635260
20
729.330362
11
392.704747
21
731.985139
0
LINE
8
Calque 1
10
392.704747
20
731.985139
11
392.228526
21
732.855777
0
LINE
8
Calque 1
10
392.228526
20
732.855777
11
391.746990
21
733.414800
0
LINE
8
Calque 1
10
391.746990
20
733.414800
11
391.577086
21
733.454578
0
LINE
8
Calque 1
10
391.577086
20
733.454578
11
391.519771
21
733.111275
0
LINE
8
Calque 1
10
391.519771
20
733.111275
11
391.741990
21
730.752300
0
LINE
8
Calque 1
10
391.741990
20
730.752300
11
391.980377
21
727.018211
0
LINE
8
Calque 1
10
391.980377
20
727.018211
11
391.971935
21
722.572887
0
LINE
8
Calque 1
10
391.971935
20
722.572887
11
391.739903
21
718.262395
0
LINE
8
Calque 1
10
391.739903
20
718.262395
11
391.307520
21
714.932800
0
LINE
8
Calque 1
10
391.307520
20
714.932800
11
390.492894
21
711.585826
0
LINE
8
Calque 1
10
390.492894
20
711.585826
11
389.462557
21
708.495206
0
LINE
8
Calque 1
10
389.462557
20
708.495206
11
388.188016
21
705.616471
0
LINE
8
Calque 1
10
388.188016
20
705.616471
11
386.640780
21
702.905150
0
LINE
8
Calque 1
10
386.640780
20
702.905150
11
384.792355
21
700.316773
0
LINE
8
Calque 1
10
384.792355
20
700.316773
11
382.614248
21
697.806869
0
LINE
8
Calque 1
10
382.614248
20
697.806869
11
380.077968
21
695.330968
0
LINE
8
Calque 1
10
380.077968
20
695.330968
11
377.155020
21
692.844600
0
LINE
8
Calque 1
10
377.155020
20
692.844600
11
371.705829
21
688.732612
0
LINE
8
Calque 1
10
371.705829
20
688.732612
11
365.738620
21
685.071300
0
LINE
8
Calque 1
10
365.738620
20
685.071300
11
360.185143
21
681.697203
0
LINE
8
Calque 1
10
360.185143
20
681.697203
11
358.101983
21
680.254222
0
LINE
8
Calque 1
10
358.101983
20
680.254222
11
356.403260
21
678.906700
0
LINE
8
Calque 1
10
356.403260
20
678.906700
11
355.030513
21
677.604196
0
LINE
8
Calque 1
10
355.030513
20
677.604196
11
353.925282
21
676.296272
0
LINE
8
Calque 1
10
353.925282
20
676.296272
11
353.029104
21
674.932486
0
LINE
8
Calque 1
10
353.029104
20
674.932486
11
352.283520
21
673.462400
0
LINE
8
Calque 1
10
352.283520
20
673.462400
11
351.502014
21
671.227607
0
LINE
8
Calque 1
10
351.502014
20
671.227607
11
351.039989
21
668.784034
0
LINE
8
Calque 1
10
351.039989
20
668.784034
11
350.889605
21
666.200732
0
LINE
8
Calque 1
10
350.889605
20
666.200732
11
351.043024
21
663.546750
0
LINE
8
Calque 1
10
351.043024
20
663.546750
11
351.492405
21
660.891136
0
LINE
8
Calque 1
10
351.492405
20
660.891136
11
352.229910
21
658.302941
0
LINE
8
Calque 1
10
352.229910
20
658.302941
11
353.247698
21
655.851212
0
LINE
8
Calque 1
10
353.247698
20
655.851212
11
354.537930
21
653.605000
0
LINE
8
Calque 1
10
354.537930
20
653.605000
11
355.906148
21
651.799389
0
LINE
8
Calque 1
10
355.906148
20
651.799389
11
357.502350
21
650.093578
0
LINE
8
Calque 1
10
357.502350
20
650.093578
11
359.281145
21
648.518084
0
LINE
8
Calque 1
10
359.281145
20
648.518084
11
361.197139
21
647.103425
0
LINE
8
Calque 1
10
361.197139
20
647.103425
11
363.204937
21
645.880119
0
LINE
8
Calque 1
10
363.204937
20
645.880119
11
365.259148
21
644.878684
0
LINE
8
Calque 1
10
365.259148
20
644.878684
11
367.314376
21
644.129639
0
LINE
8
Calque 1
10
367.314376
20
644.129639
11
369.325230
21
643.663500
0
LINE
8
Calque 1
10
369.325230
20
643.663500
11
370.501140
21
643.476100
0
LINE
8
Calque 1
10
370.501140
20
643.476100
11
368.703750
21
645.118200
0
LINE
8
Calque 1
10
368.703750
20
645.118200
11
367.340193
21
646.515878
0
LINE
8
Calque 1
10
367.340193
20
646.515878
11
366.380835
21
647.888825
0
LINE
8
Calque 1
10
366.380835
20
647.888825
11
365.756742
21
649.360884
0
LINE
8
Calque 1
10
365.756742
20
649.360884
11
365.398980
21
651.055900
0
LINE
8
Calque 1
10
365.398980
20
651.055900
11
365.297098
21
652.806415
0
LINE
8
Calque 1
10
365.297098
20
652.806415
11
365.471186
21
654.388286
0
LINE
8
Calque 1
10
365.471186
20
654.388286
11
365.906081
21
655.781155
0
LINE
8
Calque 1
10
365.906081
20
655.781155
11
366.586624
21
656.964663
0
LINE
8
Calque 1
10
366.586624
20
656.964663
11
367.497652
21
657.918450
0
LINE
8
Calque 1
10
367.497652
20
657.918450
11
368.624005
21
658.622158
0
LINE
8
Calque 1
10
368.624005
20
658.622158
11
369.950521
21
659.055428
0
LINE
8
Calque 1
10
369.950521
20
659.055428
11
371.462040
21
659.197900
0
LINE
8
Calque 1
10
371.462040
20
659.197900
11
372.535755
21
659.103393
0
LINE
8
Calque 1
10
372.535755
20
659.103393
11
373.545757
21
658.838969
0
LINE
8
Calque 1
10
373.545757
20
658.838969
11
374.481675
21
658.413023
0
LINE
8
Calque 1
10
374.481675
20
658.413023
11
375.333137
21
657.833950
0
LINE
8
Calque 1
10
375.333137
20
657.833950
11
376.089773
21
657.110146
0
LINE
8
Calque 1
10
376.089773
20
657.110146
11
376.741209
21
656.250006
0
LINE
8
Calque 1
10
376.741209
20
656.250006
11
377.277076
21
655.261926
0
LINE
8
Calque 1
10
377.277076
20
655.261926
11
377.687000
21
654.154300
0
LINE
8
Calque 1
10
377.687000
20
654.154300
11
378.085908
21
652.514551
0
LINE
8
Calque 1
10
378.085908
20
652.514551
11
378.305389
21
650.907208
0
LINE
8
Calque 1
10
378.305389
20
650.907208
11
378.345253
21
649.331001
0
LINE
8
Calque 1
10
378.345253
20
649.331001
11
378.205310
21
647.784663
0
LINE
8
Calque 1
10
378.205310
20
647.784663
11
377.885369
21
646.266922
0
LINE
8
Calque 1
10
377.885369
20
646.266922
11
377.385238
21
644.776511
0
LINE
8
Calque 1
10
377.385238
20
644.776511
11
376.704729
21
643.312160
0
LINE
8
Calque 1
10
376.704729
20
643.312160
11
375.843650
21
641.872600
0
LINE
8
Calque 1
10
375.843650
20
641.872600
11
373.761600
21
639.353813
0
LINE
8
Calque 1
10
373.761600
20
639.353813
11
370.306990
21
635.625500
0
LINE
8
Calque 1
10
370.306990
20
635.625500
11
367.323244
21
632.425422
0
LINE
8
Calque 1
10
367.323244
20
632.425422
11
365.156260
21
629.822850
0
LINE
8
Calque 1
10
365.156260
20
629.822850
11
363.653521
21
627.618003
0
LINE
8
Calque 1
10
363.653521
20
627.618003
11
362.662510
21
625.611100
0
LINE
8
Calque 1
10
362.662510
20
625.611100
11
362.167999
21
623.834950
0
LINE
8
Calque 1
10
362.167999
20
623.834950
11
362.042870
21
621.297400
0
LINE
8
Calque 1
10
362.042870
20
621.297400
11
362.143529
21
618.802662
0
LINE
8
Calque 1
10
362.143529
20
618.802662
11
362.328959
21
618.062983
0
LINE
8
Calque 1
10
362.328959
20
618.062983
11
362.650440
21
617.364900
0
LINE
8
Calque 1
10
362.650440
20
617.364900
11
363.515406
21
616.078675
0
LINE
8
Calque 1
10
363.515406
20
616.078675
11
364.749481
21
614.848175
0
LINE
8
Calque 1
10
364.749481
20
614.848175
11
366.466214
21
613.577138
0
LINE
8
Calque 1
10
366.466214
20
613.577138
11
368.779150
21
612.169300
0
LINE
8
Calque 1
10
368.779150
20
612.169300
11
372.268225
21
609.962706
0
LINE
8
Calque 1
10
372.268225
20
609.962706
11
373.528114
21
608.945268
0
LINE
8
Calque 1
10
373.528114
20
608.945268
11
374.500371
21
607.942450
0
LINE
8
Calque 1
10
374.500371
20
607.942450
11
375.211597
21
606.922288
0
LINE
8
Calque 1
10
375.211597
20
606.922288
11
375.688392
21
605.852819
0
LINE
8
Calque 1
10
375.688392
20
605.852819
11
375.957356
21
604.702077
0
LINE
8
Calque 1
10
375.957356
20
604.702077
11
376.045090
21
603.438100
0
LINE
8
Calque 1
10
376.045090
20
603.438100
11
375.900311
21
601.768831
0
LINE
8
Calque 1
10
375.900311
20
601.768831
11
375.378032
21
600.178575
0
LINE
8
Calque 1
10
375.378032
20
600.178575
11
374.370418
21
598.432131
0
LINE
8
Calque 1
10
374.370418
20
598.432131
11
372.769630
21
596.294300
0
LINE
8
Calque 1
10
372.769630
20
596.294300
11
371.042164
21
594.029424
0
LINE
8
Calque 1
10
371.042164
20
594.029424
11
369.648740
21
591.928661
0
LINE
8
Calque 1
10
369.648740
20
591.928661
11
368.561485
21
589.907621
0
LINE
8
Calque 1
10
368.561485
20
589.907621
11
367.752529
21
587.881912
0
LINE
8
Calque 1
10
367.752529
20
587.881912
11
367.193999
21
585.767147
0
LINE
8
Calque 1
10
367.193999
20
585.767147
11
366.858024
21
583.478933
0
LINE
8
Calque 1
10
366.858024
20
583.478933
11
366.716731
21
580.932881
0
LINE
8
Calque 1
10
366.716731
20
580.932881
11
366.742250
21
578.044600
0
LINE
8
Calque 1
10
366.742250
20
578.044600
11
367.012435
21
574.015520
0
LINE
8
Calque 1
10
367.012435
20
574.015520
11
367.600399
21
570.631562
0
LINE
8
Calque 1
10
367.600399
20
570.631562
11
368.606869
21
567.479823
0
LINE
8
Calque 1
10
368.606869
20
567.479823
11
370.132570
21
564.147400
0
LINE
8
Calque 1
10
370.132570
20
564.147400
11
371.769165
21
561.308394
0
LINE
8
Calque 1
10
371.769165
20
561.308394
11
373.903920
21
558.475500
0
LINE
8
Calque 1
10
373.903920
20
558.475500
11
377.028075
21
555.065556
0
LINE
8
Calque 1
10
377.028075
20
555.065556
11
381.632870
21
550.495400
0
LINE
8
Calque 1
10
381.632870
20
550.495400
11
386.143810
21
546.022363
0
LINE
8
Calque 1
10
386.143810
20
546.022363
11
389.215106
21
542.687225
0
LINE
8
Calque 1
10
389.215106
20
542.687225
11
391.324634
21
539.927825
0
LINE
8
Calque 1
10
391.324634
20
539.927825
11
392.950270
21
537.182000
0
LINE
8
Calque 1
10
392.950270
20
537.182000
11
393.713914
21
535.579409
0
LINE
8
Calque 1
10
393.713914
20
535.579409
11
394.102004
21
534.363275
0
LINE
8
Calque 1
10
394.102004
20
534.363275
11
394.122592
21
533.492478
0
LINE
8
Calque 1
10
394.122592
20
533.492478
11
393.783730
21
532.925900
0
LINE
8
Calque 1
10
393.783730
20
532.925900
11
393.194012
21
532.643941
0
LINE
8
Calque 1
10
393.194012
20
532.643941
11
392.407169
21
532.697850
0
LINE
8
Calque 1
10
392.407169
20
532.697850
11
391.305849
21
533.117009
0
LINE
8
Calque 1
10
391.305849
20
533.117009
11
389.772700
21
533.930800
0
LINE
8
Calque 1
10
389.772700
20
533.930800
11
386.212193
21
535.744360
0
LINE
8
Calque 1
10
386.212193
20
535.744360
11
382.288210
21
537.372784
0
LINE
8
Calque 1
10
382.288210
20
537.372784
11
378.208802
21
538.765892
0
LINE
8
Calque 1
10
378.208802
20
538.765892
11
374.182017
21
539.873500
0
LINE
8
Calque 1
10
374.182017
20
539.873500
11
370.415906
21
540.645427
0
LINE
8
Calque 1
10
370.415906
20
540.645427
11
367.118516
21
541.031491
0
LINE
8
Calque 1
10
367.118516
20
541.031491
11
364.497898
21
540.981509
0
LINE
8
Calque 1
10
364.497898
20
540.981509
11
363.506393
21
540.777319
0
LINE
8
Calque 1
10
363.506393
20
540.777319
11
362.762100
21
540.445300
0
LINE
8
Calque 1
10
362.762100
20
540.445300
11
362.166790
21
539.861000
0
LINE
8
Calque 1
10
362.166790
20
539.861000
11
363.262590
21
538.345700
0
LINE
8
Calque 1
10
363.262590
20
538.345700
11
364.529462
21
536.377875
0
LINE
8
Calque 1
10
364.529462
20
536.377875
11
366.036560
21
533.497600
0
LINE
8
Calque 1
10
366.036560
20
533.497600
11
367.472419
21
530.650917
0
LINE
8
Calque 1
10
367.472419
20
530.650917
11
368.812887
21
528.361288
0
LINE
8
Calque 1
10
368.812887
20
528.361288
11
370.082912
21
526.589889
0
LINE
8
Calque 1
10
370.082912
20
526.589889
11
371.307440
21
525.297900
0
LINE
8
Calque 1
10
371.307440
20
525.297900
11
372.363202
21
524.504470
0
LINE
8
Calque 1
10
372.363202
20
524.504470
11
373.316321
21
524.116612
0
LINE
8
Calque 1
10
373.316321
20
524.116612
11
374.263548
21
524.114498
0
LINE
8
Calque 1
10
374.263548
20
524.114498
11
375.301630
21
524.478300
0
LINE
8
Calque 1
10
375.301630
20
524.478300
11
376.305309
21
524.880095
0
LINE
8
Calque 1
10
376.305309
20
524.880095
11
376.975769
21
524.858338
0
LINE
8
Calque 1
10
376.975769
20
524.858338
11
377.462020
21
524.343961
0
LINE
8
Calque 1
10
377.462020
20
524.343961
11
377.913070
21
523.267900
0
LINE
8
Calque 1
10
377.913070
20
523.267900
11
378.985615
21
520.718612
0
LINE
8
Calque 1
10
378.985615
20
520.718612
11
380.585110
21
518.199700
0
LINE
8
Calque 1
10
380.585110
20
518.199700
11
382.578696
21
515.889000
0
LINE
8
Calque 1
10
382.578696
20
515.889000
11
383.532192
21
515.017019
0
LINE
8
Calque 1
10
383.532192
20
515.017019
11
384.119950
21
514.670300
0
LINE
8
Calque 1
10
384.119950
20
514.670300
11
384.583690
21
515.794800
0
LINE
8
Calque 1
10
384.583690
20
515.794800
11
385.120306
21
517.040325
0
LINE
8
Calque 1
10
385.120306
20
517.040325
11
385.986870
21
518.455800
0
LINE
8
Calque 1
10
385.986870
20
518.455800
11
387.013594
21
519.692500
0
LINE
8
Calque 1
10
387.013594
20
519.692500
11
387.388022
21
519.893719
0
LINE
8
Calque 1
10
387.388022
20
519.893719
11
387.786240
21
519.911000
0
LINE
8
Calque 1
10
387.786240
20
519.911000
11
388.190874
21
519.786180
0
LINE
8
Calque 1
10
388.190874
20
519.786180
11
388.525322
21
519.384337
0
LINE
8
Calque 1
10
388.525322
20
519.384337
11
389.443820
21
516.919300
0
LINE
8
Calque 1
10
389.443820
20
516.919300
11
390.370795
21
514.287650
0
LINE
8
Calque 1
10
390.370795
20
514.287650
11
391.233781
21
512.236970
0
LINE
8
Calque 1
10
391.233781
20
512.236970
11
392.052137
21
510.750790
0
LINE
8
Calque 1
10
392.052137
20
510.750790
11
392.845220
21
509.812637
0
LINE
8
Calque 1
10
392.845220
20
509.812637
11
393.632390
21
509.406043
0
LINE
8
Calque 1
10
393.632390
20
509.406043
11
394.433004
21
509.514536
0
LINE
8
Calque 1
10
394.433004
20
509.514536
11
395.266421
21
510.121645
0
LINE
8
Calque 1
10
395.266421
20
510.121645
11
396.152000
21
511.210900
0
LINE
8
Calque 1
10
396.152000
20
511.210900
11
397.000773
21
512.167606
0
LINE
8
Calque 1
10
397.000773
20
512.167606
11
397.392091
21
512.327582
0
LINE
8
Calque 1
10
397.392091
20
512.327582
11
397.794170
21
512.260800
0
LINE
8
Calque 1
10
397.794170
20
512.260800
11
398.729032
21
511.403444
0
LINE
8
Calque 1
10
398.729032
20
511.403444
11
400.002200
21
509.508500
0
LINE
8
Calque 1
10
400.002200
20
509.508500
11
401.059600
21
508.067375
0
LINE
8
Calque 1
10
401.059600
20
508.067375
11
402.301470
21
506.709200
0
LINE
8
Calque 1
10
402.301470
20
506.709200
11
403.613636
21
505.646412
0
LINE
8
Calque 1
10
403.613636
20
505.646412
11
404.128258
21
505.457989
0
LINE
8
Calque 1
10
404.128258
20
505.457989
11
404.712480
21
505.409900
0
LINE
8
Calque 1
10
404.712480
20
505.409900
11
405.564487
21
505.553892
0
LINE
8
Calque 1
10
405.564487
20
505.553892
11
406.448745
21
505.988462
0
LINE
8
Calque 1
10
406.448745
20
505.988462
11
407.371305
21
506.717502
0
LINE
8
Calque 1
10
407.371305
20
506.717502
11
408.338220
21
507.744900
0
LINE
8
Calque 1
10
408.338220
20
507.744900
11
409.171673
21
508.484742
0
LINE
8
Calque 1
10
409.171673
20
508.484742
11
409.534161
21
508.599367
0
LINE
8
Calque 1
10
409.534161
20
508.599367
11
409.862036
21
508.543087
0
LINE
8
Calque 1
10
409.862036
20
508.543087
11
410.418594
21
507.915689
0
LINE
8
Calque 1
10
410.418594
20
507.915689
11
410.850630
21
506.598300
0
LINE
8
Calque 1
10
410.850630
20
506.598300
11
411.224777
21
505.403075
0
LINE
8
Calque 1
10
411.224777
20
505.403075
11
411.714080
21
504.360100
0
LINE
8
Calque 1
10
411.714080
20
504.360100
11
413.519297
21
502.121250
0
LINE
8
Calque 1
10
413.519297
20
502.121250
11
414.517209
21
501.084072
0
LINE
8
Calque 1
10
414.517209
20
501.084072
11
415.083450
21
500.647400
0
LINE
8
Calque 1
10
415.083450
20
500.647400
11
416.576390
21
502.036500
0
LINE
8
Calque 1
10
416.576390
20
502.036500
11
416.575950
21
502.036500
0
LINE
8
Calque 1
10
439.461950
20
532.147600
11
438.079919
21
532.505548
0
LINE
8
Calque 1
10
438.079919
20
532.505548
11
436.815981
21
533.032688
0
LINE
8
Calque 1
10
436.815981
20
533.032688
11
435.810533
21
533.657758
0
LINE
8
Calque 1
10
435.810533
20
533.657758
11
435.203970
21
534.309500
0
LINE
8
Calque 1
10
435.203970
20
534.309500
11
434.951185
21
535.194075
0
LINE
8
Calque 1
10
434.951185
20
535.194075
11
435.173570
21
536.804200
0
LINE
8
Calque 1
10
435.173570
20
536.804200
11
435.635699
21
538.632156
0
LINE
8
Calque 1
10
435.635699
20
538.632156
11
436.301723
21
540.543475
0
LINE
8
Calque 1
10
436.301723
20
540.543475
11
437.105285
21
542.369406
0
LINE
8
Calque 1
10
437.105285
20
542.369406
11
437.980030
21
543.941200
0
LINE
8
Calque 1
10
437.980030
20
543.941200
11
439.121870
21
545.450887
0
LINE
8
Calque 1
10
439.121870
20
545.450887
11
440.605875
21
547.029725
0
LINE
8
Calque 1
10
440.605875
20
547.029725
11
442.215498
21
548.466625
0
LINE
8
Calque 1
10
442.215498
20
548.466625
11
443.734190
21
549.550500
0
LINE
8
Calque 1
10
443.734190
20
549.550500
11
446.491745
21
551.004447
0
LINE
8
Calque 1
10
446.491745
20
551.004447
11
449.524295
21
552.159575
0
LINE
8
Calque 1
10
449.524295
20
552.159575
11
453.239518
21
553.145241
0
LINE
8
Calque 1
10
453.239518
20
553.145241
11
458.045090
21
554.090800
0
LINE
8
Calque 1
10
458.045090
20
554.090800
11
464.354660
21
555.448900
0
LINE
8
Calque 1
10
464.354660
20
555.448900
11
465.630775
21
555.791362
0
LINE
8
Calque 1
10
465.630775
20
555.791362
11
466.423031
21
555.833000
0
LINE
8
Calque 1
10
466.423031
20
555.833000
11
466.827749
21
555.554762
0
LINE
8
Calque 1
10
466.827749
20
555.554762
11
466.941250
21
554.937600
0
LINE
8
Calque 1
10
466.941250
20
554.937600
11
466.384080
21
552.021700
0
LINE
8
Calque 1
10
466.384080
20
552.021700
11
465.185870
21
548.140100
0
LINE
8
Calque 1
10
465.185870
20
548.140100
11
463.942070
21
545.286151
0
LINE
8
Calque 1
10
463.942070
20
545.286151
11
462.426288
21
542.663394
0
LINE
8
Calque 1
10
462.426288
20
542.663394
11
460.655179
21
540.287340
0
LINE
8
Calque 1
10
460.655179
20
540.287340
11
458.645398
21
538.173500
0
LINE
8
Calque 1
10
458.645398
20
538.173500
11
456.413600
21
536.337385
0
LINE
8
Calque 1
10
456.413600
20
536.337385
11
453.976443
21
534.794506
0
LINE
8
Calque 1
10
453.976443
20
534.794506
11
451.350581
21
533.560374
0
LINE
8
Calque 1
10
451.350581
20
533.560374
11
448.552670
21
532.650500
0
LINE
8
Calque 1
10
448.552670
20
532.650500
11
446.400664
21
532.253673
0
LINE
8
Calque 1
10
446.400664
20
532.253673
11
443.883809
21
532.021837
0
LINE
8
Calque 1
10
443.883809
20
532.021837
11
441.428676
21
531.978608
0
LINE
8
Calque 1
10
441.428676
20
531.978608
11
439.461840
21
532.147600
0
LINE
8
Calque 1
10
439.461840
20
532.147600
11
439.461950
21
532.147600
0
LINE
8
Calque 1
10
360.883250
20
537.779000
11
360.199467
21
538.753933
0
LINE
8
Calque 1
10
360.199467
20
538.753933
11
359.942816
21
539.720534
0
LINE
8
Calque 1
10
359.942816
20
539.720534
11
360.081137
21
540.641306
0
LINE
8
Calque 1
10
360.081137
20
540.641306
11
360.582266
21
541.478750
0
LINE
8
Calque 1
10
360.582266
20
541.478750
11
361.414043
21
542.195369
0
LINE
8
Calque 1
10
361.414043
20
542.195369
11
362.544305
21
542.753666
0
LINE
8
Calque 1
10
362.544305
20
542.753666
11
363.940892
21
543.116142
0
LINE
8
Calque 1
10
363.940892
20
543.116142
11
365.571640
21
543.245300
0
LINE
8
Calque 1
10
365.571640
20
543.245300
11
367.311000
21
543.245000
0
LINE
8
Calque 1
10
367.311000
20
543.245000
11
365.657410
21
544.913500
0
LINE
8
Calque 1
10
365.657410
20
544.913500
11
364.027658
21
546.351688
0
LINE
8
Calque 1
10
364.027658
20
546.351688
11
363.341772
21
546.677852
0
LINE
8
Calque 1
10
363.341772
20
546.677852
11
362.490050
21
546.900000
0
LINE
8
Calque 1
10
362.490050
20
546.900000
11
360.910594
21
547.376650
0
LINE
8
Calque 1
10
360.910594
20
547.376650
11
359.238880
21
548.075900
0
LINE
8
Calque 1
10
359.238880
20
548.075900
11
357.501470
21
548.933600
0
LINE
8
Calque 1
10
357.501470
20
548.933600
11
358.118320
21
548.031000
0
LINE
8
Calque 1
10
358.118320
20
548.031000
11
358.527830
21
547.172678
0
LINE
8
Calque 1
10
358.527830
20
547.172678
11
358.517296
21
546.825489
0
LINE
8
Calque 1
10
358.517296
20
546.825489
11
358.350193
21
546.517625
0
LINE
8
Calque 1
10
358.350193
20
546.517625
11
357.507144
21
545.973909
0
LINE
8
Calque 1
10
357.507144
20
545.973909
11
355.920420
21
545.449600
0
LINE
8
Calque 1
10
355.920420
20
545.449600
11
353.703670
21
544.854300
0
LINE
8
Calque 1
10
353.703670
20
544.854300
11
357.405551
21
540.997575
0
LINE
8
Calque 1
10
357.405551
20
540.997575
11
361.349720
21
537.159600
0
LINE
8
Calque 1
10
361.349720
20
537.159600
11
360.883800
21
537.778700
0
LINE
8
Calque 1
10
360.883800
20
537.778700
11
360.883250
21
537.779000
0
LINE
8
Calque 1
10
503.258250
20
573.175700
11
501.604799
21
573.556513
0
LINE
8
Calque 1
10
501.604799
20
573.556513
11
499.730690
21
574.307000
0
LINE
8
Calque 1
10
499.730690
20
574.307000
11
497.932899
21
575.033437
0
LINE
8
Calque 1
10
497.932899
20
575.033437
11
496.423400
21
575.422600
0
LINE
8
Calque 1
10
496.423400
20
575.422600
11
495.119190
21
575.571500
0
LINE
8
Calque 1
10
495.119190
20
575.571500
11
489.024220
21
569.396400
0
LINE
8
Calque 1
10
489.024220
20
569.396400
11
483.785326
21
563.906025
0
LINE
8
Calque 1
10
483.785326
20
563.906025
11
482.278229
21
562.099284
0
LINE
8
Calque 1
10
482.278229
20
562.099284
11
481.116600
21
560.471100
0
LINE
8
Calque 1
10
481.116600
20
560.471100
11
478.330535
21
555.865730
0
LINE
8
Calque 1
10
478.330535
20
555.865730
11
476.387473
21
551.757337
0
LINE
8
Calque 1
10
476.387473
20
551.757337
11
475.720208
21
549.859423
0
LINE
8
Calque 1
10
475.720208
20
549.859423
11
475.249463
21
548.049652
0
LINE
8
Calque 1
10
475.249463
20
548.049652
11
474.970495
21
546.315988
0
LINE
8
Calque 1
10
474.970495
20
546.315988
11
474.878560
21
544.646400
0
LINE
8
Calque 1
10
474.878560
20
544.646400
11
474.879000
21
543.115000
0
LINE
8
Calque 1
10
474.879000
20
543.115000
11
489.831100
21
558.063100
0
LINE
8
Calque 1
10
489.831100
20
558.063100
11
504.783200
21
573.011200
0
LINE
8
Calque 1
10
504.783200
20
573.011200
11
503.258250
21
573.175700
0
LINE
8
Calque 1
10
353.287250
20
547.073300
11
355.236820
21
547.604800
0
LINE
8
Calque 1
10
355.236820
20
547.604800
11
353.760570
21
549.516500
0
LINE
8
Calque 1
10
353.760570
20
549.516500
11
351.624381
21
552.199595
0
LINE
8
Calque 1
10
351.624381
20
552.199595
11
350.104671
21
554.722838
0
LINE
8
Calque 1
10
350.104671
20
554.722838
11
349.189643
21
557.110011
0
LINE
8
Calque 1
10
349.189643
20
557.110011
11
348.867500
21
559.384900
0
LINE
8
Calque 1
10
348.867500
20
559.384900
11
349.054739
21
561.137898
0
LINE
8
Calque 1
10
349.054739
20
561.137898
11
349.588243
21
562.608287
0
LINE
8
Calque 1
10
349.588243
20
562.608287
11
350.353012
21
563.579758
0
LINE
8
Calque 1
10
350.353012
20
563.579758
11
350.786185
21
563.810802
0
LINE
8
Calque 1
10
350.786185
20
563.810802
11
351.234050
21
563.836000
0
LINE
8
Calque 1
10
351.234050
20
563.836000
11
351.557971
21
563.684541
0
LINE
8
Calque 1
10
351.557971
20
563.684541
11
351.820090
21
563.215550
0
LINE
8
Calque 1
10
351.820090
20
563.215550
11
352.519320
21
560.346300
0
LINE
8
Calque 1
10
352.519320
20
560.346300
11
353.129853
21
558.228214
0
LINE
8
Calque 1
10
353.129853
20
558.228214
11
354.022723
21
556.244163
0
LINE
8
Calque 1
10
354.022723
20
556.244163
11
355.193479
21
554.402405
0
LINE
8
Calque 1
10
355.193479
20
554.402405
11
356.637670
21
552.711200
0
LINE
8
Calque 1
10
356.637670
20
552.711200
11
357.792652
21
551.652463
0
LINE
8
Calque 1
10
357.792652
20
551.652463
11
359.029927
21
550.752447
0
LINE
8
Calque 1
10
359.029927
20
550.752447
11
360.351661
21
550.010395
0
LINE
8
Calque 1
10
360.351661
20
550.010395
11
361.760018
21
549.425550
0
LINE
8
Calque 1
10
361.760018
20
549.425550
11
363.257162
21
548.997155
0
LINE
8
Calque 1
10
363.257162
20
548.997155
11
364.845259
21
548.724453
0
LINE
8
Calque 1
10
364.845259
20
548.724453
11
366.526474
21
548.606687
0
LINE
8
Calque 1
10
366.526474
20
548.606687
11
368.302970
21
548.643100
0
LINE
8
Calque 1
10
368.302970
20
548.643100
11
372.129245
21
549.124188
0
LINE
8
Calque 1
10
372.129245
20
549.124188
11
373.756933
21
549.449739
0
LINE
8
Calque 1
10
373.756933
20
549.449739
11
374.550950
21
549.721000
0
LINE
8
Calque 1
10
374.550950
20
549.721000
11
372.075480
21
552.279800
0
LINE
8
Calque 1
10
372.075480
20
552.279800
11
369.273447
21
555.253083
0
LINE
8
Calque 1
10
369.273447
20
555.253083
11
366.930932
21
558.323369
0
LINE
8
Calque 1
10
366.930932
20
558.323369
11
365.036387
21
561.522702
0
LINE
8
Calque 1
10
365.036387
20
561.522702
11
363.578265
21
564.883125
0
LINE
8
Calque 1
10
363.578265
20
564.883125
11
362.545020
21
568.436683
0
LINE
8
Calque 1
10
362.545020
20
568.436683
11
361.925106
21
572.215419
0
LINE
8
Calque 1
10
361.925106
20
572.215419
11
361.706974
21
576.251377
0
LINE
8
Calque 1
10
361.706974
20
576.251377
11
361.879080
21
580.576600
0
LINE
8
Calque 1
10
361.879080
20
580.576600
11
362.181853
21
583.358711
0
LINE
8
Calque 1
10
362.181853
20
583.358711
11
362.621060
21
585.764463
0
LINE
8
Calque 1
10
362.621060
20
585.764463
11
363.226265
21
587.923033
0
LINE
8
Calque 1
10
363.226265
20
587.923033
11
364.027030
21
589.963600
0
LINE
8
Calque 1
10
364.027030
20
589.963600
11
364.820565
21
591.946577
0
LINE
8
Calque 1
10
364.820565
20
591.946577
11
365.415460
21
593.961587
0
LINE
8
Calque 1
10
365.415460
20
593.961587
11
365.848768
21
596.160480
0
LINE
8
Calque 1
10
365.848768
20
596.160480
11
366.157540
21
598.695100
0
LINE
8
Calque 1
10
366.157540
20
598.695100
11
366.382595
21
601.982555
0
LINE
8
Calque 1
10
366.382595
20
601.982555
11
366.336331
21
604.474513
0
LINE
8
Calque 1
10
366.336331
20
604.474513
11
365.998244
21
606.406989
0
LINE
8
Calque 1
10
365.998244
20
606.406989
11
365.347830
21
608.016000
0
LINE
8
Calque 1
10
365.347830
20
608.016000
11
364.311008
21
609.582352
0
LINE
8
Calque 1
10
364.311008
20
609.582352
11
362.955303
21
611.026763
0
LINE
8
Calque 1
10
362.955303
20
611.026763
11
361.339013
21
612.295992
0
LINE
8
Calque 1
10
361.339013
20
612.295992
11
359.520440
21
613.336800
0
LINE
8
Calque 1
10
359.520440
20
613.336800
11
358.367134
21
613.858033
0
LINE
8
Calque 1
10
358.367134
20
613.858033
11
357.456303
21
614.142613
0
LINE
8
Calque 1
10
357.456303
20
614.142613
11
355.022520
21
614.284000
0
LINE
8
Calque 1
10
355.022520
20
614.284000
11
352.635624
21
614.149287
0
LINE
8
Calque 1
10
352.635624
20
614.149287
11
350.772850
21
613.461300
0
LINE
8
Calque 1
10
350.772850
20
613.461300
11
349.295655
21
612.600212
0
LINE
8
Calque 1
10
349.295655
20
612.600212
11
347.885256
21
611.452400
0
LINE
8
Calque 1
10
347.885256
20
611.452400
11
346.565084
21
610.039837
0
LINE
8
Calque 1
10
346.565084
20
610.039837
11
345.358570
21
608.384500
0
LINE
8
Calque 1
10
345.358570
20
608.384500
11
344.513043
21
607.193587
0
LINE
8
Calque 1
10
344.513043
20
607.193587
11
343.957000
21
606.618800
0
LINE
8
Calque 1
10
343.957000
20
606.618800
11
343.463922
21
606.582889
0
LINE
8
Calque 1
10
343.463922
20
606.582889
11
343.019869
21
606.820737
0
LINE
8
Calque 1
10
343.019869
20
606.820737
11
342.691621
21
607.272692
0
LINE
8
Calque 1
10
342.691621
20
607.272692
11
342.545960
21
607.879100
0
LINE
8
Calque 1
10
342.545960
20
607.879100
11
342.589978
21
609.513330
0
LINE
8
Calque 1
10
342.589978
20
609.513330
11
343.007961
21
611.123437
0
LINE
8
Calque 1
10
343.007961
20
611.123437
11
343.968347
21
613.154352
0
LINE
8
Calque 1
10
343.968347
20
613.154352
11
345.639570
21
616.051000
0
LINE
8
Calque 1
10
345.639570
20
616.051000
11
347.585089
21
619.426439
0
LINE
8
Calque 1
10
347.585089
20
619.426439
11
348.695899
21
621.826812
0
LINE
8
Calque 1
10
348.695899
20
621.826812
11
349.199476
21
623.879580
0
LINE
8
Calque 1
10
349.199476
20
623.879580
11
349.323300
21
626.212200
0
LINE
8
Calque 1
10
349.323300
20
626.212200
11
349.311580
21
627.937817
0
LINE
8
Calque 1
10
349.311580
20
627.937817
11
349.192491
21
629.053937
0
LINE
8
Calque 1
10
349.192491
20
629.053937
11
348.863989
21
630.039014
0
LINE
8
Calque 1
10
348.863989
20
630.039014
11
348.224030
21
631.371500
0
LINE
8
Calque 1
10
348.224030
20
631.371500
11
347.096183
21
633.341842
0
LINE
8
Calque 1
10
347.096183
20
633.341842
11
345.704508
21
635.250412
0
LINE
8
Calque 1
10
345.704508
20
635.250412
11
344.044433
21
637.102827
0
LINE
8
Calque 1
10
344.044433
20
637.102827
11
342.111390
21
638.904700
0
LINE
8
Calque 1
10
342.111390
20
638.904700
11
339.690363
21
640.676312
0
LINE
8
Calque 1
10
339.690363
20
640.676312
11
336.239390
21
642.505900
0
LINE
8
Calque 1
10
336.239390
20
642.505900
11
333.394214
21
643.957844
0
LINE
8
Calque 1
10
333.394214
20
643.957844
11
331.507161
21
645.157675
0
LINE
8
Calque 1
10
331.507161
20
645.157675
11
330.288541
21
646.326344
0
LINE
8
Calque 1
10
330.288541
20
646.326344
11
329.448660
21
647.684800
0
LINE
8
Calque 1
10
329.448660
20
647.684800
11
328.925195
21
649.177103
0
LINE
8
Calque 1
10
328.925195
20
649.177103
11
328.733676
21
650.877775
0
LINE
8
Calque 1
10
328.733676
20
650.877775
11
328.873187
21
652.851784
0
LINE
8
Calque 1
10
328.873187
20
652.851784
11
329.342810
21
655.164100
0
LINE
8
Calque 1
10
329.342810
20
655.164100
11
329.931468
21
658.416805
0
LINE
8
Calque 1
10
329.931468
20
658.416805
11
330.095669
21
661.630312
0
LINE
8
Calque 1
10
330.095669
20
661.630312
11
329.840182
21
664.487214
0
LINE
8
Calque 1
10
329.840182
20
664.487214
11
329.556547
21
665.682747
0
LINE
8
Calque 1
10
329.556547
20
665.682747
11
329.169780
21
666.670100
0
LINE
8
Calque 1
10
329.169780
20
666.670100
11
328.076823
21
668.192325
0
LINE
8
Calque 1
10
328.076823
20
668.192325
11
327.487593
21
668.719006
0
LINE
8
Calque 1
10
327.487593
20
668.719006
11
327.028640
21
668.922400
0
LINE
8
Calque 1
10
327.028640
20
668.922400
11
326.772800
21
668.757050
0
LINE
8
Calque 1
10
326.772800
20
668.757050
11
326.810630
21
668.194800
0
LINE
8
Calque 1
10
326.810630
20
668.194800
11
327.139530
21
665.350600
0
LINE
8
Calque 1
10
327.139530
20
665.350600
11
327.188661
21
663.947567
0
LINE
8
Calque 1
10
327.188661
20
663.947567
11
327.093113
21
662.604655
0
LINE
8
Calque 1
10
327.093113
20
662.604655
11
326.834849
21
661.274818
0
LINE
8
Calque 1
10
326.834849
20
661.274818
11
326.395830
21
659.911012
0
LINE
8
Calque 1
10
326.395830
20
659.911012
11
324.903382
21
656.893314
0
LINE
8
Calque 1
10
324.903382
20
656.893314
11
322.471470
21
653.175200
0
LINE
8
Calque 1
10
322.471470
20
653.175200
11
320.857758
21
650.779963
0
LINE
8
Calque 1
10
320.857758
20
650.779963
11
319.582415
21
648.634008
0
LINE
8
Calque 1
10
319.582415
20
648.634008
11
318.624304
21
646.662383
0
LINE
8
Calque 1
10
318.624304
20
646.662383
11
317.962288
21
644.790137
0
LINE
8
Calque 1
10
317.962288
20
644.790137
11
317.575227
21
642.942318
0
LINE
8
Calque 1
10
317.575227
20
642.942318
11
317.441986
21
641.043973
0
LINE
8
Calque 1
10
317.441986
20
641.043973
11
317.541426
21
639.020151
0
LINE
8
Calque 1
10
317.541426
20
639.020151
11
317.852410
21
636.795900
0
LINE
8
Calque 1
10
317.852410
20
636.795900
11
318.655401
21
633.750670
0
LINE
8
Calque 1
10
318.655401
20
633.750670
11
319.245783
21
632.410922
0
LINE
8
Calque 1
10
319.245783
20
632.410922
11
319.982261
21
631.163137
0
LINE
8
Calque 1
10
319.982261
20
631.163137
11
320.879963
21
629.984854
0
LINE
8
Calque 1
10
320.879963
20
629.984854
11
321.954018
21
628.853611
0
LINE
8
Calque 1
10
321.954018
20
628.853611
11
324.691700
21
626.642400
0
LINE
8
Calque 1
10
324.691700
20
626.642400
11
326.333540
21
625.393328
0
LINE
8
Calque 1
10
326.333540
20
625.393328
11
327.270740
21
624.350450
0
LINE
8
Calque 1
10
327.270740
20
624.350450
11
327.667708
21
623.249597
0
LINE
8
Calque 1
10
327.667708
20
623.249597
11
327.688850
21
621.826600
0
LINE
8
Calque 1
10
327.688850
20
621.826600
11
327.545575
21
620.632405
0
LINE
8
Calque 1
10
327.545575
20
620.632405
11
327.095561
21
619.176937
0
LINE
8
Calque 1
10
327.095561
20
619.176937
11
324.091300
21
612.369800
0
LINE
8
Calque 1
10
324.091300
20
612.369800
11
322.900537
21
609.581599
0
LINE
8
Calque 1
10
322.900537
20
609.581599
11
321.902289
21
606.850205
0
LINE
8
Calque 1
10
321.902289
20
606.850205
11
321.090997
21
604.147767
0
LINE
8
Calque 1
10
321.090997
20
604.147767
11
320.461100
21
601.446437
0
LINE
8
Calque 1
10
320.461100
20
601.446437
11
320.007036
21
598.718365
0
LINE
8
Calque 1
10
320.007036
20
598.718365
11
319.723246
21
595.935702
0
LINE
8
Calque 1
10
319.723246
20
595.935702
11
319.604167
21
593.070596
0
LINE
8
Calque 1
10
319.604167
20
593.070596
11
319.644240
21
590.095200
0
LINE
8
Calque 1
10
319.644240
20
590.095200
11
319.850242
21
587.131016
0
LINE
8
Calque 1
10
319.850242
20
587.131016
11
320.239900
21
584.639725
0
LINE
8
Calque 1
10
320.239900
20
584.639725
11
320.849346
21
582.452147
0
LINE
8
Calque 1
10
320.849346
20
582.452147
11
321.714710
21
580.399100
0
LINE
8
Calque 1
10
321.714710
20
580.399100
11
322.572807
21
579.000394
0
LINE
8
Calque 1
10
322.572807
20
579.000394
11
323.661615
21
577.697650
0
LINE
8
Calque 1
10
323.661615
20
577.697650
11
324.793031
21
576.686881
0
LINE
8
Calque 1
10
324.793031
20
576.686881
11
325.778950
21
576.164100
0
LINE
8
Calque 1
10
325.778950
20
576.164100
11
326.804209
21
576.048453
0
LINE
8
Calque 1
10
326.804209
20
576.048453
11
327.892234
21
576.174325
0
LINE
8
Calque 1
10
327.892234
20
576.174325
11
328.959827
21
576.523509
0
LINE
8
Calque 1
10
328.959827
20
576.523509
11
329.923790
21
577.077800
0
LINE
8
Calque 1
10
329.923790
20
577.077800
11
330.782691
21
577.632398
0
LINE
8
Calque 1
10
330.782691
20
577.632398
11
331.434025
21
577.865312
0
LINE
8
Calque 1
10
331.434025
20
577.865312
11
331.915169
21
577.781445
0
LINE
8
Calque 1
10
331.915169
20
577.781445
11
332.263500
21
577.385700
0
LINE
8
Calque 1
10
332.263500
20
577.385700
11
332.360916
21
577.050319
0
LINE
8
Calque 1
10
332.360916
20
577.050319
11
332.303868
21
576.610125
0
LINE
8
Calque 1
10
332.303868
20
576.610125
11
331.632380
21
575.070600
0
LINE
8
Calque 1
10
331.632380
20
575.070600
11
330.790162
21
573.185700
0
LINE
8
Calque 1
10
330.790162
20
573.185700
11
330.229538
21
571.306425
0
LINE
8
Calque 1
10
330.229538
20
571.306425
11
329.887452
21
569.150962
0
LINE
8
Calque 1
10
329.887452
20
569.150962
11
329.700850
21
566.437500
0
LINE
8
Calque 1
10
329.700850
20
566.437500
11
329.661562
21
563.662762
0
LINE
8
Calque 1
10
329.661562
20
563.662762
11
329.829155
21
561.347700
0
LINE
8
Calque 1
10
329.829155
20
561.347700
11
330.240566
21
559.208137
0
LINE
8
Calque 1
10
330.240566
20
559.208137
11
330.932730
21
556.959900
0
LINE
8
Calque 1
10
330.932730
20
556.959900
11
331.721424
21
555.052587
0
LINE
8
Calque 1
10
331.721424
20
555.052587
11
332.679843
21
553.318200
0
LINE
8
Calque 1
10
332.679843
20
553.318200
11
333.802686
21
551.761732
0
LINE
8
Calque 1
10
333.802686
20
551.761732
11
335.084653
21
550.388175
0
LINE
8
Calque 1
10
335.084653
20
550.388175
11
336.520441
21
549.202521
0
LINE
8
Calque 1
10
336.520441
20
549.202521
11
338.104751
21
548.209762
0
LINE
8
Calque 1
10
338.104751
20
548.209762
11
339.832281
21
547.414891
0
LINE
8
Calque 1
10
339.832281
20
547.414891
11
341.697730
21
546.822900
0
LINE
8
Calque 1
10
341.697730
20
546.822900
11
343.976993
21
546.563886
0
LINE
8
Calque 1
10
343.976993
20
546.563886
11
347.244481
21
546.531737
0
LINE
8
Calque 1
10
347.244481
20
546.531737
11
350.635969
21
546.707770
0
LINE
8
Calque 1
10
350.635969
20
546.707770
11
353.287230
21
547.073300
0
LINE
8
Calque 1
10
353.287230
20
547.073300
11
353.287250
21
547.073300
0
LINE
8
Calque 1
10
328.040550
20
571.886500
11
328.445000
21
573.409500
0
LINE
8
Calque 1
10
328.445000
20
573.409500
11
328.452481
21
573.602730
0
LINE
8
Calque 1
10
328.452481
20
573.602730
11
328.312459
21
573.710863
0
LINE
8
Calque 1
10
328.312459
20
573.710863
11
327.436810
21
573.718900
0
LINE
8
Calque 1
10
327.436810
20
573.718900
11
326.301438
21
573.774138
0
LINE
8
Calque 1
10
326.301438
20
573.774138
11
325.147420
21
574.031800
0
LINE
8
Calque 1
10
325.147420
20
574.031800
11
323.980130
21
574.434000
0
LINE
8
Calque 1
10
323.980130
20
574.434000
11
325.802030
21
572.598000
0
LINE
8
Calque 1
10
325.802030
20
572.598000
11
327.686980
21
570.762000
0
LINE
8
Calque 1
10
327.686980
20
570.762000
11
328.040550
21
571.886500
0
LINE
8
Calque 1
10
328.040550
20
571.886500
11
328.040550
21
571.886500
0
LINE
8
Calque 1
10
508.536550
20
576.072300
11
511.063476
21
577.241552
0
LINE
8
Calque 1
10
511.063476
20
577.241552
11
513.433792
21
578.973092
0
LINE
8
Calque 1
10
513.433792
20
578.973092
11
515.622315
21
581.226996
0
LINE
8
Calque 1
10
515.622315
20
581.226996
11
517.603863
21
583.963338
0
LINE
8
Calque 1
10
517.603863
20
583.963338
11
519.353252
21
587.142194
0
LINE
8
Calque 1
10
519.353252
20
587.142194
11
520.845302
21
590.723639
0
LINE
8
Calque 1
10
520.845302
20
590.723639
11
522.054828
21
594.667749
0
LINE
8
Calque 1
10
522.054828
20
594.667749
11
522.956650
21
598.934600
0
LINE
8
Calque 1
10
522.956650
20
598.934600
11
523.344359
21
603.009013
0
LINE
8
Calque 1
10
523.344359
20
603.009013
11
523.376859
21
607.564700
0
LINE
8
Calque 1
10
523.376859
20
607.564700
11
523.089452
21
611.434813
0
LINE
8
Calque 1
10
523.089452
20
611.434813
11
522.836815
21
612.748138
0
LINE
8
Calque 1
10
522.836815
20
612.748138
11
522.517440
21
613.452500
0
LINE
8
Calque 1
10
522.517440
20
613.452500
11
522.275611
21
613.430646
0
LINE
8
Calque 1
10
522.275611
20
613.430646
11
521.835853
21
613.144320
0
LINE
8
Calque 1
10
521.835853
20
613.144320
11
520.556278
21
611.974663
0
LINE
8
Calque 1
10
520.556278
20
611.974663
11
519.066173
21
610.336348
0
LINE
8
Calque 1
10
519.066173
20
610.336348
11
517.753000
21
608.622200
0
LINE
8
Calque 1
10
517.753000
20
608.622200
11
515.756386
21
605.125341
0
LINE
8
Calque 1
10
515.756386
20
605.125341
11
513.741745
21
600.646600
0
LINE
8
Calque 1
10
513.741745
20
600.646600
11
511.908529
21
595.675784
0
LINE
8
Calque 1
10
511.908529
20
595.675784
11
510.456190
21
590.702700
0
LINE
8
Calque 1
10
510.456190
20
590.702700
11
509.476020
21
587.496900
0
LINE
8
Calque 1
10
509.476020
20
587.496900
11
509.042107
21
587.199864
0
LINE
8
Calque 1
10
509.042107
20
587.199864
11
508.530435
21
587.166163
0
LINE
8
Calque 1
10
508.530435
20
587.166163
11
508.073693
21
587.372180
0
LINE
8
Calque 1
10
508.073693
20
587.372180
11
507.804570
21
587.794300
0
LINE
8
Calque 1
10
507.804570
20
587.794300
11
507.852489
21
589.182691
0
LINE
8
Calque 1
10
507.852489
20
589.182691
11
508.215479
21
591.738100
0
LINE
8
Calque 1
10
508.215479
20
591.738100
11
509.445530
21
597.689800
0
LINE
8
Calque 1
10
509.445530
20
597.689800
11
510.862538
21
602.200915
0
LINE
8
Calque 1
10
510.862538
20
602.200915
11
512.666202
21
606.328380
0
LINE
8
Calque 1
10
512.666202
20
606.328380
11
514.845432
21
610.059514
0
LINE
8
Calque 1
10
514.845432
20
610.059514
11
517.389139
21
613.381638
0
LINE
8
Calque 1
10
517.389139
20
613.381638
11
520.286231
21
616.282069
0
LINE
8
Calque 1
10
520.286231
20
616.282069
11
523.525621
21
618.748127
0
LINE
8
Calque 1
10
523.525621
20
618.748127
11
527.096217
21
620.767131
0
LINE
8
Calque 1
10
527.096217
20
620.767131
11
530.986930
21
622.326400
0
LINE
8
Calque 1
10
530.986930
20
622.326400
11
533.700053
21
623.064367
0
LINE
8
Calque 1
10
533.700053
20
623.064367
11
536.712111
21
623.616134
0
LINE
8
Calque 1
10
536.712111
20
623.616134
11
539.940976
21
623.979816
0
LINE
8
Calque 1
10
539.940976
20
623.979816
11
543.304521
21
624.153525
0
LINE
8
Calque 1
10
543.304521
20
624.153525
11
546.720617
21
624.135375
0
LINE
8
Calque 1
10
546.720617
20
624.135375
11
550.107136
21
623.923478
0
LINE
8
Calque 1
10
550.107136
20
623.923478
11
553.381950
21
623.515949
0
LINE
8
Calque 1
10
553.381950
20
623.515949
11
556.462930
21
622.910900
0
LINE
8
Calque 1
10
556.462930
20
622.910900
11
557.892793
21
622.630138
0
LINE
8
Calque 1
10
557.892793
20
622.630138
11
558.487530
21
622.632500
0
LINE
8
Calque 1
10
558.487530
20
622.632500
11
558.048124
21
623.407522
0
LINE
8
Calque 1
10
558.048124
20
623.407522
11
556.938255
21
624.674450
0
LINE
8
Calque 1
10
556.938255
20
624.674450
11
555.470449
21
626.106078
0
LINE
8
Calque 1
10
555.470449
20
626.106078
11
553.957230
21
627.375200
0
LINE
8
Calque 1
10
553.957230
20
627.375200
11
551.550374
21
628.989351
0
LINE
8
Calque 1
10
551.550374
20
628.989351
11
548.878077
21
630.412897
0
LINE
8
Calque 1
10
548.878077
20
630.412897
11
545.967069
21
631.638250
0
LINE
8
Calque 1
10
545.967069
20
631.638250
11
542.844080
21
632.657825
0
LINE
8
Calque 1
10
542.844080
20
632.657825
11
539.535841
21
633.464034
0
LINE
8
Calque 1
10
539.535841
20
633.464034
11
536.069083
21
634.049291
0
LINE
8
Calque 1
10
536.069083
20
634.049291
11
532.470536
21
634.406008
0
LINE
8
Calque 1
10
532.470536
20
634.406008
11
528.766930
21
634.526600
0
LINE
8
Calque 1
10
528.766930
20
634.526600
11
525.080817
21
634.341841
0
LINE
8
Calque 1
10
525.080817
20
634.341841
11
521.602081
21
633.786150
0
LINE
8
Calque 1
10
521.602081
20
633.786150
11
518.321070
21
632.857409
0
LINE
8
Calque 1
10
518.321070
20
632.857409
11
515.228130
21
631.553500
0
LINE
8
Calque 1
10
515.228130
20
631.553500
11
513.327168
21
630.520341
0
LINE
8
Calque 1
10
513.327168
20
630.520341
11
511.458511
21
629.328849
0
LINE
8
Calque 1
10
511.458511
20
629.328849
11
507.833680
21
626.491702
0
LINE
8
Calque 1
10
507.833680
20
626.491702
11
504.384761
21
623.083732
0
LINE
8
Calque 1
10
504.384761
20
623.083732
11
501.142880
21
619.146613
0
LINE
8
Calque 1
10
501.142880
20
619.146613
11
498.139161
21
614.722017
0
LINE
8
Calque 1
10
498.139161
20
614.722017
11
495.404730
21
609.851617
0
LINE
8
Calque 1
10
495.404730
20
609.851617
11
492.970711
21
604.577087
0
LINE
8
Calque 1
10
492.970711
20
604.577087
11
490.868230
21
598.940100
0
LINE
8
Calque 1
10
490.868230
20
598.940100
11
489.695334
21
595.204536
0
LINE
8
Calque 1
10
489.695334
20
595.204536
11
489.005176
21
592.331838
0
LINE
8
Calque 1
10
489.005176
20
592.331838
11
488.681110
21
589.687495
0
LINE
8
Calque 1
10
488.681110
20
589.687495
11
488.606490
21
586.637000
0
LINE
8
Calque 1
10
488.606490
20
586.637000
11
488.821153
21
582.016075
0
LINE
8
Calque 1
10
488.821153
20
582.016075
11
489.102275
21
580.438081
0
LINE
8
Calque 1
10
489.102275
20
580.438081
11
489.523330
21
579.151800
0
LINE
8
Calque 1
10
489.523330
20
579.151800
11
489.899180
21
578.252200
0
LINE
8
Calque 1
10
489.899180
20
578.252200
11
492.702650
21
578.071000
0
LINE
8
Calque 1
10
492.702650
20
578.071000
11
497.043936
21
577.585338
0
LINE
8
Calque 1
10
497.043936
20
577.585338
11
498.602871
21
577.194414
0
LINE
8
Calque 1
10
498.602871
20
577.194414
11
499.987560
21
576.659500
0
LINE
8
Calque 1
10
499.987560
20
576.659500
11
502.947586
21
575.471313
0
LINE
8
Calque 1
10
502.947586
20
575.471313
11
503.942353
21
575.340114
0
LINE
8
Calque 1
10
503.942353
20
575.340114
11
505.126900
21
575.390800
0
LINE
8
Calque 1
10
505.126900
20
575.390800
11
506.873040
21
575.649313
0
LINE
8
Calque 1
10
506.873040
20
575.649313
11
508.536470
21
576.072300
0
LINE
8
Calque 1
10
508.536470
20
576.072300
11
508.536550
21
576.072300
0
LINE
8
Calque 1
10
320.044550
20
578.687500
11
319.607720
21
579.090800
0
LINE
8
Calque 1
10
319.607720
20
579.090800
11
319.821111
21
578.588025
0
LINE
8
Calque 1
10
319.821111
20
578.588025
11
320.265360
21
578.170300
0
LINE
8
Calque 1
10
320.265360
20
578.170300
11
320.044550
21
578.687500
0
LINE
8
Calque 1
10
320.044550
20
578.687500
11
320.044550
21
578.687500
0
LINE
8
Calque 1
10
316.785610
20
581.014600
11
315.651896
21
583.964245
0
LINE
8
Calque 1
10
315.651896
20
583.964245
11
315.023463
21
586.697713
0
LINE
8
Calque 1
10
315.023463
20
586.697713
11
314.741533
21
590.324298
0
LINE
8
Calque 1
10
314.741533
20
590.324298
11
314.647330
21
595.953300
0
LINE
8
Calque 1
10
314.647330
20
595.953300
11
314.585530
21
604.078900
0
LINE
8
Calque 1
10
314.585530
20
604.078900
11
313.716880
21
605.843400
0
LINE
8
Calque 1
10
313.716880
20
605.843400
11
312.620056
21
607.604342
0
LINE
8
Calque 1
10
312.620056
20
607.604342
11
311.145258
21
609.342437
0
LINE
8
Calque 1
10
311.145258
20
609.342437
11
309.508958
21
610.833014
0
LINE
8
Calque 1
10
309.508958
20
610.833014
11
307.927630
21
611.851400
0
LINE
8
Calque 1
10
307.927630
20
611.851400
11
306.964658
21
612.247052
0
LINE
8
Calque 1
10
306.964658
20
612.247052
11
305.712758
21
612.486413
0
LINE
8
Calque 1
10
305.712758
20
612.486413
11
299.593250
21
612.813700
0
LINE
8
Calque 1
10
299.593250
20
612.813700
11
291.625180
21
613.295320
0
LINE
8
Calque 1
10
291.625180
20
613.295320
11
285.393013
21
614.095963
0
LINE
8
Calque 1
10
285.393013
20
614.095963
11
282.785202
21
614.641455
0
LINE
8
Calque 1
10
282.785202
20
614.641455
11
280.440139
21
615.297348
0
LINE
8
Calque 1
10
280.440139
20
615.297348
11
278.300747
21
616.073858
0
LINE
8
Calque 1
10
278.300747
20
616.073858
11
276.309950
21
616.981200
0
LINE
8
Calque 1
10
276.309950
20
616.981200
11
274.778799
21
617.833253
0
LINE
8
Calque 1
10
274.778799
20
617.833253
11
273.386585
21
618.779695
0
LINE
8
Calque 1
10
273.386585
20
618.779695
11
272.121866
21
619.833474
0
LINE
8
Calque 1
10
272.121866
20
619.833474
11
270.973203
21
621.007538
0
LINE
8
Calque 1
10
270.973203
20
621.007538
11
269.929151
21
622.314834
0
LINE
8
Calque 1
10
269.929151
20
622.314834
11
268.978272
21
623.768311
0
LINE
8
Calque 1
10
268.978272
20
623.768311
11
267.310260
21
627.165600
0
LINE
8
Calque 1
10
267.310260
20
627.165600
11
266.436310
21
629.300700
0
LINE
8
Calque 1
10
266.436310
20
629.300700
11
265.637820
21
627.902500
0
LINE
8
Calque 1
10
265.637820
20
627.902500
11
264.716984
21
626.041539
0
LINE
8
Calque 1
10
264.716984
20
626.041539
11
263.975847
21
624.022752
0
LINE
8
Calque 1
10
263.975847
20
624.022752
11
263.420128
21
621.893416
0
LINE
8
Calque 1
10
263.420128
20
621.893416
11
263.055545
21
619.700812
0
LINE
8
Calque 1
10
263.055545
20
619.700812
11
262.887816
21
617.492220
0
LINE
8
Calque 1
10
262.887816
20
617.492220
11
262.922661
21
615.314917
0
LINE
8
Calque 1
10
262.922661
20
615.314917
11
263.165796
21
613.216184
0
LINE
8
Calque 1
10
263.165796
20
613.216184
11
263.622940
21
611.243300
0
LINE
8
Calque 1
10
263.622940
20
611.243300
11
264.779612
21
608.469041
0
LINE
8
Calque 1
10
264.779612
20
608.469041
11
266.528980
21
605.729075
0
LINE
8
Calque 1
10
266.528980
20
605.729075
11
268.740753
21
603.196822
0
LINE
8
Calque 1
10
268.740753
20
603.196822
11
271.284640
21
601.045700
0
LINE
8
Calque 1
10
271.284640
20
601.045700
11
272.924360
21
599.875600
0
LINE
8
Calque 1
10
272.924360
20
599.875600
11
273.085160
21
596.762000
0
LINE
8
Calque 1
10
273.085160
20
596.762000
11
273.267905
21
594.558153
0
LINE
8
Calque 1
10
273.267905
20
594.558153
11
273.571309
21
592.625900
0
LINE
8
Calque 1
10
273.571309
20
592.625900
11
273.988981
21
590.996797
0
LINE
8
Calque 1
10
273.988981
20
590.996797
11
274.514530
21
589.702400
0
LINE
8
Calque 1
10
274.514530
20
589.702400
11
276.218030
21
587.545100
0
LINE
8
Calque 1
10
276.218030
20
587.545100
11
277.131800
21
586.706666
0
LINE
8
Calque 1
10
277.131800
20
586.706666
11
278.180318
21
585.981917
0
LINE
8
Calque 1
10
278.180318
20
585.981917
11
279.364984
21
585.370406
0
LINE
8
Calque 1
10
279.364984
20
585.370406
11
280.687198
21
584.871688
0
LINE
8
Calque 1
10
280.687198
20
584.871688
11
283.749868
21
584.210839
0
LINE
8
Calque 1
10
283.749868
20
584.210839
11
287.379530
21
583.995800
0
LINE
8
Calque 1
10
287.379530
20
583.995800
11
289.704278
21
584.098837
0
LINE
8
Calque 1
10
289.704278
20
584.098837
11
291.839562
21
584.406186
0
LINE
8
Calque 1
10
291.839562
20
584.406186
11
293.805154
21
584.927583
0
LINE
8
Calque 1
10
293.805154
20
584.927583
11
295.620825
21
585.672763
0
LINE
8
Calque 1
10
295.620825
20
585.672763
11
297.306347
21
586.651459
0
LINE
8
Calque 1
10
297.306347
20
586.651459
11
298.881491
21
587.873408
0
LINE
8
Calque 1
10
298.881491
20
587.873408
11
300.366028
21
589.348343
0
LINE
8
Calque 1
10
300.366028
20
589.348343
11
301.779730
21
591.086000
0
LINE
8
Calque 1
10
301.779730
20
591.086000
11
303.563710
21
593.156600
0
LINE
8
Calque 1
10
303.563710
20
593.156600
11
304.079748
21
593.121964
0
LINE
8
Calque 1
10
304.079748
20
593.121964
11
304.703703
21
592.746537
0
LINE
8
Calque 1
10
304.703703
20
592.746537
11
305.330795
21
592.114667
0
LINE
8
Calque 1
10
305.330795
20
592.114667
11
305.856250
21
591.310700
0
LINE
8
Calque 1
10
305.856250
20
591.310700
11
307.007270
21
588.631600
0
LINE
8
Calque 1
10
307.007270
20
588.631600
11
307.851532
21
586.567895
0
LINE
8
Calque 1
10
307.851532
20
586.567895
11
308.710219
21
584.852931
0
LINE
8
Calque 1
10
308.710219
20
584.852931
11
309.608286
21
583.463195
0
LINE
8
Calque 1
10
309.608286
20
583.463195
11
310.570685
21
582.375175
0
LINE
8
Calque 1
10
310.570685
20
582.375175
11
311.622370
21
581.565358
0
LINE
8
Calque 1
10
311.622370
20
581.565358
11
312.788293
21
581.010231
0
LINE
8
Calque 1
10
312.788293
20
581.010231
11
314.093409
21
580.686283
0
LINE
8
Calque 1
10
314.093409
20
580.686283
11
315.562670
21
580.570000
0
LINE
8
Calque 1
10
315.562670
20
580.570000
11
316.707655
21
580.633075
0
LINE
8
Calque 1
10
316.707655
20
580.633075
11
316.842858
21
580.770503
0
LINE
8
Calque 1
10
316.842858
20
580.770503
11
316.785600
21
581.014600
0
LINE
8
Calque 1
10
316.785600
20
581.014600
11
316.785610
21
581.014600
0
LINE
8
Calque 1
10
317.222020
20
590.605800
11
316.992080
21
592.590100
0
LINE
8
Calque 1
10
316.992080
20
592.590100
11
316.957780
21
590.583700
0
LINE
8
Calque 1
10
316.957780
20
590.583700
11
317.116380
21
588.384400
0
LINE
8
Calque 1
10
317.116380
20
588.384400
11
317.302970
21
588.303867
0
LINE
8
Calque 1
10
317.302970
20
588.303867
11
317.380395
21
588.597162
0
LINE
8
Calque 1
10
317.380395
20
588.597162
11
317.222040
21
590.605800
0
LINE
8
Calque 1
10
317.222040
20
590.605800
11
317.222020
21
590.605800
0
LINE
8
Calque 1
10
318.873060
20
617.293900
11
325.184170
21
623.609100
0
LINE
8
Calque 1
10
325.184170
20
623.609100
11
322.651570
21
625.487800
0
LINE
8
Calque 1
10
322.651570
20
625.487800
11
320.668793
21
627.104880
0
LINE
8
Calque 1
10
320.668793
20
627.104880
11
319.097744
21
628.728512
0
LINE
8
Calque 1
10
319.097744
20
628.728512
11
317.873170
21
630.436464
0
LINE
8
Calque 1
10
317.873170
20
630.436464
11
316.929820
21
632.306500
0
LINE
8
Calque 1
10
316.929820
20
632.306500
11
316.285528
21
634.198500
0
LINE
8
Calque 1
10
316.285528
20
634.198500
11
315.781545
21
636.378350
0
LINE
8
Calque 1
10
315.781545
20
636.378350
11
315.453227
21
638.656675
0
LINE
8
Calque 1
10
315.453227
20
638.656675
11
315.335930
21
640.844100
0
LINE
8
Calque 1
10
315.335930
20
640.844100
11
315.335000
21
642.859000
0
LINE
8
Calque 1
10
315.335000
20
642.859000
11
301.840200
21
629.366300
0
LINE
8
Calque 1
10
301.840200
20
629.366300
11
290.377100
21
617.775287
0
LINE
8
Calque 1
10
290.377100
20
617.775287
11
288.968597
21
616.095617
0
LINE
8
Calque 1
10
288.968597
20
616.095617
11
288.896224
21
615.804026
0
LINE
8
Calque 1
10
288.896224
20
615.804026
11
289.074100
21
615.694800
0
LINE
8
Calque 1
10
289.074100
20
615.694800
11
293.532791
21
615.198225
0
LINE
8
Calque 1
10
293.532791
20
615.198225
11
299.505500
21
614.928600
0
LINE
8
Calque 1
10
299.505500
20
614.928600
11
304.027370
21
614.786403
0
LINE
8
Calque 1
10
304.027370
20
614.786403
11
307.180829
21
614.339575
0
LINE
8
Calque 1
10
307.180829
20
614.339575
11
308.402442
21
613.963610
0
LINE
8
Calque 1
10
308.402442
20
613.963610
11
309.471598
21
613.465509
0
LINE
8
Calque 1
10
309.471598
20
613.465509
11
311.405400
21
612.041600
0
LINE
8
Calque 1
10
311.405400
20
612.041600
11
312.558910
21
610.989500
0
LINE
8
Calque 1
10
312.558910
20
610.989500
11
318.872100
21
617.293900
0
LINE
8
Calque 1
10
318.872100
20
617.293900
11
318.873060
21
617.293900
0
LINE
8
Calque 1
10
481.453060
20
613.329200
11
484.043600
21
614.918450
0
LINE
8
Calque 1
10
484.043600
20
614.918450
11
486.820110
21
616.248200
0
LINE
8
Calque 1
10
486.820110
20
616.248200
11
488.574430
21
616.953700
0
LINE
8
Calque 1
10
488.574430
20
616.953700
11
458.853830
21
646.840700
0
LINE
8
Calque 1
10
458.853830
20
646.840700
11
437.859705
21
667.850600
0
LINE
8
Calque 1
10
437.859705
20
667.850600
11
429.119830
21
676.394900
0
LINE
8
Calque 1
10
429.119830
20
676.394900
11
429.526997
21
674.912642
0
LINE
8
Calque 1
10
429.526997
20
674.912642
11
430.586070
21
672.121887
0
LINE
8
Calque 1
10
430.586070
20
672.121887
11
433.410860
21
665.721800
0
LINE
8
Calque 1
10
433.410860
20
665.721800
11
438.102270
21
657.135100
0
LINE
8
Calque 1
10
438.102270
20
657.135100
11
440.880400
21
652.410400
0
LINE
8
Calque 1
10
440.880400
20
652.410400
11
448.678130
21
644.528400
0
LINE
8
Calque 1
10
448.678130
20
644.528400
11
456.475860
21
636.646400
0
LINE
8
Calque 1
10
456.475860
20
636.646400
11
457.683050
21
637.835500
0
LINE
8
Calque 1
10
457.683050
20
637.835500
11
458.753088
21
638.733817
0
LINE
8
Calque 1
10
458.753088
20
638.733817
11
459.654036
21
639.012738
0
LINE
8
Calque 1
10
459.654036
20
639.012738
11
460.593604
21
638.664414
0
LINE
8
Calque 1
10
460.593604
20
638.664414
11
461.779500
21
637.681000
0
LINE
8
Calque 1
10
461.779500
20
637.681000
11
463.657588
21
635.560608
0
LINE
8
Calque 1
10
463.657588
20
635.560608
11
465.660123
21
632.677963
0
LINE
8
Calque 1
10
465.660123
20
632.677963
11
467.683728
21
629.196461
0
LINE
8
Calque 1
10
467.683728
20
629.196461
11
469.625030
21
625.279500
0
LINE
8
Calque 1
10
469.625030
20
625.279500
11
470.431492
21
623.605486
0
LINE
8
Calque 1
10
470.431492
20
623.605486
11
471.335949
21
622.254938
0
LINE
8
Calque 1
10
471.335949
20
622.254938
11
472.910161
21
620.514970
0
LINE
8
Calque 1
10
472.910161
20
620.514970
11
475.725890
21
617.672700
0
LINE
8
Calque 1
10
475.725890
20
617.672700
11
480.656660
21
612.830800
0
LINE
8
Calque 1
10
480.656660
20
612.830800
11
481.453090
21
613.329200
0
LINE
8
Calque 1
10
481.453090
20
613.329200
11
481.453060
21
613.329200
0
LINE
8
Calque 1
10
351.443060
20
616.055200
11
352.549409
21
616.436770
0
LINE
8
Calque 1
10
352.549409
20
616.436770
11
353.494481
21
616.979187
0
LINE
8
Calque 1
10
353.494481
20
616.979187
11
356.478040
21
619.683000
0
LINE
8
Calque 1
10
356.478040
20
619.683000
11
359.287709
21
622.573737
0
LINE
8
Calque 1
10
359.287709
20
622.573737
11
359.773124
21
623.435761
0
LINE
8
Calque 1
10
359.773124
20
623.435761
11
360.067900
21
624.472300
0
LINE
8
Calque 1
10
360.067900
20
624.472300
11
360.936251
21
627.184192
0
LINE
8
Calque 1
10
360.936251
20
627.184192
11
362.353570
21
629.749412
0
LINE
8
Calque 1
10
362.353570
20
629.749412
11
364.682597
21
632.702252
0
LINE
8
Calque 1
10
364.682597
20
632.702252
11
368.286070
21
636.577000
0
LINE
8
Calque 1
10
368.286070
20
636.577000
11
371.200641
21
639.694078
0
LINE
8
Calque 1
10
371.200641
20
639.694078
11
373.307513
21
642.196250
0
LINE
8
Calque 1
10
373.307513
20
642.196250
11
374.720443
21
644.230122
0
LINE
8
Calque 1
10
374.720443
20
644.230122
11
375.553190
21
645.942300
0
LINE
8
Calque 1
10
375.553190
20
645.942300
11
375.876317
21
647.349994
0
LINE
8
Calque 1
10
375.876317
20
647.349994
11
376.102965
21
649.186050
0
LINE
8
Calque 1
10
376.102965
20
649.186050
11
376.174761
21
650.779631
0
LINE
8
Calque 1
10
376.174761
20
650.779631
11
376.033330
21
651.459900
0
LINE
8
Calque 1
10
376.033330
20
651.459900
11
373.350200
21
649.017800
0
LINE
8
Calque 1
10
373.350200
20
649.017800
11
371.158093
21
646.622100
0
LINE
8
Calque 1
10
371.158093
20
646.622100
11
370.896589
21
646.075784
0
LINE
8
Calque 1
10
370.896589
20
646.075784
11
371.148950
21
645.903700
0
LINE
8
Calque 1
10
371.148950
20
645.903700
11
372.092160
21
644.996300
0
LINE
8
Calque 1
10
372.092160
20
644.996300
11
372.611543
21
644.099744
0
LINE
8
Calque 1
10
372.611543
20
644.099744
11
372.803290
21
643.239000
0
LINE
8
Calque 1
10
372.803290
20
643.239000
11
372.665457
21
642.472756
0
LINE
8
Calque 1
10
372.665457
20
642.472756
11
372.196100
21
641.859700
0
LINE
8
Calque 1
10
372.196100
20
641.859700
11
371.800142
21
641.596366
0
LINE
8
Calque 1
10
371.800142
20
641.596366
11
371.344224
21
641.462425
0
LINE
8
Calque 1
10
371.344224
20
641.462425
11
369.707210
21
641.505100
0
LINE
8
Calque 1
10
369.707210
20
641.505100
11
367.193670
21
641.817300
0
LINE
8
Calque 1
10
367.193670
20
641.817300
11
366.610796
21
641.662191
0
LINE
8
Calque 1
10
366.610796
20
641.662191
11
365.416128
21
640.708500
0
LINE
8
Calque 1
10
365.416128
20
640.708500
11
359.256170
21
634.660500
0
LINE
8
Calque 1
10
359.256170
20
634.660500
11
351.882360
21
627.248900
0
LINE
8
Calque 1
10
351.882360
20
627.248900
11
351.558900
21
624.916500
0
LINE
8
Calque 1
10
351.558900
20
624.916500
11
351.217536
21
622.834852
0
LINE
8
Calque 1
10
351.217536
20
622.834852
11
350.592978
21
620.777887
0
LINE
8
Calque 1
10
350.592978
20
620.777887
11
349.633870
21
618.608555
0
LINE
8
Calque 1
10
349.633870
20
618.608555
11
348.288860
21
616.189800
0
LINE
8
Calque 1
10
348.288860
20
616.189800
11
346.630310
21
613.428300
0
LINE
8
Calque 1
10
346.630310
20
613.428300
11
348.106690
21
614.462500
0
LINE
8
Calque 1
10
348.106690
20
614.462500
11
349.695761
21
615.356987
0
LINE
8
Calque 1
10
349.695761
20
615.356987
11
351.443060
21
616.055200
0
LINE
8
Calque 1
10
351.443060
20
616.055200
11
351.443060
21
616.055200
0
LINE
8
Calque 1
10
509.235060
20
630.380900
11
513.518820
21
633.034900
0
LINE
8
Calque 1
10
513.518820
20
633.034900
11
517.749166
21
634.855037
0
LINE
8
Calque 1
10
517.749166
20
634.855037
11
519.813185
21
635.564533
0
LINE
8
Calque 1
10
519.813185
20
635.564533
11
521.063590
21
635.849500
0
LINE
8
Calque 1
10
521.063590
20
635.849500
11
521.445410
21
636.048200
0
LINE
8
Calque 1
10
521.445410
20
636.048200
11
468.264310
21
689.427500
0
LINE
8
Calque 1
10
468.264310
20
689.427500
11
415.083210
21
742.608200
0
LINE
8
Calque 1
10
415.083210
20
742.608200
11
406.041880
21
733.566800
0
LINE
8
Calque 1
10
406.041880
20
733.566800
11
397.000560
21
724.525500
0
LINE
8
Calque 1
10
397.000560
20
724.525500
11
397.333870
21
721.793200
0
LINE
8
Calque 1
10
397.333870
20
721.793200
11
398.148191
21
716.719003
0
LINE
8
Calque 1
10
398.148191
20
716.719003
11
398.683353
21
714.674766
0
LINE
8
Calque 1
10
398.683353
20
714.674766
11
399.355616
21
712.838000
0
LINE
8
Calque 1
10
399.355616
20
712.838000
11
400.203808
21
711.117878
0
LINE
8
Calque 1
10
400.203808
20
711.117878
11
401.266753
21
709.423572
0
LINE
8
Calque 1
10
401.266753
20
709.423572
11
404.192210
21
705.749100
0
LINE
8
Calque 1
10
404.192210
20
705.749100
11
405.651700
21
704.078900
0
LINE
8
Calque 1
10
405.651700
20
704.078900
11
410.365950
21
708.787700
0
LINE
8
Calque 1
10
410.365950
20
708.787700
11
415.080200
21
713.496400
0
LINE
8
Calque 1
10
415.080200
20
713.496400
11
417.453280
21
711.134400
0
LINE
8
Calque 1
10
417.453280
20
711.134400
11
419.826350
21
708.772300
0
LINE
8
Calque 1
10
419.826350
20
708.772300
11
421.533630
21
710.411700
0
LINE
8
Calque 1
10
421.533630
20
710.411700
11
423.139592
21
711.756419
0
LINE
8
Calque 1
10
423.139592
20
711.756419
11
424.786485
21
712.771550
0
LINE
8
Calque 1
10
424.786485
20
712.771550
11
426.387898
21
713.413031
0
LINE
8
Calque 1
10
426.387898
20
713.413031
11
427.857420
21
713.636800
0
LINE
8
Calque 1
10
427.857420
20
713.636800
11
428.872563
21
713.539913
0
LINE
8
Calque 1
10
428.872563
20
713.539913
11
429.286580
21
713.209400
0
LINE
8
Calque 1
10
429.286580
20
713.209400
11
429.118588
21
712.042113
0
LINE
8
Calque 1
10
429.118588
20
712.042113
11
428.484350
21
709.836000
0
LINE
8
Calque 1
10
428.484350
20
709.836000
11
427.244630
21
705.456800
0
LINE
8
Calque 1
10
427.244630
20
705.456800
11
426.724640
21
702.441400
0
LINE
8
Calque 1
10
426.724640
20
702.441400
11
428.840513
21
700.060228
0
LINE
8
Calque 1
10
428.840513
20
700.060228
11
435.556803
21
693.164675
0
LINE
8
Calque 1
10
435.556803
20
693.164675
11
465.002640
21
663.585000
0
LINE
8
Calque 1
10
465.002640
20
663.585000
11
503.280640
21
625.306300
0
LINE
8
Calque 1
10
503.280640
20
625.306300
11
505.234990
21
627.107100
0
LINE
8
Calque 1
10
505.234990
20
627.107100
11
509.235050
21
630.380900
0
LINE
8
Calque 1
10
509.235050
20
630.380900
11
509.235060
21
630.380900
0
LINE
8
Calque 1
10
348.117060
20
646.538500
11
353.244730
21
651.671200
0
LINE
8
Calque 1
10
353.244730
20
651.671200
11
352.712510
21
652.425500
0
LINE
8
Calque 1
10
352.712510
20
652.425500
11
351.422950
21
654.592137
0
LINE
8
Calque 1
10
351.422950
20
654.592137
11
350.375743
21
657.047769
0
LINE
8
Calque 1
10
350.375743
20
657.047769
11
349.582772
21
659.706809
0
LINE
8
Calque 1
10
349.582772
20
659.706809
11
349.055924
21
662.483675
0
LINE
8
Calque 1
10
349.055924
20
662.483675
11
348.807081
21
665.292781
0
LINE
8
Calque 1
10
348.807081
20
665.292781
11
348.848128
21
668.048544
0
LINE
8
Calque 1
10
348.848128
20
668.048544
11
349.190950
21
670.665378
0
LINE
8
Calque 1
10
349.190950
20
670.665378
11
349.847430
21
673.057700
0
LINE
8
Calque 1
10
349.847430
20
673.057700
11
350.631705
21
674.919675
0
LINE
8
Calque 1
10
350.631705
20
674.919675
11
351.602598
21
676.638589
0
LINE
8
Calque 1
10
351.602598
20
676.638589
11
352.809747
21
678.261449
0
LINE
8
Calque 1
10
352.809747
20
678.261449
11
354.302788
21
679.835262
0
LINE
8
Calque 1
10
354.302788
20
679.835262
11
356.131359
21
681.407037
0
LINE
8
Calque 1
10
356.131359
20
681.407037
11
358.345098
21
683.023780
0
LINE
8
Calque 1
10
358.345098
20
683.023780
11
364.126630
21
686.580200
0
LINE
8
Calque 1
10
364.126630
20
686.580200
11
370.484990
21
690.521294
0
LINE
8
Calque 1
10
370.484990
20
690.521294
11
376.016216
21
694.596300
0
LINE
8
Calque 1
10
376.016216
20
694.596300
11
378.412659
21
696.636266
0
LINE
8
Calque 1
10
378.412659
20
696.636266
11
380.531525
21
698.652406
0
LINE
8
Calque 1
10
380.531525
20
698.652406
11
382.349214
21
700.625618
0
LINE
8
Calque 1
10
382.349214
20
700.625618
11
383.842130
21
702.536800
0
LINE
8
Calque 1
10
383.842130
20
702.536800
11
385.601139
21
705.323950
0
LINE
8
Calque 1
10
385.601139
20
705.323950
11
387.060963
21
708.272575
0
LINE
8
Calque 1
10
387.060963
20
708.272575
11
388.213379
21
711.363662
0
LINE
8
Calque 1
10
388.213379
20
711.363662
11
389.050170
21
714.578200
0
LINE
8
Calque 1
10
389.050170
20
714.578200
11
389.364900
21
716.689400
0
LINE
8
Calque 1
10
389.364900
20
716.689400
11
360.805800
21
688.292400
0
LINE
8
Calque 1
10
360.805800
20
688.292400
11
332.347700
21
659.794300
0
LINE
8
Calque 1
10
332.347700
20
659.794300
11
331.901400
21
657.280800
0
LINE
8
Calque 1
10
331.901400
20
657.280800
11
331.067640
21
653.047400
0
LINE
8
Calque 1
10
331.067640
20
653.047400
11
330.857915
21
651.745822
0
LINE
8
Calque 1
10
330.857915
20
651.745822
11
330.836004
21
650.550950
0
LINE
8
Calque 1
10
330.836004
20
650.550950
11
331.000833
21
649.479828
0
LINE
8
Calque 1
10
331.000833
20
649.479828
11
331.351330
21
648.549500
0
LINE
8
Calque 1
10
331.351330
20
648.549500
11
332.044682
21
647.583981
0
LINE
8
Calque 1
10
332.044682
20
647.583981
11
333.176590
21
646.625625
0
LINE
8
Calque 1
10
333.176590
20
646.625625
11
334.881971
21
645.579106
0
LINE
8
Calque 1
10
334.881971
20
645.579106
11
337.295740
21
644.349100
0
LINE
8
Calque 1
10
337.295740
20
644.349100
11
341.925950
21
641.956200
0
LINE
8
Calque 1
10
341.925950
20
641.956200
11
342.854540
21
641.407500
0
LINE
8
Calque 1
10
342.854540
20
641.407500
11
348.117040
21
646.538500
0
LINE
8
Calque 1
10
348.117040
20
646.538500
11
348.117060
21
646.538500
0
LINE
8
Calque 1
10
413.616560
20
678.135300
11
413.192070
21
679.902600
0
LINE
8
Calque 1
10
413.192070
20
679.902600
11
413.108746
21
680.031623
0
LINE
8
Calque 1
10
413.108746
20
680.031623
11
412.962130
21
679.883887
0
LINE
8
Calque 1
10
412.962130
20
679.883887
11
412.474550
21
678.751500
0
LINE
8
Calque 1
10
412.474550
20
678.751500
11
410.973386
21
675.572950
0
LINE
8
Calque 1
10
410.973386
20
675.572950
11
408.782560
21
672.229700
0
LINE
8
Calque 1
10
408.782560
20
672.229700
11
408.275120
21
671.511317
0
LINE
8
Calque 1
10
408.275120
20
671.511317
11
408.237828
21
671.401203
0
LINE
8
Calque 1
10
408.237828
20
671.401203
11
408.363216
21
671.471412
0
LINE
8
Calque 1
10
408.363216
20
671.471412
11
410.767480
21
673.769600
0
LINE
8
Calque 1
10
410.767480
20
673.769600
11
413.937740
21
676.897000
0
LINE
8
Calque 1
10
413.937740
20
676.897000
11
413.616560
21
678.135300
 0 
ENDSEC
 0 
EOF