999
"DXF R12 Output" (www.mydxf.blogspot.com)
 0 
SECTION
 2 
HEADER
 9 
$ACADVER
 1 
AC1009
 9 
$EXTMIN
 10 
 0 
 20 
 0 
 9 
$EXTMAX
 10 
 8.5 
 20 
 11 
 0 
ENDSEC
 0 
SECTION
 2 
ENTITIES
0
LINE
8
Calque 1
10
340.269000
20
521.343000
11
261.026600
21
600.585800
0
LINE
8
Calque 1
10
261.026600
20
600.585800
11
340.335300
21
679.894600
0
LINE
8
Calque 1
10
340.335300
20
679.894600
11
419.644000
21
759.203300
0
LINE
8
Calque 1
10
419.644000
20
759.203300
11
498.952700
21
679.894600
0
LINE
8
Calque 1
10
498.952700
20
679.894600
11
578.261400
21
600.586000
0
LINE
8
Calque 1
10
578.261400
20
600.586000
11
540.512900
21
562.816600
0
LINE
8
Calque 1
10
540.512900
20
562.816600
11
507.853575
21
530.000175
0
LINE
8
Calque 1
10
507.853575
20
530.000175
11
502.957222
21
524.804538
0
LINE
8
Calque 1
10
502.957222
20
524.804538
11
501.954311
21
523.560190
0
LINE
8
Calque 1
10
501.954311
20
523.560190
11
501.376600
21
522.665900
0
LINE
8
Calque 1
10
501.376600
20
522.665900
11
499.875146
21
520.272074
0
LINE
8
Calque 1
10
499.875146
20
520.272074
11
498.227388
21
517.989109
0
LINE
8
Calque 1
10
498.227388
20
517.989109
11
496.439255
21
515.822915
0
LINE
8
Calque 1
10
496.439255
20
515.822915
11
494.516681
21
513.779400
0
LINE
8
Calque 1
10
494.516681
20
513.779400
11
492.465597
21
511.864472
0
LINE
8
Calque 1
10
492.465597
20
511.864472
11
490.291934
21
510.084041
0
LINE
8
Calque 1
10
490.291934
20
510.084041
11
488.001625
21
508.444014
0
LINE
8
Calque 1
10
488.001625
20
508.444014
11
485.600600
21
506.950300
0
LINE
8
Calque 1
10
485.600600
20
506.950300
11
483.597036
21
505.494323
0
LINE
8
Calque 1
10
483.597036
20
505.494323
11
479.079565
21
501.269788
0
LINE
8
Calque 1
10
479.079565
20
501.269788
11
451.526700
21
473.853600
0
LINE
8
Calque 1
10
451.526700
20
473.853600
11
419.644200
21
442.100300
0
LINE
8
Calque 1
10
419.644200
20
442.100300
11
340.268900
21
521.343000
0
LINE
8
Calque 1
10
340.268900
20
521.343000
11
340.269000
21
521.343000
0
LINE
8
Calque 1
10
421.760700
20
453.308600
11
424.100220
21
455.302812
0
LINE
8
Calque 1
10
424.100220
20
455.302812
11
425.192732
21
456.425370
0
LINE
8
Calque 1
10
425.192732
20
456.425370
11
425.505240
21
456.927500
0
LINE
8
Calque 1
10
425.505240
20
456.927500
11
426.068030
21
457.337000
0
LINE
8
Calque 1
10
426.068030
20
457.337000
11
426.540500
21
457.694612
0
LINE
8
Calque 1
10
426.540500
20
457.694612
11
426.643670
21
457.994400
0
LINE
8
Calque 1
10
426.643670
20
457.994400
11
426.596982
21
458.155675
0
LINE
8
Calque 1
10
426.596982
20
458.155675
11
426.709070
21
458.180300
0
LINE
8
Calque 1
10
426.709070
20
458.180300
11
428.235019
21
459.489075
0
LINE
8
Calque 1
10
428.235019
20
459.489075
11
431.587480
21
462.737800
0
LINE
8
Calque 1
10
431.587480
20
462.737800
11
436.872000
21
467.943900
0
LINE
8
Calque 1
10
436.872000
20
467.943900
11
438.491280
21
469.597500
0
LINE
8
Calque 1
10
438.491280
20
469.597500
11
439.756360
21
470.675300
0
LINE
8
Calque 1
10
439.756360
20
470.675300
11
440.000077
21
470.800312
0
LINE
8
Calque 1
10
440.000077
20
470.800312
11
440.196830
21
471.100900
0
LINE
8
Calque 1
10
440.196830
20
471.100900
11
441.358110
21
472.489900
0
LINE
8
Calque 1
10
441.358110
20
472.489900
11
443.633890
21
474.684700
0
LINE
8
Calque 1
10
443.633890
20
474.684700
11
446.069470
21
477.132100
0
LINE
8
Calque 1
10
446.069470
20
477.132100
11
447.458530
21
478.348200
0
LINE
8
Calque 1
10
447.458530
20
478.348200
11
447.628242
21
478.445337
0
LINE
8
Calque 1
10
447.628242
20
478.445337
11
447.711480
21
478.678900
0
LINE
8
Calque 1
10
447.711480
20
478.678900
11
448.254471
21
479.378812
0
LINE
8
Calque 1
10
448.254471
20
479.378812
11
449.529560
21
480.597200
0
LINE
8
Calque 1
10
449.529560
20
480.597200
11
450.757391
21
481.788625
0
LINE
8
Calque 1
10
450.757391
20
481.788625
11
451.186810
21
482.424000
0
LINE
8
Calque 1
10
451.186810
20
482.424000
11
451.183386
21
482.534250
0
LINE
8
Calque 1
10
451.183386
20
482.534250
11
451.370920
21
482.463000
0
LINE
8
Calque 1
10
451.370920
20
482.463000
11
451.647446
21
482.459462
0
LINE
8
Calque 1
10
451.647446
20
482.459462
11
451.838750
21
482.816000
0
LINE
8
Calque 1
10
451.838750
20
482.816000
11
451.998019
21
483.171125
0
LINE
8
Calque 1
10
451.998019
20
483.171125
11
452.177950
21
483.248600
0
LINE
8
Calque 1
10
452.177950
20
483.248600
11
452.482054
21
483.355350
0
LINE
8
Calque 1
10
452.482054
20
483.355350
11
452.939870
21
483.780700
0
LINE
8
Calque 1
10
452.939870
20
483.780700
11
453.340930
21
484.433100
0
LINE
8
Calque 1
10
453.340930
20
484.433100
11
453.938000
21
485.018300
0
LINE
8
Calque 1
10
453.938000
20
485.018300
11
456.954430
21
487.862600
0
LINE
8
Calque 1
10
456.954430
20
487.862600
11
460.261720
21
491.081100
0
LINE
8
Calque 1
10
460.261720
20
491.081100
11
463.802530
21
494.586800
0
LINE
8
Calque 1
10
463.802530
20
494.586800
11
465.637882
21
496.385137
0
LINE
8
Calque 1
10
465.637882
20
496.385137
11
466.558610
21
497.133100
0
LINE
8
Calque 1
10
466.558610
20
497.133100
11
466.702669
21
497.179387
0
LINE
8
Calque 1
10
466.702669
20
497.179387
11
466.670710
21
497.290400
0
LINE
8
Calque 1
10
466.670710
20
497.290400
11
467.214646
21
497.985662
0
LINE
8
Calque 1
10
467.214646
20
497.985662
11
468.743280
21
499.437000
0
LINE
8
Calque 1
10
468.743280
20
499.437000
11
470.973160
21
501.559200
0
LINE
8
Calque 1
10
470.973160
20
501.559200
11
469.520070
21
501.510200
0
LINE
8
Calque 1
10
469.520070
20
501.510200
11
467.208007
21
501.364827
0
LINE
8
Calque 1
10
467.208007
20
501.364827
11
464.146406
21
501.343737
0
LINE
8
Calque 1
10
464.146406
20
501.343737
11
461.092187
21
501.437905
0
LINE
8
Calque 1
10
461.092187
20
501.437905
11
458.802270
21
501.638300
0
LINE
8
Calque 1
10
458.802270
20
501.638300
11
454.553426
21
502.512662
0
LINE
8
Calque 1
10
454.553426
20
502.512662
11
450.732480
21
503.578800
0
LINE
8
Calque 1
10
450.732480
20
503.578800
11
449.674150
21
503.960700
0
LINE
8
Calque 1
10
449.674150
20
503.960700
11
434.658650
21
488.971700
0
LINE
8
Calque 1
10
434.658650
20
488.971700
11
419.643150
21
473.982700
0
LINE
8
Calque 1
10
419.643150
20
473.982700
11
356.342050
21
537.283800
0
LINE
8
Calque 1
10
356.342050
20
537.283800
11
293.040950
21
600.584900
0
LINE
8
Calque 1
10
293.040950
20
600.584900
11
356.342450
21
663.886400
0
LINE
8
Calque 1
10
356.342450
20
663.886400
11
419.643950
21
727.187900
0
LINE
8
Calque 1
10
419.643950
20
727.187900
11
482.945150
21
663.886700
0
LINE
8
Calque 1
10
482.945150
20
663.886700
11
546.246350
21
600.585500
0
LINE
8
Calque 1
10
546.246350
20
600.585500
11
525.385450
21
579.723300
0
LINE
8
Calque 1
10
525.385450
20
579.723300
11
504.524550
21
558.861200
0
LINE
8
Calque 1
10
504.524550
20
558.861200
11
505.314090
21
556.373600
0
LINE
8
Calque 1
10
505.314090
20
556.373600
11
506.171966
21
553.332242
0
LINE
8
Calque 1
10
506.171966
20
553.332242
11
506.716492
21
550.459212
0
LINE
8
Calque 1
10
506.716492
20
550.459212
11
507.000465
21
547.374852
0
LINE
8
Calque 1
10
507.000465
20
547.374852
11
507.076680
21
543.699500
0
LINE
8
Calque 1
10
507.076680
20
543.699500
11
506.970902
21
540.139091
0
LINE
8
Calque 1
10
506.970902
20
540.139091
11
506.671524
21
536.965850
0
LINE
8
Calque 1
10
506.671524
20
536.965850
11
506.177804
21
534.174209
0
LINE
8
Calque 1
10
506.177804
20
534.174209
11
505.489000
21
531.758600
0
LINE
8
Calque 1
10
505.489000
20
531.758600
11
505.087020
21
530.619300
0
LINE
8
Calque 1
10
505.087020
20
530.619300
11
505.870200
21
531.369600
0
LINE
8
Calque 1
10
505.870200
20
531.369600
11
506.516119
21
532.123587
0
LINE
8
Calque 1
10
506.516119
20
532.123587
11
506.969280
21
532.882600
0
LINE
8
Calque 1
10
506.969280
20
532.882600
11
507.265272
21
533.421262
0
LINE
8
Calque 1
10
507.265272
20
533.421262
11
507.533290
21
533.645300
0
LINE
8
Calque 1
10
507.533290
20
533.645300
11
507.661892
21
533.720750
0
LINE
8
Calque 1
10
507.661892
20
533.720750
11
507.622690
21
533.902100
0
LINE
8
Calque 1
10
507.622690
20
533.902100
11
507.615299
21
534.320698
0
LINE
8
Calque 1
10
507.615299
20
534.320698
11
507.943339
21
535.042662
0
LINE
8
Calque 1
10
507.943339
20
535.042662
11
509.663990
21
537.499400
0
LINE
8
Calque 1
10
509.663990
20
537.499400
11
511.899226
21
540.156687
0
LINE
8
Calque 1
10
511.899226
20
540.156687
11
512.674250
21
540.898067
0
LINE
8
Calque 1
10
512.674250
20
540.898067
11
513.099290
21
541.119800
0
LINE
8
Calque 1
10
513.099290
20
541.119800
11
513.245584
21
541.151575
0
LINE
8
Calque 1
10
513.245584
20
541.151575
11
513.306430
21
541.320000
0
LINE
8
Calque 1
10
513.306430
20
541.320000
11
514.893930
21
543.149300
0
LINE
8
Calque 1
10
514.893930
20
543.149300
11
516.481430
21
544.563600
0
LINE
8
Calque 1
10
516.481430
20
544.563600
11
517.258700
21
545.181600
0
LINE
8
Calque 1
10
517.258700
20
545.181600
11
519.267120
21
547.006800
0
LINE
8
Calque 1
10
519.267120
20
547.006800
11
521.860740
21
549.321900
0
LINE
8
Calque 1
10
521.860740
20
549.321900
11
522.923324
21
550.209450
0
LINE
8
Calque 1
10
522.923324
20
550.209450
11
523.564790
21
550.578600
0
LINE
8
Calque 1
10
523.564790
20
550.578600
11
523.850596
21
550.694775
0
LINE
8
Calque 1
10
523.850596
20
550.694775
11
524.058080
21
550.974000
0
LINE
8
Calque 1
10
524.058080
20
550.974000
11
524.234789
21
551.210250
0
LINE
8
Calque 1
10
524.234789
20
551.210250
11
524.446650
21
551.223000
0
LINE
8
Calque 1
10
524.446650
20
551.223000
11
524.613935
21
551.238538
0
LINE
8
Calque 1
10
524.613935
20
551.238538
11
524.683510
21
551.482300
0
LINE
8
Calque 1
10
524.683510
20
551.482300
11
524.916675
21
551.889375
0
LINE
8
Calque 1
10
524.916675
20
551.889375
11
525.477260
21
552.298400
0
LINE
8
Calque 1
10
525.477260
20
552.298400
11
526.037849
21
552.659025
0
LINE
8
Calque 1
10
526.037849
20
552.659025
11
526.271010
21
552.949600
0
LINE
8
Calque 1
10
526.271010
20
552.949600
11
526.541084
21
553.217175
0
LINE
8
Calque 1
10
526.541084
20
553.217175
11
527.190410
21
553.522700
0
LINE
8
Calque 1
10
527.190410
20
553.522700
11
527.993480
21
553.971500
0
LINE
8
Calque 1
10
527.993480
20
553.971500
11
527.959112
21
554.243764
0
LINE
8
Calque 1
10
527.959112
20
554.243764
11
528.154896
21
554.587513
0
LINE
8
Calque 1
10
528.154896
20
554.587513
11
528.463130
21
554.859055
0
LINE
8
Calque 1
10
528.463130
20
554.859055
11
528.766110
21
554.914700
0
LINE
8
Calque 1
10
528.766110
20
554.914700
11
529.201400
21
555.041150
0
LINE
8
Calque 1
10
529.201400
20
555.041150
11
529.737880
21
555.586100
0
LINE
8
Calque 1
10
529.737880
20
555.586100
11
530.269169
21
556.160538
0
LINE
8
Calque 1
10
530.269169
20
556.160538
11
530.702020
21
556.399500
0
LINE
8
Calque 1
10
530.702020
20
556.399500
11
530.915612
21
556.468375
0
LINE
8
Calque 1
10
530.915612
20
556.468375
11
530.919820
21
556.634000
0
LINE
8
Calque 1
10
530.919820
20
556.634000
11
530.979850
21
556.842075
0
LINE
8
Calque 1
10
530.979850
20
556.842075
11
531.327700
21
557.013100
0
LINE
8
Calque 1
10
531.327700
20
557.013100
11
531.683661
21
557.204400
0
LINE
8
Calque 1
10
531.683661
20
557.204400
11
531.680710
21
557.480900
0
LINE
8
Calque 1
10
531.680710
20
557.480900
11
531.611328
21
557.666325
0
LINE
8
Calque 1
10
531.611328
20
557.666325
11
531.736210
21
557.646400
0
LINE
8
Calque 1
10
531.736210
20
557.646400
11
538.240747
21
563.859450
0
LINE
8
Calque 1
10
538.240747
20
563.859450
11
553.520810
21
579.019100
0
LINE
8
Calque 1
10
553.520810
20
579.019100
11
575.050110
21
600.549500
0
LINE
8
Calque 1
10
575.050110
20
600.549500
11
570.520950
21
605.263600
0
LINE
8
Calque 1
10
570.520950
20
605.263600
11
492.817850
21
683.134700
0
LINE
8
Calque 1
10
492.817850
20
683.134700
11
419.643950
21
756.291800
0
LINE
8
Calque 1
10
419.643950
20
756.291800
11
346.470050
21
683.134700
0
LINE
8
Calque 1
10
346.470050
20
683.134700
11
268.766950
21
605.263600
0
LINE
8
Calque 1
10
268.766950
20
605.263600
11
264.237810
21
600.549500
0
LINE
8
Calque 1
10
264.237810
20
600.549500
11
286.164010
21
578.622200
0
LINE
8
Calque 1
10
286.164010
20
578.622200
11
308.238410
21
556.762700
0
LINE
8
Calque 1
10
308.238410
20
556.762700
11
308.972550
21
556.218100
0
LINE
8
Calque 1
10
308.972550
20
556.218100
11
309.385000
21
555.605700
0
LINE
8
Calque 1
10
309.385000
20
555.605700
11
309.304855
21
555.572268
0
LINE
8
Calque 1
10
309.304855
20
555.572268
11
309.356749
21
555.484066
0
LINE
8
Calque 1
10
309.356749
20
555.484066
11
309.733546
21
555.215900
0
LINE
8
Calque 1
10
309.733546
20
555.215900
11
310.717410
21
554.820400
0
LINE
8
Calque 1
10
310.717410
20
554.820400
11
311.007411
21
554.738463
0
LINE
8
Calque 1
10
311.007411
20
554.738463
11
311.032520
21
554.547400
0
LINE
8
Calque 1
10
311.032520
20
554.547400
11
311.038216
21
554.360538
0
LINE
8
Calque 1
10
311.038216
20
554.360538
11
311.281490
21
554.282800
0
LINE
8
Calque 1
10
311.281490
20
554.282800
11
311.585077
21
554.118200
0
LINE
8
Calque 1
10
311.585077
20
554.118200
11
311.712580
21
553.687500
0
LINE
8
Calque 1
10
311.712580
20
553.687500
11
311.760877
21
553.252088
0
LINE
8
Calque 1
10
311.760877
20
553.252088
11
311.958560
21
553.621500
0
LINE
8
Calque 1
10
311.958560
20
553.621500
11
312.176487
21
553.914538
0
LINE
8
Calque 1
10
312.176487
20
553.914538
11
312.322370
21
553.246600
0
LINE
8
Calque 1
10
312.322370
20
553.246600
11
312.596300
21
552.783600
0
LINE
8
Calque 1
10
312.596300
20
552.783600
11
312.715499
21
552.718600
0
LINE
8
Calque 1
10
312.715499
20
552.718600
11
312.646800
21
552.893900
0
LINE
8
Calque 1
10
312.646800
20
552.893900
11
312.580443
21
553.217205
0
LINE
8
Calque 1
10
312.580443
20
553.217205
11
313.021919
21
552.997538
0
LINE
8
Calque 1
10
313.021919
20
552.997538
11
314.985050
21
551.240200
0
LINE
8
Calque 1
10
314.985050
20
551.240200
11
315.667117
21
550.609338
0
LINE
8
Calque 1
10
315.667117
20
550.609338
11
315.827363
21
550.508148
0
LINE
8
Calque 1
10
315.827363
20
550.508148
11
315.830110
21
550.578700
0
LINE
8
Calque 1
10
315.830110
20
550.578700
11
315.851837
21
550.645475
0
LINE
8
Calque 1
10
315.851837
20
550.645475
11
316.194310
21
550.248000
0
LINE
8
Calque 1
10
316.194310
20
550.248000
11
317.031450
21
549.520400
0
LINE
8
Calque 1
10
317.031450
20
549.520400
11
317.924899
21
548.941325
0
LINE
8
Calque 1
10
317.924899
20
548.941325
11
320.380410
21
546.676100
0
LINE
8
Calque 1
10
320.380410
20
546.676100
11
322.075060
21
545.287100
0
LINE
8
Calque 1
10
322.075060
20
545.287100
11
322.190716
21
545.207450
0
LINE
8
Calque 1
10
322.190716
20
545.207450
11
322.140960
21
545.015900
0
LINE
8
Calque 1
10
322.140960
20
545.015900
11
322.091910
21
544.845788
0
LINE
8
Calque 1
10
322.091910
20
544.845788
11
322.209360
21
544.817500
0
LINE
8
Calque 1
10
322.209360
20
544.817500
11
323.395045
21
544.054263
0
LINE
8
Calque 1
10
323.395045
20
544.054263
11
324.397940
21
543.042700
0
LINE
8
Calque 1
10
324.397940
20
543.042700
11
324.592370
21
542.869600
0
LINE
8
Calque 1
10
324.592370
20
542.869600
11
325.782700
21
541.811200
0
LINE
8
Calque 1
10
325.782700
20
541.811200
11
327.015950
21
540.789200
0
LINE
8
Calque 1
10
327.015950
20
540.789200
11
327.925200
21
539.995400
0
LINE
8
Calque 1
10
327.925200
20
539.995400
11
328.736130
21
539.201700
0
LINE
8
Calque 1
10
328.736130
20
539.201700
11
330.809880
21
537.283400
0
LINE
8
Calque 1
10
330.809880
20
537.283400
11
337.120850
21
531.396500
0
LINE
8
Calque 1
10
337.120850
20
531.396500
11
338.553200
21
529.937600
0
LINE
8
Calque 1
10
338.553200
20
529.937600
11
339.872060
21
528.658900
0
LINE
8
Calque 1
10
339.872060
20
528.658900
11
342.995310
21
525.818300
0
LINE
8
Calque 1
10
342.995310
20
525.818300
11
345.411570
21
523.591200
0
LINE
8
Calque 1
10
345.411570
20
523.591200
11
346.569310
21
522.515225
0
LINE
8
Calque 1
10
346.569310
20
522.515225
11
347.463260
21
521.348800
0
LINE
8
Calque 1
10
347.463260
20
521.348800
11
347.494810
21
521.250900
0
LINE
8
Calque 1
10
347.494810
20
521.250900
11
347.765460
21
521.210000
0
LINE
8
Calque 1
10
347.765460
20
521.210000
11
348.076894
21
521.134750
0
LINE
8
Calque 1
10
348.076894
20
521.134750
11
348.206430
21
520.953900
0
LINE
8
Calque 1
10
348.206430
20
520.953900
11
348.398137
21
520.672550
0
LINE
8
Calque 1
10
348.398137
20
520.672550
11
348.859050
21
520.355800
0
LINE
8
Calque 1
10
348.859050
20
520.355800
11
349.516861
21
519.847400
0
LINE
8
Calque 1
10
349.516861
20
519.847400
11
350.181970
21
519.105300
0
LINE
8
Calque 1
10
350.181970
20
519.105300
11
350.655362
21
518.532150
0
LINE
8
Calque 1
10
350.655362
20
518.532150
11
350.852260
21
518.430000
0
LINE
8
Calque 1
10
350.852260
20
518.430000
11
351.085425
21
518.371288
0
LINE
8
Calque 1
10
351.085425
20
518.371288
11
351.646010
21
517.902700
0
LINE
8
Calque 1
10
351.646010
20
517.902700
11
352.206599
21
517.259025
0
LINE
8
Calque 1
10
352.206599
20
517.259025
11
352.439760
21
516.779300
0
LINE
8
Calque 1
10
352.439760
20
516.779300
11
352.514940
21
516.569338
0
LINE
8
Calque 1
10
352.514940
20
516.569338
11
352.695690
21
516.574400
0
LINE
8
Calque 1
10
352.695690
20
516.574400
11
352.975400
21
516.527500
0
LINE
8
Calque 1
10
352.975400
20
516.527500
11
353.288500
21
516.193200
0
LINE
8
Calque 1
10
353.288500
20
516.193200
11
353.837810
21
515.653700
0
LINE
8
Calque 1
10
353.837810
20
515.653700
11
355.295520
21
514.303200
0
LINE
8
Calque 1
10
355.295520
20
514.303200
11
356.864000
21
512.649600
0
LINE
8
Calque 1
10
356.864000
20
512.649600
11
359.726280
21
509.899100
0
LINE
8
Calque 1
10
359.726280
20
509.899100
11
361.604896
21
508.170613
0
LINE
8
Calque 1
10
361.604896
20
508.170613
11
362.556040
21
507.451700
0
LINE
8
Calque 1
10
362.556040
20
507.451700
11
362.716379
21
507.406700
0
LINE
8
Calque 1
10
362.716379
20
507.406700
11
362.693710
21
507.298700
0
LINE
8
Calque 1
10
362.693710
20
507.298700
11
362.957779
21
506.871616
0
LINE
8
Calque 1
10
362.957779
20
506.871616
11
363.816726
21
505.963500
0
LINE
8
Calque 1
10
363.816726
20
505.963500
11
366.397240
21
503.620000
0
LINE
8
Calque 1
10
366.397240
20
503.620000
11
366.957418
21
503.023800
0
LINE
8
Calque 1
10
366.957418
20
503.023800
11
367.082430
21
502.598900
0
LINE
8
Calque 1
10
367.082430
20
502.598900
11
367.023505
21
502.441388
0
LINE
8
Calque 1
10
367.023505
20
502.441388
11
367.128230
21
502.493200
0
LINE
8
Calque 1
10
367.128230
20
502.493200
11
367.468897
21
502.461328
0
LINE
8
Calque 1
10
367.468897
20
502.461328
11
367.955057
21
502.115525
0
LINE
8
Calque 1
10
367.955057
20
502.115525
11
368.390581
21
501.632209
0
LINE
8
Calque 1
10
368.390581
20
501.632209
11
368.579340
21
501.187800
0
LINE
8
Calque 1
10
368.579340
20
501.187800
11
368.646374
21
500.940113
0
LINE
8
Calque 1
10
368.646374
20
500.940113
11
368.807540
21
500.837100
0
LINE
8
Calque 1
10
368.807540
20
500.837100
11
369.997104
21
500.068050
0
LINE
8
Calque 1
10
369.997104
20
500.068050
11
370.607277
21
499.505494
0
LINE
8
Calque 1
10
370.607277
20
499.505494
11
370.801520
21
499.178700
0
LINE
8
Calque 1
10
370.801520
20
499.178700
11
370.923787
21
498.946863
0
LINE
8
Calque 1
10
370.923787
20
498.946863
11
371.417380
21
498.588800
0
LINE
8
Calque 1
10
371.417380
20
498.588800
11
372.134071
21
498.007900
0
LINE
8
Calque 1
10
372.134071
20
498.007900
11
372.792720
21
497.240100
0
LINE
8
Calque 1
10
372.792720
20
497.240100
11
373.594020
21
496.339200
0
LINE
8
Calque 1
10
373.594020
20
496.339200
11
374.816690
21
495.261000
0
LINE
8
Calque 1
10
374.816690
20
495.261000
11
376.781420
21
493.289700
0
LINE
8
Calque 1
10
376.781420
20
493.289700
11
382.515660
21
487.687100
0
LINE
8
Calque 1
10
382.515660
20
487.687100
11
389.068660
21
481.328800
0
LINE
8
Calque 1
10
389.068660
20
481.328800
11
390.816360
21
479.550600
0
LINE
8
Calque 1
10
390.816360
20
479.550600
11
393.424510
21
477.028600
0
LINE
8
Calque 1
10
393.424510
20
477.028600
11
393.905680
21
476.495400
0
LINE
8
Calque 1
10
393.905680
20
476.495400
11
395.469490
21
474.841800
0
LINE
8
Calque 1
10
395.469490
20
474.841800
11
398.820834
21
471.568413
0
LINE
8
Calque 1
10
398.820834
20
471.568413
11
399.535590
21
470.653700
0
LINE
8
Calque 1
10
399.535590
20
470.653700
11
399.632739
21
470.474688
0
LINE
8
Calque 1
10
399.632739
20
470.474688
11
399.866320
21
470.386500
0
LINE
8
Calque 1
10
399.866320
20
470.386500
11
400.488502
21
469.917325
0
LINE
8
Calque 1
10
400.488502
20
469.917325
11
401.519960
21
468.822500
0
LINE
8
Calque 1
10
401.519960
20
468.822500
11
403.049400
21
467.258500
0
LINE
8
Calque 1
10
403.049400
20
467.258500
11
404.068990
21
466.309000
0
LINE
8
Calque 1
10
404.068990
20
466.309000
11
404.754201
21
465.654925
0
LINE
8
Calque 1
10
404.754201
20
465.654925
11
405.259840
21
465.382900
0
LINE
8
Calque 1
10
405.259840
20
465.382900
11
405.577359
21
465.246913
0
LINE
8
Calque 1
10
405.577359
20
465.246913
11
405.810270
21
464.919900
0
LINE
8
Calque 1
10
405.810270
20
464.919900
11
406.230879
21
464.252100
0
LINE
8
Calque 1
10
406.230879
20
464.252100
11
406.927345
21
463.460400
0
LINE
8
Calque 1
10
406.927345
20
463.460400
11
407.624321
21
462.826500
0
LINE
8
Calque 1
10
407.624321
20
462.826500
11
408.046460
21
462.632100
0
LINE
8
Calque 1
10
408.046460
20
462.632100
11
408.276906
21
462.533713
0
LINE
8
Calque 1
10
408.276906
20
462.533713
11
408.520110
21
462.105400
0
LINE
8
Calque 1
10
408.520110
20
462.105400
11
408.915481
21
461.498525
0
LINE
8
Calque 1
10
408.915481
20
461.498525
11
409.511800
21
460.971300
0
LINE
8
Calque 1
10
409.511800
20
460.971300
11
410.453640
21
460.180100
0
LINE
8
Calque 1
10
410.453640
20
460.180100
11
411.514963
21
459.006663
0
LINE
8
Calque 1
10
411.514963
20
459.006663
11
412.489660
21
458.239200
0
LINE
8
Calque 1
10
412.489660
20
458.239200
11
412.848380
21
457.683400
0
LINE
8
Calque 1
10
412.848380
20
457.683400
11
413.033936
21
457.341925
0
LINE
8
Calque 1
10
413.033936
20
457.341925
11
413.276110
21
457.302100
0
LINE
8
Calque 1
10
413.276110
20
457.302100
11
413.475550
21
457.343275
0
LINE
8
Calque 1
10
413.475550
20
457.343275
11
413.558500
21
457.196500
0
LINE
8
Calque 1
10
413.558500
20
457.196500
11
414.145415
21
456.362283
0
LINE
8
Calque 1
10
414.145415
20
456.362283
11
415.476636
21
455.016163
0
LINE
8
Calque 1
10
415.476636
20
455.016163
11
416.907880
21
453.764111
0
LINE
8
Calque 1
10
416.907880
20
453.764111
11
417.794860
21
453.212100
0
LINE
8
Calque 1
10
417.794860
20
453.212100
11
417.979588
21
453.121425
0
LINE
8
Calque 1
10
417.979588
20
453.121425
11
418.056420
21
452.903400
0
LINE
8
Calque 1
10
418.056420
20
452.903400
11
418.100211
21
452.729163
0
LINE
8
Calque 1
10
418.100211
20
452.729163
11
418.205450
21
452.743700
0
LINE
8
Calque 1
10
418.205450
20
452.743700
11
419.065350
21
452.699700
0
LINE
8
Calque 1
10
419.065350
20
452.699700
11
419.674445
21
452.598230
0
LINE
8
Calque 1
10
419.674445
20
452.598230
11
420.272979
21
452.653538
0
LINE
8
Calque 1
10
420.272979
20
452.653538
11
421.760590
21
453.307500
0
LINE
8
Calque 1
10
421.760590
20
453.307500
11
421.760700
21
453.308600
0
LINE
8
Calque 1
10
405.270100
20
496.770100
11
409.325260
21
500.441800
0
LINE
8
Calque 1
10
409.325260
20
500.441800
11
411.792500
21
502.684862
0
LINE
8
Calque 1
10
411.792500
20
502.684862
11
413.823180
21
504.268900
0
LINE
8
Calque 1
10
413.823180
20
504.268900
11
416.044122
21
505.562677
0
LINE
8
Calque 1
10
416.044122
20
505.562677
11
418.744906
21
506.911962
0
LINE
8
Calque 1
10
418.744906
20
506.911962
11
421.622227
21
508.174717
0
LINE
8
Calque 1
10
421.622227
20
508.174717
11
424.372780
21
509.208900
0
LINE
8
Calque 1
10
424.372780
20
509.208900
11
426.536272
21
510.025900
0
LINE
8
Calque 1
10
426.536272
20
510.025900
11
427.512410
21
510.564500
0
LINE
8
Calque 1
10
427.512410
20
510.564500
11
427.278885
21
511.211000
0
LINE
8
Calque 1
10
427.278885
20
511.211000
11
426.534070
21
512.287400
0
LINE
8
Calque 1
10
426.534070
20
512.287400
11
423.329428
21
516.743920
0
LINE
8
Calque 1
10
423.329428
20
516.743920
11
420.627526
21
521.473487
0
LINE
8
Calque 1
10
420.627526
20
521.473487
11
418.473022
21
526.387461
0
LINE
8
Calque 1
10
418.473022
20
526.387461
11
417.614998
21
528.885900
0
LINE
8
Calque 1
10
417.614998
20
528.885900
11
416.910570
21
531.397200
0
LINE
8
Calque 1
10
416.910570
20
531.397200
11
416.184243
21
534.543812
0
LINE
8
Calque 1
10
416.184243
20
534.543812
11
415.772378
21
537.184400
0
LINE
8
Calque 1
10
415.772378
20
537.184400
11
415.590998
21
540.106387
0
LINE
8
Calque 1
10
415.590998
20
540.106387
11
415.556130
21
544.097200
0
LINE
8
Calque 1
10
415.556130
20
544.097200
11
415.678447
21
549.746700
0
LINE
8
Calque 1
10
415.678447
20
549.746700
11
415.892395
21
551.535869
0
LINE
8
Calque 1
10
415.892395
20
551.535869
11
416.274570
21
553.503200
0
LINE
8
Calque 1
10
416.274570
20
553.503200
11
417.005853
21
556.542638
0
LINE
8
Calque 1
10
417.005853
20
556.542638
11
417.885885
21
559.460714
0
LINE
8
Calque 1
10
417.885885
20
559.460714
11
418.922698
21
562.274204
0
LINE
8
Calque 1
10
418.922698
20
562.274204
11
420.124326
21
564.999887
0
LINE
8
Calque 1
10
420.124326
20
564.999887
11
421.498804
21
567.654541
0
LINE
8
Calque 1
10
421.498804
20
567.654541
11
423.054165
21
570.254942
0
LINE
8
Calque 1
10
423.054165
20
570.254942
11
424.798442
21
572.817869
0
LINE
8
Calque 1
10
424.798442
20
572.817869
11
426.739670
21
575.360100
0
LINE
8
Calque 1
10
426.739670
20
575.360100
11
429.418002
21
578.376952
0
LINE
8
Calque 1
10
429.418002
20
578.376952
11
432.437230
21
581.192437
0
LINE
8
Calque 1
10
432.437230
20
581.192437
11
435.810278
21
583.817555
0
LINE
8
Calque 1
10
435.810278
20
583.817555
11
439.550070
21
586.263300
0
LINE
8
Calque 1
10
439.550070
20
586.263300
11
441.908371
21
587.584844
0
LINE
8
Calque 1
10
441.908371
20
587.584844
11
444.354955
21
588.769873
0
LINE
8
Calque 1
10
444.354955
20
588.769873
11
446.883282
21
589.816319
0
LINE
8
Calque 1
10
446.883282
20
589.816319
11
449.486813
21
590.722112
0
LINE
8
Calque 1
10
449.486813
20
590.722112
11
452.159006
21
591.485186
0
LINE
8
Calque 1
10
452.159006
20
591.485186
11
454.893323
21
592.103470
0
LINE
8
Calque 1
10
454.893323
20
592.103470
11
457.683225
21
592.574898
0
LINE
8
Calque 1
10
457.683225
20
592.574898
11
460.522170
21
592.897400
0
LINE
8
Calque 1
10
460.522170
20
592.897400
11
465.330300
21
593.174600
0
LINE
8
Calque 1
10
465.330300
20
593.174600
11
466.364603
21
593.209075
0
LINE
8
Calque 1
10
466.364603
20
593.209075
11
466.945076
21
593.463900
0
LINE
8
Calque 1
10
466.945076
20
593.463900
11
467.292886
21
594.166175
0
LINE
8
Calque 1
10
467.292886
20
594.166175
11
467.629200
21
595.543000
0
LINE
8
Calque 1
10
467.629200
20
595.543000
11
467.614124
21
596.413037
0
LINE
8
Calque 1
10
467.614124
20
596.413037
11
467.385342
21
597.961053
0
LINE
8
Calque 1
10
467.385342
20
597.961053
11
466.459272
21
602.357400
0
LINE
8
Calque 1
10
466.459272
20
602.357400
11
465.196224
21
607.264797
0
LINE
8
Calque 1
10
465.196224
20
607.264797
11
463.941430
21
611.216000
0
LINE
8
Calque 1
10
463.941430
20
611.216000
11
461.877190
21
617.830600
0
LINE
8
Calque 1
10
461.877190
20
617.830600
11
460.629881
21
621.989520
0
LINE
8
Calque 1
10
460.629881
20
621.989520
11
459.012383
21
626.814787
0
LINE
8
Calque 1
10
459.012383
20
626.814787
11
455.097980
21
637.230500
0
LINE
8
Calque 1
10
455.097980
20
637.230500
11
452.920076
21
642.357828
0
LINE
8
Calque 1
10
452.920076
20
642.357828
11
450.650726
21
647.144486
0
LINE
8
Calque 1
10
450.650726
20
647.144486
11
448.278717
21
651.608135
0
LINE
8
Calque 1
10
448.278717
20
651.608135
11
445.792838
21
655.766437
0
LINE
8
Calque 1
10
445.792838
20
655.766437
11
443.181876
21
659.637054
0
LINE
8
Calque 1
10
443.181876
20
659.637054
11
440.434620
21
663.237645
0
LINE
8
Calque 1
10
440.434620
20
663.237645
11
437.539859
21
666.585874
0
LINE
8
Calque 1
10
437.539859
20
666.585874
11
434.486380
21
669.699400
0
LINE
8
Calque 1
10
434.486380
20
669.699400
11
430.575960
21
673.124609
0
LINE
8
Calque 1
10
430.575960
20
673.124609
11
426.789093
21
675.785850
0
LINE
8
Calque 1
10
426.789093
20
675.785850
11
424.927340
21
676.838941
0
LINE
8
Calque 1
10
424.927340
20
676.838941
11
423.078894
21
677.711791
0
LINE
8
Calque 1
10
423.078894
20
677.711791
11
421.237894
21
678.407982
0
LINE
8
Calque 1
10
421.237894
20
678.407982
11
419.398480
21
678.931100
0
LINE
8
Calque 1
10
419.398480
20
678.931100
11
416.536679
21
679.738325
0
LINE
8
Calque 1
10
416.536679
20
679.738325
11
413.955550
21
680.656400
0
LINE
8
Calque 1
10
413.955550
20
680.656400
11
410.180268
21
682.399534
0
LINE
8
Calque 1
10
410.180268
20
682.399534
11
405.704553
21
684.729300
0
LINE
8
Calque 1
10
405.704553
20
684.729300
11
400.908410
21
687.439166
0
LINE
8
Calque 1
10
400.908410
20
687.439166
11
396.171850
21
690.322600
0
LINE
8
Calque 1
10
396.171850
20
690.322600
11
393.579380
21
691.866900
0
LINE
8
Calque 1
10
393.579380
20
691.866900
11
393.089110
21
691.068500
0
LINE
8
Calque 1
10
393.089110
20
691.068500
11
392.880971
21
690.029037
0
LINE
8
Calque 1
10
392.880971
20
690.029037
11
392.974370
21
688.419800
0
LINE
8
Calque 1
10
392.974370
20
688.419800
11
393.461382
21
685.949823
0
LINE
8
Calque 1
10
393.461382
20
685.949823
11
394.373499
21
683.722312
0
LINE
8
Calque 1
10
394.373499
20
683.722312
11
395.846066
21
681.483795
0
LINE
8
Calque 1
10
395.846066
20
681.483795
11
398.014430
21
678.980800
0
LINE
8
Calque 1
10
398.014430
20
678.980800
11
400.064950
21
676.542500
0
LINE
8
Calque 1
10
400.064950
20
676.542500
11
399.958275
21
676.041984
0
LINE
8
Calque 1
10
399.958275
20
676.041984
11
399.674240
21
675.497275
0
LINE
8
Calque 1
10
399.674240
20
675.497275
11
398.790030
21
674.603700
0
LINE
8
Calque 1
10
398.790030
20
674.603700
11
398.084480
21
674.175600
0
LINE
8
Calque 1
10
398.084480
20
674.175600
11
398.876280
21
673.879700
0
LINE
8
Calque 1
10
398.876280
20
673.879700
11
400.846315
21
672.971664
0
LINE
8
Calque 1
10
400.846315
20
672.971664
11
402.725089
21
671.764012
0
LINE
8
Calque 1
10
402.725089
20
671.764012
11
404.472588
21
670.286380
0
LINE
8
Calque 1
10
404.472588
20
670.286380
11
406.048800
21
668.568400
0
LINE
8
Calque 1
10
406.048800
20
668.568400
11
407.139146
21
667.095064
0
LINE
8
Calque 1
10
407.139146
20
667.095064
11
407.910480
21
665.764912
0
LINE
8
Calque 1
10
407.910480
20
665.764912
11
408.370226
21
664.562655
0
LINE
8
Calque 1
10
408.370226
20
664.562655
11
408.525810
21
663.473000
0
LINE
8
Calque 1
10
408.525810
20
663.473000
11
408.397357
21
662.289578
0
LINE
8
Calque 1
10
408.397357
20
662.289578
11
408.178840
21
661.866918
0
LINE
8
Calque 1
10
408.178840
20
661.866918
11
407.811550
21
661.525725
0
LINE
8
Calque 1
10
407.811550
20
661.525725
11
406.492918
21
660.994034
0
LINE
8
Calque 1
10
406.492918
20
660.994034
11
404.165990
21
660.507100
0
LINE
8
Calque 1
10
404.165990
20
660.507100
11
399.629312
21
659.454666
0
LINE
8
Calque 1
10
399.629312
20
659.454666
11
394.745576
21
657.947900
0
LINE
8
Calque 1
10
394.745576
20
657.947900
11
390.225247
21
656.230384
0
LINE
8
Calque 1
10
390.225247
20
656.230384
11
386.778790
21
654.545700
0
LINE
8
Calque 1
10
386.778790
20
654.545700
11
385.483039
21
653.681693
0
LINE
8
Calque 1
10
385.483039
20
653.681693
11
384.181453
21
652.621928
0
LINE
8
Calque 1
10
384.181453
20
652.621928
11
381.529074
21
649.877825
0
LINE
8
Calque 1
10
381.529074
20
649.877825
11
378.758253
21
646.238784
0
LINE
8
Calque 1
10
378.758253
20
646.238784
11
375.805590
21
641.630200
0
LINE
8
Calque 1
10
375.805590
20
641.630200
11
374.358425
21
639.389898
0
LINE
8
Calque 1
10
374.358425
20
639.389898
11
372.647023
21
637.025536
0
LINE
8
Calque 1
10
372.647023
20
637.025536
11
368.828311
21
632.372037
0
LINE
8
Calque 1
10
368.828311
20
632.372037
11
365.143064
21
628.564520
0
LINE
8
Calque 1
10
365.143064
20
628.564520
11
363.598492
21
627.257635
0
LINE
8
Calque 1
10
363.598492
20
627.257635
11
362.384890
21
626.497800
0
LINE
8
Calque 1
10
362.384890
20
626.497800
11
361.116003
21
626.141403
0
LINE
8
Calque 1
10
361.116003
20
626.141403
11
359.763430
21
626.295925
0
LINE
8
Calque 1
10
359.763430
20
626.295925
11
358.045554
21
627.044184
0
LINE
8
Calque 1
10
358.045554
20
627.044184
11
355.680760
21
628.469000
0
LINE
8
Calque 1
10
355.680760
20
628.469000
11
352.728594
21
630.190975
0
LINE
8
Calque 1
10
352.728594
20
630.190975
11
351.951052
21
630.357425
0
LINE
8
Calque 1
10
351.951052
20
630.357425
11
351.242940
21
630.216900
0
LINE
8
Calque 1
10
351.242940
20
630.216900
11
350.333483
21
629.666187
0
LINE
8
Calque 1
10
350.333483
20
629.666187
11
349.406430
21
628.644100
0
LINE
8
Calque 1
10
349.406430
20
628.644100
11
348.722670
21
627.817850
0
LINE
8
Calque 1
10
348.722670
20
627.817850
11
347.954959
21
627.198225
0
LINE
8
Calque 1
10
347.954959
20
627.198225
11
346.874369
21
626.639237
0
LINE
8
Calque 1
10
346.874369
20
626.639237
11
345.251970
21
625.994900
0
LINE
8
Calque 1
10
345.251970
20
625.994900
11
343.500139
21
625.216259
0
LINE
8
Calque 1
10
343.500139
20
625.216259
11
342.958890
21
624.805800
0
LINE
8
Calque 1
10
342.958890
20
624.805800
11
342.613376
21
624.324050
0
LINE
8
Calque 1
10
342.613376
20
624.324050
11
342.443064
21
623.728113
0
LINE
8
Calque 1
10
342.443064
20
623.728113
11
342.427423
21
622.975091
0
LINE
8
Calque 1
10
342.427423
20
622.975091
11
342.778020
21
620.826200
0
LINE
8
Calque 1
10
342.778020
20
620.826200
11
343.062315
21
618.513862
0
LINE
8
Calque 1
10
343.062315
20
618.513862
11
343.174890
21
615.469300
0
LINE
8
Calque 1
10
343.174890
20
615.469300
11
343.179890
21
611.964300
0
LINE
8
Calque 1
10
343.179890
20
611.964300
11
344.098050
21
610.948000
0
LINE
8
Calque 1
10
344.098050
20
610.948000
11
344.774235
21
610.302445
0
LINE
8
Calque 1
10
344.774235
20
610.302445
11
345.787826
21
609.662037
0
LINE
8
Calque 1
10
345.787826
20
609.662037
11
350.654370
21
607.410900
0
LINE
8
Calque 1
10
350.654370
20
607.410900
11
353.047839
21
606.215183
0
LINE
8
Calque 1
10
353.047839
20
606.215183
11
354.938599
21
604.899962
0
LINE
8
Calque 1
10
354.938599
20
604.899962
11
356.575249
21
603.256711
0
LINE
8
Calque 1
10
356.575249
20
603.256711
11
358.206390
21
601.076900
0
LINE
8
Calque 1
10
358.206390
20
601.076900
11
358.899655
21
600.235855
0
LINE
8
Calque 1
10
358.899655
20
600.235855
11
359.672326
21
599.674212
0
LINE
8
Calque 1
10
359.672326
20
599.674212
11
360.585226
21
599.360389
0
LINE
8
Calque 1
10
360.585226
20
599.360389
11
361.699180
21
599.262800
0
LINE
8
Calque 1
10
361.699180
20
599.262800
11
362.890293
21
599.545325
0
LINE
8
Calque 1
10
362.890293
20
599.545325
11
364.477763
21
600.470600
0
LINE
8
Calque 1
10
364.477763
20
600.470600
11
366.628531
21
602.155175
0
LINE
8
Calque 1
10
366.628531
20
602.155175
11
369.509540
21
604.715600
0
LINE
8
Calque 1
10
369.509540
20
604.715600
11
375.249617
21
609.848081
0
LINE
8
Calque 1
10
375.249617
20
609.848081
11
379.547828
21
613.269850
0
LINE
8
Calque 1
10
379.547828
20
613.269850
11
381.362264
21
614.487026
0
LINE
8
Calque 1
10
381.362264
20
614.487026
11
383.063470
21
615.453894
0
LINE
8
Calque 1
10
383.063470
20
615.453894
11
386.455840
21
616.873200
0
LINE
8
Calque 1
10
386.455840
20
616.873200
11
388.740294
21
617.458780
0
LINE
8
Calque 1
10
388.740294
20
617.458780
11
390.929665
21
617.634512
0
LINE
8
Calque 1
10
390.929665
20
617.634512
11
393.074583
21
617.399714
0
LINE
8
Calque 1
10
393.074583
20
617.399714
11
395.225680
21
616.753700
0
LINE
8
Calque 1
10
395.225680
20
616.753700
11
397.546066
21
615.686868
0
LINE
8
Calque 1
10
397.546066
20
615.686868
11
399.709468
21
614.386914
0
LINE
8
Calque 1
10
399.709468
20
614.386914
11
401.675512
21
612.896762
0
LINE
8
Calque 1
10
401.675512
20
612.896762
11
403.403825
21
611.259337
0
LINE
8
Calque 1
10
403.403825
20
611.259337
11
404.854032
21
609.517564
0
LINE
8
Calque 1
10
404.854032
20
609.517564
11
405.985759
21
607.714367
0
LINE
8
Calque 1
10
405.985759
20
607.714367
11
406.758633
21
605.892671
0
LINE
8
Calque 1
10
406.758633
20
605.892671
11
407.132280
21
604.095400
0
LINE
8
Calque 1
10
407.132280
20
604.095400
11
407.118218
21
602.379264
0
LINE
8
Calque 1
10
407.118218
20
602.379264
11
406.793987
21
600.380216
0
LINE
8
Calque 1
10
406.793987
20
600.380216
11
406.163905
21
598.108885
0
LINE
8
Calque 1
10
406.163905
20
598.108885
11
405.232291
21
595.575900
0
LINE
8
Calque 1
10
405.232291
20
595.575900
11
404.003464
21
592.791890
0
LINE
8
Calque 1
10
404.003464
20
592.791890
11
402.481742
21
589.767484
0
LINE
8
Calque 1
10
402.481742
20
589.767484
11
398.576890
21
583.040000
0
LINE
8
Calque 1
10
398.576890
20
583.040000
11
394.667233
21
577.175750
0
LINE
8
Calque 1
10
394.667233
20
577.175750
11
389.368800
21
570.158600
0
LINE
8
Calque 1
10
389.368800
20
570.158600
11
385.991287
21
565.693418
0
LINE
8
Calque 1
10
385.991287
20
565.693418
11
383.024543
21
561.469470
0
LINE
8
Calque 1
10
383.024543
20
561.469470
11
380.454523
21
557.460540
0
LINE
8
Calque 1
10
380.454523
20
557.460540
11
378.267183
21
553.640412
0
LINE
8
Calque 1
10
378.267183
20
553.640412
11
376.448475
21
549.982871
0
LINE
8
Calque 1
10
376.448475
20
549.982871
11
374.984356
21
546.461698
0
LINE
8
Calque 1
10
374.984356
20
546.461698
11
373.860779
21
543.050680
0
LINE
8
Calque 1
10
373.860779
20
543.050680
11
373.063700
21
539.723600
0
LINE
8
Calque 1
10
373.063700
20
539.723600
11
372.621872
21
536.559448
0
LINE
8
Calque 1
10
372.621872
20
536.559448
11
372.614531
21
533.858712
0
LINE
8
Calque 1
10
372.614531
20
533.858712
11
373.042402
21
531.612870
0
LINE
8
Calque 1
10
373.042402
20
531.612870
11
373.906210
21
529.813400
0
LINE
8
Calque 1
10
373.906210
20
529.813400
11
374.569533
21
529.020917
0
LINE
8
Calque 1
10
374.569533
20
529.020917
11
375.376006
21
528.478137
0
LINE
8
Calque 1
10
375.376006
20
528.478137
11
376.489569
21
528.107014
0
LINE
8
Calque 1
10
376.489569
20
528.107014
11
378.074160
21
527.829500
0
LINE
8
Calque 1
10
378.074160
20
527.829500
11
380.284771
21
527.407180
0
LINE
8
Calque 1
10
380.284771
20
527.407180
11
382.236375
21
526.785087
0
LINE
8
Calque 1
10
382.236375
20
526.785087
11
383.905589
21
525.972477
0
LINE
8
Calque 1
10
383.905589
20
525.972477
11
385.269030
21
524.978600
0
LINE
8
Calque 1
10
385.269030
20
524.978600
11
386.320049
21
523.932561
0
LINE
8
Calque 1
10
386.320049
20
523.932561
11
386.993370
21
522.914562
0
LINE
8
Calque 1
10
386.993370
20
522.914562
11
387.428723
21
521.635058
0
LINE
8
Calque 1
10
387.428723
20
521.635058
11
387.765840
21
519.804500
0
LINE
8
Calque 1
10
387.765840
20
519.804500
11
388.162483
21
517.675509
0
LINE
8
Calque 1
10
388.162483
20
517.675509
11
388.708244
21
515.684725
0
LINE
8
Calque 1
10
388.708244
20
515.684725
11
389.470025
21
513.624903
0
LINE
8
Calque 1
10
389.470025
20
513.624903
11
390.514730
21
511.288800
0
LINE
8
Calque 1
10
390.514730
20
511.288800
11
392.908903
21
506.876775
0
LINE
8
Calque 1
10
392.908903
20
506.876775
11
395.744705
21
502.604850
0
LINE
8
Calque 1
10
395.744705
20
502.604850
11
398.644219
21
498.992550
0
LINE
8
Calque 1
10
398.644219
20
498.992550
11
399.999770
21
497.596111
0
LINE
8
Calque 1
10
399.999770
20
497.596111
11
401.229530
21
496.559400
0
LINE
8
Calque 1
10
401.229530
20
496.559400
11
402.240957
21
495.985877
0
LINE
8
Calque 1
10
402.240957
20
495.985877
11
403.189748
21
495.826587
0
LINE
8
Calque 1
10
403.189748
20
495.826587
11
404.168699
21
496.086380
0
LINE
8
Calque 1
10
404.168699
20
496.086380
11
405.270610
21
496.770100
0
LINE
8
Calque 1
10
405.270610
20
496.770100
11
405.270100
21
496.770100
0
LINE
8
Calque 1
10
386.703400
20
525.851500
11
386.029892
21
526.297137
0
LINE
8
Calque 1
10
386.029892
20
526.297137
11
385.456242
21
526.925644
0
LINE
8
Calque 1
10
385.456242
20
526.925644
11
384.975916
21
527.758909
0
LINE
8
Calque 1
10
384.975916
20
527.758909
11
384.582382
21
528.818825
0
LINE
8
Calque 1
10
384.582382
20
528.818825
11
384.029565
21
531.706169
0
LINE
8
Calque 1
10
384.029565
20
531.706169
11
383.745530
21
535.762800
0
LINE
8
Calque 1
10
383.745530
20
535.762800
11
383.750268
21
540.187781
0
LINE
8
Calque 1
10
383.750268
20
540.187781
11
384.144007
21
544.035900
0
LINE
8
Calque 1
10
384.144007
20
544.035900
11
384.981570
21
547.638919
0
LINE
8
Calque 1
10
384.981570
20
547.638919
11
386.317780
21
551.328600
0
LINE
8
Calque 1
10
386.317780
20
551.328600
11
387.801686
21
554.480806
0
LINE
8
Calque 1
10
387.801686
20
554.480806
11
389.668298
21
557.682189
0
LINE
8
Calque 1
10
389.668298
20
557.682189
11
391.991271
21
561.019475
0
LINE
8
Calque 1
10
391.991271
20
561.019475
11
394.844260
21
564.579387
0
LINE
8
Calque 1
10
394.844260
20
564.579387
11
398.300920
21
568.448652
0
LINE
8
Calque 1
10
398.300920
20
568.448652
11
402.434907
21
572.713992
0
LINE
8
Calque 1
10
402.434907
20
572.713992
11
407.319875
21
577.462133
0
LINE
8
Calque 1
10
407.319875
20
577.462133
11
413.029480
21
582.779800
0
LINE
8
Calque 1
10
413.029480
20
582.779800
11
417.666800
21
587.137639
0
LINE
8
Calque 1
10
417.666800
20
587.137639
11
421.230454
21
590.757937
0
LINE
8
Calque 1
10
421.230454
20
590.757937
11
423.984045
21
593.923867
0
LINE
8
Calque 1
10
423.984045
20
593.923867
11
426.191180
21
596.918600
0
LINE
8
Calque 1
10
426.191180
20
596.918600
11
428.180809
21
600.089904
0
LINE
8
Calque 1
10
428.180809
20
600.089904
11
429.890911
21
603.290970
0
LINE
8
Calque 1
10
429.890911
20
603.290970
11
431.333426
21
606.560467
0
LINE
8
Calque 1
10
431.333426
20
606.560467
11
432.520292
21
609.937062
0
LINE
8
Calque 1
10
432.520292
20
609.937062
11
433.463449
21
613.459425
0
LINE
8
Calque 1
10
433.463449
20
613.459425
11
434.174835
21
617.166223
0
LINE
8
Calque 1
10
434.174835
20
617.166223
11
434.666389
21
621.096126
0
LINE
8
Calque 1
10
434.666389
20
621.096126
11
434.950050
21
625.287800
0
LINE
8
Calque 1
10
434.950050
20
625.287800
11
435.190779
21
628.966812
0
LINE
8
Calque 1
10
435.190779
20
628.966812
11
435.368312
21
629.757411
0
LINE
8
Calque 1
10
435.368312
20
629.757411
11
435.632530
21
630.198200
0
LINE
8
Calque 1
10
435.632530
20
630.198200
11
436.370846
21
630.679942
0
LINE
8
Calque 1
10
436.370846
20
630.679942
11
437.161217
21
630.661462
0
LINE
8
Calque 1
10
437.161217
20
630.661462
11
437.888113
21
630.180777
0
LINE
8
Calque 1
10
437.888113
20
630.180777
11
438.436000
21
629.275900
0
LINE
8
Calque 1
10
438.436000
20
629.275900
11
438.852528
21
627.796459
0
LINE
8
Calque 1
10
438.852528
20
627.796459
11
439.230517
21
625.728025
0
LINE
8
Calque 1
10
439.230517
20
625.728025
11
439.753490
21
620.597500
0
LINE
8
Calque 1
10
439.753490
20
620.597500
11
439.858656
21
617.240187
0
LINE
8
Calque 1
10
439.858656
20
617.240187
11
439.772079
21
614.099844
0
LINE
8
Calque 1
10
439.772079
20
614.099844
11
439.486660
21
611.143879
0
LINE
8
Calque 1
10
439.486660
20
611.143879
11
438.995297
21
608.339700
0
LINE
8
Calque 1
10
438.995297
20
608.339700
11
438.290893
21
605.654715
0
LINE
8
Calque 1
10
438.290893
20
605.654715
11
437.366347
21
603.056331
0
LINE
8
Calque 1
10
437.366347
20
603.056331
11
436.214559
21
600.511957
0
LINE
8
Calque 1
10
436.214559
20
600.511957
11
434.828430
21
597.989000
0
LINE
8
Calque 1
10
434.828430
20
597.989000
11
432.594039
21
594.648244
0
LINE
8
Calque 1
10
432.594039
20
594.648244
11
429.547337
21
590.887075
0
LINE
8
Calque 1
10
429.547337
20
590.887075
11
425.306407
21
586.266219
0
LINE
8
Calque 1
10
425.306407
20
586.266219
11
419.489330
21
580.346400
0
LINE
8
Calque 1
10
419.489330
20
580.346400
11
412.784153
21
573.562317
0
LINE
8
Calque 1
10
412.784153
20
573.562317
11
408.205292
21
568.610512
0
LINE
8
Calque 1
10
408.205292
20
568.610512
11
404.779125
21
564.373327
0
LINE
8
Calque 1
10
404.779125
20
564.373327
11
401.532030
21
559.733100
0
LINE
8
Calque 1
10
401.532030
20
559.733100
11
398.385128
21
554.539283
0
LINE
8
Calque 1
10
398.385128
20
554.539283
11
395.972509
21
549.492287
0
LINE
8
Calque 1
10
395.972509
20
549.492287
11
395.046724
21
547.036413
0
LINE
8
Calque 1
10
395.046724
20
547.036413
11
394.310713
21
544.632323
0
LINE
8
Calque 1
10
394.310713
20
544.632323
11
393.766542
21
542.285044
0
LINE
8
Calque 1
10
393.766542
20
542.285044
11
393.416280
21
539.999600
0
LINE
8
Calque 1
10
393.416280
20
539.999600
11
393.275063
21
537.224012
0
LINE
8
Calque 1
10
393.275063
20
537.224012
11
393.557520
21
533.671500
0
LINE
8
Calque 1
10
393.557520
20
533.671500
11
393.980990
21
529.860400
0
LINE
8
Calque 1
10
393.980990
20
529.860400
11
393.341830
21
528.464300
0
LINE
8
Calque 1
10
393.341830
20
528.464300
11
392.550356
21
527.147050
0
LINE
8
Calque 1
10
392.550356
20
527.147050
11
391.555515
21
526.202925
0
LINE
8
Calque 1
10
391.555515
20
526.202925
11
390.363094
21
525.635937
0
LINE
8
Calque 1
10
390.363094
20
525.635937
11
388.978880
21
525.450100
0
LINE
8
Calque 1
10
388.978880
20
525.450100
11
387.699299
21
525.569237
0
LINE
8
Calque 1
10
387.699299
20
525.569237
11
386.703480
21
525.851500
0
LINE
8
Calque 1
10
386.703480
20
525.851500
11
386.703400
21
525.851500
0
LINE
8
Calque 1
10
388.687770
20
642.031500
11
387.626092
21
642.527188
0
LINE
8
Calque 1
10
387.626092
20
642.527188
11
386.745480
21
643.143400
0
LINE
8
Calque 1
10
386.745480
20
643.143400
11
386.135609
21
643.947925
0
LINE
8
Calque 1
10
386.135609
20
643.947925
11
386.101520
21
645.168400
0
LINE
8
Calque 1
10
386.101520
20
645.168400
11
386.356327
21
646.410383
0
LINE
8
Calque 1
10
386.356327
20
646.410383
11
386.880269
21
647.787037
0
LINE
8
Calque 1
10
386.880269
20
647.787037
11
387.583459
21
649.101273
0
LINE
8
Calque 1
10
387.583459
20
649.101273
11
388.376010
21
650.156000
0
LINE
8
Calque 1
10
388.376010
20
650.156000
11
389.181070
21
650.879050
0
LINE
8
Calque 1
10
389.181070
20
650.879050
11
390.032769
21
651.190875
0
LINE
8
Calque 1
10
390.032769
20
651.190875
11
391.238653
21
651.128788
0
LINE
8
Calque 1
10
391.238653
20
651.128788
11
393.106270
21
650.730100
0
LINE
8
Calque 1
10
393.106270
20
650.730100
11
396.799090
21
650.063200
0
LINE
8
Calque 1
10
396.799090
20
650.063200
11
397.761825
21
649.855139
0
LINE
8
Calque 1
10
397.761825
20
649.855139
11
398.547525
21
649.287538
0
LINE
8
Calque 1
10
398.547525
20
649.287538
11
399.077010
21
648.445267
0
LINE
8
Calque 1
10
399.077010
20
648.445267
11
399.271100
21
647.413200
0
LINE
8
Calque 1
10
399.271100
20
647.413200
11
399.223817
21
646.771347
0
LINE
8
Calque 1
10
399.223817
20
646.771347
11
399.007207
21
646.223675
0
LINE
8
Calque 1
10
399.007207
20
646.223675
11
397.617460
21
644.665600
0
LINE
8
Calque 1
10
397.617460
20
644.665600
11
395.445262
21
642.884208
0
LINE
8
Calque 1
10
395.445262
20
642.884208
11
394.354550
21
642.277308
0
LINE
8
Calque 1
10
394.354550
20
642.277308
11
393.255192
21
641.857962
0
LINE
8
Calque 1
10
393.255192
20
641.857962
11
392.143013
21
641.624941
0
LINE
8
Calque 1
10
392.143013
20
641.624941
11
391.013834
21
641.577011
0
LINE
8
Calque 1
10
391.013834
20
641.577011
11
389.863479
21
641.712941
0
LINE
8
Calque 1
10
389.863479
20
641.712941
11
388.687770
21
642.031500
0
LINE
8
Calque 1
10
388.687770
20
642.031500
11
388.687770
21
642.031500
0
LINE
8
Calque 1
10
421.306170
20
499.091500
11
423.845071
21
501.299038
0
LINE
8
Calque 1
10
423.845071
20
501.299038
11
428.753650
21
506.086500
0
LINE
8
Calque 1
10
428.753650
20
506.086500
11
435.349730
21
512.711200
0
LINE
8
Calque 1
10
435.349730
20
512.711200
11
433.606470
21
514.559100
0
LINE
8
Calque 1
10
433.606470
20
514.559100
11
430.737510
21
517.898100
0
LINE
8
Calque 1
10
430.737510
20
517.898100
11
429.611800
21
519.389000
0
LINE
8
Calque 1
10
429.611800
20
519.389000
11
428.067500
21
517.860900
0
LINE
8
Calque 1
10
428.067500
20
517.860900
11
426.523200
21
516.121900
0
LINE
8
Calque 1
10
426.523200
20
516.121900
11
428.110700
21
513.913500
0
LINE
8
Calque 1
10
428.110700
20
513.913500
11
429.423592
21
512.064600
0
LINE
8
Calque 1
10
429.423592
20
512.064600
11
429.644832
21
511.441650
0
LINE
8
Calque 1
10
429.644832
20
511.441650
11
429.698200
21
510.778200
0
LINE
8
Calque 1
10
429.698200
20
510.778200
11
429.550516
21
509.632894
0
LINE
8
Calque 1
10
429.550516
20
509.632894
11
428.968409
21
508.794675
0
LINE
8
Calque 1
10
428.968409
20
508.794675
11
427.743295
21
508.084894
0
LINE
8
Calque 1
10
427.743295
20
508.084894
11
425.666590
21
507.324900
0
LINE
8
Calque 1
10
425.666590
20
507.324900
11
420.296505
21
505.189400
0
LINE
8
Calque 1
10
420.296505
20
505.189400
11
417.689395
21
503.946778
0
LINE
8
Calque 1
10
417.689395
20
503.946778
11
415.708790
21
502.846000
0
LINE
8
Calque 1
10
415.708790
20
502.846000
11
414.551670
21
502.113100
0
LINE
8
Calque 1
10
414.551670
20
502.113100
11
415.841080
21
500.784700
0
LINE
8
Calque 1
10
415.841080
20
500.784700
11
417.253888
21
499.554592
0
LINE
8
Calque 1
10
417.253888
20
499.554592
11
418.597471
21
498.874188
0
LINE
8
Calque 1
10
418.597471
20
498.874188
11
419.929132
21
498.725739
0
LINE
8
Calque 1
10
419.929132
20
498.725739
11
421.306170
21
499.091500
0
LINE
8
Calque 1
10
421.306170
20
499.091500
11
421.306170
21
499.091500
0
LINE
8
Calque 1
10
471.852770
20
504.122500
11
476.038077
21
505.132535
0
LINE
8
Calque 1
10
476.038077
20
505.132535
11
480.072678
21
506.585633
0
LINE
8
Calque 1
10
480.072678
20
506.585633
11
483.926240
21
508.460562
0
LINE
8
Calque 1
10
483.926240
20
508.460562
11
487.568432
21
510.736087
0
LINE
8
Calque 1
10
487.568432
20
510.736087
11
490.968923
21
513.390978
0
LINE
8
Calque 1
10
490.968923
20
513.390978
11
494.097381
21
516.403998
0
LINE
8
Calque 1
10
494.097381
20
516.403998
11
496.923474
21
519.753917
0
LINE
8
Calque 1
10
496.923474
20
519.753917
11
499.416870
21
523.419500
0
LINE
8
Calque 1
10
499.416870
20
523.419500
11
501.183523
21
526.710246
0
LINE
8
Calque 1
10
501.183523
20
526.710246
11
502.623257
21
530.201728
0
LINE
8
Calque 1
10
502.623257
20
530.201728
11
503.729009
21
533.848633
0
LINE
8
Calque 1
10
503.729009
20
533.848633
11
504.493716
21
537.605650
0
LINE
8
Calque 1
10
504.493716
20
537.605650
11
504.910318
21
541.427467
0
LINE
8
Calque 1
10
504.910318
20
541.427467
11
504.971750
21
545.268772
0
LINE
8
Calque 1
10
504.971750
20
545.268772
11
504.670952
21
549.084254
0
LINE
8
Calque 1
10
504.670952
20
549.084254
11
504.000860
21
552.828600
0
LINE
8
Calque 1
10
504.000860
20
552.828600
11
502.980769
21
556.462346
0
LINE
8
Calque 1
10
502.980769
20
556.462346
11
501.654384
21
559.934254
0
LINE
8
Calque 1
10
501.654384
20
559.934254
11
500.039706
21
563.231192
0
LINE
8
Calque 1
10
500.039706
20
563.231192
11
498.154737
21
566.340028
0
LINE
8
Calque 1
10
498.154737
20
566.340028
11
496.017477
21
569.247631
0
LINE
8
Calque 1
10
496.017477
20
569.247631
11
493.645929
21
571.940870
0
LINE
8
Calque 1
10
493.645929
20
571.940870
11
491.058094
21
574.406612
0
LINE
8
Calque 1
10
491.058094
20
574.406612
11
488.271973
21
576.631725
0
LINE
8
Calque 1
10
488.271973
20
576.631725
11
485.305566
21
578.603078
0
LINE
8
Calque 1
10
485.305566
20
578.603078
11
482.176877
21
580.307539
0
LINE
8
Calque 1
10
482.176877
20
580.307539
11
478.903905
21
581.731977
0
LINE
8
Calque 1
10
478.903905
20
581.731977
11
475.504652
21
582.863259
0
LINE
8
Calque 1
10
475.504652
20
582.863259
11
471.997120
21
583.688255
0
LINE
8
Calque 1
10
471.997120
20
583.688255
11
468.399310
21
584.193831
0
LINE
8
Calque 1
10
468.399310
20
584.193831
11
464.729223
21
584.366857
0
LINE
8
Calque 1
10
464.729223
20
584.366857
11
461.004860
21
584.194200
0
LINE
8
Calque 1
10
461.004860
20
584.194200
11
456.382465
21
583.510000
0
LINE
8
Calque 1
10
456.382465
20
583.510000
11
451.953790
21
582.346647
0
LINE
8
Calque 1
10
451.953790
20
582.346647
11
447.741309
21
580.717595
0
LINE
8
Calque 1
10
447.741309
20
580.717595
11
443.767497
21
578.636300
0
LINE
8
Calque 1
10
443.767497
20
578.636300
11
440.054832
21
576.116218
0
LINE
8
Calque 1
10
440.054832
20
576.116218
11
436.625787
21
573.170803
0
LINE
8
Calque 1
10
436.625787
20
573.170803
11
433.502838
21
569.813512
0
LINE
8
Calque 1
10
433.502838
20
569.813512
11
430.708460
21
566.057800
0
LINE
8
Calque 1
10
430.708460
20
566.057800
11
428.783935
21
562.827039
0
LINE
8
Calque 1
10
428.783935
20
562.827039
11
427.155821
21
559.382388
0
LINE
8
Calque 1
10
427.155821
20
559.382388
11
425.829457
21
555.736642
0
LINE
8
Calque 1
10
425.829457
20
555.736642
11
424.810180
21
551.902600
0
LINE
8
Calque 1
10
424.810180
20
551.902600
11
424.436206
21
549.102456
0
LINE
8
Calque 1
10
424.436206
20
549.102456
11
424.221981
21
545.347600
0
LINE
8
Calque 1
10
424.221981
20
545.347600
11
424.196601
21
541.554569
0
LINE
8
Calque 1
10
424.196601
20
541.554569
11
424.389160
21
538.639900
0
LINE
8
Calque 1
10
424.389160
20
538.639900
11
425.010876
21
535.253849
0
LINE
8
Calque 1
10
425.010876
20
535.253849
11
425.886956
21
531.976264
0
LINE
8
Calque 1
10
425.886956
20
531.976264
11
427.012765
21
528.816356
0
LINE
8
Calque 1
10
427.012765
20
528.816356
11
428.383670
21
525.783338
0
LINE
8
Calque 1
10
428.383670
20
525.783338
11
429.995036
21
522.886421
0
LINE
8
Calque 1
10
429.995036
20
522.886421
11
431.842229
21
520.134817
0
LINE
8
Calque 1
10
431.842229
20
520.134817
11
433.920615
21
517.537740
0
LINE
8
Calque 1
10
433.920615
20
517.537740
11
436.225560
21
515.104400
0
LINE
8
Calque 1
10
436.225560
20
515.104400
11
438.653618
21
512.904725
0
LINE
8
Calque 1
10
438.653618
20
512.904725
11
441.168033
21
510.944223
0
LINE
8
Calque 1
10
441.168033
20
510.944223
11
443.780302
21
509.217157
0
LINE
8
Calque 1
10
443.780302
20
509.217157
11
446.501922
21
507.717788
0
LINE
8
Calque 1
10
446.501922
20
507.717788
11
449.344391
21
506.440376
0
LINE
8
Calque 1
10
449.344391
20
506.440376
11
452.319205
21
505.379183
0
LINE
8
Calque 1
10
452.319205
20
505.379183
11
455.437863
21
504.528471
0
LINE
8
Calque 1
10
455.437863
20
504.528471
11
458.711860
21
503.882500
0
LINE
8
Calque 1
10
458.711860
20
503.882500
11
461.560884
21
503.632830
0
LINE
8
Calque 1
10
461.560884
20
503.632830
11
465.179780
21
503.598363
0
LINE
8
Calque 1
10
465.179780
20
503.598363
11
468.849916
21
503.765964
0
LINE
8
Calque 1
10
468.849916
20
503.765964
11
471.852660
21
504.122500
0
LINE
8
Calque 1
10
471.852660
20
504.122500
11
471.852770
21
504.122500
0
LINE
8
Calque 1
10
451.059070
20
514.424600
11
448.031499
21
515.964445
0
LINE
8
Calque 1
10
448.031499
20
515.964445
11
445.564172
21
517.752138
0
LINE
8
Calque 1
10
445.564172
20
517.752138
11
444.576072
21
518.707921
0
LINE
8
Calque 1
10
444.576072
20
518.707921
11
443.770597
21
519.688461
0
LINE
8
Calque 1
10
443.770597
20
519.688461
11
443.161937
21
520.681354
0
LINE
8
Calque 1
10
443.161937
20
520.681354
11
442.764280
21
521.674200
0
LINE
8
Calque 1
10
442.764280
20
521.674200
11
442.512245
21
522.843703
0
LINE
8
Calque 1
10
442.512245
20
522.843703
11
442.428941
21
524.015734
0
LINE
8
Calque 1
10
442.428941
20
524.015734
11
442.509579
21
525.173643
0
LINE
8
Calque 1
10
442.509579
20
525.173643
11
442.749375
21
526.300775
0
LINE
8
Calque 1
10
442.749375
20
526.300775
11
443.143541
21
527.380479
0
LINE
8
Calque 1
10
443.143541
20
527.380479
11
443.687292
21
528.396103
0
LINE
8
Calque 1
10
443.687292
20
528.396103
11
444.375840
21
529.330994
0
LINE
8
Calque 1
10
444.375840
20
529.330994
11
445.204400
21
530.168500
0
LINE
8
Calque 1
10
445.204400
20
530.168500
11
446.942499
21
531.383014
0
LINE
8
Calque 1
10
446.942499
20
531.383014
11
449.674625
21
533.044613
0
LINE
8
Calque 1
10
449.674625
20
533.044613
11
452.439961
21
534.592380
0
LINE
8
Calque 1
10
452.439961
20
534.592380
11
454.277690
21
535.465400
0
LINE
8
Calque 1
10
454.277690
20
535.465400
11
456.021443
21
535.736570
0
LINE
8
Calque 1
10
456.021443
20
535.736570
11
457.803941
21
535.463363
0
LINE
8
Calque 1
10
457.803941
20
535.463363
11
459.496277
21
534.684748
0
LINE
8
Calque 1
10
459.496277
20
534.684748
11
460.969540
21
533.439700
0
LINE
8
Calque 1
10
460.969540
20
533.439700
11
461.829418
21
532.292470
0
LINE
8
Calque 1
10
461.829418
20
532.292470
11
462.297482
21
530.889538
0
LINE
8
Calque 1
10
462.297482
20
530.889538
11
462.474596
21
528.663611
0
LINE
8
Calque 1
10
462.474596
20
528.663611
11
462.461620
21
525.047400
0
LINE
8
Calque 1
10
462.461620
20
525.047400
11
462.292419
21
520.346025
0
LINE
8
Calque 1
10
462.292419
20
520.346025
11
462.089730
21
519.301659
0
LINE
8
Calque 1
10
462.089730
20
519.301659
11
461.734050
21
518.455200
0
LINE
8
Calque 1
10
461.734050
20
518.455200
11
460.967929
21
517.231887
0
LINE
8
Calque 1
10
460.967929
20
517.231887
11
460.024830
21
516.117100
0
LINE
8
Calque 1
10
460.024830
20
516.117100
11
458.851317
21
515.119186
0
LINE
8
Calque 1
10
458.851317
20
515.119186
11
457.676637
21
514.458087
0
LINE
8
Calque 1
10
457.676637
20
514.458087
11
456.348347
21
514.069895
0
LINE
8
Calque 1
10
456.348347
20
514.069895
11
454.714000
21
513.890700
0
LINE
8
Calque 1
10
454.714000
20
513.890700
11
452.692986
21
513.915437
0
LINE
8
Calque 1
10
452.692986
20
513.915437
11
451.059070
21
514.424600
0
LINE
8
Calque 1
10
451.059070
20
514.424600
11
451.059070
21
514.424600
0
LINE
8
Calque 1
10
471.943170
20
514.248000
11
470.625333
21
514.903906
0
LINE
8
Calque 1
10
470.625333
20
514.903906
11
469.339820
21
515.907775
0
LINE
8
Calque 1
10
469.339820
20
515.907775
11
468.207284
21
517.147631
0
LINE
8
Calque 1
10
468.207284
20
517.147631
11
467.348380
21
518.511500
0
LINE
8
Calque 1
10
467.348380
20
518.511500
11
466.920384
21
519.470745
0
LINE
8
Calque 1
10
466.920384
20
519.470745
11
466.700381
21
520.527913
0
LINE
8
Calque 1
10
466.700381
20
520.527913
11
466.607450
21
525.576500
0
LINE
8
Calque 1
10
466.607450
20
525.576500
11
466.693539
21
530.474275
0
LINE
8
Calque 1
10
466.693539
20
530.474275
11
466.868468
21
531.487081
0
LINE
8
Calque 1
10
466.868468
20
531.487081
11
467.191160
21
532.224000
0
LINE
8
Calque 1
10
467.191160
20
532.224000
11
468.242769
21
533.655841
0
LINE
8
Calque 1
10
468.242769
20
533.655841
11
469.642317
21
534.770150
0
LINE
8
Calque 1
10
469.642317
20
534.770150
11
471.270837
21
535.494684
0
LINE
8
Calque 1
10
471.270837
20
535.494684
11
473.009360
21
535.757200
0
LINE
8
Calque 1
10
473.009360
20
535.757200
11
474.175196
21
535.618488
0
LINE
8
Calque 1
10
474.175196
20
535.618488
11
475.641179
21
535.085200
0
LINE
8
Calque 1
10
475.641179
20
535.085200
11
480.840330
21
532.222000
0
LINE
8
Calque 1
10
480.840330
20
532.222000
11
483.656974
21
530.292934
0
LINE
8
Calque 1
10
483.656974
20
530.292934
11
484.672807
21
529.336885
0
LINE
8
Calque 1
10
484.672807
20
529.336885
11
485.450215
21
528.351175
0
LINE
8
Calque 1
10
485.450215
20
528.351175
11
486.006622
21
527.309318
0
LINE
8
Calque 1
10
486.006622
20
527.309318
11
486.359453
21
526.184828
0
LINE
8
Calque 1
10
486.359453
20
526.184828
11
486.526134
21
524.951218
0
LINE
8
Calque 1
10
486.526134
20
524.951218
11
486.524090
21
523.582000
0
LINE
8
Calque 1
10
486.524090
20
523.582000
11
486.369559
21
522.262855
0
LINE
8
Calque 1
10
486.369559
20
522.262855
11
486.047602
21
521.068503
0
LINE
8
Calque 1
10
486.047602
20
521.068503
11
485.538307
21
519.975218
0
LINE
8
Calque 1
10
485.538307
20
519.975218
11
484.821762
21
518.959275
0
LINE
8
Calque 1
10
484.821762
20
518.959275
11
483.878055
21
517.996947
0
LINE
8
Calque 1
10
483.878055
20
517.996947
11
482.687272
21
517.064509
0
LINE
8
Calque 1
10
482.687272
20
517.064509
11
479.484830
21
515.194400
0
LINE
8
Calque 1
10
479.484830
20
515.194400
11
477.113652
21
514.144638
0
LINE
8
Calque 1
10
477.113652
20
514.144638
11
476.199836
21
513.951992
0
LINE
8
Calque 1
10
476.199836
20
513.951992
11
475.119200
21
513.875700
0
LINE
8
Calque 1
10
475.119200
20
513.875700
11
473.379794
21
513.937613
0
LINE
8
Calque 1
10
473.379794
20
513.937613
11
471.943170
21
514.248000
0
LINE
8
Calque 1
10
471.943170
20
514.248000
11
471.943170
21
514.248000
0
LINE
8
Calque 1
10
437.418370
20
534.139900
11
436.106847
21
534.849983
0
LINE
8
Calque 1
10
436.106847
20
534.849983
11
434.856080
21
535.853062
0
LINE
8
Calque 1
10
434.856080
20
535.853062
11
433.771978
21
537.049361
0
LINE
8
Calque 1
10
433.771978
20
537.049361
11
432.960450
21
538.339100
0
LINE
8
Calque 1
10
432.960450
20
538.339100
11
432.537908
21
539.282597
0
LINE
8
Calque 1
10
432.537908
20
539.282597
11
432.314450
21
540.217750
0
LINE
8
Calque 1
10
432.314450
20
540.217750
11
432.211630
21
543.965100
0
LINE
8
Calque 1
10
432.211630
20
543.965100
11
432.281505
21
546.825963
0
LINE
8
Calque 1
10
432.281505
20
546.825963
11
432.573841
21
548.752400
0
LINE
8
Calque 1
10
432.573841
20
548.752400
11
433.212701
21
550.192988
0
LINE
8
Calque 1
10
433.212701
20
550.192988
11
434.322150
21
551.596300
0
LINE
8
Calque 1
10
434.322150
20
551.596300
11
435.557508
21
552.707717
0
LINE
8
Calque 1
10
435.557508
20
552.707717
11
436.969220
21
553.506938
0
LINE
8
Calque 1
10
436.969220
20
553.506938
11
438.547214
21
553.989639
0
LINE
8
Calque 1
10
438.547214
20
553.989639
11
440.281420
21
554.151500
0
LINE
8
Calque 1
10
440.281420
20
554.151500
11
441.795308
21
554.084394
0
LINE
8
Calque 1
10
441.795308
20
554.084394
11
443.144870
21
553.745150
0
LINE
8
Calque 1
10
443.144870
20
553.745150
11
444.881717
21
552.926881
0
LINE
8
Calque 1
10
444.881717
20
552.926881
11
447.557460
21
551.422700
0
LINE
8
Calque 1
10
447.557460
20
551.422700
11
450.229421
21
549.847937
0
LINE
8
Calque 1
10
450.229421
20
549.847937
11
451.827636
21
548.760075
0
LINE
8
Calque 1
10
451.827636
20
548.760075
11
452.742738
21
547.848350
0
LINE
8
Calque 1
10
452.742738
20
547.848350
11
453.365360
21
546.802000
0
LINE
8
Calque 1
10
453.365360
20
546.802000
11
453.761797
21
545.811049
0
LINE
8
Calque 1
10
453.761797
20
545.811049
11
453.990824
21
544.786416
0
LINE
8
Calque 1
10
453.990824
20
544.786416
11
454.056486
21
543.751756
0
LINE
8
Calque 1
10
454.056486
20
543.751756
11
453.962824
21
542.730725
0
LINE
8
Calque 1
10
453.962824
20
542.730725
11
453.713881
21
541.746979
0
LINE
8
Calque 1
10
453.713881
20
541.746979
11
453.313701
21
540.824172
0
LINE
8
Calque 1
10
453.313701
20
540.824172
11
452.766327
21
539.985961
0
LINE
8
Calque 1
10
452.766327
20
539.985961
11
452.075800
21
539.256000
0
LINE
8
Calque 1
10
452.075800
20
539.256000
11
450.461590
21
538.141764
0
LINE
8
Calque 1
10
450.461590
20
538.141764
11
447.851674
21
536.581287
0
LINE
8
Calque 1
10
447.851674
20
536.581287
11
445.124845
21
535.078917
0
LINE
8
Calque 1
10
445.124845
20
535.078917
11
443.159900
21
534.139000
0
LINE
8
Calque 1
10
443.159900
20
534.139000
11
441.787755
21
533.789137
0
LINE
8
Calque 1
10
441.787755
20
533.789137
11
440.250390
21
533.672675
0
LINE
8
Calque 1
10
440.250390
20
533.672675
11
438.732398
21
533.789575
0
LINE
8
Calque 1
10
438.732398
20
533.789575
11
437.418370
21
534.139800
0
LINE
8
Calque 1
10
437.418370
20
534.139800
11
437.418370
21
534.139900
0
LINE
8
Calque 1
10
484.726370
20
534.642300
11
479.434284
21
537.634513
0
LINE
8
Calque 1
10
479.434284
20
537.634513
11
477.419530
21
538.988302
0
LINE
8
Calque 1
10
477.419530
20
538.988302
11
476.330000
21
539.929600
0
LINE
8
Calque 1
10
476.330000
20
539.929600
11
475.680460
21
540.957461
0
LINE
8
Calque 1
10
475.680460
20
540.957461
11
475.239232
21
542.047997
0
LINE
8
Calque 1
10
475.239232
20
542.047997
11
475.004580
21
543.173984
0
LINE
8
Calque 1
10
475.004580
20
543.173984
11
474.974767
21
544.308200
0
LINE
8
Calque 1
10
474.974767
20
544.308200
11
475.148058
21
545.423422
0
LINE
8
Calque 1
10
475.148058
20
545.423422
11
475.522714
21
546.492428
0
LINE
8
Calque 1
10
475.522714
20
546.492428
11
476.097000
21
547.487995
0
LINE
8
Calque 1
10
476.097000
20
547.487995
11
476.869180
21
548.382900
0
LINE
8
Calque 1
10
476.869180
20
548.382900
11
478.862745
21
549.844389
0
LINE
8
Calque 1
10
478.862745
20
549.844389
11
481.864019
21
551.628388
0
LINE
8
Calque 1
10
481.864019
20
551.628388
11
484.913598
21
553.202442
0
LINE
8
Calque 1
10
484.913598
20
553.202442
11
487.052080
21
554.034100
0
LINE
8
Calque 1
10
487.052080
20
554.034100
11
488.430842
21
554.193042
0
LINE
8
Calque 1
10
488.430842
20
554.193042
11
489.803194
21
554.111002
0
LINE
8
Calque 1
10
489.803194
20
554.111002
11
491.137613
21
553.803888
0
LINE
8
Calque 1
10
491.137613
20
553.803888
11
492.402573
21
553.287613
0
LINE
8
Calque 1
10
492.402573
20
553.287613
11
493.566547
21
552.578085
0
LINE
8
Calque 1
10
493.566547
20
552.578085
11
494.598012
21
551.691217
0
LINE
8
Calque 1
10
494.598012
20
551.691217
11
495.465441
21
550.642919
0
LINE
8
Calque 1
10
495.465441
20
550.642919
11
496.137310
21
549.449100
0
LINE
8
Calque 1
10
496.137310
20
549.449100
11
496.462898
21
548.595514
0
LINE
8
Calque 1
10
496.462898
20
548.595514
11
496.663691
21
547.636037
0
LINE
8
Calque 1
10
496.663691
20
547.636037
11
496.850780
21
544.229600
0
LINE
8
Calque 1
10
496.850780
20
544.229600
11
496.826692
21
541.309837
0
LINE
8
Calque 1
10
496.826692
20
541.309837
11
496.515646
21
539.236375
0
LINE
8
Calque 1
10
496.515646
20
539.236375
11
495.818127
21
537.647900
0
LINE
8
Calque 1
10
495.818127
20
537.647900
11
494.634620
21
536.183100
0
LINE
8
Calque 1
10
494.634620
20
536.183100
11
493.337226
21
535.052620
0
LINE
8
Calque 1
10
493.337226
20
535.052620
11
491.924309
21
534.262162
0
LINE
8
Calque 1
10
491.924309
20
534.262162
11
490.363250
21
533.797973
0
LINE
8
Calque 1
10
490.363250
20
533.797973
11
488.621430
21
533.646300
0
LINE
8
Calque 1
10
488.621430
20
533.646300
11
486.694944
21
533.815200
0
LINE
8
Calque 1
10
486.694944
20
533.815200
11
484.726360
21
534.642300
0
LINE
8
Calque 1
10
484.726360
20
534.642300
11
484.726370
21
534.642300
0
LINE
8
Calque 1
10
453.113670
20
552.843700
11
448.009070
21
555.799475
0
LINE
8
Calque 1
10
448.009070
20
555.799475
11
445.925862
21
557.182375
0
LINE
8
Calque 1
10
445.925862
20
557.182375
11
444.691720
21
558.163200
0
LINE
8
Calque 1
10
444.691720
20
558.163200
11
443.777885
21
559.269230
0
LINE
8
Calque 1
10
443.777885
20
559.269230
11
443.111590
21
560.463487
0
LINE
8
Calque 1
10
443.111590
20
560.463487
11
442.679115
21
561.777277
0
LINE
8
Calque 1
10
442.679115
20
561.777277
11
442.466740
21
563.241900
0
LINE
8
Calque 1
10
442.466740
20
563.241900
11
442.483937
21
564.731501
0
LINE
8
Calque 1
10
442.483937
20
564.731501
11
442.755234
21
566.119558
0
LINE
8
Calque 1
10
442.755234
20
566.119558
11
443.290737
21
567.418714
0
LINE
8
Calque 1
10
443.290737
20
567.418714
11
444.100549
21
568.641612
0
LINE
8
Calque 1
10
444.100549
20
568.641612
11
445.194775
21
569.800897
0
LINE
8
Calque 1
10
445.194775
20
569.800897
11
446.583521
21
570.909211
0
LINE
8
Calque 1
10
446.583521
20
570.909211
11
448.276891
21
571.979197
0
LINE
8
Calque 1
10
448.276891
20
571.979197
11
450.284990
21
573.023500
0
LINE
8
Calque 1
10
450.284990
20
573.023500
11
452.333119
21
573.835587
0
LINE
8
Calque 1
10
452.333119
20
573.835587
11
454.436590
21
573.978300
0
LINE
8
Calque 1
10
454.436590
20
573.978300
11
456.227317
21
573.820058
0
LINE
8
Calque 1
10
456.227317
20
573.820058
11
457.754446
21
573.344687
0
LINE
8
Calque 1
10
457.754446
20
573.344687
11
459.124115
21
572.503973
0
LINE
8
Calque 1
10
459.124115
20
572.503973
11
460.442460
21
571.249700
0
LINE
8
Calque 1
10
460.442460
20
571.249700
11
461.562217
21
569.772144
0
LINE
8
Calque 1
10
461.562217
20
569.772144
11
462.189275
21
568.084025
0
LINE
8
Calque 1
10
462.189275
20
568.084025
11
462.446290
21
565.607544
0
LINE
8
Calque 1
10
462.446290
20
565.607544
11
462.455920
21
561.764900
0
LINE
8
Calque 1
10
462.455920
20
561.764900
11
462.374120
21
556.489100
0
LINE
8
Calque 1
10
462.374120
20
556.489100
11
461.573370
21
555.195000
0
LINE
8
Calque 1
10
461.573370
20
555.195000
11
460.586560
21
553.935892
0
LINE
8
Calque 1
10
460.586560
20
553.935892
11
459.393976
21
553.029088
0
LINE
8
Calque 1
10
459.393976
20
553.029088
11
457.976364
21
552.463739
0
LINE
8
Calque 1
10
457.976364
20
552.463739
11
456.314470
21
552.229000
0
LINE
8
Calque 1
10
456.314470
20
552.229000
11
454.536676
21
552.290837
0
LINE
8
Calque 1
10
454.536676
20
552.290837
11
453.113700
21
552.843700
0
LINE
8
Calque 1
10
453.113700
20
552.843700
11
453.113670
21
552.843700
0
LINE
8
Calque 1
10
470.301370
20
552.650200
11
469.223567
21
553.369975
0
LINE
8
Calque 1
10
469.223567
20
553.369975
11
468.132820
21
554.399200
0
LINE
8
Calque 1
10
468.132820
20
554.399200
11
467.223066
21
555.671156
0
LINE
8
Calque 1
10
467.223066
20
555.671156
11
466.711374
21
557.226275
0
LINE
8
Calque 1
10
466.711374
20
557.226275
11
466.507382
21
559.554906
0
LINE
8
Calque 1
10
466.507382
20
559.554906
11
466.520730
21
563.147400
0
LINE
8
Calque 1
10
466.520730
20
563.147400
11
466.659610
21
566.502095
0
LINE
8
Calque 1
10
466.659610
20
566.502095
11
467.009596
21
568.665988
0
LINE
8
Calque 1
10
467.009596
20
568.665988
11
467.730399
21
570.188986
0
LINE
8
Calque 1
10
467.730399
20
570.188986
11
468.981730
21
571.621000
0
LINE
8
Calque 1
10
468.981730
20
571.621000
11
469.841199
21
572.373250
0
LINE
8
Calque 1
10
469.841199
20
572.373250
11
470.776818
21
572.995803
0
LINE
8
Calque 1
10
470.776818
20
572.995803
11
472.806379
21
573.833250
0
LINE
8
Calque 1
10
472.806379
20
573.833250
11
474.930160
21
574.096197
0
LINE
8
Calque 1
10
474.930160
20
574.096197
11
475.983555
21
574.000625
0
LINE
8
Calque 1
10
475.983555
20
574.000625
11
477.007910
21
573.747500
0
LINE
8
Calque 1
10
477.007910
20
573.747500
11
478.756295
21
573.030764
0
LINE
8
Calque 1
10
478.756295
20
573.030764
11
480.650749
21
572.034738
0
LINE
8
Calque 1
10
480.650749
20
572.034738
11
482.438866
21
570.905117
0
LINE
8
Calque 1
10
482.438866
20
570.905117
11
483.868240
21
569.787600
0
LINE
8
Calque 1
10
483.868240
20
569.787600
11
485.087671
21
568.531136
0
LINE
8
Calque 1
10
485.087671
20
568.531136
11
485.876436
21
567.304588
0
LINE
8
Calque 1
10
485.876436
20
567.304588
11
486.326203
21
565.914295
0
LINE
8
Calque 1
10
486.326203
20
565.914295
11
486.528640
21
564.166600
0
LINE
8
Calque 1
10
486.528640
20
564.166600
11
486.512192
21
562.126575
0
LINE
8
Calque 1
10
486.512192
20
562.126575
11
485.972020
21
560.536400
0
LINE
8
Calque 1
10
485.972020
20
560.536400
11
485.101227
21
559.063917
0
LINE
8
Calque 1
10
485.101227
20
559.063917
11
483.798699
21
557.701713
0
LINE
8
Calque 1
10
483.798699
20
557.701713
11
481.844419
21
556.260402
0
LINE
8
Calque 1
10
481.844419
20
556.260402
11
479.018370
21
554.550600
0
LINE
8
Calque 1
10
479.018370
20
554.550600
11
475.375630
21
552.604125
0
LINE
8
Calque 1
10
475.375630
20
552.604125
11
474.357863
21
552.316800
0
LINE
8
Calque 1
10
474.357863
20
552.316800
11
473.229620
21
552.227400
0
LINE
8
Calque 1
10
473.229620
20
552.227400
11
471.543518
21
552.277250
0
LINE
8
Calque 1
10
471.543518
20
552.277250
11
470.301370
21
552.650200
0
LINE
8
Calque 1
10
470.301370
20
552.650200
11
470.301370
21
552.650200
0
LINE
8
Calque 1
10
372.692770
20
546.677100
11
374.384820
21
550.827200
0
LINE
8
Calque 1
10
374.384820
20
550.827200
11
375.491270
21
553.323800
0
LINE
8
Calque 1
10
375.491270
20
553.323800
11
353.845170
21
574.972800
0
LINE
8
Calque 1
10
353.845170
20
574.972800
11
335.801932
21
592.886562
0
LINE
8
Calque 1
10
335.801932
20
592.886562
11
332.738778
21
595.714130
0
LINE
8
Calque 1
10
332.738778
20
595.714130
11
332.112898
21
596.158848
0
LINE
8
Calque 1
10
332.112898
20
596.158848
11
331.868370
21
596.172100
0
LINE
8
Calque 1
10
331.868370
20
596.172100
11
331.634792
21
595.944525
0
LINE
8
Calque 1
10
331.634792
20
595.944525
11
331.537640
21
596.029100
0
LINE
8
Calque 1
10
331.537640
20
596.029100
11
331.402351
21
596.204737
0
LINE
8
Calque 1
10
331.402351
20
596.204737
11
331.074620
21
596.193700
0
LINE
8
Calque 1
10
331.074620
20
596.193700
11
330.932984
21
596.204350
0
LINE
8
Calque 1
10
330.932984
20
596.204350
11
331.242660
21
596.428900
0
LINE
8
Calque 1
10
331.242660
20
596.428900
11
331.634814
21
596.757125
0
LINE
8
Calque 1
10
331.634814
20
596.757125
11
331.573390
21
596.991900
0
LINE
8
Calque 1
10
331.573390
20
596.991900
11
331.361279
21
597.031762
0
LINE
8
Calque 1
10
331.361279
20
597.031762
11
331.273060
21
596.866500
0
LINE
8
Calque 1
10
331.273060
20
596.866500
11
331.123854
21
596.682187
0
LINE
8
Calque 1
10
331.123854
20
596.682187
11
330.744150
21
596.693700
0
LINE
8
Calque 1
10
330.744150
20
596.693700
11
330.327090
21
596.721150
0
LINE
8
Calque 1
10
330.327090
20
596.721150
11
330.067080
21
596.592300
0
LINE
8
Calque 1
10
330.067080
20
596.592300
11
329.824230
21
596.387298
0
LINE
8
Calque 1
10
329.824230
20
596.387298
11
329.525885
21
596.368512
0
LINE
8
Calque 1
10
329.525885
20
596.368512
11
329.253213
21
596.517445
0
LINE
8
Calque 1
10
329.253213
20
596.517445
11
329.087380
21
596.815600
0
LINE
8
Calque 1
10
329.087380
20
596.815600
11
328.936385
21
596.939262
0
LINE
8
Calque 1
10
328.936385
20
596.939262
11
328.694970
21
596.352600
0
LINE
8
Calque 1
10
328.694970
20
596.352600
11
328.451386
21
595.698037
0
LINE
8
Calque 1
10
328.451386
20
595.698037
11
328.365610
21
596.088000
0
LINE
8
Calque 1
10
328.365610
20
596.088000
11
328.293728
21
596.454737
0
LINE
8
Calque 1
10
328.293728
20
596.454737
11
328.183730
21
596.407700
0
LINE
8
Calque 1
10
328.183730
20
596.407700
11
327.996978
21
596.203650
0
LINE
8
Calque 1
10
327.996978
20
596.203650
11
327.675450
21
596.373700
0
LINE
8
Calque 1
10
327.675450
20
596.373700
11
327.383275
21
596.546875
0
LINE
8
Calque 1
10
327.383275
20
596.546875
11
327.304310
21
596.355700
0
LINE
8
Calque 1
10
327.304310
20
596.355700
11
327.137534
21
596.153975
0
LINE
8
Calque 1
10
327.137534
20
596.153975
11
326.642850
21
596.196000
0
LINE
8
Calque 1
10
326.642850
20
596.196000
11
326.144435
21
596.237637
0
LINE
8
Calque 1
10
326.144435
20
596.237637
11
325.977340
21
596.026300
0
LINE
8
Calque 1
10
325.977340
20
596.026300
11
325.920590
21
595.851412
0
LINE
8
Calque 1
10
325.920590
20
595.851412
11
325.737240
21
596.063300
0
LINE
8
Calque 1
10
325.737240
20
596.063300
11
325.609526
21
596.450287
0
LINE
8
Calque 1
10
325.609526
20
596.450287
11
325.633950
21
596.857000
0
LINE
8
Calque 1
10
325.633950
20
596.857000
11
325.692526
21
597.130387
0
LINE
8
Calque 1
10
325.692526
20
597.130387
11
325.494640
21
596.894000
0
LINE
8
Calque 1
10
325.494640
20
596.894000
11
325.341700
21
596.316900
0
LINE
8
Calque 1
10
325.341700
20
596.316900
11
325.346795
21
596.131975
0
LINE
8
Calque 1
10
325.346795
20
596.131975
11
325.191960
21
595.958000
0
LINE
8
Calque 1
10
325.191960
20
595.958000
11
324.992301
21
596.017600
0
LINE
8
Calque 1
10
324.992301
20
596.017600
11
324.892370
21
596.402700
0
LINE
8
Calque 1
10
324.892370
20
596.402700
11
324.841493
21
596.774825
0
LINE
8
Calque 1
10
324.841493
20
596.774825
11
324.740050
21
596.547400
0
LINE
8
Calque 1
10
324.740050
20
596.547400
11
324.587908
21
596.259000
0
LINE
8
Calque 1
10
324.587908
20
596.259000
11
324.392910
21
596.220500
0
LINE
8
Calque 1
10
324.392910
20
596.220500
11
324.185213
21
596.166600
0
LINE
8
Calque 1
10
324.185213
20
596.166600
11
324.002520
21
595.840300
0
LINE
8
Calque 1
10
324.002520
20
595.840300
11
323.778086
21
595.502525
0
LINE
8
Calque 1
10
323.778086
20
595.502525
11
323.454300
21
595.467900
0
LINE
8
Calque 1
10
323.454300
20
595.467900
11
323.156443
21
595.653255
0
LINE
8
Calque 1
10
323.156443
20
595.653255
11
323.079719
21
595.840587
0
LINE
8
Calque 1
10
323.079719
20
595.840587
11
323.210210
21
595.952452
0
LINE
8
Calque 1
10
323.210210
20
595.952452
11
323.534000
21
595.911400
0
LINE
8
Calque 1
10
323.534000
20
595.911400
11
323.803125
21
595.865862
0
LINE
8
Calque 1
10
323.803125
20
595.865862
11
323.467900
21
596.175900
0
LINE
8
Calque 1
10
323.467900
20
596.175900
11
323.186726
21
596.480037
0
LINE
8
Calque 1
10
323.186726
20
596.480037
11
323.269460
21
596.608300
0
LINE
8
Calque 1
10
323.269460
20
596.608300
11
323.503038
21
596.699187
0
LINE
8
Calque 1
10
323.503038
20
596.699187
11
323.600190
21
596.911800
0
LINE
8
Calque 1
10
323.600190
20
596.911800
11
323.425974
21
597.013262
0
LINE
8
Calque 1
10
323.425974
20
597.013262
11
322.952530
21
596.782400
0
LINE
8
Calque 1
10
322.952530
20
596.782400
11
322.449093
21
596.552475
0
LINE
8
Calque 1
10
322.449093
20
596.552475
11
322.153570
21
596.602900
0
LINE
8
Calque 1
10
322.153570
20
596.602900
11
321.885960
21
596.763637
0
LINE
8
Calque 1
10
321.885960
20
596.763637
11
321.455000
21
596.806400
0
LINE
8
Calque 1
10
321.455000
20
596.806400
11
321.052651
21
596.710112
0
LINE
8
Calque 1
10
321.052651
20
596.710112
11
321.489500
21
596.294100
0
LINE
8
Calque 1
10
321.489500
20
596.294100
11
321.824661
21
595.961387
0
LINE
8
Calque 1
10
321.824661
20
595.961387
11
321.813480
21
595.823000
0
LINE
8
Calque 1
10
321.813480
20
595.823000
11
320.879360
21
596.499300
0
LINE
8
Calque 1
10
320.879360
20
596.499300
11
320.372872
21
596.921637
0
LINE
8
Calque 1
10
320.372872
20
596.921637
11
320.274175
21
596.906789
0
LINE
8
Calque 1
10
320.274175
20
596.906789
11
320.266060
21
596.746300
0
LINE
8
Calque 1
10
320.266060
20
596.746300
11
328.348204
21
588.420423
0
LINE
8
Calque 1
10
328.348204
20
588.420423
11
346.076960
21
570.574037
0
LINE
8
Calque 1
10
346.076960
20
570.574037
11
363.830166
21
552.852583
0
LINE
8
Calque 1
10
363.830166
20
552.852583
11
371.985660
21
544.901500
0
LINE
8
Calque 1
10
371.985660
20
544.901500
11
372.692830
21
546.676700
0
LINE
8
Calque 1
10
372.692830
20
546.676700
11
372.692770
21
546.677100
0
LINE
8
Calque 1
10
326.460970
20
595.739600
11
326.968090
21
595.718600
0
LINE
8
Calque 1
10
326.968090
20
595.718600
11
326.931994
21
595.611788
0
LINE
8
Calque 1
10
326.931994
20
595.611788
11
326.620820
21
595.579600
0
LINE
8
Calque 1
10
326.620820
20
595.579600
11
326.346158
21
595.632587
0
LINE
8
Calque 1
10
326.346158
20
595.632587
11
326.460970
21
595.739500
0
LINE
8
Calque 1
10
326.460970
20
595.739500
11
326.460970
21
595.739600
0
LINE
8
Calque 1
10
330.082450
20
596.352600
11
330.362650
21
596.617100
0
LINE
8
Calque 1
10
330.362650
20
596.617100
11
330.479330
21
596.352600
0
LINE
8
Calque 1
10
330.479330
20
596.352600
11
330.397021
21
596.165700
0
LINE
8
Calque 1
10
330.397021
20
596.165700
11
330.199130
21
596.088000
0
LINE
8
Calque 1
10
330.199130
20
596.088000
11
330.049271
21
596.165700
0
LINE
8
Calque 1
10
330.049271
20
596.165700
11
330.082450
21
596.352600
0
LINE
8
Calque 1
10
330.082450
20
596.352600
11
330.082450
21
596.352600
0
LINE
8
Calque 1
10
507.751450
20
585.161100
11
516.085750
21
593.563738
0
LINE
8
Calque 1
10
516.085750
20
593.563738
11
518.490981
21
596.012977
0
LINE
8
Calque 1
10
518.490981
20
596.012977
11
519.088480
21
596.632704
0
LINE
8
Calque 1
10
519.088480
20
596.632704
11
519.219850
21
596.785600
0
LINE
8
Calque 1
10
519.219850
20
596.785600
11
518.751141
21
596.508475
0
LINE
8
Calque 1
10
518.751141
20
596.508475
11
518.476630
21
596.599900
0
LINE
8
Calque 1
10
518.476630
20
596.599900
11
518.002910
21
596.881700
0
LINE
8
Calque 1
10
518.002910
20
596.881700
11
517.942240
21
596.767600
0
LINE
8
Calque 1
10
517.942240
20
596.767600
11
518.216970
21
596.493300
0
LINE
8
Calque 1
10
518.216970
20
596.493300
11
518.573631
21
596.165888
0
LINE
8
Calque 1
10
518.573631
20
596.165888
11
518.267570
21
596.096400
0
LINE
8
Calque 1
10
518.267570
20
596.096400
11
517.940563
21
596.009888
0
LINE
8
Calque 1
10
517.940563
20
596.009888
11
517.804550
21
595.807800
0
LINE
8
Calque 1
10
517.804550
20
595.807800
11
517.726543
21
595.658100
0
LINE
8
Calque 1
10
517.726543
20
595.658100
11
517.538990
21
595.691700
0
LINE
8
Calque 1
10
517.538990
20
595.691700
11
517.399015
21
595.997063
0
LINE
8
Calque 1
10
517.399015
20
595.997063
11
517.435380
21
596.501100
0
LINE
8
Calque 1
10
517.435380
20
596.501100
11
517.469582
21
597.002200
0
LINE
8
Calque 1
10
517.469582
20
597.002200
11
517.187390
21
597.146300
0
LINE
8
Calque 1
10
517.187390
20
597.146300
11
516.841666
21
597.055375
0
LINE
8
Calque 1
10
516.841666
20
597.055375
11
516.586130
21
596.836800
0
LINE
8
Calque 1
10
516.586130
20
596.836800
11
516.546554
21
596.645525
0
LINE
8
Calque 1
10
516.546554
20
596.645525
11
516.799920
21
596.682700
0
LINE
8
Calque 1
10
516.799920
20
596.682700
11
517.075488
21
596.695375
0
LINE
8
Calque 1
10
517.075488
20
596.695375
11
516.918170
21
596.230300
0
LINE
8
Calque 1
10
516.918170
20
596.230300
11
516.636375
21
595.860736
0
LINE
8
Calque 1
10
516.636375
20
595.860736
11
516.290139
21
595.698013
0
LINE
8
Calque 1
10
516.290139
20
595.698013
11
515.964818
21
595.755508
0
LINE
8
Calque 1
10
515.964818
20
595.755508
11
515.745770
21
596.046600
0
LINE
8
Calque 1
10
515.745770
20
596.046600
11
515.589875
21
596.213663
0
LINE
8
Calque 1
10
515.589875
20
596.213663
11
515.359820
21
596.181000
0
LINE
8
Calque 1
10
515.359820
20
596.181000
11
515.207431
21
596.142913
0
LINE
8
Calque 1
10
515.207431
20
596.142913
11
515.290520
21
596.351800
0
LINE
8
Calque 1
10
515.290520
20
596.351800
11
515.524913
21
596.539825
0
LINE
8
Calque 1
10
515.524913
20
596.539825
11
515.820580
21
596.264800
0
LINE
8
Calque 1
10
515.820580
20
596.264800
11
516.094719
21
596.009663
0
LINE
8
Calque 1
10
516.094719
20
596.009663
11
516.309360
21
596.004200
0
LINE
8
Calque 1
10
516.309360
20
596.004200
11
516.461220
21
596.404417
0
LINE
8
Calque 1
10
516.461220
20
596.404417
11
516.124969
21
596.649788
0
LINE
8
Calque 1
10
516.124969
20
596.649788
11
515.490719
21
596.685289
0
LINE
8
Calque 1
10
515.490719
20
596.685289
11
514.748580
21
596.455900
0
LINE
8
Calque 1
10
514.748580
20
596.455900
11
513.827639
21
596.102863
0
LINE
8
Calque 1
10
513.827639
20
596.102863
11
513.652674
21
596.151180
0
LINE
8
Calque 1
10
513.652674
20
596.151180
11
513.703520
21
596.352900
0
LINE
8
Calque 1
10
513.703520
20
596.352900
11
513.697824
21
596.539713
0
LINE
8
Calque 1
10
513.697824
20
596.539713
11
513.454550
21
596.617400
0
LINE
8
Calque 1
10
513.454550
20
596.617400
11
513.163229
21
596.552725
0
LINE
8
Calque 1
10
513.163229
20
596.552725
11
513.042060
21
596.397000
0
LINE
8
Calque 1
10
513.042060
20
596.397000
11
512.925475
21
596.241263
0
LINE
8
Calque 1
10
512.925475
20
596.241263
11
512.645180
21
596.176500
0
LINE
8
Calque 1
10
512.645180
20
596.176500
11
512.364890
21
596.250788
0
LINE
8
Calque 1
10
512.364890
20
596.250788
11
512.248310
21
596.429400
0
LINE
8
Calque 1
10
512.248310
20
596.429400
11
512.125641
21
596.506150
0
LINE
8
Calque 1
10
512.125641
20
596.506150
11
511.830720
21
596.335400
0
LINE
8
Calque 1
10
511.830720
20
596.335400
11
511.286257
21
596.059192
0
LINE
8
Calque 1
10
511.286257
20
596.059192
11
510.661035
21
595.950338
0
LINE
8
Calque 1
10
510.661035
20
595.950338
11
510.176551
21
596.017264
0
LINE
8
Calque 1
10
510.176551
20
596.017264
11
510.054300
21
596.268400
0
LINE
8
Calque 1
10
510.054300
20
596.268400
11
510.230991
21
596.509620
0
LINE
8
Calque 1
10
510.230991
20
596.509620
11
510.491827
21
596.604788
0
LINE
8
Calque 1
10
510.491827
20
596.604788
11
511.092960
21
596.344400
0
LINE
8
Calque 1
10
511.092960
20
596.344400
11
511.300216
21
596.235350
0
LINE
8
Calque 1
10
511.300216
20
596.235350
11
511.366360
21
596.476700
0
LINE
8
Calque 1
10
511.366360
20
596.476700
11
511.250960
21
596.767000
0
LINE
8
Calque 1
10
511.250960
20
596.767000
11
510.486190
21
596.898500
0
LINE
8
Calque 1
10
510.486190
20
596.898500
11
510.043177
21
597.015700
0
LINE
8
Calque 1
10
510.043177
20
597.015700
11
509.999840
21
596.881500
0
LINE
8
Calque 1
10
509.999840
20
596.881500
11
510.032669
21
596.695275
0
LINE
8
Calque 1
10
510.032669
20
596.695275
11
509.882670
21
596.617800
0
LINE
8
Calque 1
10
509.882670
20
596.617800
11
509.684394
21
596.714937
0
LINE
8
Calque 1
10
509.684394
20
596.714937
11
509.601160
21
596.948500
0
LINE
8
Calque 1
10
509.601160
20
596.948500
11
509.400664
21
596.949088
0
LINE
8
Calque 1
10
509.400664
20
596.949088
11
508.920560
21
596.485500
0
LINE
8
Calque 1
10
508.920560
20
596.485500
11
508.480175
21
596.006325
0
LINE
8
Calque 1
10
508.480175
20
596.006325
11
508.375250
21
595.968900
0
LINE
8
Calque 1
10
508.375250
20
595.968900
11
508.266150
21
596.630400
0
LINE
8
Calque 1
10
508.266150
20
596.630400
11
508.070289
21
596.866988
0
LINE
8
Calque 1
10
508.070289
20
596.866988
11
508.019020
21
596.651400
0
LINE
8
Calque 1
10
508.019020
20
596.651400
11
507.939161
21
596.433862
0
LINE
8
Calque 1
10
507.939161
20
596.433862
11
507.675050
21
596.570400
0
LINE
8
Calque 1
10
507.675050
20
596.570400
11
507.070770
21
596.264248
0
LINE
8
Calque 1
10
507.070770
20
596.264248
11
505.475564
21
594.861813
0
LINE
8
Calque 1
10
505.475564
20
594.861813
11
498.279780
21
587.804600
0
LINE
8
Calque 1
10
498.279780
20
587.804600
11
489.224420
21
578.756800
0
LINE
8
Calque 1
10
489.224420
20
578.756800
11
491.012930
21
577.386100
0
LINE
8
Calque 1
10
491.012930
20
577.386100
11
494.247600
21
574.542600
0
LINE
8
Calque 1
10
494.247600
20
574.542600
11
495.703900
21
573.069700
0
LINE
8
Calque 1
10
495.703900
20
573.069700
11
507.751500
21
585.161600
0
LINE
8
Calque 1
10
507.751500
20
585.161600
11
507.751450
21
585.161100
0
LINE
8
Calque 1
10
326.907450
20
596.617100
11
326.428820
21
596.877700
0
LINE
8
Calque 1
10
326.428820
20
596.877700
11
326.309276
21
596.805225
0
LINE
8
Calque 1
10
326.309276
20
596.805225
11
326.510620
21
596.617100
0
LINE
8
Calque 1
10
326.510620
20
596.617100
11
326.975796
21
596.370800
0
LINE
8
Calque 1
10
326.975796
20
596.370800
11
326.907490
21
596.617100
0
LINE
8
Calque 1
10
326.907490
20
596.617100
11
326.907450
21
596.617100
0
LINE
8
Calque 1
10
320.786690
20
601.695200
11
321.100289
21
601.731888
0
LINE
8
Calque 1
10
321.100289
20
601.731888
11
321.458010
21
601.563000
0
LINE
8
Calque 1
10
321.458010
20
601.563000
11
321.739256
21
601.397237
0
LINE
8
Calque 1
10
321.739256
20
601.397237
11
321.671280
21
601.716500
0
LINE
8
Calque 1
10
321.671280
20
601.716500
11
321.621817
21
602.050150
0
LINE
8
Calque 1
10
321.621817
20
602.050150
11
322.018620
21
601.905600
0
LINE
8
Calque 1
10
322.018620
20
601.905600
11
322.541830
21
601.370300
0
LINE
8
Calque 1
10
322.541830
20
601.370300
11
322.655422
21
601.163872
0
LINE
8
Calque 1
10
322.655422
20
601.163872
11
322.932894
21
601.127000
0
LINE
8
Calque 1
10
322.932894
20
601.127000
11
323.279289
21
601.247028
0
LINE
8
Calque 1
10
323.279289
20
601.247028
11
323.599650
21
601.511300
0
LINE
8
Calque 1
10
323.599650
20
601.511300
11
323.983341
21
601.735811
0
LINE
8
Calque 1
10
323.983341
20
601.735811
11
324.523955
21
601.787288
0
LINE
8
Calque 1
10
324.523955
20
601.787288
11
325.086506
21
601.673370
0
LINE
8
Calque 1
10
325.086506
20
601.673370
11
325.536010
21
601.401700
0
LINE
8
Calque 1
10
325.536010
20
601.401700
11
325.855222
21
601.272175
0
LINE
8
Calque 1
10
325.855222
20
601.272175
11
326.286530
21
601.401400
0
LINE
8
Calque 1
10
326.286530
20
601.401400
11
326.775160
21
601.489400
0
LINE
8
Calque 1
10
326.775160
20
601.489400
11
327.148480
21
601.625200
0
LINE
8
Calque 1
10
327.148480
20
601.625200
11
327.481789
21
601.800925
0
LINE
8
Calque 1
10
327.481789
20
601.800925
11
327.710720
21
601.625200
0
LINE
8
Calque 1
10
327.710720
20
601.625200
11
327.908357
21
601.469862
0
LINE
8
Calque 1
10
327.908357
20
601.469862
11
328.127100
21
601.678200
0
LINE
8
Calque 1
10
328.127100
20
601.678200
11
328.304501
21
601.882625
0
LINE
8
Calque 1
10
328.304501
20
601.882625
11
328.358610
21
601.706200
0
LINE
8
Calque 1
10
328.358610
20
601.706200
11
328.459184
21
601.472638
0
LINE
8
Calque 1
10
328.459184
20
601.472638
11
328.695590
21
601.375500
0
LINE
8
Calque 1
10
328.695590
20
601.375500
11
330.672929
21
603.118963
0
LINE
8
Calque 1
10
330.672929
20
603.118963
11
334.959420
21
607.310800
0
LINE
8
Calque 1
10
334.959420
20
607.310800
11
340.890320
21
613.246000
0
LINE
8
Calque 1
10
340.890320
20
613.246000
11
340.859920
21
616.505000
0
LINE
8
Calque 1
10
340.859920
20
616.505000
11
340.756116
21
619.078188
0
LINE
8
Calque 1
10
340.756116
20
619.078188
11
340.549210
21
620.688300
0
LINE
8
Calque 1
10
340.549210
20
620.688300
11
340.268900
21
623.200500
0
LINE
8
Calque 1
10
340.268900
20
623.200500
11
340.269000
21
624.788000
0
LINE
8
Calque 1
10
340.269000
20
624.788000
11
329.673700
21
614.205900
0
LINE
8
Calque 1
10
329.673700
20
614.205900
11
322.028566
21
606.473350
0
LINE
8
Calque 1
10
322.028566
20
606.473350
11
318.526200
21
602.742200
0
LINE
8
Calque 1
10
318.526200
20
602.742200
11
318.124694
21
601.929488
0
LINE
8
Calque 1
10
318.124694
20
601.929488
11
318.184303
21
601.687808
0
LINE
8
Calque 1
10
318.184303
20
601.687808
11
318.405830
21
601.428700
0
LINE
8
Calque 1
10
318.405830
20
601.428700
11
318.771555
21
601.140175
0
LINE
8
Calque 1
10
318.771555
20
601.140175
11
318.837700
21
601.500700
0
LINE
8
Calque 1
10
318.837700
20
601.500700
11
318.893588
21
601.868225
0
LINE
8
Calque 1
10
318.893588
20
601.868225
11
319.254200
21
601.490700
0
LINE
8
Calque 1
10
319.254200
20
601.490700
11
319.499138
21
601.225100
0
LINE
8
Calque 1
10
319.499138
20
601.225100
11
319.503160
21
601.307800
0
LINE
8
Calque 1
10
319.503160
20
601.307800
11
319.497519
21
601.546200
0
LINE
8
Calque 1
10
319.497519
20
601.546200
11
319.748130
21
601.638500
0
LINE
8
Calque 1
10
319.748130
20
601.638500
11
320.045588
21
601.502512
0
LINE
8
Calque 1
10
320.045588
20
601.502512
11
320.181510
21
601.175500
0
LINE
8
Calque 1
10
320.181510
20
601.175500
11
320.228580
21
600.885588
0
LINE
8
Calque 1
10
320.228580
20
600.885588
11
320.353470
21
601.109500
0
LINE
8
Calque 1
10
320.353470
20
601.109500
11
320.786730
21
601.689600
0
LINE
8
Calque 1
10
320.786730
20
601.689600
11
320.786690
21
601.695200
0
LINE
8
Calque 1
10
324.261620
20
601.379600
11
324.294772
21
601.566500
0
LINE
8
Calque 1
10
324.294772
20
601.566500
11
324.144940
21
601.644200
0
LINE
8
Calque 1
10
324.144940
20
601.644200
11
323.947049
21
601.566500
0
LINE
8
Calque 1
10
323.947049
20
601.566500
11
323.864740
21
601.379600
0
LINE
8
Calque 1
10
323.864740
20
601.379600
11
323.981420
21
601.115100
0
LINE
8
Calque 1
10
323.981420
20
601.115100
11
324.261620
21
601.379600
0
LINE
8
Calque 1
10
324.261620
20
601.379600
11
324.261620
21
601.379600
0
LINE
8
Calque 1
10
513.901620
20
601.813300
11
514.228627
21
601.778487
0
LINE
8
Calque 1
10
514.228627
20
601.778487
11
514.364640
21
601.642800
0
LINE
8
Calque 1
10
514.364640
20
601.642800
11
514.539514
21
601.497188
0
LINE
8
Calque 1
10
514.539514
20
601.497188
11
514.959960
21
601.437900
0
LINE
8
Calque 1
10
514.959960
20
601.437900
11
516.326060
21
601.264600
0
LINE
8
Calque 1
10
516.326060
20
601.264600
11
516.898070
21
601.191013
0
LINE
8
Calque 1
10
516.898070
20
601.191013
11
516.779420
21
601.471500
0
LINE
8
Calque 1
10
516.779420
20
601.471500
11
516.644412
21
601.774238
0
LINE
8
Calque 1
10
516.644412
20
601.774238
11
517.107710
21
601.815300
0
LINE
8
Calque 1
10
517.107710
20
601.815300
11
517.531094
21
601.735138
0
LINE
8
Calque 1
10
517.531094
20
601.735138
11
517.642230
21
601.596400
0
LINE
8
Calque 1
10
517.642230
20
601.596400
11
517.799910
21
601.250000
0
LINE
8
Calque 1
10
517.799910
20
601.250000
11
517.989876
21
601.195625
0
LINE
8
Calque 1
10
517.989876
20
601.195625
11
518.069000
21
601.298000
0
LINE
8
Calque 1
10
518.069000
20
601.298000
11
518.296722
21
601.487238
0
LINE
8
Calque 1
10
518.296722
20
601.487238
11
518.829110
21
601.548150
0
LINE
8
Calque 1
10
518.829110
20
601.548150
11
519.440578
21
601.481488
0
LINE
8
Calque 1
10
519.440578
20
601.481488
11
519.905540
21
601.288000
0
LINE
8
Calque 1
10
519.905540
20
601.288000
11
520.165376
21
601.113825
0
LINE
8
Calque 1
10
520.165376
20
601.113825
11
520.099660
21
601.298000
0
LINE
8
Calque 1
10
520.099660
20
601.298000
11
520.046296
21
601.567500
0
LINE
8
Calque 1
10
520.046296
20
601.567500
11
520.181160
21
601.776700
0
LINE
8
Calque 1
10
520.181160
20
601.776700
11
520.371073
21
601.811563
0
LINE
8
Calque 1
10
520.371073
20
601.811563
11
520.450060
21
601.662600
0
LINE
8
Calque 1
10
520.450060
20
601.662600
11
520.566640
21
601.464713
0
LINE
8
Calque 1
10
520.566640
20
601.464713
11
520.846930
21
601.382400
0
LINE
8
Calque 1
10
520.846930
20
601.382400
11
521.163714
21
601.495003
0
LINE
8
Calque 1
10
521.163714
20
601.495003
11
521.206599
21
601.828200
0
LINE
8
Calque 1
10
521.206599
20
601.828200
11
520.476540
21
603.128700
0
LINE
8
Calque 1
10
520.476540
20
603.128700
11
495.862440
21
627.973100
0
LINE
8
Calque 1
10
495.862440
20
627.973100
11
472.015540
21
651.785600
0
LINE
8
Calque 1
10
472.015540
20
651.785600
11
473.502100
21
647.552200
0
LINE
8
Calque 1
10
473.502100
20
647.552200
11
476.792380
21
638.180500
0
LINE
8
Calque 1
10
476.792380
20
638.180500
11
478.596090
21
633.042100
0
LINE
8
Calque 1
10
478.596090
20
633.042100
11
494.429890
21
617.269500
0
LINE
8
Calque 1
10
494.429890
20
617.269500
11
507.813690
21
604.073100
0
LINE
8
Calque 1
10
507.813690
20
604.073100
11
510.183743
21
601.962497
0
LINE
8
Calque 1
10
510.183743
20
601.962497
11
510.761735
21
601.581032
0
LINE
8
Calque 1
10
510.761735
20
601.581032
11
511.115390
21
601.478100
0
LINE
8
Calque 1
10
511.115390
20
601.478100
11
511.676222
21
601.530800
0
LINE
8
Calque 1
10
511.676222
20
601.530800
11
511.828470
21
601.683700
0
LINE
8
Calque 1
10
511.828470
20
601.683700
11
511.920402
21
601.826450
0
LINE
8
Calque 1
10
511.920402
20
601.826450
11
512.336230
21
601.854600
0
LINE
8
Calque 1
10
512.336230
20
601.854600
11
512.797181
21
601.715825
0
LINE
8
Calque 1
10
512.797181
20
601.715825
11
512.858330
21
601.393300
0
LINE
8
Calque 1
10
512.858330
20
601.393300
11
512.813818
21
601.120350
0
LINE
8
Calque 1
10
512.813818
20
601.120350
11
513.086270
21
601.382300
0
LINE
8
Calque 1
10
513.086270
20
601.382300
11
513.471115
21
601.673350
0
LINE
8
Calque 1
10
513.471115
20
601.673350
11
513.901620
21
601.815900
0
LINE
8
Calque 1
10
513.901620
20
601.815900
11
513.901620
21
601.813300
0
LINE
8
Calque 1
10
486.612720
20
606.869800
11
486.593054
21
607.725300
0
LINE
8
Calque 1
10
486.593054
20
607.725300
11
486.369905
21
608.660075
0
LINE
8
Calque 1
10
486.369905
20
608.660075
11
485.005960
21
611.688900
0
LINE
8
Calque 1
10
485.005960
20
611.688900
11
482.609245
21
616.743967
0
LINE
8
Calque 1
10
482.609245
20
616.743967
11
480.207846
21
622.507213
0
LINE
8
Calque 1
10
480.207846
20
622.507213
11
477.293555
21
630.272002
0
LINE
8
Calque 1
10
477.293555
20
630.272002
11
473.358160
21
641.331700
0
LINE
8
Calque 1
10
473.358160
20
641.331700
11
468.451172
21
655.114325
0
LINE
8
Calque 1
10
468.451172
20
655.114325
11
466.226410
21
660.520200
0
LINE
8
Calque 1
10
466.226410
20
660.520200
11
464.075940
21
664.660700
0
LINE
8
Calque 1
10
464.075940
20
664.660700
11
461.642367
21
668.731000
0
LINE
8
Calque 1
10
461.642367
20
668.731000
11
459.470414
21
671.877525
0
LINE
8
Calque 1
10
459.470414
20
671.877525
11
458.652769
21
672.837630
0
LINE
8
Calque 1
10
458.652769
20
672.837630
11
458.104800
21
673.246700
0
LINE
8
Calque 1
10
458.104800
20
673.246700
11
457.582339
21
673.250863
0
LINE
8
Calque 1
10
457.582339
20
673.250863
11
456.869009
21
672.931550
0
LINE
8
Calque 1
10
456.869009
20
672.931550
11
454.036070
21
670.826600
0
LINE
8
Calque 1
10
454.036070
20
670.826600
11
452.269807
21
669.518441
0
LINE
8
Calque 1
10
452.269807
20
669.518441
11
450.942571
21
668.793950
0
LINE
8
Calque 1
10
450.942571
20
668.793950
11
449.901860
21
668.593559
0
LINE
8
Calque 1
10
449.901860
20
668.593559
11
448.995170
21
668.857700
0
LINE
8
Calque 1
10
448.995170
20
668.857700
11
448.601025
21
669.300625
0
LINE
8
Calque 1
10
448.601025
20
669.300625
11
448.483390
21
670.140900
0
LINE
8
Calque 1
10
448.483390
20
670.140900
11
448.799798
21
671.400423
0
LINE
8
Calque 1
10
448.799798
20
671.400423
11
449.716826
21
672.841662
0
LINE
8
Calque 1
10
449.716826
20
672.841662
11
451.186179
21
674.403820
0
LINE
8
Calque 1
10
451.186179
20
674.403820
11
453.159560
21
676.026100
0
LINE
8
Calque 1
10
453.159560
20
676.026100
11
454.214256
21
676.937428
0
LINE
8
Calque 1
10
454.214256
20
676.937428
11
454.463338
21
677.344674
0
LINE
8
Calque 1
10
454.463338
20
677.344674
11
454.522954
21
677.768300
0
LINE
8
Calque 1
10
454.522954
20
677.768300
11
454.061910
21
678.810672
0
LINE
8
Calque 1
10
454.061910
20
678.810672
11
452.807380
21
680.356500
0
LINE
8
Calque 1
10
452.807380
20
680.356500
11
450.734761
21
682.467375
0
LINE
8
Calque 1
10
450.734761
20
682.467375
11
450.101661
21
682.779694
0
LINE
8
Calque 1
10
450.101661
20
682.779694
11
449.542080
21
682.739100
0
LINE
8
Calque 1
10
449.542080
20
682.739100
11
448.578535
21
681.871475
0
LINE
8
Calque 1
10
448.578535
20
681.871475
11
446.976440
21
680.012500
0
LINE
8
Calque 1
10
446.976440
20
680.012500
11
444.604720
21
677.216913
0
LINE
8
Calque 1
10
444.604720
20
677.216913
11
443.892655
21
676.600642
0
LINE
8
Calque 1
10
443.892655
20
676.600642
11
443.240550
21
676.247500
0
LINE
8
Calque 1
10
443.240550
20
676.247500
11
442.724829
21
676.153138
0
LINE
8
Calque 1
10
442.724829
20
676.153138
11
442.173452
21
676.246200
0
LINE
8
Calque 1
10
442.173452
20
676.246200
11
441.664875
21
676.500963
0
LINE
8
Calque 1
10
441.664875
20
676.500963
11
441.277550
21
676.891700
0
LINE
8
Calque 1
10
441.277550
20
676.891700
11
441.097721
21
677.413995
0
LINE
8
Calque 1
10
441.097721
20
677.413995
11
441.112227
21
678.116219
0
LINE
8
Calque 1
10
441.112227
20
678.116219
11
441.668981
21
679.933200
0
LINE
8
Calque 1
10
441.668981
20
679.933200
11
442.837280
21
682.088131
0
LINE
8
Calque 1
10
442.837280
20
682.088131
11
444.506590
21
684.326500
0
LINE
8
Calque 1
10
444.506590
20
684.326500
11
445.465202
21
685.530472
0
LINE
8
Calque 1
10
445.465202
20
685.530472
11
445.966902
21
686.417325
0
LINE
8
Calque 1
10
445.966902
20
686.417325
11
446.054652
21
687.101566
0
LINE
8
Calque 1
10
446.054652
20
687.101566
11
445.771410
21
687.697700
0
LINE
8
Calque 1
10
445.771410
20
687.697700
11
444.614255
21
688.898155
0
LINE
8
Calque 1
10
444.614255
20
688.898155
11
442.931567
21
690.365938
0
LINE
8
Calque 1
10
442.931567
20
690.365938
11
441.322181
21
691.608102
0
LINE
8
Calque 1
10
441.322181
20
691.608102
11
440.384930
21
692.131700
0
LINE
8
Calque 1
10
440.384930
20
692.131700
11
439.644149
21
691.819833
0
LINE
8
Calque 1
10
439.644149
20
691.819833
11
438.767316
21
690.845463
0
LINE
8
Calque 1
10
438.767316
20
690.845463
11
437.712353
21
689.150436
0
LINE
8
Calque 1
10
437.712353
20
689.150436
11
436.437180
21
686.676600
0
LINE
8
Calque 1
10
436.437180
20
686.676600
11
435.316688
21
684.532364
0
LINE
8
Calque 1
10
435.316688
20
684.532364
11
434.339019
21
683.014313
0
LINE
8
Calque 1
10
434.339019
20
683.014313
11
433.495950
21
682.111505
0
LINE
8
Calque 1
10
433.495950
20
682.111505
11
432.779260
21
681.813000
0
LINE
8
Calque 1
10
432.779260
20
681.813000
11
432.285557
21
681.951366
0
LINE
8
Calque 1
10
432.285557
20
681.951366
11
431.796137
21
682.313850
0
LINE
8
Calque 1
10
431.796137
20
682.313850
11
431.392034
21
682.821534
0
LINE
8
Calque 1
10
431.392034
20
682.821534
11
431.154280
21
683.395500
0
LINE
8
Calque 1
10
431.154280
20
683.395500
11
431.092113
21
684.146886
0
LINE
8
Calque 1
10
431.092113
20
684.146886
11
431.183078
21
685.077477
0
LINE
8
Calque 1
10
431.183078
20
685.077477
11
431.775912
21
687.335163
0
LINE
8
Calque 1
10
431.775912
20
687.335163
11
432.835798
21
689.886342
0
LINE
8
Calque 1
10
432.835798
20
689.886342
11
434.265750
21
692.448800
0
LINE
8
Calque 1
10
434.265750
20
692.448800
11
435.741471
21
694.989888
0
LINE
8
Calque 1
10
435.741471
20
694.989888
11
435.903853
21
695.632311
0
LINE
8
Calque 1
10
435.903853
20
695.632311
11
435.783890
21
696.099600
0
LINE
8
Calque 1
10
435.783890
20
696.099600
11
435.154214
21
696.794761
0
LINE
8
Calque 1
10
435.154214
20
696.794761
11
433.959441
21
697.727866
0
LINE
8
Calque 1
10
433.959441
20
697.727866
11
430.551930
21
699.911000
0
LINE
8
Calque 1
10
430.551930
20
699.911000
11
426.915999
21
701.855184
0
LINE
8
Calque 1
10
426.915999
20
701.855184
11
425.435701
21
702.489602
0
LINE
8
Calque 1
10
425.435701
20
702.489602
11
424.406290
21
702.766600
0
LINE
8
Calque 1
10
424.406290
20
702.766600
11
423.859656
21
702.776675
0
LINE
8
Calque 1
10
423.859656
20
702.776675
11
423.472227
21
702.574200
0
LINE
8
Calque 1
10
423.472227
20
702.574200
11
422.493090
21
700.846400
0
LINE
8
Calque 1
10
422.493090
20
700.846400
11
421.400050
21
698.128180
0
LINE
8
Calque 1
10
421.400050
20
698.128180
11
420.469232
21
694.867963
0
LINE
8
Calque 1
10
420.469232
20
694.867963
11
419.795309
21
691.459189
0
LINE
8
Calque 1
10
419.795309
20
691.459189
11
419.472950
21
688.295300
0
LINE
8
Calque 1
10
419.472950
20
688.295300
11
419.436113
21
685.921439
0
LINE
8
Calque 1
10
419.436113
20
685.921439
11
419.695647
21
684.560688
0
LINE
8
Calque 1
10
419.695647
20
684.560688
11
419.998188
21
684.131102
0
LINE
8
Calque 1
10
419.998188
20
684.131102
11
420.448783
21
683.799842
0
LINE
8
Calque 1
10
420.448783
20
683.799842
11
421.892750
21
683.225700
0
LINE
8
Calque 1
10
421.892750
20
683.225700
11
424.368750
21
682.235388
0
LINE
8
Calque 1
10
424.368750
20
682.235388
11
427.251944
21
680.834975
0
LINE
8
Calque 1
10
427.251944
20
680.834975
11
430.099241
21
679.254900
0
LINE
8
Calque 1
10
430.099241
20
679.254900
11
432.467550
21
677.725600
0
LINE
8
Calque 1
10
432.467550
20
677.725600
11
435.114727
21
675.682537
0
LINE
8
Calque 1
10
435.114727
20
675.682537
11
437.705058
21
673.410418
0
LINE
8
Calque 1
10
437.705058
20
673.410418
11
440.234849
21
670.915501
0
LINE
8
Calque 1
10
440.234849
20
670.915501
11
442.700405
21
668.204042
0
LINE
8
Calque 1
10
442.700405
20
668.204042
11
445.098031
21
665.282300
0
LINE
8
Calque 1
10
445.098031
20
665.282300
11
447.424033
21
662.156530
0
LINE
8
Calque 1
10
447.424033
20
662.156530
11
449.674717
21
658.832990
0
LINE
8
Calque 1
10
449.674717
20
658.832990
11
451.846387
21
655.317938
0
LINE
8
Calque 1
10
451.846387
20
655.317938
11
453.935351
21
651.617629
0
LINE
8
Calque 1
10
453.935351
20
651.617629
11
455.937912
21
647.738322
0
LINE
8
Calque 1
10
455.937912
20
647.738322
11
457.850377
21
643.686273
0
LINE
8
Calque 1
10
457.850377
20
643.686273
11
459.669052
21
639.467739
0
LINE
8
Calque 1
10
459.669052
20
639.467739
11
463.010249
21
630.556246
0
LINE
8
Calque 1
10
463.010249
20
630.556246
11
465.931950
21
621.053900
0
LINE
8
Calque 1
10
465.931950
20
621.053900
11
467.490834
21
615.804358
0
LINE
8
Calque 1
10
467.490834
20
615.804358
11
468.881107
21
612.096188
0
LINE
8
Calque 1
10
468.881107
20
612.096188
11
470.260539
21
609.574498
0
LINE
8
Calque 1
10
470.260539
20
609.574498
11
470.995493
21
608.647681
0
LINE
8
Calque 1
10
470.995493
20
608.647681
11
471.786900
21
607.884400
0
LINE
8
Calque 1
10
471.786900
20
607.884400
11
472.903776
21
607.068306
0
LINE
8
Calque 1
10
472.903776
20
607.068306
11
474.244471
21
606.631900
0
LINE
8
Calque 1
10
474.244471
20
606.631900
11
476.517614
21
606.454919
0
LINE
8
Calque 1
10
476.517614
20
606.454919
11
480.431830
21
606.417100
0
LINE
8
Calque 1
10
480.431830
20
606.417100
11
485.640360
21
606.479313
0
LINE
8
Calque 1
10
485.640360
20
606.479313
11
486.433612
21
606.617223
0
LINE
8
Calque 1
10
486.433612
20
606.617223
11
486.612680
21
606.869800
0
LINE
8
Calque 1
10
486.612680
20
606.869800
11
486.612720
21
606.869800
0
LINE
8
Calque 1
10
346.761000
20
628.896000
11
347.835540
21
630.253200
0
LINE
8
Calque 1
10
347.835540
20
630.253200
11
348.729723
21
631.256817
0
LINE
8
Calque 1
10
348.729723
20
631.256817
11
349.732089
21
631.988438
0
LINE
8
Calque 1
10
349.732089
20
631.988438
11
350.824318
21
632.437739
0
LINE
8
Calque 1
10
350.824318
20
632.437739
11
351.988090
21
632.594400
0
LINE
8
Calque 1
10
351.988090
20
632.594400
11
352.854404
21
632.481942
0
LINE
8
Calque 1
10
352.854404
20
632.481942
11
353.867075
21
632.127712
0
LINE
8
Calque 1
10
353.867075
20
632.127712
11
356.367000
21
630.682800
0
LINE
8
Calque 1
10
356.367000
20
630.682800
11
357.318866
21
630.142162
0
LINE
8
Calque 1
10
357.318866
20
630.142162
11
357.804570
21
630.185400
0
LINE
8
Calque 1
10
357.804570
20
630.185400
11
357.989790
21
630.398927
0
LINE
8
Calque 1
10
357.989790
20
630.398927
11
357.874300
21
630.611112
0
LINE
8
Calque 1
10
357.874300
20
630.611112
11
355.930070
21
631.676800
0
LINE
8
Calque 1
10
355.930070
20
631.676800
11
354.181079
21
632.665684
0
LINE
8
Calque 1
10
354.181079
20
632.665684
11
353.115314
21
633.512500
0
LINE
8
Calque 1
10
353.115314
20
633.512500
11
352.584552
21
634.376041
0
LINE
8
Calque 1
10
352.584552
20
634.376041
11
352.440570
21
635.415100
0
LINE
8
Calque 1
10
352.440570
20
635.415100
11
352.440000
21
636.695000
0
LINE
8
Calque 1
10
352.440000
20
636.695000
11
357.035950
21
641.196100
0
LINE
8
Calque 1
10
357.035950
20
641.196100
11
361.284510
21
645.438875
0
LINE
8
Calque 1
10
361.284510
20
645.438875
11
362.095368
21
646.348741
0
LINE
8
Calque 1
10
362.095368
20
646.348741
11
362.194460
21
646.623300
0
LINE
8
Calque 1
10
362.194460
20
646.623300
11
352.570920
21
637.083400
0
LINE
8
Calque 1
10
352.570920
20
637.083400
11
343.047300
21
627.543500
0
LINE
8
Calque 1
10
343.047300
20
627.543500
11
344.864730
21
628.219900
0
LINE
8
Calque 1
10
344.864730
20
628.219900
11
346.760430
21
628.896200
0
LINE
8
Calque 1
10
346.760430
20
628.896200
11
346.761000
21
628.896000
0
LINE
8
Calque 1
10
362.414500
20
632.632400
11
363.653049
21
633.734302
0
LINE
8
Calque 1
10
363.653049
20
633.734302
11
365.350349
21
635.766138
0
LINE
8
Calque 1
10
365.350349
20
635.766138
11
367.447645
21
638.651755
0
LINE
8
Calque 1
10
367.447645
20
638.651755
11
369.886180
21
642.315000
0
LINE
8
Calque 1
10
369.886180
20
642.315000
11
373.868004
21
648.332305
0
LINE
8
Calque 1
10
373.868004
20
648.332305
11
376.924139
21
652.464213
0
LINE
8
Calque 1
10
376.924139
20
652.464213
11
379.504645
21
655.264214
0
LINE
8
Calque 1
10
379.504645
20
655.264214
11
382.059580
21
657.285800
0
LINE
8
Calque 1
10
382.059580
20
657.285800
11
385.010192
21
659.061102
0
LINE
8
Calque 1
10
385.010192
20
659.061102
11
388.519955
21
660.681087
0
LINE
8
Calque 1
10
388.519955
20
660.681087
11
393.152131
21
662.375005
0
LINE
8
Calque 1
10
393.152131
20
662.375005
11
399.469980
21
664.372100
0
LINE
8
Calque 1
10
399.469980
20
664.372100
11
401.138987
21
664.917716
0
LINE
8
Calque 1
10
401.138987
20
664.917716
11
401.900893
21
665.361875
0
LINE
8
Calque 1
10
401.900893
20
665.361875
11
401.986359
21
665.602914
0
LINE
8
Calque 1
10
401.986359
20
665.602914
11
401.898664
21
665.886997
0
LINE
8
Calque 1
10
401.898664
20
665.886997
11
401.275270
21
666.675500
0
LINE
8
Calque 1
10
401.275270
20
666.675500
11
399.396455
21
668.308067
0
LINE
8
Calque 1
10
399.396455
20
668.308067
11
396.883599
21
669.900988
0
LINE
8
Calque 1
10
396.883599
20
669.900988
11
394.152325
21
671.223214
0
LINE
8
Calque 1
10
394.152325
20
671.223214
11
391.618260
21
672.043700
0
LINE
8
Calque 1
10
391.618260
20
672.043700
11
390.226368
21
672.163088
0
LINE
8
Calque 1
10
390.226368
20
672.163088
11
388.472510
21
671.678800
0
LINE
8
Calque 1
10
388.472510
20
671.678800
11
385.486451
21
670.330505
0
LINE
8
Calque 1
10
385.486451
20
670.330505
11
382.239944
21
668.291638
0
LINE
8
Calque 1
10
382.239944
20
668.291638
11
378.815070
21
665.620127
0
LINE
8
Calque 1
10
378.815070
20
665.620127
11
375.293910
21
662.373900
0
LINE
8
Calque 1
10
375.293910
20
662.373900
11
373.187388
21
660.241127
0
LINE
8
Calque 1
10
373.187388
20
660.241127
11
371.742961
21
658.484788
0
LINE
8
Calque 1
10
371.742961
20
658.484788
11
370.257804
21
656.115005
0
LINE
8
Calque 1
10
370.257804
20
656.115005
11
368.029090
21
652.141900
0
LINE
8
Calque 1
10
368.029090
20
652.141900
11
365.595735
21
647.887084
0
LINE
8
Calque 1
10
365.595735
20
647.887084
11
363.637726
21
644.938300
0
LINE
8
Calque 1
10
363.637726
20
644.938300
11
361.524611
21
642.454216
0
LINE
8
Calque 1
10
361.524611
20
642.454216
11
358.625940
21
639.593500
0
LINE
8
Calque 1
10
358.625940
20
639.593500
11
355.694761
21
636.672050
0
LINE
8
Calque 1
10
355.694761
20
636.672050
11
354.611200
21
635.293800
0
LINE
8
Calque 1
10
354.611200
20
635.293800
11
354.866111
21
634.944509
0
LINE
8
Calque 1
10
354.866111
20
634.944509
11
355.461045
21
634.483353
0
LINE
8
Calque 1
10
355.461045
20
634.483353
11
357.292764
21
633.419350
0
LINE
8
Calque 1
10
357.292764
20
633.419350
11
359.349915
21
632.489597
0
LINE
8
Calque 1
10
359.349915
20
632.489597
11
360.876060
21
632.081900
0
LINE
8
Calque 1
10
360.876060
20
632.081900
11
361.587965
21
632.237600
0
LINE
8
Calque 1
10
361.587965
20
632.237600
11
362.414560
21
632.632400
0
LINE
8
Calque 1
10
362.414560
20
632.632400
11
362.414500
21
632.632400
0
LINE
8
Calque 1
10
380.359100
20
652.479400
11
382.503511
21
654.795600
0
LINE
8
Calque 1
10
382.503511
20
654.795600
11
382.485304
21
654.859494
0
LINE
8
Calque 1
10
382.485304
20
654.859494
11
382.247957
21
654.721975
0
LINE
8
Calque 1
10
382.247957
20
654.721975
11
381.121010
21
653.852000
0
LINE
8
Calque 1
10
381.121010
20
653.852000
11
378.929485
21
651.548150
0
LINE
8
Calque 1
10
378.929485
20
651.548150
11
377.930184
21
650.327684
0
LINE
8
Calque 1
10
377.930184
20
650.327684
11
377.629560
21
649.798100
0
LINE
8
Calque 1
10
377.629560
20
649.798100
11
380.359100
21
652.479400
0
LINE
8
Calque 1
10
380.359100
20
652.479400
11
380.359100
21
652.479400
0
LINE
8
Calque 1
10
399.271800
20
671.333300
11
398.861190
21
671.594900
0
LINE
8
Calque 1
10
398.861190
20
671.594900
11
398.613645
21
671.632900
0
LINE
8
Calque 1
10
398.613645
20
671.632900
11
398.612220
21
671.490900
0
LINE
8
Calque 1
10
398.612220
20
671.490900
11
399.000277
21
671.237462
0
LINE
8
Calque 1
10
399.000277
20
671.237462
11
399.190591
21
671.232164
0
LINE
8
Calque 1
10
399.190591
20
671.232164
11
399.271800
21
671.333300
0
LINE
8
Calque 1
10
399.271800
20
671.333300
11
399.271800
21
671.333300
0
LINE
8
Calque 1
10
395.112270
20
674.886700
11
396.417330
21
675.755800
0
LINE
8
Calque 1
10
396.417330
20
675.755800
11
397.434720
21
676.274800
0
LINE
8
Calque 1
10
397.434720
20
676.274800
11
396.044360
21
677.854400
0
LINE
8
Calque 1
10
396.044360
20
677.854400
11
394.654010
21
679.433900
0
LINE
8
Calque 1
10
394.654010
20
679.433900
11
392.193600
21
676.985300
0
LINE
8
Calque 1
10
392.193600
20
676.985300
11
389.733200
21
674.536600
0
LINE
8
Calque 1
10
389.733200
20
674.536600
11
391.129060
21
674.354600
0
LINE
8
Calque 1
10
391.129060
20
674.354600
11
393.583260
21
673.820900
0
LINE
8
Calque 1
10
393.583260
20
673.820900
11
394.498904
21
673.599987
0
LINE
8
Calque 1
10
394.498904
20
673.599987
11
394.657020
21
673.716514
0
LINE
8
Calque 1
10
394.657020
20
673.716514
11
394.733090
21
674.003000
0
LINE
8
Calque 1
10
394.733090
20
674.003000
11
395.112270
21
674.886700
0
LINE
8
Calque 1
10
395.112270
20
674.886700
11
395.112270
21
674.886700
0
LINE
8
Calque 1
10
417.519870
20
691.390600
11
418.672181
21
696.530237
0
LINE
8
Calque 1
10
418.672181
20
696.530237
11
419.453122
21
699.241539
0
LINE
8
Calque 1
10
419.453122
20
699.241539
11
420.142200
21
701.193400
0
LINE
8
Calque 1
10
420.142200
20
701.193400
11
420.684290
21
702.450200
0
LINE
8
Calque 1
10
420.684290
20
702.450200
11
419.609000
21
702.450000
0
LINE
8
Calque 1
10
419.609000
20
702.450000
11
418.604391
21
702.333563
0
LINE
8
Calque 1
10
418.604391
20
702.333563
11
417.698760
21
702.053700
0
LINE
8
Calque 1
10
417.698760
20
702.053700
11
415.166312
21
699.827037
0
LINE
8
Calque 1
10
415.166312
20
699.827037
11
410.250440
21
695.030200
0
LINE
8
Calque 1
10
410.250440
20
695.030200
11
404.755607
21
689.393238
0
LINE
8
Calque 1
10
404.755607
20
689.393238
11
404.054112
21
688.440105
0
LINE
8
Calque 1
10
404.054112
20
688.440105
11
404.028579
21
688.217829
0
LINE
8
Calque 1
10
404.028579
20
688.217829
11
404.148900
21
688.084300
0
LINE
8
Calque 1
10
404.148900
20
688.084300
11
408.249940
21
685.854800
0
LINE
8
Calque 1
10
408.249940
20
685.854800
11
411.839350
21
683.943900
0
LINE
8
Calque 1
10
411.839350
20
683.943900
11
414.526210
21
686.618800
0
LINE
8
Calque 1
10
414.526210
20
686.618800
11
417.213080
21
689.293600
0
LINE
8
Calque 1
10
417.213080
20
689.293600
11
417.519870
21
691.390600
0
LINE
8
Calque 1
10
434.883170
20
688.887500
11
434.220569
21
687.811387
0
LINE
8
Calque 1
10
434.220569
20
687.811387
11
433.680000
21
686.354800
0
LINE
8
Calque 1
10
433.680000
20
686.354800
11
434.359680
21
687.461000
0
LINE
8
Calque 1
10
434.359680
20
687.461000
11
434.788739
21
688.409075
0
LINE
8
Calque 1
10
434.788739
20
688.409075
11
434.883170
21
688.887500
0
LINE
8
Calque 1
10
434.883170
20
688.887500
11
434.883170
21
688.887500
 0 
ENDSEC
 0 
EOF