999
"DXF R12 Output" (www.mydxf.blogspot.com)
 0 
SECTION
 2 
HEADER
 9 
$ACADVER
 1 
AC1009
 9 
$EXTMIN
 10 
 0 
 20 
 0 
 9 
$EXTMAX
 10 
 8.5 
 20 
 11 
 0 
ENDSEC
 0 
SECTION
 2 
ENTITIES
0
LINE
8
Calque 1
10
331.147000
20
525.904000
11
251.904600
21
605.146800
0
LINE
8
Calque 1
10
251.904600
20
605.146800
11
331.213300
21
684.455600
0
LINE
8
Calque 1
10
331.213300
20
684.455600
11
410.522000
21
763.764300
0
LINE
8
Calque 1
10
410.522000
20
763.764300
11
489.830700
21
684.455600
0
LINE
8
Calque 1
10
489.830700
20
684.455600
11
569.139500
21
605.146800
0
LINE
8
Calque 1
10
569.139500
20
605.146800
11
489.897100
21
525.904000
0
LINE
8
Calque 1
10
489.897100
20
525.904000
11
410.522000
21
446.661300
0
LINE
8
Calque 1
10
410.522000
20
446.661300
11
331.146900
21
525.904000
0
LINE
8
Calque 1
10
331.146900
20
525.904000
11
331.147000
21
525.904000
0
LINE
8
Calque 1
10
412.638700
20
457.869600
11
414.978220
21
459.863812
0
LINE
8
Calque 1
10
414.978220
20
459.863812
11
416.070732
21
460.986370
0
LINE
8
Calque 1
10
416.070732
20
460.986370
11
416.383240
21
461.488500
0
LINE
8
Calque 1
10
416.383240
20
461.488500
11
416.946030
21
461.898000
0
LINE
8
Calque 1
10
416.946030
20
461.898000
11
417.418500
21
462.255612
0
LINE
8
Calque 1
10
417.418500
20
462.255612
11
417.521670
21
462.555400
0
LINE
8
Calque 1
10
417.521670
20
462.555400
11
417.474983
21
462.716675
0
LINE
8
Calque 1
10
417.474983
20
462.716675
11
417.587070
21
462.741300
0
LINE
8
Calque 1
10
417.587070
20
462.741300
11
419.113019
21
464.050075
0
LINE
8
Calque 1
10
419.113019
20
464.050075
11
422.465480
21
467.298800
0
LINE
8
Calque 1
10
422.465480
20
467.298800
11
427.750000
21
472.504900
0
LINE
8
Calque 1
10
427.750000
20
472.504900
11
429.369280
21
474.158500
0
LINE
8
Calque 1
10
429.369280
20
474.158500
11
430.634360
21
475.236300
0
LINE
8
Calque 1
10
430.634360
20
475.236300
11
430.878077
21
475.361312
0
LINE
8
Calque 1
10
430.878077
20
475.361312
11
431.074830
21
475.661900
0
LINE
8
Calque 1
10
431.074830
20
475.661900
11
432.236110
21
477.050900
0
LINE
8
Calque 1
10
432.236110
20
477.050900
11
434.511890
21
479.245700
0
LINE
8
Calque 1
10
434.511890
20
479.245700
11
436.947470
21
481.693100
0
LINE
8
Calque 1
10
436.947470
20
481.693100
11
438.336530
21
482.909200
0
LINE
8
Calque 1
10
438.336530
20
482.909200
11
438.506242
21
483.006337
0
LINE
8
Calque 1
10
438.506242
20
483.006337
11
438.589480
21
483.239900
0
LINE
8
Calque 1
10
438.589480
20
483.239900
11
439.132471
21
483.939812
0
LINE
8
Calque 1
10
439.132471
20
483.939812
11
440.407560
21
485.158200
0
LINE
8
Calque 1
10
440.407560
20
485.158200
11
441.635391
21
486.349625
0
LINE
8
Calque 1
10
441.635391
20
486.349625
11
442.064810
21
486.985000
0
LINE
8
Calque 1
10
442.064810
20
486.985000
11
442.061386
21
487.095375
0
LINE
8
Calque 1
10
442.061386
20
487.095375
11
442.248920
21
487.025000
0
LINE
8
Calque 1
10
442.248920
20
487.025000
11
442.525446
21
487.021462
0
LINE
8
Calque 1
10
442.525446
20
487.021462
11
442.716750
21
487.378000
0
LINE
8
Calque 1
10
442.716750
20
487.378000
11
442.876019
21
487.733125
0
LINE
8
Calque 1
10
442.876019
20
487.733125
11
443.055950
21
487.810600
0
LINE
8
Calque 1
10
443.055950
20
487.810600
11
443.360054
21
487.917350
0
LINE
8
Calque 1
10
443.360054
20
487.917350
11
443.817870
21
488.342700
0
LINE
8
Calque 1
10
443.817870
20
488.342700
11
444.218930
21
488.995100
0
LINE
8
Calque 1
10
444.218930
20
488.995100
11
444.816000
21
489.580300
0
LINE
8
Calque 1
10
444.816000
20
489.580300
11
447.832430
21
492.424600
0
LINE
8
Calque 1
10
447.832430
20
492.424600
11
451.139720
21
495.643100
0
LINE
8
Calque 1
10
451.139720
20
495.643100
11
454.680530
21
499.148800
0
LINE
8
Calque 1
10
454.680530
20
499.148800
11
456.515882
21
500.947137
0
LINE
8
Calque 1
10
456.515882
20
500.947137
11
457.436610
21
501.695100
0
LINE
8
Calque 1
10
457.436610
20
501.695100
11
457.581471
21
501.740675
0
LINE
8
Calque 1
10
457.581471
20
501.740675
11
457.551440
21
501.849700
0
LINE
8
Calque 1
10
457.551440
20
501.849700
11
457.882767
21
502.350212
0
LINE
8
Calque 1
10
457.882767
20
502.350212
11
458.896400
21
503.336500
0
LINE
8
Calque 1
10
458.896400
20
503.336500
11
461.610100
21
505.958600
0
LINE
8
Calque 1
10
461.610100
20
505.958600
11
462.518981
21
506.818150
0
LINE
8
Calque 1
10
462.518981
20
506.818150
11
462.999170
21
507.073500
0
LINE
8
Calque 1
10
462.999170
20
507.073500
11
463.122695
21
507.079762
0
LINE
8
Calque 1
10
463.122695
20
507.079762
11
463.174070
21
507.339600
0
LINE
8
Calque 1
10
463.174070
20
507.339600
11
463.295239
21
507.650987
0
LINE
8
Calque 1
10
463.295239
20
507.650987
11
463.586560
21
507.780500
0
LINE
8
Calque 1
10
463.586560
20
507.780500
11
463.835292
21
507.849425
0
LINE
8
Calque 1
10
463.835292
20
507.849425
11
463.854060
21
508.015100
0
LINE
8
Calque 1
10
463.854060
20
508.015100
11
463.867406
21
508.276887
0
LINE
8
Calque 1
10
463.867406
20
508.276887
11
464.103030
21
508.576700
0
LINE
8
Calque 1
10
464.103030
20
508.576700
11
464.496990
21
508.729800
0
LINE
8
Calque 1
10
464.496990
20
508.729800
11
465.356420
21
509.557300
0
LINE
8
Calque 1
10
465.356420
20
509.557300
11
466.480900
21
510.733700
0
LINE
8
Calque 1
10
466.480900
20
510.733700
11
470.000020
21
514.109600
0
LINE
8
Calque 1
10
470.000020
20
514.109600
11
473.900360
21
517.733700
0
LINE
8
Calque 1
10
473.900360
20
517.733700
11
474.313997
21
518.101987
0
LINE
8
Calque 1
10
474.313997
20
518.101987
11
474.400980
21
518.392800
0
LINE
8
Calque 1
10
474.400980
20
518.392800
11
474.368980
21
518.559200
0
LINE
8
Calque 1
10
474.368980
20
518.559200
11
474.496580
21
518.628400
0
LINE
8
Calque 1
10
474.496580
20
518.628400
11
477.211540
21
521.009700
0
LINE
8
Calque 1
10
477.211540
20
521.009700
11
479.896300
21
523.390900
0
LINE
8
Calque 1
10
479.896300
20
523.390900
11
480.045374
21
523.507487
0
LINE
8
Calque 1
10
480.045374
20
523.507487
11
480.107380
21
523.787800
0
LINE
8
Calque 1
10
480.107380
20
523.787800
11
480.181530
21
524.068112
0
LINE
8
Calque 1
10
480.181530
20
524.068112
11
480.359810
21
524.184700
0
LINE
8
Calque 1
10
480.359810
20
524.184700
11
482.366230
21
525.904500
0
LINE
8
Calque 1
10
482.366230
20
525.904500
11
484.223620
21
527.624300
0
LINE
8
Calque 1
10
484.223620
20
527.624300
11
486.818980
21
530.071700
0
LINE
8
Calque 1
10
486.818980
20
530.071700
11
491.227660
21
534.238900
0
LINE
8
Calque 1
10
491.227660
20
534.238900
11
497.931940
21
540.452900
0
LINE
8
Calque 1
10
497.931940
20
540.452900
11
498.968556
21
541.359712
0
LINE
8
Calque 1
10
498.968556
20
541.359712
11
499.554250
21
541.687600
0
LINE
8
Calque 1
10
499.554250
20
541.687600
11
499.686717
21
541.682562
0
LINE
8
Calque 1
10
499.686717
20
541.682562
11
499.633650
21
541.788300
0
LINE
8
Calque 1
10
499.633650
20
541.788300
11
499.893485
21
542.286091
0
LINE
8
Calque 1
10
499.893485
20
542.286091
11
500.687750
21
543.176075
0
LINE
8
Calque 1
10
500.687750
20
543.176075
11
501.580032
21
544.011722
0
LINE
8
Calque 1
10
501.580032
20
544.011722
11
502.133920
21
544.346500
0
LINE
8
Calque 1
10
502.133920
20
544.346500
11
502.274067
21
544.430075
0
LINE
8
Calque 1
10
502.274067
20
544.430075
11
502.332360
21
544.705500
0
LINE
8
Calque 1
10
502.332360
20
544.705500
11
502.399107
21
544.955587
0
LINE
8
Calque 1
10
502.399107
20
544.955587
11
502.559590
21
544.977600
0
LINE
8
Calque 1
10
502.559590
20
544.977600
11
503.391680
21
545.526350
0
LINE
8
Calque 1
10
503.391680
20
545.526350
11
505.073130
21
547.042600
0
LINE
8
Calque 1
10
505.073130
20
547.042600
11
507.359440
21
549.112500
0
LINE
8
Calque 1
10
507.359440
20
549.112500
11
508.136710
21
549.743900
0
LINE
8
Calque 1
10
508.136710
20
549.743900
11
510.145130
21
551.569100
0
LINE
8
Calque 1
10
510.145130
20
551.569100
11
512.738750
21
553.884200
0
LINE
8
Calque 1
10
512.738750
20
553.884200
11
513.801334
21
554.771750
0
LINE
8
Calque 1
10
513.801334
20
554.771750
11
514.442800
21
555.140900
0
LINE
8
Calque 1
10
514.442800
20
555.140900
11
514.728606
21
555.257075
0
LINE
8
Calque 1
10
514.728606
20
555.257075
11
514.936090
21
555.536300
0
LINE
8
Calque 1
10
514.936090
20
555.536300
11
515.112799
21
555.772550
0
LINE
8
Calque 1
10
515.112799
20
555.772550
11
515.324660
21
555.785300
0
LINE
8
Calque 1
10
515.324660
20
555.785300
11
515.491945
21
555.801212
0
LINE
8
Calque 1
10
515.491945
20
555.801212
11
515.561520
21
556.044600
0
LINE
8
Calque 1
10
515.561520
20
556.044600
11
515.794685
21
556.451675
0
LINE
8
Calque 1
10
515.794685
20
556.451675
11
516.355270
21
556.860700
0
LINE
8
Calque 1
10
516.355270
20
556.860700
11
516.915859
21
557.221325
0
LINE
8
Calque 1
10
516.915859
20
557.221325
11
517.149020
21
557.511900
0
LINE
8
Calque 1
10
517.149020
20
557.511900
11
517.419094
21
557.779475
0
LINE
8
Calque 1
10
517.419094
20
557.779475
11
518.068420
21
558.085000
0
LINE
8
Calque 1
10
518.068420
20
558.085000
11
518.871490
21
558.533800
0
LINE
8
Calque 1
10
518.871490
20
558.533800
11
518.837122
21
558.806064
0
LINE
8
Calque 1
10
518.837122
20
558.806064
11
519.032906
21
559.149812
0
LINE
8
Calque 1
10
519.032906
20
559.149812
11
519.341140
21
559.421355
0
LINE
8
Calque 1
10
519.341140
20
559.421355
11
519.644120
21
559.477000
0
LINE
8
Calque 1
10
519.644120
20
559.477000
11
520.079410
21
559.603450
0
LINE
8
Calque 1
10
520.079410
20
559.603450
11
520.615890
21
560.148400
0
LINE
8
Calque 1
10
520.615890
20
560.148400
11
521.147179
21
560.722837
0
LINE
8
Calque 1
10
521.147179
20
560.722837
11
521.580030
21
560.961800
0
LINE
8
Calque 1
10
521.580030
20
560.961800
11
521.793623
21
561.030675
0
LINE
8
Calque 1
10
521.793623
20
561.030675
11
521.797830
21
561.196300
0
LINE
8
Calque 1
10
521.797830
20
561.196300
11
521.857860
21
561.404375
0
LINE
8
Calque 1
10
521.857860
20
561.404375
11
522.205710
21
561.575400
0
LINE
8
Calque 1
10
522.205710
20
561.575400
11
522.561671
21
561.766700
0
LINE
8
Calque 1
10
522.561671
20
561.766700
11
522.558720
21
562.043200
0
LINE
8
Calque 1
10
522.558720
20
562.043200
11
522.489338
21
562.228625
0
LINE
8
Calque 1
10
522.489338
20
562.228625
11
522.614220
21
562.208700
0
LINE
8
Calque 1
10
522.614220
20
562.208700
11
529.118758
21
568.421750
0
LINE
8
Calque 1
10
529.118758
20
568.421750
11
544.398820
21
583.581400
0
LINE
8
Calque 1
10
544.398820
20
583.581400
11
565.928120
21
605.111800
0
LINE
8
Calque 1
10
565.928120
20
605.111800
11
561.398960
21
609.825900
0
LINE
8
Calque 1
10
561.398960
20
609.825900
11
483.695860
21
687.697000
0
LINE
8
Calque 1
10
483.695860
20
687.697000
11
410.521960
21
760.854100
0
LINE
8
Calque 1
10
410.521960
20
760.854100
11
337.348060
21
687.697000
0
LINE
8
Calque 1
10
337.348060
20
687.697000
11
259.644960
21
609.825900
0
LINE
8
Calque 1
10
259.644960
20
609.825900
11
255.115820
21
605.111800
0
LINE
8
Calque 1
10
255.115820
20
605.111800
11
277.041920
21
583.184500
0
LINE
8
Calque 1
10
277.041920
20
583.184500
11
299.116320
21
561.325000
0
LINE
8
Calque 1
10
299.116320
20
561.325000
11
299.850460
21
560.780400
0
LINE
8
Calque 1
10
299.850460
20
560.780400
11
300.262910
21
560.168000
0
LINE
8
Calque 1
10
300.262910
20
560.168000
11
300.182765
21
560.134568
0
LINE
8
Calque 1
10
300.182765
20
560.134568
11
300.234661
21
560.046366
0
LINE
8
Calque 1
10
300.234661
20
560.046366
11
300.611460
21
559.778200
0
LINE
8
Calque 1
10
300.611460
20
559.778200
11
301.595320
21
559.382700
0
LINE
8
Calque 1
10
301.595320
20
559.382700
11
301.885321
21
559.300762
0
LINE
8
Calque 1
10
301.885321
20
559.300762
11
301.910430
21
559.109700
0
LINE
8
Calque 1
10
301.910430
20
559.109700
11
301.916126
21
558.922838
0
LINE
8
Calque 1
10
301.916126
20
558.922838
11
302.159400
21
558.845100
0
LINE
8
Calque 1
10
302.159400
20
558.845100
11
302.462988
21
558.680500
0
LINE
8
Calque 1
10
302.462988
20
558.680500
11
302.590490
21
558.249800
0
LINE
8
Calque 1
10
302.590490
20
558.249800
11
302.638750
21
557.814387
0
LINE
8
Calque 1
10
302.638750
20
557.814387
11
302.836470
21
558.183800
0
LINE
8
Calque 1
10
302.836470
20
558.183800
11
303.054398
21
558.476837
0
LINE
8
Calque 1
10
303.054398
20
558.476837
11
303.200280
21
557.808900
0
LINE
8
Calque 1
10
303.200280
20
557.808900
11
303.474210
21
557.345900
0
LINE
8
Calque 1
10
303.474210
20
557.345900
11
303.593409
21
557.280900
0
LINE
8
Calque 1
10
303.593409
20
557.280900
11
303.524710
21
557.456200
0
LINE
8
Calque 1
10
303.524710
20
557.456200
11
303.458353
21
557.779505
0
LINE
8
Calque 1
10
303.458353
20
557.779505
11
303.899829
21
557.559837
0
LINE
8
Calque 1
10
303.899829
20
557.559837
11
305.862960
21
555.802500
0
LINE
8
Calque 1
10
305.862960
20
555.802500
11
306.545028
21
555.171637
0
LINE
8
Calque 1
10
306.545028
20
555.171637
11
306.705273
21
555.070448
0
LINE
8
Calque 1
10
306.705273
20
555.070448
11
306.708020
21
555.141000
0
LINE
8
Calque 1
10
306.708020
20
555.141000
11
306.729748
21
555.207775
0
LINE
8
Calque 1
10
306.729748
20
555.207775
11
307.072220
21
554.810300
0
LINE
8
Calque 1
10
307.072220
20
554.810300
11
307.909360
21
554.082700
0
LINE
8
Calque 1
10
307.909360
20
554.082700
11
308.802809
21
553.503625
0
LINE
8
Calque 1
10
308.802809
20
553.503625
11
311.258320
21
551.238400
0
LINE
8
Calque 1
10
311.258320
20
551.238400
11
312.952970
21
549.849400
0
LINE
8
Calque 1
10
312.952970
20
549.849400
11
313.068626
21
549.769750
0
LINE
8
Calque 1
10
313.068626
20
549.769750
11
313.018870
21
549.578200
0
LINE
8
Calque 1
10
313.018870
20
549.578200
11
312.969820
21
549.408087
0
LINE
8
Calque 1
10
312.969820
20
549.408087
11
313.087270
21
549.379800
0
LINE
8
Calque 1
10
313.087270
20
549.379800
11
314.272955
21
548.616562
0
LINE
8
Calque 1
10
314.272955
20
548.616562
11
315.275850
21
547.605000
0
LINE
8
Calque 1
10
315.275850
20
547.605000
11
315.470280
21
547.431900
0
LINE
8
Calque 1
10
315.470280
20
547.431900
11
316.660610
21
546.373500
0
LINE
8
Calque 1
10
316.660610
20
546.373500
11
317.893860
21
545.351500
0
LINE
8
Calque 1
10
317.893860
20
545.351500
11
318.803110
21
544.557700
0
LINE
8
Calque 1
10
318.803110
20
544.557700
11
319.614040
21
543.764000
0
LINE
8
Calque 1
10
319.614040
20
543.764000
11
321.687790
21
541.845700
0
LINE
8
Calque 1
10
321.687790
20
541.845700
11
327.998760
21
535.958800
0
LINE
8
Calque 1
10
327.998760
20
535.958800
11
329.431110
21
534.499900
0
LINE
8
Calque 1
10
329.431110
20
534.499900
11
330.749960
21
533.221200
0
LINE
8
Calque 1
10
330.749960
20
533.221200
11
333.873220
21
530.380600
0
LINE
8
Calque 1
10
333.873220
20
530.380600
11
336.289480
21
528.153500
0
LINE
8
Calque 1
10
336.289480
20
528.153500
11
337.447220
21
527.077525
0
LINE
8
Calque 1
10
337.447220
20
527.077525
11
338.341170
21
525.911100
0
LINE
8
Calque 1
10
338.341170
20
525.911100
11
338.372720
21
525.813200
0
LINE
8
Calque 1
10
338.372720
20
525.813200
11
338.643370
21
525.772300
0
LINE
8
Calque 1
10
338.643370
20
525.772300
11
338.954804
21
525.697050
0
LINE
8
Calque 1
10
338.954804
20
525.697050
11
339.084340
21
525.516200
0
LINE
8
Calque 1
10
339.084340
20
525.516200
11
339.276048
21
525.234850
0
LINE
8
Calque 1
10
339.276048
20
525.234850
11
339.736960
21
524.918100
0
LINE
8
Calque 1
10
339.736960
20
524.918100
11
340.394771
21
524.409700
0
LINE
8
Calque 1
10
340.394771
20
524.409700
11
341.059880
21
523.667600
0
LINE
8
Calque 1
10
341.059880
20
523.667600
11
341.533273
21
523.094450
0
LINE
8
Calque 1
10
341.533273
20
523.094450
11
341.730170
21
522.992300
0
LINE
8
Calque 1
10
341.730170
20
522.992300
11
341.963335
21
522.933588
0
LINE
8
Calque 1
10
341.963335
20
522.933588
11
342.523920
21
522.465000
0
LINE
8
Calque 1
10
342.523920
20
522.465000
11
343.084509
21
521.821325
0
LINE
8
Calque 1
10
343.084509
20
521.821325
11
343.317670
21
521.341600
0
LINE
8
Calque 1
10
343.317670
20
521.341600
11
343.392850
21
521.131638
0
LINE
8
Calque 1
10
343.392850
20
521.131638
11
343.573600
21
521.136700
0
LINE
8
Calque 1
10
343.573600
20
521.136700
11
343.853310
21
521.090175
0
LINE
8
Calque 1
10
343.853310
20
521.090175
11
344.166410
21
520.755500
0
LINE
8
Calque 1
10
344.166410
20
520.755500
11
344.715720
21
520.216000
0
LINE
8
Calque 1
10
344.715720
20
520.216000
11
346.173430
21
518.865500
0
LINE
8
Calque 1
10
346.173430
20
518.865500
11
347.741910
21
517.211900
0
LINE
8
Calque 1
10
347.741910
20
517.211900
11
350.604190
21
514.461400
0
LINE
8
Calque 1
10
350.604190
20
514.461400
11
352.482806
21
512.732913
0
LINE
8
Calque 1
10
352.482806
20
512.732913
11
353.433950
21
512.014000
0
LINE
8
Calque 1
10
353.433950
20
512.014000
11
353.594289
21
511.969000
0
LINE
8
Calque 1
10
353.594289
20
511.969000
11
353.571620
21
511.861000
0
LINE
8
Calque 1
10
353.571620
20
511.861000
11
353.835689
21
511.433916
0
LINE
8
Calque 1
10
353.835689
20
511.433916
11
354.694636
21
510.525800
0
LINE
8
Calque 1
10
354.694636
20
510.525800
11
357.275150
21
508.182300
0
LINE
8
Calque 1
10
357.275150
20
508.182300
11
357.835328
21
507.586100
0
LINE
8
Calque 1
10
357.835328
20
507.586100
11
357.960340
21
507.161200
0
LINE
8
Calque 1
10
357.960340
20
507.161200
11
357.901415
21
507.003688
0
LINE
8
Calque 1
10
357.901415
20
507.003688
11
358.006140
21
507.055500
0
LINE
8
Calque 1
10
358.006140
20
507.055500
11
358.346808
21
507.023628
0
LINE
8
Calque 1
10
358.346808
20
507.023628
11
358.832968
21
506.677825
0
LINE
8
Calque 1
10
358.832968
20
506.677825
11
359.268491
21
506.194509
0
LINE
8
Calque 1
10
359.268491
20
506.194509
11
359.457250
21
505.750100
0
LINE
8
Calque 1
10
359.457250
20
505.750100
11
359.524284
21
505.502413
0
LINE
8
Calque 1
10
359.524284
20
505.502413
11
359.685450
21
505.399400
0
LINE
8
Calque 1
10
359.685450
20
505.399400
11
360.875014
21
504.630350
0
LINE
8
Calque 1
10
360.875014
20
504.630350
11
361.485187
21
504.067794
0
LINE
8
Calque 1
10
361.485187
20
504.067794
11
361.679430
21
503.741000
0
LINE
8
Calque 1
10
361.679430
20
503.741000
11
361.801698
21
503.509163
0
LINE
8
Calque 1
10
361.801698
20
503.509163
11
362.295290
21
503.151100
0
LINE
8
Calque 1
10
362.295290
20
503.151100
11
363.011981
21
502.570200
0
LINE
8
Calque 1
10
363.011981
20
502.570200
11
363.670630
21
501.802400
0
LINE
8
Calque 1
10
363.670630
20
501.802400
11
364.471930
21
500.901500
0
LINE
8
Calque 1
10
364.471930
20
500.901500
11
365.694600
21
499.823300
0
LINE
8
Calque 1
10
365.694600
20
499.823300
11
367.659330
21
497.852000
0
LINE
8
Calque 1
10
367.659330
20
497.852000
11
373.393570
21
492.249400
0
LINE
8
Calque 1
10
373.393570
20
492.249400
11
379.946570
21
485.891100
0
LINE
8
Calque 1
10
379.946570
20
485.891100
11
381.694270
21
484.112900
0
LINE
8
Calque 1
10
381.694270
20
484.112900
11
384.302420
21
481.590900
0
LINE
8
Calque 1
10
384.302420
20
481.590900
11
384.783590
21
481.057700
0
LINE
8
Calque 1
10
384.783590
20
481.057700
11
386.347400
21
479.404100
0
LINE
8
Calque 1
10
386.347400
20
479.404100
11
389.698744
21
476.130713
0
LINE
8
Calque 1
10
389.698744
20
476.130713
11
390.413500
21
475.216000
0
LINE
8
Calque 1
10
390.413500
20
475.216000
11
390.510649
21
475.036988
0
LINE
8
Calque 1
10
390.510649
20
475.036988
11
390.744230
21
474.948800
0
LINE
8
Calque 1
10
390.744230
20
474.948800
11
391.366413
21
474.479625
0
LINE
8
Calque 1
10
391.366413
20
474.479625
11
392.397870
21
473.384800
0
LINE
8
Calque 1
10
392.397870
20
473.384800
11
393.927310
21
471.820800
0
LINE
8
Calque 1
10
393.927310
20
471.820800
11
394.946900
21
470.871300
0
LINE
8
Calque 1
10
394.946900
20
470.871300
11
395.632111
21
470.217225
0
LINE
8
Calque 1
10
395.632111
20
470.217225
11
396.137750
21
469.945200
0
LINE
8
Calque 1
10
396.137750
20
469.945200
11
396.455269
21
469.809213
0
LINE
8
Calque 1
10
396.455269
20
469.809213
11
396.688180
21
469.482200
0
LINE
8
Calque 1
10
396.688180
20
469.482200
11
397.108789
21
468.814400
0
LINE
8
Calque 1
10
397.108789
20
468.814400
11
397.805255
21
468.022700
0
LINE
8
Calque 1
10
397.805255
20
468.022700
11
398.502231
21
467.388800
0
LINE
8
Calque 1
10
398.502231
20
467.388800
11
398.924370
21
467.194400
0
LINE
8
Calque 1
10
398.924370
20
467.194400
11
399.154816
21
467.096013
0
LINE
8
Calque 1
10
399.154816
20
467.096013
11
399.398020
21
466.667700
0
LINE
8
Calque 1
10
399.398020
20
466.667700
11
399.793391
21
466.060825
0
LINE
8
Calque 1
10
399.793391
20
466.060825
11
400.389710
21
465.533600
0
LINE
8
Calque 1
10
400.389710
20
465.533600
11
401.331550
21
464.742400
0
LINE
8
Calque 1
10
401.331550
20
464.742400
11
402.392873
21
463.568963
0
LINE
8
Calque 1
10
402.392873
20
463.568963
11
403.367570
21
462.801500
0
LINE
8
Calque 1
10
403.367570
20
462.801500
11
403.726290
21
462.245700
0
LINE
8
Calque 1
10
403.726290
20
462.245700
11
403.911846
21
461.904225
0
LINE
8
Calque 1
10
403.911846
20
461.904225
11
404.154020
21
461.864400
0
LINE
8
Calque 1
10
404.154020
20
461.864400
11
404.353460
21
461.905200
0
LINE
8
Calque 1
10
404.353460
20
461.905200
11
404.436410
21
461.758800
0
LINE
8
Calque 1
10
404.436410
20
461.758800
11
405.023325
21
460.924583
0
LINE
8
Calque 1
10
405.023325
20
460.924583
11
406.354546
21
459.578463
0
LINE
8
Calque 1
10
406.354546
20
459.578463
11
407.785790
21
458.326411
0
LINE
8
Calque 1
10
407.785790
20
458.326411
11
408.672770
21
457.774400
0
LINE
8
Calque 1
10
408.672770
20
457.774400
11
408.857498
21
457.683725
0
LINE
8
Calque 1
10
408.857498
20
457.683725
11
408.934330
21
457.465700
0
LINE
8
Calque 1
10
408.934330
20
457.465700
11
408.978121
21
457.291463
0
LINE
8
Calque 1
10
408.978121
20
457.291463
11
409.083360
21
457.306000
0
LINE
8
Calque 1
10
409.083360
20
457.306000
11
409.943260
21
457.262000
0
LINE
8
Calque 1
10
409.943260
20
457.262000
11
410.552355
21
457.160530
0
LINE
8
Calque 1
10
410.552355
20
457.160530
11
411.150889
21
457.215838
0
LINE
8
Calque 1
10
411.150889
20
457.215838
11
412.638500
21
457.869800
0
LINE
8
Calque 1
10
412.638500
20
457.869800
11
412.638700
21
457.869600
0
LINE
8
Calque 1
10
388.032500
20
501.033200
11
365.676400
21
523.390400
0
LINE
8
Calque 1
10
365.676400
20
523.390400
11
364.220000
21
523.390000
0
LINE
8
Calque 1
10
364.220000
20
523.390000
11
363.266352
21
523.479071
0
LINE
8
Calque 1
10
363.266352
20
523.479071
11
362.393856
21
523.737522
0
LINE
8
Calque 1
10
362.393856
20
523.737522
11
361.615364
21
524.152212
0
LINE
8
Calque 1
10
361.615364
20
524.152212
11
360.943729
21
524.710000
0
LINE
8
Calque 1
10
360.943729
20
524.710000
11
360.391802
21
525.397744
0
LINE
8
Calque 1
10
360.391802
20
525.397744
11
359.972437
21
526.202303
0
LINE
8
Calque 1
10
359.972437
20
526.202303
11
359.698486
21
527.110536
0
LINE
8
Calque 1
10
359.698486
20
527.110536
11
359.582800
21
528.109300
0
LINE
8
Calque 1
10
359.582800
20
528.109300
11
359.539000
21
529.522300
0
LINE
8
Calque 1
10
359.539000
20
529.522300
11
348.897800
21
540.165900
0
LINE
8
Calque 1
10
348.897800
20
540.165900
11
338.256600
21
550.809500
0
LINE
8
Calque 1
10
338.256600
20
550.809500
11
335.826070
21
551.275300
0
LINE
8
Calque 1
10
335.826070
20
551.275300
11
333.137703
21
551.917812
0
LINE
8
Calque 1
10
333.137703
20
551.917812
11
330.125943
21
552.846150
0
LINE
8
Calque 1
10
330.125943
20
552.846150
11
327.107646
21
553.953362
0
LINE
8
Calque 1
10
327.107646
20
553.953362
11
324.399670
21
555.132500
0
LINE
8
Calque 1
10
324.399670
20
555.132500
11
320.783810
21
557.087194
0
LINE
8
Calque 1
10
320.783810
20
557.087194
11
317.473326
21
559.301292
0
LINE
8
Calque 1
10
317.473326
20
559.301292
11
314.508902
21
561.729073
0
LINE
8
Calque 1
10
314.508902
20
561.729073
11
311.931220
21
564.324813
0
LINE
8
Calque 1
10
311.931220
20
564.324813
11
309.780963
21
567.042788
0
LINE
8
Calque 1
10
309.780963
20
567.042788
11
308.098814
21
569.837277
0
LINE
8
Calque 1
10
308.098814
20
569.837277
11
306.925455
21
572.662555
0
LINE
8
Calque 1
10
306.925455
20
572.662555
11
306.301570
21
575.472900
0
LINE
8
Calque 1
10
306.301570
20
575.472900
11
306.217270
21
577.698200
0
LINE
8
Calque 1
10
306.217270
20
577.698200
11
306.485753
21
578.125212
0
LINE
8
Calque 1
10
306.485753
20
578.125212
11
307.031501
21
578.518175
0
LINE
8
Calque 1
10
307.031501
20
578.518175
11
308.762330
21
579.096200
0
LINE
8
Calque 1
10
308.762330
20
579.096200
11
309.775430
21
579.286300
0
LINE
8
Calque 1
10
309.775430
20
579.286300
11
296.848430
21
592.215300
0
LINE
8
Calque 1
10
296.848430
20
592.215300
11
283.921430
21
605.144300
0
LINE
8
Calque 1
10
283.921430
20
605.144300
11
326.462130
21
647.808900
0
LINE
8
Calque 1
10
326.462130
20
647.808900
11
370.116930
21
691.589500
0
LINE
8
Calque 1
10
370.116930
20
691.589500
11
390.876330
21
712.222800
0
LINE
8
Calque 1
10
390.876330
20
712.222800
11
410.521630
21
731.740000
0
LINE
8
Calque 1
10
410.521630
20
731.740000
11
430.166930
21
712.222800
0
LINE
8
Calque 1
10
430.166930
20
712.222800
11
450.926330
21
691.589500
0
LINE
8
Calque 1
10
450.926330
20
691.589500
11
494.581130
21
647.808800
0
LINE
8
Calque 1
10
494.581130
20
647.808800
11
537.121830
21
605.144300
0
LINE
8
Calque 1
10
537.121830
20
605.144300
11
524.194830
21
592.215200
0
LINE
8
Calque 1
10
524.194830
20
592.215200
11
511.267830
21
579.286200
0
LINE
8
Calque 1
10
511.267830
20
579.286200
11
512.280930
21
579.096100
0
LINE
8
Calque 1
10
512.280930
20
579.096100
11
514.011759
21
578.518075
0
LINE
8
Calque 1
10
514.011759
20
578.518075
11
514.557507
21
578.125113
0
LINE
8
Calque 1
10
514.557507
20
578.125113
11
514.825990
21
577.698100
0
LINE
8
Calque 1
10
514.825990
20
577.698100
11
514.741690
21
575.472800
0
LINE
8
Calque 1
10
514.741690
20
575.472800
11
514.117792
21
572.662455
0
LINE
8
Calque 1
10
514.117792
20
572.662455
11
512.944425
21
569.837177
0
LINE
8
Calque 1
10
512.944425
20
569.837177
11
511.262272
21
567.042688
0
LINE
8
Calque 1
10
511.262272
20
567.042688
11
509.112014
21
564.324713
0
LINE
8
Calque 1
10
509.112014
20
564.324713
11
506.534334
21
561.728973
0
LINE
8
Calque 1
10
506.534334
20
561.728973
11
503.569915
21
559.301192
0
LINE
8
Calque 1
10
503.569915
20
559.301192
11
500.259440
21
557.087094
0
LINE
8
Calque 1
10
500.259440
20
557.087094
11
496.643590
21
555.132400
0
LINE
8
Calque 1
10
496.643590
20
555.132400
11
493.935631
21
553.953262
0
LINE
8
Calque 1
10
493.935631
20
553.953262
11
490.917340
21
552.846050
0
LINE
8
Calque 1
10
490.917340
20
552.846050
11
487.905574
21
551.917712
0
LINE
8
Calque 1
10
487.905574
20
551.917712
11
485.217190
21
551.275200
0
LINE
8
Calque 1
10
485.217190
20
551.275200
11
482.786660
21
550.809500
0
LINE
8
Calque 1
10
482.786660
20
550.809500
11
472.145460
21
540.165800
0
LINE
8
Calque 1
10
472.145460
20
540.165800
11
461.504260
21
529.522200
0
LINE
8
Calque 1
10
461.504260
20
529.522200
11
461.460360
21
528.109200
0
LINE
8
Calque 1
10
461.460360
20
528.109200
11
461.344660
21
527.110538
0
LINE
8
Calque 1
10
461.344660
20
527.110538
11
461.070702
21
526.202498
0
LINE
8
Calque 1
10
461.070702
20
526.202498
11
460.651336
21
525.398163
0
LINE
8
Calque 1
10
460.651336
20
525.398163
11
460.099413
21
524.710613
0
LINE
8
Calque 1
10
460.099413
20
524.710613
11
459.427783
21
524.152929
0
LINE
8
Calque 1
10
459.427783
20
524.152929
11
458.649297
21
523.738195
0
LINE
8
Calque 1
10
458.649297
20
523.738195
11
457.776806
21
523.479492
0
LINE
8
Calque 1
10
457.776806
20
523.479492
11
456.823160
21
523.389900
0
LINE
8
Calque 1
10
456.823160
20
523.389900
11
455.367360
21
523.388900
0
LINE
8
Calque 1
10
455.367360
20
523.388900
11
433.011260
21
501.031700
0
LINE
8
Calque 1
10
433.011260
20
501.031700
11
410.521660
21
478.674400
0
LINE
8
Calque 1
10
410.521660
20
478.674400
11
388.032060
21
501.031700
0
LINE
8
Calque 1
10
388.032060
20
501.031700
11
388.032500
21
501.033200
0
LINE
8
Calque 1
10
412.184200
20
503.652600
11
415.601066
21
506.736737
0
LINE
8
Calque 1
10
415.601066
20
506.736737
11
422.691500
21
513.706700
0
LINE
8
Calque 1
10
422.691500
20
513.706700
11
432.347440
21
523.390400
0
LINE
8
Calque 1
10
432.347440
20
523.390400
11
430.754000
21
523.390000
0
LINE
8
Calque 1
10
430.754000
20
523.390000
11
429.705390
21
523.435283
0
LINE
8
Calque 1
10
429.705390
20
523.435283
11
428.918691
21
523.649662
0
LINE
8
Calque 1
10
428.918691
20
523.649662
11
428.135429
21
524.150936
0
LINE
8
Calque 1
10
428.135429
20
524.150936
11
427.097130
21
525.056900
0
LINE
8
Calque 1
10
427.097130
20
525.056900
11
424.915320
21
526.608000
0
LINE
8
Calque 1
10
424.915320
20
526.608000
11
423.753180
21
527.224500
0
LINE
8
Calque 1
10
423.753180
20
527.224500
11
417.137590
21
520.612900
0
LINE
8
Calque 1
10
417.137590
20
520.612900
11
410.522010
21
514.001300
0
LINE
8
Calque 1
10
410.522010
20
514.001300
11
403.923960
21
520.595400
0
LINE
8
Calque 1
10
403.923960
20
520.595400
11
397.325910
21
527.189500
0
LINE
8
Calque 1
10
397.325910
20
527.189500
11
396.294600
21
526.724400
0
LINE
8
Calque 1
10
396.294600
20
526.724400
11
395.223125
21
526.082150
0
LINE
8
Calque 1
10
395.223125
20
526.082150
11
394.095250
21
525.190900
0
LINE
8
Calque 1
10
394.095250
20
525.190900
11
392.966925
21
524.200886
0
LINE
8
Calque 1
10
392.966925
20
524.200886
11
392.146439
21
523.660563
0
LINE
8
Calque 1
10
392.146439
20
523.660563
11
391.349050
21
523.435183
0
LINE
8
Calque 1
10
391.349050
20
523.435183
11
390.290020
21
523.390000
0
LINE
8
Calque 1
10
390.290020
20
523.390000
11
388.696000
21
523.390000
0
LINE
8
Calque 1
10
388.696000
20
523.390000
11
398.351940
21
513.706700
0
LINE
8
Calque 1
10
398.351940
20
513.706700
11
405.404600
21
506.761950
0
LINE
8
Calque 1
10
405.404600
20
506.761950
11
408.801640
21
503.662900
0
LINE
8
Calque 1
10
408.801640
20
503.662900
11
409.616465
21
503.398227
0
LINE
8
Calque 1
10
409.616465
20
503.398227
11
410.481404
21
503.308087
0
LINE
8
Calque 1
10
410.481404
20
503.308087
11
411.351943
21
503.392605
0
LINE
8
Calque 1
10
411.351943
20
503.392605
11
412.183570
21
503.651900
0
LINE
8
Calque 1
10
412.183570
20
503.651900
11
412.184200
21
503.652600
0
LINE
8
Calque 1
10
392.337900
20
526.531900
11
393.842168
21
527.726137
0
LINE
8
Calque 1
10
393.842168
20
527.726137
11
395.577662
21
528.766898
0
LINE
8
Calque 1
10
395.577662
20
528.766898
11
397.538592
21
529.652539
0
LINE
8
Calque 1
10
397.538592
20
529.652539
11
399.719168
21
530.381413
0
LINE
8
Calque 1
10
399.719168
20
530.381413
11
402.113597
21
530.951872
0
LINE
8
Calque 1
10
402.113597
20
530.951872
11
404.716089
21
531.362270
0
LINE
8
Calque 1
10
404.716089
20
531.362270
11
407.520854
21
531.610962
0
LINE
8
Calque 1
10
407.520854
20
531.610962
11
410.522100
21
531.696300
0
LINE
8
Calque 1
10
410.522100
20
531.696300
11
413.408422
21
531.615468
0
LINE
8
Calque 1
10
413.408422
20
531.615468
11
416.149303
21
531.368920
0
LINE
8
Calque 1
10
416.149303
20
531.368920
11
418.726382
21
530.961828
0
LINE
8
Calque 1
10
418.726382
20
530.961828
11
421.121297
21
530.399362
0
LINE
8
Calque 1
10
421.121297
20
530.399362
11
423.315688
21
529.686696
0
LINE
8
Calque 1
10
423.315688
20
529.686696
11
425.291193
21
528.828998
0
LINE
8
Calque 1
10
425.291193
20
528.828998
11
427.029451
21
527.831443
0
LINE
8
Calque 1
10
427.029451
20
527.831443
11
428.512100
21
526.699200
0
LINE
8
Calque 1
10
428.512100
20
526.699200
11
429.854380
21
525.507100
0
LINE
8
Calque 1
10
429.854380
20
525.507100
11
443.756000
21
525.507000
0
LINE
8
Calque 1
10
443.756000
20
525.507000
11
457.658000
21
525.507000
0
LINE
8
Calque 1
10
457.658000
20
525.507000
11
458.431400
21
526.280400
0
LINE
8
Calque 1
10
458.431400
20
526.280400
11
458.872917
21
526.808833
0
LINE
8
Calque 1
10
458.872917
20
526.808833
11
459.141409
21
527.357037
0
LINE
8
Calque 1
10
459.141409
20
527.357037
11
459.250666
21
527.967323
0
LINE
8
Calque 1
10
459.250666
20
527.967323
11
459.214480
21
528.682000
0
LINE
8
Calque 1
10
459.214480
20
528.682000
11
458.880740
21
529.334600
0
LINE
8
Calque 1
10
458.880740
20
529.334600
11
458.115829
21
530.125050
0
LINE
8
Calque 1
10
458.115829
20
530.125050
11
457.056414
21
530.933575
0
LINE
8
Calque 1
10
457.056414
20
530.933575
11
455.839160
21
531.640400
0
LINE
8
Calque 1
10
455.839160
20
531.640400
11
454.084732
21
532.312387
0
LINE
8
Calque 1
10
454.084732
20
532.312387
11
452.079730
21
532.664200
0
LINE
8
Calque 1
10
452.079730
20
532.664200
11
450.057410
21
532.953826
0
LINE
8
Calque 1
10
450.057410
20
532.953826
11
448.055616
21
533.412094
0
LINE
8
Calque 1
10
448.055616
20
533.412094
11
446.077788
21
534.037452
0
LINE
8
Calque 1
10
446.077788
20
534.037452
11
444.127370
21
534.828350
0
LINE
8
Calque 1
10
444.127370
20
534.828350
11
442.207803
21
535.783235
0
LINE
8
Calque 1
10
442.207803
20
535.783235
11
440.322529
21
536.900556
0
LINE
8
Calque 1
10
440.322529
20
536.900556
11
438.474991
21
538.178762
0
LINE
8
Calque 1
10
438.474991
20
538.178762
11
436.668630
21
539.616300
0
LINE
8
Calque 1
10
436.668630
20
539.616300
11
434.902220
21
541.117400
0
LINE
8
Calque 1
10
434.902220
20
541.117400
11
410.522000
21
541.118000
0
LINE
8
Calque 1
10
410.522000
20
541.118000
11
386.141000
21
541.118000
0
LINE
8
Calque 1
10
386.141000
20
541.118000
11
384.374590
21
539.616900
0
LINE
8
Calque 1
10
384.374590
20
539.616900
11
382.568228
21
538.179362
0
LINE
8
Calque 1
10
382.568228
20
538.179362
11
380.720686
21
536.901156
0
LINE
8
Calque 1
10
380.720686
20
536.901156
11
378.835409
21
535.783835
0
LINE
8
Calque 1
10
378.835409
20
535.783835
11
376.915839
21
534.828950
0
LINE
8
Calque 1
10
376.915839
20
534.828950
11
374.965419
21
534.038052
0
LINE
8
Calque 1
10
374.965419
20
534.038052
11
372.987592
21
533.412694
0
LINE
8
Calque 1
10
372.987592
20
533.412694
11
370.985801
21
532.954426
0
LINE
8
Calque 1
10
370.985801
20
532.954426
11
368.963490
21
532.664800
0
LINE
8
Calque 1
10
368.963490
20
532.664800
11
366.958488
21
532.312988
0
LINE
8
Calque 1
10
366.958488
20
532.312988
11
365.204060
21
531.641000
0
LINE
8
Calque 1
10
365.204060
20
531.641000
11
363.986811
21
530.934175
0
LINE
8
Calque 1
10
363.986811
20
530.934175
11
362.927403
21
530.125650
0
LINE
8
Calque 1
10
362.927403
20
530.125650
11
362.162493
21
529.335200
0
LINE
8
Calque 1
10
362.162493
20
529.335200
11
361.828740
21
528.682600
0
LINE
8
Calque 1
10
361.828740
20
528.682600
11
361.792553
21
527.967923
0
LINE
8
Calque 1
10
361.792553
20
527.967923
11
361.901808
21
527.357638
0
LINE
8
Calque 1
10
361.901808
20
527.357638
11
362.170298
21
526.809433
0
LINE
8
Calque 1
10
362.170298
20
526.809433
11
362.611820
21
526.281000
0
LINE
8
Calque 1
10
362.611820
20
526.281000
11
363.385220
21
525.507600
0
LINE
8
Calque 1
10
363.385220
20
525.507600
11
377.302000
21
525.507000
0
LINE
8
Calque 1
10
377.302000
20
525.507000
11
391.219000
21
525.507000
0
LINE
8
Calque 1
10
391.219000
20
525.507000
11
392.337900
21
526.531900
0
LINE
8
Calque 1
10
377.713800
20
537.703800
11
381.340430
21
540.015200
0
LINE
8
Calque 1
10
381.340430
20
540.015200
11
382.982680
21
541.249800
0
LINE
8
Calque 1
10
382.982680
20
541.249800
11
375.699400
21
548.546200
0
LINE
8
Calque 1
10
375.699400
20
548.546200
11
368.416130
21
555.842700
0
LINE
8
Calque 1
10
368.416130
20
555.842700
11
366.384230
21
554.874500
0
LINE
8
Calque 1
10
366.384230
20
554.874500
11
362.235670
21
553.154500
0
LINE
8
Calque 1
10
362.235670
20
553.154500
11
359.998580
21
552.306100
0
LINE
8
Calque 1
10
359.998580
20
552.306100
11
367.664227
21
544.423675
0
LINE
8
Calque 1
10
367.664227
20
544.423675
11
375.595480
21
536.623300
0
LINE
8
Calque 1
10
375.595480
20
536.623300
11
377.713830
21
537.703800
0
LINE
8
Calque 1
10
377.713830
20
537.703800
11
377.713800
21
537.703800
0
LINE
8
Calque 1
10
453.374400
20
544.414600
11
461.045630
21
552.306100
0
LINE
8
Calque 1
10
461.045630
20
552.306100
11
458.808540
21
553.154500
0
LINE
8
Calque 1
10
458.808540
20
553.154500
11
454.659980
21
554.874500
0
LINE
8
Calque 1
10
454.659980
20
554.874500
11
452.628080
21
555.842700
0
LINE
8
Calque 1
10
452.628080
20
555.842700
11
445.344810
21
548.546200
0
LINE
8
Calque 1
10
445.344810
20
548.546200
11
438.061530
21
541.249800
0
LINE
8
Calque 1
10
438.061530
20
541.249800
11
439.703780
21
540.015200
0
LINE
8
Calque 1
10
439.703780
20
540.015200
11
442.953002
21
537.926287
0
LINE
8
Calque 1
10
442.953002
20
537.926287
11
445.448760
21
536.623300
0
LINE
8
Calque 1
10
445.448760
20
536.623300
11
453.374400
21
544.414600
0
LINE
8
Calque 1
10
453.374400
20
544.414600
11
453.374400
21
544.414600
0
LINE
8
Calque 1
10
428.354100
20
543.919700
11
428.292178
21
544.541841
0
LINE
8
Calque 1
10
428.292178
20
544.541841
11
427.620412
21
545.460475
0
LINE
8
Calque 1
10
427.620412
20
545.460475
11
426.209563
21
546.816772
0
LINE
8
Calque 1
10
426.209563
20
546.816772
11
423.930390
21
548.751900
0
LINE
8
Calque 1
10
423.930390
20
548.751900
11
421.131662
21
551.118670
0
LINE
8
Calque 1
10
421.131662
20
551.118670
11
419.467076
21
552.724012
0
LINE
8
Calque 1
10
419.467076
20
552.724012
11
418.666455
21
553.869398
0
LINE
8
Calque 1
10
418.666455
20
553.869398
11
418.459620
21
554.856300
0
LINE
8
Calque 1
10
418.459620
20
554.856300
11
418.564095
21
555.677709
0
LINE
8
Calque 1
10
418.564095
20
555.677709
11
419.047619
21
556.577400
0
LINE
8
Calque 1
10
419.047619
20
556.577400
11
422.172410
21
560.035200
0
LINE
8
Calque 1
10
422.172410
20
560.035200
11
424.692772
21
562.849912
0
LINE
8
Calque 1
10
424.692772
20
562.849912
11
425.263913
21
563.762508
0
LINE
8
Calque 1
10
425.263913
20
563.762508
11
425.596900
21
564.642900
0
LINE
8
Calque 1
10
425.596900
20
564.642900
11
425.687400
21
565.647628
0
LINE
8
Calque 1
10
425.687400
20
565.647628
11
425.387679
21
566.840100
0
LINE
8
Calque 1
10
425.387679
20
566.840100
11
424.655828
21
568.329272
0
LINE
8
Calque 1
10
424.655828
20
568.329272
11
423.449940
21
570.224100
0
LINE
8
Calque 1
10
423.449940
20
570.224100
11
422.115185
21
572.283716
0
LINE
8
Calque 1
10
422.115185
20
572.283716
11
421.122899
21
574.085725
0
LINE
8
Calque 1
10
421.122899
20
574.085725
11
420.381771
21
575.816222
0
LINE
8
Calque 1
10
420.381771
20
575.816222
11
419.800490
21
577.661300
0
LINE
8
Calque 1
10
419.800490
20
577.661300
11
419.221494
21
580.696916
0
LINE
8
Calque 1
10
419.221494
20
580.696916
11
418.879796
21
585.451550
0
LINE
8
Calque 1
10
418.879796
20
585.451550
11
418.719406
21
593.334434
0
LINE
8
Calque 1
10
418.719406
20
593.334434
11
418.684330
21
605.754800
0
LINE
8
Calque 1
10
418.684330
20
605.754800
11
418.695630
21
625.016100
0
LINE
8
Calque 1
10
418.695630
20
625.016100
11
418.061000
21
626.209700
0
LINE
8
Calque 1
10
418.061000
20
626.209700
11
417.602127
21
627.309075
0
LINE
8
Calque 1
10
417.602127
20
627.309075
11
417.695870
21
628.112200
0
LINE
8
Calque 1
10
417.695870
20
628.112200
11
418.399409
21
629.482825
0
LINE
8
Calque 1
10
418.399409
20
629.482825
11
419.407406
21
630.798550
0
LINE
8
Calque 1
10
419.407406
20
630.798550
11
420.617328
21
631.945525
0
LINE
8
Calque 1
10
420.617328
20
631.945525
11
421.926640
21
632.809900
0
LINE
8
Calque 1
10
421.926640
20
632.809900
11
423.055449
21
633.158170
0
LINE
8
Calque 1
10
423.055449
20
633.158170
11
424.347527
21
633.137819
0
LINE
8
Calque 1
10
424.347527
20
633.137819
11
425.777917
21
632.762671
0
LINE
8
Calque 1
10
425.777917
20
632.762671
11
427.321661
21
632.046550
0
LINE
8
Calque 1
10
427.321661
20
632.046550
11
428.953803
21
631.003279
0
LINE
8
Calque 1
10
428.953803
20
631.003279
11
430.649385
21
629.646681
0
LINE
8
Calque 1
10
430.649385
20
629.646681
11
432.383450
21
627.990580
0
LINE
8
Calque 1
10
432.383450
20
627.990580
11
434.131040
21
626.048800
0
LINE
8
Calque 1
10
434.131040
20
626.048800
11
435.865819
21
624.135425
0
LINE
8
Calque 1
10
435.865819
20
624.135425
11
437.073730
21
623.064900
0
LINE
8
Calque 1
10
437.073730
20
623.064900
11
437.806650
21
622.811016
0
LINE
8
Calque 1
10
437.806650
20
622.811016
11
439.387274
21
622.679025
0
LINE
8
Calque 1
10
439.387274
20
622.679025
11
448.270330
21
622.668000
0
LINE
8
Calque 1
10
448.270330
20
622.668000
11
458.634230
21
622.742000
0
LINE
8
Calque 1
10
458.634230
20
622.742000
11
459.343840
21
623.403400
0
LINE
8
Calque 1
10
459.343840
20
623.403400
11
460.195734
21
624.570125
0
LINE
8
Calque 1
10
460.195734
20
624.570125
11
461.247420
21
626.446200
0
LINE
8
Calque 1
10
461.247420
20
626.446200
11
463.051450
21
629.622672
0
LINE
8
Calque 1
10
463.051450
20
629.622672
11
464.966181
21
632.138000
0
LINE
8
Calque 1
10
464.966181
20
632.138000
11
467.057644
21
634.065403
0
LINE
8
Calque 1
10
467.057644
20
634.065403
11
469.391870
21
635.478100
0
LINE
8
Calque 1
10
469.391870
20
635.478100
11
470.951422
21
636.120287
0
LINE
8
Calque 1
10
470.951422
20
636.120287
11
472.527157
21
636.570825
0
LINE
8
Calque 1
10
472.527157
20
636.570825
11
474.114600
21
636.829795
0
LINE
8
Calque 1
10
474.114600
20
636.829795
11
475.709274
21
636.897275
0
LINE
8
Calque 1
10
475.709274
20
636.897275
11
477.306703
21
636.773346
0
LINE
8
Calque 1
10
477.306703
20
636.773346
11
478.902413
21
636.458087
0
LINE
8
Calque 1
10
478.902413
20
636.458087
11
480.491927
21
635.951579
0
LINE
8
Calque 1
10
480.491927
20
635.951579
11
482.070770
21
635.253900
0
LINE
8
Calque 1
10
482.070770
20
635.253900
11
484.374125
21
633.851511
0
LINE
8
Calque 1
10
484.374125
20
633.851511
11
486.144446
21
632.176787
0
LINE
8
Calque 1
10
486.144446
20
632.176787
11
487.512897
21
630.071770
0
LINE
8
Calque 1
10
487.512897
20
630.071770
11
488.610640
21
627.378500
0
LINE
8
Calque 1
10
488.610640
20
627.378500
11
489.516669
21
625.100900
0
LINE
8
Calque 1
10
489.516669
20
625.100900
11
490.011660
21
624.352981
0
LINE
8
Calque 1
10
490.011660
20
624.352981
11
490.663050
21
623.631200
0
LINE
8
Calque 1
10
490.663050
20
623.631200
11
491.598568
21
622.839421
0
LINE
8
Calque 1
10
491.598568
20
622.839421
11
492.624990
21
622.238136
0
LINE
8
Calque 1
10
492.624990
20
622.238136
11
493.710708
21
621.830499
0
LINE
8
Calque 1
10
493.710708
20
621.830499
11
494.824112
21
621.619662
0
LINE
8
Calque 1
10
494.824112
20
621.619662
11
495.933593
21
621.608781
0
LINE
8
Calque 1
10
495.933593
20
621.608781
11
497.007541
21
621.801008
0
LINE
8
Calque 1
10
497.007541
20
621.801008
11
498.014346
21
622.199496
0
LINE
8
Calque 1
10
498.014346
20
622.199496
11
498.922400
21
622.807400
0
LINE
8
Calque 1
10
498.922400
20
622.807400
11
499.730416
21
623.676575
0
LINE
8
Calque 1
10
499.730416
20
623.676575
11
500.294576
21
624.731225
0
LINE
8
Calque 1
10
500.294576
20
624.731225
11
500.625241
21
625.998237
0
LINE
8
Calque 1
10
500.625241
20
625.998237
11
500.732770
21
627.504500
0
LINE
8
Calque 1
10
500.732770
20
627.504500
11
500.513945
21
630.017267
0
LINE
8
Calque 1
10
500.513945
20
630.017267
11
499.858941
21
632.357487
0
LINE
8
Calque 1
10
499.858941
20
632.357487
11
498.767717
21
634.525414
0
LINE
8
Calque 1
10
498.767717
20
634.525414
11
497.240230
21
636.521300
0
LINE
8
Calque 1
10
497.240230
20
636.521300
11
494.923279
21
638.650755
0
LINE
8
Calque 1
10
494.923279
20
638.650755
11
492.155669
21
640.483912
0
LINE
8
Calque 1
10
492.155669
20
640.483912
11
488.999339
21
641.985889
0
LINE
8
Calque 1
10
488.999339
20
641.985889
11
485.516230
21
643.121800
0
LINE
8
Calque 1
10
485.516230
20
643.121800
11
482.185750
21
644.075800
0
LINE
8
Calque 1
10
482.185750
20
644.075800
11
481.319297
21
644.800159
0
LINE
8
Calque 1
10
481.319297
20
644.800159
11
480.107420
21
646.306975
0
LINE
8
Calque 1
10
480.107420
20
646.306975
11
478.746878
21
648.326528
0
LINE
8
Calque 1
10
478.746878
20
648.326528
11
477.434430
21
650.589100
0
LINE
8
Calque 1
10
477.434430
20
650.589100
11
476.138810
21
652.765300
0
LINE
8
Calque 1
10
476.138810
20
652.765300
11
475.113240
21
650.582700
0
LINE
8
Calque 1
10
475.113240
20
650.582700
11
474.164421
21
648.531127
0
LINE
8
Calque 1
10
474.164421
20
648.531127
11
473.078640
21
646.570762
0
LINE
8
Calque 1
10
473.078640
20
646.570762
11
472.039059
21
645.005442
0
LINE
8
Calque 1
10
472.039059
20
645.005442
11
471.228840
21
644.139000
0
LINE
8
Calque 1
10
471.228840
20
644.139000
11
468.711400
21
643.242300
0
LINE
8
Calque 1
10
468.711400
20
643.242300
11
465.821892
21
642.338712
0
LINE
8
Calque 1
10
465.821892
20
642.338712
11
463.199689
21
641.143750
0
LINE
8
Calque 1
10
463.199689
20
641.143750
11
460.634416
21
639.544087
0
LINE
8
Calque 1
10
460.634416
20
639.544087
11
457.915700
21
637.426400
0
LINE
8
Calque 1
10
457.915700
20
637.426400
11
455.606269
21
635.569684
0
LINE
8
Calque 1
10
455.606269
20
635.569684
11
453.842847
21
634.581975
0
LINE
8
Calque 1
10
453.842847
20
634.581975
11
451.891682
21
634.190928
0
LINE
8
Calque 1
10
451.891682
20
634.190928
11
449.019020
21
634.124200
0
LINE
8
Calque 1
10
449.019020
20
634.124200
11
445.842663
21
634.213003
0
LINE
8
Calque 1
10
445.842663
20
634.213003
11
443.663505
21
634.561325
0
LINE
8
Calque 1
10
443.663505
20
634.561325
11
441.974914
21
635.314534
0
LINE
8
Calque 1
10
441.974914
20
635.314534
11
440.270260
21
636.618000
0
LINE
8
Calque 1
10
440.270260
20
636.618000
11
436.110266
21
640.160092
0
LINE
8
Calque 1
10
436.110266
20
640.160092
11
433.312522
21
642.317037
0
LINE
8
Calque 1
10
433.312522
20
642.317037
11
431.037998
21
643.669289
0
LINE
8
Calque 1
10
431.037998
20
643.669289
11
428.447660
21
644.797300
0
LINE
8
Calque 1
10
428.447660
20
644.797300
11
427.964700
21
645.114078
0
LINE
8
Calque 1
10
427.964700
20
645.114078
11
427.741494
21
645.534975
0
LINE
8
Calque 1
10
427.741494
20
645.534975
11
427.790858
21
645.995059
0
LINE
8
Calque 1
10
427.790858
20
645.995059
11
428.125610
21
646.429400
0
LINE
8
Calque 1
10
428.125610
20
646.429400
11
430.523450
21
647.632100
0
LINE
8
Calque 1
10
430.523450
20
647.632100
11
434.683056
21
649.748887
0
LINE
8
Calque 1
10
434.683056
20
649.748887
11
436.429589
21
650.857883
0
LINE
8
Calque 1
10
436.429589
20
650.857883
11
437.745240
21
651.877900
0
LINE
8
Calque 1
10
437.745240
20
651.877900
11
438.685050
21
652.855062
0
LINE
8
Calque 1
10
438.685050
20
652.855062
11
438.744068
21
653.137014
0
LINE
8
Calque 1
10
438.744068
20
653.137014
11
438.595680
21
653.400300
0
LINE
8
Calque 1
10
438.595680
20
653.400300
11
434.188830
21
656.348300
0
LINE
8
Calque 1
10
434.188830
20
656.348300
11
430.365355
21
658.823048
0
LINE
8
Calque 1
10
430.365355
20
658.823048
11
427.977495
21
660.655187
0
LINE
8
Calque 1
10
427.977495
20
660.655187
11
427.235163
21
661.408768
0
LINE
8
Calque 1
10
427.235163
20
661.408768
11
426.747627
21
662.095883
0
LINE
8
Calque 1
10
426.747627
20
662.095883
11
426.480184
21
662.747928
0
LINE
8
Calque 1
10
426.480184
20
662.747928
11
426.398130
21
663.396300
0
LINE
8
Calque 1
10
426.398130
20
663.396300
11
426.663005
21
664.362037
0
LINE
8
Calque 1
10
426.663005
20
664.362037
11
427.301200
21
665.697900
0
LINE
8
Calque 1
10
427.301200
20
665.697900
11
428.743837
21
668.060921
0
LINE
8
Calque 1
10
428.743837
20
668.060921
11
430.356995
21
670.331575
0
LINE
8
Calque 1
10
430.356995
20
670.331575
11
432.170995
21
672.540185
0
LINE
8
Calque 1
10
432.170995
20
672.540185
11
434.216156
21
674.717075
0
LINE
8
Calque 1
10
434.216156
20
674.717075
11
436.522798
21
676.892568
0
LINE
8
Calque 1
10
436.522798
20
676.892568
11
439.121239
21
679.096987
0
LINE
8
Calque 1
10
439.121239
20
679.096987
11
445.314800
21
683.713900
0
LINE
8
Calque 1
10
445.314800
20
683.713900
11
449.693929
21
686.917462
0
LINE
8
Calque 1
10
449.693929
20
686.917462
11
450.516447
21
687.736042
0
LINE
8
Calque 1
10
450.516447
20
687.736042
11
450.738760
21
688.295300
0
LINE
8
Calque 1
10
450.738760
20
688.295300
11
450.338879
21
689.089212
0
LINE
8
Calque 1
10
450.338879
20
689.089212
11
449.296750
21
690.254600
0
LINE
8
Calque 1
10
449.296750
20
690.254600
11
447.522256
21
691.638407
0
LINE
8
Calque 1
10
447.522256
20
691.638407
11
445.109589
21
692.996212
0
LINE
8
Calque 1
10
445.109589
20
692.996212
11
442.118468
21
694.308755
0
LINE
8
Calque 1
10
442.118468
20
694.308755
11
438.608612
21
695.556775
0
LINE
8
Calque 1
10
438.608612
20
695.556775
11
434.639743
21
696.721010
0
LINE
8
Calque 1
10
434.639743
20
696.721010
11
430.271580
21
697.782200
0
LINE
8
Calque 1
10
430.271580
20
697.782200
11
425.563842
21
698.721084
0
LINE
8
Calque 1
10
425.563842
20
698.721084
11
420.576250
21
699.518400
0
LINE
8
Calque 1
10
420.576250
20
699.518400
11
416.131241
21
699.885825
0
LINE
8
Calque 1
10
416.131241
20
699.885825
11
410.522100
21
700.008300
0
LINE
8
Calque 1
10
410.522100
20
700.008300
11
404.912959
21
699.885825
0
LINE
8
Calque 1
10
404.912959
20
699.885825
11
400.467950
21
699.518400
0
LINE
8
Calque 1
10
400.467950
20
699.518400
11
395.480358
21
698.721084
0
LINE
8
Calque 1
10
395.480358
20
698.721084
11
390.772620
21
697.782200
0
LINE
8
Calque 1
10
390.772620
20
697.782200
11
386.404457
21
696.721010
0
LINE
8
Calque 1
10
386.404457
20
696.721010
11
382.435587
21
695.556775
0
LINE
8
Calque 1
10
382.435587
20
695.556775
11
378.925732
21
694.308755
0
LINE
8
Calque 1
10
378.925732
20
694.308755
11
375.934611
21
692.996212
0
LINE
8
Calque 1
10
375.934611
20
692.996212
11
373.521944
21
691.638407
0
LINE
8
Calque 1
10
373.521944
20
691.638407
11
371.747450
21
690.254600
0
LINE
8
Calque 1
10
371.747450
20
690.254600
11
370.705325
21
689.089212
0
LINE
8
Calque 1
10
370.705325
20
689.089212
11
370.305440
21
688.295300
0
LINE
8
Calque 1
10
370.305440
20
688.295300
11
370.527753
21
687.736042
0
LINE
8
Calque 1
10
370.527753
20
687.736042
11
371.350271
21
686.917462
0
LINE
8
Calque 1
10
371.350271
20
686.917462
11
375.729400
21
683.713900
0
LINE
8
Calque 1
10
375.729400
20
683.713900
11
381.911206
21
679.103273
0
LINE
8
Calque 1
10
381.911206
20
679.103273
11
384.510664
21
676.896479
0
LINE
8
Calque 1
10
384.510664
20
676.896479
11
386.820811
21
674.717037
0
LINE
8
Calque 1
10
386.820811
20
674.717037
11
388.870388
21
672.536204
0
LINE
8
Calque 1
10
388.870388
20
672.536204
11
390.688135
21
670.325233
0
LINE
8
Calque 1
10
390.688135
20
670.325233
11
392.302793
21
668.055380
0
LINE
8
Calque 1
10
392.302793
20
668.055380
11
393.743100
21
665.697900
0
LINE
8
Calque 1
10
393.743100
20
665.697900
11
394.313122
21
664.545984
0
LINE
8
Calque 1
10
394.313122
20
664.545984
11
394.580136
21
663.532944
0
LINE
8
Calque 1
10
394.580136
20
663.532944
11
394.491221
21
662.586945
0
LINE
8
Calque 1
10
394.491221
20
662.586945
11
393.993455
21
661.636150
0
LINE
8
Calque 1
10
393.993455
20
661.636150
11
393.033918
21
660.608724
0
LINE
8
Calque 1
10
393.033918
20
660.608724
11
391.559689
21
659.432831
0
LINE
8
Calque 1
10
391.559689
20
659.432831
11
386.855470
21
656.348300
0
LINE
8
Calque 1
10
386.855470
20
656.348300
11
382.448610
21
653.400300
0
LINE
8
Calque 1
10
382.448610
20
653.400300
11
382.300222
21
653.137014
0
LINE
8
Calque 1
10
382.300222
20
653.137014
11
382.359240
21
652.855062
0
LINE
8
Calque 1
10
382.359240
20
652.855062
11
383.299050
21
651.877900
0
LINE
8
Calque 1
10
383.299050
20
651.877900
11
384.614705
21
650.857883
0
LINE
8
Calque 1
10
384.614705
20
650.857883
11
386.361237
21
649.748887
0
LINE
8
Calque 1
10
386.361237
20
649.748887
11
390.520840
21
647.632100
0
LINE
8
Calque 1
10
390.520840
20
647.632100
11
392.918680
21
646.429400
0
LINE
8
Calque 1
10
392.918680
20
646.429400
11
393.253433
21
645.995059
0
LINE
8
Calque 1
10
393.253433
20
645.995059
11
393.302800
21
645.534975
0
LINE
8
Calque 1
10
393.302800
20
645.534975
11
393.079594
21
645.114078
0
LINE
8
Calque 1
10
393.079594
20
645.114078
11
392.596630
21
644.797300
0
LINE
8
Calque 1
10
392.596630
20
644.797300
11
390.006296
21
643.669289
0
LINE
8
Calque 1
10
390.006296
20
643.669289
11
387.731771
21
642.317037
0
LINE
8
Calque 1
10
387.731771
20
642.317037
11
384.934026
21
640.160092
0
LINE
8
Calque 1
10
384.934026
20
640.160092
11
380.774030
21
636.618000
0
LINE
8
Calque 1
10
380.774030
20
636.618000
11
379.067907
21
635.312798
0
LINE
8
Calque 1
10
379.067907
20
635.312798
11
377.379245
21
634.559137
0
LINE
8
Calque 1
10
377.379245
20
634.559137
11
375.200788
21
634.212708
0
LINE
8
Calque 1
10
375.200788
20
634.212708
11
372.025280
21
634.129200
0
LINE
8
Calque 1
10
372.025280
20
634.129200
11
369.127923
21
634.199537
0
LINE
8
Calque 1
10
369.127923
20
634.199537
11
367.168000
21
634.588100
0
LINE
8
Calque 1
10
367.168000
20
634.588100
11
365.420987
21
635.560987
0
LINE
8
Calque 1
10
365.420987
20
635.560987
11
363.162360
21
637.384300
0
LINE
8
Calque 1
10
363.162360
20
637.384300
11
360.436363
21
639.521208
0
LINE
8
Calque 1
10
360.436363
20
639.521208
11
357.866219
21
641.132262
0
LINE
8
Calque 1
10
357.866219
20
641.132262
11
355.236770
21
642.333836
0
LINE
8
Calque 1
10
355.236770
20
642.333836
11
352.332860
21
643.242300
0
LINE
8
Calque 1
10
352.332860
20
643.242300
11
349.815420
21
644.139000
0
LINE
8
Calque 1
10
349.815420
20
644.139000
11
349.005205
21
645.005442
0
LINE
8
Calque 1
10
349.005205
20
645.005442
11
347.965624
21
646.570762
0
LINE
8
Calque 1
10
347.965624
20
646.570762
11
346.879841
21
648.531127
0
LINE
8
Calque 1
10
346.879841
20
648.531127
11
345.931020
21
650.582700
0
LINE
8
Calque 1
10
345.931020
20
650.582700
11
344.905450
21
652.765300
0
LINE
8
Calque 1
10
344.905450
20
652.765300
11
343.609830
21
650.589100
0
LINE
8
Calque 1
10
343.609830
20
650.589100
11
342.297382
21
648.326528
0
LINE
8
Calque 1
10
342.297382
20
648.326528
11
340.936841
21
646.306975
0
LINE
8
Calque 1
10
340.936841
20
646.306975
11
339.724967
21
644.800159
0
LINE
8
Calque 1
10
339.724967
20
644.800159
11
338.858520
21
644.075800
0
LINE
8
Calque 1
10
338.858520
20
644.075800
11
335.528030
21
643.121800
0
LINE
8
Calque 1
10
335.528030
20
643.121800
11
333.141354
21
642.371236
0
LINE
8
Calque 1
10
333.141354
20
642.371236
11
330.699354
21
641.375187
0
LINE
8
Calque 1
10
330.699354
20
641.375187
11
328.441431
21
640.242095
0
LINE
8
Calque 1
10
328.441431
20
640.242095
11
326.606990
21
639.080400
0
LINE
8
Calque 1
10
326.606990
20
639.080400
11
324.484261
21
637.230512
0
LINE
8
Calque 1
10
324.484261
20
637.230512
11
322.721987
21
635.118125
0
LINE
8
Calque 1
10
322.721987
20
635.118125
11
321.396668
21
632.851725
0
LINE
8
Calque 1
10
321.396668
20
632.851725
11
320.584800
21
630.539800
0
LINE
8
Calque 1
10
320.584800
20
630.539800
11
320.354495
21
628.973412
0
LINE
8
Calque 1
10
320.354495
20
628.973412
11
320.318650
21
627.300000
0
LINE
8
Calque 1
10
320.318650
20
627.300000
11
320.468812
21
625.757312
0
LINE
8
Calque 1
10
320.468812
20
625.757312
11
320.796530
21
624.583100
0
LINE
8
Calque 1
10
320.796530
20
624.583100
11
321.545672
21
623.396562
0
LINE
8
Calque 1
10
321.545672
20
623.396562
11
322.543648
21
622.503064
0
LINE
8
Calque 1
10
322.543648
20
622.503064
11
323.730176
21
621.908594
0
LINE
8
Calque 1
10
323.730176
20
621.908594
11
325.044972
21
621.619137
0
LINE
8
Calque 1
10
325.044972
20
621.619137
11
326.427756
21
621.640683
0
LINE
8
Calque 1
10
326.427756
20
621.640683
11
327.818243
21
621.979217
0
LINE
8
Calque 1
10
327.818243
20
621.979217
11
329.156152
21
622.640727
0
LINE
8
Calque 1
10
329.156152
20
622.640727
11
330.381200
21
623.631200
0
LINE
8
Calque 1
10
330.381200
20
623.631200
11
331.032591
21
624.352981
0
LINE
8
Calque 1
10
331.032591
20
624.352981
11
331.527586
21
625.100900
0
LINE
8
Calque 1
10
331.527586
20
625.100900
11
332.433620
21
627.378500
0
LINE
8
Calque 1
10
332.433620
20
627.378500
11
333.531357
21
630.071770
0
LINE
8
Calque 1
10
333.531357
20
630.071770
11
334.899805
21
632.176787
0
LINE
8
Calque 1
10
334.899805
20
632.176787
11
336.670125
21
633.851511
0
LINE
8
Calque 1
10
336.670125
20
633.851511
11
338.973480
21
635.253900
0
LINE
8
Calque 1
10
338.973480
20
635.253900
11
340.552306
21
635.951579
0
LINE
8
Calque 1
10
340.552306
20
635.951579
11
342.141809
21
636.458087
0
LINE
8
Calque 1
10
342.141809
20
636.458087
11
343.737511
21
636.773346
0
LINE
8
Calque 1
10
343.737511
20
636.773346
11
345.334939
21
636.897275
0
LINE
8
Calque 1
10
345.334939
20
636.897275
11
346.929615
21
636.829795
0
LINE
8
Calque 1
10
346.929615
20
636.829795
11
348.517065
21
636.570825
0
LINE
8
Calque 1
10
348.517065
20
636.570825
11
350.092811
21
636.120287
0
LINE
8
Calque 1
10
350.092811
20
636.120287
11
351.652380
21
635.478100
0
LINE
8
Calque 1
10
351.652380
20
635.478100
11
353.986612
21
634.065403
0
LINE
8
Calque 1
10
353.986612
20
634.065403
11
356.078077
21
632.138000
0
LINE
8
Calque 1
10
356.078077
20
632.138000
11
357.992810
21
629.622672
0
LINE
8
Calque 1
10
357.992810
20
629.622672
11
359.796840
21
626.446200
0
LINE
8
Calque 1
10
359.796840
20
626.446200
11
360.848525
21
624.570125
0
LINE
8
Calque 1
10
360.848525
20
624.570125
11
361.700410
21
623.403400
0
LINE
8
Calque 1
10
361.700410
20
623.403400
11
362.410020
21
622.742000
0
LINE
8
Calque 1
10
362.410020
20
622.742000
11
372.773920
21
622.668000
0
LINE
8
Calque 1
10
372.773920
20
622.668000
11
381.656965
21
622.679362
0
LINE
8
Calque 1
10
381.656965
20
622.679362
11
383.237590
21
622.811255
0
LINE
8
Calque 1
10
383.237590
20
622.811255
11
383.970520
21
623.064900
0
LINE
8
Calque 1
10
383.970520
20
623.064900
11
385.178426
21
624.135425
0
LINE
8
Calque 1
10
385.178426
20
624.135425
11
386.913200
21
626.048800
0
LINE
8
Calque 1
10
386.913200
20
626.048800
11
388.660797
21
627.990580
0
LINE
8
Calque 1
10
388.660797
20
627.990580
11
390.394867
21
629.646681
0
LINE
8
Calque 1
10
390.394867
20
629.646681
11
392.090454
21
631.003279
0
LINE
8
Calque 1
10
392.090454
20
631.003279
11
393.722597
21
632.046550
0
LINE
8
Calque 1
10
393.722597
20
632.046550
11
395.266342
21
632.762671
0
LINE
8
Calque 1
10
395.266342
20
632.762671
11
396.696729
21
633.137819
0
LINE
8
Calque 1
10
396.696729
20
633.137819
11
397.988801
21
633.158170
0
LINE
8
Calque 1
10
397.988801
20
633.158170
11
399.117600
21
632.809900
0
LINE
8
Calque 1
10
399.117600
20
632.809900
11
400.426914
21
631.945525
0
LINE
8
Calque 1
10
400.426914
20
631.945525
11
401.636839
21
630.798550
0
LINE
8
Calque 1
10
401.636839
20
630.798550
11
402.644839
21
629.482825
0
LINE
8
Calque 1
10
402.644839
20
629.482825
11
403.348380
21
628.112200
0
LINE
8
Calque 1
10
403.348380
20
628.112200
11
403.442115
21
627.309075
0
LINE
8
Calque 1
10
403.442115
20
627.309075
11
402.983220
21
626.209700
0
LINE
8
Calque 1
10
402.983220
20
626.209700
11
402.348560
21
625.016000
0
LINE
8
Calque 1
10
402.348560
20
625.016000
11
402.359060
21
605.754800
0
LINE
8
Calque 1
10
402.359060
20
605.754800
11
402.323447
21
593.335222
0
LINE
8
Calque 1
10
402.323447
20
593.335222
11
402.162904
21
585.450275
0
LINE
8
Calque 1
10
402.162904
20
585.450275
11
401.821624
21
580.694216
0
LINE
8
Calque 1
10
401.821624
20
580.694216
11
401.243800
21
577.661300
0
LINE
8
Calque 1
10
401.243800
20
577.661300
11
400.662519
21
575.816222
0
LINE
8
Calque 1
10
400.662519
20
575.816222
11
399.921390
21
574.085725
0
LINE
8
Calque 1
10
399.921390
20
574.085725
11
398.929101
21
572.283716
0
LINE
8
Calque 1
10
398.929101
20
572.283716
11
397.594340
21
570.224100
0
LINE
8
Calque 1
10
397.594340
20
570.224100
11
396.388458
21
568.329272
0
LINE
8
Calque 1
10
396.388458
20
568.329272
11
395.656610
21
566.840100
0
LINE
8
Calque 1
10
395.656610
20
566.840100
11
395.356889
21
565.647628
0
LINE
8
Calque 1
10
395.356889
20
565.647628
11
395.447390
21
564.642900
0
LINE
8
Calque 1
10
395.447390
20
564.642900
11
395.780377
21
563.762508
0
LINE
8
Calque 1
10
395.780377
20
563.762508
11
396.351517
21
562.849912
0
LINE
8
Calque 1
10
396.351517
20
562.849912
11
398.871880
21
560.035200
0
LINE
8
Calque 1
10
398.871880
20
560.035200
11
401.996680
21
556.577400
0
LINE
8
Calque 1
10
401.996680
20
556.577400
11
402.480205
21
555.677709
0
LINE
8
Calque 1
10
402.480205
20
555.677709
11
402.584680
21
554.856300
0
LINE
8
Calque 1
10
402.584680
20
554.856300
11
402.377845
21
553.869398
0
LINE
8
Calque 1
10
402.377845
20
553.869398
11
401.577224
21
552.724012
0
LINE
8
Calque 1
10
401.577224
20
552.724012
11
399.912638
21
551.118670
0
LINE
8
Calque 1
10
399.912638
20
551.118670
11
397.113910
21
548.751900
0
LINE
8
Calque 1
10
397.113910
20
548.751900
11
394.834737
21
546.816772
0
LINE
8
Calque 1
10
394.834737
20
546.816772
11
393.423887
21
545.460475
0
LINE
8
Calque 1
10
393.423887
20
545.460475
11
392.752122
21
544.541841
0
LINE
8
Calque 1
10
392.752122
20
544.541841
11
392.690200
21
543.919700
0
LINE
8
Calque 1
10
392.690200
20
543.919700
11
393.300289
21
543.694044
0
LINE
8
Calque 1
10
393.300289
20
543.694044
11
395.694032
21
543.567125
0
LINE
8
Calque 1
10
395.694032
20
543.567125
11
410.522200
21
543.498800
0
LINE
8
Calque 1
10
410.522200
20
543.498800
11
425.350375
21
543.567162
0
LINE
8
Calque 1
10
425.350375
20
543.567162
11
427.744122
21
543.694086
0
LINE
8
Calque 1
10
427.744122
20
543.694086
11
428.354200
21
543.919700
0
LINE
8
Calque 1
10
428.354200
20
543.919700
11
428.354100
21
543.919700
0
LINE
8
Calque 1
10
408.008600
20
648.040700
11
404.702227
21
650.816487
0
LINE
8
Calque 1
10
404.702227
20
650.816487
11
403.597135
21
651.953408
0
LINE
8
Calque 1
10
403.597135
20
651.953408
11
402.960760
21
652.825100
0
LINE
8
Calque 1
10
402.960760
20
652.825100
11
402.656209
21
653.744344
0
LINE
8
Calque 1
10
402.656209
20
653.744344
11
402.640916
21
654.890725
0
LINE
8
Calque 1
10
402.640916
20
654.890725
11
402.927141
21
656.383644
0
LINE
8
Calque 1
10
402.927141
20
656.383644
11
403.527140
21
658.342500
0
LINE
8
Calque 1
10
403.527140
20
658.342500
11
404.028228
21
659.956370
0
LINE
8
Calque 1
10
404.028228
20
659.956370
11
404.308222
21
661.375770
0
LINE
8
Calque 1
10
404.308222
20
661.375770
11
404.328140
21
662.734076
0
LINE
8
Calque 1
10
404.328140
20
662.734076
11
404.049002
21
664.164662
0
LINE
8
Calque 1
10
404.049002
20
664.164662
11
403.431830
21
665.800903
0
LINE
8
Calque 1
10
403.431830
20
665.800903
11
402.437642
21
667.776173
0
LINE
8
Calque 1
10
402.437642
20
667.776173
11
399.162300
21
673.277300
0
LINE
8
Calque 1
10
399.162300
20
673.277300
11
396.286067
21
678.128544
0
LINE
8
Calque 1
10
396.286067
20
678.128544
11
394.544766
21
681.600650
0
LINE
8
Calque 1
10
394.544766
20
681.600650
11
394.073566
21
682.881507
0
LINE
8
Calque 1
10
394.073566
20
682.881507
11
393.854720
21
683.891956
0
LINE
8
Calque 1
10
393.854720
20
683.891956
11
393.877768
21
684.656790
0
LINE
8
Calque 1
10
393.877768
20
684.656790
11
394.132250
21
685.200800
0
LINE
8
Calque 1
10
394.132250
20
685.200800
11
395.273181
21
686.029798
0
LINE
8
Calque 1
10
395.273181
20
686.029798
11
397.305154
21
686.829162
0
LINE
8
Calque 1
10
397.305154
20
686.829162
11
400.248165
21
687.605220
0
LINE
8
Calque 1
10
400.248165
20
687.605220
11
404.122210
21
688.364300
0
LINE
8
Calque 1
10
404.122210
20
688.364300
11
407.495583
21
688.839950
0
LINE
8
Calque 1
10
407.495583
20
688.839950
11
410.522145
21
688.998500
0
LINE
8
Calque 1
10
410.522145
20
688.998500
11
413.548714
21
688.839950
0
LINE
8
Calque 1
10
413.548714
20
688.839950
11
416.922110
21
688.364300
0
LINE
8
Calque 1
10
416.922110
20
688.364300
11
420.796155
21
687.605220
0
LINE
8
Calque 1
10
420.796155
20
687.605220
11
423.739166
21
686.829162
0
LINE
8
Calque 1
10
423.739166
20
686.829162
11
425.771139
21
686.029798
0
LINE
8
Calque 1
10
425.771139
20
686.029798
11
426.912070
21
685.200800
0
LINE
8
Calque 1
10
426.912070
20
685.200800
11
427.166552
21
684.656790
0
LINE
8
Calque 1
10
427.166552
20
684.656790
11
427.189600
21
683.891956
0
LINE
8
Calque 1
10
427.189600
20
683.891956
11
426.970754
21
682.881507
0
LINE
8
Calque 1
10
426.970754
20
682.881507
11
426.499554
21
681.600650
0
LINE
8
Calque 1
10
426.499554
20
681.600650
11
424.758253
21
678.128544
0
LINE
8
Calque 1
10
424.758253
20
678.128544
11
421.882020
21
673.277300
0
LINE
8
Calque 1
10
421.882020
20
673.277300
11
418.606678
21
667.776173
0
LINE
8
Calque 1
10
418.606678
20
667.776173
11
417.612490
21
665.800903
0
LINE
8
Calque 1
10
417.612490
20
665.800903
11
416.995317
21
664.164662
0
LINE
8
Calque 1
10
416.995317
20
664.164662
11
416.716180
21
662.734076
0
LINE
8
Calque 1
10
416.716180
20
662.734076
11
416.736098
21
661.375770
0
LINE
8
Calque 1
10
416.736098
20
661.375770
11
417.016092
21
659.956370
0
LINE
8
Calque 1
10
417.016092
20
659.956370
11
417.517180
21
658.342500
0
LINE
8
Calque 1
10
417.517180
20
658.342500
11
418.291726
21
655.699233
0
LINE
8
Calque 1
10
418.291726
20
655.699233
11
418.431538
21
654.702898
0
LINE
8
Calque 1
10
418.431538
20
654.702898
11
418.394589
21
653.849962
0
LINE
8
Calque 1
10
418.394589
20
653.849962
11
418.172041
21
653.085325
0
LINE
8
Calque 1
10
418.172041
20
653.085325
11
417.755054
21
652.353886
0
LINE
8
Calque 1
10
417.755054
20
652.353886
11
416.302410
21
650.770200
0
LINE
8
Calque 1
10
416.302410
20
650.770200
11
412.885589
21
647.942925
0
LINE
8
Calque 1
10
412.885589
20
647.942925
11
411.346019
21
646.856944
0
LINE
8
Calque 1
10
411.346019
20
646.856944
11
410.498630
21
646.423500
0
LINE
8
Calque 1
10
410.498630
20
646.423500
11
409.613200
21
646.899175
0
LINE
8
Calque 1
10
409.613200
20
646.899175
11
408.008640
21
648.040700
0
LINE
8
Calque 1
10
408.008640
20
648.040700
11
408.008600
21
648.040700
0
LINE
8
Calque 1
10
351.753700
20
552.895200
11
356.670700
21
553.801000
0
LINE
8
Calque 1
10
356.670700
20
553.801000
11
361.501169
21
555.247450
0
LINE
8
Calque 1
10
361.501169
20
555.247450
11
366.060962
21
557.192875
0
LINE
8
Calque 1
10
366.060962
20
557.192875
11
370.259912
21
559.563137
0
LINE
8
Calque 1
10
370.259912
20
559.563137
11
374.007850
21
562.284100
0
LINE
8
Calque 1
10
374.007850
20
562.284100
11
377.214606
21
565.281625
0
LINE
8
Calque 1
10
377.214606
20
565.281625
11
378.586864
21
566.860930
0
LINE
8
Calque 1
10
378.586864
20
566.860930
11
379.790012
21
568.481575
0
LINE
8
Calque 1
10
379.790012
20
568.481575
11
380.812782
21
570.134291
0
LINE
8
Calque 1
10
380.812782
20
570.134291
11
381.643900
21
571.809813
0
LINE
8
Calque 1
10
381.643900
20
571.809813
11
382.272096
21
573.498871
0
LINE
8
Calque 1
10
382.272096
20
573.498871
11
382.686100
21
575.192200
0
LINE
8
Calque 1
10
382.686100
20
575.192200
11
382.804802
21
576.221873
0
LINE
8
Calque 1
10
382.804802
20
576.221873
11
382.708465
21
576.551483
0
LINE
8
Calque 1
10
382.708465
20
576.551483
11
382.449332
21
576.791412
0
LINE
8
Calque 1
10
382.449332
20
576.791412
11
381.265672
21
577.103645
0
LINE
8
Calque 1
10
381.265672
20
577.103645
11
378.899800
21
577.361400
0
LINE
8
Calque 1
10
378.899800
20
577.361400
11
376.572130
21
577.669987
0
LINE
8
Calque 1
10
376.572130
20
577.669987
11
375.427810
21
577.980300
0
LINE
8
Calque 1
10
375.427810
20
577.980300
11
362.463210
21
603.030400
0
LINE
8
Calque 1
10
362.463210
20
603.030400
11
351.214085
21
624.793000
0
LINE
8
Calque 1
10
351.214085
20
624.793000
11
349.269126
21
628.102009
0
LINE
8
Calque 1
10
349.269126
20
628.102009
11
348.041710
21
629.554900
0
LINE
8
Calque 1
10
348.041710
20
629.554900
11
346.627882
21
630.837250
0
LINE
8
Calque 1
10
346.627882
20
630.837250
11
345.747170
21
631.340800
0
LINE
8
Calque 1
10
345.747170
20
631.340800
11
345.002946
21
631.083205
0
LINE
8
Calque 1
10
345.002946
20
631.083205
11
344.011376
21
630.410438
0
LINE
8
Calque 1
10
344.011376
20
630.410438
11
342.962524
21
629.472527
0
LINE
8
Calque 1
10
342.962524
20
629.472527
11
342.046450
21
628.419500
0
LINE
8
Calque 1
10
342.046450
20
628.419500
11
337.743554
21
620.402150
0
LINE
8
Calque 1
10
337.743554
20
620.402150
11
328.626550
21
602.783000
0
LINE
8
Calque 1
10
328.626550
20
602.783000
11
315.742850
21
577.998500
0
LINE
8
Calque 1
10
315.742850
20
577.998500
11
314.610054
21
577.680838
0
LINE
8
Calque 1
10
314.610054
20
577.680838
11
312.361730
21
577.377200
0
LINE
8
Calque 1
10
312.361730
20
577.377200
11
308.934204
21
576.923275
0
LINE
8
Calque 1
10
308.934204
20
576.923275
11
308.472888
21
576.609275
0
LINE
8
Calque 1
10
308.472888
20
576.609275
11
308.396120
21
576.091200
0
LINE
8
Calque 1
10
308.396120
20
576.091200
11
308.528968
21
574.984328
0
LINE
8
Calque 1
10
308.528968
20
574.984328
11
308.889844
21
573.613250
0
LINE
8
Calque 1
10
308.889844
20
573.613250
11
310.114660
21
570.649900
0
LINE
8
Calque 1
10
310.114660
20
570.649900
11
311.835524
21
567.877062
0
LINE
8
Calque 1
10
311.835524
20
567.877062
11
314.027600
21
565.228548
0
LINE
8
Calque 1
10
314.027600
20
565.228548
11
316.642067
21
562.738227
0
LINE
8
Calque 1
10
316.642067
20
562.738227
11
319.630106
21
560.439963
0
LINE
8
Calque 1
10
319.630106
20
560.439963
11
322.942896
21
558.367622
0
LINE
8
Calque 1
10
322.942896
20
558.367622
11
326.531615
21
556.555070
0
LINE
8
Calque 1
10
326.531615
20
556.555070
11
330.347443
21
555.036174
0
LINE
8
Calque 1
10
330.347443
20
555.036174
11
334.341560
21
553.844800
0
LINE
8
Calque 1
10
334.341560
20
553.844800
11
338.559029
21
553.031873
0
LINE
8
Calque 1
10
338.559029
20
553.031873
11
343.060874
21
552.592063
0
LINE
8
Calque 1
10
343.060874
20
552.592063
11
347.556087
21
552.541220
0
LINE
8
Calque 1
10
347.556087
20
552.541220
11
351.753660
21
552.895200
0
LINE
8
Calque 1
10
351.753660
20
552.895200
11
351.753700
21
552.895200
0
LINE
8
Calque 1
10
321.534000
20
578.071400
11
321.359300
21
578.799000
0
LINE
8
Calque 1
10
321.359300
20
578.799000
11
324.812115
21
585.911200
0
LINE
8
Calque 1
10
324.812115
20
585.911200
11
333.111100
21
602.236700
0
LINE
8
Calque 1
10
333.111100
20
602.236700
11
343.341437
21
621.963912
0
LINE
8
Calque 1
10
343.341437
20
621.963912
11
344.943470
21
624.653605
0
LINE
8
Calque 1
10
344.943470
20
624.653605
11
345.325081
21
625.045764
0
LINE
8
Calque 1
10
345.325081
20
625.045764
11
345.601900
21
625.123100
0
LINE
8
Calque 1
10
345.601900
20
625.123100
11
345.879041
21
625.045138
0
LINE
8
Calque 1
10
345.879041
20
625.045138
11
346.262367
21
624.649631
0
LINE
8
Calque 1
10
346.262367
20
624.649631
11
347.876537
21
621.936250
0
LINE
8
Calque 1
10
347.876537
20
621.936250
11
358.197700
21
602.031900
0
LINE
8
Calque 1
10
358.197700
20
602.031900
11
367.821566
21
583.090325
0
LINE
8
Calque 1
10
367.821566
20
583.090325
11
369.469287
21
579.556031
0
LINE
8
Calque 1
10
369.469287
20
579.556031
11
369.773000
21
578.417800
0
LINE
8
Calque 1
10
369.773000
20
578.417800
11
369.620144
21
578.247561
0
LINE
8
Calque 1
10
369.620144
20
578.247561
11
369.188076
21
578.118973
0
LINE
8
Calque 1
10
369.188076
20
578.118973
11
366.405561
21
577.963387
0
LINE
8
Calque 1
10
366.405561
20
577.963387
11
345.601800
21
577.895000
0
LINE
8
Calque 1
10
345.601800
20
577.895000
11
321.534000
21
578.071400
0
LINE
8
Calque 1
10
321.534000
20
578.071400
11
321.534000
21
578.071400
0
LINE
8
Calque 1
10
337.642700
20
586.613000
11
331.045310
21
593.214400
0
LINE
8
Calque 1
10
331.045310
20
593.214400
11
328.959310
21
589.217800
0
LINE
8
Calque 1
10
328.959310
20
589.217800
11
326.873320
21
585.221200
0
LINE
8
Calque 1
10
326.873320
20
585.221200
11
329.468300
21
582.616400
0
LINE
8
Calque 1
10
329.468300
20
582.616400
11
332.063280
21
580.011700
0
LINE
8
Calque 1
10
332.063280
20
580.011700
11
338.151000
21
580.011000
0
LINE
8
Calque 1
10
338.151000
20
580.011000
11
344.240000
21
580.011000
0
LINE
8
Calque 1
10
344.240000
20
580.011000
11
337.642700
21
586.613000
0
LINE
8
Calque 1
10
481.709700
20
552.905500
11
486.892130
21
553.913670
0
LINE
8
Calque 1
10
486.892130
20
553.913670
11
491.855382
21
555.453638
0
LINE
8
Calque 1
10
491.855382
20
555.453638
11
496.545668
21
557.505386
0
LINE
8
Calque 1
10
496.545668
20
557.505386
11
500.909200
21
560.048900
0
LINE
8
Calque 1
10
500.909200
20
560.048900
11
502.978688
21
561.589033
0
LINE
8
Calque 1
10
502.978688
20
561.589033
11
505.185057
21
563.496487
0
LINE
8
Calque 1
10
505.185057
20
563.496487
11
507.233278
21
565.500073
0
LINE
8
Calque 1
10
507.233278
20
565.500073
11
508.828320
21
567.328600
0
LINE
8
Calque 1
10
508.828320
20
567.328600
11
509.832831
21
568.768658
0
LINE
8
Calque 1
10
509.832831
20
568.768658
11
510.728133
21
570.305911
0
LINE
8
Calque 1
10
510.728133
20
570.305911
11
512.075549
21
573.341413
0
LINE
8
Calque 1
10
512.075549
20
573.341413
11
512.469885
21
574.674369
0
LINE
8
Calque 1
10
512.469885
20
574.674369
11
512.639453
21
575.773933
0
LINE
8
Calque 1
10
512.639453
20
575.773933
11
512.555365
21
576.557459
0
LINE
8
Calque 1
10
512.555365
20
576.557459
11
512.188730
21
576.942300
0
LINE
8
Calque 1
10
512.188730
20
576.942300
11
508.683000
21
577.377200
0
LINE
8
Calque 1
10
508.683000
20
577.377200
11
506.428709
21
577.681938
0
LINE
8
Calque 1
10
506.428709
20
577.681938
11
505.297910
21
578.002500
0
LINE
8
Calque 1
10
505.297910
20
578.002500
11
492.414510
21
602.786900
0
LINE
8
Calque 1
10
492.414510
20
602.786900
11
483.300371
21
620.403313
0
LINE
8
Calque 1
10
483.300371
20
620.403313
11
478.998510
21
628.419500
0
LINE
8
Calque 1
10
478.998510
20
628.419500
11
478.082182
21
629.472611
0
LINE
8
Calque 1
10
478.082182
20
629.472611
11
477.033226
21
630.410513
0
LINE
8
Calque 1
10
477.033226
20
630.410513
11
476.041663
21
631.083233
0
LINE
8
Calque 1
10
476.041663
20
631.083233
11
475.297510
21
631.340800
0
LINE
8
Calque 1
10
475.297510
20
631.340800
11
474.416797
21
630.837250
0
LINE
8
Calque 1
10
474.416797
20
630.837250
11
473.002970
21
629.554900
0
LINE
8
Calque 1
10
473.002970
20
629.554900
11
471.775542
21
628.102009
0
LINE
8
Calque 1
10
471.775542
20
628.102009
11
469.830584
21
624.793000
0
LINE
8
Calque 1
10
469.830584
20
624.793000
11
458.581470
21
603.030400
0
LINE
8
Calque 1
10
458.581470
20
603.030400
11
445.616870
21
577.980300
0
LINE
8
Calque 1
10
445.616870
20
577.980300
11
444.472550
21
577.669988
0
LINE
8
Calque 1
10
444.472550
20
577.669988
11
442.144880
21
577.361400
0
LINE
8
Calque 1
10
442.144880
20
577.361400
11
439.779008
21
577.103645
0
LINE
8
Calque 1
10
439.779008
20
577.103645
11
438.595348
21
576.791412
0
LINE
8
Calque 1
10
438.595348
20
576.791412
11
438.336215
21
576.551483
0
LINE
8
Calque 1
10
438.336215
20
576.551483
11
438.239878
21
576.221873
0
LINE
8
Calque 1
10
438.239878
20
576.221873
11
438.358580
21
575.192200
0
LINE
8
Calque 1
10
438.358580
20
575.192200
11
438.773074
21
573.496089
0
LINE
8
Calque 1
10
438.773074
20
573.496089
11
439.401663
21
571.804957
0
LINE
8
Calque 1
10
439.401663
20
571.804957
11
440.233178
21
570.127977
0
LINE
8
Calque 1
10
440.233178
20
570.127977
11
441.256446
21
568.474322
0
LINE
8
Calque 1
10
441.256446
20
568.474322
11
442.460298
21
566.853164
0
LINE
8
Calque 1
10
442.460298
20
566.853164
11
443.833560
21
565.273676
0
LINE
8
Calque 1
10
443.833560
20
565.273676
11
447.043636
21
562.276400
0
LINE
8
Calque 1
10
447.043636
20
562.276400
11
450.797305
21
559.555874
0
LINE
8
Calque 1
10
450.797305
20
559.555874
11
455.005198
21
557.185478
0
LINE
8
Calque 1
10
455.005198
20
557.185478
11
459.577946
21
555.238593
0
LINE
8
Calque 1
10
459.577946
20
555.238593
11
464.426180
21
553.788600
0
LINE
8
Calque 1
10
464.426180
20
553.788600
11
468.682856
21
552.997216
0
LINE
8
Calque 1
10
468.682856
20
552.997216
11
473.112806
21
552.579575
0
LINE
8
Calque 1
10
473.112806
20
552.579575
11
477.520318
21
552.545672
0
LINE
8
Calque 1
10
477.520318
20
552.545672
11
481.709680
21
552.905500
0
LINE
8
Calque 1
10
481.709680
20
552.905500
11
481.709700
21
552.905500
0
LINE
8
Calque 1
10
451.272600
20
578.416400
11
451.573616
21
579.551391
0
LINE
8
Calque 1
10
451.573616
20
579.551391
11
453.217510
21
583.079050
0
LINE
8
Calque 1
10
453.217510
20
583.079050
11
462.847100
21
602.031900
0
LINE
8
Calque 1
10
462.847100
20
602.031900
11
473.168262
21
621.936250
0
LINE
8
Calque 1
10
473.168262
20
621.936250
11
474.782436
21
624.649631
0
LINE
8
Calque 1
10
474.782436
20
624.649631
11
475.165762
21
625.045138
0
LINE
8
Calque 1
10
475.165762
20
625.045138
11
475.442900
21
625.123100
0
LINE
8
Calque 1
10
475.442900
20
625.123100
11
475.719741
21
625.045702
0
LINE
8
Calque 1
10
475.719741
20
625.045702
11
476.101517
21
624.653394
0
LINE
8
Calque 1
10
476.101517
20
624.653394
11
477.704452
21
621.963350
0
LINE
8
Calque 1
10
477.704452
20
621.963350
11
487.939900
21
602.236700
0
LINE
8
Calque 1
10
487.939900
20
602.236700
11
496.761895
21
584.864300
0
LINE
8
Calque 1
10
496.761895
20
584.864300
11
498.930182
21
580.393700
0
LINE
8
Calque 1
10
498.930182
20
580.393700
11
499.625500
21
578.688800
0
LINE
8
Calque 1
10
499.625500
20
578.688800
11
499.554800
21
578.027300
0
LINE
8
Calque 1
10
499.554800
20
578.027300
11
475.553900
21
577.959300
0
LINE
8
Calque 1
10
475.553900
20
577.959300
11
454.633362
21
577.968375
0
LINE
8
Calque 1
10
454.633362
20
577.968375
11
451.851908
21
578.116772
0
LINE
8
Calque 1
10
451.851908
20
578.116772
11
451.423690
21
578.244925
0
LINE
8
Calque 1
10
451.423690
20
578.244925
11
451.272500
21
578.415900
0
LINE
8
Calque 1
10
451.272500
20
578.415900
11
451.272600
21
578.416400
0
LINE
8
Calque 1
10
491.576500
20
582.616400
11
494.171480
21
585.221200
0
LINE
8
Calque 1
10
494.171480
20
585.221200
11
492.085490
21
589.217800
0
LINE
8
Calque 1
10
492.085490
20
589.217800
11
489.999490
21
593.214400
0
LINE
8
Calque 1
10
489.999490
20
593.214400
11
483.402100
21
586.613000
0
LINE
8
Calque 1
10
483.402100
20
586.613000
11
476.804720
21
580.011700
0
LINE
8
Calque 1
10
476.804720
20
580.011700
11
482.892000
21
580.011000
0
LINE
8
Calque 1
10
482.892000
20
580.011000
11
488.981000
21
580.011000
0
LINE
8
Calque 1
10
488.981000
20
580.011000
11
491.576500
21
582.616400
0
LINE
8
Calque 1
10
323.786500
20
600.462700
11
323.143837
21
601.019162
0
LINE
8
Calque 1
10
323.143837
20
601.019162
11
322.954509
21
600.974898
0
LINE
8
Calque 1
10
322.954509
20
600.974898
11
322.752620
21
600.742900
0
LINE
8
Calque 1
10
322.752620
20
600.742900
11
322.515375
21
600.508538
0
LINE
8
Calque 1
10
322.515375
20
600.508538
11
322.416700
21
600.590300
0
LINE
8
Calque 1
10
322.416700
20
600.590300
11
322.281411
21
600.765938
0
LINE
8
Calque 1
10
322.281411
20
600.765938
11
321.953680
21
600.754900
0
LINE
8
Calque 1
10
321.953680
20
600.754900
11
321.812044
21
600.765550
0
LINE
8
Calque 1
10
321.812044
20
600.765550
11
322.121720
21
600.990100
0
LINE
8
Calque 1
10
322.121720
20
600.990100
11
322.513874
21
601.318325
0
LINE
8
Calque 1
10
322.513874
20
601.318325
11
322.452450
21
601.553100
0
LINE
8
Calque 1
10
322.452450
20
601.553100
11
322.240339
21
601.592962
0
LINE
8
Calque 1
10
322.240339
20
601.592962
11
322.152120
21
601.427700
0
LINE
8
Calque 1
10
322.152120
20
601.427700
11
322.002914
21
601.243387
0
LINE
8
Calque 1
10
322.002914
20
601.243387
11
321.623210
21
601.254900
0
LINE
8
Calque 1
10
321.623210
20
601.254900
11
321.206150
21
601.282350
0
LINE
8
Calque 1
10
321.206150
20
601.282350
11
320.946140
21
601.153500
0
LINE
8
Calque 1
10
320.946140
20
601.153500
11
320.703290
21
600.948498
0
LINE
8
Calque 1
10
320.703290
20
600.948498
11
320.404945
21
600.929712
0
LINE
8
Calque 1
10
320.404945
20
600.929712
11
320.132273
21
601.078645
0
LINE
8
Calque 1
10
320.132273
20
601.078645
11
319.966440
21
601.376800
0
LINE
8
Calque 1
10
319.966440
20
601.376800
11
319.815445
21
601.500462
0
LINE
8
Calque 1
10
319.815445
20
601.500462
11
319.574030
21
600.913800
0
LINE
8
Calque 1
10
319.574030
20
600.913800
11
319.330446
21
600.259237
0
LINE
8
Calque 1
10
319.330446
20
600.259237
11
319.244670
21
600.649200
0
LINE
8
Calque 1
10
319.244670
20
600.649200
11
319.172788
21
601.015937
0
LINE
8
Calque 1
10
319.172788
20
601.015937
11
319.062790
21
600.968900
0
LINE
8
Calque 1
10
319.062790
20
600.968900
11
318.876038
21
600.764850
0
LINE
8
Calque 1
10
318.876038
20
600.764850
11
318.554510
21
600.934900
0
LINE
8
Calque 1
10
318.554510
20
600.934900
11
318.262335
21
601.108075
0
LINE
8
Calque 1
10
318.262335
20
601.108075
11
318.183370
21
600.916900
0
LINE
8
Calque 1
10
318.183370
20
600.916900
11
318.016594
21
600.715175
0
LINE
8
Calque 1
10
318.016594
20
600.715175
11
317.521910
21
600.757200
0
LINE
8
Calque 1
10
317.521910
20
600.757200
11
317.023495
21
600.798837
0
LINE
8
Calque 1
10
317.023495
20
600.798837
11
316.856400
21
600.587500
0
LINE
8
Calque 1
10
316.856400
20
600.587500
11
316.799650
21
600.412612
0
LINE
8
Calque 1
10
316.799650
20
600.412612
11
316.616300
21
600.624500
0
LINE
8
Calque 1
10
316.616300
20
600.624500
11
316.488586
21
601.011487
0
LINE
8
Calque 1
10
316.488586
20
601.011487
11
316.513010
21
601.418200
0
LINE
8
Calque 1
10
316.513010
20
601.418200
11
316.571586
21
601.691587
0
LINE
8
Calque 1
10
316.571586
20
601.691587
11
316.373700
21
601.455200
0
LINE
8
Calque 1
10
316.373700
20
601.455200
11
316.220760
21
600.878100
0
LINE
8
Calque 1
10
316.220760
20
600.878100
11
316.225855
21
600.693175
0
LINE
8
Calque 1
10
316.225855
20
600.693175
11
316.071020
21
600.519200
0
LINE
8
Calque 1
10
316.071020
20
600.519200
11
315.871360
21
600.578800
0
LINE
8
Calque 1
10
315.871360
20
600.578800
11
315.771420
21
600.963900
0
LINE
8
Calque 1
10
315.771420
20
600.963900
11
315.720581
21
601.336025
0
LINE
8
Calque 1
10
315.720581
20
601.336025
11
315.619110
21
601.108600
0
LINE
8
Calque 1
10
315.619110
20
601.108600
11
315.466968
21
600.820200
0
LINE
8
Calque 1
10
315.466968
20
600.820200
11
315.271970
21
600.781700
0
LINE
8
Calque 1
10
315.271970
20
600.781700
11
315.064273
21
600.727800
0
LINE
8
Calque 1
10
315.064273
20
600.727800
11
314.881580
21
600.401500
0
LINE
8
Calque 1
10
314.881580
20
600.401500
11
314.657146
21
600.063725
0
LINE
8
Calque 1
10
314.657146
20
600.063725
11
314.333360
21
600.029100
0
LINE
8
Calque 1
10
314.333360
20
600.029100
11
314.035503
21
600.214455
0
LINE
8
Calque 1
10
314.035503
20
600.214455
11
313.958779
21
600.401787
0
LINE
8
Calque 1
10
313.958779
20
600.401787
11
314.089270
21
600.513652
0
LINE
8
Calque 1
10
314.089270
20
600.513652
11
314.413060
21
600.472600
0
LINE
8
Calque 1
10
314.413060
20
600.472600
11
314.682185
21
600.427062
0
LINE
8
Calque 1
10
314.682185
20
600.427062
11
314.346960
21
600.737100
0
LINE
8
Calque 1
10
314.346960
20
600.737100
11
314.065786
21
601.041237
0
LINE
8
Calque 1
10
314.065786
20
601.041237
11
314.148520
21
601.169500
0
LINE
8
Calque 1
10
314.148520
20
601.169500
11
314.382097
21
601.260387
0
LINE
8
Calque 1
10
314.382097
20
601.260387
11
314.479250
21
601.473000
0
LINE
8
Calque 1
10
314.479250
20
601.473000
11
314.305034
21
601.574462
0
LINE
8
Calque 1
10
314.305034
20
601.574462
11
313.831590
21
601.343600
0
LINE
8
Calque 1
10
313.831590
20
601.343600
11
313.328152
21
601.113675
0
LINE
8
Calque 1
10
313.328152
20
601.113675
11
313.032630
21
601.164100
0
LINE
8
Calque 1
10
313.032630
20
601.164100
11
312.765020
21
601.324837
0
LINE
8
Calque 1
10
312.765020
20
601.324837
11
312.334060
21
601.367600
0
LINE
8
Calque 1
10
312.334060
20
601.367600
11
311.931711
21
601.271312
0
LINE
8
Calque 1
10
311.931711
20
601.271312
11
312.368560
21
600.855300
0
LINE
8
Calque 1
10
312.368560
20
600.855300
11
312.703721
21
600.522587
0
LINE
8
Calque 1
10
312.703721
20
600.522587
11
312.692540
21
600.384200
0
LINE
8
Calque 1
10
312.692540
20
600.384200
11
311.758420
21
601.060500
0
LINE
8
Calque 1
10
311.758420
20
601.060500
11
311.253532
21
601.480925
0
LINE
8
Calque 1
10
311.253532
20
601.480925
11
311.153761
21
601.467778
0
LINE
8
Calque 1
10
311.153761
20
601.467778
11
311.144720
21
601.310200
0
LINE
8
Calque 1
10
311.144720
20
601.310200
11
312.543249
21
599.652962
0
LINE
8
Calque 1
10
312.543249
20
599.652962
11
315.817790
21
596.267500
0
LINE
8
Calque 1
10
315.817790
20
596.267500
11
320.428260
21
591.651400
0
LINE
8
Calque 1
10
320.428260
20
591.651400
11
322.456370
21
595.687100
0
LINE
8
Calque 1
10
322.456370
20
595.687100
11
324.484480
21
599.722700
0
LINE
8
Calque 1
10
324.484480
20
599.722700
11
323.786500
21
600.462700
0
LINE
8
Calque 1
10
317.340010
20
600.300800
11
317.847130
21
600.279800
0
LINE
8
Calque 1
10
317.847130
20
600.279800
11
317.811034
21
600.172988
0
LINE
8
Calque 1
10
317.811034
20
600.172988
11
317.499860
21
600.140800
0
LINE
8
Calque 1
10
317.499860
20
600.140800
11
317.225197
21
600.193788
0
LINE
8
Calque 1
10
317.225197
20
600.193788
11
317.340010
21
600.300700
0
LINE
8
Calque 1
10
317.340010
20
600.300700
11
317.340010
21
600.300800
0
LINE
8
Calque 1
10
320.961490
20
600.913800
11
321.241690
21
601.178300
0
LINE
8
Calque 1
10
321.241690
20
601.178300
11
321.358370
21
600.913800
0
LINE
8
Calque 1
10
321.358370
20
600.913800
11
321.276061
21
600.726900
0
LINE
8
Calque 1
10
321.276061
20
600.726900
11
321.078170
21
600.649200
0
LINE
8
Calque 1
10
321.078170
20
600.649200
11
320.928311
21
600.726900
0
LINE
8
Calque 1
10
320.928311
20
600.726900
11
320.961490
21
600.913800
0
LINE
8
Calque 1
10
320.961490
20
600.913800
11
320.961490
21
600.913800
0
LINE
8
Calque 1
10
505.643490
20
596.734500
11
509.024866
21
600.185575
0
LINE
8
Calque 1
10
509.024866
20
600.185575
11
509.923405
21
601.128356
0
LINE
8
Calque 1
10
509.923405
20
601.128356
11
510.110677
21
601.337842
0
LINE
8
Calque 1
10
510.110677
20
601.337842
11
510.098920
21
601.347500
0
LINE
8
Calque 1
10
510.098920
20
601.347500
11
509.630237
21
601.069950
0
LINE
8
Calque 1
10
509.630237
20
601.069950
11
509.355700
21
601.161100
0
LINE
8
Calque 1
10
509.355700
20
601.161100
11
508.881980
21
601.442900
0
LINE
8
Calque 1
10
508.881980
20
601.442900
11
508.821310
21
601.328800
0
LINE
8
Calque 1
10
508.821310
20
601.328800
11
509.096040
21
601.054500
0
LINE
8
Calque 1
10
509.096040
20
601.054500
11
509.452701
21
600.727088
0
LINE
8
Calque 1
10
509.452701
20
600.727088
11
509.146640
21
600.657600
0
LINE
8
Calque 1
10
509.146640
20
600.657600
11
508.819632
21
600.571088
0
LINE
8
Calque 1
10
508.819632
20
600.571088
11
508.683620
21
600.369000
0
LINE
8
Calque 1
10
508.683620
20
600.369000
11
508.605612
21
600.219300
0
LINE
8
Calque 1
10
508.605612
20
600.219300
11
508.418060
21
600.252900
0
LINE
8
Calque 1
10
508.418060
20
600.252900
11
508.278085
21
600.558263
0
LINE
8
Calque 1
10
508.278085
20
600.558263
11
508.314450
21
601.062300
0
LINE
8
Calque 1
10
508.314450
20
601.062300
11
508.348652
21
601.563400
0
LINE
8
Calque 1
10
508.348652
20
601.563400
11
508.066460
21
601.707500
0
LINE
8
Calque 1
10
508.066460
20
601.707500
11
507.720736
21
601.616575
0
LINE
8
Calque 1
10
507.720736
20
601.616575
11
507.465200
21
601.398000
0
LINE
8
Calque 1
10
507.465200
20
601.398000
11
507.425624
21
601.206725
0
LINE
8
Calque 1
10
507.425624
20
601.206725
11
507.678990
21
601.243900
0
LINE
8
Calque 1
10
507.678990
20
601.243900
11
507.954557
21
601.256575
0
LINE
8
Calque 1
10
507.954557
20
601.256575
11
507.797240
21
600.791500
0
LINE
8
Calque 1
10
507.797240
20
600.791500
11
507.515445
21
600.421936
0
LINE
8
Calque 1
10
507.515445
20
600.421936
11
507.169209
21
600.259213
0
LINE
8
Calque 1
10
507.169209
20
600.259213
11
506.843888
21
600.316708
0
LINE
8
Calque 1
10
506.843888
20
600.316708
11
506.624840
21
600.607800
0
LINE
8
Calque 1
10
506.624840
20
600.607800
11
506.468945
21
600.774863
0
LINE
8
Calque 1
10
506.468945
20
600.774863
11
506.238890
21
600.742200
0
LINE
8
Calque 1
10
506.238890
20
600.742200
11
506.086501
21
600.704113
0
LINE
8
Calque 1
10
506.086501
20
600.704113
11
506.169590
21
600.913000
0
LINE
8
Calque 1
10
506.169590
20
600.913000
11
506.403982
21
601.101025
0
LINE
8
Calque 1
10
506.403982
20
601.101025
11
506.699650
21
600.826000
0
LINE
8
Calque 1
10
506.699650
20
600.826000
11
506.973789
21
600.570863
0
LINE
8
Calque 1
10
506.973789
20
600.570863
11
507.188430
21
600.565400
0
LINE
8
Calque 1
10
507.188430
20
600.565400
11
507.340290
21
600.965617
0
LINE
8
Calque 1
10
507.340290
20
600.965617
11
507.004039
21
601.210988
0
LINE
8
Calque 1
10
507.004039
20
601.210988
11
506.369789
21
601.246489
0
LINE
8
Calque 1
10
506.369789
20
601.246489
11
505.627650
21
601.017100
0
LINE
8
Calque 1
10
505.627650
20
601.017100
11
504.706709
21
600.664063
0
LINE
8
Calque 1
10
504.706709
20
600.664063
11
504.531744
21
600.712380
0
LINE
8
Calque 1
10
504.531744
20
600.712380
11
504.582590
21
600.914100
0
LINE
8
Calque 1
10
504.582590
20
600.914100
11
504.576894
21
601.100913
0
LINE
8
Calque 1
10
504.576894
20
601.100913
11
504.333620
21
601.178600
0
LINE
8
Calque 1
10
504.333620
20
601.178600
11
504.042299
21
601.113925
0
LINE
8
Calque 1
10
504.042299
20
601.113925
11
503.921130
21
600.958200
0
LINE
8
Calque 1
10
503.921130
20
600.958200
11
503.804545
21
600.802463
0
LINE
8
Calque 1
10
503.804545
20
600.802463
11
503.524250
21
600.737700
0
LINE
8
Calque 1
10
503.524250
20
600.737700
11
503.243960
21
600.811988
0
LINE
8
Calque 1
10
503.243960
20
600.811988
11
503.127380
21
600.990600
0
LINE
8
Calque 1
10
503.127380
20
600.990600
11
503.004711
21
601.067350
0
LINE
8
Calque 1
10
503.004711
20
601.067350
11
502.709790
21
600.896600
0
LINE
8
Calque 1
10
502.709790
20
600.896600
11
502.165327
21
600.620392
0
LINE
8
Calque 1
10
502.165327
20
600.620392
11
501.540105
21
600.511538
0
LINE
8
Calque 1
10
501.540105
20
600.511538
11
501.055621
21
600.578464
0
LINE
8
Calque 1
10
501.055621
20
600.578464
11
500.933370
21
600.829600
0
LINE
8
Calque 1
10
500.933370
20
600.829600
11
501.110061
21
601.070820
0
LINE
8
Calque 1
10
501.110061
20
601.070820
11
501.370897
21
601.165988
0
LINE
8
Calque 1
10
501.370897
20
601.165988
11
501.972030
21
600.905600
0
LINE
8
Calque 1
10
501.972030
20
600.905600
11
502.179286
21
600.796550
0
LINE
8
Calque 1
10
502.179286
20
600.796550
11
502.245430
21
601.037900
0
LINE
8
Calque 1
10
502.245430
20
601.037900
11
502.130030
21
601.328200
0
LINE
8
Calque 1
10
502.130030
20
601.328200
11
501.365260
21
601.459700
0
LINE
8
Calque 1
10
501.365260
20
601.459700
11
500.922247
21
601.576900
0
LINE
8
Calque 1
10
500.922247
20
601.576900
11
500.878910
21
601.442700
0
LINE
8
Calque 1
10
500.878910
20
601.442700
11
500.911739
21
601.256475
0
LINE
8
Calque 1
10
500.911739
20
601.256475
11
500.761740
21
601.179000
0
LINE
8
Calque 1
10
500.761740
20
601.179000
11
500.563464
21
601.276138
0
LINE
8
Calque 1
10
500.563464
20
601.276138
11
500.480230
21
601.509700
0
LINE
8
Calque 1
10
500.480230
20
601.509700
11
500.279734
21
601.509913
0
LINE
8
Calque 1
10
500.279734
20
601.509913
11
499.799630
21
601.046700
0
LINE
8
Calque 1
10
499.799630
20
601.046700
11
499.359245
21
600.567525
0
LINE
8
Calque 1
10
499.359245
20
600.567525
11
499.254320
21
600.530100
0
LINE
8
Calque 1
10
499.254320
20
600.530100
11
499.145220
21
601.191600
0
LINE
8
Calque 1
10
499.145220
20
601.191600
11
498.943456
21
601.443100
0
LINE
8
Calque 1
10
498.943456
20
601.443100
11
498.898090
21
601.192100
0
LINE
8
Calque 1
10
498.898090
20
601.192100
11
498.828780
21
600.956513
0
LINE
8
Calque 1
10
498.828780
20
600.956513
11
498.583910
21
601.119100
0
LINE
8
Calque 1
10
498.583910
20
601.119100
11
498.393768
21
601.226861
0
LINE
8
Calque 1
10
498.393768
20
601.226861
11
498.157622
21
601.184838
0
LINE
8
Calque 1
10
498.157622
20
601.184838
11
497.419020
21
600.593500
0
LINE
8
Calque 1
10
497.419020
20
600.593500
11
496.564240
21
599.757700
0
LINE
8
Calque 1
10
496.564240
20
599.757700
11
498.585080
21
595.706100
0
LINE
8
Calque 1
10
498.585080
20
595.706100
11
500.612490
21
591.654400
0
LINE
8
Calque 1
10
500.612490
20
591.654400
11
505.643530
21
596.735600
0
LINE
8
Calque 1
10
505.643530
20
596.735600
11
505.643490
21
596.734500
0
LINE
8
Calque 1
10
317.786490
20
601.178300
11
317.307860
21
601.438900
0
LINE
8
Calque 1
10
317.307860
20
601.438900
11
317.188316
21
601.366425
0
LINE
8
Calque 1
10
317.188316
20
601.366425
11
317.389660
21
601.178300
0
LINE
8
Calque 1
10
317.389660
20
601.178300
11
317.854836
21
600.932000
0
LINE
8
Calque 1
10
317.854836
20
600.932000
11
317.786530
21
601.178300
0
LINE
8
Calque 1
10
317.786530
20
601.178300
11
317.786490
21
601.178300
0
LINE
8
Calque 1
10
311.665730
20
606.256400
11
311.979329
21
606.293088
0
LINE
8
Calque 1
10
311.979329
20
606.293088
11
312.337050
21
606.124200
0
LINE
8
Calque 1
10
312.337050
20
606.124200
11
312.618296
21
605.958438
0
LINE
8
Calque 1
10
312.618296
20
605.958438
11
312.550320
21
606.277700
0
LINE
8
Calque 1
10
312.550320
20
606.277700
11
312.500857
21
606.611350
0
LINE
8
Calque 1
10
312.500857
20
606.611350
11
312.897660
21
606.466800
0
LINE
8
Calque 1
10
312.897660
20
606.466800
11
313.420870
21
605.931500
0
LINE
8
Calque 1
10
313.420870
20
605.931500
11
313.534462
21
605.725072
0
LINE
8
Calque 1
10
313.534462
20
605.725072
11
313.811934
21
605.688200
0
LINE
8
Calque 1
10
313.811934
20
605.688200
11
314.158329
21
605.808228
0
LINE
8
Calque 1
10
314.158329
20
605.808228
11
314.478690
21
606.072500
0
LINE
8
Calque 1
10
314.478690
20
606.072500
11
314.862381
21
606.297011
0
LINE
8
Calque 1
10
314.862381
20
606.297011
11
315.402995
21
606.348488
0
LINE
8
Calque 1
10
315.402995
20
606.348488
11
315.965546
21
606.234570
0
LINE
8
Calque 1
10
315.965546
20
606.234570
11
316.415050
21
605.962900
0
LINE
8
Calque 1
10
316.415050
20
605.962900
11
316.734262
21
605.833375
0
LINE
8
Calque 1
10
316.734262
20
605.833375
11
317.165570
21
605.962600
0
LINE
8
Calque 1
10
317.165570
20
605.962600
11
317.654200
21
606.050600
0
LINE
8
Calque 1
10
317.654200
20
606.050600
11
318.027520
21
606.186400
0
LINE
8
Calque 1
10
318.027520
20
606.186400
11
318.360829
21
606.362125
0
LINE
8
Calque 1
10
318.360829
20
606.362125
11
318.589760
21
606.186400
0
LINE
8
Calque 1
10
318.589760
20
606.186400
11
318.787397
21
606.031062
0
LINE
8
Calque 1
10
318.787397
20
606.031062
11
319.006140
21
606.239400
0
LINE
8
Calque 1
10
319.006140
20
606.239400
11
319.183541
21
606.443825
0
LINE
8
Calque 1
10
319.183541
20
606.443825
11
319.237650
21
606.267400
0
LINE
8
Calque 1
10
319.237650
20
606.267400
11
319.338047
21
606.033838
0
LINE
8
Calque 1
10
319.338047
20
606.033838
11
319.574030
21
605.936700
0
LINE
8
Calque 1
10
319.574030
20
605.936700
11
322.191540
21
608.326600
0
LINE
8
Calque 1
10
322.191540
20
608.326600
11
328.018030
21
614.072600
0
LINE
8
Calque 1
10
328.018030
20
614.072600
11
335.236569
21
621.475725
0
LINE
8
Calque 1
10
335.236569
20
621.475725
11
336.518751
21
623.134728
0
LINE
8
Calque 1
10
336.518751
20
623.134728
11
337.371870
21
624.708100
0
LINE
8
Calque 1
10
337.371870
20
624.708100
11
339.160801
21
628.010605
0
LINE
8
Calque 1
10
339.160801
20
628.010605
11
340.841881
21
630.442763
0
LINE
8
Calque 1
10
340.841881
20
630.442763
11
342.526998
21
632.141889
0
LINE
8
Calque 1
10
342.526998
20
632.141889
11
344.328040
21
633.245300
0
LINE
8
Calque 1
10
344.328040
20
633.245300
11
345.410101
21
633.603838
0
LINE
8
Calque 1
10
345.410101
20
633.603838
11
346.301070
21
633.467900
0
LINE
8
Calque 1
10
346.301070
20
633.467900
11
347.099109
21
633.333500
0
LINE
8
Calque 1
10
347.099109
20
633.333500
11
347.765560
21
633.811100
0
LINE
8
Calque 1
10
347.765560
20
633.811100
11
348.398570
21
634.444100
0
LINE
8
Calque 1
10
348.398570
20
634.444100
11
346.963380
21
634.623400
0
LINE
8
Calque 1
10
346.963380
20
634.623400
11
344.767517
21
634.640741
0
LINE
8
Calque 1
10
344.767517
20
634.640741
11
342.441610
21
634.214850
0
LINE
8
Calque 1
10
342.441610
20
634.214850
11
340.192503
21
633.401734
0
LINE
8
Calque 1
10
340.192503
20
633.401734
11
338.227040
21
632.257400
0
LINE
8
Calque 1
10
338.227040
20
632.257400
11
337.018891
21
631.202125
0
LINE
8
Calque 1
10
337.018891
20
631.202125
11
336.012026
21
629.958675
0
LINE
8
Calque 1
10
336.012026
20
629.958675
11
335.198648
21
628.515538
0
LINE
8
Calque 1
10
335.198648
20
628.515538
11
334.570960
21
626.861200
0
LINE
8
Calque 1
10
334.570960
20
626.861200
11
333.660143
21
624.479470
0
LINE
8
Calque 1
10
333.660143
20
624.479470
11
332.515056
21
622.608313
0
LINE
8
Calque 1
10
332.515056
20
622.608313
11
331.087244
21
621.185673
0
LINE
8
Calque 1
10
331.087244
20
621.185673
11
329.328250
21
620.149500
0
LINE
8
Calque 1
10
329.328250
20
620.149500
11
327.878716
21
619.714247
0
LINE
8
Calque 1
10
327.878716
20
619.714247
11
326.141755
21
619.492200
0
LINE
8
Calque 1
10
326.141755
20
619.492200
11
324.424189
21
619.502203
0
LINE
8
Calque 1
10
324.424189
20
619.502203
11
323.032840
21
619.763100
0
LINE
8
Calque 1
10
323.032840
20
619.763100
11
321.929190
21
620.147900
0
LINE
8
Calque 1
10
321.929190
20
620.147900
11
315.722770
21
613.902200
0
LINE
8
Calque 1
10
315.722770
20
613.902200
11
311.244746
21
609.307200
0
LINE
8
Calque 1
10
311.244746
20
609.307200
11
309.193820
21
607.030300
0
LINE
8
Calque 1
10
309.193820
20
607.030300
11
309.012535
21
606.442663
0
LINE
8
Calque 1
10
309.012535
20
606.442663
11
309.294000
21
605.981400
0
LINE
8
Calque 1
10
309.294000
20
605.981400
11
309.650554
21
605.703675
0
LINE
8
Calque 1
10
309.650554
20
605.703675
11
309.716700
21
606.062400
0
LINE
8
Calque 1
10
309.716700
20
606.062400
11
309.772587
21
606.429925
0
LINE
8
Calque 1
10
309.772587
20
606.429925
11
310.133200
21
606.052400
0
LINE
8
Calque 1
10
310.133200
20
606.052400
11
310.378137
21
605.786800
0
LINE
8
Calque 1
10
310.378137
20
605.786800
11
310.382160
21
605.869500
0
LINE
8
Calque 1
10
310.382160
20
605.869500
11
310.376519
21
606.107900
0
LINE
8
Calque 1
10
310.376519
20
606.107900
11
310.627130
21
606.200200
0
LINE
8
Calque 1
10
310.627130
20
606.200200
11
310.924588
21
606.064213
0
LINE
8
Calque 1
10
310.924588
20
606.064213
11
311.060510
21
605.737200
0
LINE
8
Calque 1
10
311.060510
20
605.737200
11
311.107580
21
605.447325
0
LINE
8
Calque 1
10
311.107580
20
605.447325
11
311.232470
21
605.671200
0
LINE
8
Calque 1
10
311.232470
20
605.671200
11
311.665730
21
606.251400
0
LINE
8
Calque 1
10
311.665730
20
606.251400
11
311.665730
21
606.256400
0
LINE
8
Calque 1
10
315.140660
20
605.940800
11
315.173812
21
606.127700
0
LINE
8
Calque 1
10
315.173812
20
606.127700
11
315.023980
21
606.205400
0
LINE
8
Calque 1
10
315.023980
20
606.205400
11
314.826089
21
606.127700
0
LINE
8
Calque 1
10
314.826089
20
606.127700
11
314.743780
21
605.940800
0
LINE
8
Calque 1
10
314.743780
20
605.940800
11
314.860460
21
605.676300
0
LINE
8
Calque 1
10
314.860460
20
605.676300
11
315.140660
21
605.940800
0
LINE
8
Calque 1
10
315.140660
20
605.940800
11
315.140660
21
605.940800
0
LINE
8
Calque 1
10
504.780660
20
606.374500
11
505.107667
21
606.339688
0
LINE
8
Calque 1
10
505.107667
20
606.339688
11
505.243680
21
606.204000
0
LINE
8
Calque 1
10
505.243680
20
606.204000
11
505.418554
21
606.058388
0
LINE
8
Calque 1
10
505.418554
20
606.058388
11
505.839000
21
605.999100
0
LINE
8
Calque 1
10
505.839000
20
605.999100
11
507.205100
21
605.825800
0
LINE
8
Calque 1
10
507.205100
20
605.825800
11
507.777110
21
605.752213
0
LINE
8
Calque 1
10
507.777110
20
605.752213
11
507.658460
21
606.032700
0
LINE
8
Calque 1
10
507.658460
20
606.032700
11
507.523452
21
606.335438
0
LINE
8
Calque 1
10
507.523452
20
606.335438
11
507.986750
21
606.376500
0
LINE
8
Calque 1
10
507.986750
20
606.376500
11
508.410134
21
606.296338
0
LINE
8
Calque 1
10
508.410134
20
606.296338
11
508.521270
21
606.157600
0
LINE
8
Calque 1
10
508.521270
20
606.157600
11
508.678950
21
605.811200
0
LINE
8
Calque 1
10
508.678950
20
605.811200
11
508.868916
21
605.756825
0
LINE
8
Calque 1
10
508.868916
20
605.756825
11
508.948040
21
605.859200
0
LINE
8
Calque 1
10
508.948040
20
605.859200
11
509.175762
21
606.048438
0
LINE
8
Calque 1
10
509.175762
20
606.048438
11
509.708150
21
606.109350
0
LINE
8
Calque 1
10
509.708150
20
606.109350
11
510.319617
21
606.042688
0
LINE
8
Calque 1
10
510.319617
20
606.042688
11
510.784580
21
605.849200
0
LINE
8
Calque 1
10
510.784580
20
605.849200
11
511.044416
21
605.675025
0
LINE
8
Calque 1
10
511.044416
20
605.675025
11
510.978700
21
605.859200
0
LINE
8
Calque 1
10
510.978700
20
605.859200
11
510.925336
21
606.128700
0
LINE
8
Calque 1
10
510.925336
20
606.128700
11
511.060200
21
606.337900
0
LINE
8
Calque 1
10
511.060200
20
606.337900
11
511.250112
21
606.372763
0
LINE
8
Calque 1
10
511.250112
20
606.372763
11
511.329100
21
606.223800
0
LINE
8
Calque 1
10
511.329100
20
606.223800
11
511.445681
21
606.025913
0
LINE
8
Calque 1
10
511.445681
20
606.025913
11
511.725980
21
605.943600
0
LINE
8
Calque 1
10
511.725980
20
605.943600
11
512.014699
21
606.036722
0
LINE
8
Calque 1
10
512.014699
20
606.036722
11
512.104576
21
606.302775
0
LINE
8
Calque 1
10
512.104576
20
606.302775
11
511.689980
21
607.273800
0
LINE
8
Calque 1
10
511.689980
20
607.273800
11
505.183060
21
614.040100
0
LINE
8
Calque 1
10
505.183060
20
614.040100
11
499.109030
21
620.152300
0
LINE
8
Calque 1
10
499.109030
20
620.152300
11
498.009180
21
619.768800
0
LINE
8
Calque 1
10
498.009180
20
619.768800
11
496.619759
21
619.508781
0
LINE
8
Calque 1
10
496.619759
20
619.508781
11
494.902829
21
619.499375
0
LINE
8
Calque 1
10
494.902829
20
619.499375
11
493.166172
21
619.721606
0
LINE
8
Calque 1
10
493.166172
20
619.721606
11
491.717570
21
620.156500
0
LINE
8
Calque 1
10
491.717570
20
620.156500
11
489.958576
21
621.192631
0
LINE
8
Calque 1
10
489.958576
20
621.192631
11
488.530764
21
622.615275
0
LINE
8
Calque 1
10
488.530764
20
622.615275
11
487.385677
21
624.486456
0
LINE
8
Calque 1
10
487.385677
20
624.486456
11
486.474860
21
626.868200
0
LINE
8
Calque 1
10
486.474860
20
626.868200
11
485.847172
21
628.522538
0
LINE
8
Calque 1
10
485.847172
20
628.522538
11
485.033794
21
629.965675
0
LINE
8
Calque 1
10
485.033794
20
629.965675
11
484.026929
21
631.209125
0
LINE
8
Calque 1
10
484.026929
20
631.209125
11
482.818780
21
632.264400
0
LINE
8
Calque 1
10
482.818780
20
632.264400
11
480.853317
21
633.408692
0
LINE
8
Calque 1
10
480.853317
20
633.408692
11
478.604210
21
634.221813
0
LINE
8
Calque 1
10
478.604210
20
634.221813
11
476.278303
21
634.647727
0
LINE
8
Calque 1
10
476.278303
20
634.647727
11
474.082440
21
634.630400
0
LINE
8
Calque 1
10
474.082440
20
634.630400
11
472.647250
21
634.451100
0
LINE
8
Calque 1
10
472.647250
20
634.451100
11
473.280260
21
633.818100
0
LINE
8
Calque 1
10
473.280260
20
633.818100
11
473.946711
21
633.340500
0
LINE
8
Calque 1
10
473.946711
20
633.340500
11
474.744750
21
633.474900
0
LINE
8
Calque 1
10
474.744750
20
633.474900
11
475.635719
21
633.610838
0
LINE
8
Calque 1
10
475.635719
20
633.610838
11
476.717780
21
633.252300
0
LINE
8
Calque 1
10
476.717780
20
633.252300
11
478.517002
21
632.154159
0
LINE
8
Calque 1
10
478.517002
20
632.154159
11
480.198839
21
630.456075
0
LINE
8
Calque 1
10
480.198839
20
630.456075
11
481.901239
21
627.988228
0
LINE
8
Calque 1
10
481.901239
20
627.988228
11
483.762150
21
624.580800
0
LINE
8
Calque 1
10
483.762150
20
624.580800
11
485.089940
21
621.950900
0
LINE
8
Calque 1
10
485.089940
20
621.950900
11
493.116300
21
614.007600
0
LINE
8
Calque 1
10
493.116300
20
614.007600
11
499.929744
21
607.403437
0
LINE
8
Calque 1
10
499.929744
20
607.403437
11
501.286209
21
606.309267
0
LINE
8
Calque 1
10
501.286209
20
606.309267
11
501.994450
21
606.042300
0
LINE
8
Calque 1
10
501.994450
20
606.042300
11
502.555282
21
606.092737
0
LINE
8
Calque 1
10
502.555282
20
606.092737
11
502.707530
21
606.244800
0
LINE
8
Calque 1
10
502.707530
20
606.244800
11
502.799463
21
606.387637
0
LINE
8
Calque 1
10
502.799463
20
606.387637
11
503.215290
21
606.415800
0
LINE
8
Calque 1
10
503.215290
20
606.415800
11
503.676241
21
606.277025
0
LINE
8
Calque 1
10
503.676241
20
606.277025
11
503.737390
21
605.954500
0
LINE
8
Calque 1
10
503.737390
20
605.954500
11
503.692878
21
605.681550
0
LINE
8
Calque 1
10
503.692878
20
605.681550
11
503.965330
21
605.943500
0
LINE
8
Calque 1
10
503.965330
20
605.943500
11
504.350175
21
606.234637
0
LINE
8
Calque 1
10
504.350175
20
606.234637
11
504.780680
21
606.377200
0
LINE
8
Calque 1
10
504.780680
20
606.377200
11
504.780660
21
606.374500
0
LINE
8
Calque 1
10
372.159660
20
657.948500
11
386.313960
21
672.120800
0
LINE
8
Calque 1
10
386.313960
20
672.120800
11
383.647640
21
674.683400
0
LINE
8
Calque 1
10
383.647640
20
674.683400
11
381.550944
21
676.606712
0
LINE
8
Calque 1
10
381.550944
20
676.606712
11
380.254130
21
677.632200
0
LINE
8
Calque 1
10
380.254130
20
677.632200
11
379.526940
21
678.018400
0
LINE
8
Calque 1
10
379.526940
20
678.018400
11
370.362580
21
668.768700
0
LINE
8
Calque 1
10
370.362580
20
668.768700
11
355.423480
21
653.685800
0
LINE
8
Calque 1
10
355.423480
20
653.685800
11
349.648750
21
647.852600
0
LINE
8
Calque 1
10
349.648750
20
647.852600
11
350.412440
21
646.798300
0
LINE
8
Calque 1
10
350.412440
20
646.798300
11
350.879553
21
646.221828
0
LINE
8
Calque 1
10
350.879553
20
646.221828
11
351.373356
21
645.839925
0
LINE
8
Calque 1
10
351.373356
20
645.839925
11
353.134620
21
645.270500
0
LINE
8
Calque 1
10
353.134620
20
645.270500
11
356.283740
21
644.301400
0
LINE
8
Calque 1
10
356.283740
20
644.301400
11
357.739870
21
643.791000
0
LINE
8
Calque 1
10
357.739870
20
643.791000
11
362.085209
21
647.942988
0
LINE
8
Calque 1
10
362.085209
20
647.942988
11
372.159670
21
657.948500
0
LINE
8
Calque 1
10
372.159670
20
657.948500
11
372.159660
21
657.948500
0
LINE
8
Calque 1
10
465.062160
20
644.407100
11
468.303080
21
645.383000
0
LINE
8
Calque 1
10
468.303080
20
645.383000
11
469.718926
21
645.855613
0
LINE
8
Calque 1
10
469.718926
20
645.855613
11
470.628410
21
646.790300
0
LINE
8
Calque 1
10
470.628410
20
646.790300
11
471.397960
21
647.852600
0
LINE
8
Calque 1
10
471.397960
20
647.852600
11
465.490660
21
653.818100
0
LINE
8
Calque 1
10
465.490660
20
653.818100
11
450.551760
21
668.901100
0
LINE
8
Calque 1
10
450.551760
20
668.901100
11
441.520140
21
678.018600
0
LINE
8
Calque 1
10
441.520140
20
678.018600
11
440.792760
21
677.632300
0
LINE
8
Calque 1
10
440.792760
20
677.632300
11
439.495819
21
676.606763
0
LINE
8
Calque 1
10
439.495819
20
676.606763
11
437.399070
21
674.683400
0
LINE
8
Calque 1
10
437.399070
20
674.683400
11
434.732750
21
672.120800
0
LINE
8
Calque 1
10
434.732750
20
672.120800
11
448.887050
21
657.948500
0
LINE
8
Calque 1
10
448.887050
20
657.948500
11
463.209150
21
643.776300
0
LINE
8
Calque 1
10
463.209150
20
643.776300
11
465.062160
21
644.407100
0
LINE
8
Calque 1
10
465.062160
20
644.407100
11
465.062160
21
644.407100
0
LINE
8
Calque 1
10
410.523360
20
702.299800
11
416.915870
21
702.114900
0
LINE
8
Calque 1
10
416.915870
20
702.114900
11
417.014443
21
702.213581
0
LINE
8
Calque 1
10
417.014443
20
702.213581
11
416.737702
21
702.635752
0
LINE
8
Calque 1
10
416.737702
20
702.635752
11
415.435531
21
704.068388
0
LINE
8
Calque 1
10
415.435531
20
704.068388
11
413.763852
21
705.648455
0
LINE
8
Calque 1
10
413.763852
20
705.648455
11
412.477160
21
706.611600
0
LINE
8
Calque 1
10
412.477160
20
706.611600
11
411.563146
21
706.899600
0
LINE
8
Calque 1
10
411.563146
20
706.899600
11
410.523360
21
706.995600
0
LINE
8
Calque 1
10
410.523360
20
706.995600
11
409.483574
21
706.899600
0
LINE
8
Calque 1
10
409.483574
20
706.899600
11
408.569560
21
706.611600
0
LINE
8
Calque 1
10
408.569560
20
706.611600
11
407.282868
21
705.648455
0
LINE
8
Calque 1
10
407.282868
20
705.648455
11
405.611189
21
704.068388
0
LINE
8
Calque 1
10
405.611189
20
704.068388
11
404.309018
21
702.635752
0
LINE
8
Calque 1
10
404.309018
20
702.635752
11
404.032277
21
702.213581
0
LINE
8
Calque 1
10
404.032277
20
702.213581
11
404.130850
21
702.114900
0
LINE
8
Calque 1
10
404.130850
20
702.114900
11
410.523360
21
702.299800
0
LINE
8
Calque 1
10
410.523360
20
702.299800
11
410.523360
21
702.299800
 0 
ENDSEC
 0 
EOF