999
"DXF R12 Output" (www.mydxf.blogspot.com)
 0 
SECTION
 2 
HEADER
 9 
$ACADVER
 1 
AC1009
 9 
$EXTMIN
 10 
 0 
 20 
 0 
 9 
$EXTMAX
 10 
 8.5 
 20 
 11 
 0 
ENDSEC
 0 
SECTION
 2 
ENTITIES
0
LINE
8
Calque 1
10
312.901000
20
535.027000
11
233.658600
21
614.269800
0
LINE
8
Calque 1
10
233.658600
20
614.269800
11
312.967300
21
693.578600
0
LINE
8
Calque 1
10
312.967300
20
693.578600
11
392.276000
21
772.887300
0
LINE
8
Calque 1
10
392.276000
20
772.887300
11
471.584700
21
693.578600
0
LINE
8
Calque 1
10
471.584700
20
693.578600
11
550.893500
21
614.269800
0
LINE
8
Calque 1
10
550.893500
20
614.269800
11
471.651100
21
535.027000
0
LINE
8
Calque 1
10
471.651100
20
535.027000
11
392.276000
21
455.784300
0
LINE
8
Calque 1
10
392.276000
20
455.784300
11
312.901000
21
535.027000
0
LINE
8
Calque 1
10
312.901000
20
535.027000
11
312.901000
21
535.027000
0
LINE
8
Calque 1
10
394.392700
20
466.992600
11
396.732225
21
468.986813
0
LINE
8
Calque 1
10
396.732225
20
468.986813
11
397.824738
21
470.109370
0
LINE
8
Calque 1
10
397.824738
20
470.109370
11
398.137250
21
470.611500
0
LINE
8
Calque 1
10
398.137250
20
470.611500
11
398.700030
21
471.021000
0
LINE
8
Calque 1
10
398.700030
20
471.021000
11
399.172501
21
471.378613
0
LINE
8
Calque 1
10
399.172501
20
471.378613
11
399.275680
21
471.678400
0
LINE
8
Calque 1
10
399.275680
20
471.678400
11
399.228993
21
471.839675
0
LINE
8
Calque 1
10
399.228993
20
471.839675
11
399.341080
21
471.864300
0
LINE
8
Calque 1
10
399.341080
20
471.864300
11
400.867025
21
473.173075
0
LINE
8
Calque 1
10
400.867025
20
473.173075
11
404.219490
21
476.421800
0
LINE
8
Calque 1
10
404.219490
20
476.421800
11
409.504010
21
481.627900
0
LINE
8
Calque 1
10
409.504010
20
481.627900
11
411.123290
21
483.281500
0
LINE
8
Calque 1
10
411.123290
20
483.281500
11
412.388360
21
484.359300
0
LINE
8
Calque 1
10
412.388360
20
484.359300
11
412.632077
21
484.484313
0
LINE
8
Calque 1
10
412.632077
20
484.484313
11
412.828830
21
484.784900
0
LINE
8
Calque 1
10
412.828830
20
484.784900
11
413.990120
21
486.173900
0
LINE
8
Calque 1
10
413.990120
20
486.173900
11
416.265900
21
488.368700
0
LINE
8
Calque 1
10
416.265900
20
488.368700
11
418.701480
21
490.816100
0
LINE
8
Calque 1
10
418.701480
20
490.816100
11
420.090540
21
492.032200
0
LINE
8
Calque 1
10
420.090540
20
492.032200
11
420.260252
21
492.129337
0
LINE
8
Calque 1
10
420.260252
20
492.129337
11
420.343490
21
492.362900
0
LINE
8
Calque 1
10
420.343490
20
492.362900
11
420.886480
21
493.062812
0
LINE
8
Calque 1
10
420.886480
20
493.062812
11
422.161560
21
494.281200
0
LINE
8
Calque 1
10
422.161560
20
494.281200
11
423.389399
21
495.472625
0
LINE
8
Calque 1
10
423.389399
20
495.472625
11
423.818810
21
496.108000
0
LINE
8
Calque 1
10
423.818810
20
496.108000
11
423.815386
21
496.218375
0
LINE
8
Calque 1
10
423.815386
20
496.218375
11
424.002920
21
496.148000
0
LINE
8
Calque 1
10
424.002920
20
496.148000
11
424.279455
21
496.144462
0
LINE
8
Calque 1
10
424.279455
20
496.144462
11
424.470760
21
496.501000
0
LINE
8
Calque 1
10
424.470760
20
496.501000
11
424.630029
21
496.856125
0
LINE
8
Calque 1
10
424.630029
20
496.856125
11
424.809960
21
496.933600
0
LINE
8
Calque 1
10
424.809960
20
496.933600
11
425.114060
21
497.040350
0
LINE
8
Calque 1
10
425.114060
20
497.040350
11
425.571880
21
497.465700
0
LINE
8
Calque 1
10
425.571880
20
497.465700
11
425.972940
21
498.118100
0
LINE
8
Calque 1
10
425.972940
20
498.118100
11
426.570000
21
498.703300
0
LINE
8
Calque 1
10
426.570000
20
498.703300
11
429.586440
21
501.547600
0
LINE
8
Calque 1
10
429.586440
20
501.547600
11
432.893730
21
504.766100
0
LINE
8
Calque 1
10
432.893730
20
504.766100
11
436.434540
21
508.271800
0
LINE
8
Calque 1
10
436.434540
20
508.271800
11
438.269889
21
510.070137
0
LINE
8
Calque 1
10
438.269889
20
510.070137
11
439.190620
21
510.818100
0
LINE
8
Calque 1
10
439.190620
20
510.818100
11
439.335477
21
510.863675
0
LINE
8
Calque 1
10
439.335477
20
510.863675
11
439.305450
21
510.972700
0
LINE
8
Calque 1
10
439.305450
20
510.972700
11
439.636774
21
511.473212
0
LINE
8
Calque 1
10
439.636774
20
511.473212
11
440.650410
21
512.459500
0
LINE
8
Calque 1
10
440.650410
20
512.459500
11
443.364110
21
515.081600
0
LINE
8
Calque 1
10
443.364110
20
515.081600
11
444.272982
21
515.941150
0
LINE
8
Calque 1
10
444.272982
20
515.941150
11
444.753170
21
516.196500
0
LINE
8
Calque 1
10
444.753170
20
516.196500
11
444.876700
21
516.202387
0
LINE
8
Calque 1
10
444.876700
20
516.202387
11
444.928080
21
516.462600
0
LINE
8
Calque 1
10
444.928080
20
516.462600
11
445.049249
21
516.773987
0
LINE
8
Calque 1
10
445.049249
20
516.773987
11
445.340570
21
516.903500
0
LINE
8
Calque 1
10
445.340570
20
516.903500
11
445.589299
21
516.972425
0
LINE
8
Calque 1
10
445.589299
20
516.972425
11
445.608070
21
517.138100
0
LINE
8
Calque 1
10
445.608070
20
517.138100
11
445.621377
21
517.399888
0
LINE
8
Calque 1
10
445.621377
20
517.399888
11
445.857030
21
517.699700
0
LINE
8
Calque 1
10
445.857030
20
517.699700
11
446.251000
21
517.852800
0
LINE
8
Calque 1
10
446.251000
20
517.852800
11
447.110430
21
518.680300
0
LINE
8
Calque 1
10
447.110430
20
518.680300
11
448.234910
21
519.856700
0
LINE
8
Calque 1
10
448.234910
20
519.856700
11
451.754030
21
523.232600
0
LINE
8
Calque 1
10
451.754030
20
523.232600
11
455.654360
21
526.856700
0
LINE
8
Calque 1
10
455.654360
20
526.856700
11
456.067999
21
527.224987
0
LINE
8
Calque 1
10
456.067999
20
527.224987
11
456.154990
21
527.515800
0
LINE
8
Calque 1
10
456.154990
20
527.515800
11
456.122990
21
527.682200
0
LINE
8
Calque 1
10
456.122990
20
527.682200
11
456.250590
21
527.751400
0
LINE
8
Calque 1
10
456.250590
20
527.751400
11
458.965540
21
530.132700
0
LINE
8
Calque 1
10
458.965540
20
530.132700
11
461.650310
21
532.514000
0
LINE
8
Calque 1
10
461.650310
20
532.514000
11
461.799379
21
532.630537
0
LINE
8
Calque 1
10
461.799379
20
532.630537
11
461.861380
21
532.910800
0
LINE
8
Calque 1
10
461.861380
20
532.910800
11
461.935534
21
533.191113
0
LINE
8
Calque 1
10
461.935534
20
533.191113
11
462.113810
21
533.307700
0
LINE
8
Calque 1
10
462.113810
20
533.307700
11
464.120240
21
535.027500
0
LINE
8
Calque 1
10
464.120240
20
535.027500
11
465.977620
21
536.747300
0
LINE
8
Calque 1
10
465.977620
20
536.747300
11
468.572980
21
539.194700
0
LINE
8
Calque 1
10
468.572980
20
539.194700
11
472.981660
21
543.361900
0
LINE
8
Calque 1
10
472.981660
20
543.361900
11
479.685950
21
549.575900
0
LINE
8
Calque 1
10
479.685950
20
549.575900
11
480.722566
21
550.482712
0
LINE
8
Calque 1
10
480.722566
20
550.482712
11
481.308260
21
550.810600
0
LINE
8
Calque 1
10
481.308260
20
550.810600
11
481.440727
21
550.805562
0
LINE
8
Calque 1
10
481.440727
20
550.805562
11
481.387660
21
550.911300
0
LINE
8
Calque 1
10
481.387660
20
550.911300
11
481.647490
21
551.409091
0
LINE
8
Calque 1
10
481.647490
20
551.409091
11
482.441752
21
552.299075
0
LINE
8
Calque 1
10
482.441752
20
552.299075
11
483.334037
21
553.134722
0
LINE
8
Calque 1
10
483.334037
20
553.134722
11
483.887930
21
553.469500
0
LINE
8
Calque 1
10
483.887930
20
553.469500
11
484.028072
21
553.553075
0
LINE
8
Calque 1
10
484.028072
20
553.553075
11
484.086360
21
553.828500
0
LINE
8
Calque 1
10
484.086360
20
553.828500
11
484.153112
21
554.078587
0
LINE
8
Calque 1
10
484.153112
20
554.078587
11
484.313600
21
554.100600
0
LINE
8
Calque 1
10
484.313600
20
554.100600
11
485.145686
21
554.649350
0
LINE
8
Calque 1
10
485.145686
20
554.649350
11
486.827140
21
556.165600
0
LINE
8
Calque 1
10
486.827140
20
556.165600
11
489.113450
21
558.235500
0
LINE
8
Calque 1
10
489.113450
20
558.235500
11
489.890710
21
558.866900
0
LINE
8
Calque 1
10
489.890710
20
558.866900
11
491.899130
21
560.692100
0
LINE
8
Calque 1
10
491.899130
20
560.692100
11
494.492760
21
563.007200
0
LINE
8
Calque 1
10
494.492760
20
563.007200
11
495.555344
21
563.894800
0
LINE
8
Calque 1
10
495.555344
20
563.894800
11
496.196810
21
564.264000
0
LINE
8
Calque 1
10
496.196810
20
564.264000
11
496.482616
21
564.380125
0
LINE
8
Calque 1
10
496.482616
20
564.380125
11
496.690100
21
564.659300
0
LINE
8
Calque 1
10
496.690100
20
564.659300
11
496.866809
21
564.895550
0
LINE
8
Calque 1
10
496.866809
20
564.895550
11
497.078670
21
564.908300
0
LINE
8
Calque 1
10
497.078670
20
564.908300
11
497.245951
21
564.923837
0
LINE
8
Calque 1
10
497.245951
20
564.923837
11
497.315530
21
565.167600
0
LINE
8
Calque 1
10
497.315530
20
565.167600
11
497.548695
21
565.574675
0
LINE
8
Calque 1
10
497.548695
20
565.574675
11
498.109280
21
565.983700
0
LINE
8
Calque 1
10
498.109280
20
565.983700
11
498.669865
21
566.344325
0
LINE
8
Calque 1
10
498.669865
20
566.344325
11
498.903030
21
566.634900
0
LINE
8
Calque 1
10
498.903030
20
566.634900
11
499.173104
21
566.902475
0
LINE
8
Calque 1
10
499.173104
20
566.902475
11
499.822430
21
567.208000
0
LINE
8
Calque 1
10
499.822430
20
567.208000
11
500.625490
21
567.656800
0
LINE
8
Calque 1
10
500.625490
20
567.656800
11
500.591127
21
567.929064
0
LINE
8
Calque 1
10
500.591127
20
567.929064
11
500.786911
21
568.272813
0
LINE
8
Calque 1
10
500.786911
20
568.272813
11
501.095145
21
568.544355
0
LINE
8
Calque 1
10
501.095145
20
568.544355
11
501.398130
21
568.600000
0
LINE
8
Calque 1
10
501.398130
20
568.600000
11
501.833419
21
568.726450
0
LINE
8
Calque 1
10
501.833419
20
568.726450
11
502.369890
21
569.271400
0
LINE
8
Calque 1
10
502.369890
20
569.271400
11
502.901182
21
569.845838
0
LINE
8
Calque 1
10
502.901182
20
569.845838
11
503.334030
21
570.084800
0
LINE
8
Calque 1
10
503.334030
20
570.084800
11
503.547631
21
570.153675
0
LINE
8
Calque 1
10
503.547631
20
570.153675
11
503.551840
21
570.319300
0
LINE
8
Calque 1
10
503.551840
20
570.319300
11
503.611870
21
570.527375
0
LINE
8
Calque 1
10
503.611870
20
570.527375
11
503.959720
21
570.698400
0
LINE
8
Calque 1
10
503.959720
20
570.698400
11
504.315681
21
570.889700
0
LINE
8
Calque 1
10
504.315681
20
570.889700
11
504.312730
21
571.166200
0
LINE
8
Calque 1
10
504.312730
20
571.166200
11
504.243347
21
571.351625
0
LINE
8
Calque 1
10
504.243347
20
571.351625
11
504.368230
21
571.331700
0
LINE
8
Calque 1
10
504.368230
20
571.331700
11
510.872767
21
577.544750
0
LINE
8
Calque 1
10
510.872767
20
577.544750
11
526.152830
21
592.704400
0
LINE
8
Calque 1
10
526.152830
20
592.704400
11
547.682130
21
614.234800
0
LINE
8
Calque 1
10
547.682130
20
614.234800
11
543.152960
21
618.948900
0
LINE
8
Calque 1
10
543.152960
20
618.948900
11
465.449860
21
696.820000
0
LINE
8
Calque 1
10
465.449860
20
696.820000
11
392.275960
21
769.976600
0
LINE
8
Calque 1
10
392.275960
20
769.976600
11
319.102060
21
696.819500
0
LINE
8
Calque 1
10
319.102060
20
696.819500
11
241.398960
21
618.948400
0
LINE
8
Calque 1
10
241.398960
20
618.948400
11
236.869810
21
614.234300
0
LINE
8
Calque 1
10
236.869810
20
614.234300
11
258.796010
21
592.307000
0
LINE
8
Calque 1
10
258.796010
20
592.307000
11
280.870410
21
570.447500
0
LINE
8
Calque 1
10
280.870410
20
570.447500
11
281.604540
21
569.902900
0
LINE
8
Calque 1
10
281.604540
20
569.902900
11
282.016990
21
569.290500
0
LINE
8
Calque 1
10
282.016990
20
569.290500
11
281.936845
21
569.257068
0
LINE
8
Calque 1
10
281.936845
20
569.257068
11
281.988741
21
569.168866
0
LINE
8
Calque 1
10
281.988741
20
569.168866
11
282.365540
21
568.900700
0
LINE
8
Calque 1
10
282.365540
20
568.900700
11
283.349400
21
568.505200
0
LINE
8
Calque 1
10
283.349400
20
568.505200
11
283.639402
21
568.423263
0
LINE
8
Calque 1
10
283.639402
20
568.423263
11
283.664520
21
568.232200
0
LINE
8
Calque 1
10
283.664520
20
568.232200
11
283.670215
21
568.045338
0
LINE
8
Calque 1
10
283.670215
20
568.045338
11
283.913480
21
567.967600
0
LINE
8
Calque 1
10
283.913480
20
567.967600
11
284.217071
21
567.803000
0
LINE
8
Calque 1
10
284.217071
20
567.803000
11
284.344570
21
567.372300
0
LINE
8
Calque 1
10
284.344570
20
567.372300
11
284.392869
21
566.936888
0
LINE
8
Calque 1
10
284.392869
20
566.936888
11
284.590560
21
567.306300
0
LINE
8
Calque 1
10
284.590560
20
567.306300
11
284.808486
21
567.599338
0
LINE
8
Calque 1
10
284.808486
20
567.599338
11
284.954360
21
566.931400
0
LINE
8
Calque 1
10
284.954360
20
566.931400
11
285.228290
21
566.468400
0
LINE
8
Calque 1
10
285.228290
20
566.468400
11
285.347496
21
566.403400
0
LINE
8
Calque 1
10
285.347496
20
566.403400
11
285.278790
21
566.578700
0
LINE
8
Calque 1
10
285.278790
20
566.578700
11
285.212433
21
566.902005
0
LINE
8
Calque 1
10
285.212433
20
566.902005
11
285.653910
21
566.682338
0
LINE
8
Calque 1
10
285.653910
20
566.682338
11
287.617050
21
564.925000
0
LINE
8
Calque 1
10
287.617050
20
564.925000
11
288.299116
21
564.294150
0
LINE
8
Calque 1
10
288.299116
20
564.294150
11
288.459359
21
564.192991
0
LINE
8
Calque 1
10
288.459359
20
564.192991
11
288.462100
21
564.263600
0
LINE
8
Calque 1
10
288.462100
20
564.263600
11
288.483827
21
564.329950
0
LINE
8
Calque 1
10
288.483827
20
564.329950
11
288.826300
21
563.932800
0
LINE
8
Calque 1
10
288.826300
20
563.932800
11
289.663440
21
563.205200
0
LINE
8
Calque 1
10
289.663440
20
563.205200
11
290.556889
21
562.626125
0
LINE
8
Calque 1
10
290.556889
20
562.626125
11
293.012400
21
560.360900
0
LINE
8
Calque 1
10
293.012400
20
560.360900
11
294.707050
21
558.971900
0
LINE
8
Calque 1
10
294.707050
20
558.971900
11
294.822706
21
558.892250
0
LINE
8
Calque 1
10
294.822706
20
558.892250
11
294.772950
21
558.700700
0
LINE
8
Calque 1
10
294.772950
20
558.700700
11
294.723900
21
558.530588
0
LINE
8
Calque 1
10
294.723900
20
558.530588
11
294.841350
21
558.502300
0
LINE
8
Calque 1
10
294.841350
20
558.502300
11
296.027031
21
557.739063
0
LINE
8
Calque 1
10
296.027031
20
557.739063
11
297.029930
21
556.727500
0
LINE
8
Calque 1
10
297.029930
20
556.727500
11
297.224350
21
556.554400
0
LINE
8
Calque 1
10
297.224350
20
556.554400
11
298.414690
21
555.496000
0
LINE
8
Calque 1
10
298.414690
20
555.496000
11
299.647940
21
554.474000
0
LINE
8
Calque 1
10
299.647940
20
554.474000
11
300.557190
21
553.680200
0
LINE
8
Calque 1
10
300.557190
20
553.680200
11
301.368120
21
552.886500
0
LINE
8
Calque 1
10
301.368120
20
552.886500
11
303.441870
21
550.968200
0
LINE
8
Calque 1
10
303.441870
20
550.968200
11
309.752840
21
545.081300
0
LINE
8
Calque 1
10
309.752840
20
545.081300
11
311.185190
21
543.622400
0
LINE
8
Calque 1
10
311.185190
20
543.622400
11
312.504040
21
542.343700
0
LINE
8
Calque 1
10
312.504040
20
542.343700
11
315.627290
21
539.503100
0
LINE
8
Calque 1
10
315.627290
20
539.503100
11
318.043560
21
537.276000
0
LINE
8
Calque 1
10
318.043560
20
537.276000
11
319.201300
21
536.200025
0
LINE
8
Calque 1
10
319.201300
20
536.200025
11
320.095250
21
535.033600
0
LINE
8
Calque 1
10
320.095250
20
535.033600
11
320.126799
21
534.935700
0
LINE
8
Calque 1
10
320.126799
20
534.935700
11
320.397440
21
534.894800
0
LINE
8
Calque 1
10
320.397440
20
534.894800
11
320.708882
21
534.819550
0
LINE
8
Calque 1
10
320.708882
20
534.819550
11
320.838420
21
534.638700
0
LINE
8
Calque 1
10
320.838420
20
534.638700
11
321.030127
21
534.357350
0
LINE
8
Calque 1
10
321.030127
20
534.357350
11
321.491040
21
534.040600
0
LINE
8
Calque 1
10
321.491040
20
534.040600
11
322.148850
21
533.532200
0
LINE
8
Calque 1
10
322.148850
20
533.532200
11
322.813950
21
532.790100
0
LINE
8
Calque 1
10
322.813950
20
532.790100
11
323.287351
21
532.216950
0
LINE
8
Calque 1
10
323.287351
20
532.216950
11
323.484250
21
532.114800
0
LINE
8
Calque 1
10
323.484250
20
532.114800
11
323.717415
21
532.056088
0
LINE
8
Calque 1
10
323.717415
20
532.056088
11
324.278000
21
531.587500
0
LINE
8
Calque 1
10
324.278000
20
531.587500
11
324.838585
21
530.943825
0
LINE
8
Calque 1
10
324.838585
20
530.943825
11
325.071750
21
530.464100
0
LINE
8
Calque 1
10
325.071750
20
530.464100
11
325.146930
21
530.254138
0
LINE
8
Calque 1
10
325.146930
20
530.254138
11
325.327680
21
530.259200
0
LINE
8
Calque 1
10
325.327680
20
530.259200
11
325.607390
21
530.212675
0
LINE
8
Calque 1
10
325.607390
20
530.212675
11
325.920490
21
529.878000
0
LINE
8
Calque 1
10
325.920490
20
529.878000
11
326.469800
21
529.338500
0
LINE
8
Calque 1
10
326.469800
20
529.338500
11
327.927500
21
527.988000
0
LINE
8
Calque 1
10
327.927500
20
527.988000
11
329.495990
21
526.334400
0
LINE
8
Calque 1
10
329.495990
20
526.334400
11
332.358270
21
523.583900
0
LINE
8
Calque 1
10
332.358270
20
523.583900
11
334.236886
21
521.855413
0
LINE
8
Calque 1
10
334.236886
20
521.855413
11
335.188030
21
521.136500
0
LINE
8
Calque 1
10
335.188030
20
521.136500
11
335.348369
21
521.091500
0
LINE
8
Calque 1
10
335.348369
20
521.091500
11
335.325700
21
520.983500
0
LINE
8
Calque 1
10
335.325700
20
520.983500
11
335.589769
21
520.556416
0
LINE
8
Calque 1
10
335.589769
20
520.556416
11
336.448716
21
519.648300
0
LINE
8
Calque 1
10
336.448716
20
519.648300
11
339.029230
21
517.304800
0
LINE
8
Calque 1
10
339.029230
20
517.304800
11
339.589407
21
516.708600
0
LINE
8
Calque 1
10
339.589407
20
516.708600
11
339.714420
21
516.283700
0
LINE
8
Calque 1
10
339.714420
20
516.283700
11
339.655495
21
516.126188
0
LINE
8
Calque 1
10
339.655495
20
516.126188
11
339.760220
21
516.178000
0
LINE
8
Calque 1
10
339.760220
20
516.178000
11
340.100887
21
516.146128
0
LINE
8
Calque 1
10
340.100887
20
516.146128
11
340.587047
21
515.800325
0
LINE
8
Calque 1
10
340.587047
20
515.800325
11
341.022571
21
515.317009
0
LINE
8
Calque 1
10
341.022571
20
515.317009
11
341.211330
21
514.872600
0
LINE
8
Calque 1
10
341.211330
20
514.872600
11
341.278364
21
514.624913
0
LINE
8
Calque 1
10
341.278364
20
514.624913
11
341.439530
21
514.521900
0
LINE
8
Calque 1
10
341.439530
20
514.521900
11
342.629090
21
513.752850
0
LINE
8
Calque 1
10
342.629090
20
513.752850
11
343.239263
21
513.190294
0
LINE
8
Calque 1
10
343.239263
20
513.190294
11
343.433510
21
512.863500
0
LINE
8
Calque 1
10
343.433510
20
512.863500
11
343.555774
21
512.631663
0
LINE
8
Calque 1
10
343.555774
20
512.631663
11
344.049370
21
512.273600
0
LINE
8
Calque 1
10
344.049370
20
512.273600
11
344.766061
21
511.692700
0
LINE
8
Calque 1
10
344.766061
20
511.692700
11
345.424710
21
510.924900
0
LINE
8
Calque 1
10
345.424710
20
510.924900
11
346.226010
21
510.024000
0
LINE
8
Calque 1
10
346.226010
20
510.024000
11
347.448680
21
508.945800
0
LINE
8
Calque 1
10
347.448680
20
508.945800
11
349.413410
21
506.974500
0
LINE
8
Calque 1
10
349.413410
20
506.974500
11
355.147650
21
501.371900
0
LINE
8
Calque 1
10
355.147650
20
501.371900
11
361.700650
21
495.013600
0
LINE
8
Calque 1
10
361.700650
20
495.013600
11
363.448350
21
493.235400
0
LINE
8
Calque 1
10
363.448350
20
493.235400
11
366.056500
21
490.713400
0
LINE
8
Calque 1
10
366.056500
20
490.713400
11
366.537670
21
490.180200
0
LINE
8
Calque 1
10
366.537670
20
490.180200
11
368.101480
21
488.526600
0
LINE
8
Calque 1
10
368.101480
20
488.526600
11
371.452824
21
485.253213
0
LINE
8
Calque 1
10
371.452824
20
485.253213
11
372.167580
21
484.338500
0
LINE
8
Calque 1
10
372.167580
20
484.338500
11
372.264729
21
484.159488
0
LINE
8
Calque 1
10
372.264729
20
484.159488
11
372.498310
21
484.071300
0
LINE
8
Calque 1
10
372.498310
20
484.071300
11
373.120492
21
483.602125
0
LINE
8
Calque 1
10
373.120492
20
483.602125
11
374.151950
21
482.507300
0
LINE
8
Calque 1
10
374.151950
20
482.507300
11
375.681390
21
480.943300
0
LINE
8
Calque 1
10
375.681390
20
480.943300
11
376.700980
21
479.993800
0
LINE
8
Calque 1
10
376.700980
20
479.993800
11
377.386191
21
479.339725
0
LINE
8
Calque 1
10
377.386191
20
479.339725
11
377.891830
21
479.067700
0
LINE
8
Calque 1
10
377.891830
20
479.067700
11
378.209349
21
478.931713
0
LINE
8
Calque 1
10
378.209349
20
478.931713
11
378.442260
21
478.604700
0
LINE
8
Calque 1
10
378.442260
20
478.604700
11
378.862869
21
477.936900
0
LINE
8
Calque 1
10
378.862869
20
477.936900
11
379.559335
21
477.145200
0
LINE
8
Calque 1
10
379.559335
20
477.145200
11
380.256311
21
476.511300
0
LINE
8
Calque 1
10
380.256311
20
476.511300
11
380.678450
21
476.316900
0
LINE
8
Calque 1
10
380.678450
20
476.316900
11
380.908896
21
476.218513
0
LINE
8
Calque 1
10
380.908896
20
476.218513
11
381.152100
21
475.790200
0
LINE
8
Calque 1
10
381.152100
20
475.790200
11
381.547471
21
475.183325
0
LINE
8
Calque 1
10
381.547471
20
475.183325
11
382.143790
21
474.656100
0
LINE
8
Calque 1
10
382.143790
20
474.656100
11
383.085630
21
473.864900
0
LINE
8
Calque 1
10
383.085630
20
473.864900
11
384.146952
21
472.691463
0
LINE
8
Calque 1
10
384.146952
20
472.691463
11
385.121650
21
471.924000
0
LINE
8
Calque 1
10
385.121650
20
471.924000
11
385.480370
21
471.368200
0
LINE
8
Calque 1
10
385.480370
20
471.368200
11
385.665922
21
471.026725
0
LINE
8
Calque 1
10
385.665922
20
471.026725
11
385.908100
21
470.986900
0
LINE
8
Calque 1
10
385.908100
20
470.986900
11
386.107540
21
471.027700
0
LINE
8
Calque 1
10
386.107540
20
471.027700
11
386.190490
21
470.881300
0
LINE
8
Calque 1
10
386.190490
20
470.881300
11
386.777405
21
470.047083
0
LINE
8
Calque 1
10
386.777405
20
470.047083
11
388.108626
21
468.700963
0
LINE
8
Calque 1
10
388.108626
20
468.700963
11
389.539870
21
467.448911
0
LINE
8
Calque 1
10
389.539870
20
467.448911
11
390.426850
21
466.896900
0
LINE
8
Calque 1
10
390.426850
20
466.896900
11
390.611577
21
466.806225
0
LINE
8
Calque 1
10
390.611577
20
466.806225
11
390.688410
21
466.588200
0
LINE
8
Calque 1
10
390.688410
20
466.588200
11
390.732201
21
466.413963
0
LINE
8
Calque 1
10
390.732201
20
466.413963
11
390.837440
21
466.428500
0
LINE
8
Calque 1
10
390.837440
20
466.428500
11
391.697330
21
466.384500
0
LINE
8
Calque 1
10
391.697330
20
466.384500
11
392.306431
21
466.283030
0
LINE
8
Calque 1
10
392.306431
20
466.283030
11
392.904967
21
466.338338
0
LINE
8
Calque 1
10
392.904967
20
466.338338
11
394.392580
21
466.992300
0
LINE
8
Calque 1
10
394.392580
20
466.992300
11
394.392700
21
466.992600
0
LINE
8
Calque 1
10
390.556240
20
487.554000
11
388.991178
21
488.117573
0
LINE
8
Calque 1
10
388.991178
20
488.117573
11
386.925855
21
489.097388
0
LINE
8
Calque 1
10
386.925855
20
489.097388
11
384.770899
21
490.282758
0
LINE
8
Calque 1
10
384.770899
20
490.282758
11
382.936940
21
491.463000
0
LINE
8
Calque 1
10
382.936940
20
491.463000
11
379.835917
21
493.954344
0
LINE
8
Calque 1
10
379.835917
20
493.954344
11
377.273788
21
496.510450
0
LINE
8
Calque 1
10
377.273788
20
496.510450
11
375.469184
21
498.884456
0
LINE
8
Calque 1
10
375.469184
20
498.884456
11
374.919278
21
499.926027
0
LINE
8
Calque 1
10
374.919278
20
499.926027
11
374.640740
21
500.829500
0
LINE
8
Calque 1
10
374.640740
20
500.829500
11
374.644467
21
501.911637
0
LINE
8
Calque 1
10
374.644467
20
501.911637
11
374.932760
21
503.181500
0
LINE
8
Calque 1
10
374.932760
20
503.181500
11
375.383050
21
504.558100
0
LINE
8
Calque 1
10
375.383050
20
504.558100
11
357.305050
21
522.639600
0
LINE
8
Calque 1
10
357.305050
20
522.639600
11
339.227050
21
540.721000
0
LINE
8
Calque 1
10
339.227050
20
540.721000
11
335.776800
21
542.424900
0
LINE
8
Calque 1
10
335.776800
20
542.424900
11
330.813654
21
545.119275
0
LINE
8
Calque 1
10
330.813654
20
545.119275
11
326.261228
21
548.061206
0
LINE
8
Calque 1
10
326.261228
20
548.061206
11
322.225370
21
551.143791
0
LINE
8
Calque 1
10
322.225370
20
551.143791
11
318.811925
21
554.260125
0
LINE
8
Calque 1
10
318.811925
20
554.260125
11
316.126739
21
557.303306
0
LINE
8
Calque 1
10
316.126739
20
557.303306
11
315.090321
21
558.764057
0
LINE
8
Calque 1
10
315.090321
20
558.764057
11
314.275659
21
560.166431
0
LINE
8
Calque 1
10
314.275659
20
560.166431
11
313.695986
21
561.497065
0
LINE
8
Calque 1
10
313.695986
20
561.497065
11
313.364531
21
562.742597
0
LINE
8
Calque 1
10
313.364531
20
562.742597
11
313.294525
21
563.889663
0
LINE
8
Calque 1
10
313.294525
20
563.889663
11
313.499200
21
564.924900
0
LINE
8
Calque 1
10
313.499200
20
564.924900
11
313.875290
21
565.983200
0
LINE
8
Calque 1
10
313.875290
20
565.983200
11
289.774490
21
590.126600
0
LINE
8
Calque 1
10
289.774490
20
590.126600
11
265.673690
21
614.270000
0
LINE
8
Calque 1
10
265.673690
20
614.270000
11
326.812490
21
675.454800
0
LINE
8
Calque 1
10
326.812490
20
675.454800
11
370.436727
21
719.230825
0
LINE
8
Calque 1
10
370.436727
20
719.230825
11
389.465990
21
738.560600
0
LINE
8
Calque 1
10
389.465990
20
738.560600
11
390.725964
21
740.042138
0
LINE
8
Calque 1
10
390.725964
20
740.042138
11
391.628330
21
740.906200
0
LINE
8
Calque 1
10
391.628330
20
740.906200
11
392.276025
21
741.198250
0
LINE
8
Calque 1
10
392.276025
20
741.198250
11
392.923720
21
740.906200
0
LINE
8
Calque 1
10
392.923720
20
740.906200
11
393.826086
21
740.042138
0
LINE
8
Calque 1
10
393.826086
20
740.042138
11
395.086060
21
738.560600
0
LINE
8
Calque 1
10
395.086060
20
738.560600
11
414.115307
21
719.230825
0
LINE
8
Calque 1
10
414.115307
20
719.230825
11
457.739560
21
675.454800
0
LINE
8
Calque 1
10
457.739560
20
675.454800
11
518.878360
21
614.270000
0
LINE
8
Calque 1
10
518.878360
20
614.270000
11
494.777560
21
590.126600
0
LINE
8
Calque 1
10
494.777560
20
590.126600
11
470.676760
21
565.983200
0
LINE
8
Calque 1
10
470.676760
20
565.983200
11
471.052850
21
564.924900
0
LINE
8
Calque 1
10
471.052850
20
564.924900
11
471.257526
21
563.889663
0
LINE
8
Calque 1
10
471.257526
20
563.889663
11
471.187522
21
562.742597
0
LINE
8
Calque 1
10
471.187522
20
562.742597
11
470.856068
21
561.497065
0
LINE
8
Calque 1
10
470.856068
20
561.497065
11
470.276395
21
560.166431
0
LINE
8
Calque 1
10
470.276395
20
560.166431
11
469.461734
21
558.764057
0
LINE
8
Calque 1
10
469.461734
20
558.764057
11
468.425315
21
557.303306
0
LINE
8
Calque 1
10
468.425315
20
557.303306
11
465.740129
21
554.260125
0
LINE
8
Calque 1
10
465.740129
20
554.260125
11
462.326683
21
551.143791
0
LINE
8
Calque 1
10
462.326683
20
551.143791
11
458.290823
21
548.061206
0
LINE
8
Calque 1
10
458.290823
20
548.061206
11
453.738397
21
545.119275
0
LINE
8
Calque 1
10
453.738397
20
545.119275
11
448.775250
21
542.424900
0
LINE
8
Calque 1
10
448.775250
20
542.424900
11
445.325000
21
540.721000
0
LINE
8
Calque 1
10
445.325000
20
540.721000
11
427.247000
21
522.639600
0
LINE
8
Calque 1
10
427.247000
20
522.639600
11
409.169000
21
504.558100
0
LINE
8
Calque 1
10
409.169000
20
504.558100
11
409.619290
21
503.181500
0
LINE
8
Calque 1
10
409.619290
20
503.181500
11
409.914210
21
501.892992
0
LINE
8
Calque 1
10
409.914210
20
501.892992
11
409.854271
21
500.724212
0
LINE
8
Calque 1
10
409.854271
20
500.724212
11
409.402310
21
499.501527
0
LINE
8
Calque 1
10
409.402310
20
499.501527
11
408.521160
21
498.051300
0
LINE
8
Calque 1
10
408.521160
20
498.051300
11
407.436526
21
496.648915
0
LINE
8
Calque 1
10
407.436526
20
496.648915
11
406.090588
21
495.209142
0
LINE
8
Calque 1
10
406.090588
20
495.209142
11
402.829779
21
492.382313
0
LINE
8
Calque 1
10
402.829779
20
492.382313
11
399.168685
21
489.900577
0
LINE
8
Calque 1
10
399.168685
20
489.900577
11
397.322392
21
488.892171
0
LINE
8
Calque 1
10
397.322392
20
488.892171
11
395.537260
21
488.093700
0
LINE
8
Calque 1
10
395.537260
20
488.093700
11
394.232494
21
487.680380
0
LINE
8
Calque 1
10
394.232494
20
487.680380
11
392.923559
21
487.447912
0
LINE
8
Calque 1
10
392.923559
20
487.447912
11
391.676219
21
487.403414
0
LINE
8
Calque 1
10
391.676219
20
487.403414
11
390.556240
21
487.554000
0
LINE
8
Calque 1
10
390.556240
20
487.554000
11
390.556240
21
487.554000
0
LINE
8
Calque 1
10
396.509370
20
490.931900
11
399.813369
21
492.925491
0
LINE
8
Calque 1
10
399.813369
20
492.925491
11
403.097100
21
495.462250
0
LINE
8
Calque 1
10
403.097100
20
495.462250
11
405.821541
21
498.079784
0
LINE
8
Calque 1
10
405.821541
20
498.079784
11
406.805583
21
499.274344
0
LINE
8
Calque 1
10
406.805583
20
499.274344
11
407.447670
21
500.315700
0
LINE
8
Calque 1
10
407.447670
20
500.315700
11
407.787080
21
501.351763
0
LINE
8
Calque 1
10
407.787080
20
501.351763
11
407.501470
21
502.560400
0
LINE
8
Calque 1
10
407.501470
20
502.560400
11
406.619964
21
504.256300
0
LINE
8
Calque 1
10
406.619964
20
504.256300
11
405.090660
21
506.584300
0
LINE
8
Calque 1
10
405.090660
20
506.584300
11
402.439690
21
510.710200
0
LINE
8
Calque 1
10
402.439690
20
510.710200
11
401.779320
21
512.058000
0
LINE
8
Calque 1
10
401.779320
20
512.058000
11
401.856320
21
520.367500
0
LINE
8
Calque 1
10
401.856320
20
520.367500
11
401.944482
21
525.942811
0
LINE
8
Calque 1
10
401.944482
20
525.942811
11
402.263418
21
529.063213
0
LINE
8
Calque 1
10
402.263418
20
529.063213
11
402.597596
21
530.087112
0
LINE
8
Calque 1
10
402.597596
20
530.087112
11
403.095274
21
530.958433
0
LINE
8
Calque 1
10
403.095274
20
530.958433
11
404.722200
21
532.858200
0
LINE
8
Calque 1
10
404.722200
20
532.858200
11
405.852889
21
534.254575
0
LINE
8
Calque 1
10
405.852889
20
534.254575
11
406.298940
21
535.153100
0
LINE
8
Calque 1
10
406.298940
20
535.153100
11
405.737451
21
536.160250
0
LINE
8
Calque 1
10
405.737451
20
536.160250
11
404.195690
21
537.923400
0
LINE
8
Calque 1
10
404.195690
20
537.923400
11
402.651925
21
539.697987
0
LINE
8
Calque 1
10
402.651925
20
539.697987
11
401.893800
21
540.880600
0
LINE
8
Calque 1
10
401.893800
20
540.880600
11
401.684534
21
542.239698
0
LINE
8
Calque 1
10
401.684534
20
542.239698
11
401.753265
21
543.579325
0
LINE
8
Calque 1
10
401.753265
20
543.579325
11
402.081141
21
544.867614
0
LINE
8
Calque 1
10
402.081141
20
544.867614
11
402.649311
21
546.072700
0
LINE
8
Calque 1
10
402.649311
20
546.072700
11
403.438925
21
547.162717
0
LINE
8
Calque 1
10
403.438925
20
547.162717
11
404.431132
21
548.105800
0
LINE
8
Calque 1
10
404.431132
20
548.105800
11
405.607081
21
548.870083
0
LINE
8
Calque 1
10
405.607081
20
548.870083
11
406.947920
21
549.423700
0
LINE
8
Calque 1
10
406.947920
20
549.423700
11
408.544072
21
549.813688
0
LINE
8
Calque 1
10
408.544072
20
549.813688
11
409.870810
21
549.975900
0
LINE
8
Calque 1
10
409.870810
20
549.975900
11
410.941137
21
549.889679
0
LINE
8
Calque 1
10
410.941137
20
549.889679
11
412.083274
21
549.641178
0
LINE
8
Calque 1
10
412.083274
20
549.641178
11
414.459769
21
548.718325
0
LINE
8
Calque 1
10
414.459769
20
548.718325
11
416.753882
21
547.329309
0
LINE
8
Calque 1
10
416.753882
20
547.329309
11
418.719200
21
545.596100
0
LINE
8
Calque 1
10
418.719200
20
545.596100
11
419.678039
21
544.405522
0
LINE
8
Calque 1
10
419.678039
20
544.405522
11
420.337437
21
543.221075
0
LINE
8
Calque 1
10
420.337437
20
543.221075
11
420.719219
21
541.992191
0
LINE
8
Calque 1
10
420.719219
20
541.992191
11
420.845210
21
540.668300
0
LINE
8
Calque 1
10
420.845210
20
540.668300
11
420.939322
21
539.368212
0
LINE
8
Calque 1
10
420.939322
20
539.368212
11
421.110552
21
538.955452
0
LINE
8
Calque 1
10
421.110552
20
538.955452
11
421.416701
21
538.669925
0
LINE
8
Calque 1
10
421.416701
20
538.669925
11
422.590165
21
538.387700
0
LINE
8
Calque 1
10
422.590165
20
538.387700
11
424.772530
21
538.335800
0
LINE
8
Calque 1
10
424.772530
20
538.335800
11
429.371167
21
538.625265
0
LINE
8
Calque 1
10
429.371167
20
538.625265
11
434.168477
21
539.463105
0
LINE
8
Calque 1
10
434.168477
20
539.463105
11
439.081282
21
540.814739
0
LINE
8
Calque 1
10
439.081282
20
540.814739
11
444.026405
21
542.645587
0
LINE
8
Calque 1
10
444.026405
20
542.645587
11
448.920669
21
544.921069
0
LINE
8
Calque 1
10
448.920669
20
544.921069
11
453.680896
21
547.606602
0
LINE
8
Calque 1
10
453.680896
20
547.606602
11
458.223909
21
550.667606
0
LINE
8
Calque 1
10
458.223909
20
550.667606
11
462.466530
21
554.069500
0
LINE
8
Calque 1
10
462.466530
20
554.069500
11
465.068391
21
556.634464
0
LINE
8
Calque 1
10
465.068391
20
556.634464
11
467.159595
21
559.252537
0
LINE
8
Calque 1
10
467.159595
20
559.252537
11
468.552167
21
561.652942
0
LINE
8
Calque 1
10
468.552167
20
561.652942
11
468.927723
21
562.686901
0
LINE
8
Calque 1
10
468.927723
20
562.686901
11
469.058130
21
563.564900
0
LINE
8
Calque 1
10
469.058130
20
563.564900
11
468.912292
21
564.383388
0
LINE
8
Calque 1
10
468.912292
20
564.383388
11
468.504986
21
565.509041
0
LINE
8
Calque 1
10
468.504986
20
565.509041
11
467.087201
21
568.358375
0
LINE
8
Calque 1
10
467.087201
20
568.358375
11
465.167249
21
571.465972
0
LINE
8
Calque 1
10
465.167249
20
571.465972
11
463.107600
21
574.184900
0
LINE
8
Calque 1
10
463.107600
20
574.184900
11
462.187280
21
575.242800
0
LINE
8
Calque 1
10
462.187280
20
575.242800
11
460.783650
21
573.655700
0
LINE
8
Calque 1
10
460.783650
20
573.655700
11
458.229410
21
570.905853
0
LINE
8
Calque 1
10
458.229410
20
570.905853
11
455.640096
21
568.391844
0
LINE
8
Calque 1
10
455.640096
20
568.391844
11
453.019104
21
566.116119
0
LINE
8
Calque 1
10
453.019104
20
566.116119
11
450.369830
21
564.081125
0
LINE
8
Calque 1
10
450.369830
20
564.081125
11
447.695671
21
562.289309
0
LINE
8
Calque 1
10
447.695671
20
562.289309
11
445.000024
21
560.743119
0
LINE
8
Calque 1
10
445.000024
20
560.743119
11
442.286285
21
559.445000
0
LINE
8
Calque 1
10
442.286285
20
559.445000
11
439.557850
21
558.397400
0
LINE
8
Calque 1
10
439.557850
20
558.397400
11
437.284842
21
557.796903
0
LINE
8
Calque 1
10
437.284842
20
557.796903
11
434.948136
21
557.450750
0
LINE
8
Calque 1
10
434.948136
20
557.450750
11
432.886697
21
557.390272
0
LINE
8
Calque 1
10
432.886697
20
557.390272
11
431.439490
21
557.646800
0
LINE
8
Calque 1
10
431.439490
20
557.646800
11
430.991945
21
557.916896
0
LINE
8
Calque 1
10
430.991945
20
557.916896
11
430.666606
21
558.286941
0
LINE
8
Calque 1
10
430.666606
20
558.286941
11
430.386215
21
559.212175
0
LINE
8
Calque 1
10
430.386215
20
559.212175
11
430.605654
21
560.193097
0
LINE
8
Calque 1
10
430.605654
20
560.193097
11
431.332260
21
561.000300
0
LINE
8
Calque 1
10
431.332260
20
561.000300
11
432.953547
21
561.619187
0
LINE
8
Calque 1
10
432.953547
20
561.619187
11
435.892120
21
562.478600
0
LINE
8
Calque 1
10
435.892120
20
562.478600
11
439.995744
21
563.763314
0
LINE
8
Calque 1
10
439.995744
20
563.763314
11
443.539967
21
565.327262
0
LINE
8
Calque 1
10
443.539967
20
565.327262
11
446.763217
21
567.294880
0
LINE
8
Calque 1
10
446.763217
20
567.294880
11
449.903920
21
569.790600
0
LINE
8
Calque 1
10
449.903920
20
569.790600
11
452.447209
21
572.313869
0
LINE
8
Calque 1
10
452.447209
20
572.313869
11
455.144997
21
575.384075
0
LINE
8
Calque 1
10
455.144997
20
575.384075
11
457.285585
21
578.143669
0
LINE
8
Calque 1
10
457.285585
20
578.143669
11
457.924522
21
579.139002
0
LINE
8
Calque 1
10
457.924522
20
579.139002
11
458.157270
21
579.735100
0
LINE
8
Calque 1
10
458.157270
20
579.735100
11
457.330835
21
580.854534
0
LINE
8
Calque 1
10
457.330835
20
580.854534
11
455.361662
21
582.955475
0
LINE
8
Calque 1
10
455.361662
20
582.955475
11
453.014951
21
585.257303
0
LINE
8
Calque 1
10
453.014951
20
585.257303
11
451.055900
21
586.979400
0
LINE
8
Calque 1
10
451.055900
20
586.979400
11
449.786441
21
587.834020
0
LINE
8
Calque 1
10
449.786441
20
587.834020
11
448.815919
21
588.063337
0
LINE
8
Calque 1
10
448.815919
20
588.063337
11
447.918774
21
587.644486
0
LINE
8
Calque 1
10
447.918774
20
587.644486
11
446.869450
21
586.554600
0
LINE
8
Calque 1
10
446.869450
20
586.554600
11
443.305399
21
582.582966
0
LINE
8
Calque 1
10
443.305399
20
582.582966
11
439.915905
21
579.448725
0
LINE
8
Calque 1
10
439.915905
20
579.448725
11
436.442058
21
576.938972
0
LINE
8
Calque 1
10
436.442058
20
576.938972
11
432.624950
21
574.840800
0
LINE
8
Calque 1
10
432.624950
20
574.840800
11
430.553859
21
573.916419
0
LINE
8
Calque 1
10
430.553859
20
573.916419
11
428.678109
21
573.263800
0
LINE
8
Calque 1
10
428.678109
20
573.263800
11
426.757536
21
572.813156
0
LINE
8
Calque 1
10
426.757536
20
572.813156
11
424.551980
21
572.494700
0
LINE
8
Calque 1
10
424.551980
20
572.494700
11
422.228559
21
572.043113
0
LINE
8
Calque 1
10
422.228559
20
572.043113
11
419.679830
21
570.972400
0
LINE
8
Calque 1
10
419.679830
20
570.972400
11
417.661275
21
570.112161
0
LINE
8
Calque 1
10
417.661275
20
570.112161
11
416.034414
21
569.736188
0
LINE
8
Calque 1
10
416.034414
20
569.736188
11
414.554731
21
569.821595
0
LINE
8
Calque 1
10
414.554731
20
569.821595
11
412.977710
21
570.345500
0
LINE
8
Calque 1
10
412.977710
20
570.345500
11
412.047932
21
570.821930
0
LINE
8
Calque 1
10
412.047932
20
570.821930
11
411.266130
21
571.385673
0
LINE
8
Calque 1
10
411.266130
20
571.385673
11
410.632875
21
572.035646
0
LINE
8
Calque 1
10
410.632875
20
572.035646
11
410.148739
21
572.770763
0
LINE
8
Calque 1
10
410.148739
20
572.770763
11
409.814293
21
573.589940
0
LINE
8
Calque 1
10
409.814293
20
573.589940
11
409.630108
21
574.492095
0
LINE
8
Calque 1
10
409.630108
20
574.492095
11
409.714810
21
576.541000
0
LINE
8
Calque 1
10
409.714810
20
576.541000
11
410.135522
21
578.221212
0
LINE
8
Calque 1
10
410.135522
20
578.221212
11
410.821283
21
579.866320
0
LINE
8
Calque 1
10
410.821283
20
579.866320
11
411.809039
21
581.518997
0
LINE
8
Calque 1
10
411.809039
20
581.518997
11
413.135734
21
583.221913
0
LINE
8
Calque 1
10
413.135734
20
583.221913
11
414.838313
21
585.017739
0
LINE
8
Calque 1
10
414.838313
20
585.017739
11
416.953722
21
586.949148
0
LINE
8
Calque 1
10
416.953722
20
586.949148
11
422.570810
21
591.389400
0
LINE
8
Calque 1
10
422.570810
20
591.389400
11
426.917300
21
594.795200
0
LINE
8
Calque 1
10
426.917300
20
594.795200
11
427.028258
21
595.219583
0
LINE
8
Calque 1
10
427.028258
20
595.219583
11
426.744210
21
596.146062
0
LINE
8
Calque 1
10
426.744210
20
596.146062
11
424.328950
21
601.124300
0
LINE
8
Calque 1
10
424.328950
20
601.124300
11
421.635065
21
606.781733
0
LINE
8
Calque 1
10
421.635065
20
606.781733
11
420.665382
21
609.205237
0
LINE
8
Calque 1
10
420.665382
20
609.205237
11
419.887256
21
611.562838
0
LINE
8
Calque 1
10
419.887256
20
611.562838
11
419.255726
21
614.007715
0
LINE
8
Calque 1
10
419.255726
20
614.007715
11
418.725830
21
616.693048
0
LINE
8
Calque 1
10
418.725830
20
616.693048
11
417.791090
21
623.397800
0
LINE
8
Calque 1
10
417.791090
20
623.397800
11
416.891343
21
631.893908
0
LINE
8
Calque 1
10
416.891343
20
631.893908
11
416.110206
21
641.684563
0
LINE
8
Calque 1
10
416.110206
20
641.684563
11
415.348421
21
654.205011
0
LINE
8
Calque 1
10
415.348421
20
654.205011
11
414.506730
21
670.890500
0
LINE
8
Calque 1
10
414.506730
20
670.890500
11
413.699517
21
686.610934
0
LINE
8
Calque 1
10
413.699517
20
686.610934
11
412.991951
21
696.997050
0
LINE
8
Calque 1
10
412.991951
20
696.997050
11
412.269590
21
703.391891
0
LINE
8
Calque 1
10
412.269590
20
703.391891
11
411.867098
21
705.512284
0
LINE
8
Calque 1
10
411.867098
20
705.512284
11
411.417990
21
707.138500
0
LINE
8
Calque 1
10
411.417990
20
707.138500
11
409.658337
21
711.435288
0
LINE
8
Calque 1
10
409.658337
20
711.435288
11
406.934413
21
716.696500
0
LINE
8
Calque 1
10
406.934413
20
716.696500
11
403.313777
21
722.801088
0
LINE
8
Calque 1
10
403.313777
20
722.801088
11
398.863990
21
729.628000
0
LINE
8
Calque 1
10
398.863990
20
729.628000
11
394.446071
21
735.836850
0
LINE
8
Calque 1
10
394.446071
20
735.836850
11
393.010990
21
737.599413
0
LINE
8
Calque 1
10
393.010990
20
737.599413
11
392.276000
21
738.227000
0
LINE
8
Calque 1
10
392.276000
20
738.227000
11
391.541014
21
737.599413
0
LINE
8
Calque 1
10
391.541014
20
737.599413
11
390.105934
21
735.836850
0
LINE
8
Calque 1
10
390.105934
20
735.836850
11
385.688020
21
729.628000
0
LINE
8
Calque 1
10
385.688020
20
729.628000
11
381.238233
21
722.801088
0
LINE
8
Calque 1
10
381.238233
20
722.801088
11
377.617590
21
716.696500
0
LINE
8
Calque 1
10
377.617590
20
716.696500
11
374.893662
21
711.435288
0
LINE
8
Calque 1
10
374.893662
20
711.435288
11
373.134020
21
707.138500
0
LINE
8
Calque 1
10
373.134020
20
707.138500
11
372.684915
21
705.512284
0
LINE
8
Calque 1
10
372.684915
20
705.512284
11
372.282424
21
703.391891
0
LINE
8
Calque 1
10
372.282424
20
703.391891
11
371.560063
21
696.997050
0
LINE
8
Calque 1
10
371.560063
20
696.997050
11
370.852495
21
686.610934
0
LINE
8
Calque 1
10
370.852495
20
686.610934
11
370.045280
21
670.890500
0
LINE
8
Calque 1
10
370.045280
20
670.890500
11
369.203593
21
654.205011
0
LINE
8
Calque 1
10
369.203593
20
654.205011
11
368.441808
21
641.684563
0
LINE
8
Calque 1
10
368.441808
20
641.684563
11
367.660668
21
631.893908
0
LINE
8
Calque 1
10
367.660668
20
631.893908
11
366.760920
21
623.397800
0
LINE
8
Calque 1
10
366.760920
20
623.397800
11
365.826186
21
616.693048
0
LINE
8
Calque 1
10
365.826186
20
616.693048
11
365.296291
21
614.007715
0
LINE
8
Calque 1
10
365.296291
20
614.007715
11
364.664761
21
611.562838
0
LINE
8
Calque 1
10
364.664761
20
611.562838
11
363.886635
21
609.205237
0
LINE
8
Calque 1
10
363.886635
20
609.205237
11
362.916951
21
606.781733
0
LINE
8
Calque 1
10
362.916951
20
606.781733
11
360.223060
21
601.124300
0
LINE
8
Calque 1
10
360.223060
20
601.124300
11
357.807819
21
596.146062
0
LINE
8
Calque 1
10
357.807819
20
596.146062
11
357.523759
21
595.219583
0
LINE
8
Calque 1
10
357.523759
20
595.219583
11
357.634710
21
594.795200
0
LINE
8
Calque 1
10
357.634710
20
594.795200
11
361.981200
21
591.389400
0
LINE
8
Calque 1
10
361.981200
20
591.389400
11
367.598271
21
586.949148
0
LINE
8
Calque 1
10
367.598271
20
586.949148
11
369.713672
21
585.017739
0
LINE
8
Calque 1
10
369.713672
20
585.017739
11
371.416246
21
583.221913
0
LINE
8
Calque 1
10
371.416246
20
583.221913
11
372.742940
21
581.518997
0
LINE
8
Calque 1
10
372.742940
20
581.518997
11
373.730699
21
579.866320
0
LINE
8
Calque 1
10
373.730699
20
579.866320
11
374.416470
21
578.221212
0
LINE
8
Calque 1
10
374.416470
20
578.221212
11
374.837200
21
576.541000
0
LINE
8
Calque 1
10
374.837200
20
576.541000
11
374.921898
21
574.492095
0
LINE
8
Calque 1
10
374.921898
20
574.492095
11
374.737713
21
573.589940
0
LINE
8
Calque 1
10
374.737713
20
573.589940
11
374.403266
21
572.770763
0
LINE
8
Calque 1
10
374.403266
20
572.770763
11
373.919130
21
572.035646
0
LINE
8
Calque 1
10
373.919130
20
572.035646
11
373.285874
21
571.385673
0
LINE
8
Calque 1
10
373.285874
20
571.385673
11
372.504071
21
570.821930
0
LINE
8
Calque 1
10
372.504071
20
570.821930
11
371.574290
21
570.345500
0
LINE
8
Calque 1
10
371.574290
20
570.345500
11
369.997273
21
569.821595
0
LINE
8
Calque 1
10
369.997273
20
569.821595
11
368.517590
21
569.736188
0
LINE
8
Calque 1
10
368.517590
20
569.736188
11
366.890727
21
570.112161
0
LINE
8
Calque 1
10
366.890727
20
570.112161
11
364.872170
21
570.972400
0
LINE
8
Calque 1
10
364.872170
20
570.972400
11
362.323446
21
572.043113
0
LINE
8
Calque 1
10
362.323446
20
572.043113
11
360.000030
21
572.494700
0
LINE
8
Calque 1
10
360.000030
20
572.494700
11
357.794473
21
572.813156
0
LINE
8
Calque 1
10
357.794473
20
572.813156
11
355.873900
21
573.263800
0
LINE
8
Calque 1
10
355.873900
20
573.263800
11
353.998147
21
573.916419
0
LINE
8
Calque 1
10
353.998147
20
573.916419
11
351.927050
21
574.840800
0
LINE
8
Calque 1
10
351.927050
20
574.840800
11
348.109958
21
576.938972
0
LINE
8
Calque 1
10
348.109958
20
576.938972
11
344.636118
21
579.448725
0
LINE
8
Calque 1
10
344.636118
20
579.448725
11
341.246618
21
582.582966
0
LINE
8
Calque 1
10
341.246618
20
582.582966
11
337.682550
21
586.554600
0
LINE
8
Calque 1
10
337.682550
20
586.554600
11
336.633226
21
587.644486
0
LINE
8
Calque 1
10
336.633226
20
587.644486
11
335.736080
21
588.063337
0
LINE
8
Calque 1
10
335.736080
20
588.063337
11
334.765554
21
587.834020
0
LINE
8
Calque 1
10
334.765554
20
587.834020
11
333.496090
21
586.979400
0
LINE
8
Calque 1
10
333.496090
20
586.979400
11
331.537040
21
585.257303
0
LINE
8
Calque 1
10
331.537040
20
585.257303
11
329.190333
21
582.955475
0
LINE
8
Calque 1
10
329.190333
20
582.955475
11
327.221163
21
580.854534
0
LINE
8
Calque 1
10
327.221163
20
580.854534
11
326.394730
21
579.735100
0
LINE
8
Calque 1
10
326.394730
20
579.735100
11
326.627478
21
579.139002
0
LINE
8
Calque 1
10
326.627478
20
579.139002
11
327.266415
21
578.143669
0
LINE
8
Calque 1
10
327.266415
20
578.143669
11
329.407001
21
575.384075
0
LINE
8
Calque 1
10
329.407001
20
575.384075
11
332.104787
21
572.313869
0
LINE
8
Calque 1
10
332.104787
20
572.313869
11
334.648070
21
569.790600
0
LINE
8
Calque 1
10
334.648070
20
569.790600
11
337.788795
21
567.294880
0
LINE
8
Calque 1
10
337.788795
20
567.294880
11
341.012053
21
565.327262
0
LINE
8
Calque 1
10
341.012053
20
565.327262
11
344.556268
21
563.763314
0
LINE
8
Calque 1
10
344.556268
20
563.763314
11
348.659870
21
562.478600
0
LINE
8
Calque 1
10
348.659870
20
562.478600
11
351.598443
21
561.619187
0
LINE
8
Calque 1
10
351.598443
20
561.619187
11
353.219730
21
561.000300
0
LINE
8
Calque 1
10
353.219730
20
561.000300
11
353.946336
21
560.193097
0
LINE
8
Calque 1
10
353.946336
20
560.193097
11
354.165775
21
559.212175
0
LINE
8
Calque 1
10
354.165775
20
559.212175
11
353.885384
21
558.286941
0
LINE
8
Calque 1
10
353.885384
20
558.286941
11
353.560045
21
557.916896
0
LINE
8
Calque 1
10
353.560045
20
557.916896
11
353.112500
21
557.646800
0
LINE
8
Calque 1
10
353.112500
20
557.646800
11
351.665293
21
557.390272
0
LINE
8
Calque 1
10
351.665293
20
557.390272
11
349.603853
21
557.450750
0
LINE
8
Calque 1
10
349.603853
20
557.450750
11
347.267143
21
557.796903
0
LINE
8
Calque 1
10
347.267143
20
557.796903
11
344.994130
21
558.397400
0
LINE
8
Calque 1
10
344.994130
20
558.397400
11
342.265709
21
559.445000
0
LINE
8
Calque 1
10
342.265709
20
559.445000
11
339.551975
21
560.743119
0
LINE
8
Calque 1
10
339.551975
20
560.743119
11
336.856326
21
562.289309
0
LINE
8
Calque 1
10
336.856326
20
562.289309
11
334.182161
21
564.081125
0
LINE
8
Calque 1
10
334.182161
20
564.081125
11
331.532880
21
566.116119
0
LINE
8
Calque 1
10
331.532880
20
566.116119
11
328.911882
21
568.391844
0
LINE
8
Calque 1
10
328.911882
20
568.391844
11
326.322566
21
570.905853
0
LINE
8
Calque 1
10
326.322566
20
570.905853
11
323.768330
21
573.655700
0
LINE
8
Calque 1
10
323.768330
20
573.655700
11
322.364700
21
575.242800
0
LINE
8
Calque 1
10
322.364700
20
575.242800
11
321.444380
21
574.184900
0
LINE
8
Calque 1
10
321.444380
20
574.184900
11
319.384731
21
571.465972
0
LINE
8
Calque 1
10
319.384731
20
571.465972
11
317.464779
21
568.358375
0
LINE
8
Calque 1
10
317.464779
20
568.358375
11
316.046994
21
565.509041
0
LINE
8
Calque 1
10
316.046994
20
565.509041
11
315.639688
21
564.383388
0
LINE
8
Calque 1
10
315.639688
20
564.383388
11
315.493850
21
563.564900
0
LINE
8
Calque 1
10
315.493850
20
563.564900
11
315.624257
21
562.686901
0
LINE
8
Calque 1
10
315.624257
20
562.686901
11
315.999812
21
561.652942
0
LINE
8
Calque 1
10
315.999812
20
561.652942
11
317.392381
21
559.252537
0
LINE
8
Calque 1
10
317.392381
20
559.252537
11
319.483585
21
556.634464
0
LINE
8
Calque 1
10
319.483585
20
556.634464
11
322.085450
21
554.069500
0
LINE
8
Calque 1
10
322.085450
20
554.069500
11
325.588848
21
551.223751
0
LINE
8
Calque 1
10
325.588848
20
551.223751
11
329.342733
21
548.590839
0
LINE
8
Calque 1
10
329.342733
20
548.590839
11
333.292339
21
546.197029
0
LINE
8
Calque 1
10
333.292339
20
546.197029
11
337.382899
21
544.068587
0
LINE
8
Calque 1
10
337.382899
20
544.068587
11
341.559646
21
542.231778
0
LINE
8
Calque 1
10
341.559646
20
542.231778
11
345.767815
21
540.712867
0
LINE
8
Calque 1
10
345.767815
20
540.712867
11
349.952639
21
539.538119
0
LINE
8
Calque 1
10
349.952639
20
539.538119
11
354.059350
21
538.733800
0
LINE
8
Calque 1
10
354.059350
20
538.733800
11
356.601940
21
538.474791
0
LINE
8
Calque 1
10
356.601940
20
538.474791
11
359.451860
21
538.352825
0
LINE
8
Calque 1
10
359.451860
20
538.352825
11
361.875127
21
538.380972
0
LINE
8
Calque 1
10
361.875127
20
538.380972
11
363.137760
21
538.572300
0
LINE
8
Calque 1
10
363.137760
20
538.572300
11
363.455199
21
539.280587
0
LINE
8
Calque 1
10
363.455199
20
539.280587
11
363.695920
21
540.796700
0
LINE
8
Calque 1
10
363.695920
20
540.796700
11
363.969140
21
542.399462
0
LINE
8
Calque 1
10
363.969140
20
542.399462
11
364.482644
21
543.763200
0
LINE
8
Calque 1
10
364.482644
20
543.763200
11
365.294226
21
545.001387
0
LINE
8
Calque 1
10
365.294226
20
545.001387
11
366.461680
21
546.227500
0
LINE
8
Calque 1
10
366.461680
20
546.227500
11
367.760955
21
547.318392
0
LINE
8
Calque 1
10
367.760955
20
547.318392
11
369.083279
21
548.213412
0
LINE
8
Calque 1
10
369.083279
20
548.213412
11
370.445568
21
548.922677
0
LINE
8
Calque 1
10
370.445568
20
548.922677
11
371.864740
21
549.456300
0
LINE
8
Calque 1
10
371.864740
20
549.456300
11
373.353873
21
549.827920
0
LINE
8
Calque 1
10
373.353873
20
549.827920
11
374.703748
21
549.946912
0
LINE
8
Calque 1
10
374.703748
20
549.946912
11
376.068941
21
549.812348
0
LINE
8
Calque 1
10
376.068941
20
549.812348
11
377.604030
21
549.423300
0
LINE
8
Calque 1
10
377.604030
20
549.423300
11
378.944869
21
548.869683
0
LINE
8
Calque 1
10
378.944869
20
548.869683
11
380.120818
21
548.105400
0
LINE
8
Calque 1
10
380.120818
20
548.105400
11
381.113025
21
547.162317
0
LINE
8
Calque 1
10
381.113025
20
547.162317
11
381.902639
21
546.072300
0
LINE
8
Calque 1
10
381.902639
20
546.072300
11
382.470809
21
544.867214
0
LINE
8
Calque 1
10
382.470809
20
544.867214
11
382.798685
21
543.578925
0
LINE
8
Calque 1
10
382.798685
20
543.578925
11
382.867416
21
542.239298
0
LINE
8
Calque 1
10
382.867416
20
542.239298
11
382.658150
21
540.880200
0
LINE
8
Calque 1
10
382.658150
20
540.880200
11
381.900025
21
539.697587
0
LINE
8
Calque 1
10
381.900025
20
539.697587
11
380.356260
21
537.923000
0
LINE
8
Calque 1
10
380.356260
20
537.923000
11
378.814499
21
536.159850
0
LINE
8
Calque 1
10
378.814499
20
536.159850
11
378.253010
21
535.152700
0
LINE
8
Calque 1
10
378.253010
20
535.152700
11
378.699061
21
534.254175
0
LINE
8
Calque 1
10
378.699061
20
534.254175
11
379.829750
21
532.857800
0
LINE
8
Calque 1
10
379.829750
20
532.857800
11
381.456683
21
530.958033
0
LINE
8
Calque 1
10
381.456683
20
530.958033
11
381.954360
21
530.086712
0
LINE
8
Calque 1
10
381.954360
20
530.086712
11
382.288536
21
529.062812
0
LINE
8
Calque 1
10
382.288536
20
529.062812
11
382.607466
21
525.942411
0
LINE
8
Calque 1
10
382.607466
20
525.942411
11
382.695630
21
520.367100
0
LINE
8
Calque 1
10
382.695630
20
520.367100
11
382.772630
21
512.057600
0
LINE
8
Calque 1
10
382.772630
20
512.057600
11
382.112270
21
510.709800
0
LINE
8
Calque 1
10
382.112270
20
510.709800
11
379.461290
21
506.583900
0
LINE
8
Calque 1
10
379.461290
20
506.583900
11
377.931990
21
504.255900
0
LINE
8
Calque 1
10
377.931990
20
504.255900
11
377.050480
21
502.560000
0
LINE
8
Calque 1
10
377.050480
20
502.560000
11
376.764855
21
501.351362
0
LINE
8
Calque 1
10
376.764855
20
501.351362
11
377.104280
21
500.315300
0
LINE
8
Calque 1
10
377.104280
20
500.315300
11
377.640872
21
499.433367
0
LINE
8
Calque 1
10
377.640872
20
499.433367
11
378.465359
21
498.400017
0
LINE
8
Calque 1
10
378.465359
20
498.400017
11
380.764749
21
496.074062
0
LINE
8
Calque 1
10
380.764749
20
496.074062
11
383.575914
21
493.727427
0
LINE
8
Calque 1
10
383.575914
20
493.727427
11
386.472320
21
491.750100
0
LINE
8
Calque 1
10
386.472320
20
491.750100
11
389.299316
21
490.300333
0
LINE
8
Calque 1
10
389.299316
20
490.300333
11
390.522631
21
489.895761
0
LINE
8
Calque 1
10
390.522631
20
489.895761
11
391.678223
21
489.699912
0
LINE
8
Calque 1
10
391.678223
20
489.699912
11
392.810389
21
489.709175
0
LINE
8
Calque 1
10
392.810389
20
489.709175
11
393.963428
21
489.919936
0
LINE
8
Calque 1
10
393.963428
20
489.919936
11
396.509320
21
490.931500
0
LINE
8
Calque 1
10
396.509320
20
490.931500
11
396.509370
21
490.931900
0
LINE
8
Calque 1
10
390.499950
20
554.672300
11
389.488652
21
556.190236
0
LINE
8
Calque 1
10
389.488652
20
556.190236
11
388.108226
21
558.732438
0
LINE
8
Calque 1
10
388.108226
20
558.732438
11
386.754990
21
561.525420
0
LINE
8
Calque 1
10
386.754990
20
561.525420
11
385.825260
21
563.795700
0
LINE
8
Calque 1
10
385.825260
20
563.795700
11
385.584596
21
564.787703
0
LINE
8
Calque 1
10
385.584596
20
564.787703
11
385.658203
21
565.654775
0
LINE
8
Calque 1
10
385.658203
20
565.654775
11
386.108380
21
566.614134
0
LINE
8
Calque 1
10
386.108380
20
566.614134
11
386.997430
21
567.883000
0
LINE
8
Calque 1
10
386.997430
20
567.883000
11
388.606295
21
570.347856
0
LINE
8
Calque 1
10
388.606295
20
570.347856
11
389.664889
21
572.841925
0
LINE
8
Calque 1
10
389.664889
20
572.841925
11
390.246294
21
575.599206
0
LINE
8
Calque 1
10
390.246294
20
575.599206
11
390.423590
21
578.853700
0
LINE
8
Calque 1
10
390.423590
20
578.853700
11
390.262647
21
582.676728
0
LINE
8
Calque 1
10
390.262647
20
582.676728
11
389.702406
21
586.003500
0
LINE
8
Calque 1
10
389.702406
20
586.003500
11
388.625560
21
589.309422
0
LINE
8
Calque 1
10
388.625560
20
589.309422
11
386.914800
21
593.069900
0
LINE
8
Calque 1
10
386.914800
20
593.069900
11
385.525838
21
596.050547
0
LINE
8
Calque 1
10
385.525838
20
596.050547
11
385.154375
21
597.141574
0
LINE
8
Calque 1
10
385.154375
20
597.141574
11
384.990794
21
598.072975
0
LINE
8
Calque 1
10
384.990794
20
598.072975
11
385.029496
21
598.924679
0
LINE
8
Calque 1
10
385.029496
20
598.924679
11
385.264885
21
599.776616
0
LINE
8
Calque 1
10
385.264885
20
599.776616
11
386.303330
21
601.800900
0
LINE
8
Calque 1
10
386.303330
20
601.800900
11
387.587770
21
603.991800
0
LINE
8
Calque 1
10
387.587770
20
603.991800
11
388.072220
21
610.784400
0
LINE
8
Calque 1
10
388.072220
20
610.784400
11
389.091360
21
628.437550
0
LINE
8
Calque 1
10
389.091360
20
628.437550
11
389.623210
21
647.210300
0
LINE
8
Calque 1
10
389.623210
20
647.210300
11
389.870354
21
657.487150
0
LINE
8
Calque 1
10
389.870354
20
657.487150
11
390.141490
21
661.921200
0
LINE
8
Calque 1
10
390.141490
20
661.921200
11
390.489306
21
662.735088
0
LINE
8
Calque 1
10
390.489306
20
662.735088
11
390.972604
21
663.335750
0
LINE
8
Calque 1
10
390.972604
20
663.335750
11
391.573979
21
663.707588
0
LINE
8
Calque 1
10
391.573979
20
663.707588
11
392.276030
21
663.835000
0
LINE
8
Calque 1
10
392.276030
20
663.835000
11
392.978087
21
663.707588
0
LINE
8
Calque 1
10
392.978087
20
663.707588
11
393.579465
21
663.335750
0
LINE
8
Calque 1
10
393.579465
20
663.335750
11
394.062763
21
662.735088
0
LINE
8
Calque 1
10
394.062763
20
662.735088
11
394.410580
21
661.921200
0
LINE
8
Calque 1
10
394.410580
20
661.921200
11
394.681716
21
657.487150
0
LINE
8
Calque 1
10
394.681716
20
657.487150
11
394.928860
21
647.210300
0
LINE
8
Calque 1
10
394.928860
20
647.210300
11
395.460710
21
628.437550
0
LINE
8
Calque 1
10
395.460710
20
628.437550
11
396.479850
21
610.784400
0
LINE
8
Calque 1
10
396.479850
20
610.784400
11
396.964300
21
603.991800
0
LINE
8
Calque 1
10
396.964300
20
603.991800
11
398.248740
21
601.800900
0
LINE
8
Calque 1
10
398.248740
20
601.800900
11
399.275851
21
599.786337
0
LINE
8
Calque 1
10
399.275851
20
599.786337
11
399.518787
21
598.939146
0
LINE
8
Calque 1
10
399.518787
20
598.939146
11
399.577806
21
598.111675
0
LINE
8
Calque 1
10
399.577806
20
598.111675
11
399.450278
21
597.238670
0
LINE
8
Calque 1
10
399.450278
20
597.238670
11
399.133574
21
596.254875
0
LINE
8
Calque 1
10
399.133574
20
596.254875
11
397.922120
21
593.693900
0
LINE
8
Calque 1
10
397.922120
20
593.693900
11
396.106561
21
589.828581
0
LINE
8
Calque 1
10
396.106561
20
589.828581
11
394.938910
21
586.339575
0
LINE
8
Calque 1
10
394.938910
20
586.339575
11
394.314574
21
582.817681
0
LINE
8
Calque 1
10
394.314574
20
582.817681
11
394.128960
21
578.853700
0
LINE
8
Calque 1
10
394.128960
20
578.853700
11
394.305928
21
575.599445
0
LINE
8
Calque 1
10
394.305928
20
575.599445
11
394.887099
21
572.842263
0
LINE
8
Calque 1
10
394.887099
20
572.842263
11
395.945620
21
570.348123
0
LINE
8
Calque 1
10
395.945620
20
570.348123
11
397.554640
21
567.883000
0
LINE
8
Calque 1
10
397.554640
20
567.883000
11
398.462827
21
566.589456
0
LINE
8
Calque 1
10
398.462827
20
566.589456
11
398.897730
21
565.620100
0
LINE
8
Calque 1
10
398.897730
20
565.620100
11
398.926021
21
564.703469
0
LINE
8
Calque 1
10
398.926021
20
564.703469
11
398.614370
21
563.568100
0
LINE
8
Calque 1
10
398.614370
20
563.568100
11
397.665577
21
561.243791
0
LINE
8
Calque 1
10
397.665577
20
561.243791
11
396.365316
21
558.550875
0
LINE
8
Calque 1
10
396.365316
20
558.550875
11
395.048715
21
556.142622
0
LINE
8
Calque 1
10
395.048715
20
556.142622
11
394.050900
21
554.672300
0
LINE
8
Calque 1
10
394.050900
20
554.672300
11
393.144850
21
553.894275
0
LINE
8
Calque 1
10
393.144850
20
553.894275
11
392.276030
21
553.680100
0
LINE
8
Calque 1
10
392.276030
20
553.680100
11
391.406950
21
553.894350
0
LINE
8
Calque 1
10
391.406950
20
553.894350
11
390.499950
21
554.672300
0
LINE
8
Calque 1
10
390.499950
20
554.672300
11
390.499950
21
554.672300
0
LINE
8
Calque 1
10
380.581220
20
525.751900
11
380.424891
21
527.540188
0
LINE
8
Calque 1
10
380.424891
20
527.540188
11
380.036244
21
528.873825
0
LINE
8
Calque 1
10
380.036244
20
528.873825
11
379.235274
21
530.147275
0
LINE
8
Calque 1
10
379.235274
20
530.147275
11
377.841980
21
531.755000
0
LINE
8
Calque 1
10
377.841980
20
531.755000
11
376.840222
21
532.911267
0
LINE
8
Calque 1
10
376.840222
20
532.911267
11
376.289811
21
533.789838
0
LINE
8
Calque 1
10
376.289811
20
533.789838
11
376.083795
21
534.634339
0
LINE
8
Calque 1
10
376.083795
20
534.634339
11
376.115220
21
535.688400
0
LINE
8
Calque 1
10
376.115220
20
535.688400
11
376.321208
21
536.419400
0
LINE
8
Calque 1
10
376.321208
20
536.419400
11
376.730670
21
537.247900
0
LINE
8
Calque 1
10
376.730670
20
537.247900
11
377.285050
21
538.145900
0
LINE
8
Calque 1
10
377.285050
20
538.145900
11
374.527940
21
540.781000
0
LINE
8
Calque 1
10
374.527940
20
540.781000
11
370.540670
21
544.609400
0
LINE
8
Calque 1
10
370.540670
20
544.609400
11
369.310520
21
545.802600
0
LINE
8
Calque 1
10
369.310520
20
545.802600
11
368.053340
21
544.648100
0
LINE
8
Calque 1
10
368.053340
20
544.648100
11
367.066824
21
543.592084
0
LINE
8
Calque 1
10
367.066824
20
543.592084
11
366.372682
21
542.493675
0
LINE
8
Calque 1
10
366.372682
20
542.493675
11
365.956765
21
541.323978
0
LINE
8
Calque 1
10
365.956765
20
541.323978
11
365.804920
21
540.054100
0
LINE
8
Calque 1
10
365.804920
20
540.054100
11
365.560400
21
538.202000
0
LINE
8
Calque 1
10
365.560400
20
538.202000
11
365.722517
21
537.652223
0
LINE
8
Calque 1
10
365.722517
20
537.652223
11
366.746842
21
536.395863
0
LINE
8
Calque 1
10
366.746842
20
536.395863
11
372.921190
21
530.061300
0
LINE
8
Calque 1
10
372.921190
20
530.061300
11
378.736982
21
524.351425
0
LINE
8
Calque 1
10
378.736982
20
524.351425
11
380.120796
21
523.132594
0
LINE
8
Calque 1
10
380.120796
20
523.132594
11
380.597530
21
522.902900
0
LINE
8
Calque 1
10
380.597530
20
522.902900
11
380.581230
21
525.751900
0
LINE
8
Calque 1
10
380.581230
20
525.751900
11
380.581220
21
525.751900
0
LINE
8
Calque 1
10
418.976420
20
538.261200
11
418.728530
21
540.137400
0
LINE
8
Calque 1
10
418.728530
20
540.137400
11
418.588615
21
541.354828
0
LINE
8
Calque 1
10
418.588615
20
541.354828
11
418.176274
21
542.501925
0
LINE
8
Calque 1
10
418.176274
20
542.501925
11
417.484616
21
543.592584
0
LINE
8
Calque 1
10
417.484616
20
543.592584
11
416.506750
21
544.640700
0
LINE
8
Calque 1
10
416.506750
20
544.640700
11
415.257620
21
545.787700
0
LINE
8
Calque 1
10
415.257620
20
545.787700
11
413.623490
21
544.243800
0
LINE
8
Calque 1
10
413.623490
20
544.243800
11
409.631850
21
540.417000
0
LINE
8
Calque 1
10
409.631850
20
540.417000
11
407.274350
21
538.134000
0
LINE
8
Calque 1
10
407.274350
20
538.134000
11
407.825050
21
537.242000
0
LINE
8
Calque 1
10
407.825050
20
537.242000
11
408.231915
21
536.417650
0
LINE
8
Calque 1
10
408.231915
20
536.417650
11
408.436820
21
535.688400
0
LINE
8
Calque 1
10
408.436820
20
535.688400
11
408.468248
21
534.634339
0
LINE
8
Calque 1
10
408.468248
20
534.634339
11
408.262244
21
533.789838
0
LINE
8
Calque 1
10
408.262244
20
533.789838
11
407.711838
21
532.911267
0
LINE
8
Calque 1
10
407.711838
20
532.911267
11
406.710060
21
531.755000
0
LINE
8
Calque 1
10
406.710060
20
531.755000
11
405.270219
21
530.098272
0
LINE
8
Calque 1
10
405.270219
20
530.098272
11
404.471800
21
528.787275
0
LINE
8
Calque 1
10
404.471800
20
528.787275
11
404.108599
21
527.330741
0
LINE
8
Calque 1
10
404.108599
20
527.330741
11
403.974410
21
525.237400
0
LINE
8
Calque 1
10
403.974410
20
525.237400
11
403.874510
21
522.327000
0
LINE
8
Calque 1
10
403.874510
20
522.327000
11
411.546510
21
529.975700
0
LINE
8
Calque 1
10
411.546510
20
529.975700
11
417.997332
21
536.542450
0
LINE
8
Calque 1
10
417.997332
20
536.542450
11
418.904224
21
537.710497
0
LINE
8
Calque 1
10
418.904224
20
537.710497
11
418.976440
21
538.261200
0
LINE
8
Calque 1
10
418.976440
20
538.261200
11
418.976420
21
538.261200
0
LINE
8
Calque 1
10
348.222920
20
560.289000
11
343.996046
21
561.556063
0
LINE
8
Calque 1
10
343.996046
20
561.556063
11
340.664590
21
562.938100
0
LINE
8
Calque 1
10
340.664590
20
562.938100
11
339.852406
21
563.293200
0
LINE
8
Calque 1
10
339.852406
20
563.293200
11
339.778083
21
563.260413
0
LINE
8
Calque 1
10
339.778083
20
563.260413
11
339.907560
21
563.090900
0
LINE
8
Calque 1
10
339.907560
20
563.090900
11
340.572862
21
562.610727
0
LINE
8
Calque 1
10
340.572862
20
562.610727
11
341.665620
21
562.054741
0
LINE
8
Calque 1
10
341.665620
20
562.054741
11
344.634114
21
560.887575
0
LINE
8
Calque 1
10
344.634114
20
560.887575
11
347.814255
21
559.933897
0
LINE
8
Calque 1
10
347.814255
20
559.933897
11
350.207260
21
559.538200
0
LINE
8
Calque 1
10
350.207260
20
559.538200
11
350.407055
21
559.587914
0
LINE
8
Calque 1
10
350.407055
20
559.587914
11
350.132018
21
559.733713
0
LINE
8
Calque 1
10
350.132018
20
559.733713
11
348.222890
21
560.289000
0
LINE
8
Calque 1
10
348.222890
20
560.289000
11
348.222920
21
560.289000
0
LINE
8
Calque 1
10
437.158720
20
560.020700
11
439.247756
21
560.648061
0
LINE
8
Calque 1
10
439.247756
20
560.648061
11
441.557937
21
561.519088
0
LINE
8
Calque 1
10
441.557937
20
561.519088
11
443.539967
21
562.408470
0
LINE
8
Calque 1
10
443.539967
20
562.408470
11
444.644550
21
563.090900
0
LINE
8
Calque 1
10
444.644550
20
563.090900
11
444.774030
21
563.260413
0
LINE
8
Calque 1
10
444.774030
20
563.260413
11
444.699704
21
563.293200
0
LINE
8
Calque 1
10
444.699704
20
563.293200
11
443.887520
21
562.938100
0
LINE
8
Calque 1
10
443.887520
20
562.938100
11
440.556064
21
561.556063
0
LINE
8
Calque 1
10
440.556064
20
561.556063
11
436.329190
21
560.289000
0
LINE
8
Calque 1
10
436.329190
20
560.289000
11
434.611921
21
559.778783
0
LINE
8
Calque 1
10
434.611921
20
559.778783
11
434.273627
21
559.621789
0
LINE
8
Calque 1
10
434.273627
20
559.621789
11
434.261331
21
559.536963
0
LINE
8
Calque 1
10
434.261331
20
559.536963
11
435.152053
21
559.604086
0
LINE
8
Calque 1
10
435.152053
20
559.604086
11
437.158720
21
560.020700
0
LINE
8
Calque 1
10
437.158720
20
560.020700
11
437.158720
21
560.020700
0
LINE
8
Calque 1
10
324.158000
20
579.856000
11
324.236247
21
580.490452
0
LINE
8
Calque 1
10
324.236247
20
580.490452
11
324.560779
21
581.151387
0
LINE
8
Calque 1
10
324.560779
20
581.151387
11
326.586430
21
583.513200
0
LINE
8
Calque 1
10
326.586430
20
583.513200
11
329.002620
21
586.131700
0
LINE
8
Calque 1
10
329.002620
20
586.131700
11
316.882520
21
598.249600
0
LINE
8
Calque 1
10
316.882520
20
598.249600
11
306.740145
21
608.259013
0
LINE
8
Calque 1
10
306.740145
20
608.259013
11
305.008089
21
609.753695
0
LINE
8
Calque 1
10
305.008089
20
609.753695
11
304.639531
21
609.939462
0
LINE
8
Calque 1
10
304.639531
20
609.939462
11
304.474120
21
609.871200
0
LINE
8
Calque 1
10
304.474120
20
609.871200
11
304.268134
21
609.615425
0
LINE
8
Calque 1
10
304.268134
20
609.615425
11
304.177760
21
609.697300
0
LINE
8
Calque 1
10
304.177760
20
609.697300
11
304.039279
21
609.886700
0
LINE
8
Calque 1
10
304.039279
20
609.886700
11
303.706690
21
609.877500
0
LINE
8
Calque 1
10
303.706690
20
609.877500
11
303.565057
21
609.888150
0
LINE
8
Calque 1
10
303.565057
20
609.888150
11
303.874730
21
610.112700
0
LINE
8
Calque 1
10
303.874730
20
610.112700
11
304.266887
21
610.440925
0
LINE
8
Calque 1
10
304.266887
20
610.440925
11
304.205460
21
610.675700
0
LINE
8
Calque 1
10
304.205460
20
610.675700
11
303.993353
21
610.715563
0
LINE
8
Calque 1
10
303.993353
20
610.715563
11
303.905130
21
610.550300
0
LINE
8
Calque 1
10
303.905130
20
610.550300
11
303.755925
21
610.365988
0
LINE
8
Calque 1
10
303.755925
20
610.365988
11
303.376230
21
610.377500
0
LINE
8
Calque 1
10
303.376230
20
610.377500
11
302.959166
21
610.404950
0
LINE
8
Calque 1
10
302.959166
20
610.404950
11
302.699160
21
610.276100
0
LINE
8
Calque 1
10
302.699160
20
610.276100
11
302.456304
21
610.071098
0
LINE
8
Calque 1
10
302.456304
20
610.071098
11
302.157958
21
610.052312
0
LINE
8
Calque 1
10
302.157958
20
610.052312
11
301.885287
21
610.201245
0
LINE
8
Calque 1
10
301.885287
20
610.201245
11
301.719460
21
610.499400
0
LINE
8
Calque 1
10
301.719460
20
610.499400
11
301.568464
21
610.623063
0
LINE
8
Calque 1
10
301.568464
20
610.623063
11
301.327040
21
610.036400
0
LINE
8
Calque 1
10
301.327040
20
610.036400
11
301.083461
21
609.381837
0
LINE
8
Calque 1
10
301.083461
20
609.381837
11
300.997690
21
609.771800
0
LINE
8
Calque 1
10
300.997690
20
609.771800
11
300.925808
21
610.138537
0
LINE
8
Calque 1
10
300.925808
20
610.138537
11
300.815810
21
610.091500
0
LINE
8
Calque 1
10
300.815810
20
610.091500
11
300.629054
21
609.887450
0
LINE
8
Calque 1
10
300.629054
20
609.887450
11
300.307530
21
610.057500
0
LINE
8
Calque 1
10
300.307530
20
610.057500
11
300.015346
21
610.230675
0
LINE
8
Calque 1
10
300.015346
20
610.230675
11
299.936380
21
610.039500
0
LINE
8
Calque 1
10
299.936380
20
610.039500
11
299.769604
21
609.837775
0
LINE
8
Calque 1
10
299.769604
20
609.837775
11
299.274920
21
609.879800
0
LINE
8
Calque 1
10
299.274920
20
609.879800
11
298.776509
21
609.921437
0
LINE
8
Calque 1
10
298.776509
20
609.921437
11
298.609410
21
609.710100
0
LINE
8
Calque 1
10
298.609410
20
609.710100
11
298.552660
21
609.535212
0
LINE
8
Calque 1
10
298.552660
20
609.535212
11
298.369310
21
609.747100
0
LINE
8
Calque 1
10
298.369310
20
609.747100
11
298.241598
21
610.134087
0
LINE
8
Calque 1
10
298.241598
20
610.134087
11
298.266030
21
610.540800
0
LINE
8
Calque 1
10
298.266030
20
610.540800
11
298.324603
21
610.814187
0
LINE
8
Calque 1
10
298.324603
20
610.814187
11
298.126720
21
610.577800
0
LINE
8
Calque 1
10
298.126720
20
610.577800
11
297.973780
21
610.000700
0
LINE
8
Calque 1
10
297.973780
20
610.000700
11
297.978874
21
609.815775
0
LINE
8
Calque 1
10
297.978874
20
609.815775
11
297.824030
21
609.641800
0
LINE
8
Calque 1
10
297.824030
20
609.641800
11
297.624371
21
609.701400
0
LINE
8
Calque 1
10
297.624371
20
609.701400
11
297.524440
21
610.086500
0
LINE
8
Calque 1
10
297.524440
20
610.086500
11
297.473600
21
610.458625
0
LINE
8
Calque 1
10
297.473600
20
610.458625
11
297.372120
21
610.231200
0
LINE
8
Calque 1
10
297.372120
20
610.231200
11
297.219979
21
609.942800
0
LINE
8
Calque 1
10
297.219979
20
609.942800
11
297.024990
21
609.904300
0
LINE
8
Calque 1
10
297.024990
20
609.904300
11
296.817288
21
609.850400
0
LINE
8
Calque 1
10
296.817288
20
609.850400
11
296.634590
21
609.524100
0
LINE
8
Calque 1
10
296.634590
20
609.524100
11
296.410158
21
609.186325
0
LINE
8
Calque 1
10
296.410158
20
609.186325
11
296.086380
21
609.151700
0
LINE
8
Calque 1
10
296.086380
20
609.151700
11
295.788517
21
609.337055
0
LINE
8
Calque 1
10
295.788517
20
609.337055
11
295.711791
21
609.524387
0
LINE
8
Calque 1
10
295.711791
20
609.524387
11
295.842285
21
609.636252
0
LINE
8
Calque 1
10
295.842285
20
609.636252
11
296.166080
21
609.595200
0
LINE
8
Calque 1
10
296.166080
20
609.595200
11
296.435198
21
609.549662
0
LINE
8
Calque 1
10
296.435198
20
609.549662
11
296.099980
21
609.859700
0
LINE
8
Calque 1
10
296.099980
20
609.859700
11
295.818806
21
610.163837
0
LINE
8
Calque 1
10
295.818806
20
610.163837
11
295.901540
21
610.292100
0
LINE
8
Calque 1
10
295.901540
20
610.292100
11
296.135118
21
610.382988
0
LINE
8
Calque 1
10
296.135118
20
610.382988
11
296.232270
21
610.595600
0
LINE
8
Calque 1
10
296.232270
20
610.595600
11
296.058054
21
610.697062
0
LINE
8
Calque 1
10
296.058054
20
610.697062
11
295.584610
21
610.466200
0
LINE
8
Calque 1
10
295.584610
20
610.466200
11
295.081173
21
610.236275
0
LINE
8
Calque 1
10
295.081173
20
610.236275
11
294.785650
21
610.286700
0
LINE
8
Calque 1
10
294.785650
20
610.286700
11
294.518040
21
610.447437
0
LINE
8
Calque 1
10
294.518040
20
610.447437
11
294.087080
21
610.490200
0
LINE
8
Calque 1
10
294.087080
20
610.490200
11
293.684731
21
610.393912
0
LINE
8
Calque 1
10
293.684731
20
610.393912
11
294.121580
21
609.977900
0
LINE
8
Calque 1
10
294.121580
20
609.977900
11
294.456741
21
609.645188
0
LINE
8
Calque 1
10
294.456741
20
609.645188
11
294.445560
21
609.506800
0
LINE
8
Calque 1
10
294.445560
20
609.506800
11
293.511440
21
610.183100
0
LINE
8
Calque 1
10
293.511440
20
610.183100
11
293.005183
21
610.605187
0
LINE
8
Calque 1
10
293.005183
20
610.605187
11
292.906333
21
610.590589
0
LINE
8
Calque 1
10
292.906333
20
610.590589
11
292.898090
21
610.430500
0
LINE
8
Calque 1
10
292.898090
20
610.430500
11
297.522555
21
605.547050
0
LINE
8
Calque 1
10
297.522555
20
605.547050
11
308.552590
21
594.408300
0
LINE
8
Calque 1
10
308.552590
20
594.408300
11
324.144990
21
578.816000
0
LINE
8
Calque 1
10
324.144990
20
578.816000
11
324.158090
21
579.855600
0
LINE
8
Calque 1
10
324.158090
20
579.855600
11
324.158000
21
579.856000
0
LINE
8
Calque 1
10
299.093000
20
609.423400
11
299.600120
21
609.402400
0
LINE
8
Calque 1
10
299.600120
20
609.402400
11
299.564025
21
609.295588
0
LINE
8
Calque 1
10
299.564025
20
609.295588
11
299.252860
21
609.263400
0
LINE
8
Calque 1
10
299.252860
20
609.263400
11
298.978196
21
609.316388
0
LINE
8
Calque 1
10
298.978196
20
609.316388
11
299.093000
21
609.423300
0
LINE
8
Calque 1
10
299.093000
20
609.423300
11
299.093000
21
609.423400
0
LINE
8
Calque 1
10
302.714490
20
610.036400
11
302.994690
21
610.300900
0
LINE
8
Calque 1
10
302.994690
20
610.300900
11
303.111360
21
610.036400
0
LINE
8
Calque 1
10
303.111360
20
610.036400
11
303.029051
21
609.849500
0
LINE
8
Calque 1
10
303.029051
20
609.849500
11
302.831160
21
609.771800
0
LINE
8
Calque 1
10
302.831160
20
609.771800
11
302.681306
21
609.849500
0
LINE
8
Calque 1
10
302.681306
20
609.849500
11
302.714490
21
610.036400
0
LINE
8
Calque 1
10
302.714490
20
610.036400
11
302.714490
21
610.036400
0
LINE
8
Calque 1
10
476.414490
20
594.876000
11
487.551896
21
606.081500
0
LINE
8
Calque 1
10
487.551896
20
606.081500
11
490.809842
21
609.383409
0
LINE
8
Calque 1
10
490.809842
20
609.383409
11
491.639513
21
610.235299
0
LINE
8
Calque 1
10
491.639513
20
610.235299
11
491.851890
21
610.469200
0
LINE
8
Calque 1
10
491.851890
20
610.469200
11
491.383185
21
610.192250
0
LINE
8
Calque 1
10
491.383185
20
610.192250
11
491.108670
21
610.283700
0
LINE
8
Calque 1
10
491.108670
20
610.283700
11
490.634960
21
610.565500
0
LINE
8
Calque 1
10
490.634960
20
610.565500
11
490.574289
21
610.451400
0
LINE
8
Calque 1
10
490.574289
20
610.451400
11
490.849010
21
610.177100
0
LINE
8
Calque 1
10
490.849010
20
610.177100
11
491.205679
21
609.849688
0
LINE
8
Calque 1
10
491.205679
20
609.849688
11
490.899610
21
609.780200
0
LINE
8
Calque 1
10
490.899610
20
609.780200
11
490.572603
21
609.693688
0
LINE
8
Calque 1
10
490.572603
20
609.693688
11
490.436590
21
609.491600
0
LINE
8
Calque 1
10
490.436590
20
609.491600
11
490.358584
21
609.341900
0
LINE
8
Calque 1
10
490.358584
20
609.341900
11
490.171040
21
609.375500
0
LINE
8
Calque 1
10
490.171040
20
609.375500
11
490.031061
21
609.680863
0
LINE
8
Calque 1
10
490.031061
20
609.680863
11
490.067430
21
610.184900
0
LINE
8
Calque 1
10
490.067430
20
610.184900
11
490.101628
21
610.686000
0
LINE
8
Calque 1
10
490.101628
20
610.686000
11
489.819430
21
610.830100
0
LINE
8
Calque 1
10
489.819430
20
610.830100
11
489.473711
21
610.739175
0
LINE
8
Calque 1
10
489.473711
20
610.739175
11
489.218180
21
610.520600
0
LINE
8
Calque 1
10
489.218180
20
610.520600
11
489.178603
21
610.329325
0
LINE
8
Calque 1
10
489.178603
20
610.329325
11
489.431960
21
610.366500
0
LINE
8
Calque 1
10
489.431960
20
610.366500
11
489.707532
21
610.379175
0
LINE
8
Calque 1
10
489.707532
20
610.379175
11
489.550220
21
609.914100
0
LINE
8
Calque 1
10
489.550220
20
609.914100
11
489.268423
21
609.544536
0
LINE
8
Calque 1
10
489.268423
20
609.544536
11
488.922185
21
609.381813
0
LINE
8
Calque 1
10
488.922185
20
609.381813
11
488.596864
21
609.439308
0
LINE
8
Calque 1
10
488.596864
20
609.439308
11
488.377820
21
609.730400
0
LINE
8
Calque 1
10
488.377820
20
609.730400
11
488.221920
21
609.897463
0
LINE
8
Calque 1
10
488.221920
20
609.897463
11
487.991860
21
609.864800
0
LINE
8
Calque 1
10
487.991860
20
609.864800
11
487.839471
21
609.826713
0
LINE
8
Calque 1
10
487.839471
20
609.826713
11
487.922560
21
610.035600
0
LINE
8
Calque 1
10
487.922560
20
610.035600
11
488.156945
21
610.223625
0
LINE
8
Calque 1
10
488.156945
20
610.223625
11
488.452620
21
609.948600
0
LINE
8
Calque 1
10
488.452620
20
609.948600
11
488.726759
21
609.693463
0
LINE
8
Calque 1
10
488.726759
20
609.693463
11
488.941400
21
609.688000
0
LINE
8
Calque 1
10
488.941400
20
609.688000
11
489.093255
21
610.088217
0
LINE
8
Calque 1
10
489.093255
20
610.088217
11
488.757005
21
610.333588
0
LINE
8
Calque 1
10
488.757005
20
610.333588
11
488.122757
21
610.369089
0
LINE
8
Calque 1
10
488.122757
20
610.369089
11
487.380620
21
610.139700
0
LINE
8
Calque 1
10
487.380620
20
610.139700
11
486.459674
21
609.786663
0
LINE
8
Calque 1
10
486.459674
20
609.786663
11
486.284708
21
609.834980
0
LINE
8
Calque 1
10
486.284708
20
609.834980
11
486.335550
21
610.036700
0
LINE
8
Calque 1
10
486.335550
20
610.036700
11
486.329854
21
610.223513
0
LINE
8
Calque 1
10
486.329854
20
610.223513
11
486.086580
21
610.301200
0
LINE
8
Calque 1
10
486.086580
20
610.301200
11
485.795259
21
610.236525
0
LINE
8
Calque 1
10
485.795259
20
610.236525
11
485.674090
21
610.080800
0
LINE
8
Calque 1
10
485.674090
20
610.080800
11
485.557510
21
609.925063
0
LINE
8
Calque 1
10
485.557510
20
609.925063
11
485.277220
21
609.860300
0
LINE
8
Calque 1
10
485.277220
20
609.860300
11
484.996925
21
609.934588
0
LINE
8
Calque 1
10
484.996925
20
609.934588
11
484.880340
21
610.113200
0
LINE
8
Calque 1
10
484.880340
20
610.113200
11
484.757676
21
610.189950
0
LINE
8
Calque 1
10
484.757676
20
610.189950
11
484.462760
21
610.019200
0
LINE
8
Calque 1
10
484.462760
20
610.019200
11
483.918297
21
609.742992
0
LINE
8
Calque 1
10
483.918297
20
609.742992
11
483.293075
21
609.634138
0
LINE
8
Calque 1
10
483.293075
20
609.634138
11
482.808591
21
609.701064
0
LINE
8
Calque 1
10
482.808591
20
609.701064
11
482.686340
21
609.952200
0
LINE
8
Calque 1
10
482.686340
20
609.952200
11
482.863030
21
610.193420
0
LINE
8
Calque 1
10
482.863030
20
610.193420
11
483.123866
21
610.288588
0
LINE
8
Calque 1
10
483.123866
20
610.288588
11
483.724990
21
610.028200
0
LINE
8
Calque 1
10
483.724990
20
610.028200
11
483.932251
21
609.919150
0
LINE
8
Calque 1
10
483.932251
20
609.919150
11
483.998400
21
610.160500
0
LINE
8
Calque 1
10
483.998400
20
610.160500
11
483.883000
21
610.450800
0
LINE
8
Calque 1
10
483.883000
20
610.450800
11
483.118230
21
610.582300
0
LINE
8
Calque 1
10
483.118230
20
610.582300
11
482.675214
21
610.699500
0
LINE
8
Calque 1
10
482.675214
20
610.699500
11
482.631880
21
610.565300
0
LINE
8
Calque 1
10
482.631880
20
610.565300
11
482.664709
21
610.379075
0
LINE
8
Calque 1
10
482.664709
20
610.379075
11
482.514710
21
610.301600
0
LINE
8
Calque 1
10
482.514710
20
610.301600
11
482.316433
21
610.398737
0
LINE
8
Calque 1
10
482.316433
20
610.398737
11
482.233190
21
610.632300
0
LINE
8
Calque 1
10
482.233190
20
610.632300
11
482.037444
21
610.632512
0
LINE
8
Calque 1
10
482.037444
20
610.632512
11
481.568750
21
610.169300
0
LINE
8
Calque 1
10
481.568750
20
610.169300
11
481.110495
21
609.686412
0
LINE
8
Calque 1
10
481.110495
20
609.686412
11
480.939940
21
609.640100
0
LINE
8
Calque 1
10
480.939940
20
609.640100
11
480.938940
21
610.301600
0
LINE
8
Calque 1
10
480.938940
20
610.301600
11
480.866448
21
610.552463
0
LINE
8
Calque 1
10
480.866448
20
610.552463
11
480.676100
21
610.339600
0
LINE
8
Calque 1
10
480.676100
20
610.339600
11
480.454960
21
610.125550
0
LINE
8
Calque 1
10
480.454960
20
610.125550
11
480.250800
21
610.300600
0
LINE
8
Calque 1
10
480.250800
20
610.300600
11
479.380463
21
609.655109
0
LINE
8
Calque 1
10
479.380463
20
609.655109
11
476.989641
21
607.428300
0
LINE
8
Calque 1
10
476.989641
20
607.428300
11
467.800100
21
598.377800
0
LINE
8
Calque 1
10
467.800100
20
598.377800
11
455.547200
21
586.134800
0
LINE
8
Calque 1
10
455.547200
20
586.134800
11
457.964580
21
583.515100
0
LINE
8
Calque 1
10
457.964580
20
583.515100
11
459.991254
21
581.152150
0
LINE
8
Calque 1
10
459.991254
20
581.152150
11
460.315921
21
580.491072
0
LINE
8
Calque 1
10
460.315921
20
580.491072
11
460.394200
21
579.856600
0
LINE
8
Calque 1
10
460.394200
20
579.856600
11
460.407300
21
578.817000
0
LINE
8
Calque 1
10
460.407300
20
578.817000
11
476.414600
21
594.876700
0
LINE
8
Calque 1
10
476.414600
20
594.876700
11
476.414490
21
594.876000
0
LINE
8
Calque 1
10
299.539490
20
610.300900
11
299.060850
21
610.561500
0
LINE
8
Calque 1
10
299.060850
20
610.561500
11
298.941306
21
610.489025
0
LINE
8
Calque 1
10
298.941306
20
610.489025
11
299.142650
21
610.300900
0
LINE
8
Calque 1
10
299.142650
20
610.300900
11
299.607830
21
610.054600
0
LINE
8
Calque 1
10
299.607830
20
610.054600
11
299.539520
21
610.300900
0
LINE
8
Calque 1
10
299.539520
20
610.300900
11
299.539490
21
610.300900
0
LINE
8
Calque 1
10
293.418720
20
615.379000
11
293.732324
21
615.415688
0
LINE
8
Calque 1
10
293.732324
20
615.415688
11
294.090050
21
615.246800
0
LINE
8
Calque 1
10
294.090050
20
615.246800
11
294.371291
21
615.081037
0
LINE
8
Calque 1
10
294.371291
20
615.081037
11
294.303310
21
615.400300
0
LINE
8
Calque 1
10
294.303310
20
615.400300
11
294.253848
21
615.733950
0
LINE
8
Calque 1
10
294.253848
20
615.733950
11
294.650650
21
615.589400
0
LINE
8
Calque 1
10
294.650650
20
615.589400
11
295.173860
21
615.054100
0
LINE
8
Calque 1
10
295.173860
20
615.054100
11
295.287454
21
614.847672
0
LINE
8
Calque 1
10
295.287454
20
614.847672
11
295.564929
21
614.810800
0
LINE
8
Calque 1
10
295.564929
20
614.810800
11
295.911327
21
614.930828
0
LINE
8
Calque 1
10
295.911327
20
614.930828
11
296.231690
21
615.195100
0
LINE
8
Calque 1
10
296.231690
20
615.195100
11
296.615376
21
615.419611
0
LINE
8
Calque 1
10
296.615376
20
615.419611
11
297.155987
21
615.471088
0
LINE
8
Calque 1
10
297.155987
20
615.471088
11
297.718541
21
615.357170
0
LINE
8
Calque 1
10
297.718541
20
615.357170
11
298.168050
21
615.085500
0
LINE
8
Calque 1
10
298.168050
20
615.085500
11
298.487257
21
614.955975
0
LINE
8
Calque 1
10
298.487257
20
614.955975
11
298.918560
21
615.085200
0
LINE
8
Calque 1
10
298.918560
20
615.085200
11
299.407190
21
615.173200
0
LINE
8
Calque 1
10
299.407190
20
615.173200
11
299.780510
21
615.309000
0
LINE
8
Calque 1
10
299.780510
20
615.309000
11
300.113819
21
615.484725
0
LINE
8
Calque 1
10
300.113819
20
615.484725
11
300.342750
21
615.309000
0
LINE
8
Calque 1
10
300.342750
20
615.309000
11
300.540387
21
615.153662
0
LINE
8
Calque 1
10
300.540387
20
615.153662
11
300.759130
21
615.362000
0
LINE
8
Calque 1
10
300.759130
20
615.362000
11
300.936531
21
615.566425
0
LINE
8
Calque 1
10
300.936531
20
615.566425
11
300.990640
21
615.390000
0
LINE
8
Calque 1
10
300.990640
20
615.390000
11
301.080306
21
615.156438
0
LINE
8
Calque 1
10
301.080306
20
615.156438
11
301.290490
21
615.059300
0
LINE
8
Calque 1
10
301.290490
20
615.059300
11
311.306549
21
624.808150
0
LINE
8
Calque 1
10
311.306549
20
624.808150
11
334.972390
21
648.246900
0
LINE
8
Calque 1
10
334.972390
20
648.246900
11
368.358490
21
681.434600
0
LINE
8
Calque 1
10
368.358490
20
681.434600
11
368.691980
21
687.637800
0
LINE
8
Calque 1
10
368.691980
20
687.637800
11
369.173310
21
694.468400
0
LINE
8
Calque 1
10
369.173310
20
694.468400
11
365.900633
21
691.357693
0
LINE
8
Calque 1
10
365.900633
20
691.357693
11
357.168472
21
682.735587
0
LINE
8
Calque 1
10
357.168472
20
682.735587
11
330.538179
21
656.176025
0
LINE
8
Calque 1
10
330.538179
20
656.176025
11
303.707401
21
629.227400
0
LINE
8
Calque 1
10
303.707401
20
629.227400
11
291.101110
21
616.327400
0
LINE
8
Calque 1
10
291.101110
20
616.327400
11
290.742564
21
615.602787
0
LINE
8
Calque 1
10
290.742564
20
615.602787
11
291.035010
21
615.116000
0
LINE
8
Calque 1
10
291.035010
20
615.116000
11
291.403632
21
614.824062
0
LINE
8
Calque 1
10
291.403632
20
614.824062
11
291.469780
21
615.185000
0
LINE
8
Calque 1
10
291.469780
20
615.185000
11
291.525667
21
615.552525
0
LINE
8
Calque 1
10
291.525667
20
615.552525
11
291.886280
21
615.175000
0
LINE
8
Calque 1
10
291.886280
20
615.175000
11
292.131217
21
614.909400
0
LINE
8
Calque 1
10
292.131217
20
614.909400
11
292.135240
21
614.992100
0
LINE
8
Calque 1
10
292.135240
20
614.992100
11
292.129599
21
615.230500
0
LINE
8
Calque 1
10
292.129599
20
615.230500
11
292.380210
21
615.322800
0
LINE
8
Calque 1
10
292.380210
20
615.322800
11
292.677667
21
615.186812
0
LINE
8
Calque 1
10
292.677667
20
615.186812
11
292.813590
21
614.859800
0
LINE
8
Calque 1
10
292.813590
20
614.859800
11
292.860660
21
614.569925
0
LINE
8
Calque 1
10
292.860660
20
614.569925
11
292.985550
21
614.793800
0
LINE
8
Calque 1
10
292.985550
20
614.793800
11
293.418810
21
615.374000
0
LINE
8
Calque 1
10
293.418810
20
615.374000
11
293.418720
21
615.379000
0
LINE
8
Calque 1
10
296.893650
20
615.063400
11
296.926804
21
615.250300
0
LINE
8
Calque 1
10
296.926804
20
615.250300
11
296.776980
21
615.328000
0
LINE
8
Calque 1
10
296.776980
20
615.328000
11
296.579089
21
615.250300
0
LINE
8
Calque 1
10
296.579089
20
615.250300
11
296.496780
21
615.063400
0
LINE
8
Calque 1
10
296.496780
20
615.063400
11
296.613450
21
614.798900
0
LINE
8
Calque 1
10
296.613450
20
614.798900
11
296.893650
21
615.063400
0
LINE
8
Calque 1
10
296.893650
20
615.063400
11
296.893650
21
615.063400
0
LINE
8
Calque 1
10
486.533650
20
615.497100
11
486.860658
21
615.462288
0
LINE
8
Calque 1
10
486.860658
20
615.462288
11
486.996670
21
615.326600
0
LINE
8
Calque 1
10
486.996670
20
615.326600
11
487.171542
21
615.180988
0
LINE
8
Calque 1
10
487.171542
20
615.180988
11
487.591980
21
615.121700
0
LINE
8
Calque 1
10
487.591980
20
615.121700
11
488.958090
21
614.948400
0
LINE
8
Calque 1
10
488.958090
20
614.948400
11
489.530099
21
614.874813
0
LINE
8
Calque 1
10
489.530099
20
614.874813
11
489.411440
21
615.155300
0
LINE
8
Calque 1
10
489.411440
20
615.155300
11
489.276437
21
615.458038
0
LINE
8
Calque 1
10
489.276437
20
615.458038
11
489.739740
21
615.499100
0
LINE
8
Calque 1
10
489.739740
20
615.499100
11
490.163120
21
615.418938
0
LINE
8
Calque 1
10
490.163120
20
615.418938
11
490.274260
21
615.280200
0
LINE
8
Calque 1
10
490.274260
20
615.280200
11
490.431940
21
614.933800
0
LINE
8
Calque 1
10
490.431940
20
614.933800
11
490.621901
21
614.879425
0
LINE
8
Calque 1
10
490.621901
20
614.879425
11
490.701020
21
614.981800
0
LINE
8
Calque 1
10
490.701020
20
614.981800
11
490.928748
21
615.171038
0
LINE
8
Calque 1
10
490.928748
20
615.171038
11
491.461137
21
615.231950
0
LINE
8
Calque 1
10
491.461137
20
615.231950
11
492.072603
21
615.165288
0
LINE
8
Calque 1
10
492.072603
20
615.165288
11
492.537560
21
614.971800
0
LINE
8
Calque 1
10
492.537560
20
614.971800
11
492.797397
21
614.797625
0
LINE
8
Calque 1
10
492.797397
20
614.797625
11
492.731690
21
614.981800
0
LINE
8
Calque 1
10
492.731690
20
614.981800
11
492.678326
21
615.251300
0
LINE
8
Calque 1
10
492.678326
20
615.251300
11
492.813190
21
615.460500
0
LINE
8
Calque 1
10
492.813190
20
615.460500
11
493.003099
21
615.495363
0
LINE
8
Calque 1
10
493.003099
20
615.495363
11
493.082090
21
615.346400
0
LINE
8
Calque 1
10
493.082090
20
615.346400
11
493.198670
21
615.148513
0
LINE
8
Calque 1
10
493.198670
20
615.148513
11
493.478960
21
615.066200
0
LINE
8
Calque 1
10
493.478960
20
615.066200
11
493.769493
21
615.158042
0
LINE
8
Calque 1
10
493.769493
20
615.158042
11
493.854525
21
615.423688
0
LINE
8
Calque 1
10
493.854525
20
615.423688
11
493.411060
21
616.417100
0
LINE
8
Calque 1
10
493.411060
20
616.417100
11
480.795602
21
629.301788
0
LINE
8
Calque 1
10
480.795602
20
629.301788
11
453.982359
21
656.212150
0
LINE
8
Calque 1
10
453.982359
20
656.212150
11
427.375266
21
682.739563
0
LINE
8
Calque 1
10
427.375266
20
682.739563
11
418.650256
21
691.356967
0
LINE
8
Calque 1
10
418.650256
20
691.356967
11
415.378260
21
694.475400
0
LINE
8
Calque 1
10
415.378260
20
694.475400
11
415.859890
21
687.645200
0
LINE
8
Calque 1
10
415.859890
20
687.645200
11
416.193370
21
681.442300
0
LINE
8
Calque 1
10
416.193370
20
681.442300
11
449.243970
21
648.585000
0
LINE
8
Calque 1
10
449.243970
20
648.585000
11
482.715170
21
615.485900
0
LINE
8
Calque 1
10
482.715170
20
615.485900
11
483.868086
21
615.192113
0
LINE
8
Calque 1
10
483.868086
20
615.192113
11
484.347051
21
615.210402
0
LINE
8
Calque 1
10
484.347051
20
615.210402
11
484.465080
21
615.360100
0
LINE
8
Calque 1
10
484.465080
20
615.360100
11
484.553810
21
615.508088
0
LINE
8
Calque 1
10
484.553810
20
615.508088
11
484.968310
21
615.538400
0
LINE
8
Calque 1
10
484.968310
20
615.538400
11
485.429252
21
615.399625
0
LINE
8
Calque 1
10
485.429252
20
615.399625
11
485.490400
21
615.077100
0
LINE
8
Calque 1
10
485.490400
20
615.077100
11
485.445892
21
614.804150
0
LINE
8
Calque 1
10
485.445892
20
614.804150
11
485.718350
21
615.066100
0
LINE
8
Calque 1
10
485.718350
20
615.066100
11
486.103195
21
615.357238
0
LINE
8
Calque 1
10
486.103195
20
615.357238
11
486.533700
21
615.499800
0
LINE
8
Calque 1
10
486.533700
20
615.499800
11
486.533650
21
615.497100
 0 
ENDSEC
 0 
EOF