999
"DXF R12 Output" (www.mydxf.blogspot.com)
 0 
SECTION
 2 
HEADER
 9 
$ACADVER
 1 
AC1009
 9 
$EXTMIN
 10 
 0 
 20 
 0 
 9 
$EXTMAX
 10 
 8.5 
 20 
 11 
 0 
ENDSEC
 0 
SECTION
 2 
ENTITIES
0
LINE
8
Calque 1
10
322.024000
20
516.781000
11
242.781600
21
596.023800
0
LINE
8
Calque 1
10
242.781600
20
596.023800
11
322.090300
21
675.332600
0
LINE
8
Calque 1
10
322.090300
20
675.332600
11
401.399000
21
754.641300
0
LINE
8
Calque 1
10
401.399000
20
754.641300
11
480.707700
21
675.332600
0
LINE
8
Calque 1
10
480.707700
20
675.332600
11
560.016500
21
596.023800
0
LINE
8
Calque 1
10
560.016500
20
596.023800
11
480.774100
21
516.781000
0
LINE
8
Calque 1
10
480.774100
20
516.781000
11
401.399000
21
437.538300
0
LINE
8
Calque 1
10
401.399000
20
437.538300
11
322.023900
21
516.781000
0
LINE
8
Calque 1
10
322.023900
20
516.781000
11
322.024000
21
516.781000
0
LINE
8
Calque 1
10
403.515700
20
448.746600
11
405.855220
21
450.740812
0
LINE
8
Calque 1
10
405.855220
20
450.740812
11
406.947732
21
451.863370
0
LINE
8
Calque 1
10
406.947732
20
451.863370
11
407.260240
21
452.365500
0
LINE
8
Calque 1
10
407.260240
20
452.365500
11
407.823030
21
452.775000
0
LINE
8
Calque 1
10
407.823030
20
452.775000
11
408.295500
21
453.132612
0
LINE
8
Calque 1
10
408.295500
20
453.132612
11
408.398670
21
453.432400
0
LINE
8
Calque 1
10
408.398670
20
453.432400
11
408.351982
21
453.593675
0
LINE
8
Calque 1
10
408.351982
20
453.593675
11
408.464070
21
453.618300
0
LINE
8
Calque 1
10
408.464070
20
453.618300
11
409.990019
21
454.927075
0
LINE
8
Calque 1
10
409.990019
20
454.927075
11
413.342480
21
458.175800
0
LINE
8
Calque 1
10
413.342480
20
458.175800
11
418.627000
21
463.381900
0
LINE
8
Calque 1
10
418.627000
20
463.381900
11
420.246280
21
465.035500
0
LINE
8
Calque 1
10
420.246280
20
465.035500
11
421.511360
21
466.113300
0
LINE
8
Calque 1
10
421.511360
20
466.113300
11
421.755077
21
466.238312
0
LINE
8
Calque 1
10
421.755077
20
466.238312
11
421.951830
21
466.538900
0
LINE
8
Calque 1
10
421.951830
20
466.538900
11
423.113110
21
467.927900
0
LINE
8
Calque 1
10
423.113110
20
467.927900
11
425.388890
21
470.122700
0
LINE
8
Calque 1
10
425.388890
20
470.122700
11
427.824470
21
472.570100
0
LINE
8
Calque 1
10
427.824470
20
472.570100
11
429.213530
21
473.786200
0
LINE
8
Calque 1
10
429.213530
20
473.786200
11
429.383242
21
473.883337
0
LINE
8
Calque 1
10
429.383242
20
473.883337
11
429.466480
21
474.116900
0
LINE
8
Calque 1
10
429.466480
20
474.116900
11
430.009471
21
474.816812
0
LINE
8
Calque 1
10
430.009471
20
474.816812
11
431.284560
21
476.035200
0
LINE
8
Calque 1
10
431.284560
20
476.035200
11
432.512391
21
477.226625
0
LINE
8
Calque 1
10
432.512391
20
477.226625
11
432.941810
21
477.862000
0
LINE
8
Calque 1
10
432.941810
20
477.862000
11
432.938386
21
477.972375
0
LINE
8
Calque 1
10
432.938386
20
477.972375
11
433.125920
21
477.902000
0
LINE
8
Calque 1
10
433.125920
20
477.902000
11
433.402446
21
477.898462
0
LINE
8
Calque 1
10
433.402446
20
477.898462
11
433.593750
21
478.255000
0
LINE
8
Calque 1
10
433.593750
20
478.255000
11
433.753019
21
478.610125
0
LINE
8
Calque 1
10
433.753019
20
478.610125
11
433.932950
21
478.687600
0
LINE
8
Calque 1
10
433.932950
20
478.687600
11
434.237054
21
478.794350
0
LINE
8
Calque 1
10
434.237054
20
478.794350
11
434.694870
21
479.219700
0
LINE
8
Calque 1
10
434.694870
20
479.219700
11
435.095930
21
479.872100
0
LINE
8
Calque 1
10
435.095930
20
479.872100
11
435.693000
21
480.457300
0
LINE
8
Calque 1
10
435.693000
20
480.457300
11
438.709430
21
483.301600
0
LINE
8
Calque 1
10
438.709430
20
483.301600
11
442.016720
21
486.520100
0
LINE
8
Calque 1
10
442.016720
20
486.520100
11
445.557530
21
490.025800
0
LINE
8
Calque 1
10
445.557530
20
490.025800
11
447.392882
21
491.824137
0
LINE
8
Calque 1
10
447.392882
20
491.824137
11
448.313610
21
492.572100
0
LINE
8
Calque 1
10
448.313610
20
492.572100
11
448.458471
21
492.617675
0
LINE
8
Calque 1
10
448.458471
20
492.617675
11
448.428440
21
492.726700
0
LINE
8
Calque 1
10
448.428440
20
492.726700
11
448.759767
21
493.227212
0
LINE
8
Calque 1
10
448.759767
20
493.227212
11
449.773400
21
494.213500
0
LINE
8
Calque 1
10
449.773400
20
494.213500
11
452.487100
21
496.835600
0
LINE
8
Calque 1
10
452.487100
20
496.835600
11
453.395981
21
497.695150
0
LINE
8
Calque 1
10
453.395981
20
497.695150
11
453.876170
21
497.950500
0
LINE
8
Calque 1
10
453.876170
20
497.950500
11
453.999695
21
497.956762
0
LINE
8
Calque 1
10
453.999695
20
497.956762
11
454.051070
21
498.216600
0
LINE
8
Calque 1
10
454.051070
20
498.216600
11
454.172239
21
498.527987
0
LINE
8
Calque 1
10
454.172239
20
498.527987
11
454.463560
21
498.657500
0
LINE
8
Calque 1
10
454.463560
20
498.657500
11
454.712292
21
498.726425
0
LINE
8
Calque 1
10
454.712292
20
498.726425
11
454.731060
21
498.892100
0
LINE
8
Calque 1
10
454.731060
20
498.892100
11
454.744369
21
499.153887
0
LINE
8
Calque 1
10
454.744369
20
499.153887
11
454.980030
21
499.453700
0
LINE
8
Calque 1
10
454.980030
20
499.453700
11
455.373990
21
499.606800
0
LINE
8
Calque 1
10
455.373990
20
499.606800
11
456.233420
21
500.434300
0
LINE
8
Calque 1
10
456.233420
20
500.434300
11
457.357900
21
501.610700
0
LINE
8
Calque 1
10
457.357900
20
501.610700
11
460.877020
21
504.986600
0
LINE
8
Calque 1
10
460.877020
20
504.986600
11
464.777360
21
508.610700
0
LINE
8
Calque 1
10
464.777360
20
508.610700
11
465.190997
21
508.978987
0
LINE
8
Calque 1
10
465.190997
20
508.978987
11
465.277980
21
509.269800
0
LINE
8
Calque 1
10
465.277980
20
509.269800
11
465.245980
21
509.436200
0
LINE
8
Calque 1
10
465.245980
20
509.436200
11
465.373580
21
509.505400
0
LINE
8
Calque 1
10
465.373580
20
509.505400
11
468.088540
21
511.886700
0
LINE
8
Calque 1
10
468.088540
20
511.886700
11
470.773300
21
514.267900
0
LINE
8
Calque 1
10
470.773300
20
514.267900
11
470.922374
21
514.384487
0
LINE
8
Calque 1
10
470.922374
20
514.384487
11
470.984380
21
514.664800
0
LINE
8
Calque 1
10
470.984380
20
514.664800
11
471.058530
21
514.945112
0
LINE
8
Calque 1
10
471.058530
20
514.945112
11
471.236810
21
515.061700
0
LINE
8
Calque 1
10
471.236810
20
515.061700
11
473.243230
21
516.781500
0
LINE
8
Calque 1
10
473.243230
20
516.781500
11
475.100620
21
518.501300
0
LINE
8
Calque 1
10
475.100620
20
518.501300
11
477.695980
21
520.948700
0
LINE
8
Calque 1
10
477.695980
20
520.948700
11
482.104660
21
525.115900
0
LINE
8
Calque 1
10
482.104660
20
525.115900
11
488.808940
21
531.329900
0
LINE
8
Calque 1
10
488.808940
20
531.329900
11
489.845556
21
532.236712
0
LINE
8
Calque 1
10
489.845556
20
532.236712
11
490.431250
21
532.564600
0
LINE
8
Calque 1
10
490.431250
20
532.564600
11
490.563717
21
532.559937
0
LINE
8
Calque 1
10
490.563717
20
532.559937
11
490.510650
21
532.665300
0
LINE
8
Calque 1
10
490.510650
20
532.665300
11
490.770485
21
533.163091
0
LINE
8
Calque 1
10
490.770485
20
533.163091
11
491.564750
21
534.053075
0
LINE
8
Calque 1
10
491.564750
20
534.053075
11
492.457032
21
534.888722
0
LINE
8
Calque 1
10
492.457032
20
534.888722
11
493.010920
21
535.223500
0
LINE
8
Calque 1
10
493.010920
20
535.223500
11
493.151067
21
535.307075
0
LINE
8
Calque 1
10
493.151067
20
535.307075
11
493.209360
21
535.582500
0
LINE
8
Calque 1
10
493.209360
20
535.582500
11
493.276107
21
535.832587
0
LINE
8
Calque 1
10
493.276107
20
535.832587
11
493.436590
21
535.854600
0
LINE
8
Calque 1
10
493.436590
20
535.854600
11
494.268680
21
536.403350
0
LINE
8
Calque 1
10
494.268680
20
536.403350
11
495.950130
21
537.919600
0
LINE
8
Calque 1
10
495.950130
20
537.919600
11
498.236440
21
539.989500
0
LINE
8
Calque 1
10
498.236440
20
539.989500
11
499.013710
21
540.620900
0
LINE
8
Calque 1
10
499.013710
20
540.620900
11
501.022130
21
542.446100
0
LINE
8
Calque 1
10
501.022130
20
542.446100
11
503.615750
21
544.761200
0
LINE
8
Calque 1
10
503.615750
20
544.761200
11
504.678334
21
545.648750
0
LINE
8
Calque 1
10
504.678334
20
545.648750
11
505.319800
21
546.017900
0
LINE
8
Calque 1
10
505.319800
20
546.017900
11
505.605606
21
546.134075
0
LINE
8
Calque 1
10
505.605606
20
546.134075
11
505.813090
21
546.413300
0
LINE
8
Calque 1
10
505.813090
20
546.413300
11
505.989799
21
546.649550
0
LINE
8
Calque 1
10
505.989799
20
546.649550
11
506.201660
21
546.662300
0
LINE
8
Calque 1
10
506.201660
20
546.662300
11
506.368945
21
546.677837
0
LINE
8
Calque 1
10
506.368945
20
546.677837
11
506.438520
21
546.921600
0
LINE
8
Calque 1
10
506.438520
20
546.921600
11
506.671685
21
547.328675
0
LINE
8
Calque 1
10
506.671685
20
547.328675
11
507.232270
21
547.737700
0
LINE
8
Calque 1
10
507.232270
20
547.737700
11
507.792859
21
548.098325
0
LINE
8
Calque 1
10
507.792859
20
548.098325
11
508.026020
21
548.388900
0
LINE
8
Calque 1
10
508.026020
20
548.388900
11
508.296094
21
548.656475
0
LINE
8
Calque 1
10
508.296094
20
548.656475
11
508.945420
21
548.962000
0
LINE
8
Calque 1
10
508.945420
20
548.962000
11
509.748490
21
549.410800
0
LINE
8
Calque 1
10
509.748490
20
549.410800
11
509.714122
21
549.683064
0
LINE
8
Calque 1
10
509.714122
20
549.683064
11
509.909906
21
550.026812
0
LINE
8
Calque 1
10
509.909906
20
550.026812
11
510.218140
21
550.298355
0
LINE
8
Calque 1
10
510.218140
20
550.298355
11
510.521120
21
550.354000
0
LINE
8
Calque 1
10
510.521120
20
550.354000
11
510.956410
21
550.480450
0
LINE
8
Calque 1
10
510.956410
20
550.480450
11
511.492890
21
551.025400
0
LINE
8
Calque 1
10
511.492890
20
551.025400
11
512.024179
21
551.599837
0
LINE
8
Calque 1
10
512.024179
20
551.599837
11
512.457030
21
551.838800
0
LINE
8
Calque 1
10
512.457030
20
551.838800
11
512.670622
21
551.907675
0
LINE
8
Calque 1
10
512.670622
20
551.907675
11
512.674830
21
552.073300
0
LINE
8
Calque 1
10
512.674830
20
552.073300
11
512.734860
21
552.281375
0
LINE
8
Calque 1
10
512.734860
20
552.281375
11
513.082710
21
552.452400
0
LINE
8
Calque 1
10
513.082710
20
552.452400
11
513.438671
21
552.643700
0
LINE
8
Calque 1
10
513.438671
20
552.643700
11
513.435720
21
552.920200
0
LINE
8
Calque 1
10
513.435720
20
552.920200
11
513.366337
21
553.105625
0
LINE
8
Calque 1
10
513.366337
20
553.105625
11
513.491220
21
553.085700
0
LINE
8
Calque 1
10
513.491220
20
553.085700
11
519.995757
21
559.298750
0
LINE
8
Calque 1
10
519.995757
20
559.298750
11
535.275820
21
574.458400
0
LINE
8
Calque 1
10
535.275820
20
574.458400
11
556.805120
21
595.988800
0
LINE
8
Calque 1
10
556.805120
20
595.988800
11
552.275960
21
600.702900
0
LINE
8
Calque 1
10
552.275960
20
600.702900
11
474.572860
21
678.574000
0
LINE
8
Calque 1
10
474.572860
20
678.574000
11
401.398960
21
751.731100
0
LINE
8
Calque 1
10
401.398960
20
751.731100
11
328.225060
21
678.574000
0
LINE
8
Calque 1
10
328.225060
20
678.574000
11
250.521960
21
600.702900
0
LINE
8
Calque 1
10
250.521960
20
600.702900
11
245.992820
21
595.988800
0
LINE
8
Calque 1
10
245.992820
20
595.988800
11
267.919020
21
574.061500
0
LINE
8
Calque 1
10
267.919020
20
574.061500
11
289.993420
21
552.202000
0
LINE
8
Calque 1
10
289.993420
20
552.202000
11
290.727560
21
551.657400
0
LINE
8
Calque 1
10
290.727560
20
551.657400
11
291.140010
21
551.045000
0
LINE
8
Calque 1
10
291.140010
20
551.045000
11
291.059865
21
551.011568
0
LINE
8
Calque 1
10
291.059865
20
551.011568
11
291.111759
21
550.923366
0
LINE
8
Calque 1
10
291.111759
20
550.923366
11
291.488556
21
550.655200
0
LINE
8
Calque 1
10
291.488556
20
550.655200
11
292.472420
21
550.259700
0
LINE
8
Calque 1
10
292.472420
20
550.259700
11
292.762421
21
550.177762
0
LINE
8
Calque 1
10
292.762421
20
550.177762
11
292.787530
21
549.986700
0
LINE
8
Calque 1
10
292.787530
20
549.986700
11
292.793226
21
549.799837
0
LINE
8
Calque 1
10
292.793226
20
549.799837
11
293.036500
21
549.722100
0
LINE
8
Calque 1
10
293.036500
20
549.722100
11
293.340087
21
549.557500
0
LINE
8
Calque 1
10
293.340087
20
549.557500
11
293.467590
21
549.126800
0
LINE
8
Calque 1
10
293.467590
20
549.126800
11
293.515850
21
548.691388
0
LINE
8
Calque 1
10
293.515850
20
548.691388
11
293.713570
21
549.060800
0
LINE
8
Calque 1
10
293.713570
20
549.060800
11
293.931497
21
549.353837
0
LINE
8
Calque 1
10
293.931497
20
549.353837
11
294.077380
21
548.685900
0
LINE
8
Calque 1
10
294.077380
20
548.685900
11
294.351310
21
548.222900
0
LINE
8
Calque 1
10
294.351310
20
548.222900
11
294.470509
21
548.157900
0
LINE
8
Calque 1
10
294.470509
20
548.157900
11
294.401810
21
548.333200
0
LINE
8
Calque 1
10
294.401810
20
548.333200
11
294.335453
21
548.656505
0
LINE
8
Calque 1
10
294.335453
20
548.656505
11
294.776929
21
548.436838
0
LINE
8
Calque 1
10
294.776929
20
548.436838
11
296.740060
21
546.679500
0
LINE
8
Calque 1
10
296.740060
20
546.679500
11
297.422127
21
546.048638
0
LINE
8
Calque 1
10
297.422127
20
546.048638
11
297.582373
21
545.947448
0
LINE
8
Calque 1
10
297.582373
20
545.947448
11
297.585120
21
546.018000
0
LINE
8
Calque 1
10
297.585120
20
546.018000
11
297.606847
21
546.084400
0
LINE
8
Calque 1
10
297.606847
20
546.084400
11
297.949320
21
545.687300
0
LINE
8
Calque 1
10
297.949320
20
545.687300
11
298.786460
21
544.959700
0
LINE
8
Calque 1
10
298.786460
20
544.959700
11
299.679909
21
544.380625
0
LINE
8
Calque 1
10
299.679909
20
544.380625
11
302.135420
21
542.115400
0
LINE
8
Calque 1
10
302.135420
20
542.115400
11
303.830070
21
540.726400
0
LINE
8
Calque 1
10
303.830070
20
540.726400
11
303.945726
21
540.646750
0
LINE
8
Calque 1
10
303.945726
20
540.646750
11
303.895970
21
540.455200
0
LINE
8
Calque 1
10
303.895970
20
540.455200
11
303.846920
21
540.285088
0
LINE
8
Calque 1
10
303.846920
20
540.285088
11
303.964370
21
540.256800
0
LINE
8
Calque 1
10
303.964370
20
540.256800
11
305.150055
21
539.493563
0
LINE
8
Calque 1
10
305.150055
20
539.493563
11
306.152950
21
538.482000
0
LINE
8
Calque 1
10
306.152950
20
538.482000
11
306.347380
21
538.308900
0
LINE
8
Calque 1
10
306.347380
20
538.308900
11
307.537710
21
537.250500
0
LINE
8
Calque 1
10
307.537710
20
537.250500
11
308.770960
21
536.228500
0
LINE
8
Calque 1
10
308.770960
20
536.228500
11
309.680210
21
535.434700
0
LINE
8
Calque 1
10
309.680210
20
535.434700
11
310.491140
21
534.641000
0
LINE
8
Calque 1
10
310.491140
20
534.641000
11
312.564890
21
532.722700
0
LINE
8
Calque 1
10
312.564890
20
532.722700
11
318.875860
21
526.835800
0
LINE
8
Calque 1
10
318.875860
20
526.835800
11
320.308210
21
525.376900
0
LINE
8
Calque 1
10
320.308210
20
525.376900
11
321.627070
21
524.098200
0
LINE
8
Calque 1
10
321.627070
20
524.098200
11
324.750320
21
521.257600
0
LINE
8
Calque 1
10
324.750320
20
521.257600
11
327.166580
21
519.030500
0
LINE
8
Calque 1
10
327.166580
20
519.030500
11
328.324320
21
517.954525
0
LINE
8
Calque 1
10
328.324320
20
517.954525
11
329.218270
21
516.788100
0
LINE
8
Calque 1
10
329.218270
20
516.788100
11
329.249820
21
516.690200
0
LINE
8
Calque 1
10
329.249820
20
516.690200
11
329.520470
21
516.649300
0
LINE
8
Calque 1
10
329.520470
20
516.649300
11
329.831904
21
516.574050
0
LINE
8
Calque 1
10
329.831904
20
516.574050
11
329.961440
21
516.393200
0
LINE
8
Calque 1
10
329.961440
20
516.393200
11
330.153147
21
516.111850
0
LINE
8
Calque 1
10
330.153147
20
516.111850
11
330.614060
21
515.795100
0
LINE
8
Calque 1
10
330.614060
20
515.795100
11
331.271871
21
515.286700
0
LINE
8
Calque 1
10
331.271871
20
515.286700
11
331.936980
21
514.544600
0
LINE
8
Calque 1
10
331.936980
20
514.544600
11
332.410372
21
513.971450
0
LINE
8
Calque 1
10
332.410372
20
513.971450
11
332.607270
21
513.869300
0
LINE
8
Calque 1
10
332.607270
20
513.869300
11
332.840435
21
513.810588
0
LINE
8
Calque 1
10
332.840435
20
513.810588
11
333.401020
21
513.342000
0
LINE
8
Calque 1
10
333.401020
20
513.342000
11
333.961609
21
512.698325
0
LINE
8
Calque 1
10
333.961609
20
512.698325
11
334.194770
21
512.218600
0
LINE
8
Calque 1
10
334.194770
20
512.218600
11
334.269950
21
512.008638
0
LINE
8
Calque 1
10
334.269950
20
512.008638
11
334.450700
21
512.013700
0
LINE
8
Calque 1
10
334.450700
20
512.013700
11
334.730410
21
511.966800
0
LINE
8
Calque 1
10
334.730410
20
511.966800
11
335.043510
21
511.632500
0
LINE
8
Calque 1
10
335.043510
20
511.632500
11
335.592820
21
511.093000
0
LINE
8
Calque 1
10
335.592820
20
511.093000
11
337.050530
21
509.742500
0
LINE
8
Calque 1
10
337.050530
20
509.742500
11
338.619010
21
508.088900
0
LINE
8
Calque 1
10
338.619010
20
508.088900
11
341.481290
21
505.338400
0
LINE
8
Calque 1
10
341.481290
20
505.338400
11
343.359906
21
503.609913
0
LINE
8
Calque 1
10
343.359906
20
503.609913
11
344.311050
21
502.891000
0
LINE
8
Calque 1
10
344.311050
20
502.891000
11
344.471389
21
502.846000
0
LINE
8
Calque 1
10
344.471389
20
502.846000
11
344.448720
21
502.738000
0
LINE
8
Calque 1
10
344.448720
20
502.738000
11
344.712789
21
502.310916
0
LINE
8
Calque 1
10
344.712789
20
502.310916
11
345.571736
21
501.402800
0
LINE
8
Calque 1
10
345.571736
20
501.402800
11
348.152250
21
499.059300
0
LINE
8
Calque 1
10
348.152250
20
499.059300
11
348.712427
21
498.463100
0
LINE
8
Calque 1
10
348.712427
20
498.463100
11
348.837440
21
498.038200
0
LINE
8
Calque 1
10
348.837440
20
498.038200
11
348.778515
21
497.880688
0
LINE
8
Calque 1
10
348.778515
20
497.880688
11
348.883240
21
497.932500
0
LINE
8
Calque 1
10
348.883240
20
497.932500
11
349.223907
21
497.900628
0
LINE
8
Calque 1
10
349.223907
20
497.900628
11
349.710067
21
497.554825
0
LINE
8
Calque 1
10
349.710067
20
497.554825
11
350.145591
21
497.071509
0
LINE
8
Calque 1
10
350.145591
20
497.071509
11
350.334350
21
496.627100
0
LINE
8
Calque 1
10
350.334350
20
496.627100
11
350.401384
21
496.379413
0
LINE
8
Calque 1
10
350.401384
20
496.379413
11
350.562550
21
496.276400
0
LINE
8
Calque 1
10
350.562550
20
496.276400
11
351.752114
21
495.507350
0
LINE
8
Calque 1
10
351.752114
20
495.507350
11
352.362287
21
494.944794
0
LINE
8
Calque 1
10
352.362287
20
494.944794
11
352.556530
21
494.618000
0
LINE
8
Calque 1
10
352.556530
20
494.618000
11
352.678797
21
494.386163
0
LINE
8
Calque 1
10
352.678797
20
494.386163
11
353.172390
21
494.028100
0
LINE
8
Calque 1
10
353.172390
20
494.028100
11
353.889081
21
493.447200
0
LINE
8
Calque 1
10
353.889081
20
493.447200
11
354.547730
21
492.679400
0
LINE
8
Calque 1
10
354.547730
20
492.679400
11
355.349030
21
491.778500
0
LINE
8
Calque 1
10
355.349030
20
491.778500
11
356.571700
21
490.700300
0
LINE
8
Calque 1
10
356.571700
20
490.700300
11
358.536430
21
488.729000
0
LINE
8
Calque 1
10
358.536430
20
488.729000
11
364.270670
21
483.126400
0
LINE
8
Calque 1
10
364.270670
20
483.126400
11
370.823670
21
476.768100
0
LINE
8
Calque 1
10
370.823670
20
476.768100
11
372.571370
21
474.989900
0
LINE
8
Calque 1
10
372.571370
20
474.989900
11
375.179520
21
472.467900
0
LINE
8
Calque 1
10
375.179520
20
472.467900
11
375.660690
21
471.934700
0
LINE
8
Calque 1
10
375.660690
20
471.934700
11
377.224500
21
470.281100
0
LINE
8
Calque 1
10
377.224500
20
470.281100
11
380.575844
21
467.007713
0
LINE
8
Calque 1
10
380.575844
20
467.007713
11
381.290600
21
466.093000
0
LINE
8
Calque 1
10
381.290600
20
466.093000
11
381.387749
21
465.913988
0
LINE
8
Calque 1
10
381.387749
20
465.913988
11
381.621330
21
465.825800
0
LINE
8
Calque 1
10
381.621330
20
465.825800
11
382.243512
21
465.356625
0
LINE
8
Calque 1
10
382.243512
20
465.356625
11
383.274970
21
464.261800
0
LINE
8
Calque 1
10
383.274970
20
464.261800
11
384.804410
21
462.697800
0
LINE
8
Calque 1
10
384.804410
20
462.697800
11
385.824000
21
461.748300
0
LINE
8
Calque 1
10
385.824000
20
461.748300
11
386.509211
21
461.094225
0
LINE
8
Calque 1
10
386.509211
20
461.094225
11
387.014850
21
460.822200
0
LINE
8
Calque 1
10
387.014850
20
460.822200
11
387.332369
21
460.686213
0
LINE
8
Calque 1
10
387.332369
20
460.686213
11
387.565280
21
460.359200
0
LINE
8
Calque 1
10
387.565280
20
460.359200
11
387.985889
21
459.691400
0
LINE
8
Calque 1
10
387.985889
20
459.691400
11
388.682355
21
458.899700
0
LINE
8
Calque 1
10
388.682355
20
458.899700
11
389.379331
21
458.265800
0
LINE
8
Calque 1
10
389.379331
20
458.265800
11
389.801470
21
458.071400
0
LINE
8
Calque 1
10
389.801470
20
458.071400
11
390.031916
21
457.973013
0
LINE
8
Calque 1
10
390.031916
20
457.973013
11
390.275120
21
457.544700
0
LINE
8
Calque 1
10
390.275120
20
457.544700
11
390.670491
21
456.937825
0
LINE
8
Calque 1
10
390.670491
20
456.937825
11
391.266810
21
456.410600
0
LINE
8
Calque 1
10
391.266810
20
456.410600
11
392.208650
21
455.619400
0
LINE
8
Calque 1
10
392.208650
20
455.619400
11
393.269972
21
454.445963
0
LINE
8
Calque 1
10
393.269972
20
454.445963
11
394.244670
21
453.678500
0
LINE
8
Calque 1
10
394.244670
20
453.678500
11
394.603390
21
453.122700
0
LINE
8
Calque 1
10
394.603390
20
453.122700
11
394.788946
21
452.781225
0
LINE
8
Calque 1
10
394.788946
20
452.781225
11
395.031120
21
452.741400
0
LINE
8
Calque 1
10
395.031120
20
452.741400
11
395.230560
21
452.782200
0
LINE
8
Calque 1
10
395.230560
20
452.782200
11
395.313510
21
452.635800
0
LINE
8
Calque 1
10
395.313510
20
452.635800
11
395.900425
21
451.801583
0
LINE
8
Calque 1
10
395.900425
20
451.801583
11
397.231646
21
450.455463
0
LINE
8
Calque 1
10
397.231646
20
450.455463
11
398.662890
21
449.203411
0
LINE
8
Calque 1
10
398.662890
20
449.203411
11
399.549870
21
448.651400
0
LINE
8
Calque 1
10
399.549870
20
448.651400
11
399.734597
21
448.560725
0
LINE
8
Calque 1
10
399.734597
20
448.560725
11
399.811430
21
448.342700
0
LINE
8
Calque 1
10
399.811430
20
448.342700
11
399.855221
21
448.168463
0
LINE
8
Calque 1
10
399.855221
20
448.168463
11
399.960460
21
448.183000
0
LINE
8
Calque 1
10
399.960460
20
448.183000
11
400.820360
21
448.139000
0
LINE
8
Calque 1
10
400.820360
20
448.139000
11
401.429455
21
448.037530
0
LINE
8
Calque 1
10
401.429455
20
448.037530
11
402.027989
21
448.092838
0
LINE
8
Calque 1
10
402.027989
20
448.092838
11
403.515600
21
448.746800
0
LINE
8
Calque 1
10
403.515600
20
448.746800
11
403.515700
21
448.746600
0
LINE
8
Calque 1
10
338.031500
20
532.788100
11
274.796700
21
596.023400
0
LINE
8
Calque 1
10
274.796700
20
596.023400
11
299.468700
21
620.696500
0
LINE
8
Calque 1
10
299.468700
20
620.696500
11
324.140700
21
645.369500
0
LINE
8
Calque 1
10
324.140700
20
645.369500
11
324.141000
21
656.227000
0
LINE
8
Calque 1
10
324.141000
20
656.227000
11
324.218039
21
665.833400
0
LINE
8
Calque 1
10
324.218039
20
665.833400
11
324.395100
21
667.401119
0
LINE
8
Calque 1
10
324.395100
20
667.401119
11
324.736310
21
668.265000
0
LINE
8
Calque 1
10
324.736310
20
668.265000
11
325.128758
21
668.958126
0
LINE
8
Calque 1
10
325.128758
20
668.958126
11
325.582110
21
669.499323
0
LINE
8
Calque 1
10
325.582110
20
669.499323
11
326.185846
21
669.912438
0
LINE
8
Calque 1
10
326.185846
20
669.912438
11
327.029444
21
670.221313
0
LINE
8
Calque 1
10
327.029444
20
670.221313
11
329.794143
21
670.621720
0
LINE
8
Calque 1
10
329.794143
20
670.621720
11
334.592040
21
670.891300
0
LINE
8
Calque 1
10
334.592040
20
670.891300
11
345.439940
21
671.576500
0
LINE
8
Calque 1
10
345.439940
20
671.576500
11
350.066900
21
671.958300
0
LINE
8
Calque 1
10
350.066900
20
671.958300
11
351.534233
21
673.103656
0
LINE
8
Calque 1
10
351.534233
20
673.103656
11
355.756220
21
677.123200
0
LINE
8
Calque 1
10
355.756220
20
677.123200
11
376.062200
21
697.291100
0
LINE
8
Calque 1
10
376.062200
20
697.291100
11
401.399300
21
722.623100
0
LINE
8
Calque 1
10
401.399300
20
722.623100
11
426.733100
21
697.322600
0
LINE
8
Calque 1
10
426.733100
20
697.322600
11
452.067000
21
672.022200
0
LINE
8
Calque 1
10
452.067000
20
672.022200
11
455.506580
21
671.723500
0
LINE
8
Calque 1
10
455.506580
20
671.723500
11
463.348100
21
671.120287
0
LINE
8
Calque 1
10
463.348100
20
671.120287
11
470.542580
21
670.751900
0
LINE
8
Calque 1
10
470.542580
20
670.751900
11
473.909026
21
670.550080
0
LINE
8
Calque 1
10
473.909026
20
670.550080
11
475.985161
21
670.166788
0
LINE
8
Calque 1
10
475.985161
20
670.166788
11
476.678573
21
669.860973
0
LINE
8
Calque 1
10
476.678573
20
669.860973
11
477.216461
21
669.454452
0
LINE
8
Calque 1
10
477.216461
20
669.454452
11
478.048400
21
668.265500
0
LINE
8
Calque 1
10
478.048400
20
668.265500
11
478.399835
21
667.426334
0
LINE
8
Calque 1
10
478.399835
20
667.426334
11
478.580798
21
665.887175
0
LINE
8
Calque 1
10
478.580798
20
665.887175
11
478.657660
21
656.241500
0
LINE
8
Calque 1
10
478.657660
20
656.241500
11
478.657000
21
645.370000
0
LINE
8
Calque 1
10
478.657000
20
645.370000
11
503.329000
21
620.697000
0
LINE
8
Calque 1
10
503.329000
20
620.697000
11
528.001000
21
596.023900
0
LINE
8
Calque 1
10
528.001000
20
596.023900
11
464.766200
21
532.788600
0
LINE
8
Calque 1
10
464.766200
20
532.788600
11
401.398700
21
469.553400
0
LINE
8
Calque 1
10
401.398700
20
469.553400
11
338.031200
21
532.788600
0
LINE
8
Calque 1
10
338.031200
20
532.788600
11
338.031500
21
532.788100
0
LINE
8
Calque 1
10
404.726100
20
492.667100
11
407.232583
21
493.670017
0
LINE
8
Calque 1
10
407.232583
20
493.670017
11
410.281234
21
495.147769
0
LINE
8
Calque 1
10
410.281234
20
495.147769
11
417.849364
21
499.433575
0
LINE
8
Calque 1
10
417.849364
20
499.433575
11
427.119136
21
505.336119
0
LINE
8
Calque 1
10
427.119136
20
505.336119
11
437.779200
21
512.667000
0
LINE
8
Calque 1
10
437.779200
20
512.667000
11
446.281452
21
518.940437
0
LINE
8
Calque 1
10
446.281452
20
518.940437
11
449.169254
21
521.364670
0
LINE
8
Calque 1
10
449.169254
20
521.364670
11
451.899700
21
523.912400
0
LINE
8
Calque 1
10
451.899700
20
523.912400
11
456.406998
21
528.680125
0
LINE
8
Calque 1
10
456.406998
20
528.680125
11
460.480819
21
533.800089
0
LINE
8
Calque 1
10
460.480819
20
533.800089
11
464.117080
21
539.264099
0
LINE
8
Calque 1
10
464.117080
20
539.264099
11
467.311700
21
545.063963
0
LINE
8
Calque 1
10
467.311700
20
545.063963
11
470.060595
21
551.191487
0
LINE
8
Calque 1
10
470.060595
20
551.191487
11
472.359681
21
557.638480
0
LINE
8
Calque 1
10
472.359681
20
557.638480
11
474.204877
21
564.396748
0
LINE
8
Calque 1
10
474.204877
20
564.396748
11
475.592100
21
571.458100
0
LINE
8
Calque 1
10
475.592100
20
571.458100
11
476.111707
21
575.893700
0
LINE
8
Calque 1
10
476.111707
20
575.893700
11
476.396530
21
583.538550
0
LINE
8
Calque 1
10
476.396530
20
583.538550
11
476.516293
21
598.244575
0
LINE
8
Calque 1
10
476.516293
20
598.244575
11
476.540720
21
623.863700
0
LINE
8
Calque 1
10
476.540720
20
623.863700
11
476.541000
21
666.973000
0
LINE
8
Calque 1
10
476.541000
20
666.973000
11
475.767600
21
667.746400
0
LINE
8
Calque 1
10
475.767600
20
667.746400
11
474.894924
21
668.375238
0
LINE
8
Calque 1
10
474.894924
20
668.375238
11
473.689720
21
668.519800
0
LINE
8
Calque 1
10
473.689720
20
668.519800
11
466.083964
21
668.840788
0
LINE
8
Calque 1
10
466.083964
20
668.840788
11
456.961820
21
669.462000
0
LINE
8
Calque 1
10
456.961820
20
669.462000
11
450.352418
21
670.139226
0
LINE
8
Calque 1
10
450.352418
20
670.139226
11
443.645447
21
671.015525
0
LINE
8
Calque 1
10
443.645447
20
671.015525
11
436.905796
21
672.078068
0
LINE
8
Calque 1
10
436.905796
20
672.078068
11
430.198358
21
673.314025
0
LINE
8
Calque 1
10
430.198358
20
673.314025
11
423.588020
21
674.710566
0
LINE
8
Calque 1
10
423.588020
20
674.710566
11
417.139675
21
676.254862
0
LINE
8
Calque 1
10
417.139675
20
676.254862
11
410.918211
21
677.934084
0
LINE
8
Calque 1
10
410.918211
20
677.934084
11
404.988520
21
679.735400
0
LINE
8
Calque 1
10
404.988520
20
679.735400
11
401.399360
21
680.892800
0
LINE
8
Calque 1
10
401.399360
20
680.892800
11
397.810200
21
679.735400
0
LINE
8
Calque 1
10
397.810200
20
679.735400
11
391.880480
21
677.934084
0
LINE
8
Calque 1
10
391.880480
20
677.934084
11
385.659003
21
676.254863
0
LINE
8
Calque 1
10
385.659003
20
676.254863
11
379.210656
21
674.710566
0
LINE
8
Calque 1
10
379.210656
20
674.710566
11
372.600325
21
673.314025
0
LINE
8
Calque 1
10
372.600325
20
673.314025
11
365.892897
21
672.078068
0
LINE
8
Calque 1
10
365.892897
20
672.078068
11
359.153259
21
671.015525
0
LINE
8
Calque 1
10
359.153259
20
671.015525
11
352.446298
21
670.139226
0
LINE
8
Calque 1
10
352.446298
20
670.139226
11
345.836900
21
669.462000
0
LINE
8
Calque 1
10
345.836900
20
669.462000
11
336.714764
21
668.840788
0
LINE
8
Calque 1
10
336.714764
20
668.840788
11
329.109000
21
668.519800
0
LINE
8
Calque 1
10
329.109000
20
668.519800
11
327.903796
21
668.375238
0
LINE
8
Calque 1
10
327.903796
20
668.375238
11
327.031120
21
667.746400
0
LINE
8
Calque 1
10
327.031120
20
667.746400
11
326.257720
21
666.973000
0
LINE
8
Calque 1
10
326.257720
20
666.973000
11
326.257000
21
623.864000
0
LINE
8
Calque 1
10
326.257000
20
623.864000
11
326.328802
21
591.085613
0
LINE
8
Calque 1
10
326.328802
20
591.085613
11
326.532920
21
577.343200
0
LINE
8
Calque 1
10
326.532920
20
577.343200
11
327.173893
21
571.781303
0
LINE
8
Calque 1
10
327.173893
20
571.781303
11
328.188486
21
566.202658
0
LINE
8
Calque 1
10
328.188486
20
566.202658
11
329.556964
21
560.664187
0
LINE
8
Calque 1
10
329.556964
20
560.664187
11
331.259592
21
555.222813
0
LINE
8
Calque 1
10
331.259592
20
555.222813
11
333.276637
21
549.935455
0
LINE
8
Calque 1
10
333.276637
20
549.935455
11
335.588363
21
544.859036
0
LINE
8
Calque 1
10
335.588363
20
544.859036
11
338.175035
21
540.050477
0
LINE
8
Calque 1
10
338.175035
20
540.050477
11
341.016920
21
535.566700
0
LINE
8
Calque 1
10
341.016920
20
535.566700
11
344.271988
21
531.222347
0
LINE
8
Calque 1
10
344.271988
20
531.222347
11
347.983899
21
526.924850
0
LINE
8
Calque 1
10
347.983899
20
526.924850
11
351.930670
21
522.914978
0
LINE
8
Calque 1
10
351.930670
20
522.914978
11
355.890320
21
519.433500
0
LINE
8
Calque 1
10
355.890320
20
519.433500
11
359.800833
21
516.407103
0
LINE
8
Calque 1
10
359.800833
20
516.407103
11
364.406352
21
513.047764
0
LINE
8
Calque 1
10
364.406352
20
513.047764
11
374.725467
21
505.975863
0
LINE
8
Calque 1
10
374.725467
20
505.975863
11
384.893785
21
499.509005
0
LINE
8
Calque 1
10
384.893785
20
499.509005
11
389.310805
21
496.905970
0
LINE
8
Calque 1
10
389.310805
20
496.905970
11
392.957420
21
494.938400
0
LINE
8
Calque 1
10
392.957420
20
494.938400
11
396.873868
21
493.122294
0
LINE
8
Calque 1
10
396.873868
20
493.122294
11
399.805676
21
492.203075
0
LINE
8
Calque 1
10
399.805676
20
492.203075
11
401.059399
21
492.049494
0
LINE
8
Calque 1
10
401.059399
20
492.049494
11
402.255431
21
492.083769
0
LINE
8
Calque 1
10
402.255431
20
492.083769
11
403.456597
21
492.293778
0
LINE
8
Calque 1
10
403.456597
20
492.293778
11
404.725720
21
492.667400
0
LINE
8
Calque 1
10
404.725720
20
492.667400
11
404.726100
21
492.667100
0
LINE
8
Calque 1
10
399.728460
20
501.845400
11
397.456040
21
502.596923
0
LINE
8
Calque 1
10
397.456040
20
502.596923
11
394.673834
21
503.847781
0
LINE
8
Calque 1
10
394.673834
20
503.847781
11
391.398971
21
505.587424
0
LINE
8
Calque 1
10
391.398971
20
505.587424
11
387.648579
21
507.805300
0
LINE
8
Calque 1
10
387.648579
20
507.805300
11
378.789714
21
513.633544
0
LINE
8
Calque 1
10
378.789714
20
513.633544
11
368.234260
21
521.248100
0
LINE
8
Calque 1
10
368.234260
20
521.248100
11
361.992140
21
526.152616
0
LINE
8
Calque 1
10
361.992140
20
526.152616
11
357.046381
21
530.656800
0
LINE
8
Calque 1
10
357.046381
20
530.656800
11
354.914904
21
532.903723
0
LINE
8
Calque 1
10
354.914904
20
532.903723
11
352.933837
21
535.224509
0
LINE
8
Calque 1
10
352.933837
20
535.224509
11
349.191360
21
540.319600
0
LINE
8
Calque 1
10
349.191360
20
540.319600
11
346.903682
21
543.936253
0
LINE
8
Calque 1
10
346.903682
20
543.936253
11
344.832528
21
547.674442
0
LINE
8
Calque 1
10
344.832528
20
547.674442
11
342.970173
21
551.554576
0
LINE
8
Calque 1
10
342.970173
20
551.554576
11
341.308895
21
555.597062
0
LINE
8
Calque 1
10
341.308895
20
555.597062
11
339.840969
21
559.822310
0
LINE
8
Calque 1
10
339.840969
20
559.822310
11
338.558670
21
564.250727
0
LINE
8
Calque 1
10
338.558670
20
564.250727
11
337.454275
21
568.902721
0
LINE
8
Calque 1
10
337.454275
20
568.902721
11
336.520060
21
573.798700
0
LINE
8
Calque 1
10
336.520060
20
573.798700
11
335.914620
21
577.370600
0
LINE
8
Calque 1
10
335.914620
20
577.370600
11
335.915000
21
618.117000
0
LINE
8
Calque 1
10
335.915000
20
618.117000
11
335.915000
21
658.863000
0
LINE
8
Calque 1
10
335.915000
20
658.863000
11
336.552080
21
659.756300
0
LINE
8
Calque 1
10
336.552080
20
659.756300
11
337.427468
21
660.672816
0
LINE
8
Calque 1
10
337.427468
20
660.672816
11
338.694971
21
661.245400
0
LINE
8
Calque 1
10
338.694971
20
661.245400
11
340.716137
21
661.573034
0
LINE
8
Calque 1
10
340.716137
20
661.573034
11
343.852510
21
661.754700
0
LINE
8
Calque 1
10
343.852510
20
661.754700
11
350.794517
21
662.104858
0
LINE
8
Calque 1
10
350.794517
20
662.104858
11
357.680129
21
662.636098
0
LINE
8
Calque 1
10
357.680129
20
662.636098
11
364.488406
21
663.345367
0
LINE
8
Calque 1
10
364.488406
20
663.345367
11
371.198410
21
664.229613
0
LINE
8
Calque 1
10
371.198410
20
664.229613
11
377.789201
21
665.285781
0
LINE
8
Calque 1
10
377.789201
20
665.285781
11
384.239841
21
666.510820
0
LINE
8
Calque 1
10
384.239841
20
666.510820
11
390.529390
21
667.901678
0
LINE
8
Calque 1
10
390.529390
20
667.901678
11
396.636910
21
669.455300
0
LINE
8
Calque 1
10
396.636910
20
669.455300
11
399.328229
21
670.043484
0
LINE
8
Calque 1
10
399.328229
20
670.043484
11
401.866635
21
670.125775
0
LINE
8
Calque 1
10
401.866635
20
670.125775
11
405.031328
21
669.648153
0
LINE
8
Calque 1
10
405.031328
20
669.648153
11
409.601510
21
668.556600
0
LINE
8
Calque 1
10
409.601510
20
668.556600
11
415.220497
21
667.214341
0
LINE
8
Calque 1
10
415.220497
20
667.214341
11
421.075337
21
666.000988
0
LINE
8
Calque 1
10
421.075337
20
666.000988
11
427.121822
21
664.922653
0
LINE
8
Calque 1
10
427.121822
20
664.922653
11
433.315748
21
663.985450
0
LINE
8
Calque 1
10
433.315748
20
663.985450
11
439.612906
21
663.195491
0
LINE
8
Calque 1
10
439.612906
20
663.195491
11
445.969090
21
662.558888
0
LINE
8
Calque 1
10
445.969090
20
662.558888
11
452.340093
21
662.081753
0
LINE
8
Calque 1
10
452.340093
20
662.081753
11
458.681710
21
661.770200
0
LINE
8
Calque 1
10
458.681710
20
661.770200
11
461.960146
21
661.585686
0
LINE
8
Calque 1
10
461.960146
20
661.585686
11
464.063645
21
661.249063
0
LINE
8
Calque 1
10
464.063645
20
661.249063
11
465.377409
21
660.655508
0
LINE
8
Calque 1
10
465.377409
20
660.655508
11
466.286640
21
659.700200
0
LINE
8
Calque 1
10
466.286640
20
659.700200
11
466.883800
21
658.863000
0
LINE
8
Calque 1
10
466.883800
20
658.863000
11
466.883000
21
618.117000
0
LINE
8
Calque 1
10
466.883000
20
618.117000
11
466.883000
21
577.371000
0
LINE
8
Calque 1
10
466.883000
20
577.371000
11
466.277560
21
573.799100
0
LINE
8
Calque 1
10
466.277560
20
573.799100
11
465.028665
21
567.522517
0
LINE
8
Calque 1
10
465.028665
20
567.522517
11
463.462882
21
561.564713
0
LINE
8
Calque 1
10
463.462882
20
561.564713
11
461.578049
21
555.920952
0
LINE
8
Calque 1
10
461.578049
20
555.920952
11
459.372004
21
550.586500
0
LINE
8
Calque 1
10
459.372004
20
550.586500
11
456.842584
21
545.556623
0
LINE
8
Calque 1
10
456.842584
20
545.556623
11
453.987628
21
540.826587
0
LINE
8
Calque 1
10
453.987628
20
540.826587
11
450.804974
21
536.391658
0
LINE
8
Calque 1
10
450.804974
20
536.391658
11
447.292460
21
532.247100
0
LINE
8
Calque 1
10
447.292460
20
532.247100
11
443.465091
21
528.501820
0
LINE
8
Calque 1
10
443.465091
20
528.501820
11
438.325588
21
524.156812
0
LINE
8
Calque 1
10
438.325588
20
524.156812
11
431.917695
21
519.247148
0
LINE
8
Calque 1
10
431.917695
20
519.247148
11
424.285160
21
513.807900
0
LINE
8
Calque 1
10
424.285160
20
513.807900
11
415.302421
21
507.885503
0
LINE
8
Calque 1
10
415.302421
20
507.885503
11
411.593587
21
505.692189
0
LINE
8
Calque 1
10
411.593587
20
505.692189
11
408.368223
21
503.992175
0
LINE
8
Calque 1
10
408.368223
20
503.992175
11
405.597663
21
502.771496
0
LINE
8
Calque 1
10
405.597663
20
502.771496
11
403.253243
21
502.016184
0
LINE
8
Calque 1
10
403.253243
20
502.016184
11
401.306297
21
501.712275
0
LINE
8
Calque 1
10
401.306297
20
501.712275
11
399.728160
21
501.845800
0
LINE
8
Calque 1
10
399.728160
20
501.845800
11
399.728460
21
501.845400
0
LINE
8
Calque 1
10
405.566850
20
505.067900
11
408.356478
21
506.415098
0
LINE
8
Calque 1
10
408.356478
20
506.415098
11
411.580692
21
508.218363
0
LINE
8
Calque 1
10
411.580692
20
508.218363
11
420.052150
21
513.617700
0
LINE
8
Calque 1
10
420.052150
20
513.617700
11
427.039848
21
518.432952
0
LINE
8
Calque 1
10
427.039848
20
518.432952
11
433.581479
21
523.202163
0
LINE
8
Calque 1
10
433.581479
20
523.202163
11
439.068870
21
527.468517
0
LINE
8
Calque 1
10
439.068870
20
527.468517
11
442.893850
21
530.775200
0
LINE
8
Calque 1
10
442.893850
20
530.775200
11
443.860771
21
531.815661
0
LINE
8
Calque 1
10
443.860771
20
531.815661
11
444.671975
21
532.947856
0
LINE
8
Calque 1
10
444.671975
20
532.947856
11
445.336160
21
534.199855
0
LINE
8
Calque 1
10
445.336160
20
534.199855
11
445.862025
21
535.599725
0
LINE
8
Calque 1
10
445.862025
20
535.599725
11
446.258267
21
537.175536
0
LINE
8
Calque 1
10
446.258267
20
537.175536
11
446.533585
21
538.955356
0
LINE
8
Calque 1
10
446.533585
20
538.955356
11
446.756240
21
543.239300
0
LINE
8
Calque 1
10
446.756240
20
543.239300
11
446.717364
21
546.112317
0
LINE
8
Calque 1
10
446.717364
20
546.112317
11
446.517972
21
547.973088
0
LINE
8
Calque 1
10
446.517972
20
547.973088
11
446.080497
21
549.197314
0
LINE
8
Calque 1
10
446.080497
20
549.197314
11
445.327370
21
550.160700
0
LINE
8
Calque 1
10
445.327370
20
550.160700
11
444.497020
21
550.805881
0
LINE
8
Calque 1
10
444.497020
20
550.805881
11
443.387571
21
551.276275
0
LINE
8
Calque 1
10
443.387571
20
551.276275
11
441.890142
21
551.605256
0
LINE
8
Calque 1
10
441.890142
20
551.605256
11
439.895850
21
551.826200
0
LINE
8
Calque 1
10
439.895850
20
551.826200
11
438.309298
21
552.011173
0
LINE
8
Calque 1
10
438.309298
20
552.011173
11
437.061006
21
552.326337
0
LINE
8
Calque 1
10
437.061006
20
552.326337
11
435.961591
21
552.838433
0
LINE
8
Calque 1
10
435.961591
20
552.838433
11
434.821670
21
553.614200
0
LINE
8
Calque 1
10
434.821670
20
553.614200
11
433.266782
21
555.202897
0
LINE
8
Calque 1
10
433.266782
20
555.202897
11
431.662824
21
557.533700
0
LINE
8
Calque 1
10
431.662824
20
557.533700
11
430.191554
21
560.305053
0
LINE
8
Calque 1
10
430.191554
20
560.305053
11
429.034730
21
563.215400
0
LINE
8
Calque 1
10
429.034730
20
563.215400
11
428.419436
21
564.899742
0
LINE
8
Calque 1
10
428.419436
20
564.899742
11
427.821647
21
566.051837
0
LINE
8
Calque 1
10
427.821647
20
566.051837
11
427.170335
21
566.778514
0
LINE
8
Calque 1
10
427.170335
20
566.778514
11
426.394470
21
567.186600
0
LINE
8
Calque 1
10
426.394470
20
567.186600
11
425.483607
21
567.321928
0
LINE
8
Calque 1
10
425.483607
20
567.321928
11
424.554994
21
567.023925
0
LINE
8
Calque 1
10
424.554994
20
567.023925
11
423.423549
21
566.190834
0
LINE
8
Calque 1
10
423.423549
20
566.190834
11
421.904190
21
564.720900
0
LINE
8
Calque 1
10
421.904190
20
564.720900
11
420.244405
21
563.158898
0
LINE
8
Calque 1
10
420.244405
20
563.158898
11
418.154357
21
561.410602
0
LINE
8
Calque 1
10
418.154357
20
561.410602
11
413.197877
21
557.714887
0
LINE
8
Calque 1
10
413.197877
20
557.714887
11
408.063554
21
554.353280
0
LINE
8
Calque 1
10
408.063554
20
554.353280
11
405.751202
21
553.022616
0
LINE
8
Calque 1
10
405.751202
20
553.022616
11
403.780190
21
552.045300
0
LINE
8
Calque 1
10
403.780190
20
552.045300
11
402.112784
21
551.543319
0
LINE
8
Calque 1
10
402.112784
20
551.543319
11
401.285816
21
551.511466
0
LINE
8
Calque 1
10
401.285816
20
551.511466
11
400.404255
21
551.639200
0
LINE
8
Calque 1
10
400.404255
20
551.639200
11
398.300101
21
552.413906
0
LINE
8
Calque 1
10
398.300101
20
552.413906
11
395.445820
21
553.948400
0
LINE
8
Calque 1
10
395.445820
20
553.948400
11
391.395004
21
556.479980
0
LINE
8
Calque 1
10
391.395004
20
556.479980
11
387.315595
21
559.344137
0
LINE
8
Calque 1
10
387.315595
20
559.344137
11
383.663273
21
562.203552
0
LINE
8
Calque 1
10
383.663273
20
562.203552
11
380.893720
21
564.720900
0
LINE
8
Calque 1
10
380.893720
20
564.720900
11
379.372496
21
566.192403
0
LINE
8
Calque 1
10
379.372496
20
566.192403
11
378.241532
21
567.025750
0
LINE
8
Calque 1
10
378.241532
20
567.025750
11
377.319193
21
567.320747
0
LINE
8
Calque 1
10
377.319193
20
567.320747
11
376.423840
21
567.177200
0
LINE
8
Calque 1
10
376.423840
20
567.177200
11
375.632586
21
566.747816
0
LINE
8
Calque 1
10
375.632586
20
566.747816
11
374.967971
21
566.008325
0
LINE
8
Calque 1
10
374.967971
20
566.008325
11
374.365510
21
564.862822
0
LINE
8
Calque 1
10
374.365510
20
564.862822
11
373.760720
21
563.215400
0
LINE
8
Calque 1
10
373.760720
20
563.215400
11
372.607193
21
560.307922
0
LINE
8
Calque 1
10
372.607193
20
560.307922
11
371.136943
21
557.536625
0
LINE
8
Calque 1
10
371.136943
20
557.536625
11
369.532461
21
555.204416
0
LINE
8
Calque 1
10
369.532461
20
555.204416
11
367.976240
21
553.614200
0
LINE
8
Calque 1
10
367.976240
20
553.614200
11
366.836318
21
552.838433
0
LINE
8
Calque 1
10
366.836318
20
552.838433
11
365.736902
21
552.326338
0
LINE
8
Calque 1
10
365.736902
20
552.326338
11
364.488608
21
552.011173
0
LINE
8
Calque 1
10
364.488608
20
552.011173
11
362.902050
21
551.826200
0
LINE
8
Calque 1
10
362.902050
20
551.826200
11
360.907764
21
551.605256
0
LINE
8
Calque 1
10
360.907764
20
551.605256
11
359.410338
21
551.276275
0
LINE
8
Calque 1
10
359.410338
20
551.276275
11
358.300890
21
550.805881
0
LINE
8
Calque 1
10
358.300890
20
550.805881
11
357.470540
21
550.160700
0
LINE
8
Calque 1
10
357.470540
20
550.160700
11
356.717408
21
549.197314
0
LINE
8
Calque 1
10
356.717408
20
549.197314
11
356.279926
21
547.973088
0
LINE
8
Calque 1
10
356.279926
20
547.973088
11
356.080534
21
546.112317
0
LINE
8
Calque 1
10
356.080534
20
546.112317
11
356.041670
21
543.239300
0
LINE
8
Calque 1
10
356.041670
20
543.239300
11
356.153647
21
540.107562
0
LINE
8
Calque 1
10
356.153647
20
540.107562
11
356.477289
21
537.513500
0
LINE
8
Calque 1
10
356.477289
20
537.513500
11
357.040058
21
535.308387
0
LINE
8
Calque 1
10
357.040058
20
535.308387
11
357.869420
21
533.343500
0
LINE
8
Calque 1
10
357.869420
20
533.343500
11
359.103572
21
531.616253
0
LINE
8
Calque 1
10
359.103572
20
531.616253
11
361.426702
21
529.366950
0
LINE
8
Calque 1
10
361.426702
20
529.366950
11
365.179217
21
526.297597
0
LINE
8
Calque 1
10
365.179217
20
526.297597
11
370.701520
21
522.110200
0
LINE
8
Calque 1
10
370.701520
20
522.110200
11
379.081915
21
516.071561
0
LINE
8
Calque 1
10
379.081915
20
516.071561
11
386.527783
21
511.090938
0
LINE
8
Calque 1
10
386.527783
20
511.090938
11
392.831493
21
507.300770
0
LINE
8
Calque 1
10
392.831493
20
507.300770
11
397.785420
21
504.833500
0
LINE
8
Calque 1
10
397.785420
20
504.833500
11
399.768479
21
504.169348
0
LINE
8
Calque 1
10
399.768479
20
504.169348
11
401.570468
21
503.982338
0
LINE
8
Calque 1
10
401.570468
20
503.982338
11
403.425267
21
504.279508
0
LINE
8
Calque 1
10
403.425267
20
504.279508
11
405.566760
21
505.067900
0
LINE
8
Calque 1
10
405.566760
20
505.067900
11
405.566850
21
505.067900
0
LINE
8
Calque 1
10
353.065050
20
557.567100
11
354.216445
21
558.720662
0
LINE
8
Calque 1
10
354.216445
20
558.720662
11
355.493840
21
560.919800
0
LINE
8
Calque 1
10
355.493840
20
560.919800
11
356.727721
21
563.039987
0
LINE
8
Calque 1
10
356.727721
20
563.039987
11
357.791300
21
564.286800
0
LINE
8
Calque 1
10
357.791300
20
564.286800
11
359.939789
21
565.653316
0
LINE
8
Calque 1
10
359.939789
20
565.653316
11
362.690001
21
566.810600
0
LINE
8
Calque 1
10
362.690001
20
566.810600
11
365.869088
21
567.699009
0
LINE
8
Calque 1
10
365.869088
20
567.699009
11
369.304200
21
568.258900
0
LINE
8
Calque 1
10
369.304200
20
568.258900
11
371.205811
21
568.506069
0
LINE
8
Calque 1
10
371.205811
20
568.506069
11
372.495470
21
568.820700
0
LINE
8
Calque 1
10
372.495470
20
568.820700
11
373.454747
21
569.302506
0
LINE
8
Calque 1
10
373.454747
20
569.302506
11
374.365210
21
570.051200
0
LINE
8
Calque 1
10
374.365210
20
570.051200
11
374.991872
21
570.864897
0
LINE
8
Calque 1
10
374.991872
20
570.864897
11
375.184801
21
571.875900
0
LINE
8
Calque 1
10
375.184801
20
571.875900
11
374.939372
21
573.298653
0
LINE
8
Calque 1
10
374.939372
20
573.298653
11
374.250960
21
575.347600
0
LINE
8
Calque 1
10
374.250960
20
575.347600
11
372.616030
21
580.675800
0
LINE
8
Calque 1
10
372.616030
20
580.675800
11
371.935490
21
583.456000
0
LINE
8
Calque 1
10
371.935490
20
583.456000
11
371.834150
21
601.495100
0
LINE
8
Calque 1
10
371.834150
20
601.495100
11
371.788236
21
612.970569
0
LINE
8
Calque 1
10
371.788236
20
612.970569
11
371.929621
21
618.755450
0
LINE
8
Calque 1
10
371.929621
20
618.755450
11
372.122324
21
620.161463
0
LINE
8
Calque 1
10
372.122324
20
620.161463
11
372.423980
21
620.921881
0
LINE
8
Calque 1
10
372.423980
20
620.921881
11
372.855299
21
621.295721
0
LINE
8
Calque 1
10
372.855299
20
621.295721
11
373.436990
21
621.542000
0
LINE
8
Calque 1
10
373.436990
20
621.542000
11
374.925673
21
621.831650
0
LINE
8
Calque 1
10
374.925673
20
621.831650
11
377.322020
21
622.049000
0
LINE
8
Calque 1
10
377.322020
20
622.049000
11
381.525648
21
622.448448
0
LINE
8
Calque 1
10
381.525648
20
622.448448
11
386.005731
21
623.188912
0
LINE
8
Calque 1
10
386.005731
20
623.188912
11
390.608809
21
624.240120
0
LINE
8
Calque 1
10
390.608809
20
624.240120
11
395.181420
21
625.571800
0
LINE
8
Calque 1
10
395.181420
20
625.571800
11
396.957964
21
626.182866
0
LINE
8
Calque 1
10
396.957964
20
626.182866
11
398.056514
21
626.682200
0
LINE
8
Calque 1
10
398.056514
20
626.682200
11
398.700787
21
627.200434
0
LINE
8
Calque 1
10
398.700787
20
627.200434
11
399.114500
21
627.868200
0
LINE
8
Calque 1
10
399.114500
20
627.868200
11
399.407741
21
628.774086
0
LINE
8
Calque 1
10
399.407741
20
628.774086
11
399.531168
21
629.798762
0
LINE
8
Calque 1
10
399.531168
20
629.798762
11
399.479068
21
630.781458
0
LINE
8
Calque 1
10
399.479068
20
630.781458
11
399.245730
21
631.561400
0
LINE
8
Calque 1
10
399.245730
20
631.561400
11
397.566870
21
633.726800
0
LINE
8
Calque 1
10
397.566870
20
633.726800
11
396.333465
21
635.235867
0
LINE
8
Calque 1
10
396.333465
20
635.235867
11
395.417074
21
636.594662
0
LINE
8
Calque 1
10
395.417074
20
636.594662
11
394.707411
21
637.990002
0
LINE
8
Calque 1
10
394.707411
20
637.990002
11
394.094190
21
639.608700
0
LINE
8
Calque 1
10
394.094190
20
639.608700
11
393.546270
21
641.721600
0
LINE
8
Calque 1
10
393.546270
20
641.721600
11
393.517140
21
644.045400
0
LINE
8
Calque 1
10
393.517140
20
644.045400
11
393.766709
21
646.312375
0
LINE
8
Calque 1
10
393.766709
20
646.312375
11
394.533380
21
648.146600
0
LINE
8
Calque 1
10
394.533380
20
648.146600
11
395.055045
21
649.204108
0
LINE
8
Calque 1
10
395.055045
20
649.204108
11
395.333564
21
650.168962
0
LINE
8
Calque 1
10
395.333564
20
650.168962
11
395.527980
21
653.967400
0
LINE
8
Calque 1
10
395.527980
20
653.967400
11
395.517696
21
657.142287
0
LINE
8
Calque 1
10
395.517696
20
657.142287
11
395.340710
21
658.796100
0
LINE
8
Calque 1
10
395.340710
20
658.796100
11
395.151256
21
659.190900
0
LINE
8
Calque 1
10
395.151256
20
659.190900
11
394.887219
21
659.410050
0
LINE
8
Calque 1
10
394.887219
20
659.410050
11
393.666620
21
659.525700
0
LINE
8
Calque 1
10
393.666620
20
659.525700
11
390.433871
21
659.833062
0
LINE
8
Calque 1
10
390.433871
20
659.833062
11
388.975124
21
660.159314
0
LINE
8
Calque 1
10
388.975124
20
660.159314
11
387.905380
21
660.549100
0
LINE
8
Calque 1
10
387.905380
20
660.549100
11
387.081150
21
661.191675
0
LINE
8
Calque 1
10
387.081150
20
661.191675
11
386.545670
21
662.322200
0
LINE
8
Calque 1
10
386.545670
20
662.322200
11
386.001832
21
663.581917
0
LINE
8
Calque 1
10
386.001832
20
663.581917
11
385.616585
21
663.934608
0
LINE
8
Calque 1
10
385.616585
20
663.934608
11
385.050665
21
664.118437
0
LINE
8
Calque 1
10
385.050665
20
664.118437
11
383.061438
21
664.027264
0
LINE
8
Calque 1
10
383.061438
20
664.027264
11
379.403420
21
663.403900
0
LINE
8
Calque 1
10
379.403420
20
663.403900
11
370.694831
21
661.967802
0
LINE
8
Calque 1
10
370.694831
20
661.967802
11
362.102932
21
660.874162
0
LINE
8
Calque 1
10
362.102932
20
660.874162
11
353.282228
21
660.085642
0
LINE
8
Calque 1
10
353.282228
20
660.085642
11
343.887220
21
659.564900
0
LINE
8
Calque 1
10
343.887220
20
659.564900
11
339.159690
21
659.372200
0
LINE
8
Calque 1
10
339.159690
20
659.372200
11
338.529410
21
658.639400
0
LINE
8
Calque 1
10
338.529410
20
658.639400
11
337.899130
21
657.906700
0
LINE
8
Calque 1
10
337.899130
20
657.906700
11
337.908130
21
619.623000
0
LINE
8
Calque 1
10
337.908130
20
619.623000
11
337.985911
21
591.736262
0
LINE
8
Calque 1
10
337.985911
20
591.736262
11
338.161500
21
578.628200
0
LINE
8
Calque 1
10
338.161500
20
578.628200
11
338.556085
21
576.043567
0
LINE
8
Calque 1
10
338.556085
20
576.043567
11
339.304041
21
573.265987
0
LINE
8
Calque 1
10
339.304041
20
573.265987
11
340.432339
21
570.211639
0
LINE
8
Calque 1
10
340.432339
20
570.211639
11
341.967950
21
566.796700
0
LINE
8
Calque 1
10
341.967950
20
566.796700
11
343.945091
21
562.949680
0
LINE
8
Calque 1
10
343.945091
20
562.949680
11
345.724487
21
560.003962
0
LINE
8
Calque 1
10
345.724487
20
560.003962
11
347.281550
21
557.996064
0
LINE
8
Calque 1
10
347.281550
20
557.996064
11
347.969022
21
557.355208
0
LINE
8
Calque 1
10
347.969022
20
557.355208
11
348.591690
21
556.962500
0
LINE
8
Calque 1
10
348.591690
20
556.962500
11
349.637258
21
556.687814
0
LINE
8
Calque 1
10
349.637258
20
556.687814
11
350.810095
21
556.707662
0
LINE
8
Calque 1
10
350.810095
20
556.707662
11
351.992112
21
557.006080
0
LINE
8
Calque 1
10
351.992112
20
557.006080
11
353.065220
21
557.567100
0
LINE
8
Calque 1
10
353.065220
20
557.567100
11
353.065050
21
557.567100
0
LINE
8
Calque 1
10
454.148050
20
556.965900
11
454.780766
21
557.341818
0
LINE
8
Calque 1
10
454.780766
20
557.341818
11
455.473923
21
557.965211
0
LINE
8
Calque 1
10
455.473923
20
557.965211
11
457.036426
21
559.946862
0
LINE
8
Calque 1
10
457.036426
20
559.946862
11
458.825281
21
562.895733
0
LINE
8
Calque 1
10
458.825281
20
562.895733
11
460.830210
21
566.796700
0
LINE
8
Calque 1
10
460.830210
20
566.796700
11
462.407992
21
570.300705
0
LINE
8
Calque 1
10
462.407992
20
570.300705
11
463.535290
21
573.377313
0
LINE
8
Calque 1
10
463.535290
20
573.377313
11
464.263761
21
576.190464
0
LINE
8
Calque 1
10
464.263761
20
576.190464
11
464.645060
21
578.904100
0
LINE
8
Calque 1
10
464.645060
20
578.904100
11
464.819755
21
592.135513
0
LINE
8
Calque 1
10
464.819755
20
592.135513
11
464.894640
21
619.887600
0
LINE
8
Calque 1
10
464.894640
20
619.887600
11
464.898640
21
657.906700
0
LINE
8
Calque 1
10
464.898640
20
657.906700
11
464.268360
21
658.639400
0
LINE
8
Calque 1
10
464.268360
20
658.639400
11
463.638080
21
659.372200
0
LINE
8
Calque 1
10
463.638080
20
659.372200
11
458.910550
21
659.564900
0
LINE
8
Calque 1
10
458.910550
20
659.564900
11
449.466845
21
660.088466
0
LINE
8
Calque 1
10
449.466845
20
660.088466
11
440.596487
21
660.880775
0
LINE
8
Calque 1
10
440.596487
20
660.880775
11
431.968586
21
661.977547
0
LINE
8
Calque 1
10
431.968586
20
661.977547
11
423.252250
21
663.414500
0
LINE
8
Calque 1
10
423.252250
20
663.414500
11
419.676157
21
664.023228
0
LINE
8
Calque 1
10
419.676157
20
664.023228
11
417.727780
21
664.108100
0
LINE
8
Calque 1
10
417.727780
20
664.108100
11
417.171636
21
663.924084
0
LINE
8
Calque 1
10
417.171636
20
663.924084
11
416.791603
21
663.573097
0
LINE
8
Calque 1
10
416.791603
20
663.573097
11
416.252110
21
662.322200
0
LINE
8
Calque 1
10
416.252110
20
662.322200
11
415.716630
21
661.191675
0
LINE
8
Calque 1
10
415.716630
20
661.191675
11
414.892400
21
660.549100
0
LINE
8
Calque 1
10
414.892400
20
660.549100
11
413.822656
21
660.159722
0
LINE
8
Calque 1
10
413.822656
20
660.159722
11
412.363909
21
659.834150
0
LINE
8
Calque 1
10
412.363909
20
659.834150
11
409.131160
21
659.525700
0
LINE
8
Calque 1
10
409.131160
20
659.525700
11
407.910561
21
659.410875
0
LINE
8
Calque 1
10
407.910561
20
659.410875
11
407.646524
21
659.191322
0
LINE
8
Calque 1
10
407.646524
20
659.191322
11
407.457070
21
658.796100
0
LINE
8
Calque 1
10
407.457070
20
658.796100
11
407.280091
21
657.142287
0
LINE
8
Calque 1
10
407.280091
20
657.142287
11
407.269800
21
653.967400
0
LINE
8
Calque 1
10
407.269800
20
653.967400
11
407.464213
21
650.168962
0
LINE
8
Calque 1
10
407.464213
20
650.168962
11
407.742736
21
649.204108
0
LINE
8
Calque 1
10
407.742736
20
649.204108
11
408.264400
21
648.146600
0
LINE
8
Calque 1
10
408.264400
20
648.146600
11
409.031056
21
646.312375
0
LINE
8
Calque 1
10
409.031056
20
646.312375
11
409.280640
21
644.045400
0
LINE
8
Calque 1
10
409.280640
20
644.045400
11
409.151721
21
641.327370
0
LINE
8
Calque 1
10
409.151721
20
641.327370
11
408.464655
21
638.780237
0
LINE
8
Calque 1
10
408.464655
20
638.780237
11
407.173149
21
636.286036
0
LINE
8
Calque 1
10
407.173149
20
636.286036
11
405.230910
21
633.726800
0
LINE
8
Calque 1
10
405.230910
20
633.726800
11
404.187322
21
632.471673
0
LINE
8
Calque 1
10
404.187322
20
632.471673
11
403.588211
21
631.559812
0
LINE
8
Calque 1
10
403.588211
20
631.559812
11
403.315405
21
630.759120
0
LINE
8
Calque 1
10
403.315405
20
630.759120
11
403.250730
21
629.837500
0
LINE
8
Calque 1
10
403.250730
20
629.837500
11
403.391802
21
628.605652
0
LINE
8
Calque 1
10
403.391802
20
628.605652
11
403.831814
21
627.621913
0
LINE
8
Calque 1
10
403.831814
20
627.621913
11
404.595959
21
626.849542
0
LINE
8
Calque 1
10
404.595959
20
626.849542
11
405.709430
21
626.251800
0
LINE
8
Calque 1
10
405.709430
20
626.251800
11
410.469863
21
624.698125
0
LINE
8
Calque 1
10
410.469863
20
624.698125
11
416.262601
21
623.318375
0
LINE
8
Calque 1
10
416.262601
20
623.318375
11
422.023504
21
622.330613
0
LINE
8
Calque 1
10
422.023504
20
622.330613
11
424.559473
21
622.051871
0
LINE
8
Calque 1
10
424.559473
20
622.051871
11
426.688430
21
621.952900
0
LINE
8
Calque 1
10
426.688430
20
621.952900
11
428.128720
21
621.857802
0
LINE
8
Calque 1
10
428.128720
20
621.857802
11
429.253184
21
621.567187
0
LINE
8
Calque 1
10
429.253184
20
621.567187
11
430.081673
21
621.073080
0
LINE
8
Calque 1
10
430.081673
20
621.073080
11
430.634040
21
620.367500
0
LINE
8
Calque 1
10
430.634040
20
620.367500
11
430.862435
21
619.390405
0
LINE
8
Calque 1
10
430.862435
20
619.390405
11
430.978935
21
616.753137
0
LINE
8
Calque 1
10
430.978935
20
616.753137
11
430.963620
21
601.495100
0
LINE
8
Calque 1
10
430.963620
20
601.495100
11
430.862280
21
583.456000
0
LINE
8
Calque 1
10
430.862280
20
583.456000
11
430.181740
21
580.675800
0
LINE
8
Calque 1
10
430.181740
20
580.675800
11
428.546810
21
575.347600
0
LINE
8
Calque 1
10
428.546810
20
575.347600
11
427.864761
21
573.327653
0
LINE
8
Calque 1
10
427.864761
20
573.327653
11
427.619170
21
571.933225
0
LINE
8
Calque 1
10
427.619170
20
571.933225
11
427.804259
21
570.935884
0
LINE
8
Calque 1
10
427.804259
20
570.935884
11
428.414250
21
570.107200
0
LINE
8
Calque 1
10
428.414250
20
570.107200
11
429.299772
21
569.336973
0
LINE
8
Calque 1
10
429.299772
20
569.336973
11
430.259957
21
568.838237
0
LINE
8
Calque 1
10
430.259957
20
568.838237
11
431.567119
21
568.511908
0
LINE
8
Calque 1
10
431.567119
20
568.511908
11
433.493570
21
568.258900
0
LINE
8
Calque 1
10
433.493570
20
568.258900
11
436.948254
21
567.698378
0
LINE
8
Calque 1
10
436.948254
20
567.698378
11
440.117935
21
566.809450
0
LINE
8
Calque 1
10
440.117935
20
566.809450
11
442.868583
21
565.638747
0
LINE
8
Calque 1
10
442.868583
20
565.638747
11
445.066170
21
564.232900
0
LINE
8
Calque 1
10
445.066170
20
564.232900
11
446.109250
21
563.094950
0
LINE
8
Calque 1
10
446.109250
20
563.094950
11
447.081830
21
561.373500
0
LINE
8
Calque 1
10
447.081830
20
561.373500
11
447.930920
21
559.700437
0
LINE
8
Calque 1
10
447.930920
20
559.700437
11
448.692508
21
558.535725
0
LINE
8
Calque 1
10
448.692508
20
558.535725
11
449.478429
21
557.737500
0
LINE
8
Calque 1
10
449.478429
20
557.737500
11
450.400520
21
557.163900
0
LINE
8
Calque 1
10
450.400520
20
557.163900
11
451.367330
21
556.785520
0
LINE
8
Calque 1
10
451.367330
20
556.785520
11
452.304053
21
556.626937
0
LINE
8
Calque 1
10
452.304053
20
556.626937
11
453.225831
21
556.687336
0
LINE
8
Calque 1
10
453.225831
20
556.687336
11
454.147810
21
556.965900
0
LINE
8
Calque 1
10
454.147810
20
556.965900
11
454.148050
21
556.965900
0
LINE
8
Calque 1
10
324.907000
20
571.815000
11
324.254920
21
578.429600
0
LINE
8
Calque 1
10
324.254920
20
578.429600
11
324.080260
21
581.869200
0
LINE
8
Calque 1
10
324.080260
20
581.869200
11
319.017230
21
586.965900
0
LINE
8
Calque 1
10
319.017230
20
586.965900
11
314.746024
21
591.134363
0
LINE
8
Calque 1
10
314.746024
20
591.134363
11
313.958385
21
591.690380
0
LINE
8
Calque 1
10
313.958385
20
591.690380
11
313.755236
21
591.712372
0
LINE
8
Calque 1
10
313.755236
20
591.712372
11
313.623460
21
591.611700
0
LINE
8
Calque 1
10
313.623460
20
591.611700
11
313.389882
21
591.383350
0
LINE
8
Calque 1
10
313.389882
20
591.383350
11
313.292730
21
591.467600
0
LINE
8
Calque 1
10
313.292730
20
591.467600
11
313.157441
21
591.643238
0
LINE
8
Calque 1
10
313.157441
20
591.643238
11
312.829710
21
591.632200
0
LINE
8
Calque 1
10
312.829710
20
591.632200
11
312.688074
21
591.642850
0
LINE
8
Calque 1
10
312.688074
20
591.642850
11
312.997750
21
591.867400
0
LINE
8
Calque 1
10
312.997750
20
591.867400
11
313.389904
21
592.195625
0
LINE
8
Calque 1
10
313.389904
20
592.195625
11
313.328480
21
592.430400
0
LINE
8
Calque 1
10
313.328480
20
592.430400
11
313.116369
21
592.470263
0
LINE
8
Calque 1
10
313.116369
20
592.470263
11
313.028150
21
592.305000
0
LINE
8
Calque 1
10
313.028150
20
592.305000
11
312.878944
21
592.120688
0
LINE
8
Calque 1
10
312.878944
20
592.120688
11
312.499240
21
592.132200
0
LINE
8
Calque 1
10
312.499240
20
592.132200
11
312.082180
21
592.159650
0
LINE
8
Calque 1
10
312.082180
20
592.159650
11
311.822170
21
592.030800
0
LINE
8
Calque 1
10
311.822170
20
592.030800
11
311.579320
21
591.825798
0
LINE
8
Calque 1
10
311.579320
20
591.825798
11
311.280975
21
591.807013
0
LINE
8
Calque 1
10
311.280975
20
591.807013
11
311.008303
21
591.955945
0
LINE
8
Calque 1
10
311.008303
20
591.955945
11
310.842470
21
592.254100
0
LINE
8
Calque 1
10
310.842470
20
592.254100
11
310.691475
21
592.377763
0
LINE
8
Calque 1
10
310.691475
20
592.377763
11
310.450060
21
591.791100
0
LINE
8
Calque 1
10
310.450060
20
591.791100
11
310.206476
21
591.136538
0
LINE
8
Calque 1
10
310.206476
20
591.136538
11
310.120700
21
591.526500
0
LINE
8
Calque 1
10
310.120700
20
591.526500
11
310.048817
21
591.893238
0
LINE
8
Calque 1
10
310.048817
20
591.893238
11
309.938820
21
591.846200
0
LINE
8
Calque 1
10
309.938820
20
591.846200
11
309.752068
21
591.642150
0
LINE
8
Calque 1
10
309.752068
20
591.642150
11
309.430540
21
591.812200
0
LINE
8
Calque 1
10
309.430540
20
591.812200
11
309.138365
21
591.985375
0
LINE
8
Calque 1
10
309.138365
20
591.985375
11
309.059400
21
591.794200
0
LINE
8
Calque 1
10
309.059400
20
591.794200
11
308.892624
21
591.592475
0
LINE
8
Calque 1
10
308.892624
20
591.592475
11
308.397940
21
591.634500
0
LINE
8
Calque 1
10
308.397940
20
591.634500
11
307.899525
21
591.676137
0
LINE
8
Calque 1
10
307.899525
20
591.676137
11
307.732430
21
591.464800
0
LINE
8
Calque 1
10
307.732430
20
591.464800
11
307.675680
21
591.289912
0
LINE
8
Calque 1
10
307.675680
20
591.289912
11
307.492330
21
591.501800
0
LINE
8
Calque 1
10
307.492330
20
591.501800
11
307.364616
21
591.888788
0
LINE
8
Calque 1
10
307.364616
20
591.888788
11
307.389040
21
592.295500
0
LINE
8
Calque 1
10
307.389040
20
592.295500
11
307.447616
21
592.568887
0
LINE
8
Calque 1
10
307.447616
20
592.568887
11
307.249730
21
592.332500
0
LINE
8
Calque 1
10
307.249730
20
592.332500
11
307.096790
21
591.755400
0
LINE
8
Calque 1
10
307.096790
20
591.755400
11
307.101885
21
591.570475
0
LINE
8
Calque 1
10
307.101885
20
591.570475
11
306.947050
21
591.396500
0
LINE
8
Calque 1
10
306.947050
20
591.396500
11
306.747391
21
591.456100
0
LINE
8
Calque 1
10
306.747391
20
591.456100
11
306.647460
21
591.841200
0
LINE
8
Calque 1
10
306.647460
20
591.841200
11
306.596582
21
592.213325
0
LINE
8
Calque 1
10
306.596582
20
592.213325
11
306.495140
21
591.985900
0
LINE
8
Calque 1
10
306.495140
20
591.985900
11
306.342998
21
591.697500
0
LINE
8
Calque 1
10
306.342998
20
591.697500
11
306.148000
21
591.659000
0
LINE
8
Calque 1
10
306.148000
20
591.659000
11
305.940302
21
591.605100
0
LINE
8
Calque 1
10
305.940302
20
591.605100
11
305.757610
21
591.278800
0
LINE
8
Calque 1
10
305.757610
20
591.278800
11
305.533176
21
590.941025
0
LINE
8
Calque 1
10
305.533176
20
590.941025
11
305.209390
21
590.906400
0
LINE
8
Calque 1
10
305.209390
20
590.906400
11
304.911533
21
591.091755
0
LINE
8
Calque 1
10
304.911533
20
591.091755
11
304.834809
21
591.279088
0
LINE
8
Calque 1
10
304.834809
20
591.279088
11
304.965300
21
591.390952
0
LINE
8
Calque 1
10
304.965300
20
591.390952
11
305.289090
21
591.349900
0
LINE
8
Calque 1
10
305.289090
20
591.349900
11
305.558215
21
591.304363
0
LINE
8
Calque 1
10
305.558215
20
591.304363
11
305.222990
21
591.614400
0
LINE
8
Calque 1
10
305.222990
20
591.614400
11
304.941816
21
591.918537
0
LINE
8
Calque 1
10
304.941816
20
591.918537
11
305.024550
21
592.046800
0
LINE
8
Calque 1
10
305.024550
20
592.046800
11
305.258127
21
592.137688
0
LINE
8
Calque 1
10
305.258127
20
592.137688
11
305.355280
21
592.350300
0
LINE
8
Calque 1
10
305.355280
20
592.350300
11
305.181064
21
592.451762
0
LINE
8
Calque 1
10
305.181064
20
592.451762
11
304.707620
21
592.220900
0
LINE
8
Calque 1
10
304.707620
20
592.220900
11
304.204183
21
591.990975
0
LINE
8
Calque 1
10
304.204183
20
591.990975
11
303.908660
21
592.041400
0
LINE
8
Calque 1
10
303.908660
20
592.041400
11
303.641050
21
592.202138
0
LINE
8
Calque 1
10
303.641050
20
592.202138
11
303.210090
21
592.244900
0
LINE
8
Calque 1
10
303.210090
20
592.244900
11
302.807741
21
592.148613
0
LINE
8
Calque 1
10
302.807741
20
592.148613
11
303.244590
21
591.732600
0
LINE
8
Calque 1
10
303.244590
20
591.732600
11
303.579751
21
591.399887
0
LINE
8
Calque 1
10
303.579751
20
591.399887
11
303.568570
21
591.261500
0
LINE
8
Calque 1
10
303.568570
20
591.261500
11
302.634450
21
591.937800
0
LINE
8
Calque 1
10
302.634450
20
591.937800
11
302.128391
21
592.359625
0
LINE
8
Calque 1
10
302.128391
20
592.359625
11
302.029407
21
592.345219
0
LINE
8
Calque 1
10
302.029407
20
592.345219
11
302.021040
21
592.185500
0
LINE
8
Calque 1
10
302.021040
20
592.185500
11
305.670370
21
588.323966
0
LINE
8
Calque 1
10
305.670370
20
588.323966
11
313.657502
21
580.185875
0
LINE
8
Calque 1
10
313.657502
20
580.185875
11
321.657704
21
572.147197
0
LINE
8
Calque 1
10
321.657704
20
572.147197
11
325.346240
21
568.583900
0
LINE
8
Calque 1
10
325.346240
20
568.583900
11
324.906980
21
571.814600
0
LINE
8
Calque 1
10
324.906980
20
571.814600
11
324.907000
21
571.815000
0
LINE
8
Calque 1
10
308.216000
20
591.178100
11
308.723120
21
591.157100
0
LINE
8
Calque 1
10
308.723120
20
591.157100
11
308.687024
21
591.050288
0
LINE
8
Calque 1
10
308.687024
20
591.050288
11
308.375850
21
591.018100
0
LINE
8
Calque 1
10
308.375850
20
591.018100
11
308.101188
21
591.071088
0
LINE
8
Calque 1
10
308.101188
20
591.071088
11
308.216000
21
591.178000
0
LINE
8
Calque 1
10
308.216000
20
591.178000
11
308.216000
21
591.178100
0
LINE
8
Calque 1
10
311.837480
20
591.791100
11
312.117680
21
592.055600
0
LINE
8
Calque 1
10
312.117680
20
592.055600
11
312.234360
21
591.791100
0
LINE
8
Calque 1
10
312.234360
20
591.791100
11
312.152051
21
591.604200
0
LINE
8
Calque 1
10
312.152051
20
591.604200
11
311.954160
21
591.526500
0
LINE
8
Calque 1
10
311.954160
20
591.526500
11
311.804301
21
591.604200
0
LINE
8
Calque 1
10
311.804301
20
591.604200
11
311.837480
21
591.791100
0
LINE
8
Calque 1
10
311.837480
20
591.791100
11
311.837480
21
591.791100
0
LINE
8
Calque 1
10
489.506480
20
580.599600
11
497.840780
21
589.002238
0
LINE
8
Calque 1
10
497.840780
20
589.002238
11
500.246011
21
591.451477
0
LINE
8
Calque 1
10
500.246011
20
591.451477
11
500.843510
21
592.071204
0
LINE
8
Calque 1
10
500.843510
20
592.071204
11
500.974880
21
592.224100
0
LINE
8
Calque 1
10
500.974880
20
592.224100
11
500.506171
21
591.946975
0
LINE
8
Calque 1
10
500.506171
20
591.946975
11
500.231660
21
592.038400
0
LINE
8
Calque 1
10
500.231660
20
592.038400
11
499.757940
21
592.320200
0
LINE
8
Calque 1
10
499.757940
20
592.320200
11
499.697270
21
592.206100
0
LINE
8
Calque 1
10
499.697270
20
592.206100
11
499.972000
21
591.931800
0
LINE
8
Calque 1
10
499.972000
20
591.931800
11
500.328661
21
591.604388
0
LINE
8
Calque 1
10
500.328661
20
591.604388
11
500.022600
21
591.534900
0
LINE
8
Calque 1
10
500.022600
20
591.534900
11
499.695592
21
591.448388
0
LINE
8
Calque 1
10
499.695592
20
591.448388
11
499.559580
21
591.246300
0
LINE
8
Calque 1
10
499.559580
20
591.246300
11
499.481572
21
591.096600
0
LINE
8
Calque 1
10
499.481572
20
591.096600
11
499.294020
21
591.130200
0
LINE
8
Calque 1
10
499.294020
20
591.130200
11
499.154045
21
591.435563
0
LINE
8
Calque 1
10
499.154045
20
591.435563
11
499.190410
21
591.939600
0
LINE
8
Calque 1
10
499.190410
20
591.939600
11
499.224612
21
592.440700
0
LINE
8
Calque 1
10
499.224612
20
592.440700
11
498.942420
21
592.584800
0
LINE
8
Calque 1
10
498.942420
20
592.584800
11
498.596696
21
592.493875
0
LINE
8
Calque 1
10
498.596696
20
592.493875
11
498.341160
21
592.275300
0
LINE
8
Calque 1
10
498.341160
20
592.275300
11
498.301584
21
592.084025
0
LINE
8
Calque 1
10
498.301584
20
592.084025
11
498.554950
21
592.121200
0
LINE
8
Calque 1
10
498.554950
20
592.121200
11
498.830517
21
592.133875
0
LINE
8
Calque 1
10
498.830517
20
592.133875
11
498.673200
21
591.668800
0
LINE
8
Calque 1
10
498.673200
20
591.668800
11
498.391405
21
591.299236
0
LINE
8
Calque 1
10
498.391405
20
591.299236
11
498.045169
21
591.136513
0
LINE
8
Calque 1
10
498.045169
20
591.136513
11
497.719848
21
591.194008
0
LINE
8
Calque 1
10
497.719848
20
591.194008
11
497.500800
21
591.485100
0
LINE
8
Calque 1
10
497.500800
20
591.485100
11
497.344905
21
591.652163
0
LINE
8
Calque 1
10
497.344905
20
591.652163
11
497.114850
21
591.619500
0
LINE
8
Calque 1
10
497.114850
20
591.619500
11
496.962461
21
591.581413
0
LINE
8
Calque 1
10
496.962461
20
591.581413
11
497.045550
21
591.790300
0
LINE
8
Calque 1
10
497.045550
20
591.790300
11
497.279942
21
591.978325
0
LINE
8
Calque 1
10
497.279942
20
591.978325
11
497.575610
21
591.703300
0
LINE
8
Calque 1
10
497.575610
20
591.703300
11
497.849749
21
591.448163
0
LINE
8
Calque 1
10
497.849749
20
591.448163
11
498.064390
21
591.442700
0
LINE
8
Calque 1
10
498.064390
20
591.442700
11
498.216250
21
591.842917
0
LINE
8
Calque 1
10
498.216250
20
591.842917
11
497.879999
21
592.088288
0
LINE
8
Calque 1
10
497.879999
20
592.088288
11
497.245749
21
592.123789
0
LINE
8
Calque 1
10
497.245749
20
592.123789
11
496.503610
21
591.894400
0
LINE
8
Calque 1
10
496.503610
20
591.894400
11
495.582669
21
591.541363
0
LINE
8
Calque 1
10
495.582669
20
591.541363
11
495.407704
21
591.589680
0
LINE
8
Calque 1
10
495.407704
20
591.589680
11
495.458550
21
591.791400
0
LINE
8
Calque 1
10
495.458550
20
591.791400
11
495.452854
21
591.978213
0
LINE
8
Calque 1
10
495.452854
20
591.978213
11
495.209580
21
592.055900
0
LINE
8
Calque 1
10
495.209580
20
592.055900
11
494.918259
21
591.991225
0
LINE
8
Calque 1
10
494.918259
20
591.991225
11
494.797090
21
591.835500
0
LINE
8
Calque 1
10
494.797090
20
591.835500
11
494.680505
21
591.679763
0
LINE
8
Calque 1
10
494.680505
20
591.679763
11
494.400210
21
591.615000
0
LINE
8
Calque 1
10
494.400210
20
591.615000
11
494.119920
21
591.689288
0
LINE
8
Calque 1
10
494.119920
20
591.689288
11
494.003340
21
591.867900
0
LINE
8
Calque 1
10
494.003340
20
591.867900
11
493.880671
21
591.944650
0
LINE
8
Calque 1
10
493.880671
20
591.944650
11
493.585750
21
591.773900
0
LINE
8
Calque 1
10
493.585750
20
591.773900
11
493.041287
21
591.497692
0
LINE
8
Calque 1
10
493.041287
20
591.497692
11
492.416065
21
591.388838
0
LINE
8
Calque 1
10
492.416065
20
591.388838
11
491.931581
21
591.455764
0
LINE
8
Calque 1
10
491.931581
20
591.455764
11
491.809330
21
591.706900
0
LINE
8
Calque 1
10
491.809330
20
591.706900
11
491.986021
21
591.948120
0
LINE
8
Calque 1
10
491.986021
20
591.948120
11
492.246858
21
592.043288
0
LINE
8
Calque 1
10
492.246858
20
592.043288
11
492.847990
21
591.782900
0
LINE
8
Calque 1
10
492.847990
20
591.782900
11
493.055246
21
591.673850
0
LINE
8
Calque 1
10
493.055246
20
591.673850
11
493.121390
21
591.915200
0
LINE
8
Calque 1
10
493.121390
20
591.915200
11
493.005990
21
592.205500
0
LINE
8
Calque 1
10
493.005990
20
592.205500
11
492.241220
21
592.337000
0
LINE
8
Calque 1
10
492.241220
20
592.337000
11
491.798207
21
592.454200
0
LINE
8
Calque 1
10
491.798207
20
592.454200
11
491.754870
21
592.320000
0
LINE
8
Calque 1
10
491.754870
20
592.320000
11
491.787699
21
592.133775
0
LINE
8
Calque 1
10
491.787699
20
592.133775
11
491.637700
21
592.056300
0
LINE
8
Calque 1
10
491.637700
20
592.056300
11
491.439424
21
592.153438
0
LINE
8
Calque 1
10
491.439424
20
592.153438
11
491.356190
21
592.387000
0
LINE
8
Calque 1
10
491.356190
20
592.387000
11
491.155694
21
592.387588
0
LINE
8
Calque 1
10
491.155694
20
592.387588
11
490.675590
21
591.924000
0
LINE
8
Calque 1
10
490.675590
20
591.924000
11
490.235205
21
591.444825
0
LINE
8
Calque 1
10
490.235205
20
591.444825
11
490.130280
21
591.407400
0
LINE
8
Calque 1
10
490.130280
20
591.407400
11
490.021180
21
592.068900
0
LINE
8
Calque 1
10
490.021180
20
592.068900
11
489.819416
21
592.320400
0
LINE
8
Calque 1
10
489.819416
20
592.320400
11
489.774050
21
592.069400
0
LINE
8
Calque 1
10
489.774050
20
592.069400
11
489.704744
21
591.831950
0
LINE
8
Calque 1
10
489.704744
20
591.831950
11
489.452700
21
592.003400
0
LINE
8
Calque 1
10
489.452700
20
592.003400
11
489.055065
21
591.914034
0
LINE
8
Calque 1
10
489.055065
20
591.914034
11
488.117609
21
591.174925
0
LINE
8
Calque 1
10
488.117609
20
591.174925
11
483.935720
21
587.141700
0
LINE
8
Calque 1
10
483.935720
20
587.141700
11
478.736050
21
581.962700
0
LINE
8
Calque 1
10
478.736050
20
581.962700
11
478.578190
21
578.741400
0
LINE
8
Calque 1
10
478.578190
20
578.741400
11
478.076830
21
573.159000
0
LINE
8
Calque 1
10
478.076830
20
573.159000
11
477.437380
21
568.971600
0
LINE
8
Calque 1
10
477.437380
20
568.971600
11
477.383980
21
568.508600
0
LINE
8
Calque 1
10
477.383980
20
568.508600
11
489.506480
21
580.600500
0
LINE
8
Calque 1
10
489.506480
20
580.600500
11
489.506480
21
580.599600
0
LINE
8
Calque 1
10
308.662480
20
592.055600
11
308.183850
21
592.316200
0
LINE
8
Calque 1
10
308.183850
20
592.316200
11
308.064306
21
592.243725
0
LINE
8
Calque 1
10
308.064306
20
592.243725
11
308.265650
21
592.055600
0
LINE
8
Calque 1
10
308.265650
20
592.055600
11
308.730826
21
591.809300
0
LINE
8
Calque 1
10
308.730826
20
591.809300
11
308.662520
21
592.055600
0
LINE
8
Calque 1
10
308.662520
20
592.055600
11
308.662480
21
592.055600
0
LINE
8
Calque 1
10
302.541720
20
597.133700
11
302.855319
21
597.170388
0
LINE
8
Calque 1
10
302.855319
20
597.170388
11
303.213040
21
597.001500
0
LINE
8
Calque 1
10
303.213040
20
597.001500
11
303.494286
21
596.835738
0
LINE
8
Calque 1
10
303.494286
20
596.835738
11
303.426310
21
597.155000
0
LINE
8
Calque 1
10
303.426310
20
597.155000
11
303.376847
21
597.488650
0
LINE
8
Calque 1
10
303.376847
20
597.488650
11
303.773650
21
597.344100
0
LINE
8
Calque 1
10
303.773650
20
597.344100
11
304.296860
21
596.808800
0
LINE
8
Calque 1
10
304.296860
20
596.808800
11
304.410452
21
596.602372
0
LINE
8
Calque 1
10
304.410452
20
596.602372
11
304.687924
21
596.565500
0
LINE
8
Calque 1
10
304.687924
20
596.565500
11
305.034319
21
596.685528
0
LINE
8
Calque 1
10
305.034319
20
596.685528
11
305.354680
21
596.949800
0
LINE
8
Calque 1
10
305.354680
20
596.949800
11
305.738371
21
597.174311
0
LINE
8
Calque 1
10
305.738371
20
597.174311
11
306.278985
21
597.225788
0
LINE
8
Calque 1
10
306.278985
20
597.225788
11
306.841536
21
597.111870
0
LINE
8
Calque 1
10
306.841536
20
597.111870
11
307.291040
21
596.840200
0
LINE
8
Calque 1
10
307.291040
20
596.840200
11
307.610252
21
596.710675
0
LINE
8
Calque 1
10
307.610252
20
596.710675
11
308.041560
21
596.839900
0
LINE
8
Calque 1
10
308.041560
20
596.839900
11
308.530190
21
596.927900
0
LINE
8
Calque 1
10
308.530190
20
596.927900
11
308.903510
21
597.063700
0
LINE
8
Calque 1
10
308.903510
20
597.063700
11
309.236819
21
597.239425
0
LINE
8
Calque 1
10
309.236819
20
597.239425
11
309.465750
21
597.063700
0
LINE
8
Calque 1
10
309.465750
20
597.063700
11
309.663387
21
596.908363
0
LINE
8
Calque 1
10
309.663387
20
596.908363
11
309.882130
21
597.116700
0
LINE
8
Calque 1
10
309.882130
20
597.116700
11
310.059531
21
597.321125
0
LINE
8
Calque 1
10
310.059531
20
597.321125
11
310.113640
21
597.144700
0
LINE
8
Calque 1
10
310.113640
20
597.144700
11
310.213006
21
596.911137
0
LINE
8
Calque 1
10
310.213006
20
596.911137
11
310.446510
21
596.814000
0
LINE
8
Calque 1
10
310.446510
20
596.814000
11
312.641765
21
598.775863
0
LINE
8
Calque 1
10
312.641765
20
598.775863
11
317.457970
21
603.492700
0
LINE
8
Calque 1
10
317.457970
20
603.492700
11
324.140610
21
610.171400
0
LINE
8
Calque 1
10
324.140610
20
610.171400
11
324.141000
21
616.257000
0
LINE
8
Calque 1
10
324.141000
20
616.257000
11
324.141000
21
622.344000
0
LINE
8
Calque 1
10
324.141000
20
622.344000
11
312.487500
21
610.703400
0
LINE
8
Calque 1
10
312.487500
20
610.703400
11
304.094944
21
602.223363
0
LINE
8
Calque 1
10
304.094944
20
602.223363
11
300.281700
21
598.181300
0
LINE
8
Calque 1
10
300.281700
20
598.181300
11
299.880150
21
597.368588
0
LINE
8
Calque 1
10
299.880150
20
597.368588
11
299.939753
21
597.126908
0
LINE
8
Calque 1
10
299.939753
20
597.126908
11
300.161280
21
596.867800
0
LINE
8
Calque 1
10
300.161280
20
596.867800
11
300.527005
21
596.579275
0
LINE
8
Calque 1
10
300.527005
20
596.579275
11
300.593150
21
596.939800
0
LINE
8
Calque 1
10
300.593150
20
596.939800
11
300.649037
21
597.307325
0
LINE
8
Calque 1
10
300.649037
20
597.307325
11
301.009650
21
596.929800
0
LINE
8
Calque 1
10
301.009650
20
596.929800
11
301.254587
21
596.664200
0
LINE
8
Calque 1
10
301.254587
20
596.664200
11
301.258610
21
596.746900
0
LINE
8
Calque 1
10
301.258610
20
596.746900
11
301.252969
21
596.985300
0
LINE
8
Calque 1
10
301.252969
20
596.985300
11
301.503580
21
597.077600
0
LINE
8
Calque 1
10
301.503580
20
597.077600
11
301.801038
21
596.941613
0
LINE
8
Calque 1
10
301.801038
20
596.941613
11
301.936960
21
596.614600
0
LINE
8
Calque 1
10
301.936960
20
596.614600
11
301.984030
21
596.324688
0
LINE
8
Calque 1
10
301.984030
20
596.324688
11
302.108920
21
596.548600
0
LINE
8
Calque 1
10
302.108920
20
596.548600
11
302.542180
21
597.128700
0
LINE
8
Calque 1
10
302.542180
20
597.128700
11
302.541720
21
597.133700
0
LINE
8
Calque 1
10
306.016650
20
596.818100
11
306.049802
21
597.005000
0
LINE
8
Calque 1
10
306.049802
20
597.005000
11
305.899970
21
597.082700
0
LINE
8
Calque 1
10
305.899970
20
597.082700
11
305.702079
21
597.005000
0
LINE
8
Calque 1
10
305.702079
20
597.005000
11
305.619770
21
596.818100
0
LINE
8
Calque 1
10
305.619770
20
596.818100
11
305.736450
21
596.553600
0
LINE
8
Calque 1
10
305.736450
20
596.553600
11
306.016650
21
596.818100
0
LINE
8
Calque 1
10
306.016650
20
596.818100
11
306.016650
21
596.818100
0
LINE
8
Calque 1
10
495.656650
20
597.251800
11
495.983657
21
597.216613
0
LINE
8
Calque 1
10
495.983657
20
597.216613
11
496.119670
21
597.081300
0
LINE
8
Calque 1
10
496.119670
20
597.081300
11
496.294544
21
596.935688
0
LINE
8
Calque 1
10
496.294544
20
596.935688
11
496.714990
21
596.876400
0
LINE
8
Calque 1
10
496.714990
20
596.876400
11
498.081090
21
596.703100
0
LINE
8
Calque 1
10
498.081090
20
596.703100
11
498.653100
21
596.629513
0
LINE
8
Calque 1
10
498.653100
20
596.629513
11
498.534450
21
596.910000
0
LINE
8
Calque 1
10
498.534450
20
596.910000
11
498.399442
21
597.212738
0
LINE
8
Calque 1
10
498.399442
20
597.212738
11
498.862740
21
597.253800
0
LINE
8
Calque 1
10
498.862740
20
597.253800
11
499.286124
21
597.173638
0
LINE
8
Calque 1
10
499.286124
20
597.173638
11
499.397260
21
597.034900
0
LINE
8
Calque 1
10
499.397260
20
597.034900
11
499.554940
21
596.688500
0
LINE
8
Calque 1
10
499.554940
20
596.688500
11
499.744906
21
596.634125
0
LINE
8
Calque 1
10
499.744906
20
596.634125
11
499.824030
21
596.736500
0
LINE
8
Calque 1
10
499.824030
20
596.736500
11
500.051752
21
596.925738
0
LINE
8
Calque 1
10
500.051752
20
596.925738
11
500.584140
21
596.986650
0
LINE
8
Calque 1
10
500.584140
20
596.986650
11
501.195607
21
596.919988
0
LINE
8
Calque 1
10
501.195607
20
596.919988
11
501.660570
21
596.726500
0
LINE
8
Calque 1
10
501.660570
20
596.726500
11
501.920406
21
596.552325
0
LINE
8
Calque 1
10
501.920406
20
596.552325
11
501.854690
21
596.736500
0
LINE
8
Calque 1
10
501.854690
20
596.736500
11
501.801326
21
597.006000
0
LINE
8
Calque 1
10
501.801326
20
597.006000
11
501.936190
21
597.215200
0
LINE
8
Calque 1
10
501.936190
20
597.215200
11
502.126102
21
597.250063
0
LINE
8
Calque 1
10
502.126102
20
597.250063
11
502.205090
21
597.101100
0
LINE
8
Calque 1
10
502.205090
20
597.101100
11
502.321671
21
596.903213
0
LINE
8
Calque 1
10
502.321671
20
596.903213
11
502.601970
21
596.820900
0
LINE
8
Calque 1
10
502.601970
20
596.820900
11
502.918723
21
596.933489
0
LINE
8
Calque 1
10
502.918723
20
596.933489
11
502.961645
21
597.266663
0
LINE
8
Calque 1
10
502.961645
20
597.266663
11
502.231840
21
598.567200
0
LINE
8
Calque 1
10
502.231840
20
598.567200
11
490.061040
21
610.975000
0
LINE
8
Calque 1
10
490.061040
20
610.975000
11
478.657240
21
622.350900
0
LINE
8
Calque 1
10
478.657240
20
622.350900
11
478.657000
21
616.255000
0
LINE
8
Calque 1
10
478.657000
20
616.255000
11
478.657000
21
610.159000
0
LINE
8
Calque 1
10
478.657000
20
610.159000
11
485.337730
21
603.551200
0
LINE
8
Calque 1
10
485.337730
20
603.551200
11
491.020982
21
598.070250
0
LINE
8
Calque 1
10
491.020982
20
598.070250
11
492.202067
21
597.150062
0
LINE
8
Calque 1
10
492.202067
20
597.150062
11
492.870250
21
596.920400
0
LINE
8
Calque 1
10
492.870250
20
596.920400
11
493.431082
21
596.969963
0
LINE
8
Calque 1
10
493.431082
20
596.969963
11
493.583330
21
597.121900
0
LINE
8
Calque 1
10
493.583330
20
597.121900
11
493.675262
21
597.264650
0
LINE
8
Calque 1
10
493.675262
20
597.264650
11
494.091090
21
597.292800
0
LINE
8
Calque 1
10
494.091090
20
597.292800
11
494.552041
21
597.154025
0
LINE
8
Calque 1
10
494.552041
20
597.154025
11
494.613190
21
596.831500
0
LINE
8
Calque 1
10
494.613190
20
596.831500
11
494.568677
21
596.558550
0
LINE
8
Calque 1
10
494.568677
20
596.558550
11
494.841130
21
596.820500
0
LINE
8
Calque 1
10
494.841130
20
596.820500
11
495.225975
21
597.111550
0
LINE
8
Calque 1
10
495.225975
20
597.111550
11
495.656480
21
597.254100
0
LINE
8
Calque 1
10
495.656480
20
597.254100
11
495.656650
21
597.251800
0
LINE
8
Calque 1
10
383.142650
20
677.894900
11
391.212440
21
680.030600
0
LINE
8
Calque 1
10
391.212440
20
680.030600
11
395.445780
21
681.234500
0
LINE
8
Calque 1
10
395.445780
20
681.234500
11
398.422340
21
684.199600
0
LINE
8
Calque 1
10
398.422340
20
684.199600
11
401.398900
21
687.164700
0
LINE
8
Calque 1
10
401.398900
20
687.164700
11
404.375460
21
684.200500
0
LINE
8
Calque 1
10
404.375460
20
684.200500
11
407.352030
21
681.236300
0
LINE
8
Calque 1
10
407.352030
20
681.236300
11
411.453070
21
680.061900
0
LINE
8
Calque 1
10
411.453070
20
680.061900
11
419.522860
21
677.925300
0
LINE
8
Calque 1
10
419.522860
20
677.925300
11
424.020770
21
676.817200
0
LINE
8
Calque 1
10
424.020770
20
676.817200
11
423.387020
21
677.627053
0
LINE
8
Calque 1
10
423.387020
20
677.627053
11
421.246336
21
679.893420
0
LINE
8
Calque 1
10
421.246336
20
679.893420
11
414.343217
21
686.896763
0
LINE
8
Calque 1
10
414.343217
20
686.896763
11
407.109525
21
694.029348
0
LINE
8
Calque 1
10
407.109525
20
694.029348
11
403.343370
21
697.493300
0
LINE
8
Calque 1
10
403.343370
20
697.493300
11
402.435564
21
697.778150
0
LINE
8
Calque 1
10
402.435564
20
697.778150
11
401.398890
21
697.873100
0
LINE
8
Calque 1
10
401.398890
20
697.873100
11
400.362216
21
697.778150
0
LINE
8
Calque 1
10
400.362216
20
697.778150
11
399.454410
21
697.493300
0
LINE
8
Calque 1
10
399.454410
20
697.493300
11
395.688262
21
694.029348
0
LINE
8
Calque 1
10
395.688262
20
694.029348
11
388.454559
21
686.896763
0
LINE
8
Calque 1
10
388.454559
20
686.896763
11
381.551431
21
679.893420
0
LINE
8
Calque 1
10
381.551431
20
679.893420
11
379.410749
21
677.627053
0
LINE
8
Calque 1
10
379.410749
20
677.627053
11
378.777010
21
676.817200
0
LINE
8
Calque 1
10
378.777010
20
676.817200
11
383.142640
21
677.894900
0
LINE
8
Calque 1
10
383.142640
20
677.894900
11
383.142650
21
677.894900
 0 
ENDSEC
 0 
EOF