999
"DXF R12 Output" (www.mydxf.blogspot.com)
 0 
SECTION
 2 
HEADER
 9 
$ACADVER
 1 
AC1009
 9 
$EXTMIN
 10 
 0 
 20 
 0 
 9 
$EXTMAX
 10 
 8.5 
 20 
 11 
 0 
ENDSEC
 0 
SECTION
 2 
ENTITIES
0
LINE
8
Calque 1
10
492.048000
20
154.973000
11
488.542270
21
163.417300
0
LINE
8
Calque 1
10
488.542270
20
163.417300
11
488.936643
21
163.557500
0
LINE
8
Calque 1
10
488.936643
20
163.557500
11
489.876550
21
163.615800
0
LINE
8
Calque 1
10
489.876550
20
163.615800
11
491.010908
21
163.710500
0
LINE
8
Calque 1
10
491.010908
20
163.710500
11
491.105714
21
163.926975
0
LINE
8
Calque 1
10
491.105714
20
163.926975
11
491.025230
21
164.343400
0
LINE
8
Calque 1
10
491.025230
20
164.343400
11
490.421850
21
166.658500
0
LINE
8
Calque 1
10
490.421850
20
166.658500
11
489.955911
21
167.975138
0
LINE
8
Calque 1
10
489.955911
20
167.975138
11
489.695447
21
168.223389
0
LINE
8
Calque 1
10
489.695447
20
168.223389
11
489.339320
21
168.316700
0
LINE
8
Calque 1
10
489.339320
20
168.316700
11
486.035050
21
168.804300
0
LINE
8
Calque 1
10
486.035050
20
168.804300
11
480.478800
21
169.971100
0
LINE
8
Calque 1
10
480.478800
20
169.971100
11
475.063760
21
171.679500
0
LINE
8
Calque 1
10
475.063760
20
171.679500
11
469.734680
21
174.057800
0
LINE
8
Calque 1
10
469.734680
20
174.057800
11
465.095550
21
176.607400
0
LINE
8
Calque 1
10
465.095550
20
176.607400
11
460.801090
21
179.583000
0
LINE
8
Calque 1
10
460.801090
20
179.583000
11
458.321290
21
181.428700
0
LINE
8
Calque 1
10
458.321290
20
181.428700
11
457.151470
21
180.790500
0
LINE
8
Calque 1
10
457.151470
20
180.790500
11
455.265650
21
179.578600
0
LINE
8
Calque 1
10
455.265650
20
179.578600
11
454.549630
21
179.005000
0
LINE
8
Calque 1
10
454.549630
20
179.005000
11
455.328410
21
178.187800
0
LINE
8
Calque 1
10
455.328410
20
178.187800
11
455.824719
21
177.533687
0
LINE
8
Calque 1
10
455.824719
20
177.533687
11
455.857580
21
177.147100
0
LINE
8
Calque 1
10
455.857580
20
177.147100
11
452.697550
21
175.712000
0
LINE
8
Calque 1
10
452.697550
20
175.712000
11
444.364720
21
172.121400
0
LINE
8
Calque 1
10
444.364720
20
172.121400
11
438.876790
21
169.807700
0
LINE
8
Calque 1
10
438.876790
20
169.807700
11
440.293400
21
173.292900
0
LINE
8
Calque 1
10
440.293400
20
173.292900
11
443.760560
21
181.475200
0
LINE
8
Calque 1
10
443.760560
20
181.475200
11
446.004840
21
186.728900
0
LINE
8
Calque 1
10
446.004840
20
186.728900
11
446.170104
21
186.975012
0
LINE
8
Calque 1
10
446.170104
20
186.975012
11
446.362147
21
187.011875
0
LINE
8
Calque 1
10
446.362147
20
187.011875
11
447.166230
21
186.345800
0
LINE
8
Calque 1
10
447.166230
20
186.345800
11
447.885022
21
185.777725
0
LINE
8
Calque 1
10
447.885022
20
185.777725
11
448.297050
21
185.722200
0
LINE
8
Calque 1
10
448.297050
20
185.722200
11
449.478500
21
187.702800
0
LINE
8
Calque 1
10
449.478500
20
187.702800
11
450.431280
21
189.432540
0
LINE
8
Calque 1
10
450.431280
20
189.432540
11
448.841160
21
191.539260
0
LINE
8
Calque 1
10
448.841160
20
191.539260
11
445.932020
21
195.811620
0
LINE
8
Calque 1
10
445.932020
20
195.811620
11
443.169470
21
200.979230
0
LINE
8
Calque 1
10
443.169470
20
200.979230
11
441.802609
21
204.155046
0
LINE
8
Calque 1
10
441.802609
20
204.155046
11
440.543380
21
207.574950
0
LINE
8
Calque 1
10
440.543380
20
207.574950
11
439.544960
21
210.913980
0
LINE
8
Calque 1
10
439.544960
20
210.913980
11
438.805140
21
213.895350
0
LINE
8
Calque 1
10
438.805140
20
213.895350
11
438.092270
21
218.305550
0
LINE
8
Calque 1
10
438.092270
20
218.305550
11
437.908989
21
219.539187
0
LINE
8
Calque 1
10
437.908989
20
219.539187
11
437.689130
21
220.141070
0
LINE
8
Calque 1
10
437.689130
20
220.141070
11
435.809960
21
220.669570
0
LINE
8
Calque 1
10
435.809960
20
220.669570
11
433.713700
21
221.188350
0
LINE
8
Calque 1
10
433.713700
20
221.188350
11
433.471215
21
221.212156
0
LINE
8
Calque 1
10
433.471215
20
221.212156
11
433.330956
21
221.045651
0
LINE
8
Calque 1
10
433.330956
20
221.045651
11
433.250680
21
219.829260
0
LINE
8
Calque 1
10
433.250680
20
219.829260
11
433.176076
21
218.697880
0
LINE
8
Calque 1
10
433.176076
20
218.697880
11
433.073733
21
218.482148
0
LINE
8
Calque 1
10
433.073733
20
218.482148
11
432.919950
21
218.466470
0
LINE
8
Calque 1
10
432.919950
20
218.466470
11
427.826720
21
220.701600
0
LINE
8
Calque 1
10
427.826720
20
220.701600
11
419.684090
21
224.209460
0
LINE
8
Calque 1
10
419.684090
20
224.209460
11
417.357131
21
225.266375
0
LINE
8
Calque 1
10
417.357131
20
225.266375
11
416.509090
21
225.825680
0
LINE
8
Calque 1
10
416.509090
20
225.825680
11
422.270470
21
228.392040
0
LINE
8
Calque 1
10
422.270470
20
228.392040
11
430.285980
21
231.845040
0
LINE
8
Calque 1
10
430.285980
20
231.845040
11
432.997960
21
232.936610
0
LINE
8
Calque 1
10
432.997960
20
232.936610
11
433.176445
21
232.548005
0
LINE
8
Calque 1
10
433.176445
20
232.548005
11
433.250680
21
231.613700
0
LINE
8
Calque 1
10
433.250680
20
231.613700
11
433.308971
21
230.681810
0
LINE
8
Calque 1
10
433.308971
20
230.681810
11
433.449110
21
230.299040
0
LINE
8
Calque 1
10
433.449110
20
230.299040
11
435.754910
21
230.777010
0
LINE
8
Calque 1
10
435.754910
20
230.777010
11
437.862260
21
231.246730
0
LINE
8
Calque 1
10
437.862260
20
231.246730
11
438.188890
21
233.877610
0
LINE
8
Calque 1
10
438.188890
20
233.877610
11
439.092310
21
239.022030
0
LINE
8
Calque 1
10
439.092310
20
239.022030
11
440.577250
21
244.313700
0
LINE
8
Calque 1
10
440.577250
20
244.313700
11
441.723795
21
247.324990
0
LINE
8
Calque 1
10
441.723795
20
247.324990
11
443.205140
21
250.663700
0
LINE
8
Calque 1
10
443.205140
20
250.663700
11
444.996860
21
254.041270
0
LINE
8
Calque 1
10
444.996860
20
254.041270
11
446.889650
21
257.145990
0
LINE
8
Calque 1
10
446.889650
20
257.145990
11
449.664990
21
261.134240
0
LINE
8
Calque 1
10
449.664990
20
261.134240
11
450.475580
21
262.212070
0
LINE
8
Calque 1
10
450.475580
20
262.212070
11
449.380880
21
264.110800
0
LINE
8
Calque 1
10
449.380880
20
264.110800
11
448.123210
21
266.009530
0
LINE
8
Calque 1
10
448.123210
20
266.009530
11
447.105710
21
265.181290
0
LINE
8
Calque 1
10
447.105710
20
265.181290
11
446.251180
21
264.353050
0
LINE
8
Calque 1
10
446.251180
20
264.353050
11
445.875010
21
265.247430
0
LINE
8
Calque 1
10
445.875010
20
265.247430
11
442.285170
21
273.729260
0
LINE
8
Calque 1
10
442.285170
20
273.729260
11
439.071510
21
281.579690
0
LINE
8
Calque 1
10
439.071510
20
281.579690
11
441.500301
21
280.716365
0
LINE
8
Calque 1
10
441.500301
20
280.716365
11
447.339740
21
278.271410
0
LINE
8
Calque 1
10
447.339740
20
278.271410
11
455.857580
21
274.457630
0
LINE
8
Calque 1
10
455.857580
20
274.457630
11
455.849881
21
274.081042
0
LINE
8
Calque 1
10
455.849881
20
274.081042
11
455.394560
21
273.471280
0
LINE
8
Calque 1
10
455.394560
20
273.471280
11
454.681930
21
272.555310
0
LINE
8
Calque 1
10
454.681930
20
272.555310
11
456.520640
21
271.290810
0
LINE
8
Calque 1
10
456.520640
20
271.290810
11
458.359350
21
270.198450
0
LINE
8
Calque 1
10
458.359350
20
270.198450
11
460.158660
21
271.645330
0
LINE
8
Calque 1
10
460.158660
20
271.645330
11
464.206930
21
274.596670
0
LINE
8
Calque 1
10
464.206930
20
274.596670
11
466.883351
21
276.194360
0
LINE
8
Calque 1
10
466.883351
20
276.194360
11
470.160050
21
277.922970
0
LINE
8
Calque 1
10
470.160050
20
277.922970
11
473.583149
21
279.486050
0
LINE
8
Calque 1
10
473.583149
20
279.486050
11
476.611560
21
280.685770
0
LINE
8
Calque 1
10
476.611560
20
280.685770
11
481.506350
21
282.176150
0
LINE
8
Calque 1
10
481.506350
20
282.176150
11
486.828800
21
283.183570
0
LINE
8
Calque 1
10
486.828800
20
283.183570
11
490.003800
21
283.641580
0
LINE
8
Calque 1
10
490.003800
20
283.641580
11
490.445230
21
285.475040
0
LINE
8
Calque 1
10
490.445230
20
285.475040
11
490.908250
21
287.757680
0
LINE
8
Calque 1
10
490.908250
20
287.757680
11
490.859616
21
287.981276
0
LINE
8
Calque 1
10
490.859616
20
287.981276
11
490.658072
21
288.131716
0
LINE
8
Calque 1
10
490.658072
20
288.131716
11
489.616300
21
288.286850
0
LINE
8
Calque 1
10
489.616300
20
288.286850
11
488.302760
21
288.366850
0
LINE
8
Calque 1
10
488.302760
20
288.366850
11
491.428380
21
295.793880
0
LINE
8
Calque 1
10
491.428380
20
295.793880
11
495.026820
21
304.458990
0
LINE
8
Calque 1
10
495.026820
20
304.458990
11
495.662140
21
305.695580
0
LINE
8
Calque 1
10
495.662140
20
305.695580
11
497.058500
21
302.586730
0
LINE
8
Calque 1
10
497.058500
20
302.586730
11
500.670810
21
293.856960
0
LINE
8
Calque 1
10
500.670810
20
293.856960
11
503.049250
21
288.234560
0
LINE
8
Calque 1
10
503.049250
20
288.234560
11
501.752000
21
288.235000
0
LINE
8
Calque 1
10
501.752000
20
288.235000
11
500.678933
21
288.141165
0
LINE
8
Calque 1
10
500.678933
20
288.141165
11
500.498306
21
287.976694
0
LINE
8
Calque 1
10
500.498306
20
287.976694
11
500.454790
21
287.691920
0
LINE
8
Calque 1
10
500.454790
20
287.691920
11
500.865460
21
285.343290
0
LINE
8
Calque 1
10
500.865460
20
285.343290
11
501.276120
21
283.537730
0
LINE
8
Calque 1
10
501.276120
20
283.537730
11
502.915980
21
283.359050
0
LINE
8
Calque 1
10
502.915980
20
283.359050
11
507.730830
21
282.543500
0
LINE
8
Calque 1
10
507.730830
20
282.543500
11
510.818149
21
281.813613
0
LINE
8
Calque 1
10
510.818149
20
281.813613
11
513.782340
21
280.953090
0
LINE
8
Calque 1
10
513.782340
20
280.953090
11
519.250240
21
278.850570
0
LINE
8
Calque 1
10
519.250240
20
278.850570
11
524.675470
21
276.045230
0
LINE
8
Calque 1
10
524.675470
20
276.045230
11
527.485627
21
274.266539
0
LINE
8
Calque 1
10
527.485627
20
274.266539
11
530.262530
21
272.316090
0
LINE
8
Calque 1
10
530.262530
20
272.316090
11
533.134780
21
270.243330
0
LINE
8
Calque 1
10
533.134780
20
270.243330
11
535.044400
21
271.332950
0
LINE
8
Calque 1
10
535.044400
20
271.332950
11
536.950730
21
272.529060
0
LINE
8
Calque 1
10
536.950730
20
272.529060
11
536.156980
21
273.402060
0
LINE
8
Calque 1
10
536.156980
20
273.402060
11
535.543838
21
274.040231
0
LINE
8
Calque 1
10
535.543838
20
274.040231
11
535.512080
21
274.426620
0
LINE
8
Calque 1
10
535.512080
20
274.426620
11
539.216250
21
276.140370
0
LINE
8
Calque 1
10
539.216250
20
276.140370
11
547.516940
21
279.752160
0
LINE
8
Calque 1
10
547.516940
20
279.752160
11
552.509950
21
281.776370
0
LINE
8
Calque 1
10
552.509950
20
281.776370
11
549.170190
21
273.565230
0
LINE
8
Calque 1
10
549.170190
20
273.565230
11
545.694490
21
265.284960
0
LINE
8
Calque 1
10
545.694490
20
265.284960
11
545.441450
21
264.690140
0
LINE
8
Calque 1
10
545.441450
20
264.690140
11
545.278437
21
264.526619
0
LINE
8
Calque 1
10
545.278437
20
264.526619
11
545.063111
21
264.541685
0
LINE
8
Calque 1
10
545.063111
20
264.541685
11
544.258840
21
265.201220
0
LINE
8
Calque 1
10
544.258840
20
265.201220
11
543.227930
21
265.991920
0
LINE
8
Calque 1
10
543.227930
20
265.991920
11
542.013260
21
263.945090
0
LINE
8
Calque 1
10
542.013260
20
263.945090
11
540.895890
21
262.012460
0
LINE
8
Calque 1
10
540.895890
20
262.012460
11
541.803170
21
260.902380
0
LINE
8
Calque 1
10
541.803170
20
260.902380
11
544.494490
21
257.146460
0
LINE
8
Calque 1
10
544.494490
20
257.146460
11
546.211654
21
254.345185
0
LINE
8
Calque 1
10
546.211654
20
254.345185
11
547.834910
21
251.325630
0
LINE
8
Calque 1
10
547.834910
20
251.325630
11
550.318750
21
245.569660
0
LINE
8
Calque 1
10
550.318750
20
245.569660
11
551.935040
21
240.277990
0
LINE
8
Calque 1
10
551.935040
20
240.277990
11
553.078740
21
234.392290
0
LINE
8
Calque 1
10
553.078740
20
234.392290
11
553.533620
21
231.217290
0
LINE
8
Calque 1
10
553.533620
20
231.217290
11
555.767640
21
230.670230
0
LINE
8
Calque 1
10
555.767640
20
230.670230
11
558.001670
21
230.123170
0
LINE
8
Calque 1
10
558.001670
20
230.123170
11
558.081670
21
231.553100
0
LINE
8
Calque 1
10
558.081670
20
231.553100
11
558.219330
21
232.604991
0
LINE
8
Calque 1
10
558.219330
20
232.604991
11
558.332748
21
232.828550
0
LINE
8
Calque 1
10
558.332748
20
232.828550
11
558.478550
21
232.859250
0
LINE
8
Calque 1
10
558.478550
20
232.859250
11
566.802250
21
229.214710
0
LINE
8
Calque 1
10
566.802250
20
229.214710
11
572.397868
21
226.669789
0
LINE
8
Calque 1
10
572.397868
20
226.669789
11
574.607460
21
225.495200
0
LINE
8
Calque 1
10
574.607460
20
225.495200
11
566.799710
21
221.991060
0
LINE
8
Calque 1
10
566.799710
20
221.991060
11
558.663770
21
218.517510
0
LINE
8
Calque 1
10
558.663770
20
218.517510
11
558.377432
21
218.464433
0
LINE
8
Calque 1
10
558.377432
20
218.464433
11
558.217916
21
218.588543
0
LINE
8
Calque 1
10
558.217916
20
218.588543
11
558.133930
21
219.690090
0
LINE
8
Calque 1
10
558.133930
20
219.690090
11
558.048585
21
220.736911
0
LINE
8
Calque 1
10
558.048585
20
220.736911
11
557.928409
21
220.962509
0
LINE
8
Calque 1
10
557.928409
20
220.962509
11
557.744570
21
221.030830
0
LINE
8
Calque 1
10
557.744570
20
221.030830
11
555.396420
21
220.600420
0
LINE
8
Calque 1
10
555.396420
20
220.600420
11
553.437630
21
220.170010
0
LINE
8
Calque 1
10
553.437630
20
220.170010
11
553.259460
21
218.430990
0
LINE
8
Calque 1
10
553.259460
20
218.430990
11
552.542620
21
213.900470
0
LINE
8
Calque 1
10
552.542620
20
213.900470
11
551.829285
21
210.917324
0
LINE
8
Calque 1
10
551.829285
20
210.917324
11
550.870700
21
207.665070
0
LINE
8
Calque 1
10
550.870700
20
207.665070
11
549.676261
21
204.397358
0
LINE
8
Calque 1
10
549.676261
20
204.397358
11
548.395880
21
201.377040
0
LINE
8
Calque 1
10
548.395880
20
201.377040
11
545.520810
21
195.963020
0
LINE
8
Calque 1
10
545.520810
20
195.963020
11
542.489810
21
191.373470
0
LINE
8
Calque 1
10
542.489810
20
191.373470
11
540.992310
21
189.353790
0
LINE
8
Calque 1
10
540.992310
20
189.353790
11
542.047550
21
187.531340
0
LINE
8
Calque 1
10
542.047550
20
187.531340
11
543.213990
21
185.594740
0
LINE
8
Calque 1
10
543.213990
20
185.594740
11
544.243300
21
186.370340
0
LINE
8
Calque 1
10
544.243300
20
186.370340
11
545.268710
21
187.146040
0
LINE
8
Calque 1
10
545.268710
20
187.146040
11
546.719680
21
183.718940
0
LINE
8
Calque 1
10
546.719680
20
183.718940
11
550.289270
21
175.252240
0
LINE
8
Calque 1
10
550.289270
20
175.252240
11
552.427010
21
170.001140
0
LINE
8
Calque 1
10
552.427010
20
170.001140
11
544.057730
21
173.421440
0
LINE
8
Calque 1
10
544.057730
20
173.421440
11
535.525800
21
177.156340
0
LINE
8
Calque 1
10
535.525800
20
177.156340
11
535.585891
21
177.562515
0
LINE
8
Calque 1
10
535.585891
20
177.562515
11
536.146780
21
178.273040
0
LINE
8
Calque 1
10
536.146780
20
178.273040
11
537.018600
21
179.172540
0
LINE
8
Calque 1
10
537.018600
20
179.172540
11
535.191600
21
180.257940
0
LINE
8
Calque 1
10
535.191600
20
180.257940
11
533.158680
21
181.343340
0
LINE
8
Calque 1
10
533.158680
20
181.343340
11
530.330530
21
179.368040
0
LINE
8
Calque 1
10
530.330530
20
179.368040
11
525.180920
21
175.905240
0
LINE
8
Calque 1
10
525.180920
20
175.905240
11
520.351540
21
173.350640
0
LINE
8
Calque 1
10
520.351540
20
173.350640
11
515.600880
21
171.393740
0
LINE
8
Calque 1
10
515.600880
20
171.393740
11
510.441500
21
169.815140
0
LINE
8
Calque 1
10
510.441500
20
169.815140
11
504.555800
21
168.667940
0
LINE
8
Calque 1
10
504.555800
20
168.667940
11
501.380800
21
168.209440
0
LINE
8
Calque 1
10
501.380800
20
168.209440
11
500.959730
21
166.640440
0
LINE
8
Calque 1
10
500.959730
20
166.640440
11
500.359370
21
164.343840
0
LINE
8
Calque 1
10
500.359370
20
164.343840
11
500.278886
21
163.926023
0
LINE
8
Calque 1
10
500.278886
20
163.926023
11
500.373692
21
163.709703
0
LINE
8
Calque 1
10
500.373692
20
163.709703
11
501.508050
21
163.616240
0
LINE
8
Calque 1
10
501.508050
20
163.616240
11
502.836010
21
163.456640
0
LINE
8
Calque 1
10
502.836010
20
163.456640
11
499.360870
21
155.188440
0
LINE
8
Calque 1
10
499.360870
20
155.188440
11
495.722840
21
146.903640
0
LINE
8
Calque 1
10
495.722840
20
146.903640
11
494.576141
21
149.201465
0
LINE
8
Calque 1
10
494.576141
20
149.201465
11
492.047920
21
154.973440
0
LINE
8
Calque 1
10
492.047920
20
154.973440
11
492.048000
21
154.973000
0
LINE
8
Calque 1
10
500.728380
20
174.477300
11
505.896320
21
175.261100
0
LINE
8
Calque 1
10
505.896320
20
175.261100
11
511.708550
21
176.858200
0
LINE
8
Calque 1
10
511.708550
20
176.858200
11
515.060715
21
178.121063
0
LINE
8
Calque 1
10
515.060715
20
178.121063
11
518.408740
21
179.624600
0
LINE
8
Calque 1
10
518.408740
20
179.624600
11
523.845180
21
182.665400
0
LINE
8
Calque 1
10
523.845180
20
182.665400
11
527.793090
21
185.512700
0
LINE
8
Calque 1
10
527.793090
20
185.512700
11
531.499790
21
188.732500
0
LINE
8
Calque 1
10
531.499790
20
188.732500
11
535.338500
21
192.852240
0
LINE
8
Calque 1
10
535.338500
20
192.852240
11
538.831600
21
197.523640
0
LINE
8
Calque 1
10
538.831600
20
197.523640
11
541.822500
21
202.719630
0
LINE
8
Calque 1
10
541.822500
20
202.719630
11
544.126620
21
207.837810
0
LINE
8
Calque 1
10
544.126620
20
207.837810
11
545.715460
21
213.033380
0
LINE
8
Calque 1
10
545.715460
20
213.033380
11
546.377476
21
216.036106
0
LINE
8
Calque 1
10
546.377476
20
216.036106
11
546.886320
21
219.066200
0
LINE
8
Calque 1
10
546.886320
20
219.066200
11
547.168660
21
222.300117
0
LINE
8
Calque 1
10
547.168660
20
222.300117
11
547.286090
21
225.792860
0
LINE
8
Calque 1
10
547.286090
20
225.792860
11
547.168660
21
229.285610
0
LINE
8
Calque 1
10
547.168660
20
229.285610
11
546.886320
21
232.519520
0
LINE
8
Calque 1
10
546.886320
20
232.519520
11
546.373474
21
235.567319
0
LINE
8
Calque 1
10
546.373474
20
235.567319
11
545.701830
21
238.612590
0
LINE
8
Calque 1
10
545.701830
20
238.612590
11
544.020480
21
243.977720
0
LINE
8
Calque 1
10
544.020480
20
243.977720
11
541.866220
21
248.812270
0
LINE
8
Calque 1
10
541.866220
20
248.812270
11
539.151070
21
253.574110
0
LINE
8
Calque 1
10
539.151070
20
253.574110
11
536.349660
21
257.542860
0
LINE
8
Calque 1
10
536.349660
20
257.542860
11
532.613120
21
261.734220
0
LINE
8
Calque 1
10
532.613120
20
261.734220
11
530.262679
21
264.006865
0
LINE
8
Calque 1
10
530.262679
20
264.006865
11
527.971510
21
266.000180
0
LINE
8
Calque 1
10
527.971510
20
266.000180
11
523.473590
21
269.251840
0
LINE
8
Calque 1
10
523.473590
20
269.251840
11
518.727440
21
271.958850
0
LINE
8
Calque 1
10
518.727440
20
271.958850
11
513.832650
21
274.126200
0
LINE
8
Calque 1
10
513.832650
20
274.126200
11
508.451820
21
275.815440
0
LINE
8
Calque 1
10
508.451820
20
275.815440
11
505.449101
21
276.477844
0
LINE
8
Calque 1
10
505.449101
20
276.477844
11
502.419000
21
276.986850
0
LINE
8
Calque 1
10
502.419000
20
276.986850
11
499.146226
21
277.269186
0
LINE
8
Calque 1
10
499.146226
20
277.269186
11
495.560050
21
277.386620
0
LINE
8
Calque 1
10
495.560050
20
277.386620
11
491.991344
21
277.270275
0
LINE
8
Calque 1
10
491.991344
20
277.270275
11
488.760580
21
276.990550
0
LINE
8
Calque 1
10
488.760580
20
276.990550
11
485.759850
21
276.476342
0
LINE
8
Calque 1
10
485.759850
20
276.476342
11
482.744210
21
275.796220
0
LINE
8
Calque 1
10
482.744210
20
275.796220
11
479.708292
21
274.875541
0
LINE
8
Calque 1
10
479.708292
20
274.875541
11
476.658800
21
273.782970
0
LINE
8
Calque 1
10
476.658800
20
273.782970
11
471.615260
21
271.490910
0
LINE
8
Calque 1
10
471.615260
20
271.490910
11
467.325380
21
268.872760
0
LINE
8
Calque 1
10
467.325380
20
268.872760
11
462.695170
21
265.388680
0
LINE
8
Calque 1
10
462.695170
20
265.388680
11
458.202730
21
261.177630
0
LINE
8
Calque 1
10
458.202730
20
261.177630
11
456.089566
21
258.793546
0
LINE
8
Calque 1
10
456.089566
20
258.793546
11
454.053030
21
256.246480
0
LINE
8
Calque 1
10
454.053030
20
256.246480
11
452.222309
21
253.597797
0
LINE
8
Calque 1
10
452.222309
20
253.597797
11
450.603950
21
250.969380
0
LINE
8
Calque 1
10
450.603950
20
250.969380
11
448.246350
21
246.268400
0
LINE
8
Calque 1
10
448.246350
20
246.268400
11
446.664920
21
242.064740
0
LINE
8
Calque 1
10
446.664920
20
242.064740
11
445.449220
21
237.831410
0
LINE
8
Calque 1
10
445.449220
20
237.831410
11
444.511530
21
232.902660
0
LINE
8
Calque 1
10
444.511530
20
232.902660
11
444.214384
21
229.669421
0
LINE
8
Calque 1
10
444.214384
20
229.669421
11
444.103440
21
225.758910
0
LINE
8
Calque 1
10
444.103440
20
225.758910
11
444.221689
21
221.892684
0
LINE
8
Calque 1
10
444.221689
20
221.892684
11
444.498750
21
218.680060
0
LINE
8
Calque 1
10
444.498750
20
218.680060
11
445.402460
21
213.785270
0
LINE
8
Calque 1
10
445.402460
20
213.785270
11
446.881710
21
208.859530
0
LINE
8
Calque 1
10
446.881710
20
208.859530
11
447.991224
21
206.029145
0
LINE
8
Calque 1
10
447.991224
20
206.029145
11
449.302270
21
203.125380
0
LINE
8
Calque 1
10
449.302270
20
203.125380
11
450.825757
21
200.290336
0
LINE
8
Calque 1
10
450.825757
20
200.290336
11
452.446040
21
197.625190
0
LINE
8
Calque 1
10
452.446040
20
197.625190
11
455.698410
21
193.172880
0
LINE
8
Calque 1
10
455.698410
20
193.172880
11
459.742060
21
188.871100
0
LINE
8
Calque 1
10
459.742060
20
188.871100
11
462.232257
21
186.629325
0
LINE
8
Calque 1
10
462.232257
20
186.629325
11
464.736090
21
184.601000
0
LINE
8
Calque 1
10
464.736090
20
184.601000
11
467.288495
21
182.829775
0
LINE
8
Calque 1
10
467.288495
20
182.829775
11
469.895470
21
181.206300
0
LINE
8
Calque 1
10
469.895470
20
181.206300
11
474.819620
21
178.684800
0
LINE
8
Calque 1
10
474.819620
20
178.684800
11
479.449830
21
176.894000
0
LINE
8
Calque 1
10
479.449830
20
176.894000
11
484.844430
21
175.428400
0
LINE
8
Calque 1
10
484.844430
20
175.428400
11
490.268380
21
174.510400
0
LINE
8
Calque 1
10
490.268380
20
174.510400
11
495.333580
21
174.234800
0
LINE
8
Calque 1
10
495.333580
20
174.234800
11
500.728380
21
174.477300
0
LINE
8
Calque 1
10
500.728380
20
174.477300
11
500.728380
21
174.477300
0
LINE
8
Calque 1
10
490.268380
20
180.996200
11
486.717340
21
181.643800
0
LINE
8
Calque 1
10
486.717340
20
181.643800
11
483.870081
21
182.337975
0
LINE
8
Calque 1
10
483.870081
20
182.337975
11
480.896500
21
183.242600
0
LINE
8
Calque 1
10
480.896500
20
183.242600
11
475.598040
21
185.386700
0
LINE
8
Calque 1
10
475.598040
20
185.386700
11
470.967830
21
188.046400
0
LINE
8
Calque 1
10
470.967830
20
188.046400
11
466.543810
21
191.305120
0
LINE
8
Calque 1
10
466.543810
20
191.305120
11
462.657990
21
194.982400
0
LINE
8
Calque 1
10
462.657990
20
194.982400
11
459.372640
21
198.880340
0
LINE
8
Calque 1
10
459.372640
20
198.880340
11
456.698240
21
202.855160
0
LINE
8
Calque 1
10
456.698240
20
202.855160
11
454.437250
21
207.226800
0
LINE
8
Calque 1
10
454.437250
20
207.226800
11
452.620260
21
212.040540
0
LINE
8
Calque 1
10
452.620260
20
212.040540
11
451.411930
21
216.532450
0
LINE
8
Calque 1
10
451.411930
20
216.532450
11
450.727160
21
220.758840
0
LINE
8
Calque 1
10
450.727160
20
220.758840
11
450.448590
21
225.975260
0
LINE
8
Calque 1
10
450.448590
20
225.975260
11
450.569159
21
228.940381
0
LINE
8
Calque 1
10
450.569159
20
228.940381
11
450.859040
21
231.892460
0
LINE
8
Calque 1
10
450.859040
20
231.892460
11
451.900010
21
237.259370
0
LINE
8
Calque 1
10
451.900010
20
237.259370
11
453.358640
21
241.850160
0
LINE
8
Calque 1
10
453.358640
20
241.850160
11
455.373570
21
246.342730
0
LINE
8
Calque 1
10
455.373570
20
246.342730
11
458.316310
21
251.306230
0
LINE
8
Calque 1
10
458.316310
20
251.306230
11
460.404499
21
254.053266
0
LINE
8
Calque 1
10
460.404499
20
254.053266
11
462.999470
21
256.967230
0
LINE
8
Calque 1
10
462.999470
20
256.967230
11
465.859291
21
259.695086
0
LINE
8
Calque 1
10
465.859291
20
259.695086
11
468.624440
21
262.007900
0
LINE
8
Calque 1
10
468.624440
20
262.007900
11
473.539280
21
265.285600
0
LINE
8
Calque 1
10
473.539280
20
265.285600
11
478.353160
21
267.606680
0
LINE
8
Calque 1
10
478.353160
20
267.606680
11
483.227910
21
269.316130
0
LINE
8
Calque 1
10
483.227910
20
269.316130
11
487.887130
21
270.378620
0
LINE
8
Calque 1
10
487.887130
20
270.378620
11
493.707970
21
270.948620
0
LINE
8
Calque 1
10
493.707970
20
270.948620
11
496.999044
21
270.973096
0
LINE
8
Calque 1
10
496.999044
20
270.973096
11
500.057970
21
270.791330
0
LINE
8
Calque 1
10
500.057970
20
270.791330
11
504.952760
21
270.077700
0
LINE
8
Calque 1
10
504.952760
20
270.077700
11
509.715260
21
268.756580
0
LINE
8
Calque 1
10
509.715260
20
268.756580
11
512.467730
21
267.729019
0
LINE
8
Calque 1
10
512.467730
20
267.729019
11
515.184170
21
266.551990
0
LINE
8
Calque 1
10
515.184170
20
266.551990
11
517.856161
21
265.136751
0
LINE
8
Calque 1
10
517.856161
20
265.136751
11
520.501760
21
263.536480
0
LINE
8
Calque 1
10
520.501760
20
263.536480
11
523.047819
21
261.703149
0
LINE
8
Calque 1
10
523.047819
20
261.703149
11
525.480470
21
259.727580
0
LINE
8
Calque 1
10
525.480470
20
259.727580
11
527.678860
21
257.642610
0
LINE
8
Calque 1
10
527.678860
20
257.642610
11
529.661670
21
255.546270
0
LINE
8
Calque 1
10
529.661670
20
255.546270
11
531.494244
21
253.243930
0
LINE
8
Calque 1
10
531.494244
20
253.243930
11
533.331430
21
250.663700
0
LINE
8
Calque 1
10
533.331430
20
250.663700
11
535.004831
21
247.924435
0
LINE
8
Calque 1
10
535.004831
20
247.924435
11
536.443640
21
245.239740
0
LINE
8
Calque 1
10
536.443640
20
245.239740
11
537.619891
21
242.526768
0
LINE
8
Calque 1
10
537.619891
20
242.526768
11
538.662050
21
239.719520
0
LINE
8
Calque 1
10
538.662050
20
239.719520
11
540.201390
21
233.898690
0
LINE
8
Calque 1
10
540.201390
20
233.898690
11
540.682549
21
230.535850
0
LINE
8
Calque 1
10
540.682549
20
230.535850
11
540.794070
21
225.792860
0
LINE
8
Calque 1
10
540.794070
20
225.792860
11
540.681760
21
221.036151
0
LINE
8
Calque 1
10
540.681760
20
221.036151
11
540.191390
21
217.634760
0
LINE
8
Calque 1
10
540.191390
20
217.634760
11
538.678200
21
211.856480
0
LINE
8
Calque 1
10
538.678200
20
211.856480
11
537.650216
21
209.095380
0
LINE
8
Calque 1
10
537.650216
20
209.095380
11
536.457270
21
206.360170
0
LINE
8
Calque 1
10
536.457270
20
206.360170
11
534.988125
21
203.633718
0
LINE
8
Calque 1
10
534.988125
20
203.633718
11
533.296080
21
200.893660
0
LINE
8
Calque 1
10
533.296080
20
200.893660
11
531.406936
21
198.282726
0
LINE
8
Calque 1
10
531.406936
20
198.282726
11
529.463920
21
195.866740
0
LINE
8
Calque 1
10
529.463920
20
195.866740
11
527.339736
21
193.650174
0
LINE
8
Calque 1
10
527.339736
20
193.650174
11
525.015040
21
191.518710
0
LINE
8
Calque 1
10
525.015040
20
191.518710
11
520.430880
21
188.072800
0
LINE
8
Calque 1
10
520.430880
20
188.072800
11
516.133460
21
185.605900
0
LINE
8
Calque 1
10
516.133460
20
185.605900
11
512.032420
21
183.758000
0
LINE
8
Calque 1
10
512.032420
20
183.758000
11
507.446870
21
182.305300
0
LINE
8
Calque 1
10
507.446870
20
182.305300
11
502.155210
21
181.212700
0
LINE
8
Calque 1
10
502.155210
20
181.212700
11
499.096800
21
180.933488
0
LINE
8
Calque 1
10
499.096800
20
180.933488
11
495.295470
21
180.854900
0
LINE
8
Calque 1
10
495.295470
20
180.854900
11
490.268380
21
180.996200
0
LINE
8
Calque 1
10
490.268380
20
180.996200
11
490.268380
21
180.996200
0
LINE
8
Calque 1
10
504.205880
20
184.227700
11
509.189390
21
185.577300
0
LINE
8
Calque 1
10
509.189390
20
185.577300
11
514.077210
21
187.552100
0
LINE
8
Calque 1
10
514.077210
20
187.552100
11
516.653180
21
188.946055
0
LINE
8
Calque 1
10
516.653180
20
188.946055
11
519.385390
21
190.636380
0
LINE
8
Calque 1
10
519.385390
20
190.636380
11
522.205485
21
192.758708
0
LINE
8
Calque 1
10
522.205485
20
192.758708
11
524.991950
21
195.199110
0
LINE
8
Calque 1
10
524.991950
20
195.199110
11
527.466807
21
197.780948
0
LINE
8
Calque 1
10
527.466807
20
197.780948
11
529.536890
21
200.251140
0
LINE
8
Calque 1
10
529.536890
20
200.251140
11
532.301500
21
204.281290
0
LINE
8
Calque 1
10
532.301500
20
204.281290
11
534.293550
21
208.117750
0
LINE
8
Calque 1
10
534.293550
20
208.117750
11
535.996610
21
212.431400
0
LINE
8
Calque 1
10
535.996610
20
212.431400
11
537.221900
21
216.796900
0
LINE
8
Calque 1
10
537.221900
20
216.796900
11
537.687915
21
219.377308
0
LINE
8
Calque 1
10
537.687915
20
219.377308
11
538.061950
21
222.423330
0
LINE
8
Calque 1
10
538.061950
20
222.423330
11
538.238000
21
225.776604
0
LINE
8
Calque 1
10
538.238000
20
225.776604
11
538.069950
21
229.066750
0
LINE
8
Calque 1
10
538.069950
20
229.066750
11
537.364390
21
234.288240
0
LINE
8
Calque 1
10
537.364390
20
234.288240
11
536.145430
21
238.757450
0
LINE
8
Calque 1
10
536.145430
20
238.757450
11
534.208220
21
243.652240
0
LINE
8
Calque 1
10
534.208220
20
243.652240
11
531.949130
21
247.880020
0
LINE
8
Calque 1
10
531.949130
20
247.880020
11
529.224270
21
251.814090
0
LINE
8
Calque 1
10
529.224270
20
251.814090
11
525.620490
21
255.931710
0
LINE
8
Calque 1
10
525.620490
20
255.931710
11
523.575862
21
257.831772
0
LINE
8
Calque 1
10
523.575862
20
257.831772
11
521.489160
21
259.549270
0
LINE
8
Calque 1
10
521.489160
20
259.549270
11
518.049570
21
261.970090
0
LINE
8
Calque 1
10
518.049570
20
261.970090
11
513.683950
21
264.258550
0
LINE
8
Calque 1
10
513.683950
20
264.258550
11
510.757821
21
265.515161
0
LINE
8
Calque 1
10
510.757821
20
265.515161
11
507.995410
21
266.492990
0
LINE
8
Calque 1
10
507.995410
20
266.492990
11
502.836030
21
267.693350
0
LINE
8
Calque 1
10
502.836030
20
267.693350
11
497.544370
21
268.282770
0
LINE
8
Calque 1
10
497.544370
20
268.282770
11
494.689514
21
268.313947
0
LINE
8
Calque 1
10
494.689514
20
268.313947
11
491.723530
21
268.146390
0
LINE
8
Calque 1
10
491.723530
20
268.146390
11
486.431870
21
267.316820
0
LINE
8
Calque 1
10
486.431870
20
267.316820
11
482.066240
21
266.111400
0
LINE
8
Calque 1
10
482.066240
20
266.111400
11
479.638685
21
265.170466
0
LINE
8
Calque 1
10
479.638685
20
265.170466
11
476.774570
21
263.863930
0
LINE
8
Calque 1
10
476.774570
20
263.863930
11
473.832735
21
262.255805
0
LINE
8
Calque 1
10
473.832735
20
262.255805
11
471.218320
21
260.589780
0
LINE
8
Calque 1
10
471.218320
20
260.589780
11
466.662570
21
256.879150
0
LINE
8
Calque 1
10
466.662570
20
256.879150
11
464.669436
21
254.903909
0
LINE
8
Calque 1
10
464.669436
20
254.903909
11
462.930980
21
252.968170
0
LINE
8
Calque 1
10
462.930980
20
252.968170
11
460.128830
21
249.208490
0
LINE
8
Calque 1
10
460.128830
20
249.208490
11
457.594240
21
244.788060
0
LINE
8
Calque 1
10
457.594240
20
244.788060
11
456.373075
21
242.018750
0
LINE
8
Calque 1
10
456.373075
20
242.018750
11
455.247910
21
238.967230
0
LINE
8
Calque 1
10
455.247910
20
238.967230
11
454.378262
21
235.970667
0
LINE
8
Calque 1
10
454.378262
20
235.970667
11
453.771400
21
233.333490
0
LINE
8
Calque 1
10
453.771400
20
233.333490
11
453.188480
21
227.777240
0
LINE
8
Calque 1
10
453.188480
20
227.777240
11
453.157644
21
224.731316
0
LINE
8
Calque 1
10
453.157644
20
224.731316
11
453.324590
21
221.878240
0
LINE
8
Calque 1
10
453.324590
20
221.878240
11
454.043900
21
217.115740
0
LINE
8
Calque 1
10
454.043900
20
217.115740
11
455.265720
21
212.563700
0
LINE
8
Calque 1
10
455.265720
20
212.563700
11
457.212970
21
207.593650
0
LINE
8
Calque 1
10
457.212970
20
207.593650
11
458.519245
21
205.103641
0
LINE
8
Calque 1
10
458.519245
20
205.103641
11
460.051360
21
202.566570
0
LINE
8
Calque 1
10
460.051360
20
202.566570
11
461.785760
21
200.131528
0
LINE
8
Calque 1
10
461.785760
20
200.131528
11
463.578390
21
197.886820
0
LINE
8
Calque 1
10
463.578390
20
197.886820
11
465.493295
21
195.858624
0
LINE
8
Calque 1
10
465.493295
20
195.858624
11
467.521660
21
193.944120
0
LINE
8
Calque 1
10
467.521660
20
193.944120
11
469.710750
21
192.186502
0
LINE
8
Calque 1
10
469.710750
20
192.186502
11
472.012070
21
190.535490
0
LINE
8
Calque 1
10
472.012070
20
190.535490
11
476.642280
21
187.828200
0
LINE
8
Calque 1
10
476.642280
20
187.828200
11
481.140200
21
185.906300
0
LINE
8
Calque 1
10
481.140200
20
185.906300
11
485.241240
21
184.649600
0
LINE
8
Calque 1
10
485.241240
20
184.649600
11
489.209990
21
183.832300
0
LINE
8
Calque 1
10
489.209990
20
183.832300
11
492.082346
21
183.592325
0
LINE
8
Calque 1
10
492.082346
20
183.592325
11
496.486030
21
183.576000
0
LINE
8
Calque 1
10
496.486030
20
183.576000
11
501.099610
21
183.767487
0
LINE
8
Calque 1
10
501.099610
20
183.767487
11
504.205810
21
184.227700
0
LINE
8
Calque 1
10
504.205810
20
184.227700
11
504.205880
21
184.227700
0
LINE
8
Calque 1
10
493.044780
20
193.760910
11
491.589570
21
194.377050
0
LINE
8
Calque 1
10
491.589570
20
194.377050
11
489.967250
21
195.673930
0
LINE
8
Calque 1
10
489.967250
20
195.673930
11
488.675670
21
197.470490
0
LINE
8
Calque 1
10
488.675670
20
197.470490
11
488.311764
21
198.590734
0
LINE
8
Calque 1
10
488.311764
20
198.590734
11
488.084650
21
200.000470
0
LINE
8
Calque 1
10
488.084650
20
200.000470
11
488.147073
21
201.799365
0
LINE
8
Calque 1
10
488.147073
20
201.799365
11
488.888500
21
204.245750
0
LINE
8
Calque 1
10
488.888500
20
204.245750
11
492.373590
21
213.622030
0
LINE
8
Calque 1
10
492.373590
20
213.622030
11
495.116900
21
220.560730
0
LINE
8
Calque 1
10
495.116900
20
220.560730
11
495.589681
21
219.784928
0
LINE
8
Calque 1
10
495.589681
20
219.784928
11
496.457060
21
217.650320
0
LINE
8
Calque 1
10
496.457060
20
217.650320
11
499.724950
21
209.154570
0
LINE
8
Calque 1
10
499.724950
20
209.154570
11
502.204840
21
202.407700
0
LINE
8
Calque 1
10
502.204840
20
202.407700
11
502.568350
21
200.357100
0
LINE
8
Calque 1
10
502.568350
20
200.357100
11
502.115910
21
198.240430
0
LINE
8
Calque 1
10
502.115910
20
198.240430
11
501.476426
21
196.871599
0
LINE
8
Calque 1
10
501.476426
20
196.871599
11
500.452950
21
195.608450
0
LINE
8
Calque 1
10
500.452950
20
195.608450
11
499.222463
21
194.600370
0
LINE
8
Calque 1
10
499.222463
20
194.600370
11
497.950980
21
193.954810
0
LINE
8
Calque 1
10
497.950980
20
193.954810
11
496.603625
21
193.649955
0
LINE
8
Calque 1
10
496.603625
20
193.649955
11
495.182170
21
193.536440
0
LINE
8
Calque 1
10
495.182170
20
193.536440
11
493.044780
21
193.760910
0
LINE
8
Calque 1
10
493.044780
20
193.760910
11
493.044780
21
193.760910
0
LINE
8
Calque 1
10
496.221490
20
195.894950
11
496.078174
21
196.301269
0
LINE
8
Calque 1
10
496.078174
20
196.301269
11
495.604130
21
196.424110
0
LINE
8
Calque 1
10
495.604130
20
196.424110
11
494.828610
21
196.265950
0
LINE
8
Calque 1
10
494.828610
20
196.265950
11
494.812810
21
195.736790
0
LINE
8
Calque 1
10
494.812810
20
195.736790
11
495.099346
21
195.474762
0
LINE
8
Calque 1
10
495.099346
20
195.474762
11
495.588330
21
195.365780
0
LINE
8
Calque 1
10
495.588330
20
195.365780
11
496.076190
21
195.487209
0
LINE
8
Calque 1
10
496.076190
20
195.487209
11
496.221480
21
195.894950
0
LINE
8
Calque 1
10
496.221480
20
195.894950
11
496.221490
21
195.894950
0
LINE
8
Calque 1
10
493.779500
20
196.171830
11
493.499368
21
196.695949
0
LINE
8
Calque 1
10
493.499368
20
196.695949
11
492.685910
21
197.400480
0
LINE
8
Calque 1
10
492.685910
20
197.400480
11
491.652046
21
198.351640
0
LINE
8
Calque 1
10
491.652046
20
198.351640
11
490.987160
21
199.640180
0
LINE
8
Calque 1
10
490.987160
20
199.640180
11
490.509846
21
200.638918
0
LINE
8
Calque 1
10
490.509846
20
200.638918
11
490.103040
21
201.054320
0
LINE
8
Calque 1
10
490.103040
20
201.054320
11
489.826125
21
200.924163
0
LINE
8
Calque 1
10
489.826125
20
200.924163
11
489.661110
21
200.611230
0
LINE
8
Calque 1
10
489.661110
20
200.611230
11
489.856820
21
199.124410
0
LINE
8
Calque 1
10
489.856820
20
199.124410
11
490.223025
21
198.174069
0
LINE
8
Calque 1
10
490.223025
20
198.174069
11
490.708810
21
197.354850
0
LINE
8
Calque 1
10
490.708810
20
197.354850
11
492.096980
21
196.126900
0
LINE
8
Calque 1
10
492.096980
20
196.126900
11
492.789828
21
195.793431
0
LINE
8
Calque 1
10
492.789828
20
195.793431
11
493.308030
21
195.696760
0
LINE
8
Calque 1
10
493.308030
20
195.696760
11
493.608981
21
195.866004
0
LINE
8
Calque 1
10
493.608981
20
195.866004
11
493.779500
21
196.171830
0
LINE
8
Calque 1
10
493.779500
20
196.171830
11
493.779500
21
196.171830
0
LINE
8
Calque 1
10
490.929820
20
204.200520
11
490.863671
21
204.738415
0
LINE
8
Calque 1
10
490.863671
20
204.738415
11
490.655630
21
204.722420
0
LINE
8
Calque 1
10
490.655630
20
204.722420
11
490.240130
21
203.412730
0
LINE
8
Calque 1
10
490.240130
20
203.412730
11
490.180793
21
202.605300
0
LINE
8
Calque 1
10
490.180793
20
202.605300
11
490.514320
21
202.890830
0
LINE
8
Calque 1
10
490.514320
20
202.890830
11
490.807765
21
203.487404
0
LINE
8
Calque 1
10
490.807765
20
203.487404
11
490.929820
21
204.200520
0
LINE
8
Calque 1
10
490.929820
20
204.200520
11
490.929820
21
204.200520
0
LINE
8
Calque 1
10
481.404820
20
208.997080
11
482.049280
21
210.155520
0
LINE
8
Calque 1
10
482.049280
20
210.155520
11
483.107610
21
212.166950
0
LINE
8
Calque 1
10
483.107610
20
212.166950
11
483.521490
21
213.240210
0
LINE
8
Calque 1
10
483.521490
20
213.240210
11
482.131320
21
211.932770
0
LINE
8
Calque 1
10
482.131320
20
211.932770
11
480.786204
21
210.790970
0
LINE
8
Calque 1
10
480.786204
20
210.790970
11
479.548660
21
210.242330
0
LINE
8
Calque 1
10
479.548660
20
210.242330
11
478.372348
21
210.075350
0
LINE
8
Calque 1
10
478.372348
20
210.075350
11
477.234660
21
210.226730
0
LINE
8
Calque 1
10
477.234660
20
210.226730
11
476.113160
21
210.687780
0
LINE
8
Calque 1
10
476.113160
20
210.687780
11
477.268860
21
211.830190
0
LINE
8
Calque 1
10
477.268860
20
211.830190
11
479.319380
21
213.936750
0
LINE
8
Calque 1
10
479.319380
20
213.936750
11
480.214200
21
215.077250
0
LINE
8
Calque 1
10
480.214200
20
215.077250
11
479.420450
21
214.551560
0
LINE
8
Calque 1
10
479.420450
20
214.551560
11
477.200350
21
213.294780
0
LINE
8
Calque 1
10
477.200350
20
213.294780
11
475.846518
21
212.754161
0
LINE
8
Calque 1
10
475.846518
20
212.754161
11
474.626020
21
212.563710
0
LINE
8
Calque 1
10
474.626020
20
212.563710
11
473.502791
21
212.688730
0
LINE
8
Calque 1
10
473.502791
20
212.688730
11
472.414340
21
212.989310
0
LINE
8
Calque 1
10
472.414340
20
212.989310
11
471.664974
21
213.378603
0
LINE
8
Calque 1
10
471.664974
20
213.378603
11
471.356990
21
213.716910
0
LINE
8
Calque 1
10
471.356990
20
213.716910
11
472.039483
21
214.302040
0
LINE
8
Calque 1
10
472.039483
20
214.302040
11
473.672090
21
215.284760
0
LINE
8
Calque 1
10
473.672090
20
215.284760
11
476.642320
21
217.062350
0
LINE
8
Calque 1
10
476.642320
20
217.062350
11
476.918320
21
217.305281
0
LINE
8
Calque 1
10
476.918320
20
217.305281
11
476.839475
21
217.363966
0
LINE
8
Calque 1
10
476.839475
20
217.363966
11
475.323540
21
216.890270
0
LINE
8
Calque 1
10
475.323540
20
216.890270
11
473.488208
21
216.367714
0
LINE
8
Calque 1
10
473.488208
20
216.367714
11
471.856380
21
216.071620
0
LINE
8
Calque 1
10
471.856380
20
216.071620
11
470.536724
21
216.065169
0
LINE
8
Calque 1
10
470.536724
20
216.065169
11
469.451930
21
216.239610
0
LINE
8
Calque 1
10
469.451930
20
216.239610
11
468.545810
21
216.719765
0
LINE
8
Calque 1
10
468.545810
20
216.719765
11
467.655740
21
217.448950
0
LINE
8
Calque 1
10
467.655740
20
217.448950
11
466.777100
21
218.355480
0
LINE
8
Calque 1
10
466.777100
20
218.355480
11
467.410230
21
218.493750
0
LINE
8
Calque 1
10
467.410230
20
218.493750
11
470.821490
21
219.283450
0
LINE
8
Calque 1
10
470.821490
20
219.283450
11
474.179140
21
220.151890
0
LINE
8
Calque 1
10
474.179140
20
220.151890
11
474.171286
21
220.242070
0
LINE
8
Calque 1
10
474.171286
20
220.242070
11
473.651481
21
220.312253
0
LINE
8
Calque 1
10
473.651481
20
220.312253
11
471.268720
21
220.377680
0
LINE
8
Calque 1
10
471.268720
20
220.377680
11
468.189853
21
220.485175
0
LINE
8
Calque 1
10
468.189853
20
220.485175
11
467.315377
21
220.655229
0
LINE
8
Calque 1
10
467.315377
20
220.655229
11
466.559460
21
220.941540
0
LINE
8
Calque 1
10
466.559460
20
220.941540
11
465.498338
21
221.595770
0
LINE
8
Calque 1
10
465.498338
20
221.595770
11
464.659380
21
222.389170
0
LINE
8
Calque 1
10
464.659380
20
222.389170
11
463.690730
21
224.038890
0
LINE
8
Calque 1
10
463.690730
20
224.038890
11
463.550246
21
224.679619
0
LINE
8
Calque 1
10
463.550246
20
224.679619
11
464.267890
21
224.642160
0
LINE
8
Calque 1
10
464.267890
20
224.642160
11
468.837110
21
224.345340
0
LINE
8
Calque 1
10
468.837110
20
224.345340
11
472.541280
21
224.202480
0
LINE
8
Calque 1
10
472.541280
20
224.202480
11
470.160030
21
224.832560
0
LINE
8
Calque 1
10
470.160030
20
224.832560
11
466.720450
21
225.904580
0
LINE
8
Calque 1
10
466.720450
20
225.904580
11
464.678690
21
227.025650
0
LINE
8
Calque 1
10
464.678690
20
227.025650
11
463.783090
21
227.891494
0
LINE
8
Calque 1
10
463.783090
20
227.891494
11
463.025040
21
229.049740
0
LINE
8
Calque 1
10
463.025040
20
229.049740
11
462.551698
21
230.256374
0
LINE
8
Calque 1
10
462.551698
20
230.256374
11
462.354820
21
231.268780
0
LINE
8
Calque 1
10
462.354820
20
231.268780
11
462.429020
21
232.142870
0
LINE
8
Calque 1
10
462.429020
20
232.142870
11
464.669120
21
231.229400
0
LINE
8
Calque 1
10
464.669120
20
231.229400
11
469.638900
21
229.482400
0
LINE
8
Calque 1
10
469.638900
20
229.482400
11
472.564410
21
228.770500
0
LINE
8
Calque 1
10
472.564410
20
228.770500
11
471.374670
21
229.437130
0
LINE
8
Calque 1
10
471.374670
20
229.437130
11
468.259580
21
231.036190
0
LINE
8
Calque 1
10
468.259580
20
231.036190
11
465.188050
21
233.207130
0
LINE
8
Calque 1
10
465.188050
20
233.207130
11
464.140449
21
234.294233
0
LINE
8
Calque 1
10
464.140449
20
234.294233
11
463.402110
21
235.339560
0
LINE
8
Calque 1
10
463.402110
20
235.339560
11
463.009526
21
236.523040
0
LINE
8
Calque 1
10
463.009526
20
236.523040
11
462.884010
21
238.063820
0
LINE
8
Calque 1
10
462.884010
20
238.063820
11
463.041150
21
240.182020
0
LINE
8
Calque 1
10
463.041150
20
240.182020
11
463.206785
21
240.302403
0
LINE
8
Calque 1
10
463.206785
20
240.302403
11
463.562504
21
240.163593
0
LINE
8
Calque 1
10
463.562504
20
240.163593
11
465.091670
21
238.961080
0
LINE
8
Calque 1
10
465.091670
20
238.961080
11
467.355919
21
237.203056
0
LINE
8
Calque 1
10
467.355919
20
237.203056
11
470.140960
21
235.265910
0
LINE
8
Calque 1
10
470.140960
20
235.265910
11
473.533140
21
233.201210
0
LINE
8
Calque 1
10
473.533140
20
233.201210
11
473.144861
21
233.683756
0
LINE
8
Calque 1
10
473.144861
20
233.683756
11
471.879540
21
234.843920
0
LINE
8
Calque 1
10
471.879540
20
234.843920
11
470.080465
21
236.551350
0
LINE
8
Calque 1
10
470.080465
20
236.551350
11
468.408920
21
238.349650
0
LINE
8
Calque 1
10
468.408920
20
238.349650
11
467.083418
21
240.092448
0
LINE
8
Calque 1
10
467.083418
20
240.092448
11
466.116310
21
241.666420
0
LINE
8
Calque 1
10
466.116310
20
241.666420
11
465.567888
21
243.120828
0
LINE
8
Calque 1
10
465.567888
20
243.120828
11
465.427480
21
244.576840
0
LINE
8
Calque 1
10
465.427480
20
244.576840
11
465.607243
21
246.012796
0
LINE
8
Calque 1
10
465.607243
20
246.012796
11
466.048350
21
247.414230
0
LINE
8
Calque 1
10
466.048350
20
247.414230
11
466.974180
21
249.067190
0
LINE
8
Calque 1
10
466.974180
20
249.067190
11
467.148797
21
249.144083
0
LINE
8
Calque 1
10
467.148797
20
249.144083
11
467.316365
21
249.059413
0
LINE
8
Calque 1
10
467.316365
20
249.059413
11
467.694520
21
248.340650
0
LINE
8
Calque 1
10
467.694520
20
248.340650
11
469.333650
21
245.449370
0
LINE
8
Calque 1
10
469.333650
20
245.449370
11
472.520330
21
241.355590
0
LINE
8
Calque 1
10
472.520330
20
241.355590
11
475.447770
21
238.228290
0
LINE
8
Calque 1
10
475.447770
20
238.228290
11
475.944520
21
237.787927
0
LINE
8
Calque 1
10
475.944520
20
237.787927
11
476.043023
21
237.740559
0
LINE
8
Calque 1
10
476.043023
20
237.740559
11
476.033814
21
237.827448
0
LINE
8
Calque 1
10
476.033814
20
237.827448
11
474.802840
21
239.803280
0
LINE
8
Calque 1
10
474.802840
20
239.803280
11
471.797490
21
245.067760
0
LINE
8
Calque 1
10
471.797490
20
245.067760
11
470.610648
21
247.765463
0
LINE
8
Calque 1
10
470.610648
20
247.765463
11
470.453708
21
248.763405
0
LINE
8
Calque 1
10
470.453708
20
248.763405
11
470.430440
21
250.107350
0
LINE
8
Calque 1
10
470.430440
20
250.107350
11
470.549179
21
252.136784
0
LINE
8
Calque 1
10
470.549179
20
252.136784
11
470.998780
21
253.441830
0
LINE
8
Calque 1
10
470.998780
20
253.441830
11
472.527060
21
255.492350
0
LINE
8
Calque 1
10
472.527060
20
255.492350
11
473.744660
21
256.484540
0
LINE
8
Calque 1
10
473.744660
20
256.484540
11
473.922530
21
256.224949
0
LINE
8
Calque 1
10
473.922530
20
256.224949
11
473.996510
21
255.600820
0
LINE
8
Calque 1
10
473.996510
20
255.600820
11
474.518410
21
252.624260
0
LINE
8
Calque 1
10
474.518410
20
252.624260
11
475.352416
21
250.215186
0
LINE
8
Calque 1
10
475.352416
20
250.215186
11
476.630250
21
247.356420
0
LINE
8
Calque 1
10
476.630250
20
247.356420
11
478.457701
21
244.146399
0
LINE
8
Calque 1
10
478.457701
20
244.146399
11
480.707440
21
240.874120
0
LINE
8
Calque 1
10
480.707440
20
240.874120
11
484.004440
21
236.640790
0
LINE
8
Calque 1
10
484.004440
20
236.640790
11
484.814180
21
235.714750
0
LINE
8
Calque 1
10
484.814180
20
235.714750
11
484.994670
21
236.574640
0
LINE
8
Calque 1
10
484.994670
20
236.574640
11
485.340520
21
237.433910
0
LINE
8
Calque 1
10
485.340520
20
237.433910
11
486.295070
21
235.923040
0
LINE
8
Calque 1
10
486.295070
20
235.923040
11
487.420784
21
234.271239
0
LINE
8
Calque 1
10
487.420784
20
234.271239
11
489.019080
21
232.420650
0
LINE
8
Calque 1
10
489.019080
20
232.420650
11
490.587035
21
230.647671
0
LINE
8
Calque 1
10
490.587035
20
230.647671
11
490.844120
21
230.118440
0
LINE
8
Calque 1
10
490.844120
20
230.118440
11
490.875730
21
229.638920
0
LINE
8
Calque 1
10
490.875730
20
229.638920
11
490.798577
21
229.213908
0
LINE
8
Calque 1
10
490.798577
20
229.213908
11
490.621914
21
228.945168
0
LINE
8
Calque 1
10
490.621914
20
228.945168
11
489.676020
21
228.629040
0
LINE
8
Calque 1
10
489.676020
20
228.629040
11
488.613761
21
228.237785
0
LINE
8
Calque 1
10
488.613761
20
228.237785
11
487.651770
21
227.557360
0
LINE
8
Calque 1
10
487.651770
20
227.557360
11
486.926291
21
226.646010
0
LINE
8
Calque 1
10
486.926291
20
226.646010
11
486.463560
21
225.645770
0
LINE
8
Calque 1
10
486.463560
20
225.645770
11
486.311578
21
224.605914
0
LINE
8
Calque 1
10
486.311578
20
224.605914
11
486.447460
21
223.609940
0
LINE
8
Calque 1
10
486.447460
20
223.609940
11
486.845246
21
222.674261
0
LINE
8
Calque 1
10
486.845246
20
222.674261
11
487.423340
21
221.794690
0
LINE
8
Calque 1
10
487.423340
20
221.794690
11
488.236398
21
221.059036
0
LINE
8
Calque 1
10
488.236398
20
221.059036
11
489.199110
21
220.469370
0
LINE
8
Calque 1
10
489.199110
20
220.469370
11
490.209321
21
220.124633
0
LINE
8
Calque 1
10
490.209321
20
220.124633
11
491.136590
21
219.977850
0
LINE
8
Calque 1
10
491.136590
20
219.977850
11
491.800334
21
219.867179
0
LINE
8
Calque 1
10
491.800334
20
219.867179
11
492.149580
21
219.594710
0
LINE
8
Calque 1
10
492.149580
20
219.594710
11
491.965045
21
218.409259
0
LINE
8
Calque 1
10
491.965045
20
218.409259
11
491.318090
21
216.088990
0
LINE
8
Calque 1
10
491.318090
20
216.088990
11
489.734460
21
211.769960
0
LINE
8
Calque 1
10
489.734460
20
211.769960
11
489.084536
21
210.724073
0
LINE
8
Calque 1
10
489.084536
20
210.724073
11
488.374830
21
209.881450
0
LINE
8
Calque 1
10
488.374830
20
209.881450
11
487.027240
21
209.003730
0
LINE
8
Calque 1
10
487.027240
20
209.003730
11
486.431930
21
208.941730
0
LINE
8
Calque 1
10
486.431930
20
208.941730
11
486.799200
21
209.951750
0
LINE
8
Calque 1
10
486.799200
20
209.951750
11
487.353040
21
212.034580
0
LINE
8
Calque 1
10
487.353040
20
212.034580
11
487.539600
21
213.225200
0
LINE
8
Calque 1
10
487.539600
20
213.225200
11
486.390450
21
211.535020
0
LINE
8
Calque 1
10
486.390450
20
211.535020
11
485.305754
21
210.184479
0
LINE
8
Calque 1
10
485.305754
20
210.184479
11
484.319390
21
209.352210
0
LINE
8
Calque 1
10
484.319390
20
209.352210
11
483.375620
21
209.004289
0
LINE
8
Calque 1
10
483.375620
20
209.004289
11
482.401160
21
208.859580
0
LINE
8
Calque 1
10
482.401160
20
208.859580
11
481.404830
21
208.997130
0
LINE
8
Calque 1
10
481.404830
20
208.997130
11
481.404820
21
208.997080
0
LINE
8
Calque 1
10
486.623250
20
215.979230
11
487.117890
21
216.992990
0
LINE
8
Calque 1
10
487.117890
20
216.992990
11
485.866460
21
215.998740
0
LINE
8
Calque 1
10
485.866460
20
215.998740
11
485.019538
21
215.089279
0
LINE
8
Calque 1
10
485.019538
20
215.089279
11
485.061725
21
214.969167
0
LINE
8
Calque 1
10
485.061725
20
214.969167
11
485.371820
21
214.984980
0
LINE
8
Calque 1
10
485.371820
20
214.984980
11
486.005935
21
215.305956
0
LINE
8
Calque 1
10
486.005935
20
215.305956
11
486.623250
21
215.979230
0
LINE
8
Calque 1
10
486.623250
20
215.979230
11
486.623250
21
215.979230
0
LINE
8
Calque 1
10
483.862460
20
217.346780
11
484.571666
21
218.079669
0
LINE
8
Calque 1
10
484.571666
20
218.079669
11
484.712110
21
218.326640
0
LINE
8
Calque 1
10
484.712110
20
218.326640
11
482.802630
21
217.446150
0
LINE
8
Calque 1
10
482.802630
20
217.446150
11
481.148990
21
216.466300
0
LINE
8
Calque 1
10
481.148990
20
216.466300
11
481.378914
21
216.326153
0
LINE
8
Calque 1
10
481.378914
20
216.326153
11
481.944230
21
216.267860
0
LINE
8
Calque 1
10
481.944230
20
216.267860
11
482.819131
21
216.514441
0
LINE
8
Calque 1
10
482.819131
20
216.514441
11
483.862460
21
217.346780
0
LINE
8
Calque 1
10
483.862460
20
217.346780
11
483.862460
21
217.346780
0
LINE
8
Calque 1
10
481.495560
20
219.361950
11
482.157010
21
219.813480
0
LINE
8
Calque 1
10
482.157010
20
219.813480
11
480.015760
21
219.765080
0
LINE
8
Calque 1
10
480.015760
20
219.765080
11
478.567579
21
219.611815
0
LINE
8
Calque 1
10
478.567579
20
219.611815
11
477.965240
21
219.405450
0
LINE
8
Calque 1
10
477.965240
20
219.405450
11
478.140113
21
219.161829
0
LINE
8
Calque 1
10
478.140113
20
219.161829
11
478.560550
21
218.919010
0
LINE
8
Calque 1
10
478.560550
20
218.919010
11
479.214153
21
218.792090
0
LINE
8
Calque 1
10
479.214153
20
218.792090
11
479.949610
21
218.827110
0
LINE
8
Calque 1
10
479.949610
20
218.827110
11
481.495560
21
219.361980
0
LINE
8
Calque 1
10
481.495560
20
219.361980
11
481.495560
21
219.361950
0
LINE
8
Calque 1
10
479.912690
20
222.256950
11
480.779646
21
222.442921
0
LINE
8
Calque 1
10
480.779646
20
222.442921
11
481.140240
21
222.653830
0
LINE
8
Calque 1
10
481.140240
20
222.653830
11
480.843461
21
222.815293
0
LINE
8
Calque 1
10
480.843461
20
222.815293
11
480.129930
21
222.882450
0
LINE
8
Calque 1
10
480.129930
20
222.882450
11
477.722580
21
223.297320
0
LINE
8
Calque 1
10
477.722580
20
223.297320
11
476.192860
21
223.579510
0
LINE
8
Calque 1
10
476.192860
20
223.579510
11
476.250760
21
223.138500
0
LINE
8
Calque 1
10
476.250760
20
223.138500
11
477.269450
21
222.469800
0
LINE
8
Calque 1
10
477.269450
20
222.469800
11
478.391380
21
222.099050
0
LINE
8
Calque 1
10
478.391380
20
222.099050
11
479.912740
21
222.256950
0
LINE
8
Calque 1
10
479.912740
20
222.256950
11
479.912690
21
222.256950
0
LINE
8
Calque 1
10
479.315920
20
226.324700
11
477.066960
21
227.727710
0
LINE
8
Calque 1
10
477.066960
20
227.727710
11
475.914720
21
228.539200
0
LINE
8
Calque 1
10
475.914720
20
228.539200
11
475.667515
21
228.555010
0
LINE
8
Calque 1
10
475.667515
20
228.555010
11
475.583990
21
228.219040
0
LINE
8
Calque 1
10
475.583990
20
228.219040
11
475.721621
21
227.685024
0
LINE
8
Calque 1
10
475.721621
20
227.685024
11
476.052520
21
227.124960
0
LINE
8
Calque 1
10
476.052520
20
227.124960
11
476.809265
21
226.569331
0
LINE
8
Calque 1
10
476.809265
20
226.569331
11
477.970740
21
226.045960
0
LINE
8
Calque 1
10
477.970740
20
226.045960
11
480.081910
21
225.541710
0
LINE
8
Calque 1
10
480.081910
20
225.541710
11
480.347383
21
225.573961
0
LINE
8
Calque 1
10
480.347383
20
225.573961
11
480.327756
21
225.695211
0
LINE
8
Calque 1
10
480.327756
20
225.695211
11
479.315920
21
226.324700
0
LINE
8
Calque 1
10
479.315920
20
226.324700
11
479.315920
21
226.324700
0
LINE
8
Calque 1
10
480.274430
20
229.827760
11
477.755890
21
232.539740
0
LINE
8
Calque 1
10
477.755890
20
232.539740
11
476.924650
21
233.598070
0
LINE
8
Calque 1
10
476.924650
20
233.598070
11
476.915650
21
232.615090
0
LINE
8
Calque 1
10
476.915650
20
232.615090
11
477.092626
21
231.638805
0
LINE
8
Calque 1
10
477.092626
20
231.638805
11
477.743130
21
230.679560
0
LINE
8
Calque 1
10
477.743130
20
230.679560
11
478.768185
21
229.782485
0
LINE
8
Calque 1
10
478.768185
20
229.782485
11
480.058230
21
228.963290
0
LINE
8
Calque 1
10
480.058230
20
228.963290
11
481.749300
21
228.186840
0
LINE
8
Calque 1
10
481.749300
20
228.186840
11
481.403594
21
228.663609
0
LINE
8
Calque 1
10
481.403594
20
228.663609
11
480.274310
21
229.827760
0
LINE
8
Calque 1
10
480.274310
20
229.827760
11
480.274430
21
229.827760
0
LINE
8
Calque 1
10
482.586050
20
232.539090
11
480.602890
21
235.641440
0
LINE
8
Calque 1
10
480.602890
20
235.641440
11
479.964965
21
236.645916
0
LINE
8
Calque 1
10
479.964965
20
236.645916
11
479.789718
21
236.723725
0
LINE
8
Calque 1
10
479.789718
20
236.723725
11
479.668170
21
236.559960
0
LINE
8
Calque 1
10
479.668170
20
236.559960
11
479.651370
21
235.287430
0
LINE
8
Calque 1
10
479.651370
20
235.287430
11
479.930735
21
234.484824
0
LINE
8
Calque 1
10
479.930735
20
234.484824
11
480.375460
21
233.689590
0
LINE
8
Calque 1
10
480.375460
20
233.689590
11
482.253470
21
231.859780
0
LINE
8
Calque 1
10
482.253470
20
231.859780
11
483.690850
21
230.819950
0
LINE
8
Calque 1
10
483.690850
20
230.819950
11
482.586000
21
232.539090
0
LINE
8
Calque 1
10
482.586000
20
232.539090
11
482.586050
21
232.539090
0
LINE
8
Calque 1
10
502.225750
20
209.680090
11
501.332181
21
210.635603
0
LINE
8
Calque 1
10
501.332181
20
210.635603
11
500.581660
21
211.780670
0
LINE
8
Calque 1
10
500.581660
20
211.780670
11
498.964200
21
216.278200
0
LINE
8
Calque 1
10
498.964200
20
216.278200
11
498.248561
21
218.931438
0
LINE
8
Calque 1
10
498.248561
20
218.931438
11
498.216515
21
219.483696
0
LINE
8
Calque 1
10
498.216515
20
219.483696
11
498.365190
21
219.729820
0
LINE
8
Calque 1
10
498.365190
20
219.729820
11
499.473140
21
219.968020
0
LINE
8
Calque 1
10
499.473140
20
219.968020
11
500.282808
21
220.119120
0
LINE
8
Calque 1
10
500.282808
20
220.119120
11
501.192930
21
220.477010
0
LINE
8
Calque 1
10
501.192930
20
220.477010
11
502.114411
21
221.073819
0
LINE
8
Calque 1
10
502.114411
20
221.073819
11
502.951420
21
221.799650
0
LINE
8
Calque 1
10
502.951420
20
221.799650
11
503.597359
21
222.753346
0
LINE
8
Calque 1
10
503.597359
20
222.753346
11
503.827460
21
224.138990
0
LINE
8
Calque 1
10
503.827460
20
224.138990
11
503.793998
21
225.530693
0
LINE
8
Calque 1
10
503.793998
20
225.530693
11
503.417560
21
226.586650
0
LINE
8
Calque 1
10
503.417560
20
226.586650
11
502.807203
21
227.387935
0
LINE
8
Calque 1
10
502.807203
20
227.387935
11
502.054630
21
228.014020
0
LINE
8
Calque 1
10
502.054630
20
228.014020
11
500.364760
21
228.684880
0
LINE
8
Calque 1
10
500.364760
20
228.684880
11
499.684495
21
228.964454
0
LINE
8
Calque 1
10
499.684495
20
228.964454
11
499.446580
21
229.556470
0
LINE
8
Calque 1
10
499.446580
20
229.556470
11
499.497294
21
230.002974
0
LINE
8
Calque 1
10
499.497294
20
230.002974
11
499.801429
21
230.572365
0
LINE
8
Calque 1
10
499.801429
20
230.572365
11
501.487010
21
232.544000
0
LINE
8
Calque 1
10
501.487010
20
232.544000
11
503.163933
21
234.537561
0
LINE
8
Calque 1
10
503.163933
20
234.537561
11
504.215010
21
236.121180
0
LINE
8
Calque 1
10
504.215010
20
236.121180
11
504.972180
21
237.423730
0
LINE
8
Calque 1
10
504.972180
20
237.423730
11
505.369050
21
236.443750
0
LINE
8
Calque 1
10
505.369050
20
236.443750
11
505.614160
21
235.452930
0
LINE
8
Calque 1
10
505.614160
20
235.452930
11
508.565900
21
239.390670
0
LINE
8
Calque 1
10
508.565900
20
239.390670
11
512.863730
21
245.586460
0
LINE
8
Calque 1
10
512.863730
20
245.586460
11
514.055040
21
247.805190
0
LINE
8
Calque 1
10
514.055040
20
247.805190
11
515.029000
21
249.968720
0
LINE
8
Calque 1
10
515.029000
20
249.968720
11
515.695506
21
252.113976
0
LINE
8
Calque 1
10
515.695506
20
252.113976
11
516.147610
21
254.288760
0
LINE
8
Calque 1
10
516.147610
20
254.288760
11
516.616790
21
256.484570
0
LINE
8
Calque 1
10
516.616790
20
256.484570
11
517.969070
21
255.220350
0
LINE
8
Calque 1
10
517.969070
20
255.220350
11
518.942561
21
253.965274
0
LINE
8
Calque 1
10
518.942561
20
253.965274
11
519.622510
21
252.723060
0
LINE
8
Calque 1
10
519.622510
20
252.723060
11
519.964180
21
251.331611
0
LINE
8
Calque 1
10
519.964180
20
251.331611
11
519.991930
21
249.555510
0
LINE
8
Calque 1
10
519.991930
20
249.555510
11
519.734729
21
247.660195
0
LINE
8
Calque 1
10
519.734729
20
247.660195
11
519.065680
21
245.868500
0
LINE
8
Calque 1
10
519.065680
20
245.868500
11
516.211360
21
240.879120
0
LINE
8
Calque 1
10
516.211360
20
240.879120
11
514.263600
21
237.568670
0
LINE
8
Calque 1
10
514.263600
20
237.568670
11
516.685710
21
240.084740
0
LINE
8
Calque 1
10
516.685710
20
240.084740
11
520.350440
21
244.486270
0
LINE
8
Calque 1
10
520.350440
20
244.486270
11
522.445710
21
247.819470
0
LINE
8
Calque 1
10
522.445710
20
247.819470
11
523.340590
21
249.340820
0
LINE
8
Calque 1
10
523.340590
20
249.340820
11
524.153400
21
247.981570
0
LINE
8
Calque 1
10
524.153400
20
247.981570
11
524.681714
21
246.615998
0
LINE
8
Calque 1
10
524.681714
20
246.615998
11
524.984690
21
245.241530
0
LINE
8
Calque 1
10
524.984690
20
245.241530
11
524.992374
21
243.959874
0
LINE
8
Calque 1
10
524.992374
20
243.959874
11
524.792660
21
242.830460
0
LINE
8
Calque 1
10
524.792660
20
242.830460
11
523.580630
21
240.467490
0
LINE
8
Calque 1
10
523.580630
20
240.467490
11
522.083106
21
238.641928
0
LINE
8
Calque 1
10
522.083106
20
238.641928
11
519.714900
21
236.124250
0
LINE
8
Calque 1
10
519.714900
20
236.124250
11
517.594709
21
233.892616
0
LINE
8
Calque 1
10
517.594709
20
233.892616
11
517.426722
21
233.586049
0
LINE
8
Calque 1
10
517.426722
20
233.586049
11
517.784990
21
233.734170
0
LINE
8
Calque 1
10
517.784990
20
233.734170
11
521.581750
21
236.202840
0
LINE
8
Calque 1
10
521.581750
20
236.202840
11
525.733150
21
239.342430
0
LINE
8
Calque 1
10
525.733150
20
239.342430
11
527.146130
21
240.633820
0
LINE
8
Calque 1
10
527.146130
20
240.633820
11
527.425020
21
239.629510
0
LINE
8
Calque 1
10
527.425020
20
239.629510
11
527.703910
21
237.963740
0
LINE
8
Calque 1
10
527.703910
20
237.963740
11
527.416660
21
236.243950
0
LINE
8
Calque 1
10
527.416660
20
236.243950
11
526.808414
21
235.056289
0
LINE
8
Calque 1
10
526.808414
20
235.056289
11
525.499900
21
233.586500
0
LINE
8
Calque 1
10
525.499900
20
233.586500
11
523.564761
21
232.002404
0
LINE
8
Calque 1
10
523.564761
20
232.002404
11
520.871860
21
230.455530
0
LINE
8
Calque 1
10
520.871860
20
230.455530
11
517.985950
21
228.811040
0
LINE
8
Calque 1
10
517.985950
20
228.811040
11
521.243850
21
229.651890
0
LINE
8
Calque 1
10
521.243850
20
229.651890
11
526.084590
21
231.374140
0
LINE
8
Calque 1
10
526.084590
20
231.374140
11
527.909410
21
232.142900
0
LINE
8
Calque 1
10
527.909410
20
232.142900
11
527.909940
21
230.801380
0
LINE
8
Calque 1
10
527.909940
20
230.801380
11
527.621354
21
229.518030
0
LINE
8
Calque 1
10
527.621354
20
229.518030
11
527.005250
21
228.353990
0
LINE
8
Calque 1
10
527.005250
20
228.353990
11
526.003666
21
227.306195
0
LINE
8
Calque 1
10
526.003666
20
227.306195
11
524.520800
21
226.382210
0
LINE
8
Calque 1
10
524.520800
20
226.382210
11
522.614569
21
225.604249
0
LINE
8
Calque 1
10
522.614569
20
225.604249
11
520.430890
21
224.949790
0
LINE
8
Calque 1
10
520.430890
20
224.949790
11
517.817480
21
224.181240
0
LINE
8
Calque 1
10
517.817480
20
224.181240
11
518.421211
21
224.077400
0
LINE
8
Calque 1
10
518.421211
20
224.077400
11
520.198730
21
224.111440
0
LINE
8
Calque 1
10
520.198730
20
224.111440
11
524.771420
21
224.492170
0
LINE
8
Calque 1
10
524.771420
20
224.492170
11
526.826710
21
224.644640
0
LINE
8
Calque 1
10
526.826710
20
224.644640
11
526.182650
21
223.131980
0
LINE
8
Calque 1
10
526.182650
20
223.131980
11
525.328724
21
221.866458
0
LINE
8
Calque 1
10
525.328724
20
221.866458
11
524.140200
21
221.045100
0
LINE
8
Calque 1
10
524.140200
20
221.045100
11
523.336120
21
220.678254
0
LINE
8
Calque 1
10
523.336120
20
220.678254
11
522.501451
21
220.479688
0
LINE
8
Calque 1
10
522.501451
20
220.479688
11
519.317380
21
220.395820
0
LINE
8
Calque 1
10
519.317380
20
220.395820
11
515.908650
21
220.305020
0
LINE
8
Calque 1
10
515.908650
20
220.305020
11
518.459100
21
219.557960
0
LINE
8
Calque 1
10
518.459100
20
219.557960
11
522.185720
21
218.751760
0
LINE
8
Calque 1
10
522.185720
20
218.751760
11
523.095287
21
218.569363
0
LINE
8
Calque 1
10
523.095287
20
218.569363
11
523.473600
21
218.370780
0
LINE
8
Calque 1
10
523.473600
20
218.370780
11
522.680100
21
217.367130
0
LINE
8
Calque 1
10
522.680100
20
217.367130
11
521.835987
21
216.713085
0
LINE
8
Calque 1
10
521.835987
20
216.713085
11
520.920790
21
216.254880
0
LINE
8
Calque 1
10
520.920790
20
216.254880
11
519.812211
21
216.067736
0
LINE
8
Calque 1
10
519.812211
20
216.067736
11
518.473150
21
216.093030
0
LINE
8
Calque 1
10
518.473150
20
216.093030
11
516.843691
21
216.399285
0
LINE
8
Calque 1
10
516.843691
20
216.399285
11
515.006940
21
216.915270
0
LINE
8
Calque 1
10
515.006940
20
216.915270
11
513.641726
21
217.315953
0
LINE
8
Calque 1
10
513.641726
20
217.315953
11
513.439327
21
217.311546
0
LINE
8
Calque 1
10
513.439327
20
217.311546
11
513.551730
21
217.171580
0
LINE
8
Calque 1
10
513.551730
20
217.171580
11
516.665340
21
215.307010
0
LINE
8
Calque 1
10
516.665340
20
215.307010
11
518.451605
21
214.215919
0
LINE
8
Calque 1
10
518.451605
20
214.215919
11
519.117010
21
213.636620
0
LINE
8
Calque 1
10
519.117010
20
213.636620
11
518.080070
21
212.992720
0
LINE
8
Calque 1
10
518.080070
20
212.992720
11
517.086300
21
212.689711
0
LINE
8
Calque 1
10
517.086300
20
212.689711
11
515.966680
21
212.563680
0
LINE
8
Calque 1
10
515.966680
20
212.563680
11
514.705639
21
212.741376
0
LINE
8
Calque 1
10
514.705639
20
212.741376
11
513.360830
21
213.206420
0
LINE
8
Calque 1
10
513.360830
20
213.206420
11
511.038190
21
214.446460
0
LINE
8
Calque 1
10
511.038190
20
214.446460
11
510.112140
21
215.043750
0
LINE
8
Calque 1
10
510.112140
20
215.043750
11
510.769280
21
214.266730
0
LINE
8
Calque 1
10
510.769280
20
214.266730
11
512.885950
21
212.129010
0
LINE
8
Calque 1
10
512.885950
20
212.129010
11
513.856816
21
211.106230
0
LINE
8
Calque 1
10
513.856816
20
211.106230
11
514.141470
21
210.557990
0
LINE
8
Calque 1
10
514.141470
20
210.557990
11
512.397960
21
210.236320
0
LINE
8
Calque 1
10
512.397960
20
210.236320
11
511.004166
21
210.255335
0
LINE
8
Calque 1
10
511.004166
20
210.255335
11
509.956130
21
210.583740
0
LINE
8
Calque 1
10
509.956130
20
210.583740
11
508.979819
21
211.267178
0
LINE
8
Calque 1
10
508.979819
20
211.267178
11
507.899610
21
212.266110
0
LINE
8
Calque 1
10
507.899610
20
212.266110
11
506.745410
21
213.489720
0
LINE
8
Calque 1
10
506.745410
20
213.489720
11
507.185900
21
212.431380
0
LINE
8
Calque 1
10
507.185900
20
212.431380
11
508.273960
21
210.267600
0
LINE
8
Calque 1
10
508.273960
20
210.267600
11
508.921520
21
209.010830
0
LINE
8
Calque 1
10
508.921520
20
209.010830
11
507.984940
21
208.859510
0
LINE
8
Calque 1
10
507.984940
20
208.859510
11
507.019769
21
209.014453
0
LINE
8
Calque 1
10
507.019769
20
209.014453
11
506.014450
21
209.386970
0
LINE
8
Calque 1
10
506.014450
20
209.386970
11
505.058534
21
210.090308
0
LINE
8
Calque 1
10
505.058534
20
210.090308
11
504.212140
21
211.040620
0
LINE
8
Calque 1
10
504.212140
20
211.040620
11
503.293110
21
212.563680
0
LINE
8
Calque 1
10
503.293110
20
212.563680
11
503.180563
21
212.603714
0
LINE
8
Calque 1
10
503.180563
20
212.603714
11
503.121580
21
212.142710
0
LINE
8
Calque 1
10
503.121580
20
212.142710
11
503.471670
21
210.092180
0
LINE
8
Calque 1
10
503.471670
20
210.092180
11
503.690426
21
209.134775
0
LINE
8
Calque 1
10
503.690426
20
209.134775
11
503.657746
21
208.924213
0
LINE
8
Calque 1
10
503.657746
20
208.924213
11
503.531970
21
208.859510
0
LINE
8
Calque 1
10
503.531970
20
208.859510
11
502.225840
21
209.680030
0
LINE
8
Calque 1
10
502.225840
20
209.680030
11
502.225750
21
209.680090
0
LINE
8
Calque 1
10
505.481860
20
215.021250
11
504.296030
21
216.088750
0
LINE
8
Calque 1
10
504.296030
20
216.088750
11
503.459050
21
216.702590
0
LINE
8
Calque 1
10
503.459050
20
216.702590
11
503.283190
21
216.745308
0
LINE
8
Calque 1
10
503.283190
20
216.745308
11
503.277120
21
216.607800
0
LINE
8
Calque 1
10
503.277120
20
216.607800
11
503.979910
21
215.540300
0
LINE
8
Calque 1
10
503.979910
20
215.540300
11
504.500255
21
215.119863
0
LINE
8
Calque 1
10
504.500255
20
215.119863
11
504.998820
21
214.944990
0
LINE
8
Calque 1
10
504.998820
20
214.944990
11
505.481860
21
215.021290
0
LINE
8
Calque 1
10
505.481860
20
215.021290
11
505.481860
21
215.021250
0
LINE
8
Calque 1
10
509.053740
20
216.271080
11
509.418528
21
216.495801
0
LINE
8
Calque 1
10
509.418528
20
216.495801
11
508.947230
21
216.690770
0
LINE
8
Calque 1
10
508.947230
20
216.690770
11
506.830570
21
217.663940
0
LINE
8
Calque 1
10
506.830570
20
217.663940
11
505.349570
21
218.447980
0
LINE
8
Calque 1
10
505.349570
20
218.447980
11
506.011030
21
217.719620
0
LINE
8
Calque 1
10
506.011030
20
217.719620
11
507.466240
21
216.498280
0
LINE
8
Calque 1
10
507.466240
20
216.498280
11
508.392280
21
216.022900
0
LINE
8
Calque 1
10
508.392280
20
216.022900
11
509.053740
21
216.271080
0
LINE
8
Calque 1
10
509.053740
20
216.271080
11
509.053740
21
216.271080
0
LINE
8
Calque 1
10
511.951710
20
218.956210
11
512.625610
21
219.485370
0
LINE
8
Calque 1
10
512.625610
20
219.485370
11
512.100993
21
219.643299
0
LINE
8
Calque 1
10
512.100993
20
219.643299
11
510.839680
21
219.711100
0
LINE
8
Calque 1
10
510.839680
20
219.711100
11
508.392280
21
219.847350
0
LINE
8
Calque 1
10
508.392280
20
219.847350
11
508.239842
21
219.846592
0
LINE
8
Calque 1
10
508.239842
20
219.846592
11
508.313750
21
219.746539
0
LINE
8
Calque 1
10
508.313750
20
219.746539
11
509.053740
21
219.317970
0
LINE
8
Calque 1
10
509.053740
20
219.317970
11
510.827230
21
218.652560
0
LINE
8
Calque 1
10
510.827230
20
218.652560
11
511.951710
21
218.956210
0
LINE
8
Calque 1
10
511.951710
20
218.956210
11
511.951710
21
218.956210
0
LINE
8
Calque 1
10
513.120890
20
222.381150
11
513.797826
21
222.745611
0
LINE
8
Calque 1
10
513.797826
20
222.745611
11
514.247460
21
223.211240
0
LINE
8
Calque 1
10
514.247460
20
223.211240
11
514.385765
21
223.636498
0
LINE
8
Calque 1
10
514.385765
20
223.636498
11
513.911140
21
223.600700
0
LINE
8
Calque 1
10
513.911140
20
223.600700
11
511.039390
21
222.980670
0
LINE
8
Calque 1
10
511.039390
20
222.980670
11
509.387295
21
222.567883
0
LINE
8
Calque 1
10
509.387295
20
222.567883
11
509.231900
21
222.436375
0
LINE
8
Calque 1
10
509.231900
20
222.436375
11
509.451890
21
222.325180
0
LINE
8
Calque 1
10
509.451890
20
222.325180
11
511.197070
21
222.115110
0
LINE
8
Calque 1
10
511.197070
20
222.115110
11
513.120890
21
222.381150
0
LINE
8
Calque 1
10
513.120890
20
222.381150
11
513.120890
21
222.381150
0
LINE
8
Calque 1
10
512.078960
20
225.944510
11
513.254093
21
226.438425
0
LINE
8
Calque 1
10
513.254093
20
226.438425
11
514.111360
21
227.041480
0
LINE
8
Calque 1
10
514.111360
20
227.041480
11
514.556949
21
227.666375
0
LINE
8
Calque 1
10
514.556949
20
227.666375
11
514.742280
21
228.212790
0
LINE
8
Calque 1
10
514.742280
20
228.212790
11
514.674076
21
228.559226
0
LINE
8
Calque 1
10
514.674076
20
228.559226
11
514.510090
21
228.703320
0
LINE
8
Calque 1
10
514.510090
20
228.703320
11
513.928360
21
228.282140
0
LINE
8
Calque 1
10
513.928360
20
228.282140
11
511.586390
21
226.694640
0
LINE
8
Calque 1
10
511.586390
20
226.694640
11
510.288225
21
225.847840
0
LINE
8
Calque 1
10
510.288225
20
225.847840
11
510.055738
21
225.611693
0
LINE
8
Calque 1
10
510.055738
20
225.611693
11
510.135730
21
225.528320
0
LINE
8
Calque 1
10
510.135730
20
225.528320
11
512.078960
21
225.944510
0
LINE
8
Calque 1
10
512.078960
20
225.944510
11
512.078960
21
225.944510
0
LINE
8
Calque 1
10
511.301930
20
229.628870
11
512.857240
21
230.970470
0
LINE
8
Calque 1
10
512.857240
20
230.970470
11
513.264941
21
231.750113
0
LINE
8
Calque 1
10
513.264941
20
231.750113
11
513.406940
21
232.641610
0
LINE
8
Calque 1
10
513.406940
20
232.641610
11
513.394540
21
233.598110
0
LINE
8
Calque 1
10
513.394540
20
233.598110
11
512.695920
21
232.672070
0
LINE
8
Calque 1
10
512.695920
20
232.672070
11
510.202800
21
229.976930
0
LINE
8
Calque 1
10
510.202800
20
229.976930
11
508.823729
21
228.535695
0
LINE
8
Calque 1
10
508.823729
20
228.535695
11
508.883126
21
228.432235
0
LINE
8
Calque 1
10
508.883126
20
228.432235
11
509.358530
21
228.604870
0
LINE
8
Calque 1
10
509.358530
20
228.604870
11
511.301950
21
229.628870
0
LINE
8
Calque 1
10
511.301950
20
229.628870
11
511.301930
21
229.628870
0
LINE
8
Calque 1
10
508.133710
20
231.904400
11
509.427883
21
233.102066
0
LINE
8
Calque 1
10
509.427883
20
233.102066
11
510.263130
21
234.087220
0
LINE
8
Calque 1
10
510.263130
20
234.087220
11
510.622494
21
234.915737
0
LINE
8
Calque 1
10
510.622494
20
234.915737
11
510.772540
21
235.736830
0
LINE
8
Calque 1
10
510.772540
20
235.736830
11
510.597430
21
236.728730
0
LINE
8
Calque 1
10
510.597430
20
236.728730
11
510.204879
21
236.369176
0
LINE
8
Calque 1
10
510.204879
20
236.369176
11
509.508300
21
235.257500
0
LINE
8
Calque 1
10
509.508300
20
235.257500
11
507.419980
21
232.082790
0
LINE
8
Calque 1
10
507.419980
20
232.082790
11
506.378710
21
230.555400
0
LINE
8
Calque 1
10
506.378710
20
230.555400
11
508.133710
21
231.904400
0
LINE
8
Calque 1
10
508.133710
20
231.904400
11
508.133710
21
231.904400
 0 
ENDSEC
 0 
EOF