999
"DXF R12 Output" (www.mydxf.blogspot.com)
 0 
SECTION
 2 
HEADER
 9 
$ACADVER
 1 
AC1009
 9 
$EXTMIN
 10 
 0 
 20 
 0 
 9 
$EXTMAX
 10 
 8.5 
 20 
 11 
 0 
ENDSEC
 0 
SECTION
 2 
ENTITIES
0
LINE
8
Calque 1
10
374.680000
20
305.356000
11
373.979630
21
308.266420
0
LINE
8
Calque 1
10
373.979630
20
308.266420
11
373.418250
21
311.176830
0
LINE
8
Calque 1
10
373.418250
20
311.176830
11
372.315790
21
316.468500
0
LINE
8
Calque 1
10
372.315790
20
316.468500
11
371.266490
21
321.231000
0
LINE
8
Calque 1
10
371.266490
20
321.231000
11
370.718030
21
323.612250
0
LINE
8
Calque 1
10
370.718030
20
323.612250
11
369.955690
21
325.861210
0
LINE
8
Calque 1
10
369.955690
20
325.861210
11
368.154080
21
330.868090
0
LINE
8
Calque 1
10
368.154080
20
330.868090
11
367.162826
21
334.075275
0
LINE
8
Calque 1
10
367.162826
20
334.075275
11
366.841450
21
335.498300
0
LINE
8
Calque 1
10
366.841450
20
335.498300
11
367.274285
21
335.236201
0
LINE
8
Calque 1
10
367.274285
20
335.236201
11
368.096370
21
334.391870
0
LINE
8
Calque 1
10
368.096370
20
334.391870
11
368.969879
21
333.503385
0
LINE
8
Calque 1
10
368.969879
20
333.503385
11
369.526370
21
333.135100
0
LINE
8
Calque 1
10
369.526370
20
333.135100
11
369.759948
21
333.203663
0
LINE
8
Calque 1
10
369.759948
20
333.203663
11
369.857100
21
333.365720
0
LINE
8
Calque 1
10
369.857100
20
333.365720
11
369.607570
21
334.909950
0
LINE
8
Calque 1
10
369.607570
20
334.909950
11
369.303030
21
337.658050
0
LINE
8
Calque 1
10
369.303030
20
337.658050
11
369.181981
21
338.774880
0
LINE
8
Calque 1
10
369.181981
20
338.774880
11
368.968120
21
339.448670
0
LINE
8
Calque 1
10
368.968120
20
339.448670
11
368.015890
21
340.064520
0
LINE
8
Calque 1
10
368.015890
20
340.064520
11
367.343550
21
340.322090
0
LINE
8
Calque 1
10
367.343550
20
340.322090
11
368.203450
21
340.685640
0
LINE
8
Calque 1
10
368.203450
20
340.685640
11
368.897301
21
341.135433
0
LINE
8
Calque 1
10
368.897301
20
341.135433
11
369.063340
21
341.859320
0
LINE
8
Calque 1
10
369.063340
20
341.859320
11
369.160493
21
342.589289
0
LINE
8
Calque 1
10
369.160493
20
342.589289
11
369.394070
21
343.206720
0
LINE
8
Calque 1
10
369.394070
20
343.206720
11
369.558439
21
343.731832
0
LINE
8
Calque 1
10
369.558439
20
343.731832
11
369.108910
21
344.211990
0
LINE
8
Calque 1
10
369.108910
20
344.211990
11
368.662384
21
344.660038
0
LINE
8
Calque 1
10
368.662384
20
344.660038
11
368.910470
21
345.026410
0
LINE
8
Calque 1
10
368.910470
20
345.026410
11
369.237340
21
345.746254
0
LINE
8
Calque 1
10
369.237340
20
345.746254
11
369.327930
21
347.439920
0
LINE
8
Calque 1
10
369.327930
20
347.439920
11
369.094240
21
350.119500
0
LINE
8
Calque 1
10
369.094240
20
350.119500
11
368.887919
21
350.448842
0
LINE
8
Calque 1
10
368.887919
20
350.448842
11
368.485188
21
350.709734
0
LINE
8
Calque 1
10
368.485188
20
350.709734
11
366.646840
21
351.226910
0
LINE
8
Calque 1
10
366.646840
20
351.226910
11
362.252630
21
352.248290
0
LINE
8
Calque 1
10
362.252630
20
352.248290
11
360.599735
21
352.576811
0
LINE
8
Calque 1
10
360.599735
20
352.576811
11
359.687750
21
352.627300
0
LINE
8
Calque 1
10
359.687750
20
352.627300
11
359.318575
21
352.188717
0
LINE
8
Calque 1
10
359.318575
20
352.188717
11
358.970730
21
351.341340
0
LINE
8
Calque 1
10
358.970730
20
351.341340
11
358.461810
21
350.070580
0
LINE
8
Calque 1
10
358.461810
20
350.070580
11
357.853620
21
348.442360
0
LINE
8
Calque 1
10
357.853620
20
348.442360
11
357.421680
21
346.188510
0
LINE
8
Calque 1
10
357.421680
20
346.188510
11
357.159018
21
345.273025
0
LINE
8
Calque 1
10
357.159018
20
345.273025
11
356.487950
21
344.112560
0
LINE
8
Calque 1
10
356.487950
20
344.112560
11
355.006610
21
341.934640
0
LINE
8
Calque 1
10
355.006610
20
341.934640
11
354.332970
21
341.074750
0
LINE
8
Calque 1
10
354.332970
20
341.074750
11
354.370670
21
343.522140
0
LINE
8
Calque 1
10
354.370670
20
343.522140
11
354.663870
21
346.812180
0
LINE
8
Calque 1
10
354.663870
20
346.812180
11
354.896070
21
347.484244
0
LINE
8
Calque 1
10
354.896070
20
347.484244
11
355.379940
21
347.738220
0
LINE
8
Calque 1
10
355.379940
20
347.738220
11
355.858495
21
347.988133
0
LINE
8
Calque 1
10
355.858495
20
347.988133
11
356.049410
21
348.681520
0
LINE
8
Calque 1
10
356.049410
20
348.681520
11
356.208449
21
349.298006
0
LINE
8
Calque 1
10
356.208449
20
349.298006
11
356.484120
21
349.541420
0
LINE
8
Calque 1
10
356.484120
20
349.541420
11
356.779764
21
349.664357
0
LINE
8
Calque 1
10
356.779764
20
349.664357
11
356.996530
21
349.959930
0
LINE
8
Calque 1
10
356.996530
20
349.959930
11
357.157120
21
351.282850
0
LINE
8
Calque 1
10
357.157120
20
351.282850
11
357.252296
21
351.970370
0
LINE
8
Calque 1
10
357.252296
20
351.970370
11
357.554000
21
352.187250
0
LINE
8
Calque 1
10
357.554000
20
352.187250
11
357.834290
21
352.297476
0
LINE
8
Calque 1
10
357.834290
20
352.297476
11
357.950870
21
352.562480
0
LINE
8
Calque 1
10
357.950870
20
352.562480
11
358.090350
21
353.301190
0
LINE
8
Calque 1
10
358.090350
20
353.301190
11
357.976622
21
353.576452
0
LINE
8
Calque 1
10
357.976622
20
353.576452
11
357.503759
21
354.040254
0
LINE
8
Calque 1
10
357.503759
20
354.040254
11
355.513160
21
355.505640
0
LINE
8
Calque 1
10
355.513160
20
355.505640
11
351.471080
21
358.337670
0
LINE
8
Calque 1
10
351.471080
20
358.337670
11
350.357694
21
359.037934
0
LINE
8
Calque 1
10
350.357694
20
359.037934
11
349.542050
21
359.329860
0
LINE
8
Calque 1
10
349.542050
20
359.329860
11
349.063673
21
359.194616
0
LINE
8
Calque 1
10
349.063673
20
359.194616
11
348.761170
21
358.867980
0
LINE
8
Calque 1
10
348.761170
20
358.867980
11
348.059310
21
357.979440
0
LINE
8
Calque 1
10
348.059310
20
357.979440
11
347.674896
21
357.514616
0
LINE
8
Calque 1
10
347.674896
20
357.514616
11
348.112610
21
356.819280
0
LINE
8
Calque 1
10
348.112610
20
356.819280
11
348.520731
21
356.155475
0
LINE
8
Calque 1
10
348.520731
20
356.155475
11
348.690480
21
355.591150
0
LINE
8
Calque 1
10
348.690480
20
355.591150
11
348.547650
21
355.097670
0
LINE
8
Calque 1
10
348.547650
20
355.097670
11
347.367560
21
355.626830
0
LINE
8
Calque 1
10
347.367560
20
355.626830
11
346.451903
21
356.000555
0
LINE
8
Calque 1
10
346.451903
20
356.000555
11
345.706990
21
356.156000
0
LINE
8
Calque 1
10
345.706990
20
356.156000
11
345.033836
21
355.913685
0
LINE
8
Calque 1
10
345.033836
20
355.913685
11
344.283500
21
355.296100
0
LINE
8
Calque 1
10
344.283500
20
355.296100
11
341.679340
21
352.848710
0
LINE
8
Calque 1
10
341.679340
20
352.848710
11
337.930650
21
349.318880
0
LINE
8
Calque 1
10
337.930650
20
349.318880
11
335.985940
21
347.376550
0
LINE
8
Calque 1
10
335.985940
20
347.376550
11
334.750950
21
347.797360
0
LINE
8
Calque 1
10
334.750950
20
347.797360
11
333.626805
21
348.084848
0
LINE
8
Calque 1
10
333.626805
20
348.084848
11
333.336721
21
347.985738
0
LINE
8
Calque 1
10
333.336721
20
347.985738
11
333.048270
21
347.716160
0
LINE
8
Calque 1
10
333.048270
20
347.716160
11
332.235010
21
347.093640
0
LINE
8
Calque 1
10
332.235010
20
347.093640
11
332.137636
21
346.916715
0
LINE
8
Calque 1
10
332.137636
20
346.916715
11
332.228415
21
346.491990
0
LINE
8
Calque 1
10
332.228415
20
346.491990
11
333.024170
21
344.751540
0
LINE
8
Calque 1
10
333.024170
20
344.751540
11
334.805760
21
341.471620
0
LINE
8
Calque 1
10
334.805760
20
341.471620
11
335.456960
21
340.119310
0
LINE
8
Calque 1
10
335.456960
20
340.119310
11
335.006680
21
339.868359
0
LINE
8
Calque 1
10
335.006680
20
339.868359
11
333.877590
21
339.681720
0
LINE
8
Calque 1
10
333.877590
20
339.681720
11
332.427666
21
339.430824
0
LINE
8
Calque 1
10
332.427666
20
339.430824
11
331.165610
21
339.029290
0
LINE
8
Calque 1
10
331.165610
20
339.029290
11
328.185270
21
337.706100
0
LINE
8
Calque 1
10
328.185270
20
337.706100
11
323.584880
21
335.659760
0
LINE
8
Calque 1
10
323.584880
20
335.659760
11
320.985336
21
334.305231
0
LINE
8
Calque 1
10
320.985336
20
334.305231
11
318.645660
21
332.736660
0
LINE
8
Calque 1
10
318.645660
20
332.736660
11
316.606194
21
331.304123
0
LINE
8
Calque 1
10
316.606194
20
331.304123
11
314.779390
21
330.234690
0
LINE
8
Calque 1
10
314.779390
20
330.234690
11
311.426730
21
328.442200
0
LINE
8
Calque 1
10
311.426730
20
328.442200
11
309.580830
21
327.144836
0
LINE
8
Calque 1
10
309.580830
20
327.144836
11
307.498140
21
325.404110
0
LINE
8
Calque 1
10
307.498140
20
325.404110
11
304.973980
21
323.347670
0
LINE
8
Calque 1
10
304.973980
20
323.347670
11
305.222343
21
323.833428
0
LINE
8
Calque 1
10
305.222343
20
323.833428
11
306.202630
21
325.001310
0
LINE
8
Calque 1
10
306.202630
20
325.001310
11
309.610330
21
329.219630
0
LINE
8
Calque 1
10
309.610330
20
329.219630
11
312.574850
21
333.434580
0
LINE
8
Calque 1
10
312.574850
20
333.434580
11
314.309240
21
336.426160
0
LINE
8
Calque 1
10
314.309240
20
336.426160
11
316.159960
21
339.884120
0
LINE
8
Calque 1
10
316.159960
20
339.884120
11
317.662730
21
342.926830
0
LINE
8
Calque 1
10
317.662730
20
342.926830
11
317.994830
21
344.277260
0
LINE
8
Calque 1
10
317.994830
20
344.277260
11
318.191875
21
344.786638
0
LINE
8
Calque 1
10
318.191875
20
344.786638
11
318.660270
21
345.415370
0
LINE
8
Calque 1
10
318.660270
20
345.415370
11
319.127425
21
346.071551
0
LINE
8
Calque 1
10
319.127425
20
346.071551
11
319.321730
21
346.646920
0
LINE
8
Calque 1
10
319.321730
20
346.646920
11
319.550603
21
347.328590
0
LINE
8
Calque 1
10
319.550603
20
347.328590
11
320.100880
21
348.240330
0
LINE
8
Calque 1
10
320.100880
20
348.240330
11
320.747689
21
349.441119
0
LINE
8
Calque 1
10
320.747689
20
349.441119
11
321.208670
21
350.817730
0
LINE
8
Calque 1
10
321.208670
20
350.817730
11
321.888280
21
353.179440
0
LINE
8
Calque 1
10
321.888280
20
353.179440
11
322.221998
21
353.786738
0
LINE
8
Calque 1
10
322.221998
20
353.786738
11
322.531490
21
354.039330
0
LINE
8
Calque 1
10
322.531490
20
354.039330
11
323.784710
21
353.222540
0
LINE
8
Calque 1
10
323.784710
20
353.222540
11
325.983490
21
351.238170
0
LINE
8
Calque 1
10
325.983490
20
351.238170
11
327.030155
21
350.410483
0
LINE
8
Calque 1
10
327.030155
20
350.410483
11
327.802500
21
350.070580
0
LINE
8
Calque 1
10
327.802500
20
350.070580
11
328.251386
21
350.202823
0
LINE
8
Calque 1
10
328.251386
20
350.202823
11
328.236870
21
350.798190
0
LINE
8
Calque 1
10
328.236870
20
350.798190
11
327.899490
21
352.018560
0
LINE
8
Calque 1
10
327.899490
20
352.018560
11
327.882793
21
352.398131
0
LINE
8
Calque 1
10
327.882793
20
352.398131
11
328.563400
21
352.323660
0
LINE
8
Calque 1
10
328.563400
20
352.323660
11
329.417850
21
352.135990
0
LINE
8
Calque 1
10
329.417850
20
352.135990
11
329.342850
21
353.549390
0
LINE
8
Calque 1
10
329.342850
20
353.549390
11
329.369025
21
354.707098
0
LINE
8
Calque 1
10
329.369025
20
354.707098
11
329.495316
21
354.948052
0
LINE
8
Calque 1
10
329.495316
20
354.948052
11
329.718750
21
355.049630
0
LINE
8
Calque 1
10
329.718750
20
355.049630
11
330.037205
21
355.258536
0
LINE
8
Calque 1
10
330.037205
20
355.258536
11
330.169660
21
355.638810
0
LINE
8
Calque 1
10
330.169660
20
355.638810
11
331.395129
21
357.246345
0
LINE
8
Calque 1
10
331.395129
20
357.246345
11
334.534950
21
360.580350
0
LINE
8
Calque 1
10
334.534950
20
360.580350
11
337.618035
21
363.813731
0
LINE
8
Calque 1
10
337.618035
20
363.813731
11
338.900580
21
365.353860
0
LINE
8
Calque 1
10
338.900580
20
365.353860
11
338.580200
21
366.201720
0
LINE
8
Calque 1
10
338.580200
20
366.201720
11
338.412186
21
366.622898
0
LINE
8
Calque 1
10
338.412186
20
366.622898
11
338.458590
21
366.914370
0
LINE
8
Calque 1
10
338.458590
20
366.914370
11
338.932488
21
366.872928
0
LINE
8
Calque 1
10
338.932488
20
366.872928
11
339.792260
21
366.493700
0
LINE
8
Calque 1
10
339.792260
20
366.493700
11
340.868158
21
366.022454
0
LINE
8
Calque 1
10
340.868158
20
366.022454
11
341.211791
21
366.088150
0
LINE
8
Calque 1
10
341.211791
20
366.088150
11
341.633660
21
366.337050
0
LINE
8
Calque 1
10
341.633660
20
366.337050
11
342.132865
21
366.768901
0
LINE
8
Calque 1
10
342.132865
20
366.768901
11
342.340500
21
367.156810
0
LINE
8
Calque 1
10
342.340500
20
367.156810
11
340.620710
21
370.890640
0
LINE
8
Calque 1
10
340.620710
20
370.890640
11
338.900910
21
374.545510
0
LINE
8
Calque 1
10
338.900910
20
374.545510
11
338.574160
21
374.953483
0
LINE
8
Calque 1
10
338.574160
20
374.953483
11
337.788560
21
375.544440
0
LINE
8
Calque 1
10
337.788560
20
375.544440
11
336.863129
21
376.015120
0
LINE
8
Calque 1
10
336.863129
20
376.015120
11
336.201060
21
376.132730
0
LINE
8
Calque 1
10
336.201060
20
376.132730
11
335.196750
21
375.849630
0
LINE
8
Calque 1
10
335.196750
20
375.849630
11
334.823025
21
375.817116
0
LINE
8
Calque 1
10
334.823025
20
375.817116
11
334.667580
21
375.949820
0
LINE
8
Calque 1
10
334.667580
20
375.949820
11
334.920174
21
376.220171
0
LINE
8
Calque 1
10
334.920174
20
376.220171
11
335.527480
21
376.518670
0
LINE
8
Calque 1
10
335.527480
20
376.518670
11
336.766570
21
377.031470
0
LINE
8
Calque 1
10
336.766570
20
377.031470
11
337.422670
21
377.664730
0
LINE
8
Calque 1
10
337.422670
20
377.664730
11
337.538843
21
378.173608
0
LINE
8
Calque 1
10
337.538843
20
378.173608
11
337.254980
21
378.856380
0
LINE
8
Calque 1
10
337.254980
20
378.856380
11
336.809000
21
380.385005
0
LINE
8
Calque 1
10
336.809000
20
380.385005
11
336.360800
21
383.162200
0
LINE
8
Calque 1
10
336.360800
20
383.162200
11
335.931080
21
385.869531
0
LINE
8
Calque 1
10
335.931080
20
385.869531
11
335.537930
21
387.020860
0
LINE
8
Calque 1
10
335.537930
20
387.020860
11
334.727123
21
387.291563
0
LINE
8
Calque 1
10
334.727123
20
387.291563
11
333.301930
21
387.513410
0
LINE
8
Calque 1
10
333.301930
20
387.513410
11
331.780494
21
387.752956
0
LINE
8
Calque 1
10
331.780494
20
387.752956
11
330.738300
21
388.066190
0
LINE
8
Calque 1
10
330.738300
20
388.066190
11
329.295230
21
388.433530
0
LINE
8
Calque 1
10
329.295230
20
388.433530
11
328.553090
21
388.435530
0
LINE
8
Calque 1
10
328.553090
20
388.435530
11
329.758250
21
386.956070
0
LINE
8
Calque 1
10
329.758250
20
386.956070
11
330.609395
21
385.809018
0
LINE
8
Calque 1
10
330.609395
20
385.809018
11
330.963410
21
385.128750
0
LINE
8
Calque 1
10
330.963410
20
385.128750
11
330.775816
21
384.905045
0
LINE
8
Calque 1
10
330.775816
20
384.905045
11
330.103520
21
385.002100
0
LINE
8
Calque 1
10
330.103520
20
385.002100
11
327.618010
21
385.485230
0
LINE
8
Calque 1
10
327.618010
20
385.485230
11
325.975925
21
385.917744
0
LINE
8
Calque 1
10
325.975925
20
385.917744
11
324.310710
21
386.589800
0
LINE
8
Calque 1
10
324.310710
20
386.589800
11
321.570710
21
387.815450
0
LINE
8
Calque 1
10
321.570710
20
387.815450
11
318.446750
21
388.459440
0
LINE
8
Calque 1
10
318.446750
20
388.459440
11
316.351133
21
388.846184
0
LINE
8
Calque 1
10
316.351133
20
388.846184
11
314.213410
21
389.409560
0
LINE
8
Calque 1
10
314.213410
20
389.409560
11
311.781120
21
390.290810
0
LINE
8
Calque 1
10
311.781120
20
390.290810
11
310.193620
21
390.785990
0
LINE
8
Calque 1
10
310.193620
20
390.785990
11
307.944660
21
391.217020
0
LINE
8
Calque 1
10
307.944660
20
391.217020
11
305.672550
21
391.510330
0
LINE
8
Calque 1
10
305.672550
20
391.510330
11
304.540584
21
391.763898
0
LINE
8
Calque 1
10
304.540584
20
391.763898
11
303.709270
21
392.141260
0
LINE
8
Calque 1
10
303.709270
20
392.141260
11
303.092060
21
392.606820
0
LINE
8
Calque 1
10
303.092060
20
392.606820
11
304.393880
21
392.777230
0
LINE
8
Calque 1
10
304.393880
20
392.777230
11
308.738410
21
393.219390
0
LINE
8
Calque 1
10
308.738410
20
393.219390
11
317.072790
21
393.692960
0
LINE
8
Calque 1
10
317.072790
20
393.692960
11
321.708703
21
393.961034
0
LINE
8
Calque 1
10
321.708703
20
393.961034
11
322.761561
21
394.173103
0
LINE
8
Calque 1
10
322.761561
20
394.173103
11
323.555080
21
394.510890
0
LINE
8
Calque 1
10
323.555080
20
394.510890
11
326.411840
21
396.178500
0
LINE
8
Calque 1
10
326.411840
20
396.178500
11
328.201250
21
397.106720
0
LINE
8
Calque 1
10
328.201250
20
397.106720
11
327.926540
21
396.030940
0
LINE
8
Calque 1
10
327.926540
20
396.030940
11
327.703933
21
395.290123
0
LINE
8
Calque 1
10
327.703933
20
395.290123
11
327.787220
21
394.918560
0
LINE
8
Calque 1
10
327.787220
20
394.918560
11
328.262404
21
394.886905
0
LINE
8
Calque 1
10
328.262404
20
394.886905
11
329.041630
21
395.035220
0
LINE
8
Calque 1
10
329.041630
20
395.035220
11
330.409110
21
395.313220
0
LINE
8
Calque 1
10
330.409110
20
395.313220
11
330.606478
21
395.207664
0
LINE
8
Calque 1
10
330.606478
20
395.207664
11
330.319810
21
394.805220
0
LINE
8
Calque 1
10
330.319810
20
394.805220
11
330.020826
21
394.307013
0
LINE
8
Calque 1
10
330.020826
20
394.307013
11
329.949460
21
393.824630
0
LINE
8
Calque 1
10
329.949460
20
393.824630
11
330.207433
21
393.437961
0
LINE
8
Calque 1
10
330.207433
20
393.437961
11
330.700260
21
393.169860
0
LINE
8
Calque 1
10
330.700260
20
393.169860
11
332.339370
21
392.959820
0
LINE
8
Calque 1
10
332.339370
20
392.959820
11
333.134780
21
392.821381
0
LINE
8
Calque 1
10
333.134780
20
392.821381
11
333.582010
21
392.470430
0
LINE
8
Calque 1
10
333.582010
20
392.470430
11
333.885208
21
392.155590
0
LINE
8
Calque 1
10
333.885208
20
392.155590
11
334.322760
21
392.343460
0
LINE
8
Calque 1
10
334.322760
20
392.343460
11
335.655170
21
393.072670
0
LINE
8
Calque 1
10
335.655170
20
393.072670
11
336.303281
21
393.523756
0
LINE
8
Calque 1
10
336.303281
20
393.523756
11
336.648400
21
394.059540
0
LINE
8
Calque 1
10
336.648400
20
394.059540
11
337.158100
21
396.373030
0
LINE
8
Calque 1
10
337.158100
20
396.373030
11
338.138340
21
400.675800
0
LINE
8
Calque 1
10
338.138340
20
400.675800
11
338.746850
21
403.258780
0
LINE
8
Calque 1
10
338.746850
20
403.258780
11
337.045610
21
404.975280
0
LINE
8
Calque 1
10
337.045610
20
404.975280
11
335.926849
21
406.187560
0
LINE
8
Calque 1
10
335.926849
20
406.187560
11
335.626030
21
406.691780
0
LINE
8
Calque 1
10
335.626030
20
406.691780
11
337.445750
21
406.162620
0
LINE
8
Calque 1
10
337.445750
20
406.162620
11
339.553330
21
405.633450
0
LINE
8
Calque 1
10
339.553330
20
405.633450
11
340.250919
21
406.015000
0
LINE
8
Calque 1
10
340.250919
20
406.015000
11
341.231700
21
407.240330
0
LINE
8
Calque 1
10
341.231700
20
407.240330
11
342.340540
21
409.073210
0
LINE
8
Calque 1
10
342.340540
20
409.073210
11
342.950970
21
409.781430
0
LINE
8
Calque 1
10
342.950970
20
409.781430
11
344.684150
21
411.956170
0
LINE
8
Calque 1
10
344.684150
20
411.956170
11
345.434876
21
413.261526
0
LINE
8
Calque 1
10
345.434876
20
413.261526
11
345.663190
21
414.023200
0
LINE
8
Calque 1
10
345.663190
20
414.023200
11
345.294226
21
414.279003
0
LINE
8
Calque 1
10
345.294226
20
414.279003
11
344.325390
21
414.218650
0
LINE
8
Calque 1
10
344.325390
20
414.218650
11
343.131310
21
414.039590
0
LINE
8
Calque 1
10
343.131310
20
414.039590
11
342.613070
21
415.211150
0
LINE
8
Calque 1
10
342.613070
20
415.211150
11
340.332530
21
419.011730
0
LINE
8
Calque 1
10
340.332530
20
419.011730
11
337.200330
21
423.360530
0
LINE
8
Calque 1
10
337.200330
20
423.360530
11
335.513620
21
425.820380
0
LINE
8
Calque 1
10
335.513620
20
425.820380
11
335.196790
21
426.819360
0
LINE
8
Calque 1
10
335.196790
20
426.819360
11
335.449383
21
426.874658
0
LINE
8
Calque 1
10
335.449383
20
426.874658
11
336.056680
21
426.644010
0
LINE
8
Calque 1
10
336.056680
20
426.644010
11
339.297830
21
424.871460
0
LINE
8
Calque 1
10
339.297830
20
424.871460
11
342.828800
21
422.798730
0
LINE
8
Calque 1
10
342.828800
20
422.798730
11
344.041414
21
422.200225
0
LINE
8
Calque 1
10
344.041414
20
422.200225
11
345.342340
21
421.792640
0
LINE
8
Calque 1
10
345.342340
20
421.792640
11
348.227520
21
421.363400
0
LINE
8
Calque 1
10
348.227520
20
421.363400
11
349.369289
21
421.156710
0
LINE
8
Calque 1
10
349.369289
20
421.156710
11
349.748870
21
420.851470
0
LINE
8
Calque 1
10
349.748870
20
420.851470
11
349.509744
21
420.400026
0
LINE
8
Calque 1
10
349.509744
20
420.400026
11
348.934820
21
419.812180
0
LINE
8
Calque 1
10
348.934820
20
419.812180
11
348.249276
21
419.328413
0
LINE
8
Calque 1
10
348.249276
20
419.328413
11
347.744190
21
419.127200
0
LINE
8
Calque 1
10
347.744190
20
419.127200
11
347.478239
21
419.028661
0
LINE
8
Calque 1
10
347.478239
20
419.028661
11
347.367620
21
418.791740
0
LINE
8
Calque 1
10
347.367620
20
418.791740
11
348.038620
21
417.468830
0
LINE
8
Calque 1
10
348.038620
20
417.468830
11
348.588621
21
416.771434
0
LINE
8
Calque 1
10
348.588621
20
416.771434
11
348.968710
21
416.481370
0
LINE
8
Calque 1
10
348.968710
20
416.481370
11
351.137420
21
417.870430
0
LINE
8
Calque 1
10
351.137420
20
417.870430
11
353.845350
21
419.722690
0
LINE
8
Calque 1
10
353.845350
20
419.722690
11
356.037800
21
420.834850
0
LINE
8
Calque 1
10
356.037800
20
420.834850
11
357.485841
21
421.384358
0
LINE
8
Calque 1
10
357.485841
20
421.384358
11
359.009580
21
421.794200
0
LINE
8
Calque 1
10
359.009580
20
421.794200
11
361.030230
21
422.428510
0
LINE
8
Calque 1
10
361.030230
20
422.428510
11
361.251553
21
422.639232
0
LINE
8
Calque 1
10
361.251553
20
422.639232
11
361.342961
21
422.907431
0
LINE
8
Calque 1
10
361.342961
20
422.907431
11
361.167300
21
423.967400
0
LINE
8
Calque 1
10
361.167300
20
423.967400
11
360.870880
21
426.718840
0
LINE
8
Calque 1
10
360.870880
20
426.718840
11
360.879880
21
428.255330
0
LINE
8
Calque 1
10
360.879880
20
428.255330
11
361.768690
21
426.361370
0
LINE
8
Calque 1
10
361.768690
20
426.361370
11
362.579429
21
424.904539
0
LINE
8
Calque 1
10
362.579429
20
424.904539
11
363.280540
21
424.061560
0
LINE
8
Calque 1
10
363.280540
20
424.061560
11
363.727793
21
423.862601
0
LINE
8
Calque 1
10
363.727793
20
423.862601
11
364.414858
21
423.768258
0
LINE
8
Calque 1
10
364.414858
20
423.768258
11
367.269870
21
423.853750
0
LINE
8
Calque 1
10
367.269870
20
423.853750
11
369.707703
21
424.054528
0
LINE
8
Calque 1
10
369.707703
20
424.054528
11
370.841750
21
424.259160
0
LINE
8
Calque 1
10
370.841750
20
424.259160
11
370.978831
21
425.445680
0
LINE
8
Calque 1
10
370.978831
20
425.445680
11
371.019710
21
428.007190
0
LINE
8
Calque 1
10
371.019710
20
428.007190
11
370.917671
21
430.783064
0
LINE
8
Calque 1
10
370.917671
20
430.783064
11
370.659010
21
431.949190
0
LINE
8
Calque 1
10
370.659010
20
431.949190
11
370.341640
21
432.181889
0
LINE
8
Calque 1
10
370.341640
20
432.181889
11
370.046350
21
432.177760
0
LINE
8
Calque 1
10
370.046350
20
432.177760
11
369.889238
21
432.178328
0
LINE
8
Calque 1
10
369.889238
20
432.178328
11
369.966650
21
432.511400
0
LINE
8
Calque 1
10
369.966650
20
432.511400
11
370.560310
21
434.737620
0
LINE
8
Calque 1
10
370.560310
20
434.737620
11
371.202650
21
437.780330
0
LINE
8
Calque 1
10
371.202650
20
437.780330
11
371.591990
21
439.963140
0
LINE
8
Calque 1
10
371.591990
20
439.963140
11
371.756174
21
440.570438
0
LINE
8
Calque 1
10
371.756174
20
440.570438
11
371.953260
21
440.823030
0
LINE
8
Calque 1
10
371.953260
20
440.823030
11
372.453770
21
440.095430
0
LINE
8
Calque 1
10
372.453770
20
440.095430
11
373.296260
21
437.004410
0
LINE
8
Calque 1
10
373.296260
20
437.004410
11
374.238970
21
433.730950
0
LINE
8
Calque 1
10
374.238970
20
433.730950
11
374.619210
21
432.028610
0
LINE
8
Calque 1
10
374.619210
20
432.028610
11
374.519684
21
431.408021
0
LINE
8
Calque 1
10
374.519684
20
431.408021
11
374.078000
21
431.377840
0
LINE
8
Calque 1
10
374.078000
20
431.377840
11
373.787463
21
431.417628
0
LINE
8
Calque 1
10
373.787463
20
431.417628
11
373.624810
21
431.296994
0
LINE
8
Calque 1
10
373.624810
20
431.296994
11
373.540500
21
430.284220
0
LINE
8
Calque 1
10
373.540500
20
430.284220
11
373.515500
21
428.123030
0
LINE
8
Calque 1
10
373.515500
20
428.123030
11
373.532400
21
426.403240
0
LINE
8
Calque 1
10
373.532400
20
426.403240
11
373.503400
21
424.821760
0
LINE
8
Calque 1
10
373.503400
20
424.821760
11
373.511314
21
424.353796
0
LINE
8
Calque 1
10
373.511314
20
424.353796
11
373.804838
21
424.002886
0
LINE
8
Calque 1
10
373.804838
20
424.002886
11
376.206800
21
423.010140
0
LINE
8
Calque 1
10
376.206800
20
423.010140
11
380.743610
21
421.617210
0
LINE
8
Calque 1
10
380.743610
20
421.617210
11
382.917440
21
421.088870
0
LINE
8
Calque 1
10
382.917440
20
421.088870
11
383.167031
21
421.107077
0
LINE
8
Calque 1
10
383.167031
20
421.107077
11
383.481320
21
421.350369
0
LINE
8
Calque 1
10
383.481320
20
421.350369
11
384.397370
21
422.608070
0
LINE
8
Calque 1
10
384.397370
20
422.608070
11
385.150136
21
423.924941
0
LINE
8
Calque 1
10
385.150136
20
423.924941
11
385.464700
21
424.733980
0
LINE
8
Calque 1
10
385.464700
20
424.733980
11
385.553795
21
425.104013
0
LINE
8
Calque 1
10
385.553795
20
425.104013
11
385.764960
21
425.365400
0
LINE
8
Calque 1
10
385.764960
20
425.365400
11
385.955683
21
425.292910
0
LINE
8
Calque 1
10
385.955683
20
425.292910
11
385.909810
21
424.653420
0
LINE
8
Calque 1
10
385.909810
20
424.653420
11
385.584960
21
422.917460
0
LINE
8
Calque 1
10
385.584960
20
422.917460
11
385.558119
21
422.037630
0
LINE
8
Calque 1
10
385.558119
20
422.037630
11
385.735030
21
421.101790
0
LINE
8
Calque 1
10
385.735030
20
421.101790
11
386.283855
21
420.100473
0
LINE
8
Calque 1
10
386.283855
20
420.100473
11
387.151190
21
419.063200
0
LINE
8
Calque 1
10
387.151190
20
419.063200
11
389.832840
21
416.922700
0
LINE
8
Calque 1
10
389.832840
20
416.922700
11
392.565090
21
414.972600
0
LINE
8
Calque 1
10
392.565090
20
414.972600
11
393.552845
21
414.356413
0
LINE
8
Calque 1
10
393.552845
20
414.356413
11
394.320160
21
414.100120
0
LINE
8
Calque 1
10
394.320160
20
414.100120
11
394.806979
21
414.238610
0
LINE
8
Calque 1
10
394.806979
20
414.238610
11
395.068880
21
414.629280
0
LINE
8
Calque 1
10
395.068880
20
414.629280
11
395.319251
21
415.010280
0
LINE
8
Calque 1
10
395.319251
20
415.010280
11
395.745580
21
415.158450
0
LINE
8
Calque 1
10
395.745580
20
415.158450
11
396.177710
21
415.242488
0
LINE
8
Calque 1
10
396.177710
20
415.242488
11
396.460710
21
415.444530
0
LINE
8
Calque 1
10
396.460710
20
415.444530
11
396.369006
21
415.872619
0
LINE
8
Calque 1
10
396.369006
20
415.872619
11
395.900300
21
416.500110
0
LINE
8
Calque 1
10
395.900300
20
416.500110
11
395.425046
21
417.088970
0
LINE
8
Calque 1
10
395.425046
20
417.088970
11
395.317660
21
417.424180
0
LINE
8
Calque 1
10
395.317660
20
417.424180
11
397.282750
21
417.884180
0
LINE
8
Calque 1
10
397.282750
20
417.884180
11
398.794545
21
418.256094
0
LINE
8
Calque 1
10
398.794545
20
418.256094
11
399.575480
21
418.790690
0
LINE
8
Calque 1
10
399.575480
20
418.790690
11
400.125100
21
419.227263
0
LINE
8
Calque 1
10
400.125100
20
419.227263
11
400.786140
21
419.391780
0
LINE
8
Calque 1
10
400.786140
20
419.391780
11
401.485018
21
419.574419
0
LINE
8
Calque 1
10
401.485018
20
419.574419
11
402.135970
21
420.053240
0
LINE
8
Calque 1
10
402.135970
20
420.053240
11
402.671721
21
420.520395
0
LINE
8
Calque 1
10
402.671721
20
420.520395
11
403.087180
21
420.714700
0
LINE
8
Calque 1
10
403.087180
20
420.714700
11
405.574820
21
421.624760
0
LINE
8
Calque 1
10
405.574820
20
421.624760
11
407.359691
21
422.466488
0
LINE
8
Calque 1
10
407.359691
20
422.466488
11
408.620830
21
423.212260
0
LINE
8
Calque 1
10
408.620830
20
423.212260
11
409.664200
21
423.889700
0
LINE
8
Calque 1
10
409.664200
20
423.889700
11
410.867220
21
424.551160
0
LINE
8
Calque 1
10
410.867220
20
424.551160
11
412.179630
21
425.212620
0
LINE
8
Calque 1
10
412.179630
20
425.212620
11
411.959999
21
424.627456
0
LINE
8
Calque 1
10
411.959999
20
424.627456
11
411.060410
21
423.220570
0
LINE
8
Calque 1
10
411.060410
20
423.220570
11
407.497950
21
418.259630
0
LINE
8
Calque 1
10
407.497950
20
418.259630
11
403.951300
21
413.107930
0
LINE
8
Calque 1
10
403.951300
20
413.107930
11
402.359640
21
410.925120
0
LINE
8
Calque 1
10
402.359640
20
410.925120
11
402.201673
21
411.122944
0
LINE
8
Calque 1
10
402.201673
20
411.122944
11
402.135970
21
411.598560
0
LINE
8
Calque 1
10
402.135970
20
411.598560
11
402.111734
21
411.966064
0
LINE
8
Calque 1
10
402.111734
20
411.966064
11
401.988659
21
412.147414
0
LINE
8
Calque 1
10
401.988659
20
412.147414
11
401.143780
21
412.106280
0
LINE
8
Calque 1
10
401.143780
20
412.106280
11
400.184095
21
411.748208
0
LINE
8
Calque 1
10
400.184095
20
411.748208
11
399.291700
21
410.991870
0
LINE
8
Calque 1
10
399.291700
20
410.991870
11
398.684403
21
410.189314
0
LINE
8
Calque 1
10
398.684403
20
410.189314
11
398.431810
21
409.591920
0
LINE
8
Calque 1
10
398.431810
20
409.591920
11
398.845209
21
408.583218
0
LINE
8
Calque 1
10
398.845209
20
408.583218
11
399.839130
21
406.791740
0
LINE
8
Calque 1
10
399.839130
20
406.791740
11
401.929120
21
402.947770
0
LINE
8
Calque 1
10
401.929120
20
402.947770
11
402.569403
21
401.824374
0
LINE
8
Calque 1
10
402.569403
20
401.824374
11
403.143190
21
401.284050
0
LINE
8
Calque 1
10
403.143190
20
401.284050
11
403.563378
21
401.047944
0
LINE
8
Calque 1
10
403.563378
20
401.047944
11
403.827400
21
400.717180
0
LINE
8
Calque 1
10
403.827400
20
400.717180
11
404.061069
21
400.458575
0
LINE
8
Calque 1
10
404.061069
20
400.458575
11
404.535960
21
400.616400
0
LINE
8
Calque 1
10
404.535960
20
400.616400
11
405.234560
21
400.770970
0
LINE
8
Calque 1
10
405.234560
20
400.770970
11
405.092541
21
400.465660
0
LINE
8
Calque 1
10
405.092541
20
400.465660
11
404.550450
21
399.932260
0
LINE
8
Calque 1
10
404.550450
20
399.932260
11
403.966395
21
399.328411
0
LINE
8
Calque 1
10
403.966395
20
399.328411
11
403.723470
21
398.853750
0
LINE
8
Calque 1
10
403.723470
20
398.853750
11
404.084890
21
397.885080
0
LINE
8
Calque 1
10
404.084890
20
397.885080
11
404.549991
21
396.499696
0
LINE
8
Calque 1
10
404.549991
20
396.499696
11
405.160690
21
393.991780
0
LINE
8
Calque 1
10
405.160690
20
393.991780
11
406.097460
21
390.457870
0
LINE
8
Calque 1
10
406.097460
20
390.457870
11
408.395100
21
389.739300
0
LINE
8
Calque 1
10
408.395100
20
389.739300
11
411.550730
21
389.238320
0
LINE
8
Calque 1
10
411.550730
20
389.238320
11
412.767640
21
389.365810
0
LINE
8
Calque 1
10
412.767640
20
389.365810
11
412.545920
21
390.883460
0
LINE
8
Calque 1
10
412.545920
20
390.883460
11
412.255050
21
392.428440
0
LINE
8
Calque 1
10
412.255050
20
392.428440
11
414.240660
21
392.073240
0
LINE
8
Calque 1
10
414.240660
20
392.073240
11
415.655475
21
391.593634
0
LINE
8
Calque 1
10
415.655475
20
391.593634
11
416.158890
21
391.185480
0
LINE
8
Calque 1
10
416.158890
20
391.185480
11
416.230135
21
390.925088
0
LINE
8
Calque 1
10
416.230135
20
390.925088
11
416.401430
21
390.816780
0
LINE
8
Calque 1
10
416.401430
20
390.816780
11
416.740220
21
391.105560
0
LINE
8
Calque 1
10
416.740220
20
391.105560
11
417.569629
21
391.065669
0
LINE
8
Calque 1
10
417.569629
20
391.065669
11
419.738830
21
390.425080
0
LINE
8
Calque 1
10
419.738830
20
390.425080
11
421.955288
21
389.584833
0
LINE
8
Calque 1
10
421.955288
20
389.584833
11
423.208580
21
388.925770
0
LINE
8
Calque 1
10
423.208580
20
388.925770
11
423.687985
21
388.592096
0
LINE
8
Calque 1
10
423.687985
20
388.592096
11
423.967200
21
388.705130
0
LINE
8
Calque 1
10
423.967200
20
388.705130
11
424.268010
21
388.884073
0
LINE
8
Calque 1
10
424.268010
20
388.884073
11
424.722720
21
388.879820
0
LINE
8
Calque 1
10
424.722720
20
388.879820
11
428.329720
21
387.799320
0
LINE
8
Calque 1
10
428.329720
20
387.799320
11
431.950520
21
386.850780
0
LINE
8
Calque 1
10
431.950520
20
386.850780
11
433.243990
21
386.576050
0
LINE
8
Calque 1
10
433.243990
20
386.576050
11
433.709875
21
386.344614
0
LINE
8
Calque 1
10
433.709875
20
386.344614
11
433.825420
21
386.170110
0
LINE
8
Calque 1
10
433.825420
20
386.170110
11
432.120160
21
385.783120
0
LINE
8
Calque 1
10
432.120160
20
385.783120
11
428.843970
21
384.994560
0
LINE
8
Calque 1
10
428.843970
20
384.994560
11
425.683890
21
384.030160
0
LINE
8
Calque 1
10
425.683890
20
384.030160
11
421.847430
21
382.738390
0
LINE
8
Calque 1
10
421.847430
20
382.738390
11
416.704210
21
380.795800
0
LINE
8
Calque 1
10
416.704210
20
380.795800
11
414.710013
21
380.076795
0
LINE
8
Calque 1
10
414.710013
20
380.076795
11
413.793970
21
379.864340
0
LINE
8
Calque 1
10
413.793970
20
379.864340
11
413.923990
21
380.178750
0
LINE
8
Calque 1
10
413.923990
20
380.178750
11
414.444730
21
380.726530
0
LINE
8
Calque 1
10
414.444730
20
380.726530
11
415.243750
21
381.440450
0
LINE
8
Calque 1
10
415.243750
20
381.440450
11
414.291720
21
381.895280
0
LINE
8
Calque 1
10
414.291720
20
381.895280
11
412.865659
21
382.255079
0
LINE
8
Calque 1
10
412.865659
20
382.255079
11
410.119080
21
382.350120
0
LINE
8
Calque 1
10
410.119080
20
382.350120
11
407.357615
21
382.262831
0
LINE
8
Calque 1
10
407.357615
20
382.262831
11
406.759872
21
382.107242
0
LINE
8
Calque 1
10
406.759872
20
382.107242
11
406.384060
21
381.835710
0
LINE
8
Calque 1
10
406.384060
20
381.835710
11
405.971345
21
381.176615
0
LINE
8
Calque 1
10
405.971345
20
381.176615
11
405.701430
21
380.314360
0
LINE
8
Calque 1
10
405.701430
20
380.314360
11
405.136870
21
377.984490
0
LINE
8
Calque 1
10
405.136870
20
377.984490
11
404.410100
21
374.736840
0
LINE
8
Calque 1
10
404.410100
20
374.736840
11
404.210036
21
373.074581
0
LINE
8
Calque 1
10
404.210036
20
373.074581
11
404.445700
21
372.289440
0
LINE
8
Calque 1
10
404.445700
20
372.289440
11
404.862964
21
371.920318
0
LINE
8
Calque 1
10
404.862964
20
371.920318
11
405.352100
21
371.766790
0
LINE
8
Calque 1
10
405.352100
20
371.766790
11
406.858460
21
371.346220
0
LINE
8
Calque 1
10
406.858460
20
371.346220
11
408.526770
21
370.552470
0
LINE
8
Calque 1
10
408.526770
20
370.552470
11
409.249419
21
370.288911
0
LINE
8
Calque 1
10
409.249419
20
370.288911
11
410.000680
21
370.179290
0
LINE
8
Calque 1
10
410.000680
20
370.179290
11
410.964171
21
369.965553
0
LINE
8
Calque 1
10
410.964171
20
369.965553
11
412.197100
21
369.451680
0
LINE
8
Calque 1
10
412.197100
20
369.451680
11
413.229269
21
368.850981
0
LINE
8
Calque 1
10
413.229269
20
368.850981
11
413.710090
21
368.428490
0
LINE
8
Calque 1
10
413.710090
20
368.428490
11
413.526458
21
368.170543
0
LINE
8
Calque 1
10
413.526458
20
368.170543
11
412.961120
21
367.965470
0
LINE
8
Calque 1
10
412.961120
20
367.965470
11
411.225320
21
367.798040
0
LINE
8
Calque 1
10
411.225320
20
367.798040
11
410.450139
21
367.935205
0
LINE
8
Calque 1
10
410.450139
20
367.935205
11
410.024660
21
368.460900
0
LINE
8
Calque 1
10
410.024660
20
368.460900
11
409.536751
21
369.028991
0
LINE
8
Calque 1
10
409.536751
20
369.028991
11
408.674240
21
369.406080
0
LINE
8
Calque 1
10
408.674240
20
369.406080
11
406.269960
21
370.325880
0
LINE
8
Calque 1
10
406.269960
20
370.325880
11
404.274140
21
371.034350
0
LINE
8
Calque 1
10
404.274140
20
371.034350
11
403.906368
21
371.001989
0
LINE
8
Calque 1
10
403.906368
20
371.001989
11
403.558788
21
370.754554
0
LINE
8
Calque 1
10
403.558788
20
370.754554
11
402.580800
21
369.253240
0
LINE
8
Calque 1
10
402.580800
20
369.253240
11
399.913440
21
365.298280
0
LINE
8
Calque 1
10
399.913440
20
365.298280
11
397.573010
21
362.123280
0
LINE
8
Calque 1
10
397.573010
20
362.123280
11
397.059608
21
361.197396
0
LINE
8
Calque 1
10
397.059608
20
361.197396
11
396.845410
21
360.476870
0
LINE
8
Calque 1
10
396.845410
20
360.476870
11
397.021899
21
359.992044
0
LINE
8
Calque 1
10
397.021899
20
359.992044
11
397.637430
21
359.728370
0
LINE
8
Calque 1
10
397.637430
20
359.728370
11
398.466898
21
359.293935
0
LINE
8
Calque 1
10
398.466898
20
359.293935
11
399.357220
21
358.423330
0
LINE
8
Calque 1
10
399.357220
20
358.423330
11
400.283860
21
357.017320
0
LINE
8
Calque 1
10
400.283860
20
357.017320
11
400.406798
21
356.775806
0
LINE
8
Calque 1
10
400.406798
20
356.775806
11
400.702370
21
356.581550
0
LINE
8
Calque 1
10
400.702370
20
356.581550
11
401.475820
21
356.420950
0
LINE
8
Calque 1
10
401.475820
20
356.420950
11
402.644810
21
357.105930
0
LINE
8
Calque 1
10
402.644810
20
357.105930
11
403.219734
21
357.700871
0
LINE
8
Calque 1
10
403.219734
20
357.700871
11
403.458860
21
358.169370
0
LINE
8
Calque 1
10
403.458860
20
358.169370
11
404.177430
21
360.394810
0
LINE
8
Calque 1
10
404.177430
20
360.394810
11
405.061010
21
362.241790
0
LINE
8
Calque 1
10
405.061010
20
362.241790
11
405.533060
21
361.567880
0
LINE
8
Calque 1
10
405.533060
20
361.567880
11
405.840110
21
360.574770
0
LINE
8
Calque 1
10
405.840110
20
360.574770
11
406.766150
21
358.346670
0
LINE
8
Calque 1
10
406.766150
20
358.346670
11
407.692190
21
356.147120
0
LINE
8
Calque 1
10
407.692190
20
356.147120
11
408.330120
21
355.014240
0
LINE
8
Calque 1
10
408.330120
20
355.014240
11
410.182200
21
351.425890
0
LINE
8
Calque 1
10
410.182200
20
351.425890
11
411.396360
21
348.317040
0
LINE
8
Calque 1
10
411.396360
20
348.317040
11
411.282510
21
348.060849
0
LINE
8
Calque 1
10
411.282510
20
348.060849
11
411.008790
21
347.954290
0
LINE
8
Calque 1
10
411.008790
20
347.954290
11
410.656749
21
347.807938
0
LINE
8
Calque 1
10
410.656749
20
347.807938
11
410.354590
21
347.456070
0
LINE
8
Calque 1
10
410.354590
20
347.456070
11
410.258680
21
347.174045
0
LINE
8
Calque 1
10
410.258680
20
347.174045
11
410.331851
21
346.915425
0
LINE
8
Calque 1
10
410.331851
20
346.915425
11
411.137270
21
346.230690
0
LINE
8
Calque 1
10
411.137270
20
346.230690
11
412.207129
21
345.202711
0
LINE
8
Calque 1
10
412.207129
20
345.202711
11
413.305840
21
343.752340
0
LINE
8
Calque 1
10
413.305840
20
343.752340
11
415.575320
21
340.016790
0
LINE
8
Calque 1
10
415.575320
20
340.016790
11
417.363260
21
336.477720
0
LINE
8
Calque 1
10
417.363260
20
336.477720
11
417.771658
21
335.311791
0
LINE
8
Calque 1
10
417.771658
20
335.311791
11
417.858050
21
334.691780
0
LINE
8
Calque 1
10
417.858050
20
334.691780
11
417.826900
21
334.528468
0
LINE
8
Calque 1
10
417.826900
20
334.528468
11
417.952650
21
334.460540
0
LINE
8
Calque 1
10
417.952650
20
334.460540
11
418.440814
21
333.974781
0
LINE
8
Calque 1
10
418.440814
20
333.974781
11
419.280930
21
332.806890
0
LINE
8
Calque 1
10
419.280930
20
332.806890
11
420.933170
21
330.425640
0
LINE
8
Calque 1
10
420.933170
20
330.425640
11
421.245520
21
329.911773
0
LINE
8
Calque 1
10
421.245520
20
329.911773
11
421.208010
21
329.698040
0
LINE
8
Calque 1
10
421.208010
20
329.698040
11
421.005563
21
329.775760
0
LINE
8
Calque 1
10
421.005563
20
329.775760
11
420.921360
21
329.962620
0
LINE
8
Calque 1
10
420.921360
20
329.962620
11
420.863068
21
330.132970
0
LINE
8
Calque 1
10
420.863068
20
330.132970
11
420.722920
21
330.170990
0
LINE
8
Calque 1
10
420.722920
20
330.170990
11
419.863030
21
330.471610
0
LINE
8
Calque 1
10
419.863030
20
330.471610
11
417.878650
21
331.944120
0
LINE
8
Calque 1
10
417.878650
20
331.944120
11
415.629690
21
333.525790
0
LINE
8
Calque 1
10
415.629690
20
333.525790
11
414.042190
21
334.573580
0
LINE
8
Calque 1
10
414.042190
20
334.573580
11
412.719280
21
335.606890
0
LINE
8
Calque 1
10
412.719280
20
335.606890
11
409.478100
21
337.798400
0
LINE
8
Calque 1
10
409.478100
20
337.798400
11
407.529063
21
339.242436
0
LINE
8
Calque 1
10
407.529063
20
339.242436
11
406.465670
21
340.270890
0
LINE
8
Calque 1
10
406.465670
20
340.270890
11
405.942366
21
340.916824
0
LINE
8
Calque 1
10
405.942366
20
340.916824
11
405.291840
21
341.441190
0
LINE
8
Calque 1
10
405.291840
20
341.441190
11
403.409480
21
342.951260
0
LINE
8
Calque 1
10
403.409480
20
342.951260
11
402.331450
21
343.827979
0
LINE
8
Calque 1
10
402.331450
20
343.827979
11
401.342190
21
344.430070
0
LINE
8
Calque 1
10
401.342190
20
344.430070
11
398.431780
21
345.311070
0
LINE
8
Calque 1
10
398.431780
20
345.311070
11
394.930570
21
346.406890
0
LINE
8
Calque 1
10
394.930570
20
346.406890
11
393.409210
21
347.226680
0
LINE
8
Calque 1
10
393.409210
20
347.226680
11
393.552599
21
347.366828
0
LINE
8
Calque 1
10
393.552599
20
347.366828
11
393.903070
21
347.425120
0
LINE
8
Calque 1
10
393.903070
20
347.425120
11
394.534148
21
347.734046
0
LINE
8
Calque 1
10
394.534148
20
347.734046
11
395.351570
21
348.476780
0
LINE
8
Calque 1
10
395.351570
20
348.476780
11
396.072881
21
349.419911
0
LINE
8
Calque 1
10
396.072881
20
349.419911
11
396.472900
21
350.210620
0
LINE
8
Calque 1
10
396.472900
20
350.210620
11
396.490017
21
350.641250
0
LINE
8
Calque 1
10
396.490017
20
350.641250
11
396.250290
21
351.155096
0
LINE
8
Calque 1
10
396.250290
20
351.155096
11
394.583330
21
353.061560
0
LINE
8
Calque 1
10
394.583330
20
353.061560
11
391.890530
21
355.825640
0
LINE
8
Calque 1
10
391.890530
20
355.825640
11
390.916880
21
356.420950
0
LINE
8
Calque 1
10
390.916880
20
356.420950
11
390.040360
21
355.957050
0
LINE
8
Calque 1
10
390.040360
20
355.957050
11
387.949360
21
354.783010
0
LINE
8
Calque 1
10
387.949360
20
354.783010
11
384.871880
21
353.409460
0
LINE
8
Calque 1
10
384.871880
20
353.409460
11
383.718115
21
352.790518
0
LINE
8
Calque 1
10
383.718115
20
352.790518
11
383.350530
21
352.266660
0
LINE
8
Calque 1
10
383.350530
20
352.266660
11
383.618270
21
350.862960
0
LINE
8
Calque 1
10
383.618270
20
350.862960
11
383.756684
21
349.755773
0
LINE
8
Calque 1
10
383.756684
20
349.755773
11
383.713470
21
348.391770
0
LINE
8
Calque 1
10
383.713470
20
348.391770
11
383.540950
21
346.844880
0
LINE
8
Calque 1
10
383.540950
20
346.844880
11
382.748340
21
348.217730
0
LINE
8
Calque 1
10
382.748340
20
348.217730
11
382.140556
21
349.556529
0
LINE
8
Calque 1
10
382.140556
20
349.556529
11
381.925510
21
350.822960
0
LINE
8
Calque 1
10
381.925510
20
350.822960
11
381.895310
21
352.055330
0
LINE
8
Calque 1
10
381.895310
20
352.055330
11
380.754950
21
352.137430
0
LINE
8
Calque 1
10
380.754950
20
352.137430
11
379.564888
21
352.067676
0
LINE
8
Calque 1
10
379.564888
20
352.067676
11
378.305030
21
351.784600
0
LINE
8
Calque 1
10
378.305030
20
351.784600
11
377.307619
21
351.341865
0
LINE
8
Calque 1
10
377.307619
20
351.341865
11
376.748530
21
350.888210
0
LINE
8
Calque 1
10
376.748530
20
350.888210
11
376.557496
21
349.711653
0
LINE
8
Calque 1
10
376.557496
20
349.711653
11
376.444980
21
347.530860
0
LINE
8
Calque 1
10
376.444980
20
347.530860
11
376.485689
21
345.238343
0
LINE
8
Calque 1
10
376.485689
20
345.238343
11
376.703750
21
344.045640
0
LINE
8
Calque 1
10
376.703750
20
344.045640
11
377.059765
21
343.626984
0
LINE
8
Calque 1
10
377.059765
20
343.626984
11
377.472840
21
343.447960
0
LINE
8
Calque 1
10
377.472840
20
343.447960
11
377.671104
21
343.324129
0
LINE
8
Calque 1
10
377.671104
20
343.324129
11
377.198950
21
342.896720
0
LINE
8
Calque 1
10
377.198950
20
342.896720
11
376.600408
21
342.213230
0
LINE
8
Calque 1
10
376.600408
20
342.213230
11
376.471350
21
341.018120
0
LINE
8
Calque 1
10
376.471350
20
341.018120
11
376.627625
21
339.757829
0
LINE
8
Calque 1
10
376.627625
20
339.757829
11
377.408050
21
338.798940
0
LINE
8
Calque 1
10
377.408050
20
338.798940
11
378.344750
21
337.915520
0
LINE
8
Calque 1
10
378.344750
20
337.915520
11
377.669250
21
337.745980
0
LINE
8
Calque 1
10
377.669250
20
337.745980
11
377.129754
21
337.514706
0
LINE
8
Calque 1
10
377.129754
20
337.514706
11
376.781230
21
337.196680
0
LINE
8
Calque 1
10
376.781230
20
337.196680
11
376.662245
21
335.826686
0
LINE
8
Calque 1
10
376.662245
20
335.826686
11
376.674600
21
333.066140
0
LINE
8
Calque 1
10
376.674600
20
333.066140
11
376.823284
21
330.279049
0
LINE
8
Calque 1
10
376.823284
20
330.279049
11
377.032110
21
328.845220
0
LINE
8
Calque 1
10
377.032110
20
328.845220
11
377.490270
21
328.375090
0
LINE
8
Calque 1
10
377.490270
20
328.375090
11
378.276160
21
329.367280
0
LINE
8
Calque 1
10
378.276160
20
329.367280
11
379.780090
21
331.395730
0
LINE
8
Calque 1
10
379.780090
20
331.395730
11
380.704680
21
332.432000
0
LINE
8
Calque 1
10
380.704680
20
332.432000
11
380.705000
21
330.976000
0
LINE
8
Calque 1
10
380.705000
20
330.976000
11
380.520470
21
329.336270
0
LINE
8
Calque 1
10
380.520470
20
329.336270
11
379.857080
21
327.373950
0
LINE
8
Calque 1
10
379.857080
20
327.373950
11
378.747160
21
322.421150
0
LINE
8
Calque 1
10
378.747160
20
322.421150
11
377.930560
21
317.857390
0
LINE
8
Calque 1
10
377.930560
20
317.857390
11
377.541520
21
316.342860
0
LINE
8
Calque 1
10
377.541520
20
316.342860
11
377.419511
21
315.980570
0
LINE
8
Calque 1
10
377.419511
20
315.980570
11
377.411900
21
315.286180
0
LINE
8
Calque 1
10
377.411900
20
315.286180
11
377.392850
21
314.584694
0
LINE
8
Calque 1
10
377.392850
20
314.584694
11
377.243300
21
314.205400
0
LINE
8
Calque 1
10
377.243300
20
314.205400
11
377.072060
21
313.888291
0
LINE
8
Calque 1
10
377.072060
20
313.888291
11
377.000840
21
313.336290
0
LINE
8
Calque 1
10
377.000840
20
313.336290
11
376.895849
21
312.675000
0
LINE
8
Calque 1
10
376.895849
20
312.675000
11
376.643430
21
312.095130
0
LINE
8
Calque 1
10
376.643430
20
312.095130
11
376.333679
21
311.337939
0
LINE
8
Calque 1
10
376.333679
20
311.337939
11
376.090850
21
310.250320
0
LINE
8
Calque 1
10
376.090850
20
310.250320
11
375.780190
21
307.705800
0
LINE
8
Calque 1
10
375.780190
20
307.705800
11
375.328130
21
305.324550
0
LINE
8
Calque 1
10
375.328130
20
305.324550
11
374.991580
21
304.164900
0
LINE
8
Calque 1
10
374.991580
20
304.164900
11
374.680000
21
305.356000
0
LINE
8
Calque 1
10
368.921540
20
356.777800
11
369.276225
21
357.261206
0
LINE
8
Calque 1
10
369.276225
20
357.261206
11
369.253330
21
358.100720
0
LINE
8
Calque 1
10
369.253330
20
358.100720
11
369.220719
21
358.918170
0
LINE
8
Calque 1
10
369.220719
20
358.918170
11
369.396555
21
359.041018
0
LINE
8
Calque 1
10
369.396555
20
359.041018
11
369.748230
21
359.066440
0
LINE
8
Calque 1
10
369.748230
20
359.066440
11
370.260391
21
359.172798
0
LINE
8
Calque 1
10
370.260391
20
359.172798
11
369.975370
21
359.887300
0
LINE
8
Calque 1
10
369.975370
20
359.887300
11
369.224720
21
361.805530
0
LINE
8
Calque 1
10
369.224720
20
361.805530
11
369.026111
21
363.151965
0
LINE
8
Calque 1
10
369.026111
20
363.151965
11
369.094420
21
365.019560
0
LINE
8
Calque 1
10
369.094420
20
365.019560
11
369.309100
21
367.833870
0
LINE
8
Calque 1
10
369.309100
20
367.833870
11
369.276440
21
368.227391
0
LINE
8
Calque 1
10
369.276440
20
368.227391
11
369.061474
21
368.477244
0
LINE
8
Calque 1
10
369.061474
20
368.477244
11
367.541990
21
368.861530
0
LINE
8
Calque 1
10
367.541990
20
368.861530
11
365.779032
21
369.319672
0
LINE
8
Calque 1
10
365.779032
20
369.319672
11
364.048340
21
369.957740
0
LINE
8
Calque 1
10
364.048340
20
369.957740
11
361.882200
21
371.138820
0
LINE
8
Calque 1
10
361.882200
20
371.138820
11
361.477751
21
371.381956
0
LINE
8
Calque 1
10
361.477751
20
371.381956
11
361.149090
21
371.383930
0
LINE
8
Calque 1
10
361.149090
20
371.383930
11
359.677210
21
369.658310
0
LINE
8
Calque 1
10
359.677210
20
369.658310
11
358.480010
21
367.911180
0
LINE
8
Calque 1
10
358.480010
20
367.911180
11
359.406050
21
366.589780
0
LINE
8
Calque 1
10
359.406050
20
366.589780
11
360.332090
21
365.305760
0
LINE
8
Calque 1
10
360.332090
20
365.305760
11
359.772590
21
365.151850
0
LINE
8
Calque 1
10
359.772590
20
365.151850
11
358.987559
21
365.364049
0
LINE
8
Calque 1
10
358.987559
20
365.364049
11
357.885840
21
365.874230
0
LINE
8
Calque 1
10
357.885840
20
365.874230
11
356.558600
21
366.596600
0
LINE
8
Calque 1
10
356.558600
20
366.596600
11
356.130240
21
366.000520
0
LINE
8
Calque 1
10
356.130240
20
366.000520
11
354.974280
21
364.448010
0
LINE
8
Calque 1
10
354.974280
20
364.448010
11
354.246680
21
363.153470
0
LINE
8
Calque 1
10
354.246680
20
363.153470
11
354.735194
21
362.485778
0
LINE
8
Calque 1
10
354.735194
20
362.485778
11
355.909710
21
361.355290
0
LINE
8
Calque 1
10
355.909710
20
361.355290
11
357.521183
21
360.145384
0
LINE
8
Calque 1
10
357.521183
20
360.145384
11
359.048670
21
359.343020
0
LINE
8
Calque 1
10
359.048670
20
359.343020
11
360.218212
21
359.001815
0
LINE
8
Calque 1
10
360.218212
20
359.001815
11
360.957510
21
358.956920
0
LINE
8
Calque 1
10
360.957510
20
358.956920
11
361.283155
21
358.975551
0
LINE
8
Calque 1
10
361.283155
20
358.975551
11
361.390430
21
358.693980
0
LINE
8
Calque 1
10
361.390430
20
358.693980
11
361.628354
21
358.246256
0
LINE
8
Calque 1
10
361.628354
20
358.246256
11
362.200380
21
357.772350
0
LINE
8
Calque 1
10
362.200380
20
357.772350
11
363.214550
21
357.338646
0
LINE
8
Calque 1
10
363.214550
20
357.338646
11
364.515490
21
356.987600
0
LINE
8
Calque 1
10
364.515490
20
356.987600
11
366.549800
21
356.588700
0
LINE
8
Calque 1
10
366.549800
20
356.588700
11
367.756000
21
356.451290
0
LINE
8
Calque 1
10
367.756000
20
356.451290
11
368.377657
21
356.534535
0
LINE
8
Calque 1
10
368.377657
20
356.534535
11
368.921540
21
356.777800
0
LINE
8
Calque 1
10
368.921540
20
356.777800
11
368.921540
21
356.777800
0
LINE
8
Calque 1
10
380.119340
20
357.311740
11
380.350154
21
357.583306
0
LINE
8
Calque 1
10
380.350154
20
357.583306
11
380.454270
21
357.957570
0
LINE
8
Calque 1
10
380.454270
20
357.957570
11
380.547100
21
358.199879
0
LINE
8
Calque 1
10
380.547100
20
358.199879
11
380.883410
21
357.809660
0
LINE
8
Calque 1
10
380.883410
20
357.809660
11
381.326520
21
357.389222
0
LINE
8
Calque 1
10
381.326520
20
357.389222
11
381.808720
21
357.214350
0
LINE
8
Calque 1
10
381.808720
20
357.214350
11
383.165510
21
357.644380
0
LINE
8
Calque 1
10
383.165510
20
357.644380
11
385.599760
21
359.020020
0
LINE
8
Calque 1
10
385.599760
20
359.020020
11
387.650280
21
360.350790
0
LINE
8
Calque 1
10
387.650280
20
360.350790
11
387.977296
21
360.752646
0
LINE
8
Calque 1
10
387.977296
20
360.752646
11
388.113310
21
361.177940
0
LINE
8
Calque 1
10
388.113310
20
361.177940
11
387.680995
21
362.067140
0
LINE
8
Calque 1
10
387.680995
20
362.067140
11
386.641600
21
363.584330
0
LINE
8
Calque 1
10
386.641600
20
363.584330
11
385.364771
21
365.140999
0
LINE
8
Calque 1
10
385.364771
20
365.140999
11
384.361580
21
366.125110
0
LINE
8
Calque 1
10
384.361580
20
366.125110
11
383.655006
21
366.751481
0
LINE
8
Calque 1
10
383.655006
20
366.751481
11
383.091300
21
367.448030
0
LINE
8
Calque 1
10
383.091300
20
367.448030
11
381.668350
21
369.172400
0
LINE
8
Calque 1
10
381.668350
20
369.172400
11
380.707370
21
370.150240
0
LINE
8
Calque 1
10
380.707370
20
370.150240
11
379.539520
21
369.633640
0
LINE
8
Calque 1
10
379.539520
20
369.633640
11
377.124420
21
368.946100
0
LINE
8
Calque 1
10
377.124420
20
368.946100
11
375.877160
21
368.775140
0
LINE
8
Calque 1
10
375.877160
20
368.775140
11
376.064570
21
366.897350
0
LINE
8
Calque 1
10
376.064570
20
366.897350
11
376.308740
21
361.347580
0
LINE
8
Calque 1
10
376.308740
20
361.347580
11
376.443359
21
358.170081
0
LINE
8
Calque 1
10
376.443359
20
358.170081
11
376.619838
21
357.565388
0
LINE
8
Calque 1
10
376.619838
20
357.565388
11
376.928790
21
357.219460
0
LINE
8
Calque 1
10
376.928790
20
357.219460
11
377.616868
21
356.896851
0
LINE
8
Calque 1
10
377.616868
20
356.896851
11
378.645190
21
356.938330
0
LINE
8
Calque 1
10
378.645190
20
356.938330
11
380.119340
21
357.311740
0
LINE
8
Calque 1
10
380.119340
20
357.311740
11
380.119340
21
357.311740
0
LINE
8
Calque 1
10
397.660340
20
370.292840
11
397.990462
21
371.267212
0
LINE
8
Calque 1
10
397.990462
20
371.267212
11
397.797610
21
371.890540
0
LINE
8
Calque 1
10
397.797610
20
371.890540
11
397.134155
21
372.403108
0
LINE
8
Calque 1
10
397.134155
20
372.403108
11
396.023940
21
372.903840
0
LINE
8
Calque 1
10
396.023940
20
372.903840
11
394.132560
21
373.812910
0
LINE
8
Calque 1
10
394.132560
20
373.812910
11
393.669540
21
374.481050
0
LINE
8
Calque 1
10
393.669540
20
374.481050
11
393.991115
21
374.616550
0
LINE
8
Calque 1
10
393.991115
20
374.616550
11
394.794010
21
374.578650
0
LINE
8
Calque 1
10
394.794010
20
374.578650
11
397.665010
21
374.253550
0
LINE
8
Calque 1
10
397.665010
20
374.253550
11
399.193336
21
374.194251
0
LINE
8
Calque 1
10
399.193336
20
374.194251
11
399.457533
21
374.361532
0
LINE
8
Calque 1
10
399.457533
20
374.361532
11
399.601110
21
374.710270
0
LINE
8
Calque 1
10
399.601110
20
374.710270
11
400.039580
21
376.264350
0
LINE
8
Calque 1
10
400.039580
20
376.264350
11
400.683130
21
379.174770
0
LINE
8
Calque 1
10
400.683130
20
379.174770
11
401.077820
21
381.880650
0
LINE
8
Calque 1
10
401.077820
20
381.880650
11
400.915341
21
382.524023
0
LINE
8
Calque 1
10
400.915341
20
382.524023
11
400.442730
21
383.018310
0
LINE
8
Calque 1
10
400.442730
20
383.018310
11
399.422949
21
383.358369
0
LINE
8
Calque 1
10
399.422949
20
383.358369
11
397.863040
21
383.591560
0
LINE
8
Calque 1
10
397.863040
20
383.591560
11
396.192525
21
383.843949
0
LINE
8
Calque 1
10
396.192525
20
383.843949
11
395.124740
21
384.305970
0
LINE
8
Calque 1
10
395.124740
20
384.305970
11
394.058119
21
384.756982
0
LINE
8
Calque 1
10
394.058119
20
384.756982
11
392.106940
21
384.863310
0
LINE
8
Calque 1
10
392.106940
20
384.863310
11
389.883000
21
384.863000
0
LINE
8
Calque 1
10
389.883000
20
384.863000
11
389.533260
21
383.143210
0
LINE
8
Calque 1
10
389.533260
20
383.143210
11
388.936880
21
380.894250
0
LINE
8
Calque 1
10
388.936880
20
380.894250
11
388.137230
21
379.157070
0
LINE
8
Calque 1
10
388.137230
20
379.157070
11
387.584240
21
377.673580
0
LINE
8
Calque 1
10
387.584240
20
377.673580
11
386.261320
21
375.628360
0
LINE
8
Calque 1
10
386.261320
20
375.628360
11
385.327015
21
374.263772
0
LINE
8
Calque 1
10
385.327015
20
374.263772
11
384.938410
21
373.468150
0
LINE
8
Calque 1
10
384.938410
20
373.468150
11
385.595610
21
372.084600
0
LINE
8
Calque 1
10
385.595610
20
372.084600
11
386.277966
21
371.254319
0
LINE
8
Calque 1
10
386.277966
20
371.254319
11
386.995640
21
370.652690
0
LINE
8
Calque 1
10
386.995640
20
370.652690
11
388.255397
21
369.517070
0
LINE
8
Calque 1
10
388.255397
20
369.517070
11
390.241050
21
367.402940
0
LINE
8
Calque 1
10
390.241050
20
367.402940
11
392.743610
21
364.591990
0
LINE
8
Calque 1
10
392.743610
20
364.591990
11
394.960750
21
366.903920
0
LINE
8
Calque 1
10
394.960750
20
366.903920
11
396.668362
21
368.852999
0
LINE
8
Calque 1
10
396.668362
20
368.852999
11
397.660460
21
370.292550
0
LINE
8
Calque 1
10
397.660460
20
370.292550
11
397.660340
21
370.292840
0
LINE
8
Calque 1
10
348.180840
20
372.203560
11
349.347949
21
373.471583
0
LINE
8
Calque 1
10
349.347949
20
373.471583
11
349.748700
21
374.304620
0
LINE
8
Calque 1
10
349.748700
20
374.304620
11
349.826420
21
374.780335
0
LINE
8
Calque 1
10
349.826420
20
374.780335
11
350.013280
21
375.073710
0
LINE
8
Calque 1
10
350.013280
20
375.073710
11
350.200149
21
375.106863
0
LINE
8
Calque 1
10
350.200149
20
375.106863
11
350.277870
21
374.957030
0
LINE
8
Calque 1
10
350.277870
20
374.957030
11
350.375023
21
374.759568
0
LINE
8
Calque 1
10
350.375023
20
374.759568
11
350.608600
21
374.678280
0
LINE
8
Calque 1
10
350.608600
20
374.678280
11
351.524181
21
375.340991
0
LINE
8
Calque 1
10
351.524181
20
375.340991
11
353.261050
21
376.932270
0
LINE
8
Calque 1
10
353.261050
20
376.932270
11
355.153607
21
378.906084
0
LINE
8
Calque 1
10
355.153607
20
378.906084
11
355.374846
21
379.374036
0
LINE
8
Calque 1
10
355.374846
20
379.374036
11
355.287040
21
379.737370
0
LINE
8
Calque 1
10
355.287040
20
379.737370
11
354.222100
21
382.509970
0
LINE
8
Calque 1
10
354.222100
20
382.509970
11
353.452870
21
385.254630
0
LINE
8
Calque 1
10
353.452870
20
385.254630
11
353.269328
21
385.698244
0
LINE
8
Calque 1
10
353.269328
20
385.698244
11
352.725260
21
385.982730
0
LINE
8
Calque 1
10
352.725260
20
385.982730
11
347.461380
21
386.186210
0
LINE
8
Calque 1
10
347.461380
20
386.186210
11
343.540169
21
386.103789
0
LINE
8
Calque 1
10
343.540169
20
386.103789
11
342.779913
21
385.944657
0
LINE
8
Calque 1
10
342.779913
20
385.944657
11
342.337100
21
385.657040
0
LINE
8
Calque 1
10
342.337100
20
385.657040
11
342.021296
21
385.315682
0
LINE
8
Calque 1
10
342.021296
20
385.315682
11
341.865820
21
384.902691
0
LINE
8
Calque 1
10
341.865820
20
384.902691
11
341.915310
21
383.143500
0
LINE
8
Calque 1
10
341.915310
20
383.143500
11
342.301770
21
380.365370
0
LINE
8
Calque 1
10
342.301770
20
380.365370
11
342.456230
21
379.911918
0
LINE
8
Calque 1
10
342.456230
20
379.911918
11
342.704594
21
379.684418
0
LINE
8
Calque 1
10
342.704594
20
379.684418
11
344.150990
21
379.648240
0
LINE
8
Calque 1
10
344.150990
20
379.648240
11
345.298989
21
379.640965
0
LINE
8
Calque 1
10
345.298989
20
379.640965
11
345.771590
21
379.515940
0
LINE
8
Calque 1
10
345.771590
20
379.515940
11
344.580960
21
378.589620
0
LINE
8
Calque 1
10
344.580960
20
378.589620
11
343.735275
21
377.942728
0
LINE
8
Calque 1
10
343.735275
20
377.942728
11
343.381800
21
377.398990
0
LINE
8
Calque 1
10
343.381800
20
377.398990
11
343.821835
21
376.155474
0
LINE
8
Calque 1
10
343.821835
20
376.155474
11
344.903150
21
373.830240
0
LINE
8
Calque 1
10
344.903150
20
373.830240
11
346.527200
21
370.721380
0
LINE
8
Calque 1
10
346.527200
20
370.721380
11
348.180840
21
372.203560
0
LINE
8
Calque 1
10
348.180840
20
372.203560
11
348.180840
21
372.203560
0
LINE
8
Calque 1
10
380.550740
20
371.492430
11
381.407116
21
371.952598
0
LINE
8
Calque 1
10
381.407116
20
371.952598
11
381.763310
21
372.329080
0
LINE
8
Calque 1
10
381.763310
20
372.329080
11
381.057910
21
373.859840
0
LINE
8
Calque 1
10
381.057910
20
373.859840
11
379.502690
21
376.132040
0
LINE
8
Calque 1
10
379.502690
20
376.132040
11
378.477970
21
377.762020
0
LINE
8
Calque 1
10
378.477970
20
377.762020
11
378.163500
21
378.290858
0
LINE
8
Calque 1
10
378.163500
20
378.290858
11
377.653040
21
378.759590
0
LINE
8
Calque 1
10
377.653040
20
378.759590
11
376.960456
21
379.522930
0
LINE
8
Calque 1
10
376.960456
20
379.522930
11
376.208150
21
380.760090
0
LINE
8
Calque 1
10
376.208150
20
380.760090
11
375.413310
21
382.624960
0
LINE
8
Calque 1
10
375.413310
20
382.624960
11
375.899068
21
382.417070
0
LINE
8
Calque 1
10
375.899068
20
382.417070
11
377.066950
21
381.509610
0
LINE
8
Calque 1
10
377.066950
20
381.509610
11
380.639620
21
378.316440
0
LINE
8
Calque 1
10
380.639620
20
378.316440
11
382.136596
21
377.053998
0
LINE
8
Calque 1
10
382.136596
20
377.053998
11
383.040900
21
376.528910
0
LINE
8
Calque 1
10
383.040900
20
376.528910
11
383.544005
21
376.703787
0
LINE
8
Calque 1
10
383.544005
20
376.703787
11
384.076390
21
377.124230
0
LINE
8
Calque 1
10
384.076390
20
377.124230
11
385.474160
21
379.307040
0
LINE
8
Calque 1
10
385.474160
20
379.307040
11
386.705260
21
381.620250
0
LINE
8
Calque 1
10
386.705260
20
381.620250
11
386.930271
21
382.284041
0
LINE
8
Calque 1
10
386.930271
20
382.284041
11
386.928400
21
382.860900
0
LINE
8
Calque 1
10
386.928400
20
382.860900
11
386.460776
21
383.329100
0
LINE
8
Calque 1
10
386.460776
20
383.329100
11
385.270070
21
383.686180
0
LINE
8
Calque 1
10
385.270070
20
383.686180
11
383.922844
21
384.122049
0
LINE
8
Calque 1
10
383.922844
20
384.122049
11
382.819060
21
384.764880
0
LINE
8
Calque 1
10
382.819060
20
384.764880
11
379.992300
21
386.429730
0
LINE
8
Calque 1
10
379.992300
20
386.429730
11
377.950700
21
387.602830
0
LINE
8
Calque 1
10
377.950700
20
387.602830
11
377.998955
21
387.888635
0
LINE
8
Calque 1
10
377.998955
20
387.888635
11
378.355040
21
388.187340
0
LINE
8
Calque 1
10
378.355040
20
388.187340
11
380.148390
21
388.807250
0
LINE
8
Calque 1
10
380.148390
20
388.807250
11
381.032025
21
389.131959
0
LINE
8
Calque 1
10
381.032025
20
389.131959
11
381.286320
21
389.480570
0
LINE
8
Calque 1
10
381.286320
20
389.480570
11
381.330980
21
389.799970
0
LINE
8
Calque 1
10
381.330980
20
389.799970
11
381.550900
21
390.060510
0
LINE
8
Calque 1
10
381.550900
20
390.060510
11
383.350810
21
390.291610
0
LINE
8
Calque 1
10
383.350810
20
390.291610
11
384.534403
21
390.408414
0
LINE
8
Calque 1
10
384.534403
20
390.408414
11
385.306980
21
390.683310
0
LINE
8
Calque 1
10
385.306980
20
390.683310
11
385.556433
21
390.928759
0
LINE
8
Calque 1
10
385.556433
20
390.928759
11
385.685277
21
391.243976
0
LINE
8
Calque 1
10
385.685277
20
391.243976
11
385.647100
21
392.420640
0
LINE
8
Calque 1
10
385.647100
20
392.420640
11
385.394719
21
393.663625
0
LINE
8
Calque 1
10
385.394719
20
393.663625
11
385.013840
21
394.744970
0
LINE
8
Calque 1
10
385.013840
20
394.744970
11
384.496480
21
395.498853
0
LINE
8
Calque 1
10
384.496480
20
395.498853
11
383.879970
21
395.784300
0
LINE
8
Calque 1
10
383.879970
20
395.784300
11
383.133235
21
395.616801
0
LINE
8
Calque 1
10
383.133235
20
395.616801
11
382.210700
21
394.953260
0
LINE
8
Calque 1
10
382.210700
20
394.953260
11
381.333965
21
394.316456
0
LINE
8
Calque 1
10
381.333965
20
394.316456
11
380.702540
21
394.179970
0
LINE
8
Calque 1
10
380.702540
20
394.179970
11
380.112593
21
394.103940
0
LINE
8
Calque 1
10
380.112593
20
394.103940
11
379.396840
21
393.737360
0
LINE
8
Calque 1
10
379.396840
20
393.737360
11
378.577580
21
393.330038
0
LINE
8
Calque 1
10
378.577580
20
393.330038
11
377.730000
21
393.260800
0
LINE
8
Calque 1
10
377.730000
20
393.260800
11
376.868510
21
393.357700
0
LINE
8
Calque 1
10
376.868510
20
393.357700
11
377.860700
21
393.810400
0
LINE
8
Calque 1
10
377.860700
20
393.810400
11
378.604914
21
394.281324
0
LINE
8
Calque 1
10
378.604914
20
394.281324
11
378.852890
21
394.788720
0
LINE
8
Calque 1
10
378.852890
20
394.788720
11
378.775170
21
395.159930
0
LINE
8
Calque 1
10
378.775170
20
395.159930
11
378.588310
21
395.314330
0
LINE
8
Calque 1
10
378.588310
20
395.314330
11
378.401441
21
395.481143
0
LINE
8
Calque 1
10
378.401441
20
395.481143
11
378.323720
21
395.882210
0
LINE
8
Calque 1
10
378.323720
20
395.882210
11
378.673466
21
396.657174
0
LINE
8
Calque 1
10
378.673466
20
396.657174
11
379.514350
21
397.722950
0
LINE
8
Calque 1
10
379.514350
20
397.722950
11
380.355225
21
398.745361
0
LINE
8
Calque 1
10
380.355225
20
398.745361
11
380.704970
21
399.416060
0
LINE
8
Calque 1
10
380.704970
20
399.416060
11
380.527115
21
399.890713
0
LINE
8
Calque 1
10
380.527115
20
399.890713
11
380.099510
21
400.441760
0
LINE
8
Calque 1
10
380.099510
20
400.441760
11
378.313570
21
401.733040
0
LINE
8
Calque 1
10
378.313570
20
401.733040
11
376.993340
21
402.342059
0
LINE
8
Calque 1
10
376.993340
20
402.342059
11
375.476850
21
402.843250
0
LINE
8
Calque 1
10
375.476850
20
402.843250
11
374.076340
21
403.109371
0
LINE
8
Calque 1
10
374.076340
20
403.109371
11
373.300100
21
402.989100
0
LINE
8
Calque 1
10
373.300100
20
402.989100
11
372.508950
21
402.204830
0
LINE
8
Calque 1
10
372.508950
20
402.204830
11
372.238310
21
401.148390
0
LINE
8
Calque 1
10
372.238310
20
401.148390
11
371.909300
21
399.543500
0
LINE
8
Calque 1
10
371.909300
20
399.543500
11
371.425960
21
398.489330
0
LINE
8
Calque 1
10
371.425960
20
398.489330
11
371.380660
21
399.231980
0
LINE
8
Calque 1
10
371.380660
20
399.231980
11
371.349509
21
399.869979
0
LINE
8
Calque 1
10
371.349509
20
399.869979
11
371.070250
21
400.322720
0
LINE
8
Calque 1
10
371.070250
20
400.322720
11
370.774049
21
400.792193
0
LINE
8
Calque 1
10
370.774049
20
400.792193
11
370.650850
21
401.432140
0
LINE
8
Calque 1
10
370.650850
20
401.432140
11
370.758835
21
402.020266
0
LINE
8
Calque 1
10
370.758835
20
402.020266
11
371.113870
21
402.212100
0
LINE
8
Calque 1
10
371.113870
20
402.212100
11
371.398963
21
402.268123
0
LINE
8
Calque 1
10
371.398963
20
402.268123
11
371.047770
21
402.458080
0
LINE
8
Calque 1
10
371.047770
20
402.458080
11
368.642420
21
402.704070
0
LINE
8
Calque 1
10
368.642420
20
402.704070
11
366.947925
21
402.606003
0
LINE
8
Calque 1
10
366.947925
20
402.606003
11
365.508550
21
402.344150
0
LINE
8
Calque 1
10
365.508550
20
402.344150
11
364.472211
21
401.942806
0
LINE
8
Calque 1
10
364.472211
20
401.942806
11
363.746710
21
401.509400
0
LINE
8
Calque 1
10
363.746710
20
401.509400
11
363.390655
21
400.995745
0
LINE
8
Calque 1
10
363.390655
20
400.995745
11
363.242560
21
400.401480
0
LINE
8
Calque 1
10
363.242560
20
400.401480
11
363.469069
21
399.683260
0
LINE
8
Calque 1
10
363.469069
20
399.683260
11
364.013660
21
398.871590
0
LINE
8
Calque 1
10
364.013660
20
398.871590
11
364.845126
21
397.644124
0
LINE
8
Calque 1
10
364.845126
20
397.644124
11
365.761380
21
395.926240
0
LINE
8
Calque 1
10
365.761380
20
395.926240
11
366.974660
21
393.399690
0
LINE
8
Calque 1
10
366.974660
20
393.399690
11
367.211310
21
392.643470
0
LINE
8
Calque 1
10
367.211310
20
392.643470
11
366.867301
21
392.816489
0
LINE
8
Calque 1
10
366.867301
20
392.816489
11
366.040210
21
393.649230
0
LINE
8
Calque 1
10
366.040210
20
393.649230
11
364.898243
21
394.711143
0
LINE
8
Calque 1
10
364.898243
20
394.711143
11
363.797180
21
395.435150
0
LINE
8
Calque 1
10
363.797180
20
395.435150
11
362.995510
21
395.917093
0
LINE
8
Calque 1
10
362.995510
20
395.917093
11
362.573370
21
396.397040
0
LINE
8
Calque 1
10
362.573370
20
396.397040
11
362.203695
21
396.897176
0
LINE
8
Calque 1
10
362.203695
20
396.897176
11
361.528140
21
397.427680
0
LINE
8
Calque 1
10
361.528140
20
397.427680
11
360.683494
21
397.804300
0
LINE
8
Calque 1
10
360.683494
20
397.804300
11
359.942850
21
397.806130
0
LINE
8
Calque 1
10
359.942850
20
397.806130
11
359.338325
21
397.517884
0
LINE
8
Calque 1
10
359.338325
20
397.517884
11
358.856560
21
397.068710
0
LINE
8
Calque 1
10
358.856560
20
397.068710
11
357.842070
21
395.548760
0
LINE
8
Calque 1
10
357.842070
20
395.548760
11
356.915440
21
393.663870
0
LINE
8
Calque 1
10
356.915440
20
393.663870
11
356.741461
21
392.791308
0
LINE
8
Calque 1
10
356.741461
20
392.791308
11
356.914440
21
392.065640
0
LINE
8
Calque 1
10
356.914440
20
392.065640
11
357.159406
21
391.700958
0
LINE
8
Calque 1
10
357.159406
20
391.700958
11
357.597294
21
391.415346
0
LINE
8
Calque 1
10
357.597294
20
391.415346
11
359.593480
21
390.831900
0
LINE
8
Calque 1
10
359.593480
20
390.831900
11
363.134390
21
389.719160
0
LINE
8
Calque 1
10
363.134390
20
389.719160
11
364.301330
21
388.962050
0
LINE
8
Calque 1
10
364.301330
20
388.962050
11
363.745130
21
388.758869
0
LINE
8
Calque 1
10
363.745130
20
388.758869
11
362.407880
21
388.563300
0
LINE
8
Calque 1
10
362.407880
20
388.563300
11
360.782150
21
388.285388
0
LINE
8
Calque 1
10
360.782150
20
388.285388
11
359.938070
21
387.751260
0
LINE
8
Calque 1
10
359.938070
20
387.751260
11
359.012986
21
387.079614
0
LINE
8
Calque 1
10
359.012986
20
387.079614
11
357.598190
21
386.338120
0
LINE
8
Calque 1
10
357.598190
20
386.338120
11
356.352698
21
385.694785
0
LINE
8
Calque 1
10
356.352698
20
385.694785
11
355.834660
21
385.259140
0
LINE
8
Calque 1
10
355.834660
20
385.259140
11
356.514600
21
382.871020
0
LINE
8
Calque 1
10
356.514600
20
382.871020
11
357.432870
21
380.623340
0
LINE
8
Calque 1
10
357.432870
20
380.623340
11
357.847226
21
380.646541
0
LINE
8
Calque 1
10
357.847226
20
380.646541
11
358.508760
21
380.909150
0
LINE
8
Calque 1
10
358.508760
20
380.909150
11
359.298686
21
381.195486
0
LINE
8
Calque 1
10
359.298686
20
381.195486
11
359.940210
21
381.024420
0
LINE
8
Calque 1
10
359.940210
20
381.024420
11
360.543406
21
380.851264
0
LINE
8
Calque 1
10
360.543406
20
380.851264
11
361.160950
21
380.901420
0
LINE
8
Calque 1
10
361.160950
20
380.901420
11
362.503750
21
381.600440
0
LINE
8
Calque 1
10
362.503750
20
381.600440
11
364.443970
21
382.646170
0
LINE
8
Calque 1
10
364.443970
20
382.646170
11
365.353130
21
382.984106
0
LINE
8
Calque 1
10
365.353130
20
382.984106
11
365.819820
21
383.036120
0
LINE
8
Calque 1
10
365.819820
20
383.036120
11
365.690814
21
382.549278
0
LINE
8
Calque 1
10
365.690814
20
382.549278
11
365.167750
21
381.591690
0
LINE
8
Calque 1
10
365.167750
20
381.591690
11
364.041060
21
379.320120
0
LINE
8
Calque 1
10
364.041060
20
379.320120
11
363.851678
21
378.426229
0
LINE
8
Calque 1
10
363.851678
20
378.426229
11
363.849930
21
377.651490
0
LINE
8
Calque 1
10
363.849930
20
377.651490
11
363.784524
21
376.749986
0
LINE
8
Calque 1
10
363.784524
20
376.749986
11
363.442120
21
375.551310
0
LINE
8
Calque 1
10
363.442120
20
375.551310
11
363.043155
21
374.263638
0
LINE
8
Calque 1
10
363.043155
20
374.263638
11
363.121537
21
373.940476
0
LINE
8
Calque 1
10
363.121537
20
373.940476
11
363.378020
21
373.615460
0
LINE
8
Calque 1
10
363.378020
20
373.615460
11
364.180696
21
373.011041
0
LINE
8
Calque 1
10
364.180696
20
373.011041
11
365.442650
21
372.295870
0
LINE
8
Calque 1
10
365.442650
20
372.295870
11
366.776128
21
371.735080
0
LINE
8
Calque 1
10
366.776128
20
371.735080
11
367.750760
21
371.501830
0
LINE
8
Calque 1
10
367.750760
20
371.501830
11
368.352878
21
371.615406
0
LINE
8
Calque 1
10
368.352878
20
371.615406
11
368.790730
21
371.888470
0
LINE
8
Calque 1
10
368.790730
20
371.888470
11
368.978760
21
372.382946
0
LINE
8
Calque 1
10
368.978760
20
372.382946
11
368.819930
21
373.159010
0
LINE
8
Calque 1
10
368.819930
20
373.159010
11
368.673778
21
374.331410
0
LINE
8
Calque 1
10
368.673778
20
374.331410
11
368.918330
21
376.278110
0
LINE
8
Calque 1
10
368.918330
20
376.278110
11
369.449384
21
378.417520
0
LINE
8
Calque 1
10
369.449384
20
378.417520
11
370.178340
21
380.422440
0
LINE
8
Calque 1
10
370.178340
20
380.422440
11
371.186050
21
382.340670
0
LINE
8
Calque 1
10
371.186050
20
382.340670
11
371.910230
21
381.225270
0
LINE
8
Calque 1
10
371.910230
20
381.225270
11
372.401376
21
379.979176
0
LINE
8
Calque 1
10
372.401376
20
379.979176
11
372.758790
21
378.562300
0
LINE
8
Calque 1
10
372.758790
20
378.562300
11
373.093474
21
377.267041
0
LINE
8
Calque 1
10
373.093474
20
377.267041
11
373.529970
21
376.313340
0
LINE
8
Calque 1
10
373.529970
20
376.313340
11
374.698800
21
375.033320
0
LINE
8
Calque 1
10
374.698800
20
375.033320
11
375.235983
21
374.311968
0
LINE
8
Calque 1
10
375.235983
20
374.311968
11
375.549260
21
373.313520
0
LINE
8
Calque 1
10
375.549260
20
373.313520
11
375.969860
21
371.724930
0
LINE
8
Calque 1
10
375.969860
20
371.724930
11
376.370370
21
371.409714
0
LINE
8
Calque 1
10
376.370370
20
371.409714
11
377.227750
21
371.424430
0
LINE
8
Calque 1
10
377.227750
20
371.424430
11
378.022631
21
371.443061
0
LINE
8
Calque 1
10
378.022631
20
371.443061
11
378.437870
21
371.267480
0
LINE
8
Calque 1
10
378.437870
20
371.267480
11
378.979410
21
370.972670
0
LINE
8
Calque 1
10
378.979410
20
370.972670
11
380.551290
21
371.492430
0
LINE
8
Calque 1
10
380.551290
20
371.492430
11
380.550740
21
371.492430
0
LINE
8
Calque 1
10
398.216340
20
390.550830
11
399.906090
21
390.823580
0
LINE
8
Calque 1
10
399.906090
20
390.823580
11
400.304880
21
391.008091
0
LINE
8
Calque 1
10
400.304880
20
391.008091
11
400.501669
21
391.268380
0
LINE
8
Calque 1
10
400.501669
20
391.268380
11
400.479810
21
392.609520
0
LINE
8
Calque 1
10
400.479810
20
392.609520
11
400.197279
21
394.222952
0
LINE
8
Calque 1
10
400.197279
20
394.222952
11
399.716110
21
395.975780
0
LINE
8
Calque 1
10
399.716110
20
395.975780
11
399.126736
21
397.405074
0
LINE
8
Calque 1
10
399.126736
20
397.405074
11
398.609520
21
397.917440
0
LINE
8
Calque 1
10
398.609520
20
397.917440
11
397.485040
21
397.846240
0
LINE
8
Calque 1
10
397.485040
20
397.846240
11
396.988060
21
397.568050
0
LINE
8
Calque 1
10
396.988060
20
397.568050
11
396.844510
21
397.000750
0
LINE
8
Calque 1
10
396.844510
20
397.000750
11
396.751527
21
396.492894
0
LINE
8
Calque 1
10
396.751527
20
396.492894
11
396.393450
21
396.489120
0
LINE
8
Calque 1
10
396.393450
20
396.489120
11
394.805950
21
396.817970
0
LINE
8
Calque 1
10
394.805950
20
396.817970
11
394.003340
21
396.989856
0
LINE
8
Calque 1
10
394.003340
20
396.989856
11
393.669510
21
397.184340
0
LINE
8
Calque 1
10
393.669510
20
397.184340
11
394.408850
21
397.921400
0
LINE
8
Calque 1
10
394.408850
20
397.921400
11
396.657810
21
399.115480
0
LINE
8
Calque 1
10
396.657810
20
399.115480
11
398.167420
21
399.963530
0
LINE
8
Calque 1
10
398.167420
20
399.963530
11
397.057700
21
402.160900
0
LINE
8
Calque 1
10
397.057700
20
402.160900
11
396.061865
21
403.799107
0
LINE
8
Calque 1
10
396.061865
20
403.799107
11
395.225960
21
404.905460
0
LINE
8
Calque 1
10
395.225960
20
404.905460
11
394.547188
21
405.419327
0
LINE
8
Calque 1
10
394.547188
20
405.419327
11
393.929120
21
405.633060
0
LINE
8
Calque 1
10
393.929120
20
405.633060
11
393.304035
21
405.503634
0
LINE
8
Calque 1
10
393.304035
20
405.503634
11
392.608390
21
405.192460
0
LINE
8
Calque 1
10
392.608390
20
405.192460
11
391.998939
21
404.699826
0
LINE
8
Calque 1
10
391.998939
20
404.699826
11
391.581060
21
404.134120
0
LINE
8
Calque 1
10
391.581060
20
404.134120
11
391.303919
21
403.697849
0
LINE
8
Calque 1
10
391.303919
20
403.697849
11
391.032830
21
403.516390
0
LINE
8
Calque 1
10
391.032830
20
403.516390
11
389.443590
21
402.200860
0
LINE
8
Calque 1
10
389.443590
20
402.200860
11
388.207138
21
401.117465
0
LINE
8
Calque 1
10
388.207138
20
401.117465
11
387.091480
21
400.360050
0
LINE
8
Calque 1
10
387.091480
20
400.360050
11
386.322925
21
399.881222
0
LINE
8
Calque 1
10
386.322925
20
399.881222
11
385.920970
21
399.467630
0
LINE
8
Calque 1
10
385.920970
20
399.467630
11
385.974988
21
398.865982
0
LINE
8
Calque 1
10
385.974988
20
398.865982
11
386.302710
21
397.935010
0
LINE
8
Calque 1
10
386.302710
20
397.935010
11
386.640629
21
396.947697
0
LINE
8
Calque 1
10
386.640629
20
396.947697
11
386.719190
21
396.210600
0
LINE
8
Calque 1
10
386.719190
20
396.210600
11
386.773100
21
395.720846
0
LINE
8
Calque 1
10
386.773100
20
395.720846
11
387.098570
21
395.348460
0
LINE
8
Calque 1
10
387.098570
20
395.348460
11
387.448426
21
394.920266
0
LINE
8
Calque 1
10
387.448426
20
394.920266
11
387.584090
21
394.294740
0
LINE
8
Calque 1
10
387.584090
20
394.294740
11
387.736605
21
393.626677
0
LINE
8
Calque 1
10
387.736605
20
393.626677
11
388.103290
21
393.074370
0
LINE
8
Calque 1
10
388.103290
20
393.074370
11
388.556660
21
392.479892
0
LINE
8
Calque 1
10
388.556660
20
392.479892
11
388.917570
21
391.710440
0
LINE
8
Calque 1
10
388.917570
20
391.710440
11
389.110358
21
391.212944
0
LINE
8
Calque 1
10
389.110358
20
391.212944
11
389.350653
21
390.945370
0
LINE
8
Calque 1
10
389.350653
20
390.945370
11
390.464450
21
390.816390
0
LINE
8
Calque 1
10
390.464450
20
390.816390
11
391.499425
21
390.704380
0
LINE
8
Calque 1
10
391.499425
20
390.704380
11
392.229870
21
390.435080
0
LINE
8
Calque 1
10
392.229870
20
390.435080
11
392.749334
21
390.203934
0
LINE
8
Calque 1
10
392.749334
20
390.203934
11
393.277040
21
390.183680
0
LINE
8
Calque 1
10
393.277040
20
390.183680
11
393.918443
21
390.164207
0
LINE
8
Calque 1
10
393.918443
20
390.164207
11
394.711270
21
389.934900
0
LINE
8
Calque 1
10
394.711270
20
389.934900
11
395.598148
21
389.696652
0
LINE
8
Calque 1
10
395.598148
20
389.696652
11
396.426660
21
390.053020
0
LINE
8
Calque 1
10
396.426660
20
390.053020
11
397.288455
21
390.404182
0
LINE
8
Calque 1
10
397.288455
20
390.404182
11
398.216340
21
390.550820
0
LINE
8
Calque 1
10
398.216340
20
390.550820
11
398.216340
21
390.550830
0
LINE
8
Calque 1
10
353.385000
20
392.205000
11
354.219480
21
394.281880
0
LINE
8
Calque 1
10
354.219480
20
394.281880
11
354.932402
21
395.989771
0
LINE
8
Calque 1
10
354.932402
20
395.989771
11
355.842200
21
397.643940
0
LINE
8
Calque 1
10
355.842200
20
397.643940
11
356.892200
21
399.513770
0
LINE
8
Calque 1
10
356.892200
20
399.513770
11
357.204140
21
399.871650
0
LINE
8
Calque 1
10
357.204140
20
399.871650
11
357.223656
21
400.254834
0
LINE
8
Calque 1
10
357.223656
20
400.254834
11
356.706480
21
401.150470
0
LINE
8
Calque 1
10
356.706480
20
401.150470
11
353.901450
21
404.605940
0
LINE
8
Calque 1
10
353.901450
20
404.605940
11
350.683750
21
407.888130
0
LINE
8
Calque 1
10
350.683750
20
407.888130
11
349.461470
21
408.889700
0
LINE
8
Calque 1
10
349.461470
20
408.889700
11
348.529210
21
407.988750
0
LINE
8
Calque 1
10
348.529210
20
407.988750
11
346.275140
21
405.105850
0
LINE
8
Calque 1
10
346.275140
20
405.105850
11
344.953320
21
403.123900
0
LINE
8
Calque 1
10
344.953320
20
403.123900
11
345.562420
21
402.630680
0
LINE
8
Calque 1
10
345.562420
20
402.630680
11
347.430820
21
401.499320
0
LINE
8
Calque 1
10
347.430820
20
401.499320
11
348.320203
21
400.972228
0
LINE
8
Calque 1
10
348.320203
20
400.972228
11
348.690120
21
400.601060
0
LINE
8
Calque 1
10
348.690120
20
400.601060
11
348.026125
21
400.414396
0
LINE
8
Calque 1
10
348.026125
20
400.414396
11
346.339010
21
400.340930
0
LINE
8
Calque 1
10
346.339010
20
400.340930
11
343.988000
21
400.341000
0
LINE
8
Calque 1
10
343.988000
20
400.341000
11
343.538520
21
399.393790
0
LINE
8
Calque 1
10
343.538520
20
399.393790
11
342.536610
21
395.823540
0
LINE
8
Calque 1
10
342.536610
20
395.823540
11
342.134070
21
393.050610
0
LINE
8
Calque 1
10
342.134070
20
393.050610
11
344.098020
21
392.636580
0
LINE
8
Calque 1
10
344.098020
20
392.636580
11
348.557920
21
392.161050
0
LINE
8
Calque 1
10
348.557920
20
392.161050
11
352.163540
21
391.912000
0
LINE
8
Calque 1
10
352.163540
20
391.912000
11
352.918281
21
391.982560
0
LINE
8
Calque 1
10
352.918281
20
391.982560
11
353.385090
21
392.205070
0
LINE
8
Calque 1
10
353.385090
20
392.205070
11
353.385000
21
392.205000
0
LINE
8
Calque 1
10
383.988000
20
402.494800
11
384.650310
21
402.796570
0
LINE
8
Calque 1
10
384.650310
20
402.796570
11
384.000450
21
403.307750
0
LINE
8
Calque 1
10
384.000450
20
403.307750
11
383.350590
21
404.043290
0
LINE
8
Calque 1
10
383.350590
20
404.043290
11
383.590950
21
404.254536
0
LINE
8
Calque 1
10
383.590950
20
404.254536
11
384.168840
21
404.447370
0
LINE
8
Calque 1
10
384.168840
20
404.447370
11
384.915027
21
404.807566
0
LINE
8
Calque 1
10
384.915027
20
404.807566
11
385.517890
21
405.526720
0
LINE
8
Calque 1
10
385.517890
20
405.526720
11
386.278310
21
406.426360
0
LINE
8
Calque 1
10
386.278310
20
406.426360
11
387.835520
21
407.605460
0
LINE
8
Calque 1
10
387.835520
20
407.605460
11
389.696430
21
409.069970
0
LINE
8
Calque 1
10
389.696430
20
409.069970
11
390.073089
21
409.360860
0
LINE
8
Calque 1
10
390.073089
20
409.360860
11
390.229750
21
409.659430
0
LINE
8
Calque 1
10
390.229750
20
409.659430
11
389.687140
21
411.084340
0
LINE
8
Calque 1
10
389.687140
20
411.084340
11
389.309201
21
411.729061
0
LINE
8
Calque 1
10
389.309201
20
411.729061
11
388.755917
21
412.266275
0
LINE
8
Calque 1
10
388.755917
20
412.266275
11
386.218750
21
413.700480
0
LINE
8
Calque 1
10
386.218750
20
413.700480
11
383.292970
21
415.195730
0
LINE
8
Calque 1
10
383.292970
20
415.195730
11
382.660320
21
414.601380
0
LINE
8
Calque 1
10
382.660320
20
414.601380
11
382.027670
21
414.007040
0
LINE
8
Calque 1
10
382.027670
20
414.007040
11
382.028000
21
415.090000
0
LINE
8
Calque 1
10
382.028000
20
415.090000
11
382.002822
21
415.711029
0
LINE
8
Calque 1
10
382.002822
20
415.711029
11
381.856129
21
416.089282
0
LINE
8
Calque 1
10
381.856129
20
416.089282
11
381.481178
21
416.356930
0
LINE
8
Calque 1
10
381.481178
20
416.356930
11
380.771230
21
416.646140
0
LINE
8
Calque 1
10
380.771230
20
416.646140
11
379.673315
21
417.202223
0
LINE
8
Calque 1
10
379.673315
20
417.202223
11
378.798480
21
417.874180
0
LINE
8
Calque 1
10
378.798480
20
417.874180
11
378.119165
21
418.431695
0
LINE
8
Calque 1
10
378.119165
20
418.431695
11
377.559100
21
418.348530
0
LINE
8
Calque 1
10
377.559100
20
418.348530
11
376.843204
21
418.150703
0
LINE
8
Calque 1
10
376.843204
20
418.150703
11
375.857000
21
418.068420
0
LINE
8
Calque 1
10
375.857000
20
418.068420
11
374.834676
21
417.942619
0
LINE
8
Calque 1
10
374.834676
20
417.942619
11
374.090880
21
417.592770
0
LINE
8
Calque 1
10
374.090880
20
417.592770
11
373.776841
21
417.260818
0
LINE
8
Calque 1
10
373.776841
20
417.260818
11
373.589315
21
416.773735
0
LINE
8
Calque 1
10
373.589315
20
416.773735
11
373.429480
21
414.587540
0
LINE
8
Calque 1
10
373.429480
20
414.587540
11
373.290872
21
412.639683
0
LINE
8
Calque 1
10
373.290872
20
412.639683
11
373.061530
21
411.508710
0
LINE
8
Calque 1
10
373.061530
20
411.508710
11
372.853929
21
410.387974
0
LINE
8
Calque 1
10
372.853929
20
410.387974
11
372.767580
21
408.464730
0
LINE
8
Calque 1
10
372.767580
20
408.464730
11
372.768000
21
405.970000
0
LINE
8
Calque 1
10
372.768000
20
405.970000
11
375.083110
21
405.514790
0
LINE
8
Calque 1
10
375.083110
20
405.514790
11
377.029032
21
405.042589
0
LINE
8
Calque 1
10
377.029032
20
405.042589
11
378.456540
21
404.546530
0
LINE
8
Calque 1
10
378.456540
20
404.546530
11
380.801550
21
403.113460
0
LINE
8
Calque 1
10
380.801550
20
403.113460
11
381.892125
21
402.463679
0
LINE
8
Calque 1
10
381.892125
20
402.463679
11
382.707330
21
402.193420
0
LINE
8
Calque 1
10
382.707330
20
402.193420
11
383.988750
21
402.495190
0
LINE
8
Calque 1
10
383.988750
20
402.495190
11
383.988000
21
402.494800
0
LINE
8
Calque 1
10
362.040900
20
403.763180
11
364.239330
21
404.793100
0
LINE
8
Calque 1
10
364.239330
20
404.793100
11
366.111515
21
405.402019
0
LINE
8
Calque 1
10
366.111515
20
405.402019
11
367.740160
21
405.766940
0
LINE
8
Calque 1
10
367.740160
20
405.766940
11
369.632550
21
406.187720
0
LINE
8
Calque 1
10
369.632550
20
406.187720
11
369.995271
21
406.711524
0
LINE
8
Calque 1
10
369.995271
20
406.711524
11
370.212320
21
407.810900
0
LINE
8
Calque 1
10
370.212320
20
407.810900
11
370.435740
21
413.834690
0
LINE
8
Calque 1
10
370.435740
20
413.834690
11
370.516540
21
418.464900
0
LINE
8
Calque 1
10
370.516540
20
418.464900
11
368.502970
21
418.418700
0
LINE
8
Calque 1
10
368.502970
20
418.418700
11
365.425300
21
418.085940
0
LINE
8
Calque 1
10
365.425300
20
418.085940
11
364.576134
21
417.726566
0
LINE
8
Calque 1
10
364.576134
20
417.726566
11
364.202190
21
417.206130
0
LINE
8
Calque 1
10
364.202190
20
417.206130
11
364.033200
21
414.628470
0
LINE
8
Calque 1
10
364.033200
20
414.628470
11
364.023200
21
412.644100
0
LINE
8
Calque 1
10
364.023200
20
412.644100
11
362.905090
21
414.693800
0
LINE
8
Calque 1
10
362.905090
20
414.693800
11
361.820017
21
416.442649
0
LINE
8
Calque 1
10
361.820017
20
416.442649
11
361.414884
21
416.695055
0
LINE
8
Calque 1
10
361.414884
20
416.695055
11
360.893870
21
416.744320
0
LINE
8
Calque 1
10
360.893870
20
416.744320
11
359.542147
21
416.382179
0
LINE
8
Calque 1
10
359.542147
20
416.382179
11
357.364990
21
415.366750
0
LINE
8
Calque 1
10
357.364990
20
415.366750
11
355.315966
21
414.170431
0
LINE
8
Calque 1
10
355.315966
20
414.170431
11
354.090900
21
413.229780
0
LINE
8
Calque 1
10
354.090900
20
413.229780
11
353.640102
21
412.550685
0
LINE
8
Calque 1
10
353.640102
20
412.550685
11
353.452600
21
411.983190
0
LINE
8
Calque 1
10
353.452600
20
411.983190
11
353.966785
21
411.068916
0
LINE
8
Calque 1
10
353.966785
20
411.068916
11
355.203010
21
409.556090
0
LINE
8
Calque 1
10
355.203010
20
409.556090
11
358.889300
21
405.566500
0
LINE
8
Calque 1
10
358.889300
20
405.566500
11
360.440029
21
404.078294
0
LINE
8
Calque 1
10
360.440029
20
404.078294
11
361.356610
21
403.515970
0
LINE
8
Calque 1
10
361.356610
20
403.515970
11
362.040840
21
403.763210
0
LINE
8
Calque 1
10
362.040840
20
403.763210
11
362.040900
21
403.763180
 0 
ENDSEC
 0 
EOF