999
"DXF R12 Output" (www.mydxf.blogspot.com)
 0 
SECTION
 2 
HEADER
 9 
$ACADVER
 1 
AC1009
 9 
$EXTMIN
 10 
 0 
 20 
 0 
 9 
$EXTMAX
 10 
 8.5 
 20 
 11 
 0 
ENDSEC
 0 
SECTION
 2 
ENTITIES
0
LINE
8
Calque 1
10
354.995000
20
296.502000
11
352.631670
21
303.739750
0
LINE
8
Calque 1
10
352.631670
20
303.739750
11
349.234440
21
314.627350
0
LINE
8
Calque 1
10
349.234440
20
314.627350
11
348.059210
21
318.505850
0
LINE
8
Calque 1
10
348.059210
20
318.505850
11
345.413380
21
318.820230
0
LINE
8
Calque 1
10
345.413380
20
318.820230
11
339.403020
21
319.778180
0
LINE
8
Calque 1
10
339.403020
20
319.778180
11
332.391570
21
321.461930
0
LINE
8
Calque 1
10
332.391570
20
321.461930
11
327.024840
21
323.140300
0
LINE
8
Calque 1
10
327.024840
20
323.140300
11
323.717550
21
324.443320
0
LINE
8
Calque 1
10
323.717550
20
324.443320
11
320.661970
21
325.772950
0
LINE
8
Calque 1
10
320.661970
20
325.772950
11
319.193900
21
326.437760
0
LINE
8
Calque 1
10
319.193900
20
326.437760
11
313.253640
21
320.764270
0
LINE
8
Calque 1
10
313.253640
20
320.764270
11
304.733690
21
312.692280
0
LINE
8
Calque 1
10
304.733690
20
312.692280
11
302.154010
21
310.453690
0
LINE
8
Calque 1
10
302.154010
20
310.453690
11
303.867240
21
318.354140
0
LINE
8
Calque 1
10
303.867240
20
318.354140
11
306.254330
21
329.137440
0
LINE
8
Calque 1
10
306.254330
20
329.137440
11
307.056370
21
332.762250
0
LINE
8
Calque 1
10
307.056370
20
332.762250
11
307.032462
21
333.122225
0
LINE
8
Calque 1
10
307.032462
20
333.122225
11
306.742117
21
333.548918
0
LINE
8
Calque 1
10
306.742117
20
333.548918
11
305.000000
21
334.995780
0
LINE
8
Calque 1
10
305.000000
20
334.995780
11
300.566510
21
338.545160
0
LINE
8
Calque 1
10
300.566510
20
338.545160
11
297.928940
21
340.965816
0
LINE
8
Calque 1
10
297.928940
20
340.965816
11
294.745670
21
344.120490
0
LINE
8
Calque 1
10
294.745670
20
344.120490
11
291.531752
21
347.629784
0
LINE
8
Calque 1
10
291.531752
20
347.629784
11
288.820500
21
350.903060
0
LINE
8
Calque 1
10
288.820500
20
350.903060
11
286.278490
21
354.008270
0
LINE
8
Calque 1
10
286.278490
20
354.008270
11
281.488030
21
352.969620
0
LINE
8
Calque 1
10
281.488030
20
352.969620
11
270.413930
21
350.436920
0
LINE
8
Calque 1
10
270.413930
20
350.436920
11
263.733200
21
348.814130
0
LINE
8
Calque 1
10
263.733200
20
348.814130
11
263.586921
21
348.786092
0
LINE
8
Calque 1
10
263.586921
20
348.786092
11
263.527770
21
348.899430
0
LINE
8
Calque 1
10
263.527770
20
348.899430
11
266.348390
21
352.156200
0
LINE
8
Calque 1
10
266.348390
20
352.156200
11
274.283000
21
360.531120
0
LINE
8
Calque 1
10
274.283000
20
360.531120
11
279.399870
21
366.094890
0
LINE
8
Calque 1
10
279.399870
20
366.094890
11
278.212330
21
369.024810
0
LINE
8
Calque 1
10
278.212330
20
369.024810
11
275.950390
21
374.838120
0
LINE
8
Calque 1
10
275.950390
20
374.838120
11
273.979430
21
381.524940
0
LINE
8
Calque 1
10
273.979430
20
381.524940
11
272.684970
21
387.478070
0
LINE
8
Calque 1
10
272.684970
20
387.478070
11
271.981530
21
392.381940
0
LINE
8
Calque 1
10
271.981530
20
392.381940
11
271.675980
21
394.904550
0
LINE
8
Calque 1
10
271.675980
20
394.904550
11
269.783240
21
395.451410
0
LINE
8
Calque 1
10
269.783240
20
395.451410
11
261.805080
21
397.911140
0
LINE
8
Calque 1
10
261.805080
20
397.911140
11
252.676960
21
400.756940
0
LINE
8
Calque 1
10
252.676960
20
400.756940
11
249.416440
21
401.892610
0
LINE
8
Calque 1
10
249.416440
20
401.892610
11
249.482034
21
402.087210
0
LINE
8
Calque 1
10
249.482034
20
402.087210
11
249.945600
21
402.270380
0
LINE
8
Calque 1
10
249.945600
20
402.270380
11
255.851950
21
404.049480
0
LINE
8
Calque 1
10
255.851950
20
404.049480
11
265.112370
21
406.970710
0
LINE
8
Calque 1
10
265.112370
20
406.970710
11
270.431110
21
408.673020
0
LINE
8
Calque 1
10
270.431110
20
408.673020
11
271.648800
21
409.058180
0
LINE
8
Calque 1
10
271.648800
20
409.058180
11
272.094560
21
412.423330
0
LINE
8
Calque 1
10
272.094560
20
412.423330
11
273.180890
21
418.967350
0
LINE
8
Calque 1
10
273.180890
20
418.967350
11
274.779070
21
425.449640
0
LINE
8
Calque 1
10
274.779070
20
425.449640
11
276.883270
21
431.691960
0
LINE
8
Calque 1
10
276.883270
20
431.691960
11
278.730150
21
436.012810
0
LINE
8
Calque 1
10
278.730150
20
436.012810
11
279.200811
21
437.090311
0
LINE
8
Calque 1
10
279.200811
20
437.090311
11
279.349010
21
437.740290
0
LINE
8
Calque 1
10
279.349010
20
437.740290
11
271.462370
21
446.332600
0
LINE
8
Calque 1
10
271.462370
20
446.332600
11
263.581450
21
454.791790
0
LINE
8
Calque 1
10
263.581450
20
454.791790
11
264.327447
21
454.758840
0
LINE
8
Calque 1
10
264.327447
20
454.758840
11
266.227290
21
454.381400
0
LINE
8
Calque 1
10
266.227290
20
454.381400
11
277.655890
21
451.770870
0
LINE
8
Calque 1
10
277.655890
20
451.770870
11
286.406560
21
449.851440
0
LINE
8
Calque 1
10
286.406560
20
449.851440
11
287.740990
21
451.639520
0
LINE
8
Calque 1
10
287.740990
20
451.639520
11
290.476450
21
455.079110
0
LINE
8
Calque 1
10
290.476450
20
455.079110
11
293.531830
21
458.611450
0
LINE
8
Calque 1
10
293.531830
20
458.611450
11
298.185290
21
463.203790
0
LINE
8
Calque 1
10
298.185290
20
463.203790
11
301.211211
21
465.827511
0
LINE
8
Calque 1
10
301.211211
20
465.827511
11
304.213560
21
468.232060
0
LINE
8
Calque 1
10
304.213560
20
468.232060
11
306.479190
21
470.061125
0
LINE
8
Calque 1
10
306.479190
20
470.061125
11
306.964708
21
470.591430
0
LINE
8
Calque 1
10
306.964708
20
470.591430
11
307.072140
21
470.915760
0
LINE
8
Calque 1
10
307.072140
20
470.915760
11
304.549590
21
482.174060
0
LINE
8
Calque 1
10
304.549590
20
482.174060
11
302.154040
21
493.254060
0
LINE
8
Calque 1
10
302.154040
20
493.254060
11
302.718596
21
492.901011
0
LINE
8
Calque 1
10
302.718596
20
492.901011
11
304.075940
21
491.691410
0
LINE
8
Calque 1
10
304.075940
20
491.691410
11
312.581730
21
483.654130
0
LINE
8
Calque 1
10
312.581730
20
483.654130
11
319.324930
21
477.491120
0
LINE
8
Calque 1
10
319.324930
20
477.491120
11
322.394660
21
478.852300
0
LINE
8
Calque 1
10
322.394660
20
478.852300
11
325.647771
21
480.171077
0
LINE
8
Calque 1
10
325.647771
20
480.171077
11
329.382120
21
481.507090
0
LINE
8
Calque 1
10
329.382120
20
481.507090
11
333.356676
21
482.696649
0
LINE
8
Calque 1
10
333.356676
20
482.696649
11
337.187330
21
483.663300
0
LINE
8
Calque 1
10
337.187330
20
483.663300
11
344.458560
21
484.928470
0
LINE
8
Calque 1
10
344.458560
20
484.928470
11
348.001620
21
485.385730
0
LINE
8
Calque 1
10
348.001620
20
485.385730
11
350.347860
21
492.920450
0
LINE
8
Calque 1
10
350.347860
20
492.920450
11
353.811210
21
504.085050
0
LINE
8
Calque 1
10
353.811210
20
504.085050
11
354.651161
21
506.592734
0
LINE
8
Calque 1
10
354.651161
20
506.592734
11
355.101930
21
507.524630
0
LINE
8
Calque 1
10
355.101930
20
507.524630
11
357.799880
21
499.264580
0
LINE
8
Calque 1
10
357.799880
20
499.264580
11
361.217740
21
488.293480
0
LINE
8
Calque 1
10
361.217740
20
488.293480
11
362.111260
21
485.392150
0
LINE
8
Calque 1
10
362.111260
20
485.392150
11
366.197750
21
484.807390
0
LINE
8
Calque 1
10
366.197750
20
484.807390
11
372.268620
21
483.801650
0
LINE
8
Calque 1
10
372.268620
20
483.801650
11
377.692570
21
482.431830
0
LINE
8
Calque 1
10
377.692570
20
482.431830
11
383.805410
21
480.467600
0
LINE
8
Calque 1
10
383.805410
20
480.467600
11
388.716700
21
478.418220
0
LINE
8
Calque 1
10
388.716700
20
478.418220
11
390.954730
21
477.384250
0
LINE
8
Calque 1
10
390.954730
20
477.384250
11
399.379600
21
485.417270
0
LINE
8
Calque 1
10
399.379600
20
485.417270
11
407.896060
21
493.358680
0
LINE
8
Calque 1
10
407.896060
20
493.358680
11
405.603210
21
482.441380
0
LINE
8
Calque 1
10
405.603210
20
482.441380
11
403.089720
21
471.041180
0
LINE
8
Calque 1
10
403.089720
20
471.041180
11
403.144168
21
470.658759
0
LINE
8
Calque 1
10
403.144168
20
470.658759
11
403.563215
21
470.139531
0
LINE
8
Calque 1
10
403.563215
20
470.139531
11
406.059040
21
468.139590
0
LINE
8
Calque 1
10
406.059040
20
468.139590
11
409.331128
21
465.444196
0
LINE
8
Calque 1
10
409.331128
20
465.444196
11
412.847190
21
462.231730
0
LINE
8
Calque 1
10
412.847190
20
462.231730
11
416.121128
21
458.925647
0
LINE
8
Calque 1
10
416.121128
20
458.925647
11
418.811100
21
456.005200
0
LINE
8
Calque 1
10
418.811100
20
456.005200
11
422.393500
21
451.572100
0
LINE
8
Calque 1
10
422.393500
20
451.572100
11
423.473380
21
450.268465
0
LINE
8
Calque 1
10
423.473380
20
450.268465
11
424.112800
21
449.897440
0
LINE
8
Calque 1
10
424.112800
20
449.897440
11
429.418610
21
451.097350
0
LINE
8
Calque 1
10
429.418610
20
451.097350
11
440.398810
21
453.601640
0
LINE
8
Calque 1
10
440.398810
20
453.601640
11
446.581560
21
454.929500
0
LINE
8
Calque 1
10
446.581560
20
454.929500
11
438.608080
21
446.294670
0
LINE
8
Calque 1
10
438.608080
20
446.294670
11
430.537260
21
437.748950
0
LINE
8
Calque 1
10
430.537260
20
437.748950
11
431.043080
21
436.753940
0
LINE
8
Calque 1
10
431.043080
20
436.753940
11
432.846830
21
432.511440
0
LINE
8
Calque 1
10
432.846830
20
432.511440
11
435.062530
21
426.230400
0
LINE
8
Calque 1
10
435.062530
20
426.230400
11
436.691890
21
420.021870
0
LINE
8
Calque 1
10
436.691890
20
420.021870
11
437.975100
21
412.920810
0
LINE
8
Calque 1
10
437.975100
20
412.920810
11
438.546730
21
408.994750
0
LINE
8
Calque 1
10
438.546730
20
408.994750
11
442.250890
21
407.838370
0
LINE
8
Calque 1
10
442.250890
20
407.838370
11
453.486390
21
404.321870
0
LINE
8
Calque 1
10
453.486390
20
404.321870
11
461.017710
21
401.961760
0
LINE
8
Calque 1
10
461.017710
20
401.961760
11
457.058260
21
400.701820
0
LINE
8
Calque 1
10
457.058260
20
400.701820
11
445.822760
21
397.143280
0
LINE
8
Calque 1
10
445.822760
20
397.143280
11
438.546720
21
394.844670
0
LINE
8
Calque 1
10
438.546720
20
394.844670
11
438.358330
21
393.674940
0
LINE
8
Calque 1
10
438.358330
20
393.674940
11
437.605590
21
388.801040
0
LINE
8
Calque 1
10
437.605590
20
388.801040
11
436.121580
21
381.430600
0
LINE
8
Calque 1
10
436.121580
20
381.430600
11
434.271460
21
375.080600
0
LINE
8
Calque 1
10
434.271460
20
375.080600
11
432.018170
21
369.305750
0
LINE
8
Calque 1
10
432.018170
20
369.305750
11
431.084658
21
366.895102
0
LINE
8
Calque 1
10
431.084658
20
366.895102
11
430.916880
21
365.822920
0
LINE
8
Calque 1
10
430.916880
20
365.822920
11
437.488380
21
358.731180
0
LINE
8
Calque 1
10
437.488380
20
358.731180
11
445.267720
21
350.506190
0
LINE
8
Calque 1
10
445.267720
20
350.506190
11
446.187070
21
349.429200
0
LINE
8
Calque 1
10
446.187070
20
349.429200
11
446.390260
21
348.981250
0
LINE
8
Calque 1
10
446.390260
20
348.981250
11
442.447380
21
349.790070
0
LINE
8
Calque 1
10
442.447380
20
349.790070
11
432.064480
21
352.146020
0
LINE
8
Calque 1
10
432.064480
20
352.146020
11
424.512810
21
353.859660
0
LINE
8
Calque 1
10
424.512810
20
353.859660
11
424.007958
21
353.884890
0
LINE
8
Calque 1
10
424.007958
20
353.884890
11
423.471340
21
353.549894
0
LINE
8
Calque 1
10
423.471340
20
353.549894
11
421.205510
21
350.776100
0
LINE
8
Calque 1
10
421.205510
20
350.776100
11
418.085616
21
347.121401
0
LINE
8
Calque 1
10
418.085616
20
347.121401
11
414.072810
21
342.881500
0
LINE
8
Calque 1
10
414.072810
20
342.881500
11
409.808198
21
338.817711
0
LINE
8
Calque 1
10
409.808198
20
338.817711
11
406.190640
21
335.781790
0
LINE
8
Calque 1
10
406.190640
20
335.781790
11
403.716059
21
333.790917
0
LINE
8
Calque 1
10
403.716059
20
333.790917
11
403.183291
21
333.223771
0
LINE
8
Calque 1
10
403.183291
20
333.223771
11
403.059170
21
332.885700
0
LINE
8
Calque 1
10
403.059170
20
332.885700
11
403.853880
21
329.402080
0
LINE
8
Calque 1
10
403.853880
20
329.402080
11
406.271970
21
318.458180
0
LINE
8
Calque 1
10
406.271970
20
318.458180
11
407.928820
21
310.469940
0
LINE
8
Calque 1
10
407.928820
20
310.469940
11
403.058330
21
314.931580
0
LINE
8
Calque 1
10
403.058330
20
314.931580
11
394.598310
21
322.951960
0
LINE
8
Calque 1
10
394.598310
20
322.951960
11
390.921770
21
326.423680
0
LINE
8
Calque 1
10
390.921770
20
326.423680
11
388.540520
21
325.368250
0
LINE
8
Calque 1
10
388.540520
20
325.368250
11
383.442710
21
323.297770
0
LINE
8
Calque 1
10
383.442710
20
323.297770
11
377.886460
21
321.465580
0
LINE
8
Calque 1
10
377.886460
20
321.465580
11
371.210310
21
319.888020
0
LINE
8
Calque 1
10
371.210310
20
319.888020
11
364.728020
21
318.804300
0
LINE
8
Calque 1
10
364.728020
20
318.804300
11
362.082190
21
318.481020
0
LINE
8
Calque 1
10
362.082190
20
318.481020
11
360.033370
21
311.836880
0
LINE
8
Calque 1
10
360.033370
20
311.836880
11
356.560470
21
300.733080
0
LINE
8
Calque 1
10
356.560470
20
300.733080
11
355.513199
21
297.650645
0
LINE
8
Calque 1
10
355.513199
20
297.650645
11
354.995060
21
296.502130
0
LINE
8
Calque 1
10
354.995060
20
296.502130
11
354.995000
21
296.502000
0
LINE
8
Calque 1
10
365.257100
20
329.666700
11
372.268560
21
331.025500
0
LINE
8
Calque 1
10
372.268560
20
331.025500
11
377.950810
21
332.620280
0
LINE
8
Calque 1
10
377.950810
20
332.620280
11
382.525470
21
334.318400
0
LINE
8
Calque 1
10
382.525470
20
334.318400
11
387.642130
21
336.691880
0
LINE
8
Calque 1
10
387.642130
20
336.691880
11
393.288530
21
339.825880
0
LINE
8
Calque 1
10
393.288530
20
339.825880
11
399.290660
21
343.976060
0
LINE
8
Calque 1
10
399.290660
20
343.976060
11
402.733909
21
346.855709
0
LINE
8
Calque 1
10
402.733909
20
346.855709
11
406.416670
21
350.297820
0
LINE
8
Calque 1
10
406.416670
20
350.297820
11
409.663403
21
353.672324
0
LINE
8
Calque 1
10
409.663403
20
353.672324
11
412.058330
21
356.389430
0
LINE
8
Calque 1
10
412.058330
20
356.389430
11
415.636180
21
361.299760
0
LINE
8
Calque 1
10
415.636180
20
361.299760
11
418.962910
21
366.699980
0
LINE
8
Calque 1
10
418.962910
20
366.699980
11
422.018410
21
372.902150
0
LINE
8
Calque 1
10
422.018410
20
372.902150
11
423.414173
21
376.358497
0
LINE
8
Calque 1
10
423.414173
20
376.358497
11
424.637870
21
379.805050
0
LINE
8
Calque 1
10
424.637870
20
379.805050
11
425.643350
21
383.361215
0
LINE
8
Calque 1
10
425.643350
20
383.361215
11
426.514460
21
387.081090
0
LINE
8
Calque 1
10
426.514460
20
387.081090
11
427.180451
21
391.027187
0
LINE
8
Calque 1
10
427.180451
20
391.027187
11
427.692760
21
395.127230
0
LINE
8
Calque 1
10
427.692760
20
395.127230
11
428.095640
21
401.925850
0
LINE
8
Calque 1
10
428.095640
20
401.925850
11
427.816730
21
407.902620
0
LINE
8
Calque 1
10
427.816730
20
407.902620
11
427.147930
21
413.804010
0
LINE
8
Calque 1
10
427.147930
20
413.804010
11
425.855310
21
419.757130
0
LINE
8
Calque 1
10
425.855310
20
419.757130
11
423.987300
21
425.974840
0
LINE
8
Calque 1
10
423.987300
20
425.974840
11
421.481300
21
432.137860
0
LINE
8
Calque 1
10
421.481300
20
432.137860
11
419.832865
21
435.486884
0
LINE
8
Calque 1
10
419.832865
20
435.486884
11
418.033140
21
438.785530
0
LINE
8
Calque 1
10
418.033140
20
438.785530
11
415.949084
21
442.077682
0
LINE
8
Calque 1
10
415.949084
20
442.077682
11
413.617040
21
445.411100
0
LINE
8
Calque 1
10
413.617040
20
445.411100
11
410.823419
21
448.840377
0
LINE
8
Calque 1
10
410.823419
20
448.840377
11
407.629620
21
452.363000
0
LINE
8
Calque 1
10
407.629620
20
452.363000
11
404.331588
21
455.586142
0
LINE
8
Calque 1
10
404.331588
20
455.586142
11
401.287370
21
458.295400
0
LINE
8
Calque 1
10
401.287370
20
458.295400
11
398.279735
21
460.601000
0
LINE
8
Calque 1
10
398.279735
20
460.601000
11
395.069660
21
462.853650
0
LINE
8
Calque 1
10
395.069660
20
462.853650
11
389.201890
21
466.401040
0
LINE
8
Calque 1
10
389.201890
20
466.401040
11
384.196380
21
468.828960
0
LINE
8
Calque 1
10
384.196380
20
468.828960
11
378.640130
21
470.984860
0
LINE
8
Calque 1
10
378.640130
20
470.984860
11
372.400850
21
472.825040
0
LINE
8
Calque 1
10
372.400850
20
472.825040
11
365.653970
21
474.135240
0
LINE
8
Calque 1
10
365.653970
20
474.135240
11
361.658274
21
474.556659
0
LINE
8
Calque 1
10
361.658274
20
474.556659
11
357.055010
21
474.821800
0
LINE
8
Calque 1
10
357.055010
20
474.821800
11
352.268911
21
474.848730
0
LINE
8
Calque 1
10
352.268911
20
474.848730
11
348.059180
21
474.566600
0
LINE
8
Calque 1
10
348.059180
20
474.566600
11
344.129294
21
474.044252
0
LINE
8
Calque 1
10
344.129294
20
474.044252
11
340.253970
21
473.366010
0
LINE
8
Calque 1
10
340.253970
20
473.366010
11
333.903970
21
471.789740
0
LINE
8
Calque 1
10
333.903970
20
471.789740
11
329.406060
21
470.289010
0
LINE
8
Calque 1
10
329.406060
20
470.289010
11
324.205290
21
468.045690
0
LINE
8
Calque 1
10
324.205290
20
468.045690
11
318.384460
21
464.991690
0
LINE
8
Calque 1
10
318.384460
20
464.991690
11
313.531060
21
461.866550
0
LINE
8
Calque 1
10
313.531060
20
461.866550
11
308.774480
21
458.267730
0
LINE
8
Calque 1
10
308.774480
20
458.267730
11
306.136836
21
455.987164
0
LINE
8
Calque 1
10
306.136836
20
455.987164
11
303.316620
21
453.309930
0
LINE
8
Calque 1
10
303.316620
20
453.309930
11
300.587733
21
450.418050
0
LINE
8
Calque 1
10
300.587733
20
450.418050
11
298.169660
21
447.621390
0
LINE
8
Calque 1
10
298.169660
20
447.621390
11
294.035470
21
441.948510
0
LINE
8
Calque 1
10
294.035470
20
441.948510
11
292.127774
21
438.829922
0
LINE
8
Calque 1
10
292.127774
20
438.829922
11
290.261860
21
435.466220
0
LINE
8
Calque 1
10
290.261860
20
435.466220
11
287.253490
21
429.008560
0
LINE
8
Calque 1
10
287.253490
20
429.008560
11
285.395520
21
423.840880
0
LINE
8
Calque 1
10
285.395520
20
423.840880
11
283.916420
21
418.293620
0
LINE
8
Calque 1
10
283.916420
20
418.293620
11
282.663740
21
411.819630
0
LINE
8
Calque 1
10
282.663740
20
411.819630
11
282.308308
21
407.925079
0
LINE
8
Calque 1
10
282.308308
20
407.925079
11
282.203570
21
402.294630
0
LINE
8
Calque 1
10
282.203570
20
402.294630
11
282.300126
21
396.998137
0
LINE
8
Calque 1
10
282.300126
20
396.998137
11
282.544380
21
393.298800
0
LINE
8
Calque 1
10
282.544380
20
393.298800
11
283.524330
21
387.506870
0
LINE
8
Calque 1
10
283.524330
20
387.506870
11
284.963870
21
381.587950
0
LINE
8
Calque 1
10
284.963870
20
381.587950
11
286.717890
21
376.267380
0
LINE
8
Calque 1
10
286.717890
20
376.267380
11
289.074790
21
370.739610
0
LINE
8
Calque 1
10
289.074790
20
370.739610
11
292.361490
21
364.578170
0
LINE
8
Calque 1
10
292.361490
20
364.578170
11
294.398909
21
361.391009
0
LINE
8
Calque 1
10
294.398909
20
361.391009
11
296.653730
21
358.195770
0
LINE
8
Calque 1
10
296.653730
20
358.195770
11
299.334090
21
354.924510
0
LINE
8
Calque 1
10
299.334090
20
354.924510
11
302.394610
21
351.554580
0
LINE
8
Calque 1
10
302.394610
20
351.554580
11
305.524513
21
348.472458
0
LINE
8
Calque 1
10
305.524513
20
348.472458
11
308.371680
21
345.893180
0
LINE
8
Calque 1
10
308.371680
20
345.893180
11
311.211820
21
343.673378
0
LINE
8
Calque 1
10
311.211820
20
343.673378
11
314.324810
21
341.455540
0
LINE
8
Calque 1
10
314.324810
20
341.455540
11
320.145640
21
337.855860
0
LINE
8
Calque 1
10
320.145640
20
337.855860
11
326.098770
21
334.952150
0
LINE
8
Calque 1
10
326.098770
20
334.952150
11
332.172720
21
332.590920
0
LINE
8
Calque 1
10
332.172720
20
332.590920
11
337.332100
21
331.113480
0
LINE
8
Calque 1
10
337.332100
20
331.113480
11
343.164390
21
329.944860
0
LINE
8
Calque 1
10
343.164390
20
329.944860
11
348.985220
21
329.159650
0
LINE
8
Calque 1
10
348.985220
20
329.159650
11
352.237116
21
329.011434
0
LINE
8
Calque 1
10
352.237116
20
329.011434
11
356.525850
21
329.010750
0
LINE
8
Calque 1
10
356.525850
20
329.010750
11
361.208680
21
329.231486
0
LINE
8
Calque 1
10
361.208680
20
329.231486
11
365.257100
21
329.666700
0
LINE
8
Calque 1
10
365.257100
20
329.666700
11
365.257100
21
329.666700
0
LINE
8
Calque 1
10
349.779000
20
336.043980
11
345.413380
21
336.556350
0
LINE
8
Calque 1
10
345.413380
20
336.556350
11
340.032150
21
337.621170
0
LINE
8
Calque 1
10
340.032150
20
337.621170
11
333.549860
21
339.471270
0
LINE
8
Calque 1
10
333.549860
20
339.471270
11
330.107240
21
340.797940
0
LINE
8
Calque 1
10
330.107240
20
340.797940
11
326.348810
21
342.476720
0
LINE
8
Calque 1
10
326.348810
20
342.476720
11
322.723794
21
344.365499
0
LINE
8
Calque 1
10
322.723794
20
344.365499
11
319.601930
21
346.197060
0
LINE
8
Calque 1
10
319.601930
20
346.197060
11
314.589420
21
349.729440
0
LINE
8
Calque 1
10
314.589420
20
349.729440
11
312.002759
21
351.934399
0
LINE
8
Calque 1
10
312.002759
20
351.934399
11
308.941880
21
354.790110
0
LINE
8
Calque 1
10
308.941880
20
354.790110
11
305.975689
21
357.833722
0
LINE
8
Calque 1
10
305.975689
20
357.833722
11
303.616690
21
360.490470
0
LINE
8
Calque 1
10
303.616690
20
360.490470
11
299.852810
21
365.649850
0
LINE
8
Calque 1
10
299.852810
20
365.649850
11
297.069620
21
370.147760
0
LINE
8
Calque 1
10
297.069620
20
370.147760
11
294.804550
21
374.798420
0
LINE
8
Calque 1
10
294.804550
20
374.798420
11
292.507550
21
380.619250
0
LINE
8
Calque 1
10
292.507550
20
380.619250
11
290.767410
21
386.684220
0
LINE
8
Calque 1
10
290.767410
20
386.684220
11
289.589880
21
392.637340
0
LINE
8
Calque 1
10
289.589880
20
392.637340
11
289.251003
21
395.959516
0
LINE
8
Calque 1
10
289.251003
20
395.959516
11
289.019360
21
400.045680
0
LINE
8
Calque 1
10
289.019360
20
400.045680
11
288.994645
21
404.490118
0
LINE
8
Calque 1
10
288.994645
20
404.490118
11
289.291050
21
408.477700
0
LINE
8
Calque 1
10
289.291050
20
408.477700
11
290.385760
21
415.577330
0
LINE
8
Calque 1
10
290.385760
20
415.577330
11
291.239363
21
419.065284
0
LINE
8
Calque 1
10
291.239363
20
419.065284
11
292.353980
21
422.820230
0
LINE
8
Calque 1
10
292.353980
20
422.820230
11
293.770004
21
426.636729
0
LINE
8
Calque 1
10
293.770004
20
426.636729
11
295.348260
21
430.272680
0
LINE
8
Calque 1
10
295.348260
20
430.272680
11
298.555790
21
436.263300
0
LINE
8
Calque 1
10
298.555790
20
436.263300
11
301.549690
21
440.761210
0
LINE
8
Calque 1
10
301.549690
20
440.761210
11
305.303910
21
445.400540
0
LINE
8
Calque 1
10
305.303910
20
445.400540
11
307.803755
21
448.065902
0
LINE
8
Calque 1
10
307.803755
20
448.065902
11
310.620670
21
450.788430
0
LINE
8
Calque 1
10
310.620670
20
450.788430
11
313.507935
21
453.267744
0
LINE
8
Calque 1
10
313.507935
20
453.267744
11
316.176920
21
455.348380
0
LINE
8
Calque 1
10
316.176920
20
455.348380
11
320.939420
21
458.540340
0
LINE
8
Calque 1
10
320.939420
20
458.540340
11
326.363380
21
461.443900
0
LINE
8
Calque 1
10
326.363380
20
461.443900
11
331.258170
21
463.626280
0
LINE
8
Calque 1
10
331.258170
20
463.626280
11
336.113520
21
465.249350
0
LINE
8
Calque 1
10
336.113520
20
465.249350
11
339.349972
21
466.107004
0
LINE
8
Calque 1
10
339.349972
20
466.107004
11
342.728100
21
466.836340
0
LINE
8
Calque 1
10
342.728100
20
466.836340
11
349.911300
21
467.795130
0
LINE
8
Calque 1
10
349.911300
20
467.795130
11
353.687177
21
467.982486
0
LINE
8
Calque 1
10
353.687177
20
467.982486
11
357.584210
21
467.944370
0
LINE
8
Calque 1
10
357.584210
20
467.944370
11
361.358655
21
467.672395
0
LINE
8
Calque 1
10
361.358655
20
467.672395
11
364.860250
21
467.259480
0
LINE
8
Calque 1
10
364.860250
20
467.259480
11
371.335750
21
465.942860
0
LINE
8
Calque 1
10
371.335750
20
465.942860
11
377.553460
21
464.051510
0
LINE
8
Calque 1
10
377.553460
20
464.051510
11
380.746759
21
462.777149
0
LINE
8
Calque 1
10
380.746759
20
462.777149
11
384.141980
21
461.241120
0
LINE
8
Calque 1
10
384.141980
20
461.241120
11
387.661439
21
459.339838
0
LINE
8
Calque 1
10
387.661439
20
459.339838
11
391.153440
21
457.187290
0
LINE
8
Calque 1
10
391.153440
20
457.187290
11
396.778960
21
453.120480
0
LINE
8
Calque 1
10
396.778960
20
453.120480
11
401.673750
21
448.667810
0
LINE
8
Calque 1
10
401.673750
20
448.667810
11
404.265556
21
445.932666
0
LINE
8
Calque 1
10
404.265556
20
445.932666
11
406.646860
21
443.172540
0
LINE
8
Calque 1
10
406.646860
20
443.172540
11
410.601480
21
437.748800
0
LINE
8
Calque 1
10
410.601480
20
437.748800
11
412.290376
21
434.947525
0
LINE
8
Calque 1
10
412.290376
20
434.947525
11
413.931100
21
431.927970
0
LINE
8
Calque 1
10
413.931100
20
431.927970
11
416.630210
21
425.974840
0
LINE
8
Calque 1
10
416.630210
20
425.974840
11
418.528600
21
420.418590
0
LINE
8
Calque 1
10
418.528600
20
420.418590
11
419.864890
21
414.994630
0
LINE
8
Calque 1
10
419.864890
20
414.994630
11
420.733900
21
409.967550
0
LINE
8
Calque 1
10
420.733900
20
409.967550
11
420.972894
21
406.669263
0
LINE
8
Calque 1
10
420.972894
20
406.669263
11
421.066530
21
402.030050
0
LINE
8
Calque 1
10
421.066530
20
402.030050
11
420.950249
21
397.020641
0
LINE
8
Calque 1
10
420.950249
20
397.020641
11
420.600560
21
393.166510
0
LINE
8
Calque 1
10
420.600560
20
393.166510
11
419.346130
21
386.620280
0
LINE
8
Calque 1
10
419.346130
20
386.620280
11
417.488960
21
380.270280
0
LINE
8
Calque 1
10
417.488960
20
380.270280
11
416.129371
21
376.829554
0
LINE
8
Calque 1
10
416.129371
20
376.829554
11
414.353210
21
372.925890
0
LINE
8
Calque 1
10
414.353210
20
372.925890
11
412.290889
21
369.042298
0
LINE
8
Calque 1
10
412.290889
20
369.042298
11
410.243290
21
365.649850
0
LINE
8
Calque 1
10
410.243290
20
365.649850
11
406.267480
21
360.219340
0
LINE
8
Calque 1
10
406.267480
20
360.219340
11
403.939485
21
357.600551
0
LINE
8
Calque 1
10
403.939485
20
357.600551
11
401.064830
21
354.657410
0
LINE
8
Calque 1
10
401.064830
20
354.657410
11
398.137891
21
351.943005
0
LINE
8
Calque 1
10
398.137891
20
351.943005
11
395.684210
21
349.874140
0
LINE
8
Calque 1
10
395.684210
20
349.874140
11
390.657130
21
346.345090
0
LINE
8
Calque 1
10
390.657130
20
346.345090
11
387.847641
21
344.610254
0
LINE
8
Calque 1
10
387.847641
20
344.610254
11
385.179880
21
343.135300
0
LINE
8
Calque 1
10
385.179880
20
343.135300
11
380.417380
21
340.937500
0
LINE
8
Calque 1
10
380.417380
20
340.937500
11
374.918720
21
338.938100
0
LINE
8
Calque 1
10
374.918720
20
338.938100
11
371.652067
21
337.980624
0
LINE
8
Calque 1
10
371.652067
20
337.980624
11
368.436430
21
337.211330
0
LINE
8
Calque 1
10
368.436430
20
337.211330
11
361.631760
21
336.163990
0
LINE
8
Calque 1
10
361.631760
20
336.163990
11
358.193261
21
335.883301
0
LINE
8
Calque 1
10
358.193261
20
335.883301
11
355.017180
21
335.787090
0
LINE
8
Calque 1
10
355.017180
20
335.787090
11
349.779000
21
336.043980
0
LINE
8
Calque 1
10
349.779000
20
336.043980
11
349.779000
21
336.043980
0
LINE
8
Calque 1
10
362.536000
20
341.192370
11
368.457310
21
342.237280
0
LINE
8
Calque 1
10
368.457310
20
342.237280
11
374.204030
21
343.799470
0
LINE
8
Calque 1
10
374.204030
20
343.799470
11
379.963040
21
346.045530
0
LINE
8
Calque 1
10
379.963040
20
346.045530
11
385.725690
21
348.973510
0
LINE
8
Calque 1
10
385.725690
20
348.973510
11
388.568524
21
350.747826
0
LINE
8
Calque 1
10
388.568524
20
350.747826
11
391.450830
21
352.749310
0
LINE
8
Calque 1
10
391.450830
20
352.749310
11
394.351160
21
355.096361
0
LINE
8
Calque 1
10
394.351160
20
355.096361
11
397.237330
21
357.701510
0
LINE
8
Calque 1
10
397.237330
20
357.701510
11
399.886690
21
360.409565
0
LINE
8
Calque 1
10
399.886690
20
360.409565
11
402.217660
21
363.004010
0
LINE
8
Calque 1
10
402.217660
20
363.004010
11
406.182000
21
368.295680
0
LINE
8
Calque 1
10
406.182000
20
368.295680
11
408.068784
21
371.423550
0
LINE
8
Calque 1
10
408.068784
20
371.423550
11
409.993030
21
375.042550
0
LINE
8
Calque 1
10
409.993030
20
375.042550
11
411.721455
21
378.911744
0
LINE
8
Calque 1
10
411.721455
20
378.911744
11
413.137430
21
382.641130
0
LINE
8
Calque 1
10
413.137430
20
382.641130
11
414.172255
21
386.159186
0
LINE
8
Calque 1
10
414.172255
20
386.159186
11
414.984300
21
389.520290
0
LINE
8
Calque 1
10
414.984300
20
389.520290
11
415.937090
21
395.150890
0
LINE
8
Calque 1
10
415.937090
20
395.150890
11
416.150181
21
398.192766
0
LINE
8
Calque 1
10
416.150181
20
398.192766
11
416.242080
21
402.162340
0
LINE
8
Calque 1
10
416.242080
20
402.162340
11
416.155270
21
406.093059
0
LINE
8
Calque 1
10
416.155270
20
406.093059
11
415.938800
21
409.041510
0
LINE
8
Calque 1
10
415.938800
20
409.041510
11
415.099440
21
413.936300
0
LINE
8
Calque 1
10
415.099440
20
413.936300
11
413.890600
21
418.963380
0
LINE
8
Calque 1
10
413.890600
20
418.963380
11
412.170550
21
423.990470
0
LINE
8
Calque 1
10
412.170550
20
423.990470
11
409.867640
21
429.149840
0
LINE
8
Calque 1
10
409.867640
20
429.149840
11
407.072990
21
434.138590
0
LINE
8
Calque 1
10
407.072990
20
434.138590
11
403.922390
21
438.768800
0
LINE
8
Calque 1
10
403.922390
20
438.768800
11
401.768928
21
441.328985
0
LINE
8
Calque 1
10
401.768928
20
441.328985
11
398.862390
21
444.458150
0
LINE
8
Calque 1
10
398.862390
20
444.458150
11
395.770273
21
447.477680
0
LINE
8
Calque 1
10
395.770273
20
447.477680
11
393.170620
21
449.774270
0
LINE
8
Calque 1
10
393.170620
20
449.774270
11
388.937290
21
452.869870
0
LINE
8
Calque 1
10
388.937290
20
452.869870
11
385.662990
21
454.926510
0
LINE
8
Calque 1
10
385.662990
20
454.926510
11
382.001900
21
456.840690
0
LINE
8
Calque 1
10
382.001900
20
456.840690
11
377.074110
21
459.025700
0
LINE
8
Calque 1
10
377.074110
20
459.025700
11
372.136240
21
460.711880
0
LINE
8
Calque 1
10
372.136240
20
460.711880
11
366.976870
21
461.929080
0
LINE
8
Calque 1
10
366.976870
20
461.929080
11
361.949790
21
462.749770
0
LINE
8
Calque 1
10
361.949790
20
462.749770
11
358.993685
21
462.944864
0
LINE
8
Calque 1
10
358.993685
20
462.944864
11
355.044580
21
463.026340
0
LINE
8
Calque 1
10
355.044580
20
463.026340
11
350.885701
21
462.914000
0
LINE
8
Calque 1
10
350.885701
20
462.914000
11
347.503950
21
462.625350
0
LINE
8
Calque 1
10
347.503950
20
462.625350
11
342.502910
21
461.803520
0
LINE
8
Calque 1
10
342.502910
20
461.803520
11
338.029770
21
460.729000
0
LINE
8
Calque 1
10
338.029770
20
460.729000
11
333.267270
21
459.129600
0
LINE
8
Calque 1
10
333.267270
20
459.129600
11
328.215410
21
456.917580
0
LINE
8
Calque 1
10
328.215410
20
456.917580
11
323.320620
21
454.277480
0
LINE
8
Calque 1
10
323.320620
20
454.277480
11
318.028960
21
450.619930
0
LINE
8
Calque 1
10
318.028960
20
450.619930
11
314.946875
21
448.073470
0
LINE
8
Calque 1
10
314.946875
20
448.073470
11
311.809500
21
445.158880
0
LINE
8
Calque 1
10
311.809500
20
445.158880
11
308.896870
21
442.021505
0
LINE
8
Calque 1
10
308.896870
20
442.021505
11
306.355130
21
438.939420
0
LINE
8
Calque 1
10
306.355130
20
438.939420
11
304.228019
21
435.923972
0
LINE
8
Calque 1
10
304.228019
20
435.923972
11
302.312280
21
432.946790
0
LINE
8
Calque 1
10
302.312280
20
432.946790
11
300.682974
21
430.008702
0
LINE
8
Calque 1
10
300.682974
20
430.008702
11
299.244520
21
427.087220
0
LINE
8
Calque 1
10
299.244520
20
427.087220
11
296.894650
21
421.041310
0
LINE
8
Calque 1
10
296.894650
20
421.041310
11
295.919489
21
417.621646
0
LINE
8
Calque 1
10
295.919489
20
417.621646
11
295.045660
21
413.804010
0
LINE
8
Calque 1
10
295.045660
20
413.804010
11
294.391596
21
409.741830
0
LINE
8
Calque 1
10
294.391596
20
409.741830
11
293.944810
21
405.734220
0
LINE
8
Calque 1
10
293.944810
20
405.734220
11
293.782254
21
402.270660
0
LINE
8
Calque 1
10
293.782254
20
402.270660
11
293.811540
21
399.516510
0
LINE
8
Calque 1
10
293.811540
20
399.516510
11
294.380260
21
394.092550
0
LINE
8
Calque 1
10
294.380260
20
394.092550
11
294.929369
21
390.762110
0
LINE
8
Calque 1
10
294.929369
20
390.762110
11
295.683880
21
387.213390
0
LINE
8
Calque 1
10
295.683880
20
387.213390
11
296.659926
21
383.703521
0
LINE
8
Calque 1
10
296.659926
20
383.703521
11
297.741640
21
380.466510
0
LINE
8
Calque 1
10
297.741640
20
380.466510
11
300.020880
21
375.174840
0
LINE
8
Calque 1
10
300.020880
20
375.174840
11
302.562860
21
370.513140
0
LINE
8
Calque 1
10
302.562860
20
370.513140
11
306.023790
21
365.353760
0
LINE
8
Calque 1
10
306.023790
20
365.353760
11
308.404243
21
362.453377
0
LINE
8
Calque 1
10
308.404243
20
362.453377
11
311.261050
21
359.337070
0
LINE
8
Calque 1
10
311.261050
20
359.337070
11
314.140019
21
356.525140
0
LINE
8
Calque 1
10
314.140019
20
356.525140
11
316.573750
21
354.356560
0
LINE
8
Calque 1
10
316.573750
20
354.356560
11
321.203950
21
350.966100
0
LINE
8
Calque 1
10
321.203950
20
350.966100
11
326.760200
21
347.697080
0
LINE
8
Calque 1
10
326.760200
20
347.697080
11
332.448750
21
345.059630
0
LINE
8
Calque 1
10
332.448750
20
345.059630
11
337.343540
21
343.336660
0
LINE
8
Calque 1
10
337.343540
20
343.336660
11
342.238330
21
342.107180
0
LINE
8
Calque 1
10
342.238330
20
342.107180
11
347.530000
21
341.192880
0
LINE
8
Calque 1
10
347.530000
20
341.192880
11
350.775495
21
340.931086
0
LINE
8
Calque 1
10
350.775495
20
340.931086
11
354.863090
21
340.806280
0
LINE
8
Calque 1
10
354.863090
20
340.806280
11
359.101054
21
340.895337
0
LINE
8
Calque 1
10
359.101054
20
340.895337
11
362.536000
21
341.192370
0
LINE
8
Calque 1
10
362.536000
20
341.192370
11
362.536000
21
341.192370
0
LINE
8
Calque 1
10
349.117500
20
367.536570
11
345.155850
21
368.194020
0
LINE
8
Calque 1
10
345.155850
20
368.194020
11
340.410780
21
369.536580
0
LINE
8
Calque 1
10
340.410780
20
369.536580
11
336.170350
21
371.255920
0
LINE
8
Calque 1
10
336.170350
20
371.255920
11
332.413260
21
373.480500
0
LINE
8
Calque 1
10
332.413260
20
373.480500
11
330.301415
21
375.037964
0
LINE
8
Calque 1
10
330.301415
20
375.037964
11
328.246180
21
376.784810
0
LINE
8
Calque 1
10
328.246180
20
376.784810
11
326.375316
21
378.708461
0
LINE
8
Calque 1
10
326.375316
20
378.708461
11
324.706750
21
380.691010
0
LINE
8
Calque 1
10
324.706750
20
380.691010
11
323.303594
21
382.748765
0
LINE
8
Calque 1
10
323.303594
20
382.748765
11
322.070860
21
384.853230
0
LINE
8
Calque 1
10
322.070860
20
384.853230
11
321.048561
21
387.071579
0
LINE
8
Calque 1
10
321.048561
20
387.071579
11
320.151340
21
389.403140
0
LINE
8
Calque 1
10
320.151340
20
389.403140
11
319.465731
21
391.868684
0
LINE
8
Calque 1
10
319.465731
20
391.868684
11
318.952210
21
394.409160
0
LINE
8
Calque 1
10
318.952210
20
394.409160
11
318.559680
21
398.769790
0
LINE
8
Calque 1
10
318.559680
20
398.769790
11
318.837010
21
402.606250
0
LINE
8
Calque 1
10
318.837010
20
402.606250
11
319.669770
21
406.792580
0
LINE
8
Calque 1
10
319.669770
20
406.792580
11
321.202980
21
411.200930
0
LINE
8
Calque 1
10
321.202980
20
411.200930
11
322.338900
21
413.487102
0
LINE
8
Calque 1
10
322.338900
20
413.487102
11
323.694690
21
415.765550
0
LINE
8
Calque 1
10
323.694690
20
415.765550
11
325.388136
21
418.031446
0
LINE
8
Calque 1
10
325.388136
20
418.031446
11
327.335870
21
420.287450
0
LINE
8
Calque 1
10
327.335870
20
420.287450
11
331.089010
21
423.828310
0
LINE
8
Calque 1
10
331.089010
20
423.828310
11
334.678670
21
426.473590
0
LINE
8
Calque 1
10
334.678670
20
426.473590
11
336.644010
21
427.826960
0
LINE
8
Calque 1
10
336.644010
20
427.826960
11
326.807000
21
427.827000
0
LINE
8
Calque 1
10
326.807000
20
427.827000
11
316.971000
21
427.827000
0
LINE
8
Calque 1
10
316.971000
20
427.827000
11
316.971000
21
431.928000
0
LINE
8
Calque 1
10
316.971000
20
431.928000
11
316.971000
21
436.029000
0
LINE
8
Calque 1
10
316.971000
20
436.029000
11
332.383000
21
436.029530
0
LINE
8
Calque 1
10
332.383000
20
436.029530
11
347.795000
21
436.030060
0
LINE
8
Calque 1
10
347.795000
20
436.030060
11
347.715600
21
432.219780
0
LINE
8
Calque 1
10
347.715600
20
432.219780
11
347.636100
21
428.409500
0
LINE
8
Calque 1
10
347.636100
20
428.409500
11
346.809470
21
428.067100
0
LINE
8
Calque 1
10
346.809470
20
428.067100
11
343.978500
21
426.236990
0
LINE
8
Calque 1
10
343.978500
20
426.236990
11
342.183630
21
424.764001
0
LINE
8
Calque 1
10
342.183630
20
424.764001
11
340.682910
21
423.311660
0
LINE
8
Calque 1
10
340.682910
20
423.311660
11
338.334380
21
420.317970
0
LINE
8
Calque 1
10
338.334380
20
420.317970
11
336.274160
21
416.613800
0
LINE
8
Calque 1
10
336.274160
20
416.613800
11
334.585290
21
412.336400
0
LINE
8
Calque 1
10
334.585290
20
412.336400
11
333.495090
21
408.103060
0
LINE
8
Calque 1
10
333.495090
20
408.103060
11
332.859550
21
402.956320
0
LINE
8
Calque 1
10
332.859550
20
402.956320
11
332.760806
21
399.876250
0
LINE
8
Calque 1
10
332.760806
20
399.876250
11
332.866550
21
396.738610
0
LINE
8
Calque 1
10
332.866550
20
396.738610
11
333.535450
21
391.446940
0
LINE
8
Calque 1
10
333.535450
20
391.446940
11
334.755680
21
387.081320
0
LINE
8
Calque 1
10
334.755680
20
387.081320
11
336.573360
21
382.847990
0
LINE
8
Calque 1
10
336.573360
20
382.847990
11
337.714344
21
380.902471
0
LINE
8
Calque 1
10
337.714344
20
380.902471
11
339.013210
21
379.011530
0
LINE
8
Calque 1
10
339.013210
20
379.011530
11
340.470776
21
377.329933
0
LINE
8
Calque 1
10
340.470776
20
377.329933
11
341.993330
21
375.887750
0
LINE
8
Calque 1
10
341.993330
20
375.887750
11
344.885070
21
373.856690
0
LINE
8
Calque 1
10
344.885070
20
373.856690
11
348.324650
21
372.377580
0
LINE
8
Calque 1
10
348.324650
20
372.377580
11
350.696661
21
371.771415
0
LINE
8
Calque 1
10
350.696661
20
371.771415
11
353.892360
21
371.531700
0
LINE
8
Calque 1
10
353.892360
20
371.531700
11
357.108302
21
371.530119
0
LINE
8
Calque 1
10
357.108302
20
371.530119
11
359.518220
21
371.955550
0
LINE
8
Calque 1
10
359.518220
20
371.955550
11
361.557720
21
372.584279
0
LINE
8
Calque 1
10
361.557720
20
372.584279
11
363.407200
21
373.323610
0
LINE
8
Calque 1
10
363.407200
20
373.323610
11
365.135992
21
374.316904
0
LINE
8
Calque 1
10
365.135992
20
374.316904
11
366.885320
21
375.556220
0
LINE
8
Calque 1
10
366.885320
20
375.556220
11
368.587155
21
377.126985
0
LINE
8
Calque 1
10
368.587155
20
377.126985
11
370.201750
21
378.917170
0
LINE
8
Calque 1
10
370.201750
20
378.917170
11
371.641380
21
380.991334
0
LINE
8
Calque 1
10
371.641380
20
380.991334
11
372.922550
21
383.244860
0
LINE
8
Calque 1
10
372.922550
20
383.244860
11
374.643310
21
387.345900
0
LINE
8
Calque 1
10
374.643310
20
387.345900
11
375.768190
21
391.711530
0
LINE
8
Calque 1
10
375.768190
20
391.711530
11
376.235749
21
394.871813
0
LINE
8
Calque 1
10
376.235749
20
394.871813
11
376.346630
21
399.781320
0
LINE
8
Calque 1
10
376.346630
20
399.781320
11
376.250502
21
404.555925
0
LINE
8
Calque 1
10
376.250502
20
404.555925
11
375.890000
21
407.654910
0
LINE
8
Calque 1
10
375.890000
20
407.654910
11
374.660010
21
412.452790
0
LINE
8
Calque 1
10
374.660010
20
412.452790
11
373.733224
21
414.878065
0
LINE
8
Calque 1
10
373.733224
20
414.878065
11
372.582570
21
417.411490
0
LINE
8
Calque 1
10
372.582570
20
417.411490
11
371.229742
21
419.801563
0
LINE
8
Calque 1
10
371.229742
20
419.801563
11
369.816870
21
421.882170
0
LINE
8
Calque 1
10
369.816870
20
421.882170
11
368.371896
21
423.551495
0
LINE
8
Calque 1
10
368.371896
20
423.551495
11
366.941900
21
424.952740
0
LINE
8
Calque 1
10
366.941900
20
424.952740
11
363.687390
21
427.391990
0
LINE
8
Calque 1
10
363.687390
20
427.391990
11
361.636860
21
428.620670
0
LINE
8
Calque 1
10
361.636860
20
428.620670
11
361.484775
21
429.708766
0
LINE
8
Calque 1
10
361.484775
20
429.708766
11
361.421520
21
432.324830
0
LINE
8
Calque 1
10
361.421520
20
432.324830
11
361.421000
21
436.029000
0
LINE
8
Calque 1
10
361.421000
20
436.029000
11
376.502300
21
436.068700
0
LINE
8
Calque 1
10
376.502300
20
436.068700
11
391.914300
21
436.134800
0
LINE
8
Calque 1
10
391.914300
20
436.134800
11
392.074646
21
435.937348
0
LINE
8
Calque 1
10
392.074646
20
435.937348
11
392.188861
21
435.248545
0
LINE
8
Calque 1
10
392.188861
20
435.248545
11
392.317870
21
431.997300
0
LINE
8
Calque 1
10
392.317870
20
431.997300
11
392.390670
21
427.833340
0
LINE
8
Calque 1
10
392.390670
20
427.833340
11
382.596100
21
427.763940
0
LINE
8
Calque 1
10
382.596100
20
427.763940
11
372.801530
21
427.694540
0
LINE
8
Calque 1
10
372.801530
20
427.694540
11
375.342850
21
426.008940
0
LINE
8
Calque 1
10
375.342850
20
426.008940
11
377.933459
21
424.051973
0
LINE
8
Calque 1
10
377.933459
20
424.051973
11
380.593300
21
421.713960
0
LINE
8
Calque 1
10
380.593300
20
421.713960
11
382.992435
21
419.189710
0
LINE
8
Calque 1
10
382.992435
20
419.189710
11
384.956240
21
416.784980
0
LINE
8
Calque 1
10
384.956240
20
416.784980
11
387.517730
21
412.669250
0
LINE
8
Calque 1
10
387.517730
20
412.669250
11
389.215070
21
408.516220
0
LINE
8
Calque 1
10
389.215070
20
408.516220
11
389.887597
21
406.089708
0
LINE
8
Calque 1
10
389.887597
20
406.089708
11
390.395680
21
403.565470
0
LINE
8
Calque 1
10
390.395680
20
403.565470
11
390.786650
21
398.987250
0
LINE
8
Calque 1
10
390.786650
20
398.987250
11
390.407570
21
394.488240
0
LINE
8
Calque 1
10
390.407570
20
394.488240
11
389.932620
21
392.051966
0
LINE
8
Calque 1
10
389.932620
20
392.051966
11
389.323060
21
389.725740
0
LINE
8
Calque 1
10
389.323060
20
389.725740
11
388.445072
21
387.399839
0
LINE
8
Calque 1
10
388.445072
20
387.399839
11
387.324760
21
384.964340
0
LINE
8
Calque 1
10
387.324760
20
384.964340
11
386.028892
21
382.681500
0
LINE
8
Calque 1
10
386.028892
20
382.681500
11
384.728840
21
380.722630
0
LINE
8
Calque 1
10
384.728840
20
380.722630
11
383.160859
21
378.881943
0
LINE
8
Calque 1
10
383.160859
20
378.881943
11
381.220810
21
376.883260
0
LINE
8
Calque 1
10
381.220810
20
376.883260
11
379.118040
21
375.034105
0
LINE
8
Calque 1
10
379.118040
20
375.034105
11
377.158820
21
373.552930
0
LINE
8
Calque 1
10
377.158820
20
373.552930
11
373.713470
21
371.531980
0
LINE
8
Calque 1
10
373.713470
20
371.531980
11
370.411080
21
370.032990
0
LINE
8
Calque 1
10
370.411080
20
370.032990
11
366.263150
21
368.672050
0
LINE
8
Calque 1
10
366.263150
20
368.672050
11
360.971480
21
367.627950
0
LINE
8
Calque 1
10
360.971480
20
367.627950
11
357.903954
21
367.367631
0
LINE
8
Calque 1
10
357.903954
20
367.367631
11
354.541850
21
367.275890
0
LINE
8
Calque 1
10
354.541850
20
367.275890
11
349.117900
21
367.536450
0
LINE
8
Calque 1
10
349.117900
20
367.536450
11
349.117500
21
367.536570
 0 
ENDSEC
 0 
EOF