999
"DXF R12 Output" (www.mydxf.blogspot.com)
 0 
SECTION
 2 
HEADER
 9 
$ACADVER
 1 
AC1009
 9 
$EXTMIN
 10 
 0 
 20 
 0 
 9 
$EXTMAX
 10 
 8.5 
 20 
 11 
 0 
ENDSEC
 0 
SECTION
 2 
ENTITIES
0
LINE
8
Calque 1
10
218.138000
20
707.978000
11
218.138000
21
890.805000
0
LINE
8
Calque 1
10
218.138000
20
890.805000
11
401.362000
21
890.805000
0
LINE
8
Calque 1
10
401.362000
20
890.805000
11
584.586000
21
890.805000
0
LINE
8
Calque 1
10
584.586000
20
890.805000
11
584.586000
21
707.978000
0
LINE
8
Calque 1
10
584.586000
20
707.978000
11
584.586000
21
525.151000
0
LINE
8
Calque 1
10
584.586000
20
525.151000
11
401.362000
21
525.151000
0
LINE
8
Calque 1
10
401.362000
20
525.151000
11
218.138000
21
525.151000
0
LINE
8
Calque 1
10
218.138000
20
525.151000
11
218.138000
21
707.978000
0
LINE
8
Calque 1
10
558.447000
20
553.080000
11
558.575190
21
553.513260
0
LINE
8
Calque 1
10
558.575190
20
553.513260
11
558.555157
21
554.056267
0
LINE
8
Calque 1
10
558.555157
20
554.056267
11
557.978310
21
556.056570
0
LINE
8
Calque 1
10
557.978310
20
556.056570
11
557.201210
21
558.356220
0
LINE
8
Calque 1
10
557.201210
20
558.356220
11
557.211510
21
566.822890
0
LINE
8
Calque 1
10
557.211510
20
566.822890
11
557.328690
21
574.405510
0
LINE
8
Calque 1
10
557.328690
20
574.405510
11
557.663820
21
580.184290
0
LINE
8
Calque 1
10
557.663820
20
580.184290
11
558.268070
21
588.386380
0
LINE
8
Calque 1
10
558.268070
20
588.386380
11
558.297532
21
595.851759
0
LINE
8
Calque 1
10
558.297532
20
595.851759
11
558.140470
21
609.156180
0
LINE
8
Calque 1
10
558.140470
20
609.156180
11
557.685520
21
635.492180
0
LINE
8
Calque 1
10
557.685520
20
635.492180
11
557.638446
21
643.604139
0
LINE
8
Calque 1
10
557.638446
20
643.604139
11
557.994070
21
649.118180
0
LINE
8
Calque 1
10
557.994070
20
649.118180
11
558.238046
21
652.042370
0
LINE
8
Calque 1
10
558.238046
20
652.042370
11
558.355657
21
655.241814
0
LINE
8
Calque 1
10
558.355657
20
655.241814
11
558.280880
21
666.702980
0
LINE
8
Calque 1
10
558.280880
20
666.702980
11
557.892550
21
692.632180
0
LINE
8
Calque 1
10
557.892550
20
692.632180
11
557.810282
21
703.932180
0
LINE
8
Calque 1
10
557.810282
20
703.932180
11
558.033790
21
710.623880
0
LINE
8
Calque 1
10
558.033790
20
710.623880
11
558.288971
21
718.222450
0
LINE
8
Calque 1
10
558.288971
20
718.222450
11
558.384170
21
730.761480
0
LINE
8
Calque 1
10
558.384170
20
730.761480
11
558.310354
21
744.226505
0
LINE
8
Calque 1
10
558.310354
20
744.226505
11
558.142606
21
746.880452
0
LINE
8
Calque 1
10
558.142606
20
746.880452
11
557.827540
21
748.753180
0
LINE
8
Calque 1
10
557.827540
20
748.753180
11
557.384470
21
751.839458
0
LINE
8
Calque 1
10
557.384470
20
751.839458
11
557.422330
21
756.264500
0
LINE
8
Calque 1
10
557.422330
20
756.264500
11
557.897370
21
763.408250
0
LINE
8
Calque 1
10
557.897370
20
763.408250
11
558.114284
21
767.006393
0
LINE
8
Calque 1
10
558.114284
20
767.006393
11
558.176480
21
772.505890
0
LINE
8
Calque 1
10
558.176480
20
772.505890
11
558.029619
21
778.697990
0
LINE
8
Calque 1
10
558.029619
20
778.697990
11
557.560370
21
783.353790
0
LINE
8
Calque 1
10
557.560370
20
783.353790
11
557.099170
21
787.861690
0
LINE
8
Calque 1
10
557.099170
20
787.861690
11
556.973310
21
793.438490
0
LINE
8
Calque 1
10
556.973310
20
793.438490
11
557.068554
21
798.700394
0
LINE
8
Calque 1
10
557.068554
20
798.700394
11
557.308090
21
802.991640
0
LINE
8
Calque 1
10
557.308090
20
802.991640
11
557.514871
21
806.245696
0
LINE
8
Calque 1
10
557.514871
20
806.245696
11
557.348190
21
808.547890
0
LINE
8
Calque 1
10
557.348190
20
808.547890
11
557.022477
21
810.042203
0
LINE
8
Calque 1
10
557.022477
20
810.042203
11
556.664110
21
810.887870
0
LINE
8
Calque 1
10
556.664110
20
810.887870
11
556.437481
21
811.063837
0
LINE
8
Calque 1
10
556.437481
20
811.063837
11
556.212002
21
811.074737
0
LINE
8
Calque 1
10
556.212002
20
811.074737
11
555.492430
21
810.514680
0
LINE
8
Calque 1
10
555.492430
20
810.514680
11
554.466019
21
809.079344
0
LINE
8
Calque 1
10
554.466019
20
809.079344
11
553.107740
21
806.691350
0
LINE
8
Calque 1
10
553.107740
20
806.691350
11
551.461236
21
803.826214
0
LINE
8
Calque 1
10
551.461236
20
803.826214
11
549.741870
21
801.243700
0
LINE
8
Calque 1
10
549.741870
20
801.243700
11
545.864900
21
795.829560
0
LINE
8
Calque 1
10
545.864900
20
795.829560
11
544.136981
21
793.179502
0
LINE
8
Calque 1
10
544.136981
20
793.179502
11
542.939560
21
791.067060
0
LINE
8
Calque 1
10
542.939560
20
791.067060
11
542.119940
21
789.337450
0
LINE
8
Calque 1
10
542.119940
20
789.337450
11
542.120000
21
772.537000
0
LINE
8
Calque 1
10
542.120000
20
772.537000
11
542.207900
21
678.918300
0
LINE
8
Calque 1
10
542.207900
20
678.918300
11
542.176700
21
601.981600
0
LINE
8
Calque 1
10
542.176700
20
601.981600
11
483.295200
21
601.876130
0
LINE
8
Calque 1
10
483.295200
20
601.876130
11
424.154200
21
602.035020
0
LINE
8
Calque 1
10
424.154200
20
602.035020
11
423.684212
21
602.589129
0
LINE
8
Calque 1
10
423.684212
20
602.589129
11
423.085840
21
603.717340
0
LINE
8
Calque 1
10
423.085840
20
603.717340
11
422.440687
21
605.733069
0
LINE
8
Calque 1
10
422.440687
20
605.733069
11
421.868240
21
608.528550
0
LINE
8
Calque 1
10
421.868240
20
608.528550
11
420.784010
21
614.580820
0
LINE
8
Calque 1
10
420.784010
20
614.580820
11
416.538840
21
633.630820
0
LINE
8
Calque 1
10
416.538840
20
633.630820
11
412.347590
21
651.754820
0
LINE
8
Calque 1
10
412.347590
20
651.754820
11
411.762800
21
654.532940
0
LINE
8
Calque 1
10
411.762800
20
654.532940
11
411.747731
21
655.052279
0
LINE
8
Calque 1
10
411.747731
20
655.052279
11
411.865150
21
655.402440
0
LINE
8
Calque 1
10
411.865150
20
655.402440
11
412.791000
21
656.019790
0
LINE
8
Calque 1
10
412.791000
20
656.019790
11
414.471900
21
656.729740
0
LINE
8
Calque 1
10
414.471900
20
656.729740
11
414.777601
21
656.848670
0
LINE
8
Calque 1
10
414.777601
20
656.848670
11
414.925464
21
657.073553
0
LINE
8
Calque 1
10
414.925464
20
657.073553
11
414.857950
21
658.285610
0
LINE
8
Calque 1
10
414.857950
20
658.285610
11
413.227600
21
665.380860
0
LINE
8
Calque 1
10
413.227600
20
665.380860
11
406.916740
21
691.574660
0
LINE
8
Calque 1
10
406.916740
20
691.574660
11
398.480980
21
727.028860
0
LINE
8
Calque 1
10
398.480980
20
727.028860
11
394.369010
21
743.697560
0
LINE
8
Calque 1
10
394.369010
20
743.697560
11
393.824520
21
746.116640
0
LINE
8
Calque 1
10
393.824520
20
746.116640
11
393.928853
21
746.651499
0
LINE
8
Calque 1
10
393.928853
20
746.651499
11
394.184640
21
746.955440
0
LINE
8
Calque 1
10
394.184640
20
746.955440
11
394.731080
21
746.847826
0
LINE
8
Calque 1
10
394.731080
20
746.847826
11
395.534380
21
746.393240
0
LINE
8
Calque 1
10
395.534380
20
746.393240
11
396.169999
21
745.991384
0
LINE
8
Calque 1
10
396.169999
20
745.991384
11
396.920002
21
745.790701
0
LINE
8
Calque 1
10
396.920002
20
745.790701
11
400.619450
21
745.762670
0
LINE
8
Calque 1
10
400.619450
20
745.762670
11
404.235061
21
745.729914
0
LINE
8
Calque 1
10
404.235061
20
745.729914
11
405.234770
21
745.583943
0
LINE
8
Calque 1
10
405.234770
20
745.583943
11
406.093130
21
745.319420
0
LINE
8
Calque 1
10
406.093130
20
745.319420
11
408.780470
21
744.626750
0
LINE
8
Calque 1
10
408.780470
20
744.626750
11
410.965810
21
744.180520
0
LINE
8
Calque 1
10
410.965810
20
744.180520
11
412.013509
21
743.613882
0
LINE
8
Calque 1
10
412.013509
20
743.613882
11
413.306780
21
742.627830
0
LINE
8
Calque 1
10
413.306780
20
742.627830
11
414.780499
21
741.543267
0
LINE
8
Calque 1
10
414.780499
20
741.543267
11
416.270410
21
741.039940
0
LINE
8
Calque 1
10
416.270410
20
741.039940
11
420.481830
21
739.835930
0
LINE
8
Calque 1
10
420.481830
20
739.835930
11
423.691110
21
738.935060
0
LINE
8
Calque 1
10
423.691110
20
738.935060
11
428.331880
21
737.481770
0
LINE
8
Calque 1
10
428.331880
20
737.481770
11
434.624670
21
735.480730
0
LINE
8
Calque 1
10
434.624670
20
735.480730
11
437.851290
21
734.382540
0
LINE
8
Calque 1
10
437.851290
20
734.382540
11
440.862210
21
732.531360
0
LINE
8
Calque 1
10
440.862210
20
732.531360
11
442.513136
21
731.511054
0
LINE
8
Calque 1
10
442.513136
20
731.511054
11
443.772690
21
730.884550
0
LINE
8
Calque 1
10
443.772690
20
730.884550
11
446.662060
21
730.216580
0
LINE
8
Calque 1
10
446.662060
20
730.216580
11
448.787442
21
729.630855
0
LINE
8
Calque 1
10
448.787442
20
729.630855
11
451.424490
21
728.422690
0
LINE
8
Calque 1
10
451.424490
20
728.422690
11
454.412931
21
727.056322
0
LINE
8
Calque 1
10
454.412931
20
727.056322
11
457.590290
21
725.838260
0
LINE
8
Calque 1
10
457.590290
20
725.838260
11
460.549733
21
724.730521
0
LINE
8
Calque 1
10
460.549733
20
724.730521
11
463.014250
21
723.629390
0
LINE
8
Calque 1
10
463.014250
20
723.629390
11
465.331468
21
722.640169
0
LINE
8
Calque 1
10
465.331468
20
722.640169
11
468.090810
21
721.882000
0
LINE
8
Calque 1
10
468.090810
20
721.882000
11
470.479487
21
721.271520
0
LINE
8
Calque 1
10
470.479487
20
721.271520
11
472.059560
21
720.717890
0
LINE
8
Calque 1
10
472.059560
20
720.717890
11
474.471040
21
719.256820
0
LINE
8
Calque 1
10
474.471040
20
719.256820
11
476.409169
21
718.274292
0
LINE
8
Calque 1
10
476.409169
20
718.274292
11
479.315030
21
717.228690
0
LINE
8
Calque 1
10
479.315030
20
717.228690
11
483.233876
21
715.800891
0
LINE
8
Calque 1
10
483.233876
20
715.800891
11
487.829680
21
713.884970
0
LINE
8
Calque 1
10
487.829680
20
713.884970
11
491.702972
21
712.246895
0
LINE
8
Calque 1
10
491.702972
20
712.246895
11
493.884700
21
711.487100
0
LINE
8
Calque 1
10
493.884700
20
711.487100
11
494.835531
21
711.529689
0
LINE
8
Calque 1
10
494.835531
20
711.529689
11
495.686350
21
712.245470
0
LINE
8
Calque 1
10
495.686350
20
712.245470
11
496.625639
21
713.536577
0
LINE
8
Calque 1
10
496.625639
20
713.536577
11
497.726080
21
715.387140
0
LINE
8
Calque 1
10
497.726080
20
715.387140
11
500.227850
21
719.796040
0
LINE
8
Calque 1
10
500.227850
20
719.796040
11
501.912340
21
722.908360
0
LINE
8
Calque 1
10
501.912340
20
722.908360
11
502.175106
21
723.820570
0
LINE
8
Calque 1
10
502.175106
20
723.820570
11
501.940240
21
724.584880
0
LINE
8
Calque 1
10
501.940240
20
724.584880
11
501.385060
21
726.168910
0
LINE
8
Calque 1
10
501.385060
20
726.168910
11
501.338074
21
726.905122
0
LINE
8
Calque 1
10
501.338074
20
726.905122
11
501.975530
21
727.028810
0
LINE
8
Calque 1
10
501.975530
20
727.028810
11
502.781437
21
727.203682
0
LINE
8
Calque 1
10
502.781437
20
727.203682
11
503.629870
21
727.624120
0
LINE
8
Calque 1
10
503.629870
20
727.624120
11
504.862857
21
728.938354
0
LINE
8
Calque 1
10
504.862857
20
728.938354
11
506.593410
21
731.262140
0
LINE
8
Calque 1
10
506.593410
20
731.262140
11
509.814340
21
736.024640
0
LINE
8
Calque 1
10
509.814340
20
736.024640
11
511.255530
21
738.643810
0
LINE
8
Calque 1
10
511.255530
20
738.643810
11
511.560670
21
740.115660
0
LINE
8
Calque 1
10
511.560670
20
740.115660
11
511.325469
21
740.745311
0
LINE
8
Calque 1
10
511.325469
20
740.745311
11
510.759990
21
741.455250
0
LINE
8
Calque 1
10
510.759990
20
741.455250
11
510.228771
21
741.900121
0
LINE
8
Calque 1
10
510.228771
20
741.900121
11
509.516729
21
742.147589
0
LINE
8
Calque 1
10
509.516729
20
742.147589
11
505.666760
21
742.399490
0
LINE
8
Calque 1
10
505.666760
20
742.399490
11
501.165450
21
742.757940
0
LINE
8
Calque 1
10
501.165450
20
742.757940
11
495.867730
21
743.808070
0
LINE
8
Calque 1
10
495.867730
20
743.808070
11
491.258998
21
744.734869
0
LINE
8
Calque 1
10
491.258998
20
744.734869
11
488.459400
21
745.047740
0
LINE
8
Calque 1
10
488.459400
20
745.047740
11
485.234630
21
744.763930
0
LINE
8
Calque 1
10
485.234630
20
744.763930
11
483.495660
21
744.346380
0
LINE
8
Calque 1
10
483.495660
20
744.346380
11
482.964308
21
744.561816
0
LINE
8
Calque 1
10
482.964308
20
744.561816
11
482.213160
21
745.427330
0
LINE
8
Calque 1
10
482.213160
20
745.427330
11
481.307160
21
746.465051
0
LINE
8
Calque 1
10
481.307160
20
746.465051
11
480.345570
21
747.265810
0
LINE
8
Calque 1
10
480.345570
20
747.265810
11
479.221220
21
747.833004
0
LINE
8
Calque 1
10
479.221220
20
747.833004
11
477.923890
21
748.309170
0
LINE
8
Calque 1
10
477.923890
20
748.309170
11
473.585490
21
749.244420
0
LINE
8
Calque 1
10
473.585490
20
749.244420
11
464.325080
21
750.698080
0
LINE
8
Calque 1
10
464.325080
20
750.698080
11
458.913009
21
751.584911
0
LINE
8
Calque 1
10
458.913009
20
751.584911
11
454.807550
21
752.411450
0
LINE
8
Calque 1
10
454.807550
20
752.411450
11
450.309630
21
753.633630
0
LINE
8
Calque 1
10
450.309630
20
753.633630
11
448.266923
21
754.013219
0
LINE
8
Calque 1
10
448.266923
20
754.013219
11
445.017960
21
754.293980
0
LINE
8
Calque 1
10
445.017960
20
754.293980
11
441.716688
21
754.566840
0
LINE
8
Calque 1
10
441.716688
20
754.566840
11
439.352720
21
754.911430
0
LINE
8
Calque 1
10
439.352720
20
754.911430
11
437.756908
21
755.174595
0
LINE
8
Calque 1
10
437.756908
20
755.174595
11
436.574600
21
754.893530
0
LINE
8
Calque 1
10
436.574600
20
754.893530
11
434.434630
21
754.360010
0
LINE
8
Calque 1
10
434.434630
20
754.360010
11
433.815777
21
754.325476
0
LINE
8
Calque 1
10
433.815777
20
754.325476
11
433.347766
21
754.465336
0
LINE
8
Calque 1
10
433.347766
20
754.465336
11
432.117900
21
755.699870
0
LINE
8
Calque 1
10
432.117900
20
755.699870
11
430.758285
21
757.003215
0
LINE
8
Calque 1
10
430.758285
20
757.003215
11
429.188880
21
757.982170
0
LINE
8
Calque 1
10
429.188880
20
757.982170
11
426.971654
21
758.793418
0
LINE
8
Calque 1
10
426.971654
20
758.793418
11
423.710900
21
759.583290
0
LINE
8
Calque 1
10
423.710900
20
759.583290
11
418.967010
21
760.660780
0
LINE
8
Calque 1
10
418.967010
20
760.660780
11
416.792620
21
761.481120
0
LINE
8
Calque 1
10
416.792620
20
761.481120
11
415.876415
21
761.958855
0
LINE
8
Calque 1
10
415.876415
20
761.958855
11
415.411860
21
762.375090
0
LINE
8
Calque 1
10
415.411860
20
762.375090
11
415.411950
21
763.120180
0
LINE
8
Calque 1
10
415.411950
20
763.120180
11
415.744204
21
763.479161
0
LINE
8
Calque 1
10
415.744204
20
763.479161
11
416.342280
21
763.818950
0
LINE
8
Calque 1
10
416.342280
20
763.818950
11
417.375341
21
764.019326
0
LINE
8
Calque 1
10
417.375341
20
764.019326
11
418.902960
21
763.966600
0
LINE
8
Calque 1
10
418.902960
20
763.966600
11
422.131510
21
763.551730
0
LINE
8
Calque 1
10
422.131510
20
763.551730
11
425.452690
21
763.296010
0
LINE
8
Calque 1
10
425.452690
20
763.296010
11
427.822293
21
763.035203
0
LINE
8
Calque 1
10
427.822293
20
763.035203
11
431.141230
21
762.319190
0
LINE
8
Calque 1
10
431.141230
20
762.319190
11
434.909633
21
761.523394
0
LINE
8
Calque 1
10
434.909633
20
761.523394
11
438.535670
21
761.152600
0
LINE
8
Calque 1
10
438.535670
20
761.152600
11
441.925570
21
760.817926
0
LINE
8
Calque 1
10
441.925570
20
760.817926
11
445.017960
21
760.277940
0
LINE
8
Calque 1
10
445.017960
20
760.277940
11
449.648170
21
759.440240
0
LINE
8
Calque 1
10
449.648170
20
759.440240
11
451.451714
21
759.415130
0
LINE
8
Calque 1
10
451.451714
20
759.415130
11
453.430780
21
759.698150
0
LINE
8
Calque 1
10
453.430780
20
759.698150
11
455.311274
21
759.996219
0
LINE
8
Calque 1
10
455.311274
20
759.996219
11
455.823454
21
759.915122
0
LINE
8
Calque 1
10
455.823454
20
759.915122
11
456.341200
21
759.678650
0
LINE
8
Calque 1
10
456.341200
20
759.678650
11
458.114840
21
758.750830
0
LINE
8
Calque 1
10
458.114840
20
758.750830
11
459.611759
21
758.324285
0
LINE
8
Calque 1
10
459.611759
20
758.324285
11
462.215880
21
757.998210
0
LINE
8
Calque 1
10
462.215880
20
757.998210
11
468.830460
21
757.046460
0
LINE
8
Calque 1
10
468.830460
20
757.046460
11
472.291824
21
756.509208
0
LINE
8
Calque 1
10
472.291824
20
756.509208
11
475.841920
21
756.543290
0
LINE
8
Calque 1
10
475.841920
20
756.543290
11
479.277055
21
756.585666
0
LINE
8
Calque 1
10
479.277055
20
756.585666
11
482.094160
21
756.031770
0
LINE
8
Calque 1
10
482.094160
20
756.031770
11
486.471030
21
755.105700
0
LINE
8
Calque 1
10
486.471030
20
755.105700
11
488.320217
21
754.997673
0
LINE
8
Calque 1
10
488.320217
20
754.997673
11
490.405250
21
755.093900
0
LINE
8
Calque 1
10
490.405250
20
755.093900
11
492.501974
21
755.190150
0
LINE
8
Calque 1
10
492.501974
20
755.190150
11
494.349420
21
755.052700
0
LINE
8
Calque 1
10
494.349420
20
755.052700
11
499.244210
21
753.751520
0
LINE
8
Calque 1
10
499.244210
20
753.751520
11
502.001159
21
752.944800
0
LINE
8
Calque 1
10
502.001159
20
752.944800
11
504.152340
21
752.453710
0
LINE
8
Calque 1
10
504.152340
20
752.453710
11
509.311710
21
751.872630
0
LINE
8
Calque 1
10
509.311710
20
751.872630
11
513.997380
21
751.439350
0
LINE
8
Calque 1
10
513.997380
20
751.439350
11
515.270365
21
751.473289
0
LINE
8
Calque 1
10
515.270365
20
751.473289
11
516.589370
21
751.767860
0
LINE
8
Calque 1
10
516.589370
20
751.767860
11
517.992217
21
752.470538
0
LINE
8
Calque 1
10
517.992217
20
752.470538
11
519.505420
21
753.668590
0
LINE
8
Calque 1
10
519.505420
20
753.668590
11
522.006580
21
756.390540
0
LINE
8
Calque 1
10
522.006580
20
756.390540
11
523.979740
21
759.740980
0
LINE
8
Calque 1
10
523.979740
20
759.740980
11
525.935800
21
764.217990
0
LINE
8
Calque 1
10
525.935800
20
764.217990
11
526.670353
21
766.483693
0
LINE
8
Calque 1
10
526.670353
20
766.483693
11
527.153070
21
768.568090
0
LINE
8
Calque 1
10
527.153070
20
768.568090
11
527.509605
21
770.264213
0
LINE
8
Calque 1
10
527.509605
20
770.264213
11
527.940810
21
771.596390
0
LINE
8
Calque 1
10
527.940810
20
771.596390
11
528.834450
21
772.983494
0
LINE
8
Calque 1
10
528.834450
20
772.983494
11
530.302800
21
774.811650
0
LINE
8
Calque 1
10
530.302800
20
774.811650
11
531.709215
21
776.535916
0
LINE
8
Calque 1
10
531.709215
20
776.535916
11
532.453920
21
777.673240
0
LINE
8
Calque 1
10
532.453920
20
777.673240
11
532.594777
21
778.341468
0
LINE
8
Calque 1
10
532.594777
20
778.341468
11
532.453920
21
778.901320
0
LINE
8
Calque 1
10
532.453920
20
778.901320
11
532.081734
21
779.305749
0
LINE
8
Calque 1
10
532.081734
20
779.305749
11
531.569260
21
779.563740
0
LINE
8
Calque 1
10
531.569260
20
779.563740
11
530.483386
21
779.583761
0
LINE
8
Calque 1
10
530.483386
20
779.583761
11
528.732630
21
779.416110
0
LINE
8
Calque 1
10
528.732630
20
779.416110
11
523.730260
21
778.449750
0
LINE
8
Calque 1
10
523.730260
20
778.449750
11
521.146440
21
777.939180
0
LINE
8
Calque 1
10
521.146440
20
777.939180
11
518.835470
21
777.645540
0
LINE
8
Calque 1
10
518.835470
20
777.645540
11
516.834856
21
777.639930
0
LINE
8
Calque 1
10
516.834856
20
777.639930
11
515.093120
21
777.932160
0
LINE
8
Calque 1
10
515.093120
20
777.932160
11
512.579580
21
778.354790
0
LINE
8
Calque 1
10
512.579580
20
778.354790
11
508.436130
21
777.579740
0
LINE
8
Calque 1
10
508.436130
20
777.579740
11
505.490187
21
776.981141
0
LINE
8
Calque 1
10
505.490187
20
776.981141
11
504.702204
21
776.989403
0
LINE
8
Calque 1
10
504.702204
20
776.989403
11
503.938210
21
777.162580
0
LINE
8
Calque 1
10
503.938210
20
777.162580
11
501.242210
21
777.976470
0
LINE
8
Calque 1
10
501.242210
20
777.976470
11
500.316186
21
778.217196
0
LINE
8
Calque 1
10
500.316186
20
778.217196
11
499.237691
21
778.310385
0
LINE
8
Calque 1
10
499.237691
20
778.310385
11
494.774530
21
778.085250
0
LINE
8
Calque 1
10
494.774530
20
778.085250
11
490.328305
21
777.871083
0
LINE
8
Calque 1
10
490.328305
20
777.871083
11
487.496950
21
778.044350
0
LINE
8
Calque 1
10
487.496950
20
778.044350
11
483.202740
21
778.670310
0
LINE
8
Calque 1
10
483.202740
20
778.670310
11
481.073300
21
778.852968
0
LINE
8
Calque 1
10
481.073300
20
778.852968
11
478.652290
21
778.640810
0
LINE
8
Calque 1
10
478.652290
20
778.640810
11
476.117959
21
778.427615
0
LINE
8
Calque 1
10
476.117959
20
778.427615
11
473.539190
21
778.620410
0
LINE
8
Calque 1
10
473.539190
20
778.620410
11
470.827114
21
778.803039
0
LINE
8
Calque 1
10
470.827114
20
778.803039
11
467.602660
21
778.369130
0
LINE
8
Calque 1
10
467.602660
20
778.369130
11
464.215434
21
777.926523
0
LINE
8
Calque 1
10
464.215434
20
777.926523
11
460.588590
21
778.214880
0
LINE
8
Calque 1
10
460.588590
20
778.214880
11
456.871502
21
778.505176
0
LINE
8
Calque 1
10
456.871502
20
778.505176
11
452.951600
21
778.215130
0
LINE
8
Calque 1
10
452.951600
20
778.215130
11
446.117720
21
777.574760
0
LINE
8
Calque 1
10
446.117720
20
777.574760
11
443.482420
21
777.488216
0
LINE
8
Calque 1
10
443.482420
20
777.488216
11
441.222930
21
777.614260
0
LINE
8
Calque 1
10
441.222930
20
777.614260
11
439.402720
21
777.747210
0
LINE
8
Calque 1
10
439.402720
20
777.747210
11
437.872970
21
777.705260
0
LINE
8
Calque 1
10
437.872970
20
777.705260
11
434.301100
21
777.311210
0
LINE
8
Calque 1
10
434.301100
20
777.311210
11
431.357920
21
776.902650
0
LINE
8
Calque 1
10
431.357920
20
776.902650
11
430.668396
21
776.904604
0
LINE
8
Calque 1
10
430.668396
20
776.904604
11
429.992680
21
777.445260
0
LINE
8
Calque 1
10
429.992680
20
777.445260
11
429.580271
21
777.826183
0
LINE
8
Calque 1
10
429.580271
20
777.826183
11
429.122421
21
778.058698
0
LINE
8
Calque 1
10
429.122421
20
778.058698
11
427.511890
21
778.262500
0
LINE
8
Calque 1
10
427.511890
20
778.262500
11
422.370390
21
778.755590
0
LINE
8
Calque 1
10
422.370390
20
778.755590
11
419.072829
21
779.020220
0
LINE
8
Calque 1
10
419.072829
20
779.020220
11
415.823290
21
779.095400
0
LINE
8
Calque 1
10
415.823290
20
779.095400
11
413.140226
21
779.127890
0
LINE
8
Calque 1
10
413.140226
20
779.127890
11
412.527171
21
779.248282
0
LINE
8
Calque 1
10
412.527171
20
779.248282
11
412.183910
21
779.459720
0
LINE
8
Calque 1
10
412.183910
20
779.459720
11
411.903462
21
779.914683
0
LINE
8
Calque 1
10
411.903462
20
779.914683
11
412.071560
21
780.466200
0
LINE
8
Calque 1
10
412.071560
20
780.466200
11
412.576904
21
780.998181
0
LINE
8
Calque 1
10
412.576904
20
780.998181
11
413.354160
21
781.459310
0
LINE
8
Calque 1
10
413.354160
20
781.459310
11
414.171848
21
781.667559
0
LINE
8
Calque 1
10
414.171848
20
781.667559
11
415.685255
21
781.805081
0
LINE
8
Calque 1
10
415.685255
20
781.805081
11
422.262550
21
781.948270
0
LINE
8
Calque 1
10
422.262550
20
781.948270
11
434.168750
21
782.303500
0
LINE
8
Calque 1
10
434.168750
20
782.303500
11
442.503130
21
782.587250
0
LINE
8
Calque 1
10
442.503130
20
782.587250
11
451.895840
21
782.866300
0
LINE
8
Calque 1
10
451.895840
20
782.866300
11
456.434437
21
783.231829
0
LINE
8
Calque 1
10
456.434437
20
783.231829
11
460.097920
21
783.764480
0
LINE
8
Calque 1
10
460.097920
20
783.764480
11
465.249160
21
784.570950
0
LINE
8
Calque 1
10
465.249160
20
784.570950
11
467.666390
21
784.987490
0
LINE
8
Calque 1
10
467.666390
20
784.987490
11
468.139519
21
785.428201
0
LINE
8
Calque 1
10
468.139519
20
785.428201
11
468.657790
21
786.156380
0
LINE
8
Calque 1
10
468.657790
20
786.156380
11
469.181446
21
786.815225
0
LINE
8
Calque 1
10
469.181446
20
786.815225
11
469.667550
21
787.089260
0
LINE
8
Calque 1
10
469.667550
20
787.089260
11
470.240327
21
786.848535
0
LINE
8
Calque 1
10
470.240327
20
786.848535
11
470.972390
21
786.269770
0
LINE
8
Calque 1
10
470.972390
20
786.269770
11
471.817880
21
785.450290
0
LINE
8
Calque 1
10
471.817880
20
785.450290
11
474.953730
21
785.730450
0
LINE
8
Calque 1
10
474.953730
20
785.730450
11
485.497930
21
786.166070
0
LINE
8
Calque 1
10
485.497930
20
786.166070
11
496.742730
21
786.583890
0
LINE
8
Calque 1
10
496.742730
20
786.583890
11
508.913530
21
787.749640
0
LINE
8
Calque 1
10
508.913530
20
787.749640
11
520.422930
21
788.976250
0
LINE
8
Calque 1
10
520.422930
20
788.976250
11
524.210742
21
789.195268
0
LINE
8
Calque 1
10
524.210742
20
789.195268
11
528.859120
21
789.267960
0
LINE
8
Calque 1
10
528.859120
20
789.267960
11
534.120280
21
789.236460
0
LINE
8
Calque 1
10
534.120280
20
789.236460
11
535.680210
21
790.724360
0
LINE
8
Calque 1
10
535.680210
20
790.724360
11
537.739620
21
793.024200
0
LINE
8
Calque 1
10
537.739620
20
793.024200
11
538.174102
21
794.188734
0
LINE
8
Calque 1
10
538.174102
20
794.188734
11
538.517310
21
795.848440
0
LINE
8
Calque 1
10
538.517310
20
795.848440
11
539.086500
21
798.626080
0
LINE
8
Calque 1
10
539.086500
20
798.626080
11
539.822070
21
799.884100
0
LINE
8
Calque 1
10
539.822070
20
799.884100
11
542.011900
21
801.256470
0
LINE
8
Calque 1
10
542.011900
20
801.256470
11
544.564440
21
802.815450
0
LINE
8
Calque 1
10
544.564440
20
802.815450
11
545.371105
21
803.664194
0
LINE
8
Calque 1
10
545.371105
20
803.664194
11
546.176840
21
804.750860
0
LINE
8
Calque 1
10
546.176840
20
804.750860
11
547.975080
21
808.381370
0
LINE
8
Calque 1
10
547.975080
20
808.381370
11
549.272059
21
810.954105
0
LINE
8
Calque 1
10
549.272059
20
810.954105
11
550.995720
21
813.805330
0
LINE
8
Calque 1
10
550.995720
20
813.805330
11
553.450390
21
817.686990
0
LINE
8
Calque 1
10
553.450390
20
817.686990
11
554.050600
21
819.601070
0
LINE
8
Calque 1
10
554.050600
20
819.601070
11
554.085602
21
820.588693
0
LINE
8
Calque 1
10
554.085602
20
820.588693
11
553.787470
21
821.348630
0
LINE
8
Calque 1
10
553.787470
20
821.348630
11
553.300451
21
821.830694
0
LINE
8
Calque 1
10
553.300451
20
821.830694
11
552.730640
21
822.014250
0
LINE
8
Calque 1
10
552.730640
20
822.014250
11
549.783270
21
821.608500
0
LINE
8
Calque 1
10
549.783270
20
821.608500
11
544.390790
21
820.313900
0
LINE
8
Calque 1
10
544.390790
20
820.313900
11
538.811470
21
819.007720
0
LINE
8
Calque 1
10
538.811470
20
819.007720
11
533.621770
21
818.324500
0
LINE
8
Calque 1
10
533.621770
20
818.324500
11
531.096992
21
817.930440
0
LINE
8
Calque 1
10
531.096992
20
817.930440
11
528.859270
21
817.293350
0
LINE
8
Calque 1
10
528.859270
20
817.293350
11
525.053140
21
816.234870
0
LINE
8
Calque 1
10
525.053140
20
816.234870
11
513.973340
21
815.135330
0
LINE
8
Calque 1
10
513.973340
20
815.135330
11
501.537940
21
813.935490
0
LINE
8
Calque 1
10
501.537940
20
813.935490
11
495.552120
21
813.003670
0
LINE
8
Calque 1
10
495.552120
20
813.003670
11
489.677810
21
811.683390
0
LINE
8
Calque 1
10
489.677810
20
811.683390
11
484.121560
21
809.952030
0
LINE
8
Calque 1
10
484.121560
20
809.952030
11
481.666732
21
809.177325
0
LINE
8
Calque 1
10
481.666732
20
809.177325
11
480.873409
21
809.150009
0
LINE
8
Calque 1
10
480.873409
20
809.150009
11
479.911190
21
809.290740
0
LINE
8
Calque 1
10
479.911190
20
809.290740
11
476.964240
21
809.578830
0
LINE
8
Calque 1
10
476.964240
20
809.578830
11
475.025511
21
809.350143
0
LINE
8
Calque 1
10
475.025511
20
809.350143
11
472.232240
21
808.800320
0
LINE
8
Calque 1
10
472.232240
20
808.800320
11
465.523150
21
807.228860
0
LINE
8
Calque 1
10
465.523150
20
807.228860
11
459.702320
21
806.011940
0
LINE
8
Calque 1
10
459.702320
20
806.011940
11
455.217330
21
805.056070
0
LINE
8
Calque 1
10
455.217330
20
805.056070
11
451.427110
21
803.725900
0
LINE
8
Calque 1
10
451.427110
20
803.725900
11
450.364179
21
803.286999
0
LINE
8
Calque 1
10
450.364179
20
803.286999
11
449.538972
21
803.069445
0
LINE
8
Calque 1
10
449.538972
20
803.069445
11
447.313140
21
803.103410
0
LINE
8
Calque 1
10
447.313140
20
803.103410
11
445.754275
21
803.145352
0
LINE
8
Calque 1
10
445.754275
20
803.145352
11
443.578916
21
802.915475
0
LINE
8
Calque 1
10
443.578916
20
802.915475
11
432.979440
21
800.992310
0
LINE
8
Calque 1
10
432.979440
20
800.992310
11
417.633640
21
798.185840
0
LINE
8
Calque 1
10
417.633640
20
798.185840
11
410.952910
21
797.496260
0
LINE
8
Calque 1
10
410.952910
20
797.496260
11
407.579470
21
797.492260
0
LINE
8
Calque 1
10
407.579470
20
797.492260
11
408.307080
21
798.031460
0
LINE
8
Calque 1
10
408.307080
20
798.031460
11
411.415930
21
798.991260
0
LINE
8
Calque 1
10
411.415930
20
798.991260
11
418.824260
21
800.991710
0
LINE
8
Calque 1
10
418.824260
20
800.991710
11
426.629470
21
803.090250
0
LINE
8
Calque 1
10
426.629470
20
803.090250
11
434.566970
21
804.944930
0
LINE
8
Calque 1
10
434.566970
20
804.944930
11
443.695100
21
806.951510
0
LINE
8
Calque 1
10
443.695100
20
806.951510
11
448.350806
21
808.080854
0
LINE
8
Calque 1
10
448.350806
20
808.080854
11
453.971200
21
809.620800
0
LINE
8
Calque 1
10
453.971200
20
809.620800
11
465.480600
21
812.633330
0
LINE
8
Calque 1
10
465.480600
20
812.633330
11
476.768100
21
815.407150
0
LINE
8
Calque 1
10
476.768100
20
815.407150
11
496.471600
21
820.453900
0
LINE
8
Calque 1
10
496.471600
20
820.453900
11
514.992400
21
825.337140
0
LINE
8
Calque 1
10
514.992400
20
825.337140
11
522.144080
21
827.447840
0
LINE
8
Calque 1
10
522.144080
20
827.447840
11
525.209116
21
828.159825
0
LINE
8
Calque 1
10
525.209116
20
828.159825
11
529.420130
21
828.915940
0
LINE
8
Calque 1
10
529.420130
20
828.915940
11
535.505540
21
829.985160
0
LINE
8
Calque 1
10
535.505540
20
829.985160
11
541.723250
21
831.991850
0
LINE
8
Calque 1
10
541.723250
20
831.991850
11
546.666182
21
833.507818
0
LINE
8
Calque 1
10
546.666182
20
833.507818
11
548.336681
21
833.768498
0
LINE
8
Calque 1
10
548.336681
20
833.768498
11
550.461270
21
833.915120
0
LINE
8
Calque 1
10
550.461270
20
833.915120
11
553.579694
21
834.190568
0
LINE
8
Calque 1
10
553.579694
20
834.190568
11
554.479814
21
834.403930
0
LINE
8
Calque 1
10
554.479814
20
834.403930
11
555.217850
21
834.714310
0
LINE
8
Calque 1
10
555.217850
20
834.714310
11
557.327740
21
835.923300
0
LINE
8
Calque 1
10
557.327740
20
835.923300
11
559.450330
21
836.984220
0
LINE
8
Calque 1
10
559.450330
20
836.984220
11
560.586779
21
837.584153
0
LINE
8
Calque 1
10
560.586779
20
837.584153
11
561.647140
21
838.390590
0
LINE
8
Calque 1
10
561.647140
20
838.390590
11
563.423050
21
840.542260
0
LINE
8
Calque 1
10
563.423050
20
840.542260
11
564.737805
21
843.212700
0
LINE
8
Calque 1
10
564.737805
20
843.212700
11
566.817890
21
847.950590
0
LINE
8
Calque 1
10
566.817890
20
847.950590
11
570.019300
21
855.483670
0
LINE
8
Calque 1
10
570.019300
20
855.483670
11
572.711510
21
860.041650
0
LINE
8
Calque 1
10
572.711510
20
860.041650
11
574.263605
21
862.615774
0
LINE
8
Calque 1
10
574.263605
20
862.615774
11
574.978730
21
864.208830
0
LINE
8
Calque 1
10
574.978730
20
864.208830
11
575.017105
21
864.865759
0
LINE
8
Calque 1
10
575.017105
20
864.865759
11
574.896930
21
865.136220
0
LINE
8
Calque 1
10
574.896930
20
865.136220
11
572.282640
21
864.766930
0
LINE
8
Calque 1
10
572.282640
20
864.766930
11
567.588930
21
863.851220
0
LINE
8
Calque 1
10
567.588930
20
863.851220
11
560.709760
21
861.989380
0
LINE
8
Calque 1
10
560.709760
20
861.989380
11
553.497220
21
860.023090
0
LINE
8
Calque 1
10
553.497220
20
860.023090
11
548.073260
21
858.921320
0
LINE
8
Calque 1
10
548.073260
20
858.921320
11
545.079825
21
858.241008
0
LINE
8
Calque 1
10
545.079825
20
858.241008
11
541.590970
21
857.021970
0
LINE
8
Calque 1
10
541.590970
20
857.021970
11
535.373260
21
854.652310
0
LINE
8
Calque 1
10
535.373260
20
854.652310
11
527.964930
21
852.317070
0
LINE
8
Calque 1
10
527.964930
20
852.317070
11
517.571430
21
849.416140
0
LINE
8
Calque 1
10
517.571430
20
849.416140
11
512.621825
21
847.988355
0
LINE
8
Calque 1
10
512.621825
20
847.988355
11
508.443310
21
846.636980
0
LINE
8
Calque 1
10
508.443310
20
846.636980
11
503.358680
21
844.923120
0
LINE
8
Calque 1
10
503.358680
20
844.923120
11
498.199300
21
843.989030
0
LINE
8
Calque 1
10
498.199300
20
843.989030
11
494.815899
21
843.386675
0
LINE
8
Calque 1
10
494.815899
20
843.386675
11
491.882910
21
842.664740
0
LINE
8
Calque 1
10
491.882910
20
842.664740
11
488.926640
21
841.857630
0
LINE
8
Calque 1
10
488.926640
20
841.857630
11
487.834700
21
841.236640
0
LINE
8
Calque 1
10
487.834700
20
841.236640
11
487.047421
21
840.776491
0
LINE
8
Calque 1
10
487.047421
20
840.776491
11
486.160760
21
840.722160
0
LINE
8
Calque 1
10
486.160760
20
840.722160
11
482.631059
21
840.252579
0
LINE
8
Calque 1
10
482.631059
20
840.252579
11
475.445160
21
838.973980
0
LINE
8
Calque 1
10
475.445160
20
838.973980
11
462.112360
21
836.319010
0
LINE
8
Calque 1
10
462.112360
20
836.319010
11
458.823032
21
835.425764
0
LINE
8
Calque 1
10
458.823032
20
835.425764
11
456.026950
21
834.351880
0
LINE
8
Calque 1
10
456.026950
20
834.351880
11
452.292300
21
832.903500
0
LINE
8
Calque 1
10
452.292300
20
832.903500
11
446.471470
21
831.803850
0
LINE
8
Calque 1
10
446.471470
20
831.803850
11
439.726560
21
830.446070
0
LINE
8
Calque 1
10
439.726560
20
830.446070
11
437.654040
21
829.798006
0
LINE
8
Calque 1
10
437.654040
20
829.798006
11
435.643320
21
828.997730
0
LINE
8
Calque 1
10
435.643320
20
828.997730
11
433.860505
21
828.058088
0
LINE
8
Calque 1
10
433.860505
20
828.058088
11
432.335900
21
827.074960
0
LINE
8
Calque 1
10
432.335900
20
827.074960
11
430.529860
21
825.896880
0
LINE
8
Calque 1
10
430.529860
20
825.896880
11
429.988167
21
825.861791
0
LINE
8
Calque 1
10
429.988167
20
825.861791
11
429.339240
21
826.007670
0
LINE
8
Calque 1
10
429.339240
20
826.007670
11
428.013670
21
826.844770
0
LINE
8
Calque 1
10
428.013670
20
826.844770
11
427.633328
21
827.153240
0
LINE
8
Calque 1
10
427.633328
20
827.153240
11
427.211367
21
827.280578
0
LINE
8
Calque 1
10
427.211367
20
827.280578
11
425.367840
21
827.064500
0
LINE
8
Calque 1
10
425.367840
20
827.064500
11
420.411840
21
825.860970
0
LINE
8
Calque 1
10
420.411840
20
825.860970
11
412.572470
21
823.496920
0
LINE
8
Calque 1
10
412.572470
20
823.496920
11
404.634970
21
821.357080
0
LINE
8
Calque 1
10
404.634970
20
821.357080
11
401.907191
21
820.652250
0
LINE
8
Calque 1
10
401.907191
20
820.652250
11
401.233922
21
820.242385
0
LINE
8
Calque 1
10
401.233922
20
820.242385
11
400.586360
21
819.606230
0
LINE
8
Calque 1
10
400.586360
20
819.606230
11
399.519694
21
818.674678
0
LINE
8
Calque 1
10
399.519694
20
818.674678
11
399.020969
21
818.543580
0
LINE
8
Calque 1
10
399.020969
20
818.543580
11
398.337400
21
818.536730
0
LINE
8
Calque 1
10
398.337400
20
818.536730
11
395.098950
21
818.965170
0
LINE
8
Calque 1
10
395.098950
20
818.965170
11
393.204337
21
819.215004
0
LINE
8
Calque 1
10
393.204337
20
819.215004
11
391.791660
21
818.986270
0
LINE
8
Calque 1
10
391.791660
20
818.986270
11
387.735800
21
817.664820
0
LINE
8
Calque 1
10
387.735800
20
817.664820
11
382.973300
21
816.204920
0
LINE
8
Calque 1
10
382.973300
20
816.204920
11
381.070376
21
815.825689
0
LINE
8
Calque 1
10
381.070376
20
815.825689
11
379.281820
21
815.617660
0
LINE
8
Calque 1
10
379.281820
20
815.617660
11
377.574710
21
815.531560
0
LINE
8
Calque 1
10
377.574710
20
815.531560
11
377.111300
21
816.986770
0
LINE
8
Calque 1
10
377.111300
20
816.986770
11
376.351030
21
820.336970
0
LINE
8
Calque 1
10
376.351030
20
820.336970
11
376.038812
21
821.815564
0
LINE
8
Calque 1
10
376.038812
20
821.815564
11
375.705040
21
822.709420
0
LINE
8
Calque 1
10
375.705040
20
822.709420
11
375.455747
21
822.961226
0
LINE
8
Calque 1
10
375.455747
20
822.961226
11
375.055290
21
823.019289
0
LINE
8
Calque 1
10
375.055290
20
823.019289
11
372.880760
21
822.479190
0
LINE
8
Calque 1
10
372.880760
20
822.479190
11
359.160760
21
819.098530
0
LINE
8
Calque 1
10
359.160760
20
819.098530
11
345.137860
21
815.922080
0
LINE
8
Calque 1
10
345.137860
20
815.922080
11
342.839175
21
815.402191
0
LINE
8
Calque 1
10
342.839175
20
815.402191
11
342.245192
21
815.142043
0
LINE
8
Calque 1
10
342.245192
20
815.142043
11
341.885240
21
814.836290
0
LINE
8
Calque 1
10
341.885240
20
814.836290
11
341.564826
21
814.214705
0
LINE
8
Calque 1
10
341.564826
20
814.214705
11
341.574360
21
813.509030
0
LINE
8
Calque 1
10
341.574360
20
813.509030
11
342.639330
21
810.575950
0
LINE
8
Calque 1
10
342.639330
20
810.575950
11
343.545520
21
807.943690
0
LINE
8
Calque 1
10
343.545520
20
807.943690
11
343.434502
21
807.515466
0
LINE
8
Calque 1
10
343.434502
20
807.515466
11
343.160360
21
807.109570
0
LINE
8
Calque 1
10
343.160360
20
807.109570
11
342.474862
21
806.781988
0
LINE
8
Calque 1
10
342.474862
20
806.781988
11
341.374420
21
806.542050
0
LINE
8
Calque 1
10
341.374420
20
806.542050
11
331.379520
21
804.252940
0
LINE
8
Calque 1
10
331.379520
20
804.252940
11
320.002420
21
801.259950
0
LINE
8
Calque 1
10
320.002420
20
801.259950
11
315.901380
21
800.193620
0
LINE
8
Calque 1
10
315.901380
20
800.193620
11
310.609710
21
798.997920
0
LINE
8
Calque 1
10
310.609710
20
798.997920
11
307.023304
21
798.200703
0
LINE
8
Calque 1
10
307.023304
20
798.200703
11
303.973800
21
797.703380
0
LINE
8
Calque 1
10
303.973800
20
797.703380
11
301.124862
21
797.222181
0
LINE
8
Calque 1
10
301.124862
20
797.222181
11
298.020670
21
796.463730
0
LINE
8
Calque 1
10
298.020670
20
796.463730
11
285.209670
21
793.287980
0
LINE
8
Calque 1
10
285.209670
20
793.287980
11
276.717731
21
791.200519
0
LINE
8
Calque 1
10
276.717731
20
791.200519
11
274.780460
21
790.529270
0
LINE
8
Calque 1
10
274.780460
20
790.529270
11
273.149670
21
789.744130
0
LINE
8
Calque 1
10
273.149670
20
789.744130
11
270.614720
21
788.420140
0
LINE
8
Calque 1
10
270.614720
20
788.420140
11
267.858010
21
788.435040
0
LINE
8
Calque 1
10
267.858010
20
788.435040
11
265.120735
21
788.304081
0
LINE
8
Calque 1
10
265.120735
20
788.304081
11
262.435270
21
787.784600
0
LINE
8
Calque 1
10
262.435270
20
787.784600
11
258.437810
21
786.942660
0
LINE
8
Calque 1
10
258.437810
20
786.942660
11
257.245994
21
786.896776
0
LINE
8
Calque 1
10
257.245994
20
786.896776
11
256.573920
21
787.337560
0
LINE
8
Calque 1
10
256.573920
20
787.337560
11
256.150040
21
788.090191
0
LINE
8
Calque 1
10
256.150040
20
788.090191
11
255.878620
21
789.097140
0
LINE
8
Calque 1
10
255.878620
20
789.097140
11
255.438290
21
790.803700
0
LINE
8
Calque 1
10
255.438290
20
790.803700
11
255.055439
21
791.174811
0
LINE
8
Calque 1
10
255.055439
20
791.174811
11
254.512650
21
791.322190
0
LINE
8
Calque 1
10
254.512650
20
791.322190
11
251.677680
21
790.693100
0
LINE
8
Calque 1
10
251.677680
20
790.693100
11
243.537750
21
788.668330
0
LINE
8
Calque 1
10
243.537750
20
788.668330
11
237.355140
21
787.070320
0
LINE
8
Calque 1
10
237.355140
20
787.070320
11
237.434676
21
786.124368
0
LINE
8
Calque 1
10
237.434676
20
786.124368
11
237.948170
21
784.134160
0
LINE
8
Calque 1
10
237.948170
20
784.134160
11
239.683920
21
777.563850
0
LINE
8
Calque 1
10
239.683920
20
777.563850
11
241.393670
21
769.890940
0
LINE
8
Calque 1
10
241.393670
20
769.890940
11
243.904850
21
758.778440
0
LINE
8
Calque 1
10
243.904850
20
758.778440
11
245.937350
21
749.666850
0
LINE
8
Calque 1
10
245.937350
20
749.666850
11
246.407707
21
747.922233
0
LINE
8
Calque 1
10
246.407707
20
747.922233
11
247.471240
21
746.531240
0
LINE
8
Calque 1
10
247.471240
20
746.531240
11
248.507596
21
745.200030
0
LINE
8
Calque 1
10
248.507596
20
745.200030
11
248.695540
21
744.579033
0
LINE
8
Calque 1
10
248.695540
20
744.579033
11
248.781060
21
743.736580
0
LINE
8
Calque 1
10
248.781060
20
743.736580
11
248.869560
21
741.448230
0
LINE
8
Calque 1
10
248.869560
20
741.448230
11
248.691530
21
739.712970
0
LINE
8
Calque 1
10
248.691530
20
739.712970
11
248.694331
21
738.933985
0
LINE
8
Calque 1
10
248.694331
20
738.933985
11
248.913596
21
737.540225
0
LINE
8
Calque 1
10
248.913596
20
737.540225
11
250.117750
21
732.304630
0
LINE
8
Calque 1
10
250.117750
20
732.304630
11
254.894120
21
712.344030
0
LINE
8
Calque 1
10
254.894120
20
712.344030
11
259.523490
21
692.809330
0
LINE
8
Calque 1
10
259.523490
20
692.809330
11
260.813871
21
687.869731
0
LINE
8
Calque 1
10
260.813871
20
687.869731
11
261.715460
21
685.580550
0
LINE
8
Calque 1
10
261.715460
20
685.580550
11
262.892820
21
683.602070
0
LINE
8
Calque 1
10
262.892820
20
683.602070
11
263.187360
21
682.781060
0
LINE
8
Calque 1
10
263.187360
20
682.781060
11
263.070960
21
681.872690
0
LINE
8
Calque 1
10
263.070960
20
681.872690
11
262.946605
21
680.979750
0
LINE
8
Calque 1
10
262.946605
20
680.979750
11
263.120660
21
680.188150
0
LINE
8
Calque 1
10
263.120660
20
680.188150
11
263.287625
21
679.516639
0
LINE
8
Calque 1
10
263.287625
20
679.516639
11
263.176760
21
678.990530
0
LINE
8
Calque 1
10
263.176760
20
678.990530
11
263.132111
21
677.965933
0
LINE
8
Calque 1
10
263.132111
20
677.965933
11
263.527780
21
675.729920
0
LINE
8
Calque 1
10
263.527780
20
675.729920
11
265.329370
21
667.993320
0
LINE
8
Calque 1
10
265.329370
20
667.993320
11
266.922140
21
660.802300
0
LINE
8
Calque 1
10
266.922140
20
660.802300
11
267.317455
21
658.978975
0
LINE
8
Calque 1
10
267.317455
20
658.978975
11
267.713160
21
657.773350
0
LINE
8
Calque 1
10
267.713160
20
657.773350
11
268.552050
21
656.640020
0
LINE
8
Calque 1
10
268.552050
20
656.640020
11
268.934771
21
656.486433
0
LINE
8
Calque 1
10
268.934771
20
656.486433
11
269.688774
21
656.530910
0
LINE
8
Calque 1
10
269.688774
20
656.530910
11
273.398140
21
657.380150
0
LINE
8
Calque 1
10
273.398140
20
657.380150
11
281.108620
21
659.169160
0
LINE
8
Calque 1
10
281.108620
20
659.169160
11
285.047770
21
660.112920
0
LINE
8
Calque 1
10
285.047770
20
660.112920
11
285.393770
21
660.295776
0
LINE
8
Calque 1
10
285.393770
20
660.295776
11
285.562762
21
660.568593
0
LINE
8
Calque 1
10
285.562762
20
660.568593
11
285.514460
21
661.955570
0
LINE
8
Calque 1
10
285.514460
20
661.955570
11
285.470439
21
663.331148
0
LINE
8
Calque 1
10
285.470439
20
663.331148
11
285.833120
21
664.019590
0
LINE
8
Calque 1
10
285.833120
20
664.019590
11
286.547484
21
664.412368
0
LINE
8
Calque 1
10
286.547484
20
664.412368
11
287.585600
21
664.677300
0
LINE
8
Calque 1
10
287.585600
20
664.677300
11
292.852790
21
666.041080
0
LINE
8
Calque 1
10
292.852790
20
666.041080
11
297.069527
21
667.155080
0
LINE
8
Calque 1
10
297.069527
20
667.155080
11
301.592670
21
668.162490
0
LINE
8
Calque 1
10
301.592670
20
668.162490
11
305.667656
21
669.086496
0
LINE
8
Calque 1
10
305.667656
20
669.086496
11
308.604120
21
669.997700
0
LINE
8
Calque 1
10
308.604120
20
669.997700
11
310.868389
21
670.732520
0
LINE
8
Calque 1
10
310.868389
20
670.732520
11
313.123200
21
671.194790
0
LINE
8
Calque 1
10
313.123200
20
671.194790
11
317.621120
21
672.121060
0
LINE
8
Calque 1
10
317.621120
20
672.121060
11
321.325290
21
672.928870
0
LINE
8
Calque 1
10
321.325290
20
672.928870
11
322.527902
21
673.163379
0
LINE
8
Calque 1
10
322.527902
20
673.163379
11
323.375810
21
673.481580
0
LINE
8
Calque 1
10
323.375810
20
673.481580
11
323.854372
21
674.034740
0
LINE
8
Calque 1
10
323.854372
20
674.034740
11
323.971120
21
675.131380
0
LINE
8
Calque 1
10
323.971120
20
675.131380
11
323.663492
21
677.044541
0
LINE
8
Calque 1
10
323.663492
20
677.044541
11
322.877890
21
679.953920
0
LINE
8
Calque 1
10
322.877890
20
679.953920
11
321.981250
21
683.328859
0
LINE
8
Calque 1
10
321.981250
20
683.328859
11
321.556150
21
686.282590
0
LINE
8
Calque 1
10
321.556150
20
686.282590
11
321.168000
21
690.311650
0
LINE
8
Calque 1
10
321.168000
20
690.311650
11
321.198296
21
691.871489
0
LINE
8
Calque 1
10
321.198296
20
691.871489
11
321.669360
21
694.148110
0
LINE
8
Calque 1
10
321.669360
20
694.148110
11
323.041250
21
700.040920
0
LINE
8
Calque 1
10
323.041250
20
700.040920
11
324.689080
21
706.255760
0
LINE
8
Calque 1
10
324.689080
20
706.255760
11
327.331960
21
713.399510
0
LINE
8
Calque 1
10
327.331960
20
713.399510
11
329.823480
21
719.041470
0
LINE
8
Calque 1
10
329.823480
20
719.041470
11
330.938347
21
720.593070
0
LINE
8
Calque 1
10
330.938347
20
720.593070
11
332.515620
21
722.349480
0
LINE
8
Calque 1
10
332.515620
20
722.349480
11
336.141950
21
726.078240
0
LINE
8
Calque 1
10
336.141950
20
726.078240
11
338.090627
21
727.958414
0
LINE
8
Calque 1
10
338.090627
20
727.958414
11
340.360710
21
729.913970
0
LINE
8
Calque 1
10
340.360710
20
729.913970
11
342.440777
21
731.731833
0
LINE
8
Calque 1
10
342.440777
20
731.731833
11
343.932590
21
733.280940
0
LINE
8
Calque 1
10
343.932590
20
733.280940
11
344.962354
21
734.395936
0
LINE
8
Calque 1
10
344.962354
20
734.395936
11
345.931540
21
735.170080
0
LINE
8
Calque 1
10
345.931540
20
735.170080
11
346.994685
21
735.631081
0
LINE
8
Calque 1
10
346.994685
20
735.631081
11
348.250370
21
735.993180
0
LINE
8
Calque 1
10
348.250370
20
735.993180
11
350.624980
21
736.695090
0
LINE
8
Calque 1
10
350.624980
20
736.695090
11
354.523860
21
737.887300
0
LINE
8
Calque 1
10
354.523860
20
737.887300
11
356.870896
21
738.439696
0
LINE
8
Calque 1
10
356.870896
20
738.439696
11
358.417480
21
738.669690
0
LINE
8
Calque 1
10
358.417480
20
738.669690
11
359.158649
21
738.586711
0
LINE
8
Calque 1
10
359.158649
20
738.586711
11
359.569240
21
738.386650
0
LINE
8
Calque 1
10
359.569240
20
738.386650
11
360.657730
21
734.219460
0
LINE
8
Calque 1
10
360.657730
20
734.219460
11
366.172270
21
711.153460
0
LINE
8
Calque 1
10
366.172270
20
711.153460
11
374.634670
21
675.566960
0
LINE
8
Calque 1
10
374.634670
20
675.566960
11
379.129350
21
656.516960
0
LINE
8
Calque 1
10
379.129350
20
656.516960
11
380.075640
21
652.237280
0
LINE
8
Calque 1
10
380.075640
20
652.237280
11
380.443917
21
650.841041
0
LINE
8
Calque 1
10
380.443917
20
650.841041
11
380.890120
21
649.778470
0
LINE
8
Calque 1
10
380.890120
20
649.778470
11
381.459825
21
649.115249
0
LINE
8
Calque 1
10
381.459825
20
649.115249
11
382.313060
21
649.126330
0
LINE
8
Calque 1
10
382.313060
20
649.126330
11
383.844570
21
649.145930
0
LINE
8
Calque 1
10
383.844570
20
649.145930
11
384.412142
21
648.767120
0
LINE
8
Calque 1
10
384.412142
20
648.767120
11
384.912500
21
648.033020
0
LINE
8
Calque 1
10
384.912500
20
648.033020
11
385.459495
21
646.255149
0
LINE
8
Calque 1
10
385.459495
20
646.255149
11
386.131920
21
643.328420
0
LINE
8
Calque 1
10
386.131920
20
643.328420
11
387.581390
21
636.557320
0
LINE
8
Calque 1
10
387.581390
20
636.557320
11
388.181459
21
634.245505
0
LINE
8
Calque 1
10
388.181459
20
634.245505
11
388.658430
21
632.936920
0
LINE
8
Calque 1
10
388.658430
20
632.936920
11
389.953490
21
631.651910
0
LINE
8
Calque 1
10
389.953490
20
631.651910
11
390.644962
21
630.957686
0
LINE
8
Calque 1
10
390.644962
20
630.957686
11
391.035520
21
630.258730
0
LINE
8
Calque 1
10
391.035520
20
630.258730
11
391.062162
21
629.270546
0
LINE
8
Calque 1
10
391.062162
20
629.270546
11
390.878760
21
627.880940
0
LINE
8
Calque 1
10
390.878760
20
627.880940
11
390.678529
21
626.133310
0
LINE
8
Calque 1
10
390.678529
20
626.133310
11
390.887760
21
624.163260
0
LINE
8
Calque 1
10
390.887760
20
624.163260
11
393.425580
21
613.257560
0
LINE
8
Calque 1
10
393.425580
20
613.257560
11
395.809810
21
603.137260
0
LINE
8
Calque 1
10
395.809810
20
603.137260
11
395.998060
21
601.880480
0
LINE
8
Calque 1
10
395.998060
20
601.880480
11
394.975830
21
601.870480
0
LINE
8
Calque 1
10
394.975830
20
601.870480
11
327.565130
21
601.870640
0
LINE
8
Calque 1
10
327.565130
20
601.870640
11
261.042230
21
602.015150
0
LINE
8
Calque 1
10
261.042230
20
602.015150
11
261.002230
21
626.025950
0
LINE
8
Calque 1
10
261.002230
20
626.025950
11
261.114740
21
652.680450
0
LINE
8
Calque 1
10
261.114740
20
652.680450
11
261.026102
21
655.105167
0
LINE
8
Calque 1
10
261.026102
20
655.105167
11
260.660340
21
656.612170
0
LINE
8
Calque 1
10
260.660340
20
656.612170
11
260.324742
21
657.764510
0
LINE
8
Calque 1
10
260.324742
20
657.764510
11
260.741740
21
658.909980
0
LINE
8
Calque 1
10
260.741740
20
658.909980
11
261.134795
21
660.024439
0
LINE
8
Calque 1
10
261.134795
20
660.024439
11
261.121350
21
661.063680
0
LINE
8
Calque 1
10
261.121350
20
661.063680
11
260.457740
21
664.057530
0
LINE
8
Calque 1
10
260.457740
20
664.057530
11
259.035690
21
671.604140
0
LINE
8
Calque 1
10
259.035690
20
671.604140
11
257.562060
21
679.806220
0
LINE
8
Calque 1
10
257.562060
20
679.806220
11
256.348180
21
684.924980
0
LINE
8
Calque 1
10
256.348180
20
684.924980
11
253.692820
21
693.788520
0
LINE
8
Calque 1
10
253.692820
20
693.788520
11
250.398430
21
705.144720
0
LINE
8
Calque 1
10
250.398430
20
705.144720
11
249.377290
21
709.480830
0
LINE
8
Calque 1
10
249.377290
20
709.480830
11
248.813560
21
712.817640
0
LINE
8
Calque 1
10
248.813560
20
712.817640
11
248.269480
21
716.543420
0
LINE
8
Calque 1
10
248.269480
20
716.543420
11
246.800100
21
720.776760
0
LINE
8
Calque 1
10
246.800100
20
720.776760
11
245.400390
21
724.350350
0
LINE
8
Calque 1
10
245.400390
20
724.350350
11
245.210006
21
724.541699
0
LINE
8
Calque 1
10
245.210006
20
724.541699
11
245.037600
21
724.454190
0
LINE
8
Calque 1
10
245.037600
20
724.454190
11
245.187730
21
710.595790
0
LINE
8
Calque 1
10
245.187730
20
710.595790
11
245.499050
21
693.823190
0
LINE
8
Calque 1
10
245.499050
20
693.823190
11
245.222840
21
685.224240
0
LINE
8
Calque 1
10
245.222840
20
685.224240
11
245.068459
21
676.343741
0
LINE
8
Calque 1
10
245.068459
20
676.343741
11
245.145940
21
660.882540
0
LINE
8
Calque 1
10
245.145940
20
660.882540
11
245.224412
21
646.211552
0
LINE
8
Calque 1
10
245.224412
20
646.211552
11
245.085340
21
639.186740
0
LINE
8
Calque 1
10
245.085340
20
639.186740
11
244.951332
21
636.447475
0
LINE
8
Calque 1
10
244.951332
20
636.447475
11
244.994040
21
633.762780
0
LINE
8
Calque 1
10
244.994040
20
633.762780
11
245.556150
21
628.761070
0
LINE
8
Calque 1
10
245.556150
20
628.761070
11
245.807126
21
626.720440
0
LINE
8
Calque 1
10
245.807126
20
626.720440
11
245.628450
21
625.629490
0
LINE
8
Calque 1
10
245.628450
20
625.629490
11
245.376477
21
622.848290
0
LINE
8
Calque 1
10
245.376477
20
622.848290
11
245.285260
21
615.417690
0
LINE
8
Calque 1
10
245.285260
20
615.417690
11
245.411140
21
579.396490
0
LINE
8
Calque 1
10
245.411140
20
579.396490
11
245.558910
21
552.811390
0
LINE
8
Calque 1
10
245.558910
20
552.811390
11
265.119810
21
552.880390
0
LINE
8
Calque 1
10
265.119810
20
552.880390
11
292.618210
21
552.972690
0
LINE
8
Calque 1
10
292.618210
20
552.972690
11
333.231710
21
552.910790
0
LINE
8
Calque 1
10
333.231710
20
552.910790
11
361.601772
21
552.914565
0
LINE
8
Calque 1
10
361.601772
20
552.914565
11
367.426465
21
553.048012
0
LINE
8
Calque 1
10
367.426465
20
553.048012
11
371.199410
21
553.305790
0
LINE
8
Calque 1
10
371.199410
20
553.305790
11
376.176741
21
553.637424
0
LINE
8
Calque 1
10
376.176741
20
553.637424
11
380.459820
21
553.641120
0
LINE
8
Calque 1
10
380.459820
20
553.641120
11
386.677530
21
553.181220
0
LINE
8
Calque 1
10
386.677530
20
553.181220
11
390.823660
21
552.955029
0
LINE
8
Calque 1
10
390.823660
20
552.955029
11
398.451530
21
552.892060
0
LINE
8
Calque 1
10
398.451530
20
552.892060
11
436.816130
21
552.906360
0
LINE
8
Calque 1
10
436.816130
20
552.906360
11
509.973430
21
552.695150
0
LINE
8
Calque 1
10
509.973430
20
552.695150
11
556.215030
21
552.449460
0
LINE
8
Calque 1
10
556.215030
20
552.449460
11
557.906537
21
552.507471
0
LINE
8
Calque 1
10
557.906537
20
552.507471
11
558.231927
21
552.704451
0
LINE
8
Calque 1
10
558.231927
20
552.704451
11
558.447350
21
553.080350
0
LINE
8
Calque 1
10
558.447350
20
553.080350
11
558.447000
21
553.080000
0
LINE
8
Calque 1
10
263.563000
20
561.323150
11
262.587860
21
564.706220
0
LINE
8
Calque 1
10
262.587860
20
564.706220
11
259.232430
21
575.951020
0
LINE
8
Calque 1
10
259.232430
20
575.951020
11
255.692720
21
586.767920
0
LINE
8
Calque 1
10
255.692720
20
586.767920
11
254.763796
21
588.969160
0
LINE
8
Calque 1
10
254.763796
20
588.969160
11
253.981430
21
590.403900
0
LINE
8
Calque 1
10
253.981430
20
590.403900
11
253.311790
21
591.079554
0
LINE
8
Calque 1
10
253.311790
20
591.079554
11
252.653880
21
591.455800
0
LINE
8
Calque 1
10
252.653880
20
591.455800
11
252.305872
21
591.583613
0
LINE
8
Calque 1
10
252.305872
20
591.583613
11
252.109976
21
591.813590
0
LINE
8
Calque 1
10
252.109976
20
591.813590
11
252.004320
21
592.979220
0
LINE
8
Calque 1
10
252.004320
20
592.979220
11
252.005000
21
594.340000
0
LINE
8
Calque 1
10
252.005000
20
594.340000
11
258.090000
21
594.340000
0
LINE
8
Calque 1
10
258.090000
20
594.340000
11
264.176000
21
594.340000
0
LINE
8
Calque 1
10
264.176000
20
594.340000
11
264.176000
21
592.951000
0
LINE
8
Calque 1
10
264.176000
20
592.951000
11
264.072956
21
591.746665
0
LINE
8
Calque 1
10
264.072956
20
591.746665
11
263.842149
21
591.587804
0
LINE
8
Calque 1
10
263.842149
20
591.587804
11
263.401150
21
591.561940
0
LINE
8
Calque 1
10
263.401150
20
591.561940
11
262.731776
21
591.439810
0
LINE
8
Calque 1
10
262.731776
20
591.439810
11
262.210520
21
591.146170
0
LINE
8
Calque 1
10
262.210520
20
591.146170
11
261.917001
21
590.683206
0
LINE
8
Calque 1
10
261.917001
20
590.683206
11
261.795150
21
590.153980
0
LINE
8
Calque 1
10
261.795150
20
590.153980
11
263.011340
21
585.344230
0
LINE
8
Calque 1
10
263.011340
20
585.344230
11
264.719040
21
579.391100
0
LINE
8
Calque 1
10
264.719040
20
579.391100
11
265.997090
21
575.025480
0
LINE
8
Calque 1
10
265.997090
20
575.025480
11
267.074510
21
571.615340
0
LINE
8
Calque 1
10
267.074510
20
571.615340
11
267.322560
21
571.117881
0
LINE
8
Calque 1
10
267.322560
20
571.117881
11
267.509890
21
570.995130
0
LINE
8
Calque 1
10
267.509890
20
570.995130
11
269.598100
21
577.286320
0
LINE
8
Calque 1
10
269.598100
20
577.286320
11
271.542220
21
583.433430
0
LINE
8
Calque 1
10
271.542220
20
583.433430
11
270.499320
21
586.373190
0
LINE
8
Calque 1
10
270.499320
20
586.373190
11
269.019720
21
590.145540
0
LINE
8
Calque 1
10
269.019720
20
590.145540
11
268.452624
21
590.856895
0
LINE
8
Calque 1
10
268.452624
20
590.856895
11
267.702430
21
591.398030
0
LINE
8
Calque 1
10
267.702430
20
591.398030
11
267.224906
21
591.658699
0
LINE
8
Calque 1
10
267.224906
20
591.658699
11
266.959970
21
591.939529
0
LINE
8
Calque 1
10
266.959970
20
591.939529
11
266.821830
21
593.012860
0
LINE
8
Calque 1
10
266.821830
20
593.012860
11
266.880122
21
593.858510
0
LINE
8
Calque 1
10
266.880122
20
593.858510
11
267.020270
21
594.213720
0
LINE
8
Calque 1
10
267.020270
20
594.213720
11
273.105790
21
594.279820
0
LINE
8
Calque 1
10
273.105790
20
594.279820
11
278.992860
21
594.340020
0
LINE
8
Calque 1
10
278.992860
20
594.340020
11
278.992770
21
592.950960
0
LINE
8
Calque 1
10
278.992770
20
592.950960
11
278.891522
21
591.753082
0
LINE
8
Calque 1
10
278.891522
20
591.753082
11
278.672182
21
591.590185
0
LINE
8
Calque 1
10
278.672182
20
591.590185
11
278.257790
21
591.561900
0
LINE
8
Calque 1
10
278.257790
20
591.561900
11
277.556954
21
591.434540
0
LINE
8
Calque 1
10
277.556954
20
591.434540
11
276.903930
21
591.128350
0
LINE
8
Calque 1
10
276.903930
20
591.128350
11
276.419765
21
590.571106
0
LINE
8
Calque 1
10
276.419765
20
590.571106
11
276.441970
21
589.549260
0
LINE
8
Calque 1
10
276.441970
20
589.549260
11
277.110540
21
586.741670
0
LINE
8
Calque 1
10
277.110540
20
586.741670
11
278.724000
21
581.507730
0
LINE
8
Calque 1
10
278.724000
20
581.507730
11
280.897470
21
574.628560
0
LINE
8
Calque 1
10
280.897470
20
574.628560
11
282.169140
21
571.101430
0
LINE
8
Calque 1
10
282.169140
20
571.101430
11
282.627761
21
571.943404
0
LINE
8
Calque 1
10
282.627761
20
571.943404
11
283.449420
21
574.276430
0
LINE
8
Calque 1
10
283.449420
20
574.276430
11
286.144930
21
582.962940
0
LINE
8
Calque 1
10
286.144930
20
582.962940
11
287.911010
21
589.509580
0
LINE
8
Calque 1
10
287.911010
20
589.509580
11
287.981032
21
590.235977
0
LINE
8
Calque 1
10
287.981032
20
590.235977
11
287.918980
21
590.653871
0
LINE
8
Calque 1
10
287.918980
20
590.653871
11
287.652088
21
590.913030
0
LINE
8
Calque 1
10
287.652088
20
590.913030
11
287.107590
21
591.163220
0
LINE
8
Calque 1
10
287.107590
20
591.163220
11
285.615750
21
591.561900
0
LINE
8
Calque 1
10
285.615750
20
591.561900
11
285.332522
21
591.607382
0
LINE
8
Calque 1
10
285.332522
20
591.607382
11
285.169819
21
591.798941
0
LINE
8
Calque 1
10
285.169819
20
591.798941
11
285.077970
21
592.950960
0
LINE
8
Calque 1
10
285.077970
20
592.950960
11
285.077860
21
594.340020
0
LINE
8
Calque 1
10
285.077860
20
594.340020
11
289.906000
21
594.340000
0
LINE
8
Calque 1
10
289.906000
20
594.340000
11
293.466040
21
594.267568
0
LINE
8
Calque 1
10
293.466040
20
594.267568
11
294.929140
21
594.075420
0
LINE
8
Calque 1
10
294.929140
20
594.075420
11
295.127580
21
592.821960
0
LINE
8
Calque 1
10
295.127580
20
592.821960
11
294.957143
21
591.895942
0
LINE
8
Calque 1
10
294.957143
20
591.895942
11
294.139440
21
591.202650
0
LINE
8
Calque 1
10
294.139440
20
591.202650
11
292.696590
21
590.067670
0
LINE
8
Calque 1
10
292.696590
20
590.067670
11
291.562360
21
588.070040
0
LINE
8
Calque 1
10
291.562360
20
588.070040
11
290.212570
21
584.240750
0
LINE
8
Calque 1
10
290.212570
20
584.240750
11
287.544940
21
575.554590
0
LINE
8
Calque 1
10
287.544940
20
575.554590
11
284.291730
21
565.235790
0
LINE
8
Calque 1
10
284.291730
20
565.235790
11
283.039940
21
561.267040
0
LINE
8
Calque 1
10
283.039940
20
561.267040
11
280.631940
21
561.191140
0
LINE
8
Calque 1
10
280.631940
20
561.191140
11
278.223950
21
561.115240
0
LINE
8
Calque 1
10
278.223950
20
561.115240
11
277.919960
21
562.249480
0
LINE
8
Calque 1
10
277.919960
20
562.249480
11
276.736230
21
566.426430
0
LINE
8
Calque 1
10
276.736230
20
566.426430
11
274.758160
21
573.041010
0
LINE
8
Calque 1
10
274.758160
20
573.041010
11
273.462220
21
576.817540
0
LINE
8
Calque 1
10
273.462220
20
576.817540
11
272.804300
21
575.269812
0
LINE
8
Calque 1
10
272.804300
20
575.269812
11
271.500000
21
571.261290
0
LINE
8
Calque 1
10
271.500000
20
571.261290
11
269.109150
21
563.383720
0
LINE
8
Calque 1
10
269.109150
20
563.383720
11
268.482900
21
561.267060
0
LINE
8
Calque 1
10
268.482900
20
561.267060
11
266.086130
21
561.191260
0
LINE
8
Calque 1
10
266.086130
20
561.191260
11
264.356361
21
561.198796
0
LINE
8
Calque 1
10
264.356361
20
561.198796
11
263.563230
21
561.323550
0
LINE
8
Calque 1
10
263.563230
20
561.323550
11
263.563000
21
561.323150
0
LINE
8
Calque 1
10
291.774300
20
561.567100
11
291.741300
21
563.006910
0
LINE
8
Calque 1
10
291.741300
20
563.006910
11
291.941879
21
563.991607
0
LINE
8
Calque 1
10
291.941879
20
563.991607
11
292.192708
21
564.207198
0
LINE
8
Calque 1
10
292.192708
20
564.207198
11
292.617890
21
564.351780
0
LINE
8
Calque 1
10
292.617890
20
564.351780
11
293.282176
21
564.664266
0
LINE
8
Calque 1
10
293.282176
20
564.664266
11
293.764670
21
565.126910
0
LINE
8
Calque 1
10
293.764670
20
565.126910
11
295.846290
21
570.096150
0
LINE
8
Calque 1
10
295.846290
20
570.096150
11
299.758990
21
580.713550
0
LINE
8
Calque 1
10
299.758990
20
580.713550
11
302.328970
21
588.121880
0
LINE
8
Calque 1
10
302.328970
20
588.121880
11
302.714860
21
589.312510
0
LINE
8
Calque 1
10
302.714860
20
589.312510
11
305.077700
21
589.387710
0
LINE
8
Calque 1
10
305.077700
20
589.387710
11
307.440530
21
589.462910
0
LINE
8
Calque 1
10
307.440530
20
589.462910
11
309.244760
21
584.228310
0
LINE
8
Calque 1
10
309.244760
20
584.228310
11
312.228670
21
575.554110
0
LINE
8
Calque 1
10
312.228670
20
575.554110
11
313.897360
21
571.056190
0
LINE
8
Calque 1
10
313.897360
20
571.056190
11
314.784930
21
568.655520
0
LINE
8
Calque 1
10
314.784930
20
568.655520
11
315.858130
21
565.981850
0
LINE
8
Calque 1
10
315.858130
20
565.981850
11
316.565612
21
564.894496
0
LINE
8
Calque 1
10
316.565612
20
564.894496
11
317.341480
21
564.315500
0
LINE
8
Calque 1
10
317.341480
20
564.315500
11
317.785600
21
564.097243
0
LINE
8
Calque 1
10
317.785600
20
564.097243
11
318.028285
21
563.826479
0
LINE
8
Calque 1
10
318.028285
20
563.826479
11
318.150190
21
562.623570
0
LINE
8
Calque 1
10
318.150190
20
562.623570
11
318.150210
21
561.266610
0
LINE
8
Calque 1
10
318.150210
20
561.266610
11
312.527800
21
561.316510
0
LINE
8
Calque 1
10
312.527800
20
561.316510
11
306.905390
21
561.366410
0
LINE
8
Calque 1
10
306.905390
20
561.366410
11
306.906000
21
562.772000
0
LINE
8
Calque 1
10
306.906000
20
562.772000
11
306.906000
21
564.177000
0
LINE
8
Calque 1
10
306.906000
20
564.177000
11
307.912960
21
564.260000
0
LINE
8
Calque 1
10
307.912960
20
564.260000
11
308.665361
21
564.426080
0
LINE
8
Calque 1
10
308.665361
20
564.426080
11
309.060320
21
564.708890
0
LINE
8
Calque 1
10
309.060320
20
564.708890
11
309.031850
21
565.418354
0
LINE
8
Calque 1
10
309.031850
20
565.418354
11
308.766260
21
566.610270
0
LINE
8
Calque 1
10
308.766260
20
566.610270
11
307.937210
21
569.005650
0
LINE
8
Calque 1
10
307.937210
20
569.005650
11
307.542630
21
569.865540
0
LINE
8
Calque 1
10
307.542630
20
569.865540
11
303.725000
21
569.866000
0
LINE
8
Calque 1
10
303.725000
20
569.866000
11
299.908000
21
569.866000
0
LINE
8
Calque 1
10
299.908000
20
569.866000
11
299.550280
21
569.138400
0
LINE
8
Calque 1
10
299.550280
20
569.138400
11
298.713830
21
566.776940
0
LINE
8
Calque 1
10
298.713830
20
566.776940
11
298.422700
21
565.500629
0
LINE
8
Calque 1
10
298.422700
20
565.500629
11
298.395000
21
564.726420
0
LINE
8
Calque 1
10
298.395000
20
564.726420
11
298.753700
21
564.416711
0
LINE
8
Calque 1
10
298.753700
20
564.416711
11
299.489230
21
564.309750
0
LINE
8
Calque 1
10
299.489230
20
564.309750
11
300.424000
21
564.309000
0
LINE
8
Calque 1
10
300.424000
20
564.309000
11
300.424210
21
562.787650
0
LINE
8
Calque 1
10
300.424210
20
562.787650
11
300.424420
21
561.266300
0
LINE
8
Calque 1
10
300.424420
20
561.266300
11
296.157000
21
561.267000
0
LINE
8
Calque 1
10
296.157000
20
561.267000
11
292.893291
21
561.339583
0
LINE
8
Calque 1
10
292.893291
20
561.339583
11
291.774470
21
561.567460
0
LINE
8
Calque 1
10
291.774470
20
561.567460
11
291.774300
21
561.567100
0
LINE
8
Calque 1
10
306.508500
20
573.153000
11
305.287510
21
576.791020
0
LINE
8
Calque 1
10
305.287510
20
576.791020
11
303.886230
21
580.650420
0
LINE
8
Calque 1
10
303.886230
20
580.650420
11
303.715460
21
580.497866
0
LINE
8
Calque 1
10
303.715460
20
580.497866
11
303.383958
21
579.828345
0
LINE
8
Calque 1
10
303.383958
20
579.828345
11
302.418380
21
577.343130
0
LINE
8
Calque 1
10
302.418380
20
577.343130
11
301.013230
21
573.371330
0
LINE
8
Calque 1
10
301.013230
20
573.371330
11
301.095950
21
573.213683
0
LINE
8
Calque 1
10
301.095950
20
573.213683
11
301.524861
21
573.111769
0
LINE
8
Calque 1
10
301.524861
20
573.111769
11
303.702070
21
573.040600
0
LINE
8
Calque 1
10
303.702070
20
573.040600
11
306.508500
21
573.153000
0
LINE
8
Calque 1
10
306.508500
20
573.153000
11
306.508500
21
573.153000
0
LINE
8
Calque 1
10
322.730100
20
561.567100
11
322.697500
21
563.022300
0
LINE
8
Calque 1
10
322.697500
20
563.022300
11
322.780300
21
564.177050
0
LINE
8
Calque 1
10
322.780300
20
564.177050
11
324.162860
21
564.316060
0
LINE
8
Calque 1
10
324.162860
20
564.316060
11
325.238359
21
564.513549
0
LINE
8
Calque 1
10
325.238359
20
564.513549
11
325.882660
21
564.793080
0
LINE
8
Calque 1
10
325.882660
20
564.793080
11
326.044837
21
565.438862
0
LINE
8
Calque 1
10
326.044837
20
565.438862
11
326.143786
21
567.205883
0
LINE
8
Calque 1
10
326.143786
20
567.205883
11
326.190990
21
575.451480
0
LINE
8
Calque 1
10
326.190990
20
575.451480
11
326.099409
21
583.208326
0
LINE
8
Calque 1
10
326.099409
20
583.208326
11
325.887610
21
586.046380
0
LINE
8
Calque 1
10
325.887610
20
586.046380
11
325.277679
21
586.291023
0
LINE
8
Calque 1
10
325.277679
20
586.291023
11
324.196710
21
586.493740
0
LINE
8
Calque 1
10
324.196710
20
586.493740
11
322.780300
21
586.666620
0
LINE
8
Calque 1
10
322.780300
20
586.666620
11
322.701600
21
588.019270
0
LINE
8
Calque 1
10
322.701600
20
588.019270
11
322.622900
21
589.371930
0
LINE
8
Calque 1
10
322.622900
20
589.371930
11
330.749420
21
589.498610
0
LINE
8
Calque 1
10
330.749420
20
589.498610
11
337.289033
21
589.520898
0
LINE
8
Calque 1
10
337.289033
20
589.520898
11
340.353130
21
589.314510
0
LINE
8
Calque 1
10
340.353130
20
589.314510
11
342.650950
21
588.576300
0
LINE
8
Calque 1
10
342.650950
20
588.576300
11
343.466986
21
588.005085
0
LINE
8
Calque 1
10
343.466986
20
588.005085
11
344.276580
21
587.232000
0
LINE
8
Calque 1
10
344.276580
20
587.232000
11
344.947454
21
586.286330
0
LINE
8
Calque 1
10
344.947454
20
586.286330
11
345.429950
21
585.300250
0
LINE
8
Calque 1
10
345.429950
20
585.300250
11
345.673047
21
583.961718
0
LINE
8
Calque 1
10
345.673047
20
583.961718
11
345.768350
21
582.168700
0
LINE
8
Calque 1
10
345.768350
20
582.168700
11
345.637770
21
580.247419
0
LINE
8
Calque 1
10
345.637770
20
580.247419
11
345.159100
21
578.890430
0
LINE
8
Calque 1
10
345.159100
20
578.890430
11
344.490409
21
577.839064
0
LINE
8
Calque 1
10
344.490409
20
577.839064
11
343.724240
21
576.942520
0
LINE
8
Calque 1
10
343.724240
20
576.942520
11
342.722104
21
576.194093
0
LINE
8
Calque 1
10
342.722104
20
576.194093
11
341.486080
21
575.498840
0
LINE
8
Calque 1
10
341.486080
20
575.498840
11
340.518909
21
574.972611
0
LINE
8
Calque 1
10
340.518909
20
574.972611
11
340.163160
21
574.630530
0
LINE
8
Calque 1
10
340.163160
20
574.630530
11
342.624080
21
570.530740
0
LINE
8
Calque 1
10
342.624080
20
570.530740
11
345.883390
21
565.610760
0
LINE
8
Calque 1
10
345.883390
20
565.610760
11
346.750929
21
564.815560
0
LINE
8
Calque 1
10
346.750929
20
564.815560
11
347.603190
21
564.362690
0
LINE
8
Calque 1
10
347.603190
20
564.362690
11
348.071875
21
564.210159
0
LINE
8
Calque 1
10
348.071875
20
564.210159
11
348.333754
21
563.977021
0
LINE
8
Calque 1
10
348.333754
20
563.977021
11
348.524880
21
562.772360
0
LINE
8
Calque 1
10
348.524880
20
562.772360
11
348.604880
21
561.398910
0
LINE
8
Calque 1
10
348.604880
20
561.398910
11
344.655000
21
561.399000
0
LINE
8
Calque 1
10
344.655000
20
561.399000
11
341.553162
21
561.475066
0
LINE
8
Calque 1
10
341.553162
20
561.475066
11
340.443250
21
561.729730
0
LINE
8
Calque 1
10
340.443250
20
561.729730
11
339.513050
21
563.251080
0
LINE
8
Calque 1
10
339.513050
20
563.251080
11
336.399570
21
568.675040
0
LINE
8
Calque 1
10
336.399570
20
568.675040
11
333.552200
21
573.371390
0
LINE
8
Calque 1
10
333.552200
20
573.371390
11
333.113702
21
573.698398
0
LINE
8
Calque 1
10
333.113702
20
573.698398
11
332.624670
21
573.834410
0
LINE
8
Calque 1
10
332.624670
20
573.834410
11
332.345618
21
573.795271
0
LINE
8
Calque 1
10
332.345618
20
573.795271
11
332.209297
21
573.614285
0
LINE
8
Calque 1
10
332.209297
20
573.614285
11
332.266500
21
572.445350
0
LINE
8
Calque 1
10
332.266500
20
572.445350
11
332.435650
21
568.212020
0
LINE
8
Calque 1
10
332.435650
20
568.212020
11
332.528445
21
565.765374
0
LINE
8
Calque 1
10
332.528445
20
565.765374
11
332.688955
21
565.210985
0
LINE
8
Calque 1
10
332.688955
20
565.210985
11
332.967110
21
564.838580
0
LINE
8
Calque 1
10
332.967110
20
564.838580
11
333.652459
21
564.434356
0
LINE
8
Calque 1
10
333.652459
20
564.434356
11
334.686910
21
564.309410
0
LINE
8
Calque 1
10
334.686910
20
564.309410
11
335.878000
21
564.309000
0
LINE
8
Calque 1
10
335.878000
20
564.309000
11
335.878080
21
562.787650
0
LINE
8
Calque 1
10
335.878080
20
562.787650
11
335.878160
21
561.266300
0
LINE
8
Calque 1
10
335.878160
20
561.266300
11
329.362000
21
561.267000
0
LINE
8
Calque 1
10
329.362000
20
561.267000
11
324.345066
21
561.337370
0
LINE
8
Calque 1
10
324.345066
20
561.337370
11
323.151835
21
561.430671
0
LINE
8
Calque 1
10
323.151835
20
561.430671
11
322.730650
21
561.567460
0
LINE
8
Calque 1
10
322.730650
20
561.567460
11
322.730100
21
561.567100
0
LINE
8
Calque 1
10
336.940700
20
577.699100
11
338.085281
21
578.511631
0
LINE
8
Calque 1
10
338.085281
20
578.511631
11
338.814010
21
579.577250
0
LINE
8
Calque 1
10
338.814010
20
579.577250
11
339.237230
21
580.822506
0
LINE
8
Calque 1
10
339.237230
20
580.822506
11
339.266430
21
582.289860
0
LINE
8
Calque 1
10
339.266430
20
582.289860
11
339.022029
21
583.705154
0
LINE
8
Calque 1
10
339.022029
20
583.705154
11
338.434990
21
584.780150
0
LINE
8
Calque 1
10
338.434990
20
584.780150
11
337.643699
21
585.547372
0
LINE
8
Calque 1
10
337.643699
20
585.547372
11
336.730210
21
586.014670
0
LINE
8
Calque 1
10
336.730210
20
586.014670
11
335.548657
21
586.195567
0
LINE
8
Calque 1
10
335.548657
20
586.195567
11
334.091420
21
586.221650
0
LINE
8
Calque 1
10
334.091420
20
586.221650
11
332.437870
21
586.137450
0
LINE
8
Calque 1
10
332.437870
20
586.137450
11
332.285520
21
581.596640
0
LINE
8
Calque 1
10
332.285520
20
581.596640
11
332.228270
21
577.714628
0
LINE
8
Calque 1
10
332.228270
20
577.714628
11
332.354134
21
577.106155
0
LINE
8
Calque 1
10
332.354134
20
577.106155
11
332.616160
21
576.916510
0
LINE
8
Calque 1
10
332.616160
20
576.916510
11
334.365420
21
576.881910
0
LINE
8
Calque 1
10
334.365420
20
576.881910
11
335.644229
21
577.164858
0
LINE
8
Calque 1
10
335.644229
20
577.164858
11
336.940700
21
577.699070
0
LINE
8
Calque 1
10
336.940700
20
577.699070
11
336.940700
21
577.699100
0
LINE
8
Calque 1
10
386.467500
20
562.711000
11
386.639071
21
563.937866
0
LINE
8
Calque 1
10
386.639071
20
563.937866
11
386.842351
21
564.179785
0
LINE
8
Calque 1
10
386.842351
20
564.179785
11
387.182620
21
564.304790
0
LINE
8
Calque 1
10
387.182620
20
564.304790
11
387.774965
21
564.602787
0
LINE
8
Calque 1
10
387.774965
20
564.602787
11
388.303740
21
565.109390
0
LINE
8
Calque 1
10
388.303740
20
565.109390
11
389.311305
21
567.320830
0
LINE
8
Calque 1
10
389.311305
20
567.320830
11
391.054770
21
571.717680
0
LINE
8
Calque 1
10
391.054770
20
571.717680
11
393.548860
21
578.199970
0
LINE
8
Calque 1
10
393.548860
20
578.199970
11
395.584180
21
584.084750
0
LINE
8
Calque 1
10
395.584180
20
584.084750
11
397.392940
21
589.440340
0
LINE
8
Calque 1
10
397.392940
20
589.440340
11
399.807260
21
589.443340
0
LINE
8
Calque 1
10
399.807260
20
589.443340
11
402.221580
21
589.446340
0
LINE
8
Calque 1
10
402.221580
20
589.446340
11
402.373340
21
588.687570
0
LINE
8
Calque 1
10
402.373340
20
588.687570
11
405.425320
21
579.757880
0
LINE
8
Calque 1
10
405.425320
20
579.757880
11
409.271210
21
568.972780
0
LINE
8
Calque 1
10
409.271210
20
568.972780
11
410.684060
21
565.561110
0
LINE
8
Calque 1
10
410.684060
20
565.561110
11
411.548140
21
564.556410
0
LINE
8
Calque 1
10
411.548140
20
564.556410
11
412.421970
21
564.200700
0
LINE
8
Calque 1
10
412.421970
20
564.200700
11
412.658731
21
564.071648
0
LINE
8
Calque 1
10
412.658731
20
564.071648
11
412.792204
21
563.824106
0
LINE
8
Calque 1
10
412.792204
20
563.824106
11
412.818840
21
562.712790
0
LINE
8
Calque 1
10
412.818840
20
562.712790
11
412.738740
21
561.373310
0
LINE
8
Calque 1
10
412.738740
20
561.373310
11
407.116240
21
561.320810
0
LINE
8
Calque 1
10
407.116240
20
561.320810
11
401.493730
21
561.268310
0
LINE
8
Calque 1
10
401.493730
20
561.268310
11
401.493840
21
562.789660
0
LINE
8
Calque 1
10
401.493840
20
562.789660
11
401.493950
21
564.311020
0
LINE
8
Calque 1
10
401.493950
20
564.311020
11
402.388000
21
564.311000
0
LINE
8
Calque 1
10
402.388000
20
564.311000
11
403.103110
21
564.412175
0
LINE
8
Calque 1
10
403.103110
20
564.412175
11
403.567510
21
564.655430
0
LINE
8
Calque 1
10
403.567510
20
564.655430
11
403.660473
21
564.941350
0
LINE
8
Calque 1
10
403.660473
20
564.941350
11
403.618320
21
565.454118
0
LINE
8
Calque 1
10
403.618320
20
565.454118
11
403.092320
21
567.367410
0
LINE
8
Calque 1
10
403.092320
20
567.367410
11
402.331270
21
569.734960
0
LINE
8
Calque 1
10
402.331270
20
569.734960
11
398.366840
21
569.807860
0
LINE
8
Calque 1
10
398.366840
20
569.807860
11
394.402410
21
569.880760
0
LINE
8
Calque 1
10
394.402410
20
569.880760
11
393.586800
21
567.448870
0
LINE
8
Calque 1
10
393.586800
20
567.448870
11
393.021519
21
565.495370
0
LINE
8
Calque 1
10
393.021519
20
565.495370
11
392.966403
21
564.967545
0
LINE
8
Calque 1
10
392.966403
20
564.967545
11
393.051430
21
564.679290
0
LINE
8
Calque 1
10
393.051430
20
564.679290
11
393.496165
21
564.416873
0
LINE
8
Calque 1
10
393.496165
20
564.416873
11
394.171870
21
564.260160
0
LINE
8
Calque 1
10
394.171870
20
564.260160
11
394.652540
21
564.188779
0
LINE
8
Calque 1
10
394.652540
20
564.188779
11
394.902537
21
564.006151
0
LINE
8
Calque 1
10
394.902537
20
564.006151
11
395.012070
21
562.773550
0
LINE
8
Calque 1
10
395.012070
20
562.773550
11
395.012000
21
561.368000
0
LINE
8
Calque 1
10
395.012000
20
561.368000
11
390.701150
21
561.318000
0
LINE
8
Calque 1
10
390.701150
20
561.318000
11
386.390300
21
561.268000
0
LINE
8
Calque 1
10
386.390300
20
561.268000
11
386.467800
21
562.712360
0
LINE
8
Calque 1
10
386.467800
20
562.712360
11
386.467500
21
562.711000
0
LINE
8
Calque 1
10
400.964800
20
573.411900
11
399.666900
21
577.446800
0
LINE
8
Calque 1
10
399.666900
20
577.446800
11
398.701696
21
579.930898
0
LINE
8
Calque 1
10
398.701696
20
579.930898
11
398.377041
21
580.584495
0
LINE
8
Calque 1
10
398.377041
20
580.584495
11
398.216410
21
580.713530
0
LINE
8
Calque 1
10
398.216410
20
580.713530
11
396.868470
21
576.925940
0
LINE
8
Calque 1
10
396.868470
20
576.925940
11
395.673130
21
573.287920
0
LINE
8
Calque 1
10
395.673130
20
573.287920
11
396.446975
21
573.112939
0
LINE
8
Calque 1
10
396.446975
20
573.112939
11
398.318970
21
573.040610
0
LINE
8
Calque 1
10
398.318970
20
573.040610
11
400.427285
21
573.116046
0
LINE
8
Calque 1
10
400.427285
20
573.116046
11
400.845914
21
573.229901
0
LINE
8
Calque 1
10
400.845914
20
573.229901
11
400.964800
21
573.411900
0
LINE
8
Calque 1
10
400.964800
20
573.411900
11
400.964800
21
573.411900
0
LINE
8
Calque 1
10
417.186300
20
561.567100
11
417.153900
21
563.019160
0
LINE
8
Calque 1
10
417.153900
20
563.019160
11
417.221447
21
563.670799
0
LINE
8
Calque 1
10
417.221447
20
563.670799
11
417.365182
21
564.033805
0
LINE
8
Calque 1
10
417.365182
20
564.033805
11
417.676524
21
564.218101
0
LINE
8
Calque 1
10
417.676524
20
564.218101
11
418.246890
21
564.333610
0
LINE
8
Calque 1
10
418.246890
20
564.333610
11
419.082146
21
564.570477
0
LINE
8
Calque 1
10
419.082146
20
564.570477
11
419.671800
21
564.911220
0
LINE
8
Calque 1
10
419.671800
20
564.911220
11
419.891854
21
565.390588
0
LINE
8
Calque 1
10
419.891854
20
565.390588
11
420.076960
21
566.491632
0
LINE
8
Calque 1
10
420.076960
20
566.491632
11
420.453890
21
571.498390
0
LINE
8
Calque 1
10
420.453890
20
571.498390
11
420.881060
21
581.904190
0
LINE
8
Calque 1
10
420.881060
20
581.904190
11
420.940860
21
586.137520
0
LINE
8
Calque 1
10
420.940860
20
586.137520
11
419.485650
21
586.415170
0
LINE
8
Calque 1
10
419.485650
20
586.415170
11
418.030440
21
586.692850
0
LINE
8
Calque 1
10
418.030440
20
586.692850
11
417.950440
21
588.068820
0
LINE
8
Calque 1
10
417.950440
20
588.068820
11
417.870440
21
589.444810
0
LINE
8
Calque 1
10
417.870440
20
589.444810
11
423.116000
21
589.445000
0
LINE
8
Calque 1
10
423.116000
20
589.445000
11
428.361000
21
589.445000
0
LINE
8
Calque 1
10
428.361000
20
589.445000
11
429.390110
21
585.939270
0
LINE
8
Calque 1
10
429.390110
20
585.939270
11
432.369850
21
576.414270
0
LINE
8
Calque 1
10
432.369850
20
576.414270
11
433.816137
21
572.163160
0
LINE
8
Calque 1
10
433.816137
20
572.163160
11
434.554170
21
570.395000
0
LINE
8
Calque 1
10
434.554170
20
570.395000
11
435.645326
21
573.173536
0
LINE
8
Calque 1
10
435.645326
20
573.173536
11
437.940600
21
579.853850
0
LINE
8
Calque 1
10
437.940600
20
579.853850
11
441.093350
21
589.312710
0
LINE
8
Calque 1
10
441.093350
20
589.312710
11
446.311040
21
589.384510
0
LINE
8
Calque 1
10
446.311040
20
589.384510
11
451.528740
21
589.456310
0
LINE
8
Calque 1
10
451.528740
20
589.456310
11
451.448540
21
588.061610
0
LINE
8
Calque 1
10
451.448540
20
588.061610
11
451.368340
21
586.666920
0
LINE
8
Calque 1
10
451.368340
20
586.666920
11
449.964210
21
586.525870
0
LINE
8
Calque 1
10
449.964210
20
586.525870
11
448.886959
21
586.314629
0
LINE
8
Calque 1
10
448.886959
20
586.314629
11
448.306950
21
585.996700
0
LINE
8
Calque 1
10
448.306950
20
585.996700
11
448.166931
21
584.959804
0
LINE
8
Calque 1
10
448.166931
20
584.959804
11
448.194320
21
582.962750
0
LINE
8
Calque 1
10
448.194320
20
582.962750
11
448.598700
21
575.289830
0
LINE
8
Calque 1
10
448.598700
20
575.289830
11
449.030250
21
567.812200
0
LINE
8
Calque 1
10
449.030250
20
567.812200
11
449.242540
21
565.953146
0
LINE
8
Calque 1
10
449.242540
20
565.953146
11
449.517500
21
564.924650
0
LINE
8
Calque 1
10
449.517500
20
564.924650
11
450.084688
21
564.570411
0
LINE
8
Calque 1
10
450.084688
20
564.570411
11
450.999590
21
564.332460
0
LINE
8
Calque 1
10
450.999590
20
564.332460
11
452.162090
21
564.177330
0
LINE
8
Calque 1
10
452.162090
20
564.177330
11
452.239590
21
562.722120
0
LINE
8
Calque 1
10
452.239590
20
562.722120
11
452.317090
21
561.266920
0
LINE
8
Calque 1
10
452.317090
20
561.266920
11
446.088000
21
561.267000
0
LINE
8
Calque 1
10
446.088000
20
561.267000
11
439.859000
21
561.267000
0
LINE
8
Calque 1
10
439.859000
20
561.267000
11
439.858890
21
562.773850
0
LINE
8
Calque 1
10
439.858890
20
562.773850
11
439.858780
21
564.280710
0
LINE
8
Calque 1
10
439.858780
20
564.280710
11
441.113460
21
564.361310
0
LINE
8
Calque 1
10
441.113460
20
564.361310
11
442.197036
21
564.555311
0
LINE
8
Calque 1
10
442.197036
20
564.555311
11
442.482075
21
564.778070
0
LINE
8
Calque 1
10
442.482075
20
564.778070
11
442.698740
21
565.134820
0
LINE
8
Calque 1
10
442.698740
20
565.134820
11
442.847722
21
565.795256
0
LINE
8
Calque 1
10
442.847722
20
565.795256
11
442.904044
21
567.135987
0
LINE
8
Calque 1
10
442.904044
20
567.135987
11
442.745140
21
572.940030
0
LINE
8
Calque 1
10
442.745140
20
572.940030
11
442.330710
21
580.449250
0
LINE
8
Calque 1
10
442.330710
20
580.449250
11
442.147529
21
580.549734
0
LINE
8
Calque 1
10
442.147529
20
580.549734
11
441.852860
21
580.025940
0
LINE
8
Calque 1
10
441.852860
20
580.025940
11
439.213850
21
571.956150
0
LINE
8
Calque 1
10
439.213850
20
571.956150
11
436.763170
21
564.309660
0
LINE
8
Calque 1
10
436.763170
20
564.309660
11
436.537260
21
563.597860
0
LINE
8
Calque 1
10
436.537260
20
563.597860
11
436.159830
21
562.341080
0
LINE
8
Calque 1
10
436.159830
20
562.341080
11
435.849000
21
561.399250
0
LINE
8
Calque 1
10
435.849000
20
561.399250
11
433.365000
21
561.399000
0
LINE
8
Calque 1
10
433.365000
20
561.399000
11
430.881000
21
561.399000
0
LINE
8
Calque 1
10
430.881000
20
561.399000
11
429.929880
21
564.445780
0
LINE
8
Calque 1
10
429.929880
20
564.445780
11
428.872890
21
567.951510
0
LINE
8
Calque 1
10
428.872890
20
567.951510
11
426.882190
21
574.363580
0
LINE
8
Calque 1
10
426.882190
20
574.363580
11
424.796420
21
580.526730
0
LINE
8
Calque 1
10
424.796420
20
580.526730
11
424.602352
21
579.644797
0
LINE
8
Calque 1
10
424.602352
20
579.644797
11
424.417960
21
577.229520
0
LINE
8
Calque 1
10
424.417960
20
577.229520
11
424.093520
21
569.478870
0
LINE
8
Calque 1
10
424.093520
20
569.478870
11
424.059107
21
566.382961
0
LINE
8
Calque 1
10
424.059107
20
566.382961
11
424.182720
21
564.898960
0
LINE
8
Calque 1
10
424.182720
20
564.898960
11
424.693611
21
564.602544
0
LINE
8
Calque 1
10
424.693611
20
564.602544
11
425.590310
21
564.362460
0
LINE
8
Calque 1
10
425.590310
20
564.362460
11
426.761740
21
564.162460
0
LINE
8
Calque 1
10
426.761740
20
564.162460
11
426.762000
21
562.762000
0
LINE
8
Calque 1
10
426.762000
20
562.762000
11
426.762000
21
561.361000
0
LINE
8
Calque 1
10
426.762000
20
561.361000
11
422.031930
21
561.313900
0
LINE
8
Calque 1
10
422.031930
20
561.313900
11
418.392802
21
561.348943
0
LINE
8
Calque 1
10
418.392802
20
561.348943
11
417.186600
21
561.567240
0
LINE
8
Calque 1
10
417.186600
20
561.567240
11
417.186300
21
561.567100
0
LINE
8
Calque 1
10
456.874000
20
561.567100
11
456.841400
21
562.997330
0
LINE
8
Calque 1
10
456.841400
20
562.997330
11
457.025820
21
563.944466
0
LINE
8
Calque 1
10
457.025820
20
563.944466
11
457.238038
21
564.130859
0
LINE
8
Calque 1
10
457.238038
20
564.130859
11
457.585690
21
564.216580
0
LINE
8
Calque 1
10
457.585690
20
564.216580
11
458.832610
21
564.442590
0
LINE
8
Calque 1
10
458.832610
20
564.442590
11
459.341074
21
564.784498
0
LINE
8
Calque 1
10
459.341074
20
564.784498
11
459.683780
21
565.568680
0
LINE
8
Calque 1
10
459.683780
20
565.568680
11
459.996705
21
568.638105
0
LINE
8
Calque 1
10
459.996705
20
568.638105
11
460.375930
21
574.628090
0
LINE
8
Calque 1
10
460.375930
20
574.628090
11
460.715390
21
584.417680
0
LINE
8
Calque 1
10
460.715390
20
584.417680
11
460.628390
21
586.137470
0
LINE
8
Calque 1
10
460.628390
20
586.137470
11
459.173180
21
586.415120
0
LINE
8
Calque 1
10
459.173180
20
586.415120
11
457.717970
21
586.692800
0
LINE
8
Calque 1
10
457.717970
20
586.692800
11
457.637970
21
588.068770
0
LINE
8
Calque 1
10
457.637970
20
588.068770
11
457.557970
21
589.444760
0
LINE
8
Calque 1
10
457.557970
20
589.444760
11
462.823000
21
589.445000
0
LINE
8
Calque 1
10
462.823000
20
589.445000
11
468.088000
21
589.445000
0
LINE
8
Calque 1
10
468.088000
20
589.445000
11
469.213660
21
585.674690
0
LINE
8
Calque 1
10
469.213660
20
585.674690
11
472.191530
21
576.215830
0
LINE
8
Calque 1
10
472.191530
20
576.215830
11
474.241780
21
570.315550
0
LINE
8
Calque 1
10
474.241780
20
570.315550
11
475.334163
21
573.006734
0
LINE
8
Calque 1
10
475.334163
20
573.006734
11
477.682390
21
579.774400
0
LINE
8
Calque 1
10
477.682390
20
579.774400
11
480.924930
21
589.445000
0
LINE
8
Calque 1
10
480.924930
20
589.445000
11
486.071000
21
589.445000
0
LINE
8
Calque 1
10
486.071000
20
589.445000
11
491.216000
21
589.445000
0
LINE
8
Calque 1
10
491.216000
20
589.445000
11
491.136000
21
588.055940
0
LINE
8
Calque 1
10
491.136000
20
588.055940
11
491.056000
21
586.666880
0
LINE
8
Calque 1
10
491.056000
20
586.666880
11
489.865380
21
586.527730
0
LINE
8
Calque 1
10
489.865380
20
586.527730
11
488.344020
21
586.181370
0
LINE
8
Calque 1
10
488.344020
20
586.181370
11
488.091668
21
585.333714
0
LINE
8
Calque 1
10
488.091668
20
585.333714
11
488.013300
21
583.064260
0
LINE
8
Calque 1
10
488.013300
20
583.064260
11
488.420120
21
573.577440
0
LINE
8
Calque 1
10
488.420120
20
573.577440
11
489.021730
21
565.853510
0
LINE
8
Calque 1
10
489.021730
20
565.853510
11
489.155063
21
565.216106
0
LINE
8
Calque 1
10
489.155063
20
565.216106
11
489.344570
21
564.843465
0
LINE
8
Calque 1
10
489.344570
20
564.843465
11
489.684369
21
564.631662
0
LINE
8
Calque 1
10
489.684369
20
564.631662
11
490.268580
21
564.476770
0
LINE
8
Calque 1
10
490.268580
20
564.476770
11
491.651320
21
564.154350
0
LINE
8
Calque 1
10
491.651320
20
564.154350
11
491.895871
21
563.721585
0
LINE
8
Calque 1
10
491.895871
20
563.721585
11
491.982150
21
562.664250
0
LINE
8
Calque 1
10
491.982150
20
562.664250
11
491.982230
21
561.266880
0
LINE
8
Calque 1
10
491.982230
20
561.266880
11
485.830590
21
561.321580
0
LINE
8
Calque 1
10
485.830590
20
561.321580
11
479.678920
21
561.376280
0
LINE
8
Calque 1
10
479.678920
20
561.376280
11
479.679000
21
562.777000
0
LINE
8
Calque 1
10
479.679000
20
562.777000
11
479.679000
21
564.177000
0
LINE
8
Calque 1
10
479.679000
20
564.177000
11
480.924650
21
564.320220
0
LINE
8
Calque 1
10
480.924650
20
564.320220
11
482.379860
21
564.672990
0
LINE
8
Calque 1
10
482.379860
20
564.672990
11
482.527863
21
565.650035
0
LINE
8
Calque 1
10
482.527863
20
565.650035
11
482.589420
21
567.704770
0
LINE
8
Calque 1
10
482.589420
20
567.704770
11
482.361210
21
575.775670
0
LINE
8
Calque 1
10
482.361210
20
575.775670
11
482.136965
21
579.417451
0
LINE
8
Calque 1
10
482.136965
20
579.417451
11
481.918300
21
580.802760
0
LINE
8
Calque 1
10
481.918300
20
580.802760
11
479.026470
21
572.114500
0
LINE
8
Calque 1
10
479.026470
20
572.114500
11
475.941770
21
562.523360
0
LINE
8
Calque 1
10
475.941770
20
562.523360
11
475.534190
21
561.398880
0
LINE
8
Calque 1
10
475.534190
20
561.398880
11
473.084000
21
561.399000
0
LINE
8
Calque 1
10
473.084000
20
561.399000
11
470.635000
21
561.399000
0
LINE
8
Calque 1
10
470.635000
20
561.399000
11
468.855240
21
567.153680
0
LINE
8
Calque 1
10
468.855240
20
567.153680
11
465.875270
21
576.704190
0
LINE
8
Calque 1
10
465.875270
20
576.704190
11
464.967671
21
579.319203
0
LINE
8
Calque 1
10
464.967671
20
579.319203
11
464.470990
21
580.276070
0
LINE
8
Calque 1
10
464.470990
20
580.276070
11
464.233616
21
578.005734
0
LINE
8
Calque 1
10
464.233616
20
578.005734
11
463.949480
21
572.861750
0
LINE
8
Calque 1
10
463.949480
20
572.861750
11
463.769690
21
567.172442
0
LINE
8
Calque 1
10
463.769690
20
567.172442
11
463.923980
21
565.125810
0
LINE
8
Calque 1
10
463.923980
20
565.125810
11
464.302819
21
564.703750
0
LINE
8
Calque 1
10
464.302819
20
564.703750
11
464.803630
21
564.455120
0
LINE
8
Calque 1
10
464.803630
20
564.455120
11
465.920470
21
564.249940
0
LINE
8
Calque 1
10
465.920470
20
564.249940
11
466.194220
21
564.157958
0
LINE
8
Calque 1
10
466.194220
20
564.157958
11
466.354893
21
563.931936
0
LINE
8
Calque 1
10
466.354893
20
563.931936
11
466.449640
21
562.760830
0
LINE
8
Calque 1
10
466.449640
20
562.760830
11
466.450000
21
561.352000
0
LINE
8
Calque 1
10
466.450000
20
561.352000
11
461.720140
21
561.309400
0
LINE
8
Calque 1
10
461.720140
20
561.309400
11
458.082549
21
561.348052
0
LINE
8
Calque 1
10
458.082549
20
561.348052
11
456.874800
21
561.567320
0
LINE
8
Calque 1
10
456.874800
20
561.567320
11
456.874000
21
561.567100
0
LINE
8
Calque 1
10
525.136200
20
561.567100
11
525.103800
21
563.022300
0
LINE
8
Calque 1
10
525.103800
20
563.022300
11
525.186600
21
564.177050
0
LINE
8
Calque 1
10
525.186600
20
564.177050
11
526.590720
21
564.318100
0
LINE
8
Calque 1
10
526.590720
20
564.318100
11
527.644194
21
564.517709
0
LINE
8
Calque 1
10
527.644194
20
564.517709
11
528.205210
21
564.799510
0
LINE
8
Calque 1
10
528.205210
20
564.799510
11
528.597640
21
569.220990
0
LINE
8
Calque 1
10
528.597640
20
569.220990
11
528.672085
21
573.925509
0
LINE
8
Calque 1
10
528.672085
20
573.925509
11
528.594640
21
579.505390
0
LINE
8
Calque 1
10
528.594640
20
579.505390
11
528.222480
21
586.013790
0
LINE
8
Calque 1
10
528.222480
20
586.013790
11
527.670881
21
586.280369
0
LINE
8
Calque 1
10
527.670881
20
586.280369
11
526.609500
21
586.492790
0
LINE
8
Calque 1
10
526.609500
20
586.492790
11
525.185120
21
586.666630
0
LINE
8
Calque 1
10
525.185120
20
586.666630
11
525.105120
21
588.055690
0
LINE
8
Calque 1
10
525.105120
20
588.055690
11
525.025120
21
589.444750
0
LINE
8
Calque 1
10
525.025120
20
589.444750
11
531.455080
21
589.510850
0
LINE
8
Calque 1
10
531.455080
20
589.510850
11
540.134020
21
589.549250
0
LINE
8
Calque 1
10
540.134020
20
589.549250
11
542.049402
21
589.438527
0
LINE
8
Calque 1
10
542.049402
20
589.438527
11
543.496350
21
589.211330
0
LINE
8
Calque 1
10
543.496350
20
589.211330
11
544.611981
21
588.741089
0
LINE
8
Calque 1
10
544.611981
20
588.741089
11
545.730830
21
588.046020
0
LINE
8
Calque 1
10
545.730830
20
588.046020
11
546.711401
21
587.075309
0
LINE
8
Calque 1
10
546.711401
20
587.075309
11
547.494550
21
585.942290
0
LINE
8
Calque 1
10
547.494550
20
585.942290
11
548.011101
21
584.530081
0
LINE
8
Calque 1
10
548.011101
20
584.530081
11
548.157640
21
582.637430
0
LINE
8
Calque 1
10
548.157640
20
582.637430
11
548.068507
21
580.880874
0
LINE
8
Calque 1
10
548.068507
20
580.880874
11
547.825250
21
579.545120
0
LINE
8
Calque 1
10
547.825250
20
579.545120
11
547.255972
21
578.464570
0
LINE
8
Calque 1
10
547.255972
20
578.464570
11
546.382870
21
577.321560
0
LINE
8
Calque 1
10
546.382870
20
577.321560
11
545.206507
21
576.299411
0
LINE
8
Calque 1
10
545.206507
20
576.299411
11
543.904340
21
575.516700
0
LINE
8
Calque 1
10
543.904340
20
575.516700
11
542.515270
21
574.732060
0
LINE
8
Calque 1
10
542.515270
20
574.732060
11
545.076550
21
570.429240
0
LINE
8
Calque 1
10
545.076550
20
570.429240
11
547.173180
21
567.217060
0
LINE
8
Calque 1
10
547.173180
20
567.217060
11
548.617310
21
565.301510
0
LINE
8
Calque 1
10
548.617310
20
565.301510
11
549.523199
21
564.563769
0
LINE
8
Calque 1
10
549.523199
20
564.563769
11
550.289370
21
564.309320
0
LINE
8
Calque 1
10
550.289370
20
564.309320
11
550.677325
21
564.277878
0
LINE
8
Calque 1
10
550.677325
20
564.277878
11
550.884314
21
564.104207
0
LINE
8
Calque 1
10
550.884314
20
564.104207
11
550.981940
21
562.854120
0
LINE
8
Calque 1
10
550.981940
20
562.854120
11
550.982000
21
561.399000
0
LINE
8
Calque 1
10
550.982000
20
561.399000
11
546.947100
21
561.403000
0
LINE
8
Calque 1
10
546.947100
20
561.403000
11
542.912210
21
561.407000
0
LINE
8
Calque 1
10
542.912210
20
561.407000
11
539.627510
21
567.157330
0
LINE
8
Calque 1
10
539.627510
20
567.157330
11
535.948480
21
573.370690
0
LINE
8
Calque 1
10
535.948480
20
573.370690
11
535.519031
21
573.697706
0
LINE
8
Calque 1
10
535.519031
20
573.697706
11
535.040270
21
573.833720
0
LINE
8
Calque 1
10
535.040270
20
573.833720
11
534.754870
21
573.744700
0
LINE
8
Calque 1
10
534.754870
20
573.744700
11
534.623331
21
573.238044
0
LINE
8
Calque 1
10
534.623331
20
573.238044
11
534.712110
21
569.534240
0
LINE
8
Calque 1
10
534.712110
20
569.534240
11
534.939392
21
566.137010
0
LINE
8
Calque 1
10
534.939392
20
566.137010
11
535.263950
21
564.850370
0
LINE
8
Calque 1
10
535.263950
20
564.850370
11
535.892585
21
564.536375
0
LINE
8
Calque 1
10
535.892585
20
564.536375
11
536.889890
21
564.321200
0
LINE
8
Calque 1
10
536.889890
20
564.321200
11
538.149710
21
564.176420
0
LINE
8
Calque 1
10
538.149710
20
564.176420
11
538.150000
21
562.781000
0
LINE
8
Calque 1
10
538.150000
20
562.781000
11
538.150000
21
561.387000
0
LINE
8
Calque 1
10
538.150000
20
561.387000
11
531.700040
21
561.326800
0
LINE
8
Calque 1
10
531.700040
20
561.326800
11
526.716290
21
561.350077
0
LINE
8
Calque 1
10
526.716290
20
561.350077
11
525.545975
21
561.432671
0
LINE
8
Calque 1
10
525.545975
20
561.432671
11
525.134930
21
561.567020
0
LINE
8
Calque 1
10
525.134930
20
561.567020
11
525.136200
21
561.567100
0
LINE
8
Calque 1
10
539.044700
20
577.497100
11
539.925165
21
578.100961
0
LINE
8
Calque 1
10
539.925165
20
578.100961
11
540.761710
21
578.937390
0
LINE
8
Calque 1
10
540.761710
20
578.937390
11
541.431144
21
580.061109
0
LINE
8
Calque 1
10
541.431144
20
580.061109
11
541.655790
21
581.583220
0
LINE
8
Calque 1
10
541.655790
20
581.583220
11
541.608750
21
583.113210
0
LINE
8
Calque 1
10
541.608750
20
583.113210
11
541.134570
21
584.285360
0
LINE
8
Calque 1
10
541.134570
20
584.285360
11
540.433080
21
585.170705
0
LINE
8
Calque 1
10
540.433080
20
585.170705
11
539.602470
21
585.811820
0
LINE
8
Calque 1
10
539.602470
20
585.811820
11
538.453734
21
586.160679
0
LINE
8
Calque 1
10
538.453734
20
586.160679
11
536.732980
21
586.208690
0
LINE
8
Calque 1
10
536.732980
20
586.208690
11
534.785540
21
586.137390
0
LINE
8
Calque 1
10
534.785540
20
586.137390
11
534.665160
21
581.593990
0
LINE
8
Calque 1
10
534.665160
20
581.593990
11
534.544800
21
577.050590
0
LINE
8
Calque 1
10
534.544800
20
577.050590
11
535.157390
21
576.924040
0
LINE
8
Calque 1
10
535.157390
20
576.924040
11
536.951500
21
576.928040
0
LINE
8
Calque 1
10
536.951500
20
576.928040
11
538.053742
21
577.149071
0
LINE
8
Calque 1
10
538.053742
20
577.149071
11
539.044700
21
577.496950
0
LINE
8
Calque 1
10
539.044700
20
577.496950
11
539.044700
21
577.497100
0
LINE
8
Calque 1
10
353.339700
20
562.687700
11
353.340000
21
563.977000
0
LINE
8
Calque 1
10
353.340000
20
563.977000
11
354.653410
21
564.151230
0
LINE
8
Calque 1
10
354.653410
20
564.151230
11
355.752072
21
564.421585
0
LINE
8
Calque 1
10
355.752072
20
564.421585
11
356.373210
21
564.905660
0
LINE
8
Calque 1
10
356.373210
20
564.905660
11
356.583598
21
565.566717
0
LINE
8
Calque 1
10
356.583598
20
565.566717
11
356.706966
21
567.184530
0
LINE
8
Calque 1
10
356.706966
20
567.184530
11
356.779580
21
575.572360
0
LINE
8
Calque 1
10
356.779580
20
575.572360
11
356.707399
21
584.219364
0
LINE
8
Calque 1
10
356.707399
20
584.219364
11
356.562293
21
585.606461
0
LINE
8
Calque 1
10
356.562293
20
585.606461
11
356.295730
21
586.096860
0
LINE
8
Calque 1
10
356.295730
20
586.096860
11
355.765822
21
586.407180
0
LINE
8
Calque 1
10
355.765822
20
586.407180
11
355.171250
21
586.538370
0
LINE
8
Calque 1
10
355.171250
20
586.538370
11
353.935310
21
586.701510
0
LINE
8
Calque 1
10
353.935310
20
586.701510
11
353.625318
21
586.829490
0
LINE
8
Calque 1
10
353.625318
20
586.829490
11
353.444789
21
587.060389
0
LINE
8
Calque 1
10
353.444789
20
587.060389
11
353.340000
21
588.153090
0
LINE
8
Calque 1
10
353.340000
20
588.153090
11
353.340000
21
589.445000
0
LINE
8
Calque 1
10
353.340000
20
589.445000
11
359.823000
21
589.445000
0
LINE
8
Calque 1
10
359.823000
20
589.445000
11
366.305000
21
589.445000
0
LINE
8
Calque 1
10
366.305000
20
589.445000
11
366.305000
21
588.134000
0
LINE
8
Calque 1
10
366.305000
20
588.134000
11
366.305000
21
586.823000
0
LINE
8
Calque 1
10
366.305000
20
586.823000
11
365.312820
21
586.664490
0
LINE
8
Calque 1
10
365.312820
20
586.664490
11
363.923750
21
586.295820
0
LINE
8
Calque 1
10
363.923750
20
586.295820
11
363.200050
21
585.450130
0
LINE
8
Calque 1
10
363.200050
20
585.450130
11
362.956077
21
584.042661
0
LINE
8
Calque 1
10
362.956077
20
584.042661
11
362.869320
21
581.170390
0
LINE
8
Calque 1
10
362.869320
20
581.170390
11
362.865320
21
577.526120
0
LINE
8
Calque 1
10
362.865320
20
577.526120
11
367.429380
21
577.598520
0
LINE
8
Calque 1
10
367.429380
20
577.598520
11
371.993450
21
577.670920
0
LINE
8
Calque 1
10
371.993450
20
577.670920
11
372.066850
21
581.610780
0
LINE
8
Calque 1
10
372.066850
20
581.610780
11
372.048245
21
584.938630
0
LINE
8
Calque 1
10
372.048245
20
584.938630
11
371.923592
21
585.648093
0
LINE
8
Calque 1
10
371.923592
20
585.648093
11
371.695110
21
586.042550
0
LINE
8
Calque 1
10
371.695110
20
586.042550
11
371.179026
21
586.391026
0
LINE
8
Calque 1
10
371.179026
20
586.391026
11
370.563350
21
586.538090
0
LINE
8
Calque 1
10
370.563350
20
586.538090
11
369.281440
21
586.701230
0
LINE
8
Calque 1
10
369.281440
20
586.701230
11
368.971447
21
586.829210
0
LINE
8
Calque 1
10
368.971447
20
586.829210
11
368.790914
21
587.060109
0
LINE
8
Calque 1
10
368.790914
20
587.060109
11
368.686120
21
588.152810
0
LINE
8
Calque 1
10
368.686120
20
588.152810
11
368.686000
21
589.445000
0
LINE
8
Calque 1
10
368.686000
20
589.445000
11
375.168000
21
589.445000
0
LINE
8
Calque 1
10
375.168000
20
589.445000
11
381.651000
21
589.445000
0
LINE
8
Calque 1
10
381.651000
20
589.445000
11
381.651000
21
588.153000
0
LINE
8
Calque 1
10
381.651000
20
588.153000
11
381.546211
21
587.060299
0
LINE
8
Calque 1
10
381.546211
20
587.060299
11
381.365682
21
586.829400
0
LINE
8
Calque 1
10
381.365682
20
586.829400
11
381.055690
21
586.701420
0
LINE
8
Calque 1
10
381.055690
20
586.701420
11
379.861170
21
586.538280
0
LINE
8
Calque 1
10
379.861170
20
586.538280
11
379.279464
21
586.314420
0
LINE
8
Calque 1
10
379.279464
20
586.314420
11
378.730870
21
585.674760
0
LINE
8
Calque 1
10
378.730870
20
585.674760
11
378.434079
21
584.984583
0
LINE
8
Calque 1
10
378.434079
20
584.984583
11
378.283965
21
583.564465
0
LINE
8
Calque 1
10
378.283965
20
583.564465
11
378.271730
21
574.999460
0
LINE
8
Calque 1
10
378.271730
20
574.999460
11
378.400949
21
567.161852
0
LINE
8
Calque 1
10
378.400949
20
567.161852
11
378.518469
21
565.437137
0
LINE
8
Calque 1
10
378.518469
20
565.437137
11
378.687750
21
564.769860
0
LINE
8
Calque 1
10
378.687750
20
564.769860
11
379.315423
21
564.424439
0
LINE
8
Calque 1
10
379.315423
20
564.424439
11
380.341390
21
564.175580
0
LINE
8
Calque 1
10
380.341390
20
564.175580
11
381.651000
21
563.995450
0
LINE
8
Calque 1
10
381.651000
20
563.995450
11
381.651000
21
562.697000
0
LINE
8
Calque 1
10
381.651000
20
562.697000
11
381.651000
21
561.399000
0
LINE
8
Calque 1
10
381.651000
20
561.399000
11
375.168000
21
561.399000
0
LINE
8
Calque 1
10
375.168000
20
561.399000
11
368.686000
21
561.399000
0
LINE
8
Calque 1
10
368.686000
20
561.399000
11
368.686000
21
562.697000
0
LINE
8
Calque 1
10
368.686000
20
562.697000
11
368.686000
21
563.995000
0
LINE
8
Calque 1
10
368.686000
20
563.995000
11
369.987750
21
564.174040
0
LINE
8
Calque 1
10
369.987750
20
564.174040
11
371.031970
21
564.438329
0
LINE
8
Calque 1
10
371.031970
20
564.438329
11
371.714270
21
564.822460
0
LINE
8
Calque 1
10
371.714270
20
564.822460
11
371.930003
21
565.224011
0
LINE
8
Calque 1
10
371.930003
20
565.224011
11
372.048569
21
565.995135
0
LINE
8
Calque 1
10
372.048569
20
565.995135
11
372.066180
21
569.629190
0
LINE
8
Calque 1
10
372.066180
20
569.629190
11
371.993280
21
573.966540
0
LINE
8
Calque 1
10
371.993280
20
573.966540
11
367.429210
21
574.038940
0
LINE
8
Calque 1
10
367.429210
20
574.038940
11
362.865150
21
574.111340
0
LINE
8
Calque 1
10
362.865150
20
574.111340
11
362.865000
21
569.799000
0
LINE
8
Calque 1
10
362.865000
20
569.799000
11
362.945818
21
566.254844
0
LINE
8
Calque 1
10
362.945818
20
566.254844
11
363.066800
21
565.394688
0
LINE
8
Calque 1
10
363.066800
20
565.394688
11
363.259240
21
564.923150
0
LINE
8
Calque 1
10
363.259240
20
564.923150
11
363.878692
21
564.452329
0
LINE
8
Calque 1
10
363.878692
20
564.452329
11
364.979030
21
564.178000
0
LINE
8
Calque 1
10
364.979030
20
564.178000
11
366.304580
21
563.995680
0
LINE
8
Calque 1
10
366.304580
20
563.995680
11
366.305000
21
562.697000
0
LINE
8
Calque 1
10
366.305000
20
562.697000
11
366.305000
21
561.399000
0
LINE
8
Calque 1
10
366.305000
20
561.399000
11
359.822000
21
561.399000
0
LINE
8
Calque 1
10
359.822000
20
561.399000
11
353.340000
21
561.399000
0
LINE
8
Calque 1
10
353.340000
20
561.399000
11
353.339700
21
562.687700
0
LINE
8
Calque 1
10
496.743700
20
562.676100
11
496.744000
21
563.959000
0
LINE
8
Calque 1
10
496.744000
20
563.959000
11
498.259830
21
564.200250
0
LINE
8
Calque 1
10
498.259830
20
564.200250
11
499.542204
21
564.524404
0
LINE
8
Calque 1
10
499.542204
20
564.524404
11
499.878124
21
564.764034
0
LINE
8
Calque 1
10
499.878124
20
564.764034
11
500.108020
21
565.102980
0
LINE
8
Calque 1
10
500.108020
20
565.102980
11
500.265153
21
565.921944
0
LINE
8
Calque 1
10
500.265153
20
565.921944
11
500.368389
21
567.799390
0
LINE
8
Calque 1
10
500.368389
20
567.799390
11
500.444280
21
575.711480
0
LINE
8
Calque 1
10
500.444280
20
575.711480
11
500.375864
21
584.177429
0
LINE
8
Calque 1
10
500.375864
20
584.177429
11
500.237056
21
585.574705
0
LINE
8
Calque 1
10
500.237056
20
585.574705
11
499.985150
21
586.062780
0
LINE
8
Calque 1
10
499.985150
20
586.062780
11
499.285130
21
586.387906
0
LINE
8
Calque 1
10
499.285130
20
586.387906
11
498.252290
21
586.601920
0
LINE
8
Calque 1
10
498.252290
20
586.601920
11
496.843380
21
586.875900
0
LINE
8
Calque 1
10
496.843380
20
586.875900
11
496.886480
21
588.229830
0
LINE
8
Calque 1
10
496.886480
20
588.229830
11
497.068680
21
589.444710
0
LINE
8
Calque 1
10
497.068680
20
589.444710
11
508.152000
21
589.445000
0
LINE
8
Calque 1
10
508.152000
20
589.445000
11
519.234000
21
589.445000
0
LINE
8
Calque 1
10
519.234000
20
589.445000
11
519.234000
21
585.344000
0
LINE
8
Calque 1
10
519.234000
20
585.344000
11
519.234000
21
581.243000
0
LINE
8
Calque 1
10
519.234000
20
581.243000
11
517.260000
21
581.243000
0
LINE
8
Calque 1
10
517.260000
20
581.243000
11
515.286000
21
581.243000
0
LINE
8
Calque 1
10
515.286000
20
581.243000
11
514.995510
21
582.367480
0
LINE
8
Calque 1
10
514.995510
20
582.367480
11
514.381410
21
584.682580
0
LINE
8
Calque 1
10
514.381410
20
584.682580
11
514.174584
21
585.353445
0
LINE
8
Calque 1
10
514.174584
20
585.353445
11
513.936811
21
585.730621
0
LINE
8
Calque 1
10
513.936811
20
585.730621
11
513.544923
21
585.926142
0
LINE
8
Calque 1
10
513.544923
20
585.926142
11
512.875750
21
586.052040
0
LINE
8
Calque 1
10
512.875750
20
586.052040
11
510.106220
21
586.247570
0
LINE
8
Calque 1
10
510.106220
20
586.247570
11
507.526540
21
586.100270
0
LINE
8
Calque 1
10
507.526540
20
586.100270
11
506.534350
21
585.936260
0
LINE
8
Calque 1
10
506.534350
20
585.936260
11
506.534320
21
581.936000
0
LINE
8
Calque 1
10
506.534320
20
581.936000
11
506.534300
21
577.935710
0
LINE
8
Calque 1
10
506.534300
20
577.935710
11
511.164530
21
577.984310
0
LINE
8
Calque 1
10
511.164530
20
577.984310
11
515.794760
21
578.032810
0
LINE
8
Calque 1
10
515.794760
20
578.032810
11
515.794000
21
576.072000
0
LINE
8
Calque 1
10
515.794000
20
576.072000
11
515.794000
21
574.111000
0
LINE
8
Calque 1
10
515.794000
20
574.111000
11
511.137870
21
574.038800
0
LINE
8
Calque 1
10
511.137870
20
574.038800
11
506.481730
21
573.966500
0
LINE
8
Calque 1
10
506.481730
20
573.966500
11
506.512630
21
569.733170
0
LINE
8
Calque 1
10
506.512630
20
569.733170
11
506.621902
21
566.065339
0
LINE
8
Calque 1
10
506.621902
20
566.065339
11
506.791818
21
565.397295
0
LINE
8
Calque 1
10
506.791818
20
565.397295
11
507.097010
21
565.036810
0
LINE
8
Calque 1
10
507.097010
20
565.036810
11
507.493269
21
564.804678
0
LINE
8
Calque 1
10
507.493269
20
564.804678
11
508.100349
21
564.663269
0
LINE
8
Calque 1
10
508.100349
20
564.663269
11
510.531620
21
564.573790
0
LINE
8
Calque 1
10
510.531620
20
564.573790
11
512.962099
21
564.661482
0
LINE
8
Calque 1
10
512.962099
20
564.661482
11
513.531552
21
564.804446
0
LINE
8
Calque 1
10
513.531552
20
564.804446
11
513.882070
21
565.043130
0
LINE
8
Calque 1
10
513.882070
20
565.043130
11
514.443824
21
566.052826
0
LINE
8
Calque 1
10
514.443824
20
566.052826
11
515.135320
21
567.821260
0
LINE
8
Calque 1
10
515.135320
20
567.821260
11
515.921069
21
569.808582
0
LINE
8
Calque 1
10
515.921069
20
569.808582
11
516.251333
21
570.075572
0
LINE
8
Calque 1
10
516.251333
20
570.075572
11
516.716500
21
570.114270
0
LINE
8
Calque 1
10
516.716500
20
570.114270
11
518.773080
21
569.891250
0
LINE
8
Calque 1
10
518.773080
20
569.891250
11
520.147640
21
569.568730
0
LINE
8
Calque 1
10
520.147640
20
569.568730
11
519.682080
21
565.492290
0
LINE
8
Calque 1
10
519.682080
20
565.492290
11
519.101270
21
561.531080
0
LINE
8
Calque 1
10
519.101270
20
561.531080
11
507.922570
21
561.462080
0
LINE
8
Calque 1
10
507.922570
20
561.462080
11
496.743870
21
561.393080
0
LINE
8
Calque 1
10
496.743870
20
561.393080
11
496.743700
21
562.676100
0
LINE
8
Calque 1
10
260.364000
20
795.847000
11
260.525819
21
796.107437
0
LINE
8
Calque 1
10
260.525819
20
796.107437
11
260.647273
21
796.673302
0
LINE
8
Calque 1
10
260.647273
20
796.673302
11
260.786705
21
799.861440
0
LINE
8
Calque 1
10
260.786705
20
799.861440
11
260.774980
21
822.444200
0
LINE
8
Calque 1
10
260.774980
20
822.444200
11
260.769049
21
843.144288
0
LINE
8
Calque 1
10
260.769049
20
843.144288
11
260.853625
21
847.466689
0
LINE
8
Calque 1
10
260.853625
20
847.466689
11
261.006230
21
848.875200
0
LINE
8
Calque 1
10
261.006230
20
848.875200
11
264.277164
21
849.081260
0
LINE
8
Calque 1
10
264.277164
20
849.081260
11
277.416655
21
849.201731
0
LINE
8
Calque 1
10
277.416655
20
849.201731
11
355.820130
21
849.282690
0
LINE
8
Calque 1
10
355.820130
20
849.282690
11
424.764417
21
849.355750
0
LINE
8
Calque 1
10
424.764417
20
849.355750
11
457.836130
21
849.507830
0
LINE
8
Calque 1
10
457.836130
20
849.507830
11
463.594639
21
849.592110
0
LINE
8
Calque 1
10
463.594639
20
849.592110
11
466.302800
21
849.463030
0
LINE
8
Calque 1
10
466.302800
20
849.463030
11
469.718308
21
849.295949
0
LINE
8
Calque 1
10
469.718308
20
849.295949
11
476.768600
21
849.254680
0
LINE
8
Calque 1
10
476.768600
20
849.254680
11
484.744221
21
849.378559
0
LINE
8
Calque 1
10
484.744221
20
849.378559
11
488.807100
21
849.703220
0
LINE
8
Calque 1
10
488.807100
20
849.703220
11
491.825826
21
850.013474
0
LINE
8
Calque 1
10
491.825826
20
850.013474
11
495.553970
21
850.191900
0
LINE
8
Calque 1
10
495.553970
20
850.191900
11
499.256895
21
850.366446
0
LINE
8
Calque 1
10
499.256895
20
850.366446
11
501.374800
21
850.810010
0
LINE
8
Calque 1
10
501.374800
20
850.810010
11
506.195800
21
852.547840
0
LINE
8
Calque 1
10
506.195800
20
852.547840
11
512.678090
21
854.661090
0
LINE
8
Calque 1
10
512.678090
20
854.661090
11
519.498760
21
856.563460
0
LINE
8
Calque 1
10
519.498760
20
856.563460
11
525.187300
21
858.408740
0
LINE
8
Calque 1
10
525.187300
20
858.408740
11
533.791820
21
861.897850
0
LINE
8
Calque 1
10
533.791820
20
861.897850
11
541.164410
21
864.992590
0
LINE
8
Calque 1
10
541.164410
20
864.992590
11
541.744261
21
865.392796
0
LINE
8
Calque 1
10
541.744261
20
865.392796
11
541.804010
21
865.695240
0
LINE
8
Calque 1
10
541.804010
20
865.695240
11
540.594181
21
865.805640
0
LINE
8
Calque 1
10
540.594181
20
865.805640
11
537.738710
21
865.686240
0
LINE
8
Calque 1
10
537.738710
20
865.686240
11
527.772440
21
865.104580
0
LINE
8
Calque 1
10
527.772440
20
865.104580
11
521.776240
21
864.909307
0
LINE
8
Calque 1
10
521.776240
20
864.909307
11
516.263040
21
865.140080
0
LINE
8
Calque 1
10
516.263040
20
865.140080
11
508.916329
21
865.414344
0
LINE
8
Calque 1
10
508.916329
20
865.414344
11
498.596640
21
865.555580
0
LINE
8
Calque 1
10
498.596640
20
865.555580
11
489.402382
21
865.530074
0
LINE
8
Calque 1
10
489.402382
20
865.530074
11
484.573740
21
865.395030
0
LINE
8
Calque 1
10
484.573740
20
865.395030
11
480.229440
21
864.726100
0
LINE
8
Calque 1
10
480.229440
20
864.726100
11
477.552055
21
864.404387
0
LINE
8
Calque 1
10
477.552055
20
864.404387
11
474.673190
21
864.594040
0
LINE
8
Calque 1
10
474.673190
20
864.594040
11
469.360200
21
865.151290
0
LINE
8
Calque 1
10
469.360200
20
865.151290
11
464.413830
21
865.249944
0
LINE
8
Calque 1
10
464.413830
20
865.249944
11
455.469600
21
865.138590
0
LINE
8
Calque 1
10
455.469600
20
865.138590
11
437.198300
21
864.484340
0
LINE
8
Calque 1
10
437.198300
20
864.484340
11
428.998296
21
864.191342
0
LINE
8
Calque 1
10
428.998296
20
864.191342
11
416.825400
21
864.216360
0
LINE
8
Calque 1
10
416.825400
20
864.216360
11
406.474261
21
864.390027
0
LINE
8
Calque 1
10
406.474261
20
864.390027
11
400.700800
21
864.610750
0
LINE
8
Calque 1
10
400.700800
20
864.610750
11
392.824469
21
864.884892
0
LINE
8
Calque 1
10
392.824469
20
864.884892
11
377.417500
21
865.186980
0
LINE
8
Calque 1
10
377.417500
20
865.186980
11
354.134200
21
865.477460
0
LINE
8
Calque 1
10
354.134200
20
865.477460
11
345.993990
21
865.127900
0
LINE
8
Calque 1
10
345.993990
20
865.127900
11
340.561729
21
864.942149
0
LINE
8
Calque 1
10
340.561729
20
864.942149
11
335.675190
21
865.127790
0
LINE
8
Calque 1
10
335.675190
20
865.127790
11
328.469570
21
865.473010
0
LINE
8
Calque 1
10
328.469570
20
865.473010
11
305.450770
21
865.271580
0
LINE
8
Calque 1
10
305.450770
20
865.271580
11
281.241370
21
865.047840
0
LINE
8
Calque 1
10
281.241370
20
865.047840
11
273.833040
21
865.155430
0
LINE
8
Calque 1
10
273.833040
20
865.155430
11
262.560840
21
865.026770
0
LINE
8
Calque 1
10
262.560840
20
865.026770
11
255.748320
21
864.913923
0
LINE
8
Calque 1
10
255.748320
20
864.913923
11
253.773912
21
865.024022
0
LINE
8
Calque 1
10
253.773912
20
865.024022
11
251.891340
21
865.264350
0
LINE
8
Calque 1
10
251.891340
20
865.264350
11
249.313597
21
865.558248
0
LINE
8
Calque 1
10
249.313597
20
865.558248
11
247.471350
21
865.606490
0
LINE
8
Calque 1
10
247.471350
20
865.606490
11
245.911680
21
865.238630
0
LINE
8
Calque 1
10
245.911680
20
865.238630
11
245.613205
21
864.214954
0
LINE
8
Calque 1
10
245.613205
20
864.214954
11
245.234270
21
862.092430
0
LINE
8
Calque 1
10
245.234270
20
862.092430
11
244.926891
21
858.963986
0
LINE
8
Calque 1
10
244.926891
20
858.963986
11
244.975290
21
855.218660
0
LINE
8
Calque 1
10
244.975290
20
855.218660
11
245.205260
21
834.713460
0
LINE
8
Calque 1
10
245.205260
20
834.713460
11
245.021370
21
809.313460
0
LINE
8
Calque 1
10
245.021370
20
809.313460
11
244.908920
21
802.544050
0
LINE
8
Calque 1
10
244.908920
20
802.544050
11
244.970770
21
798.715360
0
LINE
8
Calque 1
10
244.970770
20
798.715360
11
245.156780
21
796.980750
0
LINE
8
Calque 1
10
245.156780
20
796.980750
11
249.708720
21
797.093480
0
LINE
8
Calque 1
10
249.708720
20
797.093480
11
253.466361
21
797.095674
0
LINE
8
Calque 1
10
253.466361
20
797.095674
11
255.762260
21
796.894490
0
LINE
8
Calque 1
10
255.762260
20
796.894490
11
257.080141
21
796.491200
0
LINE
8
Calque 1
10
257.080141
20
796.491200
11
258.140060
21
795.959330
0
LINE
8
Calque 1
10
258.140060
20
795.959330
11
259.438290
21
795.313240
0
LINE
8
Calque 1
10
259.438290
20
795.313240
11
259.884274
21
795.460691
0
LINE
8
Calque 1
10
259.884274
20
795.460691
11
260.363910
21
795.847070
0
LINE
8
Calque 1
10
260.363910
20
795.847070
11
260.364000
21
795.847000
 0 
ENDSEC
 0 
EOF