999
"DXF R12 Output" (www.mydxf.blogspot.com)
 0 
SECTION
 2 
HEADER
 9 
$ACADVER
 1 
AC1009
 9 
$EXTMIN
 10 
 0 
 20 
 0 
 9 
$EXTMAX
 10 
 8.5 
 20 
 11 
 0 
ENDSEC
 0 
SECTION
 2 
ENTITIES
0
LINE
8
Calque 1
10
281.205000
20
112.553000
11
279.417160
21
113.074800
0
LINE
8
Calque 1
10
279.417160
20
113.074800
11
277.912319
21
113.878737
0
LINE
8
Calque 1
10
277.912319
20
113.878737
11
275.823010
21
115.637500
0
LINE
8
Calque 1
10
275.823010
20
115.637500
11
258.958010
21
131.689100
0
LINE
8
Calque 1
10
258.958010
20
131.689100
11
241.515710
21
148.357800
0
LINE
8
Calque 1
10
241.515710
20
148.357800
11
233.445630
21
156.044200
0
LINE
8
Calque 1
10
233.445630
20
156.044200
11
222.192930
21
166.759800
0
LINE
8
Calque 1
10
222.192930
20
166.759800
11
205.127330
21
183.026700
0
LINE
8
Calque 1
10
205.127330
20
183.026700
11
179.204230
21
207.632900
0
LINE
8
Calque 1
10
179.204230
20
207.632900
11
157.772930
21
227.849200
0
LINE
8
Calque 1
10
157.772930
20
227.849200
11
148.780960
21
236.306370
0
LINE
8
Calque 1
10
148.780960
20
236.306370
11
143.026280
21
241.843250
0
LINE
8
Calque 1
10
143.026280
20
241.843250
11
139.785130
21
244.992460
0
LINE
8
Calque 1
10
139.785130
20
244.992460
11
139.785000
21
247.296000
0
LINE
8
Calque 1
10
139.785000
20
247.296000
11
139.889171
21
249.346606
0
LINE
8
Calque 1
10
139.889171
20
249.346606
11
140.094222
21
249.830950
0
LINE
8
Calque 1
10
140.094222
20
249.830950
11
140.467770
21
250.241710
0
LINE
8
Calque 1
10
140.467770
20
250.241710
11
141.150550
21
250.883140
0
LINE
8
Calque 1
10
141.150550
20
250.883140
11
370.398550
21
250.949740
0
LINE
8
Calque 1
10
370.398550
20
250.949740
11
559.862425
21
250.938289
0
LINE
8
Calque 1
10
559.862425
20
250.938289
11
592.266972
21
250.832033
0
LINE
8
Calque 1
10
592.266972
20
250.832033
11
600.558550
21
250.634930
0
LINE
8
Calque 1
10
600.558550
20
250.634930
11
601.360103
21
250.108294
0
LINE
8
Calque 1
10
601.360103
20
250.108294
11
602.005370
21
249.377710
0
LINE
8
Calque 1
10
602.005370
20
249.377710
11
602.382770
21
248.476581
0
LINE
8
Calque 1
10
602.382770
20
248.476581
11
602.540330
21
247.539910
0
LINE
8
Calque 1
10
602.540330
20
247.539910
11
602.333026
21
246.470260
0
LINE
8
Calque 1
10
602.333026
20
246.470260
11
601.813700
21
245.238910
0
LINE
8
Calque 1
10
601.813700
20
245.238910
11
601.111872
21
244.278566
0
LINE
8
Calque 1
10
601.111872
20
244.278566
11
599.680430
21
242.795135
0
LINE
8
Calque 1
10
599.680430
20
242.795135
11
593.543780
21
237.205050
0
LINE
8
Calque 1
10
593.543780
20
237.205050
11
581.637580
21
226.679450
0
LINE
8
Calque 1
10
581.637580
20
226.679450
11
566.690280
21
213.455250
0
LINE
8
Calque 1
10
566.690280
20
213.455250
11
549.360080
21
197.981550
0
LINE
8
Calque 1
10
549.360080
20
197.981550
11
534.543380
21
184.619950
0
LINE
8
Calque 1
10
534.543380
20
184.619950
11
516.948580
21
168.609550
0
LINE
8
Calque 1
10
516.948580
20
168.609550
11
498.952880
21
152.068250
0
LINE
8
Calque 1
10
498.952880
20
152.068250
11
484.268480
21
138.547350
0
LINE
8
Calque 1
10
484.268480
20
138.547350
11
471.331980
21
126.641050
0
LINE
8
Calque 1
10
471.331980
20
126.641050
11
461.013180
21
117.161550
0
LINE
8
Calque 1
10
461.013180
20
117.161550
11
457.970905
21
114.550675
0
LINE
8
Calque 1
10
457.970905
20
114.550675
11
455.962070
21
113.192750
0
LINE
8
Calque 1
10
455.962070
20
113.192750
11
454.506860
21
112.506150
0
LINE
8
Calque 1
10
454.506860
20
112.506150
11
368.120460
21
112.469150
0
LINE
8
Calque 1
10
368.120460
20
112.469150
11
281.204860
21
112.552150
0
LINE
8
Calque 1
10
281.204860
20
112.552150
11
281.205000
21
112.553000
0
LINE
8
Calque 1
10
453.184000
20
119.261400
11
454.902961
21
120.510800
0
LINE
8
Calque 1
10
454.902961
20
120.510800
11
457.549620
21
122.848600
0
LINE
8
Calque 1
10
457.549620
20
122.848600
11
472.101720
21
136.309600
0
LINE
8
Calque 1
10
472.101720
20
136.309600
11
494.723620
21
157.094100
0
LINE
8
Calque 1
10
494.723620
20
157.094100
11
513.905920
21
174.689700
0
LINE
8
Calque 1
10
513.905920
20
174.689700
11
529.119420
21
188.586000
0
LINE
8
Calque 1
10
529.119420
20
188.586000
11
546.163920
21
203.921100
0
LINE
8
Calque 1
10
546.163920
20
203.921100
11
565.213920
21
220.968600
0
LINE
8
Calque 1
10
565.213920
20
220.968600
11
580.103720
21
234.165300
0
LINE
8
Calque 1
10
580.103720
20
234.165300
11
584.199589
21
237.855147
0
LINE
8
Calque 1
10
584.199589
20
237.855147
11
585.990700
21
239.778880
0
LINE
8
Calque 1
10
585.990700
20
239.778880
11
586.280987
21
240.674179
0
LINE
8
Calque 1
10
586.280987
20
240.674179
11
586.401730
21
241.610390
0
LINE
8
Calque 1
10
586.401730
20
241.610390
11
586.287271
21
242.513507
0
LINE
8
Calque 1
10
586.287271
20
242.513507
11
586.012080
21
243.329250
0
LINE
8
Calque 1
10
586.012080
20
243.329250
11
585.401976
21
244.025501
0
LINE
8
Calque 1
10
585.401976
20
244.025501
11
584.473340
21
244.639020
0
LINE
8
Calque 1
10
584.473340
20
244.639020
11
583.324260
21
245.195290
0
LINE
8
Calque 1
10
583.324260
20
245.195290
11
370.688000
21
245.195000
0
LINE
8
Calque 1
10
370.688000
20
245.195000
11
191.058375
21
245.128391
0
LINE
8
Calque 1
10
191.058375
20
245.128391
11
163.359641
21
244.999980
0
LINE
8
Calque 1
10
163.359641
20
244.999980
11
158.448369
21
244.898828
0
LINE
8
Calque 1
10
158.448369
20
244.898828
11
156.985000
21
244.768030
0
LINE
8
Calque 1
10
156.985000
20
244.768030
11
156.076917
21
244.249592
0
LINE
8
Calque 1
10
156.076917
20
244.249592
11
155.392140
21
243.602710
0
LINE
8
Calque 1
10
155.392140
20
243.602710
11
155.000569
21
242.739120
0
LINE
8
Calque 1
10
155.000569
20
242.739120
11
154.866390
21
241.635290
0
LINE
8
Calque 1
10
154.866390
20
241.635290
11
154.979582
21
240.548369
0
LINE
8
Calque 1
10
154.979582
20
240.548369
11
155.251730
21
239.661060
0
LINE
8
Calque 1
10
155.251730
20
239.661060
11
157.567448
21
237.195755
0
LINE
8
Calque 1
10
157.567448
20
237.195755
11
162.593920
21
232.314940
0
LINE
8
Calque 1
10
162.593920
20
232.314940
11
177.773320
21
217.925840
0
LINE
8
Calque 1
10
177.773320
20
217.925840
11
196.028620
21
200.612740
0
LINE
8
Calque 1
10
196.028620
20
200.612740
11
225.509120
21
172.571440
0
LINE
8
Calque 1
10
225.509120
20
172.571440
11
254.217320
21
145.195340
0
LINE
8
Calque 1
10
254.217320
20
145.195340
11
272.168320
21
127.992940
0
LINE
8
Calque 1
10
272.168320
20
127.992940
11
281.296440
21
119.399640
0
LINE
8
Calque 1
10
281.296440
20
119.399640
11
282.660040
21
118.822440
0
LINE
8
Calque 1
10
282.660040
20
118.822440
11
286.932205
21
118.669324
0
LINE
8
Calque 1
10
286.932205
20
118.669324
11
300.604270
21
118.592240
0
LINE
8
Calque 1
10
300.604270
20
118.592240
11
367.855840
21
118.641340
0
LINE
8
Calque 1
10
367.855840
20
118.641340
11
440.244003
21
118.833790
0
LINE
8
Calque 1
10
440.244003
20
118.833790
11
450.714438
21
118.993184
0
LINE
8
Calque 1
10
450.714438
20
118.993184
11
452.520486
21
119.110477
0
LINE
8
Calque 1
10
452.520486
20
119.110477
11
453.183940
21
119.261140
0
LINE
8
Calque 1
10
453.183940
20
119.261140
11
453.184000
21
119.261400
0
LINE
8
Calque 1
10
290.333000
20
124.319200
11
285.868560
21
126.013000
0
LINE
8
Calque 1
10
285.868560
20
126.013000
11
292.012330
21
146.163600
0
LINE
8
Calque 1
10
292.012330
20
146.163600
11
298.924160
21
168.181800
0
LINE
8
Calque 1
10
298.924160
20
168.181800
11
299.593410
21
170.610000
0
LINE
8
Calque 1
10
299.593410
20
170.610000
11
299.383816
21
171.102262
0
LINE
8
Calque 1
10
299.383816
20
171.102262
11
298.879900
21
171.634800
0
LINE
8
Calque 1
10
298.879900
20
171.634800
11
298.153825
21
172.024638
0
LINE
8
Calque 1
10
298.153825
20
172.024638
11
297.405970
21
172.117100
0
LINE
8
Calque 1
10
297.405970
20
172.117100
11
296.926769
21
171.944069
0
LINE
8
Calque 1
10
296.926769
20
171.944069
11
296.401808
21
171.231300
0
LINE
8
Calque 1
10
296.401808
20
171.231300
11
294.190280
21
166.349500
0
LINE
8
Calque 1
10
294.190280
20
166.349500
11
288.342560
21
152.855700
0
LINE
8
Calque 1
10
288.342560
20
152.855700
11
281.593250
21
137.245300
0
LINE
8
Calque 1
10
281.593250
20
137.245300
11
279.168853
21
131.748438
0
LINE
8
Calque 1
10
279.168853
20
131.748438
11
278.053910
21
129.493000
0
LINE
8
Calque 1
10
278.053910
20
129.493000
11
269.913780
21
137.361900
0
LINE
8
Calque 1
10
269.913780
20
137.361900
11
261.956100
21
145.178000
0
LINE
8
Calque 1
10
261.956100
20
145.178000
11
262.704180
21
146.172600
0
LINE
8
Calque 1
10
262.704180
20
146.172600
11
266.788290
21
151.268200
0
LINE
8
Calque 1
10
266.788290
20
151.268200
11
276.183520
21
162.909900
0
LINE
8
Calque 1
10
276.183520
20
162.909900
11
285.305130
21
174.154700
0
LINE
8
Calque 1
10
285.305130
20
174.154700
11
289.085670
21
178.809900
0
LINE
8
Calque 1
10
289.085670
20
178.809900
11
289.803830
21
179.945700
0
LINE
8
Calque 1
10
289.803830
20
179.945700
11
288.577000
21
181.442100
0
LINE
8
Calque 1
10
288.577000
20
181.442100
11
287.614143
21
182.368388
0
LINE
8
Calque 1
10
287.614143
20
182.368388
11
287.021980
21
182.753700
0
LINE
8
Calque 1
10
287.021980
20
182.753700
11
284.823062
21
180.674625
0
LINE
8
Calque 1
10
284.823062
20
180.674625
11
279.997150
21
175.676100
0
LINE
8
Calque 1
10
279.997150
20
175.676100
11
265.968650
21
160.925500
0
LINE
8
Calque 1
10
265.968650
20
160.925500
11
257.220830
21
151.885500
0
LINE
8
Calque 1
10
257.220830
20
151.885500
11
255.804880
21
150.518500
0
LINE
8
Calque 1
10
255.804880
20
150.518500
11
249.058010
21
157.000400
0
LINE
8
Calque 1
10
249.058010
20
157.000400
11
244.293024
21
161.666388
0
LINE
8
Calque 1
10
244.293024
20
161.666388
11
242.311130
21
163.782300
0
LINE
8
Calque 1
10
242.311130
20
163.782300
11
244.215303
21
165.458375
0
LINE
8
Calque 1
10
244.215303
20
165.458375
11
248.793420
21
169.066900
0
LINE
8
Calque 1
10
248.793420
20
169.066900
11
262.022620
21
179.284500
0
LINE
8
Calque 1
10
262.022620
20
179.284500
11
274.656420
21
188.971000
0
LINE
8
Calque 1
10
274.656420
20
188.971000
11
279.105516
21
192.458418
0
LINE
8
Calque 1
10
279.105516
20
192.458418
11
280.188162
21
193.432877
0
LINE
8
Calque 1
10
280.188162
20
193.432877
11
280.543400
21
193.922980
0
LINE
8
Calque 1
10
280.543400
20
193.922980
11
280.156310
21
195.170150
0
LINE
8
Calque 1
10
280.156310
20
195.170150
11
279.753084
21
195.748639
0
LINE
8
Calque 1
10
279.753084
20
195.748639
11
279.327200
21
196.088320
0
LINE
8
Calque 1
10
279.327200
20
196.088320
11
278.772809
21
196.063109
0
LINE
8
Calque 1
10
278.772809
20
196.063109
11
278.060640
21
195.764230
0
LINE
8
Calque 1
10
278.060640
20
195.764230
11
270.224650
21
190.912480
0
LINE
8
Calque 1
10
270.224650
20
190.912480
11
254.217350
21
180.978400
0
LINE
8
Calque 1
10
254.217350
20
180.978400
11
240.467350
21
172.498700
0
LINE
8
Calque 1
10
240.467350
20
172.498700
11
235.713140
21
169.595100
0
LINE
8
Calque 1
10
235.713140
20
169.595100
11
227.836170
21
177.298900
0
LINE
8
Calque 1
10
227.836170
20
177.298900
11
219.956520
21
185.169900
0
LINE
8
Calque 1
10
219.956520
20
185.169900
11
222.665830
21
186.441200
0
LINE
8
Calque 1
10
222.665830
20
186.441200
11
246.809030
21
196.172750
0
LINE
8
Calque 1
10
246.809030
20
196.172750
11
272.058430
21
206.310950
0
LINE
8
Calque 1
10
272.058430
20
206.310950
11
275.085682
21
207.614580
0
LINE
8
Calque 1
10
275.085682
20
207.614580
11
275.792507
21
208.043186
0
LINE
8
Calque 1
10
275.792507
20
208.043186
11
276.085700
21
208.387030
0
LINE
8
Calque 1
10
276.085700
20
208.387030
11
276.144212
21
209.065048
0
LINE
8
Calque 1
10
276.144212
20
209.065048
11
275.971680
21
209.916180
0
LINE
8
Calque 1
10
275.971680
20
209.916180
11
275.616632
21
210.676091
0
LINE
8
Calque 1
10
275.616632
20
210.676091
11
275.216720
21
211.149510
0
LINE
8
Calque 1
10
275.216720
20
211.149510
11
274.862743
21
211.229600
0
LINE
8
Calque 1
10
274.862743
20
211.229600
11
274.234497
21
211.166594
0
LINE
8
Calque 1
10
274.234497
20
211.166594
11
271.909430
21
210.568040
0
LINE
8
Calque 1
10
271.909430
20
210.568040
11
255.804830
21
205.868580
0
LINE
8
Calque 1
10
255.804830
20
205.868580
11
234.770430
21
199.786370
0
LINE
8
Calque 1
10
234.770430
20
199.786370
11
219.287630
21
195.444860
0
LINE
8
Calque 1
10
219.287630
20
195.444860
11
211.216650
21
193.336960
0
LINE
8
Calque 1
10
211.216650
20
193.336960
11
207.717111
21
196.559335
0
LINE
8
Calque 1
10
207.717111
20
196.559335
11
199.855850
21
204.306760
0
LINE
8
Calque 1
10
199.855850
20
204.306760
11
189.009150
21
215.371860
0
LINE
8
Calque 1
10
189.009150
20
215.371860
11
201.036050
21
216.451720
0
LINE
8
Calque 1
10
201.036050
20
216.451720
11
219.027750
21
217.947820
0
LINE
8
Calque 1
10
219.027750
20
217.947820
11
235.828750
21
219.391660
0
LINE
8
Calque 1
10
235.828750
20
219.391660
11
257.921450
21
221.245970
0
LINE
8
Calque 1
10
257.921450
20
221.245970
11
271.150650
21
222.333960
0
LINE
8
Calque 1
10
271.150650
20
222.333960
11
272.555841
21
222.529760
0
LINE
8
Calque 1
10
272.555841
20
222.529760
11
273.333470
21
222.767470
0
LINE
8
Calque 1
10
273.333470
20
222.767470
11
273.565854
21
223.199543
0
LINE
8
Calque 1
10
273.565854
20
223.199543
11
273.660140
21
223.862570
0
LINE
8
Calque 1
10
273.660140
20
223.862570
11
273.420900
21
225.061560
0
LINE
8
Calque 1
10
273.420900
20
225.061560
11
272.735667
21
225.245973
0
LINE
8
Calque 1
10
272.735667
20
225.245973
11
270.448340
21
225.332661
0
LINE
8
Calque 1
10
270.448340
20
225.332661
11
257.880700
21
225.251900
0
LINE
8
Calque 1
10
257.880700
20
225.251900
11
224.451700
21
224.823840
0
LINE
8
Calque 1
10
224.451700
20
224.823840
11
196.273600
21
224.432100
0
LINE
8
Calque 1
10
196.273600
20
224.432100
11
182.477400
21
224.131850
0
LINE
8
Calque 1
10
182.477400
20
224.131850
11
178.735350
21
223.976430
0
LINE
8
Calque 1
10
178.735350
20
223.976430
11
176.656560
21
225.920060
0
LINE
8
Calque 1
10
176.656560
20
225.920060
11
168.690800
21
233.519660
0
LINE
8
Calque 1
10
168.690800
20
233.519660
11
162.803820
21
239.407750
0
LINE
8
Calque 1
10
162.803820
20
239.407750
11
185.902495
21
239.554591
0
LINE
8
Calque 1
10
185.902495
20
239.554591
11
243.700220
21
239.573310
0
LINE
8
Calque 1
10
243.700220
20
239.573310
11
324.596620
21
239.506710
0
LINE
8
Calque 1
10
324.596620
20
239.506710
11
324.669320
21
235.043780
0
LINE
8
Calque 1
10
324.669320
20
235.043780
11
324.650157
21
231.678209
0
LINE
8
Calque 1
10
324.650157
20
231.678209
11
324.468620
21
230.251440
0
LINE
8
Calque 1
10
324.468620
20
230.251440
11
323.779384
21
229.967956
0
LINE
8
Calque 1
10
323.779384
20
229.967956
11
322.506190
21
229.748980
0
LINE
8
Calque 1
10
322.506190
20
229.748980
11
320.869614
21
229.474103
0
LINE
8
Calque 1
10
320.869614
20
229.474103
11
319.306710
21
229.056260
0
LINE
8
Calque 1
10
319.306710
20
229.056260
11
316.830830
21
227.951670
0
LINE
8
Calque 1
10
316.830830
20
227.951670
11
314.755380
21
226.471400
0
LINE
8
Calque 1
10
314.755380
20
226.471400
11
313.621911
21
225.320319
0
LINE
8
Calque 1
10
313.621911
20
225.320319
11
312.455510
21
223.810130
0
LINE
8
Calque 1
10
312.455510
20
223.810130
11
311.437217
21
221.994328
0
LINE
8
Calque 1
10
311.437217
20
221.994328
11
310.687710
21
220.100390
0
LINE
8
Calque 1
10
310.687710
20
220.100390
11
310.241437
21
218.017961
0
LINE
8
Calque 1
10
310.241437
20
218.017961
11
310.237260
21
215.470180
0
LINE
8
Calque 1
10
310.237260
20
215.470180
11
310.484349
21
212.983155
0
LINE
8
Calque 1
10
310.484349
20
212.983155
11
311.072050
21
211.064000
0
LINE
8
Calque 1
10
311.072050
20
211.064000
11
312.681030
21
207.984600
0
LINE
8
Calque 1
10
312.681030
20
207.984600
11
314.931030
21
205.276680
0
LINE
8
Calque 1
10
314.931030
20
205.276680
11
317.833430
21
202.873010
0
LINE
8
Calque 1
10
317.833430
20
202.873010
11
321.727500
21
200.646940
0
LINE
8
Calque 1
10
321.727500
20
200.646940
11
324.079594
21
199.605786
0
LINE
8
Calque 1
10
324.079594
20
199.605786
11
326.448720
21
198.746560
0
LINE
8
Calque 1
10
326.448720
20
198.746560
11
328.929260
21
197.936820
0
LINE
8
Calque 1
10
328.929260
20
197.936820
11
330.593340
21
191.958810
0
LINE
8
Calque 1
10
330.593340
20
191.958810
11
332.601300
21
184.027760
0
LINE
8
Calque 1
10
332.601300
20
184.027760
11
332.906046
21
182.036960
0
LINE
8
Calque 1
10
332.906046
20
182.036960
11
332.735570
21
180.191360
0
LINE
8
Calque 1
10
332.735570
20
180.191360
11
332.261175
21
178.414585
0
LINE
8
Calque 1
10
332.261175
20
178.414585
11
331.554370
21
176.674860
0
LINE
8
Calque 1
10
331.554370
20
176.674860
11
330.518928
21
175.056598
0
LINE
8
Calque 1
10
330.518928
20
175.056598
11
329.070850
21
173.678860
0
LINE
8
Calque 1
10
329.070850
20
173.678860
11
327.459650
21
172.396260
0
LINE
8
Calque 1
10
327.459650
20
172.396260
11
327.285340
21
163.485860
0
LINE
8
Calque 1
10
327.285340
20
163.485860
11
327.110600
21
145.550960
0
LINE
8
Calque 1
10
327.110600
20
145.550960
11
327.110070
21
136.526460
0
LINE
8
Calque 1
10
327.110070
20
136.526460
11
325.588720
21
135.519260
0
LINE
8
Calque 1
10
325.588720
20
135.519260
11
319.343820
21
131.231560
0
LINE
8
Calque 1
10
319.343820
20
131.231560
11
314.497120
21
128.074260
0
LINE
8
Calque 1
10
314.497120
20
128.074260
11
314.650800
21
140.460360
0
LINE
8
Calque 1
10
314.650800
20
140.460360
11
315.073080
21
158.325660
0
LINE
8
Calque 1
10
315.073080
20
158.325660
11
315.218540
21
163.927860
0
LINE
8
Calque 1
10
315.218540
20
163.927860
11
314.623140
21
164.344960
0
LINE
8
Calque 1
10
314.623140
20
164.344960
11
313.965299
21
164.639448
0
LINE
8
Calque 1
10
313.965299
20
164.639448
11
313.219550
21
164.761960
0
LINE
8
Calque 1
10
313.219550
20
164.761960
11
312.475958
21
164.640948
0
LINE
8
Calque 1
10
312.475958
20
164.640948
11
311.823220
21
164.350060
0
LINE
8
Calque 1
10
311.823220
20
164.350060
11
311.407918
21
163.901185
0
LINE
8
Calque 1
10
311.407918
20
163.901185
11
311.235180
21
163.400260
0
LINE
8
Calque 1
10
311.235180
20
163.400260
11
310.053750
21
155.147060
0
LINE
8
Calque 1
10
310.053750
20
155.147060
11
307.147040
21
136.080460
0
LINE
8
Calque 1
10
307.147040
20
136.080460
11
305.286130
21
124.593460
0
LINE
8
Calque 1
10
305.286130
20
124.593460
11
300.321470
21
123.580660
0
LINE
8
Calque 1
10
300.321470
20
123.580660
11
295.095600
21
122.713060
0
LINE
8
Calque 1
10
295.095600
20
122.713060
11
290.333100
21
124.319160
0
LINE
8
Calque 1
10
290.333100
20
124.319160
11
290.333000
21
124.319200
0
LINE
8
Calque 1
10
434.291000
20
123.650400
11
429.279240
21
124.681400
0
LINE
8
Calque 1
10
429.279240
20
124.681400
11
427.739130
21
134.010900
0
LINE
8
Calque 1
10
427.739130
20
134.010900
11
424.734730
21
153.517200
0
LINE
8
Calque 1
10
424.734730
20
153.517200
11
423.298796
21
162.206725
0
LINE
8
Calque 1
10
423.298796
20
162.206725
11
422.907450
21
163.745981
0
LINE
8
Calque 1
10
422.907450
20
163.745981
11
422.549780
21
164.325500
0
LINE
8
Calque 1
10
422.549780
20
164.325500
11
421.870470
21
164.675825
0
LINE
8
Calque 1
10
421.870470
20
164.675825
11
420.938410
21
164.676500
0
LINE
8
Calque 1
10
420.938410
20
164.676500
11
420.116131
21
164.475625
0
LINE
8
Calque 1
10
420.116131
20
164.475625
11
419.589330
21
164.187000
0
LINE
8
Calque 1
10
419.589330
20
164.187000
11
419.452880
21
163.331423
0
LINE
8
Calque 1
10
419.452880
20
163.331423
11
419.412521
21
160.867838
0
LINE
8
Calque 1
10
419.412521
20
160.867838
11
419.624430
21
149.283900
0
LINE
8
Calque 1
10
419.624430
20
149.283900
11
419.911080
21
131.392800
0
LINE
8
Calque 1
10
419.911080
20
131.392800
11
419.846280
21
128.053800
0
LINE
8
Calque 1
10
419.846280
20
128.053800
11
415.480650
21
131.040400
0
LINE
8
Calque 1
10
415.480650
20
131.040400
11
409.262940
21
135.316400
0
LINE
8
Calque 1
10
409.262940
20
135.316400
11
407.410860
21
136.605900
0
LINE
8
Calque 1
10
407.410860
20
136.605900
11
407.226920
21
154.279100
0
LINE
8
Calque 1
10
407.226920
20
154.279100
11
407.042980
21
171.952300
0
LINE
8
Calque 1
10
407.042980
20
171.952300
11
404.954360
21
173.982800
0
LINE
8
Calque 1
10
404.954360
20
173.982800
11
403.167925
21
175.920313
0
LINE
8
Calque 1
10
403.167925
20
175.920313
11
402.227880
21
177.597500
0
LINE
8
Calque 1
10
402.227880
20
177.597500
11
401.711186
21
179.395263
0
LINE
8
Calque 1
10
401.711186
20
179.395263
11
401.629800
21
181.959900
0
LINE
8
Calque 1
10
401.629800
20
181.959900
11
401.700457
21
183.649011
0
LINE
8
Calque 1
10
401.700457
20
183.649011
11
401.945182
21
185.330691
0
LINE
8
Calque 1
10
401.945182
20
185.330691
11
403.481880
21
191.327630
0
LINE
8
Calque 1
10
403.481880
20
191.327630
11
405.294190
21
197.917230
0
LINE
8
Calque 1
10
405.294190
20
197.917230
11
407.543150
21
198.626070
0
LINE
8
Calque 1
10
407.543150
20
198.626070
11
411.731900
21
200.169800
0
LINE
8
Calque 1
10
411.731900
20
200.169800
11
413.736764
21
201.176684
0
LINE
8
Calque 1
10
413.736764
20
201.176684
11
415.832940
21
202.425090
0
LINE
8
Calque 1
10
415.832940
20
202.425090
11
417.825657
21
203.904756
0
LINE
8
Calque 1
10
417.825657
20
203.904756
11
419.581690
21
205.467650
0
LINE
8
Calque 1
10
419.581690
20
205.467650
11
420.996826
21
207.098678
0
LINE
8
Calque 1
10
420.996826
20
207.098678
11
422.169930
21
208.742170
0
LINE
8
Calque 1
10
422.169930
20
208.742170
11
423.035592
21
210.415520
0
LINE
8
Calque 1
10
423.035592
20
210.415520
11
423.711550
21
212.118360
0
LINE
8
Calque 1
10
423.711550
20
212.118360
11
424.115958
21
213.946026
0
LINE
8
Calque 1
10
424.115958
20
213.946026
11
424.276990
21
215.958860
0
LINE
8
Calque 1
10
424.276990
20
215.958860
11
424.170716
21
217.931081
0
LINE
8
Calque 1
10
424.170716
20
217.931081
11
423.836510
21
219.651730
0
LINE
8
Calque 1
10
423.836510
20
219.651730
11
422.699360
21
222.554310
0
LINE
8
Calque 1
10
422.699360
20
222.554310
11
421.764385
21
223.970404
0
LINE
8
Calque 1
10
421.764385
20
223.970404
11
420.460320
21
225.512460
0
LINE
8
Calque 1
10
420.460320
20
225.512460
11
418.910755
21
226.899883
0
LINE
8
Calque 1
10
418.910755
20
226.899883
11
417.385490
21
227.944210
0
LINE
8
Calque 1
10
417.385490
20
227.944210
11
414.412030
21
229.167100
0
LINE
8
Calque 1
10
414.412030
20
229.167100
11
411.369320
21
229.786780
0
LINE
8
Calque 1
10
411.369320
20
229.786780
11
409.792110
21
229.983590
0
LINE
8
Calque 1
10
409.792110
20
229.983590
11
409.720010
21
234.811330
0
LINE
8
Calque 1
10
409.720010
20
234.811330
11
409.647910
21
239.639070
0
LINE
8
Calque 1
10
409.647910
20
239.639070
11
493.130000
21
239.639000
0
LINE
8
Calque 1
10
493.130000
20
239.639000
11
565.690637
21
239.572412
0
LINE
8
Calque 1
10
565.690637
20
239.572412
11
575.125302
21
239.421017
0
LINE
8
Calque 1
10
575.125302
20
239.421017
11
576.395781
21
239.295914
0
LINE
8
Calque 1
10
576.395781
20
239.295914
11
576.612000
21
239.130300
0
LINE
8
Calque 1
10
576.612000
20
239.130300
11
576.135283
21
238.471690
0
LINE
8
Calque 1
10
576.135283
20
238.471690
11
574.739929
21
237.019592
0
LINE
8
Calque 1
10
574.739929
20
237.019592
11
569.402100
21
231.943070
0
LINE
8
Calque 1
10
569.402100
20
231.943070
11
561.519320
21
224.649490
0
LINE
8
Calque 1
10
561.519320
20
224.649490
11
560.846460
21
224.034440
0
LINE
8
Calque 1
10
560.846460
20
224.034440
11
549.745360
21
224.281630
0
LINE
8
Calque 1
10
549.745360
20
224.281630
11
527.664060
21
224.674380
0
LINE
8
Calque 1
10
527.664060
20
224.674380
11
498.824460
21
225.019570
0
LINE
8
Calque 1
10
498.824460
20
225.019570
11
471.175460
21
225.219210
0
LINE
8
Calque 1
10
471.175460
20
225.219210
11
461.386000
21
225.219000
0
LINE
8
Calque 1
10
461.386000
20
225.219000
11
461.317000
21
224.160660
0
LINE
8
Calque 1
10
461.317000
20
224.160660
11
461.459770
21
222.779920
0
LINE
8
Calque 1
10
461.459770
20
222.779920
11
463.310818
21
222.402230
0
LINE
8
Calque 1
10
463.310818
20
222.402230
11
468.407970
21
221.915070
0
LINE
8
Calque 1
10
468.407970
20
221.915070
11
479.906870
21
220.982540
0
LINE
8
Calque 1
10
479.906870
20
220.982540
11
500.941270
21
219.270440
0
LINE
8
Calque 1
10
500.941270
20
219.270440
11
521.711070
21
217.565280
0
LINE
8
Calque 1
10
521.711070
20
217.565280
11
537.453770
21
216.351650
0
LINE
8
Calque 1
10
537.453770
20
216.351650
11
549.197270
21
215.329830
0
LINE
8
Calque 1
10
549.197270
20
215.329830
11
549.354533
21
215.141674
0
LINE
8
Calque 1
10
549.354533
20
215.141674
11
549.124574
21
214.733239
0
LINE
8
Calque 1
10
549.124574
20
214.733239
11
547.080600
21
212.738490
0
LINE
8
Calque 1
10
547.080600
20
212.738490
11
535.020500
21
201.705290
0
LINE
8
Calque 1
10
535.020500
20
201.705290
11
528.269383
21
195.608115
0
LINE
8
Calque 1
10
528.269383
20
195.608115
11
525.300740
21
193.072120
0
LINE
8
Calque 1
10
525.300740
20
193.072120
11
517.679840
21
195.070880
0
LINE
8
Calque 1
10
517.679840
20
195.070880
11
501.735040
21
199.462140
0
LINE
8
Calque 1
10
501.735040
20
199.462140
11
479.774640
21
205.685320
0
LINE
8
Calque 1
10
479.774640
20
205.685320
11
463.128140
21
210.462960
0
LINE
8
Calque 1
10
463.128140
20
210.462960
11
459.843070
21
211.409930
0
LINE
8
Calque 1
10
459.843070
20
211.409930
11
459.366260
21
210.821110
0
LINE
8
Calque 1
10
459.366260
20
210.821110
11
458.978281
21
210.132027
0
LINE
8
Calque 1
10
458.978281
20
210.132027
11
458.714990
21
209.302170
0
LINE
8
Calque 1
10
458.714990
20
209.302170
11
458.672394
21
208.507016
0
LINE
8
Calque 1
10
458.672394
20
208.507016
11
458.911970
21
208.000590
0
LINE
8
Calque 1
10
458.911970
20
208.000590
11
462.786317
21
206.328531
0
LINE
8
Calque 1
10
462.786317
20
206.328531
11
471.579570
21
202.830110
0
LINE
8
Calque 1
10
471.579570
20
202.830110
11
485.463170
21
197.424620
0
LINE
8
Calque 1
10
485.463170
20
197.424620
11
489.431920
21
195.846980
0
LINE
8
Calque 1
10
489.431920
20
195.846980
11
503.719420
21
190.109240
0
LINE
8
Calque 1
10
503.719420
20
190.109240
11
515.886920
21
185.096420
0
LINE
8
Calque 1
10
515.886920
20
185.096420
11
515.840533
21
184.847609
0
LINE
8
Calque 1
10
515.840533
20
184.847609
11
515.461521
21
184.349582
0
LINE
8
Calque 1
10
515.461521
20
184.349582
11
513.770250
21
182.679720
0
LINE
8
Calque 1
10
513.770250
20
182.679720
11
505.637670
21
174.991020
0
LINE
8
Calque 1
10
505.637670
20
174.991020
11
499.883010
21
169.472820
0
LINE
8
Calque 1
10
499.883010
20
169.472820
11
493.069970
21
173.552320
0
LINE
8
Calque 1
10
493.069970
20
173.552320
11
472.763170
21
185.916120
0
LINE
8
Calque 1
10
472.763170
20
185.916120
11
457.808970
21
195.091460
0
LINE
8
Calque 1
10
457.808970
20
195.091460
11
456.606195
21
195.720784
0
LINE
8
Calque 1
10
456.606195
20
195.720784
11
455.765250
21
195.982540
0
LINE
8
Calque 1
10
455.765250
20
195.982540
11
455.228066
21
195.782097
0
LINE
8
Calque 1
10
455.228066
20
195.782097
11
454.778280
21
195.201930
0
LINE
8
Calque 1
10
454.778280
20
195.201930
11
454.374600
21
193.919850
0
LINE
8
Calque 1
10
454.374600
20
193.919850
11
455.184723
21
193.078361
0
LINE
8
Calque 1
10
455.184723
20
193.078361
11
457.709020
21
191.007510
0
LINE
8
Calque 1
10
457.709020
20
191.007510
11
468.463700
21
182.730150
0
LINE
8
Calque 1
10
468.463700
20
182.730150
11
487.910600
21
167.995950
0
LINE
8
Calque 1
10
487.910600
20
167.995950
11
493.268410
21
163.722150
0
LINE
8
Calque 1
10
493.268410
20
163.722150
11
486.348580
21
156.922950
0
LINE
8
Calque 1
10
486.348580
20
156.922950
11
479.428770
21
150.351650
0
LINE
8
Calque 1
10
479.428770
20
150.351650
11
475.302220
21
154.635250
0
LINE
8
Calque 1
10
475.302220
20
154.635250
11
459.813220
21
170.702350
0
LINE
8
Calque 1
10
459.813220
20
170.702350
11
451.631414
21
179.074300
0
LINE
8
Calque 1
10
451.631414
20
179.074300
11
447.916120
21
182.655550
0
LINE
8
Calque 1
10
447.916120
20
182.655550
11
447.603825
21
182.676744
0
LINE
8
Calque 1
10
447.603825
20
182.676744
11
447.252439
21
182.522475
0
LINE
8
Calque 1
10
447.252439
20
182.522475
11
446.234690
21
181.558550
0
LINE
8
Calque 1
10
446.234690
20
181.558550
11
445.442480
21
180.521675
0
LINE
8
Calque 1
10
445.442480
20
180.521675
11
445.167200
21
179.819750
0
LINE
8
Calque 1
10
445.167200
20
179.819750
11
446.738762
21
177.641512
0
LINE
8
Calque 1
10
446.738762
20
177.641512
11
450.405870
21
173.067550
0
LINE
8
Calque 1
10
450.405870
20
173.067550
11
460.965470
21
160.284450
0
LINE
8
Calque 1
10
460.965470
20
160.284450
11
469.762870
21
149.638750
0
LINE
8
Calque 1
10
469.762870
20
149.638750
11
473.160070
21
145.395150
0
LINE
8
Calque 1
10
473.160070
20
145.395150
11
465.217650
21
137.367050
0
LINE
8
Calque 1
10
465.217650
20
137.367050
11
457.075070
21
129.371550
0
LINE
8
Calque 1
10
457.075070
20
129.371550
11
455.501526
21
132.607488
0
LINE
8
Calque 1
10
455.501526
20
132.607488
11
451.999350
21
140.484050
0
LINE
8
Calque 1
10
451.999350
20
140.484050
11
442.835540
21
161.369450
0
LINE
8
Calque 1
10
442.835540
20
161.369450
11
438.373340
21
171.622050
0
LINE
8
Calque 1
10
438.373340
20
171.622050
11
438.077069
21
172.031200
0
LINE
8
Calque 1
10
438.077069
20
172.031200
11
437.542650
21
172.170050
0
LINE
8
Calque 1
10
437.542650
20
172.170050
11
436.137320
21
171.782950
0
LINE
8
Calque 1
10
436.137320
20
171.782950
11
435.566482
21
171.399675
0
LINE
8
Calque 1
10
435.566482
20
171.399675
11
435.245200
21
171.021650
0
LINE
8
Calque 1
10
435.245200
20
171.021650
11
435.491630
21
169.679188
0
LINE
8
Calque 1
10
435.491630
20
169.679188
11
436.285800
21
166.977050
0
LINE
8
Calque 1
10
436.285800
20
166.977050
11
441.309530
21
151.003450
0
LINE
8
Calque 1
10
441.309530
20
151.003450
11
447.137290
21
132.393550
0
LINE
8
Calque 1
10
447.137290
20
132.393550
11
449.018290
21
125.979650
0
LINE
8
Calque 1
10
449.018290
20
125.979650
11
444.216660
21
124.282750
0
LINE
8
Calque 1
10
444.216660
20
124.282750
11
439.341660
21
122.727050
0
LINE
8
Calque 1
10
439.341660
20
122.727050
11
434.291290
21
123.650150
0
LINE
8
Calque 1
10
434.291290
20
123.650150
11
434.291000
21
123.650400
0
LINE
8
Calque 1
10
347.747300
20
140.401200
11
348.030570
21
144.799900
0
LINE
8
Calque 1
10
348.030570
20
144.799900
11
348.533756
21
147.288900
0
LINE
8
Calque 1
10
348.533756
20
147.288900
11
349.345770
21
150.413000
0
LINE
8
Calque 1
10
349.345770
20
150.413000
11
350.028801
21
153.013000
0
LINE
8
Calque 1
10
350.028801
20
153.013000
11
350.221880
21
154.241700
0
LINE
8
Calque 1
10
350.221880
20
154.241700
11
349.868412
21
154.383525
0
LINE
8
Calque 1
10
349.868412
20
154.383525
11
349.237400
21
154.370400
0
LINE
8
Calque 1
10
349.237400
20
154.370400
11
346.315910
21
153.683600
0
LINE
8
Calque 1
10
346.315910
20
153.683600
11
344.481099
21
153.286225
0
LINE
8
Calque 1
10
344.481099
20
153.286225
11
343.008620
21
153.121800
0
LINE
8
Calque 1
10
343.008620
20
153.121800
11
340.783260
21
153.404000
0
LINE
8
Calque 1
10
340.783260
20
153.404000
11
339.768460
21
153.874062
0
LINE
8
Calque 1
10
339.768460
20
153.874062
11
338.748200
21
154.610000
0
LINE
8
Calque 1
10
338.748200
20
154.610000
11
337.861471
21
155.601050
0
LINE
8
Calque 1
10
337.861471
20
155.601050
11
337.167710
21
156.684500
0
LINE
8
Calque 1
10
337.167710
20
156.684500
11
336.555942
21
158.387212
0
LINE
8
Calque 1
10
336.555942
20
158.387212
11
335.866340
21
160.867300
0
LINE
8
Calque 1
10
335.866340
20
160.867300
11
335.064974
21
163.565362
0
LINE
8
Calque 1
10
335.064974
20
163.565362
11
334.135170
21
165.498500
0
LINE
8
Calque 1
10
334.135170
20
165.498500
11
332.786860
21
168.111900
0
LINE
8
Calque 1
10
332.786860
20
168.111900
11
332.414550
21
170.053700
0
LINE
8
Calque 1
10
332.414550
20
170.053700
11
332.693300
21
172.038000
0
LINE
8
Calque 1
10
332.693300
20
172.038000
11
333.297790
21
173.482912
0
LINE
8
Calque 1
10
333.297790
20
173.482912
11
334.345470
21
175.470600
0
LINE
8
Calque 1
10
334.345470
20
175.470600
11
335.708760
21
177.844800
0
LINE
8
Calque 1
10
335.708760
20
177.844800
11
335.672060
21
181.026800
0
LINE
8
Calque 1
10
335.672060
20
181.026800
11
335.501017
21
184.093825
0
LINE
8
Calque 1
10
335.501017
20
184.093825
11
334.972540
21
186.854700
0
LINE
8
Calque 1
10
334.972540
20
186.854700
11
333.356330
21
193.469280
0
LINE
8
Calque 1
10
333.356330
20
193.469280
11
331.972380
21
200.348450
0
LINE
8
Calque 1
10
331.972380
20
200.348450
11
331.675949
21
203.351179
0
LINE
8
Calque 1
10
331.675949
20
203.351179
11
331.687880
21
206.566150
0
LINE
8
Calque 1
10
331.687880
20
206.566150
11
331.947116
21
209.593642
0
LINE
8
Calque 1
10
331.947116
20
209.593642
11
332.408050
21
212.122400
0
LINE
8
Calque 1
10
332.408050
20
212.122400
11
333.150162
21
214.428374
0
LINE
8
Calque 1
10
333.150162
20
214.428374
11
334.128180
21
216.814410
0
LINE
8
Calque 1
10
334.128180
20
216.814410
11
335.339692
21
219.121517
0
LINE
8
Calque 1
10
335.339692
20
219.121517
11
336.643170
21
221.237750
0
LINE
8
Calque 1
10
336.643170
20
221.237750
11
338.248240
21
223.265806
0
LINE
8
Calque 1
10
338.248240
20
223.265806
11
340.184840
21
225.360950
0
LINE
8
Calque 1
10
340.184840
20
225.360950
11
342.367869
21
227.337989
0
LINE
8
Calque 1
10
342.367869
20
227.337989
11
344.565410
21
229.082100
0
LINE
8
Calque 1
10
344.565410
20
229.082100
11
346.972166
21
230.620967
0
LINE
8
Calque 1
10
346.972166
20
230.620967
11
349.658200
21
232.104530
0
LINE
8
Calque 1
10
349.658200
20
232.104530
11
352.565141
21
233.395816
0
LINE
8
Calque 1
10
352.565141
20
233.395816
11
355.503020
21
234.472370
0
LINE
8
Calque 1
10
355.503020
20
234.472370
11
360.812690
21
235.797750
0
LINE
8
Calque 1
10
360.812690
20
235.797750
11
363.597647
21
236.086661
0
LINE
8
Calque 1
10
363.597647
20
236.086661
11
367.061880
21
236.199480
0
LINE
8
Calque 1
10
367.061880
20
236.199480
11
370.527932
21
236.086632
0
LINE
8
Calque 1
10
370.527932
20
236.086632
11
373.311080
21
235.795960
0
LINE
8
Calque 1
10
373.311080
20
235.795960
11
378.302600
21
234.578350
0
LINE
8
Calque 1
10
378.302600
20
234.578350
11
380.902115
21
233.660506
0
LINE
8
Calque 1
10
380.902115
20
233.660506
11
383.442320
21
232.596960
0
LINE
8
Calque 1
10
383.442320
20
232.596960
11
385.989501
21
231.251924
0
LINE
8
Calque 1
10
385.989501
20
231.251924
11
388.605780
21
229.657310
0
LINE
8
Calque 1
10
388.605780
20
229.657310
11
391.231377
21
227.676152
0
LINE
8
Calque 1
10
391.231377
20
227.676152
11
393.793300
21
225.361500
0
LINE
8
Calque 1
10
393.793300
20
225.361500
11
396.026155
21
222.899099
0
LINE
8
Calque 1
10
396.026155
20
222.899099
11
397.852900
21
220.522460
0
LINE
8
Calque 1
10
397.852900
20
220.522460
11
399.194974
21
218.279679
0
LINE
8
Calque 1
10
399.194974
20
218.279679
11
400.262540
21
216.139100
0
LINE
8
Calque 1
10
400.262540
20
216.139100
11
401.759190
21
211.707790
0
LINE
8
Calque 1
10
401.759190
20
211.707790
11
402.270024
21
209.011386
0
LINE
8
Calque 1
10
402.270024
20
209.011386
11
402.369490
21
205.110940
0
LINE
8
Calque 1
10
402.369490
20
205.110940
11
402.245781
21
201.323841
0
LINE
8
Calque 1
10
402.245781
20
201.323841
11
401.886940
21
198.496360
0
LINE
8
Calque 1
10
401.886940
20
198.496360
11
399.956480
21
190.029700
0
LINE
8
Calque 1
10
399.956480
20
190.029700
11
398.868351
21
185.055237
0
LINE
8
Calque 1
10
398.868351
20
185.055237
11
398.352390
21
181.780200
0
LINE
8
Calque 1
10
398.352390
20
181.780200
11
398.336995
21
179.860825
0
LINE
8
Calque 1
10
398.336995
20
179.860825
11
398.528030
21
178.340600
0
LINE
8
Calque 1
10
398.528030
20
178.340600
11
399.054980
21
176.973050
0
LINE
8
Calque 1
10
399.054980
20
176.973050
11
399.875960
21
175.476200
0
LINE
8
Calque 1
10
399.875960
20
175.476200
11
401.314320
21
172.731000
0
LINE
8
Calque 1
10
401.314320
20
172.731000
11
401.602456
21
171.468712
0
LINE
8
Calque 1
10
401.602456
20
171.468712
11
401.722300
21
170.057700
0
LINE
8
Calque 1
10
401.722300
20
170.057700
11
401.561392
21
168.560250
0
LINE
8
Calque 1
10
401.561392
20
168.560250
11
400.975490
21
167.114400
0
LINE
8
Calque 1
10
400.975490
20
167.114400
11
399.552740
21
164.497400
0
LINE
8
Calque 1
10
399.552740
20
164.497400
11
398.902652
21
162.926037
0
LINE
8
Calque 1
10
398.902652
20
162.926037
11
398.288880
21
160.820000
0
LINE
8
Calque 1
10
398.288880
20
160.820000
11
397.179260
21
157.116100
0
LINE
8
Calque 1
10
397.179260
20
157.116100
11
395.999600
21
155.036400
0
LINE
8
Calque 1
10
395.999600
20
155.036400
11
395.209109
21
154.254350
0
LINE
8
Calque 1
10
395.209109
20
154.254350
11
394.232490
21
153.585400
0
LINE
8
Calque 1
10
394.232490
20
153.585400
11
392.944479
21
153.120700
0
LINE
8
Calque 1
10
392.944479
20
153.120700
11
391.138960
21
153.013900
0
LINE
8
Calque 1
10
391.138960
20
153.013900
11
389.071502
21
153.200262
0
LINE
8
Calque 1
10
389.071502
20
153.200262
11
386.821630
21
153.758400
0
LINE
8
Calque 1
10
386.821630
20
153.758400
11
385.062646
21
154.229662
0
LINE
8
Calque 1
10
385.062646
20
154.229662
11
384.109650
21
154.340700
0
LINE
8
Calque 1
10
384.109650
20
154.340700
11
383.841967
21
154.108162
0
LINE
8
Calque 1
10
383.841967
20
154.108162
11
383.730630
21
153.753300
0
LINE
8
Calque 1
10
383.730630
20
153.753300
11
384.514700
21
150.768400
0
LINE
8
Calque 1
10
384.514700
20
150.768400
11
385.706630
21
146.283800
0
LINE
8
Calque 1
10
385.706630
20
146.283800
11
386.013724
21
144.006162
0
LINE
8
Calque 1
10
386.013724
20
144.006162
11
386.179330
21
141.256700
0
LINE
8
Calque 1
10
386.179330
20
141.256700
11
386.244130
21
138.171400
0
LINE
8
Calque 1
10
386.244130
20
138.171400
11
383.808530
21
138.095400
0
LINE
8
Calque 1
10
383.808530
20
138.095400
11
381.372920
21
138.019400
0
LINE
8
Calque 1
10
381.372920
20
138.019400
11
381.295020
21
139.940600
0
LINE
8
Calque 1
10
381.295020
20
139.940600
11
381.124590
21
141.608100
0
LINE
8
Calque 1
10
381.124590
20
141.608100
11
380.915940
21
141.957922
0
LINE
8
Calque 1
10
380.915940
20
141.957922
11
380.558100
21
142.189300
0
LINE
8
Calque 1
10
380.558100
20
142.189300
11
379.924317
21
142.382462
0
LINE
8
Calque 1
10
379.924317
20
142.382462
11
379.367470
21
142.165300
0
LINE
8
Calque 1
10
379.367470
20
142.165300
11
379.097619
21
141.911181
0
LINE
8
Calque 1
10
379.097619
20
141.911181
11
378.923456
21
141.517075
0
LINE
8
Calque 1
10
378.923456
20
141.517075
11
378.758090
21
139.926400
0
LINE
8
Calque 1
10
378.758090
20
139.926400
11
378.680390
21
138.039300
0
LINE
8
Calque 1
10
378.680390
20
138.039300
11
376.454000
21
138.039000
0
LINE
8
Calque 1
10
376.454000
20
138.039000
11
374.228000
21
138.039000
0
LINE
8
Calque 1
10
374.228000
20
138.039000
11
374.150700
21
140.089500
0
LINE
8
Calque 1
10
374.150700
20
140.089500
11
374.073400
21
142.140000
0
LINE
8
Calque 1
10
374.073400
20
142.140000
11
373.175100
21
142.226000
0
LINE
8
Calque 1
10
373.175100
20
142.226000
11
372.462396
21
142.192175
0
LINE
8
Calque 1
10
372.462396
20
142.192175
11
372.054680
21
141.961400
0
LINE
8
Calque 1
10
372.054680
20
141.961400
11
371.896604
21
141.189350
0
LINE
8
Calque 1
10
371.896604
20
141.189350
11
371.828490
21
139.825100
0
LINE
8
Calque 1
10
371.828490
20
139.825100
11
371.824490
21
138.039200
0
LINE
8
Calque 1
10
371.824490
20
138.039200
11
370.105000
21
138.039000
0
LINE
8
Calque 1
10
370.105000
20
138.039000
11
368.385000
21
138.039000
0
LINE
8
Calque 1
10
368.385000
20
138.039000
11
368.385000
21
139.876000
0
LINE
8
Calque 1
10
368.385000
20
139.876000
11
368.282845
21
141.465450
0
LINE
8
Calque 1
10
368.282845
20
141.465450
11
368.104689
21
141.847084
0
LINE
8
Calque 1
10
368.104689
20
141.847084
11
367.796960
21
142.124900
0
LINE
8
Calque 1
10
367.796960
20
142.124900
11
366.779630
21
142.536800
0
LINE
8
Calque 1
10
366.779630
20
142.536800
11
366.347819
21
142.394675
0
LINE
8
Calque 1
10
366.347819
20
142.394675
11
365.912460
21
142.052900
0
LINE
8
Calque 1
10
365.912460
20
142.052900
11
365.575267
21
141.274462
0
LINE
8
Calque 1
10
365.575267
20
141.274462
11
365.474580
21
139.804000
0
LINE
8
Calque 1
10
365.474580
20
139.804000
11
365.474000
21
138.039000
0
LINE
8
Calque 1
10
365.474000
20
138.039000
11
363.755000
21
138.039000
0
LINE
8
Calque 1
10
363.755000
20
138.039000
11
362.035000
21
138.039000
0
LINE
8
Calque 1
10
362.035000
20
138.039000
11
362.031000
21
139.824900
0
LINE
8
Calque 1
10
362.031000
20
139.824900
11
361.962974
21
141.189150
0
LINE
8
Calque 1
10
361.962974
20
141.189150
11
361.804820
21
141.961200
0
LINE
8
Calque 1
10
361.804820
20
141.961200
11
361.397099
21
142.191863
0
LINE
8
Calque 1
10
361.397099
20
142.191863
11
360.684390
21
142.225800
0
LINE
8
Calque 1
10
360.684390
20
142.225800
11
359.786090
21
142.139800
0
LINE
8
Calque 1
10
359.786090
20
142.139800
11
359.708790
21
140.089300
0
LINE
8
Calque 1
10
359.708790
20
140.089300
11
359.631490
21
138.038800
0
LINE
8
Calque 1
10
359.631490
20
138.038800
11
357.393000
21
138.039000
0
LINE
8
Calque 1
10
357.393000
20
138.039000
11
355.156000
21
138.039000
0
LINE
8
Calque 1
10
355.156000
20
138.039000
11
355.156000
21
140.014000
0
LINE
8
Calque 1
10
355.156000
20
140.014000
11
355.060921
21
141.706238
0
LINE
8
Calque 1
10
355.060921
20
141.706238
11
354.890797
21
142.067589
0
LINE
8
Calque 1
10
354.890797
20
142.067589
11
354.593370
21
142.290200
0
LINE
8
Calque 1
10
354.593370
20
142.290200
11
354.015841
21
142.457562
0
LINE
8
Calque 1
10
354.015841
20
142.457562
11
353.402740
21
142.305200
0
LINE
8
Calque 1
10
353.402740
20
142.305200
11
353.069071
21
142.104091
0
LINE
8
Calque 1
10
353.069071
20
142.104091
11
352.879371
21
141.804900
0
LINE
8
Calque 1
10
352.879371
20
141.804900
11
352.774750
21
140.447500
0
LINE
8
Calque 1
10
352.774750
20
140.447500
11
352.614150
21
138.457500
0
LINE
8
Calque 1
10
352.614150
20
138.457500
11
352.434057
21
138.249431
0
LINE
8
Calque 1
10
352.434057
20
138.249431
11
352.021775
21
138.121425
0
LINE
8
Calque 1
10
352.021775
20
138.121425
11
350.100610
21
138.039000
0
LINE
8
Calque 1
10
350.100610
20
138.039000
11
347.747000
21
138.039000
0
LINE
8
Calque 1
10
347.747000
20
138.039000
11
347.747300
21
140.401200
0
LINE
8
Calque 1
10
363.133900
20
152.921900
11
364.745780
21
154.852100
0
LINE
8
Calque 1
10
364.745780
20
154.852100
11
366.361540
21
156.792200
0
LINE
8
Calque 1
10
366.361540
20
156.792200
11
366.805987
21
156.983650
0
LINE
8
Calque 1
10
366.805987
20
156.983650
11
367.298300
21
156.965700
0
LINE
8
Calque 1
10
367.298300
20
156.965700
11
368.072056
21
156.305437
0
LINE
8
Calque 1
10
368.072056
20
156.305437
11
369.193160
21
154.952700
0
LINE
8
Calque 1
10
369.193160
20
154.952700
11
370.301130
21
153.573250
0
LINE
8
Calque 1
10
370.301130
20
153.573250
11
371.043310
21
152.849000
0
LINE
8
Calque 1
10
371.043310
20
152.849000
11
372.071570
21
152.591200
0
LINE
8
Calque 1
10
372.071570
20
152.591200
11
372.356622
21
152.633217
0
LINE
8
Calque 1
10
372.356622
20
152.633217
11
372.522319
21
152.804787
0
LINE
8
Calque 1
10
372.522319
20
152.804787
11
372.618130
21
153.809700
0
LINE
8
Calque 1
10
372.618130
20
153.809700
11
372.201770
21
156.635100
0
LINE
8
Calque 1
10
372.201770
20
156.635100
11
371.111820
21
159.583700
0
LINE
8
Calque 1
10
371.111820
20
159.583700
11
369.309210
21
162.518400
0
LINE
8
Calque 1
10
369.309210
20
162.518400
11
368.298916
21
163.757350
0
LINE
8
Calque 1
10
368.298916
20
163.757350
11
367.455340
21
164.499200
0
LINE
8
Calque 1
10
367.455340
20
164.499200
11
367.023935
21
164.696764
0
LINE
8
Calque 1
10
367.023935
20
164.696764
11
366.687262
21
164.676462
0
LINE
8
Calque 1
10
366.687262
20
164.676462
11
365.684150
21
163.708100
0
LINE
8
Calque 1
10
365.684150
20
163.708100
11
363.751910
21
161.017400
0
LINE
8
Calque 1
10
363.751910
20
161.017400
11
362.209510
21
157.685900
0
LINE
8
Calque 1
10
362.209510
20
157.685900
11
361.366640
21
154.623100
0
LINE
8
Calque 1
10
361.366640
20
154.623100
11
361.306027
21
153.587825
0
LINE
8
Calque 1
10
361.306027
20
153.587825
11
361.507630
21
152.985600
0
LINE
8
Calque 1
10
361.507630
20
152.985600
11
361.869914
21
152.707062
0
LINE
8
Calque 1
10
361.869914
20
152.707062
11
362.281210
21
152.591200
0
LINE
8
Calque 1
10
362.281210
20
152.591200
11
363.133900
21
152.921900
0
LINE
8
Calque 1
10
363.133900
20
152.921900
11
363.133900
21
152.921900
0
LINE
8
Calque 1
10
352.314900
20
164.130000
11
354.765167
21
164.856700
0
LINE
8
Calque 1
10
354.765167
20
164.856700
11
356.869520
21
165.686900
0
LINE
8
Calque 1
10
356.869520
20
165.686900
11
360.778070
21
167.916300
0
LINE
8
Calque 1
10
360.778070
20
167.916300
11
362.336910
21
169.049750
0
LINE
8
Calque 1
10
362.336910
20
169.049750
11
362.708289
21
169.453134
0
LINE
8
Calque 1
10
362.708289
20
169.453134
11
362.828590
21
169.766500
0
LINE
8
Calque 1
10
362.828590
20
169.766500
11
362.575996
21
170.326538
0
LINE
8
Calque 1
10
362.575996
20
170.326538
11
361.968690
21
170.936000
0
LINE
8
Calque 1
10
361.968690
20
170.936000
11
360.050460
21
172.109500
0
LINE
8
Calque 1
10
360.050460
20
172.109500
11
355.817130
21
173.755500
0
LINE
8
Calque 1
10
355.817130
20
173.755500
11
351.240160
21
175.531200
0
LINE
8
Calque 1
10
351.240160
20
175.531200
11
348.639060
21
177.105000
0
LINE
8
Calque 1
10
348.639060
20
177.105000
11
347.439930
21
178.020300
0
LINE
8
Calque 1
10
347.439930
20
178.020300
11
345.410820
21
177.335500
0
LINE
8
Calque 1
10
345.410820
20
177.335500
11
341.926510
21
175.931800
0
LINE
8
Calque 1
10
341.926510
20
175.931800
11
340.471300
21
175.213000
0
LINE
8
Calque 1
10
340.471300
20
175.213000
11
340.394400
21
173.183900
0
LINE
8
Calque 1
10
340.394400
20
173.183900
11
340.454639
21
171.231688
0
LINE
8
Calque 1
10
340.454639
20
171.231688
11
340.725110
21
169.397300
0
LINE
8
Calque 1
10
340.725110
20
169.397300
11
341.801170
21
166.226700
0
LINE
8
Calque 1
10
341.801170
20
166.226700
11
342.484951
21
165.085138
0
LINE
8
Calque 1
10
342.484951
20
165.085138
11
343.190250
21
164.324800
0
LINE
8
Calque 1
10
343.190250
20
164.324800
11
344.704620
21
163.510500
0
LINE
8
Calque 1
10
344.704620
20
163.510500
11
345.821474
21
163.305412
0
LINE
8
Calque 1
10
345.821474
20
163.305412
11
347.558330
21
163.331100
0
LINE
8
Calque 1
10
347.558330
20
163.331100
11
349.805296
21
163.625888
0
LINE
8
Calque 1
10
349.805296
20
163.625888
11
352.314890
21
164.130000
0
LINE
8
Calque 1
10
352.314890
20
164.130000
11
352.314900
21
164.130000
0
LINE
8
Calque 1
10
390.431400
20
163.939700
11
391.259989
21
164.612675
0
LINE
8
Calque 1
10
391.259989
20
164.612675
11
391.924440
21
165.410000
0
LINE
8
Calque 1
10
391.924440
20
165.410000
11
393.001070
21
167.833800
0
LINE
8
Calque 1
10
393.001070
20
167.833800
11
393.462900
21
169.637288
0
LINE
8
Calque 1
10
393.462900
20
169.637288
11
393.830290
21
171.813900
0
LINE
8
Calque 1
10
393.830290
20
171.813900
11
394.004786
21
173.931938
0
LINE
8
Calque 1
10
394.004786
20
173.931938
11
393.924285
21
174.467930
0
LINE
8
Calque 1
10
393.924285
20
174.467930
11
393.724310
21
174.876000
0
LINE
8
Calque 1
10
393.724310
20
174.876000
11
392.774803
21
175.591350
0
LINE
8
Calque 1
10
392.774803
20
175.591350
11
390.825410
21
176.482500
0
LINE
8
Calque 1
10
390.825410
20
176.482500
11
387.497020
21
177.708700
0
LINE
8
Calque 1
10
387.497020
20
177.708700
11
386.625390
21
177.770175
0
LINE
8
Calque 1
10
386.625390
20
177.770175
11
385.625750
21
177.198200
0
LINE
8
Calque 1
10
385.625750
20
177.198200
11
383.440330
21
175.861400
0
LINE
8
Calque 1
10
383.440330
20
175.861400
11
378.342560
21
173.864200
0
LINE
8
Calque 1
10
378.342560
20
173.864200
11
375.130955
21
172.612662
0
LINE
8
Calque 1
10
375.130955
20
172.612662
11
372.953450
21
171.584400
0
LINE
8
Calque 1
10
372.953450
20
171.584400
11
371.858722
21
170.828012
0
LINE
8
Calque 1
10
371.858722
20
170.828012
11
371.250400
21
170.230100
0
LINE
8
Calque 1
10
371.250400
20
170.230100
11
371.146586
21
169.742375
0
LINE
8
Calque 1
10
371.146586
20
169.742375
11
371.438360
21
169.247900
0
LINE
8
Calque 1
10
371.438360
20
169.247900
11
374.303720
21
167.291800
0
LINE
8
Calque 1
10
374.303720
20
167.291800
11
378.321380
21
165.183900
0
LINE
8
Calque 1
10
378.321380
20
165.183900
11
382.025550
21
164.004800
0
LINE
8
Calque 1
10
382.025550
20
164.004800
11
384.921270
21
163.349000
0
LINE
8
Calque 1
10
384.921270
20
163.349000
11
387.600460
21
163.289000
0
LINE
8
Calque 1
10
387.600460
20
163.289000
11
389.277646
21
163.469850
0
LINE
8
Calque 1
10
389.277646
20
163.469850
11
390.431400
21
163.939300
0
LINE
8
Calque 1
10
390.431400
20
163.939300
11
390.431400
21
163.939700
 0 
ENDSEC
 0 
EOF