999
"DXF R12 Output" (www.mydxf.blogspot.com)
 0 
SECTION
 2 
HEADER
 9 
$ACADVER
 1 
AC1009
 9 
$EXTMIN
 10 
 0 
 20 
 0 
 9 
$EXTMAX
 10 
 8.5 
 20 
 11 
 0 
ENDSEC
 0 
SECTION
 2 
ENTITIES
0
LINE
8
Calque 1
10
411.756000
20
361.358000
11
409.761670
21
368.818070
0
LINE
8
Calque 1
10
409.761670
20
368.818070
11
408.635470
21
373.038750
0
LINE
8
Calque 1
10
408.635470
20
373.038750
11
405.085030
21
373.494060
0
LINE
8
Calque 1
10
405.085030
20
373.494060
11
400.403687
21
374.232908
0
LINE
8
Calque 1
10
400.403687
20
374.232908
11
396.065286
21
375.222771
0
LINE
8
Calque 1
10
396.065286
20
375.222771
11
391.876482
21
376.515404
0
LINE
8
Calque 1
10
391.876482
20
376.515404
11
387.643930
21
378.162560
0
LINE
8
Calque 1
10
387.643930
20
378.162560
11
384.865810
21
379.347230
0
LINE
8
Calque 1
10
384.865810
20
379.347230
11
379.375710
21
373.714690
0
LINE
8
Calque 1
10
379.375710
20
373.714690
11
375.498320
21
369.828939
0
LINE
8
Calque 1
10
375.498320
20
369.828939
11
373.885600
21
368.396100
0
LINE
8
Calque 1
10
373.885600
20
368.396100
11
375.586400
21
375.120380
0
LINE
8
Calque 1
10
375.586400
20
375.120380
11
377.461970
21
382.491140
0
LINE
8
Calque 1
10
377.461970
20
382.491140
11
377.636740
21
383.451560
0
LINE
8
Calque 1
10
377.636740
20
383.451560
11
374.372110
21
385.930730
0
LINE
8
Calque 1
10
374.372110
20
385.930730
11
370.389422
21
389.264193
0
LINE
8
Calque 1
10
370.389422
20
389.264193
11
366.471543
21
393.103086
0
LINE
8
Calque 1
10
366.471543
20
393.103086
11
362.942197
21
397.106501
0
LINE
8
Calque 1
10
362.942197
20
397.106501
11
360.125110
21
400.933530
0
LINE
8
Calque 1
10
360.125110
20
400.933530
11
359.726070
21
401.548310
0
LINE
8
Calque 1
10
359.726070
20
401.548310
11
352.214520
21
399.538280
0
LINE
8
Calque 1
10
352.214520
20
399.538280
11
344.607170
21
397.624040
0
LINE
8
Calque 1
10
344.607170
20
397.624040
11
350.064160
21
403.186440
0
LINE
8
Calque 1
10
350.064160
20
403.186440
11
355.616940
21
408.653050
0
LINE
8
Calque 1
10
355.616940
20
408.653050
11
354.709060
21
410.717950
0
LINE
8
Calque 1
10
354.709060
20
410.717950
11
352.880696
21
415.318405
0
LINE
8
Calque 1
10
352.880696
20
415.318405
11
351.452991
21
419.913071
0
LINE
8
Calque 1
10
351.452991
20
419.913071
11
350.403993
21
424.584052
0
LINE
8
Calque 1
10
350.403993
20
424.584052
11
349.711750
21
429.413450
0
LINE
8
Calque 1
10
349.711750
20
429.413450
11
349.405170
21
432.317090
0
LINE
8
Calque 1
10
349.405170
20
432.317090
11
341.810130
21
434.303500
0
LINE
8
Calque 1
10
341.810130
20
434.303500
11
336.501933
21
435.757959
0
LINE
8
Calque 1
10
336.501933
20
435.757959
11
334.405040
21
436.465410
0
LINE
8
Calque 1
10
334.405040
20
436.465410
11
340.812690
21
438.271570
0
LINE
8
Calque 1
10
340.812690
20
438.271570
11
348.248790
21
440.292140
0
LINE
8
Calque 1
10
348.248790
20
440.292140
11
349.467180
21
440.682050
0
LINE
8
Calque 1
10
349.467180
20
440.682050
11
349.635210
21
442.856340
0
LINE
8
Calque 1
10
349.635210
20
442.856340
11
350.186586
21
447.149845
0
LINE
8
Calque 1
10
350.186586
20
447.149845
11
351.170570
21
451.762700
0
LINE
8
Calque 1
10
351.170570
20
451.762700
11
352.519586
21
456.426225
0
LINE
8
Calque 1
10
352.519586
20
456.426225
11
354.166060
21
460.871740
0
LINE
8
Calque 1
10
354.166060
20
460.871740
11
355.587620
21
464.277460
0
LINE
8
Calque 1
10
355.587620
20
464.277460
11
350.046030
21
469.707020
0
LINE
8
Calque 1
10
350.046030
20
469.707020
11
344.604080
21
475.236230
0
LINE
8
Calque 1
10
344.604080
20
475.236230
11
352.199540
21
473.333750
0
LINE
8
Calque 1
10
352.199540
20
473.333750
11
358.184143
21
471.817734
0
LINE
8
Calque 1
10
358.184143
20
471.817734
11
359.447569
21
471.602646
0
LINE
8
Calque 1
10
359.447569
20
471.602646
11
359.889350
21
471.678260
0
LINE
8
Calque 1
10
359.889350
20
471.678260
11
362.144530
21
474.799630
0
LINE
8
Calque 1
10
362.144530
20
474.799630
11
365.068803
21
478.371604
0
LINE
8
Calque 1
10
365.068803
20
478.371604
11
368.495781
21
481.956084
0
LINE
8
Calque 1
10
368.495781
20
481.956084
11
372.161959
21
485.295836
0
LINE
8
Calque 1
10
372.161959
20
485.295836
11
375.803830
21
488.133630
0
LINE
8
Calque 1
10
375.803830
20
488.133630
11
377.073619
21
489.159724
0
LINE
8
Calque 1
10
377.073619
20
489.159724
11
377.589770
21
489.842640
0
LINE
8
Calque 1
10
377.589770
20
489.842640
11
375.741550
21
497.161600
0
LINE
8
Calque 1
10
375.741550
20
497.161600
11
373.899790
21
504.429550
0
LINE
8
Calque 1
10
373.899790
20
504.429550
11
374.334877
21
504.138411
0
LINE
8
Calque 1
10
374.334877
20
504.138411
11
375.514209
21
503.052325
0
LINE
8
Calque 1
10
375.514209
20
503.052325
11
379.386030
21
499.183810
0
LINE
8
Calque 1
10
379.386030
20
499.183810
11
384.865810
21
493.541190
0
LINE
8
Calque 1
10
384.865810
20
493.541190
11
386.942850
21
494.492860
0
LINE
8
Calque 1
10
386.942850
20
494.492860
11
390.759307
21
496.041663
0
LINE
8
Calque 1
10
390.759307
20
496.041663
11
394.978870
21
497.406907
0
LINE
8
Calque 1
10
394.978870
20
497.406907
11
399.324448
21
498.508778
0
LINE
8
Calque 1
10
399.324448
20
498.508778
11
403.518950
21
499.267460
0
LINE
8
Calque 1
10
403.518950
20
499.267460
11
407.590670
21
499.877460
0
LINE
8
Calque 1
10
407.590670
20
499.877460
11
408.619680
21
500.063930
0
LINE
8
Calque 1
10
408.619680
20
500.063930
11
410.023670
21
505.223300
0
LINE
8
Calque 1
10
410.023670
20
505.223300
11
412.005450
21
512.716470
0
LINE
8
Calque 1
10
412.005450
20
512.716470
11
412.468495
21
514.300934
0
LINE
8
Calque 1
10
412.468495
20
514.300934
11
412.770410
21
514.833140
0
LINE
8
Calque 1
10
412.770410
20
514.833140
11
414.883290
21
507.339970
0
LINE
8
Calque 1
10
414.883290
20
507.339970
11
416.882430
21
499.982120
0
LINE
8
Calque 1
10
416.882430
20
499.982120
11
419.960840
21
499.519040
0
LINE
8
Calque 1
10
419.960840
20
499.519040
11
424.770443
21
498.763785
0
LINE
8
Calque 1
10
424.770443
20
498.763785
11
429.252526
21
497.753586
0
LINE
8
Calque 1
10
429.252526
20
497.753586
11
433.477691
21
496.469850
0
LINE
8
Calque 1
10
433.477691
20
496.469850
11
437.516540
21
494.893980
0
LINE
8
Calque 1
10
437.516540
20
494.893980
11
440.614740
21
493.545060
0
LINE
8
Calque 1
10
440.614740
20
493.545060
11
446.045290
21
499.130040
0
LINE
8
Calque 1
10
446.045290
20
499.130040
11
451.596150
21
504.594720
0
LINE
8
Calque 1
10
451.596150
20
504.594720
11
450.908510
21
501.607710
0
LINE
8
Calque 1
10
450.908510
20
501.607710
11
448.900910
21
494.110800
0
LINE
8
Calque 1
10
448.900910
20
494.110800
11
447.701260
21
489.480600
0
LINE
8
Calque 1
10
447.701260
20
489.480600
11
448.296800
21
489.083720
0
LINE
8
Calque 1
10
448.296800
20
489.083720
11
452.266337
21
486.127311
0
LINE
8
Calque 1
10
452.266337
20
486.127311
11
456.287708
21
482.571189
0
LINE
8
Calque 1
10
456.287708
20
482.571189
11
460.062700
21
478.699457
0
LINE
8
Calque 1
10
460.062700
20
478.699457
11
463.293100
21
474.796220
0
LINE
8
Calque 1
10
463.293100
20
474.796220
11
465.374596
21
472.179445
0
LINE
8
Calque 1
10
465.374596
20
472.179445
11
465.939723
21
471.675200
0
LINE
8
Calque 1
10
465.939723
20
471.675200
11
466.326000
21
471.559530
0
LINE
8
Calque 1
10
466.326000
20
471.559530
11
473.852770
21
473.501030
0
LINE
8
Calque 1
10
473.852770
20
473.501030
11
480.941470
21
475.249360
0
LINE
8
Calque 1
10
480.941470
20
475.249360
11
475.448740
21
469.694160
0
LINE
8
Calque 1
10
475.448740
20
469.694160
11
469.833460
21
464.261530
0
LINE
8
Calque 1
10
469.833460
20
464.261530
11
470.789040
21
462.171040
0
LINE
8
Calque 1
10
470.789040
20
462.171040
11
472.436998
21
458.092816
0
LINE
8
Calque 1
10
472.436998
20
458.092816
11
473.818430
21
453.672460
0
LINE
8
Calque 1
10
473.818430
20
453.672460
11
474.912252
21
448.987519
0
LINE
8
Calque 1
10
474.912252
20
448.987519
11
475.697380
21
444.115540
0
LINE
8
Calque 1
10
475.697380
20
444.115540
11
476.147040
21
440.554660
0
LINE
8
Calque 1
10
476.147040
20
440.554660
11
483.613870
21
438.544880
0
LINE
8
Calque 1
10
483.613870
20
438.544880
11
491.212270
21
436.403540
0
LINE
8
Calque 1
10
491.212270
20
436.403540
11
490.433298
21
436.096500
0
LINE
8
Calque 1
10
490.433298
20
436.096500
11
488.375650
21
435.543100
0
LINE
8
Calque 1
10
488.375650
20
435.543100
11
480.781900
21
433.557350
0
LINE
8
Calque 1
10
480.781900
20
433.557350
11
476.156350
21
432.300470
0
LINE
8
Calque 1
10
476.156350
20
432.300470
11
475.819890
21
429.441410
0
LINE
8
Calque 1
10
475.819890
20
429.441410
11
475.139570
21
424.934428
0
LINE
8
Calque 1
10
475.139570
20
424.934428
11
474.172570
21
420.576040
0
LINE
8
Calque 1
10
474.172570
20
420.576040
11
472.907085
21
416.320687
0
LINE
8
Calque 1
10
472.907085
20
416.320687
11
471.331310
21
412.122810
0
LINE
8
Calque 1
10
471.331310
20
412.122810
11
469.864010
21
408.583820
0
LINE
8
Calque 1
10
469.864010
20
408.583820
11
475.464190
21
403.160300
0
LINE
8
Calque 1
10
475.464190
20
403.160300
11
480.955970
21
397.628390
0
LINE
8
Calque 1
10
480.955970
20
397.628390
11
473.337930
21
399.523350
0
LINE
8
Calque 1
10
473.337930
20
399.523350
11
465.828290
21
401.526710
0
LINE
8
Calque 1
10
465.828290
20
401.526710
11
465.299120
21
400.809590
0
LINE
8
Calque 1
10
465.299120
20
400.809590
11
462.153089
21
396.650537
0
LINE
8
Calque 1
10
462.153089
20
396.650537
11
459.706260
21
393.761160
0
LINE
8
Calque 1
10
459.706260
20
393.761160
11
457.689871
21
391.637054
0
LINE
8
Calque 1
10
457.689871
20
391.637054
11
455.462721
21
389.526571
0
LINE
8
Calque 1
10
455.462721
20
389.526571
11
450.482450
21
385.442350
0
LINE
8
Calque 1
10
450.482450
20
385.442350
11
448.386011
21
383.747586
0
LINE
8
Calque 1
10
448.386011
20
383.747586
11
447.997470
21
383.262588
0
LINE
8
Calque 1
10
447.997470
20
383.262588
11
447.923440
21
382.894450
0
LINE
8
Calque 1
10
447.923440
20
382.894450
11
449.721750
21
375.709730
0
LINE
8
Calque 1
10
449.721750
20
375.709730
11
451.563340
21
368.565980
0
LINE
8
Calque 1
10
451.563340
20
368.565980
11
451.177640
21
368.807022
0
LINE
8
Calque 1
10
451.177640
20
368.807022
11
450.031361
21
369.854502
0
LINE
8
Calque 1
10
450.031361
20
369.854502
11
446.165480
21
373.695530
0
LINE
8
Calque 1
10
446.165480
20
373.695530
11
440.637520
21
379.354240
0
LINE
8
Calque 1
10
440.637520
20
379.354240
11
437.490200
21
378.010270
0
LINE
8
Calque 1
10
437.490200
20
378.010270
11
433.360473
21
376.440797
0
LINE
8
Calque 1
10
433.360473
20
376.440797
11
428.952168
21
375.127411
0
LINE
8
Calque 1
10
428.952168
20
375.127411
11
424.382203
21
374.100587
0
LINE
8
Calque 1
10
424.382203
20
374.100587
11
419.767500
21
373.390800
0
LINE
8
Calque 1
10
419.767500
20
373.390800
11
416.906450
21
373.054110
0
LINE
8
Calque 1
10
416.906450
20
373.054110
11
416.454340
21
371.471500
0
LINE
8
Calque 1
10
416.454340
20
371.471500
11
414.489810
21
364.200350
0
LINE
8
Calque 1
10
414.489810
20
364.200350
11
412.800720
21
358.315130
0
LINE
8
Calque 1
10
412.800720
20
358.315130
11
412.420920
21
359.127791
0
LINE
8
Calque 1
10
412.420920
20
359.127791
11
411.755910
21
361.357840
0
LINE
8
Calque 1
10
411.755910
20
361.357840
11
411.756000
21
361.358000
0
LINE
8
Calque 1
10
421.102700
20
378.086100
11
426.016324
21
379.032097
0
LINE
8
Calque 1
10
426.016324
20
379.032097
11
430.733517
21
380.327932
0
LINE
8
Calque 1
10
430.733517
20
380.327932
11
435.256524
21
381.974756
0
LINE
8
Calque 1
10
435.256524
20
381.974756
11
439.587587
21
383.973720
0
LINE
8
Calque 1
10
439.587587
20
383.973720
11
443.728953
21
386.325976
0
LINE
8
Calque 1
10
443.728953
20
386.325976
11
447.682864
21
389.032673
0
LINE
8
Calque 1
10
447.682864
20
389.032673
11
451.451565
21
392.094965
0
LINE
8
Calque 1
10
451.451565
20
392.094965
11
455.037300
21
395.514000
0
LINE
8
Calque 1
10
455.037300
20
395.514000
11
458.394229
21
399.202709
0
LINE
8
Calque 1
10
458.394229
20
399.202709
11
461.206886
21
402.836585
0
LINE
8
Calque 1
10
461.206886
20
402.836585
11
463.626800
21
406.630744
0
LINE
8
Calque 1
10
463.626800
20
406.630744
11
465.805500
21
410.800300
0
LINE
8
Calque 1
10
465.805500
20
410.800300
11
468.114029
21
416.227635
0
LINE
8
Calque 1
10
468.114029
20
416.227635
11
469.793955
21
421.558773
0
LINE
8
Calque 1
10
469.793955
20
421.558773
11
470.902208
21
427.013949
0
LINE
8
Calque 1
10
470.902208
20
427.013949
11
471.495720
21
432.813400
0
LINE
8
Calque 1
10
471.495720
20
432.813400
11
471.605094
21
436.809000
0
LINE
8
Calque 1
10
471.605094
20
436.809000
11
471.462988
21
440.746255
0
LINE
8
Calque 1
10
471.462988
20
440.746255
11
471.072957
21
444.618047
0
LINE
8
Calque 1
10
471.072957
20
444.618047
11
470.438554
21
448.417258
0
LINE
8
Calque 1
10
470.438554
20
448.417258
11
469.563334
21
452.136770
0
LINE
8
Calque 1
10
469.563334
20
452.136770
11
468.450851
21
455.769466
0
LINE
8
Calque 1
10
468.450851
20
455.769466
11
467.104660
21
459.308228
0
LINE
8
Calque 1
10
467.104660
20
459.308228
11
465.528315
21
462.745938
0
LINE
8
Calque 1
10
465.528315
20
462.745938
11
463.725370
21
466.075477
0
LINE
8
Calque 1
10
463.725370
20
466.075477
11
461.699379
21
469.289729
0
LINE
8
Calque 1
10
461.699379
20
469.289729
11
459.453898
21
472.381575
0
LINE
8
Calque 1
10
459.453898
20
472.381575
11
456.992479
21
475.343898
0
LINE
8
Calque 1
10
456.992479
20
475.343898
11
454.318677
21
478.169580
0
LINE
8
Calque 1
10
454.318677
20
478.169580
11
451.436047
21
480.851503
0
LINE
8
Calque 1
10
451.436047
20
480.851503
11
448.348144
21
483.382549
0
LINE
8
Calque 1
10
448.348144
20
483.382549
11
445.058520
21
485.755600
0
LINE
8
Calque 1
10
445.058520
20
485.755600
11
440.750188
21
488.288134
0
LINE
8
Calque 1
10
440.750188
20
488.288134
11
435.670677
21
490.687264
0
LINE
8
Calque 1
10
435.670677
20
490.687264
11
430.459088
21
492.680230
0
LINE
8
Calque 1
10
430.459088
20
492.680230
11
425.754520
21
493.994270
0
LINE
8
Calque 1
10
425.754520
20
493.994270
11
421.639633
21
494.722010
0
LINE
8
Calque 1
10
421.639633
20
494.722010
11
417.557375
21
495.183396
0
LINE
8
Calque 1
10
417.557375
20
495.183396
11
413.513073
21
495.378701
0
LINE
8
Calque 1
10
413.513073
20
495.378701
11
409.512057
21
495.308198
0
LINE
8
Calque 1
10
409.512057
20
495.308198
11
405.559656
21
494.972157
0
LINE
8
Calque 1
10
405.559656
20
494.972157
11
401.661197
21
494.370853
0
LINE
8
Calque 1
10
401.661197
20
494.370853
11
397.822008
21
493.504556
0
LINE
8
Calque 1
10
397.822008
20
493.504556
11
394.047420
21
492.373540
0
LINE
8
Calque 1
10
394.047420
20
492.373540
11
390.783216
21
491.173089
0
LINE
8
Calque 1
10
390.783216
20
491.173089
11
387.654982
21
489.820303
0
LINE
8
Calque 1
10
387.654982
20
489.820303
11
384.651228
21
488.308039
0
LINE
8
Calque 1
10
384.651228
20
488.308039
11
381.760464
21
486.629154
0
LINE
8
Calque 1
10
381.760464
20
486.629154
11
378.971201
21
484.776505
0
LINE
8
Calque 1
10
378.971201
20
484.776505
11
376.271949
21
482.742948
0
LINE
8
Calque 1
10
376.271949
20
482.742948
11
373.651219
21
480.521341
0
LINE
8
Calque 1
10
373.651219
20
480.521341
11
371.097520
21
478.104540
0
LINE
8
Calque 1
10
371.097520
20
478.104540
11
367.855047
21
474.615022
0
LINE
8
Calque 1
10
367.855047
20
474.615022
11
364.940013
21
470.940296
0
LINE
8
Calque 1
10
364.940013
20
470.940296
11
362.353875
21
467.083227
0
LINE
8
Calque 1
10
362.353875
20
467.083227
11
360.098086
21
463.046681
0
LINE
8
Calque 1
10
360.098086
20
463.046681
11
358.174102
21
458.833524
0
LINE
8
Calque 1
10
358.174102
20
458.833524
11
356.583376
21
454.446621
0
LINE
8
Calque 1
10
356.583376
20
454.446621
11
355.327364
21
449.888838
0
LINE
8
Calque 1
10
355.327364
20
449.888838
11
354.407520
21
445.163040
0
LINE
8
Calque 1
10
354.407520
20
445.163040
11
354.033744
21
441.281705
0
LINE
8
Calque 1
10
354.033744
20
441.281705
11
353.905096
21
436.554411
0
LINE
8
Calque 1
10
353.905096
20
436.554411
11
354.022586
21
431.831957
0
LINE
8
Calque 1
10
354.022586
20
431.831957
11
354.387220
21
427.965140
0
LINE
8
Calque 1
10
354.387220
20
427.965140
11
355.054259
21
424.349376
0
LINE
8
Calque 1
10
355.054259
20
424.349376
11
355.920285
21
420.819343
0
LINE
8
Calque 1
10
355.920285
20
420.819343
11
356.981096
21
417.380829
0
LINE
8
Calque 1
10
356.981096
20
417.380829
11
358.232487
21
414.039621
0
LINE
8
Calque 1
10
358.232487
20
414.039621
11
359.670254
21
410.801508
0
LINE
8
Calque 1
10
359.670254
20
410.801508
11
361.290193
21
407.672277
0
LINE
8
Calque 1
10
361.290193
20
407.672277
11
363.088099
21
404.657717
0
LINE
8
Calque 1
10
363.088099
20
404.657717
11
365.059769
21
401.763615
0
LINE
8
Calque 1
10
365.059769
20
401.763615
11
367.200998
21
398.995759
0
LINE
8
Calque 1
10
367.200998
20
398.995759
11
369.507582
21
396.359937
0
LINE
8
Calque 1
10
369.507582
20
396.359937
11
371.975318
21
393.861937
0
LINE
8
Calque 1
10
371.975318
20
393.861937
11
374.600001
21
391.507546
0
LINE
8
Calque 1
10
374.600001
20
391.507546
11
377.377426
21
389.302553
0
LINE
8
Calque 1
10
377.377426
20
389.302553
11
380.303391
21
387.252746
0
LINE
8
Calque 1
10
380.303391
20
387.252746
11
383.373690
21
385.363912
0
LINE
8
Calque 1
10
383.373690
20
385.363912
11
386.584120
21
383.641840
0
LINE
8
Calque 1
10
386.584120
20
383.641840
11
391.406776
21
381.501960
0
LINE
8
Calque 1
10
391.406776
20
381.501960
11
396.417134
21
379.810988
0
LINE
8
Calque 1
10
396.417134
20
379.810988
11
401.670760
21
378.552956
0
LINE
8
Calque 1
10
401.670760
20
378.552956
11
407.223220
21
377.711900
0
LINE
8
Calque 1
10
407.223220
20
377.711900
11
410.197468
21
377.558378
0
LINE
8
Calque 1
10
410.197468
20
377.558378
11
414.060724
21
377.584649
0
LINE
8
Calque 1
10
414.060724
20
377.584649
11
417.975128
21
377.768118
0
LINE
8
Calque 1
10
417.975128
20
377.768118
11
421.102820
21
378.086190
0
LINE
8
Calque 1
10
421.102820
20
378.086190
11
421.102700
21
378.086100
0
LINE
8
Calque 1
10
408.338500
20
380.873890
11
403.043563
21
381.571312
0
LINE
8
Calque 1
10
403.043563
20
381.571312
11
397.796556
21
382.771826
0
LINE
8
Calque 1
10
397.796556
20
382.771826
11
392.717671
21
384.442015
0
LINE
8
Calque 1
10
392.717671
20
384.442015
11
387.927100
21
386.548460
0
LINE
8
Calque 1
10
387.927100
20
386.548460
11
384.954889
21
388.148639
0
LINE
8
Calque 1
10
384.954889
20
388.148639
11
382.111252
21
389.897195
0
LINE
8
Calque 1
10
382.111252
20
389.897195
11
379.399595
21
391.789527
0
LINE
8
Calque 1
10
379.399595
20
391.789527
11
376.823323
21
393.821034
0
LINE
8
Calque 1
10
376.823323
20
393.821034
11
374.385844
21
395.987112
0
LINE
8
Calque 1
10
374.385844
20
395.987112
11
372.090561
21
398.283160
0
LINE
8
Calque 1
10
372.090561
20
398.283160
11
369.940882
21
400.704576
0
LINE
8
Calque 1
10
369.940882
20
400.704576
11
367.940212
21
403.246759
0
LINE
8
Calque 1
10
367.940212
20
403.246759
11
366.091958
21
405.905105
0
LINE
8
Calque 1
10
366.091958
20
405.905105
11
364.399525
21
408.675014
0
LINE
8
Calque 1
10
364.399525
20
408.675014
11
362.866319
21
411.551883
0
LINE
8
Calque 1
10
362.866319
20
411.551883
11
361.495745
21
414.531110
0
LINE
8
Calque 1
10
361.495745
20
414.531110
11
360.291211
21
417.608093
0
LINE
8
Calque 1
10
360.291211
20
417.608093
11
359.256121
21
420.778230
0
LINE
8
Calque 1
10
359.256121
20
420.778230
11
358.393882
21
424.036920
0
LINE
8
Calque 1
10
358.393882
20
424.036920
11
357.707900
21
427.379560
0
LINE
8
Calque 1
10
357.707900
20
427.379560
11
357.247767
21
431.386266
0
LINE
8
Calque 1
10
357.247767
20
431.386266
11
357.067017
21
436.123721
0
LINE
8
Calque 1
10
357.067017
20
436.123721
11
357.171736
21
440.835745
0
LINE
8
Calque 1
10
357.171736
20
440.835745
11
357.568010
21
444.766160
0
LINE
8
Calque 1
10
357.568010
20
444.766160
11
358.396691
21
449.002575
0
LINE
8
Calque 1
10
358.396691
20
449.002575
11
359.441572
21
452.921604
0
LINE
8
Calque 1
10
359.441572
20
452.921604
11
360.746948
21
456.667711
0
LINE
8
Calque 1
10
360.746948
20
456.667711
11
362.357110
21
460.385360
0
LINE
8
Calque 1
10
362.357110
20
460.385360
11
365.073968
21
465.438830
0
LINE
8
Calque 1
10
365.073968
20
465.438830
11
368.228857
21
470.098663
0
LINE
8
Calque 1
10
368.228857
20
470.098663
11
371.783961
21
474.351622
0
LINE
8
Calque 1
10
371.783961
20
474.351622
11
375.701463
21
478.184468
0
LINE
8
Calque 1
10
375.701463
20
478.184468
11
379.943548
21
481.583962
0
LINE
8
Calque 1
10
379.943548
20
481.583962
11
384.472399
21
484.536865
0
LINE
8
Calque 1
10
384.472399
20
484.536865
11
389.250200
21
487.029940
0
LINE
8
Calque 1
10
389.250200
20
487.029940
11
394.239135
21
489.049947
0
LINE
8
Calque 1
10
394.239135
20
489.049947
11
399.401388
21
490.583649
0
LINE
8
Calque 1
10
399.401388
20
490.583649
11
404.699143
21
491.617806
0
LINE
8
Calque 1
10
404.699143
20
491.617806
11
410.094584
21
492.139181
0
LINE
8
Calque 1
10
410.094584
20
492.139181
11
415.549894
21
492.134533
0
LINE
8
Calque 1
10
415.549894
20
492.134533
11
421.027258
21
491.590626
0
LINE
8
Calque 1
10
421.027258
20
491.590626
11
426.488860
21
490.494221
0
LINE
8
Calque 1
10
426.488860
20
490.494221
11
431.896882
21
488.832078
0
LINE
8
Calque 1
10
431.896882
20
488.832078
11
437.213510
21
486.590960
0
LINE
8
Calque 1
10
437.213510
20
486.590960
11
440.443830
21
484.880152
0
LINE
8
Calque 1
10
440.443830
20
484.880152
11
443.601186
21
482.904843
0
LINE
8
Calque 1
10
443.601186
20
482.904843
11
446.658514
21
480.689018
0
LINE
8
Calque 1
10
446.658514
20
480.689018
11
449.588755
21
478.256659
0
LINE
8
Calque 1
10
449.588755
20
478.256659
11
452.364846
21
475.631750
0
LINE
8
Calque 1
10
452.364846
20
475.631750
11
454.959727
21
472.838275
0
LINE
8
Calque 1
10
454.959727
20
472.838275
11
457.346335
21
469.900217
0
LINE
8
Calque 1
10
457.346335
20
469.900217
11
459.497610
21
466.841560
0
LINE
8
Calque 1
10
459.497610
20
466.841560
11
461.070377
21
464.267277
0
LINE
8
Calque 1
10
461.070377
20
464.267277
11
462.506166
21
461.592200
0
LINE
8
Calque 1
10
462.506166
20
461.592200
11
463.799846
21
458.830070
0
LINE
8
Calque 1
10
463.799846
20
458.830070
11
464.946283
21
455.994629
0
LINE
8
Calque 1
10
464.946283
20
455.994629
11
465.940345
21
453.099616
0
LINE
8
Calque 1
10
465.940345
20
453.099616
11
466.776900
21
450.158773
0
LINE
8
Calque 1
10
466.776900
20
450.158773
11
467.450816
21
447.185841
0
LINE
8
Calque 1
10
467.450816
20
447.185841
11
467.956960
21
444.194560
0
LINE
8
Calque 1
10
467.956960
20
444.194560
11
468.255297
21
440.688768
0
LINE
8
Calque 1
10
468.255297
20
440.688768
11
468.350512
21
436.390123
0
LINE
8
Calque 1
10
468.350512
20
436.390123
11
468.243652
21
432.072896
0
LINE
8
Calque 1
10
468.243652
20
432.072896
11
467.935760
21
428.511360
0
LINE
8
Calque 1
10
467.935760
20
428.511360
11
467.310764
21
424.957602
0
LINE
8
Calque 1
10
467.310764
20
424.957602
11
466.433615
21
421.419267
0
LINE
8
Calque 1
10
466.433615
20
421.419267
11
465.313991
21
417.918821
0
LINE
8
Calque 1
10
465.313991
20
417.918821
11
463.961569
21
414.478730
0
LINE
8
Calque 1
10
463.961569
20
414.478730
11
462.386027
21
411.121462
0
LINE
8
Calque 1
10
462.386027
20
411.121462
11
460.597043
21
407.869483
0
LINE
8
Calque 1
10
460.597043
20
407.869483
11
458.604295
21
404.745260
0
LINE
8
Calque 1
10
458.604295
20
404.745260
11
456.417460
21
401.771260
0
LINE
8
Calque 1
10
456.417460
20
401.771260
11
454.669659
21
399.751099
0
LINE
8
Calque 1
10
454.669659
20
399.751099
11
452.367465
21
397.339431
0
LINE
8
Calque 1
10
452.367465
20
397.339431
11
449.978129
21
395.008585
0
LINE
8
Calque 1
10
449.978129
20
395.008585
11
447.968900
21
393.230890
0
LINE
8
Calque 1
10
447.968900
20
393.230890
11
443.659164
21
390.085623
0
LINE
8
Calque 1
10
443.659164
20
390.085623
11
439.065414
21
387.366498
0
LINE
8
Calque 1
10
439.065414
20
387.366498
11
434.237647
21
385.089106
0
LINE
8
Calque 1
10
434.237647
20
385.089106
11
429.225862
21
383.269036
0
LINE
8
Calque 1
10
429.225862
20
383.269036
11
424.080057
21
381.921880
0
LINE
8
Calque 1
10
424.080057
20
381.921880
11
418.850230
21
381.063226
0
LINE
8
Calque 1
10
418.850230
20
381.063226
11
413.586378
21
380.708666
0
LINE
8
Calque 1
10
413.586378
20
380.708666
11
408.338500
21
380.873790
0
LINE
8
Calque 1
10
408.338500
20
380.873790
11
408.338500
21
380.873890
0
LINE
8
Calque 1
10
418.279890
20
384.858770
11
421.954069
21
385.395637
0
LINE
8
Calque 1
10
421.954069
20
385.395637
11
425.541531
21
386.176369
0
LINE
8
Calque 1
10
425.541531
20
386.176369
11
429.033131
21
387.193810
0
LINE
8
Calque 1
10
429.033131
20
387.193810
11
432.419721
21
388.440803
0
LINE
8
Calque 1
10
432.419721
20
388.440803
11
435.692154
21
389.910191
0
LINE
8
Calque 1
10
435.692154
20
389.910191
11
438.841283
21
391.594816
0
LINE
8
Calque 1
10
438.841283
20
391.594816
11
441.857961
21
393.487524
0
LINE
8
Calque 1
10
441.857961
20
393.487524
11
444.733040
21
395.581155
0
LINE
8
Calque 1
10
444.733040
20
395.581155
11
447.457374
21
397.868554
0
LINE
8
Calque 1
10
447.457374
20
397.868554
11
450.021816
21
400.342564
0
LINE
8
Calque 1
10
450.021816
20
400.342564
11
452.417218
21
402.996028
0
LINE
8
Calque 1
10
452.417218
20
402.996028
11
454.634434
21
405.821789
0
LINE
8
Calque 1
10
454.634434
20
405.821789
11
456.664316
21
408.812691
0
LINE
8
Calque 1
10
456.664316
20
408.812691
11
458.497717
21
411.961576
0
LINE
8
Calque 1
10
458.497717
20
411.961576
11
460.125491
21
415.261288
0
LINE
8
Calque 1
10
460.125491
20
415.261288
11
461.538490
21
418.704670
0
LINE
8
Calque 1
10
461.538490
20
418.704670
11
462.681489
21
422.173472
0
LINE
8
Calque 1
10
462.681489
20
422.173472
11
463.562690
21
425.693991
0
LINE
8
Calque 1
10
463.562690
20
425.693991
11
464.185092
21
429.252124
0
LINE
8
Calque 1
10
464.185092
20
429.252124
11
464.551694
21
432.833772
0
LINE
8
Calque 1
10
464.551694
20
432.833772
11
464.665498
21
436.424832
0
LINE
8
Calque 1
10
464.665498
20
436.424832
11
464.529503
21
440.011205
0
LINE
8
Calque 1
10
464.529503
20
440.011205
11
464.146709
21
443.578789
0
LINE
8
Calque 1
10
464.146709
20
443.578789
11
463.520115
21
447.113482
0
LINE
8
Calque 1
10
463.520115
20
447.113482
11
462.652722
21
450.601185
0
LINE
8
Calque 1
10
462.652722
20
450.601185
11
461.547530
21
454.027796
0
LINE
8
Calque 1
10
461.547530
20
454.027796
11
460.207539
21
457.379214
0
LINE
8
Calque 1
10
460.207539
20
457.379214
11
458.635748
21
460.641337
0
LINE
8
Calque 1
10
458.635748
20
460.641337
11
456.835158
21
463.800066
0
LINE
8
Calque 1
10
456.835158
20
463.800066
11
454.808768
21
466.841298
0
LINE
8
Calque 1
10
454.808768
20
466.841298
11
452.559579
21
469.750933
0
LINE
8
Calque 1
10
452.559579
20
469.750933
11
450.090590
21
472.514870
0
LINE
8
Calque 1
10
450.090590
20
472.514870
11
447.285748
21
475.223640
0
LINE
8
Calque 1
10
447.285748
20
475.223640
11
444.295645
21
477.700402
0
LINE
8
Calque 1
10
444.295645
20
477.700402
11
441.129986
21
479.939825
0
LINE
8
Calque 1
10
441.129986
20
479.939825
11
437.798475
21
481.936579
0
LINE
8
Calque 1
10
437.798475
20
481.936579
11
434.310816
21
483.685331
0
LINE
8
Calque 1
10
434.310816
20
483.685331
11
430.676712
21
485.180751
0
LINE
8
Calque 1
10
430.676712
20
485.180751
11
426.905869
21
486.417508
0
LINE
8
Calque 1
10
426.905869
20
486.417508
11
423.007990
21
487.390270
0
LINE
8
Calque 1
10
423.007990
20
487.390270
11
419.415595
21
487.914464
0
LINE
8
Calque 1
10
419.415595
20
487.914464
11
415.020577
21
488.219041
0
LINE
8
Calque 1
10
415.020577
20
488.219041
11
410.565167
21
488.273863
0
LINE
8
Calque 1
10
410.565167
20
488.273863
11
406.791590
21
488.048790
0
LINE
8
Calque 1
10
406.791590
20
488.048790
11
403.525828
21
487.562544
0
LINE
8
Calque 1
10
403.525828
20
487.562544
11
400.327331
21
486.883395
0
LINE
8
Calque 1
10
400.327331
20
486.883395
11
397.202776
21
486.016019
0
LINE
8
Calque 1
10
397.202776
20
486.016019
11
394.158838
21
484.965088
0
LINE
8
Calque 1
10
394.158838
20
484.965088
11
391.202196
21
483.735278
0
LINE
8
Calque 1
10
391.202196
20
483.735278
11
388.339525
21
482.331261
0
LINE
8
Calque 1
10
388.339525
20
482.331261
11
385.577501
21
480.757711
0
LINE
8
Calque 1
10
385.577501
20
480.757711
11
382.922802
21
479.019302
0
LINE
8
Calque 1
10
382.922802
20
479.019302
11
380.382105
21
477.120709
0
LINE
8
Calque 1
10
380.382105
20
477.120709
11
377.962085
21
475.066605
0
LINE
8
Calque 1
10
377.962085
20
475.066605
11
375.669420
21
472.861664
0
LINE
8
Calque 1
10
375.669420
20
472.861664
11
373.510785
21
470.510560
0
LINE
8
Calque 1
10
373.510785
20
470.510560
11
371.492859
21
468.017967
0
LINE
8
Calque 1
10
371.492859
20
468.017967
11
369.622316
21
465.388558
0
LINE
8
Calque 1
10
369.622316
20
465.388558
11
367.905834
21
462.627008
0
LINE
8
Calque 1
10
367.905834
20
462.627008
11
366.350090
21
459.737990
0
LINE
8
Calque 1
10
366.350090
20
459.737990
11
364.543435
21
455.727448
0
LINE
8
Calque 1
10
364.543435
20
455.727448
11
363.089714
21
451.646174
0
LINE
8
Calque 1
10
363.089714
20
451.646174
11
361.990207
21
447.503696
0
LINE
8
Calque 1
10
361.990207
20
447.503696
11
361.246190
21
443.309540
0
LINE
8
Calque 1
10
361.246190
20
443.309540
11
360.858943
21
439.073234
0
LINE
8
Calque 1
10
360.858943
20
439.073234
11
360.829743
21
434.804306
0
LINE
8
Calque 1
10
360.829743
20
434.804306
11
361.159869
21
430.512282
0
LINE
8
Calque 1
10
361.159869
20
430.512282
11
361.850600
21
426.206690
0
LINE
8
Calque 1
10
361.850600
20
426.206690
11
362.761020
21
422.434051
0
LINE
8
Calque 1
10
362.761020
20
422.434051
11
363.937613
21
418.774820
0
LINE
8
Calque 1
10
363.937613
20
418.774820
11
365.369374
21
415.240060
0
LINE
8
Calque 1
10
365.369374
20
415.240060
11
367.045301
21
411.840832
0
LINE
8
Calque 1
10
367.045301
20
411.840832
11
368.954390
21
408.588198
0
LINE
8
Calque 1
10
368.954390
20
408.588198
11
371.085637
21
405.493220
0
LINE
8
Calque 1
10
371.085637
20
405.493220
11
373.428040
21
402.566959
0
LINE
8
Calque 1
10
373.428040
20
402.566959
11
375.970595
21
399.820477
0
LINE
8
Calque 1
10
375.970595
20
399.820477
11
378.702299
21
397.264837
0
LINE
8
Calque 1
10
378.702299
20
397.264837
11
381.612147
21
394.911099
0
LINE
8
Calque 1
10
381.612147
20
394.911099
11
384.689138
21
392.770326
0
LINE
8
Calque 1
10
384.689138
20
392.770326
11
387.922267
21
390.853579
0
LINE
8
Calque 1
10
387.922267
20
390.853579
11
391.300531
21
389.171920
0
LINE
8
Calque 1
10
391.300531
20
389.171920
11
394.812927
21
387.736411
0
LINE
8
Calque 1
10
394.812927
20
387.736411
11
398.448451
21
386.558114
0
LINE
8
Calque 1
10
398.448451
20
386.558114
11
402.196100
21
385.648090
0
LINE
8
Calque 1
10
402.196100
20
385.648090
11
406.176832
21
385.008644
0
LINE
8
Calque 1
10
406.176832
20
385.008644
11
410.310054
21
384.657779
0
LINE
8
Calque 1
10
410.310054
20
384.657779
11
414.407273
21
384.604744
0
LINE
8
Calque 1
10
414.407273
20
384.604744
11
418.280000
21
384.858790
0
LINE
8
Calque 1
10
418.280000
20
384.858790
11
418.279890
21
384.858770
0
LINE
8
Calque 1
10
411.075930
20
397.471870
11
407.845780
21
405.102450
0
LINE
8
Calque 1
10
407.845780
20
405.102450
11
406.168210
21
409.095010
0
LINE
8
Calque 1
10
406.168210
20
409.095010
11
406.559510
21
413.965990
0
LINE
8
Calque 1
10
406.559510
20
413.965990
11
407.872400
21
431.536990
0
LINE
8
Calque 1
10
407.872400
20
431.536990
11
408.961440
21
446.022890
0
LINE
8
Calque 1
10
408.961440
20
446.022890
11
409.128900
21
447.808820
0
LINE
8
Calque 1
10
409.128900
20
447.808820
11
408.015000
21
447.809000
0
LINE
8
Calque 1
10
408.015000
20
447.809000
11
407.384931
21
447.764256
0
LINE
8
Calque 1
10
407.384931
20
447.764256
11
406.847247
21
447.581568
0
LINE
8
Calque 1
10
406.847247
20
447.581568
11
405.481240
21
446.511630
0
LINE
8
Calque 1
10
405.481240
20
446.511630
11
404.061700
21
445.214250
0
LINE
8
Calque 1
10
404.061700
20
445.214250
11
401.908190
21
447.420540
0
LINE
8
Calque 1
10
401.908190
20
447.420540
11
399.754690
21
449.626830
0
LINE
8
Calque 1
10
399.754690
20
449.626830
11
400.293840
21
450.371560
0
LINE
8
Calque 1
10
400.293840
20
450.371560
11
402.439310
21
452.694120
0
LINE
8
Calque 1
10
402.439310
20
452.694120
11
404.045640
21
454.271940
0
LINE
8
Calque 1
10
404.045640
20
454.271940
11
405.298720
21
453.090990
0
LINE
8
Calque 1
10
405.298720
20
453.090990
11
406.645090
21
451.711610
0
LINE
8
Calque 1
10
406.645090
20
451.711610
11
407.087513
21
451.571463
0
LINE
8
Calque 1
10
407.087513
20
451.571463
11
408.020210
21
451.513170
0
LINE
8
Calque 1
10
408.020210
20
451.513170
11
409.302000
21
451.513000
0
LINE
8
Calque 1
10
409.302000
20
451.513000
11
409.454110
21
452.902060
0
LINE
8
Calque 1
10
409.454110
20
452.902060
11
410.438570
21
465.731360
0
LINE
8
Calque 1
10
410.438570
20
465.731360
11
410.499270
21
467.117470
0
LINE
8
Calque 1
10
410.499270
20
467.117470
11
408.559770
21
468.568500
0
LINE
8
Calque 1
10
408.559770
20
468.568500
11
406.503520
21
470.136290
0
LINE
8
Calque 1
10
406.503520
20
470.136290
11
406.512835
21
470.418971
0
LINE
8
Calque 1
10
406.512835
20
470.418971
11
406.930327
21
471.256196
0
LINE
8
Calque 1
10
406.930327
20
471.256196
11
409.803440
21
476.053060
0
LINE
8
Calque 1
10
409.803440
20
476.053060
11
412.777690
21
480.617120
0
LINE
8
Calque 1
10
412.777690
20
480.617120
11
415.404500
21
476.584817
0
LINE
8
Calque 1
10
415.404500
20
476.584817
11
418.569720
21
471.171270
0
LINE
8
Calque 1
10
418.569720
20
471.171270
11
419.127120
21
470.059800
0
LINE
8
Calque 1
10
419.127120
20
470.059800
11
417.068590
21
468.585980
0
LINE
8
Calque 1
10
417.068590
20
468.585980
11
415.010060
21
467.112160
0
LINE
8
Calque 1
10
415.010060
20
467.112160
11
415.475270
21
460.172460
0
LINE
8
Calque 1
10
415.475270
20
460.172460
11
415.836229
21
454.911146
0
LINE
8
Calque 1
10
415.836229
20
454.911146
11
416.139101
21
452.368695
0
LINE
8
Calque 1
10
416.139101
20
452.368695
11
416.339776
21
451.810213
0
LINE
8
Calque 1
10
416.339776
20
451.810213
11
416.611153
21
451.563251
0
LINE
8
Calque 1
10
416.611153
20
451.563251
11
417.479650
21
451.512960
0
LINE
8
Calque 1
10
417.479650
20
451.512960
11
418.189868
21
451.550369
0
LINE
8
Calque 1
10
418.189868
20
451.550369
11
418.741365
21
451.727837
0
LINE
8
Calque 1
10
418.741365
20
451.727837
11
420.114920
21
452.894390
0
LINE
8
Calque 1
10
420.114920
20
452.894390
11
421.513740
21
454.275830
0
LINE
8
Calque 1
10
421.513740
20
454.275830
11
423.628970
21
452.173000
0
LINE
8
Calque 1
10
423.628970
20
452.173000
11
425.122861
21
450.606506
0
LINE
8
Calque 1
10
425.122861
20
450.606506
11
425.744210
21
449.793170
0
LINE
8
Calque 1
10
425.744210
20
449.793170
11
425.128641
21
448.985579
0
LINE
8
Calque 1
10
425.128641
20
448.985579
11
423.648660
21
447.432900
0
LINE
8
Calque 1
10
423.648660
20
447.432900
11
421.553100
21
445.349640
0
LINE
8
Calque 1
10
421.553100
20
445.349640
11
420.514350
21
446.172340
0
LINE
8
Calque 1
10
420.514350
20
446.172340
11
419.137930
21
447.401920
0
LINE
8
Calque 1
10
419.137930
20
447.401920
11
418.574082
21
447.701426
0
LINE
8
Calque 1
10
418.574082
20
447.701426
11
417.605490
21
447.808790
0
LINE
8
Calque 1
10
417.605490
20
447.808790
11
416.411000
21
447.809000
0
LINE
8
Calque 1
10
416.411000
20
447.809000
11
416.576250
21
446.155360
0
LINE
8
Calque 1
10
416.576250
20
446.155360
11
417.934230
21
428.229860
0
LINE
8
Calque 1
10
417.934230
20
428.229860
11
419.288760
21
410.588560
0
LINE
8
Calque 1
10
419.288760
20
410.588560
11
419.321447
21
409.693734
0
LINE
8
Calque 1
10
419.321447
20
409.693734
11
419.071110
21
408.577566
0
LINE
8
Calque 1
10
419.071110
20
408.577566
11
417.006990
21
403.444810
0
LINE
8
Calque 1
10
417.006990
20
403.444810
11
413.771340
21
395.752260
0
LINE
8
Calque 1
10
413.771340
20
395.752260
11
412.804160
21
393.834040
0
LINE
8
Calque 1
10
412.804160
20
393.834040
11
411.076480
21
397.472060
0
LINE
8
Calque 1
10
411.076480
20
397.472060
11
411.075930
21
397.471870
0
LINE
8
Calque 1
10
399.285630
20
411.742070
11
395.369440
21
413.283550
0
LINE
8
Calque 1
10
395.369440
20
413.283550
11
397.552260
21
418.053410
0
LINE
8
Calque 1
10
397.552260
20
418.053410
11
399.814800
21
422.941870
0
LINE
8
Calque 1
10
399.814800
20
422.941870
11
398.139454
21
424.208737
0
LINE
8
Calque 1
10
398.139454
20
424.208737
11
396.228240
21
425.319260
0
LINE
8
Calque 1
10
396.228240
20
425.319260
11
392.473390
21
421.614520
0
LINE
8
Calque 1
10
392.473390
20
421.614520
11
389.888557
21
419.043772
0
LINE
8
Calque 1
10
389.888557
20
419.043772
11
388.666340
21
418.065440
0
LINE
8
Calque 1
10
388.666340
20
418.065440
11
386.002415
21
421.035746
0
LINE
8
Calque 1
10
386.002415
20
421.035746
11
383.675210
21
423.989500
0
LINE
8
Calque 1
10
383.675210
20
423.989500
11
386.928205
21
426.588934
0
LINE
8
Calque 1
10
386.928205
20
426.588934
11
391.074690
21
429.546560
0
LINE
8
Calque 1
10
391.074690
20
429.546560
11
391.206637
21
429.748119
0
LINE
8
Calque 1
10
391.206637
20
429.748119
11
391.102659
21
430.144555
0
LINE
8
Calque 1
10
391.102659
20
430.144555
11
390.016360
21
431.901600
0
LINE
8
Calque 1
10
390.016360
20
431.901600
11
388.407190
21
434.041830
0
LINE
8
Calque 1
10
388.407190
20
434.041830
11
383.565990
21
431.801550
0
LINE
8
Calque 1
10
383.565990
20
431.801550
11
378.769340
21
429.552590
0
LINE
8
Calque 1
10
378.769340
20
429.552590
11
376.416921
21
434.018784
0
LINE
8
Calque 1
10
376.416921
20
434.018784
11
374.150220
21
438.653870
0
LINE
8
Calque 1
10
374.150220
20
438.653870
11
376.068440
21
439.083240
0
LINE
8
Calque 1
10
376.068440
20
439.083240
11
381.956602
21
440.188070
0
LINE
8
Calque 1
10
381.956602
20
440.188070
11
385.706410
21
441.020590
0
LINE
8
Calque 1
10
385.706410
20
441.020590
11
385.641710
21
442.753950
0
LINE
8
Calque 1
10
385.641710
20
442.753950
11
385.458960
21
444.369260
0
LINE
8
Calque 1
10
385.458960
20
444.369260
11
378.879000
21
444.370000
0
LINE
8
Calque 1
10
378.879000
20
444.370000
11
373.680768
21
444.439541
0
LINE
8
Calque 1
10
373.680768
20
444.439541
11
372.608973
21
444.541252
0
LINE
8
Calque 1
10
372.608973
20
444.541252
11
372.293360
21
444.700730
0
LINE
8
Calque 1
10
372.293360
20
444.700730
11
371.765450
21
449.397080
0
LINE
8
Calque 1
10
371.765450
20
449.397080
11
371.241530
21
454.093440
0
LINE
8
Calque 1
10
371.241530
20
454.093440
11
371.815235
21
454.254787
0
LINE
8
Calque 1
10
371.815235
20
454.254787
11
373.818944
21
454.356290
0
LINE
8
Calque 1
10
373.818944
20
454.356290
11
383.802930
21
454.424170
0
LINE
8
Calque 1
10
383.802930
20
454.424170
11
396.365000
21
454.424000
0
LINE
8
Calque 1
10
396.365000
20
454.424000
11
396.512720
21
453.696390
0
LINE
8
Calque 1
10
396.512720
20
453.696390
11
397.160725
21
451.076094
0
LINE
8
Calque 1
10
397.160725
20
451.076094
11
397.981781
21
448.817290
0
LINE
8
Calque 1
10
397.981781
20
448.817290
11
399.016116
21
446.827871
0
LINE
8
Calque 1
10
399.016116
20
446.827871
11
400.303960
21
445.015730
0
LINE
8
Calque 1
10
400.303960
20
445.015730
11
401.403288
21
443.794985
0
LINE
8
Calque 1
10
401.403288
20
443.794985
11
402.538896
21
442.815684
0
LINE
8
Calque 1
10
402.538896
20
442.815684
11
403.793284
21
442.016434
0
LINE
8
Calque 1
10
403.793284
20
442.016434
11
405.248950
21
441.335840
0
LINE
8
Calque 1
10
405.248950
20
441.335840
11
406.468855
21
440.722942
0
LINE
8
Calque 1
10
406.468855
20
440.722942
11
406.908700
21
440.167090
0
LINE
8
Calque 1
10
406.908700
20
440.167090
11
406.189040
21
432.809330
0
LINE
8
Calque 1
10
406.189040
20
432.809330
11
404.587160
21
418.969830
0
LINE
8
Calque 1
10
404.587160
20
418.969830
11
403.702820
21
411.608176
0
LINE
8
Calque 1
10
403.702820
20
411.608176
11
403.488870
21
410.483473
0
LINE
8
Calque 1
10
403.488870
20
410.483473
11
403.308410
21
410.254090
0
LINE
8
Calque 1
10
403.308410
20
410.254090
11
399.285500
21
411.742640
0
LINE
8
Calque 1
10
399.285500
20
411.742640
11
399.285630
21
411.742070
0
LINE
8
Calque 1
10
421.925930
20
410.833320
11
420.159976
21
426.049199
0
LINE
8
Calque 1
10
420.159976
20
426.049199
11
418.636940
21
440.508020
0
LINE
8
Calque 1
10
418.636940
20
440.508020
11
420.761380
21
441.551200
0
LINE
8
Calque 1
10
420.761380
20
441.551200
11
422.204671
21
442.368596
0
LINE
8
Calque 1
10
422.204671
20
442.368596
11
423.557585
21
443.393043
0
LINE
8
Calque 1
10
423.557585
20
443.393043
11
424.800528
21
444.597729
0
LINE
8
Calque 1
10
424.800528
20
444.597729
11
425.913904
21
445.955841
0
LINE
8
Calque 1
10
425.913904
20
445.955841
11
426.878117
21
447.440567
0
LINE
8
Calque 1
10
426.878117
20
447.440567
11
427.673573
21
449.025094
0
LINE
8
Calque 1
10
427.673573
20
449.025094
11
428.280675
21
450.682609
0
LINE
8
Calque 1
10
428.280675
20
450.682609
11
428.679830
21
452.386300
0
LINE
8
Calque 1
10
428.679830
20
452.386300
11
429.008220
21
454.340680
0
LINE
8
Calque 1
10
429.008220
20
454.340680
11
441.592020
21
454.497710
0
LINE
8
Calque 1
10
441.592020
20
454.497710
11
454.292320
21
454.538210
0
LINE
8
Calque 1
10
454.292320
20
454.538210
11
453.810930
21
449.617089
0
LINE
8
Calque 1
10
453.810930
20
449.617089
11
453.088700
21
444.569780
0
LINE
8
Calque 1
10
453.088700
20
444.569780
11
451.111610
21
444.428165
0
LINE
8
Calque 1
10
451.111610
20
444.428165
11
446.532260
21
444.369260
0
LINE
8
Calque 1
10
446.532260
20
444.369260
11
440.100000
21
444.370000
0
LINE
8
Calque 1
10
440.100000
20
444.370000
11
439.917250
21
442.754690
0
LINE
8
Calque 1
10
439.917250
20
442.754690
11
439.872350
21
441.001530
0
LINE
8
Calque 1
10
439.872350
20
441.001530
11
445.640770
21
439.819230
0
LINE
8
Calque 1
10
445.640770
20
439.819230
11
451.360290
21
438.685820
0
LINE
8
Calque 1
10
451.360290
20
438.685820
11
449.381339
21
434.538465
0
LINE
8
Calque 1
10
449.381339
20
434.538465
11
446.962910
21
429.879460
0
LINE
8
Calque 1
10
446.962910
20
429.879460
11
446.621711
21
429.834645
0
LINE
8
Calque 1
10
446.621711
20
429.834645
11
445.769555
21
430.108844
0
LINE
8
Calque 1
10
445.769555
20
430.108844
11
442.063970
21
431.797690
0
LINE
8
Calque 1
10
442.063970
20
431.797690
11
437.187640
21
434.039790
0
LINE
8
Calque 1
10
437.187640
20
434.039790
11
435.930620
21
432.435730
0
LINE
8
Calque 1
10
435.930620
20
432.435730
11
434.525680
21
430.355220
0
LINE
8
Calque 1
10
434.525680
20
430.355220
11
434.445795
21
430.011337
0
LINE
8
Calque 1
10
434.445795
20
430.011337
11
434.841946
21
429.493339
0
LINE
8
Calque 1
10
434.841946
20
429.493339
11
438.031410
21
427.010910
0
LINE
8
Calque 1
10
438.031410
20
427.010910
11
441.883750
21
423.952500
0
LINE
8
Calque 1
10
441.883750
20
423.952500
11
439.833220
21
421.330930
0
LINE
8
Calque 1
10
439.833220
20
421.330930
11
437.315850
21
418.345380
0
LINE
8
Calque 1
10
437.315850
20
418.345380
11
436.985648
21
418.082490
0
LINE
8
Calque 1
10
436.985648
20
418.082490
11
436.431150
21
418.344641
0
LINE
8
Calque 1
10
436.431150
20
418.344641
11
433.082520
21
421.677120
0
LINE
8
Calque 1
10
433.082520
20
421.677120
11
429.316040
21
425.574860
0
LINE
8
Calque 1
10
429.316040
20
425.574860
11
427.860830
21
424.500120
0
LINE
8
Calque 1
10
427.860830
20
424.500120
11
426.030560
21
423.212890
0
LINE
8
Calque 1
10
426.030560
20
423.212890
11
425.939844
21
422.907166
0
LINE
8
Calque 1
10
425.939844
20
422.907166
11
426.162865
21
422.124579
0
LINE
8
Calque 1
10
426.162865
20
422.124579
11
427.819230
21
418.405500
0
LINE
8
Calque 1
10
427.819230
20
418.405500
11
429.980240
21
413.508200
0
LINE
8
Calque 1
10
429.980240
20
413.508200
11
429.842107
21
413.239664
0
LINE
8
Calque 1
10
429.842107
20
413.239664
11
429.514480
21
413.018700
0
LINE
8
Calque 1
10
429.514480
20
413.018700
11
422.148730
21
410.238750
0
LINE
8
Calque 1
10
422.148730
20
410.238750
11
421.926150
21
410.834060
0
LINE
8
Calque 1
10
421.926150
20
410.834060
11
421.925930
21
410.833320
 0 
ENDSEC
 0 
EOF