999
"DXF R12 Output" (www.mydxf.blogspot.com)
 0 
SECTION
 2 
HEADER
 9 
$ACADVER
 1 
AC1009
 9 
$EXTMIN
 10 
 0 
 20 
 0 
 9 
$EXTMAX
 10 
 8.5 
 20 
 11 
 0 
ENDSEC
 0 
SECTION
 2 
ENTITIES
0
LINE
8
Calque 1
10
481.539000
20
67.374300
11
475.935550
21
80.595200
0
LINE
8
Calque 1
10
475.935550
20
80.595200
11
473.202430
21
87.132500
0
LINE
8
Calque 1
10
473.202430
20
87.132500
11
475.252950
21
87.339200
0
LINE
8
Calque 1
10
475.252950
20
87.339200
11
477.023251
21
87.493425
0
LINE
8
Calque 1
10
477.023251
20
87.493425
11
477.232080
21
87.699116
0
LINE
8
Calque 1
10
477.232080
20
87.699116
11
477.223480
21
88.078000
0
LINE
8
Calque 1
10
477.223480
20
88.078000
11
476.429730
21
91.632100
0
LINE
8
Calque 1
10
476.429730
20
91.632100
11
475.715970
21
94.524800
0
LINE
8
Calque 1
10
475.715970
20
94.524800
11
471.569100
21
95.117100
0
LINE
8
Calque 1
10
471.569100
20
95.117100
11
464.557640
21
96.288800
0
LINE
8
Calque 1
10
464.557640
20
96.288800
11
457.988890
21
97.914300
0
LINE
8
Calque 1
10
457.988890
20
97.914300
11
450.712840
21
100.287500
0
LINE
8
Calque 1
10
450.712840
20
100.287500
11
446.930110
21
101.833963
0
LINE
8
Calque 1
10
446.930110
20
101.833963
11
442.851280
21
103.688600
0
LINE
8
Calque 1
10
442.851280
20
103.688600
11
435.972110
21
107.279000
0
LINE
8
Calque 1
10
435.972110
20
107.279000
11
430.606640
21
110.673700
0
LINE
8
Calque 1
10
430.606640
20
110.673700
11
425.318700
21
114.512500
0
LINE
8
Calque 1
10
425.318700
20
114.512500
11
422.806770
21
116.473100
0
LINE
8
Calque 1
10
422.806770
20
116.473100
11
421.480120
21
115.737300
0
LINE
8
Calque 1
10
421.480120
20
115.737300
11
418.338630
21
113.946600
0
LINE
8
Calque 1
10
418.338630
20
113.946600
11
416.523780
21
112.891700
0
LINE
8
Calque 1
10
416.523780
20
112.891700
11
417.926250
21
111.471600
0
LINE
8
Calque 1
10
417.926250
20
111.471600
11
418.877320
21
110.429213
0
LINE
8
Calque 1
10
418.877320
20
110.429213
11
419.194520
21
109.917300
0
LINE
8
Calque 1
10
419.194520
20
109.917300
11
415.373560
21
108.221800
0
LINE
8
Calque 1
10
415.373560
20
108.221800
11
401.928760
21
102.386800
0
LINE
8
Calque 1
10
401.928760
20
102.386800
11
392.077630
21
98.206200
0
LINE
8
Calque 1
10
392.077630
20
98.206200
11
395.313870
21
105.954800
0
LINE
8
Calque 1
10
395.313870
20
105.954800
11
401.030510
21
119.298800
0
LINE
8
Calque 1
10
401.030510
20
119.298800
11
403.651780
21
125.240800
0
LINE
8
Calque 1
10
403.651780
20
125.240800
11
404.198330
21
125.055000
0
LINE
8
Calque 1
10
404.198330
20
125.055000
11
405.279900
21
124.117400
0
LINE
8
Calque 1
10
405.279900
20
124.117400
11
406.674020
21
122.740600
0
LINE
8
Calque 1
10
406.674020
20
122.740600
11
408.452790
21
125.729900
0
LINE
8
Calque 1
10
408.452790
20
125.729900
11
410.231560
21
128.904200
0
LINE
8
Calque 1
10
410.231560
20
128.904200
11
408.214130
21
131.668500
0
LINE
8
Calque 1
10
408.214130
20
131.668500
11
403.736900
21
137.951900
0
LINE
8
Calque 1
10
403.736900
20
137.951900
11
399.558420
21
144.831100
0
LINE
8
Calque 1
10
399.558420
20
144.831100
11
396.259380
21
151.577900
0
LINE
8
Calque 1
10
396.259380
20
151.577900
11
393.485600
21
158.457100
0
LINE
8
Calque 1
10
393.485600
20
158.457100
11
391.481540
21
164.807100
0
LINE
8
Calque 1
10
391.481540
20
164.807100
11
389.877410
21
171.818600
0
LINE
8
Calque 1
10
389.877410
20
171.818600
11
388.762320
21
178.830000
0
LINE
8
Calque 1
10
388.762320
20
178.830000
11
388.401160
21
181.937700
0
LINE
8
Calque 1
10
388.401160
20
181.937700
11
385.339820
21
182.662300
0
LINE
8
Calque 1
10
385.339820
20
182.662300
11
381.722700
21
183.462200
0
LINE
8
Calque 1
10
381.722700
20
183.462200
11
381.385189
21
183.500725
0
LINE
8
Calque 1
10
381.385189
20
183.500725
11
381.207718
21
183.297300
0
LINE
8
Calque 1
10
381.207718
20
183.297300
11
381.127390
21
181.480900
0
LINE
8
Calque 1
10
381.127390
20
181.480900
11
380.960860
21
179.359200
0
LINE
8
Calque 1
10
380.960860
20
179.359200
11
371.237420
21
183.431800
0
LINE
8
Calque 1
10
371.237420
20
183.431800
11
358.042520
21
189.037810
0
LINE
8
Calque 1
10
358.042520
20
189.037810
11
354.404500
21
190.752720
0
LINE
8
Calque 1
10
354.404500
20
190.752720
11
358.968560
21
192.861480
0
LINE
8
Calque 1
10
358.968560
20
192.861480
11
372.330060
21
198.548630
0
LINE
8
Calque 1
10
372.330060
20
198.548630
11
381.127450
21
202.308430
0
LINE
8
Calque 1
10
381.127450
20
202.308430
11
381.128000
21
200.227000
0
LINE
8
Calque 1
10
381.128000
20
200.227000
11
381.209686
21
198.492801
0
LINE
8
Calque 1
10
381.209686
20
198.492801
11
381.357454
21
198.210422
0
LINE
8
Calque 1
10
381.357454
20
198.210422
11
381.617090
21
198.145090
0
LINE
8
Calque 1
10
381.617090
20
198.145090
11
385.073680
21
198.801450
0
LINE
8
Calque 1
10
385.073680
20
198.801450
11
388.251600
21
199.587850
0
LINE
8
Calque 1
10
388.251600
20
199.587850
11
388.454657
21
200.284181
0
LINE
8
Calque 1
10
388.454657
20
200.284181
11
388.647380
21
201.775760
0
LINE
8
Calque 1
10
388.647380
20
201.775760
11
389.469030
21
207.596420
0
LINE
8
Calque 1
10
389.469030
20
207.596420
11
390.801280
21
214.211000
0
LINE
8
Calque 1
10
390.801280
20
214.211000
11
392.763670
21
220.918810
0
LINE
8
Calque 1
10
392.763670
20
220.918810
11
395.403550
21
228.040130
0
LINE
8
Calque 1
10
395.403550
20
228.040130
11
397.982490
21
233.709120
0
LINE
8
Calque 1
10
397.982490
20
233.709120
11
400.378220
21
238.229470
0
LINE
8
Calque 1
10
400.378220
20
238.229470
11
404.012420
21
244.050300
0
LINE
8
Calque 1
10
404.012420
20
244.050300
11
408.239230
21
250.003420
0
LINE
8
Calque 1
10
408.239230
20
250.003420
11
410.143680
21
252.552480
0
LINE
8
Calque 1
10
410.143680
20
252.552480
11
409.703215
21
253.621930
0
LINE
8
Calque 1
10
409.703215
20
253.621930
11
408.473450
21
255.771740
0
LINE
8
Calque 1
10
408.473450
20
255.771740
11
406.681620
21
258.690900
0
LINE
8
Calque 1
10
406.681620
20
258.690900
11
405.170310
21
257.381630
0
LINE
8
Calque 1
10
405.170310
20
257.381630
11
404.068011
21
256.517671
0
LINE
8
Calque 1
10
404.068011
20
256.517671
11
403.540070
21
256.279040
0
LINE
8
Calque 1
10
403.540070
20
256.279040
11
401.889440
21
260.189880
0
LINE
8
Calque 1
10
401.889440
20
260.189880
11
396.160100
21
273.522580
0
LINE
8
Calque 1
10
396.160100
20
273.522580
11
392.073130
21
283.261760
0
LINE
8
Calque 1
10
392.073130
20
283.261760
11
401.671000
21
279.227430
0
LINE
8
Calque 1
10
401.671000
20
279.227430
11
415.208000
21
273.348110
0
LINE
8
Calque 1
10
415.208000
20
273.348110
11
419.257790
21
271.613780
0
LINE
8
Calque 1
10
419.257790
20
271.613780
11
417.864960
21
270.203430
0
LINE
8
Calque 1
10
417.864960
20
270.203430
11
416.904075
21
269.097490
0
LINE
8
Calque 1
10
416.904075
20
269.097490
11
416.711745
21
268.743591
0
LINE
8
Calque 1
10
416.711745
20
268.743591
11
416.725590
21
268.542950
0
LINE
8
Calque 1
10
416.725590
20
268.542950
11
419.855870
21
266.688760
0
LINE
8
Calque 1
10
419.855870
20
266.688760
11
422.825680
21
265.084690
0
LINE
8
Calque 1
10
422.825680
20
265.084690
11
424.975940
21
266.745530
0
LINE
8
Calque 1
10
424.975940
20
266.745530
11
429.546760
21
270.156350
0
LINE
8
Calque 1
10
429.546760
20
270.156350
11
434.573840
21
273.436020
0
LINE
8
Calque 1
10
434.573840
20
273.436020
11
439.997800
21
276.491100
0
LINE
8
Calque 1
10
439.997800
20
276.491100
11
446.347800
21
279.515110
0
LINE
8
Calque 1
10
446.347800
20
279.515110
11
450.020546
21
280.984839
0
LINE
8
Calque 1
10
450.020546
20
280.984839
11
454.020720
21
282.414000
0
LINE
8
Calque 1
10
454.020720
20
282.414000
11
458.215190
21
283.680632
0
LINE
8
Calque 1
10
458.215190
20
283.680632
11
462.355090
21
284.759570
0
LINE
8
Calque 1
10
462.355090
20
284.759570
11
469.944190
21
286.242690
0
LINE
8
Calque 1
10
469.944190
20
286.242690
11
474.492640
21
286.780530
0
LINE
8
Calque 1
10
474.492640
20
286.780530
11
475.280700
21
286.843906
0
LINE
8
Calque 1
10
475.280700
20
286.843906
11
475.686350
21
286.996240
0
LINE
8
Calque 1
10
475.686350
20
286.996240
11
476.495710
21
290.206800
0
LINE
8
Calque 1
10
476.495710
20
290.206800
11
477.171760
21
293.695250
0
LINE
8
Calque 1
10
477.171760
20
293.695250
11
477.107539
21
293.957909
0
LINE
8
Calque 1
10
477.107539
20
293.957909
11
476.827645
21
294.106972
0
LINE
8
Calque 1
10
476.827645
20
294.106972
11
475.097440
21
294.188860
0
LINE
8
Calque 1
10
475.097440
20
294.188860
11
473.023000
21
294.188000
0
LINE
8
Calque 1
10
473.023000
20
294.188000
11
476.895140
21
303.249980
0
LINE
8
Calque 1
10
476.895140
20
303.249980
11
482.590660
21
316.743680
0
LINE
8
Calque 1
10
482.590660
20
316.743680
11
484.563140
21
321.174460
0
LINE
8
Calque 1
10
484.563140
20
321.174460
11
485.668450
21
318.859360
0
LINE
8
Calque 1
10
485.668450
20
318.859360
11
491.290840
21
305.502660
0
LINE
8
Calque 1
10
491.290840
20
305.502660
11
495.957030
21
294.324060
0
LINE
8
Calque 1
10
495.957030
20
294.324060
11
493.822540
21
294.188000
0
LINE
8
Calque 1
10
493.822540
20
294.188000
11
492.062020
21
294.111560
0
LINE
8
Calque 1
10
492.062020
20
294.111560
11
491.814395
21
293.971781
0
LINE
8
Calque 1
10
491.814395
20
293.971781
11
491.818420
21
293.724980
0
LINE
8
Calque 1
10
491.818420
20
293.724980
11
492.654130
21
290.160560
0
LINE
8
Calque 1
10
492.654130
20
290.160560
11
493.375956
21
287.434493
0
LINE
8
Calque 1
10
493.375956
20
287.434493
11
493.702001
21
287.053034
0
LINE
8
Calque 1
10
493.702001
20
287.053034
11
494.195230
21
286.926310
0
LINE
8
Calque 1
10
494.195230
20
286.926310
11
498.073700
21
286.374550
0
LINE
8
Calque 1
10
498.073700
20
286.374550
11
504.423700
21
285.282230
0
LINE
8
Calque 1
10
504.423700
20
285.282230
11
511.763090
21
283.445440
0
LINE
8
Calque 1
10
511.763090
20
283.445440
11
515.680250
21
282.204856
0
LINE
8
Calque 1
10
515.680250
20
282.204856
11
519.436010
21
280.855860
0
LINE
8
Calque 1
10
519.436010
20
280.855860
11
525.590360
21
278.253850
0
LINE
8
Calque 1
10
525.590360
20
278.253850
11
531.480380
21
275.185870
0
LINE
8
Calque 1
10
531.480380
20
275.185870
11
537.698080
21
271.395040
0
LINE
8
Calque 1
10
537.698080
20
271.395040
11
543.201610
21
267.468740
0
LINE
8
Calque 1
10
543.201610
20
267.468740
11
546.175160
21
265.248700
0
LINE
8
Calque 1
10
546.175160
20
265.248700
11
547.177431
21
265.571218
0
LINE
8
Calque 1
10
547.177431
20
265.571218
11
549.201420
21
266.655060
0
LINE
8
Calque 1
10
549.201420
20
266.655060
11
552.272840
21
268.486250
0
LINE
8
Calque 1
10
552.272840
20
268.486250
11
552.375780
21
268.659495
0
LINE
8
Calque 1
10
552.375780
20
268.659495
11
552.261849
21
268.940454
0
LINE
8
Calque 1
10
552.261849
20
268.940454
11
551.280650
21
269.980190
0
LINE
8
Calque 1
10
551.280650
20
269.980190
11
549.932030
21
271.427450
0
LINE
8
Calque 1
10
549.932030
20
271.427450
11
553.966930
21
273.346400
0
LINE
8
Calque 1
10
553.966930
20
273.346400
11
567.494930
21
279.219670
0
LINE
8
Calque 1
10
567.494930
20
279.219670
11
577.076140
21
283.271680
0
LINE
8
Calque 1
10
577.076140
20
283.271680
11
574.762860
21
277.639430
0
LINE
8
Calque 1
10
574.762860
20
277.639430
11
568.938160
21
264.166030
0
LINE
8
Calque 1
10
568.938160
20
264.166030
11
565.389810
21
256.111740
0
LINE
8
Calque 1
10
565.389810
20
256.111740
11
563.859340
21
257.374700
0
LINE
8
Calque 1
10
563.859340
20
257.374700
11
562.453890
21
258.762690
0
LINE
8
Calque 1
10
562.453890
20
258.762690
11
560.690880
21
255.817110
0
LINE
8
Calque 1
10
560.690880
20
255.817110
11
558.927870
21
252.635880
0
LINE
8
Calque 1
10
558.927870
20
252.635880
11
560.944280
21
249.820700
0
LINE
8
Calque 1
10
560.944280
20
249.820700
11
564.510930
21
244.935640
0
LINE
8
Calque 1
10
564.510930
20
244.935640
11
567.537550
21
240.195330
0
LINE
8
Calque 1
10
567.537550
20
240.195330
11
570.747000
21
234.302020
0
LINE
8
Calque 1
10
570.747000
20
234.302020
11
573.481470
21
228.567880
0
LINE
8
Calque 1
10
573.481470
20
228.567880
11
575.811430
21
222.446200
0
LINE
8
Calque 1
10
575.811430
20
222.446200
11
578.086550
21
214.833790
0
LINE
8
Calque 1
10
578.086550
20
214.833790
11
579.541350
21
208.111570
0
LINE
8
Calque 1
10
579.541350
20
208.111570
11
580.368280
21
202.509880
0
LINE
8
Calque 1
10
580.368280
20
202.509880
11
580.860350
21
199.672270
0
LINE
8
Calque 1
10
580.860350
20
199.672270
11
584.373030
21
198.723600
0
LINE
8
Calque 1
10
584.373030
20
198.723600
11
587.712340
21
197.966700
0
LINE
8
Calque 1
10
587.712340
20
197.966700
11
587.869280
21
198.915370
0
LINE
8
Calque 1
10
587.869280
20
198.915370
11
588.029130
21
201.105690
0
LINE
8
Calque 1
10
588.029130
20
201.105690
11
588.032130
21
202.347330
0
LINE
8
Calque 1
10
588.032130
20
202.347330
11
590.611810
21
201.207390
0
LINE
8
Calque 1
10
590.611810
20
201.207390
11
603.973310
21
195.496710
0
LINE
8
Calque 1
10
603.973310
20
195.496710
11
614.750110
21
190.764800
0
LINE
8
Calque 1
10
614.750110
20
190.764800
11
605.423550
21
186.644740
0
LINE
8
Calque 1
10
605.423550
20
186.644740
11
592.067050
21
180.917340
0
LINE
8
Calque 1
10
592.067050
20
180.917340
11
588.032160
21
179.148840
0
LINE
8
Calque 1
10
588.032160
20
179.148840
11
588.032000
21
181.195000
0
LINE
8
Calque 1
10
588.032000
20
181.195000
11
587.886050
21
183.386200
0
LINE
8
Calque 1
10
587.886050
20
183.386200
11
584.777200
21
182.902200
0
LINE
8
Calque 1
10
584.777200
20
182.902200
11
581.250330
21
182.141700
0
LINE
8
Calque 1
10
581.250330
20
182.141700
11
580.947442
21
182.005412
0
LINE
8
Calque 1
10
580.947442
20
182.005412
11
580.751171
21
181.682150
0
LINE
8
Calque 1
10
580.751171
20
181.682150
11
580.501170
21
179.957800
0
LINE
8
Calque 1
10
580.501170
20
179.957800
11
579.685530
21
174.198700
0
LINE
8
Calque 1
10
579.685530
20
174.198700
11
578.106630
21
166.719000
0
LINE
8
Calque 1
10
578.106630
20
166.719000
11
575.999260
21
159.561700
0
LINE
8
Calque 1
10
575.999260
20
159.561700
11
573.486180
21
153.022300
0
LINE
8
Calque 1
10
573.486180
20
153.022300
11
570.211200
21
146.158400
0
LINE
8
Calque 1
10
570.211200
20
146.158400
11
566.585680
21
139.719100
0
LINE
8
Calque 1
10
566.585680
20
139.719100
11
561.904390
21
133.031600
0
LINE
8
Calque 1
10
561.904390
20
133.031600
11
558.927830
21
128.897400
0
LINE
8
Calque 1
10
558.927830
20
128.897400
11
560.706840
21
125.730000
0
LINE
8
Calque 1
10
560.706840
20
125.730000
11
562.485850
21
122.740300
0
LINE
8
Calque 1
10
562.485850
20
122.740300
11
563.955230
21
124.194400
0
LINE
8
Calque 1
10
563.955230
20
124.194400
11
565.424620
21
125.648400
0
LINE
8
Calque 1
10
565.424620
20
125.648400
11
571.282090
21
111.956700
0
LINE
8
Calque 1
10
571.282090
20
111.956700
11
577.073210
21
98.198300
0
LINE
8
Calque 1
10
577.073210
20
98.198300
11
570.943910
21
100.746500
0
LINE
8
Calque 1
10
570.943910
20
100.746500
11
557.472610
21
106.593200
0
LINE
8
Calque 1
10
557.472610
20
106.593200
11
549.947490
21
109.938600
0
LINE
8
Calque 1
10
549.947490
20
109.938600
11
551.237420
21
111.476400
0
LINE
8
Calque 1
10
551.237420
20
111.476400
11
552.644140
21
112.900800
0
LINE
8
Calque 1
10
552.644140
20
112.900800
11
551.618790
21
113.545600
0
LINE
8
Calque 1
10
551.618790
20
113.545600
11
548.538220
21
115.316200
0
LINE
8
Calque 1
10
548.538220
20
115.316200
11
546.990944
21
116.072563
0
LINE
8
Calque 1
10
546.990944
20
116.072563
11
546.156970
21
116.310300
0
LINE
8
Calque 1
10
546.156970
20
116.310300
11
543.581990
21
114.395100
0
LINE
8
Calque 1
10
543.581990
20
114.395100
11
538.290320
21
110.574900
0
LINE
8
Calque 1
10
538.290320
20
110.574900
11
532.634810
21
107.004700
0
LINE
8
Calque 1
10
532.634810
20
107.004700
11
526.020230
21
103.552400
0
LINE
8
Calque 1
10
526.020230
20
103.552400
11
518.821100
21
100.425700
0
LINE
8
Calque 1
10
518.821100
20
100.425700
11
511.542690
21
98.035600
0
LINE
8
Calque 1
10
511.542690
20
98.035600
11
504.003620
21
96.179400
0
LINE
8
Calque 1
10
504.003620
20
96.179400
11
497.259130
21
95.071200
0
LINE
8
Calque 1
10
497.259130
20
95.071200
11
493.670260
21
94.552100
0
LINE
8
Calque 1
10
493.670260
20
94.552100
11
493.221919
21
93.496413
0
LINE
8
Calque 1
10
493.221919
20
93.496413
11
492.568580
21
91.078200
0
LINE
8
Calque 1
10
492.568580
20
91.078200
11
491.894370
21
87.487100
0
LINE
8
Calque 1
10
491.894370
20
87.487100
11
492.561046
21
87.344163
0
LINE
8
Calque 1
10
492.561046
20
87.344163
11
493.988230
21
87.284700
0
LINE
8
Calque 1
10
493.988230
20
87.284700
11
495.956990
21
87.160200
0
LINE
8
Calque 1
10
495.956990
20
87.160200
11
491.374640
21
76.246100
0
LINE
8
Calque 1
10
491.374640
20
76.246100
11
485.762760
21
63.009200
0
LINE
8
Calque 1
10
485.762760
20
63.009200
11
484.571480
21
60.561800
0
LINE
8
Calque 1
10
484.571480
20
60.561800
11
481.539400
21
67.374800
0
LINE
8
Calque 1
10
481.539400
20
67.374800
11
481.539000
21
67.374300
0
LINE
8
Calque 1
10
496.882600
20
104.995500
11
504.820100
21
106.591400
0
LINE
8
Calque 1
10
504.820100
20
106.591400
11
508.957220
21
107.714325
0
LINE
8
Calque 1
10
508.957220
20
107.714325
11
512.959220
21
108.971800
0
LINE
8
Calque 1
10
512.959220
20
108.971800
11
520.061970
21
111.760200
0
LINE
8
Calque 1
10
520.061970
20
111.760200
11
526.210360
21
114.832800
0
LINE
8
Calque 1
10
526.210360
20
114.832800
11
532.336770
21
118.583700
0
LINE
8
Calque 1
10
532.336770
20
118.583700
11
537.699710
21
122.397600
0
LINE
8
Calque 1
10
537.699710
20
122.397600
11
541.139290
21
125.162100
0
LINE
8
Calque 1
10
541.139290
20
125.162100
11
545.394640
21
129.178700
0
LINE
8
Calque 1
10
545.394640
20
129.178700
11
550.304860
21
134.380000
0
LINE
8
Calque 1
10
550.304860
20
134.380000
11
553.843970
21
138.788800
0
LINE
8
Calque 1
10
553.843970
20
138.788800
11
557.620750
21
144.212800
0
LINE
8
Calque 1
10
557.620750
20
144.212800
11
559.813802
21
147.879887
0
LINE
8
Calque 1
10
559.813802
20
147.879887
11
562.075480
21
152.113000
0
LINE
8
Calque 1
10
562.075480
20
152.113000
11
564.078759
21
156.395838
0
LINE
8
Calque 1
10
564.078759
20
156.395838
11
565.650570
21
160.182700
0
LINE
8
Calque 1
10
565.650570
20
160.182700
11
567.829620
21
166.791500
0
LINE
8
Calque 1
10
567.829620
20
166.791500
11
569.523220
21
173.825300
0
LINE
8
Calque 1
10
569.523220
20
173.825300
11
570.725770
21
181.498200
0
LINE
8
Calque 1
10
570.725770
20
181.498200
11
571.032935
21
186.043700
0
LINE
8
Calque 1
10
571.032935
20
186.043700
11
571.022250
21
192.588400
0
LINE
8
Calque 1
10
571.022250
20
192.588400
11
570.806179
21
199.037191
0
LINE
8
Calque 1
10
570.806179
20
199.037191
11
570.355950
21
203.312400
0
LINE
8
Calque 1
10
570.355950
20
203.312400
11
569.108060
21
209.926990
0
LINE
8
Calque 1
10
569.108060
20
209.926990
11
567.485420
21
216.115040
0
LINE
8
Calque 1
10
567.485420
20
216.115040
11
565.205160
21
222.597330
0
LINE
8
Calque 1
10
565.205160
20
222.597330
11
561.966530
21
229.762400
0
LINE
8
Calque 1
10
561.966530
20
229.762400
11
558.386250
21
236.202510
0
LINE
8
Calque 1
10
558.386250
20
236.202510
11
553.856540
21
242.684800
0
LINE
8
Calque 1
10
553.856540
20
242.684800
11
551.099222
21
246.162924
0
LINE
8
Calque 1
10
551.099222
20
246.162924
11
548.432580
21
249.264390
0
LINE
8
Calque 1
10
548.432580
20
249.264390
11
543.449270
21
254.262200
0
LINE
8
Calque 1
10
543.449270
20
254.262200
11
539.215940
21
257.939420
0
LINE
8
Calque 1
10
539.215940
20
257.939420
11
534.926550
21
261.207940
0
LINE
8
Calque 1
10
534.926550
20
261.207940
11
529.732310
21
264.667940
0
LINE
8
Calque 1
10
529.732310
20
264.667940
11
523.533620
21
268.096720
0
LINE
8
Calque 1
10
523.533620
20
268.096720
11
517.527570
21
270.888610
0
LINE
8
Calque 1
10
517.527570
20
270.888610
11
510.950030
21
273.254850
0
LINE
8
Calque 1
10
510.950030
20
273.254850
11
503.821260
21
275.252200
0
LINE
8
Calque 1
10
503.821260
20
275.252200
11
497.074390
21
276.492100
0
LINE
8
Calque 1
10
497.074390
20
276.492100
11
492.726485
21
276.940249
0
LINE
8
Calque 1
10
492.726485
20
276.940249
11
486.766890
21
277.178330
0
LINE
8
Calque 1
10
486.766890
20
277.178330
11
480.962411
21
277.202866
0
LINE
8
Calque 1
10
480.962411
20
277.202866
11
476.712690
21
277.013120
0
LINE
8
Calque 1
10
476.712690
20
277.013120
11
470.821170
21
276.308560
0
LINE
8
Calque 1
10
470.821170
20
276.308560
11
465.278560
21
275.236530
0
LINE
8
Calque 1
10
465.278560
20
275.236530
11
458.531680
21
273.363540
0
LINE
8
Calque 1
10
458.531680
20
273.363540
11
452.168040
21
271.118520
0
LINE
8
Calque 1
10
452.168040
20
271.118520
11
446.082630
21
268.352270
0
LINE
8
Calque 1
10
446.082630
20
268.352270
11
439.949960
21
265.017990
0
LINE
8
Calque 1
10
439.949960
20
265.017990
11
434.635630
21
261.530440
0
LINE
8
Calque 1
10
434.635630
20
261.530440
11
430.052670
21
258.076730
0
LINE
8
Calque 1
10
430.052670
20
258.076730
11
425.597310
21
254.243830
0
LINE
8
Calque 1
10
425.597310
20
254.243830
11
423.063674
21
251.799274
0
LINE
8
Calque 1
10
423.063674
20
251.799274
11
420.473900
21
249.080540
0
LINE
8
Calque 1
10
420.473900
20
249.080540
11
417.859469
21
246.012165
0
LINE
8
Calque 1
10
417.859469
20
246.012165
11
415.266570
21
242.726980
0
LINE
8
Calque 1
10
415.266570
20
242.726980
11
411.076860
21
236.738340
0
LINE
8
Calque 1
10
411.076860
20
236.738340
11
407.745980
21
230.917510
0
LINE
8
Calque 1
10
407.745980
20
230.917510
11
404.844580
21
224.867610
0
LINE
8
Calque 1
10
404.844580
20
224.867610
11
402.565870
21
218.914480
0
LINE
8
Calque 1
10
402.565870
20
218.914480
11
400.568600
21
212.299900
0
LINE
8
Calque 1
10
400.568600
20
212.299900
11
399.137360
21
205.685320
0
LINE
8
Calque 1
10
399.137360
20
205.685320
11
398.293170
21
199.732190
0
LINE
8
Calque 1
10
398.293170
20
199.732190
11
398.069287
21
196.021409
0
LINE
8
Calque 1
10
398.069287
20
196.021409
11
397.972170
21
191.000940
0
LINE
8
Calque 1
10
397.972170
20
191.000940
11
398.079556
21
185.570750
0
LINE
8
Calque 1
10
398.079556
20
185.570750
11
398.421430
21
181.211380
0
LINE
8
Calque 1
10
398.421430
20
181.211380
11
399.646560
21
173.538480
0
LINE
8
Calque 1
10
399.646560
20
173.538480
11
401.341660
21
166.526980
0
LINE
8
Calque 1
10
401.341660
20
166.526980
11
403.306430
21
160.573880
0
LINE
8
Calque 1
10
403.306430
20
160.573880
11
405.582560
21
155.017580
0
LINE
8
Calque 1
10
405.582560
20
155.017580
11
408.429700
21
149.329080
0
LINE
8
Calque 1
10
408.429700
20
149.329080
11
412.232130
21
143.111380
0
LINE
8
Calque 1
10
412.232130
20
143.111380
11
416.863640
21
136.761380
0
LINE
8
Calque 1
10
416.863640
20
136.761380
11
421.276740
21
131.601980
0
LINE
8
Calque 1
10
421.276740
20
131.601980
11
425.935590
21
127.022480
0
LINE
8
Calque 1
10
425.935590
20
127.022480
11
431.662840
21
122.230780
0
LINE
8
Calque 1
10
431.662840
20
122.230780
11
437.370400
21
118.156280
0
LINE
8
Calque 1
10
437.370400
20
118.156280
11
443.427080
21
114.562080
0
LINE
8
Calque 1
10
443.427080
20
114.562080
11
449.890350
21
111.406680
0
LINE
8
Calque 1
10
449.890350
20
111.406680
11
455.287910
21
109.254080
0
LINE
8
Calque 1
10
455.287910
20
109.254080
11
460.711010
21
107.496980
0
LINE
8
Calque 1
10
460.711010
20
107.496980
11
467.777600
21
105.789980
0
LINE
8
Calque 1
10
467.777600
20
105.789980
11
475.054500
21
104.619880
0
LINE
8
Calque 1
10
475.054500
20
104.619880
11
479.332536
21
104.355505
0
LINE
8
Calque 1
10
479.332536
20
104.355505
11
485.770100
21
104.336080
0
LINE
8
Calque 1
10
485.770100
20
104.336080
11
492.434779
21
104.522618
0
LINE
8
Calque 1
10
492.434779
20
104.522618
11
496.882600
21
104.995580
0
LINE
8
Calque 1
10
496.882600
20
104.995580
11
496.882600
21
104.995500
0
LINE
8
Calque 1
10
477.435700
20
107.400900
11
472.144030
21
108.062400
0
LINE
8
Calque 1
10
472.144030
20
108.062400
11
466.323200
21
109.155800
0
LINE
8
Calque 1
10
466.323200
20
109.155800
11
460.237780
21
110.744400
0
LINE
8
Calque 1
10
460.237780
20
110.744400
11
453.857500
21
112.973600
0
LINE
8
Calque 1
10
453.857500
20
112.973600
11
446.978330
21
116.075900
0
LINE
8
Calque 1
10
446.978330
20
116.075900
11
440.526330
21
119.683700
0
LINE
8
Calque 1
10
440.526330
20
119.683700
11
434.176330
21
124.070400
0
LINE
8
Calque 1
10
434.176330
20
124.070400
11
430.736745
21
126.819438
0
LINE
8
Calque 1
10
430.736745
20
126.819438
11
427.297160
21
129.820400
0
LINE
8
Calque 1
10
427.297160
20
129.820400
11
423.592990
21
133.394900
0
LINE
8
Calque 1
10
423.592990
20
133.394900
11
421.247310
21
136.135100
0
LINE
8
Calque 1
10
421.247310
20
136.135100
11
417.376810
21
140.862300
0
LINE
8
Calque 1
10
417.376810
20
140.862300
11
413.960150
21
145.827900
0
LINE
8
Calque 1
10
413.960150
20
145.827900
11
410.898930
21
151.037900
0
LINE
8
Calque 1
10
410.898930
20
151.037900
11
407.961300
21
157.052600
0
LINE
8
Calque 1
10
407.961300
20
157.052600
11
406.489033
21
160.689550
0
LINE
8
Calque 1
10
406.489033
20
160.689550
11
405.060880
21
164.674800
0
LINE
8
Calque 1
10
405.060880
20
164.674800
11
403.838744
21
168.752713
0
LINE
8
Calque 1
10
403.838744
20
168.752713
11
402.861790
21
172.612300
0
LINE
8
Calque 1
10
402.861790
20
172.612300
11
401.638330
21
179.359200
0
LINE
8
Calque 1
10
401.638330
20
179.359200
11
400.984310
21
186.701400
0
LINE
8
Calque 1
10
400.984310
20
186.701400
11
400.883699
21
191.011056
0
LINE
8
Calque 1
10
400.883699
20
191.011056
11
400.985100
21
195.336290
0
LINE
8
Calque 1
10
400.985100
20
195.336290
11
401.307430
21
199.424776
0
LINE
8
Calque 1
10
401.307430
20
199.424776
11
401.754350
21
203.166500
0
LINE
8
Calque 1
10
401.754350
20
203.166500
11
402.972680
21
209.705200
0
LINE
8
Calque 1
10
402.972680
20
209.705200
11
404.688660
21
215.981220
0
LINE
8
Calque 1
10
404.688660
20
215.981220
11
407.068730
21
222.503460
0
LINE
8
Calque 1
10
407.068730
20
222.503460
11
410.237670
21
229.287880
0
LINE
8
Calque 1
10
410.237670
20
229.287880
11
413.690210
21
235.373300
0
LINE
8
Calque 1
10
413.690210
20
235.373300
11
417.509640
21
240.874820
0
LINE
8
Calque 1
10
417.509640
20
240.874820
11
422.334230
21
246.706970
0
LINE
8
Calque 1
10
422.334230
20
246.706970
11
427.456440
21
251.922710
0
LINE
8
Calque 1
10
427.456440
20
251.922710
11
432.456540
21
256.235740
0
LINE
8
Calque 1
10
432.456540
20
256.235740
11
438.415050
21
260.545000
0
LINE
8
Calque 1
10
438.415050
20
260.545000
11
444.897340
21
264.476960
0
LINE
8
Calque 1
10
444.897340
20
264.476960
11
451.094480
21
267.472280
0
LINE
8
Calque 1
10
451.094480
20
267.472280
11
457.655850
21
269.991000
0
LINE
8
Calque 1
10
457.655850
20
269.991000
11
464.285620
21
271.946950
0
LINE
8
Calque 1
10
464.285620
20
271.946950
11
469.895080
21
273.154570
0
LINE
8
Calque 1
10
469.895080
20
273.154570
11
475.848200
21
273.955150
0
LINE
8
Calque 1
10
475.848200
20
273.955150
11
479.847541
21
274.226204
0
LINE
8
Calque 1
10
479.847541
20
274.226204
11
484.447160
21
274.338940
0
LINE
8
Calque 1
10
484.447160
20
274.338940
11
489.067031
21
274.225440
0
LINE
8
Calque 1
10
489.067031
20
274.225440
11
493.115080
21
273.952550
0
LINE
8
Calque 1
10
493.115080
20
273.952550
11
499.200490
21
273.145380
0
LINE
8
Calque 1
10
499.200490
20
273.145380
11
504.747510
21
271.944810
0
LINE
8
Calque 1
10
504.747510
20
271.944810
11
510.039170
21
270.478600
0
LINE
8
Calque 1
10
510.039170
20
270.478600
11
515.535700
21
268.476190
0
LINE
8
Calque 1
10
515.535700
20
268.476190
11
519.024502
21
266.957235
0
LINE
8
Calque 1
10
519.024502
20
266.957235
11
522.768200
21
265.153250
0
LINE
8
Calque 1
10
522.768200
20
265.153250
11
526.563542
21
263.063823
0
LINE
8
Calque 1
10
526.563542
20
263.063823
11
530.176530
21
260.858610
0
LINE
8
Calque 1
10
530.176530
20
260.858610
11
533.645202
21
258.431809
0
LINE
8
Calque 1
10
533.645202
20
258.431809
11
537.093580
21
255.809610
0
LINE
8
Calque 1
10
537.093580
20
255.809610
11
540.457567
21
252.926380
0
LINE
8
Calque 1
10
540.457567
20
252.926380
11
543.723350
21
249.871970
0
LINE
8
Calque 1
10
543.723350
20
249.871970
11
546.681640
21
246.765523
0
LINE
8
Calque 1
10
546.681640
20
246.765523
11
549.306330
21
243.757190
0
LINE
8
Calque 1
10
549.306330
20
243.757190
11
553.202020
21
238.678090
0
LINE
8
Calque 1
10
553.202020
20
238.678090
11
556.567480
21
233.414460
0
LINE
8
Calque 1
10
556.567480
20
233.414460
11
559.844240
21
227.381070
0
LINE
8
Calque 1
10
559.844240
20
227.381070
11
562.313060
21
221.824820
0
LINE
8
Calque 1
10
562.313060
20
221.824820
11
564.344800
21
216.136280
0
LINE
8
Calque 1
10
564.344800
20
216.136280
11
566.116230
21
209.666720
0
LINE
8
Calque 1
10
566.116230
20
209.666720
11
567.437250
21
202.787550
0
LINE
8
Calque 1
10
567.437250
20
202.787550
11
567.876664
21
198.629214
0
LINE
8
Calque 1
10
567.876664
20
198.629214
11
568.113270
21
192.930280
0
LINE
8
Calque 1
10
568.113270
20
192.930280
11
568.136287
21
187.315423
0
LINE
8
Calque 1
10
568.136287
20
187.315423
11
567.939510
21
183.140700
0
LINE
8
Calque 1
10
567.939510
20
183.140700
11
567.100710
21
176.713400
0
LINE
8
Calque 1
10
567.100710
20
176.713400
11
565.525290
21
169.598400
0
LINE
8
Calque 1
10
565.525290
20
169.598400
11
564.390246
21
165.664713
0
LINE
8
Calque 1
10
564.390246
20
165.664713
11
563.141420
21
161.925500
0
LINE
8
Calque 1
10
563.141420
20
161.925500
11
561.500460
21
157.963625
0
LINE
8
Calque 1
10
561.500460
20
157.963625
11
559.422580
21
153.494600
0
LINE
8
Calque 1
10
559.422580
20
153.494600
11
556.975401
21
148.926412
0
LINE
8
Calque 1
10
556.975401
20
148.926412
11
554.438320
21
144.763300
0
LINE
8
Calque 1
10
554.438320
20
144.763300
11
551.793021
21
141.036712
0
LINE
8
Calque 1
10
551.793021
20
141.036712
11
549.077440
21
137.555000
0
LINE
8
Calque 1
10
549.077440
20
137.555000
11
546.120870
21
134.246975
0
LINE
8
Calque 1
10
546.120870
20
134.246975
11
542.896160
21
130.937900
0
LINE
8
Calque 1
10
542.896160
20
130.937900
11
539.667766
21
127.950450
0
LINE
8
Calque 1
10
539.667766
20
127.950450
11
536.702360
21
125.415700
0
LINE
8
Calque 1
10
536.702360
20
125.415700
11
530.616950
21
121.014900
0
LINE
8
Calque 1
10
530.616950
20
121.014900
11
524.399240
21
117.253300
0
LINE
8
Calque 1
10
524.399240
20
117.253300
11
518.975280
21
114.547200
0
LINE
8
Calque 1
10
518.975280
20
114.547200
11
514.080490
21
112.502200
0
LINE
8
Calque 1
10
514.080490
20
112.502200
11
508.788820
21
110.708400
0
LINE
8
Calque 1
10
508.788820
20
110.708400
11
502.762900
21
109.129600
0
LINE
8
Calque 1
10
502.762900
20
109.129600
11
496.016030
21
107.903300
0
LINE
8
Calque 1
10
496.016030
20
107.903300
11
491.767266
21
107.475150
0
LINE
8
Calque 1
10
491.767266
20
107.475150
11
486.166950
21
107.268100
0
LINE
8
Calque 1
10
486.166950
20
107.268100
11
481.037341
21
107.262950
0
LINE
8
Calque 1
10
481.037341
20
107.262950
11
477.435700
21
107.400900
0
LINE
8
Calque 1
10
477.435700
20
107.400900
11
477.435700
21
107.400900
0
LINE
8
Calque 1
10
496.258200
20
112.119100
11
502.608200
21
113.340600
0
LINE
8
Calque 1
10
502.608200
20
113.340600
11
505.974429
21
114.238050
0
LINE
8
Calque 1
10
505.974429
20
114.238050
11
509.847110
21
115.445700
0
LINE
8
Calque 1
10
509.847110
20
115.445700
11
513.769555
21
116.877275
0
LINE
8
Calque 1
10
513.769555
20
116.877275
11
517.255440
21
118.313200
0
LINE
8
Calque 1
10
517.255440
20
118.313200
11
522.891300
21
121.120100
0
LINE
8
Calque 1
10
522.891300
20
121.120100
11
527.638850
21
123.963200
0
LINE
8
Calque 1
10
527.638850
20
123.963200
11
532.057160
21
127.043800
0
LINE
8
Calque 1
10
532.057160
20
127.043800
11
535.908560
21
130.115300
0
LINE
8
Calque 1
10
535.908560
20
130.115300
11
540.234220
21
134.105200
0
LINE
8
Calque 1
10
540.234220
20
134.105200
11
544.889140
21
139.010200
0
LINE
8
Calque 1
10
544.889140
20
139.010200
11
548.979660
21
144.143400
0
LINE
8
Calque 1
10
548.979660
20
144.143400
11
550.966969
21
147.008775
0
LINE
8
Calque 1
10
550.966969
20
147.008775
11
552.878220
21
150.033600
0
LINE
8
Calque 1
10
552.878220
20
150.033600
11
556.402920
21
156.674400
0
LINE
8
Calque 1
10
556.402920
20
156.674400
11
559.007150
21
162.690400
0
LINE
8
Calque 1
10
559.007150
20
162.690400
11
560.879470
21
168.379000
0
LINE
8
Calque 1
10
560.879470
20
168.379000
11
562.338180
21
173.935200
0
LINE
8
Calque 1
10
562.338180
20
173.935200
11
563.283520
21
179.182600
0
LINE
8
Calque 1
10
563.283520
20
179.182600
11
563.977820
21
186.326300
0
LINE
8
Calque 1
10
563.977820
20
186.326300
11
564.117046
21
190.710332
0
LINE
8
Calque 1
10
564.117046
20
190.710332
11
563.961020
21
195.330870
0
LINE
8
Calque 1
10
563.961020
20
195.330870
11
563.569077
21
199.779194
0
LINE
8
Calque 1
10
563.569077
20
199.779194
11
563.032190
21
203.836340
0
LINE
8
Calque 1
10
563.032190
20
203.836340
11
561.830070
21
209.825090
0
LINE
8
Calque 1
10
561.830070
20
209.825090
11
560.197770
21
215.342530
0
LINE
8
Calque 1
10
560.197770
20
215.342530
11
558.204360
21
220.898780
0
LINE
8
Calque 1
10
558.204360
20
220.898780
11
555.586190
21
226.532910
0
LINE
8
Calque 1
10
555.586190
20
226.532910
11
552.116180
21
232.750620
0
LINE
8
Calque 1
10
552.116180
20
232.750620
11
548.027600
21
238.661250
0
LINE
8
Calque 1
10
548.027600
20
238.661250
11
545.696685
21
241.575466
0
LINE
8
Calque 1
10
545.696685
20
241.575466
11
543.341440
21
244.259560
0
LINE
8
Calque 1
10
543.341440
20
244.259560
11
538.765030
21
248.854380
0
LINE
8
Calque 1
10
538.765030
20
248.854380
11
534.581200
21
252.533530
0
LINE
8
Calque 1
10
534.581200
20
252.533530
11
530.316440
21
255.751000
0
LINE
8
Calque 1
10
530.316440
20
255.751000
11
525.289360
21
259.023330
0
LINE
8
Calque 1
10
525.289360
20
259.023330
11
518.842890
21
262.459040
0
LINE
8
Calque 1
10
518.842890
20
262.459040
11
515.251498
21
264.066184
0
LINE
8
Calque 1
10
515.251498
20
264.066184
11
511.818460
21
265.435780
0
LINE
8
Calque 1
10
511.818460
20
265.435780
11
505.468460
21
267.441050
0
LINE
8
Calque 1
10
505.468460
20
267.441050
11
500.454350
21
268.662460
0
LINE
8
Calque 1
10
500.454350
20
268.662460
11
495.712880
21
269.468770
0
LINE
8
Calque 1
10
495.712880
20
269.468770
11
488.525880
21
270.112550
0
LINE
8
Calque 1
10
488.525880
20
270.112550
11
484.166916
21
270.234229
0
LINE
8
Calque 1
10
484.166916
20
270.234229
11
479.943710
21
270.102550
0
LINE
8
Calque 1
10
479.943710
20
270.102550
11
473.240080
21
269.454370
0
LINE
8
Calque 1
10
473.240080
20
269.454370
11
468.135080
21
268.543670
0
LINE
8
Calque 1
10
468.135080
20
268.543670
11
463.240290
21
267.358740
0
LINE
8
Calque 1
10
463.240290
20
267.358740
11
458.253310
21
265.778640
0
LINE
8
Calque 1
10
458.253310
20
265.778640
11
453.358520
21
263.896070
0
LINE
8
Calque 1
10
453.358520
20
263.896070
11
447.581510
21
261.105390
0
LINE
8
Calque 1
10
447.581510
20
261.105390
11
444.105430
21
259.156171
0
LINE
8
Calque 1
10
444.105430
20
259.156171
11
440.702340
21
257.039200
0
LINE
8
Calque 1
10
440.702340
20
257.039200
11
434.490690
21
252.506220
0
LINE
8
Calque 1
10
434.490690
20
252.506220
11
431.555209
21
249.979535
0
LINE
8
Calque 1
10
431.555209
20
249.979535
11
428.514480
21
247.129690
0
LINE
8
Calque 1
10
428.514480
20
247.129690
11
425.728011
21
244.244035
0
LINE
8
Calque 1
10
425.728011
20
244.244035
11
423.403820
21
241.631260
0
LINE
8
Calque 1
10
423.403820
20
241.631260
11
419.567870
21
236.604180
0
LINE
8
Calque 1
10
419.567870
20
236.604180
11
416.445130
21
231.878880
0
LINE
8
Calque 1
10
416.445130
20
231.878880
11
413.528120
21
226.568000
0
LINE
8
Calque 1
10
413.528120
20
226.568000
11
411.970135
21
223.277726
0
LINE
8
Calque 1
10
411.970135
20
223.277726
11
410.520660
21
219.852550
0
LINE
8
Calque 1
10
410.520660
20
219.852550
11
408.130090
21
212.848780
0
LINE
8
Calque 1
10
408.130090
20
212.848780
11
406.559080
21
206.599650
0
LINE
8
Calque 1
10
406.559080
20
206.599650
11
405.547210
21
200.525760
0
LINE
8
Calque 1
10
405.547210
20
200.525760
11
405.193702
21
196.487185
0
LINE
8
Calque 1
10
405.193702
20
196.487185
11
405.106850
21
190.603880
0
LINE
8
Calque 1
10
405.106850
20
190.603880
11
405.233642
21
184.558932
0
LINE
8
Calque 1
10
405.233642
20
184.558932
11
405.684870
21
180.226280
0
LINE
8
Calque 1
10
405.684870
20
180.226280
11
406.936850
21
173.374280
0
LINE
8
Calque 1
10
406.936850
20
173.374280
11
408.410490
21
167.744580
0
LINE
8
Calque 1
10
408.410490
20
167.744580
11
410.161000
21
162.558080
0
LINE
8
Calque 1
10
410.161000
20
162.558080
11
411.521570
21
159.329305
0
LINE
8
Calque 1
10
411.521570
20
159.329305
11
413.431050
21
155.281980
0
LINE
8
Calque 1
10
413.431050
20
155.281980
11
415.757775
21
150.962680
0
LINE
8
Calque 1
10
415.757775
20
150.962680
11
418.121520
21
147.079880
0
LINE
8
Calque 1
10
418.121520
20
147.079880
11
422.742890
21
140.729880
0
LINE
8
Calque 1
10
422.742890
20
140.729880
11
425.186029
21
137.900642
0
LINE
8
Calque 1
10
425.186029
20
137.900642
11
427.926670
21
134.999480
0
LINE
8
Calque 1
10
427.926670
20
134.999480
11
433.056860
21
130.200080
0
LINE
8
Calque 1
10
433.056860
20
130.200080
11
438.277270
21
126.176080
0
LINE
8
Calque 1
10
438.277270
20
126.176080
11
444.425890
21
122.161080
0
LINE
8
Calque 1
10
444.425890
20
122.161080
11
450.361840
21
118.988080
0
LINE
8
Calque 1
10
450.361840
20
118.988080
11
456.119470
21
116.524780
0
LINE
8
Calque 1
10
456.119470
20
116.524780
11
462.354350
21
114.443380
0
LINE
8
Calque 1
10
462.354350
20
114.443380
11
469.048930
21
112.813180
0
LINE
8
Calque 1
10
469.048930
20
112.813180
11
475.398930
21
111.761180
0
LINE
8
Calque 1
10
475.398930
20
111.761180
11
479.360584
21
111.494955
0
LINE
8
Calque 1
10
479.360584
20
111.494955
11
485.637630
21
111.480280
0
LINE
8
Calque 1
10
485.637630
20
111.480280
11
492.111764
21
111.666055
0
LINE
8
Calque 1
10
492.111764
20
111.666055
11
496.258130
21
112.118980
0
LINE
8
Calque 1
10
496.258130
20
112.118980
11
496.258200
21
112.119100
0
LINE
8
Calque 1
10
459.576300
20
132.549300
11
456.097075
21
132.790663
0
LINE
8
Calque 1
10
456.097075
20
132.790663
11
453.887750
21
133.259500
0
LINE
8
Calque 1
10
453.887750
20
133.259500
11
450.183590
21
134.509300
0
LINE
8
Calque 1
10
450.183590
20
134.509300
11
447.405460
21
135.564700
0
LINE
8
Calque 1
10
447.405460
20
135.564700
11
445.024210
21
136.701700
0
LINE
8
Calque 1
10
445.024210
20
136.701700
11
442.378380
21
138.076100
0
LINE
8
Calque 1
10
442.378380
20
138.076100
11
439.770490
21
139.761000
0
LINE
8
Calque 1
10
439.770490
20
139.761000
11
438.261786
21
141.026625
0
LINE
8
Calque 1
10
438.261786
20
141.026625
11
436.810450
21
142.545600
0
LINE
8
Calque 1
10
436.810450
20
142.545600
11
435.415647
21
144.576850
0
LINE
8
Calque 1
10
435.415647
20
144.576850
11
434.052090
21
147.269900
0
LINE
8
Calque 1
10
434.052090
20
147.269900
11
432.978924
21
149.925125
0
LINE
8
Calque 1
10
432.978924
20
149.925125
11
432.291520
21
152.060900
0
LINE
8
Calque 1
10
432.291520
20
152.060900
11
431.995048
21
154.273512
0
LINE
8
Calque 1
10
431.995048
20
154.273512
11
432.004890
21
157.663400
0
LINE
8
Calque 1
10
432.004890
20
157.663400
11
432.233344
21
161.147287
0
LINE
8
Calque 1
10
432.233344
20
161.147287
11
432.794910
21
163.484200
0
LINE
8
Calque 1
10
432.794910
20
163.484200
11
433.869430
21
166.418000
0
LINE
8
Calque 1
10
433.869430
20
166.418000
11
435.641400
21
169.593000
0
LINE
8
Calque 1
10
435.641400
20
169.593000
11
437.651830
21
172.676200
0
LINE
8
Calque 1
10
437.651830
20
172.676200
11
441.072190
21
176.036300
0
LINE
8
Calque 1
10
441.072190
20
176.036300
11
443.933760
21
178.409900
0
LINE
8
Calque 1
10
443.933760
20
178.409900
11
446.922050
21
180.602600
0
LINE
8
Calque 1
10
446.922050
20
180.602600
11
450.426950
21
182.931100
0
LINE
8
Calque 1
10
450.426950
20
182.931100
11
451.907530
21
183.972100
0
LINE
8
Calque 1
10
451.907530
20
183.972100
11
454.503140
21
186.221100
0
LINE
8
Calque 1
10
454.503140
20
186.221100
11
455.704104
21
187.474125
0
LINE
8
Calque 1
10
455.704104
20
187.474125
11
456.426980
21
188.418900
0
LINE
8
Calque 1
10
456.426980
20
188.418900
11
456.651456
21
189.118996
0
LINE
8
Calque 1
10
456.651456
20
189.118996
11
456.649110
21
189.782860
0
LINE
8
Calque 1
10
456.649110
20
189.782860
11
456.367591
21
190.389274
0
LINE
8
Calque 1
10
456.367591
20
190.389274
11
455.915890
21
190.950410
0
LINE
8
Calque 1
10
455.915890
20
190.950410
11
455.200374
21
191.408685
0
LINE
8
Calque 1
10
455.200374
20
191.408685
11
454.284630
21
191.767780
0
LINE
8
Calque 1
10
454.284630
20
191.767780
11
453.027860
21
192.057720
0
LINE
8
Calque 1
10
453.027860
20
192.057720
11
452.887713
21
191.909669
0
LINE
8
Calque 1
10
452.887713
20
191.909669
11
452.829420
21
191.551670
0
LINE
8
Calque 1
10
452.829420
20
191.551670
11
452.668820
21
190.625630
0
LINE
8
Calque 1
10
452.668820
20
190.625630
11
452.388851
21
190.326198
0
LINE
8
Calque 1
10
452.388851
20
190.326198
11
451.941220
21
190.194000
0
LINE
8
Calque 1
10
451.941220
20
190.194000
11
450.931809
21
189.852242
0
LINE
8
Calque 1
10
450.931809
20
189.852242
11
449.301150
21
189.048710
0
LINE
8
Calque 1
10
449.301150
20
189.048710
11
445.763290
21
186.747700
0
LINE
8
Calque 1
10
445.763290
20
186.747700
11
444.508769
21
185.611025
0
LINE
8
Calque 1
10
444.508769
20
185.611025
11
443.549530
21
184.519500
0
LINE
8
Calque 1
10
443.549530
20
184.519500
11
441.928020
21
182.492900
0
LINE
8
Calque 1
10
441.928020
20
182.492900
11
441.405871
21
181.965034
0
LINE
8
Calque 1
10
441.405871
20
181.965034
11
440.910393
21
181.652400
0
LINE
8
Calque 1
10
440.910393
20
181.652400
11
439.265300
21
181.360600
0
LINE
8
Calque 1
10
439.265300
20
181.360600
11
437.646584
21
181.320100
0
LINE
8
Calque 1
10
437.646584
20
181.320100
11
437.224051
21
181.496613
0
LINE
8
Calque 1
10
437.224051
20
181.496613
11
436.817910
21
181.852900
0
LINE
8
Calque 1
10
436.817910
20
181.852900
11
436.160670
21
182.770000
0
LINE
8
Calque 1
10
436.160670
20
182.770000
11
436.412629
21
182.977838
0
LINE
8
Calque 1
10
436.412629
20
182.977838
11
437.018400
21
183.112700
0
LINE
8
Calque 1
10
437.018400
20
183.112700
11
437.659421
21
183.283975
0
LINE
8
Calque 1
10
437.659421
20
183.283975
11
437.952090
21
183.597600
0
LINE
8
Calque 1
10
437.952090
20
183.597600
11
437.898719
21
184.027913
0
LINE
8
Calque 1
10
437.898719
20
184.027913
11
437.663720
21
184.497900
0
LINE
8
Calque 1
10
437.663720
20
184.497900
11
437.418307
21
184.755727
0
LINE
8
Calque 1
10
437.418307
20
184.755727
11
437.080650
21
184.782038
0
LINE
8
Calque 1
10
437.080650
20
184.782038
11
435.371080
21
183.963600
0
LINE
8
Calque 1
10
435.371080
20
183.963600
11
433.685043
21
182.921525
0
LINE
8
Calque 1
10
433.685043
20
182.921525
11
432.339220
21
181.866100
0
LINE
8
Calque 1
10
432.339220
20
181.866100
11
431.422240
21
180.755238
0
LINE
8
Calque 1
10
431.422240
20
180.755238
11
430.885660
21
179.551000
0
LINE
8
Calque 1
10
430.885660
20
179.551000
11
430.578239
21
178.668100
0
LINE
8
Calque 1
10
430.578239
20
178.668100
11
430.330630
21
178.300900
0
LINE
8
Calque 1
10
430.330630
20
178.300900
11
430.227530
21
178.611763
0
LINE
8
Calque 1
10
430.227530
20
178.611763
11
430.267530
21
179.359200
0
LINE
8
Calque 1
10
430.267530
20
179.359200
11
430.296655
21
180.132813
0
LINE
8
Calque 1
10
430.296655
20
180.132813
11
430.132130
21
180.417500
0
LINE
8
Calque 1
10
430.132130
20
180.417500
11
429.776791
21
180.203775
0
LINE
8
Calque 1
10
429.776791
20
180.203775
11
429.311930
21
179.689900
0
LINE
8
Calque 1
10
429.311930
20
179.689900
11
428.889693
21
179.226063
0
LINE
8
Calque 1
10
428.889693
20
179.226063
11
428.760690
21
179.403400
0
LINE
8
Calque 1
10
428.760690
20
179.403400
11
429.249750
21
181.005000
0
LINE
8
Calque 1
10
429.249750
20
181.005000
11
429.843476
21
182.066963
0
LINE
8
Calque 1
10
429.843476
20
182.066963
11
430.572420
21
182.990700
0
LINE
8
Calque 1
10
430.572420
20
182.990700
11
431.446761
21
183.665175
0
LINE
8
Calque 1
10
431.446761
20
183.665175
11
432.390080
21
184.128000
0
LINE
8
Calque 1
10
432.390080
20
184.128000
11
434.763180
21
185.257700
0
LINE
8
Calque 1
10
434.763180
20
185.257700
11
435.925179
21
186.119150
0
LINE
8
Calque 1
10
435.925179
20
186.119150
11
436.549120
21
187.088300
0
LINE
8
Calque 1
10
436.549120
20
187.088300
11
436.835343
21
188.100883
0
LINE
8
Calque 1
10
436.835343
20
188.100883
11
436.954390
21
189.113060
0
LINE
8
Calque 1
10
436.954390
20
189.113060
11
437.098799
21
190.247823
0
LINE
8
Calque 1
10
437.098799
20
190.247823
11
437.446000
21
191.555100
0
LINE
8
Calque 1
10
437.446000
20
191.555100
11
438.135760
21
193.448260
0
LINE
8
Calque 1
10
438.135760
20
193.448260
11
438.201340
21
193.780866
0
LINE
8
Calque 1
10
438.201340
20
193.780866
11
438.061360
21
193.911280
0
LINE
8
Calque 1
10
438.061360
20
193.911280
11
436.944250
21
193.200660
0
LINE
8
Calque 1
10
436.944250
20
193.200660
11
436.197085
21
192.347189
0
LINE
8
Calque 1
10
436.197085
20
192.347189
11
435.586660
21
191.293130
0
LINE
8
Calque 1
10
435.586660
20
191.293130
11
435.247968
21
190.172646
0
LINE
8
Calque 1
10
435.247968
20
190.172646
11
435.154120
21
189.159480
0
LINE
8
Calque 1
10
435.154120
20
189.159480
11
435.096006
21
188.346873
0
LINE
8
Calque 1
10
435.096006
20
188.346873
11
434.844699
21
188.207300
0
LINE
8
Calque 1
10
434.844699
20
188.207300
11
434.362510
21
188.138900
0
LINE
8
Calque 1
10
434.362510
20
188.138900
11
433.677265
21
187.972100
0
LINE
8
Calque 1
10
433.677265
20
187.972100
11
433.664320
21
187.507100
0
LINE
8
Calque 1
10
433.664320
20
187.507100
11
433.685246
21
187.078325
0
LINE
8
Calque 1
10
433.685246
20
187.078325
11
433.081220
21
187.136300
0
LINE
8
Calque 1
10
433.081220
20
187.136300
11
431.927340
21
187.371200
0
LINE
8
Calque 1
10
431.927340
20
187.371200
11
431.606297
21
187.199813
0
LINE
8
Calque 1
10
431.606297
20
187.199813
11
431.445620
21
186.543100
0
LINE
8
Calque 1
10
431.445620
20
186.543100
11
431.275851
21
185.840438
0
LINE
8
Calque 1
10
431.275851
20
185.840438
11
430.784160
21
185.832500
0
LINE
8
Calque 1
10
430.784160
20
185.832500
11
429.810670
21
186.056900
0
LINE
8
Calque 1
10
429.810670
20
186.056900
11
429.623982
21
186.031109
0
LINE
8
Calque 1
10
429.623982
20
186.031109
11
429.515254
21
185.878175
0
LINE
8
Calque 1
10
429.515254
20
185.878175
11
429.495680
21
185.079500
0
LINE
8
Calque 1
10
429.495680
20
185.079500
11
429.481884
21
184.261813
0
LINE
8
Calque 1
10
429.481884
20
184.261813
11
429.348318
21
184.179739
0
LINE
8
Calque 1
10
429.348318
20
184.179739
11
429.098810
21
184.249700
0
LINE
8
Calque 1
10
429.098810
20
184.249700
11
428.160240
21
184.578600
0
LINE
8
Calque 1
10
428.160240
20
184.578600
11
427.782917
21
184.554900
0
LINE
8
Calque 1
10
427.782917
20
184.554900
11
427.536620
21
184.284000
0
LINE
8
Calque 1
10
427.536620
20
184.284000
11
427.158350
21
183.857100
0
LINE
8
Calque 1
10
427.158350
20
183.857100
11
426.778722
21
184.576013
0
LINE
8
Calque 1
10
426.778722
20
184.576013
11
426.167150
21
186.304500
0
LINE
8
Calque 1
10
426.167150
20
186.304500
11
425.554224
21
188.686315
0
LINE
8
Calque 1
10
425.554224
20
188.686315
11
425.439860
21
190.868570
0
LINE
8
Calque 1
10
425.439860
20
190.868570
11
425.634745
21
192.916824
0
LINE
8
Calque 1
10
425.634745
20
192.916824
11
426.241740
21
194.771180
0
LINE
8
Calque 1
10
426.241740
20
194.771180
11
426.837076
21
196.032493
0
LINE
8
Calque 1
10
426.837076
20
196.032493
11
427.211800
21
196.557110
0
LINE
8
Calque 1
10
427.211800
20
196.557110
11
427.365494
21
196.326586
0
LINE
8
Calque 1
10
427.365494
20
196.326586
11
427.429420
21
195.772340
0
LINE
8
Calque 1
10
427.429420
20
195.772340
11
427.560399
21
194.943435
0
LINE
8
Calque 1
10
427.560399
20
194.943435
11
427.875300
21
194.052550
0
LINE
8
Calque 1
10
427.875300
20
194.052550
11
428.276847
21
193.392193
0
LINE
8
Calque 1
10
428.276847
20
193.392193
11
428.616130
21
193.117530
0
LINE
8
Calque 1
10
428.616130
20
193.117530
11
429.228590
21
193.435030
0
LINE
8
Calque 1
10
429.228590
20
193.435030
11
429.452822
21
193.893714
0
LINE
8
Calque 1
10
429.452822
20
193.893714
11
429.546090
21
194.550660
0
LINE
8
Calque 1
10
429.546090
20
194.550660
11
429.978910
21
196.482120
0
LINE
8
Calque 1
10
429.978910
20
196.482120
11
430.351752
21
197.282534
0
LINE
8
Calque 1
10
430.351752
20
197.282534
11
430.640370
21
197.615450
0
LINE
8
Calque 1
10
430.640370
20
197.615450
11
430.801846
21
197.436001
0
LINE
8
Calque 1
10
430.801846
20
197.436001
11
430.869010
21
197.004560
0
LINE
8
Calque 1
10
430.869010
20
197.004560
11
430.972634
21
196.431401
0
LINE
8
Calque 1
10
430.972634
20
196.431401
11
431.221780
21
195.911230
0
LINE
8
Calque 1
10
431.221780
20
195.911230
11
431.623629
21
195.563213
0
LINE
8
Calque 1
10
431.623629
20
195.563213
11
432.269790
21
195.884330
0
LINE
8
Calque 1
10
432.269790
20
195.884330
11
432.816996
21
196.373976
0
LINE
8
Calque 1
10
432.816996
20
196.373976
11
433.156310
21
196.911510
0
LINE
8
Calque 1
10
433.156310
20
196.911510
11
433.372950
21
199.070650
0
LINE
8
Calque 1
10
433.372950
20
199.070650
11
433.516559
21
200.473659
0
LINE
8
Calque 1
10
433.516559
20
200.473659
11
433.826270
21
201.617580
0
LINE
8
Calque 1
10
433.826270
20
201.617580
11
434.142147
21
202.155017
0
LINE
8
Calque 1
10
434.142147
20
202.155017
11
434.646657
21
202.651546
0
LINE
8
Calque 1
10
434.646657
20
202.651546
11
436.728800
21
203.925130
0
LINE
8
Calque 1
10
436.728800
20
203.925130
11
438.974144
21
205.320474
0
LINE
8
Calque 1
10
438.974144
20
205.320474
11
439.571224
21
205.988207
0
LINE
8
Calque 1
10
439.571224
20
205.988207
11
440.158020
21
206.934450
0
LINE
8
Calque 1
10
440.158020
20
206.934450
11
441.871030
21
209.918570
0
LINE
8
Calque 1
10
441.871030
20
209.918570
11
442.629410
21
211.241490
0
LINE
8
Calque 1
10
442.629410
20
211.241490
11
442.807830
21
209.835120
0
LINE
8
Calque 1
10
442.807830
20
209.835120
11
443.127610
21
208.287400
0
LINE
8
Calque 1
10
443.127610
20
208.287400
11
444.194670
21
208.451550
0
LINE
8
Calque 1
10
444.194670
20
208.451550
11
445.136471
21
208.896205
0
LINE
8
Calque 1
10
445.136471
20
208.896205
11
446.100870
21
209.536250
0
LINE
8
Calque 1
10
446.100870
20
209.536250
11
447.009004
21
210.089958
0
LINE
8
Calque 1
10
447.009004
20
210.089958
11
447.811830
21
210.315450
0
LINE
8
Calque 1
10
447.811830
20
210.315450
11
449.144365
21
210.873431
0
LINE
8
Calque 1
10
449.144365
20
210.873431
11
451.712630
21
212.576670
0
LINE
8
Calque 1
10
451.712630
20
212.576670
11
454.449562
21
214.694680
0
LINE
8
Calque 1
10
454.449562
20
214.694680
11
456.577900
21
216.611570
0
LINE
8
Calque 1
10
456.577900
20
216.611570
11
458.987770
21
219.311280
0
LINE
8
Calque 1
10
458.987770
20
219.311280
11
459.518437
21
219.886325
0
LINE
8
Calque 1
10
459.518437
20
219.886325
11
459.657350
21
219.930182
0
LINE
8
Calque 1
10
459.657350
20
219.930182
11
459.705650
21
219.807220
0
LINE
8
Calque 1
10
459.705650
20
219.807220
11
459.038290
21
217.861450
0
LINE
8
Calque 1
10
459.038290
20
217.861450
11
457.310170
21
214.788090
0
LINE
8
Calque 1
10
457.310170
20
214.788090
11
455.866045
21
213.088870
0
LINE
8
Calque 1
10
455.866045
20
213.088870
11
453.879430
21
211.190930
0
LINE
8
Calque 1
10
453.879430
20
211.190930
11
452.203549
21
209.649490
0
LINE
8
Calque 1
10
452.203549
20
209.649490
11
451.506500
21
208.807410
0
LINE
8
Calque 1
10
451.506500
20
208.807410
11
451.586720
21
208.564424
0
LINE
8
Calque 1
10
451.586720
20
208.564424
11
451.779590
21
208.463360
0
LINE
8
Calque 1
10
451.779590
20
208.463360
11
452.965240
21
208.844660
0
LINE
8
Calque 1
10
452.965240
20
208.844660
11
457.092720
21
211.404920
0
LINE
8
Calque 1
10
457.092720
20
211.404920
11
459.883429
21
213.464669
0
LINE
8
Calque 1
10
459.883429
20
213.464669
11
461.486940
21
215.190810
0
LINE
8
Calque 1
10
461.486940
20
215.190810
11
462.918750
21
216.889780
0
LINE
8
Calque 1
10
462.918750
20
216.889780
11
463.050810
21
216.745001
0
LINE
8
Calque 1
10
463.050810
20
216.745001
11
462.993750
21
216.228320
0
LINE
8
Calque 1
10
462.993750
20
216.228320
11
462.122310
21
214.169360
0
LINE
8
Calque 1
10
462.122310
20
214.169360
11
461.204747
21
212.810037
0
LINE
8
Calque 1
10
461.204747
20
212.810037
11
459.973160
21
211.375100
0
LINE
8
Calque 1
10
459.973160
20
211.375100
11
456.470830
21
208.012410
0
LINE
8
Calque 1
10
456.470830
20
208.012410
11
454.423710
21
206.138520
0
LINE
8
Calque 1
10
454.423710
20
206.138520
11
455.097550
21
205.697000
0
LINE
8
Calque 1
10
455.097550
20
205.697000
11
455.989302
21
205.317499
0
LINE
8
Calque 1
10
455.989302
20
205.317499
11
457.187070
21
205.025080
0
LINE
8
Calque 1
10
457.187070
20
205.025080
11
459.672530
21
204.474160
0
LINE
8
Calque 1
10
459.672530
20
204.474160
11
460.742310
21
204.153640
0
LINE
8
Calque 1
10
460.742310
20
204.153640
11
459.540020
21
203.357280
0
LINE
8
Calque 1
10
459.540020
20
203.357280
11
458.647762
21
202.682410
0
LINE
8
Calque 1
10
458.647762
20
202.682410
11
458.190850
21
202.178150
0
LINE
8
Calque 1
10
458.190850
20
202.178150
11
458.181736
21
201.849288
0
LINE
8
Calque 1
10
458.181736
20
201.849288
11
458.366340
21
201.596130
0
LINE
8
Calque 1
10
458.366340
20
201.596130
11
461.214410
21
201.230990
0
LINE
8
Calque 1
10
461.214410
20
201.230990
11
463.493699
21
200.956418
0
LINE
8
Calque 1
10
463.493699
20
200.956418
11
465.163920
21
200.413240
0
LINE
8
Calque 1
10
465.163920
20
200.413240
11
466.169492
21
199.876085
0
LINE
8
Calque 1
10
466.169492
20
199.876085
11
466.587740
21
199.500000
0
LINE
8
Calque 1
10
466.587740
20
199.500000
11
466.412867
21
199.261094
0
LINE
8
Calque 1
10
466.412867
20
199.261094
11
465.992430
21
199.053770
0
LINE
8
Calque 1
10
465.992430
20
199.053770
11
464.654840
21
198.346020
0
LINE
8
Calque 1
10
464.654840
20
198.346020
11
464.118484
21
197.812111
0
LINE
8
Calque 1
10
464.118484
20
197.812111
11
463.993390
21
197.256250
0
LINE
8
Calque 1
10
463.993390
20
197.256250
11
464.407954
21
196.649829
0
LINE
8
Calque 1
10
464.407954
20
196.649829
11
465.510710
21
195.961800
0
LINE
8
Calque 1
10
465.510710
20
195.961800
11
466.699021
21
195.447933
0
LINE
8
Calque 1
10
466.699021
20
195.447933
11
467.538800
21
195.234200
0
LINE
8
Calque 1
10
467.538800
20
195.234200
11
468.156249
21
195.447933
0
LINE
8
Calque 1
10
468.156249
20
195.447933
11
468.810020
21
195.961800
0
LINE
8
Calque 1
10
468.810020
20
195.961800
11
470.454260
21
198.276900
0
LINE
8
Calque 1
10
470.454260
20
198.276900
11
471.931450
21
200.710060
0
LINE
8
Calque 1
10
471.931450
20
200.710060
11
472.442681
21
202.030409
0
LINE
8
Calque 1
10
472.442681
20
202.030409
11
472.952000
21
204.017350
0
LINE
8
Calque 1
10
472.952000
20
204.017350
11
473.309226
21
206.377653
0
LINE
8
Calque 1
10
473.309226
20
206.377653
11
473.454780
21
208.595650
0
LINE
8
Calque 1
10
473.454780
20
208.595650
11
473.214430
21
212.537660
0
LINE
8
Calque 1
10
473.214430
20
212.537660
11
472.792185
21
214.402441
0
LINE
8
Calque 1
10
472.792185
20
214.402441
11
471.999560
21
216.345320
0
LINE
8
Calque 1
10
471.999560
20
216.345320
11
470.769687
21
218.356470
0
LINE
8
Calque 1
10
470.769687
20
218.356470
11
469.012820
21
220.428370
0
LINE
8
Calque 1
10
469.012820
20
220.428370
11
467.275155
21
222.099655
0
LINE
8
Calque 1
10
467.275155
20
222.099655
11
465.915730
21
223.167910
0
LINE
8
Calque 1
10
465.915730
20
223.167910
11
463.284040
21
224.337130
0
LINE
8
Calque 1
10
463.284040
20
224.337130
11
461.935400
21
224.711725
0
LINE
8
Calque 1
10
461.935400
20
224.711725
11
460.857780
21
224.867530
0
LINE
8
Calque 1
10
460.857780
20
224.867530
11
460.151864
21
224.762513
0
LINE
8
Calque 1
10
460.151864
20
224.762513
11
459.973160
21
224.347670
0
LINE
8
Calque 1
10
459.973160
20
224.347670
11
459.837148
21
223.908768
0
LINE
8
Calque 1
10
459.837148
20
223.908768
11
459.510140
21
223.583550
0
LINE
8
Calque 1
10
459.510140
20
223.583550
11
457.490900
21
223.019070
0
LINE
8
Calque 1
10
457.490900
20
223.019070
11
455.699651
21
222.439149
0
LINE
8
Calque 1
10
455.699651
20
222.439149
11
453.578380
21
221.494510
0
LINE
8
Calque 1
10
453.578380
20
221.494510
11
451.365304
21
220.166722
0
LINE
8
Calque 1
10
451.365304
20
220.166722
11
450.584900
21
219.417032
0
LINE
8
Calque 1
10
450.584900
20
219.417032
11
449.710640
21
218.357690
0
LINE
8
Calque 1
10
449.710640
20
218.357690
11
448.199200
21
216.425220
0
LINE
8
Calque 1
10
448.199200
20
216.425220
11
446.479410
21
216.382620
0
LINE
8
Calque 1
10
446.479410
20
216.382620
11
444.230450
21
216.384620
0
LINE
8
Calque 1
10
444.230450
20
216.384620
11
443.680746
21
216.612040
0
LINE
8
Calque 1
10
443.680746
20
216.612040
11
443.102190
21
217.095690
0
LINE
8
Calque 1
10
443.102190
20
217.095690
11
442.719131
21
217.630904
0
LINE
8
Calque 1
10
442.719131
20
217.630904
11
442.639440
21
217.982360
0
LINE
8
Calque 1
10
442.639440
20
217.982360
11
442.883152
21
218.099611
0
LINE
8
Calque 1
10
442.883152
20
218.099611
11
443.277630
21
218.071760
0
LINE
8
Calque 1
10
443.277630
20
218.071760
11
443.788976
21
218.062890
0
LINE
8
Calque 1
10
443.788976
20
218.062890
11
444.313650
21
218.226400
0
LINE
8
Calque 1
10
444.313650
20
218.226400
11
444.705311
21
218.598269
0
LINE
8
Calque 1
10
444.705311
20
218.598269
11
444.550560
21
219.299830
0
LINE
8
Calque 1
10
444.550560
20
219.299830
11
444.183818
21
219.913835
0
LINE
8
Calque 1
10
444.183818
20
219.913835
11
443.580420
21
219.936780
0
LINE
8
Calque 1
10
443.580420
20
219.936780
11
441.237030
21
219.025440
0
LINE
8
Calque 1
10
441.237030
20
219.025440
11
438.775000
21
217.701080
0
LINE
8
Calque 1
10
438.775000
20
217.701080
11
438.025987
21
217.002044
0
LINE
8
Calque 1
10
438.025987
20
217.002044
11
437.336660
21
216.112830
0
LINE
8
Calque 1
10
437.336660
20
216.112830
11
436.689830
21
214.686060
0
LINE
8
Calque 1
10
436.689830
20
214.686060
11
436.621655
21
214.402048
0
LINE
8
Calque 1
10
436.621655
20
214.402048
11
436.457750
21
214.283920
0
LINE
8
Calque 1
10
436.457750
20
214.283920
11
436.333256
21
214.633670
0
LINE
8
Calque 1
10
436.333256
20
214.633670
11
436.359850
21
215.474550
0
LINE
8
Calque 1
10
436.359850
20
215.474550
11
436.338050
21
216.665170
0
LINE
8
Calque 1
10
436.338050
20
216.665170
11
435.509890
21
215.940270
0
LINE
8
Calque 1
10
435.509890
20
215.940270
11
434.994282
21
215.480856
0
LINE
8
Calque 1
10
434.994282
20
215.480856
11
434.875432
21
215.481468
0
LINE
8
Calque 1
10
434.875432
20
215.481468
11
434.837730
21
215.630330
0
LINE
8
Calque 1
10
434.837730
20
215.630330
11
435.075297
21
216.282059
0
LINE
8
Calque 1
10
435.075297
20
216.282059
11
435.646480
21
217.266270
0
LINE
8
Calque 1
10
435.646480
20
217.266270
11
436.576321
21
218.366164
0
LINE
8
Calque 1
10
436.576321
20
218.366164
11
437.676210
21
219.296010
0
LINE
8
Calque 1
10
437.676210
20
219.296010
11
438.677740
21
219.867189
0
LINE
8
Calque 1
10
438.677740
20
219.867189
11
439.371080
21
220.104760
0
LINE
8
Calque 1
10
439.371080
20
220.104760
11
441.299110
21
220.648830
0
LINE
8
Calque 1
10
441.299110
20
220.648830
11
442.522812
21
221.263454
0
LINE
8
Calque 1
10
442.522812
20
221.263454
11
443.415180
21
221.979530
0
LINE
8
Calque 1
10
443.415180
20
221.979530
11
443.929810
21
222.824261
0
LINE
8
Calque 1
10
443.929810
20
222.824261
11
444.237620
21
223.750570
0
LINE
8
Calque 1
10
444.237620
20
223.750570
11
444.832720
21
225.793300
0
LINE
8
Calque 1
10
444.832720
20
225.793300
11
445.873340
21
227.838560
0
LINE
8
Calque 1
10
445.873340
20
227.838560
11
446.479390
21
228.996110
0
LINE
8
Calque 1
10
446.479390
20
228.996110
11
445.632220
21
228.997110
0
LINE
8
Calque 1
10
445.632220
20
228.997110
11
444.847172
21
228.703768
0
LINE
8
Calque 1
10
444.847172
20
228.703768
11
444.149380
21
228.236440
0
LINE
8
Calque 1
10
444.149380
20
228.236440
11
443.512202
21
227.430903
0
LINE
8
Calque 1
10
443.512202
20
227.430903
11
442.872910
21
226.324450
0
LINE
8
Calque 1
10
442.872910
20
226.324450
11
442.426465
21
225.141383
0
LINE
8
Calque 1
10
442.426465
20
225.141383
11
442.396870
21
224.253590
0
LINE
8
Calque 1
10
442.396870
20
224.253590
11
442.413670
21
223.621344
0
LINE
8
Calque 1
10
442.413670
20
223.621344
11
441.676240
21
223.589960
0
LINE
8
Calque 1
10
441.676240
20
223.589960
11
440.950945
21
223.561381
0
LINE
8
Calque 1
10
440.950945
20
223.561381
11
440.853880
21
223.081130
0
LINE
8
Calque 1
10
440.853880
20
223.081130
11
440.820080
21
222.485820
0
LINE
8
Calque 1
10
440.820080
20
222.485820
11
439.746180
21
222.894060
0
LINE
8
Calque 1
10
439.746180
20
222.894060
11
438.769130
21
223.302290
0
LINE
8
Calque 1
10
438.769130
20
223.302290
11
438.465230
21
222.497180
0
LINE
8
Calque 1
10
438.465230
20
222.497180
11
438.166616
21
221.928659
0
LINE
8
Calque 1
10
438.166616
20
221.928659
11
437.875390
21
221.692170
0
LINE
8
Calque 1
10
437.875390
20
221.692170
11
437.289730
21
221.991880
0
LINE
8
Calque 1
10
437.289730
20
221.991880
11
436.956247
21
222.156819
0
LINE
8
Calque 1
10
436.956247
20
222.156819
11
436.575350
21
222.132480
0
LINE
8
Calque 1
10
436.575350
20
222.132480
11
436.274157
21
221.797446
0
LINE
8
Calque 1
10
436.274157
20
221.797446
11
436.160690
21
221.171300
0
LINE
8
Calque 1
10
436.160690
20
221.171300
11
436.024810
21
220.369250
0
LINE
8
Calque 1
10
436.024810
20
220.369250
11
435.378150
21
220.688240
0
LINE
8
Calque 1
10
435.378150
20
220.688240
11
434.860725
21
220.851944
0
LINE
8
Calque 1
10
434.860725
20
220.851944
11
434.321790
21
220.513470
0
LINE
8
Calque 1
10
434.321790
20
220.513470
11
433.651700
21
220.144210
0
LINE
8
Calque 1
10
433.651700
20
220.144210
11
433.219580
21
222.237210
0
LINE
8
Calque 1
10
433.219580
20
222.237210
11
433.017695
21
224.288096
0
LINE
8
Calque 1
10
433.017695
20
224.288096
11
432.964310
21
226.454670
0
LINE
8
Calque 1
10
432.964310
20
226.454670
11
433.150587
21
228.578933
0
LINE
8
Calque 1
10
433.150587
20
228.578933
11
433.779380
21
230.291130
0
LINE
8
Calque 1
10
433.779380
20
230.291130
11
434.951780
21
232.388480
0
LINE
8
Calque 1
10
434.951780
20
232.388480
11
435.279995
21
232.709696
0
LINE
8
Calque 1
10
435.279995
20
232.709696
11
435.493790
21
232.766020
0
LINE
8
Calque 1
10
435.493790
20
232.766020
11
435.849650
21
230.999040
0
LINE
8
Calque 1
10
435.849650
20
230.999040
11
436.261930
21
229.175650
0
LINE
8
Calque 1
10
436.261930
20
229.175650
11
436.525332
21
229.124438
0
LINE
8
Calque 1
10
436.525332
20
229.124438
11
436.893600
21
229.266350
0
LINE
8
Calque 1
10
436.893600
20
229.266350
11
437.344700
21
229.922905
0
LINE
8
Calque 1
10
437.344700
20
229.922905
11
437.807230
21
231.109080
0
LINE
8
Calque 1
10
437.807230
20
231.109080
11
438.295547
21
232.407473
0
LINE
8
Calque 1
10
438.295547
20
232.407473
11
438.808660
21
233.333850
0
LINE
8
Calque 1
10
438.808660
20
233.333850
11
439.339430
21
233.995310
0
LINE
8
Calque 1
10
439.339430
20
233.995310
11
439.283530
21
233.004210
0
LINE
8
Calque 1
10
439.283530
20
233.004210
11
439.333354
21
232.214988
0
LINE
8
Calque 1
10
439.333354
20
232.214988
11
439.531520
21
231.709250
0
LINE
8
Calque 1
10
439.531520
20
231.709250
11
439.940290
21
231.542375
0
LINE
8
Calque 1
10
439.940290
20
231.542375
11
440.621160
21
231.730850
0
LINE
8
Calque 1
10
440.621160
20
231.730850
11
441.254106
21
232.167790
0
LINE
8
Calque 1
10
441.254106
20
232.167790
11
441.672440
21
232.761240
0
LINE
8
Calque 1
10
441.672440
20
232.761240
11
442.083510
21
234.888670
0
LINE
8
Calque 1
10
442.083510
20
234.888670
11
442.309937
21
236.081979
0
LINE
8
Calque 1
10
442.309937
20
236.081979
11
442.649870
21
236.953410
0
LINE
8
Calque 1
10
442.649870
20
236.953410
11
443.078535
21
237.447841
0
LINE
8
Calque 1
10
443.078535
20
237.447841
11
443.518270
21
237.734740
0
LINE
8
Calque 1
10
443.518270
20
237.734740
11
446.184090
21
238.977290
0
LINE
8
Calque 1
10
446.184090
20
238.977290
11
448.031769
21
240.029500
0
LINE
8
Calque 1
10
448.031769
20
240.029500
11
449.359090
21
241.009770
0
LINE
8
Calque 1
10
449.359090
20
241.009770
11
451.322200
21
243.457160
0
LINE
8
Calque 1
10
451.322200
20
243.457160
11
452.555660
21
244.975520
0
LINE
8
Calque 1
10
452.555660
20
244.975520
11
452.703494
21
244.606343
0
LINE
8
Calque 1
10
452.703494
20
244.606343
11
452.739960
21
243.718750
0
LINE
8
Calque 1
10
452.739960
20
243.718750
11
452.697160
21
242.461980
0
LINE
8
Calque 1
10
452.697160
20
242.461980
11
453.901870
21
242.500380
0
LINE
8
Calque 1
10
453.901870
20
242.500380
11
455.023880
21
242.684951
0
LINE
8
Calque 1
10
455.023880
20
242.684951
11
456.018540
21
243.094710
0
LINE
8
Calque 1
10
456.018540
20
243.094710
11
457.354360
21
243.651640
0
LINE
8
Calque 1
10
457.354360
20
243.651640
11
460.753650
21
245.112910
0
LINE
8
Calque 1
10
460.753650
20
245.112910
11
464.959990
21
247.403120
0
LINE
8
Calque 1
10
464.959990
20
247.403120
11
468.506010
21
250.182230
0
LINE
8
Calque 1
10
468.506010
20
250.182230
11
470.821120
21
251.976400
0
LINE
8
Calque 1
10
470.821120
20
251.976400
11
470.093510
21
250.325810
0
LINE
8
Calque 1
10
470.093510
20
250.325810
11
469.141395
21
248.800549
0
LINE
8
Calque 1
10
469.141395
20
248.800549
11
467.874010
21
247.233610
0
LINE
8
Calque 1
10
467.874010
20
247.233610
11
466.038706
21
245.601159
0
LINE
8
Calque 1
10
466.038706
20
245.601159
11
463.710270
21
243.917220
0
LINE
8
Calque 1
10
463.710270
20
243.917220
11
461.822271
21
242.595294
0
LINE
8
Calque 1
10
461.822271
20
242.595294
11
461.034980
21
241.832080
0
LINE
8
Calque 1
10
461.034980
20
241.832080
11
461.235497
21
241.581665
0
LINE
8
Calque 1
10
461.235497
20
241.581665
11
461.938320
21
241.613880
0
LINE
8
Calque 1
10
461.938320
20
241.613880
11
464.981590
21
242.686890
0
LINE
8
Calque 1
10
464.981590
20
242.686890
11
467.027586
21
243.697840
0
LINE
8
Calque 1
10
467.027586
20
243.697840
11
468.946510
21
244.828280
0
LINE
8
Calque 1
10
468.946510
20
244.828280
11
472.131250
21
247.263270
0
LINE
8
Calque 1
10
472.131250
20
247.263270
11
473.136766
21
248.076885
0
LINE
8
Calque 1
10
473.136766
20
248.076885
11
473.649660
21
248.320620
0
LINE
8
Calque 1
10
473.649660
20
248.320620
11
473.473350
21
247.768234
0
LINE
8
Calque 1
10
473.473350
20
247.768234
11
472.821900
21
246.667710
0
LINE
8
Calque 1
10
472.821900
20
246.667710
11
470.814250
21
244.072710
0
LINE
8
Calque 1
10
470.814250
20
244.072710
11
469.275906
21
242.713291
0
LINE
8
Calque 1
10
469.275906
20
242.713291
11
467.006590
21
240.995470
0
LINE
8
Calque 1
10
467.006590
20
240.995470
11
464.215690
21
238.890130
0
LINE
8
Calque 1
10
464.215690
20
238.890130
11
464.409020
21
238.493260
0
LINE
8
Calque 1
10
464.409020
20
238.493260
11
466.455490
21
237.387390
0
LINE
8
Calque 1
10
466.455490
20
237.387390
11
468.836740
21
236.376310
0
LINE
8
Calque 1
10
468.836740
20
236.376310
11
469.213974
21
236.184311
0
LINE
8
Calque 1
10
469.213974
20
236.184311
11
468.922740
21
235.894670
0
LINE
8
Calque 1
10
468.922740
20
235.894670
11
467.653810
21
235.125150
0
LINE
8
Calque 1
10
467.653810
20
235.125150
11
467.033495
21
234.659980
0
LINE
8
Calque 1
10
467.033495
20
234.659980
11
467.094300
21
234.170030
0
LINE
8
Calque 1
10
467.094300
20
234.170030
11
467.304980
21
233.924424
0
LINE
8
Calque 1
10
467.304980
20
233.924424
11
467.668026
21
233.748783
0
LINE
8
Calque 1
10
467.668026
20
233.748783
11
469.078130
21
233.534730
0
LINE
8
Calque 1
10
469.078130
20
233.534730
11
470.891161
21
233.197270
0
LINE
8
Calque 1
10
470.891161
20
233.197270
11
472.925120
21
232.397600
0
LINE
8
Calque 1
10
472.925120
20
232.397600
11
474.428986
21
231.626416
0
LINE
8
Calque 1
10
474.428986
20
231.626416
11
475.054490
21
231.175490
0
LINE
8
Calque 1
10
475.054490
20
231.175490
11
474.879617
21
231.017808
0
LINE
8
Calque 1
10
474.879617
20
231.017808
11
474.459180
21
230.951640
0
LINE
8
Calque 1
10
474.459180
20
230.951640
11
473.791106
21
230.799956
0
LINE
8
Calque 1
10
473.791106
20
230.799956
11
473.020860
21
230.436630
0
LINE
8
Calque 1
10
473.020860
20
230.436630
11
472.333571
21
229.901870
0
LINE
8
Calque 1
10
472.333571
20
229.901870
11
471.864960
21
229.337980
0
LINE
8
Calque 1
10
471.864960
20
229.337980
11
471.717830
21
228.772579
0
LINE
8
Calque 1
10
471.717830
20
228.772579
11
472.178800
21
228.277730
0
LINE
8
Calque 1
10
472.178800
20
228.277730
11
475.040520
21
226.956500
0
LINE
8
Calque 1
10
475.040520
20
226.956500
11
478.159870
21
225.911420
0
LINE
8
Calque 1
10
478.159870
20
225.911420
11
478.677108
21
225.831477
0
LINE
8
Calque 1
10
478.677108
20
225.831477
11
479.067840
21
225.942756
0
LINE
8
Calque 1
10
479.067840
20
225.942756
11
480.094490
21
227.133660
0
LINE
8
Calque 1
10
480.094490
20
227.133660
11
481.605360
21
228.793130
0
LINE
8
Calque 1
10
481.605360
20
228.793130
11
483.124280
21
229.219510
0
LINE
8
Calque 1
10
483.124280
20
229.219510
11
485.770110
21
230.169520
0
LINE
8
Calque 1
10
485.770110
20
230.169520
11
487.094335
21
230.964275
0
LINE
8
Calque 1
10
487.094335
20
230.964275
11
487.952930
21
231.818040
0
LINE
8
Calque 1
10
487.952930
20
231.818040
11
488.399595
21
232.780444
0
LINE
8
Calque 1
10
488.399595
20
232.780444
11
488.548240
21
233.893770
0
LINE
8
Calque 1
10
488.548240
20
233.893770
11
488.730152
21
235.101380
0
LINE
8
Calque 1
10
488.730152
20
235.101380
11
489.355540
21
236.355340
0
LINE
8
Calque 1
10
489.355540
20
236.355340
11
489.885341
21
237.294730
0
LINE
8
Calque 1
10
489.885341
20
237.294730
11
490.025480
21
237.765670
0
LINE
8
Calque 1
10
490.025480
20
237.765670
11
489.092540
21
237.573480
0
LINE
8
Calque 1
10
489.092540
20
237.573480
11
488.217815
21
237.001354
0
LINE
8
Calque 1
10
488.217815
20
237.001354
11
487.231970
21
236.088570
0
LINE
8
Calque 1
10
487.231970
20
236.088570
11
486.479827
21
235.132708
0
LINE
8
Calque 1
10
486.479827
20
235.132708
11
486.166990
21
234.457000
0
LINE
8
Calque 1
10
486.166990
20
234.457000
11
486.566700
21
233.410120
0
LINE
8
Calque 1
10
486.566700
20
233.410120
11
486.786164
21
232.968250
0
LINE
8
Calque 1
10
486.786164
20
232.968250
11
486.752510
21
232.707250
0
LINE
8
Calque 1
10
486.752510
20
232.707250
11
486.154360
21
232.818120
0
LINE
8
Calque 1
10
486.154360
20
232.818120
11
485.174800
21
233.065250
0
LINE
8
Calque 1
10
485.174800
20
233.065250
11
484.702894
21
232.926811
0
LINE
8
Calque 1
10
484.702894
20
232.926811
11
484.579490
21
232.386260
0
LINE
8
Calque 1
10
484.579490
20
232.386260
11
484.580000
21
231.703000
0
LINE
8
Calque 1
10
484.580000
20
231.703000
11
483.640040
21
232.283930
0
LINE
8
Calque 1
10
483.640040
20
232.283930
11
482.929327
21
232.647343
0
LINE
8
Calque 1
10
482.929327
20
232.647343
11
482.540530
21
232.705310
0
LINE
8
Calque 1
10
482.540530
20
232.705310
11
482.223720
21
231.592250
0
LINE
8
Calque 1
10
482.223720
20
231.592250
11
482.066460
21
230.638740
0
LINE
8
Calque 1
10
482.066460
20
230.638740
11
481.341410
21
231.209640
0
LINE
8
Calque 1
10
481.341410
20
231.209640
11
480.750871
21
231.564349
0
LINE
8
Calque 1
10
480.750871
20
231.564349
11
480.349220
21
231.615450
0
LINE
8
Calque 1
10
480.349220
20
231.615450
11
480.160555
21
231.231413
0
LINE
8
Calque 1
10
480.160555
20
231.231413
11
480.082080
21
230.539920
0
LINE
8
Calque 1
10
480.082080
20
230.539920
11
479.940480
21
229.629500
0
LINE
8
Calque 1
10
479.940480
20
229.629500
11
479.114660
21
230.077820
0
LINE
8
Calque 1
10
479.114660
20
230.077820
11
478.474674
21
230.388454
0
LINE
8
Calque 1
10
478.474674
20
230.388454
11
478.055180
21
230.012920
0
LINE
8
Calque 1
10
478.055180
20
230.012920
11
477.702162
21
229.661089
0
LINE
8
Calque 1
10
477.702162
20
229.661089
11
477.429860
21
229.895330
0
LINE
8
Calque 1
10
477.429860
20
229.895330
11
477.169410
21
231.084660
0
LINE
8
Calque 1
10
477.169410
20
231.084660
11
476.939210
21
232.823710
0
LINE
8
Calque 1
10
476.939210
20
232.823710
11
476.874030
21
234.131101
0
LINE
8
Calque 1
10
476.874030
20
234.131101
11
477.086950
21
236.089590
0
LINE
8
Calque 1
10
477.086950
20
236.089590
11
477.590266
21
238.289028
0
LINE
8
Calque 1
10
477.590266
20
238.289028
11
478.374750
21
240.237530
0
LINE
8
Calque 1
10
478.374750
20
240.237530
11
479.101410
21
241.528090
0
LINE
8
Calque 1
10
479.101410
20
241.528090
11
479.556240
21
242.064870
0
LINE
8
Calque 1
10
479.556240
20
242.064870
11
479.740758
21
241.720184
0
LINE
8
Calque 1
10
479.740758
20
241.720184
11
479.817500
21
240.891470
0
LINE
8
Calque 1
10
479.817500
20
240.891470
11
480.083710
21
239.017880
0
LINE
8
Calque 1
10
480.083710
20
239.017880
11
480.368398
21
238.555353
0
LINE
8
Calque 1
10
480.368398
20
238.555353
11
480.679020
21
238.426560
0
LINE
8
Calque 1
10
480.679020
20
238.426560
11
480.997685
21
238.691525
0
LINE
8
Calque 1
10
480.997685
20
238.691525
11
481.301680
21
239.175670
0
LINE
8
Calque 1
10
481.301680
20
239.175670
11
482.360010
21
241.403410
0
LINE
8
Calque 1
10
482.360010
20
241.403410
11
483.124790
21
242.990910
0
LINE
8
Calque 1
10
483.124790
20
242.990910
11
483.257080
21
241.932580
0
LINE
8
Calque 1
10
483.257080
20
241.932580
11
483.484509
21
241.063066
0
LINE
8
Calque 1
10
483.484509
20
241.063066
11
484.010580
21
240.786300
0
LINE
8
Calque 1
10
484.010580
20
240.786300
11
484.634611
21
240.885179
0
LINE
8
Calque 1
10
484.634611
20
240.885179
11
485.263300
21
241.291640
0
LINE
8
Calque 1
10
485.263300
20
241.291640
11
485.749357
21
241.970239
0
LINE
8
Calque 1
10
485.749357
20
241.970239
11
486.031160
21
242.768650
0
LINE
8
Calque 1
10
486.031160
20
242.768650
11
486.310320
21
244.570620
0
LINE
8
Calque 1
10
486.310320
20
244.570620
11
486.604517
21
245.448879
0
LINE
8
Calque 1
10
486.604517
20
245.448879
11
487.111220
21
246.270970
0
LINE
8
Calque 1
10
487.111220
20
246.270970
11
487.826487
21
246.877551
0
LINE
8
Calque 1
10
487.826487
20
246.877551
11
488.622050
21
247.237690
0
LINE
8
Calque 1
10
488.622050
20
247.237690
11
490.136250
21
247.853580
0
LINE
8
Calque 1
10
490.136250
20
247.853580
11
491.812600
21
248.800610
0
LINE
8
Calque 1
10
491.812600
20
248.800610
11
492.909341
21
249.580643
0
LINE
8
Calque 1
10
492.909341
20
249.580643
11
494.121020
21
250.731730
0
LINE
8
Calque 1
10
494.121020
20
250.731730
11
495.875150
21
252.926800
0
LINE
8
Calque 1
10
495.875150
20
252.926800
11
496.563280
21
253.706540
0
LINE
8
Calque 1
10
496.563280
20
253.706540
11
496.702859
21
253.337363
0
LINE
8
Calque 1
10
496.702859
20
253.337363
11
496.718950
21
252.449770
0
LINE
8
Calque 1
10
496.718950
20
252.449770
11
496.647150
21
251.193000
0
LINE
8
Calque 1
10
496.647150
20
251.193000
11
497.916350
21
251.238100
0
LINE
8
Calque 1
10
497.916350
20
251.238100
11
499.020671
21
251.405080
0
LINE
8
Calque 1
10
499.020671
20
251.405080
11
499.771210
21
251.833420
0
LINE
8
Calque 1
10
499.771210
20
251.833420
11
500.487059
21
252.250639
0
LINE
8
Calque 1
10
500.487059
20
252.250639
11
501.481270
21
252.383600
0
LINE
8
Calque 1
10
501.481270
20
252.383600
11
502.207979
21
252.475963
0
LINE
8
Calque 1
10
502.207979
20
252.475963
11
503.179971
21
252.794563
0
LINE
8
Calque 1
10
503.179971
20
252.794563
11
506.491300
21
254.359520
0
LINE
8
Calque 1
10
506.491300
20
254.359520
11
509.853786
21
256.220850
0
LINE
8
Calque 1
10
509.853786
20
256.220850
11
512.481670
21
257.921260
0
LINE
8
Calque 1
10
512.481670
20
257.921260
11
514.682940
21
259.410560
0
LINE
8
Calque 1
10
514.682940
20
259.410560
11
514.254930
21
258.296220
0
LINE
8
Calque 1
10
514.254930
20
258.296220
11
512.725030
21
256.112300
0
LINE
8
Calque 1
10
512.725030
20
256.112300
11
511.195997
21
254.760319
0
LINE
8
Calque 1
10
511.195997
20
254.760319
11
508.931620
21
253.147300
0
LINE
8
Calque 1
10
508.931620
20
253.147300
11
505.548270
21
250.927600
0
LINE
8
Calque 1
10
505.548270
20
250.927600
11
505.122646
21
250.441735
0
LINE
8
Calque 1
10
505.122646
20
250.441735
11
504.952960
21
249.857710
0
LINE
8
Calque 1
10
504.952960
20
249.857710
11
505.067221
21
249.365676
0
LINE
8
Calque 1
10
505.067221
20
249.365676
11
505.425150
21
249.208600
0
LINE
8
Calque 1
10
505.425150
20
249.208600
11
507.343380
21
249.721310
0
LINE
8
Calque 1
10
507.343380
20
249.721310
11
511.665720
21
251.693860
0
LINE
8
Calque 1
10
511.665720
20
251.693860
11
514.154027
21
253.122305
0
LINE
8
Calque 1
10
514.154027
20
253.122305
11
516.097490
21
254.506620
0
LINE
8
Calque 1
10
516.097490
20
254.506620
11
517.196037
21
255.371469
0
LINE
8
Calque 1
10
517.196037
20
255.371469
11
517.652960
21
255.550960
0
LINE
8
Calque 1
10
517.652960
20
255.550960
11
516.895176
21
254.582835
0
LINE
8
Calque 1
10
516.895176
20
254.582835
11
515.073270
21
252.688520
0
LINE
8
Calque 1
10
515.073270
20
252.688520
11
512.689875
21
250.535099
0
LINE
8
Calque 1
10
512.689875
20
250.535099
11
510.582120
21
248.944020
0
LINE
8
Calque 1
10
510.582120
20
248.944020
11
509.230166
21
248.003548
0
LINE
8
Calque 1
10
509.230166
20
248.003548
11
508.663890
21
247.414360
0
LINE
8
Calque 1
10
508.663890
20
247.414360
11
508.795017
21
247.131795
0
LINE
8
Calque 1
10
508.795017
20
247.131795
11
509.120140
21
246.928520
0
LINE
8
Calque 1
10
509.120140
20
246.928520
11
510.906080
21
246.149940
0
LINE
8
Calque 1
10
510.906080
20
246.149940
11
512.890460
21
244.962580
0
LINE
8
Calque 1
10
512.890460
20
244.962580
11
513.279890
21
244.536778
0
LINE
8
Calque 1
10
513.279890
20
244.536778
11
513.287330
21
244.293210
0
LINE
8
Calque 1
10
513.287330
20
244.293210
11
512.143440
21
243.643390
0
LINE
8
Calque 1
10
512.143440
20
243.643390
11
511.553466
21
243.169989
0
LINE
8
Calque 1
10
511.553466
20
243.169989
11
511.369790
21
242.784540
0
LINE
8
Calque 1
10
511.369790
20
242.784540
11
511.749382
21
242.492824
0
LINE
8
Calque 1
10
511.749382
20
242.492824
11
512.513680
21
242.244780
0
LINE
8
Calque 1
10
512.513680
20
242.244780
11
514.880370
21
241.655050
0
LINE
8
Calque 1
10
514.880370
20
241.655050
11
516.205573
21
241.142511
0
LINE
8
Calque 1
10
516.205573
20
241.142511
11
517.526200
21
240.433720
0
LINE
8
Calque 1
10
517.526200
20
240.433720
11
518.843580
21
239.585170
0
LINE
8
Calque 1
10
518.843580
20
239.585170
11
517.715040
21
239.382910
0
LINE
8
Calque 1
10
517.715040
20
239.382910
11
516.309650
21
239.009540
0
LINE
8
Calque 1
10
516.309650
20
239.009540
11
515.777030
21
238.165690
0
LINE
8
Calque 1
10
515.777030
20
238.165690
11
515.668176
21
237.532661
0
LINE
8
Calque 1
10
515.668176
20
237.532661
11
515.960100
21
237.008000
0
LINE
8
Calque 1
10
515.960100
20
237.008000
11
517.522894
21
236.048011
0
LINE
8
Calque 1
10
517.522894
20
236.048011
11
520.663980
21
234.420920
0
LINE
8
Calque 1
10
520.663980
20
234.420920
11
524.219260
21
232.532064
0
LINE
8
Calque 1
10
524.219260
20
232.532064
11
526.170800
21
231.125180
0
LINE
8
Calque 1
10
526.170800
20
231.125180
11
527.207669
21
229.968903
0
LINE
8
Calque 1
10
527.207669
20
229.968903
11
527.956740
21
228.865020
0
LINE
8
Calque 1
10
527.956740
20
228.865020
11
528.500870
21
227.489490
0
LINE
8
Calque 1
10
528.500870
20
227.489490
11
528.247780
21
227.296256
0
LINE
8
Calque 1
10
528.247780
20
227.296256
11
527.461530
21
227.346750
0
LINE
8
Calque 1
10
527.461530
20
227.346750
11
526.562426
21
227.382034
0
LINE
8
Calque 1
10
526.562426
20
227.382034
11
526.006320
21
227.097090
0
LINE
8
Calque 1
10
526.006320
20
227.097090
11
525.712611
21
226.682374
0
LINE
8
Calque 1
10
525.712611
20
226.682374
11
525.590450
21
226.269300
0
LINE
8
Calque 1
10
525.590450
20
226.269300
11
526.400420
21
224.441710
0
LINE
8
Calque 1
10
526.400420
20
224.441710
11
527.458760
21
222.872530
0
LINE
8
Calque 1
10
527.458760
20
222.872530
11
527.707120
21
222.470060
0
LINE
8
Calque 1
10
527.707120
20
222.470060
11
527.527671
21
222.294231
0
LINE
8
Calque 1
10
527.527671
20
222.294231
11
527.096230
21
222.221100
0
LINE
8
Calque 1
10
527.096230
20
222.221100
11
526.529082
21
222.121865
0
LINE
8
Calque 1
10
526.529082
20
222.121865
11
526.023360
21
221.883280
0
LINE
8
Calque 1
10
526.023360
20
221.883280
11
525.635324
21
221.370893
0
LINE
8
Calque 1
10
525.635324
20
221.370893
11
525.351140
21
220.613360
0
LINE
8
Calque 1
10
525.351140
20
220.613360
11
525.296899
21
219.367019
0
LINE
8
Calque 1
10
525.296899
20
219.367019
11
525.512140
21
217.577730
0
LINE
8
Calque 1
10
525.512140
20
217.577730
11
525.743101
21
215.507024
0
LINE
8
Calque 1
10
525.743101
20
215.507024
11
525.708930
21
213.498320
0
LINE
8
Calque 1
10
525.708930
20
213.498320
11
525.417700
21
210.852490
0
LINE
8
Calque 1
10
525.417700
20
210.852490
11
525.023440
21
209.134050
0
LINE
8
Calque 1
10
525.023440
20
209.134050
11
523.698880
21
206.091340
0
LINE
8
Calque 1
10
523.698880
20
206.091340
11
521.595400
21
202.245050
0
LINE
8
Calque 1
10
521.595400
20
202.245050
11
519.827470
21
199.334640
0
LINE
8
Calque 1
10
519.827470
20
199.334640
11
517.682050
21
196.556510
0
LINE
8
Calque 1
10
517.682050
20
196.556510
11
515.807039
21
194.561786
0
LINE
8
Calque 1
10
515.807039
20
194.561786
11
513.312550
21
192.180970
0
LINE
8
Calque 1
10
513.312550
20
192.180970
11
508.392540
21
188.066480
0
LINE
8
Calque 1
10
508.392540
20
188.066480
11
504.159210
21
185.257580
0
LINE
8
Calque 1
10
504.159210
20
185.257580
11
499.564100
21
182.703180
0
LINE
8
Calque 1
10
499.564100
20
182.703180
11
494.669310
21
180.528180
0
LINE
8
Calque 1
10
494.669310
20
180.528180
11
491.591500
21
179.333380
0
LINE
8
Calque 1
10
491.591500
20
179.333380
11
488.416500
21
178.463080
0
LINE
8
Calque 1
10
488.416500
20
178.463080
11
484.183170
21
177.503880
0
LINE
8
Calque 1
10
484.183170
20
177.503880
11
481.272750
21
176.915480
0
LINE
8
Calque 1
10
481.272750
20
176.915480
11
478.097750
21
175.903180
0
LINE
8
Calque 1
10
478.097750
20
175.903180
11
473.599830
21
174.519680
0
LINE
8
Calque 1
10
473.599830
20
174.519680
11
469.366500
21
173.553180
0
LINE
8
Calque 1
10
469.366500
20
173.553180
11
466.852960
21
173.002780
0
LINE
8
Calque 1
10
466.852960
20
173.002780
11
465.053620
21
172.629580
0
LINE
8
Calque 1
10
465.053620
20
172.629580
11
463.454031
21
172.003418
0
LINE
8
Calque 1
10
463.454031
20
172.003418
11
460.834540
21
170.697380
0
LINE
8
Calque 1
10
460.834540
20
170.697380
11
457.835134
21
168.922743
0
LINE
8
Calque 1
10
457.835134
20
168.922743
11
455.740190
21
167.187780
0
LINE
8
Calque 1
10
455.740190
20
167.187780
11
454.251402
21
165.503080
0
LINE
8
Calque 1
10
454.251402
20
165.503080
11
453.221510
21
163.880480
0
LINE
8
Calque 1
10
453.221510
20
163.880480
11
452.606289
21
162.247655
0
LINE
8
Calque 1
10
452.606289
20
162.247655
11
452.346500
21
160.510880
0
LINE
8
Calque 1
10
452.346500
20
160.510880
11
452.403100
21
158.085180
0
LINE
8
Calque 1
10
452.403100
20
158.085180
11
452.906837
21
157.204380
0
LINE
8
Calque 1
10
452.906837
20
157.204380
11
453.891190
21
155.990280
0
LINE
8
Calque 1
10
453.891190
20
155.990280
11
455.231751
21
154.705018
0
LINE
8
Calque 1
10
455.231751
20
154.705018
11
456.591940
21
153.653380
0
LINE
8
Calque 1
10
456.591940
20
153.653380
11
458.148779
21
152.846180
0
LINE
8
Calque 1
10
458.148779
20
152.846180
11
459.962140
21
152.148780
0
LINE
8
Calque 1
10
459.962140
20
152.148780
11
463.219200
21
151.235780
0
LINE
8
Calque 1
10
463.219200
20
151.235780
11
464.618839
21
151.076830
0
LINE
8
Calque 1
10
464.618839
20
151.076830
11
466.376970
21
151.266780
0
LINE
8
Calque 1
10
466.376970
20
151.266780
11
468.320246
21
151.788793
0
LINE
8
Calque 1
10
468.320246
20
151.788793
11
470.355960
21
152.701480
0
LINE
8
Calque 1
10
470.355960
20
152.701480
11
472.346915
21
153.899693
0
LINE
8
Calque 1
10
472.346915
20
153.899693
11
474.209650
21
155.222480
0
LINE
8
Calque 1
10
474.209650
20
155.222480
11
477.768060
21
158.332480
0
LINE
8
Calque 1
10
477.768060
20
158.332480
11
479.276925
21
159.659730
0
LINE
8
Calque 1
10
479.276925
20
159.659730
11
480.395250
21
160.465580
0
LINE
8
Calque 1
10
480.395250
20
160.465580
11
481.820507
21
161.603443
0
LINE
8
Calque 1
10
481.820507
20
161.603443
11
484.067330
21
163.728980
0
LINE
8
Calque 1
10
484.067330
20
163.728980
11
486.756521
21
166.198043
0
LINE
8
Calque 1
10
486.756521
20
166.198043
11
489.245350
21
168.161980
0
LINE
8
Calque 1
10
489.245350
20
168.161980
11
491.601809
21
169.641393
0
LINE
8
Calque 1
10
491.601809
20
169.641393
11
493.972750
21
170.945680
0
LINE
8
Calque 1
10
493.972750
20
170.945680
11
498.073790
21
172.832780
0
LINE
8
Calque 1
10
498.073790
20
172.832780
11
500.259906
21
173.534555
0
LINE
8
Calque 1
10
500.259906
20
173.534555
11
503.100870
21
174.228080
0
LINE
8
Calque 1
10
503.100870
20
174.228080
11
506.291677
21
174.751055
0
LINE
8
Calque 1
10
506.291677
20
174.751055
11
509.318580
21
175.041980
0
LINE
8
Calque 1
10
509.318580
20
175.041980
11
512.151275
21
175.039330
0
LINE
8
Calque 1
10
512.151275
20
175.039330
11
514.874830
21
174.855780
0
LINE
8
Calque 1
10
514.874830
20
174.855780
11
519.950650
21
174.043180
0
LINE
8
Calque 1
10
519.950650
20
174.043180
11
523.654810
21
173.115280
0
LINE
8
Calque 1
10
523.654810
20
173.115280
11
527.457410
21
171.394480
0
LINE
8
Calque 1
10
527.457410
20
171.394480
11
529.896866
21
169.956068
0
LINE
8
Calque 1
10
529.896866
20
169.956068
11
532.211410
21
168.313580
0
LINE
8
Calque 1
10
532.211410
20
168.313580
11
534.149482
21
166.595318
0
LINE
8
Calque 1
10
534.149482
20
166.595318
11
535.683800
21
164.974480
0
LINE
8
Calque 1
10
535.683800
20
164.974480
11
536.843382
21
163.229230
0
LINE
8
Calque 1
10
536.843382
20
163.229230
11
537.880490
21
161.211880
0
LINE
8
Calque 1
10
537.880490
20
161.211880
11
538.627495
21
159.248743
0
LINE
8
Calque 1
10
538.627495
20
159.248743
11
539.089590
21
157.633980
0
LINE
8
Calque 1
10
539.089590
20
157.633980
11
539.348790
21
154.303780
0
LINE
8
Calque 1
10
539.348790
20
154.303780
11
539.261841
21
152.571880
0
LINE
8
Calque 1
10
539.261841
20
152.571880
11
539.052800
21
151.164880
0
LINE
8
Calque 1
10
539.052800
20
151.164880
11
538.589570
21
149.989380
0
LINE
8
Calque 1
10
538.589570
20
149.989380
11
537.378320
21
152.111280
0
LINE
8
Calque 1
10
537.378320
20
152.111280
11
536.227859
21
154.107543
0
LINE
8
Calque 1
10
536.227859
20
154.107543
11
534.927900
21
155.927480
0
LINE
8
Calque 1
10
534.927900
20
155.927480
11
533.644115
21
157.281480
0
LINE
8
Calque 1
10
533.644115
20
157.281480
11
532.532530
21
158.157580
0
LINE
8
Calque 1
10
532.532530
20
158.157580
11
529.162330
21
159.860980
0
LINE
8
Calque 1
10
529.162330
20
159.860980
11
525.061290
21
161.560080
0
LINE
8
Calque 1
10
525.061290
20
161.560080
11
522.018580
21
162.387680
0
LINE
8
Calque 1
10
522.018580
20
162.387680
11
518.711290
21
162.983880
0
LINE
8
Calque 1
10
518.711290
20
162.983880
11
516.532655
21
163.153730
0
LINE
8
Calque 1
10
516.532655
20
163.153730
11
514.081080
21
163.140580
0
LINE
8
Calque 1
10
514.081080
20
163.140580
11
511.539125
21
162.860305
0
LINE
8
Calque 1
10
511.539125
20
162.860305
11
509.186290
21
162.330580
0
LINE
8
Calque 1
10
509.186290
20
162.330580
11
506.563229
21
161.391593
0
LINE
8
Calque 1
10
506.563229
20
161.391593
11
503.414830
21
160.070180
0
LINE
8
Calque 1
10
503.414830
20
160.070180
11
500.547775
21
158.666230
0
LINE
8
Calque 1
10
500.547775
20
158.666230
11
498.601120
21
157.528680
0
LINE
8
Calque 1
10
498.601120
20
157.528680
11
496.991084
21
156.121643
0
LINE
8
Calque 1
10
496.991084
20
156.121643
11
494.933350
21
154.069680
0
LINE
8
Calque 1
10
494.933350
20
154.069680
11
492.977781
21
151.878693
0
LINE
8
Calque 1
10
492.977781
20
151.878693
11
491.613370
21
150.137180
0
LINE
8
Calque 1
10
491.613370
20
150.137180
11
490.264406
21
148.407230
0
LINE
8
Calque 1
10
490.264406
20
148.407230
11
488.345960
21
146.243780
0
LINE
8
Calque 1
10
488.345960
20
146.243780
11
484.408170
21
141.648180
0
LINE
8
Calque 1
10
484.408170
20
141.648180
11
482.779709
21
139.695930
0
LINE
8
Calque 1
10
482.779709
20
139.695930
11
481.130660
21
137.984280
0
LINE
8
Calque 1
10
481.130660
20
137.984280
11
478.097150
21
135.534480
0
LINE
8
Calque 1
10
478.097150
20
135.534480
11
475.396220
21
134.119180
0
LINE
8
Calque 1
10
475.396220
20
134.119180
11
471.583510
21
133.181780
0
LINE
8
Calque 1
10
471.583510
20
133.181780
11
466.323790
21
132.572480
0
LINE
8
Calque 1
10
466.323790
20
132.572480
11
459.576920
21
132.548480
0
LINE
8
Calque 1
10
459.576920
20
132.548480
11
459.576300
21
132.549300
0
LINE
8
Calque 1
10
439.617700
20
185.189300
11
439.979136
21
185.499350
0
LINE
8
Calque 1
10
439.979136
20
185.499350
11
440.129470
21
185.860100
0
LINE
8
Calque 1
10
440.129470
20
185.860100
11
439.694380
21
186.921000
0
LINE
8
Calque 1
10
439.694380
20
186.921000
11
439.259280
21
187.585100
0
LINE
8
Calque 1
10
439.259280
20
187.585100
11
438.636040
21
186.487800
0
LINE
8
Calque 1
10
438.636040
20
186.487800
11
438.012810
21
185.304700
0
LINE
8
Calque 1
10
438.012810
20
185.304700
11
438.475830
21
185.097800
0
LINE
8
Calque 1
10
438.475830
20
185.097800
11
439.022390
21
184.946100
0
LINE
8
Calque 1
10
439.022390
20
184.946100
11
439.617700
21
185.189300
0
LINE
8
Calque 1
10
439.617700
20
185.189300
11
439.617700
21
185.189300
0
LINE
8
Calque 1
10
442.973740
20
188.502300
11
443.636287
21
189.402290
0
LINE
8
Calque 1
10
443.636287
20
189.402290
11
443.833640
21
190.294510
0
LINE
8
Calque 1
10
443.833640
20
190.294510
11
443.689489
21
191.081033
0
LINE
8
Calque 1
10
443.689489
20
191.081033
11
443.283340
21
191.681450
0
LINE
8
Calque 1
10
443.283340
20
191.681450
11
442.607352
21
192.045070
0
LINE
8
Calque 1
10
442.607352
20
192.045070
11
441.716970
21
192.179460
0
LINE
8
Calque 1
10
441.716970
20
192.179460
11
440.834886
21
192.047690
0
LINE
8
Calque 1
10
440.834886
20
192.047690
11
440.171750
21
191.700580
0
LINE
8
Calque 1
10
440.171750
20
191.700580
11
439.706131
21
190.979289
0
LINE
8
Calque 1
10
439.706131
20
190.979289
11
439.329740
21
189.917580
0
LINE
8
Calque 1
10
439.329740
20
189.917580
11
439.153891
21
188.879005
0
LINE
8
Calque 1
10
439.153891
20
188.879005
11
439.170440
21
188.213300
0
LINE
8
Calque 1
10
439.170440
20
188.213300
11
439.455499
21
187.858900
0
LINE
8
Calque 1
10
439.455499
20
187.858900
11
439.925170
21
187.568700
0
LINE
8
Calque 1
10
439.925170
20
187.568700
11
440.582915
21
187.436438
0
LINE
8
Calque 1
10
440.582915
20
187.436438
11
441.320100
21
187.461600
0
LINE
8
Calque 1
10
441.320100
20
187.461600
11
442.133278
21
187.824113
0
LINE
8
Calque 1
10
442.133278
20
187.824113
11
442.973740
21
188.502300
0
LINE
8
Calque 1
10
442.973740
20
188.502300
11
442.973740
21
188.502300
0
LINE
8
Calque 1
10
483.658740
20
191.513190
11
489.989320
21
193.784610
0
LINE
8
Calque 1
10
489.989320
20
193.784610
11
496.057800
21
196.343640
0
LINE
8
Calque 1
10
496.057800
20
196.343640
11
500.436910
21
198.870880
0
LINE
8
Calque 1
10
500.436910
20
198.870880
11
505.143660
21
201.888590
0
LINE
8
Calque 1
10
505.143660
20
201.888590
11
507.106806
21
203.490882
0
LINE
8
Calque 1
10
507.106806
20
203.490882
11
509.195270
21
205.861760
0
LINE
8
Calque 1
10
509.195270
20
205.861760
11
510.886100
21
208.113719
0
LINE
8
Calque 1
10
510.886100
20
208.113719
11
511.947140
21
209.760720
0
LINE
8
Calque 1
10
511.947140
20
209.760720
11
513.241650
21
212.876830
0
LINE
8
Calque 1
10
513.241650
20
212.876830
11
513.811005
21
214.877716
0
LINE
8
Calque 1
10
513.811005
20
214.877716
11
514.222200
21
217.020360
0
LINE
8
Calque 1
10
514.222200
20
217.020360
11
514.388229
21
219.227031
0
LINE
8
Calque 1
10
514.388229
20
219.227031
11
514.211200
21
221.338130
0
LINE
8
Calque 1
10
514.211200
20
221.338130
11
513.781052
21
223.308219
0
LINE
8
Calque 1
10
513.781052
20
223.308219
11
513.181570
21
225.132110
0
LINE
8
Calque 1
10
513.181570
20
225.132110
11
512.152090
21
227.137599
0
LINE
8
Calque 1
10
512.152090
20
227.137599
11
510.688120
21
229.544270
0
LINE
8
Calque 1
10
510.688120
20
229.544270
11
509.156988
21
231.648501
0
LINE
8
Calque 1
10
509.156988
20
231.648501
11
508.023400
21
232.787520
0
LINE
8
Calque 1
10
508.023400
20
232.787520
11
507.021573
21
233.246140
0
LINE
8
Calque 1
10
507.021573
20
233.246140
11
505.864600
21
233.575190
0
LINE
8
Calque 1
10
505.864600
20
233.575190
11
504.300930
21
233.698300
0
LINE
8
Calque 1
10
504.300930
20
233.698300
11
504.004496
21
233.386944
0
LINE
8
Calque 1
10
504.004496
20
233.386944
11
503.707770
21
232.797960
0
LINE
8
Calque 1
10
503.707770
20
232.797960
11
503.297834
21
232.156946
0
LINE
8
Calque 1
10
503.297834
20
232.156946
11
502.527950
21
231.979950
0
LINE
8
Calque 1
10
502.527950
20
231.979950
11
501.484470
21
231.967350
0
LINE
8
Calque 1
10
501.484470
20
231.967350
11
499.272740
21
231.220870
0
LINE
8
Calque 1
10
499.272740
20
231.220870
11
497.515514
21
230.466580
0
LINE
8
Calque 1
10
497.515514
20
230.466580
11
496.171020
21
229.727620
0
LINE
8
Calque 1
10
496.171020
20
229.727620
11
493.355670
21
227.124390
0
LINE
8
Calque 1
10
493.355670
20
227.124390
11
491.590910
21
225.249210
0
LINE
8
Calque 1
10
491.590910
20
225.249210
11
489.384550
21
225.389100
0
LINE
8
Calque 1
10
489.384550
20
225.389100
11
487.477329
21
225.614254
0
LINE
8
Calque 1
10
487.477329
20
225.614254
11
487.012514
21
225.823413
0
LINE
8
Calque 1
10
487.012514
20
225.823413
11
486.672570
21
226.153620
0
LINE
8
Calque 1
10
486.672570
20
226.153620
11
486.166940
21
227.013530
0
LINE
8
Calque 1
10
486.166940
20
227.013530
11
486.525751
21
227.179690
0
LINE
8
Calque 1
10
486.525751
20
227.179690
11
487.388420
21
227.248800
0
LINE
8
Calque 1
10
487.388420
20
227.248800
11
488.364126
21
227.332815
0
LINE
8
Calque 1
10
488.364126
20
227.332815
11
488.500349
21
227.473541
0
LINE
8
Calque 1
10
488.500349
20
227.473541
11
488.476770
21
227.711820
0
LINE
8
Calque 1
10
488.476770
20
227.711820
11
488.136980
21
228.679680
0
LINE
8
Calque 1
10
488.136980
20
228.679680
11
488.053903
21
228.946153
0
LINE
8
Calque 1
10
488.053903
20
228.946153
11
488.117003
21
229.077994
0
LINE
8
Calque 1
10
488.117003
20
229.077994
11
488.877940
21
229.030740
0
LINE
8
Calque 1
10
488.877940
20
229.030740
11
489.694154
21
229.009335
0
LINE
8
Calque 1
10
489.694154
20
229.009335
11
490.286230
21
229.213800
0
LINE
8
Calque 1
10
490.286230
20
229.213800
11
490.608815
21
229.659933
0
LINE
8
Calque 1
10
490.608815
20
229.659933
11
490.580190
21
230.384090
0
LINE
8
Calque 1
10
490.580190
20
230.384090
11
490.533165
21
230.972720
0
LINE
8
Calque 1
10
490.533165
20
230.972720
11
490.654290
21
231.217550
0
LINE
8
Calque 1
10
490.654290
20
231.217550
11
491.564350
21
230.963070
0
LINE
8
Calque 1
10
491.564350
20
230.963070
11
492.104971
21
230.840940
0
LINE
8
Calque 1
10
492.104971
20
230.840940
11
492.397590
21
230.973870
0
LINE
8
Calque 1
10
492.397590
20
230.973870
11
492.644907
21
231.119449
0
LINE
8
Calque 1
10
492.644907
20
231.119449
11
493.009270
21
231.096990
0
LINE
8
Calque 1
10
493.009270
20
231.096990
11
493.605466
21
231.218426
0
LINE
8
Calque 1
10
493.605466
20
231.218426
11
494.442210
21
231.766950
0
LINE
8
Calque 1
10
494.442210
20
231.766950
11
495.260132
21
232.640754
0
LINE
8
Calque 1
10
495.260132
20
232.640754
11
495.427400
21
233.754670
0
LINE
8
Calque 1
10
495.427400
20
233.754670
11
495.286749
21
234.812961
0
LINE
8
Calque 1
10
495.286749
20
234.812961
11
495.016996
21
235.093596
0
LINE
8
Calque 1
10
495.016996
20
235.093596
11
494.530790
21
235.357870
0
LINE
8
Calque 1
10
494.530790
20
235.357870
11
493.622525
21
235.636728
0
LINE
8
Calque 1
10
493.622525
20
235.636728
11
492.690170
21
235.608340
0
LINE
8
Calque 1
10
492.690170
20
235.608340
11
491.867131
21
235.292463
0
LINE
8
Calque 1
10
491.867131
20
235.292463
11
491.225150
21
234.768880
0
LINE
8
Calque 1
10
491.225150
20
234.768880
11
490.773239
21
233.909673
0
LINE
8
Calque 1
10
490.773239
20
233.909673
11
490.418370
21
232.774030
0
LINE
8
Calque 1
10
490.418370
20
232.774030
11
489.867550
21
230.946280
0
LINE
8
Calque 1
10
489.867550
20
230.946280
11
488.558284
21
230.048900
0
LINE
8
Calque 1
10
488.558284
20
230.048900
11
485.782670
21
228.586830
0
LINE
8
Calque 1
10
485.782670
20
228.586830
11
482.619608
21
226.915530
0
LINE
8
Calque 1
10
482.619608
20
226.915530
11
481.768251
21
226.315196
0
LINE
8
Calque 1
10
481.768251
20
226.315196
11
481.233220
21
225.766050
0
LINE
8
Calque 1
10
481.233220
20
225.766050
11
480.503600
21
224.809470
0
LINE
8
Calque 1
10
480.503600
20
224.809470
11
481.984560
21
223.449460
0
LINE
8
Calque 1
10
481.984560
20
223.449460
11
484.134190
21
221.163420
0
LINE
8
Calque 1
10
484.134190
20
221.163420
11
484.976410
21
219.541750
0
LINE
8
Calque 1
10
484.976410
20
219.541750
11
485.149960
21
218.846120
0
LINE
8
Calque 1
10
485.149960
20
218.846120
11
483.950180
21
219.120670
0
LINE
8
Calque 1
10
483.950180
20
219.120670
11
482.919177
21
219.264386
0
LINE
8
Calque 1
10
482.919177
20
219.264386
11
482.342030
21
219.056270
0
LINE
8
Calque 1
10
482.342030
20
219.056270
11
482.053611
21
218.685334
0
LINE
8
Calque 1
10
482.053611
20
218.685334
11
481.933650
21
218.269450
0
LINE
8
Calque 1
10
481.933650
20
218.269450
11
483.160630
21
215.476680
0
LINE
8
Calque 1
10
483.160630
20
215.476680
11
484.138131
21
213.426400
0
LINE
8
Calque 1
10
484.138131
20
213.426400
11
484.765300
21
211.789790
0
LINE
8
Calque 1
10
484.765300
20
211.789790
11
485.081940
21
209.468001
0
LINE
8
Calque 1
10
485.081940
20
209.468001
11
485.295200
21
205.486830
0
LINE
8
Calque 1
10
485.295200
20
205.486830
11
485.344906
21
201.646404
0
LINE
8
Calque 1
10
485.344906
20
201.646404
11
485.277789
21
200.791053
0
LINE
8
Calque 1
10
485.277789
20
200.791053
11
485.145740
21
200.525890
0
LINE
8
Calque 1
10
485.145740
20
200.525890
11
484.932680
21
200.597645
0
LINE
8
Calque 1
10
484.932680
20
200.597645
11
484.844060
21
200.770170
0
LINE
8
Calque 1
10
484.844060
20
200.770170
11
484.145650
21
201.844470
0
LINE
8
Calque 1
10
484.145650
20
201.844470
11
483.579788
21
202.372206
0
LINE
8
Calque 1
10
483.579788
20
202.372206
11
483.214730
21
202.441970
0
LINE
8
Calque 1
10
483.214730
20
202.441970
11
482.572580
21
199.862580
0
LINE
8
Calque 1
10
482.572580
20
199.862580
11
482.094151
21
197.755752
0
LINE
8
Calque 1
10
482.094151
20
197.755752
11
481.519130
21
195.986050
0
LINE
8
Calque 1
10
481.519130
20
195.986050
11
481.024667
21
194.410450
0
LINE
8
Calque 1
10
481.024667
20
194.410450
11
480.875310
21
192.728650
0
LINE
8
Calque 1
10
480.875310
20
192.728650
11
480.959390
21
191.311047
0
LINE
8
Calque 1
10
480.959390
20
191.311047
11
481.101621
21
191.063200
0
LINE
8
Calque 1
10
481.101621
20
191.063200
11
481.343650
21
191.000880
0
LINE
8
Calque 1
10
481.343650
20
191.000880
11
483.658760
21
191.513210
0
LINE
8
Calque 1
10
483.658760
20
191.513210
11
483.658740
21
191.513190
0
LINE
8
Calque 1
10
438.145140
20
199.016670
11
439.030170
21
199.706492
0
LINE
8
Calque 1
10
439.030170
20
199.706492
11
439.653780
21
200.533670
0
LINE
8
Calque 1
10
439.653780
20
200.533670
11
440.116800
21
201.782630
0
LINE
8
Calque 1
10
440.116800
20
201.782630
11
439.900323
21
202.021281
0
LINE
8
Calque 1
10
439.900323
20
202.021281
11
439.318370
21
202.113360
0
LINE
8
Calque 1
10
439.318370
20
202.113360
11
437.972960
21
201.827430
0
LINE
8
Calque 1
10
437.972960
20
201.827430
11
437.448503
21
201.301447
0
LINE
8
Calque 1
10
437.448503
20
201.301447
11
436.937830
21
200.438370
0
LINE
8
Calque 1
10
436.937830
20
200.438370
11
436.431160
21
198.872220
0
LINE
8
Calque 1
10
436.431160
20
198.872220
11
436.524278
21
198.546487
0
LINE
8
Calque 1
10
436.524278
20
198.546487
11
436.756070
21
198.413550
0
LINE
8
Calque 1
10
436.756070
20
198.413550
11
438.145140
21
199.016670
0
LINE
8
Calque 1
10
438.145140
20
199.016670
11
438.145140
21
199.016670
0
LINE
8
Calque 1
10
446.476660
20
220.233870
11
446.662606
21
220.704656
0
LINE
8
Calque 1
10
446.662606
20
220.704656
11
446.636310
21
221.292210
0
LINE
8
Calque 1
10
446.636310
20
221.292210
11
446.449838
21
221.761789
0
LINE
8
Calque 1
10
446.449838
20
221.761789
11
446.235870
21
221.957100
0
LINE
8
Calque 1
10
446.235870
20
221.957100
11
445.465230
21
221.108850
0
LINE
8
Calque 1
10
445.465230
20
221.108850
11
445.124060
21
220.448059
0
LINE
8
Calque 1
10
445.124060
20
220.448059
11
445.057990
21
220.050510
0
LINE
8
Calque 1
10
445.057990
20
220.050510
11
445.668980
21
219.840440
0
LINE
8
Calque 1
10
445.668980
20
219.840440
11
446.104714
21
219.956009
0
LINE
8
Calque 1
10
446.104714
20
219.956009
11
446.476660
21
220.233870
0
LINE
8
Calque 1
10
446.476660
20
220.233870
11
446.476660
21
220.233870
0
LINE
8
Calque 1
10
450.911280
20
223.086910
11
451.373380
21
223.766534
0
LINE
8
Calque 1
10
451.373380
20
223.766534
11
451.506590
21
224.766340
0
LINE
8
Calque 1
10
451.506590
20
224.766340
11
451.381891
21
225.743659
0
LINE
8
Calque 1
10
451.381891
20
225.743659
11
450.918560
21
226.307720
0
LINE
8
Calque 1
10
450.918560
20
226.307720
11
450.283526
21
226.598612
0
LINE
8
Calque 1
10
450.283526
20
226.598612
11
449.582500
21
226.719600
0
LINE
8
Calque 1
10
449.582500
20
226.719600
11
448.840589
21
226.609130
0
LINE
8
Calque 1
10
448.840589
20
226.609130
11
448.107250
21
226.343530
0
LINE
8
Calque 1
10
448.107250
20
226.343530
11
447.386224
21
225.696847
0
LINE
8
Calque 1
10
447.386224
20
225.696847
11
446.673920
21
224.670140
0
LINE
8
Calque 1
10
446.673920
20
224.670140
11
446.140346
21
223.486089
0
LINE
8
Calque 1
10
446.140346
20
223.486089
11
446.169744
21
223.147330
0
LINE
8
Calque 1
10
446.169744
20
223.147330
11
446.367820
21
222.801740
0
LINE
8
Calque 1
10
446.367820
20
222.801740
11
446.899424
21
222.332725
0
LINE
8
Calque 1
10
446.899424
20
222.332725
11
447.615850
21
222.007020
0
LINE
8
Calque 1
10
447.615850
20
222.007020
11
448.482768
21
221.928717
0
LINE
8
Calque 1
10
448.482768
20
221.928717
11
449.389930
21
222.160180
0
LINE
8
Calque 1
10
449.389930
20
222.160180
11
450.911280
21
223.086910
0
LINE
8
Calque 1
10
450.911280
20
223.086910
11
450.911280
21
223.086910
0
LINE
8
Calque 1
10
447.022760
20
233.870510
11
448.003649
21
234.577510
0
LINE
8
Calque 1
10
448.003649
20
234.577510
11
448.885590
21
235.524150
0
LINE
8
Calque 1
10
448.885590
20
235.524150
11
449.697080
21
236.641450
0
LINE
8
Calque 1
10
449.697080
20
236.641450
11
448.581000
21
236.724550
0
LINE
8
Calque 1
10
448.581000
20
236.724550
11
447.570999
21
236.691391
0
LINE
8
Calque 1
10
447.570999
20
236.691391
11
446.709970
21
236.494980
0
LINE
8
Calque 1
10
446.709970
20
236.494980
11
446.020661
21
236.021505
0
LINE
8
Calque 1
10
446.020661
20
236.021505
11
445.423520
21
235.322280
0
LINE
8
Calque 1
10
445.423520
20
235.322280
11
445.048141
21
234.549205
0
LINE
8
Calque 1
10
445.048141
20
234.549205
11
444.892010
21
233.898200
0
LINE
8
Calque 1
10
444.892010
20
233.898200
11
445.021446
21
233.469391
0
LINE
8
Calque 1
10
445.021446
20
233.469391
11
445.431720
21
233.334110
0
LINE
8
Calque 1
10
445.431720
20
233.334110
11
447.022760
21
233.870470
0
LINE
8
Calque 1
10
447.022760
20
233.870470
11
447.022760
21
233.870510
0
LINE
8
Calque 1
10
492.154960
20
243.750380
11
492.971249
21
244.693481
0
LINE
8
Calque 1
10
492.971249
20
244.693481
11
493.310770
21
245.337880
0
LINE
8
Calque 1
10
493.310770
20
245.337880
11
493.255566
21
245.546048
0
LINE
8
Calque 1
10
493.255566
20
245.546048
11
493.066906
21
245.678806
0
LINE
8
Calque 1
10
493.066906
20
245.678806
11
492.150930
21
245.769570
0
LINE
8
Calque 1
10
492.150930
20
245.769570
11
491.025808
21
245.588456
0
LINE
8
Calque 1
10
491.025808
20
245.588456
11
490.034260
21
244.710480
0
LINE
8
Calque 1
10
490.034260
20
244.710480
11
489.358506
21
243.807271
0
LINE
8
Calque 1
10
489.358506
20
243.807271
11
489.077440
21
243.122980
0
LINE
8
Calque 1
10
489.077440
20
243.122980
11
489.263865
21
242.697094
0
LINE
8
Calque 1
10
489.263865
20
242.697094
11
490.038290
21
242.594570
0
LINE
8
Calque 1
10
490.038290
20
242.594570
11
491.037146
21
242.819847
0
LINE
8
Calque 1
10
491.037146
20
242.819847
11
492.154960
21
243.750380
0
LINE
8
Calque 1
10
492.154960
20
243.750380
11
492.154960
21
243.750380
 0 
ENDSEC
 0 
EOF