999
"DXF R12 Output" (www.mydxf.blogspot.com)
 0 
SECTION
 2 
HEADER
 9 
$ACADVER
 1 
AC1009
 9 
$EXTMIN
 10 
 0 
 20 
 0 
 9 
$EXTMAX
 10 
 8.5 
 20 
 11 
 0 
ENDSEC
 0 
SECTION
 2 
ENTITIES
0
LINE
8
Calque 1
10
442.114000
20
118.924000
11
439.625590
21
129.749900
0
LINE
8
Calque 1
10
439.625590
20
129.749900
11
435.062000
21
149.395500
0
LINE
8
Calque 1
10
435.062000
20
149.395500
11
432.986340
21
158.457900
0
LINE
8
Calque 1
10
432.986340
20
158.457900
11
432.060300
21
158.596000
0
LINE
8
Calque 1
10
432.060300
20
158.596000
11
427.033220
21
159.505600
0
LINE
8
Calque 1
10
427.033220
20
159.505600
11
419.711360
21
161.207300
0
LINE
8
Calque 1
10
419.711360
20
161.207300
11
413.890530
21
163.093800
0
LINE
8
Calque 1
10
413.890530
20
163.093800
11
407.216690
21
166.022000
0
LINE
8
Calque 1
10
407.216690
20
166.022000
11
400.866690
21
169.358300
0
LINE
8
Calque 1
10
400.866690
20
169.358300
11
396.473840
21
172.176700
0
LINE
8
Calque 1
10
396.473840
20
172.176700
11
392.840540
21
174.786900
0
LINE
8
Calque 1
10
392.840540
20
174.786900
11
391.525986
21
175.662675
0
LINE
8
Calque 1
10
391.525986
20
175.662675
11
391.140253
21
175.760756
0
LINE
8
Calque 1
10
391.140253
20
175.760756
11
390.830130
21
175.679100
0
LINE
8
Calque 1
10
390.830130
20
175.679100
11
379.249930
21
168.309500
0
LINE
8
Calque 1
10
379.249930
20
168.309500
11
361.595430
21
157.028000
0
LINE
8
Calque 1
10
361.595430
20
157.028000
11
354.947170
21
152.942600
0
LINE
8
Calque 1
10
354.947170
20
152.942600
11
356.660690
21
155.811300
0
LINE
8
Calque 1
10
356.660690
20
155.811300
11
364.739360
21
168.379000
0
LINE
8
Calque 1
10
364.739360
20
168.379000
11
374.439490
21
183.549000
0
LINE
8
Calque 1
10
374.439490
20
183.549000
11
377.970640
21
189.237540
0
LINE
8
Calque 1
10
377.970640
20
189.237540
11
377.523215
21
190.193535
0
LINE
8
Calque 1
10
377.523215
20
190.193535
11
376.284630
21
192.059250
0
LINE
8
Calque 1
10
376.284630
20
192.059250
11
372.994950
21
196.987890
0
LINE
8
Calque 1
10
372.994950
20
196.987890
11
369.935670
21
202.544130
0
LINE
8
Calque 1
10
369.935670
20
202.544130
11
367.155100
21
208.727990
0
LINE
8
Calque 1
10
367.155100
20
208.727990
11
364.992520
21
214.933650
0
LINE
8
Calque 1
10
364.992520
20
214.933650
11
363.273590
21
221.945100
0
LINE
8
Calque 1
10
363.273590
20
221.945100
11
362.196990
21
228.352160
0
LINE
8
Calque 1
10
362.196990
20
228.352160
11
361.842955
21
230.503038
0
LINE
8
Calque 1
10
361.842955
20
230.503038
11
361.629565
21
230.894193
0
LINE
8
Calque 1
10
361.629565
20
230.894193
11
361.320440
21
231.049110
0
LINE
8
Calque 1
10
361.320440
20
231.049110
11
351.494720
21
233.198820
0
LINE
8
Calque 1
10
351.494720
20
233.198820
11
331.650920
21
237.606390
0
LINE
8
Calque 1
10
331.650920
20
237.606390
11
320.692620
21
240.209480
0
LINE
8
Calque 1
10
320.692620
20
240.209480
11
320.597832
21
240.316973
0
LINE
8
Calque 1
10
320.597832
20
240.316973
11
320.696784
21
240.430066
0
LINE
8
Calque 1
10
320.696784
20
240.430066
11
321.486370
21
240.679250
0
LINE
8
Calque 1
10
321.486370
20
240.679250
11
332.841570
21
243.211540
0
LINE
8
Calque 1
10
332.841570
20
243.211540
11
352.156170
21
247.477100
0
LINE
8
Calque 1
10
352.156170
20
247.477100
11
361.832800
21
249.599180
0
LINE
8
Calque 1
10
361.832800
20
249.599180
11
362.126001
21
249.743823
0
LINE
8
Calque 1
10
362.126001
20
249.743823
11
362.340526
21
250.093472
0
LINE
8
Calque 1
10
362.340526
20
250.093472
11
362.707740
21
251.857380
0
LINE
8
Calque 1
10
362.707740
20
251.857380
11
363.928780
21
257.618780
0
LINE
8
Calque 1
10
363.928780
20
257.618780
11
365.883720
21
264.312070
0
LINE
8
Calque 1
10
365.883720
20
264.312070
11
367.995630
21
269.766000
0
LINE
8
Calque 1
10
367.995630
20
269.766000
11
370.135170
21
274.319460
0
LINE
8
Calque 1
10
370.135170
20
274.319460
11
372.907470
21
279.316580
0
LINE
8
Calque 1
10
372.907470
20
279.316580
11
376.351210
21
284.505820
0
LINE
8
Calque 1
10
376.351210
20
284.505820
11
377.555893
21
286.268437
0
LINE
8
Calque 1
10
377.555893
20
286.268437
11
377.981640
21
287.197850
0
LINE
8
Calque 1
10
377.981640
20
287.197850
11
374.218380
21
293.176260
0
LINE
8
Calque 1
10
374.218380
20
293.176260
11
368.294560
21
302.390490
0
LINE
8
Calque 1
10
368.294560
20
302.390490
11
363.213840
21
310.327990
0
LINE
8
Calque 1
10
363.213840
20
310.327990
11
357.617990
21
319.042860
0
LINE
8
Calque 1
10
357.617990
20
319.042860
11
354.914560
21
323.493330
0
LINE
8
Calque 1
10
354.914560
20
323.493330
11
362.647950
21
318.718890
0
LINE
8
Calque 1
10
362.647950
20
318.718890
11
380.841850
21
307.070290
0
LINE
8
Calque 1
10
380.841850
20
307.070290
11
391.403650
21
300.297310
0
LINE
8
Calque 1
10
391.403650
20
300.297310
11
392.262390
21
301.051290
0
LINE
8
Calque 1
10
392.262390
20
301.051290
11
395.723550
21
303.645010
0
LINE
8
Calque 1
10
395.723550
20
303.645010
11
400.971820
21
307.077390
0
LINE
8
Calque 1
10
400.971820
20
307.077390
11
405.998900
21
309.863620
0
LINE
8
Calque 1
10
405.998900
20
309.863620
11
410.893690
21
312.123160
0
LINE
8
Calque 1
10
410.893690
20
312.123160
11
416.053070
21
314.104410
0
LINE
8
Calque 1
10
416.053070
20
314.104410
11
422.535360
21
315.988760
0
LINE
8
Calque 1
10
422.535360
20
315.988760
11
426.216375
21
316.812046
0
LINE
8
Calque 1
10
426.216375
20
316.812046
11
429.679110
21
317.430680
0
LINE
8
Calque 1
10
429.679110
20
317.430680
11
432.986400
21
317.903570
0
LINE
8
Calque 1
10
432.986400
20
317.903570
11
435.130900
21
328.072570
0
LINE
8
Calque 1
10
435.130900
20
328.072570
11
439.444900
21
348.428070
0
LINE
8
Calque 1
10
439.444900
20
348.428070
11
441.895990
21
359.892670
0
LINE
8
Calque 1
10
441.895990
20
359.892670
11
442.153366
21
360.730797
0
LINE
8
Calque 1
10
442.153366
20
360.730797
11
442.376760
21
360.951000
0
LINE
8
Calque 1
10
442.376760
20
360.951000
11
444.212280
21
353.058260
0
LINE
8
Calque 1
10
444.212280
20
353.058260
11
448.461920
21
333.082260
0
LINE
8
Calque 1
10
448.461920
20
333.082260
11
451.383210
21
319.371860
0
LINE
8
Calque 1
10
451.383210
20
319.371860
11
451.690280
21
318.353136
0
LINE
8
Calque 1
10
451.690280
20
318.353136
11
451.996090
21
317.880030
0
LINE
8
Calque 1
10
451.996090
20
317.880030
11
455.888210
21
317.235910
0
LINE
8
Calque 1
10
455.888210
20
317.235910
11
462.105920
21
316.003890
0
LINE
8
Calque 1
10
462.105920
20
316.003890
11
467.646820
21
314.380180
0
LINE
8
Calque 1
10
467.646820
20
314.380180
11
474.138720
21
311.904230
0
LINE
8
Calque 1
10
474.138720
20
311.904230
11
480.410270
21
308.910480
0
LINE
8
Calque 1
10
480.410270
20
308.910480
11
484.898580
21
306.313600
0
LINE
8
Calque 1
10
484.898580
20
306.313600
11
488.945770
21
303.607060
0
LINE
8
Calque 1
10
488.945770
20
303.607060
11
492.268300
21
301.160980
0
LINE
8
Calque 1
10
492.268300
20
301.160980
11
493.341870
21
300.293630
0
LINE
8
Calque 1
10
493.341870
20
300.293630
11
495.311010
21
301.560090
0
LINE
8
Calque 1
10
495.311010
20
301.560090
11
510.641610
21
311.422690
0
LINE
8
Calque 1
10
510.641610
20
311.422690
11
526.868910
21
321.810590
0
LINE
8
Calque 1
10
526.868910
20
321.810590
11
529.800980
21
323.513670
0
LINE
8
Calque 1
10
529.800980
20
323.513670
11
522.966390
21
312.698370
0
LINE
8
Calque 1
10
522.966390
20
312.698370
11
511.267390
21
294.478270
0
LINE
8
Calque 1
10
511.267390
20
294.478270
11
506.469190
21
286.984860
0
LINE
8
Calque 1
10
506.469190
20
286.984860
11
508.189530
21
284.598050
0
LINE
8
Calque 1
10
508.189530
20
284.598050
11
511.296150
21
279.931660
0
LINE
8
Calque 1
10
511.296150
20
279.931660
11
514.152200
21
274.873950
0
LINE
8
Calque 1
10
514.152200
20
274.873950
11
516.686690
21
269.569540
0
LINE
8
Calque 1
10
516.686690
20
269.569540
11
518.932410
21
263.595350
0
LINE
8
Calque 1
10
518.932410
20
263.595350
11
520.003589
21
260.117225
0
LINE
8
Calque 1
10
520.003589
20
260.117225
11
520.920560
21
256.596650
0
LINE
8
Calque 1
10
520.920560
20
256.596650
11
521.906660
21
251.661600
0
LINE
8
Calque 1
10
521.906660
20
251.661600
11
522.120362
21
250.573686
0
LINE
8
Calque 1
10
522.120362
20
250.573686
11
522.382890
21
249.901880
0
LINE
8
Calque 1
10
522.382890
20
249.901880
11
523.603228
21
249.429181
0
LINE
8
Calque 1
10
523.603228
20
249.429181
11
526.119760
21
248.819960
0
LINE
8
Calque 1
10
526.119760
20
248.819960
11
541.068760
21
245.608540
0
LINE
8
Calque 1
10
541.068760
20
245.608540
11
558.398960
21
241.768680
0
LINE
8
Calque 1
10
558.398960
20
241.768680
11
564.298460
21
240.355240
0
LINE
8
Calque 1
10
564.298460
20
240.355240
11
562.578670
21
239.850490
0
LINE
8
Calque 1
10
562.578670
20
239.850490
11
555.753120
21
238.246630
0
LINE
8
Calque 1
10
555.753120
20
238.246630
11
538.026020
21
234.278540
0
LINE
8
Calque 1
10
538.026020
20
234.278540
11
524.014120
21
231.154470
0
LINE
8
Calque 1
10
524.014120
20
231.154470
11
522.702190
21
230.820830
0
LINE
8
Calque 1
10
522.702190
20
230.820830
11
522.119600
21
226.719790
0
LINE
8
Calque 1
10
522.119600
20
226.719790
11
520.869750
21
219.685970
0
LINE
8
Calque 1
10
520.869750
20
219.685970
11
519.099560
21
213.363030
0
LINE
8
Calque 1
10
519.099560
20
213.363030
11
516.826370
21
207.179650
0
LINE
8
Calque 1
10
516.826370
20
207.179650
11
514.095950
21
201.416030
0
LINE
8
Calque 1
10
514.095950
20
201.416030
11
511.136290
21
196.244680
0
LINE
8
Calque 1
10
511.136290
20
196.244680
11
508.087050
21
191.736480
0
LINE
8
Calque 1
10
508.087050
20
191.736480
11
506.437320
21
189.429200
0
LINE
8
Calque 1
10
506.437320
20
189.429200
11
512.093210
21
180.623930
0
LINE
8
Calque 1
10
512.093210
20
180.623930
11
523.735410
21
162.463130
0
LINE
8
Calque 1
10
523.735410
20
162.463130
11
529.626610
21
153.012330
0
LINE
8
Calque 1
10
529.626610
20
153.012330
11
523.195450
21
156.916830
0
LINE
8
Calque 1
10
523.195450
20
156.916830
11
505.879150
21
167.970230
0
LINE
8
Calque 1
10
505.879150
20
167.970230
11
494.072450
21
175.509230
0
LINE
8
Calque 1
10
494.072450
20
175.509230
11
493.245960
21
175.994430
0
LINE
8
Calque 1
10
493.245960
20
175.994430
11
491.162040
21
174.415530
0
LINE
8
Calque 1
10
491.162040
20
174.415530
11
487.034050
21
171.464030
0
LINE
8
Calque 1
10
487.034050
20
171.464030
11
481.477800
21
168.134530
0
LINE
8
Calque 1
10
481.477800
20
168.134530
11
477.909221
21
166.288755
0
LINE
8
Calque 1
10
477.909221
20
166.288755
11
474.261450
21
164.599130
0
LINE
8
Calque 1
10
474.261450
20
164.599130
11
467.140060
21
161.911730
0
LINE
8
Calque 1
10
467.140060
20
161.911730
11
460.790060
21
160.140230
0
LINE
8
Calque 1
10
460.790060
20
160.140230
11
454.814580
21
159.023430
0
LINE
8
Calque 1
10
454.814580
20
159.023430
11
451.771870
21
158.569030
0
LINE
8
Calque 1
10
451.771870
20
158.569030
11
451.465230
21
157.520930
0
LINE
8
Calque 1
10
451.465230
20
157.520930
11
449.923860
21
150.916630
0
LINE
8
Calque 1
10
449.923860
20
150.916630
11
447.092560
21
138.481230
0
LINE
8
Calque 1
10
447.092560
20
138.481230
11
443.946620
21
125.283130
0
LINE
8
Calque 1
10
443.946620
20
125.283130
11
442.255900
21
118.822930
0
LINE
8
Calque 1
10
442.255900
20
118.822930
11
442.155965
21
118.794330
0
LINE
8
Calque 1
10
442.155965
20
118.794330
11
442.114110
21
118.924130
0
LINE
8
Calque 1
10
442.114110
20
118.924130
11
442.114000
21
118.924000
0
LINE
8
Calque 1
10
451.078780
20
165.473600
11
457.724880
21
166.558300
0
LINE
8
Calque 1
10
457.724880
20
166.558300
11
461.304196
21
167.445437
0
LINE
8
Calque 1
10
461.304196
20
167.445437
11
465.265510
21
168.629800
0
LINE
8
Calque 1
10
465.265510
20
168.629800
11
469.264774
21
170.071250
0
LINE
8
Calque 1
10
469.264774
20
170.071250
11
472.935350
21
171.576300
0
LINE
8
Calque 1
10
472.935350
20
171.576300
11
476.339326
21
173.257800
0
LINE
8
Calque 1
10
476.339326
20
173.257800
11
479.697620
21
175.123500
0
LINE
8
Calque 1
10
479.697620
20
175.123500
11
485.653820
21
179.001900
0
LINE
8
Calque 1
10
485.653820
20
179.001900
11
491.245760
21
183.433100
0
LINE
8
Calque 1
10
491.245760
20
183.433100
11
493.967838
21
185.921187
0
LINE
8
Calque 1
10
493.967838
20
185.921187
11
496.353720
21
188.323100
0
LINE
8
Calque 1
10
496.353720
20
188.323100
11
500.747780
21
193.544300
0
LINE
8
Calque 1
10
500.747780
20
193.544300
11
504.931760
21
199.467580
0
LINE
8
Calque 1
10
504.931760
20
199.467580
11
508.394220
21
205.553000
0
LINE
8
Calque 1
10
508.394220
20
205.553000
11
511.053720
21
211.413900
0
LINE
8
Calque 1
10
511.053720
20
211.413900
11
512.979800
21
216.997210
0
LINE
8
Calque 1
10
512.979800
20
216.997210
11
514.452710
21
222.795310
0
LINE
8
Calque 1
10
514.452710
20
222.795310
11
515.518430
21
229.123710
0
LINE
8
Calque 1
10
515.518430
20
229.123710
11
516.079120
21
236.117830
0
LINE
8
Calque 1
10
516.079120
20
236.117830
11
516.120038
21
239.802652
0
LINE
8
Calque 1
10
516.120038
20
239.802652
11
515.954990
21
243.466190
0
LINE
8
Calque 1
10
515.954990
20
243.466190
11
515.131280
21
250.213060
0
LINE
8
Calque 1
10
515.131280
20
250.213060
11
513.924990
21
256.054760
0
LINE
8
Calque 1
10
513.924990
20
256.054760
11
512.238700
21
261.743300
0
LINE
8
Calque 1
10
512.238700
20
261.743300
11
510.260930
21
266.936330
0
LINE
8
Calque 1
10
510.260930
20
266.936330
11
507.707200
21
272.199680
0
LINE
8
Calque 1
10
507.707200
20
272.199680
11
505.922606
21
275.308432
0
LINE
8
Calque 1
10
505.922606
20
275.308432
11
503.851160
21
278.549680
0
LINE
8
Calque 1
10
503.851160
20
278.549680
11
499.398500
21
284.531120
0
LINE
8
Calque 1
10
499.398500
20
284.531120
11
496.814625
21
287.414764
0
LINE
8
Calque 1
10
496.814625
20
287.414764
11
493.659310
21
290.632360
0
LINE
8
Calque 1
10
493.659310
20
290.632360
11
490.255448
21
293.736729
0
LINE
8
Calque 1
10
490.255448
20
293.736729
11
487.073990
21
296.348130
0
LINE
8
Calque 1
10
487.073990
20
296.348130
11
481.409660
21
300.280130
0
LINE
8
Calque 1
10
481.409660
20
300.280130
11
475.456540
21
303.600420
0
LINE
8
Calque 1
10
475.456540
20
303.600420
11
469.895720
21
306.164570
0
LINE
8
Calque 1
10
469.895720
20
306.164570
11
465.133220
21
307.898680
0
LINE
8
Calque 1
10
465.133220
20
307.898680
11
460.455300
21
309.258980
0
LINE
8
Calque 1
10
460.455300
20
309.258980
11
456.221970
21
310.201730
0
LINE
8
Calque 1
10
456.221970
20
310.201730
11
450.845720
21
311.000460
0
LINE
8
Calque 1
10
450.845720
20
311.000460
11
447.028955
21
311.283458
0
LINE
8
Calque 1
10
447.028955
20
311.283458
11
442.441490
21
311.392980
0
LINE
8
Calque 1
10
442.441490
20
311.392980
11
438.085081
21
311.306608
0
LINE
8
Calque 1
10
438.085081
20
311.306608
11
434.768570
21
311.106400
0
LINE
8
Calque 1
10
434.768570
20
311.106400
11
429.811340
21
310.446780
0
LINE
8
Calque 1
10
429.811340
20
310.446780
11
424.255090
21
309.285240
0
LINE
8
Calque 1
10
424.255090
20
309.285240
11
418.831130
21
307.731590
0
LINE
8
Calque 1
10
418.831130
20
307.731590
11
414.200930
21
305.973700
0
LINE
8
Calque 1
10
414.200930
20
305.973700
11
408.512380
21
303.304750
0
LINE
8
Calque 1
10
408.512380
20
303.304750
11
405.243950
21
301.505585
0
LINE
8
Calque 1
10
405.243950
20
301.505585
11
402.030090
21
299.541030
0
LINE
8
Calque 1
10
402.030090
20
299.541030
11
396.076970
21
295.252590
0
LINE
8
Calque 1
10
396.076970
20
295.252590
11
393.271004
21
292.871300
0
LINE
8
Calque 1
10
393.271004
20
292.871300
11
390.425940
21
290.244010
0
LINE
8
Calque 1
10
390.425940
20
290.244010
11
387.732533
21
287.460806
0
LINE
8
Calque 1
10
387.732533
20
287.460806
11
385.291170
21
284.704670
0
LINE
8
Calque 1
10
385.291170
20
284.704670
11
382.958184
21
281.671545
0
LINE
8
Calque 1
10
382.958184
20
281.671545
11
380.525350
21
278.222380
0
LINE
8
Calque 1
10
380.525350
20
278.222380
11
378.106489
21
274.262008
0
LINE
8
Calque 1
10
378.106489
20
274.262008
11
375.815300
21
269.979030
0
LINE
8
Calque 1
10
375.815300
20
269.979030
11
373.870011
21
265.659088
0
LINE
8
Calque 1
10
373.870011
20
265.659088
11
372.291000
21
261.589060
0
LINE
8
Calque 1
10
372.291000
20
261.589060
11
371.163471
21
257.962835
0
LINE
8
Calque 1
10
371.163471
20
257.962835
11
370.303640
21
254.709900
0
LINE
8
Calque 1
10
370.303640
20
254.709900
11
369.163520
21
248.812370
0
LINE
8
Calque 1
10
369.163520
20
248.812370
11
368.789435
21
244.949639
0
LINE
8
Calque 1
10
368.789435
20
244.949639
11
368.705960
21
238.229070
0
LINE
8
Calque 1
10
368.705960
20
238.229070
11
368.811031
21
231.610340
0
LINE
8
Calque 1
10
368.811031
20
231.610340
11
369.163460
21
227.834470
0
LINE
8
Calque 1
10
369.163460
20
227.834470
11
370.299840
21
222.013640
0
LINE
8
Calque 1
10
370.299840
20
222.013640
11
372.161850
21
215.350490
0
LINE
8
Calque 1
10
372.161850
20
215.350490
11
374.567430
21
209.000490
0
LINE
8
Calque 1
10
374.567430
20
209.000490
11
377.233090
21
203.568610
0
LINE
8
Calque 1
10
377.233090
20
203.568610
11
380.416540
21
198.276940
0
LINE
8
Calque 1
10
380.416540
20
198.276940
11
384.727560
21
192.456110
0
LINE
8
Calque 1
10
384.727560
20
192.456110
11
387.494749
21
189.279169
0
LINE
8
Calque 1
10
387.494749
20
189.279169
11
390.556500
21
186.099490
0
LINE
8
Calque 1
10
390.556500
20
186.099490
11
395.875700
21
181.285790
0
LINE
8
Calque 1
10
395.875700
20
181.285790
11
400.373620
21
177.948290
0
LINE
8
Calque 1
10
400.373620
20
177.948290
11
406.056470
21
174.393590
0
LINE
8
Calque 1
10
406.056470
20
174.393590
11
412.141880
21
171.290790
0
LINE
8
Calque 1
10
412.141880
20
171.290790
11
419.228010
21
168.622790
0
LINE
8
Calque 1
10
419.228010
20
168.622790
11
423.383620
21
167.392915
0
LINE
8
Calque 1
10
423.383620
20
167.392915
11
427.430090
21
166.422390
0
LINE
8
Calque 1
10
427.430090
20
166.422390
11
434.309260
21
165.351590
0
LINE
8
Calque 1
10
434.309260
20
165.351590
11
438.145720
21
164.979890
0
LINE
8
Calque 1
10
438.145720
20
164.979890
11
443.405860
21
164.979890
0
LINE
8
Calque 1
10
443.405860
20
164.979890
11
447.447599
21
165.160553
0
LINE
8
Calque 1
10
447.447599
20
165.160553
11
451.078780
21
165.474790
0
LINE
8
Calque 1
10
451.078780
20
165.474790
11
451.078780
21
165.473600
0
LINE
8
Calque 1
10
436.690480
20
168.676900
11
432.854020
21
169.189700
0
LINE
8
Calque 1
10
432.854020
20
169.189700
11
426.768600
21
170.270300
0
LINE
8
Calque 1
10
426.768600
20
170.270300
11
420.815480
21
171.870800
0
LINE
8
Calque 1
10
420.815480
20
171.870800
11
415.656100
21
173.719400
0
LINE
8
Calque 1
10
415.656100
20
173.719400
11
410.553540
21
176.072500
0
LINE
8
Calque 1
10
410.553540
20
176.072500
11
405.042510
21
179.160700
0
LINE
8
Calque 1
10
405.042510
20
179.160700
11
399.603680
21
182.898300
0
LINE
8
Calque 1
10
399.603680
20
182.898300
11
396.664132
21
185.312238
0
LINE
8
Calque 1
10
396.664132
20
185.312238
11
393.502510
21
188.189900
0
LINE
8
Calque 1
10
393.502510
20
188.189900
11
390.540561
21
191.193828
0
LINE
8
Calque 1
10
390.540561
20
191.193828
11
388.081060
21
193.911330
0
LINE
8
Calque 1
10
388.081060
20
193.911330
11
385.894642
21
196.735756
0
LINE
8
Calque 1
10
385.894642
20
196.735756
11
383.589230
21
199.996750
0
LINE
8
Calque 1
10
383.589230
20
199.996750
11
381.292516
21
203.762925
0
LINE
8
Calque 1
10
381.292516
20
203.762925
11
379.127000
21
207.801950
0
LINE
8
Calque 1
10
379.127000
20
207.801950
11
377.344323
21
211.724404
0
LINE
8
Calque 1
10
377.344323
20
211.724404
11
375.968040
21
215.210290
0
LINE
8
Calque 1
10
375.968040
20
215.210290
11
374.112730
21
221.427990
0
LINE
8
Calque 1
10
374.112730
20
221.427990
11
372.763250
21
228.307160
0
LINE
8
Calque 1
10
372.763250
20
228.307160
11
372.296727
21
232.569415
0
LINE
8
Calque 1
10
372.296727
20
232.569415
11
372.170450
21
238.096740
0
LINE
8
Calque 1
10
372.170450
20
238.096740
11
372.258131
21
243.052096
0
LINE
8
Calque 1
10
372.258131
20
243.052096
11
372.490270
21
246.563410
0
LINE
8
Calque 1
10
372.490270
20
246.563410
11
373.364500
21
251.855080
0
LINE
8
Calque 1
10
373.364500
20
251.855080
11
374.800530
21
257.745650
0
LINE
8
Calque 1
10
374.800530
20
257.745650
11
376.905220
21
263.815590
0
LINE
8
Calque 1
10
376.905220
20
263.815590
11
379.718190
21
269.914640
0
LINE
8
Calque 1
10
379.718190
20
269.914640
11
381.533728
21
273.158109
0
LINE
8
Calque 1
10
381.533728
20
273.158109
11
383.649610
21
276.544700
0
LINE
8
Calque 1
10
383.649610
20
276.544700
11
385.913053
21
279.746803
0
LINE
8
Calque 1
10
385.913053
20
279.746803
11
388.083360
21
282.546740
0
LINE
8
Calque 1
10
388.083360
20
282.546740
11
390.492619
21
285.216523
0
LINE
8
Calque 1
10
390.492619
20
285.216523
11
393.330570
21
288.105710
0
LINE
8
Calque 1
10
393.330570
20
288.105710
11
396.211121
21
290.770444
0
LINE
8
Calque 1
10
396.211121
20
290.770444
11
398.722770
21
292.900600
0
LINE
8
Calque 1
10
398.722770
20
292.900600
11
403.669100
21
296.413820
0
LINE
8
Calque 1
10
403.669100
20
296.413820
11
409.886810
21
300.004410
0
LINE
8
Calque 1
10
409.886810
20
300.004410
11
416.408190
21
303.036280
0
LINE
8
Calque 1
10
416.408190
20
303.036280
11
422.096730
21
305.019310
0
LINE
8
Calque 1
10
422.096730
20
305.019310
11
426.636310
21
306.223050
0
LINE
8
Calque 1
10
426.636310
20
306.223050
11
431.927980
21
307.178360
0
LINE
8
Calque 1
10
431.927980
20
307.178360
11
435.756170
21
307.597728
0
LINE
8
Calque 1
10
435.756170
20
307.597728
11
440.130060
21
307.862340
0
LINE
8
Calque 1
10
440.130060
20
307.862340
11
444.502305
21
307.889699
0
LINE
8
Calque 1
10
444.502305
20
307.889699
11
448.199850
21
307.697510
0
LINE
8
Calque 1
10
448.199850
20
307.697510
11
454.549850
21
306.859590
0
LINE
8
Calque 1
10
454.549850
20
306.859590
11
461.006660
21
305.416050
0
LINE
8
Calque 1
10
461.006660
20
305.416050
11
464.300389
21
304.417793
0
LINE
8
Calque 1
10
464.300389
20
304.417793
11
467.425090
21
303.316470
0
LINE
8
Calque 1
10
467.425090
20
303.316470
11
474.154600
21
300.251570
0
LINE
8
Calque 1
10
474.154600
20
300.251570
11
477.691891
21
298.317524
0
LINE
8
Calque 1
10
477.691891
20
298.317524
11
480.965340
21
296.321880
0
LINE
8
Calque 1
10
480.965340
20
296.321880
11
486.823970
21
292.052580
0
LINE
8
Calque 1
10
486.823970
20
292.052580
11
489.497479
21
289.763254
0
LINE
8
Calque 1
10
489.497479
20
289.763254
11
492.031150
21
287.390340
0
LINE
8
Calque 1
10
492.031150
20
287.390340
11
496.431440
21
282.595530
0
LINE
8
Calque 1
10
496.431440
20
282.595530
11
500.124590
21
277.751940
0
LINE
8
Calque 1
10
500.124590
20
277.751940
11
503.713740
21
272.015650
0
LINE
8
Calque 1
10
503.713740
20
272.015650
11
505.418323
21
268.794748
0
LINE
8
Calque 1
10
505.418323
20
268.794748
11
506.901550
21
265.621800
0
LINE
8
Calque 1
10
506.901550
20
265.621800
11
509.055740
21
260.013310
0
LINE
8
Calque 1
10
509.055740
20
260.013310
11
510.519250
21
255.030080
0
LINE
8
Calque 1
10
510.519250
20
255.030080
11
511.745260
21
249.076950
0
LINE
8
Calque 1
10
511.745260
20
249.076950
11
512.233931
21
244.981610
0
LINE
8
Calque 1
10
512.233931
20
244.981610
11
512.348840
21
238.493650
0
LINE
8
Calque 1
10
512.348840
20
238.493650
11
512.267719
21
232.548636
0
LINE
8
Calque 1
10
512.267719
20
232.548636
11
512.002330
21
228.968650
0
LINE
8
Calque 1
10
512.002330
20
228.968650
11
511.144160
21
224.119260
0
LINE
8
Calque 1
10
511.144160
20
224.119260
11
509.832790
21
218.863070
0
LINE
8
Calque 1
10
509.832790
20
218.863070
11
507.939070
21
213.274970
0
LINE
8
Calque 1
10
507.939070
20
213.274970
11
505.107900
21
207.021780
0
LINE
8
Calque 1
10
505.107900
20
207.021780
11
503.269890
21
203.672441
0
LINE
8
Calque 1
10
503.269890
20
203.672441
11
501.307740
21
200.468850
0
LINE
8
Calque 1
10
501.307740
20
200.468850
11
497.180270
21
194.762040
0
LINE
8
Calque 1
10
497.180270
20
194.762040
11
494.906186
21
192.109531
0
LINE
8
Calque 1
10
494.906186
20
192.109531
11
492.355240
21
189.393160
0
LINE
8
Calque 1
10
492.355240
20
189.393160
11
489.637185
21
186.815734
0
LINE
8
Calque 1
10
489.637185
20
186.815734
11
486.961310
21
184.497230
0
LINE
8
Calque 1
10
486.961310
20
184.497230
11
482.198810
21
180.893530
0
LINE
8
Calque 1
10
482.198810
20
180.893530
11
477.475120
21
177.926030
0
LINE
8
Calque 1
10
477.475120
20
177.926030
11
472.580330
21
175.345330
0
LINE
8
Calque 1
10
472.580330
20
175.345330
11
467.382140
21
173.138930
0
LINE
8
Calque 1
10
467.382140
20
173.138930
11
461.561310
21
171.203430
0
LINE
8
Calque 1
10
461.561310
20
171.203430
11
456.537000
21
169.965230
0
LINE
8
Calque 1
10
456.537000
20
169.965230
11
451.774500
21
169.143330
0
LINE
8
Calque 1
10
451.774500
20
169.143330
11
448.219614
21
168.836030
0
LINE
8
Calque 1
10
448.219614
20
168.836030
11
443.305060
21
168.661030
0
LINE
8
Calque 1
10
443.305060
20
168.661030
11
436.690480
21
168.677030
0
LINE
8
Calque 1
10
436.690480
20
168.677030
11
436.690480
21
168.676900
0
LINE
8
Calque 1
10
451.587480
20
171.799800
11
457.380180
21
172.894200
0
LINE
8
Calque 1
10
457.380180
20
172.894200
11
463.649870
21
174.650600
0
LINE
8
Calque 1
10
463.649870
20
174.650600
11
469.492400
21
176.878200
0
LINE
8
Calque 1
10
469.492400
20
176.878200
11
475.048650
21
179.663800
0
LINE
8
Calque 1
10
475.048650
20
179.663800
11
480.611330
21
183.089000
0
LINE
8
Calque 1
10
480.611330
20
183.089000
11
485.373830
21
186.638400
0
LINE
8
Calque 1
10
485.373830
20
186.638400
11
490.094610
21
190.951710
0
LINE
8
Calque 1
10
490.094610
20
190.951710
11
492.562406
21
193.538862
0
LINE
8
Calque 1
10
492.562406
20
193.538862
11
494.838780
21
196.160290
0
LINE
8
Calque 1
10
494.838780
20
196.160290
11
498.888570
21
201.716540
0
LINE
8
Calque 1
10
498.888570
20
201.716540
11
502.138240
21
207.144150
0
LINE
8
Calque 1
10
502.138240
20
207.144150
11
504.655440
21
212.471310
0
LINE
8
Calque 1
10
504.655440
20
212.471310
11
506.781490
21
218.216120
0
LINE
8
Calque 1
10
506.781490
20
218.216120
11
507.680200
21
221.437067
0
LINE
8
Calque 1
10
507.680200
20
221.437067
11
508.508620
21
225.059790
0
LINE
8
Calque 1
10
508.508620
20
225.059790
11
509.604260
21
232.142540
0
LINE
8
Calque 1
10
509.604260
20
232.142540
11
509.796736
21
235.812994
0
LINE
8
Calque 1
10
509.796736
20
235.812994
11
509.772740
21
240.344620
0
LINE
8
Calque 1
10
509.772740
20
240.344620
11
509.504745
21
245.097964
0
LINE
8
Calque 1
10
509.504745
20
245.097964
11
508.958260
21
249.209240
0
LINE
8
Calque 1
10
508.958260
20
249.209240
11
508.211750
21
252.875684
0
LINE
8
Calque 1
10
508.211750
20
252.875684
11
507.351720
21
256.303380
0
LINE
8
Calque 1
10
507.351720
20
256.303380
11
505.315960
21
262.361480
0
LINE
8
Calque 1
10
505.315960
20
262.361480
11
502.707770
21
268.119660
0
LINE
8
Calque 1
10
502.707770
20
268.119660
11
499.783310
21
273.306350
0
LINE
8
Calque 1
10
499.783310
20
273.306350
11
496.179010
21
278.482650
0
LINE
8
Calque 1
10
496.179010
20
278.482650
11
493.849696
21
281.381625
0
LINE
8
Calque 1
10
493.849696
20
281.381625
11
491.329140
21
284.212650
0
LINE
8
Calque 1
10
491.329140
20
284.212650
11
488.671135
21
286.826340
0
LINE
8
Calque 1
10
488.671135
20
286.826340
11
486.011360
21
289.202790
0
LINE
8
Calque 1
10
486.011360
20
289.202790
11
480.922500
21
293.084970
0
LINE
8
Calque 1
10
480.922500
20
293.084970
11
475.981120
21
296.248730
0
LINE
8
Calque 1
10
475.981120
20
296.248730
11
470.149680
21
299.239520
0
LINE
8
Calque 1
10
470.149680
20
299.239520
11
463.639260
21
301.808650
0
LINE
8
Calque 1
10
463.639260
20
301.808650
11
457.432160
21
303.546240
0
LINE
8
Calque 1
10
457.432160
20
303.546240
11
451.374870
21
304.688670
0
LINE
8
Calque 1
10
451.374870
20
304.688670
11
447.690169
21
305.054906
0
LINE
8
Calque 1
10
447.690169
20
305.054906
11
442.379040
21
305.152590
0
LINE
8
Calque 1
10
442.379040
20
305.152590
11
437.472869
21
305.049188
0
LINE
8
Calque 1
10
437.472869
20
305.049188
11
434.044670
21
304.812090
0
LINE
8
Calque 1
10
434.044670
20
304.812090
11
429.017580
21
303.950760
0
LINE
8
Calque 1
10
429.017580
20
303.950760
11
423.627830
21
302.633830
0
LINE
8
Calque 1
10
423.627830
20
302.633830
11
418.336160
21
300.897080
0
LINE
8
Calque 1
10
418.336160
20
300.897080
11
412.196610
21
298.159870
0
LINE
8
Calque 1
10
412.196610
20
298.159870
11
406.772650
21
295.225650
0
LINE
8
Calque 1
10
406.772650
20
295.225650
11
402.559250
21
292.377620
0
LINE
8
Calque 1
10
402.559250
20
292.377620
11
397.776700
21
288.612370
0
LINE
8
Calque 1
10
397.776700
20
288.612370
11
393.104010
21
284.162320
0
LINE
8
Calque 1
10
393.104010
20
284.162320
11
390.810020
21
281.560089
0
LINE
8
Calque 1
10
390.810020
20
281.560089
11
388.484290
21
278.655390
0
LINE
8
Calque 1
10
388.484290
20
278.655390
11
384.615700
21
273.077030
0
LINE
8
Calque 1
10
384.615700
20
273.077030
11
381.805810
21
268.049950
0
LINE
8
Calque 1
10
381.805810
20
268.049950
11
379.591210
21
263.232160
0
LINE
8
Calque 1
10
379.591210
20
263.232160
11
377.729980
21
258.012410
0
LINE
8
Calque 1
10
377.729980
20
258.012410
11
376.264730
21
252.588450
0
LINE
8
Calque 1
10
376.264730
20
252.588450
11
375.268750
21
246.960280
0
LINE
8
Calque 1
10
375.268750
20
246.960280
11
374.912419
21
243.236791
0
LINE
8
Calque 1
10
374.912419
20
243.236791
11
374.815220
21
238.229040
0
LINE
8
Calque 1
10
374.815220
20
238.229040
11
374.944900
21
233.061425
0
LINE
8
Calque 1
10
374.944900
20
233.061425
11
375.396000
21
228.968620
0
LINE
8
Calque 1
10
375.396000
20
228.968620
11
376.740350
21
222.086590
0
LINE
8
Calque 1
10
376.740350
20
222.086590
11
377.653524
21
218.832684
0
LINE
8
Calque 1
10
377.653524
20
218.832684
11
378.757850
21
215.472000
0
LINE
8
Calque 1
10
378.757850
20
215.472000
11
380.175127
21
211.974754
0
LINE
8
Calque 1
10
380.175127
20
211.974754
11
381.840700
21
208.392510
0
LINE
8
Calque 1
10
381.840700
20
208.392510
11
383.782210
21
204.860946
0
LINE
8
Calque 1
10
383.782210
20
204.860946
11
385.862920
21
201.485570
0
LINE
8
Calque 1
10
385.862920
20
201.485570
11
389.743380
21
196.132520
0
LINE
8
Calque 1
10
389.743380
20
196.132520
11
393.544470
21
191.848200
0
LINE
8
Calque 1
10
393.544470
20
191.848200
11
397.779170
21
187.842900
0
LINE
8
Calque 1
10
397.779170
20
187.842900
11
402.294670
21
184.255800
0
LINE
8
Calque 1
10
402.294670
20
184.255800
11
407.768000
21
180.645500
0
LINE
8
Calque 1
10
407.768000
20
180.645500
11
413.324250
21
177.649200
0
LINE
8
Calque 1
10
413.324250
20
177.649200
11
418.301960
21
175.559400
0
LINE
8
Calque 1
10
418.301960
20
175.559400
11
423.064460
21
173.960300
0
LINE
8
Calque 1
10
423.064460
20
173.960300
11
428.356120
21
172.642300
0
LINE
8
Calque 1
10
428.356120
20
172.642300
11
433.780080
21
171.706000
0
LINE
8
Calque 1
10
433.780080
20
171.706000
11
437.087370
21
171.310600
0
LINE
8
Calque 1
10
437.087370
20
171.310600
11
443.437370
21
171.299600
0
LINE
8
Calque 1
10
443.437370
20
171.299600
11
448.069964
21
171.485213
0
LINE
8
Calque 1
10
448.069964
20
171.485213
11
451.587480
21
171.799900
0
LINE
8
Calque 1
10
451.587480
20
171.799900
11
451.587480
21
171.799800
0
LINE
8
Calque 1
10
437.748880
20
173.536200
11
432.192630
21
174.184100
0
LINE
8
Calque 1
10
432.192630
20
174.184100
11
426.645460
21
175.302800
0
LINE
8
Calque 1
10
426.645460
20
175.302800
11
421.177890
21
176.857300
0
LINE
8
Calque 1
10
421.177890
20
176.857300
11
416.009440
21
178.862700
0
LINE
8
Calque 1
10
416.009440
20
178.862700
11
411.025970
21
181.291900
0
LINE
8
Calque 1
10
411.025970
20
181.291900
11
406.062610
21
184.292900
0
LINE
8
Calque 1
10
406.062610
20
184.292900
11
400.638650
21
188.332300
0
LINE
8
Calque 1
10
400.638650
20
188.332300
11
397.776525
21
190.861168
0
LINE
8
Calque 1
10
397.776525
20
190.861168
11
394.885930
21
193.674150
0
LINE
8
Calque 1
10
394.885930
20
193.674150
11
392.276209
21
196.542064
0
LINE
8
Calque 1
10
392.276209
20
196.542064
11
390.089390
21
199.203000
0
LINE
8
Calque 1
10
390.089390
20
199.203000
11
386.617550
21
204.235590
0
LINE
8
Calque 1
10
386.617550
20
204.235590
11
383.957160
21
208.891170
0
LINE
8
Calque 1
10
383.957160
20
208.891170
11
381.805580
21
213.616330
0
LINE
8
Calque 1
10
381.805580
20
213.616330
11
379.813730
21
219.092960
0
LINE
8
Calque 1
10
379.813730
20
219.092960
11
378.241900
21
225.210200
0
LINE
8
Calque 1
10
378.241900
20
225.210200
11
377.305790
21
231.008710
0
LINE
8
Calque 1
10
377.305790
20
231.008710
11
377.109540
21
234.244726
0
LINE
8
Calque 1
10
377.109540
20
234.244726
11
377.029180
21
238.417050
0
LINE
8
Calque 1
10
377.029180
20
238.417050
11
377.302100
21
245.637370
0
LINE
8
Calque 1
10
377.302100
20
245.637370
11
378.247470
21
251.325910
0
LINE
8
Calque 1
10
378.247470
20
251.325910
11
379.101955
21
254.798014
0
LINE
8
Calque 1
10
379.101955
20
254.798014
11
380.209010
21
258.501560
0
LINE
8
Calque 1
10
380.209010
20
258.501560
11
381.540782
21
262.130119
0
LINE
8
Calque 1
10
381.540782
20
262.130119
11
382.935540
21
265.421950
0
LINE
8
Calque 1
10
382.935540
20
265.421950
11
385.877290
21
271.026350
0
LINE
8
Calque 1
10
385.877290
20
271.026350
11
387.647503
21
273.776954
0
LINE
8
Calque 1
10
387.647503
20
273.776954
11
389.794170
21
276.805950
0
LINE
8
Calque 1
10
389.794170
20
276.805950
11
392.609071
21
280.202849
0
LINE
8
Calque 1
10
392.609071
20
280.202849
11
396.061180
21
283.869890
0
LINE
8
Calque 1
10
396.061180
20
283.869890
11
399.544319
21
287.151165
0
LINE
8
Calque 1
10
399.544319
20
287.151165
11
402.509080
21
289.652500
0
LINE
8
Calque 1
10
402.509080
20
289.652500
11
407.403870
21
293.051470
0
LINE
8
Calque 1
10
407.403870
20
293.051470
11
410.193488
21
294.648205
0
LINE
8
Calque 1
10
410.193488
20
294.648205
11
413.671800
21
296.446690
0
LINE
8
Calque 1
10
413.671800
20
296.446690
11
417.286751
21
298.097924
0
LINE
8
Calque 1
10
417.286751
20
298.097924
11
420.404880
21
299.340640
0
LINE
8
Calque 1
10
420.404880
20
299.340640
11
426.225710
21
301.051710
0
LINE
8
Calque 1
10
426.225710
20
301.051710
11
431.795760
21
302.224210
0
LINE
8
Calque 1
10
431.795760
20
302.224210
11
437.881170
21
302.929470
0
LINE
8
Calque 1
10
437.881170
20
302.929470
11
441.336465
21
303.084938
0
LINE
8
Calque 1
10
441.336465
20
303.084938
11
444.628050
21
303.048660
0
LINE
8
Calque 1
10
444.628050
20
303.048660
11
450.845760
21
302.491040
0
LINE
8
Calque 1
10
450.845760
20
302.491040
11
456.882810
21
301.437350
0
LINE
8
Calque 1
10
456.882810
20
301.437350
11
463.365110
21
299.583250
0
LINE
8
Calque 1
10
463.365110
20
299.583250
11
466.916561
21
298.218850
0
LINE
8
Calque 1
10
466.916561
20
298.218850
11
470.557210
21
296.602840
0
LINE
8
Calque 1
10
470.557210
20
296.602840
11
476.462900
21
293.441090
0
LINE
8
Calque 1
10
476.462900
20
293.441090
11
481.754570
21
289.794260
0
LINE
8
Calque 1
10
481.754570
20
289.794260
11
485.078629
21
287.055714
0
LINE
8
Calque 1
10
485.078629
20
287.055714
11
488.815180
21
283.509020
0
LINE
8
Calque 1
10
488.815180
20
283.509020
11
492.177000
21
279.935920
0
LINE
8
Calque 1
10
492.177000
20
279.935920
11
494.684120
21
276.969300
0
LINE
8
Calque 1
10
494.684120
20
276.969300
11
498.060200
21
272.009160
0
LINE
8
Calque 1
10
498.060200
20
272.009160
11
500.839590
21
267.003270
0
LINE
8
Calque 1
10
500.839590
20
267.003270
11
503.101730
21
262.041530
0
LINE
8
Calque 1
10
503.101730
20
262.041530
11
505.111050
21
256.088410
0
LINE
8
Calque 1
10
505.111050
20
256.088410
11
506.669730
21
249.688690
0
LINE
8
Calque 1
10
506.669730
20
249.688690
11
507.492240
21
243.338690
0
LINE
8
Calque 1
10
507.492240
20
243.338690
11
507.671056
21
239.764946
0
LINE
8
Calque 1
10
507.671056
20
239.764946
11
507.645130
21
236.112370
0
LINE
8
Calque 1
10
507.645130
20
236.112370
11
507.074290
21
229.471790
0
LINE
8
Calque 1
10
507.074290
20
229.471790
11
505.889360
21
223.386370
0
LINE
8
Calque 1
10
505.889360
20
223.386370
11
504.158080
21
217.326950
0
LINE
8
Calque 1
10
504.158080
20
217.326950
11
502.873912
21
214.025306
0
LINE
8
Calque 1
10
502.873912
20
214.025306
11
501.130670
21
210.174280
0
LINE
8
Calque 1
10
501.130670
20
210.174280
11
499.043846
21
206.248153
0
LINE
8
Calque 1
10
499.043846
20
206.248153
11
496.933600
21
202.765950
0
LINE
8
Calque 1
10
496.933600
20
202.765950
11
493.101060
21
197.483110
0
LINE
8
Calque 1
10
493.101060
20
197.483110
11
488.844600
21
192.786310
0
LINE
8
Calque 1
10
488.844600
20
192.786310
11
486.257287
21
190.338160
0
LINE
8
Calque 1
10
486.257287
20
190.338160
11
483.618750
21
188.075200
0
LINE
8
Calque 1
10
483.618750
20
188.075200
11
478.660890
21
184.411800
0
LINE
8
Calque 1
10
478.660890
20
184.411800
11
474.233050
21
181.664800
0
LINE
8
Calque 1
10
474.233050
20
181.664800
11
469.385220
21
179.235300
0
LINE
8
Calque 1
10
469.385220
20
179.235300
11
463.279780
21
176.855100
0
LINE
8
Calque 1
10
463.279780
20
176.855100
11
459.997093
21
175.835487
0
LINE
8
Calque 1
10
459.997093
20
175.835487
11
456.882810
21
175.020700
0
LINE
8
Calque 1
10
456.882810
20
175.020700
11
450.845760
21
173.959300
0
LINE
8
Calque 1
10
450.845760
20
173.959300
11
444.231170
21
173.441800
0
LINE
8
Calque 1
10
444.231170
20
173.441800
11
437.748880
21
173.535800
0
LINE
8
Calque 1
10
437.748880
20
173.535800
11
437.748880
21
173.536200
0
LINE
8
Calque 1
10
451.110380
20
176.325500
11
456.798920
21
177.376700
0
LINE
8
Calque 1
10
456.798920
20
177.376700
11
462.247560
21
178.939100
0
LINE
8
Calque 1
10
462.247560
20
178.939100
11
467.274640
21
180.822400
0
LINE
8
Calque 1
10
467.274640
20
180.822400
11
472.012460
21
183.122200
0
LINE
8
Calque 1
10
472.012460
20
183.122200
11
476.642670
21
185.846700
0
LINE
8
Calque 1
10
476.642670
20
185.846700
11
480.854290
21
188.839000
0
LINE
8
Calque 1
10
480.854290
20
188.839000
11
485.337830
21
192.647290
0
LINE
8
Calque 1
10
485.337830
20
192.647290
11
487.756281
21
195.048969
0
LINE
8
Calque 1
10
487.756281
20
195.048969
11
490.216680
21
197.747790
0
LINE
8
Calque 1
10
490.216680
20
197.747790
11
492.576900
21
200.702149
0
LINE
8
Calque 1
10
492.576900
20
200.702149
11
494.754510
21
203.718210
0
LINE
8
Calque 1
10
494.754510
20
203.718210
11
498.272210
21
209.539040
0
LINE
8
Calque 1
10
498.272210
20
209.539040
11
499.672330
21
212.410934
0
LINE
8
Calque 1
10
499.672330
20
212.410934
11
500.974140
21
215.438790
0
LINE
8
Calque 1
10
500.974140
20
215.438790
11
503.098110
21
221.832940
0
LINE
8
Calque 1
10
503.098110
20
221.832940
11
504.591000
21
228.483610
0
LINE
8
Calque 1
10
504.591000
20
228.483610
11
505.083035
21
232.376114
0
LINE
8
Calque 1
10
505.083035
20
232.376114
11
505.204240
21
237.964450
0
LINE
8
Calque 1
10
505.204240
20
237.964450
11
505.111385
21
243.395831
0
LINE
8
Calque 1
10
505.111385
20
243.395831
11
504.736740
21
247.083140
0
LINE
8
Calque 1
10
504.736740
20
247.083140
11
503.355330
21
253.633410
0
LINE
8
Calque 1
10
503.355330
20
253.633410
11
502.371170
21
257.006148
0
LINE
8
Calque 1
10
502.371170
20
257.006148
11
501.270790
21
260.176310
0
LINE
8
Calque 1
10
501.270790
20
260.176310
11
499.036520
21
265.400000
0
LINE
8
Calque 1
10
499.036520
20
265.400000
11
496.255230
21
270.447080
0
LINE
8
Calque 1
10
496.255230
20
270.447080
11
492.463040
21
275.998280
0
LINE
8
Calque 1
10
492.463040
20
275.998280
11
490.074069
21
278.848001
0
LINE
8
Calque 1
10
490.074069
20
278.848001
11
487.226000
21
281.905270
0
LINE
8
Calque 1
10
487.226000
20
281.905270
11
484.364620
21
284.656481
0
LINE
8
Calque 1
10
484.364620
20
284.656481
11
481.943640
21
286.770350
0
LINE
8
Calque 1
10
481.943640
20
286.770350
11
477.578010
21
289.938330
0
LINE
8
Calque 1
10
477.578010
20
289.938330
11
472.909260
21
292.816110
0
LINE
8
Calque 1
10
472.909260
20
292.816110
11
467.807950
21
295.378980
0
LINE
8
Calque 1
10
467.807950
20
295.378980
11
462.016360
21
297.604390
0
LINE
8
Calque 1
10
462.016360
20
297.604390
11
456.354880
21
299.187580
0
LINE
8
Calque 1
10
456.354880
20
299.187580
11
451.140830
21
300.136960
0
LINE
8
Calque 1
10
451.140830
20
300.136960
11
444.705700
21
300.704040
0
LINE
8
Calque 1
10
444.705700
20
300.704040
11
440.945821
21
300.738257
0
LINE
8
Calque 1
10
440.945821
20
300.738257
11
437.219760
21
300.564980
0
LINE
8
Calque 1
10
437.219760
20
300.564980
11
433.437866
21
300.110529
0
LINE
8
Calque 1
10
433.437866
20
300.110529
11
429.546840
21
299.449910
0
LINE
8
Calque 1
10
429.546840
20
299.449910
11
425.827260
21
298.573621
0
LINE
8
Calque 1
10
425.827260
20
298.573621
11
422.457570
21
297.600650
0
LINE
8
Calque 1
10
422.457570
20
297.600650
11
416.901320
21
295.468980
0
LINE
8
Calque 1
10
416.901320
20
295.468980
11
412.481210
21
293.312610
0
LINE
8
Calque 1
10
412.481210
20
293.312610
11
407.586420
21
290.328760
0
LINE
8
Calque 1
10
407.586420
20
290.328760
11
402.457840
21
286.622800
0
LINE
8
Calque 1
10
402.457840
20
286.622800
11
397.814670
21
282.433680
0
LINE
8
Calque 1
10
397.814670
20
282.433680
11
393.497340
21
277.767290
0
LINE
8
Calque 1
10
393.497340
20
277.767290
11
389.626210
21
272.539650
0
LINE
8
Calque 1
10
389.626210
20
272.539650
11
387.726932
21
269.457605
0
LINE
8
Calque 1
10
387.726932
20
269.457605
11
385.939330
21
266.206600
0
LINE
8
Calque 1
10
385.939330
20
266.206600
11
383.263040
21
260.235270
0
LINE
8
Calque 1
10
383.263040
20
260.235270
11
381.386630
21
254.479910
0
LINE
8
Calque 1
10
381.386630
20
254.479910
11
380.577469
21
251.144117
0
LINE
8
Calque 1
10
380.577469
20
251.144117
11
379.907380
21
247.554930
0
LINE
8
Calque 1
10
379.907380
20
247.554930
11
379.457506
21
243.483165
0
LINE
8
Calque 1
10
379.457506
20
243.483165
11
379.322670
21
238.625910
0
LINE
8
Calque 1
10
379.322670
20
238.625910
11
379.410008
21
234.204886
0
LINE
8
Calque 1
10
379.410008
20
234.204886
11
379.639800
21
230.820700
0
LINE
8
Calque 1
10
379.639800
20
230.820700
11
380.634950
21
225.132160
0
LINE
8
Calque 1
10
380.634950
20
225.132160
11
382.517200
21
218.401960
0
LINE
8
Calque 1
10
382.517200
20
218.401960
11
383.938618
21
214.665812
0
LINE
8
Calque 1
10
383.938618
20
214.665812
11
385.645830
21
210.861340
0
LINE
8
Calque 1
10
385.645830
20
210.861340
11
387.576379
21
207.271480
0
LINE
8
Calque 1
10
387.576379
20
207.271480
11
389.534760
21
204.051340
0
LINE
8
Calque 1
10
389.534760
20
204.051340
11
393.189770
21
199.024260
0
LINE
8
Calque 1
10
393.189770
20
199.024260
11
397.522340
21
194.289460
0
LINE
8
Calque 1
10
397.522340
20
194.289460
11
400.175395
21
191.791337
0
LINE
8
Calque 1
10
400.175395
20
191.791337
11
402.824670
21
189.526960
0
LINE
8
Calque 1
10
402.824670
20
189.526960
11
408.083320
21
185.740300
0
LINE
8
Calque 1
10
408.083320
20
185.740300
11
413.903410
21
182.417000
0
LINE
8
Calque 1
10
413.903410
20
182.417000
11
417.062865
21
180.939000
0
LINE
8
Calque 1
10
417.062865
20
180.939000
11
420.154130
21
179.680900
0
LINE
8
Calque 1
10
420.154130
20
179.680900
11
425.461520
21
177.934200
0
LINE
8
Calque 1
10
425.461520
20
177.934200
11
431.150060
21
176.710300
0
LINE
8
Calque 1
10
431.150060
20
176.710300
11
436.822880
21
175.910600
0
LINE
8
Calque 1
10
436.822880
20
175.910600
11
439.732470
21
175.785787
0
LINE
8
Calque 1
10
439.732470
20
175.785787
11
443.569750
21
175.796200
0
LINE
8
Calque 1
10
443.569750
20
175.796200
11
447.640204
21
175.995787
0
LINE
8
Calque 1
10
447.640204
20
175.995787
11
451.110380
21
176.325500
0
LINE
8
Calque 1
10
451.110380
20
176.325500
11
451.110380
21
176.325500
0
LINE
8
Calque 1
10
416.084980
20
189.479600
11
418.303950
21
193.514490
0
LINE
8
Calque 1
10
418.303950
20
193.514490
11
420.914880
21
198.343140
0
LINE
8
Calque 1
10
420.914880
20
198.343140
11
421.585230
21
199.996790
0
LINE
8
Calque 1
10
421.585230
20
199.996790
11
419.190720
21
199.316430
0
LINE
8
Calque 1
10
419.190720
20
199.316430
11
416.700380
21
198.722680
0
LINE
8
Calque 1
10
416.700380
20
198.722680
11
418.073331
21
201.024169
0
LINE
8
Calque 1
10
418.073331
20
201.024169
11
421.739100
21
206.435960
0
LINE
8
Calque 1
10
421.739100
20
206.435960
11
427.300050
21
214.552970
0
LINE
8
Calque 1
10
427.300050
20
214.552970
11
427.401716
21
215.389774
0
LINE
8
Calque 1
10
427.401716
20
215.389774
11
427.156080
21
216.975160
0
LINE
8
Calque 1
10
427.156080
20
216.975160
11
426.555190
21
219.101530
0
LINE
8
Calque 1
10
426.555190
20
219.101530
11
426.037921
21
219.124585
0
LINE
8
Calque 1
10
426.037921
20
219.124585
11
425.067420
21
218.906830
0
LINE
8
Calque 1
10
425.067420
20
218.906830
11
423.183740
21
218.517620
0
LINE
8
Calque 1
10
423.183740
20
218.517620
11
422.856421
21
218.587541
0
LINE
8
Calque 1
10
422.856421
20
218.587541
11
422.600606
21
218.874953
0
LINE
8
Calque 1
10
422.600606
20
218.874953
11
422.044690
21
220.568140
0
LINE
8
Calque 1
10
422.044690
20
220.568140
11
420.815100
21
226.058240
0
LINE
8
Calque 1
10
420.815100
20
226.058240
11
420.233019
21
229.948179
0
LINE
8
Calque 1
10
420.233019
20
229.948179
11
419.885230
21
234.905420
0
LINE
8
Calque 1
10
419.885230
20
234.905420
11
419.708630
21
240.385340
0
LINE
8
Calque 1
10
419.708630
20
240.385340
11
424.569180
21
237.321400
0
LINE
8
Calque 1
10
424.569180
20
237.321400
11
429.915130
21
233.627420
0
LINE
8
Calque 1
10
429.915130
20
233.627420
11
430.226901
21
233.191244
0
LINE
8
Calque 1
10
430.226901
20
233.191244
11
430.393659
21
232.345856
0
LINE
8
Calque 1
10
430.393659
20
232.345856
11
430.472850
21
227.414230
0
LINE
8
Calque 1
10
430.472850
20
227.414230
11
430.642760
21
220.909200
0
LINE
8
Calque 1
10
430.642760
20
220.909200
11
430.871256
21
220.267570
0
LINE
8
Calque 1
10
430.871256
20
220.267570
11
431.181960
21
219.917930
0
LINE
8
Calque 1
10
431.181960
20
219.917930
11
432.707802
21
220.676130
0
LINE
8
Calque 1
10
432.707802
20
220.676130
11
435.883600
21
222.718180
0
LINE
8
Calque 1
10
435.883600
20
222.718180
11
440.636070
21
225.821350
0
LINE
8
Calque 1
10
440.636070
20
225.821350
11
440.859801
21
225.751418
0
LINE
8
Calque 1
10
440.859801
20
225.751418
11
440.986649
21
225.119166
0
LINE
8
Calque 1
10
440.986649
20
225.119166
11
441.056180
21
220.927180
0
LINE
8
Calque 1
10
441.056180
20
220.927180
11
441.056000
21
215.871000
0
LINE
8
Calque 1
10
441.056000
20
215.871000
11
439.116000
21
215.871000
0
LINE
8
Calque 1
10
439.116000
20
215.871000
11
437.034410
21
215.729690
0
LINE
8
Calque 1
10
437.034410
20
215.729690
11
438.321700
21
211.827090
0
LINE
8
Calque 1
10
438.321700
20
211.827090
11
440.998600
21
204.926930
0
LINE
8
Calque 1
10
440.998600
20
204.926930
11
441.945855
21
202.699489
0
LINE
8
Calque 1
10
441.945855
20
202.699489
11
442.470380
21
201.751930
0
LINE
8
Calque 1
10
442.470380
20
201.751930
11
443.436934
21
203.700252
0
LINE
8
Calque 1
10
443.436934
20
203.700252
11
445.446940
21
208.435290
0
LINE
8
Calque 1
10
445.446940
20
208.435290
11
448.200020
21
215.380600
0
LINE
8
Calque 1
10
448.200020
20
215.380600
11
447.830846
21
215.540940
0
LINE
8
Calque 1
10
447.830846
20
215.540940
11
446.943250
21
215.609330
0
LINE
8
Calque 1
10
446.943250
20
215.609330
11
444.694290
21
215.776240
0
LINE
8
Calque 1
10
444.694290
20
215.776240
11
443.702110
21
215.940240
0
LINE
8
Calque 1
10
443.702110
20
215.940240
11
443.702000
21
222.203000
0
LINE
8
Calque 1
10
443.702000
20
222.203000
11
443.702000
21
228.465000
0
LINE
8
Calque 1
10
443.702000
20
228.465000
11
448.862560
21
231.985130
0
LINE
8
Calque 1
10
448.862560
20
231.985130
11
454.173270
21
235.748190
0
LINE
8
Calque 1
10
454.173270
20
235.748190
11
453.998561
21
236.037069
0
LINE
8
Calque 1
10
453.998561
20
236.037069
11
453.367650
21
236.390470
0
LINE
8
Calque 1
10
453.367650
20
236.390470
11
452.411880
21
236.789820
0
LINE
8
Calque 1
10
452.411880
20
236.789820
11
453.223180
21
237.919540
0
LINE
8
Calque 1
10
453.223180
20
237.919540
11
453.813578
21
238.943541
0
LINE
8
Calque 1
10
453.813578
20
238.943541
11
454.093760
21
239.819080
0
LINE
8
Calque 1
10
454.093760
20
239.819080
11
453.999213
21
240.496085
0
LINE
8
Calque 1
10
453.999213
20
240.496085
11
453.491580
21
240.923790
0
LINE
8
Calque 1
10
453.491580
20
240.923790
11
453.031315
21
241.025258
0
LINE
8
Calque 1
10
453.031315
20
241.025258
11
452.331946
21
240.624400
0
LINE
8
Calque 1
10
452.331946
20
240.624400
11
448.556260
21
236.994290
0
LINE
8
Calque 1
10
448.556260
20
236.994290
11
444.961354
21
233.546343
0
LINE
8
Calque 1
10
444.961354
20
233.546343
11
444.152615
21
232.968413
0
LINE
8
Calque 1
10
444.152615
20
232.968413
11
443.684840
21
232.886190
0
LINE
8
Calque 1
10
443.684840
20
232.886190
11
443.100505
21
232.912019
0
LINE
8
Calque 1
10
443.100505
20
232.912019
11
442.534740
21
232.754720
0
LINE
8
Calque 1
10
442.534740
20
232.754720
11
440.262410
21
230.994640
0
LINE
8
Calque 1
10
440.262410
20
230.994640
11
435.433770
21
226.481390
0
LINE
8
Calque 1
10
435.433770
20
226.481390
11
432.324910
21
223.440480
0
LINE
8
Calque 1
10
432.324910
20
223.440480
11
432.325000
21
225.752000
0
LINE
8
Calque 1
10
432.325000
20
225.752000
11
432.447763
21
227.979311
0
LINE
8
Calque 1
10
432.447763
20
227.979311
11
432.742920
21
230.087440
0
LINE
8
Calque 1
10
432.742920
20
230.087440
11
433.905040
21
234.149870
0
LINE
8
Calque 1
10
433.905040
20
234.149870
11
434.742014
21
236.045006
0
LINE
8
Calque 1
10
434.742014
20
236.045006
11
435.709240
21
237.737860
0
LINE
8
Calque 1
10
435.709240
20
237.737860
11
438.546830
21
241.350320
0
LINE
8
Calque 1
10
438.546830
20
241.350320
11
440.436980
21
243.301430
0
LINE
8
Calque 1
10
440.436980
20
243.301430
11
440.111000
21
241.443150
0
LINE
8
Calque 1
10
440.111000
20
241.443150
11
439.851077
21
240.011909
0
LINE
8
Calque 1
10
439.851077
20
240.011909
11
439.841940
21
239.022290
0
LINE
8
Calque 1
10
439.841940
20
239.022290
11
440.106029
21
238.401065
0
LINE
8
Calque 1
10
440.106029
20
238.401065
11
440.503010
21
237.855530
0
LINE
8
Calque 1
10
440.503010
20
237.855530
11
441.039069
21
237.523950
0
LINE
8
Calque 1
10
441.039069
20
237.523950
11
441.657920
21
237.490690
0
LINE
8
Calque 1
10
441.657920
20
237.490690
11
442.396975
21
237.864246
0
LINE
8
Calque 1
10
442.396975
20
237.864246
11
443.242440
21
238.584370
0
LINE
8
Calque 1
10
443.242440
20
238.584370
11
445.902560
21
241.854520
0
LINE
8
Calque 1
10
445.902560
20
241.854520
11
448.251440
21
245.223920
0
LINE
8
Calque 1
10
448.251440
20
245.223920
11
448.969594
21
246.136105
0
LINE
8
Calque 1
10
448.969594
20
246.136105
11
449.919790
21
246.717990
0
LINE
8
Calque 1
10
449.919790
20
246.717990
11
455.867960
21
248.996420
0
LINE
8
Calque 1
10
455.867960
20
248.996420
11
459.966121
21
250.453505
0
LINE
8
Calque 1
10
459.966121
20
250.453505
11
460.829178
21
250.622658
0
LINE
8
Calque 1
10
460.829178
20
250.622658
11
461.274440
21
250.524260
0
LINE
8
Calque 1
10
461.274440
20
250.524260
11
463.801370
21
248.538450
0
LINE
8
Calque 1
10
463.801370
20
248.538450
11
465.811670
21
246.875290
0
LINE
8
Calque 1
10
465.811670
20
246.875290
11
465.485170
21
242.821260
0
LINE
8
Calque 1
10
465.485170
20
242.821260
11
464.739090
21
235.300150
0
LINE
8
Calque 1
10
464.739090
20
235.300150
11
463.688710
21
229.077580
0
LINE
8
Calque 1
10
463.688710
20
229.077580
11
462.894431
21
226.159994
0
LINE
8
Calque 1
10
462.894431
20
226.159994
11
461.870630
21
223.014790
0
LINE
8
Calque 1
10
461.870630
20
223.014790
11
460.683370
21
219.707500
0
LINE
8
Calque 1
10
460.683370
20
219.707500
11
459.657410
21
219.772100
0
LINE
8
Calque 1
10
459.657410
20
219.772100
11
459.059551
21
219.763385
0
LINE
8
Calque 1
10
459.059551
20
219.763385
11
458.550702
21
219.580730
0
LINE
8
Calque 1
10
458.550702
20
219.580730
11
457.095560
21
218.284640
0
LINE
8
Calque 1
10
457.095560
20
218.284640
11
455.559690
21
216.732570
0
LINE
8
Calque 1
10
455.559690
20
216.732570
11
455.988900
21
215.902580
0
LINE
8
Calque 1
10
455.988900
20
215.902580
11
460.271170
21
208.526500
0
LINE
8
Calque 1
10
460.271170
20
208.526500
11
465.290240
21
200.092340
0
LINE
8
Calque 1
10
465.290240
20
200.092340
11
466.456250
21
198.039400
0
LINE
8
Calque 1
10
466.456250
20
198.039400
11
463.782660
21
199.216210
0
LINE
8
Calque 1
10
463.782660
20
199.216210
11
460.997170
21
200.445990
0
LINE
8
Calque 1
10
460.997170
20
200.445990
11
463.935350
21
194.614270
0
LINE
8
Calque 1
10
463.935350
20
194.614270
11
466.985420
21
188.756700
0
LINE
8
Calque 1
10
466.985420
20
188.756700
11
441.314020
21
188.619000
0
LINE
8
Calque 1
10
441.314020
20
188.619000
11
415.643000
21
188.619000
0
LINE
8
Calque 1
10
415.643000
20
188.619000
11
416.084980
21
189.479600
0
LINE
8
Calque 1
10
425.735460
20
238.915800
11
424.051111
21
240.317527
0
LINE
8
Calque 1
10
424.051111
20
240.317527
11
422.265730
21
242.240550
0
LINE
8
Calque 1
10
422.265730
20
242.240550
11
420.726460
21
244.293896
0
LINE
8
Calque 1
10
420.726460
20
244.293896
11
420.481053
21
244.930156
0
LINE
8
Calque 1
10
420.481053
20
244.930156
11
420.430210
21
245.588730
0
LINE
8
Calque 1
10
420.430210
20
245.588730
11
420.667990
21
247.867950
0
LINE
8
Calque 1
10
420.667990
20
247.867950
11
420.742360
21
249.011746
0
LINE
8
Calque 1
10
420.742360
20
249.011746
11
420.256270
21
250.050760
0
LINE
8
Calque 1
10
420.256270
20
250.050760
11
419.618070
21
250.824563
0
LINE
8
Calque 1
10
419.618070
20
250.824563
11
418.979360
21
251.061380
0
LINE
8
Calque 1
10
418.979360
20
251.061380
11
418.361292
21
250.862691
0
LINE
8
Calque 1
10
418.361292
20
250.862691
11
417.776750
21
250.344780
0
LINE
8
Calque 1
10
417.776750
20
250.344780
11
417.236664
21
249.829125
0
LINE
8
Calque 1
10
417.236664
20
249.829125
11
416.765360
21
249.899370
0
LINE
8
Calque 1
10
416.765360
20
249.899370
11
416.121569
21
250.707491
0
LINE
8
Calque 1
10
416.121569
20
250.707491
11
415.202430
21
252.269610
0
LINE
8
Calque 1
10
415.202430
20
252.269610
11
413.129970
21
256.617630
0
LINE
8
Calque 1
10
413.129970
20
256.617630
11
412.452594
21
258.454372
0
LINE
8
Calque 1
10
412.452594
20
258.454372
11
412.168210
21
259.712280
0
LINE
8
Calque 1
10
412.168210
20
259.712280
11
412.376526
21
260.954924
0
LINE
8
Calque 1
10
412.376526
20
260.954924
11
412.883110
21
262.754990
0
LINE
8
Calque 1
10
412.883110
20
262.754990
11
413.907720
21
265.279250
0
LINE
8
Calque 1
10
413.907720
20
265.279250
11
416.344180
21
266.384310
0
LINE
8
Calque 1
10
416.344180
20
266.384310
11
418.475430
21
267.162130
0
LINE
8
Calque 1
10
418.475430
20
267.162130
11
420.439250
21
266.089770
0
LINE
8
Calque 1
10
420.439250
20
266.089770
11
423.021480
21
264.455540
0
LINE
8
Calque 1
10
423.021480
20
264.455540
11
423.575767
21
263.786694
0
LINE
8
Calque 1
10
423.575767
20
263.786694
11
424.040010
21
262.967630
0
LINE
8
Calque 1
10
424.040010
20
262.967630
11
425.616680
21
258.738410
0
LINE
8
Calque 1
10
425.616680
20
258.738410
11
426.466229
21
256.053567
0
LINE
8
Calque 1
10
426.466229
20
256.053567
11
426.714810
21
254.505080
0
LINE
8
Calque 1
10
426.714810
20
254.505080
11
426.650751
21
253.984439
0
LINE
8
Calque 1
10
426.650751
20
253.984439
11
426.515146
21
253.716366
0
LINE
8
Calque 1
10
426.515146
20
253.716366
11
426.223206
21
253.630726
0
LINE
8
Calque 1
10
426.223206
20
253.630726
11
425.690140
21
253.657380
0
LINE
8
Calque 1
10
425.690140
20
253.657380
11
424.899075
21
253.613376
0
LINE
8
Calque 1
10
424.899075
20
253.613376
11
424.402970
21
253.329050
0
LINE
8
Calque 1
10
424.402970
20
253.329050
11
424.189332
21
252.740477
0
LINE
8
Calque 1
10
424.189332
20
252.740477
11
424.233800
21
251.791380
0
LINE
8
Calque 1
10
424.233800
20
251.791380
11
424.378413
21
251.145955
0
LINE
8
Calque 1
10
424.378413
20
251.145955
11
424.669504
21
250.638177
0
LINE
8
Calque 1
10
424.669504
20
250.638177
11
426.242230
21
249.371560
0
LINE
8
Calque 1
10
426.242230
20
249.371560
11
427.578395
21
248.333029
0
LINE
8
Calque 1
10
427.578395
20
248.333029
11
428.211720
21
247.651760
0
LINE
8
Calque 1
10
428.211720
20
247.651760
11
428.609700
21
245.372830
0
LINE
8
Calque 1
10
428.609700
20
245.372830
11
428.880110
21
241.851980
0
LINE
8
Calque 1
10
428.880110
20
241.851980
11
428.589360
21
239.007710
0
LINE
8
Calque 1
10
428.589360
20
239.007710
11
428.253317
21
238.106509
0
LINE
8
Calque 1
10
428.253317
20
238.106509
11
427.825760
21
237.832210
0
LINE
8
Calque 1
10
427.825760
20
237.832210
11
427.018847
21
238.150516
0
LINE
8
Calque 1
10
427.018847
20
238.150516
11
425.735460
21
238.915800
0
LINE
8
Calque 1
10
425.735460
20
238.915800
11
425.735460
21
238.915800
0
LINE
8
Calque 1
10
426.261160
20
242.594710
11
426.432734
21
242.699246
0
LINE
8
Calque 1
10
426.432734
20
242.699246
11
426.504100
21
242.950580
0
LINE
8
Calque 1
10
426.504100
20
242.950580
11
426.343914
21
243.346878
0
LINE
8
Calque 1
10
426.343914
20
243.346878
11
425.958780
21
243.799950
0
LINE
8
Calque 1
10
425.958780
20
243.799950
11
425.467352
21
244.135909
0
LINE
8
Calque 1
10
425.467352
20
244.135909
11
425.169080
21
243.907110
0
LINE
8
Calque 1
10
425.169080
20
243.907110
11
424.920650
21
243.343950
0
LINE
8
Calque 1
10
424.920650
20
243.343950
11
425.083030
21
242.733440
0
LINE
8
Calque 1
10
425.083030
20
242.733440
11
425.312542
21
242.467966
0
LINE
8
Calque 1
10
425.312542
20
242.467966
11
425.633840
21
242.447210
0
LINE
8
Calque 1
10
425.633840
20
242.447210
11
426.261160
21
242.594710
0
LINE
8
Calque 1
10
426.261160
20
242.594710
11
426.261160
21
242.594710
0
LINE
8
Calque 1
10
424.229100
20
243.960750
11
424.471996
21
244.429978
0
LINE
8
Calque 1
10
424.471996
20
244.429978
11
424.493080
21
244.754500
0
LINE
8
Calque 1
10
424.493080
20
244.754500
11
424.126529
21
244.910905
0
LINE
8
Calque 1
10
424.126529
20
244.910905
11
423.437470
21
244.975960
0
LINE
8
Calque 1
10
423.437470
20
244.975960
11
422.722837
21
244.870276
0
LINE
8
Calque 1
10
422.722837
20
244.870276
11
422.366450
21
244.579080
0
LINE
8
Calque 1
10
422.366450
20
244.579080
11
422.366450
21
243.785330
0
LINE
8
Calque 1
10
422.366450
20
243.785330
11
422.666359
21
243.505040
0
LINE
8
Calque 1
10
422.666359
20
243.505040
11
423.173500
21
243.388460
0
LINE
8
Calque 1
10
423.173500
20
243.388460
11
423.755292
21
243.552914
0
LINE
8
Calque 1
10
423.755292
20
243.552914
11
424.229100
21
243.960750
0
LINE
8
Calque 1
10
424.229100
20
243.960750
11
424.229100
21
243.960750
0
LINE
8
Calque 1
10
427.143760
20
245.059590
11
427.451412
21
245.455827
0
LINE
8
Calque 1
10
427.451412
20
245.455827
11
427.522350
21
245.919490
0
LINE
8
Calque 1
10
427.522350
20
245.919490
11
427.294469
21
246.303715
0
LINE
8
Calque 1
10
427.294469
20
246.303715
11
426.883670
21
246.508960
0
LINE
8
Calque 1
10
426.883670
20
246.508960
11
426.360397
21
246.407938
0
LINE
8
Calque 1
10
426.360397
20
246.407938
11
425.862100
21
246.055800
0
LINE
8
Calque 1
10
425.862100
20
246.055800
11
425.568586
21
245.561331
0
LINE
8
Calque 1
10
425.568586
20
245.561331
11
425.537670
21
245.118110
0
LINE
8
Calque 1
10
425.537670
20
245.118110
11
425.790910
21
244.830854
0
LINE
8
Calque 1
10
425.790910
20
244.830854
11
426.180650
21
244.711380
0
LINE
8
Calque 1
10
426.180650
20
244.711380
11
427.143760
21
245.059590
0
LINE
8
Calque 1
10
427.143760
20
245.059590
11
427.143760
21
245.059590
0
LINE
8
Calque 1
10
421.290640
20
252.826710
11
421.261748
21
253.097262
0
LINE
8
Calque 1
10
421.261748
20
253.097262
11
421.691210
21
252.883510
0
LINE
8
Calque 1
10
421.691210
20
252.883510
11
422.134788
21
252.689762
0
LINE
8
Calque 1
10
422.134788
20
252.689762
11
422.421210
21
252.711100
0
LINE
8
Calque 1
10
422.421210
20
252.711100
11
422.378585
21
253.102752
0
LINE
8
Calque 1
10
422.378585
20
253.102752
11
422.031010
21
253.799310
0
LINE
8
Calque 1
10
422.031010
20
253.799310
11
421.503964
21
254.493819
0
LINE
8
Calque 1
10
421.503964
20
254.493819
11
421.029800
21
254.880520
0
LINE
8
Calque 1
10
421.029800
20
254.880520
11
420.654294
21
254.899047
0
LINE
8
Calque 1
10
420.654294
20
254.899047
11
420.364460
21
254.708340
0
LINE
8
Calque 1
10
420.364460
20
254.708340
11
420.247274
21
254.164959
0
LINE
8
Calque 1
10
420.247274
20
254.164959
11
420.286860
21
253.335550
0
LINE
8
Calque 1
10
420.286860
20
253.335550
11
420.584230
21
252.065930
0
LINE
8
Calque 1
10
420.584230
20
252.065930
11
420.792064
21
251.984891
0
LINE
8
Calque 1
10
420.792064
20
251.984891
11
421.088000
21
252.126130
0
LINE
8
Calque 1
10
421.088000
20
252.126130
11
421.295044
21
252.454328
0
LINE
8
Calque 1
10
421.295044
20
252.454328
11
421.290670
21
252.826640
0
LINE
8
Calque 1
10
421.290670
20
252.826640
11
421.290640
21
252.826710
0
LINE
8
Calque 1
10
418.677820
20
254.267070
11
419.206736
21
254.858555
0
LINE
8
Calque 1
10
419.206736
20
254.858555
11
419.308820
21
255.523840
0
LINE
8
Calque 1
10
419.308820
20
255.523840
11
419.235163
21
255.906127
0
LINE
8
Calque 1
10
419.235163
20
255.906127
11
419.063226
21
256.104014
0
LINE
8
Calque 1
10
419.063226
20
256.104014
11
418.037430
21
256.131640
0
LINE
8
Calque 1
10
418.037430
20
256.131640
11
417.060542
21
255.946825
0
LINE
8
Calque 1
10
417.060542
20
255.946825
11
416.383790
21
255.627610
0
LINE
8
Calque 1
10
416.383790
20
255.627610
11
416.056782
21
255.195042
0
LINE
8
Calque 1
10
416.056782
20
255.195042
11
415.920770
21
254.737680
0
LINE
8
Calque 1
10
415.920770
20
254.737680
11
416.056782
21
254.322986
0
LINE
8
Calque 1
10
416.056782
20
254.322986
11
416.383790
21
253.992990
0
LINE
8
Calque 1
10
416.383790
20
253.992990
11
417.406440
21
253.715260
0
LINE
8
Calque 1
10
417.406440
20
253.715260
11
418.010757
21
253.874195
0
LINE
8
Calque 1
10
418.010757
20
253.874195
11
418.677820
21
254.267070
0
LINE
8
Calque 1
10
418.677820
20
254.267070
11
418.677820
21
254.267070
0
LINE
8
Calque 1
10
424.101730
20
256.962210
11
424.191230
21
257.876680
0
LINE
8
Calque 1
10
424.191230
20
257.876680
11
423.918410
21
258.157884
0
LINE
8
Calque 1
10
423.918410
20
258.157884
11
423.440420
21
258.366330
0
LINE
8
Calque 1
10
423.440420
20
258.366330
11
422.742482
21
258.336241
0
LINE
8
Calque 1
10
422.742482
20
258.336241
11
421.908360
21
257.961820
0
LINE
8
Calque 1
10
421.908360
20
257.961820
11
421.219199
21
257.440646
0
LINE
8
Calque 1
10
421.219199
20
257.440646
11
420.837290
21
256.975610
0
LINE
8
Calque 1
10
420.837290
20
256.975610
11
420.806821
21
256.573350
0
LINE
8
Calque 1
10
420.806821
20
256.573350
11
420.962540
21
256.203100
0
LINE
8
Calque 1
10
420.962540
20
256.203100
11
421.827000
21
255.759990
0
LINE
8
Calque 1
10
421.827000
20
255.759990
11
422.451614
21
255.797647
0
LINE
8
Calque 1
10
422.451614
20
255.797647
11
423.144350
21
256.022550
0
LINE
8
Calque 1
10
423.144350
20
256.022550
11
423.731360
21
256.446334
0
LINE
8
Calque 1
10
423.731360
20
256.446334
11
424.101770
21
256.962210
0
LINE
8
Calque 1
10
424.101770
20
256.962210
11
424.101730
21
256.962210
0
LINE
8
Calque 1
10
434.889830
20
245.263010
11
433.495844
21
246.761475
0
LINE
8
Calque 1
10
433.495844
20
246.761475
11
432.278790
21
248.494540
0
LINE
8
Calque 1
10
432.278790
20
248.494540
11
430.295870
21
252.414450
0
LINE
8
Calque 1
10
430.295870
20
252.414450
11
429.414540
21
254.448190
0
LINE
8
Calque 1
10
429.414540
20
254.448190
11
430.373370
21
256.738700
0
LINE
8
Calque 1
10
430.373370
20
256.738700
11
431.107314
21
258.780030
0
LINE
8
Calque 1
10
431.107314
20
258.780030
11
431.188780
21
260.098390
0
LINE
8
Calque 1
10
431.188780
20
260.098390
11
430.912130
21
261.040166
0
LINE
8
Calque 1
10
430.912130
20
261.040166
11
430.448400
21
261.803030
0
LINE
8
Calque 1
10
430.448400
20
261.803030
11
429.926455
21
262.251817
0
LINE
8
Calque 1
10
429.926455
20
262.251817
11
429.509870
21
262.438480
0
LINE
8
Calque 1
10
429.509870
20
262.438480
11
428.993067
21
262.196510
0
LINE
8
Calque 1
10
428.993067
20
262.196510
11
428.230160
21
261.614760
0
LINE
8
Calque 1
10
428.230160
20
261.614760
11
427.379719
21
260.997521
0
LINE
8
Calque 1
10
427.379719
20
260.997521
11
427.116375
21
260.991337
0
LINE
8
Calque 1
10
427.116375
20
260.991337
11
426.857050
21
261.151740
0
LINE
8
Calque 1
10
426.857050
20
261.151740
11
426.034220
21
262.438480
0
LINE
8
Calque 1
10
426.034220
20
262.438480
11
425.040670
21
265.878060
0
LINE
8
Calque 1
10
425.040670
20
265.878060
11
423.983370
21
271.114120
0
LINE
8
Calque 1
10
423.983370
20
271.114120
11
423.707725
21
273.253516
0
LINE
8
Calque 1
10
423.707725
20
273.253516
11
423.679220
21
274.574070
0
LINE
8
Calque 1
10
423.679220
20
274.574070
11
424.180971
21
275.788392
0
LINE
8
Calque 1
10
424.180971
20
275.788392
11
425.180220
21
277.672390
0
LINE
8
Calque 1
10
425.180220
20
277.672390
11
426.872260
21
280.487350
0
LINE
8
Calque 1
10
426.872260
20
280.487350
11
427.715240
21
280.929182
0
LINE
8
Calque 1
10
427.715240
20
280.929182
11
429.537930
21
281.347240
0
LINE
8
Calque 1
10
429.537930
20
281.347240
11
432.768320
21
281.753060
0
LINE
8
Calque 1
10
432.768320
20
281.753060
11
433.325618
21
281.668717
0
LINE
8
Calque 1
10
433.325618
20
281.668717
11
433.953371
21
281.326437
0
LINE
8
Calque 1
10
433.953371
20
281.326437
11
436.173610
21
279.332570
0
LINE
8
Calque 1
10
436.173610
20
279.332570
11
438.166595
21
277.242789
0
LINE
8
Calque 1
10
438.166595
20
277.242789
11
438.672390
21
276.531378
0
LINE
8
Calque 1
10
438.672390
20
276.531378
11
438.918720
21
275.959130
0
LINE
8
Calque 1
10
438.918720
20
275.959130
11
439.621430
21
271.831190
0
LINE
8
Calque 1
10
439.621430
20
271.831190
11
439.953251
21
268.799229
0
LINE
8
Calque 1
10
439.953251
20
268.799229
11
440.105590
21
265.968140
0
LINE
8
Calque 1
10
440.105590
20
265.968140
11
439.987500
21
263.135580
0
LINE
8
Calque 1
10
439.987500
20
263.135580
11
438.676020
21
263.393780
0
LINE
8
Calque 1
10
438.676020
20
263.393780
11
437.631777
21
263.645927
0
LINE
8
Calque 1
10
437.631777
20
263.645927
11
436.900420
21
263.520030
0
LINE
8
Calque 1
10
436.900420
20
263.520030
11
436.581670
21
263.323952
0
LINE
8
Calque 1
10
436.581670
20
263.323952
11
436.397979
21
263.027970
0
LINE
8
Calque 1
10
436.397979
20
263.027970
11
436.293660
21
261.713070
0
LINE
8
Calque 1
10
436.293660
20
261.713070
11
436.324782
21
260.798045
0
LINE
8
Calque 1
10
436.324782
20
260.798045
11
436.531384
21
260.107967
0
LINE
8
Calque 1
10
436.531384
20
260.107967
11
437.083321
21
259.309519
0
LINE
8
Calque 1
10
437.083321
20
259.309519
11
438.150450
21
258.069380
0
LINE
8
Calque 1
10
438.150450
20
258.069380
11
440.007240
21
255.956190
0
LINE
8
Calque 1
10
440.007240
20
255.956190
11
439.853330
21
254.368690
0
LINE
8
Calque 1
10
439.853330
20
254.368690
11
439.430610
21
250.842920
0
LINE
8
Calque 1
10
439.430610
20
250.842920
11
438.686400
21
247.522900
0
LINE
8
Calque 1
10
438.686400
20
247.522900
11
437.643830
21
245.029400
0
LINE
8
Calque 1
10
437.643830
20
245.029400
11
437.143779
21
244.244224
0
LINE
8
Calque 1
10
437.143779
20
244.244224
11
436.737980
21
243.917650
0
LINE
8
Calque 1
10
436.737980
20
243.917650
11
436.055379
21
244.312849
0
LINE
8
Calque 1
10
436.055379
20
244.312849
11
434.889830
21
245.263010
0
LINE
8
Calque 1
10
434.889830
20
245.263010
11
434.889830
21
245.263010
0
LINE
8
Calque 1
10
436.293660
20
250.811600
11
436.139799
21
251.316960
0
LINE
8
Calque 1
10
436.139799
20
251.316960
11
435.769870
21
251.891980
0
LINE
8
Calque 1
10
435.769870
20
251.891980
11
435.292490
21
252.332776
0
LINE
8
Calque 1
10
435.292490
20
252.332776
11
434.980170
21
252.119730
0
LINE
8
Calque 1
10
434.980170
20
252.119730
11
434.710210
21
251.039350
0
LINE
8
Calque 1
10
434.710210
20
251.039350
11
434.849629
21
250.478606
0
LINE
8
Calque 1
10
434.849629
20
250.478606
11
435.499910
21
250.355840
0
LINE
8
Calque 1
10
435.499910
20
250.355840
11
436.112316
21
250.459966
0
LINE
8
Calque 1
10
436.112316
20
250.459966
11
436.293660
21
250.811600
0
LINE
8
Calque 1
10
436.293660
20
250.811600
11
436.293660
21
250.811600
0
LINE
8
Calque 1
10
433.927220
20
252.343100
11
434.333319
21
252.822317
0
LINE
8
Calque 1
10
434.333319
20
252.822317
11
434.355830
21
253.284480
0
LINE
8
Calque 1
10
434.355830
20
253.284480
11
433.985296
21
253.624356
0
LINE
8
Calque 1
10
433.985296
20
253.624356
11
433.081880
21
253.656410
0
LINE
8
Calque 1
10
433.081880
20
253.656410
11
432.189557
21
253.472974
0
LINE
8
Calque 1
10
432.189557
20
253.472974
11
431.690400
21
253.096420
0
LINE
8
Calque 1
10
431.690400
20
253.096420
11
431.560294
21
252.637377
0
LINE
8
Calque 1
10
431.560294
20
252.637377
11
431.912460
21
252.236520
0
LINE
8
Calque 1
10
431.912460
20
252.236520
11
432.875340
21
251.855150
0
LINE
8
Calque 1
10
432.875340
20
251.855150
11
433.369656
21
251.998486
0
LINE
8
Calque 1
10
433.369656
20
251.998486
11
433.927220
21
252.343100
0
LINE
8
Calque 1
10
433.927220
20
252.343100
11
433.927220
21
252.343100
0
LINE
8
Calque 1
10
437.898560
20
252.922790
11
438.265497
21
253.306076
0
LINE
8
Calque 1
10
438.265497
20
253.306076
11
438.410330
21
253.857130
0
LINE
8
Calque 1
10
438.410330
20
253.857130
11
438.286682
21
254.371024
0
LINE
8
Calque 1
10
438.286682
20
254.371024
11
437.989410
21
254.679110
0
LINE
8
Calque 1
10
437.989410
20
254.679110
11
437.427167
21
254.666835
0
LINE
8
Calque 1
10
437.427167
20
254.666835
11
436.666490
21
254.410510
0
LINE
8
Calque 1
10
436.666490
20
254.410510
11
436.029457
21
253.992747
0
LINE
8
Calque 1
10
436.029457
20
253.992747
11
435.764500
21
253.592370
0
LINE
8
Calque 1
10
435.764500
20
253.592370
11
435.900512
21
253.239115
0
LINE
8
Calque 1
10
435.900512
20
253.239115
11
436.227520
21
252.934670
0
LINE
8
Calque 1
10
436.227520
20
252.934670
11
437.038660
21
252.656940
0
LINE
8
Calque 1
10
437.038660
20
252.656940
11
437.898560
21
252.922790
0
LINE
8
Calque 1
10
437.898560
20
252.922790
11
437.898560
21
252.922790
0
LINE
8
Calque 1
10
432.863000
20
263.780990
11
433.018800
21
264.422830
0
LINE
8
Calque 1
10
433.018800
20
264.422830
11
433.342630
21
263.827520
0
LINE
8
Calque 1
10
433.342630
20
263.827520
11
433.685173
21
263.407083
0
LINE
8
Calque 1
10
433.685173
20
263.407083
11
434.054010
21
263.232210
0
LINE
8
Calque 1
10
434.054010
20
263.232210
11
434.332204
21
263.399789
0
LINE
8
Calque 1
10
434.332204
20
263.399789
11
434.440590
21
263.827520
0
LINE
8
Calque 1
10
434.440590
20
263.827520
11
434.274965
21
264.519984
0
LINE
8
Calque 1
10
434.274965
20
264.519984
11
433.878130
21
265.348880
0
LINE
8
Calque 1
10
433.878130
20
265.348880
11
433.028090
21
266.458220
0
LINE
8
Calque 1
10
433.028090
20
266.458220
11
432.728351
21
266.508040
0
LINE
8
Calque 1
10
432.728351
20
266.508040
11
432.412900
21
266.370420
0
LINE
8
Calque 1
10
432.412900
20
266.370420
11
432.130863
21
265.836527
0
LINE
8
Calque 1
10
432.130863
20
265.836527
11
431.911450
21
264.933590
0
LINE
8
Calque 1
10
431.911450
20
264.933590
11
431.898650
21
263.345730
0
LINE
8
Calque 1
10
431.898650
20
263.345730
11
432.108024
21
263.079259
0
LINE
8
Calque 1
10
432.108024
20
263.079259
11
432.383930
21
263.031360
0
LINE
8
Calque 1
10
432.383930
20
263.031360
11
432.658020
21
263.296024
0
LINE
8
Calque 1
10
432.658020
20
263.296024
11
432.863020
21
263.780970
0
LINE
8
Calque 1
10
432.863020
20
263.780970
11
432.863000
21
263.780990
0
LINE
8
Calque 1
10
431.276920
20
267.087990
11
431.463633
21
267.627059
0
LINE
8
Calque 1
10
431.463633
20
267.627059
11
431.456770
21
268.071530
0
LINE
8
Calque 1
10
431.456770
20
268.071530
11
431.105007
21
268.387775
0
LINE
8
Calque 1
10
431.105007
20
268.387775
11
430.462500
21
268.618550
0
LINE
8
Calque 1
10
430.462500
20
268.618550
11
428.734970
21
268.788460
0
LINE
8
Calque 1
10
428.734970
20
268.788460
11
427.969141
21
268.646979
0
LINE
8
Calque 1
10
427.969141
20
268.646979
11
427.445120
21
268.200420
0
LINE
8
Calque 1
10
427.445120
20
268.200420
11
427.154236
21
267.612694
0
LINE
8
Calque 1
10
427.154236
20
267.612694
11
427.033250
21
267.025410
0
LINE
8
Calque 1
10
427.033250
20
267.025410
11
427.123615
21
266.555013
0
LINE
8
Calque 1
10
427.123615
20
266.555013
11
427.340880
21
266.248310
0
LINE
8
Calque 1
10
427.340880
20
266.248310
11
428.465360
21
265.882180
0
LINE
8
Calque 1
10
428.465360
20
265.882180
11
429.287054
21
265.856031
0
LINE
8
Calque 1
10
429.287054
20
265.856031
11
430.117290
21
266.093860
0
LINE
8
Calque 1
10
430.117290
20
266.093860
11
430.802397
21
266.545809
0
LINE
8
Calque 1
10
430.802397
20
266.545809
11
431.276920
21
267.087990
0
LINE
8
Calque 1
10
431.276920
20
267.087990
11
431.276920
21
267.087990
0
LINE
8
Calque 1
10
437.181070
20
267.585200
11
437.675509
21
268.146430
0
LINE
8
Calque 1
10
437.675509
20
268.146430
11
437.881160
21
268.584660
0
LINE
8
Calque 1
10
437.881160
20
268.584660
11
437.469290
21
269.523340
0
LINE
8
Calque 1
10
437.469290
20
269.523340
11
436.991799
21
269.941789
0
LINE
8
Calque 1
10
436.991799
20
269.941789
11
436.418030
21
270.111380
0
LINE
8
Calque 1
10
436.418030
20
270.111380
11
435.614645
21
269.940450
0
LINE
8
Calque 1
10
435.614645
20
269.940450
11
434.580950
21
269.529490
0
LINE
8
Calque 1
10
434.580950
20
269.529490
11
433.645489
21
268.943567
0
LINE
8
Calque 1
10
433.645489
20
268.943567
11
433.383250
21
268.347310
0
LINE
8
Calque 1
10
433.383250
20
268.347310
11
433.573065
21
267.800652
0
LINE
8
Calque 1
10
433.573065
20
267.800652
11
434.110850
21
267.352290
0
LINE
8
Calque 1
10
434.110850
20
267.352290
11
434.865965
21
267.070404
0
LINE
8
Calque 1
10
434.865965
20
267.070404
11
435.659720
21
266.946970
0
LINE
8
Calque 1
10
435.659720
20
266.946970
11
436.448940
21
267.110595
0
LINE
8
Calque 1
10
436.448940
20
267.110595
11
437.181070
21
267.585200
0
LINE
8
Calque 1
10
437.181070
20
267.585200
11
437.181070
21
267.585200
0
LINE
8
Calque 1
10
445.744130
20
250.069200
11
444.363190
21
252.475570
0
LINE
8
Calque 1
10
444.363190
20
252.475570
11
443.450840
21
255.915150
0
LINE
8
Calque 1
10
443.450840
20
255.915150
11
442.820980
21
259.323970
0
LINE
8
Calque 1
10
442.820980
20
259.323970
11
442.792195
21
259.916926
0
LINE
8
Calque 1
10
442.792195
20
259.916926
11
442.957724
21
260.506224
0
LINE
8
Calque 1
10
442.957724
20
260.506224
11
444.236500
21
262.489710
0
LINE
8
Calque 1
10
444.236500
20
262.489710
11
445.542936
21
264.525951
0
LINE
8
Calque 1
10
445.542936
20
264.525951
11
445.719004
21
265.179477
0
LINE
8
Calque 1
10
445.719004
20
265.179477
11
445.719430
21
265.919420
0
LINE
8
Calque 1
10
445.719430
20
265.919420
11
445.566078
21
266.923735
0
LINE
8
Calque 1
10
445.566078
20
266.923735
11
445.302370
21
267.582330
0
LINE
8
Calque 1
10
445.302370
20
267.582330
11
444.856439
21
267.873101
0
LINE
8
Calque 1
10
444.856439
20
267.873101
11
444.264910
21
267.993090
0
LINE
8
Calque 1
10
444.264910
20
267.993090
11
443.546921
21
267.873599
0
LINE
8
Calque 1
10
443.546921
20
267.873599
11
442.796930
21
267.588470
0
LINE
8
Calque 1
10
442.796930
20
267.588470
11
442.137280
21
267.345179
0
LINE
8
Calque 1
10
442.137280
20
267.345179
11
441.738600
21
267.470280
0
LINE
8
Calque 1
10
441.738600
20
267.470280
11
441.508520
21
268.737741
0
LINE
8
Calque 1
10
441.508520
20
268.737741
11
441.367360
21
271.580120
0
LINE
8
Calque 1
10
441.367360
20
271.580120
11
441.390145
21
275.109203
0
LINE
8
Calque 1
10
441.390145
20
275.109203
11
441.565240
21
278.222680
0
LINE
8
Calque 1
10
441.565240
20
278.222680
11
441.916156
21
280.648578
0
LINE
8
Calque 1
10
441.916156
20
280.648578
11
442.151518
21
281.332312
0
LINE
8
Calque 1
10
442.151518
20
281.332312
11
442.476000
21
281.859640
0
LINE
8
Calque 1
10
442.476000
20
281.859640
11
444.923960
21
284.592510
0
LINE
8
Calque 1
10
444.923960
20
284.592510
11
446.744700
21
286.505940
0
LINE
8
Calque 1
10
446.744700
20
286.505940
11
449.522830
21
286.352590
0
LINE
8
Calque 1
10
449.522830
20
286.352590
11
451.818429
21
286.129379
0
LINE
8
Calque 1
10
451.818429
20
286.129379
11
452.962410
21
285.739450
0
LINE
8
Calque 1
10
452.962410
20
285.739450
11
453.959175
21
284.644153
0
LINE
8
Calque 1
10
453.959175
20
284.644153
11
455.426790
21
282.656460
0
LINE
8
Calque 1
10
455.426790
20
282.656460
11
457.229720
21
280.033260
0
LINE
8
Calque 1
10
457.229720
20
280.033260
11
457.063320
21
277.122840
0
LINE
8
Calque 1
10
457.063320
20
277.122840
11
456.387360
21
271.169720
0
LINE
8
Calque 1
10
456.387360
20
271.169720
11
455.741120
21
267.597840
0
LINE
8
Calque 1
10
455.741120
20
267.597840
11
455.229520
21
266.582500
0
LINE
8
Calque 1
10
455.229520
20
266.582500
11
454.997682
21
266.324238
0
LINE
8
Calque 1
10
454.997682
20
266.324238
11
454.765978
21
266.260316
0
LINE
8
Calque 1
10
454.765978
20
266.260316
11
453.847080
21
266.780930
0
LINE
8
Calque 1
10
453.847080
20
266.780930
11
453.010173
21
267.264442
0
LINE
8
Calque 1
10
453.010173
20
267.264442
11
452.412830
21
267.465550
0
LINE
8
Calque 1
10
452.412830
20
267.465550
11
451.993158
21
267.329538
0
LINE
8
Calque 1
10
451.993158
20
267.329538
11
451.583400
21
267.002530
0
LINE
8
Calque 1
10
451.583400
20
267.002530
11
451.249485
21
266.349011
0
LINE
8
Calque 1
10
451.249485
20
266.349011
11
451.012170
21
265.427990
0
LINE
8
Calque 1
10
451.012170
20
265.427990
11
450.964098
21
264.764400
0
LINE
8
Calque 1
10
450.964098
20
264.764400
11
451.080775
21
264.093322
0
LINE
8
Calque 1
10
451.080775
20
264.093322
11
452.049290
21
261.911830
0
LINE
8
Calque 1
10
452.049290
20
261.911830
11
453.254940
21
259.507210
0
LINE
8
Calque 1
10
453.254940
20
259.507210
11
452.339040
21
257.062250
0
LINE
8
Calque 1
10
452.339040
20
257.062250
11
450.694250
21
253.077850
0
LINE
8
Calque 1
10
450.694250
20
253.077850
11
449.795785
21
251.570800
0
LINE
8
Calque 1
10
449.795785
20
251.570800
11
448.659210
21
250.109260
0
LINE
8
Calque 1
10
448.659210
20
250.109260
11
447.640881
21
249.099942
0
LINE
8
Calque 1
10
447.640881
20
249.099942
11
447.026720
21
248.680140
0
LINE
8
Calque 1
10
447.026720
20
248.680140
11
446.515340
21
249.088174
0
LINE
8
Calque 1
10
446.515340
20
249.088174
11
445.744130
21
250.069200
0
LINE
8
Calque 1
10
445.744130
20
250.069200
11
445.744130
21
250.069200
0
LINE
8
Calque 1
10
448.199910
20
255.685120
11
447.844800
21
256.737560
0
LINE
8
Calque 1
10
447.844800
20
256.737560
11
447.477831
21
257.065384
0
LINE
8
Calque 1
10
447.477831
20
257.065384
11
447.051050
21
256.596970
0
LINE
8
Calque 1
10
447.051050
20
256.596970
11
446.612410
21
255.544530
0
LINE
8
Calque 1
10
446.612410
20
255.544530
11
446.801745
21
255.219991
0
LINE
8
Calque 1
10
446.801745
20
255.219991
11
447.406160
21
255.118330
0
LINE
8
Calque 1
10
447.406160
20
255.118330
11
448.041134
21
255.231707
0
LINE
8
Calque 1
10
448.041134
20
255.231707
11
448.199910
21
255.685120
0
LINE
8
Calque 1
10
448.199910
20
255.685120
11
448.199910
21
255.685120
0
LINE
8
Calque 1
10
450.431650
20
256.875670
11
450.921080
21
257.202101
0
LINE
8
Calque 1
10
450.921080
20
257.202101
11
451.110330
21
257.637020
0
LINE
8
Calque 1
10
451.110330
20
257.637020
11
450.996930
21
258.086604
0
LINE
8
Calque 1
10
450.996930
20
258.086604
11
450.724290
21
258.460730
0
LINE
8
Calque 1
10
450.724290
20
258.460730
11
450.221459
21
258.647026
0
LINE
8
Calque 1
10
450.221459
20
258.647026
11
449.515790
21
258.600470
0
LINE
8
Calque 1
10
449.515790
20
258.600470
11
448.888351
21
258.351512
0
LINE
8
Calque 1
10
448.888351
20
258.351512
11
448.534790
21
258.006690
0
LINE
8
Calque 1
10
448.534790
20
258.006690
11
448.583810
21
257.573150
0
LINE
8
Calque 1
10
448.583810
20
257.573150
11
448.978850
21
257.105590
0
LINE
8
Calque 1
10
448.978850
20
257.105590
11
449.667210
21
256.617640
0
LINE
8
Calque 1
10
449.667210
20
256.617640
11
450.431650
21
256.875670
0
LINE
8
Calque 1
10
450.431650
20
256.875670
11
450.431650
21
256.875670
0
LINE
8
Calque 1
10
446.629810
20
257.420690
11
446.991246
21
257.725979
0
LINE
8
Calque 1
10
446.991246
20
257.725979
11
447.141580
21
258.075360
0
LINE
8
Calque 1
10
447.141580
20
258.075360
11
446.897644
21
258.470421
0
LINE
8
Calque 1
10
446.897644
20
258.470421
11
446.311160
21
258.885560
0
LINE
8
Calque 1
10
446.311160
20
258.885560
11
445.523855
21
259.165247
0
LINE
8
Calque 1
10
445.523855
20
259.165247
11
444.855950
21
259.030320
0
LINE
8
Calque 1
10
444.855950
20
259.030320
11
444.414690
21
258.715428
0
LINE
8
Calque 1
10
444.414690
20
258.715428
11
444.231160
21
258.358100
0
LINE
8
Calque 1
10
444.231160
20
258.358100
11
444.403897
21
257.963408
0
LINE
8
Calque 1
10
444.403897
20
257.963408
11
444.819200
21
257.558680
0
LINE
8
Calque 1
10
444.819200
20
257.558680
11
445.762640
21
257.146800
0
LINE
8
Calque 1
10
445.762640
20
257.146800
11
446.629810
21
257.420690
0
LINE
8
Calque 1
10
446.629810
20
257.420690
11
446.629810
21
257.420690
0
LINE
8
Calque 1
10
449.783510
20
269.002490
11
449.684805
21
269.880364
0
LINE
8
Calque 1
10
449.684805
20
269.880364
11
449.452780
21
270.619630
0
LINE
8
Calque 1
10
449.452780
20
270.619630
11
448.791280
21
271.370590
0
LINE
8
Calque 1
10
448.791280
20
271.370590
11
448.359260
21
271.036157
0
LINE
8
Calque 1
10
448.359260
20
271.036157
11
447.769170
21
269.979430
0
LINE
8
Calque 1
10
447.769170
20
269.979430
11
447.294008
21
268.731347
0
LINE
8
Calque 1
10
447.294008
20
268.731347
11
447.277427
21
268.390443
0
LINE
8
Calque 1
10
447.277427
20
268.390443
11
447.394050
21
268.170130
0
LINE
8
Calque 1
10
447.394050
20
268.170130
11
447.721305
21
268.039196
0
LINE
8
Calque 1
10
447.721305
20
268.039196
11
448.088400
21
268.380050
0
LINE
8
Calque 1
10
448.088400
20
268.380050
11
448.474351
21
268.753301
0
LINE
8
Calque 1
10
448.474351
20
268.753301
11
448.882450
21
268.309450
0
LINE
8
Calque 1
10
448.882450
20
268.309450
11
449.245830
21
267.938760
0
LINE
8
Calque 1
10
449.245830
20
267.938760
11
449.540930
21
267.873560
0
LINE
8
Calque 1
10
449.540930
20
267.873560
11
449.713865
21
268.268019
0
LINE
8
Calque 1
10
449.713865
20
268.268019
11
449.783510
21
269.002460
0
LINE
8
Calque 1
10
449.783510
20
269.002460
11
449.783510
21
269.002490
0
LINE
8
Calque 1
10
453.367790
20
271.288480
11
454.111778
21
271.750878
0
LINE
8
Calque 1
10
454.111778
20
271.750878
11
454.285330
21
272.473000
0
LINE
8
Calque 1
10
454.285330
20
272.473000
11
454.138605
21
273.170519
0
LINE
8
Calque 1
10
454.138605
20
273.170519
11
453.690020
21
273.654820
0
LINE
8
Calque 1
10
453.690020
20
273.654820
11
452.925579
21
273.906051
0
LINE
8
Calque 1
10
452.925579
20
273.906051
11
451.706360
21
273.809260
0
LINE
8
Calque 1
10
451.706360
20
273.809260
11
450.052710
21
273.419090
0
LINE
8
Calque 1
10
450.052710
20
273.419090
11
449.787410
21
272.787690
0
LINE
8
Calque 1
10
449.787410
20
272.787690
11
449.962284
21
272.298474
0
LINE
8
Calque 1
10
449.962284
20
272.298474
11
450.382730
21
271.778650
0
LINE
8
Calque 1
10
450.382730
20
271.778650
11
451.374910
21
271.091960
0
LINE
8
Calque 1
10
451.374910
20
271.091960
11
452.111020
21
270.925990
0
LINE
8
Calque 1
10
452.111020
20
270.925990
11
453.367790
21
271.288480
0
LINE
8
Calque 1
10
453.367790
20
271.288480
11
453.367790
21
271.288480
0
LINE
8
Calque 1
10
447.614860
20
272.378060
11
448.027586
21
273.002046
0
LINE
8
Calque 1
10
448.027586
20
273.002046
11
447.925220
21
273.430830
0
LINE
8
Calque 1
10
447.925220
20
273.430830
11
447.335663
21
273.808610
0
LINE
8
Calque 1
10
447.335663
20
273.808610
11
446.332750
21
274.217410
0
LINE
8
Calque 1
10
446.332750
20
274.217410
11
445.259483
21
274.471864
0
LINE
8
Calque 1
10
445.259483
20
274.471864
11
444.500750
21
274.478570
0
LINE
8
Calque 1
10
444.500750
20
274.478570
11
444.041154
21
274.205608
0
LINE
8
Calque 1
10
444.041154
20
274.205608
11
443.687060
21
273.787610
0
LINE
8
Calque 1
10
443.687060
20
273.787610
11
443.538546
21
273.266663
0
LINE
8
Calque 1
10
443.538546
20
273.266663
11
443.573220
21
272.746120
0
LINE
8
Calque 1
10
443.573220
20
272.746120
11
443.898224
21
272.261704
0
LINE
8
Calque 1
10
443.898224
20
272.261704
11
444.447770
21
271.827590
0
LINE
8
Calque 1
10
444.447770
20
271.827590
11
445.216876
21
271.573695
0
LINE
8
Calque 1
10
445.216876
20
271.573695
11
446.083250
21
271.555150
0
LINE
8
Calque 1
10
446.083250
20
271.555150
11
446.921618
21
271.837264
0
LINE
8
Calque 1
10
446.921618
20
271.837264
11
447.614860
21
272.378060
0
LINE
8
Calque 1
10
447.614860
20
272.378060
11
447.614860
21
272.378060
0
LINE
8
Calque 1
10
458.417660
20
252.044260
11
457.679470
21
253.433330
0
LINE
8
Calque 1
10
457.679470
20
253.433330
11
457.213948
21
255.102909
0
LINE
8
Calque 1
10
457.213948
20
255.102909
11
456.995490
21
258.162350
0
LINE
8
Calque 1
10
456.995490
20
258.162350
11
456.860520
21
261.691480
0
LINE
8
Calque 1
10
456.860520
20
261.691480
11
458.450530
21
263.321730
0
LINE
8
Calque 1
10
458.450530
20
263.321730
11
459.686228
21
264.766101
0
LINE
8
Calque 1
10
459.686228
20
264.766101
11
460.203350
21
265.833530
0
LINE
8
Calque 1
10
460.203350
20
265.833530
11
460.235409
21
266.611034
0
LINE
8
Calque 1
10
460.235409
20
266.611034
11
460.083920
21
267.242430
0
LINE
8
Calque 1
10
460.083920
20
267.242430
11
459.618711
21
267.652222
0
LINE
8
Calque 1
10
459.618711
20
267.652222
11
458.564850
21
267.683790
0
LINE
8
Calque 1
10
458.564850
20
267.683790
11
457.490124
21
267.715176
0
LINE
8
Calque 1
10
457.490124
20
267.715176
11
457.317018
21
267.928319
0
LINE
8
Calque 1
10
457.317018
20
267.928319
11
457.242370
21
268.345280
0
LINE
8
Calque 1
10
457.242370
20
268.345280
11
457.386286
21
269.858297
0
LINE
8
Calque 1
10
457.386286
20
269.858297
11
457.852560
21
272.446320
0
LINE
8
Calque 1
10
457.852560
20
272.446320
11
458.994390
21
277.238710
0
LINE
8
Calque 1
10
458.994390
20
277.238710
11
459.296940
21
278.067374
0
LINE
8
Calque 1
10
459.296940
20
278.067374
11
459.716066
21
278.710559
0
LINE
8
Calque 1
10
459.716066
20
278.710559
11
461.676210
21
280.330780
0
LINE
8
Calque 1
10
461.676210
20
280.330780
11
463.652790
21
281.657587
0
LINE
8
Calque 1
10
463.652790
20
281.657587
11
464.222465
21
281.853392
0
LINE
8
Calque 1
10
464.222465
20
281.853392
11
464.721060
21
281.840600
0
LINE
8
Calque 1
10
464.721060
20
281.840600
11
466.985300
21
281.338060
0
LINE
8
Calque 1
10
466.985300
20
281.338060
11
468.232226
21
280.887280
0
LINE
8
Calque 1
10
468.232226
20
280.887280
11
469.036030
21
280.241500
0
LINE
8
Calque 1
10
469.036030
20
280.241500
11
469.699724
21
279.138573
0
LINE
8
Calque 1
10
469.699724
20
279.138573
11
470.459140
21
277.522420
0
LINE
8
Calque 1
10
470.459140
20
277.522420
11
471.126448
21
275.596621
0
LINE
8
Calque 1
10
471.126448
20
275.596621
11
471.137546
21
274.882412
0
LINE
8
Calque 1
10
471.137546
20
274.882412
11
470.990670
21
273.950550
0
LINE
8
Calque 1
10
470.990670
20
273.950550
11
469.639060
21
269.032720
0
LINE
8
Calque 1
10
469.639060
20
269.032720
11
468.728920
21
266.502341
0
LINE
8
Calque 1
10
468.728920
20
266.502341
11
468.046210
21
265.218890
0
LINE
8
Calque 1
10
468.046210
20
265.218890
11
467.501436
21
264.870766
0
LINE
8
Calque 1
10
467.501436
20
264.870766
11
466.916380
21
265.265990
0
LINE
8
Calque 1
10
466.916380
20
265.265990
11
465.998580
21
265.983200
0
LINE
8
Calque 1
10
465.998580
20
265.983200
11
465.618037
21
266.032340
0
LINE
8
Calque 1
10
465.618037
20
266.032340
11
465.159870
21
265.892300
0
LINE
8
Calque 1
10
465.159870
20
265.892300
11
464.709744
21
265.433080
0
LINE
8
Calque 1
10
464.709744
20
265.433080
11
464.348530
21
264.714870
0
LINE
8
Calque 1
10
464.348530
20
264.714870
11
464.214515
21
263.567506
0
LINE
8
Calque 1
10
464.214515
20
263.567506
11
464.606670
21
261.634450
0
LINE
8
Calque 1
10
464.606670
20
261.634450
11
465.162700
21
259.456670
0
LINE
8
Calque 1
10
465.162700
20
259.456670
11
463.891190
21
257.343700
0
LINE
8
Calque 1
10
463.891190
20
257.343700
11
461.619830
21
254.088940
0
LINE
8
Calque 1
10
461.619830
20
254.088940
11
460.654171
21
253.122155
0
LINE
8
Calque 1
10
460.654171
20
253.122155
11
459.736520
21
252.401130
0
LINE
8
Calque 1
10
459.736520
20
252.401130
11
458.729940
21
251.855120
0
LINE
8
Calque 1
10
458.729940
20
251.855120
11
458.417660
21
252.044280
0
LINE
8
Calque 1
10
458.417660
20
252.044280
11
458.417660
21
252.044260
0
LINE
8
Calque 1
10
460.713370
20
257.538550
11
460.492160
21
258.435700
0
LINE
8
Calque 1
10
460.492160
20
258.435700
11
460.225448
21
258.369665
0
LINE
8
Calque 1
10
460.225448
20
258.369665
11
459.818770
21
257.977350
0
LINE
8
Calque 1
10
459.818770
20
257.977350
11
459.312380
21
257.136850
0
LINE
8
Calque 1
10
459.312380
20
257.136850
11
459.775400
21
256.801630
0
LINE
8
Calque 1
10
459.775400
20
256.801630
11
460.503010
21
256.745030
0
LINE
8
Calque 1
10
460.503010
20
256.745030
11
460.673943
21
257.004010
0
LINE
8
Calque 1
10
460.673943
20
257.004010
11
460.713370
21
257.538600
0
LINE
8
Calque 1
10
460.713370
20
257.538600
11
460.713370
21
257.538550
0
LINE
8
Calque 1
10
463.471010
20
258.372820
11
463.414852
21
258.710311
0
LINE
8
Calque 1
10
463.414852
20
258.710311
11
463.141750
21
259.100430
0
LINE
8
Calque 1
10
463.141750
20
259.100430
11
462.648580
21
259.402409
0
LINE
8
Calque 1
10
462.648580
20
259.402409
11
462.063310
21
259.528010
0
LINE
8
Calque 1
10
462.063310
20
259.528010
11
461.558517
21
259.410439
0
LINE
8
Calque 1
10
461.558517
20
259.410439
11
461.258850
21
259.127770
0
LINE
8
Calque 1
10
461.258850
20
259.127770
11
461.249439
21
258.725535
0
LINE
8
Calque 1
10
461.249439
20
258.725535
11
461.443060
21
258.320510
0
LINE
8
Calque 1
10
461.443060
20
258.320510
11
461.907040
21
258.047548
0
LINE
8
Calque 1
10
461.907040
20
258.047548
11
462.576760
21
257.993150
0
LINE
8
Calque 1
10
462.576760
20
257.993150
11
463.167757
21
258.137531
0
LINE
8
Calque 1
10
463.167757
20
258.137531
11
463.471010
21
258.372820
0
LINE
8
Calque 1
10
463.471010
20
258.372820
11
463.471010
21
258.372820
0
LINE
8
Calque 1
10
459.989420
20
259.131310
11
460.350309
21
259.547485
0
LINE
8
Calque 1
10
460.350309
20
259.547485
11
459.862910
21
260.069890
0
LINE
8
Calque 1
10
459.862910
20
260.069890
11
459.249910
21
260.429230
0
LINE
8
Calque 1
10
459.249910
20
260.429230
11
458.674980
21
260.532730
0
LINE
8
Calque 1
10
458.674980
20
260.532730
11
458.259406
21
260.326850
0
LINE
8
Calque 1
10
458.259406
20
260.326850
11
458.029540
21
259.942380
0
LINE
8
Calque 1
10
458.029540
20
259.942380
11
458.100482
21
259.478714
0
LINE
8
Calque 1
10
458.100482
20
259.478714
11
458.408140
21
259.082480
0
LINE
8
Calque 1
10
458.408140
20
259.082480
11
459.180090
21
258.734260
0
LINE
8
Calque 1
10
459.180090
20
258.734260
11
459.989420
21
259.131310
0
LINE
8
Calque 1
10
459.989420
20
259.131310
11
459.989420
21
259.131310
0
LINE
8
Calque 1
10
464.074880
20
268.028020
11
463.803570
21
269.203000
0
LINE
8
Calque 1
10
463.803570
20
269.203000
11
463.496050
21
269.758992
0
LINE
8
Calque 1
10
463.496050
20
269.758992
11
462.982730
21
269.419290
0
LINE
8
Calque 1
10
462.982730
20
269.419290
11
462.063420
21
268.206880
0
LINE
8
Calque 1
10
462.063420
20
268.206880
11
461.693630
21
267.346360
0
LINE
8
Calque 1
10
461.693630
20
267.346360
11
462.077360
21
267.200930
0
LINE
8
Calque 1
10
462.077360
20
267.200930
11
462.427589
21
267.336943
0
LINE
8
Calque 1
10
462.427589
20
267.336943
11
462.730770
21
267.663950
0
LINE
8
Calque 1
10
462.730770
20
267.663950
11
462.958896
21
267.965862
0
LINE
8
Calque 1
10
462.958896
20
267.965862
11
463.008500
21
267.575750
0
LINE
8
Calque 1
10
463.008500
20
267.575750
11
463.207720
21
266.833350
0
LINE
8
Calque 1
10
463.207720
20
266.833350
11
463.442028
21
266.834105
0
LINE
8
Calque 1
10
463.442028
20
266.834105
11
463.736890
21
267.104410
0
LINE
8
Calque 1
10
463.736890
20
267.104410
11
464.074880
21
268.028010
0
LINE
8
Calque 1
10
464.074880
20
268.028010
11
464.074880
21
268.028020
0
LINE
8
Calque 1
10
467.364950
20
269.046460
11
467.880004
21
269.395526
0
LINE
8
Calque 1
10
467.880004
20
269.395526
11
468.043630
21
269.940110
0
LINE
8
Calque 1
10
468.043630
20
269.940110
11
467.938376
21
270.476361
0
LINE
8
Calque 1
10
467.938376
20
270.476361
11
467.685320
21
270.873090
0
LINE
8
Calque 1
10
467.685320
20
270.873090
11
467.107351
21
271.095845
0
LINE
8
Calque 1
10
467.107351
20
271.095845
11
466.220930
21
271.213810
0
LINE
8
Calque 1
10
466.220930
20
271.213810
11
465.351300
21
271.155935
0
LINE
8
Calque 1
10
465.351300
20
271.155935
11
464.813710
21
270.956010
0
LINE
8
Calque 1
10
464.813710
20
270.956010
11
464.646401
21
270.572446
0
LINE
8
Calque 1
10
464.646401
20
270.572446
11
464.820710
21
269.978500
0
LINE
8
Calque 1
10
464.820710
20
269.978500
11
465.213859
21
269.430294
0
LINE
8
Calque 1
10
465.213859
20
269.430294
11
465.726340
21
269.062050
0
LINE
8
Calque 1
10
465.726340
20
269.062050
11
466.505020
21
268.805200
0
LINE
8
Calque 1
10
466.505020
20
268.805200
11
467.364910
21
269.046460
0
LINE
8
Calque 1
10
467.364910
20
269.046460
11
467.364950
21
269.046460
0
LINE
8
Calque 1
10
462.363590
20
270.494720
11
463.011604
21
270.844137
0
LINE
8
Calque 1
10
463.011604
20
270.844137
11
463.281130
21
271.145870
0
LINE
8
Calque 1
10
463.281130
20
271.145870
11
462.716640
21
271.939550
0
LINE
8
Calque 1
10
462.716640
20
271.939550
11
461.402330
21
272.726850
0
LINE
8
Calque 1
10
461.402330
20
272.726850
11
460.688724
21
272.841304
0
LINE
8
Calque 1
10
460.688724
20
272.841304
11
460.081130
21
272.525550
0
LINE
8
Calque 1
10
460.081130
20
272.525550
11
459.681289
21
272.036240
0
LINE
8
Calque 1
10
459.681289
20
272.036240
11
459.693820
21
271.482910
0
LINE
8
Calque 1
10
459.693820
20
271.482910
11
460.032214
21
270.960162
0
LINE
8
Calque 1
10
460.032214
20
270.960162
11
460.587320
21
270.517740
0
LINE
8
Calque 1
10
460.587320
20
270.517740
11
461.371400
21
270.121940
0
LINE
8
Calque 1
10
461.371400
20
270.121940
11
462.363590
21
270.494720
0
LINE
8
Calque 1
10
462.363590
20
270.494720
11
462.363590
21
270.494720
 0 
ENDSEC
 0 
EOF