999
"DXF R12 Output" (www.mydxf.blogspot.com)
 0 
SECTION
 2 
HEADER
 9 
$ACADVER
 1 
AC1009
 9 
$EXTMIN
 10 
 0 
 20 
 0 
 9 
$EXTMAX
 10 
 8.5 
 20 
 11 
 0 
ENDSEC
 0 
SECTION
 2 
ENTITIES
0
LINE
8
Calque 1
10
380.277000
20
136.695000
11
376.077900
21
141.656000
0
LINE
8
Calque 1
10
376.077900
20
141.656000
11
372.740060
21
145.699800
0
LINE
8
Calque 1
10
372.740060
20
145.699800
11
372.339392
21
146.432613
0
LINE
8
Calque 1
10
372.339392
20
146.432613
11
372.399990
21
147.155000
0
LINE
8
Calque 1
10
372.399990
20
147.155000
11
375.785150
21
156.737200
0
LINE
8
Calque 1
10
375.785150
20
156.737200
11
378.203090
21
163.774788
0
LINE
8
Calque 1
10
378.203090
20
163.774788
11
378.655194
21
165.405986
0
LINE
8
Calque 1
10
378.655194
20
165.405986
11
378.696530
21
166.079800
0
LINE
8
Calque 1
10
378.696530
20
166.079800
11
378.358019
21
166.406013
0
LINE
8
Calque 1
10
378.358019
20
166.406013
11
377.870040
21
166.476700
0
LINE
8
Calque 1
10
377.870040
20
166.476700
11
377.256551
21
166.063725
0
LINE
8
Calque 1
10
377.256551
20
166.063725
11
376.565430
21
164.939300
0
LINE
8
Calque 1
10
376.565430
20
164.939300
11
373.063860
21
157.027900
0
LINE
8
Calque 1
10
373.063860
20
157.027900
11
369.862030
21
149.919200
0
LINE
8
Calque 1
10
369.862030
20
149.919200
11
369.434570
21
149.266900
0
LINE
8
Calque 1
10
369.434570
20
149.266900
11
367.986280
21
150.686900
0
LINE
8
Calque 1
10
367.986280
20
150.686900
11
366.290150
21
152.557800
0
LINE
8
Calque 1
10
366.290150
20
152.557800
11
366.234516
21
152.913873
0
LINE
8
Calque 1
10
366.234516
20
152.913873
11
366.346705
21
153.526588
0
LINE
8
Calque 1
10
366.346705
20
153.526588
11
367.130370
21
155.732800
0
LINE
8
Calque 1
10
367.130370
20
155.732800
11
370.185840
21
163.616400
0
LINE
8
Calque 1
10
370.185840
20
163.616400
11
372.440040
21
169.503600
0
LINE
8
Calque 1
10
372.440040
20
169.503600
11
372.592259
21
170.159112
0
LINE
8
Calque 1
10
372.592259
20
170.159112
11
372.397640
21
170.628100
0
LINE
8
Calque 1
10
372.397640
20
170.628100
11
372.031281
21
170.908187
0
LINE
8
Calque 1
10
372.031281
20
170.908187
11
371.612700
21
171.024700
0
LINE
8
Calque 1
10
371.612700
20
171.024700
11
371.169318
21
170.888712
0
LINE
8
Calque 1
10
371.169318
20
170.888712
11
370.743320
21
170.561700
0
LINE
8
Calque 1
10
370.743320
20
170.561700
11
367.848350
21
165.071600
0
LINE
8
Calque 1
10
367.848350
20
165.071600
11
364.257390
21
157.597100
0
LINE
8
Calque 1
10
364.257390
20
157.597100
11
363.268390
21
155.659400
0
LINE
8
Calque 1
10
363.268390
20
155.659400
11
362.926287
21
155.264356
0
LINE
8
Calque 1
10
362.926287
20
155.264356
11
362.617310
21
155.149700
0
LINE
8
Calque 1
10
362.617310
20
155.149700
11
361.910208
21
155.554488
0
LINE
8
Calque 1
10
361.910208
20
155.554488
11
360.892500
21
156.671100
0
LINE
8
Calque 1
10
360.892500
20
156.671100
11
360.048959
21
157.920063
0
LINE
8
Calque 1
10
360.048959
20
157.920063
11
359.698010
21
158.786600
0
LINE
8
Calque 1
10
359.698010
20
158.786600
11
360.791900
21
161.509388
0
LINE
8
Calque 1
10
360.791900
20
161.509388
11
363.422120
21
167.221300
0
LINE
8
Calque 1
10
363.422120
20
167.221300
11
366.187325
21
173.255550
0
LINE
8
Calque 1
10
366.187325
20
173.255550
11
366.837268
21
174.891691
0
LINE
8
Calque 1
10
366.837268
20
174.891691
11
367.005470
21
175.622900
0
LINE
8
Calque 1
10
367.005470
20
175.622900
11
365.487689
21
177.129887
0
LINE
8
Calque 1
10
365.487689
20
177.129887
11
361.825980
21
180.109500
0
LINE
8
Calque 1
10
361.825980
20
180.109500
11
358.045873
21
183.178650
0
LINE
8
Calque 1
10
358.045873
20
183.178650
11
357.101891
21
184.069444
0
LINE
8
Calque 1
10
357.101891
20
184.069444
11
356.787430
21
184.532100
0
LINE
8
Calque 1
10
356.787430
20
184.532100
11
358.474290
21
189.205720
0
LINE
8
Calque 1
10
358.474290
20
189.205720
11
365.514330
21
206.611220
0
LINE
8
Calque 1
10
365.514330
20
206.611220
11
373.456520
21
226.058120
0
LINE
8
Calque 1
10
373.456520
20
226.058120
11
379.418070
21
240.429920
0
LINE
8
Calque 1
10
379.418070
20
240.429920
11
382.194349
21
246.895489
0
LINE
8
Calque 1
10
382.194349
20
246.895489
11
382.957904
21
248.392697
0
LINE
8
Calque 1
10
382.957904
20
248.392697
11
383.432190
21
249.004390
0
LINE
8
Calque 1
10
383.432190
20
249.004390
11
384.050910
21
249.284343
0
LINE
8
Calque 1
10
384.050910
20
249.284343
11
384.564720
21
248.920090
0
LINE
8
Calque 1
10
384.564720
20
248.920090
11
385.502484
21
247.064757
0
LINE
8
Calque 1
10
385.502484
20
247.064757
11
387.067720
21
243.312750
0
LINE
8
Calque 1
10
387.067720
20
243.312750
11
391.564520
21
231.538750
0
LINE
8
Calque 1
10
391.564520
20
231.538750
11
396.694200
21
217.723650
0
LINE
8
Calque 1
10
396.694200
20
217.723650
11
401.635610
21
204.229950
0
LINE
8
Calque 1
10
401.635610
20
204.229950
11
406.156630
21
191.717150
0
LINE
8
Calque 1
10
406.156630
20
191.717150
11
408.381180
21
185.085940
0
LINE
8
Calque 1
10
408.381180
20
185.085940
11
408.167446
21
184.556577
0
LINE
8
Calque 1
10
408.167446
20
184.556577
11
407.653570
21
183.941640
0
LINE
8
Calque 1
10
407.653570
20
183.941640
11
402.229610
21
179.758540
0
LINE
8
Calque 1
10
402.229610
20
179.758540
11
398.590794
21
176.917790
0
LINE
8
Calque 1
10
398.590794
20
176.917790
11
397.783074
21
176.145237
0
LINE
8
Calque 1
10
397.783074
20
176.145237
11
397.533260
21
175.703940
0
LINE
8
Calque 1
10
397.533260
20
175.703940
11
398.072860
21
174.108128
0
LINE
8
Calque 1
10
398.072860
20
174.108128
11
399.370200
21
171.040140
0
LINE
8
Calque 1
10
399.370200
20
171.040140
11
402.942070
21
163.224540
0
LINE
8
Calque 1
10
402.942070
20
163.224540
11
404.167373
21
160.442665
0
LINE
8
Calque 1
10
404.167373
20
160.442665
11
404.677010
21
158.948840
0
LINE
8
Calque 1
10
404.677010
20
158.948840
11
404.379036
21
158.165490
0
LINE
8
Calque 1
10
404.379036
20
158.165490
11
403.662630
21
157.091740
0
LINE
8
Calque 1
10
403.662630
20
157.091740
11
402.210790
21
155.450940
0
LINE
8
Calque 1
10
402.210790
20
155.450940
11
401.800726
21
155.235240
0
LINE
8
Calque 1
10
401.800726
20
155.235240
11
401.429130
21
155.222640
0
LINE
8
Calque 1
10
401.429130
20
155.222640
11
400.231929
21
157.413115
0
LINE
8
Calque 1
10
400.231929
20
157.413115
11
397.836910
21
162.493640
0
LINE
8
Calque 1
10
397.836910
20
162.493640
11
394.194000
21
170.196340
0
LINE
8
Calque 1
10
394.194000
20
170.196340
11
393.761620
21
170.594527
0
LINE
8
Calque 1
10
393.761620
20
170.594527
11
393.276620
21
170.760140
0
LINE
8
Calque 1
10
393.276620
20
170.760140
11
392.860991
21
170.638640
0
LINE
8
Calque 1
10
392.860991
20
170.638640
11
392.595400
21
170.346440
0
LINE
8
Calque 1
10
392.595400
20
170.346440
11
392.602569
21
169.690077
0
LINE
8
Calque 1
10
392.602569
20
169.690077
11
392.842650
21
168.692840
0
LINE
8
Calque 1
10
392.842650
20
168.692840
11
395.655540
21
160.587140
0
LINE
8
Calque 1
10
395.655540
20
160.587140
11
398.062430
21
153.296440
0
LINE
8
Calque 1
10
398.062430
20
153.296440
11
397.629430
21
152.471390
0
LINE
8
Calque 1
10
397.629430
20
152.471390
11
396.588390
21
151.084440
0
LINE
8
Calque 1
10
396.588390
20
151.084440
11
395.458930
21
149.851802
0
LINE
8
Calque 1
10
395.458930
20
149.851802
11
394.813340
21
149.397740
0
LINE
8
Calque 1
10
394.813340
20
149.397740
11
394.073300
21
150.745527
0
LINE
8
Calque 1
10
394.073300
20
150.745527
11
392.716760
21
153.845240
0
LINE
8
Calque 1
10
392.716760
20
153.845240
11
389.266300
21
162.120740
0
LINE
8
Calque 1
10
389.266300
20
162.120740
11
387.944586
21
165.005177
0
LINE
8
Calque 1
10
387.944586
20
165.005177
11
387.127690
21
166.308240
0
LINE
8
Calque 1
10
387.127690
20
166.308240
11
386.675570
21
166.449027
0
LINE
8
Calque 1
10
386.675570
20
166.449027
11
386.267790
21
166.423240
0
LINE
8
Calque 1
10
386.267790
20
166.423240
11
386.002099
21
166.161927
0
LINE
8
Calque 1
10
386.002099
20
166.161927
11
385.891590
21
165.735840
0
LINE
8
Calque 1
10
385.891590
20
165.735840
11
387.242490
21
161.163440
0
LINE
8
Calque 1
10
387.242490
20
161.163440
11
390.440150
21
151.881740
0
LINE
8
Calque 1
10
390.440150
20
151.881740
11
392.286910
21
146.629240
0
LINE
8
Calque 1
10
392.286910
20
146.629240
11
391.513750
21
145.664040
0
LINE
8
Calque 1
10
391.513750
20
145.664040
11
387.220190
21
140.200840
0
LINE
8
Calque 1
10
387.220190
20
140.200840
11
383.289910
21
135.372140
0
LINE
8
Calque 1
10
383.289910
20
135.372140
11
382.827559
21
135.138577
0
LINE
8
Calque 1
10
382.827559
20
135.138577
11
382.291520
21
135.041440
0
LINE
8
Calque 1
10
382.291520
20
135.041440
11
381.494209
21
135.453715
0
LINE
8
Calque 1
10
381.494209
20
135.453715
11
380.277010
21
136.695040
0
LINE
8
Calque 1
10
380.277010
20
136.695040
11
380.277000
21
136.695000
0
LINE
8
Calque 1
10
338.531200
20
136.359700
11
334.756700
21
137.026200
0
LINE
8
Calque 1
10
334.756700
20
137.026200
11
334.085663
21
137.357375
0
LINE
8
Calque 1
10
334.085663
20
137.357375
11
333.499930
21
137.884900
0
LINE
8
Calque 1
10
333.499930
20
137.884900
11
333.113808
21
138.662350
0
LINE
8
Calque 1
10
333.113808
20
138.662350
11
332.981800
21
139.641100
0
LINE
8
Calque 1
10
332.981800
20
139.641100
11
333.141311
21
140.468883
0
LINE
8
Calque 1
10
333.141311
20
140.468883
11
333.744416
21
141.847438
0
LINE
8
Calque 1
10
333.744416
20
141.847438
11
337.082840
21
147.863100
0
LINE
8
Calque 1
10
337.082840
20
147.863100
11
339.974364
21
153.069325
0
LINE
8
Calque 1
10
339.974364
20
153.069325
11
341.177030
21
155.569700
0
LINE
8
Calque 1
10
341.177030
20
155.569700
11
341.060405
21
156.071575
0
LINE
8
Calque 1
10
341.060405
20
156.071575
11
340.780010
21
156.472800
0
LINE
8
Calque 1
10
340.780010
20
156.472800
11
340.169341
21
156.742388
0
LINE
8
Calque 1
10
340.169341
20
156.742388
11
339.258650
21
156.927900
0
LINE
8
Calque 1
10
339.258650
20
156.927900
11
338.205904
21
156.949063
0
LINE
8
Calque 1
10
338.205904
20
156.949063
11
337.253680
21
156.824200
0
LINE
8
Calque 1
10
337.253680
20
156.824200
11
336.740594
21
156.602658
0
LINE
8
Calque 1
10
336.740594
20
156.602658
11
336.196453
21
156.143863
0
LINE
8
Calque 1
10
336.196453
20
156.143863
11
334.599930
21
154.086300
0
LINE
8
Calque 1
10
334.599930
20
154.086300
11
333.277865
21
152.314700
0
LINE
8
Calque 1
10
333.277865
20
152.314700
11
332.589190
21
151.577800
0
LINE
8
Calque 1
10
332.589190
20
151.577800
11
332.358819
21
151.810975
0
LINE
8
Calque 1
10
332.358819
20
151.810975
11
332.138640
21
152.371600
0
LINE
8
Calque 1
10
332.138640
20
152.371600
11
331.245800
21
157.864500
0
LINE
8
Calque 1
10
331.245800
20
157.864500
11
330.813135
21
161.260138
0
LINE
8
Calque 1
10
330.813135
20
161.260138
11
330.727690
21
162.825400
0
LINE
8
Calque 1
10
330.727690
20
162.825400
11
332.687080
21
163.016975
0
LINE
8
Calque 1
10
332.687080
20
163.016975
11
337.753060
21
163.087200
0
LINE
8
Calque 1
10
337.753060
20
163.087200
11
343.643250
21
163.162975
0
LINE
8
Calque 1
10
343.643250
20
163.162975
11
344.662135
21
163.311722
0
LINE
8
Calque 1
10
344.662135
20
163.311722
11
345.111830
21
163.582400
0
LINE
8
Calque 1
10
345.111830
20
163.582400
11
347.063370
21
166.691300
0
LINE
8
Calque 1
10
347.063370
20
166.691300
11
351.366110
21
174.728900
0
LINE
8
Calque 1
10
351.366110
20
174.728900
11
354.434470
21
180.397000
0
LINE
8
Calque 1
10
354.434470
20
180.397000
11
354.796421
21
180.483800
0
LINE
8
Calque 1
10
354.796421
20
180.483800
11
355.391210
21
180.309000
0
LINE
8
Calque 1
10
355.391210
20
180.309000
11
359.087810
21
177.853000
0
LINE
8
Calque 1
10
359.087810
20
177.853000
11
362.492550
21
175.240100
0
LINE
8
Calque 1
10
362.492550
20
175.240100
11
362.718257
21
174.934622
0
LINE
8
Calque 1
10
362.718257
20
174.934622
11
362.750348
21
174.609700
0
LINE
8
Calque 1
10
362.750348
20
174.609700
11
362.117670
21
173.301600
0
LINE
8
Calque 1
10
362.117670
20
173.301600
11
359.128980
21
168.462200
0
LINE
8
Calque 1
10
359.128980
20
168.462200
11
355.682140
21
162.979100
0
LINE
8
Calque 1
10
355.682140
20
162.979100
11
354.762136
21
161.255688
0
LINE
8
Calque 1
10
354.762136
20
161.255688
11
354.406200
21
160.117500
0
LINE
8
Calque 1
10
354.406200
20
160.117500
11
354.714130
21
158.770700
0
LINE
8
Calque 1
10
354.714130
20
158.770700
11
356.701870
21
155.901900
0
LINE
8
Calque 1
10
356.701870
20
155.901900
11
358.779670
21
152.658500
0
LINE
8
Calque 1
10
358.779670
20
152.658500
11
359.013996
21
151.799488
0
LINE
8
Calque 1
10
359.013996
20
151.799488
11
359.018500
21
151.071800
0
LINE
8
Calque 1
10
359.018500
20
151.071800
11
358.737809
21
150.473138
0
LINE
8
Calque 1
10
358.737809
20
150.473138
11
358.286410
21
149.924200
0
LINE
8
Calque 1
10
358.286410
20
149.924200
11
352.884920
21
146.150800
0
LINE
8
Calque 1
10
352.884920
20
146.150800
11
349.424944
21
143.898237
0
LINE
8
Calque 1
10
349.424944
20
143.898237
11
347.886820
21
143.060400
0
LINE
8
Calque 1
10
347.886820
20
143.060400
11
348.088905
21
144.084250
0
LINE
8
Calque 1
10
348.088905
20
144.084250
11
348.812780
21
146.308100
0
LINE
8
Calque 1
10
348.812780
20
146.308100
11
349.586479
21
148.710363
0
LINE
8
Calque 1
10
349.586479
20
148.710363
11
349.908280
21
150.163500
0
LINE
8
Calque 1
10
349.908280
20
150.163500
11
349.731600
21
150.905950
0
LINE
8
Calque 1
10
349.731600
20
150.905950
11
349.258850
21
151.590200
0
LINE
8
Calque 1
10
349.258850
20
151.590200
11
348.613842
21
152.048850
0
LINE
8
Calque 1
10
348.613842
20
152.048850
11
347.975060
21
152.239600
0
LINE
8
Calque 1
10
347.975060
20
152.239600
11
347.271004
21
152.064725
0
LINE
8
Calque 1
10
347.271004
20
152.064725
11
346.469080
21
151.644300
0
LINE
8
Calque 1
10
346.469080
20
151.644300
11
345.084885
21
150.019700
0
LINE
8
Calque 1
10
345.084885
20
150.019700
11
342.725780
21
146.437300
0
LINE
8
Calque 1
10
342.725780
20
146.437300
11
340.697662
21
142.997513
0
LINE
8
Calque 1
10
340.697662
20
142.997513
11
339.854110
21
141.203300
0
LINE
8
Calque 1
10
339.854110
20
141.203300
11
340.221220
21
139.729500
0
LINE
8
Calque 1
10
340.221220
20
139.729500
11
340.877847
21
138.742563
0
LINE
8
Calque 1
10
340.877847
20
138.742563
11
341.941020
21
137.565200
0
LINE
8
Calque 1
10
341.941020
20
137.565200
11
343.293700
21
136.043800
0
LINE
8
Calque 1
10
343.293700
20
136.043800
11
343.041103
21
135.903875
0
LINE
8
Calque 1
10
343.041103
20
135.903875
11
342.433800
21
135.860100
0
LINE
8
Calque 1
10
342.433800
20
135.860100
11
338.531200
21
136.360000
0
LINE
8
Calque 1
10
338.531200
20
136.360000
11
338.531200
21
136.359700
0
LINE
8
Calque 1
10
420.816600
20
136.274700
11
422.252300
21
137.954400
0
LINE
8
Calque 1
10
422.252300
20
137.954400
11
423.375759
21
139.319062
0
LINE
8
Calque 1
10
423.375759
20
139.319062
11
423.864020
21
140.397900
0
LINE
8
Calque 1
10
423.864020
20
140.397900
11
423.903127
21
141.250862
0
LINE
8
Calque 1
10
423.903127
20
141.250862
11
423.710320
21
141.959300
0
LINE
8
Calque 1
10
423.710320
20
141.959300
11
420.622990
21
147.144300
0
LINE
8
Calque 1
10
420.622990
20
147.144300
11
418.199475
21
150.952125
0
LINE
8
Calque 1
10
418.199475
20
150.952125
11
417.558709
21
151.661934
0
LINE
8
Calque 1
10
417.558709
20
151.661934
11
417.025880
21
151.939200
0
LINE
8
Calque 1
10
417.025880
20
151.939200
11
416.196722
21
152.024225
0
LINE
8
Calque 1
10
416.196722
20
152.024225
11
415.394100
21
151.729000
0
LINE
8
Calque 1
10
415.394100
20
151.729000
11
414.762172
21
151.210213
0
LINE
8
Calque 1
10
414.762172
20
151.210213
11
414.355440
21
150.585300
0
LINE
8
Calque 1
10
414.355440
20
150.585300
11
414.284456
21
150.092623
0
LINE
8
Calque 1
10
414.284456
20
150.092623
11
414.386950
21
149.353038
0
LINE
8
Calque 1
10
414.386950
20
149.353038
11
415.240880
21
146.547200
0
LINE
8
Calque 1
10
415.240880
20
146.547200
11
415.991891
21
144.141800
0
LINE
8
Calque 1
10
415.991891
20
144.141800
11
416.208190
21
143.045300
0
LINE
8
Calque 1
10
416.208190
20
143.045300
11
414.599274
21
143.943075
0
LINE
8
Calque 1
10
414.599274
20
143.943075
11
410.962050
21
146.333200
0
LINE
8
Calque 1
10
410.962050
20
146.333200
11
407.226424
21
148.968025
0
LINE
8
Calque 1
10
407.226424
20
148.968025
11
405.380940
21
150.454600
0
LINE
8
Calque 1
10
405.380940
20
150.454600
11
405.021073
21
151.182838
0
LINE
8
Calque 1
10
405.021073
20
151.182838
11
405.211870
21
152.144700
0
LINE
8
Calque 1
10
405.211870
20
152.144700
11
406.095339
21
153.746900
0
LINE
8
Calque 1
10
406.095339
20
153.746900
11
407.755470
21
156.165100
0
LINE
8
Calque 1
10
407.755470
20
156.165100
11
409.368285
21
158.525788
0
LINE
8
Calque 1
10
409.368285
20
158.525788
11
409.968690
21
159.809700
0
LINE
8
Calque 1
10
409.968690
20
159.809700
11
409.704942
21
160.789250
0
LINE
8
Calque 1
10
409.704942
20
160.789250
11
409.070830
21
162.238000
0
LINE
8
Calque 1
10
409.070830
20
162.238000
11
405.102080
21
169.034800
0
LINE
8
Calque 1
10
405.102080
20
169.034800
11
402.933264
21
172.736312
0
LINE
8
Calque 1
10
402.933264
20
172.736312
11
402.031190
21
174.595000
0
LINE
8
Calque 1
10
402.031190
20
174.595000
11
402.230122
21
174.988266
0
LINE
8
Calque 1
10
402.230122
20
174.988266
11
402.881746
21
175.604675
0
LINE
8
Calque 1
10
402.881746
20
175.604675
11
405.872030
21
177.779700
0
LINE
8
Calque 1
10
405.872030
20
177.779700
11
408.719345
21
179.642925
0
LINE
8
Calque 1
10
408.719345
20
179.642925
11
410.171510
21
180.417900
0
LINE
8
Calque 1
10
410.171510
20
180.417900
11
410.582936
21
180.025647
0
LINE
8
Calque 1
10
410.582936
20
180.025647
11
411.364438
21
178.761950
0
LINE
8
Calque 1
10
411.364438
20
178.761950
11
414.334310
21
173.098600
0
LINE
8
Calque 1
10
414.334310
20
173.098600
11
418.702090
21
164.764200
0
LINE
8
Calque 1
10
418.702090
20
164.764200
11
419.365690
21
163.749200
0
LINE
8
Calque 1
10
419.365690
20
163.749200
11
426.507290
21
163.616900
0
LINE
8
Calque 1
10
426.507290
20
163.616900
11
433.648900
21
163.484600
0
LINE
8
Calque 1
10
433.648900
20
163.484600
11
433.572400
21
162.823100
0
LINE
8
Calque 1
10
433.572400
20
162.823100
11
432.595400
21
156.907200
0
LINE
8
Calque 1
10
432.595400
20
156.907200
11
431.553790
21
151.511700
0
LINE
8
Calque 1
10
431.553790
20
151.511700
11
431.008270
21
151.706300
0
LINE
8
Calque 1
10
431.008270
20
151.706300
11
429.099010
21
154.415700
0
LINE
8
Calque 1
10
429.099010
20
154.415700
11
427.837521
21
156.197075
0
LINE
8
Calque 1
10
427.837521
20
156.197075
11
426.966310
21
157.028200
0
LINE
8
Calque 1
10
426.966310
20
157.028200
11
425.356170
21
157.266900
0
LINE
8
Calque 1
10
425.356170
20
157.266900
11
424.489726
21
157.145888
0
LINE
8
Calque 1
10
424.489726
20
157.145888
11
423.785890
21
156.855000
0
LINE
8
Calque 1
10
423.785890
20
156.855000
11
423.370587
21
156.399813
0
LINE
8
Calque 1
10
423.370587
20
156.399813
11
423.197850
21
155.883800
0
LINE
8
Calque 1
10
423.197850
20
155.883800
11
423.869426
21
154.239113
0
LINE
8
Calque 1
10
423.869426
20
154.239113
11
425.484060
21
151.070200
0
LINE
8
Calque 1
10
425.484060
20
151.070200
11
429.617810
21
143.566200
0
LINE
8
Calque 1
10
429.617810
20
143.566200
11
431.465370
21
140.316600
0
LINE
8
Calque 1
10
431.465370
20
140.316600
11
431.011740
21
139.128800
0
LINE
8
Calque 1
10
431.011740
20
139.128800
11
430.489027
21
138.157588
0
LINE
8
Calque 1
10
430.489027
20
138.157588
11
429.843420
21
137.571500
0
LINE
8
Calque 1
10
429.843420
20
137.571500
11
428.262255
21
137.148638
0
LINE
8
Calque 1
10
428.262255
20
137.148638
11
425.464350
21
136.651000
0
LINE
8
Calque 1
10
425.464350
20
136.651000
11
421.308280
21
136.100200
0
LINE
8
Calque 1
10
421.308280
20
136.100200
11
420.816600
21
136.274700
0
LINE
8
Calque 1
10
420.816600
20
136.274700
11
420.816600
21
136.274700
0
LINE
8
Calque 1
10
296.859600
20
182.672300
11
290.725590
21
183.339900
0
LINE
8
Calque 1
10
290.725590
20
183.339900
11
285.845850
21
184.010500
0
LINE
8
Calque 1
10
285.845850
20
184.010500
11
285.645516
21
184.316313
0
LINE
8
Calque 1
10
285.645516
20
184.316313
11
285.828650
21
184.910200
0
LINE
8
Calque 1
10
285.828650
20
184.910200
11
297.521450
21
204.612600
0
LINE
8
Calque 1
10
297.521450
20
204.612600
11
305.556250
21
218.191675
0
LINE
8
Calque 1
10
305.556250
20
218.191675
11
308.898150
21
224.146100
0
LINE
8
Calque 1
10
308.898150
20
224.146100
11
308.785846
21
224.609880
0
LINE
8
Calque 1
10
308.785846
20
224.609880
11
308.515840
21
224.988100
0
LINE
8
Calque 1
10
308.515840
20
224.988100
11
308.090811
21
225.186788
0
LINE
8
Calque 1
10
308.090811
20
225.186788
11
307.605790
21
225.218930
0
LINE
8
Calque 1
10
307.605790
20
225.218930
11
305.805255
21
223.425791
0
LINE
8
Calque 1
10
305.805255
20
223.425791
11
301.968830
21
218.902690
0
LINE
8
Calque 1
10
301.968830
20
218.902690
11
286.772130
21
200.381890
0
LINE
8
Calque 1
10
286.772130
20
200.381890
11
276.177730
21
187.636690
0
LINE
8
Calque 1
10
276.177730
20
187.636690
11
275.811152
21
187.429838
0
LINE
8
Calque 1
10
275.811152
20
187.429838
11
275.203135
21
187.556726
0
LINE
8
Calque 1
10
275.203135
20
187.556726
11
271.845460
21
189.383180
0
LINE
8
Calque 1
10
271.845460
20
189.383180
11
265.179230
21
193.230430
0
LINE
8
Calque 1
10
265.179230
20
193.230430
11
262.166930
21
195.154520
0
LINE
8
Calque 1
10
262.166930
20
195.154520
11
264.834860
21
198.122923
0
LINE
8
Calque 1
10
264.834860
20
198.122923
11
271.490030
21
204.870080
0
LINE
8
Calque 1
10
271.490030
20
204.870080
11
290.708030
21
223.830480
0
LINE
8
Calque 1
10
290.708030
20
223.830480
11
298.858294
21
231.948801
0
LINE
8
Calque 1
10
298.858294
20
231.948801
11
300.145386
21
233.463927
0
LINE
8
Calque 1
10
300.145386
20
233.463927
11
300.431470
21
234.197480
0
LINE
8
Calque 1
10
300.431470
20
234.197480
11
300.275315
21
234.954574
0
LINE
8
Calque 1
10
300.275315
20
234.954574
11
299.737020
21
235.497220
0
LINE
8
Calque 1
10
299.737020
20
235.497220
11
299.036712
21
235.816869
0
LINE
8
Calque 1
10
299.036712
20
235.816869
11
298.310260
21
235.531920
0
LINE
8
Calque 1
10
298.310260
20
235.531920
11
282.402060
21
223.711820
0
LINE
8
Calque 1
10
282.402060
20
223.711820
11
259.729460
21
206.623520
0
LINE
8
Calque 1
10
259.729460
20
206.623520
11
252.232760
21
200.935030
0
LINE
8
Calque 1
10
252.232760
20
200.935030
11
251.262800
21
201.441250
0
LINE
8
Calque 1
10
251.262800
20
201.441250
11
243.664130
21
206.528520
0
LINE
8
Calque 1
10
243.664130
20
206.528520
11
236.279010
21
211.666760
0
LINE
8
Calque 1
10
236.279010
20
211.666760
11
235.763974
21
212.182642
0
LINE
8
Calque 1
10
235.763974
20
212.182642
11
235.676610
21
212.625340
0
LINE
8
Calque 1
10
235.676610
20
212.625340
11
237.598635
21
213.841635
0
LINE
8
Calque 1
10
237.598635
20
213.841635
11
242.003400
21
216.202280
0
LINE
8
Calque 1
10
242.003400
20
216.202280
11
257.833500
21
224.349920
0
LINE
8
Calque 1
10
257.833500
20
224.349920
11
273.311600
21
232.320960
0
LINE
8
Calque 1
10
273.311600
20
232.320960
11
287.302500
21
239.486610
0
LINE
8
Calque 1
10
287.302500
20
239.486610
11
293.311465
21
242.658929
0
LINE
8
Calque 1
10
293.311465
20
242.658929
11
295.859150
21
244.238570
0
LINE
8
Calque 1
10
295.859150
20
244.238570
11
296.109521
21
244.887939
0
LINE
8
Calque 1
10
296.109521
20
244.887939
11
295.946050
21
245.732030
0
LINE
8
Calque 1
10
295.946050
20
245.732030
11
295.581692
21
246.422419
0
LINE
8
Calque 1
10
295.581692
20
246.422419
11
295.118110
21
246.778360
0
LINE
8
Calque 1
10
295.118110
20
246.778360
11
293.212174
21
246.309844
0
LINE
8
Calque 1
10
293.212174
20
246.309844
11
289.242440
21
244.932560
0
LINE
8
Calque 1
10
289.242440
20
244.932560
11
278.471040
21
241.006340
0
LINE
8
Calque 1
10
278.471040
20
241.006340
11
268.020040
21
237.219920
0
LINE
8
Calque 1
10
268.020040
20
237.219920
11
245.133540
21
228.763210
0
LINE
8
Calque 1
10
245.133540
20
228.763210
11
225.226240
21
221.425370
0
LINE
8
Calque 1
10
225.226240
20
221.425370
11
223.178320
21
220.700090
0
LINE
8
Calque 1
10
223.178320
20
220.700090
11
222.315820
21
221.364640
0
LINE
8
Calque 1
10
222.315820
20
221.364640
11
214.574160
21
228.040400
0
LINE
8
Calque 1
10
214.574160
20
228.040400
11
207.199740
21
234.526420
0
LINE
8
Calque 1
10
207.199740
20
234.526420
11
206.836777
21
234.973214
0
LINE
8
Calque 1
10
206.836777
20
234.973214
11
207.199740
21
235.266220
0
LINE
8
Calque 1
10
207.199740
20
235.266220
11
220.791840
21
238.839240
0
LINE
8
Calque 1
10
220.791840
20
238.839240
11
241.164740
21
244.056910
0
LINE
8
Calque 1
10
241.164740
20
244.056910
11
259.817840
21
248.958360
0
LINE
8
Calque 1
10
259.817840
20
248.958360
11
273.708440
21
252.613560
0
LINE
8
Calque 1
10
273.708440
20
252.613560
11
285.482440
21
255.693370
0
LINE
8
Calque 1
10
285.482440
20
255.693370
11
295.398160
21
258.422800
0
LINE
8
Calque 1
10
295.398160
20
258.422800
11
295.936496
21
258.858633
0
LINE
8
Calque 1
10
295.936496
20
258.858633
11
296.310590
21
259.466950
0
LINE
8
Calque 1
10
296.310590
20
259.466950
11
296.423332
21
260.140315
0
LINE
8
Calque 1
10
296.423332
20
260.140315
11
296.119030
21
260.646790
0
LINE
8
Calque 1
10
296.119030
20
260.646790
11
295.710375
21
260.868243
0
LINE
8
Calque 1
10
295.710375
20
260.868243
11
294.751509
21
260.865975
0
LINE
8
Calque 1
10
294.751509
20
260.865975
11
288.988890
21
259.987340
0
LINE
8
Calque 1
10
288.988890
20
259.987340
11
276.354290
21
257.814260
0
LINE
8
Calque 1
10
276.354290
20
257.814260
11
255.319890
21
254.083720
0
LINE
8
Calque 1
10
255.319890
20
254.083720
11
234.285490
21
250.370820
0
LINE
8
Calque 1
10
234.285490
20
250.370820
11
218.807390
21
247.601980
0
LINE
8
Calque 1
10
218.807390
20
247.601980
11
203.031490
21
244.700730
0
LINE
8
Calque 1
10
203.031490
20
244.700730
11
196.191200
21
243.521030
0
LINE
8
Calque 1
10
196.191200
20
243.521030
11
195.406115
21
243.852634
0
LINE
8
Calque 1
10
195.406115
20
243.852634
11
194.346230
21
244.649890
0
LINE
8
Calque 1
10
194.346230
20
244.649890
11
188.618820
21
250.008650
0
LINE
8
Calque 1
10
188.618820
20
250.008650
11
182.049720
21
256.153190
0
LINE
8
Calque 1
10
182.049720
20
256.153190
11
180.076980
21
258.192360
0
LINE
8
Calque 1
10
180.076980
20
258.192360
11
183.232560
21
258.592220
0
LINE
8
Calque 1
10
183.232560
20
258.592220
11
197.508460
21
259.794680
0
LINE
8
Calque 1
10
197.508460
20
259.794680
11
211.795960
21
260.977450
0
LINE
8
Calque 1
10
211.795960
20
260.977450
11
216.823040
21
261.379940
0
LINE
8
Calque 1
10
216.823040
20
261.379940
11
221.717830
21
261.777970
0
LINE
8
Calque 1
10
221.717830
20
261.777970
11
232.168830
21
262.695710
0
LINE
8
Calque 1
10
232.168830
20
262.695710
11
247.514630
21
264.018780
0
LINE
8
Calque 1
10
247.514630
20
264.018780
11
267.358430
21
265.731680
0
LINE
8
Calque 1
10
267.358430
20
265.731680
11
282.175130
21
267.064590
0
LINE
8
Calque 1
10
282.175130
20
267.064590
11
291.244790
21
267.869050
0
LINE
8
Calque 1
10
291.244790
20
267.869050
11
295.871807
21
268.337830
0
LINE
8
Calque 1
10
295.871807
20
268.337830
11
298.053090
21
268.719700
0
LINE
8
Calque 1
10
298.053090
20
268.719700
11
298.497154
21
269.174551
0
LINE
8
Calque 1
10
298.497154
20
269.174551
11
298.839150
21
269.814960
0
LINE
8
Calque 1
10
298.839150
20
269.814960
11
299.108460
21
271.067870
0
LINE
8
Calque 1
10
299.108460
20
271.067870
11
298.948184
21
271.492914
0
LINE
8
Calque 1
10
298.948184
20
271.492914
11
298.562840
21
271.840250
0
LINE
8
Calque 1
10
298.562840
20
271.840250
11
296.655450
21
272.001773
0
LINE
8
Calque 1
10
296.655450
20
272.001773
11
291.485230
21
271.850650
0
LINE
8
Calque 1
10
291.485230
20
271.850650
11
277.941830
21
271.305280
0
LINE
8
Calque 1
10
277.941830
20
271.305280
11
267.226230
21
270.899020
0
LINE
8
Calque 1
10
267.226230
20
270.899020
11
248.043930
21
270.108460
0
LINE
8
Calque 1
10
248.043930
20
270.108460
11
229.787730
21
269.321590
0
LINE
8
Calque 1
10
229.787730
20
269.321590
11
220.659610
21
268.911980
0
LINE
8
Calque 1
10
220.659610
20
268.911980
11
200.683610
21
267.983860
0
LINE
8
Calque 1
10
200.683610
20
267.983860
11
179.704710
21
266.925660
0
LINE
8
Calque 1
10
179.704710
20
266.925660
11
173.694269
21
266.668899
0
LINE
8
Calque 1
10
173.694269
20
266.668899
11
172.425604
21
266.710905
0
LINE
8
Calque 1
10
172.425604
20
266.710905
11
171.884300
21
266.863060
0
LINE
8
Calque 1
10
171.884300
20
266.863060
11
166.344790
21
272.625250
0
LINE
8
Calque 1
10
166.344790
20
272.625250
11
161.272790
21
278.049200
0
LINE
8
Calque 1
10
161.272790
20
278.049200
11
161.266790
21
280.364310
0
LINE
8
Calque 1
10
161.266790
20
280.364310
11
161.260790
21
282.679410
0
LINE
8
Calque 1
10
161.260790
20
282.679410
11
164.634230
21
282.676410
0
LINE
8
Calque 1
10
164.634230
20
282.676410
11
191.555530
21
282.949170
0
LINE
8
Calque 1
10
191.555530
20
282.949170
11
253.335730
21
283.749810
0
LINE
8
Calque 1
10
253.335730
20
283.749810
11
310.245130
21
284.446110
0
LINE
8
Calque 1
10
310.245130
20
284.446110
11
325.561505
21
284.518667
0
LINE
8
Calque 1
10
325.561505
20
284.518667
11
328.340980
21
284.431195
0
LINE
8
Calque 1
10
328.340980
20
284.431195
11
329.150430
21
284.247770
0
LINE
8
Calque 1
10
329.150430
20
284.247770
11
329.487680
21
281.598720
0
LINE
8
Calque 1
10
329.487680
20
281.598720
11
329.596670
21
279.319000
0
LINE
8
Calque 1
10
329.596670
20
279.319000
11
327.780280
21
278.310250
0
LINE
8
Calque 1
10
327.780280
20
278.310250
11
324.376380
21
276.245010
0
LINE
8
Calque 1
10
324.376380
20
276.245010
11
322.257377
21
274.519969
0
LINE
8
Calque 1
10
322.257377
20
274.519969
11
319.392020
21
271.856130
0
LINE
8
Calque 1
10
319.392020
20
271.856130
11
316.529672
21
268.929748
0
LINE
8
Calque 1
10
316.529672
20
268.929748
11
314.417910
21
266.573470
0
LINE
8
Calque 1
10
314.417910
20
266.573470
11
313.005566
21
264.602559
0
LINE
8
Calque 1
10
313.005566
20
264.602559
11
311.824800
21
262.602720
0
LINE
8
Calque 1
10
311.824800
20
262.602720
11
310.385330
21
259.155850
0
LINE
8
Calque 1
10
310.385330
20
259.155850
11
310.040612
21
257.441079
0
LINE
8
Calque 1
10
310.040612
20
257.441079
11
309.806670
21
255.321390
0
LINE
8
Calque 1
10
309.806670
20
255.321390
11
309.788950
21
252.952229
0
LINE
8
Calque 1
10
309.788950
20
252.952229
11
310.058510
21
250.664390
0
LINE
8
Calque 1
10
310.058510
20
250.664390
11
310.635066
21
248.436322
0
LINE
8
Calque 1
10
310.635066
20
248.436322
11
311.538840
21
246.248560
0
LINE
8
Calque 1
10
311.538840
20
246.248560
11
312.695912
21
244.281661
0
LINE
8
Calque 1
10
312.695912
20
244.281661
11
313.970480
21
242.595570
0
LINE
8
Calque 1
10
313.970480
20
242.595570
11
315.248225
21
241.328832
0
LINE
8
Calque 1
10
315.248225
20
241.328832
11
316.412960
21
240.370150
0
LINE
8
Calque 1
10
316.412960
20
240.370150
11
318.687840
21
238.972790
0
LINE
8
Calque 1
10
318.687840
20
238.972790
11
321.465960
21
237.770720
0
LINE
8
Calque 1
10
321.465960
20
237.770720
11
324.640960
21
236.881150
0
LINE
8
Calque 1
10
324.640960
20
236.881150
11
326.811371
21
236.637710
0
LINE
8
Calque 1
10
326.811371
20
236.637710
11
329.800340
21
236.537670
0
LINE
8
Calque 1
10
329.800340
20
236.537670
11
333.048236
21
236.656986
0
LINE
8
Calque 1
10
333.048236
20
236.656986
11
335.689300
21
236.996390
0
LINE
8
Calque 1
10
335.689300
20
236.996390
11
341.526890
21
238.363280
0
LINE
8
Calque 1
10
341.526890
20
238.363280
11
348.085940
21
240.321260
0
LINE
8
Calque 1
10
348.085940
20
240.321260
11
353.625430
21
242.473700
0
LINE
8
Calque 1
10
353.625430
20
242.473700
11
358.185440
21
244.490680
0
LINE
8
Calque 1
10
358.185440
20
244.490680
11
359.773550
21
245.092480
0
LINE
8
Calque 1
10
359.773550
20
245.092480
11
360.700310
21
245.258290
0
LINE
8
Calque 1
10
360.700310
20
245.258290
11
362.498535
21
243.559332
0
LINE
8
Calque 1
10
362.498535
20
243.559332
11
366.181870
21
239.677800
0
LINE
8
Calque 1
10
366.181870
20
239.677800
11
371.425030
21
233.770030
0
LINE
8
Calque 1
10
371.425030
20
233.770030
11
371.379535
21
233.226004
0
LINE
8
Calque 1
10
371.379535
20
233.226004
11
370.984659
21
232.039932
0
LINE
8
Calque 1
10
370.984659
20
232.039932
11
369.003660
21
227.363010
0
LINE
8
Calque 1
10
369.003660
20
227.363010
11
362.155000
21
212.035210
0
LINE
8
Calque 1
10
362.155000
20
212.035210
11
355.712840
21
197.649810
0
LINE
8
Calque 1
10
355.712840
20
197.649810
11
354.056099
21
194.092384
0
LINE
8
Calque 1
10
354.056099
20
194.092384
11
353.207580
21
192.550440
0
LINE
8
Calque 1
10
353.207580
20
192.550440
11
352.635902
21
192.827938
0
LINE
8
Calque 1
10
352.635902
20
192.827938
11
351.644750
21
193.644940
0
LINE
8
Calque 1
10
351.644750
20
193.644940
11
349.482991
21
195.260995
0
LINE
8
Calque 1
10
349.482991
20
195.260995
11
346.096880
21
197.459620
0
LINE
8
Calque 1
10
346.096880
20
197.459620
11
343.067912
21
199.412658
0
LINE
8
Calque 1
10
343.067912
20
199.412658
11
341.764830
21
200.438230
0
LINE
8
Calque 1
10
341.764830
20
200.438230
11
343.085596
21
202.870396
0
LINE
8
Calque 1
10
343.085596
20
202.870396
11
346.365010
21
208.205220
0
LINE
8
Calque 1
10
346.365010
20
208.205220
11
354.021510
21
220.556520
0
LINE
8
Calque 1
10
354.021510
20
220.556520
11
356.219597
21
224.330404
0
LINE
8
Calque 1
10
356.219597
20
224.330404
11
357.316520
21
226.453560
0
LINE
8
Calque 1
10
357.316520
20
226.453560
11
357.491475
21
227.346000
0
LINE
8
Calque 1
10
357.491475
20
227.346000
11
357.202450
21
228.052590
0
LINE
8
Calque 1
10
357.202450
20
228.052590
11
356.723636
21
228.521364
0
LINE
8
Calque 1
10
356.723636
20
228.521364
11
356.163350
21
228.703990
0
LINE
8
Calque 1
10
356.163350
20
228.703990
11
355.292076
21
228.389743
0
LINE
8
Calque 1
10
355.292076
20
228.389743
11
354.057120
21
227.634210
0
LINE
8
Calque 1
10
354.057120
20
227.634210
11
352.563190
21
226.564420
0
LINE
8
Calque 1
10
352.563190
20
226.564420
11
352.728760
21
224.605670
0
LINE
8
Calque 1
10
352.728760
20
224.605670
11
352.894340
21
222.646920
0
LINE
8
Calque 1
10
352.894340
20
222.646920
11
350.324520
21
219.453660
0
LINE
8
Calque 1
10
350.324520
20
219.453660
11
348.443006
21
217.239566
0
LINE
8
Calque 1
10
348.443006
20
217.239566
11
347.528070
21
216.400470
0
LINE
8
Calque 1
10
347.528070
20
216.400470
11
346.979370
21
217.529030
0
LINE
8
Calque 1
10
346.979370
20
217.529030
11
345.883120
21
220.556130
0
LINE
8
Calque 1
10
345.883120
20
220.556130
11
345.170822
21
222.132561
0
LINE
8
Calque 1
10
345.170822
20
222.132561
11
344.585440
21
222.760880
0
LINE
8
Calque 1
10
344.585440
20
222.760880
11
344.026104
21
222.757636
0
LINE
8
Calque 1
10
344.026104
20
222.757636
11
343.413420
21
222.502130
0
LINE
8
Calque 1
10
343.413420
20
222.502130
11
342.907212
21
221.965847
0
LINE
8
Calque 1
10
342.907212
20
221.965847
11
342.764920
21
221.144760
0
LINE
8
Calque 1
10
342.764920
20
221.144760
11
343.311630
21
215.720330
0
LINE
8
Calque 1
10
343.311630
20
215.720330
11
343.774650
21
210.729070
0
LINE
8
Calque 1
10
343.774650
20
210.729070
11
342.289730
21
208.892884
0
LINE
8
Calque 1
10
342.289730
20
208.892884
11
338.837080
21
205.179380
0
LINE
8
Calque 1
10
338.837080
20
205.179380
11
335.327236
21
201.612544
0
LINE
8
Calque 1
10
335.327236
20
201.612544
11
333.704760
21
200.128990
0
LINE
8
Calque 1
10
333.704760
20
200.128990
11
333.539107
21
202.352652
0
LINE
8
Calque 1
10
333.539107
20
202.352652
11
333.618360
21
209.403570
0
LINE
8
Calque 1
10
333.618360
20
209.403570
11
333.701167
21
216.772447
0
LINE
8
Calque 1
10
333.701167
20
216.772447
11
333.635052
21
218.422501
0
LINE
8
Calque 1
10
333.635052
20
218.422501
11
333.492780
21
219.060870
0
LINE
8
Calque 1
10
333.492780
20
219.060870
11
333.131144
21
219.331159
0
LINE
8
Calque 1
10
333.131144
20
219.331159
11
332.707700
21
219.443580
0
LINE
8
Calque 1
10
332.707700
20
219.443580
11
332.211470
21
219.307566
0
LINE
8
Calque 1
10
332.211470
20
219.307566
11
331.674830
21
218.980550
0
LINE
8
Calque 1
10
331.674830
20
218.980550
11
331.311371
21
218.386950
0
LINE
8
Calque 1
10
331.311371
20
218.386950
11
330.848399
21
216.887136
0
LINE
8
Calque 1
10
330.848399
20
216.887136
11
329.156730
21
209.389410
0
LINE
8
Calque 1
10
329.156730
20
209.389410
11
326.469300
21
196.744210
0
LINE
8
Calque 1
10
326.469300
20
196.744210
11
325.734560
21
193.227160
0
LINE
8
Calque 1
10
325.734560
20
193.227160
11
318.094760
21
188.447300
0
LINE
8
Calque 1
10
318.094760
20
188.447300
11
310.359660
21
183.762800
0
LINE
8
Calque 1
10
310.359660
20
183.762800
11
313.785130
21
194.573200
0
LINE
8
Calque 1
10
313.785130
20
194.573200
11
319.469500
21
211.960500
0
LINE
8
Calque 1
10
319.469500
20
211.960500
11
321.045357
21
217.114207
0
LINE
8
Calque 1
10
321.045357
20
217.114207
11
321.549540
21
219.499290
0
LINE
8
Calque 1
10
321.549540
20
219.499290
11
321.329545
21
220.240172
0
LINE
8
Calque 1
10
321.329545
20
220.240172
11
320.791310
21
220.687610
0
LINE
8
Calque 1
10
320.791310
20
220.687610
11
320.149206
21
220.871456
0
LINE
8
Calque 1
10
320.149206
20
220.871456
11
319.552830
21
220.861810
0
LINE
8
Calque 1
10
319.552830
20
220.861810
11
318.962981
21
220.386727
0
LINE
8
Calque 1
10
318.962981
20
220.386727
11
318.328590
21
219.351380
0
LINE
8
Calque 1
10
318.328590
20
219.351380
11
315.109820
21
212.432150
0
LINE
8
Calque 1
10
315.109820
20
212.432150
11
309.375700
21
199.864450
0
LINE
8
Calque 1
10
309.375700
20
199.864450
11
304.525480
21
189.130250
0
LINE
8
Calque 1
10
304.525480
20
189.130250
11
302.139520
21
183.904790
0
LINE
8
Calque 1
10
302.139520
20
183.904790
11
301.428000
21
182.401990
0
LINE
8
Calque 1
10
301.428000
20
182.401990
11
299.937620
21
182.435990
0
LINE
8
Calque 1
10
299.937620
20
182.435990
11
296.859740
21
182.672390
0
LINE
8
Calque 1
10
296.859740
20
182.672390
11
296.859600
21
182.672300
0
LINE
8
Calque 1
10
463.649600
20
183.380300
11
461.886230
21
187.032500
0
LINE
8
Calque 1
10
461.886230
20
187.032500
11
458.104910
21
195.763770
0
LINE
8
Calque 1
10
458.104910
20
195.763770
11
451.594570
21
210.712670
0
LINE
8
Calque 1
10
451.594570
20
210.712670
11
447.119150
21
220.700700
0
LINE
8
Calque 1
10
447.119150
20
220.700700
11
446.655467
21
221.133460
0
LINE
8
Calque 1
10
446.655467
20
221.133460
11
446.061240
21
221.296010
0
LINE
8
Calque 1
10
446.061240
20
221.296010
11
444.876720
21
221.022120
0
LINE
8
Calque 1
10
444.876720
20
221.022120
11
444.487780
21
220.593931
0
LINE
8
Calque 1
10
444.487780
20
220.593931
11
444.364940
21
219.831490
0
LINE
8
Calque 1
10
444.364940
20
219.831490
11
445.017510
21
217.066136
0
LINE
8
Calque 1
10
445.017510
20
217.066136
11
446.586460
21
211.704860
0
LINE
8
Calque 1
10
446.586460
20
211.704860
11
451.758540
21
194.837660
0
LINE
8
Calque 1
10
451.758540
20
194.837660
11
454.844580
21
184.723460
0
LINE
8
Calque 1
10
454.844580
20
184.723460
11
454.508271
21
184.785633
0
LINE
8
Calque 1
10
454.508271
20
184.785633
11
453.438713
21
185.351123
0
LINE
8
Calque 1
10
453.438713
20
185.351123
11
449.474070
21
187.779160
0
LINE
8
Calque 1
10
449.474070
20
187.779160
11
441.920930
21
192.560860
0
LINE
8
Calque 1
10
441.920930
20
192.560860
11
440.197707
21
193.775510
0
LINE
8
Calque 1
10
440.197707
20
193.775510
11
439.828157
21
194.251639
0
LINE
8
Calque 1
10
439.828157
20
194.251639
11
439.626020
21
194.796810
0
LINE
8
Calque 1
10
439.626020
20
194.796810
11
438.810440
21
198.806430
0
LINE
8
Calque 1
10
438.810440
20
198.806430
11
436.555680
21
210.314930
0
LINE
8
Calque 1
10
436.555680
20
210.314930
11
435.063476
21
217.363360
0
LINE
8
Calque 1
10
435.063476
20
217.363360
11
434.644928
21
218.711429
0
LINE
8
Calque 1
10
434.644928
20
218.711429
11
434.279550
21
219.257790
0
LINE
8
Calque 1
10
434.279550
20
219.257790
11
433.663151
21
219.571400
0
LINE
8
Calque 1
10
433.663151
20
219.571400
11
433.008420
21
219.655510
0
LINE
8
Calque 1
10
433.008420
20
219.655510
11
432.326400
21
219.576210
0
LINE
8
Calque 1
10
432.326400
20
219.576210
11
432.256900
21
209.924820
0
LINE
8
Calque 1
10
432.256900
20
209.924820
11
432.187400
21
200.273430
0
LINE
8
Calque 1
10
432.187400
20
200.273430
11
427.031380
21
205.424360
0
LINE
8
Calque 1
10
427.031380
20
205.424360
11
423.021951
21
209.570154
0
LINE
8
Calque 1
10
423.021951
20
209.570154
11
422.144213
21
210.642038
0
LINE
8
Calque 1
10
422.144213
20
210.642038
11
421.875370
21
211.206290
0
LINE
8
Calque 1
10
421.875370
20
211.206290
11
422.571230
21
217.012600
0
LINE
8
Calque 1
10
422.571230
20
217.012600
11
423.267090
21
222.187910
0
LINE
8
Calque 1
10
423.267090
20
222.187910
11
422.674210
21
222.668000
0
LINE
8
Calque 1
10
422.674210
20
222.668000
11
422.118169
21
223.007055
0
LINE
8
Calque 1
10
422.118169
20
223.007055
11
421.613870
21
223.148080
0
LINE
8
Calque 1
10
421.613870
20
223.148080
11
421.199937
21
223.047120
0
LINE
8
Calque 1
10
421.199937
20
223.047120
11
420.861170
21
222.804380
0
LINE
8
Calque 1
10
420.861170
20
222.804380
11
419.568320
21
219.584060
0
LINE
8
Calque 1
10
419.568320
20
219.584060
11
418.769810
21
217.523475
0
LINE
8
Calque 1
10
418.769810
20
217.523475
11
418.264910
21
216.608830
0
LINE
8
Calque 1
10
418.264910
20
216.608830
11
417.262034
21
217.530754
0
LINE
8
Calque 1
10
417.262034
20
217.530754
11
415.266240
21
219.885710
0
LINE
8
Calque 1
10
415.266240
20
219.885710
11
412.563380
21
223.261190
0
LINE
8
Calque 1
10
412.563380
20
223.261190
11
412.740570
21
225.152070
0
LINE
8
Calque 1
10
412.740570
20
225.152070
11
412.917760
21
227.042940
0
LINE
8
Calque 1
10
412.917760
20
227.042940
11
411.774170
21
227.884870
0
LINE
8
Calque 1
10
411.774170
20
227.884870
11
410.714622
21
228.508915
0
LINE
8
Calque 1
10
410.714622
20
228.508915
11
409.841600
21
228.649420
0
LINE
8
Calque 1
10
409.841600
20
228.649420
11
409.176460
21
228.433453
0
LINE
8
Calque 1
10
409.176460
20
228.433453
11
408.811410
21
227.881590
0
LINE
8
Calque 1
10
408.811410
20
227.881590
11
408.688047
21
227.208175
0
LINE
8
Calque 1
10
408.688047
20
227.208175
11
408.730210
21
226.558670
0
LINE
8
Calque 1
10
408.730210
20
226.558670
11
410.791760
21
222.621620
0
LINE
8
Calque 1
10
410.791760
20
222.621620
11
417.584780
21
211.376820
0
LINE
8
Calque 1
10
417.584780
20
211.376820
11
423.101860
21
202.515300
0
LINE
8
Calque 1
10
423.101860
20
202.515300
11
423.543685
21
201.694200
0
LINE
8
Calque 1
10
423.543685
20
201.694200
11
423.727450
21
201.013830
0
LINE
8
Calque 1
10
423.727450
20
201.013830
11
423.559051
21
200.625653
0
LINE
8
Calque 1
10
423.559051
20
200.625653
11
422.958132
21
200.084524
0
LINE
8
Calque 1
10
422.958132
20
200.084524
11
419.884410
21
198.109350
0
LINE
8
Calque 1
10
419.884410
20
198.109350
11
416.663291
21
196.017754
0
LINE
8
Calque 1
10
416.663291
20
196.017754
11
414.315510
21
194.253000
0
LINE
8
Calque 1
10
414.315510
20
194.253000
11
412.370120
21
192.720990
0
LINE
8
Calque 1
10
412.370120
20
192.720990
11
411.893340
21
193.051720
0
LINE
8
Calque 1
10
411.893340
20
193.051720
11
405.746430
21
207.140820
0
LINE
8
Calque 1
10
405.746430
20
207.140820
11
397.240020
21
226.920920
0
LINE
8
Calque 1
10
397.240020
20
226.920920
11
394.623280
21
233.301600
0
LINE
8
Calque 1
10
394.623280
20
233.301600
11
395.890367
21
234.867301
0
LINE
8
Calque 1
10
395.890367
20
234.867301
11
398.936770
21
238.127710
0
LINE
8
Calque 1
10
398.936770
20
238.127710
11
404.385130
21
243.841630
0
LINE
8
Calque 1
10
404.385130
20
243.841630
11
405.329460
21
244.767435
0
LINE
8
Calque 1
10
405.329460
20
244.767435
11
406.006220
21
245.242640
0
LINE
8
Calque 1
10
406.006220
20
245.242640
11
407.746775
21
244.751894
0
LINE
8
Calque 1
10
407.746775
20
244.751894
11
411.604220
21
243.172440
0
LINE
8
Calque 1
10
411.604220
20
243.172440
11
419.229530
21
240.122380
0
LINE
8
Calque 1
10
419.229530
20
240.122380
11
426.108700
21
238.244540
0
LINE
8
Calque 1
10
426.108700
20
238.244540
11
429.930275
21
237.411859
0
LINE
8
Calque 1
10
429.930275
20
237.411859
11
432.987870
21
236.887540
0
LINE
8
Calque 1
10
432.987870
20
236.887540
11
435.501410
21
236.718526
0
LINE
8
Calque 1
10
435.501410
20
236.718526
11
438.014950
21
236.758110
0
LINE
8
Calque 1
10
438.014950
20
236.758110
11
440.435330
21
237.032869
0
LINE
8
Calque 1
10
440.435330
20
237.032869
11
442.724880
21
237.447330
0
LINE
8
Calque 1
10
442.724880
20
237.447330
11
444.835584
21
238.071452
0
LINE
8
Calque 1
10
444.835584
20
238.071452
11
446.825920
21
238.850300
0
LINE
8
Calque 1
10
446.825920
20
238.850300
11
448.637411
21
239.825404
0
LINE
8
Calque 1
10
448.637411
20
239.825404
11
450.318080
21
240.921370
0
LINE
8
Calque 1
10
450.318080
20
240.921370
11
451.768062
21
242.183347
0
LINE
8
Calque 1
10
451.768062
20
242.183347
11
453.024950
21
243.557600
0
LINE
8
Calque 1
10
453.024950
20
243.557600
11
454.079290
21
245.162311
0
LINE
8
Calque 1
10
454.079290
20
245.162311
11
455.042370
21
246.978380
0
LINE
8
Calque 1
10
455.042370
20
246.978380
11
456.294990
21
250.400160
0
LINE
8
Calque 1
10
456.294990
20
250.400160
11
456.541790
21
252.243971
0
LINE
8
Calque 1
10
456.541790
20
252.243971
11
456.637360
21
254.633490
0
LINE
8
Calque 1
10
456.637360
20
254.633490
11
456.507510
21
257.147605
0
LINE
8
Calque 1
10
456.507510
20
257.147605
11
456.141050
21
259.131410
0
LINE
8
Calque 1
10
456.141050
20
259.131410
11
454.740960
21
262.703280
0
LINE
8
Calque 1
10
454.740960
20
262.703280
11
452.600740
21
266.400630
0
LINE
8
Calque 1
10
452.600740
20
266.400630
11
451.147339
21
268.288766
0
LINE
8
Calque 1
10
451.147339
20
268.288766
11
449.372270
21
270.237090
0
LINE
8
Calque 1
10
449.372270
20
270.237090
11
444.733460
21
274.317530
0
LINE
8
Calque 1
10
444.733460
20
274.317530
11
442.136895
21
276.240064
0
LINE
8
Calque 1
10
442.136895
20
276.240064
11
439.593850
21
277.928470
0
LINE
8
Calque 1
10
439.593850
20
277.928470
11
437.088910
21
279.450160
0
LINE
8
Calque 1
10
437.088910
20
279.450160
11
437.158210
21
281.769070
0
LINE
8
Calque 1
10
437.158210
20
281.769070
11
437.298584
21
283.524795
0
LINE
8
Calque 1
10
437.298584
20
283.524795
11
437.541640
21
284.466440
0
LINE
8
Calque 1
10
437.541640
20
284.466440
11
437.927731
21
284.652943
0
LINE
8
Calque 1
10
437.927731
20
284.652943
11
438.886811
21
284.745350
0
LINE
8
Calque 1
10
438.886811
20
284.745350
11
443.690030
21
284.690330
0
LINE
8
Calque 1
10
443.690030
20
284.690330
11
465.267030
21
284.390700
0
LINE
8
Calque 1
10
465.267030
20
284.390700
11
511.304530
21
283.870030
0
LINE
8
Calque 1
10
511.304530
20
283.870030
11
563.824330
21
283.210800
0
LINE
8
Calque 1
10
563.824330
20
283.210800
11
598.021730
21
282.771990
0
LINE
8
Calque 1
10
598.021730
20
282.771990
11
609.994130
21
282.443690
0
LINE
8
Calque 1
10
609.994130
20
282.443690
11
602.707210
21
274.537460
0
LINE
8
Calque 1
10
602.707210
20
274.537460
11
597.361427
21
269.004874
0
LINE
8
Calque 1
10
597.361427
20
269.004874
11
594.954820
21
266.804320
0
LINE
8
Calque 1
10
594.954820
20
266.804320
11
583.919320
21
267.326700
0
LINE
8
Calque 1
10
583.919320
20
267.326700
11
561.310820
21
268.382750
0
LINE
8
Calque 1
10
561.310820
20
268.382750
11
543.054520
21
269.186960
0
LINE
8
Calque 1
10
543.054520
20
269.186960
11
531.280520
21
269.718290
0
LINE
8
Calque 1
10
531.280520
20
269.718290
11
516.199320
21
270.367730
0
LINE
8
Calque 1
10
516.199320
20
270.367730
11
495.694120
21
271.178920
0
LINE
8
Calque 1
10
495.694120
20
271.178920
11
476.511820
21
271.945280
0
LINE
8
Calque 1
10
476.511820
20
271.945280
11
470.435065
21
272.129270
0
LINE
8
Calque 1
10
470.435065
20
272.129270
11
467.846710
21
272.050940
0
LINE
8
Calque 1
10
467.846710
20
272.050940
11
467.502479
21
271.647854
0
LINE
8
Calque 1
10
467.502479
20
271.647854
11
467.383690
21
270.931740
0
LINE
8
Calque 1
10
467.383690
20
270.931740
11
467.542025
21
270.107428
0
LINE
8
Calque 1
10
467.542025
20
270.107428
11
467.924310
21
269.363380
0
LINE
8
Calque 1
10
467.924310
20
269.363380
11
468.554158
21
268.834095
0
LINE
8
Calque 1
10
468.554158
20
268.834095
11
469.313380
21
268.533980
0
LINE
8
Calque 1
10
469.313380
20
268.533980
11
473.204520
21
268.144150
0
LINE
8
Calque 1
10
473.204520
20
268.144150
11
485.639920
21
267.090420
0
LINE
8
Calque 1
10
485.639920
20
267.090420
11
501.382620
21
265.743570
0
LINE
8
Calque 1
10
501.382620
20
265.743570
11
515.537820
21
264.552590
0
LINE
8
Calque 1
10
515.537820
20
264.552590
11
526.782620
21
263.621210
0
LINE
8
Calque 1
10
526.782620
20
263.621210
11
534.587830
21
262.954180
0
LINE
8
Calque 1
10
534.587830
20
262.954180
11
545.700330
21
262.038950
0
LINE
8
Calque 1
10
545.700330
20
262.038950
11
555.622200
21
261.240040
0
LINE
8
Calque 1
10
555.622200
20
261.240040
11
568.719100
21
260.201100
0
LINE
8
Calque 1
10
568.719100
20
260.201100
11
583.081400
21
259.108990
0
LINE
8
Calque 1
10
583.081400
20
259.108990
11
586.195483
21
258.818790
0
LINE
8
Calque 1
10
586.195483
20
258.818790
11
587.447030
21
258.574160
0
LINE
8
Calque 1
10
587.447030
20
258.574160
11
579.589960
21
251.049350
0
LINE
8
Calque 1
10
579.589960
20
251.049350
11
572.802194
21
244.805010
0
LINE
8
Calque 1
10
572.802194
20
244.805010
11
571.620287
21
243.974723
0
LINE
8
Calque 1
10
571.620287
20
243.974723
11
570.991000
21
243.906460
0
LINE
8
Calque 1
10
570.991000
20
243.906460
11
554.167100
21
246.820660
0
LINE
8
Calque 1
10
554.167100
20
246.820660
11
525.327500
21
251.821610
0
LINE
8
Calque 1
10
525.327500
20
251.821610
11
505.351500
21
255.296280
0
LINE
8
Calque 1
10
505.351500
20
255.296280
11
486.963000
21
258.469760
0
LINE
8
Calque 1
10
486.963000
20
258.469760
11
473.106300
21
260.842220
0
LINE
8
Calque 1
10
473.106300
20
260.842220
11
470.981870
21
261.103229
0
LINE
8
Calque 1
10
470.981870
20
261.103229
11
470.129740
21
260.956740
0
LINE
8
Calque 1
10
470.129740
20
260.956740
11
469.872209
21
260.557460
0
LINE
8
Calque 1
10
469.872209
20
260.557460
11
469.765090
21
260.022460
0
LINE
8
Calque 1
10
469.765090
20
260.022460
11
469.920876
21
259.442974
0
LINE
8
Calque 1
10
469.920876
20
259.442974
11
470.295400
21
258.936740
0
LINE
8
Calque 1
10
470.295400
20
258.936740
11
471.777125
21
258.322911
0
LINE
8
Calque 1
10
471.777125
20
258.322911
11
474.594870
21
257.484750
0
LINE
8
Calque 1
10
474.594870
20
257.484750
11
493.577570
21
252.520570
0
LINE
8
Calque 1
10
493.577570
20
252.520570
11
519.903570
21
245.631800
0
LINE
8
Calque 1
10
519.903570
20
245.631800
11
542.525470
21
239.788370
0
LINE
8
Calque 1
10
542.525470
20
239.788370
11
555.426170
21
236.470630
0
LINE
8
Calque 1
10
555.426170
20
236.470630
11
556.448741
21
236.087434
0
LINE
8
Calque 1
10
556.448741
20
236.087434
11
556.631384
21
235.912752
0
LINE
8
Calque 1
10
556.631384
20
235.912752
11
556.616800
21
235.735850
0
LINE
8
Calque 1
10
556.616800
20
235.735850
11
548.753750
21
228.611530
0
LINE
8
Calque 1
10
548.753750
20
228.611530
11
542.894824
21
223.552081
0
LINE
8
Calque 1
10
542.894824
20
223.552081
11
541.256580
21
222.260681
0
LINE
8
Calque 1
10
541.256580
20
222.260681
11
540.515980
21
221.825160
0
LINE
8
Calque 1
10
540.515980
20
221.825160
11
537.904971
21
222.647819
0
LINE
8
Calque 1
10
537.904971
20
222.647819
11
532.435570
21
224.625710
0
LINE
8
Calque 1
10
532.435570
20
224.625710
11
513.024370
21
231.881760
0
LINE
8
Calque 1
10
513.024370
20
231.881760
11
495.164970
21
238.492350
0
LINE
8
Calque 1
10
495.164970
20
238.492350
11
480.480570
21
243.819750
0
LINE
8
Calque 1
10
480.480570
20
243.819750
11
471.448960
21
247.088650
0
LINE
8
Calque 1
10
471.448960
20
247.088650
11
471.072464
21
247.041721
0
LINE
8
Calque 1
10
471.072464
20
247.041721
11
470.589070
21
246.793320
0
LINE
8
Calque 1
10
470.589070
20
246.793320
11
470.164553
21
246.275500
0
LINE
8
Calque 1
10
470.164553
20
246.275500
11
470.029520
21
245.487770
0
LINE
8
Calque 1
10
470.029520
20
245.487770
11
470.163010
21
244.703234
0
LINE
8
Calque 1
10
470.163010
20
244.703234
11
470.530620
21
244.145100
0
LINE
8
Calque 1
10
470.530620
20
244.145100
11
474.962390
21
241.677270
0
LINE
8
Calque 1
10
474.962390
20
241.677270
11
494.106590
21
231.754200
0
LINE
8
Calque 1
10
494.106590
20
231.754200
11
514.744090
21
221.037300
0
LINE
8
Calque 1
10
514.744090
20
221.037300
11
524.467530
21
215.984770
0
LINE
8
Calque 1
10
524.467530
20
215.984770
11
527.504036
21
214.326893
0
LINE
8
Calque 1
10
527.504036
20
214.326893
11
528.767010
21
213.458270
0
LINE
8
Calque 1
10
528.767010
20
213.458270
11
528.048086
21
212.750305
0
LINE
8
Calque 1
10
528.048086
20
212.750305
11
526.319610
21
211.478670
0
LINE
8
Calque 1
10
526.319610
20
211.478670
11
518.221450
21
205.893500
0
LINE
8
Calque 1
10
518.221450
20
205.893500
11
512.355060
21
201.981370
0
LINE
8
Calque 1
10
512.355060
20
201.981370
11
509.936050
21
203.650270
0
LINE
8
Calque 1
10
509.936050
20
203.650270
11
504.293050
21
207.967890
0
LINE
8
Calque 1
10
504.293050
20
207.967890
11
495.032630
21
215.108800
0
LINE
8
Calque 1
10
495.032630
20
215.108800
11
484.713830
21
223.010760
0
LINE
8
Calque 1
10
484.713830
20
223.010760
11
473.805830
21
231.266580
0
LINE
8
Calque 1
10
473.805830
20
231.266580
11
469.160328
21
234.689100
0
LINE
8
Calque 1
10
469.160328
20
234.689100
11
466.992810
21
236.112630
0
LINE
8
Calque 1
10
466.992810
20
236.112630
11
466.552806
21
235.957185
0
LINE
8
Calque 1
10
466.552806
20
235.957185
11
466.060730
21
235.583460
0
LINE
8
Calque 1
10
466.060730
20
235.583460
11
465.687010
21
235.008393
0
LINE
8
Calque 1
10
465.687010
20
235.008393
11
465.531570
21
234.368870
0
LINE
8
Calque 1
10
465.531570
20
234.368870
11
465.867918
21
233.524124
0
LINE
8
Calque 1
10
465.867918
20
233.524124
11
466.966400
21
232.318350
0
LINE
8
Calque 1
10
466.966400
20
232.318350
11
485.526700
21
213.671950
0
LINE
8
Calque 1
10
485.526700
20
213.671950
11
499.478200
21
199.460650
0
LINE
8
Calque 1
10
499.478200
20
199.460650
11
501.842631
21
196.852159
0
LINE
8
Calque 1
10
501.842631
20
196.852159
11
502.249082
21
196.275230
0
LINE
8
Calque 1
10
502.249082
20
196.275230
11
502.282000
21
196.031950
0
LINE
8
Calque 1
10
502.282000
20
196.031950
11
495.610190
21
191.948140
0
LINE
8
Calque 1
10
495.610190
20
191.948140
11
488.947160
21
188.222990
0
LINE
8
Calque 1
10
488.947160
20
188.222990
11
486.957429
21
190.409526
0
LINE
8
Calque 1
10
486.957429
20
190.409526
11
482.681060
21
195.666480
0
LINE
8
Calque 1
10
482.681060
20
195.666480
11
467.818760
21
214.338680
0
LINE
8
Calque 1
10
467.818760
20
214.338680
11
461.373489
21
222.314593
0
LINE
8
Calque 1
10
461.373489
20
222.314593
11
458.456240
21
225.722780
0
LINE
8
Calque 1
10
458.456240
20
225.722780
11
458.044846
21
225.753941
0
LINE
8
Calque 1
10
458.044846
20
225.753941
11
457.624310
21
225.610570
0
LINE
8
Calque 1
10
457.624310
20
225.610570
11
457.297026
21
225.248364
0
LINE
8
Calque 1
10
457.297026
20
225.248364
11
457.109880
21
224.753250
0
LINE
8
Calque 1
10
457.109880
20
224.753250
11
457.452359
21
223.832028
0
LINE
8
Calque 1
10
457.452359
20
223.832028
11
458.559819
21
221.665134
0
LINE
8
Calque 1
10
458.559819
20
221.665134
11
463.030510
21
213.667750
0
LINE
8
Calque 1
10
463.030510
20
213.667750
11
474.064910
21
194.475450
0
LINE
8
Calque 1
10
474.064910
20
194.475450
11
479.218360
21
185.293200
0
LINE
8
Calque 1
10
479.218360
20
185.293200
11
479.171434
21
184.887013
0
LINE
8
Calque 1
10
479.171434
20
184.887013
11
478.722350
21
184.664800
0
LINE
8
Calque 1
10
478.722350
20
184.664800
11
472.013890
21
183.856200
0
LINE
8
Calque 1
10
472.013890
20
183.856200
11
464.990100
21
183.046600
0
LINE
8
Calque 1
10
464.990100
20
183.046600
11
464.169200
21
183.038988
0
LINE
8
Calque 1
10
464.169200
20
183.038988
11
463.649590
21
183.380200
0
LINE
8
Calque 1
10
463.649590
20
183.380200
11
463.649600
21
183.380300
0
LINE
8
Calque 1
10
368.370300
20
243.312300
11
361.852780
21
250.758290
0
LINE
8
Calque 1
10
361.852780
20
250.758290
11
360.401199
21
252.517467
0
LINE
8
Calque 1
10
360.401199
20
252.517467
11
360.070382
21
253.100020
0
LINE
8
Calque 1
10
360.070382
20
253.100020
11
359.967690
21
253.536410
0
LINE
8
Calque 1
10
359.967690
20
253.536410
11
360.199107
21
254.444369
0
LINE
8
Calque 1
10
360.199107
20
254.444369
11
360.748300
21
255.643980
0
LINE
8
Calque 1
10
360.748300
20
255.643980
11
363.050720
21
259.171550
0
LINE
8
Calque 1
10
363.050720
20
259.171550
11
364.422879
21
260.934600
0
LINE
8
Calque 1
10
364.422879
20
260.934600
11
365.578160
21
262.196020
0
LINE
8
Calque 1
10
365.578160
20
262.196020
11
366.584646
21
262.911483
0
LINE
8
Calque 1
10
366.584646
20
262.911483
11
367.606890
21
263.100220
0
LINE
8
Calque 1
10
367.606890
20
263.100220
11
368.723484
21
262.880472
0
LINE
8
Calque 1
10
368.723484
20
262.880472
11
370.053520
21
262.132080
0
LINE
8
Calque 1
10
370.053520
20
262.132080
11
374.514980
21
258.925210
0
LINE
8
Calque 1
10
374.514980
20
258.925210
11
378.417580
21
255.872690
0
LINE
8
Calque 1
10
378.417580
20
255.872690
11
379.020480
21
255.138333
0
LINE
8
Calque 1
10
379.020480
20
255.138333
11
379.262480
21
254.515500
0
LINE
8
Calque 1
10
379.262480
20
254.515500
11
376.408140
21
246.053280
0
LINE
8
Calque 1
10
376.408140
20
246.053280
11
374.319006
21
240.432676
0
LINE
8
Calque 1
10
374.319006
20
240.432676
11
373.283360
21
238.039330
0
LINE
8
Calque 1
10
373.283360
20
238.039330
11
371.722413
21
239.549030
0
LINE
8
Calque 1
10
371.722413
20
239.549030
11
368.370300
21
243.312300
0
LINE
8
Calque 1
10
368.370300
20
243.312300
11
368.370300
21
243.312300
0
LINE
8
Calque 1
10
392.506600
20
238.047650
11
389.993060
21
246.194620
0
LINE
8
Calque 1
10
389.993060
20
246.194620
11
387.479510
21
254.660540
0
LINE
8
Calque 1
10
387.479510
20
254.660540
11
387.770967
21
255.234534
0
LINE
8
Calque 1
10
387.770967
20
255.234534
11
388.471700
21
255.995840
0
LINE
8
Calque 1
10
388.471700
20
255.995840
11
393.829510
21
259.962040
0
LINE
8
Calque 1
10
393.829510
20
259.962040
11
398.777230
21
263.212800
0
LINE
8
Calque 1
10
398.777230
20
263.212800
11
399.414471
21
263.228991
0
LINE
8
Calque 1
10
399.414471
20
263.228991
11
400.138270
21
262.989260
0
LINE
8
Calque 1
10
400.138270
20
262.989260
11
401.066329
21
262.280745
0
LINE
8
Calque 1
10
401.066329
20
262.280745
11
402.203780
21
261.142960
0
LINE
8
Calque 1
10
402.203780
20
261.142960
11
403.488235
21
259.501804
0
LINE
8
Calque 1
10
403.488235
20
259.501804
11
404.769750
21
257.583080
0
LINE
8
Calque 1
10
404.769750
20
257.583080
11
406.395910
21
254.458070
0
LINE
8
Calque 1
10
406.395910
20
254.458070
11
406.610056
21
253.514559
0
LINE
8
Calque 1
10
406.610056
20
253.514559
11
406.388910
21
252.784730
0
LINE
8
Calque 1
10
406.388910
20
252.784730
11
399.653130
21
245.108550
0
LINE
8
Calque 1
10
399.653130
20
245.108550
11
395.033339
21
240.131577
0
LINE
8
Calque 1
10
395.033339
20
240.131577
11
392.888570
21
238.011550
0
LINE
8
Calque 1
10
392.888570
20
238.011550
11
392.506320
21
238.047650
0
LINE
8
Calque 1
10
392.506320
20
238.047650
11
392.506600
21
238.047650
0
LINE
8
Calque 1
10
333.762600
20
252.158950
11
331.363759
21
254.590346
0
LINE
8
Calque 1
10
331.363759
20
254.590346
11
330.052650
21
256.108670
0
LINE
8
Calque 1
10
330.052650
20
256.108670
11
329.689445
21
256.933211
0
LINE
8
Calque 1
10
329.689445
20
256.933211
11
329.689240
21
257.666500
0
LINE
8
Calque 1
10
329.689240
20
257.666500
11
330.016121
21
258.259020
0
LINE
8
Calque 1
10
330.016121
20
258.259020
11
330.558950
21
258.715040
0
LINE
8
Calque 1
10
330.558950
20
258.715040
11
335.488890
21
260.710580
0
LINE
8
Calque 1
10
335.488890
20
260.710580
11
338.734295
21
261.868305
0
LINE
8
Calque 1
10
338.734295
20
261.868305
11
340.592410
21
262.353370
0
LINE
8
Calque 1
10
340.592410
20
262.353370
11
341.859126
21
261.994176
0
LINE
8
Calque 1
10
341.859126
20
261.994176
11
343.953010
21
260.873260
0
LINE
8
Calque 1
10
343.953010
20
260.873260
11
346.589410
21
259.150890
0
LINE
8
Calque 1
10
346.589410
20
259.150890
11
346.594410
21
258.560070
0
LINE
8
Calque 1
10
346.594410
20
258.560070
11
345.361290
21
257.726723
0
LINE
8
Calque 1
10
345.361290
20
257.726723
11
342.594660
21
256.221090
0
LINE
8
Calque 1
10
342.594660
20
256.221090
11
339.683999
21
254.648462
0
LINE
8
Calque 1
10
339.683999
20
254.648462
11
338.104640
21
253.654040
0
LINE
8
Calque 1
10
338.104640
20
253.654040
11
337.770531
21
253.281916
0
LINE
8
Calque 1
10
337.770531
20
253.281916
11
337.579677
21
252.833091
0
LINE
8
Calque 1
10
337.579677
20
252.833091
11
337.473320
21
251.074350
0
LINE
8
Calque 1
10
337.473320
20
251.074350
11
337.398280
21
249.635243
0
LINE
8
Calque 1
10
337.398280
20
249.635243
11
337.204710
21
249.077340
0
LINE
8
Calque 1
10
337.204710
20
249.077340
11
333.762660
21
252.158950
0
LINE
8
Calque 1
10
333.762660
20
252.158950
11
333.762600
21
252.158950
0
LINE
8
Calque 1
10
429.019100
20
251.338930
11
428.910530
21
253.110326
0
LINE
8
Calque 1
10
428.910530
20
253.110326
11
428.710051
21
253.562412
0
LINE
8
Calque 1
10
428.710051
20
253.562412
11
428.354540
21
253.951820
0
LINE
8
Calque 1
10
428.354540
20
253.951820
11
426.759109
21
254.948025
0
LINE
8
Calque 1
10
426.759109
20
254.948025
11
423.856450
21
256.478290
0
LINE
8
Calque 1
10
423.856450
20
256.478290
11
419.889930
21
258.604030
0
LINE
8
Calque 1
10
419.889930
20
258.604030
11
419.896930
21
259.183530
0
LINE
8
Calque 1
10
419.896930
20
259.183530
11
420.760282
21
259.884889
0
LINE
8
Calque 1
10
420.760282
20
259.884889
11
422.639660
21
261.059490
0
LINE
8
Calque 1
10
422.639660
20
261.059490
11
424.786932
21
262.180604
0
LINE
8
Calque 1
10
424.786932
20
262.180604
11
426.081680
21
262.571090
0
LINE
8
Calque 1
10
426.081680
20
262.571090
11
427.546000
21
262.223455
0
LINE
8
Calque 1
10
427.546000
20
262.223455
11
429.888240
21
261.387660
0
LINE
8
Calque 1
10
429.888240
20
261.387660
11
434.442890
21
259.549300
0
LINE
8
Calque 1
10
434.442890
20
259.549300
11
435.701729
21
258.916456
0
LINE
8
Calque 1
10
435.701729
20
258.916456
11
436.499520
21
258.314610
0
LINE
8
Calque 1
10
436.499520
20
258.314610
11
436.799752
21
257.740532
0
LINE
8
Calque 1
10
436.799752
20
257.740532
11
436.804350
21
257.176400
0
LINE
8
Calque 1
10
436.804350
20
257.176400
11
435.628122
21
255.713334
0
LINE
8
Calque 1
10
435.628122
20
255.713334
11
433.031440
21
252.979940
0
LINE
8
Calque 1
10
433.031440
20
252.979940
11
429.221230
21
249.341920
0
LINE
8
Calque 1
10
429.221230
20
249.341920
11
429.078577
21
249.928544
0
LINE
8
Calque 1
10
429.078577
20
249.928544
11
429.019250
21
251.338930
0
LINE
8
Calque 1
10
429.019250
20
251.338930
11
429.019100
21
251.338930
0
LINE
8
Calque 1
10
347.978800
20
260.547780
11
339.305020
21
265.395990
0
LINE
8
Calque 1
10
339.305020
20
265.395990
11
339.411881
21
266.187966
0
LINE
8
Calque 1
10
339.411881
20
266.187966
11
340.239260
21
268.016960
0
LINE
8
Calque 1
10
340.239260
20
268.016960
11
341.953500
21
271.037760
0
LINE
8
Calque 1
10
341.953500
20
271.037760
11
342.280846
21
271.390127
0
LINE
8
Calque 1
10
342.280846
20
271.390127
11
342.659365
21
271.582223
0
LINE
8
Calque 1
10
342.659365
20
271.582223
11
344.139740
21
271.643460
0
LINE
8
Calque 1
10
344.139740
20
271.643460
11
353.480540
21
271.173190
0
LINE
8
Calque 1
10
353.480540
20
271.173190
11
365.739340
21
270.532490
0
LINE
8
Calque 1
10
365.739340
20
270.532490
11
369.062901
21
270.291142
0
LINE
8
Calque 1
10
369.062901
20
270.291142
11
370.603120
21
270.028360
0
LINE
8
Calque 1
10
370.603120
20
270.028360
11
370.756867
21
269.721171
0
LINE
8
Calque 1
10
370.756867
20
269.721171
11
370.736210
21
269.372920
0
LINE
8
Calque 1
10
370.736210
20
269.372920
11
370.102647
21
268.895405
0
LINE
8
Calque 1
10
370.102647
20
268.895405
11
368.782850
21
268.277430
0
LINE
8
Calque 1
10
368.782850
20
268.277430
11
367.018487
21
267.455141
0
LINE
8
Calque 1
10
367.018487
20
267.455141
11
365.316120
21
266.486400
0
LINE
8
Calque 1
10
365.316120
20
266.486400
11
363.770155
21
265.318446
0
LINE
8
Calque 1
10
363.770155
20
265.318446
11
362.381840
21
264.017180
0
LINE
8
Calque 1
10
362.381840
20
264.017180
11
360.177520
21
261.206970
0
LINE
8
Calque 1
10
360.177520
20
261.206970
11
358.250380
21
257.874740
0
LINE
8
Calque 1
10
358.250380
20
257.874740
11
357.403520
21
256.469934
0
LINE
8
Calque 1
10
357.403520
20
256.469934
11
356.821260
21
255.958850
0
LINE
8
Calque 1
10
356.821260
20
255.958850
11
354.046324
21
257.307708
0
LINE
8
Calque 1
10
354.046324
20
257.307708
11
347.978850
21
260.547780
0
LINE
8
Calque 1
10
347.978850
20
260.547780
11
347.978800
21
260.547780
0
LINE
8
Calque 1
10
350.539800
20
264.722080
11
351.097570
21
265.161214
0
LINE
8
Calque 1
10
351.097570
20
265.161214
11
351.517370
21
265.797260
0
LINE
8
Calque 1
10
351.517370
20
265.797260
11
351.690150
21
266.560804
0
LINE
8
Calque 1
10
351.690150
20
266.560804
11
351.313480
21
267.277300
0
LINE
8
Calque 1
10
351.313480
20
267.277300
11
350.652050
21
267.850946
0
LINE
8
Calque 1
10
350.652050
20
267.850946
11
349.753050
21
268.197320
0
LINE
8
Calque 1
10
349.753050
20
268.197320
11
348.827776
21
268.301960
0
LINE
8
Calque 1
10
348.827776
20
268.301960
11
348.056590
21
268.249820
0
LINE
8
Calque 1
10
348.056590
20
268.249820
11
346.932110
21
267.668810
0
LINE
8
Calque 1
10
346.932110
20
267.668810
11
346.605102
21
267.167856
0
LINE
8
Calque 1
10
346.605102
20
267.167856
11
346.469090
21
266.549370
0
LINE
8
Calque 1
10
346.469090
20
266.549370
11
346.566239
21
265.931689
0
LINE
8
Calque 1
10
346.566239
20
265.931689
11
346.799820
21
265.432650
0
LINE
8
Calque 1
10
346.799820
20
265.432650
11
347.659710
21
264.728660
0
LINE
8
Calque 1
10
347.659710
20
264.728660
11
349.036320
21
264.431190
0
LINE
8
Calque 1
10
349.036320
20
264.431190
11
350.539800
21
264.722050
0
LINE
8
Calque 1
10
350.539800
20
264.722050
11
350.539800
21
264.722080
0
LINE
8
Calque 1
10
409.089300
20
256.551820
11
407.200710
21
259.886380
0
LINE
8
Calque 1
10
407.200710
20
259.886380
11
405.628580
21
262.372321
0
LINE
8
Calque 1
10
405.628580
20
262.372321
11
403.977220
21
264.425280
0
LINE
8
Calque 1
10
403.977220
20
264.425280
11
402.200089
21
266.052351
0
LINE
8
Calque 1
10
402.200089
20
266.052351
11
400.237310
21
267.276020
0
LINE
8
Calque 1
10
400.237310
20
267.276020
11
397.224090
21
268.637630
0
LINE
8
Calque 1
10
397.224090
20
268.637630
11
395.958180
21
269.303470
0
LINE
8
Calque 1
10
395.958180
20
269.303470
11
395.813076
21
269.665959
0
LINE
8
Calque 1
10
395.813076
20
269.665959
11
396.051380
21
270.046830
0
LINE
8
Calque 1
10
396.051380
20
270.046830
11
397.133580
21
270.387470
0
LINE
8
Calque 1
10
397.133580
20
270.387470
11
399.830830
21
270.617800
0
LINE
8
Calque 1
10
399.830830
20
270.617800
11
411.027430
21
271.317680
0
LINE
8
Calque 1
10
411.027430
20
271.317680
11
421.499930
21
272.002830
0
LINE
8
Calque 1
10
421.499930
20
272.002830
11
424.167210
21
272.171040
0
LINE
8
Calque 1
10
424.167210
20
272.171040
11
424.756590
21
271.343320
0
LINE
8
Calque 1
10
424.756590
20
271.343320
11
426.410080
21
268.244860
0
LINE
8
Calque 1
10
426.410080
20
268.244860
11
427.122824
21
266.540060
0
LINE
8
Calque 1
10
427.122824
20
266.540060
11
427.342150
21
265.629990
0
LINE
8
Calque 1
10
427.342150
20
265.629990
11
425.901875
21
264.663673
0
LINE
8
Calque 1
10
425.901875
20
264.663673
11
422.624490
21
262.823620
0
LINE
8
Calque 1
10
422.624490
20
262.823620
11
414.080560
21
258.158940
0
LINE
8
Calque 1
10
414.080560
20
258.158940
11
409.787180
21
255.956510
0
LINE
8
Calque 1
10
409.787180
20
255.956510
11
409.443986
21
256.131383
0
LINE
8
Calque 1
10
409.443986
20
256.131383
11
409.089340
21
256.551820
0
LINE
8
Calque 1
10
409.089340
20
256.551820
11
409.089300
21
256.551820
 0 
ENDSEC
 0 
EOF