999
"DXF R12 Output" (www.mydxf.blogspot.com)
 0 
SECTION
 2 
HEADER
 9 
$ACADVER
 1 
AC1009
 9 
$EXTMIN
 10 
 0 
 20 
 0 
 9 
$EXTMAX
 10 
 8.5 
 20 
 11 
 0 
ENDSEC
 0 
SECTION
 2 
ENTITIES
0
LINE
8
Calque 1
10
187.190000
20
126.542000
11
187.190000
21
138.152000
0
LINE
8
Calque 1
10
187.190000
20
138.152000
11
190.431150
21
138.277800
0
LINE
8
Calque 1
10
190.431150
20
138.277800
11
193.432110
21
138.518300
0
LINE
8
Calque 1
10
193.432110
20
138.518300
11
195.656670
21
139.129600
0
LINE
8
Calque 1
10
195.656670
20
139.129600
11
197.614649
21
139.985625
0
LINE
8
Calque 1
10
197.614649
20
139.985625
11
199.535570
21
141.024200
0
LINE
8
Calque 1
10
199.535570
20
141.024200
11
201.464686
21
142.466275
0
LINE
8
Calque 1
10
201.464686
20
142.466275
11
203.448080
21
144.337800
0
LINE
8
Calque 1
10
203.448080
20
144.337800
11
205.281880
21
146.540700
0
LINE
8
Calque 1
10
205.281880
20
146.540700
11
206.624460
21
148.897800
0
LINE
8
Calque 1
10
206.624460
20
148.897800
11
207.570876
21
151.185400
0
LINE
8
Calque 1
10
207.570876
20
151.185400
11
208.219610
21
153.294200
0
LINE
8
Calque 1
10
208.219610
20
153.294200
11
208.455478
21
155.271255
0
LINE
8
Calque 1
10
208.455478
20
155.271255
11
208.609059
21
159.829162
0
LINE
8
Calque 1
10
208.609059
20
159.829162
11
208.813460
21
184.182700
0
LINE
8
Calque 1
10
208.813460
20
184.182700
11
208.878674
21
209.156150
0
LINE
8
Calque 1
10
208.878674
20
209.156150
11
208.753744
21
213.136516
0
LINE
8
Calque 1
10
208.753744
20
213.136516
11
208.489440
21
214.678800
0
LINE
8
Calque 1
10
208.489440
20
214.678800
11
208.008300
21
216.267880
0
LINE
8
Calque 1
10
208.008300
20
216.267880
11
197.600000
21
216.268000
0
LINE
8
Calque 1
10
197.600000
20
216.268000
11
187.190000
21
216.268000
0
LINE
8
Calque 1
10
187.190000
20
216.268000
11
187.189880
21
224.668520
0
LINE
8
Calque 1
10
187.189880
20
224.668520
11
187.189770
21
233.069040
0
LINE
8
Calque 1
10
187.189770
20
233.069040
11
196.450300
21
232.996240
0
LINE
8
Calque 1
10
196.450300
20
232.996240
11
205.710830
21
232.923440
0
LINE
8
Calque 1
10
205.710830
20
232.923440
11
205.711000
21
235.708000
0
LINE
8
Calque 1
10
205.711000
20
235.708000
11
205.711000
21
238.493000
0
LINE
8
Calque 1
10
205.711000
20
238.493000
11
190.758000
21
238.493000
0
LINE
8
Calque 1
10
190.758000
20
238.493000
11
175.806000
21
238.493000
0
LINE
8
Calque 1
10
175.806000
20
238.493000
11
175.876000
21
246.496650
0
LINE
8
Calque 1
10
175.876000
20
246.496650
11
175.946000
21
254.500290
0
LINE
8
Calque 1
10
175.946000
20
254.500290
11
190.828800
21
254.568690
0
LINE
8
Calque 1
10
190.828800
20
254.568690
11
205.711600
21
254.637090
0
LINE
8
Calque 1
10
205.711600
20
254.637090
11
205.711000
21
257.281000
0
LINE
8
Calque 1
10
205.711000
20
257.281000
11
205.711000
21
259.924000
0
LINE
8
Calque 1
10
205.711000
20
259.924000
11
196.451000
21
259.924000
0
LINE
8
Calque 1
10
196.451000
20
259.924000
11
187.190000
21
259.924000
0
LINE
8
Calque 1
10
187.190000
20
259.924000
11
187.190000
21
268.256000
0
LINE
8
Calque 1
10
187.190000
20
268.256000
11
187.190000
21
276.587000
0
LINE
8
Calque 1
10
187.190000
20
276.587000
11
197.538300
21
276.656200
0
LINE
8
Calque 1
10
197.538300
20
276.656200
11
207.886600
21
276.725400
0
LINE
8
Calque 1
10
207.886600
20
276.725400
11
208.409260
21
278.126700
0
LINE
8
Calque 1
10
208.409260
20
278.126700
11
208.703909
21
279.494480
0
LINE
8
Calque 1
10
208.703909
20
279.494480
11
208.832691
21
283.517081
0
LINE
8
Calque 1
10
208.832691
20
283.517081
11
208.694950
21
311.464200
0
LINE
8
Calque 1
10
208.694950
20
311.464200
11
208.457970
21
343.400400
0
LINE
8
Calque 1
10
208.457970
20
343.400400
11
207.752620
21
345.517070
0
LINE
8
Calque 1
10
207.752620
20
345.517070
11
206.961029
21
347.517137
0
LINE
8
Calque 1
10
206.961029
20
347.517137
11
206.048320
21
349.353480
0
LINE
8
Calque 1
10
206.048320
20
349.353480
11
204.721041
21
351.192396
0
LINE
8
Calque 1
10
204.721041
20
351.192396
11
202.932700
21
353.198660
0
LINE
8
Calque 1
10
202.932700
20
353.198660
11
200.803465
21
355.101101
0
LINE
8
Calque 1
10
200.803465
20
355.101101
11
198.642940
21
356.448190
0
LINE
8
Calque 1
10
198.642940
20
356.448190
11
196.502990
21
357.397523
0
LINE
8
Calque 1
10
196.502990
20
357.397523
11
194.409600
21
358.101440
0
LINE
8
Calque 1
10
194.409600
20
358.101440
11
192.205886
21
358.499719
0
LINE
8
Calque 1
10
192.205886
20
358.499719
11
189.772410
21
358.688410
0
LINE
8
Calque 1
10
189.772410
20
358.688410
11
187.195460
21
358.746210
0
LINE
8
Calque 1
10
187.195460
20
358.746210
11
187.192460
21
370.189410
0
LINE
8
Calque 1
10
187.192460
20
370.189410
11
187.189460
21
381.632610
0
LINE
8
Calque 1
10
187.189460
20
381.632610
11
251.748000
21
381.633000
0
LINE
8
Calque 1
10
251.748000
20
381.633000
11
316.306000
21
381.633000
0
LINE
8
Calque 1
10
316.306000
20
381.633000
11
316.306000
21
370.296000
0
LINE
8
Calque 1
10
316.306000
20
370.296000
11
316.306000
21
358.958000
0
LINE
8
Calque 1
10
316.306000
20
358.958000
11
313.653420
21
358.796400
0
LINE
8
Calque 1
10
313.653420
20
358.796400
11
311.257396
21
358.555756
0
LINE
8
Calque 1
10
311.257396
20
358.555756
11
309.221650
21
358.204150
0
LINE
8
Calque 1
10
309.221650
20
358.204150
11
307.304464
21
357.579385
0
LINE
8
Calque 1
10
307.304464
20
357.579385
11
305.193500
21
356.682040
0
LINE
8
Calque 1
10
305.193500
20
356.682040
11
302.915145
21
355.337159
0
LINE
8
Calque 1
10
302.915145
20
355.337159
11
300.544810
21
353.199430
0
LINE
8
Calque 1
10
300.544810
20
353.199430
11
298.423421
21
350.865013
0
LINE
8
Calque 1
10
298.423421
20
350.865013
11
297.056330
21
348.684360
0
LINE
8
Calque 1
10
297.056330
20
348.684360
11
296.109401
21
346.603574
0
LINE
8
Calque 1
10
296.109401
20
346.603574
11
295.361620
21
344.583320
0
LINE
8
Calque 1
10
295.361620
20
344.583320
11
294.755650
21
342.606190
0
LINE
8
Calque 1
10
294.755650
20
342.606190
11
294.678250
21
310.988490
0
LINE
8
Calque 1
10
294.678250
20
310.988490
11
294.680829
21
283.514228
0
LINE
8
Calque 1
10
294.680829
20
283.514228
11
294.823106
21
279.428767
0
LINE
8
Calque 1
10
294.823106
20
279.428767
11
295.108080
21
278.047890
0
LINE
8
Calque 1
10
295.108080
20
278.047890
11
295.615270
21
276.724970
0
LINE
8
Calque 1
10
295.615270
20
276.724970
11
305.960570
21
276.655770
0
LINE
8
Calque 1
10
305.960570
20
276.655770
11
316.305870
21
276.586570
0
LINE
8
Calque 1
10
316.305870
20
276.586570
11
316.306000
21
268.256000
0
LINE
8
Calque 1
10
316.306000
20
268.256000
11
316.306000
21
259.924000
0
LINE
8
Calque 1
10
316.306000
20
259.924000
11
307.046000
21
259.924000
0
LINE
8
Calque 1
10
307.046000
20
259.924000
11
297.786000
21
259.924000
0
LINE
8
Calque 1
10
297.786000
20
259.924000
11
297.786000
21
257.278000
0
LINE
8
Calque 1
10
297.786000
20
257.278000
11
297.786000
21
254.633000
0
LINE
8
Calque 1
10
297.786000
20
254.633000
11
312.573000
21
254.633000
0
LINE
8
Calque 1
10
312.573000
20
254.633000
11
327.360000
21
254.633000
0
LINE
8
Calque 1
10
327.360000
20
254.633000
11
327.501700
21
253.773110
0
LINE
8
Calque 1
10
327.501700
20
253.773110
11
327.536100
21
250.796540
0
LINE
8
Calque 1
10
327.536100
20
250.796540
11
327.423840
21
243.586650
0
LINE
8
Calque 1
10
327.423840
20
243.586650
11
327.418840
21
238.493420
0
LINE
8
Calque 1
10
327.418840
20
238.493420
11
312.602000
21
238.493000
0
LINE
8
Calque 1
10
312.602000
20
238.493000
11
297.786000
21
238.493000
0
LINE
8
Calque 1
10
297.786000
20
238.493000
11
297.786000
21
235.715000
0
LINE
8
Calque 1
10
297.786000
20
235.715000
11
297.786000
21
232.937000
0
LINE
8
Calque 1
10
297.786000
20
232.937000
11
307.046000
21
232.937000
0
LINE
8
Calque 1
10
307.046000
20
232.937000
11
316.306000
21
232.937000
0
LINE
8
Calque 1
10
316.306000
20
232.937000
11
316.306000
21
224.606000
0
LINE
8
Calque 1
10
316.306000
20
224.606000
11
316.306000
21
216.274000
0
LINE
8
Calque 1
10
316.306000
20
216.274000
11
305.956100
21
216.204800
0
LINE
8
Calque 1
10
305.956100
20
216.204800
11
295.606200
21
216.135600
0
LINE
8
Calque 1
10
295.606200
20
216.135600
11
295.098440
21
214.842790
0
LINE
8
Calque 1
10
295.098440
20
214.842790
11
294.813342
21
213.521898
0
LINE
8
Calque 1
10
294.813342
20
213.521898
11
294.671336
21
209.701546
0
LINE
8
Calque 1
10
294.671336
20
209.701546
11
294.671920
21
184.151190
0
LINE
8
Calque 1
10
294.671920
20
184.151190
11
294.753120
21
154.752290
0
LINE
8
Calque 1
10
294.753120
20
154.752290
11
295.335360
21
152.689590
0
LINE
8
Calque 1
10
295.335360
20
152.689590
11
296.732190
21
148.920090
0
LINE
8
Calque 1
10
296.732190
20
148.920090
11
297.759290
21
147.146165
0
LINE
8
Calque 1
10
297.759290
20
147.146165
11
299.084800
21
145.277890
0
LINE
8
Calque 1
10
299.084800
20
145.277890
11
300.658630
21
143.544428
0
LINE
8
Calque 1
10
300.658630
20
143.544428
11
302.282740
21
142.094690
0
LINE
8
Calque 1
10
302.282740
20
142.094690
11
304.007949
21
140.951478
0
LINE
8
Calque 1
10
304.007949
20
140.951478
11
305.824830
21
139.955190
0
LINE
8
Calque 1
10
305.824830
20
139.955190
11
307.672765
21
139.198765
0
LINE
8
Calque 1
10
307.672765
20
139.198765
11
309.472640
21
138.632390
0
LINE
8
Calque 1
10
309.472640
20
138.632390
11
311.463764
21
138.310628
0
LINE
8
Calque 1
10
311.463764
20
138.310628
11
313.771500
21
138.142390
0
LINE
8
Calque 1
10
313.771500
20
138.142390
11
316.304710
21
138.083390
0
LINE
8
Calque 1
10
316.304710
20
138.083390
11
316.305240
21
126.507890
0
LINE
8
Calque 1
10
316.305240
20
126.507890
11
316.305770
21
114.932390
0
LINE
8
Calque 1
10
316.305770
20
114.932390
11
251.748000
21
114.933000
0
LINE
8
Calque 1
10
251.748000
20
114.933000
11
187.190000
21
114.933000
0
LINE
8
Calque 1
10
187.190000
20
114.933000
11
187.190000
21
126.542000
0
LINE
8
Calque 1
10
187.190000
20
126.542000
11
187.190000
21
126.542000
0
LINE
8
Calque 1
10
309.957000
20
126.671800
11
309.957000
21
132.062000
0
LINE
8
Calque 1
10
309.957000
20
132.062000
11
308.321610
21
132.383700
0
LINE
8
Calque 1
10
308.321610
20
132.383700
11
305.345050
21
133.231400
0
LINE
8
Calque 1
10
305.345050
20
133.231400
11
302.448370
21
134.544900
0
LINE
8
Calque 1
10
302.448370
20
134.544900
11
299.280360
21
136.427500
0
LINE
8
Calque 1
10
299.280360
20
136.427500
11
297.614873
21
137.727538
0
LINE
8
Calque 1
10
297.614873
20
137.727538
11
295.874970
21
139.315500
0
LINE
8
Calque 1
10
295.874970
20
139.315500
11
294.182958
21
141.234875
0
LINE
8
Calque 1
10
294.182958
20
141.234875
11
292.632620
21
143.332000
0
LINE
8
Calque 1
10
292.632620
20
143.332000
11
291.364384
21
145.513225
0
LINE
8
Calque 1
10
291.364384
20
145.513225
11
290.350600
21
147.634900
0
LINE
8
Calque 1
10
290.350600
20
147.634900
11
289.607429
21
149.804550
0
LINE
8
Calque 1
10
289.607429
20
149.804550
11
288.989800
21
152.101100
0
LINE
8
Calque 1
10
288.989800
20
152.101100
11
288.692989
21
153.984966
0
LINE
8
Calque 1
10
288.692989
20
153.984966
11
288.514403
21
157.620100
0
LINE
8
Calque 1
10
288.514403
20
157.620100
11
288.295220
21
178.325100
0
LINE
8
Calque 1
10
288.295220
20
178.325100
11
288.128870
21
202.162100
0
LINE
8
Calque 1
10
288.128870
20
202.162100
11
286.577400
21
200.417820
0
LINE
8
Calque 1
10
286.577400
20
200.417820
11
282.740940
21
196.601580
0
LINE
8
Calque 1
10
282.740940
20
196.601580
11
280.272236
21
194.566182
0
LINE
8
Calque 1
10
280.272236
20
194.566182
11
277.545540
21
192.582130
0
LINE
8
Calque 1
10
277.545540
20
192.582130
11
274.596261
21
190.778001
0
LINE
8
Calque 1
10
274.596261
20
190.778001
11
271.592420
21
189.175180
0
LINE
8
Calque 1
10
271.592420
20
189.175180
11
268.718918
21
187.908456
0
LINE
8
Calque 1
10
268.718918
20
187.908456
11
266.083030
21
186.912310
0
LINE
8
Calque 1
10
266.083030
20
186.912310
11
261.055940
21
185.577410
0
LINE
8
Calque 1
10
261.055940
20
185.577410
11
255.122100
21
184.745610
0
LINE
8
Calque 1
10
255.122100
20
184.745610
11
251.726835
21
184.577598
0
LINE
8
Calque 1
10
251.726835
20
184.577598
11
248.276040
21
184.746110
0
LINE
8
Calque 1
10
248.276040
20
184.746110
11
244.921220
21
185.160985
0
LINE
8
Calque 1
10
244.921220
20
185.160985
11
241.731850
21
185.735910
0
LINE
8
Calque 1
10
241.731850
20
185.735910
11
236.274790
21
187.288510
0
LINE
8
Calque 1
10
236.274790
20
187.288510
11
231.904910
21
189.096760
0
LINE
8
Calque 1
10
231.904910
20
189.096760
11
227.708830
21
191.387660
0
LINE
8
Calque 1
10
227.708830
20
191.387660
11
223.872380
21
193.966110
0
LINE
8
Calque 1
10
223.872380
20
193.966110
11
220.066410
21
197.157760
0
LINE
8
Calque 1
10
220.066410
20
197.157760
11
218.156281
21
198.996710
0
LINE
8
Calque 1
10
218.156281
20
198.996710
11
216.626830
21
200.666340
0
LINE
8
Calque 1
10
216.626830
20
200.666340
11
215.177880
21
202.230420
0
LINE
8
Calque 1
10
215.177880
20
202.230420
11
215.020589
21
195.032283
0
LINE
8
Calque 1
10
215.020589
20
195.032283
11
214.910030
21
177.705320
0
LINE
8
Calque 1
10
214.910030
20
177.705320
11
214.832730
21
153.165220
0
LINE
8
Calque 1
10
214.832730
20
153.165220
11
214.240800
21
151.072820
0
LINE
8
Calque 1
10
214.240800
20
151.072820
11
212.779890
21
146.970420
0
LINE
8
Calque 1
10
212.779890
20
146.970420
11
210.863250
21
143.374320
0
LINE
8
Calque 1
10
210.863250
20
143.374320
11
209.503958
21
141.606832
0
LINE
8
Calque 1
10
209.503958
20
141.606832
11
207.707070
21
139.584720
0
LINE
8
Calque 1
10
207.707070
20
139.584720
11
205.593271
21
137.613870
0
LINE
8
Calque 1
10
205.593271
20
137.613870
11
203.472040
21
135.969720
0
LINE
8
Calque 1
10
203.472040
20
135.969720
11
199.846580
21
133.898220
0
LINE
8
Calque 1
10
199.846580
20
133.898220
11
195.943980
21
132.622420
0
LINE
8
Calque 1
10
195.943980
20
132.622420
11
193.540320
21
132.006720
0
LINE
8
Calque 1
10
193.540320
20
132.006720
11
193.540000
21
126.644000
0
LINE
8
Calque 1
10
193.540000
20
126.644000
11
193.540000
21
121.283000
0
LINE
8
Calque 1
10
193.540000
20
121.283000
11
251.749000
21
121.283000
0
LINE
8
Calque 1
10
251.749000
20
121.283000
11
309.957000
21
121.283000
0
LINE
8
Calque 1
10
309.957000
20
121.283000
11
309.957000
21
126.672000
0
LINE
8
Calque 1
10
309.957000
20
126.672000
11
309.957000
21
126.671800
0
LINE
8
Calque 1
10
197.205000
20
126.573800
11
197.138900
21
128.486800
0
LINE
8
Calque 1
10
197.138900
20
128.486800
11
197.780830
21
128.956600
0
LINE
8
Calque 1
10
197.780830
20
128.956600
11
199.361400
21
129.628900
0
LINE
8
Calque 1
10
199.361400
20
129.628900
11
203.065570
21
131.191600
0
LINE
8
Calque 1
10
203.065570
20
131.191600
11
205.868510
21
132.797900
0
LINE
8
Calque 1
10
205.868510
20
132.797900
11
209.086050
21
135.267400
0
LINE
8
Calque 1
10
209.086050
20
135.267400
11
210.919053
21
137.086325
0
LINE
8
Calque 1
10
210.919053
20
137.086325
11
212.700380
21
139.199700
0
LINE
8
Calque 1
10
212.700380
20
139.199700
11
214.196531
21
141.345525
0
LINE
8
Calque 1
10
214.196531
20
141.345525
11
215.343910
21
143.242500
0
LINE
8
Calque 1
10
215.343910
20
143.242500
11
217.031400
21
147.211300
0
LINE
8
Calque 1
10
217.031400
20
147.211300
11
217.714001
21
149.532200
0
LINE
8
Calque 1
10
217.714001
20
149.532200
11
218.247930
21
151.954200
0
LINE
8
Calque 1
10
218.247930
20
151.954200
11
218.470756
21
153.978608
0
LINE
8
Calque 1
10
218.470756
20
153.978608
11
218.600575
21
157.683138
0
LINE
8
Calque 1
10
218.600575
20
157.683138
11
218.675990
21
175.303700
0
LINE
8
Calque 1
10
218.675990
20
175.303700
11
218.740160
21
190.032888
0
LINE
8
Calque 1
10
218.740160
20
190.032888
11
218.894450
21
196.159200
0
LINE
8
Calque 1
10
218.894450
20
196.159200
11
219.754350
21
195.470750
0
LINE
8
Calque 1
10
219.754350
20
195.470750
11
222.777030
21
192.994870
0
LINE
8
Calque 1
10
222.777030
20
192.994870
11
227.671820
21
189.712410
0
LINE
8
Calque 1
10
227.671820
20
189.712410
11
230.263085
21
188.312273
0
LINE
8
Calque 1
10
230.263085
20
188.312273
11
232.963490
21
187.045410
0
LINE
8
Calque 1
10
232.963490
20
187.045410
11
238.098200
21
185.192010
0
LINE
8
Calque 1
10
238.098200
20
185.192010
11
243.125280
21
183.930410
0
LINE
8
Calque 1
10
243.125280
20
183.930410
11
246.374726
21
183.452373
0
LINE
8
Calque 1
10
246.374726
20
183.452373
11
251.748900
21
183.349410
0
LINE
8
Calque 1
10
251.748900
20
183.349410
11
257.290164
21
183.459635
0
LINE
8
Calque 1
10
257.290164
20
183.459635
11
259.058339
21
183.672538
0
LINE
8
Calque 1
10
259.058339
20
183.672538
11
261.024760
21
184.056610
0
LINE
8
Calque 1
10
261.024760
20
184.056610
11
264.182985
21
184.838623
0
LINE
8
Calque 1
10
264.182985
20
184.838623
11
267.110180
21
185.724510
0
LINE
8
Calque 1
10
267.110180
20
185.724510
11
272.650630
21
188.035610
0
LINE
8
Calque 1
10
272.650630
20
188.035610
11
275.389745
21
189.510814
0
LINE
8
Calque 1
10
275.389745
20
189.510814
11
278.074590
21
191.160010
0
LINE
8
Calque 1
10
278.074590
20
191.160010
11
282.636850
21
194.546150
0
LINE
8
Calque 1
10
282.636850
20
194.546150
11
284.662690
21
196.159200
0
LINE
8
Calque 1
10
284.662690
20
196.159200
11
284.807520
21
175.100000
0
LINE
8
Calque 1
10
284.807520
20
175.100000
11
284.911280
21
157.612275
0
LINE
8
Calque 1
10
284.911280
20
157.612275
11
285.037436
21
153.758581
0
LINE
8
Calque 1
10
285.037436
20
153.758581
11
285.238960
21
151.767700
0
LINE
8
Calque 1
10
285.238960
20
151.767700
11
286.306010
21
147.496700
0
LINE
8
Calque 1
10
286.306010
20
147.496700
11
288.079010
21
143.378500
0
LINE
8
Calque 1
10
288.079010
20
143.378500
11
289.308104
21
141.282688
0
LINE
8
Calque 1
10
289.308104
20
141.282688
11
290.715180
21
139.221300
0
LINE
8
Calque 1
10
290.715180
20
139.221300
11
292.281439
21
137.344325
0
LINE
8
Calque 1
10
292.281439
20
137.344325
11
293.893230
21
135.691900
0
LINE
8
Calque 1
10
293.893230
20
135.691900
11
297.712870
21
132.748400
0
LINE
8
Calque 1
10
297.712870
20
132.748400
11
299.970356
21
131.430413
0
LINE
8
Calque 1
10
299.970356
20
131.430413
11
302.343080
21
130.299400
0
LINE
8
Calque 1
10
302.343080
20
130.299400
11
305.525470
21
129.123200
0
LINE
8
Calque 1
10
305.525470
20
129.123200
11
305.939963
21
128.985144
0
LINE
8
Calque 1
10
305.939963
20
128.985144
11
306.156653
21
128.706275
0
LINE
8
Calque 1
10
306.156653
20
128.706275
11
306.253070
21
126.965600
0
LINE
8
Calque 1
10
306.253070
20
126.965600
11
306.253000
21
124.987000
0
LINE
8
Calque 1
10
306.253000
20
124.987000
11
251.749000
21
124.987000
0
LINE
8
Calque 1
10
251.749000
20
124.987000
11
197.245000
21
124.987000
0
LINE
8
Calque 1
10
197.245000
20
124.987000
11
197.205000
21
126.573800
0
LINE
8
Calque 1
10
258.667900
20
191.381700
11
261.604736
21
192.027898
0
LINE
8
Calque 1
10
261.604736
20
192.027898
11
264.448880
21
192.859480
0
LINE
8
Calque 1
10
264.448880
20
192.859480
11
267.239390
21
193.969041
0
LINE
8
Calque 1
10
267.239390
20
193.969041
11
270.047300
21
195.283570
0
LINE
8
Calque 1
10
270.047300
20
195.283570
11
272.842817
21
196.918741
0
LINE
8
Calque 1
10
272.842817
20
196.918741
11
275.603550
21
198.799200
0
LINE
8
Calque 1
10
275.603550
20
198.799200
11
278.138530
21
200.881853
0
LINE
8
Calque 1
10
278.138530
20
200.881853
11
280.391300
21
203.003130
0
LINE
8
Calque 1
10
280.391300
20
203.003130
11
282.343139
21
205.200619
0
LINE
8
Calque 1
10
282.343139
20
205.200619
11
284.154600
21
207.466500
0
LINE
8
Calque 1
10
284.154600
20
207.466500
11
285.788160
21
209.918811
0
LINE
8
Calque 1
10
285.788160
20
209.918811
11
287.312280
21
212.564510
0
LINE
8
Calque 1
10
287.312280
20
212.564510
11
288.577020
21
215.256717
0
LINE
8
Calque 1
10
288.577020
20
215.256717
11
289.586970
21
217.820840
0
LINE
8
Calque 1
10
289.586970
20
217.820840
11
290.838140
21
222.183250
0
LINE
8
Calque 1
10
290.838140
20
222.183250
11
291.060818
21
223.915628
0
LINE
8
Calque 1
10
291.060818
20
223.915628
11
291.203469
21
227.509315
0
LINE
8
Calque 1
10
291.203469
20
227.509315
11
291.361580
21
245.256850
0
LINE
8
Calque 1
10
291.361580
20
245.256850
11
291.370739
21
263.022575
0
LINE
8
Calque 1
10
291.370739
20
263.022575
11
291.265028
21
266.931972
0
LINE
8
Calque 1
10
291.265028
20
266.931972
11
291.066450
21
269.088750
0
LINE
8
Calque 1
10
291.066450
20
269.088750
11
290.541970
21
271.730298
0
LINE
8
Calque 1
10
290.541970
20
271.730298
11
289.836950
21
274.363010
0
LINE
8
Calque 1
10
289.836950
20
274.363010
11
288.873445
21
276.995130
0
LINE
8
Calque 1
10
288.873445
20
276.995130
11
287.727480
21
279.635260
0
LINE
8
Calque 1
10
287.727480
20
279.635260
11
285.207120
21
284.133170
0
LINE
8
Calque 1
10
285.207120
20
284.133170
11
282.523490
21
287.754850
0
LINE
8
Calque 1
10
282.523490
20
287.754850
11
279.310930
21
291.197380
0
LINE
8
Calque 1
10
279.310930
20
291.197380
11
275.855100
21
294.164920
0
LINE
8
Calque 1
10
275.855100
20
294.164920
11
272.022750
21
296.685090
0
LINE
8
Calque 1
10
272.022750
20
296.685090
11
267.734890
21
298.877450
0
LINE
8
Calque 1
10
267.734890
20
298.877450
11
262.899030
21
300.645740
0
LINE
8
Calque 1
10
262.899030
20
300.645740
11
260.121375
21
301.340487
0
LINE
8
Calque 1
10
260.121375
20
301.340487
11
257.231760
21
301.885340
0
LINE
8
Calque 1
10
257.231760
20
301.885340
11
254.044115
21
302.194720
0
LINE
8
Calque 1
10
254.044115
20
302.194720
11
250.293670
21
302.172210
0
LINE
8
Calque 1
10
250.293670
20
302.172210
11
246.740454
21
301.918454
0
LINE
8
Calque 1
10
246.740454
20
301.918454
11
243.869100
21
301.496510
0
LINE
8
Calque 1
10
243.869100
20
301.496510
11
239.238900
21
300.260500
0
LINE
8
Calque 1
10
239.238900
20
300.260500
11
234.401720
21
298.278510
0
LINE
8
Calque 1
10
234.401720
20
298.278510
11
231.787755
21
296.894271
0
LINE
8
Calque 1
10
231.787755
20
296.894271
11
229.242340
21
295.350200
0
LINE
8
Calque 1
10
229.242340
20
295.350200
11
226.564660
21
293.292840
0
LINE
8
Calque 1
10
226.564660
20
293.292840
11
223.553680
21
290.500240
0
LINE
8
Calque 1
10
223.553680
20
290.500240
11
220.759886
21
287.487911
0
LINE
8
Calque 1
10
220.759886
20
287.487911
11
218.700740
21
284.807120
0
LINE
8
Calque 1
10
218.700740
20
284.807120
11
215.904470
21
280.044620
0
LINE
8
Calque 1
10
215.904470
20
280.044620
11
213.964930
21
275.382050
0
LINE
8
Calque 1
10
213.964930
20
275.382050
11
212.692030
21
271.016420
0
LINE
8
Calque 1
10
212.692030
20
271.016420
11
212.437198
21
269.340728
0
LINE
8
Calque 1
10
212.437198
20
269.340728
11
212.283933
21
265.939495
0
LINE
8
Calque 1
10
212.283933
20
265.939495
11
212.132050
21
247.717320
0
LINE
8
Calque 1
10
212.132050
20
247.717320
11
212.130946
21
229.862345
0
LINE
8
Calque 1
10
212.130946
20
229.862345
11
212.237225
21
225.914426
0
LINE
8
Calque 1
10
212.237225
20
225.914426
11
212.434020
21
223.753120
0
LINE
8
Calque 1
10
212.434020
20
223.753120
11
212.958461
21
221.124431
0
LINE
8
Calque 1
10
212.958461
20
221.124431
11
213.667200
21
218.497070
0
LINE
8
Calque 1
10
213.667200
20
218.497070
11
214.649383
21
215.864950
0
LINE
8
Calque 1
10
214.649383
20
215.864950
11
215.831230
21
213.224820
0
LINE
8
Calque 1
10
215.831230
20
213.224820
11
218.481070
21
208.594610
0
LINE
8
Calque 1
10
218.481070
20
208.594610
11
221.506350
21
204.589790
0
LINE
8
Calque 1
10
221.506350
20
204.589790
11
223.304251
21
202.653159
0
LINE
8
Calque 1
10
223.304251
20
202.653159
11
225.240370
21
200.834240
0
LINE
8
Calque 1
10
225.240370
20
200.834240
11
228.730120
21
198.068520
0
LINE
8
Calque 1
10
228.730120
20
198.068520
11
232.037590
21
195.946120
0
LINE
8
Calque 1
10
232.037590
20
195.946120
11
236.535510
21
193.776060
0
LINE
8
Calque 1
10
236.535510
20
193.776060
11
239.144635
21
192.822770
0
LINE
8
Calque 1
10
239.144635
20
192.822770
11
241.702460
21
192.045010
0
LINE
8
Calque 1
10
241.702460
20
192.045010
11
245.803500
21
191.162160
0
LINE
8
Calque 1
10
245.803500
20
191.162160
11
251.524150
21
190.899790
0
LINE
8
Calque 1
10
251.524150
20
190.899790
11
255.407166
21
190.991356
0
LINE
8
Calque 1
10
255.407166
20
190.991356
11
258.667900
21
191.381700
0
LINE
8
Calque 1
10
258.667900
20
191.381700
11
258.667900
21
191.381700
0
LINE
8
Calque 1
10
240.799400
20
203.971500
11
240.497407
21
204.470561
0
LINE
8
Calque 1
10
240.497407
20
204.470561
11
240.371800
21
205.069980
0
LINE
8
Calque 1
10
240.371800
20
205.069980
11
240.600441
21
206.022856
0
LINE
8
Calque 1
10
240.600441
20
206.022856
11
241.150150
21
207.371740
0
LINE
8
Calque 1
10
241.150150
20
207.371740
11
241.894732
21
208.706624
0
LINE
8
Calque 1
10
241.894732
20
208.706624
11
242.591900
21
209.625850
0
LINE
8
Calque 1
10
242.591900
20
209.625850
11
243.178294
21
210.024004
0
LINE
8
Calque 1
10
243.178294
20
210.024004
11
243.653230
21
210.096380
0
LINE
8
Calque 1
10
243.653230
20
210.096380
11
244.134770
21
209.685564
0
LINE
8
Calque 1
10
244.134770
20
209.685564
11
244.733700
21
208.912310
0
LINE
8
Calque 1
10
244.733700
20
208.912310
11
245.246276
21
207.926485
0
LINE
8
Calque 1
10
245.246276
20
207.926485
11
245.114640
21
207.113310
0
LINE
8
Calque 1
10
245.114640
20
207.113310
11
244.642950
21
205.022760
0
LINE
8
Calque 1
10
244.642950
20
205.022760
11
244.472840
21
203.699840
0
LINE
8
Calque 1
10
244.472840
20
203.699840
11
242.849920
21
203.621840
0
LINE
8
Calque 1
10
242.849920
20
203.621840
11
241.487921
21
203.654219
0
LINE
8
Calque 1
10
241.487921
20
203.654219
11
240.799400
21
203.971470
0
LINE
8
Calque 1
10
240.799400
20
203.971470
11
240.799400
21
203.971500
0
LINE
8
Calque 1
10
246.156020
20
203.836800
11
245.800544
21
204.212114
0
LINE
8
Calque 1
10
245.800544
20
204.212114
11
245.554620
21
204.758960
0
LINE
8
Calque 1
10
245.554620
20
204.758960
11
245.638271
21
205.725561
0
LINE
8
Calque 1
10
245.638271
20
205.725561
11
246.271260
21
207.342030
0
LINE
8
Calque 1
10
246.271260
20
207.342030
11
247.607920
21
209.707870
0
LINE
8
Calque 1
10
247.607920
20
209.707870
11
248.039155
21
209.983987
0
LINE
8
Calque 1
10
248.039155
20
209.983987
11
248.441080
21
210.013430
0
LINE
8
Calque 1
10
248.441080
20
210.013430
11
249.062336
21
209.359760
0
LINE
8
Calque 1
10
249.062336
20
209.359760
11
250.020920
21
207.993470
0
LINE
8
Calque 1
10
250.020920
20
207.993470
11
250.950785
21
206.315258
0
LINE
8
Calque 1
10
250.950785
20
206.315258
11
251.219720
21
205.117540
0
LINE
8
Calque 1
10
251.219720
20
205.117540
11
251.101719
21
204.283264
0
LINE
8
Calque 1
10
251.101719
20
204.283264
11
250.707950
21
203.841440
0
LINE
8
Calque 1
10
250.707950
20
203.841440
11
249.816776
21
203.650369
0
LINE
8
Calque 1
10
249.816776
20
203.650369
11
248.392840
21
203.575600
0
LINE
8
Calque 1
10
248.392840
20
203.575600
11
246.991901
21
203.655485
0
LINE
8
Calque 1
10
246.991901
20
203.655485
11
246.156020
21
203.836800
0
LINE
8
Calque 1
10
246.156020
20
203.836800
11
246.156020
21
203.836800
0
LINE
8
Calque 1
10
252.608780
20
203.737900
11
252.370001
21
204.172116
0
LINE
8
Calque 1
10
252.370001
20
204.172116
11
252.278050
21
205.078780
0
LINE
8
Calque 1
10
252.278050
20
205.078780
11
252.461890
21
206.318706
0
LINE
8
Calque 1
10
252.461890
20
206.318706
11
253.056730
21
207.642280
0
LINE
8
Calque 1
10
253.056730
20
207.642280
11
254.533470
21
209.658870
0
LINE
8
Calque 1
10
254.533470
20
209.658870
11
255.231520
21
210.314460
0
LINE
8
Calque 1
10
255.231520
20
210.314460
11
255.950350
21
209.510140
0
LINE
8
Calque 1
10
255.950350
20
209.510140
11
256.676184
21
208.428785
0
LINE
8
Calque 1
10
256.676184
20
208.428785
11
257.411850
21
206.958390
0
LINE
8
Calque 1
10
257.411850
20
206.958390
11
257.977905
21
205.369624
0
LINE
8
Calque 1
10
257.977905
20
205.369624
11
257.966517
21
204.912689
0
LINE
8
Calque 1
10
257.966517
20
204.912689
11
257.793180
21
204.455400
0
LINE
8
Calque 1
10
257.793180
20
204.455400
11
257.545051
21
204.025702
0
LINE
8
Calque 1
10
257.545051
20
204.025702
11
257.178375
21
203.794726
0
LINE
8
Calque 1
10
257.178375
20
203.794726
11
255.185670
21
203.649700
0
LINE
8
Calque 1
10
255.185670
20
203.649700
11
252.608780
21
203.737900
0
LINE
8
Calque 1
10
252.608780
20
203.737900
11
252.608780
21
203.737900
0
LINE
8
Calque 1
10
258.892640
20
204.446490
11
258.476940
21
206.545390
0
LINE
8
Calque 1
10
258.476940
20
206.545390
11
258.207256
21
207.644351
0
LINE
8
Calque 1
10
258.207256
20
207.644351
11
258.377740
21
208.378460
0
LINE
8
Calque 1
10
258.377740
20
208.378460
11
259.236430
21
209.586850
0
LINE
8
Calque 1
10
259.236430
20
209.586850
11
259.724107
21
210.007287
0
LINE
8
Calque 1
10
259.724107
20
210.007287
11
260.135180
21
210.182160
0
LINE
8
Calque 1
10
260.135180
20
210.182160
11
260.678875
21
209.730541
0
LINE
8
Calque 1
10
260.678875
20
209.730541
11
261.485400
21
208.644730
0
LINE
8
Calque 1
10
261.485400
20
208.644730
11
262.844940
21
205.998740
0
LINE
8
Calque 1
10
262.844940
20
205.998740
11
263.070240
21
204.984410
0
LINE
8
Calque 1
10
263.070240
20
204.984410
11
262.909440
21
204.228890
0
LINE
8
Calque 1
10
262.909440
20
204.228890
11
262.696612
21
203.866546
0
LINE
8
Calque 1
10
262.696612
20
203.866546
11
262.371780
21
203.668000
0
LINE
8
Calque 1
10
262.371780
20
203.668000
11
260.750370
21
203.567580
0
LINE
8
Calque 1
10
260.750370
20
203.567580
11
258.892000
21
203.568000
0
LINE
8
Calque 1
10
258.892000
20
203.568000
11
258.892640
21
204.446490
0
LINE
8
Calque 1
10
237.034840
20
206.462410
11
237.495560
21
209.637410
0
LINE
8
Calque 1
10
237.495560
20
209.637410
11
237.808905
21
210.209008
0
LINE
8
Calque 1
10
237.808905
20
210.209008
11
238.166080
21
210.446750
0
LINE
8
Calque 1
10
238.166080
20
210.446750
11
239.047840
21
210.182700
0
LINE
8
Calque 1
10
239.047840
20
210.182700
11
240.100150
21
209.133700
0
LINE
8
Calque 1
10
240.100150
20
209.133700
11
240.659090
21
208.348750
0
LINE
8
Calque 1
10
240.659090
20
208.348750
11
240.085140
21
207.014570
0
LINE
8
Calque 1
10
240.085140
20
207.014570
11
239.414873
21
205.839711
0
LINE
8
Calque 1
10
239.414873
20
205.839711
11
238.609350
21
204.888570
0
LINE
8
Calque 1
10
238.609350
20
204.888570
11
237.847399
21
204.329347
0
LINE
8
Calque 1
10
237.847399
20
204.329347
11
237.281880
21
204.096750
0
LINE
8
Calque 1
10
237.281880
20
204.096750
11
237.064060
21
204.175085
0
LINE
8
Calque 1
10
237.064060
20
204.175085
11
236.959959
21
204.502782
0
LINE
8
Calque 1
10
236.959959
20
204.502782
11
237.034840
21
206.462410
0
LINE
8
Calque 1
10
237.034840
20
206.462410
11
237.034840
21
206.462410
0
LINE
8
Calque 1
10
264.654040
20
204.693380
11
263.989199
21
205.462630
0
LINE
8
Calque 1
10
263.989199
20
205.462630
11
263.403070
21
206.478000
0
LINE
8
Calque 1
10
263.403070
20
206.478000
11
262.867200
21
208.158100
0
LINE
8
Calque 1
10
262.867200
20
208.158100
11
263.127421
21
208.768049
0
LINE
8
Calque 1
10
263.127421
20
208.768049
11
263.760970
21
209.547160
0
LINE
8
Calque 1
10
263.760970
20
209.547160
11
264.508177
21
210.182494
0
LINE
8
Calque 1
10
264.508177
20
210.182494
11
265.041410
21
210.446750
0
LINE
8
Calque 1
10
265.041410
20
210.446750
11
265.412977
21
210.233016
0
LINE
8
Calque 1
10
265.412977
20
210.233016
11
265.771480
21
209.719140
0
LINE
8
Calque 1
10
265.771480
20
209.719140
11
266.053846
21
208.486349
0
LINE
8
Calque 1
10
266.053846
20
208.486349
11
266.242380
21
206.544140
0
LINE
8
Calque 1
10
266.242380
20
206.544140
11
266.269147
21
204.474009
0
LINE
8
Calque 1
10
266.269147
20
204.474009
11
266.136048
21
204.162260
0
LINE
8
Calque 1
10
266.136048
20
204.162260
11
265.869510
21
204.098060
0
LINE
8
Calque 1
10
265.869510
20
204.098060
11
265.308451
21
204.273507
0
LINE
8
Calque 1
10
265.308451
20
204.273507
11
264.654040
21
204.693380
0
LINE
8
Calque 1
10
264.654040
20
204.693380
11
264.654040
21
204.693380
0
LINE
8
Calque 1
10
234.220240
20
204.687380
11
233.500053
21
204.854501
0
LINE
8
Calque 1
10
233.500053
20
204.854501
11
233.126240
21
205.048426
0
LINE
8
Calque 1
10
233.126240
20
205.048426
11
232.985235
21
205.386518
0
LINE
8
Calque 1
10
232.985235
20
205.386518
11
232.963470
21
205.986140
0
LINE
8
Calque 1
10
232.963470
20
205.986140
11
233.154816
21
207.101669
0
LINE
8
Calque 1
10
233.154816
20
207.101669
11
233.624570
21
208.329270
0
LINE
8
Calque 1
10
233.624570
20
208.329270
11
234.235006
21
209.327471
0
LINE
8
Calque 1
10
234.235006
20
209.327471
11
234.774290
21
209.895390
0
LINE
8
Calque 1
10
234.774290
20
209.895390
11
235.281637
21
210.004938
0
LINE
8
Calque 1
10
235.281637
20
210.004938
11
235.832980
21
209.757590
0
LINE
8
Calque 1
10
235.832980
20
209.757590
11
236.283620
21
209.187669
0
LINE
8
Calque 1
10
236.283620
20
209.187669
11
236.383440
21
208.116530
0
LINE
8
Calque 1
10
236.383440
20
208.116530
11
236.185000
21
205.705670
0
LINE
8
Calque 1
10
236.185000
20
205.705670
11
235.980965
21
204.863927
0
LINE
8
Calque 1
10
235.980965
20
204.863927
11
235.741590
21
204.481860
0
LINE
8
Calque 1
10
235.741590
20
204.481860
11
234.220240
21
204.687380
0
LINE
8
Calque 1
10
234.220240
20
204.687380
11
234.220240
21
204.687380
0
LINE
8
Calque 1
10
267.262940
20
205.588770
11
267.094690
21
208.061310
0
LINE
8
Calque 1
10
267.094690
20
208.061310
11
267.212166
21
209.124219
0
LINE
8
Calque 1
10
267.212166
20
209.124219
11
267.601840
21
209.765260
0
LINE
8
Calque 1
10
267.601840
20
209.765260
11
268.107225
21
210.066368
0
LINE
8
Calque 1
10
268.107225
20
210.066368
11
268.607990
21
209.957180
0
LINE
8
Calque 1
10
268.607990
20
209.957180
11
269.170041
21
209.383410
0
LINE
8
Calque 1
10
269.170041
20
209.383410
11
269.820630
21
208.378930
0
LINE
8
Calque 1
10
269.820630
20
208.378930
11
270.342570
21
207.133399
0
LINE
8
Calque 1
10
270.342570
20
207.133399
11
270.534270
21
206.000990
0
LINE
8
Calque 1
10
270.534270
20
206.000990
11
270.534000
21
204.935000
0
LINE
8
Calque 1
10
270.534000
20
204.935000
11
269.198060
21
204.648490
0
LINE
8
Calque 1
10
269.198060
20
204.648490
11
267.646520
21
204.361980
0
LINE
8
Calque 1
10
267.646520
20
204.361980
11
267.444834
21
204.722574
0
LINE
8
Calque 1
10
267.444834
20
204.722574
11
267.262670
21
205.589530
0
LINE
8
Calque 1
10
267.262670
20
205.589530
11
267.262940
21
205.588770
0
LINE
8
Calque 1
10
230.758540
20
205.066780
11
230.582150
21
206.089430
0
LINE
8
Calque 1
10
230.582150
20
206.089430
11
230.747595
21
206.897430
0
LINE
8
Calque 1
10
230.747595
20
206.897430
11
231.145360
21
207.651700
0
LINE
8
Calque 1
10
231.145360
20
207.651700
11
231.633346
21
208.121835
0
LINE
8
Calque 1
10
231.633346
20
208.121835
11
231.972090
21
208.104200
0
LINE
8
Calque 1
10
231.972090
20
208.104200
11
232.112460
21
207.507513
0
LINE
8
Calque 1
10
232.112460
20
207.507513
11
232.051290
21
206.365530
0
LINE
8
Calque 1
10
232.051290
20
206.365530
11
231.809371
21
205.192067
0
LINE
8
Calque 1
10
231.809371
20
205.192067
11
231.637072
21
204.957421
0
LINE
8
Calque 1
10
231.637072
20
204.957421
11
231.400960
21
204.890390
0
LINE
8
Calque 1
10
231.400960
20
204.890390
11
230.758540
21
205.066780
0
LINE
8
Calque 1
10
230.758540
20
205.066780
11
230.758540
21
205.066780
0
LINE
8
Calque 1
10
271.468940
20
206.367870
11
271.451140
21
208.012160
0
LINE
8
Calque 1
10
271.451140
20
208.012160
11
271.701212
21
208.047368
0
LINE
8
Calque 1
10
271.701212
20
208.047368
11
272.068270
21
207.897820
0
LINE
8
Calque 1
10
272.068270
20
207.897820
11
272.456224
21
207.424006
0
LINE
8
Calque 1
10
272.456224
20
207.424006
11
272.756570
21
206.679630
0
LINE
8
Calque 1
10
272.756570
20
206.679630
11
272.876605
21
205.892681
0
LINE
8
Calque 1
10
272.876605
20
205.892681
11
272.831070
21
205.316490
0
LINE
8
Calque 1
10
272.831070
20
205.316490
11
272.566672
21
205.015555
0
LINE
8
Calque 1
10
272.566672
20
205.015555
11
272.160570
21
204.890390
0
LINE
8
Calque 1
10
272.160570
20
204.890390
11
271.897933
21
204.950342
0
LINE
8
Calque 1
10
271.897933
20
204.950342
11
271.715337
21
205.173385
0
LINE
8
Calque 1
10
271.715337
20
205.173385
11
271.468990
21
206.367870
0
LINE
8
Calque 1
10
271.468990
20
206.367870
11
271.468940
21
206.367870
0
LINE
8
Calque 1
10
250.958840
20
208.322620
11
249.603140
21
210.306990
0
LINE
8
Calque 1
10
249.603140
20
210.306990
11
248.837525
21
210.987403
0
LINE
8
Calque 1
10
248.837525
20
210.987403
11
248.163020
21
211.240390
0
LINE
8
Calque 1
10
248.163020
20
211.240390
11
247.514799
21
210.990644
0
LINE
8
Calque 1
10
247.514799
20
210.990644
11
246.812060
21
210.248200
0
LINE
8
Calque 1
10
246.812060
20
210.248200
11
245.987240
21
209.128160
0
LINE
8
Calque 1
10
245.987240
20
209.128160
11
244.962400
21
210.120340
0
LINE
8
Calque 1
10
244.962400
20
210.120340
11
244.113787
21
210.952668
0
LINE
8
Calque 1
10
244.113787
20
210.952668
11
243.419930
21
211.240390
0
LINE
8
Calque 1
10
243.419930
20
211.240390
11
242.747294
21
210.981433
0
LINE
8
Calque 1
10
242.747294
20
210.981433
11
241.973640
21
210.290310
0
LINE
8
Calque 1
10
241.973640
20
210.290310
11
241.139470
21
209.340240
0
LINE
8
Calque 1
10
241.139470
20
209.340240
11
239.840900
21
210.554900
0
LINE
8
Calque 1
10
239.840900
20
210.554900
11
238.809790
21
211.412748
0
LINE
8
Calque 1
10
238.809790
20
211.412748
11
238.154250
21
211.769550
0
LINE
8
Calque 1
10
238.154250
20
211.769550
11
237.699380
21
211.549519
0
LINE
8
Calque 1
10
237.699380
20
211.549519
11
237.150730
21
211.020510
0
LINE
8
Calque 1
10
237.150730
20
211.020510
11
236.535290
21
210.271460
0
LINE
8
Calque 1
10
236.535290
20
210.271460
11
235.821550
21
210.795440
0
LINE
8
Calque 1
10
235.821550
20
210.795440
11
235.116270
21
211.177497
0
LINE
8
Calque 1
10
235.116270
20
211.177497
11
234.451010
21
210.889040
0
LINE
8
Calque 1
10
234.451010
20
210.889040
11
233.847930
21
210.349426
0
LINE
8
Calque 1
10
233.847930
20
210.349426
11
233.320270
21
209.656370
0
LINE
8
Calque 1
10
233.320270
20
209.656370
11
232.905599
21
209.115903
0
LINE
8
Calque 1
10
232.905599
20
209.115903
11
232.574140
21
208.943130
0
LINE
8
Calque 1
10
232.574140
20
208.943130
11
232.358411
21
209.202499
0
LINE
8
Calque 1
10
232.358411
20
209.202499
11
232.221950
21
209.700990
0
LINE
8
Calque 1
10
232.221950
20
209.700990
11
232.404544
21
210.520986
0
LINE
8
Calque 1
10
232.404544
20
210.520986
11
233.115610
21
211.645340
0
LINE
8
Calque 1
10
233.115610
20
211.645340
11
234.578870
21
213.998870
0
LINE
8
Calque 1
10
234.578870
20
213.998870
11
235.068460
21
215.738280
0
LINE
8
Calque 1
10
235.068460
20
215.738280
11
234.582760
21
217.469020
0
LINE
8
Calque 1
10
234.582760
20
217.469020
11
233.993217
21
218.431624
0
LINE
8
Calque 1
10
233.993217
20
218.431624
11
233.257860
21
219.244430
0
LINE
8
Calque 1
10
233.257860
20
219.244430
11
232.376839
21
219.797229
0
LINE
8
Calque 1
10
232.376839
20
219.797229
11
231.437070
21
220.134710
0
LINE
8
Calque 1
10
231.437070
20
220.134710
11
230.317739
21
220.170574
0
LINE
8
Calque 1
10
230.317739
20
220.170574
11
228.997460
21
219.990010
0
LINE
8
Calque 1
10
228.997460
20
219.990010
11
226.311640
21
219.520930
0
LINE
8
Calque 1
10
226.311640
20
219.520930
11
225.036271
21
219.535427
0
LINE
8
Calque 1
10
225.036271
20
219.535427
11
223.668420
21
219.850810
0
LINE
8
Calque 1
10
223.668420
20
219.850810
11
222.238926
21
220.551870
0
LINE
8
Calque 1
10
222.238926
20
220.551870
11
220.776050
21
221.799920
0
LINE
8
Calque 1
10
220.776050
20
221.799920
11
219.556905
21
223.221297
0
LINE
8
Calque 1
10
219.556905
20
223.221297
11
218.993650
21
224.496110
0
LINE
8
Calque 1
10
218.993650
20
224.496110
11
218.725386
21
227.407867
0
LINE
8
Calque 1
10
218.725386
20
227.407867
11
218.509300
21
232.699210
0
LINE
8
Calque 1
10
218.509300
20
232.699210
11
218.433697
21
238.626575
0
LINE
8
Calque 1
10
218.433697
20
238.626575
11
218.536978
21
239.841866
0
LINE
8
Calque 1
10
218.536978
20
239.841866
11
218.753450
21
240.503220
0
LINE
8
Calque 1
10
218.753450
20
240.503220
11
221.770490
21
244.608700
0
LINE
8
Calque 1
10
221.770490
20
244.608700
11
225.211040
21
249.215940
0
LINE
8
Calque 1
10
225.211040
20
249.215940
11
226.598820
21
251.759280
0
LINE
8
Calque 1
10
226.598820
20
251.759280
11
227.071116
21
253.202769
0
LINE
8
Calque 1
10
227.071116
20
253.202769
11
227.446670
21
254.955250
0
LINE
8
Calque 1
10
227.446670
20
254.955250
11
227.621001
21
257.008689
0
LINE
8
Calque 1
10
227.621001
20
257.008689
11
227.450670
21
259.272930
0
LINE
8
Calque 1
10
227.450670
20
259.272930
11
226.951714
21
261.963346
0
LINE
8
Calque 1
10
226.951714
20
261.963346
11
226.177200
21
265.138570
0
LINE
8
Calque 1
10
226.177200
20
265.138570
11
225.093940
21
268.546510
0
LINE
8
Calque 1
10
225.093940
20
268.546510
11
225.424390
21
263.715820
0
LINE
8
Calque 1
10
225.424390
20
263.715820
11
225.701042
21
259.734166
0
LINE
8
Calque 1
10
225.701042
20
259.734166
11
225.685570
21
257.046180
0
LINE
8
Calque 1
10
225.685570
20
257.046180
11
225.417311
21
255.261430
0
LINE
8
Calque 1
10
225.417311
20
255.261430
11
225.027650
21
253.710800
0
LINE
8
Calque 1
10
225.027650
20
253.710800
11
223.819820
21
251.164360
0
LINE
8
Calque 1
10
223.819820
20
251.164360
11
221.107370
21
247.355990
0
LINE
8
Calque 1
10
221.107370
20
247.355990
11
218.907550
21
244.465060
0
LINE
8
Calque 1
10
218.907550
20
244.465060
11
218.603552
21
244.419562
0
LINE
8
Calque 1
10
218.603552
20
244.419562
11
218.162590
21
244.695890
0
LINE
8
Calque 1
10
218.162590
20
244.695890
11
217.662732
21
245.368320
0
LINE
8
Calque 1
10
217.662732
20
245.368320
11
217.199460
21
246.316660
0
LINE
8
Calque 1
10
217.199460
20
246.316660
11
216.971965
21
247.231417
0
LINE
8
Calque 1
10
216.971965
20
247.231417
11
216.858321
21
248.901810
0
LINE
8
Calque 1
10
216.858321
20
248.901810
11
216.898130
21
257.198360
0
LINE
8
Calque 1
10
216.898130
20
257.198360
11
217.103886
21
265.687299
0
LINE
8
Calque 1
10
217.103886
20
265.687299
11
217.287539
21
267.767393
0
LINE
8
Calque 1
10
217.287539
20
267.767393
11
217.578930
21
269.367860
0
LINE
8
Calque 1
10
217.578930
20
269.367860
11
218.797100
21
273.806110
0
LINE
8
Calque 1
10
218.797100
20
273.806110
11
220.561660
21
277.988030
0
LINE
8
Calque 1
10
220.561660
20
277.988030
11
222.778680
21
281.884160
0
LINE
8
Calque 1
10
222.778680
20
281.884160
11
225.389100
21
285.380250
0
LINE
8
Calque 1
10
225.389100
20
285.380250
11
227.037135
21
287.146245
0
LINE
8
Calque 1
10
227.037135
20
287.146245
11
228.914520
21
288.897780
0
LINE
8
Calque 1
10
228.914520
20
288.897780
11
232.691870
21
291.783110
0
LINE
8
Calque 1
10
232.691870
20
291.783110
11
236.098160
21
293.770050
0
LINE
8
Calque 1
10
236.098160
20
293.770050
11
239.873550
21
295.389300
0
LINE
8
Calque 1
10
239.873550
20
295.389300
11
242.115574
21
296.091426
0
LINE
8
Calque 1
10
242.115574
20
296.091426
11
244.548990
21
296.689250
0
LINE
8
Calque 1
10
244.548990
20
296.689250
11
247.218784
21
297.109701
0
LINE
8
Calque 1
10
247.218784
20
297.109701
11
250.029120
21
297.385380
0
LINE
8
Calque 1
10
250.029120
20
297.385380
11
252.830060
21
297.425112
0
LINE
8
Calque 1
10
252.830060
20
297.425112
11
255.453070
21
297.248860
0
LINE
8
Calque 1
10
255.453070
20
297.248860
11
260.480890
21
296.303100
0
LINE
8
Calque 1
10
260.480890
20
296.303100
11
264.965530
21
294.853910
0
LINE
8
Calque 1
10
264.965530
20
294.853910
11
268.580660
21
293.121590
0
LINE
8
Calque 1
10
268.580660
20
293.121590
11
272.300110
21
290.663500
0
LINE
8
Calque 1
10
272.300110
20
290.663500
11
274.299442
21
289.038170
0
LINE
8
Calque 1
10
274.299442
20
289.038170
11
276.192950
21
287.290620
0
LINE
8
Calque 1
10
276.192950
20
287.290620
11
279.136680
21
283.994830
0
LINE
8
Calque 1
10
279.136680
20
283.994830
11
281.518900
21
280.463780
0
LINE
8
Calque 1
10
281.518900
20
280.463780
11
283.680610
21
276.247910
0
LINE
8
Calque 1
10
283.680610
20
276.247910
11
285.109760
21
272.238340
0
LINE
8
Calque 1
10
285.109760
20
272.238340
11
286.041550
21
267.861240
0
LINE
8
Calque 1
10
286.041550
20
267.861240
11
286.382879
21
263.989510
0
LINE
8
Calque 1
10
286.382879
20
263.989510
11
286.597360
21
257.522540
0
LINE
8
Calque 1
10
286.597360
20
257.522540
11
286.557360
21
247.940760
0
LINE
8
Calque 1
10
286.557360
20
247.940760
11
286.267850
21
246.421879
0
LINE
8
Calque 1
10
286.267850
20
246.421879
11
285.793990
21
245.335260
0
LINE
8
Calque 1
10
285.793990
20
245.335260
11
284.918250
21
244.387890
0
LINE
8
Calque 1
10
284.918250
20
244.387890
11
283.998867
21
245.273911
0
LINE
8
Calque 1
10
283.998867
20
245.273911
11
282.210400
21
247.542490
0
LINE
8
Calque 1
10
282.210400
20
247.542490
11
280.273724
21
250.320145
0
LINE
8
Calque 1
10
280.273724
20
250.320145
11
278.998000
21
252.430120
0
LINE
8
Calque 1
10
278.998000
20
252.430120
11
278.328610
21
254.185640
0
LINE
8
Calque 1
10
278.328610
20
254.185640
11
277.889500
21
256.146600
0
LINE
8
Calque 1
10
277.889500
20
256.146600
11
277.735090
21
258.836231
0
LINE
8
Calque 1
10
277.735090
20
258.836231
11
278.055010
21
263.459820
0
LINE
8
Calque 1
10
278.055010
20
263.459820
11
278.407670
21
268.807360
0
LINE
8
Calque 1
10
278.407670
20
268.807360
11
277.330190
21
265.415880
0
LINE
8
Calque 1
10
277.330190
20
265.415880
11
276.065120
21
259.923730
0
LINE
8
Calque 1
10
276.065120
20
259.923730
11
275.895459
21
257.932710
0
LINE
8
Calque 1
10
275.895459
20
257.932710
11
275.914280
21
255.932360
0
LINE
8
Calque 1
10
275.914280
20
255.932360
11
276.150487
21
254.132956
0
LINE
8
Calque 1
10
276.150487
20
254.132956
11
276.503440
21
252.625070
0
LINE
8
Calque 1
10
276.503440
20
252.625070
11
277.884570
21
249.758280
0
LINE
8
Calque 1
10
277.884570
20
249.758280
11
281.412610
21
244.962730
0
LINE
8
Calque 1
10
281.412610
20
244.962730
11
284.540050
21
240.840680
0
LINE
8
Calque 1
10
284.540050
20
240.840680
11
284.823643
21
240.265447
0
LINE
8
Calque 1
10
284.823643
20
240.265447
11
284.987411
21
239.547572
0
LINE
8
Calque 1
10
284.987411
20
239.547572
11
285.075380
21
236.772690
0
LINE
8
Calque 1
10
285.075380
20
236.772690
11
284.838250
21
229.483390
0
LINE
8
Calque 1
10
284.838250
20
229.483390
11
284.579221
21
226.250654
0
LINE
8
Calque 1
10
284.579221
20
226.250654
11
284.276670
21
224.255860
0
LINE
8
Calque 1
10
284.276670
20
224.255860
11
283.775047
21
223.158804
0
LINE
8
Calque 1
10
283.775047
20
223.158804
11
283.037370
21
222.084450
0
LINE
8
Calque 1
10
283.037370
20
222.084450
11
282.062407
21
221.140622
0
LINE
8
Calque 1
10
282.062407
20
221.140622
11
280.990290
21
220.357400
0
LINE
8
Calque 1
10
280.990290
20
220.357400
11
279.800556
21
219.839587
0
LINE
8
Calque 1
10
279.800556
20
219.839587
11
278.542820
21
219.533860
0
LINE
8
Calque 1
10
278.542820
20
219.533860
11
277.015525
21
219.542995
0
LINE
8
Calque 1
10
277.015525
20
219.542995
11
275.097990
21
219.841240
0
LINE
8
Calque 1
10
275.097990
20
219.841240
11
273.280755
21
220.129480
0
LINE
8
Calque 1
10
273.280755
20
220.129480
11
272.005770
21
220.124440
0
LINE
8
Calque 1
10
272.005770
20
220.124440
11
271.070586
21
219.768291
0
LINE
8
Calque 1
10
271.070586
20
219.768291
11
270.161210
21
219.163240
0
LINE
8
Calque 1
10
270.161210
20
219.163240
11
269.406722
21
218.346862
0
LINE
8
Calque 1
10
269.406722
20
218.346862
11
268.843950
21
217.482650
0
LINE
8
Calque 1
10
268.843950
20
217.482650
11
268.542901
21
216.539962
0
LINE
8
Calque 1
10
268.542901
20
216.539962
11
268.417690
21
215.534890
0
LINE
8
Calque 1
10
268.417690
20
215.534890
11
268.483222
21
214.921828
0
LINE
8
Calque 1
10
268.483222
20
214.921828
11
268.714089
21
214.253110
0
LINE
8
Calque 1
10
268.714089
20
214.253110
11
269.877450
21
212.291890
0
LINE
8
Calque 1
10
269.877450
20
212.291890
11
270.968522
21
210.469457
0
LINE
8
Calque 1
10
270.968522
20
210.469457
11
271.168039
21
209.919403
0
LINE
8
Calque 1
10
271.168039
20
209.919403
11
271.167500
21
209.544910
0
LINE
8
Calque 1
10
271.167500
20
209.544910
11
270.867330
21
208.859150
0
LINE
8
Calque 1
10
270.867330
20
208.859150
11
270.687179
21
208.910149
0
LINE
8
Calque 1
10
270.687179
20
208.910149
11
270.437180
21
209.218540
0
LINE
8
Calque 1
10
270.437180
20
209.218540
11
269.655260
21
210.343020
0
LINE
8
Calque 1
10
269.655260
20
210.343020
11
269.079745
21
210.825322
0
LINE
8
Calque 1
10
269.079745
20
210.825322
11
268.298580
21
210.975810
0
LINE
8
Calque 1
10
268.298580
20
210.975810
11
267.584901
21
210.860019
0
LINE
8
Calque 1
10
267.584901
20
210.860019
11
267.096980
21
210.581620
0
LINE
8
Calque 1
10
267.096980
20
210.581620
11
266.736416
21
210.371576
0
LINE
8
Calque 1
10
266.736416
20
210.371576
11
266.251630
21
210.846200
0
LINE
8
Calque 1
10
266.251630
20
210.846200
11
265.688319
21
211.324885
0
LINE
8
Calque 1
10
265.688319
20
211.324885
11
265.050210
21
211.504980
0
LINE
8
Calque 1
10
265.050210
20
211.504980
11
264.278854
21
211.233040
0
LINE
8
Calque 1
10
264.278854
20
211.233040
11
263.330700
21
210.415610
0
LINE
8
Calque 1
10
263.330700
20
210.415610
11
262.294400
21
209.326240
0
LINE
8
Calque 1
10
262.294400
20
209.326240
11
261.417750
21
210.283320
0
LINE
8
Calque 1
10
261.417750
20
210.283320
11
260.640279
21
210.959256
0
LINE
8
Calque 1
10
260.640279
20
210.959256
11
260.002090
21
211.240400
0
LINE
8
Calque 1
10
260.002090
20
211.240400
11
259.356585
21
210.933207
0
LINE
8
Calque 1
10
259.356585
20
210.933207
11
258.557180
21
210.182060
0
LINE
8
Calque 1
10
258.557180
20
210.182060
11
257.513390
21
209.123730
0
LINE
8
Calque 1
10
257.513390
20
209.123730
11
256.675120
21
210.182060
0
LINE
8
Calque 1
10
256.675120
20
210.182060
11
255.999735
21
210.979989
0
LINE
8
Calque 1
10
255.999735
20
210.979989
11
255.375920
21
211.240400
0
LINE
8
Calque 1
10
255.375920
20
211.240400
11
254.785390
21
211.123005
0
LINE
8
Calque 1
10
254.785390
20
211.123005
11
254.206530
21
210.840760
0
LINE
8
Calque 1
10
254.206530
20
210.840760
11
253.520786
21
210.093007
0
LINE
8
Calque 1
10
253.520786
20
210.093007
11
252.673290
21
208.856390
0
LINE
8
Calque 1
10
252.673290
20
208.856390
11
251.602850
21
207.271650
0
LINE
8
Calque 1
10
251.602850
20
207.271650
11
250.958930
21
208.322630
0
LINE
8
Calque 1
10
250.958930
20
208.322630
11
250.958840
21
208.322620
0
LINE
8
Calque 1
10
251.056540
20
218.119550
11
251.609050
21
219.177890
0
LINE
8
Calque 1
10
251.609050
20
219.177890
11
252.278580
21
218.118480
0
LINE
8
Calque 1
10
252.278580
20
218.118480
11
252.819050
21
217.059070
0
LINE
8
Calque 1
10
252.819050
20
217.059070
11
253.805310
21
217.468310
0
LINE
8
Calque 1
10
253.805310
20
217.468310
11
255.717620
21
218.619040
0
LINE
8
Calque 1
10
255.717620
20
218.619040
11
257.437410
21
220.482630
0
LINE
8
Calque 1
10
257.437410
20
220.482630
11
258.097889
21
221.733275
0
LINE
8
Calque 1
10
258.097889
20
221.733275
11
258.223220
21
223.500160
0
LINE
8
Calque 1
10
258.223220
20
223.500160
11
258.165998
21
224.642636
0
LINE
8
Calque 1
10
258.165998
20
224.642636
11
257.936825
21
225.811787
0
LINE
8
Calque 1
10
257.936825
20
225.811787
11
256.554590
21
229.761220
0
LINE
8
Calque 1
10
256.554590
20
229.761220
11
254.663580
21
234.358910
0
LINE
8
Calque 1
10
254.663580
20
234.358910
11
254.105419
21
233.739775
0
LINE
8
Calque 1
10
254.105419
20
233.739775
11
253.058040
21
231.850500
0
LINE
8
Calque 1
10
253.058040
20
231.850500
11
251.682800
21
229.110030
0
LINE
8
Calque 1
10
251.682800
20
229.110030
11
250.400550
21
231.664250
0
LINE
8
Calque 1
10
250.400550
20
231.664250
11
248.886600
21
234.361670
0
LINE
8
Calque 1
10
248.886600
20
234.361670
11
248.202241
21
233.074324
0
LINE
8
Calque 1
10
248.202241
20
233.074324
11
246.882220
21
229.778080
0
LINE
8
Calque 1
10
246.882220
20
229.778080
11
244.964180
21
224.155550
0
LINE
8
Calque 1
10
244.964180
20
224.155550
11
244.952376
21
223.186254
0
LINE
8
Calque 1
10
244.952376
20
223.186254
11
245.127450
21
222.113660
0
LINE
8
Calque 1
10
245.127450
20
222.113660
11
245.679270
21
220.922491
0
LINE
8
Calque 1
10
245.679270
20
220.922491
11
246.668070
21
219.650420
0
LINE
8
Calque 1
10
246.668070
20
219.650420
11
247.889721
21
218.536999
0
LINE
8
Calque 1
10
247.889721
20
218.536999
11
249.096860
21
217.709590
0
LINE
8
Calque 1
10
249.096860
20
217.709590
11
250.463370
21
217.073540
0
LINE
8
Calque 1
10
250.463370
20
217.073540
11
251.056540
21
218.119550
0
LINE
8
Calque 1
10
251.056540
20
218.119550
11
251.056540
21
218.119550
0
LINE
8
Calque 1
10
234.121740
20
226.720270
11
238.853810
21
227.902470
0
LINE
8
Calque 1
10
238.853810
20
227.902470
11
240.946621
21
228.687490
0
LINE
8
Calque 1
10
240.946621
20
228.687490
11
242.543300
21
229.474550
0
LINE
8
Calque 1
10
242.543300
20
229.474550
11
243.585495
21
230.324885
0
LINE
8
Calque 1
10
243.585495
20
230.324885
11
244.302910
21
231.275000
0
LINE
8
Calque 1
10
244.302910
20
231.275000
11
245.660980
21
235.176740
0
LINE
8
Calque 1
10
245.660980
20
235.176740
11
246.480645
21
237.549677
0
LINE
8
Calque 1
10
246.480645
20
237.549677
11
247.268450
21
239.179380
0
LINE
8
Calque 1
10
247.268450
20
239.179380
11
248.154160
21
240.149409
0
LINE
8
Calque 1
10
248.154160
20
240.149409
11
249.243210
21
240.877540
0
LINE
8
Calque 1
10
249.243210
20
240.877540
11
250.549414
21
241.324780
0
LINE
8
Calque 1
10
250.549414
20
241.324780
11
252.149070
21
241.354810
0
LINE
8
Calque 1
10
252.149070
20
241.354810
11
253.713934
21
241.114368
0
LINE
8
Calque 1
10
253.713934
20
241.114368
11
254.847870
21
240.441280
0
LINE
8
Calque 1
10
254.847870
20
240.441280
11
255.725313
21
239.568464
0
LINE
8
Calque 1
10
255.725313
20
239.568464
11
256.427810
21
238.601110
0
LINE
8
Calque 1
10
256.427810
20
238.601110
11
257.683230
21
235.226390
0
LINE
8
Calque 1
10
257.683230
20
235.226390
11
258.868280
21
231.738960
0
LINE
8
Calque 1
10
258.868280
20
231.738960
11
259.539974
21
230.685420
0
LINE
8
Calque 1
10
259.539974
20
230.685420
11
260.484960
21
229.788120
0
LINE
8
Calque 1
10
260.484960
20
229.788120
11
261.707008
21
229.054865
0
LINE
8
Calque 1
10
261.707008
20
229.054865
11
263.087620
21
228.420190
0
LINE
8
Calque 1
10
263.087620
20
228.420190
11
267.042730
21
227.225970
0
LINE
8
Calque 1
10
267.042730
20
227.225970
11
269.389514
21
226.730491
0
LINE
8
Calque 1
10
269.389514
20
226.730491
11
271.575100
21
226.423540
0
LINE
8
Calque 1
10
271.575100
20
226.423540
11
273.619298
21
226.394058
0
LINE
8
Calque 1
10
273.619298
20
226.394058
11
275.575790
21
226.837030
0
LINE
8
Calque 1
10
275.575790
20
226.837030
11
276.641187
21
227.199128
0
LINE
8
Calque 1
10
276.641187
20
227.199128
11
277.451799
21
227.604518
0
LINE
8
Calque 1
10
277.451799
20
227.604518
11
279.124730
21
229.055240
0
LINE
8
Calque 1
10
279.124730
20
229.055240
11
280.433974
21
230.567858
0
LINE
8
Calque 1
10
280.433974
20
230.567858
11
281.077210
21
231.823780
0
LINE
8
Calque 1
10
281.077210
20
231.823780
11
281.622290
21
235.468740
0
LINE
8
Calque 1
10
281.622290
20
235.468740
11
281.934754
21
237.738038
0
LINE
8
Calque 1
10
281.934754
20
237.738038
11
282.213878
21
238.383396
0
LINE
8
Calque 1
10
282.213878
20
238.383396
11
282.666400
21
239.013060
0
LINE
8
Calque 1
10
282.666400
20
239.013060
11
283.498860
21
240.274670
0
LINE
8
Calque 1
10
283.498860
20
240.274670
11
282.214320
21
241.480000
0
LINE
8
Calque 1
10
282.214320
20
241.480000
11
280.810080
21
242.395815
0
LINE
8
Calque 1
10
280.810080
20
242.395815
11
279.237750
21
243.222050
0
LINE
8
Calque 1
10
279.237750
20
243.222050
11
277.498711
21
243.882718
0
LINE
8
Calque 1
10
277.498711
20
243.882718
11
275.693650
21
244.400450
0
LINE
8
Calque 1
10
275.693650
20
244.400450
11
272.107010
21
244.993000
0
LINE
8
Calque 1
10
272.107010
20
244.993000
11
270.377560
21
245.017869
0
LINE
8
Calque 1
10
270.377560
20
245.017869
11
268.667430
21
244.467630
0
LINE
8
Calque 1
10
268.667430
20
244.467630
11
263.522810
21
242.414470
0
LINE
8
Calque 1
10
263.522810
20
242.414470
11
260.743044
21
241.424244
0
LINE
8
Calque 1
10
260.743044
20
241.424244
11
258.889820
21
240.940920
0
LINE
8
Calque 1
10
258.889820
20
240.940920
11
257.807919
21
240.955623
0
LINE
8
Calque 1
10
257.807919
20
240.955623
11
257.037740
21
241.352840
0
LINE
8
Calque 1
10
257.037740
20
241.352840
11
256.379060
21
241.887100
0
LINE
8
Calque 1
10
256.379060
20
241.887100
11
257.036010
21
242.587550
0
LINE
8
Calque 1
10
257.036010
20
242.587550
11
258.604210
21
243.851180
0
LINE
8
Calque 1
10
258.604210
20
243.851180
11
259.158415
21
244.278719
0
LINE
8
Calque 1
10
259.158415
20
244.278719
11
259.211230
21
244.515780
0
LINE
8
Calque 1
10
259.211230
20
244.515780
11
256.849280
21
244.151160
0
LINE
8
Calque 1
10
256.849280
20
244.151160
11
254.516341
21
243.805295
0
LINE
8
Calque 1
10
254.516341
20
243.805295
11
251.616560
21
243.706900
0
LINE
8
Calque 1
10
251.616560
20
243.706900
11
248.756918
21
243.845581
0
LINE
8
Calque 1
10
248.756918
20
243.845581
11
246.343330
21
244.149660
0
LINE
8
Calque 1
10
246.343330
20
244.149660
11
244.149300
21
244.474860
0
LINE
8
Calque 1
10
244.149300
20
244.474860
11
245.387640
21
243.420580
0
LINE
8
Calque 1
10
245.387640
20
243.420580
11
246.364163
21
242.579554
0
LINE
8
Calque 1
10
246.364163
20
242.579554
11
246.721770
21
241.941800
0
LINE
8
Calque 1
10
246.721770
20
241.941800
11
246.571436
21
241.493885
0
LINE
8
Calque 1
10
246.571436
20
241.493885
11
246.210000
21
241.147610
0
LINE
8
Calque 1
10
246.210000
20
241.147610
11
244.802190
21
240.873720
0
LINE
8
Calque 1
10
244.802190
20
240.873720
11
243.340321
21
241.186133
0
LINE
8
Calque 1
10
243.340321
20
241.186133
11
241.083880
21
241.937250
0
LINE
8
Calque 1
10
241.083880
20
241.937250
11
236.207830
21
243.976450
0
LINE
8
Calque 1
10
236.207830
20
243.976450
11
234.103758
21
244.801846
0
LINE
8
Calque 1
10
234.103758
20
244.801846
11
231.772810
21
244.949520
0
LINE
8
Calque 1
10
231.772810
20
244.949520
11
229.433979
21
244.802931
0
LINE
8
Calque 1
10
229.433979
20
244.802931
11
227.183400
21
244.357130
0
LINE
8
Calque 1
10
227.183400
20
244.357130
11
223.724630
21
243.133630
0
LINE
8
Calque 1
10
223.724630
20
243.133630
11
222.458414
21
242.338208
0
LINE
8
Calque 1
10
222.458414
20
242.338208
11
221.170290
21
241.315730
0
LINE
8
Calque 1
10
221.170290
20
241.315730
11
219.866560
21
240.131570
0
LINE
8
Calque 1
10
219.866560
20
240.131570
11
220.428810
21
239.510450
0
LINE
8
Calque 1
10
220.428810
20
239.510450
11
221.338470
21
238.227890
0
LINE
8
Calque 1
10
221.338470
20
238.227890
11
221.634975
21
236.983516
0
LINE
8
Calque 1
10
221.634975
20
236.983516
11
221.859990
21
234.920600
0
LINE
8
Calque 1
10
221.859990
20
234.920600
11
222.123545
21
232.623940
0
LINE
8
Calque 1
10
222.123545
20
232.623940
11
222.601750
21
231.165180
0
LINE
8
Calque 1
10
222.601750
20
231.165180
11
223.294769
21
230.097206
0
LINE
8
Calque 1
10
223.294769
20
230.097206
11
224.163820
21
229.087680
0
LINE
8
Calque 1
10
224.163820
20
229.087680
11
225.177009
21
228.243771
0
LINE
8
Calque 1
10
225.177009
20
228.243771
11
226.216560
21
227.573990
0
LINE
8
Calque 1
10
226.216560
20
227.573990
11
228.333230
21
226.692620
0
LINE
8
Calque 1
10
228.333230
20
226.692620
11
230.613680
21
226.339340
0
LINE
8
Calque 1
10
230.613680
20
226.339340
11
234.121740
21
226.720270
0
LINE
8
Calque 1
10
234.121740
20
226.720270
11
234.121740
21
226.720270
0
LINE
8
Calque 1
10
206.139340
20
222.815910
11
205.819110
21
225.858620
0
LINE
8
Calque 1
10
205.819110
20
225.858620
11
205.649710
21
227.644550
0
LINE
8
Calque 1
10
205.649710
20
227.644550
11
199.066000
21
227.645000
0
LINE
8
Calque 1
10
199.066000
20
227.645000
11
192.482000
21
227.645000
0
LINE
8
Calque 1
10
192.482000
20
227.645000
11
192.482000
21
224.602000
0
LINE
8
Calque 1
10
192.482000
20
224.602000
11
192.482000
21
221.559000
0
LINE
8
Calque 1
10
192.482000
20
221.559000
11
199.386000
21
221.559000
0
LINE
8
Calque 1
10
199.386000
20
221.559000
11
206.290000
21
221.559000
0
LINE
8
Calque 1
10
206.290000
20
221.559000
11
206.139340
21
222.815910
0
LINE
8
Calque 1
10
311.015340
20
224.426970
11
310.935951
21
226.804513
0
LINE
8
Calque 1
10
310.935951
20
226.804513
11
310.808322
21
227.287311
0
LINE
8
Calque 1
10
310.808322
20
227.287311
11
310.596830
21
227.483950
0
LINE
8
Calque 1
10
310.596830
20
227.483950
11
303.973940
21
227.644550
0
LINE
8
Calque 1
10
303.973940
20
227.644550
11
299.075165
21
227.573809
0
LINE
8
Calque 1
10
299.075165
20
227.573809
11
298.020297
21
227.471948
0
LINE
8
Calque 1
10
298.020297
20
227.471948
11
297.667730
21
227.313820
0
LINE
8
Calque 1
10
297.667730
20
227.313820
11
297.412220
21
224.303110
0
LINE
8
Calque 1
10
297.412220
20
224.303110
11
297.258550
21
221.623120
0
LINE
8
Calque 1
10
297.258550
20
221.623120
11
304.136940
21
221.576820
0
LINE
8
Calque 1
10
304.136940
20
221.576820
11
311.015340
21
221.530520
0
LINE
8
Calque 1
10
311.015340
20
221.530520
11
311.015340
21
224.426970
0
LINE
8
Calque 1
10
205.711340
20
246.429970
11
205.711000
21
249.605000
0
LINE
8
Calque 1
10
205.711000
20
249.605000
11
193.408000
21
249.605000
0
LINE
8
Calque 1
10
193.408000
20
249.605000
11
181.105000
21
249.605000
0
LINE
8
Calque 1
10
181.105000
20
249.605000
11
181.105000
21
246.430000
0
LINE
8
Calque 1
10
181.105000
20
246.430000
11
181.105000
21
243.255000
0
LINE
8
Calque 1
10
181.105000
20
243.255000
11
193.408000
21
243.255000
0
LINE
8
Calque 1
10
193.408000
20
243.255000
11
205.711000
21
243.255000
0
LINE
8
Calque 1
10
205.711000
20
243.255000
11
205.711340
21
246.429970
0
LINE
8
Calque 1
10
322.392340
20
246.429970
11
322.393000
21
249.605000
0
LINE
8
Calque 1
10
322.393000
20
249.605000
11
310.089000
21
249.605000
0
LINE
8
Calque 1
10
310.089000
20
249.605000
11
297.786000
21
249.605000
0
LINE
8
Calque 1
10
297.786000
20
249.605000
11
297.786000
21
246.430000
0
LINE
8
Calque 1
10
297.786000
20
246.430000
11
297.786000
21
243.255000
0
LINE
8
Calque 1
10
297.786000
20
243.255000
11
310.089000
21
243.255000
0
LINE
8
Calque 1
10
310.089000
20
243.255000
11
322.393000
21
243.255000
0
LINE
8
Calque 1
10
322.393000
20
243.255000
11
322.392340
21
246.429970
0
LINE
8
Calque 1
10
204.862000
20
265.377000
11
205.314907
21
265.502770
0
LINE
8
Calque 1
10
205.314907
20
265.502770
11
205.575084
21
265.746151
0
LINE
8
Calque 1
10
205.575084
20
265.746151
11
205.830150
21
267.162940
0
LINE
8
Calque 1
10
205.830150
20
267.162940
11
206.142230
21
270.044810
0
LINE
8
Calque 1
10
206.142230
20
270.044810
11
206.290320
21
271.301580
0
LINE
8
Calque 1
10
206.290320
20
271.301580
11
199.386000
21
271.301000
0
LINE
8
Calque 1
10
199.386000
20
271.301000
11
192.482000
21
271.301000
0
LINE
8
Calque 1
10
192.482000
20
271.301000
11
192.482000
21
268.397000
0
LINE
8
Calque 1
10
192.482000
20
268.397000
11
192.482000
21
265.494000
0
LINE
8
Calque 1
10
192.482000
20
265.494000
11
196.781480
21
265.414300
0
LINE
8
Calque 1
10
196.781480
20
265.414300
11
202.569240
21
265.275450
0
LINE
8
Calque 1
10
202.569240
20
265.275450
11
204.861670
21
265.377170
0
LINE
8
Calque 1
10
204.861670
20
265.377170
11
204.862000
21
265.377000
0
LINE
8
Calque 1
10
310.958000
20
268.325020
11
311.032800
21
271.301580
0
LINE
8
Calque 1
10
311.032800
20
271.301580
11
304.114000
21
271.301000
0
LINE
8
Calque 1
10
304.114000
20
271.301000
11
297.196000
21
271.301000
0
LINE
8
Calque 1
10
297.196000
20
271.301000
11
297.358780
21
269.845790
0
LINE
8
Calque 1
10
297.358780
20
269.845790
11
297.682500
21
266.950030
0
LINE
8
Calque 1
10
297.682500
20
266.950030
11
297.918981
21
265.761082
0
LINE
8
Calque 1
10
297.918981
20
265.761082
11
298.115297
21
265.521345
0
LINE
8
Calque 1
10
298.115297
20
265.521345
11
298.410110
21
265.420460
0
LINE
8
Calque 1
10
298.410110
20
265.420460
11
304.929890
21
265.339660
0
LINE
8
Calque 1
10
304.929890
20
265.339660
11
310.883010
21
265.347660
0
LINE
8
Calque 1
10
310.883010
20
265.347660
11
310.957810
21
268.324230
0
LINE
8
Calque 1
10
310.957810
20
268.324230
11
310.958000
21
268.325020
0
LINE
8
Calque 1
10
216.559200
20
292.358620
11
218.177291
21
294.100049
0
LINE
8
Calque 1
10
218.177291
20
294.100049
11
220.395660
21
296.216560
0
LINE
8
Calque 1
10
220.395660
20
296.216560
11
223.119215
21
298.471646
0
LINE
8
Calque 1
10
223.119215
20
298.471646
11
225.951910
21
300.546260
0
LINE
8
Calque 1
10
225.951910
20
300.546260
11
228.823465
21
302.309864
0
LINE
8
Calque 1
10
228.823465
20
302.309864
11
231.640450
21
303.817200
0
LINE
8
Calque 1
10
231.640450
20
303.817200
11
234.418575
21
305.024346
0
LINE
8
Calque 1
10
234.418575
20
305.024346
11
237.196700
21
306.066200
0
LINE
8
Calque 1
10
237.196700
20
306.066200
11
242.752950
21
307.590690
0
LINE
8
Calque 1
10
242.752950
20
307.590690
11
246.102136
21
308.088887
0
LINE
8
Calque 1
10
246.102136
20
308.088887
11
251.616490
21
308.199830
0
LINE
8
Calque 1
10
251.616490
20
308.199830
11
256.947789
21
308.109646
0
LINE
8
Calque 1
10
256.947789
20
308.109646
11
260.173170
21
307.742660
0
LINE
8
Calque 1
10
260.173170
20
307.742660
11
262.873707
21
307.102799
0
LINE
8
Calque 1
10
262.873707
20
307.102799
11
265.896220
21
306.218760
0
LINE
8
Calque 1
10
265.896220
20
306.218760
11
269.037594
21
305.056267
0
LINE
8
Calque 1
10
269.037594
20
305.056267
11
272.023920
21
303.746940
0
LINE
8
Calque 1
10
272.023920
20
303.746940
11
274.909963
21
302.177982
0
LINE
8
Calque 1
10
274.909963
20
302.177982
11
277.810240
21
300.391270
0
LINE
8
Calque 1
10
277.810240
20
300.391270
11
280.926874
21
298.028949
0
LINE
8
Calque 1
10
280.926874
20
298.028949
11
284.534600
21
294.665100
0
LINE
8
Calque 1
10
284.534600
20
294.665100
11
288.371060
21
290.880650
0
LINE
8
Calque 1
10
288.371060
20
290.880650
11
288.311260
21
314.230150
0
LINE
8
Calque 1
10
288.311260
20
314.230150
11
288.323810
21
332.231762
0
LINE
8
Calque 1
10
288.323810
20
332.231762
11
288.502260
21
340.886950
0
LINE
8
Calque 1
10
288.502260
20
340.886950
11
288.850445
21
343.827691
0
LINE
8
Calque 1
10
288.850445
20
343.827691
11
289.303690
21
346.253700
0
LINE
8
Calque 1
10
289.303690
20
346.253700
11
289.988399
21
348.373465
0
LINE
8
Calque 1
10
289.988399
20
348.373465
11
290.893060
21
350.577920
0
LINE
8
Calque 1
10
290.893060
20
350.577920
11
291.986076
21
352.658739
0
LINE
8
Calque 1
10
291.986076
20
352.658739
11
293.123620
21
354.481250
0
LINE
8
Calque 1
10
293.123620
20
354.481250
11
295.765400
21
357.616050
0
LINE
8
Calque 1
10
295.765400
20
357.616050
11
298.636610
21
360.133040
0
LINE
8
Calque 1
10
298.636610
20
360.133040
11
301.225920
21
361.831550
0
LINE
8
Calque 1
10
301.225920
20
361.831550
11
304.226720
21
363.225610
0
LINE
8
Calque 1
10
304.226720
20
363.225610
11
307.930890
21
364.422890
0
LINE
8
Calque 1
10
307.930890
20
364.422890
11
309.824880
21
364.903880
0
LINE
8
Calque 1
10
309.824880
20
364.903880
11
309.825000
21
370.159000
0
LINE
8
Calque 1
10
309.825000
20
370.159000
11
309.825000
21
375.415000
0
LINE
8
Calque 1
10
309.825000
20
375.415000
11
251.683000
21
375.415000
0
LINE
8
Calque 1
10
251.683000
20
375.415000
11
193.541000
21
375.415000
0
LINE
8
Calque 1
10
193.541000
20
375.415000
11
193.540950
21
370.057190
0
LINE
8
Calque 1
10
193.540950
20
370.057190
11
193.540910
21
364.699380
0
LINE
8
Calque 1
10
193.540910
20
364.699380
11
194.137000
21
364.699000
0
LINE
8
Calque 1
10
194.137000
20
364.699000
11
196.584400
21
364.170290
0
LINE
8
Calque 1
10
196.584400
20
364.170290
11
198.546905
21
363.482794
0
LINE
8
Calque 1
10
198.546905
20
363.482794
11
200.665650
21
362.572330
0
LINE
8
Calque 1
10
200.665650
20
362.572330
11
202.714449
21
361.479042
0
LINE
8
Calque 1
10
202.714449
20
361.479042
11
204.508780
21
360.351990
0
LINE
8
Calque 1
10
204.508780
20
360.351990
11
206.181926
21
358.973086
0
LINE
8
Calque 1
10
206.181926
20
358.973086
11
207.939350
21
357.274300
0
LINE
8
Calque 1
10
207.939350
20
357.274300
11
209.601321
21
355.324649
0
LINE
8
Calque 1
10
209.601321
20
355.324649
11
211.044960
21
353.342620
0
LINE
8
Calque 1
10
211.044960
20
353.342620
11
212.196165
21
351.304762
0
LINE
8
Calque 1
10
212.196165
20
351.304762
11
213.155070
21
349.220870
0
LINE
8
Calque 1
10
213.155070
20
349.220870
11
213.880711
21
347.026485
0
LINE
8
Calque 1
10
213.880711
20
347.026485
11
214.471090
21
344.722960
0
LINE
8
Calque 1
10
214.471090
20
344.722960
11
214.743485
21
342.777259
0
LINE
8
Calque 1
10
214.743485
20
342.777259
11
214.892070
21
338.863597
0
LINE
8
Calque 1
10
214.892070
20
338.863597
11
214.968620
21
316.610960
0
LINE
8
Calque 1
10
214.968620
20
316.610960
11
215.029410
21
298.439172
0
LINE
8
Calque 1
10
215.029410
20
298.439172
11
215.170540
21
290.882060
0
LINE
8
Calque 1
10
215.170540
20
290.882060
11
216.559600
21
292.358170
0
LINE
8
Calque 1
10
216.559600
20
292.358170
11
216.559200
21
292.358620
0
LINE
8
Calque 1
10
218.675870
20
319.817920
11
218.601736
21
338.906370
0
LINE
8
Calque 1
10
218.601736
20
338.906370
11
218.478909
21
342.956948
0
LINE
8
Calque 1
10
218.478909
20
342.956948
11
218.272100
21
345.019520
0
LINE
8
Calque 1
10
218.272100
20
345.019520
11
217.303160
21
349.086980
0
LINE
8
Calque 1
10
217.303160
20
349.086980
11
216.094640
21
352.259460
0
LINE
8
Calque 1
10
216.094640
20
352.259460
11
214.061240
21
355.846720
0
LINE
8
Calque 1
10
214.061240
20
355.846720
11
212.589522
21
357.876616
0
LINE
8
Calque 1
10
212.589522
20
357.876616
11
211.003070
21
359.762460
0
LINE
8
Calque 1
10
211.003070
20
359.762460
11
209.207988
21
361.486770
0
LINE
8
Calque 1
10
209.207988
20
361.486770
11
207.234660
21
363.128310
0
LINE
8
Calque 1
10
207.234660
20
363.128310
11
205.039439
21
364.587918
0
LINE
8
Calque 1
10
205.039439
20
364.587918
11
202.710860
21
365.874830
0
LINE
8
Calque 1
10
202.710860
20
365.874830
11
198.765970
21
367.504940
0
LINE
8
Calque 1
10
198.765970
20
367.504940
11
197.244620
21
367.971120
0
LINE
8
Calque 1
10
197.244620
20
367.971120
11
197.245000
21
369.895000
0
LINE
8
Calque 1
10
197.245000
20
369.895000
11
197.245000
21
371.819000
0
LINE
8
Calque 1
10
197.245000
20
371.819000
11
251.749200
21
371.837100
0
LINE
8
Calque 1
10
251.749200
20
371.837100
11
306.253400
21
371.855200
0
LINE
8
Calque 1
10
306.253400
20
371.855200
11
306.253000
21
369.917000
0
LINE
8
Calque 1
10
306.253000
20
369.917000
11
306.253000
21
367.978000
0
LINE
8
Calque 1
10
306.253000
20
367.978000
11
304.334770
21
367.367520
0
LINE
8
Calque 1
10
304.334770
20
367.367520
11
300.299880
21
365.699800
0
LINE
8
Calque 1
10
300.299880
20
365.699800
11
296.860290
21
363.687780
0
LINE
8
Calque 1
10
296.860290
20
363.687780
11
293.712670
21
361.003950
0
LINE
8
Calque 1
10
293.712670
20
361.003950
11
291.981135
21
359.190046
0
LINE
8
Calque 1
10
291.981135
20
359.190046
11
290.380430
21
357.257020
0
LINE
8
Calque 1
10
290.380430
20
357.257020
11
288.956611
21
355.103385
0
LINE
8
Calque 1
10
288.956611
20
355.103385
11
287.650340
21
352.759100
0
LINE
8
Calque 1
10
287.650340
20
352.759100
11
286.571341
21
350.230356
0
LINE
8
Calque 1
10
286.571341
20
350.230356
11
285.693950
21
347.633220
0
LINE
8
Calque 1
10
285.693950
20
347.633220
11
284.960130
21
344.987390
0
LINE
8
Calque 1
10
284.960130
20
344.987390
11
284.881630
21
320.976490
0
LINE
8
Calque 1
10
284.881630
20
320.976490
11
284.677980
21
296.965590
0
LINE
8
Calque 1
10
284.677980
20
296.965590
11
282.636750
21
298.578940
0
LINE
8
Calque 1
10
282.636750
20
298.578940
11
278.207140
21
301.869370
0
LINE
8
Calque 1
10
278.207140
20
301.869370
11
275.460435
21
303.518893
0
LINE
8
Calque 1
10
275.460435
20
303.518893
11
272.386310
21
305.129700
0
LINE
8
Calque 1
10
272.386310
20
305.129700
11
269.312176
21
306.490000
0
LINE
8
Calque 1
10
269.312176
20
306.490000
11
266.565470
21
307.537220
0
LINE
8
Calque 1
10
266.565470
20
307.537220
11
260.803760
21
309.021620
0
LINE
8
Calque 1
10
260.803760
20
309.021620
11
257.420089
21
309.549835
0
LINE
8
Calque 1
10
257.420089
20
309.549835
11
253.792300
21
309.840390
0
LINE
8
Calque 1
10
253.792300
20
309.840390
11
250.263011
21
309.869125
0
LINE
8
Calque 1
10
250.263011
20
309.869125
11
247.118600
21
309.684170
0
LINE
8
Calque 1
10
247.118600
20
309.684170
11
241.727450
21
308.834350
0
LINE
8
Calque 1
10
241.727450
20
308.834350
11
236.171200
21
307.241260
0
LINE
8
Calque 1
10
236.171200
20
307.241260
11
233.027596
21
305.993066
0
LINE
8
Calque 1
10
233.027596
20
305.993066
11
229.788390
21
304.478000
0
LINE
8
Calque 1
10
229.788390
20
304.478000
11
226.753121
21
302.773880
0
LINE
8
Calque 1
10
226.753121
20
302.773880
11
224.099850
21
301.071170
0
LINE
8
Calque 1
10
224.099850
20
301.071170
11
220.348310
21
298.167520
0
LINE
8
Calque 1
10
220.348310
20
298.167520
11
218.826950
21
296.965590
0
LINE
8
Calque 1
10
218.826950
20
296.965590
11
218.675890
21
319.817390
0
LINE
8
Calque 1
10
218.675890
20
319.817390
11
218.675870
21
319.817920
 0 
ENDSEC
 0 
EOF