999
"DXF R12 Output" (www.mydxf.blogspot.com)
 0 
SECTION
 2 
HEADER
 9 
$ACADVER
 1 
AC1009
 9 
$EXTMIN
 10 
 0 
 20 
 0 
 9 
$EXTMAX
 10 
 8.5 
 20 
 11 
 0 
ENDSEC
 0 
SECTION
 2 
ENTITIES
0
LINE
8
Calque 1
10
437.767000
20
66.323900
11
435.912510
21
74.261400
0
LINE
8
Calque 1
10
435.912510
20
74.261400
11
431.677530
21
92.443700
0
LINE
8
Calque 1
10
431.677530
20
92.443700
11
428.984940
21
104.171800
0
LINE
8
Calque 1
10
428.984940
20
104.171800
11
428.689192
21
105.099075
0
LINE
8
Calque 1
10
428.689192
20
105.099075
11
428.391270
21
105.535100
0
LINE
8
Calque 1
10
428.391270
20
105.535100
11
425.049100
21
106.078400
0
LINE
8
Calque 1
10
425.049100
20
106.078400
11
418.434510
21
107.414800
0
LINE
8
Calque 1
10
418.434510
20
107.414800
11
411.819930
21
109.331800
0
LINE
8
Calque 1
10
411.819930
20
109.331800
11
405.602220
21
111.739200
0
LINE
8
Calque 1
10
405.602220
20
111.739200
11
399.516810
21
114.724300
0
LINE
8
Calque 1
10
399.516810
20
114.724300
11
394.389840
21
117.791900
0
LINE
8
Calque 1
10
394.389840
20
117.791900
11
389.970380
21
120.925300
0
LINE
8
Calque 1
10
389.970380
20
120.925300
11
387.597280
21
122.606200
0
LINE
8
Calque 1
10
387.597280
20
122.606200
11
381.830280
21
118.989400
0
LINE
8
Calque 1
10
381.830280
20
118.989400
11
371.074080
21
112.022600
0
LINE
8
Calque 1
10
371.074080
20
112.022600
11
359.696980
21
104.712400
0
LINE
8
Calque 1
10
359.696980
20
104.712400
11
352.430590
21
100.113300
0
LINE
8
Calque 1
10
352.430590
20
100.113300
11
351.381900
21
99.474400
0
LINE
8
Calque 1
10
351.381900
20
99.474400
11
352.022330
21
100.523100
0
LINE
8
Calque 1
10
352.022330
20
100.523100
11
359.553300
21
112.280500
0
LINE
8
Calque 1
10
359.553300
20
112.280500
11
370.549000
21
129.332900
0
LINE
8
Calque 1
10
370.549000
20
129.332900
11
374.654140
21
135.676600
0
LINE
8
Calque 1
10
374.654140
20
135.676600
11
372.004210
21
139.665400
0
LINE
8
Calque 1
10
372.004210
20
139.665400
11
367.998960
21
146.160900
0
LINE
8
Calque 1
10
367.998960
20
146.160900
11
365.304240
21
151.710300
0
LINE
8
Calque 1
10
365.304240
20
151.710300
11
362.905690
21
157.843600
0
LINE
8
Calque 1
10
362.905690
20
157.843600
11
361.037030
21
164.193600
0
LINE
8
Calque 1
10
361.037030
20
164.193600
11
359.697670
21
170.588200
0
LINE
8
Calque 1
10
359.697670
20
170.588200
11
359.167820
21
174.607500
0
LINE
8
Calque 1
10
359.167820
20
174.607500
11
359.093976
21
175.277512
0
LINE
8
Calque 1
10
359.093976
20
175.277512
11
358.916430
21
175.647000
0
LINE
8
Calque 1
10
358.916430
20
175.647000
11
341.784630
21
179.481100
0
LINE
8
Calque 1
10
341.784630
20
179.481100
11
322.390730
21
183.718500
0
LINE
8
Calque 1
10
322.390730
20
183.718500
11
318.818850
21
184.572600
0
LINE
8
Calque 1
10
318.818850
20
184.572600
11
317.760520
21
184.868000
0
LINE
8
Calque 1
10
317.760520
20
184.868000
11
319.744900
21
185.348000
0
LINE
8
Calque 1
10
319.744900
20
185.348000
11
333.106300
21
188.360500
0
LINE
8
Calque 1
10
333.106300
20
188.360500
11
351.759400
21
192.503530
0
LINE
8
Calque 1
10
351.759400
20
192.503530
11
359.262370
21
194.319000
0
LINE
8
Calque 1
10
359.262370
20
194.319000
11
360.097430
21
197.817780
0
LINE
8
Calque 1
10
360.097430
20
197.817780
11
361.510050
21
204.126120
0
LINE
8
Calque 1
10
361.510050
20
204.126120
11
363.238120
21
209.794010
0
LINE
8
Calque 1
10
363.238120
20
209.794010
11
365.591190
21
215.632160
0
LINE
8
Calque 1
10
365.591190
20
215.632160
11
368.569440
21
221.576370
0
LINE
8
Calque 1
10
368.569440
20
221.576370
11
372.249720
21
227.477090
0
LINE
8
Calque 1
10
372.249720
20
227.477090
11
374.618850
21
230.943490
0
LINE
8
Calque 1
10
374.618850
20
230.943490
11
374.506315
21
231.423819
0
LINE
8
Calque 1
10
374.506315
20
231.423819
11
373.919542
21
232.546935
0
LINE
8
Calque 1
10
373.919542
20
232.546935
11
371.278890
21
236.799350
0
LINE
8
Calque 1
10
371.278890
20
236.799350
11
363.131040
21
249.473850
0
LINE
8
Calque 1
10
363.131040
20
249.473850
11
355.129580
21
261.989050
0
LINE
8
Calque 1
10
355.129580
20
261.989050
11
351.813490
21
267.475530
0
LINE
8
Calque 1
10
351.813490
20
267.475530
11
354.423650
21
266.052710
0
LINE
8
Calque 1
10
354.423650
20
266.052710
11
368.295850
21
257.145370
0
LINE
8
Calque 1
10
368.295850
20
257.145370
11
383.721950
21
247.177490
0
LINE
8
Calque 1
10
383.721950
20
247.177490
11
387.931870
21
244.579080
0
LINE
8
Calque 1
10
387.931870
20
244.579080
11
390.100590
21
246.130510
0
LINE
8
Calque 1
10
390.100590
20
246.130510
11
395.151080
21
249.673360
0
LINE
8
Calque 1
10
395.151080
20
249.673360
11
401.236500
21
253.266240
0
LINE
8
Calque 1
10
401.236500
20
253.266240
11
406.528160
21
255.837920
0
LINE
8
Calque 1
10
406.528160
20
255.837920
11
411.687540
21
257.856910
0
LINE
8
Calque 1
10
411.687540
20
257.856910
11
418.169830
21
259.806510
0
LINE
8
Calque 1
10
418.169830
20
259.806510
11
425.178930
21
261.261860
0
LINE
8
Calque 1
10
425.178930
20
261.261860
11
428.652790
21
261.862820
0
LINE
8
Calque 1
10
428.652790
20
261.862820
11
430.324050
21
269.714490
0
LINE
8
Calque 1
10
430.324050
20
269.714490
11
434.462330
21
289.161390
0
LINE
8
Calque 1
10
434.462330
20
289.161390
11
437.398150
21
302.784590
0
LINE
8
Calque 1
10
437.398150
20
302.784590
11
437.786890
21
304.244011
0
LINE
8
Calque 1
10
437.786890
20
304.244011
11
437.925359
21
304.402046
0
LINE
8
Calque 1
10
437.925359
20
304.402046
11
438.053980
21
304.239800
0
LINE
8
Calque 1
10
438.053980
20
304.239800
11
439.477090
21
298.157220
0
LINE
8
Calque 1
10
439.477090
20
298.157220
11
443.167480
21
280.959320
0
LINE
8
Calque 1
10
443.167480
20
280.959320
11
446.376250
21
265.825220
0
LINE
8
Calque 1
10
446.376250
20
265.825220
11
447.258410
21
262.066850
0
LINE
8
Calque 1
10
447.258410
20
262.066850
11
448.460165
21
261.713817
0
LINE
8
Calque 1
10
448.460165
20
261.713817
11
451.118690
21
261.238490
0
LINE
8
Calque 1
10
451.118690
20
261.238490
11
458.262640
21
259.793800
0
LINE
8
Calque 1
10
458.262640
20
259.793800
11
465.141800
21
257.686970
0
LINE
8
Calque 1
10
465.141800
20
257.686970
11
468.886319
21
256.170960
0
LINE
8
Calque 1
10
468.886319
20
256.170960
11
473.070870
21
254.245690
0
LINE
8
Calque 1
10
473.070870
20
254.245690
11
476.947015
21
252.237770
0
LINE
8
Calque 1
10
476.947015
20
252.237770
11
479.950040
21
250.523070
0
LINE
8
Calque 1
10
479.950040
20
250.523070
11
485.307990
21
246.782660
0
LINE
8
Calque 1
10
485.307990
20
246.782660
11
488.284690
21
244.548150
0
LINE
8
Calque 1
10
488.284690
20
244.548150
11
494.303820
21
248.448590
0
LINE
8
Calque 1
10
494.303820
20
248.448590
11
507.941820
21
257.342150
0
LINE
8
Calque 1
10
507.941820
20
257.342150
11
519.690920
21
264.969400
0
LINE
8
Calque 1
10
519.690920
20
264.969400
11
523.936330
21
267.488350
0
LINE
8
Calque 1
10
523.936330
20
267.488350
11
519.888310
21
260.804800
0
LINE
8
Calque 1
10
519.888310
20
260.804800
11
509.071610
21
243.653100
0
LINE
8
Calque 1
10
509.071610
20
243.653100
11
501.861330
21
232.143700
0
LINE
8
Calque 1
10
501.861330
20
232.143700
11
501.304560
21
231.217660
0
LINE
8
Calque 1
10
501.304560
20
231.217660
11
503.026720
21
228.836410
0
LINE
8
Calque 1
10
503.026720
20
228.836410
11
506.620500
21
223.294090
0
LINE
8
Calque 1
10
506.620500
20
223.294090
11
508.426568
21
220.008259
0
LINE
8
Calque 1
10
508.426568
20
220.008259
11
510.140610
21
216.547220
0
LINE
8
Calque 1
10
510.140610
20
216.547220
11
512.883630
21
209.786410
0
LINE
8
Calque 1
10
512.883630
20
209.786410
11
514.751280
21
203.568700
0
LINE
8
Calque 1
10
514.751280
20
203.568700
11
516.027230
21
197.576600
0
LINE
8
Calque 1
10
516.027230
20
197.576600
11
516.688890
21
194.370210
0
LINE
8
Calque 1
10
516.688890
20
194.370210
11
517.133121
21
194.135789
0
LINE
8
Calque 1
10
517.133121
20
194.135789
11
517.978070
21
193.933070
0
LINE
8
Calque 1
10
517.978070
20
193.933070
11
530.433170
21
191.247270
0
LINE
8
Calque 1
10
530.433170
20
191.247270
11
549.874070
21
186.878730
0
LINE
8
Calque 1
10
549.874070
20
186.878730
11
558.106450
21
184.899530
0
LINE
8
Calque 1
10
558.106450
20
184.899530
11
558.023450
21
184.783330
0
LINE
8
Calque 1
10
558.023450
20
184.783330
11
550.901750
21
183.179830
0
LINE
8
Calque 1
10
550.901750
20
183.179830
11
530.642150
21
178.692930
0
LINE
8
Calque 1
10
530.642150
20
178.692930
11
517.129950
21
175.600030
0
LINE
8
Calque 1
10
517.129950
20
175.600030
11
516.358580
21
171.421830
0
LINE
8
Calque 1
10
516.358580
20
171.421830
11
515.639879
21
167.453080
0
LINE
8
Calque 1
10
515.639879
20
167.453080
11
514.749390
21
163.484330
0
LINE
8
Calque 1
10
514.749390
20
163.484330
11
512.630090
21
156.472830
0
LINE
8
Calque 1
10
512.630090
20
156.472830
11
511.197996
21
152.994767
0
LINE
8
Calque 1
10
511.197996
20
152.994767
11
509.308680
21
148.905230
0
LINE
8
Calque 1
10
509.308680
20
148.905230
11
506.938820
21
144.473130
0
LINE
8
Calque 1
10
506.938820
20
144.473130
11
504.303790
21
140.200030
0
LINE
8
Calque 1
10
504.303790
20
140.200030
11
501.513820
21
135.812430
0
LINE
8
Calque 1
10
501.513820
20
135.812430
11
508.040720
21
125.467630
0
LINE
8
Calque 1
10
508.040720
20
125.467630
11
519.431820
21
107.693230
0
LINE
8
Calque 1
10
519.431820
20
107.693230
11
524.201860
21
99.962230
0
LINE
8
Calque 1
10
524.201860
20
99.962230
11
515.919660
21
105.107330
0
LINE
8
Calque 1
10
515.919660
20
105.107330
11
498.087560
21
116.594830
0
LINE
8
Calque 1
10
498.087560
20
116.594830
11
488.443540
21
122.843130
0
LINE
8
Calque 1
10
488.443540
20
122.843130
11
487.239650
21
121.921230
0
LINE
8
Calque 1
10
487.239650
20
121.921230
11
482.117190
21
118.372330
0
LINE
8
Calque 1
10
482.117190
20
118.372330
11
478.188035
21
115.928667
0
LINE
8
Calque 1
10
478.188035
20
115.928667
11
474.244000
21
113.742330
0
LINE
8
Calque 1
10
474.244000
20
113.742330
11
467.314650
21
110.577630
0
LINE
8
Calque 1
10
467.314650
20
110.577630
11
461.233150
21
108.475730
0
LINE
8
Calque 1
10
461.233150
20
108.475730
11
457.814269
21
107.579442
0
LINE
8
Calque 1
10
457.814269
20
107.579442
11
453.957110
21
106.744730
0
LINE
8
Calque 1
10
453.957110
20
106.744730
11
448.469490
21
105.747230
0
LINE
8
Calque 1
10
448.469490
20
105.747230
11
447.151130
21
105.540630
0
LINE
8
Calque 1
10
447.151130
20
105.540630
11
446.590590
21
103.027030
0
LINE
8
Calque 1
10
446.590590
20
103.027030
11
444.512460
21
93.766630
0
LINE
8
Calque 1
10
444.512460
20
93.766630
11
440.637500
21
77.097830
0
LINE
8
Calque 1
10
440.637500
20
77.097830
11
438.032630
21
66.646830
0
LINE
8
Calque 1
10
438.032630
20
66.646830
11
437.852556
21
66.333730
0
LINE
8
Calque 1
10
437.852556
20
66.333730
11
437.767200
21
66.323930
0
LINE
8
Calque 1
10
437.767200
20
66.323930
11
437.767000
21
66.323900
0
LINE
8
Calque 1
10
446.488250
20
112.424000
11
452.565760
21
113.377700
0
LINE
8
Calque 1
10
452.565760
20
113.377700
11
458.429630
21
114.815800
0
LINE
8
Calque 1
10
458.429630
20
114.815800
11
464.647340
21
116.930000
0
LINE
8
Calque 1
10
464.647340
20
116.930000
11
467.887190
21
118.328087
0
LINE
8
Calque 1
10
467.887190
20
118.328087
11
471.278540
21
119.964300
0
LINE
8
Calque 1
10
471.278540
20
119.964300
11
474.625286
21
121.809337
0
LINE
8
Calque 1
10
474.625286
20
121.809337
11
477.757900
21
123.709500
0
LINE
8
Calque 1
10
477.757900
20
123.709500
11
483.254500
21
127.607700
0
LINE
8
Calque 1
10
483.254500
20
127.607700
11
487.732350
21
131.311900
0
LINE
8
Calque 1
10
487.732350
20
131.311900
11
491.943550
21
135.570800
0
LINE
8
Calque 1
10
491.943550
20
135.570800
11
496.494870
21
141.161300
0
LINE
8
Calque 1
10
496.494870
20
141.161300
11
500.267030
21
146.615800
0
LINE
8
Calque 1
10
500.267030
20
146.615800
11
503.081860
21
151.671900
0
LINE
8
Calque 1
10
503.081860
20
151.671900
11
505.452310
21
156.933000
0
LINE
8
Calque 1
10
505.452310
20
156.933000
11
507.278180
21
162.029100
0
LINE
8
Calque 1
10
507.278180
20
162.029100
11
508.769000
21
167.637300
0
LINE
8
Calque 1
10
508.769000
20
167.637300
11
509.856460
21
173.458200
0
LINE
8
Calque 1
10
509.856460
20
173.458200
11
510.184101
21
176.860200
0
LINE
8
Calque 1
10
510.184101
20
176.860200
11
510.415390
21
181.211400
0
LINE
8
Calque 1
10
510.415390
20
181.211400
11
510.451366
21
185.770057
0
LINE
8
Calque 1
10
510.451366
20
185.770057
11
510.275700
21
189.545760
0
LINE
8
Calque 1
10
510.275700
20
189.545760
11
509.557180
21
195.366590
0
LINE
8
Calque 1
10
509.557180
20
195.366590
11
508.516370
21
200.556170
0
LINE
8
Calque 1
10
508.516370
20
200.556170
11
506.806040
21
206.445290
0
LINE
8
Calque 1
10
506.806040
20
206.445290
11
504.463390
21
212.500500
0
LINE
8
Calque 1
10
504.463390
20
212.500500
11
501.707940
21
218.011430
0
LINE
8
Calque 1
10
501.707940
20
218.011430
11
498.657900
21
223.038510
0
LINE
8
Calque 1
10
498.657900
20
223.038510
11
494.902050
21
228.174920
0
LINE
8
Calque 1
10
494.902050
20
228.174920
11
492.405605
21
231.071117
0
LINE
8
Calque 1
10
492.405605
20
231.071117
11
489.498940
21
234.133110
0
LINE
8
Calque 1
10
489.498940
20
234.133110
11
486.423711
21
237.032792
0
LINE
8
Calque 1
10
486.423711
20
237.032792
11
483.522010
21
239.538740
0
LINE
8
Calque 1
10
483.522010
20
239.538740
11
477.822320
21
243.686980
0
LINE
8
Calque 1
10
477.822320
20
243.686980
11
474.790722
21
245.549814
0
LINE
8
Calque 1
10
474.790722
20
245.549814
11
471.604610
21
247.328610
0
LINE
8
Calque 1
10
471.604610
20
247.328610
11
465.265760
21
250.269870
0
LINE
8
Calque 1
10
465.265760
20
250.269870
11
459.180350
21
252.387070
0
LINE
8
Calque 1
10
459.180350
20
252.387070
11
454.285550
21
253.706710
0
LINE
8
Calque 1
10
454.285550
20
253.706710
11
449.126180
21
254.667220
0
LINE
8
Calque 1
10
449.126180
20
254.667220
11
445.154700
21
255.109110
0
LINE
8
Calque 1
10
445.154700
20
255.109110
11
439.733470
21
255.346160
0
LINE
8
Calque 1
10
439.733470
20
255.346160
11
434.136961
21
255.368135
0
LINE
8
Calque 1
10
434.136961
20
255.368135
11
429.943890
21
255.042170
0
LINE
8
Calque 1
10
429.943890
20
255.042170
11
423.075050
21
253.931080
0
LINE
8
Calque 1
10
423.075050
20
253.931080
11
416.857340
21
252.341950
0
LINE
8
Calque 1
10
416.857340
20
252.341950
11
410.893890
21
250.229090
0
LINE
8
Calque 1
10
410.893890
20
250.229090
11
404.705200
21
247.334880
0
LINE
8
Calque 1
10
404.705200
20
247.334880
11
398.752080
21
243.876680
0
LINE
8
Calque 1
10
398.752080
20
243.876680
11
393.431390
21
240.112700
0
LINE
8
Calque 1
10
393.431390
20
240.112700
11
390.354191
21
237.486275
0
LINE
8
Calque 1
10
390.354191
20
237.486275
11
386.671240
21
233.997530
0
LINE
8
Calque 1
10
386.671240
20
233.997530
11
383.078159
21
230.196727
0
LINE
8
Calque 1
10
383.078159
20
230.196727
11
380.272180
21
226.852000
0
LINE
8
Calque 1
10
380.272180
20
226.852000
11
376.248710
21
221.031170
0
LINE
8
Calque 1
10
376.248710
20
221.031170
11
372.817170
21
214.813460
0
LINE
8
Calque 1
10
372.817170
20
214.813460
11
370.050150
21
208.463460
0
LINE
8
Calque 1
10
370.050150
20
208.463460
11
368.183500
21
202.774920
0
LINE
8
Calque 1
10
368.183500
20
202.774920
11
366.726560
21
196.292630
0
LINE
8
Calque 1
10
366.726560
20
196.292630
11
365.790870
21
189.545760
0
LINE
8
Calque 1
10
365.790870
20
189.545760
11
365.519660
21
183.328000
0
LINE
8
Calque 1
10
365.519660
20
183.328000
11
365.793370
21
177.110300
0
LINE
8
Calque 1
10
365.793370
20
177.110300
11
366.599340
21
171.024900
0
LINE
8
Calque 1
10
366.599340
20
171.024900
11
367.780690
21
165.417700
0
LINE
8
Calque 1
10
367.780690
20
165.417700
11
369.508780
21
159.729200
0
LINE
8
Calque 1
10
369.508780
20
159.729200
11
370.915706
21
156.201587
0
LINE
8
Calque 1
10
370.915706
20
156.201587
11
372.783140
21
152.107200
0
LINE
8
Calque 1
10
372.783140
20
152.107200
11
374.951044
21
147.997937
0
LINE
8
Calque 1
10
374.951044
20
147.997937
11
377.080360
21
144.434300
0
LINE
8
Calque 1
10
377.080360
20
144.434300
11
381.403420
21
138.499000
0
LINE
8
Calque 1
10
381.403420
20
138.499000
11
383.757122
21
135.764550
0
LINE
8
Calque 1
10
383.757122
20
135.764550
11
386.296870
21
133.066400
0
LINE
8
Calque 1
10
386.296870
20
133.066400
11
388.978197
21
130.540475
0
LINE
8
Calque 1
10
388.978197
20
130.540475
11
391.672290
21
128.219900
0
LINE
8
Calque 1
10
391.672290
20
128.219900
11
397.078430
21
124.242100
0
LINE
8
Calque 1
10
397.078430
20
124.242100
11
402.162640
21
121.085800
0
LINE
8
Calque 1
10
402.162640
20
121.085800
11
407.454310
21
118.430300
0
LINE
8
Calque 1
10
407.454310
20
118.430300
11
412.225860
21
116.426000
0
LINE
8
Calque 1
10
412.225860
20
116.426000
11
417.143220
21
114.825100
0
LINE
8
Calque 1
10
417.143220
20
114.825100
11
422.954990
21
113.373200
0
LINE
8
Calque 1
10
422.954990
20
113.373200
11
428.488680
21
112.449000
0
LINE
8
Calque 1
10
428.488680
20
112.449000
11
432.165724
21
112.174550
0
LINE
8
Calque 1
10
432.165724
20
112.174550
11
437.227830
21
112.050100
0
LINE
8
Calque 1
10
437.227830
20
112.050100
11
442.505222
21
112.132762
0
LINE
8
Calque 1
10
442.505222
20
112.132762
11
446.488250
21
112.424000
0
LINE
8
Calque 1
10
446.488250
20
112.424000
11
446.488250
21
112.424000
0
LINE
8
Calque 1
10
431.002250
20
115.741000
11
425.038210
21
116.639900
0
LINE
8
Calque 1
10
425.038210
20
116.639900
11
418.208660
21
118.229400
0
LINE
8
Calque 1
10
418.208660
20
118.229400
11
412.141260
21
120.266700
0
LINE
8
Calque 1
10
412.141260
20
120.266700
11
406.006240
21
123.060600
0
LINE
8
Calque 1
10
406.006240
20
123.060600
11
402.693929
21
124.905387
0
LINE
8
Calque 1
10
402.693929
20
124.905387
11
399.384550
21
126.966100
0
LINE
8
Calque 1
10
399.384550
20
126.966100
11
394.225170
21
130.661800
0
LINE
8
Calque 1
10
394.225170
20
130.661800
11
389.237480
21
135.246000
0
LINE
8
Calque 1
10
389.237480
20
135.246000
11
386.412861
21
138.193075
0
LINE
8
Calque 1
10
386.412861
20
138.193075
11
384.024930
21
140.921300
0
LINE
8
Calque 1
10
384.024930
20
140.921300
11
380.654390
21
145.419200
0
LINE
8
Calque 1
10
380.654390
20
145.419200
11
377.849110
21
149.922300
0
LINE
8
Calque 1
10
377.849110
20
149.922300
11
375.129710
21
155.214000
0
LINE
8
Calque 1
10
375.129710
20
155.214000
11
373.027400
21
160.388100
0
LINE
8
Calque 1
10
373.027400
20
160.388100
11
371.351660
21
165.812100
0
LINE
8
Calque 1
10
371.351660
20
165.812100
11
370.046860
21
171.554100
0
LINE
8
Calque 1
10
370.046860
20
171.554100
11
369.205930
21
178.168700
0
LINE
8
Calque 1
10
369.205930
20
178.168700
11
369.023681
21
182.008812
0
LINE
8
Calque 1
10
369.023681
20
182.008812
11
369.042650
21
185.854400
0
LINE
8
Calque 1
10
369.042650
20
185.854400
11
369.622310
21
192.601260
0
LINE
8
Calque 1
10
369.622310
20
192.601260
11
370.670400
21
198.277070
0
LINE
8
Calque 1
10
370.670400
20
198.277070
11
372.270540
21
204.097910
0
LINE
8
Calque 1
10
372.270540
20
204.097910
11
374.306180
21
209.654090
0
LINE
8
Calque 1
10
374.306180
20
209.654090
11
376.693020
21
214.766350
0
LINE
8
Calque 1
10
376.693020
20
214.766350
11
378.314106
21
217.625917
0
LINE
8
Calque 1
10
378.314106
20
217.625917
11
380.345480
21
220.851770
0
LINE
8
Calque 1
10
380.345480
20
220.851770
11
384.478350
21
226.585690
0
LINE
8
Calque 1
10
384.478350
20
226.585690
11
389.065800
21
231.628660
0
LINE
8
Calque 1
10
389.065800
20
231.628660
11
391.843921
21
234.253701
0
LINE
8
Calque 1
10
391.843921
20
234.253701
11
394.622050
21
236.639020
0
LINE
8
Calque 1
10
394.622050
20
236.639020
11
400.178300
21
240.670360
0
LINE
8
Calque 1
10
400.178300
20
240.670360
11
403.190246
21
242.486994
0
LINE
8
Calque 1
10
403.190246
20
242.486994
11
406.530550
21
244.303500
0
LINE
8
Calque 1
10
406.530550
20
244.303500
11
412.817390
21
247.200660
0
LINE
8
Calque 1
10
412.817390
20
247.200660
11
418.635970
21
249.190260
0
LINE
8
Calque 1
10
418.635970
20
249.190260
11
424.255380
21
250.621220
0
LINE
8
Calque 1
10
424.255380
20
250.621220
11
429.150170
21
251.499220
0
LINE
8
Calque 1
10
429.150170
20
251.499220
11
432.608455
21
251.760165
0
LINE
8
Calque 1
10
432.608455
20
251.760165
11
438.013710
21
251.849450
0
LINE
8
Calque 1
10
438.013710
20
251.849450
11
443.748735
21
251.742454
0
LINE
8
Calque 1
10
443.748735
20
251.742454
11
447.538710
21
251.371270
0
LINE
8
Calque 1
10
447.538710
20
251.371270
11
453.359610
21
250.275410
0
LINE
8
Calque 1
10
453.359610
20
250.275410
11
459.180440
21
248.674340
0
LINE
8
Calque 1
10
459.180440
20
248.674340
11
464.736630
21
246.638420
0
LINE
8
Calque 1
10
464.736630
20
246.638420
11
470.037340
21
244.160180
0
LINE
8
Calque 1
10
470.037340
20
244.160180
11
472.935772
21
242.547151
0
LINE
8
Calque 1
10
472.935772
20
242.547151
11
475.990460
21
240.663110
0
LINE
8
Calque 1
10
475.990460
20
240.663110
11
481.273080
21
236.909990
0
LINE
8
Calque 1
10
481.273080
20
236.909990
11
486.267860
21
232.432020
0
LINE
8
Calque 1
10
486.267860
20
232.432020
11
491.059980
21
227.348870
0
LINE
8
Calque 1
10
491.059980
20
227.348870
11
494.695290
21
222.586370
0
LINE
8
Calque 1
10
494.695290
20
222.586370
11
498.067420
21
217.261810
0
LINE
8
Calque 1
10
498.067420
20
217.261810
11
501.107490
21
211.308680
0
LINE
8
Calque 1
10
501.107490
20
211.308680
11
503.480990
21
205.288460
0
LINE
8
Calque 1
10
503.480990
20
205.288460
11
505.125210
21
199.599920
0
LINE
8
Calque 1
10
505.125210
20
199.599920
11
506.297690
21
193.382210
0
LINE
8
Calque 1
10
506.297690
20
193.382210
11
506.708134
21
189.787191
0
LINE
8
Calque 1
10
506.708134
20
189.787191
11
506.975200
21
185.973900
0
LINE
8
Calque 1
10
506.975200
20
185.973900
11
507.007090
21
182.095688
0
LINE
8
Calque 1
10
507.007090
20
182.095688
11
506.832820
21
178.357800
0
LINE
8
Calque 1
10
506.832820
20
178.357800
11
506.132480
21
172.404700
0
LINE
8
Calque 1
10
506.132480
20
172.404700
11
504.923300
21
166.791600
0
LINE
8
Calque 1
10
504.923300
20
166.791600
11
503.047580
21
160.573900
0
LINE
8
Calque 1
10
503.047580
20
160.573900
11
501.770576
21
157.430325
0
LINE
8
Calque 1
10
501.770576
20
157.430325
11
500.188150
21
153.959300
0
LINE
8
Calque 1
10
500.188150
20
153.959300
11
498.301903
21
150.410575
0
LINE
8
Calque 1
10
498.301903
20
150.410575
11
496.294440
21
147.080100
0
LINE
8
Calque 1
10
496.294440
20
147.080100
11
491.988210
21
141.127000
0
LINE
8
Calque 1
10
491.988210
20
141.127000
11
489.550631
21
138.298050
0
LINE
8
Calque 1
10
489.550631
20
138.298050
11
486.796920
21
135.397700
0
LINE
8
Calque 1
10
486.796920
20
135.397700
11
483.606954
21
132.496300
0
LINE
8
Calque 1
10
483.606954
20
132.496300
11
480.120520
21
129.664800
0
LINE
8
Calque 1
10
480.120520
20
129.664800
11
476.757728
21
127.258038
0
LINE
8
Calque 1
10
476.757728
20
127.258038
11
473.865050
21
125.377700
0
LINE
8
Calque 1
10
473.865050
20
125.377700
11
467.823450
21
122.207700
0
LINE
8
Calque 1
10
467.823450
20
122.207700
11
461.693920
21
119.611400
0
LINE
8
Calque 1
10
461.693920
20
119.611400
11
457.196000
21
118.141400
0
LINE
8
Calque 1
10
457.196000
20
118.141400
11
452.962670
21
117.079600
0
LINE
8
Calque 1
10
452.962670
20
117.079600
11
447.803290
21
116.125800
0
LINE
8
Calque 1
10
447.803290
20
116.125800
11
444.201014
21
115.785188
0
LINE
8
Calque 1
10
444.201014
20
115.785188
11
439.204330
21
115.596300
0
LINE
8
Calque 1
10
439.204330
20
115.596300
11
434.393880
21
115.598263
0
LINE
8
Calque 1
10
434.393880
20
115.598263
11
431.002250
21
115.741000
0
LINE
8
Calque 1
10
431.002250
20
115.741000
11
431.002250
21
115.741000
0
LINE
8
Calque 1
10
447.803250
20
118.764300
11
454.567370
21
120.222200
0
LINE
8
Calque 1
10
454.567370
20
120.222200
11
461.181950
21
122.215800
0
LINE
8
Calque 1
10
461.181950
20
122.215800
11
466.791540
21
124.603400
0
LINE
8
Calque 1
10
466.791540
20
124.603400
11
472.344200
21
127.547800
0
LINE
8
Calque 1
10
472.344200
20
127.547800
11
477.659930
21
131.116100
0
LINE
8
Calque 1
10
477.659930
20
131.116100
11
482.956040
21
135.405900
0
LINE
8
Calque 1
10
482.956040
20
135.405900
11
487.111450
21
139.460700
0
LINE
8
Calque 1
10
487.111450
20
139.460700
11
490.398000
21
143.376000
0
LINE
8
Calque 1
10
490.398000
20
143.376000
11
493.902450
21
148.270800
0
LINE
8
Calque 1
10
493.902450
20
148.270800
11
495.766305
21
151.398612
0
LINE
8
Calque 1
10
495.766305
20
151.398612
11
497.689980
21
155.017600
0
LINE
8
Calque 1
10
497.689980
20
155.017600
11
499.513377
21
159.092737
0
LINE
8
Calque 1
10
499.513377
20
159.092737
11
501.089440
21
163.352000
0
LINE
8
Calque 1
10
501.089440
20
163.352000
11
502.262016
21
167.251312
0
LINE
8
Calque 1
10
502.262016
20
167.251312
11
503.068630
21
170.495800
0
LINE
8
Calque 1
10
503.068630
20
170.495800
11
503.945910
21
175.655100
0
LINE
8
Calque 1
10
503.945910
20
175.655100
11
504.177356
21
178.993437
0
LINE
8
Calque 1
10
504.177356
20
178.993437
11
504.263490
21
183.724900
0
LINE
8
Calque 1
10
504.263490
20
183.724900
11
504.134710
21
189.005432
0
LINE
8
Calque 1
10
504.134710
20
189.005432
11
503.676500
21
193.117630
0
LINE
8
Calque 1
10
503.676500
20
193.117630
11
502.996751
21
196.772615
0
LINE
8
Calque 1
10
502.996751
20
196.772615
11
502.167490
21
200.358540
0
LINE
8
Calque 1
10
502.167490
20
200.358540
11
501.149661
21
203.760476
0
LINE
8
Calque 1
10
501.149661
20
203.760476
11
500.016550
21
206.973120
0
LINE
8
Calque 1
10
500.016550
20
206.973120
11
497.361050
21
212.927370
0
LINE
8
Calque 1
10
497.361050
20
212.927370
11
494.579790
21
217.954460
0
LINE
8
Calque 1
10
494.579790
20
217.954460
11
490.968990
21
223.137430
0
LINE
8
Calque 1
10
490.968990
20
223.137430
11
488.586103
21
226.090382
0
LINE
8
Calque 1
10
488.586103
20
226.090382
11
486.044440
21
228.931900
0
LINE
8
Calque 1
10
486.044440
20
228.931900
11
483.314601
21
231.584249
0
LINE
8
Calque 1
10
483.314601
20
231.584249
11
480.479290
21
234.082390
0
LINE
8
Calque 1
10
480.479290
20
234.082390
11
477.491155
21
236.382231
0
LINE
8
Calque 1
10
477.491155
20
236.382231
11
474.393880
21
238.557820
0
LINE
8
Calque 1
10
474.393880
20
238.557820
11
471.063435
21
240.563541
0
LINE
8
Calque 1
10
471.063435
20
240.563541
11
467.514710
21
242.455000
0
LINE
8
Calque 1
10
467.514710
20
242.455000
11
463.927125
21
244.081820
0
LINE
8
Calque 1
10
463.927125
20
244.081820
11
460.503250
21
245.451300
0
LINE
8
Calque 1
10
460.503250
20
245.451300
11
454.417840
21
247.323320
0
LINE
8
Calque 1
10
454.417840
20
247.323320
11
449.358220
21
248.398860
0
LINE
8
Calque 1
10
449.358220
20
248.398860
11
444.095000
21
249.100810
0
LINE
8
Calque 1
10
444.095000
20
249.100810
11
440.552129
21
249.289732
0
LINE
8
Calque 1
10
440.552129
20
249.289732
11
436.057740
21
249.269600
0
LINE
8
Calque 1
10
436.057740
20
249.269600
11
431.278115
21
249.007030
0
LINE
8
Calque 1
10
431.278115
20
249.007030
11
427.165750
21
248.456280
0
LINE
8
Calque 1
10
427.165750
20
248.456280
11
423.484735
21
247.702972
0
LINE
8
Calque 1
10
423.484735
20
247.702972
11
420.022000
21
246.832530
0
LINE
8
Calque 1
10
420.022000
20
246.832530
11
413.672000
21
244.674320
0
LINE
8
Calque 1
10
413.672000
20
244.674320
11
407.586590
21
241.885570
0
LINE
8
Calque 1
10
407.586590
20
241.885570
11
401.503260
21
238.302800
0
LINE
8
Calque 1
10
401.503260
20
238.302800
11
396.079300
21
234.386360
0
LINE
8
Calque 1
10
396.079300
20
234.386360
11
393.423429
21
232.031967
0
LINE
8
Calque 1
10
393.423429
20
232.031967
11
390.384840
21
229.064840
0
LINE
8
Calque 1
10
390.384840
20
229.064840
11
387.459951
21
225.880836
0
LINE
8
Calque 1
10
387.459951
20
225.880836
11
385.077440
21
223.005000
0
LINE
8
Calque 1
10
385.077440
20
223.005000
11
381.531810
21
217.845620
0
LINE
8
Calque 1
10
381.531810
20
217.845620
11
378.169900
21
211.638460
0
LINE
8
Calque 1
10
378.169900
20
211.638460
11
376.508129
21
207.856575
0
LINE
8
Calque 1
10
376.508129
20
207.856575
11
375.058090
21
203.965550
0
LINE
8
Calque 1
10
375.058090
20
203.965550
11
373.947246
21
200.229961
0
LINE
8
Calque 1
10
373.947246
20
200.229961
11
373.100980
21
196.821800
0
LINE
8
Calque 1
10
373.100980
20
196.821800
11
372.093320
21
191.133260
0
LINE
8
Calque 1
10
372.093320
20
191.133260
11
371.846041
21
187.815311
0
LINE
8
Calque 1
10
371.846041
20
187.815311
11
371.747840
21
183.328000
0
LINE
8
Calque 1
10
371.747840
20
183.328000
11
371.849217
21
178.891287
0
LINE
8
Calque 1
10
371.849217
20
178.891287
11
372.087350
21
175.655100
0
LINE
8
Calque 1
10
372.087350
20
175.655100
11
373.074420
21
170.024500
0
LINE
8
Calque 1
10
373.074420
20
170.024500
11
373.876264
21
166.692037
0
LINE
8
Calque 1
10
373.876264
20
166.692037
11
374.888700
21
163.242800
0
LINE
8
Calque 1
10
374.888700
20
163.242800
11
376.166645
21
159.747925
0
LINE
8
Calque 1
10
376.166645
20
159.747925
11
377.606860
21
156.305700
0
LINE
8
Calque 1
10
377.606860
20
156.305700
11
380.691440
21
150.307400
0
LINE
8
Calque 1
10
380.691440
20
150.307400
11
382.484192
21
147.527637
0
LINE
8
Calque 1
10
382.484192
20
147.527637
11
384.647580
21
144.486500
0
LINE
8
Calque 1
10
384.647580
20
144.486500
11
387.256621
21
141.284475
0
LINE
8
Calque 1
10
387.256621
20
141.284475
11
390.120850
21
138.117700
0
LINE
8
Calque 1
10
390.120850
20
138.117700
11
393.030494
21
135.288337
0
LINE
8
Calque 1
10
393.030494
20
135.288337
11
395.748730
21
132.897500
0
LINE
8
Calque 1
10
395.748730
20
132.897500
11
400.643520
21
129.271700
0
LINE
8
Calque 1
10
400.643520
20
129.271700
11
405.107330
21
126.522300
0
LINE
8
Calque 1
10
405.107330
20
126.522300
11
409.605250
21
124.241600
0
LINE
8
Calque 1
10
409.605250
20
124.241600
11
414.465750
21
122.201300
0
LINE
8
Calque 1
10
414.465750
20
122.201300
11
417.406761
21
121.223575
0
LINE
8
Calque 1
10
417.406761
20
121.223575
11
420.948050
21
120.223800
0
LINE
8
Calque 1
10
420.948050
20
120.223800
11
424.644770
21
119.384462
0
LINE
8
Calque 1
10
424.644770
20
119.384462
11
427.959500
21
118.792400
0
LINE
8
Calque 1
10
427.959500
20
118.792400
11
431.795960
21
118.266100
0
LINE
8
Calque 1
10
431.795960
20
118.266100
11
438.807420
21
118.239100
0
LINE
8
Calque 1
10
438.807420
20
118.239100
11
444.165075
21
118.411925
0
LINE
8
Calque 1
10
444.165075
20
118.411925
11
447.803250
21
118.764600
0
LINE
8
Calque 1
10
447.803250
20
118.764600
11
447.803250
21
118.764300
0
LINE
8
Calque 1
10
431.663650
20
120.493300
11
426.901150
21
121.149500
0
LINE
8
Calque 1
10
426.901150
20
121.149500
11
421.741780
21
122.232300
0
LINE
8
Calque 1
10
421.741780
20
122.232300
11
416.317820
21
123.823500
0
LINE
8
Calque 1
10
416.317820
20
123.823500
11
413.112225
21
125.093312
0
LINE
8
Calque 1
10
413.112225
20
125.093312
11
409.306360
21
126.839600
0
LINE
8
Calque 1
10
409.306360
20
126.839600
11
405.539355
21
128.832825
0
LINE
8
Calque 1
10
405.539355
20
128.832825
11
402.427190
21
130.696300
0
LINE
8
Calque 1
10
402.427190
20
130.696300
11
397.532400
21
134.211900
0
LINE
8
Calque 1
10
397.532400
20
134.211900
11
395.124176
21
136.261612
0
LINE
8
Calque 1
10
395.124176
20
136.261612
11
392.492310
21
138.740100
0
LINE
8
Calque 1
10
392.492310
20
138.740100
11
388.102270
21
143.508300
0
LINE
8
Calque 1
10
388.102270
20
143.508300
11
384.774880
21
148.006200
0
LINE
8
Calque 1
10
384.774880
20
148.006200
11
381.660860
21
152.989700
0
LINE
8
Calque 1
10
381.660860
20
152.989700
11
379.242620
21
157.840700
0
LINE
8
Calque 1
10
379.242620
20
157.840700
11
377.280910
21
162.890600
0
LINE
8
Calque 1
10
377.280910
20
162.890600
11
375.675730
21
168.226100
0
LINE
8
Calque 1
10
375.675730
20
168.226100
11
374.492200
21
174.332200
0
LINE
8
Calque 1
10
374.492200
20
174.332200
11
373.817030
21
181.476000
0
LINE
8
Calque 1
10
373.817030
20
181.476000
11
373.782010
21
185.071550
0
LINE
8
Calque 1
10
373.782010
20
185.071550
11
373.966740
21
188.487400
0
LINE
8
Calque 1
10
373.966740
20
188.487400
11
374.946470
21
195.213330
0
LINE
8
Calque 1
10
374.946470
20
195.213330
11
376.531390
21
201.695620
0
LINE
8
Calque 1
10
376.531390
20
201.695620
11
377.579856
21
204.791999
0
LINE
8
Calque 1
10
377.579856
20
204.791999
11
378.804910
21
207.934300
0
LINE
8
Calque 1
10
378.804910
20
207.934300
11
381.462110
21
213.472540
0
LINE
8
Calque 1
10
381.462110
20
213.472540
11
384.561630
21
218.499620
0
LINE
8
Calque 1
10
384.561630
20
218.499620
11
387.732080
21
222.883250
0
LINE
8
Calque 1
10
387.732080
20
222.883250
11
391.138100
21
226.837350
0
LINE
8
Calque 1
10
391.138100
20
226.837350
11
393.425785
21
229.147929
0
LINE
8
Calque 1
10
393.425785
20
229.147929
11
396.077190
21
231.565600
0
LINE
8
Calque 1
10
396.077190
20
231.565600
11
399.180774
21
234.022805
0
LINE
8
Calque 1
10
399.180774
20
234.022805
11
402.555610
21
236.428440
0
LINE
8
Calque 1
10
402.555610
20
236.428440
11
406.164740
21
238.634393
0
LINE
8
Calque 1
10
406.164740
20
238.634393
11
409.831650
21
240.611490
0
LINE
8
Calque 1
10
409.831650
20
240.611490
11
413.616274
21
242.281943
0
LINE
8
Calque 1
10
413.616274
20
242.281943
11
417.508440
21
243.750630
0
LINE
8
Calque 1
10
417.508440
20
243.750630
11
421.215338
21
244.885690
0
LINE
8
Calque 1
10
421.215338
20
244.885690
11
424.554510
21
245.754020
0
LINE
8
Calque 1
10
424.554510
20
245.754020
11
431.301390
21
246.861520
0
LINE
8
Calque 1
10
431.301390
20
246.861520
11
435.239857
21
247.162728
0
LINE
8
Calque 1
10
435.239857
20
247.162728
11
439.865730
21
247.137010
0
LINE
8
Calque 1
10
439.865730
20
247.137010
11
444.293408
21
246.879675
0
LINE
8
Calque 1
10
444.293408
20
246.879675
11
447.935520
21
246.447980
0
LINE
8
Calque 1
10
447.935520
20
246.447980
11
453.756360
21
245.263010
0
LINE
8
Calque 1
10
453.756360
20
245.263010
11
459.151420
21
243.653440
0
LINE
8
Calque 1
10
459.151420
20
243.653440
11
464.465910
21
241.564450
0
LINE
8
Calque 1
10
464.465910
20
241.564450
11
469.918760
21
238.793450
0
LINE
8
Calque 1
10
469.918760
20
238.793450
11
475.187610
21
235.450440
0
LINE
8
Calque 1
10
475.187610
20
235.450440
11
480.305300
21
231.433200
0
LINE
8
Calque 1
10
480.305300
20
231.433200
11
482.839297
21
229.134355
0
LINE
8
Calque 1
10
482.839297
20
229.134355
11
485.089000
21
226.859990
0
LINE
8
Calque 1
10
485.089000
20
226.859990
11
488.418540
21
223.015550
0
LINE
8
Calque 1
10
488.418540
20
223.015550
11
491.800530
21
218.253050
0
LINE
8
Calque 1
10
491.800530
20
218.253050
11
493.814026
21
214.922605
0
LINE
8
Calque 1
10
493.814026
20
214.922605
11
495.706480
21
211.373880
0
LINE
8
Calque 1
10
495.706480
20
211.373880
11
498.460090
21
205.087600
0
LINE
8
Calque 1
10
498.460090
20
205.087600
11
500.169920
21
199.531350
0
LINE
8
Calque 1
10
500.169920
20
199.531350
11
501.356820
21
194.040750
0
LINE
8
Calque 1
10
501.356820
20
194.040750
11
502.062600
21
187.955300
0
LINE
8
Calque 1
10
502.062600
20
187.955300
11
502.211041
21
184.463238
0
LINE
8
Calque 1
10
502.211041
20
184.463238
11
502.172830
21
181.079100
0
LINE
8
Calque 1
10
502.172830
20
181.079100
11
501.620660
21
174.967700
0
LINE
8
Calque 1
10
501.620660
20
174.967700
11
500.467760
21
169.014600
0
LINE
8
Calque 1
10
500.467760
20
169.014600
11
498.754150
21
163.168800
0
LINE
8
Calque 1
10
498.754150
20
163.168800
11
496.779120
21
158.123900
0
LINE
8
Calque 1
10
496.779120
20
158.123900
11
494.360920
21
153.281700
0
LINE
8
Calque 1
10
494.360920
20
153.281700
11
491.722520
21
148.933800
0
LINE
8
Calque 1
10
491.722520
20
148.933800
11
488.531910
21
144.566600
0
LINE
8
Calque 1
10
488.531910
20
144.566600
11
486.265610
21
141.897563
0
LINE
8
Calque 1
10
486.265610
20
141.897563
11
483.537040
21
139.010200
0
LINE
8
Calque 1
10
483.537040
20
139.010200
11
480.483695
21
136.186538
0
LINE
8
Calque 1
10
480.483695
20
136.186538
11
477.436560
21
133.670600
0
LINE
8
Calque 1
10
477.436560
20
133.670600
11
472.012610
21
129.875200
0
LINE
8
Calque 1
10
472.012610
20
129.875200
11
466.191770
21
126.696400
0
LINE
8
Calque 1
10
466.191770
20
126.696400
11
462.596745
21
125.123600
0
LINE
8
Calque 1
10
462.596745
20
125.123600
11
458.783440
21
123.701700
0
LINE
8
Calque 1
10
458.783440
20
123.701700
11
452.254340
21
121.838400
0
LINE
8
Calque 1
10
452.254340
20
121.838400
11
447.094960
21
120.879900
0
LINE
8
Calque 1
10
447.094960
20
120.879900
11
443.705451
21
120.559488
0
LINE
8
Calque 1
10
443.705451
20
120.559488
11
439.204270
21
120.364700
0
LINE
8
Calque 1
10
439.204270
20
120.364700
11
434.806405
21
120.358950
0
LINE
8
Calque 1
10
434.806405
20
120.358950
11
431.663650
21
120.493300
0
LINE
8
Calque 1
10
431.663650
20
120.493300
11
431.663650
21
120.493300
0
LINE
8
Calque 1
10
447.803250
20
123.264300
11
453.756380
21
124.584600
0
LINE
8
Calque 1
10
453.756380
20
124.584600
11
459.841790
21
126.439200
0
LINE
8
Calque 1
10
459.841790
20
126.439200
11
465.705130
21
129.004500
0
LINE
8
Calque 1
10
465.705130
20
129.004500
11
468.819945
21
130.664975
0
LINE
8
Calque 1
10
468.819945
20
130.664975
11
471.790550
21
132.443500
0
LINE
8
Calque 1
10
471.790550
20
132.443500
11
477.062230
21
136.234700
0
LINE
8
Calque 1
10
477.062230
20
136.234700
11
481.997860
21
140.695100
0
LINE
8
Calque 1
10
481.997860
20
140.695100
11
486.296720
21
145.418200
0
LINE
8
Calque 1
10
486.296720
20
145.418200
11
489.877780
21
150.337700
0
LINE
8
Calque 1
10
489.877780
20
150.337700
11
493.037250
21
155.685300
0
LINE
8
Calque 1
10
493.037250
20
155.685300
11
495.545950
21
161.199000
0
LINE
8
Calque 1
10
495.545950
20
161.199000
11
497.494070
21
166.831700
0
LINE
8
Calque 1
10
497.494070
20
166.831700
11
498.834270
21
172.347800
0
LINE
8
Calque 1
10
498.834270
20
172.347800
11
499.655740
21
177.507200
0
LINE
8
Calque 1
10
499.655740
20
177.507200
11
499.921830
21
183.592600
0
LINE
8
Calque 1
10
499.921830
20
183.592600
11
499.662820
21
189.678050
0
LINE
8
Calque 1
10
499.662820
20
189.678050
11
499.108320
21
193.779090
0
LINE
8
Calque 1
10
499.108320
20
193.779090
11
498.189600
21
198.018040
0
LINE
8
Calque 1
10
498.189600
20
198.018040
11
496.474140
21
203.706580
0
LINE
8
Calque 1
10
496.474140
20
203.706580
11
495.250570
21
206.877611
0
LINE
8
Calque 1
10
495.250570
20
206.877611
11
493.842590
21
210.050960
0
LINE
8
Calque 1
10
493.842590
20
210.050960
11
490.802340
21
215.607210
0
LINE
8
Calque 1
10
490.802340
20
215.607210
11
487.418210
21
220.502000
0
LINE
8
Calque 1
10
487.418210
20
220.502000
11
485.306789
21
223.085189
0
LINE
8
Calque 1
10
485.306789
20
223.085189
11
482.874870
21
225.766170
0
LINE
8
Calque 1
10
482.874870
20
225.766170
11
477.833460
21
230.509800
0
LINE
8
Calque 1
10
477.833460
20
230.509800
11
475.247749
21
232.514775
0
LINE
8
Calque 1
10
475.247749
20
232.514775
11
472.374930
21
234.536550
0
LINE
8
Calque 1
10
472.374930
20
234.536550
11
469.201374
21
236.479560
0
LINE
8
Calque 1
10
469.201374
20
236.479560
11
465.892630
21
238.295160
0
LINE
8
Calque 1
10
465.892630
20
238.295160
11
462.602435
21
239.837416
0
LINE
8
Calque 1
10
462.602435
20
239.837416
11
459.473460
21
241.123240
0
LINE
8
Calque 1
10
459.473460
20
241.123240
11
453.454160
21
243.001290
0
LINE
8
Calque 1
10
453.454160
20
243.001290
11
450.189006
21
243.714200
0
LINE
8
Calque 1
10
450.189006
20
243.714200
11
446.558730
21
244.340140
0
LINE
8
Calque 1
10
446.558730
20
244.340140
11
442.303069
21
244.782142
0
LINE
8
Calque 1
10
442.303069
20
244.782142
11
436.703040
21
244.775240
0
LINE
8
Calque 1
10
436.703040
20
244.775240
11
431.387975
21
244.552993
0
LINE
8
Calque 1
10
431.387975
20
244.552993
11
427.694920
21
244.097960
0
LINE
8
Calque 1
10
427.694920
20
244.097960
11
421.344920
21
242.597090
0
LINE
8
Calque 1
10
421.344920
20
242.597090
11
414.617200
21
240.279580
0
LINE
8
Calque 1
10
414.617200
20
240.279580
11
411.263236
21
238.778279
0
LINE
8
Calque 1
10
411.263236
20
238.778279
11
408.002610
21
237.085600
0
LINE
8
Calque 1
10
408.002610
20
237.085600
11
402.956380
21
233.975220
0
LINE
8
Calque 1
10
402.956380
20
233.975220
11
398.893600
21
230.922600
0
LINE
8
Calque 1
10
398.893600
20
230.922600
11
394.131100
21
226.586380
0
LINE
8
Calque 1
10
394.131100
20
226.586380
11
391.698954
21
223.966488
0
LINE
8
Calque 1
10
391.698954
20
223.966488
11
389.434830
21
221.269510
0
LINE
8
Calque 1
10
389.434830
20
221.269510
11
386.223040
21
216.930130
0
LINE
8
Calque 1
10
386.223040
20
216.930130
11
383.821460
21
213.003910
0
LINE
8
Calque 1
10
383.821460
20
213.003910
11
381.291250
21
207.934340
0
LINE
8
Calque 1
10
381.291250
20
207.934340
11
379.182410
21
202.467850
0
LINE
8
Calque 1
10
379.182410
20
202.467850
11
377.563850
21
196.575720
0
LINE
8
Calque 1
10
377.563850
20
196.575720
11
376.479670
21
190.368070
0
LINE
8
Calque 1
10
376.479670
20
190.368070
11
376.212356
21
187.028959
0
LINE
8
Calque 1
10
376.212356
20
187.028959
11
376.101170
21
183.285500
0
LINE
8
Calque 1
10
376.101170
20
183.285500
11
376.221006
21
179.524175
0
LINE
8
Calque 1
10
376.221006
20
179.524175
11
376.509120
21
176.142200
0
LINE
8
Calque 1
10
376.509120
20
176.142200
11
377.461730
21
170.506200
0
LINE
8
Calque 1
10
377.461730
20
170.506200
11
379.003300
21
164.939500
0
LINE
8
Calque 1
10
379.003300
20
164.939500
11
381.341660
21
158.890700
0
LINE
8
Calque 1
10
381.341660
20
158.890700
11
384.335590
21
152.997500
0
LINE
8
Calque 1
10
384.335590
20
152.997500
11
386.139551
21
150.109850
0
LINE
8
Calque 1
10
386.139551
20
150.109850
11
388.156220
21
147.221300
0
LINE
8
Calque 1
10
388.156220
20
147.221300
11
392.117680
21
142.336300
0
LINE
8
Calque 1
10
392.117680
20
142.336300
11
396.389600
21
138.174800
0
LINE
8
Calque 1
10
396.389600
20
138.174800
11
400.912300
21
134.516800
0
LINE
8
Calque 1
10
400.912300
20
134.516800
11
405.363170
21
131.542800
0
LINE
8
Calque 1
10
405.363170
20
131.542800
11
409.988700
21
128.945700
0
LINE
8
Calque 1
10
409.988700
20
128.945700
11
415.197010
21
126.674700
0
LINE
8
Calque 1
10
415.197010
20
126.674700
11
421.154810
21
124.732800
0
LINE
8
Calque 1
10
421.154810
20
124.732800
11
427.165750
21
123.417900
0
LINE
8
Calque 1
10
427.165750
20
123.417900
11
431.266800
21
122.776800
0
LINE
8
Calque 1
10
431.266800
20
122.776800
11
438.807420
21
122.736800
0
LINE
8
Calque 1
10
438.807420
20
122.736800
11
444.385095
21
122.896700
0
LINE
8
Calque 1
10
444.385095
20
122.896700
11
447.803250
21
123.264200
0
LINE
8
Calque 1
10
447.803250
20
123.264200
11
447.803250
21
123.264300
0
LINE
8
Calque 1
10
428.854050
20
141.157300
11
419.404410
21
148.264200
0
LINE
8
Calque 1
10
419.404410
20
148.264200
11
419.412964
21
149.205887
0
LINE
8
Calque 1
10
419.412964
20
149.205887
11
419.743440
21
151.175300
0
LINE
8
Calque 1
10
419.743440
20
151.175300
11
420.050317
21
152.880564
0
LINE
8
Calque 1
10
420.050317
20
152.880564
11
420.195635
21
154.765762
0
LINE
8
Calque 1
10
420.195635
20
154.765762
11
420.120520
21
162.715300
0
LINE
8
Calque 1
10
420.120520
20
162.715300
11
419.907482
21
169.639437
0
LINE
8
Calque 1
10
419.907482
20
169.639437
11
419.777507
21
171.112314
0
LINE
8
Calque 1
10
419.777507
20
171.112314
11
419.615020
21
171.554100
0
LINE
8
Calque 1
10
419.615020
20
171.554100
11
417.793540
21
170.868000
0
LINE
8
Calque 1
10
417.793540
20
170.868000
11
416.470356
21
170.365075
0
LINE
8
Calque 1
10
416.470356
20
170.365075
11
416.106832
21
170.375981
0
LINE
8
Calque 1
10
416.106832
20
170.375981
11
415.793830
21
170.537300
0
LINE
8
Calque 1
10
415.793830
20
170.537300
11
410.181590
21
176.713500
0
LINE
8
Calque 1
10
410.181590
20
176.713500
11
404.476420
21
183.297600
0
LINE
8
Calque 1
10
404.476420
20
183.297600
11
404.056907
21
184.015862
0
LINE
8
Calque 1
10
404.056907
20
184.015862
11
403.882420
21
184.670900
0
LINE
8
Calque 1
10
403.882420
20
184.670900
11
404.339866
21
185.676225
0
LINE
8
Calque 1
10
404.339866
20
185.676225
11
405.491400
21
187.281100
0
LINE
8
Calque 1
10
405.491400
20
187.281100
11
406.718580
21
188.692557
0
LINE
8
Calque 1
10
406.718580
20
188.692557
11
407.409630
21
189.277500
0
LINE
8
Calque 1
10
407.409630
20
189.277500
11
408.242142
21
188.731925
0
LINE
8
Calque 1
10
408.242142
20
188.731925
11
409.809460
21
187.425400
0
LINE
8
Calque 1
10
409.809460
20
187.425400
11
412.139960
21
185.577000
0
LINE
8
Calque 1
10
412.139960
20
185.577000
11
413.612990
21
186.742100
0
LINE
8
Calque 1
10
413.612990
20
186.742100
11
414.846100
21
187.907200
0
LINE
8
Calque 1
10
414.846100
20
187.907200
11
420.433040
21
185.022300
0
LINE
8
Calque 1
10
420.433040
20
185.022300
11
426.438690
21
182.137400
0
LINE
8
Calque 1
10
426.438690
20
182.137400
11
429.879850
21
183.724900
0
LINE
8
Calque 1
10
429.879850
20
183.724900
11
432.173035
21
184.846062
0
LINE
8
Calque 1
10
432.173035
20
184.846062
11
433.442110
21
185.312400
0
LINE
8
Calque 1
10
433.442110
20
185.312400
11
435.739250
21
184.651000
0
LINE
8
Calque 1
10
435.739250
20
184.651000
11
438.085860
21
183.986900
0
LINE
8
Calque 1
10
438.085860
20
183.986900
11
440.725230
21
184.709800
0
LINE
8
Calque 1
10
440.725230
20
184.709800
11
442.775320
21
185.435300
0
LINE
8
Calque 1
10
442.775320
20
185.435300
11
446.085730
21
183.786400
0
LINE
8
Calque 1
10
446.085730
20
183.786400
11
449.826330
21
182.137400
0
LINE
8
Calque 1
10
449.826330
20
182.137400
11
451.704089
21
182.953487
0
LINE
8
Calque 1
10
451.704089
20
182.953487
11
455.614610
21
184.915500
0
LINE
8
Calque 1
10
455.614610
20
184.915500
11
461.347530
21
187.693700
0
LINE
8
Calque 1
10
461.347530
20
187.693700
11
461.875912
21
187.421675
0
LINE
8
Calque 1
10
461.875912
20
187.421675
11
462.619920
21
186.767600
0
LINE
8
Calque 1
10
462.619920
20
186.767600
11
463.400159
21
186.113613
0
LINE
8
Calque 1
10
463.400159
20
186.113613
11
464.015660
21
185.841600
0
LINE
8
Calque 1
10
464.015660
20
185.841600
11
464.951656
21
186.351038
0
LINE
8
Calque 1
10
464.951656
20
186.351038
11
466.502450
21
187.575900
0
LINE
8
Calque 1
10
466.502450
20
187.575900
11
468.009061
21
188.777099
0
LINE
8
Calque 1
10
468.009061
20
188.777099
11
468.838850
21
189.229580
0
LINE
8
Calque 1
10
468.838850
20
189.229580
11
469.557847
21
188.605903
0
LINE
8
Calque 1
10
469.557847
20
188.605903
11
470.798080
21
187.219700
0
LINE
8
Calque 1
10
470.798080
20
187.219700
11
471.982795
21
185.629463
0
LINE
8
Calque 1
10
471.982795
20
185.629463
11
472.409500
21
184.641100
0
LINE
8
Calque 1
10
472.409500
20
184.641100
11
472.093203
21
183.980148
0
LINE
8
Calque 1
10
472.093203
20
183.980148
11
471.086485
21
182.626413
0
LINE
8
Calque 1
10
471.086485
20
182.626413
11
466.654810
21
177.404200
0
LINE
8
Calque 1
10
466.654810
20
177.404200
11
462.427042
21
172.658838
0
LINE
8
Calque 1
10
462.427042
20
172.658838
11
460.343450
21
170.500000
0
LINE
8
Calque 1
10
460.343450
20
170.500000
11
460.007735
21
170.364909
0
LINE
8
Calque 1
10
460.007735
20
170.364909
11
459.638724
21
170.369525
0
LINE
8
Calque 1
10
459.638724
20
170.369525
11
458.434010
21
170.868600
0
LINE
8
Calque 1
10
458.434010
20
170.868600
11
456.675590
21
171.554100
0
LINE
8
Calque 1
10
456.675590
20
171.554100
11
456.262790
21
171.488100
0
LINE
8
Calque 1
10
456.262790
20
171.488100
11
456.093520
21
163.067900
0
LINE
8
Calque 1
10
456.093520
20
163.067900
11
456.040472
21
155.673775
0
LINE
8
Calque 1
10
456.040472
20
155.673775
11
456.161431
21
153.682081
0
LINE
8
Calque 1
10
456.161431
20
153.682081
11
456.405160
21
151.955400
0
LINE
8
Calque 1
10
456.405160
20
151.955400
11
456.905150
21
148.771100
0
LINE
8
Calque 1
10
456.905150
20
148.771100
11
456.289607
21
148.122433
0
LINE
8
Calque 1
10
456.289607
20
148.122433
11
454.493041
21
146.633962
0
LINE
8
Calque 1
10
454.493041
20
146.633962
11
447.803930
21
141.495100
0
LINE
8
Calque 1
10
447.803930
20
141.495100
11
438.379730
21
134.452700
0
LINE
8
Calque 1
10
438.379730
20
134.452700
11
435.572931
21
136.252675
0
LINE
8
Calque 1
10
435.572931
20
136.252675
11
428.854050
21
141.157500
0
LINE
8
Calque 1
10
428.854050
20
141.157500
11
428.854050
21
141.157300
0
LINE
8
Calque 1
10
435.039390
20
154.132100
11
435.028327
21
166.051875
0
LINE
8
Calque 1
10
435.028327
20
166.051875
11
434.909860
21
167.978656
0
LINE
8
Calque 1
10
434.909860
20
167.978656
11
434.684790
21
168.483100
0
LINE
8
Calque 1
10
434.684790
20
168.483100
11
434.021040
21
168.496100
0
LINE
8
Calque 1
10
434.021040
20
168.496100
11
433.848310
21
164.409025
0
LINE
8
Calque 1
10
433.848310
20
164.409025
11
433.780340
21
154.251900
0
LINE
8
Calque 1
10
433.780340
20
154.251900
11
433.834844
21
144.242412
0
LINE
8
Calque 1
10
433.834844
20
144.242412
11
433.965870
21
139.970800
0
LINE
8
Calque 1
10
433.965870
20
139.970800
11
434.561190
21
139.864200
0
LINE
8
Calque 1
10
434.561190
20
139.864200
11
434.780477
21
140.356073
0
LINE
8
Calque 1
10
434.780477
20
140.356073
11
434.913645
21
142.312312
0
LINE
8
Calque 1
10
434.913645
20
142.312312
11
435.039390
21
154.131600
0
LINE
8
Calque 1
10
435.039390
20
154.131600
11
435.039390
21
154.132100
0
LINE
8
Calque 1
10
442.350990
20
140.222600
11
442.511590
21
154.345400
0
LINE
8
Calque 1
10
442.511590
20
154.345400
11
442.442439
21
165.316837
0
LINE
8
Calque 1
10
442.442439
20
165.316837
11
442.338280
21
167.575470
0
LINE
8
Calque 1
10
442.338280
20
167.575470
11
442.171980
21
168.331600
0
LINE
8
Calque 1
10
442.171980
20
168.331600
11
441.842982
21
168.475500
0
LINE
8
Calque 1
10
441.842982
20
168.475500
11
441.528880
21
168.425600
0
LINE
8
Calque 1
10
441.528880
20
168.425600
11
441.379037
21
167.591655
0
LINE
8
Calque 1
10
441.379037
20
167.591655
11
441.251426
21
165.161137
0
LINE
8
Calque 1
10
441.251426
20
165.161137
11
441.034670
21
154.727800
0
LINE
8
Calque 1
10
441.034670
20
154.727800
11
441.021370
21
140.510700
0
LINE
8
Calque 1
10
441.021370
20
140.510700
11
441.281707
21
139.987988
0
LINE
8
Calque 1
10
441.281707
20
139.987988
11
441.694580
21
139.803900
0
LINE
8
Calque 1
10
441.694580
20
139.803900
11
442.091932
21
139.926825
0
LINE
8
Calque 1
10
442.091932
20
139.926825
11
442.351000
21
140.222400
0
LINE
8
Calque 1
10
442.351000
20
140.222400
11
442.350990
21
140.222600
0
LINE
8
Calque 1
10
428.885590
20
155.965700
11
428.817192
21
165.692825
0
LINE
8
Calque 1
10
428.817192
20
165.692825
11
428.697020
21
167.325556
0
LINE
8
Calque 1
10
428.697020
20
167.325556
11
428.488710
21
167.717600
0
LINE
8
Calque 1
10
428.488710
20
167.717600
11
428.278549
21
167.328812
0
LINE
8
Calque 1
10
428.278549
20
167.328812
11
428.148685
21
165.721725
0
LINE
8
Calque 1
10
428.148685
20
165.721725
11
428.022800
21
156.208300
0
LINE
8
Calque 1
10
428.022800
20
156.208300
11
428.089100
21
144.346200
0
LINE
8
Calque 1
10
428.089100
20
144.346200
11
428.281774
21
144.129425
0
LINE
8
Calque 1
10
428.281774
20
144.129425
11
428.555020
21
144.103600
0
LINE
8
Calque 1
10
428.555020
20
144.103600
11
428.715426
21
144.704689
0
LINE
8
Calque 1
10
428.715426
20
144.704689
11
428.816982
21
146.630512
0
LINE
8
Calque 1
10
428.816982
20
146.630512
11
428.885610
21
155.965700
0
LINE
8
Calque 1
10
428.885610
20
155.965700
11
428.885590
21
155.965700
0
LINE
8
Calque 1
10
448.014990
20
144.354900
11
448.164592
21
145.083411
0
LINE
8
Calque 1
10
448.164592
20
145.083411
11
448.262622
21
147.087287
0
LINE
8
Calque 1
10
448.262622
20
147.087287
11
448.332490
21
155.964200
0
LINE
8
Calque 1
10
448.332490
20
155.964200
11
448.262275
21
165.219425
0
LINE
8
Calque 1
10
448.262275
20
165.219425
11
448.147067
21
166.977134
0
LINE
8
Calque 1
10
448.147067
20
166.977134
11
447.954070
21
167.570000
0
LINE
8
Calque 1
10
447.954070
20
167.570000
11
447.594772
21
167.715050
0
LINE
8
Calque 1
10
447.594772
20
167.715050
11
447.292610
21
167.355200
0
LINE
8
Calque 1
10
447.292610
20
167.355200
11
447.080609
21
164.204287
0
LINE
8
Calque 1
10
447.080609
20
164.204287
11
447.009570
21
155.850400
0
LINE
8
Calque 1
10
447.009570
20
155.850400
11
447.170170
21
144.455900
0
LINE
8
Calque 1
10
447.170170
20
144.455900
11
447.514130
21
144.037400
0
LINE
8
Calque 1
10
447.514130
20
144.037400
11
448.014990
21
144.354900
0
LINE
8
Calque 1
10
448.014990
20
144.354900
11
448.014990
21
144.354900
0
LINE
8
Calque 1
10
423.593990
20
157.420900
11
423.524056
21
165.438350
0
LINE
8
Calque 1
10
423.524056
20
165.438350
11
423.366485
21
166.490144
0
LINE
8
Calque 1
10
423.366485
20
166.490144
11
423.236588
21
166.634021
0
LINE
8
Calque 1
10
423.236588
20
166.634021
11
423.064820
21
166.659300
0
LINE
8
Calque 1
10
423.064820
20
166.659300
11
422.893285
21
166.633320
0
LINE
8
Calque 1
10
422.893285
20
166.633320
11
422.762485
21
166.488883
0
LINE
8
Calque 1
10
422.762485
20
166.488883
11
422.596867
21
165.445662
0
LINE
8
Calque 1
10
422.596867
20
165.445662
11
422.465980
21
157.549000
0
LINE
8
Calque 1
10
422.465980
20
157.549000
11
422.480152
21
150.282687
0
LINE
8
Calque 1
10
422.480152
20
150.282687
11
422.571637
21
148.752920
0
LINE
8
Calque 1
10
422.571637
20
148.752920
11
422.730560
21
148.226700
0
LINE
8
Calque 1
10
422.730560
20
148.226700
11
423.329410
21
148.098700
0
LINE
8
Calque 1
10
423.329410
20
148.098700
11
423.525349
21
150.557575
0
LINE
8
Calque 1
10
423.525349
20
150.557575
11
423.593990
21
157.420900
0
LINE
8
Calque 1
10
423.593990
20
157.420900
11
423.593990
21
157.420900
0
LINE
8
Calque 1
10
453.571290
20
148.323700
11
453.719694
21
148.933202
0
LINE
8
Calque 1
10
453.719694
20
148.933202
11
453.817857
21
150.531362
0
LINE
8
Calque 1
10
453.817857
20
150.531362
11
453.888790
21
157.419400
0
LINE
8
Calque 1
10
453.888790
20
157.419400
11
453.817167
21
164.672975
0
LINE
8
Calque 1
10
453.817167
20
164.672975
11
453.696592
21
166.037406
0
LINE
8
Calque 1
10
453.696592
20
166.037406
11
453.491910
21
166.527000
0
LINE
8
Calque 1
10
453.491910
20
166.527000
11
453.095039
21
166.724100
0
LINE
8
Calque 1
10
453.095039
20
166.724100
11
452.698160
21
166.527000
0
LINE
8
Calque 1
10
452.698160
20
166.527000
11
452.493479
21
166.037406
0
LINE
8
Calque 1
10
452.493479
20
166.037406
11
452.372907
21
164.672975
0
LINE
8
Calque 1
10
452.372907
20
164.672975
11
452.301290
21
157.419400
0
LINE
8
Calque 1
10
452.301290
20
157.419400
11
452.372215
21
150.531362
0
LINE
8
Calque 1
10
452.372215
20
150.531362
11
452.470377
21
148.933202
0
LINE
8
Calque 1
10
452.470377
20
148.933202
11
452.618790
21
148.323700
0
LINE
8
Calque 1
10
452.618790
20
148.323700
11
453.095040
21
148.006200
0
LINE
8
Calque 1
10
453.095040
20
148.006200
11
453.571290
21
148.323700
0
LINE
8
Calque 1
10
453.571290
20
148.323700
11
453.571290
21
148.323700
0
LINE
8
Calque 1
10
436.234790
20
174.596800
11
437.349257
21
175.250787
0
LINE
8
Calque 1
10
437.349257
20
175.250787
11
438.097740
21
175.522800
0
LINE
8
Calque 1
10
438.097740
20
175.522800
11
438.864225
21
175.242750
0
LINE
8
Calque 1
10
438.864225
20
175.242750
11
440.021970
21
174.569400
0
LINE
8
Calque 1
10
440.021970
20
174.569400
11
441.152552
21
173.940212
0
LINE
8
Calque 1
10
441.152552
20
173.940212
11
441.852740
21
173.767400
0
LINE
8
Calque 1
10
441.852740
20
173.767400
11
442.131294
21
173.956937
0
LINE
8
Calque 1
10
442.131294
20
173.956937
11
442.247150
21
174.200400
0
LINE
8
Calque 1
10
442.247150
20
174.200400
11
441.610620
21
175.738200
0
LINE
8
Calque 1
10
441.610620
20
175.738200
11
440.027560
21
179.341700
0
LINE
8
Calque 1
10
440.027560
20
179.341700
11
438.646410
21
182.169300
0
LINE
8
Calque 1
10
438.646410
20
182.169300
11
438.204075
21
182.485650
0
LINE
8
Calque 1
10
438.204075
20
182.485650
11
437.742720
21
182.398500
0
LINE
8
Calque 1
10
437.742720
20
182.398500
11
437.163735
21
181.617387
0
LINE
8
Calque 1
10
437.163735
20
181.617387
11
436.430430
21
180.091900
0
LINE
8
Calque 1
10
436.430430
20
180.091900
11
434.782910
21
176.263300
0
LINE
8
Calque 1
10
434.782910
20
176.263300
11
434.261042
21
174.890687
0
LINE
8
Calque 1
10
434.261042
20
174.890687
11
434.135820
21
174.080500
0
LINE
8
Calque 1
10
434.135820
20
174.080500
11
434.330096
21
173.791125
0
LINE
8
Calque 1
10
434.330096
20
173.791125
11
434.576370
21
173.670800
0
LINE
8
Calque 1
10
434.576370
20
173.670800
11
436.234790
21
174.596800
0
LINE
8
Calque 1
10
436.234790
20
174.596800
11
436.234790
21
174.596800
0
LINE
8
Calque 1
10
434.287850
20
186.497300
11
424.429510
21
190.170600
0
LINE
8
Calque 1
10
424.429510
20
190.170600
11
417.951730
21
192.456170
0
LINE
8
Calque 1
10
417.951730
20
192.456170
11
416.852521
21
191.666229
0
LINE
8
Calque 1
10
416.852521
20
191.666229
11
414.819300
21
189.767000
0
LINE
8
Calque 1
10
414.819300
20
189.767000
11
412.120940
21
187.077800
0
LINE
8
Calque 1
10
412.120940
20
187.077800
11
410.250720
21
188.735900
0
LINE
8
Calque 1
10
410.250720
20
188.735900
11
408.929869
21
190.025010
0
LINE
8
Calque 1
10
408.929869
20
190.025010
11
408.380490
21
190.795960
0
LINE
8
Calque 1
10
408.380490
20
190.795960
11
409.002260
21
191.716849
0
LINE
8
Calque 1
10
409.002260
20
191.716849
11
410.497150
21
193.366460
0
LINE
8
Calque 1
10
410.497150
20
193.366460
11
412.613820
21
195.535010
0
LINE
8
Calque 1
10
412.613820
20
195.535010
11
412.614000
21
208.987000
0
LINE
8
Calque 1
10
412.614000
20
208.987000
11
412.614000
21
222.438000
0
LINE
8
Calque 1
10
412.614000
20
222.438000
11
413.870770
21
223.598010
0
LINE
8
Calque 1
10
413.870770
20
223.598010
11
417.393090
21
226.314650
0
LINE
8
Calque 1
10
417.393090
20
226.314650
11
419.687754
21
227.761041
0
LINE
8
Calque 1
10
419.687754
20
227.761041
11
422.023300
21
229.052640
0
LINE
8
Calque 1
10
422.023300
20
229.052640
11
424.317371
21
230.083011
0
LINE
8
Calque 1
10
424.317371
20
230.083011
11
426.512330
21
230.901350
0
LINE
8
Calque 1
10
426.512330
20
230.901350
11
430.668360
21
231.988350
0
LINE
8
Calque 1
10
430.668360
20
231.988350
11
433.635660
21
232.408000
0
LINE
8
Calque 1
10
433.635660
20
232.408000
11
434.571000
21
232.408000
0
LINE
8
Calque 1
10
434.571000
20
232.408000
11
434.638700
21
211.042900
0
LINE
8
Calque 1
10
434.638700
20
211.042900
11
434.706400
21
189.677800
0
LINE
8
Calque 1
10
434.706400
20
189.677800
11
438.146000
21
189.678000
0
LINE
8
Calque 1
10
438.146000
20
189.678000
11
441.586000
21
189.678000
0
LINE
8
Calque 1
10
441.586000
20
189.678000
11
441.653700
21
211.043100
0
LINE
8
Calque 1
10
441.653700
20
211.043100
11
441.721400
21
232.408200
0
LINE
8
Calque 1
10
441.721400
20
232.408200
11
442.484000
21
232.408000
0
LINE
8
Calque 1
10
442.484000
20
232.408000
11
445.439440
21
231.992100
0
LINE
8
Calque 1
10
445.439440
20
231.992100
11
449.768150
21
230.902220
0
LINE
8
Calque 1
10
449.768150
20
230.902220
11
451.975164
21
230.075803
0
LINE
8
Calque 1
10
451.975164
20
230.075803
11
454.281590
21
229.035320
0
LINE
8
Calque 1
10
454.281590
20
229.035320
11
458.567710
21
226.554270
0
LINE
8
Calque 1
10
458.567710
20
226.554270
11
462.004280
21
223.844210
0
LINE
8
Calque 1
10
462.004280
20
223.844210
11
463.531940
21
222.422270
0
LINE
8
Calque 1
10
463.531940
20
222.422270
11
463.462940
21
209.466770
0
LINE
8
Calque 1
10
463.462940
20
209.466770
11
463.481795
21
199.731315
0
LINE
8
Calque 1
10
463.481795
20
199.731315
11
463.659380
21
195.813070
0
LINE
8
Calque 1
10
463.659380
20
195.813070
11
464.432423
21
194.707055
0
LINE
8
Calque 1
10
464.432423
20
194.707055
11
465.918250
21
193.028370
0
LINE
8
Calque 1
10
465.918250
20
193.028370
11
467.911680
21
190.679210
0
LINE
8
Calque 1
10
467.911680
20
190.679210
11
467.355359
21
190.010145
0
LINE
8
Calque 1
10
467.355359
20
190.010145
11
466.017830
21
188.770420
0
LINE
8
Calque 1
10
466.017830
20
188.770420
11
464.123990
21
187.124220
0
LINE
8
Calque 1
10
464.123990
20
187.124220
11
461.306640
21
189.932830
0
LINE
8
Calque 1
10
461.306640
20
189.932830
11
458.489300
21
192.741440
0
LINE
8
Calque 1
10
458.489300
20
192.741440
11
450.037470
21
189.532740
0
LINE
8
Calque 1
10
450.037470
20
189.532740
11
439.844070
21
185.716620
0
LINE
8
Calque 1
10
439.844070
20
185.716620
11
438.102470
21
185.109220
0
LINE
8
Calque 1
10
438.102470
20
185.109220
11
434.287850
21
186.497300
0
LINE
8
Calque 1
10
416.563350
20
197.651200
11
416.950635
21
198.292050
0
LINE
8
Calque 1
10
416.950635
20
198.292050
11
417.111720
21
198.853850
0
LINE
8
Calque 1
10
417.111720
20
198.853850
11
416.920946
21
199.401639
0
LINE
8
Calque 1
10
416.920946
20
199.401639
11
416.462280
21
200.008790
0
LINE
8
Calque 1
10
416.462280
20
200.008790
11
415.841117
21
200.467456
0
LINE
8
Calque 1
10
415.841117
20
200.467456
11
415.259630
21
200.658230
0
LINE
8
Calque 1
10
415.259630
20
200.658230
11
414.678150
21
200.467456
0
LINE
8
Calque 1
10
414.678150
20
200.467456
11
414.056980
21
200.008790
0
LINE
8
Calque 1
10
414.056980
20
200.008790
11
413.598322
21
199.387624
0
LINE
8
Calque 1
10
413.598322
20
199.387624
11
413.407550
21
198.806140
0
LINE
8
Calque 1
10
413.407550
20
198.806140
11
413.598322
21
198.224660
0
LINE
8
Calque 1
10
413.598322
20
198.224660
11
414.056980
21
197.603490
0
LINE
8
Calque 1
10
414.056980
20
197.603490
11
414.707839
21
197.144829
0
LINE
8
Calque 1
10
414.707839
20
197.144829
11
415.360700
21
196.954060
0
LINE
8
Calque 1
10
415.360700
20
196.954060
11
415.985800
21
197.146124
0
LINE
8
Calque 1
10
415.985800
20
197.146124
11
416.563350
21
197.651200
0
LINE
8
Calque 1
10
416.563350
20
197.651200
11
416.563350
21
197.651200
0
LINE
8
Calque 1
10
414.719450
20
198.422550
11
414.527555
21
198.838432
0
LINE
8
Calque 1
10
414.527555
20
198.838432
11
414.819350
21
199.272990
0
LINE
8
Calque 1
10
414.819350
20
199.272990
11
415.254161
21
199.575511
0
LINE
8
Calque 1
10
415.254161
20
199.575511
11
415.666240
21
199.306690
0
LINE
8
Calque 1
10
415.666240
20
199.306690
11
415.906772
21
198.889366
0
LINE
8
Calque 1
10
415.906772
20
198.889366
11
415.902520
21
198.456240
0
LINE
8
Calque 1
10
415.902520
20
198.456240
11
415.683471
21
198.142770
0
LINE
8
Calque 1
10
415.683471
20
198.142770
11
415.396030
21
198.012390
0
LINE
8
Calque 1
10
415.396030
20
198.012390
11
414.719460
21
198.422550
0
LINE
8
Calque 1
10
414.719460
20
198.422550
11
414.719450
21
198.422550
0
LINE
8
Calque 1
10
462.235150
20
197.603490
11
462.693811
21
198.224660
0
LINE
8
Calque 1
10
462.693811
20
198.224660
11
462.884580
21
198.806140
0
LINE
8
Calque 1
10
462.884580
20
198.806140
11
462.693811
21
199.387624
0
LINE
8
Calque 1
10
462.693811
20
199.387624
11
462.235150
21
200.008790
0
LINE
8
Calque 1
10
462.235150
20
200.008790
11
461.613980
21
200.467456
0
LINE
8
Calque 1
10
461.613980
20
200.467456
11
461.032500
21
200.658230
0
LINE
8
Calque 1
10
461.032500
20
200.658230
11
460.451020
21
200.467456
0
LINE
8
Calque 1
10
460.451020
20
200.467456
11
459.829850
21
200.008790
0
LINE
8
Calque 1
10
459.829850
20
200.008790
11
459.371189
21
199.401639
0
LINE
8
Calque 1
10
459.371189
20
199.401639
11
459.180420
21
198.853850
0
LINE
8
Calque 1
10
459.180420
20
198.853850
11
459.341501
21
198.292050
0
LINE
8
Calque 1
10
459.341501
20
198.292050
11
459.728790
21
197.651200
0
LINE
8
Calque 1
10
459.728790
20
197.651200
11
460.306336
21
197.146124
0
LINE
8
Calque 1
10
460.306336
20
197.146124
11
460.931440
21
196.954060
0
LINE
8
Calque 1
10
460.931440
20
196.954060
11
461.584292
21
197.144829
0
LINE
8
Calque 1
10
461.584292
20
197.144829
11
462.235150
21
197.603490
0
LINE
8
Calque 1
10
462.235150
20
197.603490
11
462.235150
21
197.603490
0
LINE
8
Calque 1
10
460.326560
20
198.429780
11
460.340645
21
198.851776
0
LINE
8
Calque 1
10
460.340645
20
198.851776
11
460.599440
21
199.280230
0
LINE
8
Calque 1
10
460.599440
20
199.280230
11
461.033602
21
199.579917
0
LINE
8
Calque 1
10
461.033602
20
199.579917
11
461.472790
21
199.273230
0
LINE
8
Calque 1
10
461.472790
20
199.273230
11
461.764581
21
198.838672
0
LINE
8
Calque 1
10
461.764581
20
198.838672
11
461.572690
21
198.422790
0
LINE
8
Calque 1
10
461.572690
20
198.422790
11
461.222779
21
198.133114
0
LINE
8
Calque 1
10
461.222779
20
198.133114
11
460.859510
21
198.012630
0
LINE
8
Calque 1
10
460.859510
20
198.012630
11
460.549182
21
198.135240
0
LINE
8
Calque 1
10
460.549182
20
198.135240
11
460.326560
21
198.430020
0
LINE
8
Calque 1
10
460.326560
20
198.430020
11
460.326560
21
198.429780
0
LINE
8
Calque 1
10
416.582460
20
208.860280
11
416.956185
21
209.419695
0
LINE
8
Calque 1
10
416.956185
20
209.419695
11
417.111630
21
210.021590
0
LINE
8
Calque 1
10
417.111630
20
210.021590
11
416.968299
21
210.645051
0
LINE
8
Calque 1
10
416.968299
20
210.645051
11
416.623690
21
211.256310
0
LINE
8
Calque 1
10
416.623690
20
211.256310
11
416.040090
21
211.710420
0
LINE
8
Calque 1
10
416.040090
20
211.710420
11
415.259540
21
211.858890
0
LINE
8
Calque 1
10
415.259540
20
211.858890
11
414.478999
21
211.710420
0
LINE
8
Calque 1
10
414.478999
20
211.710420
11
413.895400
21
211.256310
0
LINE
8
Calque 1
10
413.895400
20
211.256310
11
413.550791
21
210.645051
0
LINE
8
Calque 1
10
413.550791
20
210.645051
11
413.407460
21
210.021590
0
LINE
8
Calque 1
10
413.407460
20
210.021590
11
413.562905
21
209.419695
0
LINE
8
Calque 1
10
413.562905
20
209.419695
11
413.936630
21
208.860280
0
LINE
8
Calque 1
10
413.936630
20
208.860280
11
414.542964
21
208.485452
0
LINE
8
Calque 1
10
414.542964
20
208.485452
11
415.259540
21
208.331110
0
LINE
8
Calque 1
10
415.259540
20
208.331110
11
415.976125
21
208.485452
0
LINE
8
Calque 1
10
415.976125
20
208.485452
11
416.582460
21
208.860280
0
LINE
8
Calque 1
10
416.582460
20
208.860280
11
416.582460
21
208.860280
0
LINE
8
Calque 1
10
414.561770
20
209.785550
11
414.524166
21
210.171295
0
LINE
8
Calque 1
10
414.524166
20
210.171295
11
414.667140
21
210.490380
0
LINE
8
Calque 1
10
414.667140
20
210.490380
11
415.003236
21
210.654420
0
LINE
8
Calque 1
10
415.003236
20
210.654420
11
415.429880
21
210.667410
0
LINE
8
Calque 1
10
415.429880
20
210.667410
11
415.781137
21
210.450090
0
LINE
8
Calque 1
10
415.781137
20
210.450090
11
415.921000
21
210.047280
0
LINE
8
Calque 1
10
415.921000
20
210.047280
11
415.769117
21
209.633986
0
LINE
8
Calque 1
10
415.769117
20
209.633986
11
415.324510
21
209.437030
0
LINE
8
Calque 1
10
415.324510
20
209.437030
11
414.844072
21
209.492032
0
LINE
8
Calque 1
10
414.844072
20
209.492032
11
414.561770
21
209.785550
0
LINE
8
Calque 1
10
414.561770
20
209.785550
11
414.561770
21
209.785550
0
LINE
8
Calque 1
10
462.434470
20
209.174160
11
462.813649
21
209.896405
0
LINE
8
Calque 1
10
462.813649
20
209.896405
11
462.641180
21
210.661190
0
LINE
8
Calque 1
10
462.641180
20
210.661190
11
462.225347
21
211.295432
0
LINE
8
Calque 1
10
462.225347
20
211.295432
11
461.677110
21
211.730220
0
LINE
8
Calque 1
10
461.677110
20
211.730220
11
461.033595
21
211.885904
0
LINE
8
Calque 1
10
461.033595
20
211.885904
11
460.388160
21
211.777220
0
LINE
8
Calque 1
10
460.388160
20
211.777220
11
459.849185
21
211.449595
0
LINE
8
Calque 1
10
459.849185
20
211.449595
11
459.461080
21
211.007010
0
LINE
8
Calque 1
10
459.461080
20
211.007010
11
459.180410
21
209.936020
0
LINE
8
Calque 1
10
459.180410
20
209.936020
11
459.340432
21
209.389984
0
LINE
8
Calque 1
10
459.340432
20
209.389984
11
459.725170
21
208.844690
0
LINE
8
Calque 1
10
459.725170
20
208.844690
11
460.337287
21
208.454277
0
LINE
8
Calque 1
10
460.337287
20
208.454277
11
461.088080
21
208.381670
0
LINE
8
Calque 1
10
461.088080
20
208.381670
11
461.830027
21
208.628730
0
LINE
8
Calque 1
10
461.830027
20
208.628730
11
462.434470
21
209.174170
0
LINE
8
Calque 1
10
462.434470
20
209.174170
11
462.434470
21
209.174160
0
LINE
8
Calque 1
10
460.339280
20
209.773650
11
460.363180
21
210.435110
0
LINE
8
Calque 1
10
460.363180
20
210.435110
11
460.630449
21
210.630919
0
LINE
8
Calque 1
10
460.630449
20
210.630919
11
461.032470
21
210.712360
0
LINE
8
Calque 1
10
461.032470
20
210.712360
11
461.679170
21
210.471650
0
LINE
8
Calque 1
10
461.679170
20
210.471650
11
461.666470
21
209.810200
0
LINE
8
Calque 1
10
461.666470
20
209.810200
11
461.402875
21
209.513042
0
LINE
8
Calque 1
10
461.402875
20
209.513042
11
460.995850
21
209.389450
0
LINE
8
Calque 1
10
460.995850
20
209.389450
11
460.592944
21
209.502309
0
LINE
8
Calque 1
10
460.592944
20
209.502309
11
460.339250
21
209.773650
0
LINE
8
Calque 1
10
460.339250
20
209.773650
11
460.339280
21
209.773650
0
LINE
8
Calque 1
10
416.582480
20
219.708190
11
416.956205
21
220.276224
0
LINE
8
Calque 1
10
416.956205
20
220.276224
11
417.111650
21
220.898820
0
LINE
8
Calque 1
10
417.111650
20
220.898820
11
416.956205
21
221.521415
0
LINE
8
Calque 1
10
416.956205
20
221.521415
11
416.582480
21
222.089440
0
LINE
8
Calque 1
10
416.582480
20
222.089440
11
415.976145
21
222.464271
0
LINE
8
Calque 1
10
415.976145
20
222.464271
11
415.259560
21
222.618610
0
LINE
8
Calque 1
10
415.259560
20
222.618610
11
414.542984
21
222.464271
0
LINE
8
Calque 1
10
414.542984
20
222.464271
11
413.936650
21
222.089440
0
LINE
8
Calque 1
10
413.936650
20
222.089440
11
413.562925
21
221.521415
0
LINE
8
Calque 1
10
413.562925
20
221.521415
11
413.407480
21
220.898820
0
LINE
8
Calque 1
10
413.407480
20
220.898820
11
413.562925
21
220.276224
0
LINE
8
Calque 1
10
413.562925
20
220.276224
11
413.936650
21
219.708190
0
LINE
8
Calque 1
10
413.936650
20
219.708190
11
414.542984
21
219.333367
0
LINE
8
Calque 1
10
414.542984
20
219.333367
11
415.259560
21
219.179030
0
LINE
8
Calque 1
10
415.259560
20
219.179030
11
415.976145
21
219.333367
0
LINE
8
Calque 1
10
415.976145
20
219.333367
11
416.582480
21
219.708190
0
LINE
8
Calque 1
10
416.582480
20
219.708190
11
416.582480
21
219.708190
0
LINE
8
Calque 1
10
414.561790
20
220.633460
11
414.524186
21
221.019209
0
LINE
8
Calque 1
10
414.524186
20
221.019209
11
414.667160
21
221.338290
0
LINE
8
Calque 1
10
414.667160
20
221.338290
11
415.003256
21
221.502334
0
LINE
8
Calque 1
10
415.003256
20
221.502334
11
415.429900
21
221.515320
0
LINE
8
Calque 1
10
415.429900
20
221.515320
11
415.781157
21
221.298001
0
LINE
8
Calque 1
10
415.781157
20
221.298001
11
415.921020
21
220.895200
0
LINE
8
Calque 1
10
415.921020
20
220.895200
11
415.769137
21
220.481902
0
LINE
8
Calque 1
10
415.769137
20
220.481902
11
415.324530
21
220.284950
0
LINE
8
Calque 1
10
415.324530
20
220.284950
11
414.844092
21
220.339951
0
LINE
8
Calque 1
10
414.844092
20
220.339951
11
414.561790
21
220.633460
0
LINE
8
Calque 1
10
414.561790
20
220.633460
11
414.561790
21
220.633460
0
LINE
8
Calque 1
10
462.031890
20
219.590910
11
462.473521
21
220.105409
0
LINE
8
Calque 1
10
462.473521
20
220.105409
11
462.619930
21
220.826840
0
LINE
8
Calque 1
10
462.619930
20
220.826840
11
462.491301
21
221.550970
0
LINE
8
Calque 1
10
462.491301
20
221.550970
11
462.182050
21
222.134760
0
LINE
8
Calque 1
10
462.182050
20
222.134760
11
461.651674
21
222.476480
0
LINE
8
Calque 1
10
461.651674
20
222.476480
11
460.991420
21
222.618610
0
LINE
8
Calque 1
10
460.991420
20
222.618610
11
460.304351
21
222.463169
0
LINE
8
Calque 1
10
460.304351
20
222.463169
11
459.709510
21
222.089440
0
LINE
8
Calque 1
10
459.709510
20
222.089440
11
459.335790
21
221.521415
0
LINE
8
Calque 1
10
459.335790
20
221.521415
11
459.180350
21
220.898820
0
LINE
8
Calque 1
10
459.180350
20
220.898820
11
459.335790
21
220.276224
0
LINE
8
Calque 1
10
459.335790
20
220.276224
11
459.709510
21
219.708190
0
LINE
8
Calque 1
10
459.709510
20
219.708190
11
460.260242
21
219.334470
0
LINE
8
Calque 1
10
460.260242
20
219.334470
11
460.841260
21
219.179030
0
LINE
8
Calque 1
10
460.841260
20
219.179030
11
461.439579
21
219.300017
0
LINE
8
Calque 1
10
461.439579
20
219.300017
11
462.031890
21
219.590910
0
LINE
8
Calque 1
10
462.031890
20
219.590910
11
462.031890
21
219.590910
0
LINE
8
Calque 1
10
460.339220
20
220.621570
11
460.363120
21
221.283020
0
LINE
8
Calque 1
10
460.363120
20
221.283020
11
460.626661
21
221.478834
0
LINE
8
Calque 1
10
460.626661
20
221.478834
11
461.019720
21
221.560280
0
LINE
8
Calque 1
10
461.019720
20
221.560280
11
461.403524
21
221.453168
0
LINE
8
Calque 1
10
461.403524
20
221.453168
11
461.644880
21
221.195650
0
LINE
8
Calque 1
10
461.644880
20
221.195650
11
461.656392
21
220.850932
0
LINE
8
Calque 1
10
461.656392
20
220.850932
11
461.487980
21
220.534190
0
LINE
8
Calque 1
10
461.487980
20
220.534190
11
460.838900
21
220.237360
0
LINE
8
Calque 1
10
460.838900
20
220.237360
11
460.546802
21
220.350220
0
LINE
8
Calque 1
10
460.546802
20
220.350220
11
460.339200
21
220.621570
0
LINE
8
Calque 1
10
460.339200
20
220.621570
11
460.339220
21
220.621570
0
LINE
8
Calque 1
10
436.076020
20
190.777770
11
435.896980
21
212.343970
0
LINE
8
Calque 1
10
435.896980
20
212.343970
11
435.897000
21
233.731000
0
LINE
8
Calque 1
10
435.897000
20
233.731000
11
438.146000
21
233.731000
0
LINE
8
Calque 1
10
438.146000
20
233.731000
11
440.395000
21
233.731000
0
LINE
8
Calque 1
10
440.395000
20
233.731000
11
440.395000
21
212.300000
0
LINE
8
Calque 1
10
440.395000
20
212.300000
11
440.336707
21
197.161675
0
LINE
8
Calque 1
10
440.336707
20
197.161675
11
440.196560
21
190.860300
0
LINE
8
Calque 1
10
440.196560
20
190.860300
11
438.126640
21
190.725360
0
LINE
8
Calque 1
10
438.126640
20
190.725360
11
436.076120
21
190.777960
0
LINE
8
Calque 1
10
436.076120
20
190.777960
11
436.076020
21
190.777770
0
LINE
8
Calque 1
10
407.851120
20
202.298970
11
407.927786
21
211.078241
0
LINE
8
Calque 1
10
407.927786
20
211.078241
11
408.099575
21
212.518123
0
LINE
8
Calque 1
10
408.099575
20
212.518123
11
408.427850
21
213.276870
0
LINE
8
Calque 1
10
408.427850
20
213.276870
11
410.213780
21
215.958550
0
LINE
8
Calque 1
10
410.213780
20
215.958550
11
411.423000
21
217.632930
0
LINE
8
Calque 1
10
411.423000
20
217.632930
11
411.492200
21
206.835730
0
LINE
8
Calque 1
10
411.492200
20
206.835730
11
411.561400
21
196.038530
0
LINE
8
Calque 1
10
411.561400
20
196.038530
11
409.706290
21
194.183420
0
LINE
8
Calque 1
10
409.706290
20
194.183420
11
407.851190
21
192.328320
0
LINE
8
Calque 1
10
407.851190
20
192.328320
11
407.851120
21
202.298970
0
LINE
8
Calque 1
10
466.382520
20
194.381430
11
464.736520
21
196.042190
0
LINE
8
Calque 1
10
464.736520
20
196.042190
11
464.737000
21
206.874000
0
LINE
8
Calque 1
10
464.737000
20
206.874000
11
464.803098
21
215.749320
0
LINE
8
Calque 1
10
464.803098
20
215.749320
11
464.917976
21
217.150695
0
LINE
8
Calque 1
10
464.917976
20
217.150695
11
465.005281
21
217.351537
0
LINE
8
Calque 1
10
465.005281
20
217.351537
11
465.116080
21
217.317900
0
LINE
8
Calque 1
10
465.116080
20
217.317900
11
466.968160
21
214.574990
0
LINE
8
Calque 1
10
466.968160
20
214.574990
11
468.441160
21
212.219510
0
LINE
8
Calque 1
10
468.441160
20
212.219510
11
468.441000
21
202.470000
0
LINE
8
Calque 1
10
468.441000
20
202.470000
11
468.380477
21
195.584619
0
LINE
8
Calque 1
10
468.380477
20
195.584619
11
468.234920
21
192.720790
0
LINE
8
Calque 1
10
468.234920
20
192.720790
11
466.382840
21
194.381550
0
LINE
8
Calque 1
10
466.382840
20
194.381550
11
466.382520
21
194.381430
 0 
ENDSEC
 0 
EOF