999
"DXF R12 Output" (www.mydxf.blogspot.com)
 0 
SECTION
 2 
HEADER
 9 
$ACADVER
 1 
AC1009
 9 
$EXTMIN
 10 
 0 
 20 
 0 
 9 
$EXTMAX
 10 
 8.5 
 20 
 11 
 0 
ENDSEC
 0 
SECTION
 2 
ENTITIES
0
LINE
8
Calque 1
10
390.422000
20
285.463000
11
386.644420
21
297.710700
0
LINE
8
Calque 1
10
386.644420
20
297.710700
11
384.015070
21
306.106210
0
LINE
8
Calque 1
10
384.015070
20
306.106210
11
379.746820
21
306.703580
0
LINE
8
Calque 1
10
379.746820
20
306.703580
11
372.752410
21
307.788090
0
LINE
8
Calque 1
10
372.752410
20
307.788090
11
367.328450
21
308.995520
0
LINE
8
Calque 1
10
367.328450
20
308.995520
11
360.978450
21
310.859580
0
LINE
8
Calque 1
10
360.978450
20
310.859580
11
353.599410
21
313.633060
0
LINE
8
Calque 1
10
353.599410
20
313.633060
11
348.623580
21
315.860880
0
LINE
8
Calque 1
10
348.623580
20
315.860880
11
347.322610
21
316.520130
0
LINE
8
Calque 1
10
347.322610
20
316.520130
11
345.772650
21
315.119060
0
LINE
8
Calque 1
10
345.772650
20
315.119060
11
337.918160
21
307.825140
0
LINE
8
Calque 1
10
337.918160
20
307.825140
11
333.444520
21
303.726485
0
LINE
8
Calque 1
10
333.444520
20
303.726485
11
331.541940
21
302.147320
0
LINE
8
Calque 1
10
331.541940
20
302.147320
11
333.702460
21
311.744330
0
LINE
8
Calque 1
10
333.702460
20
311.744330
11
336.084390
21
322.052330
0
LINE
8
Calque 1
10
336.084390
20
322.052330
11
336.234130
21
322.978380
0
LINE
8
Calque 1
10
336.234130
20
322.978380
11
332.731290
21
325.543960
0
LINE
8
Calque 1
10
332.731290
20
325.543960
11
329.247034
21
328.241969
0
LINE
8
Calque 1
10
329.247034
20
328.241969
11
325.788870
21
331.125940
0
LINE
8
Calque 1
10
325.788870
20
331.125940
11
320.016650
21
336.596050
0
LINE
8
Calque 1
10
320.016650
20
336.596050
11
315.438460
21
341.729690
0
LINE
8
Calque 1
10
315.438460
20
341.729690
11
311.553390
21
346.756430
0
LINE
8
Calque 1
10
311.553390
20
346.756430
11
309.517000
21
349.573200
0
LINE
8
Calque 1
10
309.517000
20
349.573200
11
309.090543
21
349.783716
0
LINE
8
Calque 1
10
309.090543
20
349.783716
11
307.879400
21
349.653499
0
LINE
8
Calque 1
10
307.879400
20
349.653499
11
300.124290
21
347.812470
0
LINE
8
Calque 1
10
300.124290
20
347.812470
11
289.576290
21
345.210400
0
LINE
8
Calque 1
10
289.576290
20
345.210400
11
288.024100
21
344.839040
0
LINE
8
Calque 1
10
288.024100
20
344.839040
11
288.528890
21
345.418080
0
LINE
8
Calque 1
10
288.528890
20
345.418080
11
291.668580
21
348.886900
0
LINE
8
Calque 1
10
291.668580
20
348.886900
11
298.585020
21
356.360910
0
LINE
8
Calque 1
10
298.585020
20
356.360910
11
302.866550
21
360.945150
0
LINE
8
Calque 1
10
302.866550
20
360.945150
11
301.323270
21
364.186760
0
LINE
8
Calque 1
10
301.323270
20
364.186760
11
299.824500
21
367.603110
0
LINE
8
Calque 1
10
299.824500
20
367.603110
11
298.388220
21
371.264830
0
LINE
8
Calque 1
10
298.388220
20
371.264830
11
296.110640
21
378.267650
0
LINE
8
Calque 1
10
296.110640
20
378.267650
11
294.556660
21
384.598580
0
LINE
8
Calque 1
10
294.556660
20
384.598580
11
293.393730
21
391.221810
0
LINE
8
Calque 1
10
293.393730
20
391.221810
11
292.729970
21
396.140240
0
LINE
8
Calque 1
10
292.729970
20
396.140240
11
292.560990
21
397.600020
0
LINE
8
Calque 1
10
292.560990
20
397.600020
11
280.157190
21
401.431900
0
LINE
8
Calque 1
10
280.157190
20
401.431900
11
271.449353
21
404.186909
0
LINE
8
Calque 1
10
271.449353
20
404.186909
11
267.931590
21
405.429700
0
LINE
8
Calque 1
10
267.931590
20
405.429700
11
269.432700
21
406.008050
0
LINE
8
Calque 1
10
269.432700
20
406.008050
11
281.471200
21
409.775010
0
LINE
8
Calque 1
10
281.471200
20
409.775010
11
292.405500
21
413.331220
0
LINE
8
Calque 1
10
292.405500
20
413.331220
11
293.002430
21
416.806680
0
LINE
8
Calque 1
10
293.002430
20
416.806680
11
293.919830
21
423.123160
0
LINE
8
Calque 1
10
293.919830
20
423.123160
11
295.358890
21
429.737750
0
LINE
8
Calque 1
10
295.358890
20
429.737750
11
297.572240
21
437.151220
0
LINE
8
Calque 1
10
297.572240
20
437.151220
11
299.867720
21
443.368930
0
LINE
8
Calque 1
10
299.867720
20
443.368930
11
301.868380
21
447.774400
0
LINE
8
Calque 1
10
301.868380
20
447.774400
11
302.887030
21
449.803770
0
LINE
8
Calque 1
10
302.887030
20
449.803770
11
299.124400
21
453.872900
0
LINE
8
Calque 1
10
299.124400
20
453.872900
11
291.722270
21
461.874170
0
LINE
8
Calque 1
10
291.722270
20
461.874170
11
288.166700
21
465.890240
0
LINE
8
Calque 1
10
288.166700
20
465.890240
11
290.615570
21
465.351100
0
LINE
8
Calque 1
10
290.615570
20
465.351100
11
300.653470
21
462.858630
0
LINE
8
Calque 1
10
300.653470
20
462.858630
11
308.761640
21
460.907760
0
LINE
8
Calque 1
10
308.761640
20
460.907760
11
309.071507
21
461.036008
0
LINE
8
Calque 1
10
309.071507
20
461.036008
11
309.565082
21
461.504403
0
LINE
8
Calque 1
10
309.565082
20
461.504403
11
311.112960
21
463.472120
0
LINE
8
Calque 1
10
311.112960
20
463.472120
11
315.293360
21
468.896080
0
LINE
8
Calque 1
10
315.293360
20
468.896080
11
318.062644
21
472.026261
0
LINE
8
Calque 1
10
318.062644
20
472.026261
11
321.541000
21
475.650820
0
LINE
8
Calque 1
10
321.541000
20
475.650820
11
325.520392
21
479.389653
0
LINE
8
Calque 1
10
325.520392
20
479.389653
11
329.494310
21
482.794570
0
LINE
8
Calque 1
10
329.494310
20
482.794570
11
334.860320
21
486.887740
0
LINE
8
Calque 1
10
334.860320
20
486.887740
11
336.052225
21
487.831184
0
LINE
8
Calque 1
10
336.052225
20
487.831184
11
336.164215
21
488.251300
0
LINE
8
Calque 1
10
336.164215
20
488.251300
11
336.100500
21
488.872120
0
LINE
8
Calque 1
10
336.100500
20
488.872120
11
333.619480
21
499.323120
0
LINE
8
Calque 1
10
333.619480
20
499.323120
11
331.382190
21
508.822410
0
LINE
8
Calque 1
10
331.382190
20
508.822410
11
333.921160
21
506.709420
0
LINE
8
Calque 1
10
333.921160
20
506.709420
11
341.830180
21
499.396200
0
LINE
8
Calque 1
10
341.830180
20
499.396200
11
347.288150
21
494.302540
0
LINE
8
Calque 1
10
347.288150
20
494.302540
11
350.046430
21
495.603610
0
LINE
8
Calque 1
10
350.046430
20
495.603610
11
355.461060
21
497.962980
0
LINE
8
Calque 1
10
355.461060
20
497.962980
11
360.912020
21
499.956260
0
LINE
8
Calque 1
10
360.912020
20
499.956260
11
367.369630
21
501.813310
0
LINE
8
Calque 1
10
367.369630
20
501.813310
11
374.075340
21
503.273100
0
LINE
8
Calque 1
10
374.075340
20
503.273100
11
380.417440
21
504.212820
0
LINE
8
Calque 1
10
380.417440
20
504.212820
11
383.894480
21
504.614790
0
LINE
8
Calque 1
10
383.894480
20
504.614790
11
384.245910
21
505.342390
0
LINE
8
Calque 1
10
384.245910
20
505.342390
11
388.022660
21
517.645490
0
LINE
8
Calque 1
10
388.022660
20
517.645490
11
391.802350
21
529.220990
0
LINE
8
Calque 1
10
391.802350
20
529.220990
11
395.785860
21
516.934590
0
LINE
8
Calque 1
10
395.785860
20
516.934590
11
399.592670
21
504.648190
0
LINE
8
Calque 1
10
399.592670
20
504.648190
11
400.923060
21
504.485050
0
LINE
8
Calque 1
10
400.923060
20
504.485050
11
406.089920
21
503.794640
0
LINE
8
Calque 1
10
406.089920
20
503.794640
11
413.498250
21
502.457670
0
LINE
8
Calque 1
10
413.498250
20
502.457670
11
420.112840
21
500.731070
0
LINE
8
Calque 1
10
420.112840
20
500.731070
11
426.724870
21
498.478590
0
LINE
8
Calque 1
10
426.724870
20
498.478590
11
433.309870
21
495.720570
0
LINE
8
Calque 1
10
433.309870
20
495.720570
11
436.325550
21
494.298110
0
LINE
8
Calque 1
10
436.325550
20
494.298110
11
438.212780
21
496.082950
0
LINE
8
Calque 1
10
438.212780
20
496.082950
11
445.386110
21
502.796710
0
LINE
8
Calque 1
10
445.386110
20
502.796710
11
451.584820
21
508.485250
0
LINE
8
Calque 1
10
451.584820
20
508.485250
11
452.284947
21
509.000110
0
LINE
8
Calque 1
10
452.284947
20
509.000110
11
452.358910
21
508.952626
0
LINE
8
Calque 1
10
452.358910
20
508.952626
11
452.291250
21
508.715710
0
LINE
8
Calque 1
10
452.291250
20
508.715710
11
449.724990
21
498.440610
0
LINE
8
Calque 1
10
449.724990
20
498.440610
11
447.373840
21
488.254110
0
LINE
8
Calque 1
10
447.373840
20
488.254110
11
448.121761
21
487.407779
0
LINE
8
Calque 1
10
448.121761
20
487.407779
11
449.953530
21
485.966360
0
LINE
8
Calque 1
10
449.953530
20
485.966360
11
455.695150
21
481.468440
0
LINE
8
Calque 1
10
455.695150
20
481.468440
11
458.872129
21
478.663706
0
LINE
8
Calque 1
10
458.872129
20
478.663706
11
462.057710
21
475.642710
0
LINE
8
Calque 1
10
462.057710
20
475.642710
11
465.133910
21
472.408940
0
LINE
8
Calque 1
10
465.133910
20
472.408940
11
468.047900
21
469.092640
0
LINE
8
Calque 1
10
468.047900
20
469.092640
11
472.604520
21
463.237270
0
LINE
8
Calque 1
10
472.604520
20
463.237270
11
474.362670
21
460.756980
0
LINE
8
Calque 1
10
474.362670
20
460.756980
11
476.408060
21
461.253480
0
LINE
8
Calque 1
10
476.408060
20
461.253480
11
486.523260
21
463.746230
0
LINE
8
Calque 1
10
486.523260
20
463.746230
11
495.117850
21
465.901390
0
LINE
8
Calque 1
10
495.117850
20
465.901390
11
495.190099
21
465.807982
0
LINE
8
Calque 1
10
495.190099
20
465.807982
11
494.953305
21
465.410695
0
LINE
8
Calque 1
10
494.953305
20
465.410695
11
493.662650
21
463.858900
0
LINE
8
Calque 1
10
493.662650
20
463.858900
11
486.205630
21
455.771790
0
LINE
8
Calque 1
10
486.205630
20
455.771790
11
480.728630
21
449.886080
0
LINE
8
Calque 1
10
480.728630
20
449.886080
11
482.274830
21
446.492520
0
LINE
8
Calque 1
10
482.274830
20
446.492520
11
485.136390
21
439.527090
0
LINE
8
Calque 1
10
485.136390
20
439.527090
11
487.412390
21
432.515630
0
LINE
8
Calque 1
10
487.412390
20
432.515630
11
489.019730
21
426.033340
0
LINE
8
Calque 1
10
489.019730
20
426.033340
11
490.211500
21
419.090080
0
LINE
8
Calque 1
10
490.211500
20
419.090080
11
490.756590
21
414.270270
0
LINE
8
Calque 1
10
490.756590
20
414.270270
11
490.756000
21
413.351000
0
LINE
8
Calque 1
10
490.756000
20
413.351000
11
494.790900
21
412.060440
0
LINE
8
Calque 1
10
494.790900
20
412.060440
11
507.226300
21
408.155210
0
LINE
8
Calque 1
10
507.226300
20
408.155210
11
515.626820
21
405.366740
0
LINE
8
Calque 1
10
515.626820
20
405.366740
11
515.031510
21
405.066200
0
LINE
8
Calque 1
10
515.031510
20
405.066200
11
502.794510
21
401.281230
0
LINE
8
Calque 1
10
502.794510
20
401.281230
11
490.985910
21
397.377540
0
LINE
8
Calque 1
10
490.985910
20
397.377540
11
490.632350
21
394.980100
0
LINE
8
Calque 1
10
490.632350
20
394.980100
11
489.930580
21
389.653120
0
LINE
8
Calque 1
10
489.930580
20
389.653120
11
488.735590
21
383.435410
0
LINE
8
Calque 1
10
488.735590
20
383.435410
11
487.156780
21
377.295900
0
LINE
8
Calque 1
10
487.156780
20
377.295900
11
485.047610
21
370.945900
0
LINE
8
Calque 1
10
485.047610
20
370.945900
11
482.282040
21
364.283450
0
LINE
8
Calque 1
10
482.282040
20
364.283450
11
480.726650
21
360.874190
0
LINE
8
Calque 1
10
480.726650
20
360.874190
11
482.252150
21
359.256370
0
LINE
8
Calque 1
10
482.252150
20
359.256370
11
487.729840
21
353.388720
0
LINE
8
Calque 1
10
487.729840
20
353.388720
11
493.467980
21
347.141100
0
LINE
8
Calque 1
10
493.467980
20
347.141100
11
495.253920
21
345.005350
0
LINE
8
Calque 1
10
495.253920
20
345.005350
11
490.160690
21
346.130380
0
LINE
8
Calque 1
10
490.160690
20
346.130380
11
480.040390
21
348.615820
0
LINE
8
Calque 1
10
480.040390
20
348.615820
11
474.611440
21
349.835810
0
LINE
8
Calque 1
10
474.611440
20
349.835810
11
473.838175
21
349.140742
0
LINE
8
Calque 1
10
473.838175
20
349.140742
11
472.543390
21
347.472640
0
LINE
8
Calque 1
10
472.543390
20
347.472640
11
468.162530
21
341.850240
0
LINE
8
Calque 1
10
468.162530
20
341.850240
11
465.357430
21
338.658040
0
LINE
8
Calque 1
10
465.357430
20
338.658040
11
462.425370
21
335.563430
0
LINE
8
Calque 1
10
462.425370
20
335.563430
11
456.641420
21
330.167480
0
LINE
8
Calque 1
10
456.641420
20
330.167480
11
450.688300
21
325.422870
0
LINE
8
Calque 1
10
450.688300
20
325.422870
11
447.405050
21
322.966110
0
LINE
8
Calque 1
10
447.405050
20
322.966110
11
447.751080
21
320.946250
0
LINE
8
Calque 1
10
447.751080
20
320.946250
11
450.172080
21
310.579050
0
LINE
8
Calque 1
10
450.172080
20
310.579050
11
452.048390
21
302.041670
0
LINE
8
Calque 1
10
452.048390
20
302.041670
11
444.122950
21
309.205130
0
LINE
8
Calque 1
10
444.122950
20
309.205130
11
436.304570
21
316.475660
0
LINE
8
Calque 1
10
436.304570
20
316.475660
11
432.640190
21
314.801240
0
LINE
8
Calque 1
10
432.640190
20
314.801240
11
425.976610
21
312.024410
0
LINE
8
Calque 1
10
425.976610
20
312.024410
11
419.404730
21
309.877260
0
LINE
8
Calque 1
10
419.404730
20
309.877260
11
411.952880
21
308.043820
0
LINE
8
Calque 1
10
411.952880
20
308.043820
11
404.766430
21
306.852320
0
LINE
8
Calque 1
10
404.766430
20
306.852320
11
400.544440
21
306.379460
0
LINE
8
Calque 1
10
400.544440
20
306.379460
11
399.629750
21
306.309360
0
LINE
8
Calque 1
10
399.629750
20
306.309360
11
398.607890
21
303.002070
0
LINE
8
Calque 1
10
398.607890
20
303.002070
11
394.807070
21
290.831270
0
LINE
8
Calque 1
10
394.807070
20
290.831270
11
391.824860
21
281.758550
0
LINE
8
Calque 1
10
391.824860
20
281.758550
11
391.328766
21
282.760364
0
LINE
8
Calque 1
10
391.328766
20
282.760364
11
390.421440
21
285.462720
0
LINE
8
Calque 1
10
390.421440
20
285.462720
11
390.422000
21
285.463000
0
LINE
8
Calque 1
10
400.670200
20
315.972400
11
406.486820
21
316.785200
0
LINE
8
Calque 1
10
406.486820
20
316.785200
11
413.439360
21
318.236310
0
LINE
8
Calque 1
10
413.439360
20
318.236310
11
420.715400
21
320.375750
0
LINE
8
Calque 1
10
420.715400
20
320.375750
11
427.256610
21
322.892090
0
LINE
8
Calque 1
10
427.256610
20
322.892090
11
433.871200
21
326.098950
0
LINE
8
Calque 1
10
433.871200
20
326.098950
11
437.520795
21
328.196708
0
LINE
8
Calque 1
10
437.520795
20
328.196708
11
441.279530
21
330.564480
0
LINE
8
Calque 1
10
441.279530
20
330.564480
11
447.894110
21
335.358590
0
LINE
8
Calque 1
10
447.894110
20
335.358590
11
453.807960
21
340.589490
0
LINE
8
Calque 1
10
453.807960
20
340.589490
11
456.764685
21
343.565298
0
LINE
8
Calque 1
10
456.764685
20
343.565298
11
459.470040
21
346.511540
0
LINE
8
Calque 1
10
459.470040
20
346.511540
11
464.165180
21
352.347140
0
LINE
8
Calque 1
10
464.165180
20
352.347140
11
467.962640
21
357.852170
0
LINE
8
Calque 1
10
467.962640
20
357.852170
11
471.297190
21
363.673000
0
LINE
8
Calque 1
10
471.297190
20
363.673000
11
474.371370
21
370.074230
0
LINE
8
Calque 1
10
474.371370
20
370.074230
11
477.137330
21
377.482560
0
LINE
8
Calque 1
10
477.137330
20
377.482560
11
478.361439
21
381.521590
0
LINE
8
Calque 1
10
478.361439
20
381.521590
11
479.341850
21
385.287770
0
LINE
8
Calque 1
10
479.341850
20
385.287770
11
480.719190
21
392.563810
0
LINE
8
Calque 1
10
480.719190
20
392.563810
11
481.195316
21
396.974584
0
LINE
8
Calque 1
10
481.195316
20
396.974584
11
481.424280
21
403.236410
0
LINE
8
Calque 1
10
481.424280
20
403.236410
11
481.440811
21
409.250090
0
LINE
8
Calque 1
10
481.440811
20
409.250090
11
481.246030
21
413.555210
0
LINE
8
Calque 1
10
481.246030
20
413.555210
11
480.304930
21
420.626800
0
LINE
8
Calque 1
10
480.304930
20
420.626800
11
478.870720
21
427.540540
0
LINE
8
Calque 1
10
478.870720
20
427.540540
11
476.835720
21
434.270330
0
LINE
8
Calque 1
10
476.835720
20
434.270330
11
474.169750
21
441.114920
0
LINE
8
Calque 1
10
474.169750
20
441.114920
11
471.257110
21
447.193400
0
LINE
8
Calque 1
10
471.257110
20
447.193400
11
468.132080
21
452.658500
0
LINE
8
Calque 1
10
468.132080
20
452.658500
11
464.160560
21
458.486260
0
LINE
8
Calque 1
10
464.160560
20
458.486260
11
459.655620
21
464.137200
0
LINE
8
Calque 1
10
459.655620
20
464.137200
11
454.337140
21
469.694370
0
LINE
8
Calque 1
10
454.337140
20
469.694370
11
451.134682
21
472.633999
0
LINE
8
Calque 1
10
451.134682
20
472.633999
11
447.838520
21
475.432530
0
LINE
8
Calque 1
10
447.838520
20
475.432530
11
441.753100
21
479.956660
0
LINE
8
Calque 1
10
441.753100
20
479.956660
11
436.417990
21
483.290540
0
LINE
8
Calque 1
10
436.417990
20
483.290540
11
431.774370
21
485.819520
0
LINE
8
Calque 1
10
431.774370
20
485.819520
11
426.862970
21
488.070990
0
LINE
8
Calque 1
10
426.862970
20
488.070990
11
420.923250
21
490.362300
0
LINE
8
Calque 1
10
420.923250
20
490.362300
11
414.343000
21
492.331550
0
LINE
8
Calque 1
10
414.343000
20
492.331550
11
407.066950
21
493.881100
0
LINE
8
Calque 1
10
407.066950
20
493.881100
11
400.136820
21
494.846520
0
LINE
8
Calque 1
10
400.136820
20
494.846520
11
396.301190
21
495.072281
0
LINE
8
Calque 1
10
396.301190
20
495.072281
11
391.537870
21
495.159930
0
LINE
8
Calque 1
10
391.537870
20
495.159930
11
386.852261
21
495.062830
0
LINE
8
Calque 1
10
386.852261
20
495.062830
11
383.203490
21
494.844560
0
LINE
8
Calque 1
10
383.203490
20
494.844560
11
377.118080
21
494.006160
0
LINE
8
Calque 1
10
377.118080
20
494.006160
11
370.635780
21
492.688990
0
LINE
8
Calque 1
10
370.635780
20
492.688990
11
364.021200
21
490.819350
0
LINE
8
Calque 1
10
364.021200
20
490.819350
11
357.829210
21
488.563640
0
LINE
8
Calque 1
10
357.829210
20
488.563640
11
351.346910
21
485.567480
0
LINE
8
Calque 1
10
351.346910
20
485.567480
11
344.784980
21
481.899140
0
LINE
8
Calque 1
10
344.784980
20
481.899140
11
338.699570
21
477.744240
0
LINE
8
Calque 1
10
338.699570
20
477.744240
11
333.990990
21
474.093460
0
LINE
8
Calque 1
10
333.990990
20
474.093460
11
328.871290
21
469.304680
0
LINE
8
Calque 1
10
328.871290
20
469.304680
11
323.431900
21
463.604500
0
LINE
8
Calque 1
10
323.431900
20
463.604500
11
319.892120
21
459.195740
0
LINE
8
Calque 1
10
319.892120
20
459.195740
11
316.121290
21
453.771780
0
LINE
8
Calque 1
10
316.121290
20
453.771780
11
313.892690
21
450.028624
0
LINE
8
Calque 1
10
313.892690
20
450.028624
11
311.537220
21
445.612830
0
LINE
8
Calque 1
10
311.537220
20
445.612830
11
309.412696
21
441.106650
0
LINE
8
Calque 1
10
309.412696
20
441.106650
11
307.739350
21
437.146170
0
LINE
8
Calque 1
10
307.739350
20
437.146170
11
305.425430
21
430.267000
0
LINE
8
Calque 1
10
305.425430
20
430.267000
11
303.686680
21
423.113870
0
LINE
8
Calque 1
10
303.686680
20
423.113870
11
302.472840
21
415.705530
0
LINE
8
Calque 1
10
302.472840
20
415.705530
11
302.141092
21
411.392908
0
LINE
8
Calque 1
10
302.141092
20
411.392908
11
302.027040
21
405.528430
0
LINE
8
Calque 1
10
302.027040
20
405.528430
11
302.115487
21
400.069884
0
LINE
8
Calque 1
10
302.115487
20
400.069884
11
302.343450
21
396.268020
0
LINE
8
Calque 1
10
302.343450
20
396.268020
11
303.195870
21
390.447180
0
LINE
8
Calque 1
10
303.195870
20
390.447180
11
304.619540
21
383.700310
0
LINE
8
Calque 1
10
304.619540
20
383.700310
11
306.300780
21
377.747180
0
LINE
8
Calque 1
10
306.300780
20
377.747180
11
308.212980
21
372.455520
0
LINE
8
Calque 1
10
308.212980
20
372.455520
11
309.678091
21
369.078774
0
LINE
8
Calque 1
10
309.678091
20
369.078774
11
311.617360
21
365.047180
0
LINE
8
Calque 1
10
311.617360
20
365.047180
11
315.608260
21
357.814570
0
LINE
8
Calque 1
10
315.608260
20
357.814570
11
319.733160
21
351.861440
0
LINE
8
Calque 1
10
319.733160
20
351.861440
11
324.389900
21
346.129480
0
LINE
8
Calque 1
10
324.389900
20
346.129480
11
329.784190
21
340.573170
0
LINE
8
Calque 1
10
329.784190
20
340.573170
11
334.917040
21
335.914800
0
LINE
8
Calque 1
10
334.917040
20
335.914800
11
339.321040
21
332.556050
0
LINE
8
Calque 1
10
339.321040
20
332.556050
11
344.743260
21
328.931870
0
LINE
8
Calque 1
10
344.743260
20
328.931870
11
351.319470
21
325.238390
0
LINE
8
Calque 1
10
351.319470
20
325.238390
11
357.274330
21
322.437720
0
LINE
8
Calque 1
10
357.274330
20
322.437720
11
363.073420
21
320.288430
0
LINE
8
Calque 1
10
363.073420
20
320.288430
11
369.555710
21
318.354180
0
LINE
8
Calque 1
10
369.555710
20
318.354180
11
376.192030
21
316.926950
0
LINE
8
Calque 1
10
376.192030
20
316.926950
11
382.806620
21
315.985290
0
LINE
8
Calque 1
10
382.806620
20
315.985290
11
387.039950
21
315.594150
0
LINE
8
Calque 1
10
387.039950
20
315.594150
11
393.129570
21
315.588150
0
LINE
8
Calque 1
10
393.129570
20
315.588150
11
400.670200
21
315.972140
0
LINE
8
Calque 1
10
400.670200
20
315.972140
11
400.670200
21
315.972400
0
LINE
8
Calque 1
10
383.203500
20
319.159320
11
377.514960
21
319.956180
0
LINE
8
Calque 1
10
377.514960
20
319.956180
11
370.238920
21
321.519240
0
LINE
8
Calque 1
10
370.238920
20
321.519240
11
366.425615
21
322.597207
0
LINE
8
Calque 1
10
366.425615
20
322.597207
11
362.830590
21
323.771070
0
LINE
8
Calque 1
10
362.830590
20
323.771070
11
356.050040
21
326.531920
0
LINE
8
Calque 1
10
356.050040
20
326.531920
11
349.567750
21
329.847040
0
LINE
8
Calque 1
10
349.567750
20
329.847040
11
343.883710
21
333.318200
0
LINE
8
Calque 1
10
343.883710
20
333.318200
11
338.328250
21
337.320050
0
LINE
8
Calque 1
10
338.328250
20
337.320050
11
334.868628
21
340.284824
0
LINE
8
Calque 1
10
334.868628
20
340.284824
11
330.781480
21
344.145060
0
LINE
8
Calque 1
10
330.781480
20
344.145060
11
326.934566
21
348.137789
0
LINE
8
Calque 1
10
326.934566
20
348.137789
11
324.052520
21
351.421100
0
LINE
8
Calque 1
10
324.052520
20
351.421100
11
319.414900
21
357.913370
0
LINE
8
Calque 1
10
319.414900
20
357.913370
11
317.143099
21
361.582792
0
LINE
8
Calque 1
10
317.143099
20
361.582792
11
315.111290
21
365.189410
0
LINE
8
Calque 1
10
315.111290
20
365.189410
11
312.067640
21
371.529440
0
LINE
8
Calque 1
10
312.067640
20
371.529440
11
309.838560
21
377.350270
0
LINE
8
Calque 1
10
309.838560
20
377.350270
11
307.844300
21
384.097140
0
LINE
8
Calque 1
10
307.844300
20
384.097140
11
306.362940
21
390.976310
0
LINE
8
Calque 1
10
306.362940
20
390.976310
11
305.524440
21
397.308740
0
LINE
8
Calque 1
10
305.524440
20
397.308740
11
305.336994
21
401.493620
0
LINE
8
Calque 1
10
305.336994
20
401.493620
11
305.357530
21
407.495240
0
LINE
8
Calque 1
10
305.357530
20
407.495240
11
305.584796
21
413.719741
0
LINE
8
Calque 1
10
305.584796
20
413.719741
11
306.030500
21
417.972140
0
LINE
8
Calque 1
10
306.030500
20
417.972140
11
307.247670
21
424.454430
0
LINE
8
Calque 1
10
307.247670
20
424.454430
11
308.945470
21
430.796100
0
LINE
8
Calque 1
10
308.945470
20
430.796100
11
311.228500
21
437.278390
0
LINE
8
Calque 1
10
311.228500
20
437.278390
11
314.297210
21
444.054660
0
LINE
8
Calque 1
10
314.297210
20
444.054660
11
317.601760
21
450.140080
0
LINE
8
Calque 1
10
317.601760
20
450.140080
11
320.593030
21
454.740890
0
LINE
8
Calque 1
10
320.593030
20
454.740890
11
324.180810
21
459.503390
0
LINE
8
Calque 1
10
324.180810
20
459.503390
11
326.679738
21
462.410566
0
LINE
8
Calque 1
10
326.679738
20
462.410566
11
329.738990
21
465.684740
0
LINE
8
Calque 1
10
329.738990
20
465.684740
11
333.075181
21
468.932830
0
LINE
8
Calque 1
10
333.075181
20
468.932830
11
336.239960
21
471.777300
0
LINE
8
Calque 1
10
336.239960
20
471.777300
11
341.805350
21
476.093130
0
LINE
8
Calque 1
10
341.805350
20
476.093130
11
347.229310
21
479.617270
0
LINE
8
Calque 1
10
347.229310
20
479.617270
11
353.173300
21
482.911330
0
LINE
8
Calque 1
10
353.173300
20
482.911330
11
359.920170
21
485.913590
0
LINE
8
Calque 1
10
359.920170
20
485.913590
11
366.667040
21
488.301630
0
LINE
8
Calque 1
10
366.667040
20
488.301630
11
372.825890
21
489.913350
0
LINE
8
Calque 1
10
372.825890
20
489.913350
11
379.705060
21
491.182620
0
LINE
8
Calque 1
10
379.705060
20
491.182620
11
384.240616
21
491.653860
0
LINE
8
Calque 1
10
384.240616
20
491.653860
11
391.537860
21
491.764800
0
LINE
8
Calque 1
10
391.537860
20
491.764800
11
398.629263
21
491.676736
0
LINE
8
Calque 1
10
398.629263
20
491.676736
11
402.914960
21
491.306890
0
LINE
8
Calque 1
10
402.914960
20
491.306890
11
409.473140
21
490.171690
0
LINE
8
Calque 1
10
409.473140
20
490.171690
11
416.312250
21
488.455290
0
LINE
8
Calque 1
10
416.312250
20
488.455290
11
422.983230
21
486.186830
0
LINE
8
Calque 1
10
422.983230
20
486.186830
11
429.241000
21
483.459090
0
LINE
8
Calque 1
10
429.241000
20
483.459090
11
432.532580
21
481.765957
0
LINE
8
Calque 1
10
432.532580
20
481.765957
11
435.987870
21
479.813610
0
LINE
8
Calque 1
10
435.987870
20
479.813610
11
441.676420
21
476.155490
0
LINE
8
Calque 1
10
441.676420
20
476.155490
11
446.297170
21
472.625100
0
LINE
8
Calque 1
10
446.297170
20
472.625100
11
452.089970
21
467.440890
0
LINE
8
Calque 1
10
452.089970
20
467.440890
11
455.198078
21
464.257501
0
LINE
8
Calque 1
10
455.198078
20
464.257501
11
458.052550
21
461.062330
0
LINE
8
Calque 1
10
458.052550
20
461.062330
11
462.224910
21
455.770660
0
LINE
8
Calque 1
10
462.224910
20
455.770660
11
465.362980
21
451.071660
0
LINE
8
Calque 1
10
465.362980
20
451.071660
11
468.907200
21
444.721660
0
LINE
8
Calque 1
10
468.907200
20
444.721660
11
470.725729
21
440.876241
0
LINE
8
Calque 1
10
470.725729
20
440.876241
11
472.423350
21
436.881520
0
LINE
8
Calque 1
10
472.423350
20
436.881520
11
473.839049
21
433.010830
0
LINE
8
Calque 1
10
473.839049
20
433.010830
11
474.979760
21
429.463630
0
LINE
8
Calque 1
10
474.979760
20
429.463630
11
476.571690
21
423.113630
0
LINE
8
Calque 1
10
476.571690
20
423.113630
11
477.703830
21
416.640890
0
LINE
8
Calque 1
10
477.703830
20
416.640890
11
478.089508
21
412.306690
0
LINE
8
Calque 1
10
478.089508
20
412.306690
11
478.188910
21
405.396090
0
LINE
8
Calque 1
10
478.188910
20
405.396090
11
478.089508
21
398.485497
0
LINE
8
Calque 1
10
478.089508
20
398.485497
11
477.703830
21
394.151290
0
LINE
8
Calque 1
10
477.703830
20
394.151290
11
476.570690
21
387.669000
0
LINE
8
Calque 1
10
476.570690
20
387.669000
11
474.889890
21
381.022930
0
LINE
8
Calque 1
10
474.889890
20
381.022930
11
472.466780
21
373.879180
0
LINE
8
Calque 1
10
472.466780
20
373.879180
11
470.889983
21
370.208252
0
LINE
8
Calque 1
10
470.889983
20
370.208252
11
469.051360
21
366.354010
0
LINE
8
Calque 1
10
469.051360
20
366.354010
11
467.075745
21
362.680452
0
LINE
8
Calque 1
10
467.075745
20
362.680452
11
465.169580
21
359.443920
0
LINE
8
Calque 1
10
465.169580
20
359.443920
11
461.776390
21
354.432870
0
LINE
8
Calque 1
10
461.776390
20
354.432870
11
458.234200
21
349.967050
0
LINE
8
Calque 1
10
458.234200
20
349.967050
11
454.244120
21
345.494110
0
LINE
8
Calque 1
10
454.244120
20
345.494110
11
449.217040
21
340.725140
0
LINE
8
Calque 1
10
449.217040
20
340.725140
11
444.021300
21
336.411470
0
LINE
8
Calque 1
10
444.021300
20
336.411470
11
438.861920
21
332.818170
0
LINE
8
Calque 1
10
438.861920
20
332.818170
11
432.680580
21
329.114440
0
LINE
8
Calque 1
10
432.680580
20
329.114440
11
426.371470
21
326.024570
0
LINE
8
Calque 1
10
426.371470
20
326.024570
11
420.153770
21
323.618470
0
LINE
8
Calque 1
10
420.153770
20
323.618470
11
414.821210
21
321.921380
0
LINE
8
Calque 1
10
414.821210
20
321.921380
11
410.058710
21
320.727910
0
LINE
8
Calque 1
10
410.058710
20
320.727910
11
403.973290
21
319.632840
0
LINE
8
Calque 1
10
403.973290
20
319.632840
11
399.590813
21
319.192029
0
LINE
8
Calque 1
10
399.590813
20
319.192029
11
392.993090
21
319.007110
0
LINE
8
Calque 1
10
392.993090
20
319.007110
11
387.061466
21
319.014171
0
LINE
8
Calque 1
10
387.061466
20
319.014171
11
383.203510
21
319.159300
0
LINE
8
Calque 1
10
383.203510
20
319.159300
11
383.203500
21
319.159320
0
LINE
8
Calque 1
10
401.062900
20
322.748050
11
408.027100
21
323.803700
0
LINE
8
Calque 1
10
408.027100
20
323.803700
11
411.588335
21
324.614935
0
LINE
8
Calque 1
10
411.588335
20
324.614935
11
415.386750
21
325.643670
0
LINE
8
Calque 1
10
415.386750
20
325.643670
11
421.784010
21
327.770730
0
LINE
8
Calque 1
10
421.784010
20
327.770730
11
428.447270
21
330.802250
0
LINE
8
Calque 1
10
428.447270
20
330.802250
11
432.243398
21
332.783851
0
LINE
8
Calque 1
10
432.243398
20
332.783851
11
435.425590
21
334.615940
0
LINE
8
Calque 1
10
435.425590
20
334.615940
11
440.849540
21
338.295730
0
LINE
8
Calque 1
10
440.849540
20
338.295730
11
446.438940
21
342.753970
0
LINE
8
Calque 1
10
446.438940
20
342.753970
11
451.637180
21
347.663080
0
LINE
8
Calque 1
10
451.637180
20
347.663080
11
456.161830
21
352.795120
0
LINE
8
Calque 1
10
456.161830
20
352.795120
11
460.048600
21
357.851420
0
LINE
8
Calque 1
10
460.048600
20
357.851420
11
463.258770
21
362.808320
0
LINE
8
Calque 1
10
463.258770
20
362.808320
11
466.296570
21
368.382120
0
LINE
8
Calque 1
10
466.296570
20
368.382120
11
468.924820
21
374.140850
0
LINE
8
Calque 1
10
468.924820
20
374.140850
11
471.264790
21
380.789850
0
LINE
8
Calque 1
10
471.264790
20
380.789850
11
473.143390
21
387.893910
0
LINE
8
Calque 1
10
473.143390
20
387.893910
11
474.371850
21
395.302240
0
LINE
8
Calque 1
10
474.371850
20
395.302240
11
474.791844
21
399.816454
0
LINE
8
Calque 1
10
474.791844
20
399.816454
11
474.914110
21
405.263810
0
LINE
8
Calque 1
10
474.914110
20
405.263810
11
474.831224
21
410.113128
0
LINE
8
Calque 1
10
474.831224
20
410.113128
11
474.627220
21
413.598180
0
LINE
8
Calque 1
10
474.627220
20
413.598180
11
473.924230
21
418.757560
0
LINE
8
Calque 1
10
473.924230
20
418.757560
11
472.736550
21
424.710680
0
LINE
8
Calque 1
10
472.736550
20
424.710680
11
470.866960
21
431.325270
0
LINE
8
Calque 1
10
470.866960
20
431.325270
11
468.474560
21
437.675270
0
LINE
8
Calque 1
10
468.474560
20
437.675270
11
465.513460
21
443.910190
0
LINE
8
Calque 1
10
465.513460
20
443.910190
11
462.220290
21
449.695160
0
LINE
8
Calque 1
10
462.220290
20
449.695160
11
458.372450
21
455.234200
0
LINE
8
Calque 1
10
458.372450
20
455.234200
11
453.487410
21
461.136930
0
LINE
8
Calque 1
10
453.487410
20
461.136930
11
450.777177
21
463.971511
0
LINE
8
Calque 1
10
450.777177
20
463.971511
11
448.005940
21
466.634950
0
LINE
8
Calque 1
10
448.005940
20
466.634950
11
443.036970
21
470.850260
0
LINE
8
Calque 1
10
443.036970
20
470.850260
11
438.369140
21
474.253310
0
LINE
8
Calque 1
10
438.369140
20
474.253310
11
432.548310
21
477.863530
0
LINE
8
Calque 1
10
432.548310
20
477.863530
11
429.148241
21
479.661883
0
LINE
8
Calque 1
10
429.148241
20
479.661883
11
425.617890
21
481.344270
0
LINE
8
Calque 1
10
425.617890
20
481.344270
11
418.474140
21
484.141210
0
LINE
8
Calque 1
10
418.474140
20
484.141210
11
411.249350
21
486.232520
0
LINE
8
Calque 1
10
411.249350
20
486.232520
11
403.708730
21
487.723640
0
LINE
8
Calque 1
10
403.708730
20
487.723640
11
399.138270
21
488.219011
0
LINE
8
Calque 1
10
399.138270
20
488.219011
11
391.802530
21
488.331770
0
LINE
8
Calque 1
10
391.802530
20
488.331770
11
384.726405
21
488.246688
0
LINE
8
Calque 1
10
384.726405
20
488.246688
11
380.690030
21
487.867110
0
LINE
8
Calque 1
10
380.690030
20
487.867110
11
374.449520
21
486.749880
0
LINE
8
Calque 1
10
374.449520
20
486.749880
11
367.717700
21
485.023420
0
LINE
8
Calque 1
10
367.717700
20
485.023420
11
361.787380
21
483.004000
0
LINE
8
Calque 1
10
361.787380
20
483.004000
11
355.686910
21
480.294240
0
LINE
8
Calque 1
10
355.686910
20
480.294240
11
352.138185
21
478.474448
0
LINE
8
Calque 1
10
352.138185
20
478.474448
11
348.807740
21
476.592360
0
LINE
8
Calque 1
10
348.807740
20
476.592360
11
342.986910
21
472.732410
0
LINE
8
Calque 1
10
342.986910
20
472.732410
11
337.827530
21
468.687490
0
LINE
8
Calque 1
10
337.827530
20
468.687490
11
335.114560
21
466.235221
0
LINE
8
Calque 1
10
335.114560
20
466.235221
11
332.121540
21
463.304310
0
LINE
8
Calque 1
10
332.121540
20
463.304310
11
329.217351
21
460.177561
0
LINE
8
Calque 1
10
329.217351
20
460.177561
11
326.717960
21
457.254430
0
LINE
8
Calque 1
10
326.717960
20
457.254430
11
322.331150
21
451.169010
0
LINE
8
Calque 1
10
322.331150
20
451.169010
11
318.700010
21
445.215890
0
LINE
8
Calque 1
10
318.700010
20
445.215890
11
315.992890
21
439.791930
0
LINE
8
Calque 1
10
315.992890
20
439.791930
11
313.728210
21
434.328970
0
LINE
8
Calque 1
10
313.728210
20
434.328970
11
311.800570
21
428.496840
0
LINE
8
Calque 1
10
311.800570
20
428.496840
11
310.218650
21
422.053560
0
LINE
8
Calque 1
10
310.218650
20
422.053560
11
309.086210
21
414.921100
0
LINE
8
Calque 1
10
309.086210
20
414.921100
11
308.735990
21
410.576094
0
LINE
8
Calque 1
10
308.735990
20
410.576094
11
308.634260
21
405.131520
0
LINE
8
Calque 1
10
308.634260
20
405.131520
11
308.755581
21
399.809170
0
LINE
8
Calque 1
10
308.755581
20
399.809170
11
309.091170
21
395.738810
0
LINE
8
Calque 1
10
309.091170
20
395.738810
11
310.200170
21
388.991930
0
LINE
8
Calque 1
10
310.200170
20
388.991930
11
311.784780
21
382.470440
0
LINE
8
Calque 1
10
311.784780
20
382.470440
11
313.807430
21
376.252740
0
LINE
8
Calque 1
10
313.807430
20
376.252740
11
315.307284
21
372.687999
0
LINE
8
Calque 1
10
315.307284
20
372.687999
11
317.363960
21
368.335150
0
LINE
8
Calque 1
10
317.363960
20
368.335150
11
319.800646
21
363.801865
0
LINE
8
Calque 1
10
319.800646
20
363.801865
11
322.214120
21
359.803300
0
LINE
8
Calque 1
10
322.214120
20
359.803300
11
326.787530
21
353.473690
0
LINE
8
Calque 1
10
326.787530
20
353.473690
11
331.874410
21
347.751260
0
LINE
8
Calque 1
10
331.874410
20
347.751260
11
337.166070
21
342.697520
0
LINE
8
Calque 1
10
337.166070
20
342.697520
11
342.374610
21
338.563260
0
LINE
8
Calque 1
10
342.374610
20
338.563260
11
347.921340
21
334.777260
0
LINE
8
Calque 1
10
347.921340
20
334.777260
11
353.560720
21
331.551090
0
LINE
8
Calque 1
10
353.560720
20
331.551090
11
359.258780
21
328.838240
0
LINE
8
Calque 1
10
359.258780
20
328.838240
11
364.815030
21
326.687110
0
LINE
8
Calque 1
10
364.815030
20
326.687110
11
371.059750
21
324.823930
0
LINE
8
Calque 1
10
371.059750
20
324.823930
11
377.674330
21
323.405750
0
LINE
8
Calque 1
10
377.674330
20
323.405750
11
383.732740
21
322.592470
0
LINE
8
Calque 1
10
383.732740
20
322.592470
11
388.495240
21
322.228260
0
LINE
8
Calque 1
10
388.495240
20
322.228260
11
393.919200
21
322.250760
0
LINE
8
Calque 1
10
393.919200
20
322.250760
11
401.062950
21
322.748060
0
LINE
8
Calque 1
10
401.062950
20
322.748060
11
401.062900
21
322.748050
0
LINE
8
Calque 1
10
386.198200
20
324.430110
11
379.665890
21
325.212930
0
LINE
8
Calque 1
10
379.665890
20
325.212930
11
372.305560
21
326.673380
0
LINE
8
Calque 1
10
372.305560
20
326.673380
11
365.090950
21
328.813110
0
LINE
8
Calque 1
10
365.090950
20
328.813110
11
358.476370
21
331.421690
0
LINE
8
Calque 1
10
358.476370
20
331.421690
11
352.709180
21
334.315680
0
LINE
8
Calque 1
10
352.709180
20
334.315680
11
346.888350
21
337.895880
0
LINE
8
Calque 1
10
346.888350
20
337.895880
11
341.046590
21
342.150100
0
LINE
8
Calque 1
10
341.046590
20
342.150100
11
335.252830
21
347.290310
0
LINE
8
Calque 1
10
335.252830
20
347.290310
11
332.287314
21
350.329900
0
LINE
8
Calque 1
10
332.287314
20
350.329900
11
329.454150
21
353.509110
0
LINE
8
Calque 1
10
329.454150
20
353.509110
11
326.987714
21
356.610271
0
LINE
8
Calque 1
10
326.987714
20
356.610271
11
324.903890
21
359.462230
0
LINE
8
Calque 1
10
324.903890
20
359.462230
11
321.717710
21
364.478650
0
LINE
8
Calque 1
10
321.717710
20
364.478650
11
319.064080
21
369.373440
0
LINE
8
Calque 1
10
319.064080
20
369.373440
11
316.311900
21
375.630480
0
LINE
8
Calque 1
10
316.311900
20
375.630480
11
313.923010
21
382.377350
0
LINE
8
Calque 1
10
313.923010
20
382.377350
11
312.329930
21
388.727350
0
LINE
8
Calque 1
10
312.329930
20
388.727350
11
311.239940
21
395.077350
0
LINE
8
Calque 1
10
311.239940
20
395.077350
11
310.900784
21
398.664106
0
LINE
8
Calque 1
10
310.900784
20
398.664106
11
310.664460
21
403.014850
0
LINE
8
Calque 1
10
310.664460
20
403.014850
11
310.629709
21
407.552284
0
LINE
8
Calque 1
10
310.629709
20
407.552284
11
310.813350
21
411.481520
0
LINE
8
Calque 1
10
310.813350
20
411.481520
11
311.531750
21
417.699220
0
LINE
8
Calque 1
10
311.531750
20
417.699220
11
312.583280
21
423.185800
0
LINE
8
Calque 1
10
312.583280
20
423.185800
11
314.171740
21
429.138930
0
LINE
8
Calque 1
10
314.171740
20
429.138930
11
316.451150
21
435.558600
0
LINE
8
Calque 1
10
316.451150
20
435.558600
11
319.464820
21
442.184780
0
LINE
8
Calque 1
10
319.464820
20
442.184780
11
323.040330
21
448.534780
0
LINE
8
Calque 1
10
323.040330
20
448.534780
11
327.344520
21
454.740890
0
LINE
8
Calque 1
10
327.344520
20
454.740890
11
330.342489
21
458.295244
0
LINE
8
Calque 1
10
330.342489
20
458.295244
11
334.252150
21
462.434110
0
LINE
8
Calque 1
10
334.252150
20
462.434110
11
338.091862
21
466.150514
0
LINE
8
Calque 1
10
338.091862
20
466.150514
11
341.002460
21
468.740950
0
LINE
8
Calque 1
10
341.002460
20
468.740950
11
346.558710
21
472.724590
0
LINE
8
Calque 1
10
346.558710
20
472.724590
11
352.554630
21
476.416950
0
LINE
8
Calque 1
10
352.554630
20
476.416950
11
358.241160
21
479.256310
0
LINE
8
Calque 1
10
358.241160
20
479.256310
11
363.357740
21
481.393720
0
LINE
8
Calque 1
10
363.357740
20
481.393720
11
368.386840
21
483.083260
0
LINE
8
Calque 1
10
368.386840
20
483.083260
11
375.133710
21
484.745590
0
LINE
8
Calque 1
10
375.133710
20
484.745590
11
381.351420
21
485.870020
0
LINE
8
Calque 1
10
381.351420
20
485.870020
11
385.156675
21
486.135858
0
LINE
8
Calque 1
10
385.156675
20
486.135858
11
391.934720
21
486.212890
0
LINE
8
Calque 1
10
391.934720
20
486.212890
11
399.347245
21
486.099971
0
LINE
8
Calque 1
10
399.347245
20
486.099971
11
403.840920
21
485.619140
0
LINE
8
Calque 1
10
403.840920
20
485.619140
11
411.646130
21
484.012750
0
LINE
8
Calque 1
10
411.646130
20
484.012750
11
415.552865
21
482.919429
0
LINE
8
Calque 1
10
415.552865
20
482.919429
11
419.186750
21
481.731660
0
LINE
8
Calque 1
10
419.186750
20
481.731660
11
425.145070
21
479.344710
0
LINE
8
Calque 1
10
425.145070
20
479.344710
11
430.436740
21
476.703110
0
LINE
8
Calque 1
10
430.436740
20
476.703110
11
436.120090
21
473.278270
0
LINE
8
Calque 1
10
436.120090
20
473.278270
11
441.808630
21
469.194320
0
LINE
8
Calque 1
10
441.808630
20
469.194320
11
447.057650
21
464.745550
0
LINE
8
Calque 1
10
447.057650
20
464.745550
11
452.015390
21
459.711490
0
LINE
8
Calque 1
10
452.015390
20
459.711490
11
456.751060
21
453.963350
0
LINE
8
Calque 1
10
456.751060
20
453.963350
11
460.880400
21
447.960300
0
LINE
8
Calque 1
10
460.880400
20
447.960300
11
462.776819
21
444.669377
0
LINE
8
Calque 1
10
462.776819
20
444.669377
11
464.695580
21
440.982560
0
LINE
8
Calque 1
10
464.695580
20
440.982560
11
466.447701
21
437.130386
0
LINE
8
Calque 1
10
466.447701
20
437.130386
11
467.943480
21
433.441930
0
LINE
8
Calque 1
10
467.943480
20
433.441930
11
470.214400
21
426.298180
0
LINE
8
Calque 1
10
470.214400
20
426.298180
11
471.685700
21
419.683600
0
LINE
8
Calque 1
10
471.685700
20
419.683600
11
472.525730
21
413.862770
0
LINE
8
Calque 1
10
472.525730
20
413.862770
11
472.755199
21
410.229709
0
LINE
8
Calque 1
10
472.755199
20
410.229709
11
472.848520
21
405.396100
0
LINE
8
Calque 1
10
472.848520
20
405.396100
11
472.730778
21
400.207614
0
LINE
8
Calque 1
10
472.730778
20
400.207614
11
472.387840
21
396.003390
0
LINE
8
Calque 1
10
472.387840
20
396.003390
11
471.275220
21
389.046030
0
LINE
8
Calque 1
10
471.275220
20
389.046030
11
469.828000
21
383.031330
0
LINE
8
Calque 1
10
469.828000
20
383.031330
11
468.023020
21
377.553280
0
LINE
8
Calque 1
10
468.023020
20
377.553280
11
465.816940
21
372.159890
0
LINE
8
Calque 1
10
465.816940
20
372.159890
11
463.116930
21
366.760610
0
LINE
8
Calque 1
10
463.116930
20
366.760610
11
460.036990
21
361.541910
0
LINE
8
Calque 1
10
460.036990
20
361.541910
11
456.821650
21
356.887020
0
LINE
8
Calque 1
10
456.821650
20
356.887020
11
452.899440
21
352.082560
0
LINE
8
Calque 1
10
452.899440
20
352.082560
11
448.264790
21
347.184240
0
LINE
8
Calque 1
10
448.264790
20
347.184240
11
443.131540
21
342.657490
0
LINE
8
Calque 1
10
443.131540
20
342.657490
11
437.443000
21
338.389700
0
LINE
8
Calque 1
10
437.443000
20
338.389700
11
430.913410
21
334.377500
0
LINE
8
Calque 1
10
430.913410
20
334.377500
11
427.450615
21
332.562734
0
LINE
8
Calque 1
10
427.450615
20
332.562734
11
424.207420
21
331.034310
0
LINE
8
Calque 1
10
424.207420
20
331.034310
11
418.037020
21
328.646480
0
LINE
8
Calque 1
10
418.037020
20
328.646480
11
411.910710
21
326.819960
0
LINE
8
Calque 1
10
411.910710
20
326.819960
11
406.652780
21
325.641460
0
LINE
8
Calque 1
10
406.652780
20
325.641460
11
401.361110
21
324.845720
0
LINE
8
Calque 1
10
401.361110
20
324.845720
11
393.654460
21
324.336960
0
LINE
8
Calque 1
10
393.654460
20
324.336960
11
389.554204
21
324.311372
0
LINE
8
Calque 1
10
389.554204
20
324.311372
11
386.198120
21
324.430160
0
LINE
8
Calque 1
10
386.198120
20
324.430160
11
386.198200
21
324.430110
0
LINE
8
Calque 1
10
402.024800
20
328.252770
11
407.657310
21
329.204770
0
LINE
8
Calque 1
10
407.657310
20
329.204770
11
413.488070
21
330.648370
0
LINE
8
Calque 1
10
413.488070
20
330.648370
11
419.232650
21
332.512480
0
LINE
8
Calque 1
10
419.232650
20
332.512480
11
426.066000
21
335.554500
0
LINE
8
Calque 1
10
426.066000
20
335.554500
11
430.027200
21
337.660972
0
LINE
8
Calque 1
10
430.027200
20
337.660972
11
433.606260
21
339.800400
0
LINE
8
Calque 1
10
433.606260
20
339.800400
11
439.605630
21
344.048300
0
LINE
8
Calque 1
10
439.605630
20
344.048300
11
444.485950
21
348.181890
0
LINE
8
Calque 1
10
444.485950
20
348.181890
11
448.481240
21
352.116820
0
LINE
8
Calque 1
10
448.481240
20
352.116820
11
452.286890
21
356.464250
0
LINE
8
Calque 1
10
452.286890
20
356.464250
11
455.955050
21
361.324780
0
LINE
8
Calque 1
10
455.955050
20
361.324780
11
459.474000
21
366.956270
0
LINE
8
Calque 1
10
459.474000
20
366.956270
11
461.250680
21
370.310237
0
LINE
8
Calque 1
10
461.250680
20
370.310237
11
462.925780
21
373.835430
0
LINE
8
Calque 1
10
462.925780
20
373.835430
11
465.587600
21
380.573130
0
LINE
8
Calque 1
10
465.587600
20
380.573130
11
467.457320
21
386.923130
0
LINE
8
Calque 1
10
467.457320
20
386.923130
11
468.823820
21
393.622140
0
LINE
8
Calque 1
10
468.823820
20
393.622140
11
469.287482
21
397.785896
0
LINE
8
Calque 1
10
469.287482
20
397.785896
11
469.514580
21
403.808640
0
LINE
8
Calque 1
10
469.514580
20
403.808640
11
469.532429
21
409.899894
0
LINE
8
Calque 1
10
469.532429
20
409.899894
11
469.215080
21
414.114040
0
LINE
8
Calque 1
10
469.215080
20
414.114040
11
468.232220
21
420.319140
0
LINE
8
Calque 1
10
468.232220
20
420.319140
11
466.800030
21
426.190330
0
LINE
8
Calque 1
10
466.800030
20
426.190330
11
464.942520
21
432.023760
0
LINE
8
Calque 1
10
464.942520
20
432.023760
11
462.671830
21
437.514940
0
LINE
8
Calque 1
10
462.671830
20
437.514940
11
459.887300
21
443.071190
0
LINE
8
Calque 1
10
459.887300
20
443.071190
11
456.555530
21
448.523190
0
LINE
8
Calque 1
10
456.555530
20
448.523190
11
452.258270
21
454.344020
0
LINE
8
Calque 1
10
452.258270
20
454.344020
11
449.448452
21
457.544996
0
LINE
8
Calque 1
10
449.448452
20
457.544996
11
446.137680
21
460.968220
0
LINE
8
Calque 1
10
446.137680
20
460.968220
11
442.809145
21
464.070224
0
LINE
8
Calque 1
10
442.809145
20
464.070224
11
439.956620
21
466.498930
0
LINE
8
Calque 1
10
439.956620
20
466.498930
11
434.135790
21
470.633010
0
LINE
8
Calque 1
10
434.135790
20
470.633010
11
428.050370
21
474.283400
0
LINE
8
Calque 1
10
428.050370
20
474.283400
11
422.229540
21
477.051910
0
LINE
8
Calque 1
10
422.229540
20
477.051910
11
416.168420
21
479.329140
0
LINE
8
Calque 1
10
416.168420
20
479.329140
11
409.950710
21
481.073850
0
LINE
8
Calque 1
10
409.950710
20
481.073850
11
402.914960
21
482.437260
0
LINE
8
Calque 1
10
402.914960
20
482.437260
11
398.444530
21
482.924185
0
LINE
8
Calque 1
10
398.444530
20
482.924185
11
391.670160
21
483.025760
0
LINE
8
Calque 1
10
391.670160
20
483.025760
11
384.941744
21
482.917754
0
LINE
8
Calque 1
10
384.941744
20
482.917754
11
380.617760
21
482.444010
0
LINE
8
Calque 1
10
380.617760
20
482.444010
11
374.135460
21
481.210630
0
LINE
8
Calque 1
10
374.135460
20
481.210630
11
369.180540
21
479.916170
0
LINE
8
Calque 1
10
369.180540
20
479.916170
11
364.418040
21
478.300120
0
LINE
8
Calque 1
10
364.418040
20
478.300120
11
357.538870
21
475.242510
0
LINE
8
Calque 1
10
357.538870
20
475.242510
11
353.749534
21
473.267509
0
LINE
8
Calque 1
10
353.749534
20
473.267509
11
350.583680
21
471.439830
0
LINE
8
Calque 1
10
350.583680
20
471.439830
11
344.845210
21
467.451310
0
LINE
8
Calque 1
10
344.845210
20
467.451310
11
339.100410
21
462.720010
0
LINE
8
Calque 1
10
339.100410
20
462.720010
11
334.494130
21
458.159150
0
LINE
8
Calque 1
10
334.494130
20
458.159150
11
330.805750
21
453.814860
0
LINE
8
Calque 1
10
330.805750
20
453.814860
11
326.649770
21
447.994850
0
LINE
8
Calque 1
10
326.649770
20
447.994850
11
324.461834
21
444.423312
0
LINE
8
Calque 1
10
324.461834
20
444.423312
11
322.495410
21
440.851100
0
LINE
8
Calque 1
10
322.495410
20
440.851100
11
320.789097
21
437.239781
0
LINE
8
Calque 1
10
320.789097
20
437.239781
11
319.226530
21
433.574230
0
LINE
8
Calque 1
10
319.226530
20
433.574230
11
316.922690
21
426.962300
0
LINE
8
Calque 1
10
316.922690
20
426.962300
11
315.446820
21
420.944110
0
LINE
8
Calque 1
10
315.446820
20
420.944110
11
314.431550
21
414.591460
0
LINE
8
Calque 1
10
314.431550
20
414.591460
11
313.882110
21
408.174230
0
LINE
8
Calque 1
10
313.882110
20
408.174230
11
313.849522
21
404.688349
0
LINE
8
Calque 1
10
313.849522
20
404.688349
11
314.004810
21
400.765900
0
LINE
8
Calque 1
10
314.004810
20
400.765900
11
314.704280
21
393.886740
0
LINE
8
Calque 1
10
314.704280
20
393.886740
11
315.887060
21
387.973980
0
LINE
8
Calque 1
10
315.887060
20
387.973980
11
317.357240
21
382.417730
0
LINE
8
Calque 1
10
317.357240
20
382.417730
11
319.485540
21
376.562020
0
LINE
8
Calque 1
10
319.485540
20
376.562020
11
321.033684
21
373.007548
0
LINE
8
Calque 1
10
321.033684
20
373.007548
11
322.746970
21
369.469800
0
LINE
8
Calque 1
10
322.746970
20
369.469800
11
326.341200
21
363.246610
0
LINE
8
Calque 1
10
326.341200
20
363.246610
11
329.703240
21
358.432570
0
LINE
8
Calque 1
10
329.703240
20
358.432570
11
333.918130
21
353.352880
0
LINE
8
Calque 1
10
333.918130
20
353.352880
11
336.620995
21
350.498488
0
LINE
8
Calque 1
10
336.620995
20
350.498488
11
339.445570
21
347.796630
0
LINE
8
Calque 1
10
339.445570
20
347.796630
11
345.389590
21
342.928820
0
LINE
8
Calque 1
10
345.389590
20
342.928820
11
348.524784
21
340.729738
0
LINE
8
Calque 1
10
348.524784
20
340.729738
11
351.803820
21
338.636690
0
LINE
8
Calque 1
10
351.803820
20
338.636690
11
358.744840
21
334.907440
0
LINE
8
Calque 1
10
358.744840
20
334.907440
11
362.657317
21
333.233619
0
LINE
8
Calque 1
10
362.657317
20
333.233619
11
367.065380
21
331.612980
0
LINE
8
Calque 1
10
367.065380
20
331.612980
11
371.399347
21
330.297520
0
LINE
8
Calque 1
10
371.399347
20
330.297520
11
375.133660
21
329.357420
0
LINE
8
Calque 1
10
375.133660
20
329.357420
11
381.615950
21
328.285800
0
LINE
8
Calque 1
10
381.615950
20
328.285800
11
385.981580
21
327.776730
0
LINE
8
Calque 1
10
385.981580
20
327.776730
11
393.125330
21
327.752930
0
LINE
8
Calque 1
10
393.125330
20
327.752930
11
398.231421
21
327.931476
0
LINE
8
Calque 1
10
398.231421
20
327.931476
11
402.024750
21
328.252830
0
LINE
8
Calque 1
10
402.024750
20
328.252830
11
402.024800
21
328.252770
0
LINE
8
Calque 1
10
356.459800
20
340.374770
11
361.845820
21
350.362790
0
LINE
8
Calque 1
10
361.845820
20
350.362790
11
371.293630
21
367.825290
0
LINE
8
Calque 1
10
371.293630
20
367.825290
11
379.022730
21
381.935190
0
LINE
8
Calque 1
10
379.022730
20
381.935190
11
381.705360
21
386.994140
0
LINE
8
Calque 1
10
381.705360
20
386.994140
11
374.670650
21
383.826100
0
LINE
8
Calque 1
10
374.670650
20
383.826100
11
369.765525
21
381.588245
0
LINE
8
Calque 1
10
369.765525
20
381.588245
11
367.725340
21
380.764980
0
LINE
8
Calque 1
10
367.725340
20
380.764980
11
371.038730
21
387.257470
0
LINE
8
Calque 1
10
371.038730
20
387.257470
11
374.225920
21
393.692070
0
LINE
8
Calque 1
10
374.225920
20
393.692070
11
370.978670
21
393.377930
0
LINE
8
Calque 1
10
370.978670
20
393.377930
11
364.285750
21
392.273300
0
LINE
8
Calque 1
10
364.285750
20
392.273300
11
356.486670
21
390.532830
0
LINE
8
Calque 1
10
356.486670
20
390.532830
11
349.484190
21
388.575920
0
LINE
8
Calque 1
10
349.484190
20
388.575920
11
346.620520
21
387.783580
0
LINE
8
Calque 1
10
346.620520
20
387.783580
11
347.731240
21
394.054360
0
LINE
8
Calque 1
10
347.731240
20
394.054360
11
349.982390
21
405.895560
0
LINE
8
Calque 1
10
349.982390
20
405.895560
11
351.034430
21
411.554340
0
LINE
8
Calque 1
10
351.034430
20
411.554340
11
348.915860
21
422.828840
0
LINE
8
Calque 1
10
348.915860
20
422.828840
11
346.650390
21
434.694340
0
LINE
8
Calque 1
10
346.650390
20
434.694340
11
346.503490
21
435.285300
0
LINE
8
Calque 1
10
346.503490
20
435.285300
11
347.787850
21
434.887930
0
LINE
8
Calque 1
10
347.787850
20
434.887930
11
353.967010
21
433.178850
0
LINE
8
Calque 1
10
353.967010
20
433.178850
11
363.492000
21
430.945000
0
LINE
8
Calque 1
10
363.492000
20
430.945000
11
371.826380
21
429.495610
0
LINE
8
Calque 1
10
371.826380
20
429.495610
11
377.118050
21
428.805870
0
LINE
8
Calque 1
10
377.118050
20
428.805870
11
378.705550
21
428.643380
0
LINE
8
Calque 1
10
378.705550
20
428.643380
11
388.362840
21
444.400880
0
LINE
8
Calque 1
10
388.362840
20
444.400880
11
398.748240
21
461.352280
0
LINE
8
Calque 1
10
398.748240
20
461.352280
11
399.476330
21
462.546100
0
LINE
8
Calque 1
10
399.476330
20
462.546100
11
414.969000
21
462.546000
0
LINE
8
Calque 1
10
414.969000
20
462.546000
11
427.297100
21
462.479271
0
LINE
8
Calque 1
10
427.297100
20
462.479271
11
429.675534
21
462.377912
0
LINE
8
Calque 1
10
429.675534
20
462.377912
11
430.268200
21
462.215270
0
LINE
8
Calque 1
10
430.268200
20
462.215270
11
424.728930
21
453.947040
0
LINE
8
Calque 1
10
424.728930
20
453.947040
11
414.457730
21
438.754140
0
LINE
8
Calque 1
10
414.457730
20
438.754140
11
409.630340
21
431.400140
0
LINE
8
Calque 1
10
409.630340
20
431.400140
11
416.838880
21
434.644250
0
LINE
8
Calque 1
10
416.838880
20
434.644250
11
424.808670
21
438.363780
0
LINE
8
Calque 1
10
424.808670
20
438.363780
11
425.668560
21
438.636450
0
LINE
8
Calque 1
10
425.668560
20
438.636450
11
422.867570
21
434.862590
0
LINE
8
Calque 1
10
422.867570
20
434.862590
11
420.779319
21
431.981980
0
LINE
8
Calque 1
10
420.779319
20
431.981980
11
420.439985
21
431.334680
0
LINE
8
Calque 1
10
420.439985
20
431.334680
11
420.500300
21
431.104590
0
LINE
8
Calque 1
10
420.500300
20
431.104590
11
423.632020
21
431.583910
0
LINE
8
Calque 1
10
423.632020
20
431.583910
11
431.145510
21
433.459640
0
LINE
8
Calque 1
10
431.145510
20
433.459640
11
436.635620
21
435.024280
0
LINE
8
Calque 1
10
436.635620
20
435.024280
11
437.310230
21
435.123980
0
LINE
8
Calque 1
10
437.310230
20
435.123980
11
435.449900
21
425.142510
0
LINE
8
Calque 1
10
435.449900
20
425.142510
11
433.212320
21
413.426310
0
LINE
8
Calque 1
10
433.212320
20
413.426310
11
433.018688
21
412.294397
0
LINE
8
Calque 1
10
433.018688
20
412.294397
11
432.987004
21
411.295325
0
LINE
8
Calque 1
10
432.987004
20
411.295325
11
433.498960
21
408.002350
0
LINE
8
Calque 1
10
433.498960
20
408.002350
11
435.752800
21
396.173850
0
LINE
8
Calque 1
10
435.752800
20
396.173850
11
437.251030
21
387.786060
0
LINE
8
Calque 1
10
437.251030
20
387.786060
11
434.655080
21
388.483530
0
LINE
8
Calque 1
10
434.655080
20
388.483530
11
428.182110
21
390.318460
0
LINE
8
Calque 1
10
428.182110
20
390.318460
11
420.376900
21
392.140130
0
LINE
8
Calque 1
10
420.376900
20
392.140130
11
412.912850
21
393.468980
0
LINE
8
Calque 1
10
412.912850
20
393.468980
11
405.796730
21
394.409070
0
LINE
8
Calque 1
10
405.796730
20
394.409070
11
402.080250
21
394.655370
0
LINE
8
Calque 1
10
402.080250
20
394.655370
11
398.446400
21
390.364080
0
LINE
8
Calque 1
10
398.446400
20
390.364080
11
390.973800
21
381.294790
0
LINE
8
Calque 1
10
390.973800
20
381.294790
11
379.498800
21
367.425390
0
LINE
8
Calque 1
10
379.498800
20
367.425390
11
369.312300
21
355.114990
0
LINE
8
Calque 1
10
369.312300
20
355.114990
11
361.151580
21
345.238080
0
LINE
8
Calque 1
10
361.151580
20
345.238080
11
355.666480
21
338.720960
0
LINE
8
Calque 1
10
355.666480
20
338.720960
11
356.459260
21
340.374610
0
LINE
8
Calque 1
10
356.459260
20
340.374610
11
356.459800
21
340.374770
0
LINE
8
Calque 1
10
357.207740
20
394.917170
11
365.740960
21
396.507260
0
LINE
8
Calque 1
10
365.740960
20
396.507260
11
373.407110
21
397.600310
0
LINE
8
Calque 1
10
373.407110
20
397.600310
11
376.871910
21
398.069210
0
LINE
8
Calque 1
10
376.871910
20
398.069210
11
378.572890
21
401.295080
0
LINE
8
Calque 1
10
378.572890
20
401.295080
11
383.076210
21
409.761740
0
LINE
8
Calque 1
10
383.076210
20
409.761740
11
386.889080
21
416.998750
0
LINE
8
Calque 1
10
386.889080
20
416.998750
11
387.539081
21
418.413756
0
LINE
8
Calque 1
10
387.539081
20
418.413756
11
387.727720
21
419.084020
0
LINE
8
Calque 1
10
387.727720
20
419.084020
11
384.586280
21
417.691715
0
LINE
8
Calque 1
10
384.586280
20
417.691715
11
377.230020
21
414.147720
0
LINE
8
Calque 1
10
377.230020
20
414.147720
11
366.786620
21
409.157080
0
LINE
8
Calque 1
10
366.786620
20
409.157080
11
369.892810
21
414.396990
0
LINE
8
Calque 1
10
369.892810
20
414.396990
11
374.738970
21
422.197160
0
LINE
8
Calque 1
10
374.738970
20
422.197160
11
376.393360
21
424.842990
0
LINE
8
Calque 1
10
376.393360
20
424.842990
11
375.697380
21
425.027520
0
LINE
8
Calque 1
10
375.697380
20
425.027520
11
370.768070
21
425.781250
0
LINE
8
Calque 1
10
370.768070
20
425.781250
11
363.095150
21
427.001600
0
LINE
8
Calque 1
10
363.095150
20
427.001600
11
355.992370
21
428.449600
0
LINE
8
Calque 1
10
355.992370
20
428.449600
11
352.194970
21
429.112250
0
LINE
8
Calque 1
10
352.194970
20
429.112250
11
353.458750
21
420.206710
0
LINE
8
Calque 1
10
353.458750
20
420.206710
11
354.856730
21
411.435360
0
LINE
8
Calque 1
10
354.856730
20
411.435360
11
353.481280
21
402.793350
0
LINE
8
Calque 1
10
353.481280
20
402.793350
11
352.110390
21
393.924580
0
LINE
8
Calque 1
10
352.110390
20
393.924580
11
352.229878
21
393.809134
0
LINE
8
Calque 1
10
352.229878
20
393.809134
11
352.511410
21
393.849980
0
LINE
8
Calque 1
10
352.511410
20
393.849980
11
357.207760
21
394.917170
0
LINE
8
Calque 1
10
357.207760
20
394.917170
11
357.207740
21
394.917170
0
LINE
8
Calque 1
10
431.615340
20
395.143520
11
430.188540
21
403.989040
0
LINE
8
Calque 1
10
430.188540
20
403.989040
11
428.950560
21
411.445510
0
LINE
8
Calque 1
10
428.950560
20
411.445510
11
430.415860
21
420.175550
0
LINE
8
Calque 1
10
430.415860
20
420.175550
11
431.729640
21
429.057100
0
LINE
8
Calque 1
10
431.729640
20
429.057100
11
427.499130
21
428.302960
0
LINE
8
Calque 1
10
427.499130
20
428.302960
11
419.848260
21
426.805900
0
LINE
8
Calque 1
10
419.848260
20
426.805900
11
416.786309
21
426.199419
0
LINE
8
Calque 1
10
416.786309
20
426.199419
11
416.140647
21
425.913068
0
LINE
8
Calque 1
10
416.140647
20
425.913068
11
415.747220
21
425.533080
0
LINE
8
Calque 1
10
415.747220
20
425.533080
11
408.407360
21
415.871210
0
LINE
8
Calque 1
10
408.407360
20
415.871210
11
401.694550
21
406.792890
0
LINE
8
Calque 1
10
401.694550
20
406.792890
11
409.815140
21
410.269860
0
LINE
8
Calque 1
10
409.815140
20
410.269860
11
417.916700
21
413.765870
0
LINE
8
Calque 1
10
417.916700
20
413.765870
11
411.778150
21
406.200700
0
LINE
8
Calque 1
10
411.778150
20
406.200700
11
405.560760
21
398.548790
0
LINE
8
Calque 1
10
405.560760
20
398.548790
11
410.257120
21
397.770100
0
LINE
8
Calque 1
10
410.257120
20
397.770100
11
419.980550
21
396.239580
0
LINE
8
Calque 1
10
419.980550
20
396.239580
11
428.182640
21
394.565170
0
LINE
8
Calque 1
10
428.182640
20
394.565170
11
431.580900
21
393.781320
0
LINE
8
Calque 1
10
431.580900
20
393.781320
11
431.683109
21
394.170374
0
LINE
8
Calque 1
10
431.683109
20
394.170374
11
431.615300
21
395.143520
0
LINE
8
Calque 1
10
431.615300
20
395.143520
11
431.615340
21
395.143520
 0 
ENDSEC
 0 
EOF