999
"DXF R12 Output" (www.mydxf.blogspot.com)
 0 
SECTION
 2 
HEADER
 9 
$ACADVER
 1 
AC1009
 9 
$EXTMIN
 10 
 0 
 20 
 0 
 9 
$EXTMAX
 10 
 8.5 
 20 
 11 
 0 
ENDSEC
 0 
SECTION
 2 
ENTITIES
0
LINE
8
Calque 1
10
510.477000
20
305.069000
11
507.452450
21
309.897650
0
LINE
8
Calque 1
10
507.452450
20
309.897650
11
504.669400
21
315.321600
0
LINE
8
Calque 1
10
504.669400
20
315.321600
11
502.225360
21
321.010150
0
LINE
8
Calque 1
10
502.225360
20
321.010150
11
501.099440
21
324.354030
0
LINE
8
Calque 1
10
501.099440
20
324.354030
11
500.782840
21
325.448950
0
LINE
8
Calque 1
10
500.782840
20
325.448950
11
503.295530
21
327.925900
0
LINE
8
Calque 1
10
503.295530
20
327.925900
11
505.581560
21
330.409319
0
LINE
8
Calque 1
10
505.581560
20
330.409319
11
506.310451
21
331.522614
0
LINE
8
Calque 1
10
506.310451
20
331.522614
11
507.037790
21
332.916400
0
LINE
8
Calque 1
10
507.037790
20
332.916400
11
508.092954
21
335.435518
0
LINE
8
Calque 1
10
508.092954
20
335.435518
11
508.903190
21
337.962480
0
LINE
8
Calque 1
10
508.903190
20
337.962480
11
509.840140
21
343.121850
0
LINE
8
Calque 1
10
509.840140
20
343.121850
11
510.028679
21
345.637686
0
LINE
8
Calque 1
10
510.028679
20
345.637686
11
510.059140
21
347.997650
0
LINE
8
Calque 1
10
510.059140
20
347.997650
11
509.896359
21
349.958296
0
LINE
8
Calque 1
10
509.896359
20
349.958296
11
509.681794
21
350.239234
0
LINE
8
Calque 1
10
509.681794
20
350.239234
11
509.288190
21
350.326580
0
LINE
8
Calque 1
10
509.288190
20
350.326580
11
508.599360
21
350.406580
0
LINE
8
Calque 1
10
508.599360
20
350.406580
11
508.418140
21
347.680770
0
LINE
8
Calque 1
10
508.418140
20
347.680770
11
507.858600
21
342.562640
0
LINE
8
Calque 1
10
507.858600
20
342.562640
11
506.916610
21
338.329310
0
LINE
8
Calque 1
10
506.916610
20
338.329310
11
506.234814
21
336.485040
0
LINE
8
Calque 1
10
506.234814
20
336.485040
11
505.387140
21
334.636210
0
LINE
8
Calque 1
10
505.387140
20
334.636210
11
504.205269
21
332.804180
0
LINE
8
Calque 1
10
504.205269
20
332.804180
11
502.675720
21
331.004430
0
LINE
8
Calque 1
10
502.675720
20
331.004430
11
500.853694
21
329.397490
0
LINE
8
Calque 1
10
500.853694
20
329.397490
11
498.838970
21
328.226300
0
LINE
8
Calque 1
10
498.838970
20
328.226300
11
497.599167
21
327.662089
0
LINE
8
Calque 1
10
497.599167
20
327.662089
11
496.635955
21
327.364235
0
LINE
8
Calque 1
10
496.635955
20
327.364235
11
493.837440
21
327.227870
0
LINE
8
Calque 1
10
493.837440
20
327.227870
11
491.107105
21
327.351704
0
LINE
8
Calque 1
10
491.107105
20
327.351704
11
490.224818
21
327.597462
0
LINE
8
Calque 1
10
490.224818
20
327.597462
11
489.207230
21
328.046640
0
LINE
8
Calque 1
10
489.207230
20
328.046640
11
487.650226
21
328.967291
0
LINE
8
Calque 1
10
487.650226
20
328.967291
11
486.321830
21
330.031020
0
LINE
8
Calque 1
10
486.321830
20
330.031020
11
485.258101
21
331.359416
0
LINE
8
Calque 1
10
485.258101
20
331.359416
11
484.337450
21
332.916420
0
LINE
8
Calque 1
10
484.337450
20
332.916420
11
483.651849
21
334.763944
0
LINE
8
Calque 1
10
483.651849
20
334.763944
11
483.527420
21
337.149750
0
LINE
8
Calque 1
10
483.527420
20
337.149750
11
483.662131
21
339.497416
0
LINE
8
Calque 1
10
483.662131
20
339.497416
11
484.297910
21
341.184550
0
LINE
8
Calque 1
10
484.297910
20
341.184550
11
485.166841
21
342.594621
0
LINE
8
Calque 1
10
485.166841
20
342.594621
11
486.186260
21
343.848550
0
LINE
8
Calque 1
10
486.186260
20
343.848550
11
487.333723
21
344.842234
0
LINE
8
Calque 1
10
487.333723
20
344.842234
11
488.510510
21
345.626630
0
LINE
8
Calque 1
10
488.510510
20
345.626630
11
489.401544
21
346.030175
0
LINE
8
Calque 1
10
489.401544
20
346.030175
11
489.861980
21
346.108190
0
LINE
8
Calque 1
10
489.861980
20
346.108190
11
489.743800
21
345.239010
0
LINE
8
Calque 1
10
489.743800
20
345.239010
11
489.471810
21
343.301480
0
LINE
8
Calque 1
10
489.471810
20
343.301480
11
489.629974
21
342.101151
0
LINE
8
Calque 1
10
489.629974
20
342.101151
11
490.026390
21
340.933710
0
LINE
8
Calque 1
10
490.026390
20
340.933710
11
490.718466
21
339.914759
0
LINE
8
Calque 1
10
490.718466
20
339.914759
11
491.680040
21
339.144050
0
LINE
8
Calque 1
10
491.680040
20
339.144050
11
492.786948
21
338.636324
0
LINE
8
Calque 1
10
492.786948
20
338.636324
11
493.904880
21
338.320020
0
LINE
8
Calque 1
10
493.904880
20
338.320020
11
495.052051
21
338.282665
0
LINE
8
Calque 1
10
495.052051
20
338.282665
11
496.233970
21
338.476940
0
LINE
8
Calque 1
10
496.233970
20
338.476940
11
497.469983
21
339.045838
0
LINE
8
Calque 1
10
497.469983
20
339.045838
11
498.760850
21
340.003850
0
LINE
8
Calque 1
10
498.760850
20
340.003850
11
499.879895
21
341.207949
0
LINE
8
Calque 1
10
499.879895
20
341.207949
11
500.711750
21
342.431840
0
LINE
8
Calque 1
10
500.711750
20
342.431840
11
501.736180
21
345.238430
0
LINE
8
Calque 1
10
501.736180
20
345.238430
11
502.315330
21
348.589840
0
LINE
8
Calque 1
10
502.315330
20
348.589840
11
502.497370
21
350.372640
0
LINE
8
Calque 1
10
502.497370
20
350.372640
11
492.214270
21
350.441940
0
LINE
8
Calque 1
10
492.214270
20
350.441940
11
481.931170
21
350.511240
0
LINE
8
Calque 1
10
481.931170
20
350.511240
11
481.932000
21
355.802000
0
LINE
8
Calque 1
10
481.932000
20
355.802000
11
481.932000
21
361.094000
0
LINE
8
Calque 1
10
481.932000
20
361.094000
11
490.597100
21
361.163800
0
LINE
8
Calque 1
10
490.597100
20
361.163800
11
496.716829
21
361.274885
0
LINE
8
Calque 1
10
496.716829
20
361.274885
11
499.262200
21
361.443960
0
LINE
8
Calque 1
10
499.262200
20
361.443960
11
498.931470
21
362.078160
0
LINE
8
Calque 1
10
498.931470
20
362.078160
11
498.222582
21
362.426229
0
LINE
8
Calque 1
10
498.222582
20
362.426229
11
496.653670
21
362.602030
0
LINE
8
Calque 1
10
496.653670
20
362.602030
11
495.029796
21
362.784631
0
LINE
8
Calque 1
10
495.029796
20
362.784631
11
494.606948
21
362.954995
0
LINE
8
Calque 1
10
494.606948
20
362.954995
11
494.338570
21
363.205410
0
LINE
8
Calque 1
10
494.338570
20
363.205410
11
494.060265
21
364.181884
0
LINE
8
Calque 1
10
494.060265
20
364.181884
11
493.970540
21
366.152790
0
LINE
8
Calque 1
10
493.970540
20
366.152790
11
494.059186
21
368.164396
0
LINE
8
Calque 1
10
494.059186
20
368.164396
11
494.386310
21
369.012640
0
LINE
8
Calque 1
10
494.386310
20
369.012640
11
495.152934
21
369.334281
0
LINE
8
Calque 1
10
495.152934
20
369.334281
11
496.767560
21
369.428410
0
LINE
8
Calque 1
10
496.767560
20
369.428410
11
498.273561
21
369.505451
0
LINE
8
Calque 1
10
498.273561
20
369.505451
11
498.618892
21
369.608099
0
LINE
8
Calque 1
10
498.618892
20
369.608099
11
498.725880
21
369.759140
0
LINE
8
Calque 1
10
498.725880
20
369.759140
11
497.957320
21
371.874620
0
LINE
8
Calque 1
10
497.957320
20
371.874620
11
496.985879
21
373.786905
0
LINE
8
Calque 1
10
496.985879
20
373.786905
11
495.719500
21
375.878290
0
LINE
8
Calque 1
10
495.719500
20
375.878290
11
494.065518
21
378.020426
0
LINE
8
Calque 1
10
494.065518
20
378.020426
11
492.162190
21
380.054750
0
LINE
8
Calque 1
10
492.162190
20
380.054750
11
490.233985
21
381.680600
0
LINE
8
Calque 1
10
490.233985
20
381.680600
11
488.520190
21
382.840640
0
LINE
8
Calque 1
10
488.520190
20
382.840640
11
485.394060
21
384.120790
0
LINE
8
Calque 1
10
485.394060
20
384.120790
11
483.724615
21
384.437708
0
LINE
8
Calque 1
10
483.724615
20
384.437708
11
481.822190
21
384.453710
0
LINE
8
Calque 1
10
481.822190
20
384.453710
11
480.023398
21
384.218174
0
LINE
8
Calque 1
10
480.023398
20
384.218174
11
478.578230
21
383.784360
0
LINE
8
Calque 1
10
478.578230
20
383.784360
11
477.357804
21
383.076005
0
LINE
8
Calque 1
10
477.357804
20
383.076005
11
476.160800
21
382.145920
0
LINE
8
Calque 1
10
476.160800
20
382.145920
11
475.150005
21
380.977351
0
LINE
8
Calque 1
10
475.150005
20
380.977351
11
474.391510
21
379.688850
0
LINE
8
Calque 1
10
474.391510
20
379.688850
11
473.935408
21
378.279133
0
LINE
8
Calque 1
10
473.935408
20
378.279133
11
473.665860
21
376.812340
0
LINE
8
Calque 1
10
473.665860
20
376.812340
11
473.688000
21
375.227410
0
LINE
8
Calque 1
10
473.688000
20
375.227410
11
474.090480
21
373.456930
0
LINE
8
Calque 1
10
474.090480
20
373.456930
11
474.817891
21
371.674246
0
LINE
8
Calque 1
10
474.817891
20
371.674246
11
475.832860
21
370.004580
0
LINE
8
Calque 1
10
475.832860
20
370.004580
11
477.188165
21
368.492180
0
LINE
8
Calque 1
10
477.188165
20
368.492180
11
478.824960
21
367.128370
0
LINE
8
Calque 1
10
478.824960
20
367.128370
11
480.704420
21
365.596390
0
LINE
8
Calque 1
10
480.704420
20
365.596390
11
480.378939
21
365.315170
0
LINE
8
Calque 1
10
480.378939
20
365.315170
11
479.500340
21
365.004370
0
LINE
8
Calque 1
10
479.500340
20
365.004370
11
476.083550
21
364.500850
0
LINE
8
Calque 1
10
476.083550
20
364.500850
11
473.938059
21
364.465915
0
LINE
8
Calque 1
10
473.938059
20
364.465915
11
471.790700
21
364.643350
0
LINE
8
Calque 1
10
471.790700
20
364.643350
11
469.710631
21
365.056594
0
LINE
8
Calque 1
10
469.710631
20
365.056594
11
467.726750
21
365.608970
0
LINE
8
Calque 1
10
467.726750
20
365.608970
11
465.827180
21
366.393818
0
LINE
8
Calque 1
10
465.827180
20
366.393818
11
463.949810
21
367.365970
0
LINE
8
Calque 1
10
463.949810
20
367.365970
11
462.043973
21
368.737684
0
LINE
8
Calque 1
10
462.043973
20
368.737684
11
460.075960
21
370.483190
0
LINE
8
Calque 1
10
460.075960
20
370.483190
11
458.282440
21
372.517524
0
LINE
8
Calque 1
10
458.282440
20
372.517524
11
456.838390
21
374.588030
0
LINE
8
Calque 1
10
456.838390
20
374.588030
11
455.780663
21
376.652643
0
LINE
8
Calque 1
10
455.780663
20
376.652643
11
454.958210
21
378.677190
0
LINE
8
Calque 1
10
454.958210
20
378.677190
11
453.993660
21
382.503780
0
LINE
8
Calque 1
10
453.993660
20
382.503780
11
453.810645
21
384.636810
0
LINE
8
Calque 1
10
453.810645
20
384.636810
11
453.835500
21
387.266280
0
LINE
8
Calque 1
10
453.835500
20
387.266280
11
454.070778
21
389.803280
0
LINE
8
Calque 1
10
454.070778
20
389.803280
11
454.423730
21
391.785700
0
LINE
8
Calque 1
10
454.423730
20
391.785700
11
455.722360
21
395.225290
0
LINE
8
Calque 1
10
455.722360
20
395.225290
11
456.706529
21
397.028883
0
LINE
8
Calque 1
10
456.706529
20
397.028883
11
457.862410
21
398.764390
0
LINE
8
Calque 1
10
457.862410
20
398.764390
11
459.271271
21
400.373353
0
LINE
8
Calque 1
10
459.271271
20
400.373353
11
460.863680
21
401.872710
0
LINE
8
Calque 1
10
460.863680
20
401.872710
11
462.768304
21
403.231679
0
LINE
8
Calque 1
10
462.768304
20
403.231679
11
464.927800
21
404.503100
0
LINE
8
Calque 1
10
464.927800
20
404.503100
11
467.335128
21
405.554680
0
LINE
8
Calque 1
10
467.335128
20
405.554680
11
469.837900
21
406.379580
0
LINE
8
Calque 1
10
469.837900
20
406.379580
11
472.597173
21
406.921011
0
LINE
8
Calque 1
10
472.597173
20
406.921011
11
475.978870
21
407.050160
0
LINE
8
Calque 1
10
475.978870
20
407.050160
11
479.250678
21
406.937251
0
LINE
8
Calque 1
10
479.250678
20
406.937251
11
481.667410
21
406.494440
0
LINE
8
Calque 1
10
481.667410
20
406.494440
11
483.806626
21
405.791703
0
LINE
8
Calque 1
10
483.806626
20
405.791703
11
485.977500
21
404.886990
0
LINE
8
Calque 1
10
485.977500
20
404.886990
11
489.599900
21
402.889950
0
LINE
8
Calque 1
10
489.599900
20
402.889950
11
492.884930
21
400.223030
0
LINE
8
Calque 1
10
492.884930
20
400.223030
11
496.090020
21
396.809240
0
LINE
8
Calque 1
10
496.090020
20
396.809240
11
499.008310
21
392.540090
0
LINE
8
Calque 1
10
499.008310
20
392.540090
11
500.477355
21
389.862623
0
LINE
8
Calque 1
10
500.477355
20
389.862623
11
501.805700
21
387.039550
0
LINE
8
Calque 1
10
501.805700
20
387.039550
11
503.147420
21
383.915320
0
LINE
8
Calque 1
10
503.147420
20
383.915320
11
503.456391
21
383.894170
0
LINE
8
Calque 1
10
503.456391
20
383.894170
11
504.039720
21
384.120550
0
LINE
8
Calque 1
10
504.039720
20
384.120550
11
504.589698
21
384.512022
0
LINE
8
Calque 1
10
504.589698
20
384.512022
11
504.818450
21
384.887730
0
LINE
8
Calque 1
10
504.818450
20
384.887730
11
503.905480
21
387.875110
0
LINE
8
Calque 1
10
503.905480
20
387.875110
11
500.185840
21
397.455340
0
LINE
8
Calque 1
10
500.185840
20
397.455340
11
496.461300
21
406.948330
0
LINE
8
Calque 1
10
496.461300
20
406.948330
11
494.770230
21
412.144220
0
LINE
8
Calque 1
10
494.770230
20
412.144220
11
493.266320
21
418.244040
0
LINE
8
Calque 1
10
493.266320
20
418.244040
11
492.862827
21
420.303672
0
LINE
8
Calque 1
10
492.862827
20
420.303672
11
492.643145
21
422.154165
0
LINE
8
Calque 1
10
492.643145
20
422.154165
11
492.530510
21
428.298240
0
LINE
8
Calque 1
10
492.530510
20
428.298240
11
492.632833
21
434.436275
0
LINE
8
Calque 1
10
492.632833
20
434.436275
11
492.849495
21
436.263828
0
LINE
8
Calque 1
10
492.849495
20
436.263828
11
493.250390
21
438.290650
0
LINE
8
Calque 1
10
493.250390
20
438.290650
11
494.797810
21
444.243770
0
LINE
8
Calque 1
10
494.797810
20
444.243770
11
496.667370
21
449.464910
0
LINE
8
Calque 1
10
496.667370
20
449.464910
11
499.660460
21
456.079490
0
LINE
8
Calque 1
10
499.660460
20
456.079490
11
503.505160
21
463.355530
0
LINE
8
Calque 1
10
503.505160
20
463.355530
11
508.747000
21
471.689910
0
LINE
8
Calque 1
10
508.747000
20
471.689910
11
512.280280
21
476.980290
0
LINE
8
Calque 1
10
512.280280
20
476.980290
11
512.528808
21
477.026203
0
LINE
8
Calque 1
10
512.528808
20
477.026203
11
512.872960
21
476.715700
0
LINE
8
Calque 1
10
512.872960
20
476.715700
11
515.625910
21
472.748240
0
LINE
8
Calque 1
10
515.625910
20
472.748240
11
520.019130
21
465.890330
0
LINE
8
Calque 1
10
520.019130
20
465.890330
11
524.010610
21
458.746580
0
LINE
8
Calque 1
10
524.010610
20
458.746580
11
527.184570
21
452.254810
0
LINE
8
Calque 1
10
527.184570
20
452.254810
11
529.722200
21
445.640220
0
LINE
8
Calque 1
10
529.722200
20
445.640220
11
530.836171
21
441.989754
0
LINE
8
Calque 1
10
530.836171
20
441.989754
11
531.671480
21
438.616990
0
LINE
8
Calque 1
10
531.671480
20
438.616990
11
532.608140
21
432.134700
0
LINE
8
Calque 1
10
532.608140
20
432.134700
11
532.768858
21
429.020890
0
LINE
8
Calque 1
10
532.768858
20
429.020890
11
532.732250
21
426.181580
0
LINE
8
Calque 1
10
532.732250
20
426.181580
11
532.174690
21
420.889910
0
LINE
8
Calque 1
10
532.174690
20
420.889910
11
531.153350
21
415.574900
0
LINE
8
Calque 1
10
531.153350
20
415.574900
11
529.538980
21
409.890070
0
LINE
8
Calque 1
10
529.538980
20
409.890070
11
525.402700
21
398.939070
0
LINE
8
Calque 1
10
525.402700
20
398.939070
11
521.202800
21
387.991870
0
LINE
8
Calque 1
10
521.202800
20
387.991870
11
520.164290
21
384.801930
0
LINE
8
Calque 1
10
520.164290
20
384.801930
11
520.976350
21
384.144100
0
LINE
8
Calque 1
10
520.976350
20
384.144100
11
521.853950
21
383.756330
0
LINE
8
Calque 1
10
521.853950
20
383.756330
11
523.046700
21
386.626380
0
LINE
8
Calque 1
10
523.046700
20
386.626380
11
525.379380
21
391.521170
0
LINE
8
Calque 1
10
525.379380
20
391.521170
11
527.790360
21
395.357630
0
LINE
8
Calque 1
10
527.790360
20
395.357630
11
529.190495
21
397.142521
0
LINE
8
Calque 1
10
529.190495
20
397.142521
11
530.863930
21
399.018830
0
LINE
8
Calque 1
10
530.863930
20
399.018830
11
532.688441
21
400.764699
0
LINE
8
Calque 1
10
532.688441
20
400.764699
11
534.451790
21
402.235970
0
LINE
8
Calque 1
10
534.451790
20
402.235970
11
536.297261
21
403.451756
0
LINE
8
Calque 1
10
536.297261
20
403.451756
11
538.319230
21
404.583370
0
LINE
8
Calque 1
10
538.319230
20
404.583370
11
540.409828
21
405.499769
0
LINE
8
Calque 1
10
540.409828
20
405.499769
11
542.420280
21
406.198120
0
LINE
8
Calque 1
10
542.420280
20
406.198120
11
546.688760
21
407.005120
0
LINE
8
Calque 1
10
546.688760
20
407.005120
11
549.036328
21
407.136299
0
LINE
8
Calque 1
10
549.036328
20
407.136299
11
551.451260
21
406.991920
0
LINE
8
Calque 1
10
551.451260
20
406.991920
11
555.486160
21
406.313390
0
LINE
8
Calque 1
10
555.486160
20
406.313390
11
557.384541
21
405.651531
0
LINE
8
Calque 1
10
557.384541
20
405.651531
11
559.719490
21
404.623890
0
LINE
8
Calque 1
10
559.719490
20
404.623890
11
562.052558
21
403.337125
0
LINE
8
Calque 1
10
562.052558
20
403.337125
11
563.946410
21
402.052280
0
LINE
8
Calque 1
10
563.946410
20
402.052280
11
565.438798
21
400.681370
0
LINE
8
Calque 1
10
565.438798
20
400.681370
11
566.806610
21
399.187700
0
LINE
8
Calque 1
10
566.806610
20
399.187700
11
568.016635
21
397.449285
0
LINE
8
Calque 1
10
568.016635
20
397.449285
11
569.129670
21
395.489950
0
LINE
8
Calque 1
10
569.129670
20
395.489950
11
570.028020
21
393.373280
0
LINE
8
Calque 1
10
570.028020
20
393.373280
11
570.721890
21
391.256610
0
LINE
8
Calque 1
10
570.721890
20
391.256610
11
571.146119
21
388.930065
0
LINE
8
Calque 1
10
571.146119
20
388.930065
11
571.271150
21
386.097240
0
LINE
8
Calque 1
10
571.271150
20
386.097240
11
571.136643
21
383.159374
0
LINE
8
Calque 1
10
571.136643
20
383.159374
11
570.615840
21
380.520360
0
LINE
8
Calque 1
10
570.615840
20
380.520360
11
569.902124
21
378.231476
0
LINE
8
Calque 1
10
569.902124
20
378.231476
11
569.107790
21
376.287030
0
LINE
8
Calque 1
10
569.107790
20
376.287030
11
567.120340
21
373.000360
0
LINE
8
Calque 1
10
567.120340
20
373.000360
11
564.704140
21
370.181640
0
LINE
8
Calque 1
10
564.704140
20
370.181640
11
561.881070
21
367.882390
0
LINE
8
Calque 1
10
561.881070
20
367.882390
11
560.218169
21
366.889365
0
LINE
8
Calque 1
10
560.218169
20
366.889365
11
558.386330
21
366.001670
0
LINE
8
Calque 1
10
558.386330
20
366.001670
11
556.233433
21
365.295608
0
LINE
8
Calque 1
10
556.233433
20
365.295608
11
553.798610
21
364.739260
0
LINE
8
Calque 1
10
553.798610
20
364.739260
11
551.138085
21
364.424573
0
LINE
8
Calque 1
10
551.138085
20
364.424573
11
548.387110
21
364.599710
0
LINE
8
Calque 1
10
548.387110
20
364.599710
11
546.176624
21
364.920803
0
LINE
8
Calque 1
10
546.176624
20
364.920803
11
544.760140
21
365.257180
0
LINE
8
Calque 1
10
544.760140
20
365.257180
11
543.909080
21
365.604450
0
LINE
8
Calque 1
10
543.909080
20
365.604450
11
545.454220
21
366.630360
0
LINE
8
Calque 1
10
545.454220
20
366.630360
11
546.912911
21
367.732154
0
LINE
8
Calque 1
10
546.912911
20
367.732154
11
548.250230
21
368.940500
0
LINE
8
Calque 1
10
548.250230
20
368.940500
11
549.390943
21
370.370101
0
LINE
8
Calque 1
10
549.390943
20
370.370101
11
550.376960
21
372.003860
0
LINE
8
Calque 1
10
550.376960
20
372.003860
11
551.113067
21
373.879684
0
LINE
8
Calque 1
10
551.113067
20
373.879684
11
551.250390
21
376.169800
0
LINE
8
Calque 1
10
551.250390
20
376.169800
11
551.125296
21
378.373669
0
LINE
8
Calque 1
10
551.125296
20
378.373669
11
550.543340
21
379.896320
0
LINE
8
Calque 1
10
550.543340
20
379.896320
11
549.718864
21
381.137769
0
LINE
8
Calque 1
10
549.718864
20
381.137769
11
548.726080
21
382.241240
0
LINE
8
Calque 1
10
548.726080
20
382.241240
11
547.582266
21
383.109528
0
LINE
8
Calque 1
10
547.582266
20
383.109528
11
546.394690
21
383.785560
0
LINE
8
Calque 1
10
546.394690
20
383.785560
11
545.025744
21
384.202666
0
LINE
8
Calque 1
10
545.025744
20
384.202666
11
543.445890
21
384.448450
0
LINE
8
Calque 1
10
543.445890
20
384.448450
11
541.777935
21
384.443263
0
LINE
8
Calque 1
10
541.777935
20
384.443263
11
540.197160
21
384.256950
0
LINE
8
Calque 1
10
540.197160
20
384.256950
11
538.586070
21
383.764881
0
LINE
8
Calque 1
10
538.586070
20
383.764881
11
536.845230
21
383.024540
0
LINE
8
Calque 1
10
536.845230
20
383.024540
11
534.977429
21
381.854288
0
LINE
8
Calque 1
10
534.977429
20
381.854288
11
533.054360
21
380.279200
0
LINE
8
Calque 1
10
533.054360
20
380.279200
11
531.264886
21
378.399429
0
LINE
8
Calque 1
10
531.264886
20
378.399429
11
529.711550
21
376.447260
0
LINE
8
Calque 1
10
529.711550
20
376.447260
11
528.467116
21
374.456073
0
LINE
8
Calque 1
10
528.467116
20
374.456073
11
527.420330
21
372.482510
0
LINE
8
Calque 1
10
527.420330
20
372.482510
11
526.780440
21
370.937016
0
LINE
8
Calque 1
10
526.780440
20
370.937016
11
526.514290
21
369.975000
0
LINE
8
Calque 1
10
526.514290
20
369.975000
11
526.567016
21
369.677202
0
LINE
8
Calque 1
10
526.567016
20
369.677202
11
526.819481
21
369.512940
0
LINE
8
Calque 1
10
526.819481
20
369.512940
11
528.489350
21
369.428490
0
LINE
8
Calque 1
10
528.489350
20
369.428490
11
530.157078
21
369.336019
0
LINE
8
Calque 1
10
530.157078
20
369.336019
11
530.525029
21
369.180525
0
LINE
8
Calque 1
10
530.525029
20
369.180525
11
530.738310
21
368.916720
0
LINE
8
Calque 1
10
530.738310
20
368.916720
11
530.931745
21
367.816224
0
LINE
8
Calque 1
10
530.931745
20
367.816224
11
531.012200
21
365.889010
0
LINE
8
Calque 1
10
531.012200
20
365.889010
11
530.919758
21
363.703815
0
LINE
8
Calque 1
10
530.919758
20
363.703815
11
530.742816
21
363.254083
0
LINE
8
Calque 1
10
530.742816
20
363.254083
11
530.424160
21
362.961200
0
LINE
8
Calque 1
10
530.424160
20
362.961200
11
529.540048
21
362.652941
0
LINE
8
Calque 1
10
529.540048
20
362.652941
11
528.071220
21
362.549320
0
LINE
8
Calque 1
10
528.071220
20
362.549320
11
526.643076
21
362.461456
0
LINE
8
Calque 1
10
526.643076
20
362.461456
11
526.306996
21
362.332767
0
LINE
8
Calque 1
10
526.306996
20
362.332767
11
526.145720
21
362.130810
0
LINE
8
Calque 1
10
526.145720
20
362.130810
11
525.985120
21
361.473020
0
LINE
8
Calque 1
10
525.985120
20
361.473020
11
528.429363
21
361.282282
0
LINE
8
Calque 1
10
528.429363
20
361.282282
11
534.517930
21
361.163920
0
LINE
8
Calque 1
10
534.517930
20
361.163920
11
543.050740
21
361.094120
0
LINE
8
Calque 1
10
543.050740
20
361.094120
11
543.050000
21
355.803000
0
LINE
8
Calque 1
10
543.050000
20
355.803000
11
543.050000
21
350.511000
0
LINE
8
Calque 1
10
543.050000
20
350.511000
11
532.770900
21
350.441700
0
LINE
8
Calque 1
10
532.770900
20
350.441700
11
522.491800
21
350.372400
0
LINE
8
Calque 1
10
522.491800
20
350.372400
11
522.683260
21
348.457300
0
LINE
8
Calque 1
10
522.683260
20
348.457300
11
523.233110
21
345.162710
0
LINE
8
Calque 1
10
523.233110
20
345.162710
11
524.185880
21
342.516880
0
LINE
8
Calque 1
10
524.185880
20
342.516880
11
524.937386
21
341.299716
0
LINE
8
Calque 1
10
524.937386
20
341.299716
11
525.909520
21
340.151620
0
LINE
8
Calque 1
10
525.909520
20
340.151620
11
527.070888
21
339.249310
0
LINE
8
Calque 1
10
527.070888
20
339.249310
11
528.278530
21
338.630260
0
LINE
8
Calque 1
10
528.278530
20
338.630260
11
529.431732
21
338.333622
0
LINE
8
Calque 1
10
529.431732
20
338.333622
11
530.463360
21
338.213640
0
LINE
8
Calque 1
10
530.463360
20
338.213640
11
531.441693
21
338.361606
0
LINE
8
Calque 1
10
531.441693
20
338.361606
11
532.466750
21
338.709440
0
LINE
8
Calque 1
10
532.466750
20
338.709440
11
533.422986
21
339.279034
0
LINE
8
Calque 1
10
533.422986
20
339.279034
11
534.235860
21
339.960400
0
LINE
8
Calque 1
10
534.235860
20
339.960400
11
535.228040
21
341.466200
0
LINE
8
Calque 1
10
535.228040
20
341.466200
11
535.509460
21
343.367200
0
LINE
8
Calque 1
10
535.509460
20
343.367200
11
535.237470
21
345.238750
0
LINE
8
Calque 1
10
535.237470
20
345.238750
11
535.108500
21
346.097140
0
LINE
8
Calque 1
10
535.108500
20
346.097140
11
536.197060
21
345.789270
0
LINE
8
Calque 1
10
536.197060
20
345.789270
11
537.272400
21
345.085373
0
LINE
8
Calque 1
10
537.272400
20
345.085373
11
538.530020
21
344.026200
0
LINE
8
Calque 1
10
538.530020
20
344.026200
11
539.736838
21
342.651360
0
LINE
8
Calque 1
10
539.736838
20
342.651360
11
540.690020
21
341.188530
0
LINE
8
Calque 1
10
540.690020
20
341.188530
11
541.106259
21
340.290582
0
LINE
8
Calque 1
10
541.106259
20
340.290582
11
541.338985
21
339.483805
0
LINE
8
Calque 1
10
541.338985
20
339.483805
11
541.462530
21
337.017200
0
LINE
8
Calque 1
10
541.462530
20
337.017200
11
541.340984
21
334.564763
0
LINE
8
Calque 1
10
541.340984
20
334.564763
11
541.120627
21
333.758117
0
LINE
8
Calque 1
10
541.120627
20
333.758117
11
540.733010
21
332.886580
0
LINE
8
Calque 1
10
540.733010
20
332.886580
11
539.794733
21
331.433840
0
LINE
8
Calque 1
10
539.794733
20
331.433840
11
538.550950
21
330.027990
0
LINE
8
Calque 1
10
538.550950
20
330.027990
11
537.077950
21
328.848215
0
LINE
8
Calque 1
10
537.077950
20
328.848215
11
535.576300
21
327.940900
0
LINE
8
Calque 1
10
535.576300
20
327.940900
11
534.675077
21
327.559794
0
LINE
8
Calque 1
10
534.675077
20
327.559794
11
533.826614
21
327.344563
0
LINE
8
Calque 1
10
533.826614
20
327.344563
11
531.143830
21
327.227610
0
LINE
8
Calque 1
10
531.143830
20
327.227610
11
528.345315
21
327.363964
0
LINE
8
Calque 1
10
528.345315
20
327.363964
11
527.382103
21
327.661816
0
LINE
8
Calque 1
10
527.382103
20
327.661816
11
526.142300
21
328.226040
0
LINE
8
Calque 1
10
526.142300
20
328.226040
11
524.127513
21
329.397275
0
LINE
8
Calque 1
10
524.127513
20
329.397275
11
522.305160
21
331.004170
0
LINE
8
Calque 1
10
522.305160
20
331.004170
11
520.706014
21
332.895728
0
LINE
8
Calque 1
10
520.706014
20
332.895728
11
519.429240
21
335.032820
0
LINE
8
Calque 1
10
519.429240
20
335.032820
11
518.439124
21
337.387386
0
LINE
8
Calque 1
10
518.439124
20
337.387386
11
517.645290
21
339.890250
0
LINE
8
Calque 1
10
517.645290
20
339.890250
11
517.105094
21
342.753038
0
LINE
8
Calque 1
10
517.105094
20
342.753038
11
516.725990
21
345.975660
0
LINE
8
Calque 1
10
516.725990
20
345.975660
11
516.460100
21
349.915630
0
LINE
8
Calque 1
10
516.460100
20
349.915630
11
516.279974
21
350.273868
0
LINE
8
Calque 1
10
516.279974
20
350.273868
11
515.665710
21
350.378650
0
LINE
8
Calque 1
10
515.665710
20
350.378650
11
514.872000
21
350.379000
0
LINE
8
Calque 1
10
514.872000
20
350.379000
11
514.872790
21
347.799320
0
LINE
8
Calque 1
10
514.872790
20
347.799320
11
515.164200
21
342.838380
0
LINE
8
Calque 1
10
515.164200
20
342.838380
11
516.082120
21
337.943590
0
LINE
8
Calque 1
10
516.082120
20
337.943590
11
516.891169
21
335.430050
0
LINE
8
Calque 1
10
516.891169
20
335.430050
11
517.963220
21
332.916510
0
LINE
8
Calque 1
10
517.963220
20
332.916510
11
519.444929
21
330.407073
0
LINE
8
Calque 1
10
519.444929
20
330.407073
11
521.695080
21
327.911510
0
LINE
8
Calque 1
10
521.695080
20
327.911510
11
524.173100
21
325.420050
0
LINE
8
Calque 1
10
524.173100
20
325.420050
11
523.872600
21
324.207340
0
LINE
8
Calque 1
10
523.872600
20
324.207340
11
522.362960
21
319.951920
0
LINE
8
Calque 1
10
522.362960
20
319.951920
11
519.704210
21
313.998800
0
LINE
8
Calque 1
10
519.704210
20
313.998800
11
517.313960
21
309.500880
0
LINE
8
Calque 1
10
517.313960
20
309.500880
11
514.535620
21
305.069110
0
LINE
8
Calque 1
10
514.535620
20
305.069110
11
512.525690
21
302.224840
0
LINE
8
Calque 1
10
512.525690
20
302.224840
11
510.477240
21
305.069110
0
LINE
8
Calque 1
10
510.477240
20
305.069110
11
510.477000
21
305.069000
0
LINE
8
Calque 1
10
512.073160
20
353.646600
11
512.329277
21
354.497631
0
LINE
8
Calque 1
10
512.329277
20
354.497631
11
512.602330
21
354.796970
0
LINE
8
Calque 1
10
512.602330
20
354.796970
11
512.842549
21
354.387218
0
LINE
8
Calque 1
10
512.842549
20
354.387218
11
513.019730
21
353.533360
0
LINE
8
Calque 1
10
513.019730
20
353.533360
11
513.235255
21
352.564867
0
LINE
8
Calque 1
10
513.235255
20
352.564867
11
513.447337
21
352.431265
0
LINE
8
Calque 1
10
513.447337
20
352.431265
11
513.797130
21
352.435130
0
LINE
8
Calque 1
10
513.797130
20
352.435130
11
514.579840
21
352.644570
0
LINE
8
Calque 1
10
514.579840
20
352.644570
11
514.728470
21
354.004740
0
LINE
8
Calque 1
10
514.728470
20
354.004740
11
514.824065
21
354.897789
0
LINE
8
Calque 1
10
514.824065
20
354.897789
11
515.038490
21
355.328110
0
LINE
8
Calque 1
10
515.038490
20
355.328110
11
515.304588
21
355.068154
0
LINE
8
Calque 1
10
515.304588
20
355.068154
11
515.517720
21
354.226820
0
LINE
8
Calque 1
10
515.517720
20
354.226820
11
515.709362
21
353.377853
0
LINE
8
Calque 1
10
515.709362
20
353.377853
11
515.917040
21
353.024740
0
LINE
8
Calque 1
10
515.917040
20
353.024740
11
516.716440
21
353.494670
0
LINE
8
Calque 1
10
516.716440
20
353.494670
11
517.028534
21
353.801398
0
LINE
8
Calque 1
10
517.028534
20
353.801398
11
517.179009
21
354.184785
0
LINE
8
Calque 1
10
517.179009
20
354.184785
11
517.108950
21
355.870720
0
LINE
8
Calque 1
10
517.108950
20
355.870720
11
516.908473
21
357.175001
0
LINE
8
Calque 1
10
516.908473
20
357.175001
11
516.690220
21
357.634130
0
LINE
8
Calque 1
10
516.690220
20
357.634130
11
516.527140
21
357.676094
0
LINE
8
Calque 1
10
516.527140
20
357.676094
11
516.459310
21
357.977340
0
LINE
8
Calque 1
10
516.459310
20
357.977340
11
516.882880
21
359.067980
0
LINE
8
Calque 1
10
516.882880
20
359.067980
11
517.364634
21
359.564503
0
LINE
8
Calque 1
10
517.364634
20
359.564503
11
517.928070
21
359.909060
0
LINE
8
Calque 1
10
517.928070
20
359.909060
11
518.747623
21
359.992499
0
LINE
8
Calque 1
10
518.747623
20
359.992499
11
519.946240
21
359.783130
0
LINE
8
Calque 1
10
519.946240
20
359.783130
11
521.090565
21
359.579352
0
LINE
8
Calque 1
10
521.090565
20
359.579352
11
521.785610
21
359.657860
0
LINE
8
Calque 1
10
521.785610
20
359.657860
11
523.144120
21
361.156150
0
LINE
8
Calque 1
10
523.144120
20
361.156150
11
524.350060
21
362.975650
0
LINE
8
Calque 1
10
524.350060
20
362.975650
11
524.459270
21
363.596191
0
LINE
8
Calque 1
10
524.459270
20
363.596191
11
523.989390
21
364.416120
0
LINE
8
Calque 1
10
523.989390
20
364.416120
11
523.479611
21
365.400314
0
LINE
8
Calque 1
10
523.479611
20
365.400314
11
523.338480
21
366.650780
0
LINE
8
Calque 1
10
523.338480
20
366.650780
11
523.198968
21
367.896001
0
LINE
8
Calque 1
10
523.198968
20
367.896001
11
522.701660
21
368.866340
0
LINE
8
Calque 1
10
522.701660
20
368.866340
11
521.735860
21
370.523730
0
LINE
8
Calque 1
10
521.735860
20
370.523730
11
521.539449
21
371.619770
0
LINE
8
Calque 1
10
521.539449
20
371.619770
11
521.737860
21
373.614580
0
LINE
8
Calque 1
10
521.737860
20
373.614580
11
522.188730
21
376.300650
0
LINE
8
Calque 1
10
522.188730
20
376.300650
11
522.330131
21
376.557825
0
LINE
8
Calque 1
10
522.330131
20
376.557825
11
522.554970
21
376.300650
0
LINE
8
Calque 1
10
522.554970
20
376.300650
11
522.730399
21
375.326105
0
LINE
8
Calque 1
10
522.730399
20
375.326105
11
522.806310
21
373.529950
0
LINE
8
Calque 1
10
522.806310
20
373.529950
11
522.918445
21
371.426529
0
LINE
8
Calque 1
10
522.918445
20
371.426529
11
523.377620
21
370.222650
0
LINE
8
Calque 1
10
523.377620
20
370.222650
11
523.943880
21
369.296610
0
LINE
8
Calque 1
10
523.943880
20
369.296610
11
524.346440
21
370.354950
0
LINE
8
Calque 1
10
524.346440
20
370.354950
11
524.647281
21
371.802605
0
LINE
8
Calque 1
10
524.647281
20
371.802605
11
524.771370
21
373.926820
0
LINE
8
Calque 1
10
524.771370
20
373.926820
11
524.664645
21
376.290724
0
LINE
8
Calque 1
10
524.664645
20
376.290724
11
524.017170
21
378.027860
0
LINE
8
Calque 1
10
524.017170
20
378.027860
11
523.071340
21
379.537640
0
LINE
8
Calque 1
10
523.071340
20
379.537640
11
521.887850
21
380.938280
0
LINE
8
Calque 1
10
521.887850
20
380.938280
11
520.482959
21
382.091826
0
LINE
8
Calque 1
10
520.482959
20
382.091826
11
519.004800
21
383.007540
0
LINE
8
Calque 1
10
519.004800
20
383.007540
11
517.366869
21
383.653441
0
LINE
8
Calque 1
10
517.366869
20
383.653441
11
515.577850
21
384.158290
0
LINE
8
Calque 1
10
515.577850
20
384.158290
11
513.594556
21
384.427542
0
LINE
8
Calque 1
10
513.594556
20
384.427542
11
511.432290
21
384.417780
0
LINE
8
Calque 1
10
511.432290
20
384.417780
11
509.356094
21
384.148141
0
LINE
8
Calque 1
10
509.356094
20
384.148141
11
507.522500
21
383.703340
0
LINE
8
Calque 1
10
507.522500
20
383.703340
11
505.893109
21
382.965106
0
LINE
8
Calque 1
10
505.893109
20
382.965106
11
504.307870
21
381.989970
0
LINE
8
Calque 1
10
504.307870
20
381.989970
11
502.966400
21
380.827340
0
LINE
8
Calque 1
10
502.966400
20
380.827340
11
501.923100
21
379.638340
0
LINE
8
Calque 1
10
501.923100
20
379.638340
11
500.679490
21
377.303160
0
LINE
8
Calque 1
10
500.679490
20
377.303160
11
500.380370
21
375.898530
0
LINE
8
Calque 1
10
500.380370
20
375.898530
11
500.259270
21
374.059110
0
LINE
8
Calque 1
10
500.259270
20
374.059110
11
500.344698
21
372.233902
0
LINE
8
Calque 1
10
500.344698
20
372.233902
11
500.560520
21
370.817970
0
LINE
8
Calque 1
10
500.560520
20
370.817970
11
500.851568
21
370.023804
0
LINE
8
Calque 1
10
500.851568
20
370.023804
11
501.117640
21
369.693490
0
LINE
8
Calque 1
10
501.117640
20
369.693490
11
501.835050
21
370.409890
0
LINE
8
Calque 1
10
501.835050
20
370.409890
11
502.190325
21
371.374208
0
LINE
8
Calque 1
10
502.190325
20
371.374208
11
502.246650
21
372.989570
0
LINE
8
Calque 1
10
502.246650
20
372.989570
11
502.324750
21
375.712760
0
LINE
8
Calque 1
10
502.324750
20
375.712760
11
502.483680
21
376.320058
0
LINE
8
Calque 1
10
502.483680
20
376.320058
11
502.675310
21
376.572650
0
LINE
8
Calque 1
10
502.675310
20
376.572650
11
502.892548
21
376.086892
0
LINE
8
Calque 1
10
502.892548
20
376.086892
11
503.113070
21
374.919010
0
LINE
8
Calque 1
10
503.113070
20
374.919010
11
503.349200
21
371.805750
0
LINE
8
Calque 1
10
503.349200
20
371.805750
11
503.198885
21
370.376463
0
LINE
8
Calque 1
10
503.198885
20
370.376463
11
502.502570
21
369.048410
0
LINE
8
Calque 1
10
502.502570
20
369.048410
11
501.823745
21
367.762444
0
LINE
8
Calque 1
10
501.823745
20
367.762444
11
501.642680
21
366.508810
0
LINE
8
Calque 1
10
501.642680
20
366.508810
11
501.512518
21
365.406929
0
LINE
8
Calque 1
10
501.512518
20
365.406929
11
501.113510
21
364.594210
0
LINE
8
Calque 1
10
501.113510
20
364.594210
11
500.739785
21
363.945056
0
LINE
8
Calque 1
10
500.739785
20
363.945056
11
500.584340
21
363.329000
0
LINE
8
Calque 1
10
500.584340
20
363.329000
11
500.869193
21
362.552817
0
LINE
8
Calque 1
10
500.869193
20
362.552817
11
501.554050
21
361.518650
0
LINE
8
Calque 1
10
501.554050
20
361.518650
11
502.935380
21
359.964310
0
LINE
8
Calque 1
10
502.935380
20
359.964310
11
503.690869
21
359.745150
0
LINE
8
Calque 1
10
503.690869
20
359.745150
11
505.250530
21
359.800340
0
LINE
8
Calque 1
10
505.250530
20
359.800340
11
506.977976
21
359.849191
0
LINE
8
Calque 1
10
506.977976
20
359.849191
11
507.413906
21
359.665457
0
LINE
8
Calque 1
10
507.413906
20
359.665457
11
507.837950
21
359.288930
0
LINE
8
Calque 1
10
507.837950
20
359.288930
11
508.320948
21
358.642371
0
LINE
8
Calque 1
10
508.320948
20
358.642371
11
508.521840
21
358.048230
0
LINE
8
Calque 1
10
508.521840
20
358.048230
11
508.454440
21
357.696645
0
LINE
8
Calque 1
10
508.454440
20
357.696645
11
508.292390
21
357.633240
0
LINE
8
Calque 1
10
508.292390
20
357.633240
11
508.081155
21
357.374590
0
LINE
8
Calque 1
10
508.081155
20
357.374590
11
507.895510
21
356.553590
0
LINE
8
Calque 1
10
507.895510
20
356.553590
11
507.728090
21
354.581410
0
LINE
8
Calque 1
10
507.728090
20
354.581410
11
507.891909
21
353.906979
0
LINE
8
Calque 1
10
507.891909
20
353.906979
11
508.397810
21
353.391870
0
LINE
8
Calque 1
10
508.397810
20
353.391870
11
508.919325
21
353.130487
0
LINE
8
Calque 1
10
508.919325
20
353.130487
11
509.232730
21
353.118270
0
LINE
8
Calque 1
10
509.232730
20
353.118270
11
509.559690
21
354.278590
0
LINE
8
Calque 1
10
509.559690
20
354.278590
11
509.750346
21
354.962972
0
LINE
8
Calque 1
10
509.750346
20
354.962972
11
509.981540
21
355.211020
0
LINE
8
Calque 1
10
509.981540
20
355.211020
11
510.188551
21
354.782071
0
LINE
8
Calque 1
10
510.188551
20
354.782071
11
510.321020
21
353.838810
0
LINE
8
Calque 1
10
510.321020
20
353.838810
11
510.483046
21
352.795392
0
LINE
8
Calque 1
10
510.483046
20
352.795392
11
510.850190
21
352.412470
0
LINE
8
Calque 1
10
510.850190
20
352.412470
11
511.564550
21
352.349170
0
LINE
8
Calque 1
10
511.564550
20
352.349170
11
511.823104
21
352.752349
0
LINE
8
Calque 1
10
511.823104
20
352.752349
11
512.073190
21
353.646590
0
LINE
8
Calque 1
10
512.073190
20
353.646590
11
512.073160
21
353.646600
0
LINE
8
Calque 1
10
510.691390
20
358.104740
11
510.467221
21
358.527163
0
LINE
8
Calque 1
10
510.467221
20
358.527163
11
510.374100
21
359.096930
0
LINE
8
Calque 1
10
510.374100
20
359.096930
11
510.599626
21
360.049818
0
LINE
8
Calque 1
10
510.599626
20
360.049818
11
511.141540
21
361.393380
0
LINE
8
Calque 1
10
511.141540
20
361.393380
11
512.216340
21
363.205240
0
LINE
8
Calque 1
10
512.216340
20
363.205240
11
512.574653
21
363.211621
0
LINE
8
Calque 1
10
512.574653
20
363.211621
11
513.004230
21
362.960640
0
LINE
8
Calque 1
10
513.004230
20
362.960640
11
513.508354
21
362.222749
0
LINE
8
Calque 1
10
513.508354
20
362.222749
11
514.045890
21
361.059090
0
LINE
8
Calque 1
10
514.045890
20
361.059090
11
514.607230
21
358.963630
0
LINE
8
Calque 1
10
514.607230
20
358.963630
11
514.452045
21
358.428954
0
LINE
8
Calque 1
10
514.452045
20
358.428954
11
514.056050
21
358.040040
0
LINE
8
Calque 1
10
514.056050
20
358.040040
11
513.513715
21
357.896480
0
LINE
8
Calque 1
10
513.513715
20
357.896480
11
512.997720
21
358.204030
0
LINE
8
Calque 1
10
512.997720
20
358.204030
11
512.494074
21
358.527821
0
LINE
8
Calque 1
10
512.494074
20
358.527821
11
512.006710
21
358.225130
0
LINE
8
Calque 1
10
512.006710
20
358.225130
11
511.265870
21
357.787250
0
LINE
8
Calque 1
10
511.265870
20
357.787250
11
510.691390
21
358.104750
0
LINE
8
Calque 1
10
510.691390
20
358.104750
11
510.691390
21
358.104740
0
LINE
8
Calque 1
10
504.512940
20
362.518310
11
503.613263
21
363.188874
0
LINE
8
Calque 1
10
503.613263
20
363.188874
11
503.138220
21
363.730580
0
LINE
8
Calque 1
10
503.138220
20
363.730580
11
502.965560
21
365.746380
0
LINE
8
Calque 1
10
502.965560
20
365.746380
11
503.076414
21
367.095068
0
LINE
8
Calque 1
10
503.076414
20
367.095068
11
503.494730
21
367.841400
0
LINE
8
Calque 1
10
503.494730
20
367.841400
11
504.090663
21
368.215129
0
LINE
8
Calque 1
10
504.090663
20
368.215129
11
504.780360
21
368.370570
0
LINE
8
Calque 1
10
504.780360
20
368.370570
11
505.772460
21
368.127723
0
LINE
8
Calque 1
10
505.772460
20
368.127723
11
507.095460
21
367.543850
0
LINE
8
Calque 1
10
507.095460
20
367.543850
11
509.916090
21
366.052360
0
LINE
8
Calque 1
10
509.916090
20
366.052360
11
511.076154
21
365.544874
0
LINE
8
Calque 1
10
511.076154
20
365.544874
11
511.380923
21
365.608265
0
LINE
8
Calque 1
10
511.380923
20
365.608265
11
511.702030
21
365.861750
0
LINE
8
Calque 1
10
511.702030
20
365.861750
11
512.072069
21
366.296579
0
LINE
8
Calque 1
10
512.072069
20
366.296579
11
512.225980
21
366.676170
0
LINE
8
Calque 1
10
512.225980
20
366.676170
11
512.491050
21
367.180250
0
LINE
8
Calque 1
10
512.491050
20
367.180250
11
512.752121
21
367.101699
0
LINE
8
Calque 1
10
512.752121
20
367.101699
11
513.007560
21
366.682790
0
LINE
8
Calque 1
10
513.007560
20
366.682790
11
513.333652
21
366.136260
0
LINE
8
Calque 1
10
513.333652
20
366.136260
11
513.764610
21
365.750890
0
LINE
8
Calque 1
10
513.764610
20
365.750890
11
514.356294
21
365.643963
0
LINE
8
Calque 1
10
514.356294
20
365.643963
11
515.166340
21
365.952400
0
LINE
8
Calque 1
10
515.166340
20
365.952400
11
517.494280
21
367.331400
0
LINE
8
Calque 1
10
517.494280
20
367.331400
11
518.859763
21
368.035790
0
LINE
8
Calque 1
10
518.859763
20
368.035790
11
520.060740
21
368.238280
0
LINE
8
Calque 1
10
520.060740
20
368.238280
11
520.963098
21
368.137243
0
LINE
8
Calque 1
10
520.963098
20
368.137243
11
521.539310
21
367.894320
0
LINE
8
Calque 1
10
521.539310
20
367.894320
11
521.794289
21
367.123809
0
LINE
8
Calque 1
10
521.794289
20
367.123809
11
521.883270
21
365.557510
0
LINE
8
Calque 1
10
521.883270
20
365.557510
11
521.763213
21
363.736300
0
LINE
8
Calque 1
10
521.763213
20
363.736300
11
521.506932
21
363.270720
0
LINE
8
Calque 1
10
521.506932
20
363.270720
11
521.025410
21
362.798170
0
LINE
8
Calque 1
10
521.025410
20
362.798170
11
520.225475
21
362.208126
0
LINE
8
Calque 1
10
520.225475
20
362.208126
11
519.506870
21
361.865860
0
LINE
8
Calque 1
10
519.506870
20
361.865860
11
518.475951
21
361.858943
0
LINE
8
Calque 1
10
518.475951
20
361.858943
11
516.925140
21
362.075120
0
LINE
8
Calque 1
10
516.925140
20
362.075120
11
515.217329
21
362.536860
0
LINE
8
Calque 1
10
515.217329
20
362.536860
11
514.843650
21
362.872832
0
LINE
8
Calque 1
10
514.843650
20
362.872832
11
514.542560
21
363.418450
0
LINE
8
Calque 1
10
514.542560
20
363.418450
11
513.982995
21
364.223079
0
LINE
8
Calque 1
10
513.982995
20
364.223079
11
513.285790
21
364.797930
0
LINE
8
Calque 1
10
513.285790
20
364.797930
11
512.490945
21
365.076732
0
LINE
8
Calque 1
10
512.490945
20
365.076732
11
511.697720
21
364.798930
0
LINE
8
Calque 1
10
511.697720
20
364.798930
11
511.025126
21
364.243091
0
LINE
8
Calque 1
10
511.025126
20
364.243091
11
510.524530
21
363.478640
0
LINE
8
Calque 1
10
510.524530
20
363.478640
11
510.081958
21
362.774702
0
LINE
8
Calque 1
10
510.081958
20
362.774702
11
509.531430
21
362.428770
0
LINE
8
Calque 1
10
509.531430
20
362.428770
11
507.728060
21
362.028950
0
LINE
8
Calque 1
10
507.728060
20
362.028950
11
506.126210
21
361.762230
0
LINE
8
Calque 1
10
506.126210
20
361.762230
11
504.512940
21
362.518080
0
LINE
8
Calque 1
10
504.512940
20
362.518080
11
504.512940
21
362.518310
0
LINE
8
Calque 1
10
470.770540
20
325.315610
11
469.800481
21
325.996413
0
LINE
8
Calque 1
10
469.800481
20
325.996413
11
469.393500
21
326.434110
0
LINE
8
Calque 1
10
469.393500
20
326.434110
11
469.541376
21
326.596645
0
LINE
8
Calque 1
10
469.541376
20
326.596645
11
469.904960
21
326.615870
0
LINE
8
Calque 1
10
469.904960
20
326.615870
11
470.277283
21
326.757338
0
LINE
8
Calque 1
10
470.277283
20
326.757338
11
470.854045
21
327.370629
0
LINE
8
Calque 1
10
470.854045
20
327.370629
11
473.056410
21
330.557390
0
LINE
8
Calque 1
10
473.056410
20
330.557390
11
475.150106
21
333.929424
0
LINE
8
Calque 1
10
475.150106
20
333.929424
11
475.454661
21
334.678598
0
LINE
8
Calque 1
10
475.454661
20
334.678598
11
475.415910
21
335.094650
0
LINE
8
Calque 1
10
475.415910
20
335.094650
11
475.277930
21
335.744080
0
LINE
8
Calque 1
10
475.277930
20
335.744080
11
476.879360
21
334.993810
0
LINE
8
Calque 1
10
476.879360
20
334.993810
11
477.916159
21
334.271288
0
LINE
8
Calque 1
10
477.916159
20
334.271288
11
478.351780
21
333.779420
0
LINE
8
Calque 1
10
478.351780
20
333.779420
11
478.198666
21
333.566558
0
LINE
8
Calque 1
10
478.198666
20
333.566558
11
477.820170
21
333.514840
0
LINE
8
Calque 1
10
477.820170
20
333.514840
11
477.435832
21
333.364757
0
LINE
8
Calque 1
10
477.435832
20
333.364757
11
476.847909
21
332.745136
0
LINE
8
Calque 1
10
476.847909
20
332.745136
11
474.604180
21
329.531040
0
LINE
8
Calque 1
10
474.604180
20
329.531040
11
472.572892
21
326.294064
0
LINE
8
Calque 1
10
472.572892
20
326.294064
11
472.221295
21
325.525898
0
LINE
8
Calque 1
10
472.221295
20
325.525898
11
472.232870
21
325.178650
0
LINE
8
Calque 1
10
472.232870
20
325.178650
11
472.538450
21
324.661410
0
LINE
8
Calque 1
10
472.538450
20
324.661410
11
472.340010
21
324.455720
0
LINE
8
Calque 1
10
472.340010
20
324.455720
11
470.770540
21
325.315610
0
LINE
8
Calque 1
10
470.770540
20
325.315610
11
470.770540
21
325.315610
0
LINE
8
Calque 1
10
553.006840
20
326.562330
11
552.484429
21
327.313333
0
LINE
8
Calque 1
10
552.484429
20
327.313333
11
552.356570
21
327.715120
0
LINE
8
Calque 1
10
552.356570
20
327.715120
11
552.684146
21
327.709743
0
LINE
8
Calque 1
10
552.684146
20
327.709743
11
553.256740
21
327.481900
0
LINE
8
Calque 1
10
553.256740
20
327.481900
11
554.690430
21
327.095570
0
LINE
8
Calque 1
10
554.690430
20
327.095570
11
555.366124
21
327.286344
0
LINE
8
Calque 1
10
555.366124
20
327.286344
11
556.026480
21
327.745010
0
LINE
8
Calque 1
10
556.026480
20
327.745010
11
556.675910
21
328.635370
0
LINE
8
Calque 1
10
556.675910
20
328.635370
11
556.120540
21
329.582330
0
LINE
8
Calque 1
10
556.120540
20
329.582330
11
555.758060
21
329.979288
0
LINE
8
Calque 1
10
555.758060
20
329.979288
11
555.308366
21
330.183181
0
LINE
8
Calque 1
10
555.308366
20
330.183181
11
553.143980
21
330.230150
0
LINE
8
Calque 1
10
553.143980
20
330.230150
11
551.232865
21
330.272653
0
LINE
8
Calque 1
10
551.232865
20
330.272653
11
550.156020
21
330.479870
0
LINE
8
Calque 1
10
550.156020
20
330.479870
11
548.899240
21
331.607820
0
LINE
8
Calque 1
10
548.899240
20
331.607820
11
548.361045
21
332.503986
0
LINE
8
Calque 1
10
548.361045
20
332.503986
11
548.209250
21
333.593990
0
LINE
8
Calque 1
10
548.209250
20
333.593990
11
548.361261
21
334.680765
0
LINE
8
Calque 1
10
548.361261
20
334.680765
11
548.936850
21
335.546350
0
LINE
8
Calque 1
10
548.936850
20
335.546350
11
549.839327
21
336.304057
0
LINE
8
Calque 1
10
549.839327
20
336.304057
11
550.987370
21
337.021730
0
LINE
8
Calque 1
10
550.987370
20
337.021730
11
552.310290
21
337.710910
0
LINE
8
Calque 1
10
552.310290
20
337.710910
11
553.166250
21
336.702720
0
LINE
8
Calque 1
10
553.166250
20
336.702720
11
554.026140
21
335.363800
0
LINE
8
Calque 1
10
554.026140
20
335.363800
11
553.884060
21
335.033070
0
LINE
8
Calque 1
10
553.884060
20
335.033070
11
552.745890
21
335.604090
0
LINE
8
Calque 1
10
552.745890
20
335.604090
11
551.821944
21
335.996341
0
LINE
8
Calque 1
10
551.821944
20
335.996341
11
551.047150
21
335.997760
0
LINE
8
Calque 1
10
551.047150
20
335.997760
11
550.390525
21
335.703368
0
LINE
8
Calque 1
10
550.390525
20
335.703368
11
549.804070
21
335.244560
0
LINE
8
Calque 1
10
549.804070
20
335.244560
11
549.425174
21
334.707558
0
LINE
8
Calque 1
10
549.425174
20
334.707558
11
549.267580
21
334.225110
0
LINE
8
Calque 1
10
549.267580
20
334.225110
11
549.428665
21
333.707043
0
LINE
8
Calque 1
10
549.428665
20
333.707043
11
549.815950
21
333.084380
0
LINE
8
Calque 1
10
549.815950
20
333.084380
11
550.177660
21
332.694686
0
LINE
8
Calque 1
10
550.177660
20
332.694686
11
550.642539
21
332.486240
0
LINE
8
Calque 1
10
550.642539
20
332.486240
11
552.871800
21
332.387240
0
LINE
8
Calque 1
10
552.871800
20
332.387240
11
554.959945
21
332.290034
0
LINE
8
Calque 1
10
554.959945
20
332.290034
11
556.155410
21
331.985880
0
LINE
8
Calque 1
10
556.155410
20
331.985880
11
556.829667
21
331.458550
0
LINE
8
Calque 1
10
556.829667
20
331.458550
11
557.360870
21
330.754310
0
LINE
8
Calque 1
10
557.360870
20
330.754310
11
557.640964
21
329.898725
0
LINE
8
Calque 1
10
557.640964
20
329.898725
11
557.639470
21
328.995290
0
LINE
8
Calque 1
10
557.639470
20
328.995290
11
557.290256
21
328.079585
0
LINE
8
Calque 1
10
557.290256
20
328.079585
11
556.633550
21
327.184160
0
LINE
8
Calque 1
10
556.633550
20
327.184160
11
555.499530
21
326.300190
0
LINE
8
Calque 1
10
555.499530
20
326.300190
11
554.515450
21
325.930600
0
LINE
8
Calque 1
10
554.515450
20
325.930600
11
554.103292
21
325.746501
0
LINE
8
Calque 1
10
554.103292
20
325.746501
11
553.796324
21
325.756149
0
LINE
8
Calque 1
10
553.796324
20
325.756149
11
553.006840
21
326.562330
0
LINE
8
Calque 1
10
553.006840
20
326.562330
11
553.006840
21
326.562330
0
LINE
8
Calque 1
10
465.256140
20
329.394330
11
462.628360
21
331.486340
0
LINE
8
Calque 1
10
462.628360
20
331.486340
11
462.341819
21
331.716345
0
LINE
8
Calque 1
10
462.341819
20
331.716345
11
462.252974
21
331.958804
0
LINE
8
Calque 1
10
462.252974
20
331.958804
11
462.691060
21
333.045480
0
LINE
8
Calque 1
10
462.691060
20
333.045480
11
463.184190
21
333.888629
0
LINE
8
Calque 1
10
463.184190
20
333.888629
11
463.555310
21
334.239320
0
LINE
8
Calque 1
10
463.555310
20
334.239320
11
463.722951
21
333.945896
0
LINE
8
Calque 1
10
463.722951
20
333.945896
11
463.667250
21
333.090400
0
LINE
8
Calque 1
10
463.667250
20
333.090400
11
463.593554
21
332.422850
0
LINE
8
Calque 1
10
463.593554
20
332.422850
11
463.676883
21
331.965948
0
LINE
8
Calque 1
10
463.676883
20
331.965948
11
463.999389
21
331.541216
0
LINE
8
Calque 1
10
463.999389
20
331.541216
11
464.643230
21
330.970180
0
LINE
8
Calque 1
10
464.643230
20
330.970180
11
465.791490
21
329.998890
0
LINE
8
Calque 1
10
465.791490
20
329.998890
11
467.045350
21
331.391500
0
LINE
8
Calque 1
10
467.045350
20
331.391500
11
468.302120
21
333.065340
0
LINE
8
Calque 1
10
468.302120
20
333.065340
11
467.523110
21
334.095700
0
LINE
8
Calque 1
10
467.523110
20
334.095700
11
466.758301
21
334.679686
0
LINE
8
Calque 1
10
466.758301
20
334.679686
11
466.468534
21
334.639476
0
LINE
8
Calque 1
10
466.468534
20
334.639476
11
466.081700
21
334.412730
0
LINE
8
Calque 1
10
466.081700
20
334.412730
11
465.556831
21
334.168285
0
LINE
8
Calque 1
10
465.556831
20
334.168285
11
465.260450
21
334.242350
0
LINE
8
Calque 1
10
465.260450
20
334.242350
11
465.472225
21
334.813857
0
LINE
8
Calque 1
10
465.472225
20
334.813857
11
466.208580
21
335.820350
0
LINE
8
Calque 1
10
466.208580
20
335.820350
11
467.056691
21
336.710257
0
LINE
8
Calque 1
10
467.056691
20
336.710257
11
467.537190
21
337.001440
0
LINE
8
Calque 1
10
467.537190
20
337.001440
11
467.604553
21
336.714775
0
LINE
8
Calque 1
10
467.604553
20
336.714775
11
467.459290
21
336.215320
0
LINE
8
Calque 1
10
467.459290
20
336.215320
11
467.314421
21
335.582664
0
LINE
8
Calque 1
10
467.314421
20
335.582664
11
467.664740
21
335.009640
0
LINE
8
Calque 1
10
467.664740
20
335.009640
11
468.615940
21
334.214510
0
LINE
8
Calque 1
10
468.615940
20
334.214510
11
468.902116
21
334.171208
0
LINE
8
Calque 1
10
468.902116
20
334.171208
11
469.269194
21
334.368204
0
LINE
8
Calque 1
10
469.269194
20
334.368204
11
470.537890
21
335.710190
0
LINE
8
Calque 1
10
470.537890
20
335.710190
11
471.679355
21
337.210171
0
LINE
8
Calque 1
10
471.679355
20
337.210171
11
471.819614
21
337.622840
0
LINE
8
Calque 1
10
471.819614
20
337.622840
11
471.744630
21
337.943390
0
LINE
8
Calque 1
10
471.744630
20
337.943390
11
471.611361
21
338.357105
0
LINE
8
Calque 1
10
471.611361
20
338.357105
11
471.743630
21
338.604110
0
LINE
8
Calque 1
10
471.743630
20
338.604110
11
472.319300
21
338.384860
0
LINE
8
Calque 1
10
472.319300
20
338.384860
11
473.331710
21
337.627980
0
LINE
8
Calque 1
10
473.331710
20
337.627980
11
474.655260
21
336.261160
0
LINE
8
Calque 1
10
474.655260
20
336.261160
11
474.474128
21
336.146238
0
LINE
8
Calque 1
10
474.474128
20
336.146238
11
474.038460
21
336.188860
0
LINE
8
Calque 1
10
474.038460
20
336.188860
11
473.615023
21
336.146804
0
LINE
8
Calque 1
10
473.615023
20
336.146804
11
473.013445
21
335.679945
0
LINE
8
Calque 1
10
473.013445
20
335.679945
11
470.435750
21
332.645540
0
LINE
8
Calque 1
10
470.435750
20
332.645540
11
468.149390
21
329.656938
0
LINE
8
Calque 1
10
468.149390
20
329.656938
11
467.681069
21
328.860396
0
LINE
8
Calque 1
10
467.681069
20
328.860396
11
467.588270
21
328.418610
0
LINE
8
Calque 1
10
467.588270
20
328.418610
11
467.546770
21
327.778720
0
LINE
8
Calque 1
10
467.546770
20
327.778720
11
466.799838
21
328.207473
0
LINE
8
Calque 1
10
466.799838
20
328.207473
11
465.256510
21
329.394310
0
LINE
8
Calque 1
10
465.256510
20
329.394310
11
465.256140
21
329.394330
0
LINE
8
Calque 1
10
560.380040
20
330.963600
11
560.253435
21
331.422189
0
LINE
8
Calque 1
10
560.253435
20
331.422189
11
559.848006
21
332.079656
0
LINE
8
Calque 1
10
559.848006
20
332.079656
11
558.046980
21
334.204740
0
LINE
8
Calque 1
10
558.046980
20
334.204740
11
555.268860
21
337.407050
0
LINE
8
Calque 1
10
555.268860
20
337.407050
11
554.954529
21
338.198815
0
LINE
8
Calque 1
10
554.954529
20
338.198815
11
554.823790
21
339.183780
0
LINE
8
Calque 1
10
554.823790
20
339.183780
11
554.992724
21
340.266199
0
LINE
8
Calque 1
10
554.992724
20
340.266199
11
555.639310
21
341.235150
0
LINE
8
Calque 1
10
555.639310
20
341.235150
11
556.489229
21
341.966773
0
LINE
8
Calque 1
10
556.489229
20
341.966773
11
557.387470
21
342.421480
0
LINE
8
Calque 1
10
557.387470
20
342.421480
11
558.329084
21
342.536925
0
LINE
8
Calque 1
10
558.329084
20
342.536925
11
559.293610
21
342.289490
0
LINE
8
Calque 1
10
559.293610
20
342.289490
11
560.692049
21
341.273099
0
LINE
8
Calque 1
10
560.692049
20
341.273099
11
562.855630
21
339.127980
0
LINE
8
Calque 1
10
562.855630
20
339.127980
11
565.010660
21
336.973629
0
LINE
8
Calque 1
10
565.010660
20
336.973629
11
565.650760
21
336.500980
0
LINE
8
Calque 1
10
565.650760
20
336.500980
11
566.087100
21
336.355990
0
LINE
8
Calque 1
10
566.087100
20
336.355990
11
566.730040
21
336.238250
0
LINE
8
Calque 1
10
566.730040
20
336.238250
11
565.478090
21
334.937620
0
LINE
8
Calque 1
10
565.478090
20
334.937620
11
564.533975
21
334.139235
0
LINE
8
Calque 1
10
564.533975
20
334.139235
11
564.022160
21
333.880790
0
LINE
8
Calque 1
10
564.022160
20
333.880790
11
563.953292
21
334.110279
0
LINE
8
Calque 1
10
563.953292
20
334.110279
11
564.074160
21
334.485050
0
LINE
8
Calque 1
10
564.074160
20
334.485050
11
564.087637
21
334.848557
0
LINE
8
Calque 1
10
564.087637
20
334.848557
11
563.724419
21
335.452680
0
LINE
8
Calque 1
10
563.724419
20
335.452680
11
561.362900
21
338.046040
0
LINE
8
Calque 1
10
561.362900
20
338.046040
11
558.937174
21
340.417804
0
LINE
8
Calque 1
10
558.937174
20
340.417804
11
558.226559
21
340.956189
0
LINE
8
Calque 1
10
558.226559
20
340.956189
11
557.780050
21
341.123660
0
LINE
8
Calque 1
10
557.780050
20
341.123660
11
557.118055
21
340.892764
0
LINE
8
Calque 1
10
557.118055
20
340.892764
11
556.390990
21
340.345090
0
LINE
8
Calque 1
10
556.390990
20
340.345090
11
555.839474
21
339.605100
0
LINE
8
Calque 1
10
555.839474
20
339.605100
11
555.617590
21
338.914730
0
LINE
8
Calque 1
10
555.617590
20
338.914730
11
555.767310
21
338.451378
0
LINE
8
Calque 1
10
555.767310
20
338.451378
11
556.229279
21
337.726963
0
LINE
8
Calque 1
10
556.229279
20
337.726963
11
558.166810
21
335.388650
0
LINE
8
Calque 1
10
558.166810
20
335.388650
11
561.093290
21
332.298950
0
LINE
8
Calque 1
10
561.093290
20
332.298950
11
561.842900
21
332.221250
0
LINE
8
Calque 1
10
561.842900
20
332.221250
11
562.144457
21
332.259713
0
LINE
8
Calque 1
10
562.144457
20
332.259713
11
562.346640
21
332.151550
0
LINE
8
Calque 1
10
562.346640
20
332.151550
11
562.162687
21
331.756354
0
LINE
8
Calque 1
10
562.162687
20
331.756354
11
561.535860
21
331.104770
0
LINE
8
Calque 1
10
561.535860
20
331.104770
11
560.486880
21
330.270620
0
LINE
8
Calque 1
10
560.486880
20
330.270620
11
560.380090
21
330.963650
0
LINE
8
Calque 1
10
560.380090
20
330.963650
11
560.380040
21
330.963600
0
LINE
8
Calque 1
10
458.515040
20
335.612710
11
456.730460
21
337.900890
0
LINE
8
Calque 1
10
456.730460
20
337.900890
11
456.300136
21
338.894054
0
LINE
8
Calque 1
10
456.300136
20
338.894054
11
456.140960
21
339.927860
0
LINE
8
Calque 1
10
456.140960
20
339.927860
11
456.288694
21
340.994058
0
LINE
8
Calque 1
10
456.288694
20
340.994058
11
456.638200
21
342.071280
0
LINE
8
Calque 1
10
456.638200
20
342.071280
11
457.278802
21
343.130201
0
LINE
8
Calque 1
10
457.278802
20
343.130201
11
458.126990
21
344.152380
0
LINE
8
Calque 1
10
458.126990
20
344.152380
11
459.149160
21
345.000564
0
LINE
8
Calque 1
10
459.149160
20
345.000564
11
460.208080
21
345.641170
0
LINE
8
Calque 1
10
460.208080
20
345.641170
11
461.273561
21
345.990905
0
LINE
8
Calque 1
10
461.273561
20
345.990905
11
462.311510
21
346.139760
0
LINE
8
Calque 1
10
462.311510
20
346.139760
11
463.285625
21
346.022831
0
LINE
8
Calque 1
10
463.285625
20
346.022831
11
464.197610
21
345.733800
0
LINE
8
Calque 1
10
464.197610
20
345.733800
11
465.286230
21
344.950236
0
LINE
8
Calque 1
10
465.286230
20
344.950236
11
466.684990
21
343.644590
0
LINE
8
Calque 1
10
466.684990
20
343.644590
11
468.304630
21
341.797390
0
LINE
8
Calque 1
10
468.304630
20
341.797390
11
467.685700
21
341.703790
0
LINE
8
Calque 1
10
467.685700
20
341.703790
11
467.219477
21
341.585250
0
LINE
8
Calque 1
10
467.219477
20
341.585250
11
466.455211
21
341.085969
0
LINE
8
Calque 1
10
466.455211
20
341.085969
11
463.584660
21
338.607000
0
LINE
8
Calque 1
10
463.584660
20
338.607000
11
460.905597
21
336.028043
0
LINE
8
Calque 1
10
460.905597
20
336.028043
11
460.294870
21
335.286312
0
LINE
8
Calque 1
10
460.294870
20
335.286312
11
460.102540
21
334.836690
0
LINE
8
Calque 1
10
460.102540
20
334.836690
11
460.044249
21
334.422709
0
LINE
8
Calque 1
10
460.044249
20
334.422709
11
459.904110
21
334.266240
0
LINE
8
Calque 1
10
459.904110
20
334.266240
11
458.515040
21
335.612710
0
LINE
8
Calque 1
10
458.515040
20
335.612710
11
458.515040
21
335.612710
0
LINE
8
Calque 1
10
462.334720
20
339.882530
11
464.682345
21
342.204464
0
LINE
8
Calque 1
10
464.682345
20
342.204464
11
465.658790
21
343.392150
0
LINE
8
Calque 1
10
465.658790
20
343.392150
11
465.406198
21
343.814499
0
LINE
8
Calque 1
10
465.406198
20
343.814499
11
464.798900
21
344.296390
0
LINE
8
Calque 1
10
464.798900
20
344.296390
11
463.958429
21
344.666670
0
LINE
8
Calque 1
10
463.958429
20
344.666670
11
463.145250
21
344.820680
0
LINE
8
Calque 1
10
463.145250
20
344.820680
11
462.312640
21
344.657603
0
LINE
8
Calque 1
10
462.312640
20
344.657603
11
461.425460
21
344.265520
0
LINE
8
Calque 1
10
461.425460
20
344.265520
11
459.736250
21
343.009740
0
LINE
8
Calque 1
10
459.736250
20
343.009740
11
458.214890
21
341.132830
0
LINE
8
Calque 1
10
458.214890
20
341.132830
11
457.679714
21
340.064707
0
LINE
8
Calque 1
10
457.679714
20
340.064707
11
457.457700
21
339.148460
0
LINE
8
Calque 1
10
457.457700
20
339.148460
11
457.615870
21
338.319449
0
LINE
8
Calque 1
10
457.615870
20
338.319449
11
457.994780
21
337.461060
0
LINE
8
Calque 1
10
457.994780
20
337.461060
11
458.443861
21
336.865180
0
LINE
8
Calque 1
10
458.443861
20
336.865180
11
458.770760
21
336.667310
0
LINE
8
Calque 1
10
458.770760
20
336.667310
11
462.334720
21
339.882530
0
LINE
8
Calque 1
10
462.334720
20
339.882530
11
462.334720
21
339.882530
0
LINE
8
Calque 1
10
568.647720
20
340.540680
11
567.523240
21
341.455350
0
LINE
8
Calque 1
10
567.523240
20
341.455350
11
567.900495
21
341.553998
0
LINE
8
Calque 1
10
567.900495
20
341.553998
11
568.807520
21
341.495550
0
LINE
8
Calque 1
10
568.807520
20
341.495550
11
569.986974
21
341.466783
0
LINE
8
Calque 1
10
569.986974
20
341.466783
11
570.314622
21
341.684736
0
LINE
8
Calque 1
10
570.314622
20
341.684736
11
570.659600
21
342.122600
0
LINE
8
Calque 1
10
570.659600
20
342.122600
11
571.216660
21
343.143750
0
LINE
8
Calque 1
10
571.216660
20
343.143750
11
567.657960
21
345.881030
0
LINE
8
Calque 1
10
567.657960
20
345.881030
11
564.681501
21
347.862377
0
LINE
8
Calque 1
10
564.681501
20
347.862377
11
563.860321
21
348.256473
0
LINE
8
Calque 1
10
563.860321
20
348.256473
11
563.303090
21
348.355560
0
LINE
8
Calque 1
10
563.303090
20
348.355560
11
562.496160
21
348.468490
0
LINE
8
Calque 1
10
562.496160
20
348.468490
11
563.466180
21
350.028850
0
LINE
8
Calque 1
10
563.466180
20
350.028850
11
564.639230
21
351.437280
0
LINE
8
Calque 1
10
564.639230
20
351.437280
11
564.807209
21
351.231922
0
LINE
8
Calque 1
10
564.807209
20
351.231922
11
564.925980
21
350.738190
0
LINE
8
Calque 1
10
564.925980
20
350.738190
11
565.126099
21
350.278633
0
LINE
8
Calque 1
10
565.126099
20
350.278633
11
565.714387
21
349.653925
0
LINE
8
Calque 1
10
565.714387
20
349.653925
11
568.581570
21
347.433440
0
LINE
8
Calque 1
10
568.581570
20
347.433440
11
571.172467
21
345.615199
0
LINE
8
Calque 1
10
571.172467
20
345.615199
11
572.385810
21
344.902690
0
LINE
8
Calque 1
10
572.385810
20
344.902690
11
573.179560
21
345.956170
0
LINE
8
Calque 1
10
573.179560
20
345.956170
11
573.601419
21
346.915734
0
LINE
8
Calque 1
10
573.601419
20
346.915734
11
573.266460
21
347.772240
0
LINE
8
Calque 1
10
573.266460
20
347.772240
11
572.996780
21
348.429156
0
LINE
8
Calque 1
10
572.996780
20
348.429156
11
573.014710
21
348.832490
0
LINE
8
Calque 1
10
573.014710
20
348.832490
11
573.454535
21
348.698466
0
LINE
8
Calque 1
10
573.454535
20
348.698466
11
574.199190
21
348.063450
0
LINE
8
Calque 1
10
574.199190
20
348.063450
11
575.160910
21
347.071650
0
LINE
8
Calque 1
10
575.160910
20
347.071650
11
573.314980
21
344.558110
0
LINE
8
Calque 1
10
573.314980
20
344.558110
11
570.752920
21
340.920560
0
LINE
8
Calque 1
10
570.752920
20
340.920560
11
569.904500
21
339.816570
0
LINE
8
Calque 1
10
569.904500
20
339.816570
11
568.647730
21
340.540720
0
LINE
8
Calque 1
10
568.647730
20
340.540720
11
568.647720
21
340.540680
0
LINE
8
Calque 1
10
450.927720
20
345.153380
11
449.041870
21
348.039660
0
LINE
8
Calque 1
10
449.041870
20
348.039660
11
449.908770
21
348.936450
0
LINE
8
Calque 1
10
449.908770
20
348.936450
11
450.629857
21
349.394623
0
LINE
8
Calque 1
10
450.629857
20
349.394623
11
451.033350
21
349.481620
0
LINE
8
Calque 1
10
451.033350
20
349.481620
11
451.031000
21
349.140414
0
LINE
8
Calque 1
10
451.031000
20
349.140414
11
450.776350
21
348.569040
0
LINE
8
Calque 1
10
450.776350
20
348.569040
11
450.548227
21
348.126245
0
LINE
8
Calque 1
10
450.548227
20
348.126245
11
450.512344
21
347.742536
0
LINE
8
Calque 1
10
450.512344
20
347.742536
11
451.138640
21
346.438980
0
LINE
8
Calque 1
10
451.138640
20
346.438980
11
451.859399
21
345.381900
0
LINE
8
Calque 1
10
451.859399
20
345.381900
11
452.129100
21
345.202141
0
LINE
8
Calque 1
10
452.129100
20
345.202141
11
452.380620
21
345.213180
0
LINE
8
Calque 1
10
452.380620
20
345.213180
11
454.075940
21
346.226900
0
LINE
8
Calque 1
10
454.075940
20
346.226900
11
455.332710
21
347.311220
0
LINE
8
Calque 1
10
455.332710
20
347.311220
11
454.663470
21
348.437190
0
LINE
8
Calque 1
10
454.663470
20
348.437190
11
454.021274
21
349.103620
0
LINE
8
Calque 1
10
454.021274
20
349.103620
11
453.767468
21
349.155584
0
LINE
8
Calque 1
10
453.767468
20
349.155584
11
453.488900
21
349.056770
0
LINE
8
Calque 1
10
453.488900
20
349.056770
11
453.092862
21
348.934539
0
LINE
8
Calque 1
10
453.092862
20
348.934539
11
452.846270
21
349.023170
0
LINE
8
Calque 1
10
452.846270
20
349.023170
11
453.105732
21
349.469320
0
LINE
8
Calque 1
10
453.105732
20
349.469320
11
453.931970
21
350.214510
0
LINE
8
Calque 1
10
453.931970
20
350.214510
11
455.382950
21
351.172650
0
LINE
8
Calque 1
10
455.382950
20
351.172650
11
455.604120
21
350.923690
0
LINE
8
Calque 1
10
455.604120
20
350.923690
11
455.339530
21
350.511200
0
LINE
8
Calque 1
10
455.339530
20
350.511200
11
455.152670
21
350.237436
0
LINE
8
Calque 1
10
455.152670
20
350.237436
11
455.074950
21
349.808820
0
LINE
8
Calque 1
10
455.074950
20
349.808820
11
455.234285
21
349.204491
0
LINE
8
Calque 1
10
455.234285
20
349.204491
11
455.617360
21
348.508220
0
LINE
8
Calque 1
10
455.617360
20
348.508220
11
456.159780
21
347.746470
0
LINE
8
Calque 1
10
456.159780
20
347.746470
11
458.000000
21
348.969000
0
LINE
8
Calque 1
10
458.000000
20
348.969000
11
459.298177
21
349.918306
0
LINE
8
Calque 1
10
459.298177
20
349.918306
11
459.837130
21
350.483650
0
LINE
8
Calque 1
10
459.837130
20
350.483650
11
458.774940
21
352.012760
0
LINE
8
Calque 1
10
458.774940
20
352.012760
11
457.746137
21
353.032081
0
LINE
8
Calque 1
10
457.746137
20
353.032081
11
457.362081
21
353.111948
0
LINE
8
Calque 1
10
457.362081
20
353.111948
11
456.869090
21
353.007500
0
LINE
8
Calque 1
10
456.869090
20
353.007500
11
456.204320
21
352.901969
0
LINE
8
Calque 1
10
456.204320
20
352.901969
11
455.797100
21
352.991700
0
LINE
8
Calque 1
10
455.797100
20
352.991700
11
455.996945
21
353.363332
0
LINE
8
Calque 1
10
455.996945
20
353.363332
11
456.804950
21
353.941770
0
LINE
8
Calque 1
10
456.804950
20
353.941770
11
457.734025
21
354.386606
0
LINE
8
Calque 1
10
457.734025
20
354.386606
11
458.234250
21
354.440190
0
LINE
8
Calque 1
10
458.234250
20
354.440190
11
460.324590
21
351.494130
0
LINE
8
Calque 1
10
460.324590
20
351.494130
11
462.220090
21
348.621180
0
LINE
8
Calque 1
10
462.220090
20
348.621180
11
461.605710
21
348.623180
0
LINE
8
Calque 1
10
461.605710
20
348.623180
11
461.128776
21
348.576649
0
LINE
8
Calque 1
10
461.128776
20
348.576649
11
460.322299
21
348.207756
0
LINE
8
Calque 1
10
460.322299
20
348.207756
11
457.173930
21
346.204470
0
LINE
8
Calque 1
10
457.173930
20
346.204470
11
454.206036
21
344.081600
0
LINE
8
Calque 1
10
454.206036
20
344.081600
11
453.517603
21
343.450878
0
LINE
8
Calque 1
10
453.517603
20
343.450878
11
453.272000
21
343.036240
0
LINE
8
Calque 1
10
453.272000
20
343.036240
11
453.145781
21
342.615802
0
LINE
8
Calque 1
10
453.145781
20
342.615802
11
452.961040
21
342.440930
0
LINE
8
Calque 1
10
452.961040
20
342.440930
11
450.929110
21
345.152910
0
LINE
8
Calque 1
10
450.929110
20
345.152910
11
450.927720
21
345.153380
0
LINE
8
Calque 1
10
575.393720
20
350.308230
11
574.692993
21
350.691189
0
LINE
8
Calque 1
10
574.692993
20
350.691189
11
574.401540
21
351.040300
0
LINE
8
Calque 1
10
574.401540
20
351.040300
11
574.658366
21
351.270979
0
LINE
8
Calque 1
10
574.658366
20
351.270979
11
575.368620
21
351.335120
0
LINE
8
Calque 1
10
575.368620
20
351.335120
11
575.914392
21
351.353618
0
LINE
8
Calque 1
10
575.914392
20
351.353618
11
576.302779
21
351.509053
0
LINE
8
Calque 1
10
576.302779
20
351.509053
11
577.092060
21
352.581080
0
LINE
8
Calque 1
10
577.092060
20
352.581080
11
577.580640
21
353.556126
0
LINE
8
Calque 1
10
577.580640
20
353.556126
11
577.693200
21
354.108360
0
LINE
8
Calque 1
10
577.693200
20
354.108360
11
575.977310
21
355.147330
0
LINE
8
Calque 1
10
575.977310
20
355.147330
11
574.172800
21
355.935150
0
LINE
8
Calque 1
10
574.172800
20
355.935150
11
573.883134
21
355.643698
0
LINE
8
Calque 1
10
573.883134
20
355.643698
11
573.529110
21
354.942970
0
LINE
8
Calque 1
10
573.529110
20
354.942970
11
573.262003
21
354.036824
0
LINE
8
Calque 1
10
573.262003
20
354.036824
11
573.543310
21
353.486140
0
LINE
8
Calque 1
10
573.543310
20
353.486140
11
573.779666
21
353.101926
0
LINE
8
Calque 1
10
573.779666
20
353.101926
11
573.766520
21
352.830670
0
LINE
8
Calque 1
10
573.766520
20
352.830670
11
573.269423
21
352.901496
0
LINE
8
Calque 1
10
573.269423
20
352.901496
11
572.342230
21
353.339740
0
LINE
8
Calque 1
10
572.342230
20
353.339740
11
571.439399
21
353.929100
0
LINE
8
Calque 1
10
571.439399
20
353.929100
11
571.000870
21
354.363270
0
LINE
8
Calque 1
10
571.000870
20
354.363270
11
571.081749
21
354.569279
0
LINE
8
Calque 1
10
571.081749
20
354.569279
11
571.581900
21
354.514010
0
LINE
8
Calque 1
10
571.581900
20
354.514010
11
571.961920
21
354.457016
0
LINE
8
Calque 1
10
571.961920
20
354.457016
11
572.243359
21
354.547716
0
LINE
8
Calque 1
10
572.243359
20
354.547716
11
572.799180
21
355.376820
0
LINE
8
Calque 1
10
572.799180
20
355.376820
11
573.148326
21
356.249016
0
LINE
8
Calque 1
10
573.148326
20
356.249016
11
573.004670
21
356.671640
0
LINE
8
Calque 1
10
573.004670
20
356.671640
11
571.301500
21
357.623570
0
LINE
8
Calque 1
10
571.301500
20
357.623570
11
569.651400
21
358.316400
0
LINE
8
Calque 1
10
569.651400
20
358.316400
11
569.336448
21
358.024948
0
LINE
8
Calque 1
10
569.336448
20
358.024948
11
568.958120
21
357.324220
0
LINE
8
Calque 1
10
568.958120
20
357.324220
11
568.306670
21
355.755160
0
LINE
8
Calque 1
10
568.306670
20
355.755160
11
568.245980
21
355.160603
0
LINE
8
Calque 1
10
568.245980
20
355.160603
11
568.594280
21
354.522800
0
LINE
8
Calque 1
10
568.594280
20
354.522800
11
569.109890
21
353.571520
0
LINE
8
Calque 1
10
569.109890
20
353.571520
11
568.927568
21
353.445949
0
LINE
8
Calque 1
10
568.927568
20
353.445949
11
568.382290
21
353.659220
0
LINE
8
Calque 1
10
568.382290
20
353.659220
11
567.176760
21
354.400960
0
LINE
8
Calque 1
10
567.176760
20
354.400960
11
566.950530
21
354.678029
0
LINE
8
Calque 1
10
566.950530
20
354.678029
11
567.004329
21
355.191766
0
LINE
8
Calque 1
10
567.004329
20
355.191766
11
568.298470
21
358.059150
0
LINE
8
Calque 1
10
568.298470
20
358.059150
11
569.487310
21
360.374890
0
LINE
8
Calque 1
10
569.487310
20
360.374890
11
570.099310
21
361.308560
0
LINE
8
Calque 1
10
570.099310
20
361.308560
11
570.439160
21
360.670730
0
LINE
8
Calque 1
10
570.439160
20
360.670730
11
570.715462
21
360.281290
0
LINE
8
Calque 1
10
570.715462
20
360.281290
11
571.450410
21
359.727794
0
LINE
8
Calque 1
10
571.450410
20
359.727794
11
574.659850
21
357.888990
0
LINE
8
Calque 1
10
574.659850
20
357.888990
11
577.893680
21
356.253161
0
LINE
8
Calque 1
10
577.893680
20
356.253161
11
578.700971
21
355.959614
0
LINE
8
Calque 1
10
578.700971
20
355.959614
11
579.073680
21
355.969920
0
LINE
8
Calque 1
10
579.073680
20
355.969920
11
579.377494
21
356.121439
0
LINE
8
Calque 1
10
579.377494
20
356.121439
11
579.642030
21
356.099070
0
LINE
8
Calque 1
10
579.642030
20
356.099070
11
579.351065
21
355.099415
0
LINE
8
Calque 1
10
579.351065
20
355.099415
11
578.319310
21
352.901290
0
LINE
8
Calque 1
10
578.319310
20
352.901290
11
576.572970
21
349.875430
0
LINE
8
Calque 1
10
576.572970
20
349.875430
11
575.393740
21
350.308210
0
LINE
8
Calque 1
10
575.393740
20
350.308210
11
575.393720
21
350.308230
0
LINE
8
Calque 1
10
446.454720
20
352.694010
11
445.741515
21
354.500355
0
LINE
8
Calque 1
10
445.741515
20
354.500355
11
445.454520
21
355.890570
0
LINE
8
Calque 1
10
445.454520
20
355.890570
11
445.578203
21
356.969974
0
LINE
8
Calque 1
10
445.578203
20
356.969974
11
446.281680
21
357.808800
0
LINE
8
Calque 1
10
446.281680
20
357.808800
11
447.175469
21
358.406099
0
LINE
8
Calque 1
10
447.175469
20
358.406099
11
448.141040
21
358.580990
0
LINE
8
Calque 1
10
448.141040
20
358.580990
11
449.002155
21
358.470181
0
LINE
8
Calque 1
10
449.002155
20
358.470181
11
449.674870
21
358.203770
0
LINE
8
Calque 1
10
449.674870
20
358.203770
11
450.011872
21
358.048615
0
LINE
8
Calque 1
10
450.011872
20
358.048615
11
450.373256
21
358.216906
0
LINE
8
Calque 1
10
450.373256
20
358.216906
11
451.846310
21
360.122000
0
LINE
8
Calque 1
10
451.846310
20
360.122000
11
453.000741
21
361.918035
0
LINE
8
Calque 1
10
453.000741
20
361.918035
11
453.483300
21
363.012760
0
LINE
8
Calque 1
10
453.483300
20
363.012760
11
453.567788
21
363.433198
0
LINE
8
Calque 1
10
453.567788
20
363.433198
11
453.765480
21
363.608070
0
LINE
8
Calque 1
10
453.765480
20
363.608070
11
454.080151
21
363.325006
0
LINE
8
Calque 1
10
454.080151
20
363.325006
11
454.446190
21
362.644450
0
LINE
8
Calque 1
10
454.446190
20
362.644450
11
454.688796
21
361.800060
0
LINE
8
Calque 1
10
454.688796
20
361.800060
11
454.706680
21
361.123100
0
LINE
8
Calque 1
10
454.706680
20
361.123100
11
454.137198
21
360.154874
0
LINE
8
Calque 1
10
454.137198
20
360.154874
11
452.967640
21
358.610220
0
LINE
8
Calque 1
10
452.967640
20
358.610220
11
451.839823
21
357.128248
0
LINE
8
Calque 1
10
451.839823
20
357.128248
11
451.370730
21
356.310730
0
LINE
8
Calque 1
10
451.370730
20
356.310730
11
451.624360
21
355.809630
0
LINE
8
Calque 1
10
451.624360
20
355.809630
11
452.350756
21
355.974533
0
LINE
8
Calque 1
10
452.350756
20
355.974533
11
453.741030
21
356.591100
0
LINE
8
Calque 1
10
453.741030
20
356.591100
11
455.256380
21
357.477039
0
LINE
8
Calque 1
10
455.256380
20
357.477039
11
455.531906
21
357.816243
0
LINE
8
Calque 1
10
455.531906
20
357.816243
11
455.604070
21
358.187440
0
LINE
8
Calque 1
10
455.604070
20
358.187440
11
455.676091
21
358.652244
0
LINE
8
Calque 1
10
455.676091
20
358.652244
11
455.849250
21
358.845570
0
LINE
8
Calque 1
10
455.849250
20
358.845570
11
456.222416
21
358.408711
0
LINE
8
Calque 1
10
456.222416
20
358.408711
11
456.775290
21
357.358390
0
LINE
8
Calque 1
10
456.775290
20
357.358390
11
457.456150
21
355.629290
0
LINE
8
Calque 1
10
457.456150
20
355.629290
11
457.325313
21
355.524811
0
LINE
8
Calque 1
10
457.325313
20
355.524811
11
456.986860
21
355.638290
0
LINE
8
Calque 1
10
456.986860
20
355.638290
11
456.554972
21
355.656757
0
LINE
8
Calque 1
10
456.554972
20
355.656757
11
455.709145
21
355.385969
0
LINE
8
Calque 1
10
455.709145
20
355.385969
11
452.224360
21
353.759100
0
LINE
8
Calque 1
10
452.224360
20
353.759100
11
448.859590
21
351.982895
0
LINE
8
Calque 1
10
448.859590
20
351.982895
11
448.145152
21
351.476475
0
LINE
8
Calque 1
10
448.145152
20
351.476475
11
447.931150
21
351.136000
0
LINE
8
Calque 1
10
447.931150
20
351.136000
11
447.855781
21
350.788001
0
LINE
8
Calque 1
10
447.855781
20
350.788001
11
447.674580
21
350.643260
0
LINE
8
Calque 1
10
447.674580
20
350.643260
11
447.210413
21
351.245599
0
LINE
8
Calque 1
10
447.210413
20
351.245599
11
446.454720
21
352.693780
0
LINE
8
Calque 1
10
446.454720
20
352.693780
11
446.454720
21
352.694010
0
LINE
8
Calque 1
10
449.254830
20
354.215740
11
450.788263
21
355.099799
0
LINE
8
Calque 1
10
450.788263
20
355.099799
11
450.925053
21
355.401202
0
LINE
8
Calque 1
10
450.925053
20
355.401202
11
450.806500
21
355.774180
0
LINE
8
Calque 1
10
450.806500
20
355.774180
11
450.426624
21
356.314993
0
LINE
8
Calque 1
10
450.426624
20
356.314993
11
449.917680
21
356.727750
0
LINE
8
Calque 1
10
449.917680
20
356.727750
11
449.255485
21
356.909991
0
LINE
8
Calque 1
10
449.255485
20
356.909991
11
448.494920
21
356.868800
0
LINE
8
Calque 1
10
448.494920
20
356.868800
11
447.758060
21
356.542485
0
LINE
8
Calque 1
10
447.758060
20
356.542485
11
447.140630
21
356.011450
0
LINE
8
Calque 1
10
447.140630
20
356.011450
11
446.764623
21
355.383374
0
LINE
8
Calque 1
10
446.764623
20
355.383374
11
446.608230
21
354.823750
0
LINE
8
Calque 1
10
446.608230
20
354.823750
11
446.882120
21
353.801090
0
LINE
8
Calque 1
10
446.882120
20
353.801090
11
447.285610
21
353.289320
0
LINE
8
Calque 1
10
447.285610
20
353.289320
11
449.254830
21
354.215740
0
LINE
8
Calque 1
10
449.254830
20
354.215740
11
449.254830
21
354.215740
0
LINE
8
Calque 1
10
580.138830
20
357.959220
11
579.958040
21
358.617020
0
LINE
8
Calque 1
10
579.958040
20
358.617020
11
579.416418
21
359.332104
0
LINE
8
Calque 1
10
579.416418
20
359.332104
11
577.907520
21
360.472370
0
LINE
8
Calque 1
10
577.907520
20
360.472370
11
573.541890
21
363.544310
0
LINE
8
Calque 1
10
573.541890
20
363.544310
11
571.226790
21
365.430750
0
LINE
8
Calque 1
10
571.226790
20
365.430750
11
571.585570
21
366.114270
0
LINE
8
Calque 1
10
571.585570
20
366.114270
11
571.913138
21
366.380752
0
LINE
8
Calque 1
10
571.913138
20
366.380752
11
572.678550
21
366.506634
0
LINE
8
Calque 1
10
572.678550
20
366.506634
11
577.245410
21
366.433870
0
LINE
8
Calque 1
10
577.245410
20
366.433870
11
581.639069
21
366.364992
0
LINE
8
Calque 1
10
581.639069
20
366.364992
11
582.506963
21
366.458583
0
LINE
8
Calque 1
10
582.506963
20
366.458583
11
582.869730
21
366.652320
0
LINE
8
Calque 1
10
582.869730
20
366.652320
11
583.159846
21
366.889210
0
LINE
8
Calque 1
10
583.159846
20
366.889210
11
583.403410
21
366.911780
0
LINE
8
Calque 1
10
583.403410
20
366.911780
11
583.387838
21
366.314952
0
LINE
8
Calque 1
10
583.387838
20
366.314952
11
583.054910
21
365.062610
0
LINE
8
Calque 1
10
583.054910
20
365.062610
11
582.595854
21
363.848480
0
LINE
8
Calque 1
10
582.595854
20
363.848480
11
582.277040
21
363.343490
0
LINE
8
Calque 1
10
582.277040
20
363.343490
11
581.887260
21
363.806510
0
LINE
8
Calque 1
10
581.887260
20
363.806510
11
581.432540
21
364.463920
0
LINE
8
Calque 1
10
581.432540
20
364.463920
11
577.312200
21
364.652840
0
LINE
8
Calque 1
10
577.312200
20
364.652840
11
573.475750
21
364.647840
0
LINE
8
Calque 1
10
573.475750
20
364.647840
11
574.269500
21
363.998140
0
LINE
8
Calque 1
10
574.269500
20
363.998140
11
577.639500
21
361.582290
0
LINE
8
Calque 1
10
577.639500
20
361.582290
11
579.912534
21
360.136692
0
LINE
8
Calque 1
10
579.912534
20
360.136692
11
580.372917
21
360.053432
0
LINE
8
Calque 1
10
580.372917
20
360.053432
11
580.703680
21
360.257710
0
LINE
8
Calque 1
10
580.703680
20
360.257710
11
581.096110
21
360.521732
0
LINE
8
Calque 1
10
581.096110
20
360.521732
11
581.354440
21
360.536440
0
LINE
8
Calque 1
10
581.354440
20
360.536440
11
581.345340
21
360.099907
0
LINE
8
Calque 1
10
581.345340
20
360.099907
11
581.094740
21
359.279090
0
LINE
8
Calque 1
10
581.094740
20
359.279090
11
580.495920
21
357.981730
0
LINE
8
Calque 1
10
580.495920
20
357.981730
11
580.318294
21
357.891582
0
LINE
8
Calque 1
10
580.318294
20
357.891582
11
580.138830
21
357.959730
0
LINE
8
Calque 1
10
580.138830
20
357.959730
11
580.138830
21
357.959220
0
LINE
8
Calque 1
10
443.356000
20
359.568000
11
442.781600
21
361.176950
0
LINE
8
Calque 1
10
442.781600
20
361.176950
11
442.456020
21
362.716640
0
LINE
8
Calque 1
10
442.456020
20
362.716640
11
443.104760
21
362.528350
0
LINE
8
Calque 1
10
443.104760
20
362.528350
11
443.488195
21
362.407339
0
LINE
8
Calque 1
10
443.488195
20
362.407339
11
444.108470
21
362.475051
0
LINE
8
Calque 1
10
444.108470
20
362.475051
11
446.768540
21
363.332200
0
LINE
8
Calque 1
10
446.768540
20
363.332200
11
450.779840
21
364.857770
0
LINE
8
Calque 1
10
450.779840
20
364.857770
11
451.438364
21
365.318441
0
LINE
8
Calque 1
10
451.438364
20
365.318441
11
451.795920
21
365.868580
0
LINE
8
Calque 1
10
451.795920
20
365.868580
11
451.775720
21
367.026130
0
LINE
8
Calque 1
10
451.775720
20
367.026130
11
451.203760
21
367.971270
0
LINE
8
Calque 1
10
451.203760
20
367.971270
11
450.715221
21
368.252667
0
LINE
8
Calque 1
10
450.715221
20
368.252667
11
450.100180
21
368.369710
0
LINE
8
Calque 1
10
450.100180
20
368.369710
11
448.564426
21
368.006871
0
LINE
8
Calque 1
10
448.564426
20
368.006871
11
445.862250
21
367.134520
0
LINE
8
Calque 1
10
445.862250
20
367.134520
11
442.920385
21
365.999012
0
LINE
8
Calque 1
10
442.920385
20
365.999012
11
442.332450
21
365.613517
0
LINE
8
Calque 1
10
442.332450
20
365.613517
11
442.069760
21
365.216290
0
LINE
8
Calque 1
10
442.069760
20
365.216290
11
441.817620
21
364.748655
0
LINE
8
Calque 1
10
441.817620
20
364.748655
11
441.588250
21
364.930130
0
LINE
8
Calque 1
10
441.588250
20
364.930130
11
441.182930
21
366.306420
0
LINE
8
Calque 1
10
441.182930
20
366.306420
11
440.999420
21
367.285830
0
LINE
8
Calque 1
10
440.999420
20
367.285830
11
441.754080
21
367.011470
0
LINE
8
Calque 1
10
441.754080
20
367.011470
11
442.267510
21
366.915491
0
LINE
8
Calque 1
10
442.267510
20
366.915491
11
442.989011
21
367.008144
0
LINE
8
Calque 1
10
442.989011
20
367.008144
11
445.899450
21
367.950290
0
LINE
8
Calque 1
10
445.899450
20
367.950290
11
448.582667
21
368.807090
0
LINE
8
Calque 1
10
448.582667
20
368.807090
11
450.272360
21
369.163460
0
LINE
8
Calque 1
10
450.272360
20
369.163460
11
451.139197
21
369.042161
0
LINE
8
Calque 1
10
451.139197
20
369.042161
11
451.844080
21
368.750530
0
LINE
8
Calque 1
10
451.844080
20
368.750530
11
452.376585
21
368.234302
0
LINE
8
Calque 1
10
452.376585
20
368.234302
11
452.828990
21
367.573040
0
LINE
8
Calque 1
10
452.828990
20
367.573040
11
453.108219
21
366.712354
0
LINE
8
Calque 1
10
453.108219
20
366.712354
11
453.224360
21
365.716660
0
LINE
8
Calque 1
10
453.224360
20
365.716660
11
453.070532
21
364.703519
0
LINE
8
Calque 1
10
453.070532
20
364.703519
11
452.496750
21
363.905170
0
LINE
8
Calque 1
10
452.496750
20
363.905170
11
450.972374
21
363.012046
0
LINE
8
Calque 1
10
450.972374
20
363.012046
11
447.866540
21
361.774620
0
LINE
8
Calque 1
10
447.866540
20
361.774620
11
445.042885
21
360.657862
0
LINE
8
Calque 1
10
445.042885
20
360.657862
11
443.963940
21
360.016710
0
LINE
8
Calque 1
10
443.963940
20
360.016710
11
443.717640
21
359.517470
0
LINE
8
Calque 1
10
443.717640
20
359.517470
11
443.509804
21
359.469520
0
LINE
8
Calque 1
10
443.509804
20
359.469520
11
443.355990
21
359.567970
0
LINE
8
Calque 1
10
443.355990
20
359.567970
11
443.356000
21
359.568000
0
LINE
8
Calque 1
10
440.353220
20
369.715300
11
440.077580
21
371.060900
0
LINE
8
Calque 1
10
440.077580
20
371.060900
11
441.028580
21
371.657450
0
LINE
8
Calque 1
10
441.028580
20
371.657450
11
444.322920
21
373.411810
0
LINE
8
Calque 1
10
444.322920
20
373.411810
11
446.128295
21
374.389711
0
LINE
8
Calque 1
10
446.128295
20
374.389711
11
446.277582
21
374.607453
0
LINE
8
Calque 1
10
446.277582
20
374.607453
11
446.042710
21
374.735280
0
LINE
8
Calque 1
10
446.042710
20
374.735280
11
442.477440
21
375.249740
0
LINE
8
Calque 1
10
442.477440
20
375.249740
11
439.535720
21
375.598530
0
LINE
8
Calque 1
10
439.535720
20
375.598530
11
439.258860
21
376.808400
0
LINE
8
Calque 1
10
439.258860
20
376.808400
11
439.117130
21
378.236900
0
LINE
8
Calque 1
10
439.117130
20
378.236900
11
439.309054
21
378.259351
0
LINE
8
Calque 1
10
439.309054
20
378.259351
11
439.580770
21
378.006260
0
LINE
8
Calque 1
10
439.580770
20
378.006260
11
439.879527
21
377.778481
0
LINE
8
Calque 1
10
439.879527
20
377.778481
11
440.569621
21
377.741341
0
LINE
8
Calque 1
10
440.569621
20
377.741341
11
444.648600
21
378.339140
0
LINE
8
Calque 1
10
444.648600
20
378.339140
11
448.665925
21
379.091792
0
LINE
8
Calque 1
10
448.665925
20
379.091792
11
449.386504
21
379.376919
0
LINE
8
Calque 1
10
449.386504
20
379.376919
11
449.688560
21
379.722030
0
LINE
8
Calque 1
10
449.688560
20
379.722030
11
449.961049
21
380.093890
0
LINE
8
Calque 1
10
449.961049
20
380.093890
11
450.178300
21
380.016800
0
LINE
8
Calque 1
10
450.178300
20
380.016800
11
450.509710
21
378.141320
0
LINE
8
Calque 1
10
450.509710
20
378.141320
11
450.544771
21
376.951220
0
LINE
8
Calque 1
10
450.544771
20
376.951220
11
450.350700
21
376.571780
0
LINE
8
Calque 1
10
450.350700
20
376.571780
11
450.137886
21
376.688365
0
LINE
8
Calque 1
10
450.137886
20
376.688365
11
450.049370
21
376.968660
0
LINE
8
Calque 1
10
450.049370
20
376.968660
11
449.840197
21
377.268569
0
LINE
8
Calque 1
10
449.840197
20
377.268569
11
449.189470
21
377.363780
0
LINE
8
Calque 1
10
449.189470
20
377.363780
11
445.317780
21
376.843480
0
LINE
8
Calque 1
10
445.317780
20
376.843480
11
442.196590
21
376.215530
0
LINE
8
Calque 1
10
442.196590
20
376.215530
11
442.959430
21
375.951990
0
LINE
8
Calque 1
10
442.959430
20
375.951990
11
446.742070
21
375.488280
0
LINE
8
Calque 1
10
446.742070
20
375.488280
11
450.021660
21
374.983330
0
LINE
8
Calque 1
10
450.021660
20
374.983330
11
450.080406
21
374.833387
0
LINE
8
Calque 1
10
450.080406
20
374.833387
11
449.864906
21
374.580525
0
LINE
8
Calque 1
10
449.864906
20
374.580525
11
448.566450
21
373.727450
0
LINE
8
Calque 1
10
448.566450
20
373.727450
11
444.796730
21
371.691970
0
LINE
8
Calque 1
10
444.796730
20
371.691970
11
442.944750
21
370.623620
0
LINE
8
Calque 1
10
442.944750
20
370.623620
11
446.213010
21
371.166580
0
LINE
8
Calque 1
10
446.213010
20
371.166580
11
449.951610
21
371.935490
0
LINE
8
Calque 1
10
449.951610
20
371.935490
11
450.390587
21
372.185416
0
LINE
8
Calque 1
10
450.390587
20
372.185416
11
450.654440
21
372.600140
0
LINE
8
Calque 1
10
450.654440
20
372.600140
11
450.831397
21
372.975906
0
LINE
8
Calque 1
10
450.831397
20
372.975906
11
451.061500
21
373.132200
0
LINE
8
Calque 1
10
451.061500
20
373.132200
11
451.328914
21
372.765601
0
LINE
8
Calque 1
10
451.328914
20
372.765601
11
451.595600
21
371.884210
0
LINE
8
Calque 1
10
451.595600
20
371.884210
11
451.711460
21
370.393010
0
LINE
8
Calque 1
10
451.711460
20
370.393010
11
451.480402
21
370.386410
0
LINE
8
Calque 1
10
451.480402
20
370.386410
11
451.135990
21
370.711520
0
LINE
8
Calque 1
10
451.135990
20
370.711520
11
450.710820
21
371.273230
0
LINE
8
Calque 1
10
450.710820
20
371.273230
11
446.632330
21
370.482930
0
LINE
8
Calque 1
10
446.632330
20
370.482930
11
441.929430
21
369.692620
0
LINE
8
Calque 1
10
441.929430
20
369.692620
11
441.396834
21
369.529762
0
LINE
8
Calque 1
10
441.396834
20
369.529762
11
441.053530
21
369.031160
0
LINE
8
Calque 1
10
441.053530
20
369.031160
11
440.715460
21
368.369700
0
LINE
8
Calque 1
10
440.715460
20
368.369700
11
440.353220
21
369.715300
0
LINE
8
Calque 1
10
440.353220
20
369.715300
11
440.353220
21
369.715300
0
LINE
8
Calque 1
10
584.535220
20
374.958880
11
584.223381
21
375.210866
0
LINE
8
Calque 1
10
584.223381
20
375.210866
11
583.479467
21
375.377800
0
LINE
8
Calque 1
10
583.479467
20
375.377800
11
579.544810
21
375.605620
0
LINE
8
Calque 1
10
579.544810
20
375.605620
11
575.551815
21
375.679559
0
LINE
8
Calque 1
10
575.551815
20
375.679559
11
574.767056
21
375.570586
0
LINE
8
Calque 1
10
574.767056
20
375.570586
11
574.361120
21
375.342550
0
LINE
8
Calque 1
10
574.361120
20
375.342550
11
574.087831
21
375.132026
0
LINE
8
Calque 1
10
574.087831
20
375.132026
11
573.942516
21
375.207279
0
LINE
8
Calque 1
10
573.942516
20
375.207279
11
573.874620
21
376.647450
0
LINE
8
Calque 1
10
573.874620
20
376.647450
11
573.957574
21
377.931254
0
LINE
8
Calque 1
10
573.957574
20
377.931254
11
574.157010
21
378.567170
0
LINE
8
Calque 1
10
574.157010
20
378.567170
11
574.397940
21
378.531786
0
LINE
8
Calque 1
10
574.397940
20
378.531786
11
574.580640
21
378.201600
0
LINE
8
Calque 1
10
574.580640
20
378.201600
11
574.711721
21
377.930448
0
LINE
8
Calque 1
10
574.711721
20
377.930448
11
574.972138
21
377.738540
0
LINE
8
Calque 1
10
574.972138
20
377.738540
11
576.084190
21
377.497270
0
LINE
8
Calque 1
10
576.084190
20
377.497270
11
580.082120
21
377.415470
0
LINE
8
Calque 1
10
580.082120
20
377.415470
11
582.717740
21
377.497870
0
LINE
8
Calque 1
10
582.717740
20
377.497870
11
578.560760
21
378.918780
0
LINE
8
Calque 1
10
578.560760
20
378.918780
11
575.624901
21
379.992589
0
LINE
8
Calque 1
10
575.624901
20
379.992589
11
574.403790
21
380.578980
0
LINE
8
Calque 1
10
574.403790
20
380.578980
11
574.583985
21
380.816479
0
LINE
8
Calque 1
10
574.583985
20
380.816479
11
575.017230
21
381.051480
0
LINE
8
Calque 1
10
575.017230
20
381.051480
11
579.184410
21
382.297350
0
LINE
8
Calque 1
10
579.184410
20
382.297350
11
581.935583
21
383.154709
0
LINE
8
Calque 1
10
581.935583
20
383.154709
11
582.215107
21
383.355380
0
LINE
8
Calque 1
10
582.215107
20
383.355380
11
581.944410
21
383.481480
0
LINE
8
Calque 1
10
581.944410
20
383.481480
11
578.191930
21
383.684270
0
LINE
8
Calque 1
10
578.191930
20
383.684270
11
575.659118
21
383.629912
0
LINE
8
Calque 1
10
575.659118
20
383.629912
11
575.233998
21
383.474938
0
LINE
8
Calque 1
10
575.233998
20
383.474938
11
575.065250
21
383.186410
0
LINE
8
Calque 1
10
575.065250
20
383.186410
11
574.874140
21
382.812681
0
LINE
8
Calque 1
10
574.874140
20
382.812681
11
574.650540
21
382.657240
0
LINE
8
Calque 1
10
574.650540
20
382.657240
11
574.476274
21
383.084706
0
LINE
8
Calque 1
10
574.476274
20
383.084706
11
574.403790
21
384.112450
0
LINE
8
Calque 1
10
574.403790
20
384.112450
11
574.464238
21
385.140190
0
LINE
8
Calque 1
10
574.464238
20
385.140190
11
574.609570
21
385.567660
0
LINE
8
Calque 1
10
574.609570
20
385.567660
11
575.231940
21
385.081120
0
LINE
8
Calque 1
10
575.231940
20
385.081120
11
575.602425
21
384.821103
0
LINE
8
Calque 1
10
575.602425
20
384.821103
11
576.354274
21
384.647961
0
LINE
8
Calque 1
10
576.354274
20
384.647961
11
580.090650
21
384.412510
0
LINE
8
Calque 1
10
580.090650
20
384.412510
11
583.877673
21
384.334721
0
LINE
8
Calque 1
10
583.877673
20
384.334721
11
584.626079
21
384.444990
0
LINE
8
Calque 1
10
584.626079
20
384.444990
11
585.026150
21
384.676940
0
LINE
8
Calque 1
10
585.026150
20
384.676940
11
585.611820
21
385.014820
0
LINE
8
Calque 1
10
585.611820
20
385.014820
11
585.544020
21
383.601820
0
LINE
8
Calque 1
10
585.544020
20
383.601820
11
585.383960
21
382.297450
0
LINE
8
Calque 1
10
585.383960
20
382.297450
11
582.738130
21
381.563490
0
LINE
8
Calque 1
10
582.738130
20
381.563490
11
578.959840
21
380.540410
0
LINE
8
Calque 1
10
578.959840
20
380.540410
11
578.196899
21
380.276576
0
LINE
8
Calque 1
10
578.196899
20
380.276576
11
577.952860
21
380.048240
0
LINE
8
Calque 1
10
577.952860
20
380.048240
11
581.665010
21
378.673820
0
LINE
8
Calque 1
10
581.665010
20
378.673820
11
585.251670
21
377.502440
0
LINE
8
Calque 1
10
585.251670
20
377.502440
11
585.251000
21
376.127000
0
LINE
8
Calque 1
10
585.251000
20
376.127000
11
585.188848
21
375.116970
0
LINE
8
Calque 1
10
585.188848
20
375.116970
11
585.039380
21
374.620480
0
LINE
8
Calque 1
10
585.039380
20
374.620480
11
584.803780
21
374.666047
0
LINE
8
Calque 1
10
584.803780
20
374.666047
11
584.534520
21
374.959220
0
LINE
8
Calque 1
10
584.534520
20
374.959220
11
584.535220
21
374.958880
0
LINE
8
Calque 1
10
443.044220
20
384.074960
11
442.683625
21
384.570038
0
LINE
8
Calque 1
10
442.683625
20
384.570038
11
442.552680
21
385.303030
0
LINE
8
Calque 1
10
442.552680
20
385.303030
11
442.683625
21
386.036027
0
LINE
8
Calque 1
10
442.683625
20
386.036027
11
443.044220
21
386.531110
0
LINE
8
Calque 1
10
443.044220
20
386.531110
11
444.096080
21
386.890530
0
LINE
8
Calque 1
10
444.096080
20
386.890530
11
445.089360
21
386.559800
0
LINE
8
Calque 1
10
445.089360
20
386.559800
11
445.444991
21
386.119226
0
LINE
8
Calque 1
10
445.444991
20
386.119226
11
445.692030
21
385.524400
0
LINE
8
Calque 1
10
445.692030
20
385.524400
11
445.699630
21
384.853992
0
LINE
8
Calque 1
10
445.699630
20
384.853992
11
445.309640
21
384.267630
0
LINE
8
Calque 1
10
445.309640
20
384.267630
11
444.740269
21
383.877711
0
LINE
8
Calque 1
10
444.740269
20
383.877711
11
444.146650
21
383.715530
0
LINE
8
Calque 1
10
444.146650
20
383.715530
11
443.570820
21
383.821111
0
LINE
8
Calque 1
10
443.570820
20
383.821111
11
443.044220
21
384.074960
0
LINE
8
Calque 1
10
443.044220
20
384.074960
11
443.044220
21
384.074960
0
LINE
8
Calque 1
10
574.931220
20
388.173640
11
574.345521
21
388.989829
0
LINE
8
Calque 1
10
574.345521
20
388.989829
11
573.996080
21
389.893430
0
LINE
8
Calque 1
10
573.996080
20
389.893430
11
573.981780
21
391.749000
0
LINE
8
Calque 1
10
573.981780
20
391.749000
11
574.236994
21
392.501651
0
LINE
8
Calque 1
10
574.236994
20
392.501651
11
574.616220
21
393.061830
0
LINE
8
Calque 1
10
574.616220
20
393.061830
11
576.000110
21
393.861800
0
LINE
8
Calque 1
10
576.000110
20
393.861800
11
577.612225
21
394.227375
0
LINE
8
Calque 1
10
577.612225
20
394.227375
11
580.201380
21
394.577110
0
LINE
8
Calque 1
10
580.201380
20
394.577110
11
582.916369
21
394.950246
0
LINE
8
Calque 1
10
582.916369
20
394.950246
11
583.596038
21
395.159965
0
LINE
8
Calque 1
10
583.596038
20
395.159965
11
583.993740
21
395.423020
0
LINE
8
Calque 1
10
583.993740
20
395.423020
11
584.581670
21
395.842270
0
LINE
8
Calque 1
10
584.581670
20
395.842270
11
584.836000
21
394.034280
0
LINE
8
Calque 1
10
584.836000
20
394.034280
11
584.918896
21
392.665094
0
LINE
8
Calque 1
10
584.918896
20
392.665094
11
584.819967
21
392.594585
0
LINE
8
Calque 1
10
584.819967
20
392.594585
11
584.606190
21
392.821220
0
LINE
8
Calque 1
10
584.606190
20
392.821220
11
584.307399
21
393.101421
0
LINE
8
Calque 1
10
584.307399
20
393.101421
11
583.754810
21
393.191866
0
LINE
8
Calque 1
10
583.754810
20
393.191866
11
580.373440
21
392.793620
0
LINE
8
Calque 1
10
580.373440
20
392.793620
11
577.403732
21
392.284569
0
LINE
8
Calque 1
10
577.403732
20
392.284569
11
575.870500
21
391.817780
0
LINE
8
Calque 1
10
575.870500
20
391.817780
11
575.337085
21
391.261272
0
LINE
8
Calque 1
10
575.337085
20
391.261272
11
575.196670
21
390.382910
0
LINE
8
Calque 1
10
575.196670
20
390.382910
11
575.317661
21
389.508611
0
LINE
8
Calque 1
10
575.317661
20
389.508611
11
575.608550
21
388.801510
0
LINE
8
Calque 1
10
575.608550
20
388.801510
11
576.172135
21
388.338339
0
LINE
8
Calque 1
10
576.172135
20
388.338339
11
577.146720
21
388.213470
0
LINE
8
Calque 1
10
577.146720
20
388.213470
11
581.298910
21
388.612370
0
LINE
8
Calque 1
10
581.298910
20
388.612370
11
583.826911
21
389.041963
0
LINE
8
Calque 1
10
583.826911
20
389.041963
11
584.412003
21
389.272804
0
LINE
8
Calque 1
10
584.412003
20
389.272804
11
584.747130
21
389.570660
0
LINE
8
Calque 1
10
584.747130
20
389.570660
11
585.129037
21
389.966240
0
LINE
8
Calque 1
10
585.129037
20
389.966240
11
585.342450
21
389.679290
0
LINE
8
Calque 1
10
585.342450
20
389.679290
11
585.515420
21
388.283110
0
LINE
8
Calque 1
10
585.515420
20
388.283110
11
585.445872
21
387.528724
0
LINE
8
Calque 1
10
585.445872
20
387.528724
11
585.001940
21
387.802400
0
LINE
8
Calque 1
10
585.001940
20
387.802400
11
584.644908
21
388.050248
0
LINE
8
Calque 1
10
584.644908
20
388.050248
11
584.113995
21
388.137562
0
LINE
8
Calque 1
10
584.113995
20
388.137562
11
581.406700
21
387.843400
0
LINE
8
Calque 1
10
581.406700
20
387.843400
11
577.005040
21
387.419720
0
LINE
8
Calque 1
10
577.005040
20
387.419720
11
575.791517
21
387.561430
0
LINE
8
Calque 1
10
575.791517
20
387.561430
11
574.931200
21
388.173660
0
LINE
8
Calque 1
10
574.931200
20
388.173660
11
574.931220
21
388.173640
0
LINE
8
Calque 1
10
449.784220
20
391.502910
11
449.648207
21
391.810227
0
LINE
8
Calque 1
10
449.648207
20
391.810227
11
449.321200
21
392.016820
0
LINE
8
Calque 1
10
449.321200
20
392.016820
11
444.633460
21
392.977320
0
LINE
8
Calque 1
10
444.633460
20
392.977320
11
440.978784
21
393.614430
0
LINE
8
Calque 1
10
440.978784
20
393.614430
11
440.358802
21
393.577980
0
LINE
8
Calque 1
10
440.358802
20
393.577980
11
440.072130
21
393.342630
0
LINE
8
Calque 1
10
440.072130
20
393.342630
11
439.783711
21
393.068204
0
LINE
8
Calque 1
10
439.783711
20
393.068204
11
439.562950
21
393.054860
0
LINE
8
Calque 1
10
439.562950
20
393.054860
11
439.540465
21
393.644984
0
LINE
8
Calque 1
10
439.540465
20
393.644984
11
439.728670
21
394.821480
0
LINE
8
Calque 1
10
439.728670
20
394.821480
11
440.025199
21
395.947279
0
LINE
8
Calque 1
10
440.025199
20
395.947279
11
440.263100
21
396.415530
0
LINE
8
Calque 1
10
440.263100
20
396.415530
11
440.822260
21
395.919420
0
LINE
8
Calque 1
10
440.822260
20
395.919420
11
441.189251
21
395.647785
0
LINE
8
Calque 1
10
441.189251
20
395.647785
11
441.953577
21
395.380217
0
LINE
8
Calque 1
10
441.953577
20
395.380217
11
445.154010
21
394.724990
0
LINE
8
Calque 1
10
445.154010
20
394.724990
11
449.498810
21
394.030480
0
LINE
8
Calque 1
10
449.498810
20
394.030480
11
450.332430
21
394.448390
0
LINE
8
Calque 1
10
450.332430
20
394.448390
11
450.688400
21
394.677503
0
LINE
8
Calque 1
10
450.688400
20
394.677503
11
450.901660
21
394.646830
0
LINE
8
Calque 1
10
450.901660
20
394.646830
11
450.640410
21
392.777510
0
LINE
8
Calque 1
10
450.640410
20
392.777510
11
450.306069
21
391.609627
0
LINE
8
Calque 1
10
450.306069
20
391.609627
11
450.025870
21
391.123870
0
LINE
8
Calque 1
10
450.025870
20
391.123870
11
449.855204
21
391.235214
0
LINE
8
Calque 1
10
449.855204
20
391.235214
11
449.784220
21
391.502910
0
LINE
8
Calque 1
10
449.784220
20
391.502910
11
449.784220
21
391.502910
0
LINE
8
Calque 1
10
573.245220
20
395.654860
11
573.079860
21
396.842100
0
LINE
8
Calque 1
10
573.079860
20
396.842100
11
573.662771
21
397.575067
0
LINE
8
Calque 1
10
573.662771
20
397.575067
11
575.064240
21
398.831190
0
LINE
8
Calque 1
10
575.064240
20
398.831190
11
576.615906
21
400.246889
0
LINE
8
Calque 1
10
576.615906
20
400.246889
11
576.948358
21
400.720888
0
LINE
8
Calque 1
10
576.948358
20
400.720888
11
577.048610
21
401.111840
0
LINE
8
Calque 1
10
577.048610
20
401.111840
11
576.957037
21
401.581870
0
LINE
8
Calque 1
10
576.957037
20
401.581870
11
576.641920
21
401.607750
0
LINE
8
Calque 1
10
576.641920
20
401.607750
11
574.757720
21
401.022170
0
LINE
8
Calque 1
10
574.757720
20
401.022170
11
573.604874
21
400.572744
0
LINE
8
Calque 1
10
573.604874
20
400.572744
11
573.146340
21
400.080770
0
LINE
8
Calque 1
10
573.146340
20
400.080770
11
572.971949
21
399.745881
0
LINE
8
Calque 1
10
572.971949
20
399.745881
11
572.740610
21
399.659520
0
LINE
8
Calque 1
10
572.740610
20
399.659520
11
572.445242
21
400.069237
0
LINE
8
Calque 1
10
572.445242
20
400.069237
11
572.116860
21
400.927110
0
LINE
8
Calque 1
10
572.116860
20
400.927110
11
571.760960
21
402.623790
0
LINE
8
Calque 1
10
571.760960
20
402.623790
11
571.823581
21
402.992876
0
LINE
8
Calque 1
10
571.823581
20
402.992876
11
572.163830
21
402.736620
0
LINE
8
Calque 1
10
572.163830
20
402.736620
11
572.509316
21
402.553258
0
LINE
8
Calque 1
10
572.509316
20
402.553258
11
573.201891
21
402.585596
0
LINE
8
Calque 1
10
573.201891
20
402.585596
11
576.860190
21
403.496760
0
LINE
8
Calque 1
10
576.860190
20
403.496760
11
580.166400
21
404.494996
0
LINE
8
Calque 1
10
580.166400
20
404.494996
11
581.588940
21
405.169870
0
LINE
8
Calque 1
10
581.588940
20
405.169870
11
582.162210
21
405.675950
0
LINE
8
Calque 1
10
582.162210
20
405.675950
11
582.847400
21
403.328090
0
LINE
8
Calque 1
10
582.847400
20
403.328090
11
583.398610
21
400.430130
0
LINE
8
Calque 1
10
583.398610
20
400.430130
11
583.082510
21
399.186270
0
LINE
8
Calque 1
10
583.082510
20
399.186270
11
582.645104
21
398.585550
0
LINE
8
Calque 1
10
582.645104
20
398.585550
11
582.037320
21
398.115480
0
LINE
8
Calque 1
10
582.037320
20
398.115480
11
581.296866
21
397.849201
0
LINE
8
Calque 1
10
581.296866
20
397.849201
11
580.540460
21
397.738450
0
LINE
8
Calque 1
10
580.540460
20
397.738450
11
579.734140
21
397.919067
0
LINE
8
Calque 1
10
579.734140
20
397.919067
11
578.873670
21
398.353320
0
LINE
8
Calque 1
10
578.873670
20
398.353320
11
577.974650
21
398.968190
0
LINE
8
Calque 1
10
577.974650
20
398.968190
11
576.056420
21
397.262560
0
LINE
8
Calque 1
10
576.056420
20
397.262560
11
574.701672
21
395.950897
0
LINE
8
Calque 1
10
574.701672
20
395.950897
11
574.138190
21
395.192480
0
LINE
8
Calque 1
10
574.138190
20
395.192480
11
574.031324
21
394.935086
0
LINE
8
Calque 1
10
574.031324
20
394.935086
11
573.774390
21
394.828030
0
LINE
8
Calque 1
10
573.774390
20
394.828030
11
573.468881
21
395.070910
0
LINE
8
Calque 1
10
573.468881
20
395.070910
11
573.245220
21
395.654860
0
LINE
8
Calque 1
10
573.245220
20
395.654860
11
573.245220
21
395.654860
0
LINE
8
Calque 1
10
581.821850
20
400.261710
11
582.208917
21
400.865814
0
LINE
8
Calque 1
10
582.208917
20
400.865814
11
582.340280
21
401.732590
0
LINE
8
Calque 1
10
582.340280
20
401.732590
11
582.267057
21
402.485304
0
LINE
8
Calque 1
10
582.267057
20
402.485304
11
582.091010
21
402.888360
0
LINE
8
Calque 1
10
582.091010
20
402.888360
11
581.327557
21
402.824330
0
LINE
8
Calque 1
10
581.327557
20
402.824330
11
579.842050
21
402.454090
0
LINE
8
Calque 1
10
579.842050
20
402.454090
11
578.189851
21
401.862275
0
LINE
8
Calque 1
10
578.189851
20
401.862275
11
577.910179
21
401.595650
0
LINE
8
Calque 1
10
577.910179
20
401.595650
11
577.842360
21
401.257320
0
LINE
8
Calque 1
10
577.842360
20
401.257320
11
578.006886
21
400.663070
0
LINE
8
Calque 1
10
578.006886
20
400.663070
11
578.402450
21
400.088770
0
LINE
8
Calque 1
10
578.402450
20
400.088770
11
579.082019
21
399.664150
0
LINE
8
Calque 1
10
579.082019
20
399.664150
11
580.132980
21
399.660610
0
LINE
8
Calque 1
10
580.132980
20
399.660610
11
581.111890
21
399.891616
0
LINE
8
Calque 1
10
581.111890
20
399.891616
11
581.821850
21
400.261710
0
LINE
8
Calque 1
10
581.821850
20
400.261710
11
581.821850
21
400.261710
0
LINE
8
Calque 1
10
450.577850
20
396.096800
11
450.383696
21
396.551315
0
LINE
8
Calque 1
10
450.383696
20
396.551315
11
449.850250
21
396.892940
0
LINE
8
Calque 1
10
449.850250
20
396.892940
11
445.369890
21
398.341110
0
LINE
8
Calque 1
10
445.369890
20
398.341110
11
442.159195
21
399.256292
0
LINE
8
Calque 1
10
442.159195
20
399.256292
11
441.538733
21
399.288467
0
LINE
8
Calque 1
10
441.538733
20
399.288467
11
441.209000
21
399.104120
0
LINE
8
Calque 1
10
441.209000
20
399.104120
11
440.874294
21
398.862344
0
LINE
8
Calque 1
10
440.874294
20
398.862344
11
440.642690
21
398.854170
0
LINE
8
Calque 1
10
440.642690
20
398.854170
11
440.670859
21
399.359759
0
LINE
8
Calque 1
10
440.670859
20
399.359759
11
440.960740
21
400.353200
0
LINE
8
Calque 1
10
440.960740
20
400.353200
11
441.436980
21
401.694060
0
LINE
8
Calque 1
10
441.436980
20
401.694060
11
445.412100
21
401.766760
0
LINE
8
Calque 1
10
445.412100
20
401.766760
11
449.387230
21
401.839460
0
LINE
8
Calque 1
10
449.387230
20
401.839460
11
446.344520
21
403.926550
0
LINE
8
Calque 1
10
446.344520
20
403.926550
11
443.071850
21
406.220260
0
LINE
8
Calque 1
10
443.071850
20
406.220260
11
443.001696
21
406.756010
0
LINE
8
Calque 1
10
443.001696
20
406.756010
11
443.164350
21
407.771190
0
LINE
8
Calque 1
10
443.164350
20
407.771190
11
443.450205
21
408.720609
0
LINE
8
Calque 1
10
443.450205
20
408.720609
11
443.684610
21
409.115500
0
LINE
8
Calque 1
10
443.684610
20
409.115500
11
444.130450
21
408.559520
0
LINE
8
Calque 1
10
444.130450
20
408.559520
11
444.433691
21
408.234577
0
LINE
8
Calque 1
10
444.433691
20
408.234577
11
445.150320
21
407.880386
0
LINE
8
Calque 1
10
445.150320
20
407.880386
11
448.435940
21
406.839730
0
LINE
8
Calque 1
10
448.435940
20
406.839730
11
452.968740
21
405.675920
0
LINE
8
Calque 1
10
452.968740
20
405.675920
11
453.339186
21
405.773072
0
LINE
8
Calque 1
10
453.339186
20
405.773072
11
453.562250
21
406.006650
0
LINE
8
Calque 1
10
453.562250
20
406.006650
11
453.707021
21
406.183051
0
LINE
8
Calque 1
10
453.707021
20
406.183051
11
453.889180
21
406.142740
0
LINE
8
Calque 1
10
453.889180
20
406.142740
11
453.899656
21
405.498974
0
LINE
8
Calque 1
10
453.899656
20
405.498974
11
453.631440
21
404.224510
0
LINE
8
Calque 1
10
453.631440
20
404.224510
11
453.238246
21
403.007223
0
LINE
8
Calque 1
10
453.238246
20
403.007223
11
452.948080
21
402.500920
0
LINE
8
Calque 1
10
452.948080
20
402.500920
11
452.770132
21
402.668925
0
LINE
8
Calque 1
10
452.770132
20
402.668925
11
452.646740
21
403.072850
0
LINE
8
Calque 1
10
452.646740
20
403.072850
11
452.470478
21
403.408968
0
LINE
8
Calque 1
10
452.470478
20
403.408968
11
451.925705
21
403.748828
0
LINE
8
Calque 1
10
451.925705
20
403.748828
11
448.990310
21
404.786770
0
LINE
8
Calque 1
10
448.990310
20
404.786770
11
445.191420
21
405.934630
0
LINE
8
Calque 1
10
445.191420
20
405.934630
11
446.127575
21
405.159305
0
LINE
8
Calque 1
10
446.127575
20
405.159305
11
448.697140
21
403.287270
0
LINE
8
Calque 1
10
448.697140
20
403.287270
11
451.333402
21
401.339716
0
LINE
8
Calque 1
10
451.333402
20
401.339716
11
452.429900
21
400.383100
0
LINE
8
Calque 1
10
452.429900
20
400.383100
11
451.141619
21
400.182559
0
LINE
8
Calque 1
10
451.141619
20
400.182559
11
447.865830
21
400.059770
0
LINE
8
Calque 1
10
447.865830
20
400.059770
11
443.301770
21
399.987370
0
LINE
8
Calque 1
10
443.301770
20
399.987370
11
447.005940
21
398.752690
0
LINE
8
Calque 1
10
447.005940
20
398.752690
11
450.710100
21
397.518020
0
LINE
8
Calque 1
10
450.710100
20
397.518020
11
451.155030
21
398.087280
0
LINE
8
Calque 1
10
451.155030
20
398.087280
11
451.526916
21
398.431667
0
LINE
8
Calque 1
10
451.526916
20
398.431667
11
451.796240
21
398.460260
0
LINE
8
Calque 1
10
451.796240
20
398.460260
11
451.822155
21
397.958785
0
LINE
8
Calque 1
10
451.822155
20
397.958785
11
451.608910
21
397.028730
0
LINE
8
Calque 1
10
451.608910
20
397.028730
11
451.242881
21
396.124630
0
LINE
8
Calque 1
10
451.242881
20
396.124630
11
450.901550
21
395.685560
0
LINE
8
Calque 1
10
450.901550
20
395.685560
11
450.671456
21
395.759040
0
LINE
8
Calque 1
10
450.671456
20
395.759040
11
450.577810
21
396.096760
0
LINE
8
Calque 1
10
450.577810
20
396.096760
11
450.577850
21
396.096800
0
LINE
8
Calque 1
10
570.679850
20
405.782620
11
569.876991
21
406.546597
0
LINE
8
Calque 1
10
569.876991
20
406.546597
11
569.260710
21
407.490500
0
LINE
8
Calque 1
10
569.260710
20
407.490500
11
568.920479
21
408.621537
0
LINE
8
Calque 1
10
568.920479
20
408.621537
11
568.904480
21
409.886210
0
LINE
8
Calque 1
10
568.904480
20
409.886210
11
569.171636
21
411.098705
0
LINE
8
Calque 1
10
569.171636
20
411.098705
11
569.708350
21
412.097060
0
LINE
8
Calque 1
10
569.708350
20
412.097060
11
570.666190
21
412.979435
0
LINE
8
Calque 1
10
570.666190
20
412.979435
11
572.018860
21
413.855060
0
LINE
8
Calque 1
10
572.018860
20
413.855060
11
573.619479
21
414.541027
0
LINE
8
Calque 1
10
573.619479
20
414.541027
11
575.152410
21
414.850330
0
LINE
8
Calque 1
10
575.152410
20
414.850330
11
576.587734
21
414.829916
0
LINE
8
Calque 1
10
576.587734
20
414.829916
11
577.823160
21
414.360260
0
LINE
8
Calque 1
10
577.823160
20
414.360260
11
578.808689
21
413.662905
0
LINE
8
Calque 1
10
578.808689
20
413.662905
11
579.476810
21
412.823830
0
LINE
8
Calque 1
10
579.476810
20
412.823830
11
579.820342
21
411.800445
0
LINE
8
Calque 1
10
579.820342
20
411.800445
11
579.959410
21
410.627870
0
LINE
8
Calque 1
10
579.959410
20
410.627870
11
579.845619
21
409.508035
0
LINE
8
Calque 1
10
579.845619
20
409.508035
11
579.572040
21
408.604740
0
LINE
8
Calque 1
10
579.572040
20
408.604740
11
579.043066
21
407.860071
0
LINE
8
Calque 1
10
579.043066
20
407.860071
11
578.315260
21
407.121620
0
LINE
8
Calque 1
10
578.315260
20
407.121620
11
576.122950
21
405.769770
0
LINE
8
Calque 1
10
576.122950
20
405.769770
11
574.735781
21
405.298725
0
LINE
8
Calque 1
10
574.735781
20
405.298725
11
573.207800
21
405.149370
0
LINE
8
Calque 1
10
573.207800
20
405.149370
11
571.750846
21
405.278337
0
LINE
8
Calque 1
10
571.750846
20
405.278337
11
570.679850
21
405.782620
0
LINE
8
Calque 1
10
570.679850
20
405.782620
11
570.679850
21
405.782620
0
LINE
8
Calque 1
10
575.356780
20
407.680560
11
576.995022
21
408.625959
0
LINE
8
Calque 1
10
576.995022
20
408.625959
11
578.228010
21
409.666690
0
LINE
8
Calque 1
10
578.228010
20
409.666690
11
579.009022
21
410.715185
0
LINE
8
Calque 1
10
579.009022
20
410.715185
11
579.104641
21
411.127086
0
LINE
8
Calque 1
10
579.104641
20
411.127086
11
579.059520
21
411.593520
0
LINE
8
Calque 1
10
579.059520
20
411.593520
11
578.782680
21
412.315227
0
LINE
8
Calque 1
10
578.782680
20
412.315227
11
578.341800
21
412.885840
0
LINE
8
Calque 1
10
578.341800
20
412.885840
11
577.638221
21
413.220299
0
LINE
8
Calque 1
10
577.638221
20
413.220299
11
576.688950
21
413.338240
0
LINE
8
Calque 1
10
576.688950
20
413.338240
11
575.507639
21
413.154588
0
LINE
8
Calque 1
10
575.507639
20
413.154588
11
574.205360
21
412.728160
0
LINE
8
Calque 1
10
574.205360
20
412.728160
11
571.609760
21
411.277820
0
LINE
8
Calque 1
10
571.609760
20
411.277820
11
570.632782
21
410.403974
0
LINE
8
Calque 1
10
570.632782
20
410.403974
11
570.013000
21
409.494510
0
LINE
8
Calque 1
10
570.013000
20
409.494510
11
569.761062
21
408.604525
0
LINE
8
Calque 1
10
569.761062
20
408.604525
11
569.962800
21
407.854370
0
LINE
8
Calque 1
10
569.962800
20
407.854370
11
570.396765
21
407.256346
0
LINE
8
Calque 1
10
570.396765
20
407.256346
11
570.963600
21
406.812380
0
LINE
8
Calque 1
10
570.963600
20
406.812380
11
571.699784
21
406.616830
0
LINE
8
Calque 1
10
571.699784
20
406.616830
11
572.551100
21
406.635030
0
LINE
8
Calque 1
10
572.551100
20
406.635030
11
575.356810
21
407.680560
0
LINE
8
Calque 1
10
575.356810
20
407.680560
11
575.356780
21
407.680560
0
LINE
8
Calque 1
10
454.362000
20
407.354000
11
454.324200
21
407.974790
0
LINE
8
Calque 1
10
454.324200
20
407.974790
11
450.336870
21
410.290360
0
LINE
8
Calque 1
10
450.336870
20
410.290360
11
447.143740
21
411.894401
0
LINE
8
Calque 1
10
447.143740
20
411.894401
11
446.311769
21
412.171834
0
LINE
8
Calque 1
10
446.311769
20
412.171834
11
445.772810
21
412.189730
0
LINE
8
Calque 1
10
445.772810
20
412.189730
11
445.022110
21
412.135430
0
LINE
8
Calque 1
10
445.022110
20
412.135430
11
446.232390
21
414.506310
0
LINE
8
Calque 1
10
446.232390
20
414.506310
11
447.286156
21
416.269631
0
LINE
8
Calque 1
10
447.286156
20
416.269631
11
448.120150
21
417.314310
0
LINE
8
Calque 1
10
448.120150
20
417.314310
11
448.868630
21
417.694547
0
LINE
8
Calque 1
10
448.868630
20
417.694547
11
449.722920
21
417.847220
0
LINE
8
Calque 1
10
449.722920
20
417.847220
11
450.629890
21
417.690554
0
LINE
8
Calque 1
10
450.629890
20
417.690554
11
451.511150
21
417.313890
0
LINE
8
Calque 1
10
451.511150
20
417.313890
11
452.254885
21
416.654271
0
LINE
8
Calque 1
10
452.254885
20
416.654271
11
452.831190
21
415.817330
0
LINE
8
Calque 1
10
452.831190
20
415.817330
11
453.153919
21
414.793190
0
LINE
8
Calque 1
10
453.153919
20
414.793190
11
452.897490
21
413.506400
0
LINE
8
Calque 1
10
452.897490
20
413.506400
11
452.402430
21
411.775890
0
LINE
8
Calque 1
10
452.402430
20
411.775890
11
452.699723
21
411.289069
0
LINE
8
Calque 1
10
452.699723
20
411.289069
11
453.727590
21
410.613000
0
LINE
8
Calque 1
10
453.727590
20
410.613000
11
454.988106
21
410.036279
0
LINE
8
Calque 1
10
454.988106
20
410.036279
11
455.354336
21
410.019662
0
LINE
8
Calque 1
10
455.354336
20
410.019662
11
455.671580
21
410.154230
0
LINE
8
Calque 1
10
455.671580
20
410.154230
11
456.296640
21
410.365020
0
LINE
8
Calque 1
10
456.296640
20
410.365020
11
455.675570
21
408.635640
0
LINE
8
Calque 1
10
455.675570
20
408.635640
11
455.053400
21
407.489764
0
LINE
8
Calque 1
10
455.053400
20
407.489764
11
454.584920
21
407.008050
0
LINE
8
Calque 1
10
454.584920
20
407.008050
11
454.371336
21
407.106002
0
LINE
8
Calque 1
10
454.371336
20
407.106002
11
454.362000
21
407.354030
0
LINE
8
Calque 1
10
454.362000
20
407.354030
11
454.362000
21
407.354000
0
LINE
8
Calque 1
10
452.013950
20
413.153190
11
452.109855
21
414.084308
0
LINE
8
Calque 1
10
452.109855
20
414.084308
11
451.643350
21
414.797370
0
LINE
8
Calque 1
10
451.643350
20
414.797370
11
450.879093
21
415.385982
0
LINE
8
Calque 1
10
450.879093
20
415.385982
11
449.906050
21
415.881010
0
LINE
8
Calque 1
10
449.906050
20
415.881010
11
448.902869
21
416.157499
0
LINE
8
Calque 1
10
448.902869
20
416.157499
11
448.228870
21
416.012120
0
LINE
8
Calque 1
10
448.228870
20
416.012120
11
447.717980
21
415.572847
0
LINE
8
Calque 1
10
447.717980
20
415.572847
11
447.269700
21
414.934180
0
LINE
8
Calque 1
10
447.269700
20
414.934180
11
446.866010
21
414.153530
0
LINE
8
Calque 1
10
446.866010
20
414.153530
11
448.920610
21
413.099790
0
LINE
8
Calque 1
10
448.920610
20
413.099790
11
450.488251
21
412.372956
0
LINE
8
Calque 1
10
450.488251
20
412.372956
11
451.372080
21
412.105160
0
LINE
8
Calque 1
10
451.372080
20
412.105160
11
451.724339
21
412.437396
0
LINE
8
Calque 1
10
451.724339
20
412.437396
11
452.013950
21
413.153190
0
LINE
8
Calque 1
10
452.013950
20
413.153190
11
452.013950
21
413.153190
0
LINE
8
Calque 1
10
565.427950
20
415.032460
11
564.613250
21
416.627670
0
LINE
8
Calque 1
10
564.613250
20
416.627670
11
565.208570
21
416.661470
0
LINE
8
Calque 1
10
565.208570
20
416.661470
11
565.664095
21
416.713615
0
LINE
8
Calque 1
10
565.664095
20
416.713615
11
566.425286
21
417.046556
0
LINE
8
Calque 1
10
566.425286
20
417.046556
11
569.158420
21
418.706950
0
LINE
8
Calque 1
10
569.158420
20
418.706950
11
572.994880
21
421.193340
0
LINE
8
Calque 1
10
572.994880
20
421.193340
11
573.339964
21
421.566371
0
LINE
8
Calque 1
10
573.339964
20
421.566371
11
573.071480
21
422.251680
0
LINE
8
Calque 1
10
573.071480
20
422.251680
11
572.498843
21
422.892456
0
LINE
8
Calque 1
10
572.498843
20
422.892456
11
571.351690
21
423.141320
0
LINE
8
Calque 1
10
571.351690
20
423.141320
11
570.037190
21
423.276030
0
LINE
8
Calque 1
10
570.037190
20
423.276030
11
571.151130
21
423.868930
0
LINE
8
Calque 1
10
571.151130
20
423.868930
11
572.516840
21
424.461820
0
LINE
8
Calque 1
10
572.516840
20
424.461820
11
573.284426
21
423.524974
0
LINE
8
Calque 1
10
573.284426
20
423.524974
11
574.776340
21
421.272560
0
LINE
8
Calque 1
10
574.776340
20
421.272560
11
576.764960
21
417.899120
0
LINE
8
Calque 1
10
576.764960
20
417.899120
11
575.845930
21
416.967400
0
LINE
8
Calque 1
10
575.845930
20
416.967400
11
575.131296
21
416.488303
0
LINE
8
Calque 1
10
575.131296
20
416.488303
11
574.676890
21
416.386170
0
LINE
8
Calque 1
10
574.676890
20
416.386170
11
574.633680
21
416.714409
0
LINE
8
Calque 1
10
574.633680
20
416.714409
11
574.972910
21
417.316840
0
LINE
8
Calque 1
10
574.972910
20
417.316840
11
575.387875
21
418.089590
0
LINE
8
Calque 1
10
575.387875
20
418.089590
11
575.200560
21
418.895940
0
LINE
8
Calque 1
10
575.200560
20
418.895940
11
574.621600
21
419.859920
0
LINE
8
Calque 1
10
574.621600
20
419.859920
11
573.463442
21
419.325767
0
LINE
8
Calque 1
10
573.463442
20
419.325767
11
571.018030
21
417.831930
0
LINE
8
Calque 1
10
571.018030
20
417.831930
11
567.035650
21
415.273290
0
LINE
8
Calque 1
10
567.035650
20
415.273290
11
566.603192
21
414.860686
0
LINE
8
Calque 1
10
566.603192
20
414.860686
11
566.547790
21
414.385450
0
LINE
8
Calque 1
10
566.547790
20
414.385450
11
566.577040
21
413.988061
0
LINE
8
Calque 1
10
566.577040
20
413.988061
11
566.461390
21
413.743800
0
LINE
8
Calque 1
10
566.461390
20
413.743800
11
566.067547
21
414.066566
0
LINE
8
Calque 1
10
566.067547
20
414.066566
11
565.427900
21
415.032510
0
LINE
8
Calque 1
10
565.427900
20
415.032510
11
565.427950
21
415.032460
0
LINE
8
Calque 1
10
458.514950
20
415.181490
11
458.344085
21
415.526943
0
LINE
8
Calque 1
10
458.344085
20
415.526943
11
457.822288
21
416.048874
0
LINE
8
Calque 1
10
457.822288
20
416.048874
11
455.670680
21
417.670480
0
LINE
8
Calque 1
10
455.670680
20
417.670480
11
451.900370
21
420.347770
0
LINE
8
Calque 1
10
451.900370
20
420.347770
11
451.056190
21
420.835845
0
LINE
8
Calque 1
10
451.056190
20
420.835845
11
450.379020
21
420.896450
0
LINE
8
Calque 1
10
450.379020
20
420.896450
11
449.952337
21
420.871321
0
LINE
8
Calque 1
10
449.952337
20
420.871321
11
449.783700
21
421.035620
0
LINE
8
Calque 1
10
449.783700
20
421.035620
11
450.627040
21
422.562020
0
LINE
8
Calque 1
10
450.627040
20
422.562020
11
452.488060
21
425.190190
0
LINE
8
Calque 1
10
452.488060
20
425.190190
11
453.505760
21
426.580070
0
LINE
8
Calque 1
10
453.505760
20
426.580070
11
454.555150
21
426.044710
0
LINE
8
Calque 1
10
454.555150
20
426.044710
11
455.296280
21
425.581970
0
LINE
8
Calque 1
10
455.296280
20
425.581970
11
455.604540
21
425.221200
0
LINE
8
Calque 1
10
455.604540
20
425.221200
11
455.346054
21
425.041739
0
LINE
8
Calque 1
10
455.346054
20
425.041739
11
454.655890
21
425.043800
0
LINE
8
Calque 1
10
454.655890
20
425.043800
11
454.124647
21
425.068948
0
LINE
8
Calque 1
10
454.124647
20
425.068948
11
453.714843
21
424.958635
0
LINE
8
Calque 1
10
453.714843
20
424.958635
11
452.803810
21
424.099080
0
LINE
8
Calque 1
10
452.803810
20
424.099080
11
451.903500
21
422.760500
0
LINE
8
Calque 1
10
451.903500
20
422.760500
11
452.325694
21
422.269109
0
LINE
8
Calque 1
10
452.325694
20
422.269109
11
453.336000
21
421.485210
0
LINE
8
Calque 1
10
453.336000
20
421.485210
11
455.056550
21
420.493020
0
LINE
8
Calque 1
10
455.056550
20
420.493020
11
455.411831
21
420.739071
0
LINE
8
Calque 1
10
455.411831
20
420.739071
11
455.857120
21
421.330640
0
LINE
8
Calque 1
10
455.857120
20
421.330640
11
456.223003
21
422.154229
0
LINE
8
Calque 1
10
456.223003
20
422.154229
11
455.978730
21
422.918140
0
LINE
8
Calque 1
10
455.978730
20
422.918140
11
455.779615
21
423.451780
0
LINE
8
Calque 1
10
455.779615
20
423.451780
11
455.857430
21
423.668020
0
LINE
8
Calque 1
10
455.857430
20
423.668020
11
457.303060
21
422.808130
0
LINE
8
Calque 1
10
457.303060
20
422.808130
11
458.498570
21
421.749800
0
LINE
8
Calque 1
10
458.498570
20
421.749800
11
458.282264
21
421.609649
0
LINE
8
Calque 1
10
458.282264
20
421.609649
11
457.739220
21
421.551360
0
LINE
8
Calque 1
10
457.739220
20
421.551360
11
457.016526
21
421.373033
0
LINE
8
Calque 1
10
457.016526
20
421.373033
11
456.416300
21
420.782910
0
LINE
8
Calque 1
10
456.416300
20
420.782910
11
455.869120
21
419.888660
0
LINE
8
Calque 1
10
455.869120
20
419.888660
11
457.323610
21
418.664700
0
LINE
8
Calque 1
10
457.323610
20
418.664700
11
459.188400
21
417.409100
0
LINE
8
Calque 1
10
459.188400
20
417.409100
11
459.592969
21
417.437495
0
LINE
8
Calque 1
10
459.592969
20
417.437495
11
459.988830
21
417.747860
0
LINE
8
Calque 1
10
459.988830
20
417.747860
11
460.885670
21
419.193380
0
LINE
8
Calque 1
10
460.885670
20
419.193380
11
461.259688
21
420.128856
0
LINE
8
Calque 1
10
461.259688
20
420.128856
11
460.879670
21
420.985710
0
LINE
8
Calque 1
10
460.879670
20
420.985710
11
460.367000
21
421.954630
0
LINE
8
Calque 1
10
460.367000
20
421.954630
11
460.711970
21
422.080520
0
LINE
8
Calque 1
10
460.711970
20
422.080520
11
461.211263
21
421.816751
0
LINE
8
Calque 1
10
461.211263
20
421.816751
11
461.927260
21
421.182580
0
LINE
8
Calque 1
10
461.927260
20
421.182580
11
462.797580
21
420.284640
0
LINE
8
Calque 1
10
462.797580
20
420.284640
11
460.865870
21
417.478420
0
LINE
8
Calque 1
10
460.865870
20
417.478420
11
458.724530
21
414.672190
0
LINE
8
Calque 1
10
458.724530
20
414.672190
11
458.576486
21
414.821799
0
LINE
8
Calque 1
10
458.576486
20
414.821799
11
458.514910
21
415.181490
0
LINE
8
Calque 1
10
458.514910
20
415.181490
11
458.514950
21
415.181490
0
LINE
8
Calque 1
10
561.377950
20
420.674430
11
560.621411
21
421.464790
0
LINE
8
Calque 1
10
560.621411
20
421.464790
11
559.815530
21
422.715140
0
LINE
8
Calque 1
10
559.815530
20
422.715140
11
558.974510
21
424.293050
0
LINE
8
Calque 1
10
558.974510
20
424.293050
11
560.007760
21
425.167230
0
LINE
8
Calque 1
10
560.007760
20
425.167230
11
561.239450
21
426.045340
0
LINE
8
Calque 1
10
561.239450
20
426.045340
11
561.437880
21
425.684800
0
LINE
8
Calque 1
10
561.437880
20
425.684800
11
561.041010
21
424.990940
0
LINE
8
Calque 1
10
561.041010
20
424.990940
11
560.756560
21
424.460836
0
LINE
8
Calque 1
10
560.756560
20
424.460836
11
560.644130
21
423.623600
0
LINE
8
Calque 1
10
560.644130
20
423.623600
11
560.793050
21
422.674729
0
LINE
8
Calque 1
10
560.793050
20
422.674729
11
561.293570
21
421.936210
0
LINE
8
Calque 1
10
561.293570
20
421.936210
11
561.878319
21
421.477544
0
LINE
8
Calque 1
10
561.878319
20
421.477544
11
562.372250
21
421.286770
0
LINE
8
Calque 1
10
562.372250
20
421.286770
11
562.909730
21
421.521091
0
LINE
8
Calque 1
10
562.909730
20
421.521091
11
563.599190
21
422.084460
0
LINE
8
Calque 1
10
563.599190
20
422.084460
11
564.039699
21
422.560627
0
LINE
8
Calque 1
10
564.039699
20
422.560627
11
564.251745
21
422.965891
0
LINE
8
Calque 1
10
564.251745
20
422.965891
11
564.176530
21
424.267270
0
LINE
8
Calque 1
10
564.176530
20
424.267270
11
563.984260
21
426.731720
0
LINE
8
Calque 1
10
563.984260
20
426.731720
11
564.142685
21
427.705535
0
LINE
8
Calque 1
10
564.142685
20
427.705535
11
564.484200
21
428.531180
0
LINE
8
Calque 1
10
564.484200
20
428.531180
11
565.035206
21
429.152390
0
LINE
8
Calque 1
10
565.035206
20
429.152390
11
565.697370
21
429.634670
0
LINE
8
Calque 1
10
565.697370
20
429.634670
11
566.438516
21
429.904904
0
LINE
8
Calque 1
10
566.438516
20
429.904904
11
567.179430
21
430.016280
0
LINE
8
Calque 1
10
567.179430
20
430.016280
11
567.935254
21
429.861671
0
LINE
8
Calque 1
10
567.935254
20
429.861671
11
568.712250
21
429.492450
0
LINE
8
Calque 1
10
568.712250
20
429.492450
11
569.476726
21
428.739928
0
LINE
8
Calque 1
10
569.476726
20
428.739928
11
570.202450
21
427.663810
0
LINE
8
Calque 1
10
570.202450
20
427.663810
11
570.900570
21
426.357260
0
LINE
8
Calque 1
10
570.900570
20
426.357260
11
570.009650
21
425.493750
0
LINE
8
Calque 1
10
570.009650
20
425.493750
11
569.327784
21
424.936544
0
LINE
8
Calque 1
10
569.327784
20
424.936544
11
568.939490
21
424.809470
0
LINE
8
Calque 1
10
568.939490
20
424.809470
11
568.903256
21
425.134352
0
LINE
8
Calque 1
10
568.903256
20
425.134352
11
569.067820
21
425.663730
0
LINE
8
Calque 1
10
569.067820
20
425.663730
11
569.375380
21
426.999790
0
LINE
8
Calque 1
10
569.375380
20
426.999790
11
569.179786
21
427.662246
0
LINE
8
Calque 1
10
569.179786
20
427.662246
11
568.709520
21
428.326690
0
LINE
8
Calque 1
10
568.709520
20
428.326690
11
568.060754
21
428.801525
0
LINE
8
Calque 1
10
568.060754
20
428.801525
11
567.452750
21
428.820840
0
LINE
8
Calque 1
10
567.452750
20
428.820840
11
566.894243
21
428.535903
0
LINE
8
Calque 1
10
566.894243
20
428.535903
11
566.381230
21
428.091920
0
LINE
8
Calque 1
10
566.381230
20
428.091920
11
566.133400
21
427.714788
0
LINE
8
Calque 1
10
566.133400
20
427.714788
11
566.012991
21
427.194302
0
LINE
8
Calque 1
10
566.012991
20
427.194302
11
566.082400
21
424.970820
0
LINE
8
Calque 1
10
566.082400
20
424.970820
11
566.264170
21
422.406940
0
LINE
8
Calque 1
10
566.264170
20
422.406940
11
565.363290
21
421.423910
0
LINE
8
Calque 1
10
565.363290
20
421.423910
11
564.406629
21
420.613505
0
LINE
8
Calque 1
10
564.406629
20
420.613505
11
563.280880
21
420.326270
0
LINE
8
Calque 1
10
563.280880
20
420.326270
11
562.208185
21
420.348228
0
LINE
8
Calque 1
10
562.208185
20
420.348228
11
561.377950
21
420.674430
0
LINE
8
Calque 1
10
561.377950
20
420.674430
11
561.377950
21
420.674430
0
LINE
8
Calque 1
10
463.095350
20
421.917770
11
462.963934
21
422.371898
0
LINE
8
Calque 1
10
462.963934
20
422.371898
11
462.439755
21
423.076629
0
LINE
8
Calque 1
10
462.439755
20
423.076629
11
459.783610
21
425.732570
0
LINE
8
Calque 1
10
459.783610
20
425.732570
11
457.011475
21
428.221457
0
LINE
8
Calque 1
10
457.011475
20
428.221457
11
456.301066
21
428.693300
0
LINE
8
Calque 1
10
456.301066
20
428.693300
11
455.881000
21
428.774880
0
LINE
8
Calque 1
10
455.881000
20
428.774880
11
455.498886
21
428.744405
0
LINE
8
Calque 1
10
455.498886
20
428.744405
11
455.339950
21
428.869780
0
LINE
8
Calque 1
10
455.339950
20
428.869780
11
457.134520
21
430.886990
0
LINE
8
Calque 1
10
457.134520
20
430.886990
11
458.674735
21
432.241761
0
LINE
8
Calque 1
10
458.674735
20
432.241761
11
459.811600
21
432.920910
0
LINE
8
Calque 1
10
459.811600
20
432.920910
11
460.692230
21
433.033395
0
LINE
8
Calque 1
10
460.692230
20
433.033395
11
461.568330
21
432.808740
0
LINE
8
Calque 1
10
461.568330
20
432.808740
11
462.316318
21
432.351491
0
LINE
8
Calque 1
10
462.316318
20
432.351491
11
462.887050
21
431.765070
0
LINE
8
Calque 1
10
462.887050
20
431.765070
11
463.198404
21
430.959001
0
LINE
8
Calque 1
10
463.198404
20
430.959001
11
463.236450
21
429.890890
0
LINE
8
Calque 1
10
463.236450
20
429.890890
11
463.247596
21
428.898612
0
LINE
8
Calque 1
10
463.247596
20
428.898612
11
463.395175
21
428.735512
0
LINE
8
Calque 1
10
463.395175
20
428.735512
11
463.672420
21
428.698680
0
LINE
8
Calque 1
10
463.672420
20
428.698680
11
466.387100
21
428.129230
0
LINE
8
Calque 1
10
466.387100
20
428.129230
11
468.342550
21
427.701099
0
LINE
8
Calque 1
10
468.342550
20
427.701099
11
468.756617
21
427.776535
0
LINE
8
Calque 1
10
468.756617
20
427.776535
11
469.099080
21
428.034330
0
LINE
8
Calque 1
10
469.099080
20
428.034330
11
469.627450
21
428.751440
0
LINE
8
Calque 1
10
469.627450
20
428.751440
11
466.566150
21
432.558820
0
LINE
8
Calque 1
10
466.566150
20
432.558820
11
464.012769
21
435.384412
0
LINE
8
Calque 1
10
464.012769
20
435.384412
11
463.379800
21
435.890426
0
LINE
8
Calque 1
10
463.379800
20
435.890426
11
462.994270
21
435.965210
0
LINE
8
Calque 1
10
462.994270
20
435.965210
11
462.633681
21
435.927697
0
LINE
8
Calque 1
10
462.633681
20
435.927697
11
462.483700
21
436.065010
0
LINE
8
Calque 1
10
462.483700
20
436.065010
11
463.740470
21
437.404040
0
LINE
8
Calque 1
10
463.740470
20
437.404040
11
465.168550
21
438.482960
0
LINE
8
Calque 1
10
465.168550
20
438.482960
11
465.300840
21
437.701420
0
LINE
8
Calque 1
10
465.300840
20
437.701420
11
465.398751
21
437.171491
0
LINE
8
Calque 1
10
465.398751
20
437.171491
11
465.813895
21
436.423745
0
LINE
8
Calque 1
10
465.813895
20
436.423745
11
468.039950
21
433.611870
0
LINE
8
Calque 1
10
468.039950
20
433.611870
11
470.466641
21
430.888004
0
LINE
8
Calque 1
10
470.466641
20
430.888004
11
471.101780
21
430.413375
0
LINE
8
Calque 1
10
471.101780
20
430.413375
11
471.611830
21
430.287980
0
LINE
8
Calque 1
10
471.611830
20
430.287980
11
472.012108
21
430.234629
0
LINE
8
Calque 1
10
472.012108
20
430.234629
11
471.984115
21
429.982074
0
LINE
8
Calque 1
10
471.984115
20
429.982074
11
470.156620
21
428.171330
0
LINE
8
Calque 1
10
470.156620
20
428.171330
11
468.291783
21
426.578354
0
LINE
8
Calque 1
10
468.291783
20
426.578354
11
467.246200
21
426.064740
0
LINE
8
Calque 1
10
467.246200
20
426.064740
11
464.475240
21
426.712400
0
LINE
8
Calque 1
10
464.475240
20
426.712400
11
462.639129
21
427.196294
0
LINE
8
Calque 1
10
462.639129
20
427.196294
11
462.240125
21
427.157845
0
LINE
8
Calque 1
10
462.240125
20
427.157845
11
461.961700
21
426.954150
0
LINE
8
Calque 1
10
461.961700
20
426.954150
11
461.791079
21
426.689356
0
LINE
8
Calque 1
10
461.791079
20
426.689356
11
461.875509
21
426.371530
0
LINE
8
Calque 1
10
461.875509
20
426.371530
11
463.112370
21
425.084780
0
LINE
8
Calque 1
10
463.112370
20
425.084780
11
464.371305
21
424.033941
0
LINE
8
Calque 1
10
464.371305
20
424.033941
11
464.734271
21
423.864803
0
LINE
8
Calque 1
10
464.734271
20
423.864803
11
464.951220
21
423.913020
0
LINE
8
Calque 1
10
464.951220
20
423.913020
11
465.447040
21
424.197170
0
LINE
8
Calque 1
10
465.447040
20
424.197170
11
465.652090
21
423.866440
0
LINE
8
Calque 1
10
465.652090
20
423.866440
11
465.335533
21
423.302549
0
LINE
8
Calque 1
10
465.335533
20
423.302549
11
464.584200
21
422.411230
0
LINE
8
Calque 1
10
464.584200
20
422.411230
11
463.284230
21
421.286750
0
LINE
8
Calque 1
10
463.284230
20
421.286750
11
463.130285
21
421.472106
0
LINE
8
Calque 1
10
463.130285
20
421.472106
11
463.095350
21
421.917750
0
LINE
8
Calque 1
10
463.095350
20
421.917750
11
463.095350
21
421.917770
0
LINE
8
Calque 1
10
461.844970
20
428.209890
11
462.119661
21
429.006342
0
LINE
8
Calque 1
10
462.119661
20
429.006342
11
461.944270
21
429.778270
0
LINE
8
Calque 1
10
461.944270
20
429.778270
11
461.454828
21
430.482336
0
LINE
8
Calque 1
10
461.454828
20
430.482336
11
460.722610
21
431.101900
0
LINE
8
Calque 1
10
460.722610
20
431.101900
11
459.837424
21
431.508136
0
LINE
8
Calque 1
10
459.837424
20
431.508136
11
459.027680
21
431.334120
0
LINE
8
Calque 1
10
459.027680
20
431.334120
11
458.395295
21
430.977245
0
LINE
8
Calque 1
10
458.395295
20
430.977245
11
457.984010
21
430.578640
0
LINE
8
Calque 1
10
457.984010
20
430.578640
11
457.932788
21
430.301518
0
LINE
8
Calque 1
10
457.932788
20
430.301518
11
458.114845
21
429.934380
0
LINE
8
Calque 1
10
458.114845
20
429.934380
11
459.378930
21
428.653970
0
LINE
8
Calque 1
10
459.378930
20
428.653970
11
460.602324
21
427.633619
0
LINE
8
Calque 1
10
460.602324
20
427.633619
11
461.228410
21
427.281690
0
LINE
8
Calque 1
10
461.228410
20
427.281690
11
461.844990
21
428.209890
0
LINE
8
Calque 1
10
461.844990
20
428.209890
11
461.844970
21
428.209890
0
LINE
8
Calque 1
10
556.476970
20
426.128780
11
555.352490
21
427.473890
0
LINE
8
Calque 1
10
555.352490
20
427.473890
11
555.527362
21
427.586395
0
LINE
8
Calque 1
10
555.527362
20
427.586395
11
555.947800
21
427.541490
0
LINE
8
Calque 1
10
555.947800
20
427.541490
11
556.381537
21
427.592782
0
LINE
8
Calque 1
10
556.381537
20
427.592782
11
557.062356
21
428.042907
0
LINE
8
Calque 1
10
557.062356
20
428.042907
11
559.908070
21
430.739500
0
LINE
8
Calque 1
10
559.908070
20
430.739500
11
562.619943
21
433.584395
0
LINE
8
Calque 1
10
562.619943
20
433.584395
11
563.069151
21
434.263554
0
LINE
8
Calque 1
10
563.069151
20
434.263554
11
563.120530
21
434.702100
0
LINE
8
Calque 1
10
563.120530
20
434.702100
11
563.082793
21
435.131213
0
LINE
8
Calque 1
10
563.082793
20
435.131213
11
563.206230
21
435.309690
0
LINE
8
Calque 1
10
563.206230
20
435.309690
11
564.557830
21
434.175200
0
LINE
8
Calque 1
10
564.557830
20
434.175200
11
565.671250
21
432.852280
0
LINE
8
Calque 1
10
565.671250
20
432.852280
11
565.075930
21
432.663750
0
LINE
8
Calque 1
10
565.075930
20
432.663750
11
564.612492
21
432.469454
0
LINE
8
Calque 1
10
564.612492
20
432.469454
11
563.818799
21
431.882032
0
LINE
8
Calque 1
10
563.818799
20
431.882032
11
561.206500
21
429.499890
0
LINE
8
Calque 1
10
561.206500
20
429.499890
11
558.534703
21
426.777115
0
LINE
8
Calque 1
10
558.534703
20
426.777115
11
558.109167
21
426.124178
0
LINE
8
Calque 1
10
558.109167
20
426.124178
11
558.060960
21
425.663540
0
LINE
8
Calque 1
10
558.060960
20
425.663540
11
558.071703
21
425.180992
0
LINE
8
Calque 1
10
558.071703
20
425.180992
11
557.895500
21
424.999600
0
LINE
8
Calque 1
10
557.895500
20
424.999600
11
556.476980
21
426.128780
0
LINE
8
Calque 1
10
556.476980
20
426.128780
11
556.476970
21
426.128780
0
LINE
8
Calque 1
10
553.319750
20
429.122610
11
553.396916
21
430.853995
0
LINE
8
Calque 1
10
553.396916
20
430.853995
11
553.833910
21
434.361440
0
LINE
8
Calque 1
10
553.833910
20
434.361440
11
554.449930
21
439.210860
0
LINE
8
Calque 1
10
554.449930
20
439.210860
11
552.138090
21
436.571270
0
LINE
8
Calque 1
10
552.138090
20
436.571270
11
549.705320
21
433.529220
0
LINE
8
Calque 1
10
549.705320
20
433.529220
11
549.649431
21
433.142456
0
LINE
8
Calque 1
10
549.649431
20
433.142456
11
549.793320
21
432.669330
0
LINE
8
Calque 1
10
549.793320
20
432.669330
11
549.947113
21
432.257905
0
LINE
8
Calque 1
10
549.947113
20
432.257905
11
549.791320
21
432.134690
0
LINE
8
Calque 1
10
549.791320
20
432.134690
11
548.591390
21
432.862300
0
LINE
8
Calque 1
10
548.591390
20
432.862300
11
547.679490
21
433.819200
0
LINE
8
Calque 1
10
547.679490
20
433.819200
11
547.828386
21
433.942194
0
LINE
8
Calque 1
10
547.828386
20
433.942194
11
548.186390
21
433.915900
0
LINE
8
Calque 1
10
548.186390
20
433.915900
11
548.759639
21
434.023810
0
LINE
8
Calque 1
10
548.759639
20
434.023810
11
549.465540
21
434.612650
0
LINE
8
Calque 1
10
549.465540
20
434.612650
11
552.427160
21
438.152840
0
LINE
8
Calque 1
10
552.427160
20
438.152840
11
554.174308
21
440.479179
0
LINE
8
Calque 1
10
554.174308
20
440.479179
11
554.448951
21
441.083869
0
LINE
8
Calque 1
10
554.448951
20
441.083869
11
554.450270
21
441.526280
0
LINE
8
Calque 1
10
554.450270
20
441.526280
11
554.388370
21
441.994205
0
LINE
8
Calque 1
10
554.388370
20
441.994205
11
554.473170
21
442.188830
0
LINE
8
Calque 1
10
554.473170
20
442.188830
11
555.666470
21
441.493020
0
LINE
8
Calque 1
10
555.666470
20
441.493020
11
556.490464
21
440.755799
0
LINE
8
Calque 1
10
556.490464
20
440.755799
11
556.580427
21
440.376988
0
LINE
8
Calque 1
10
556.580427
20
440.376988
11
556.535590
21
439.839380
0
LINE
8
Calque 1
10
556.535590
20
439.839380
11
555.885660
21
435.454840
0
LINE
8
Calque 1
10
555.885660
20
435.454840
11
555.464220
21
431.934580
0
LINE
8
Calque 1
10
555.464220
20
431.934580
11
557.675300
21
434.567530
0
LINE
8
Calque 1
10
557.675300
20
434.567530
11
559.298291
21
436.815169
0
LINE
8
Calque 1
10
559.298291
20
436.815169
11
559.569728
21
437.395793
0
LINE
8
Calque 1
10
559.569728
20
437.395793
11
559.556230
21
437.741000
0
LINE
8
Calque 1
10
559.556230
20
437.741000
11
559.450591
21
438.094645
0
LINE
8
Calque 1
10
559.450591
20
438.094645
11
559.528830
21
438.317250
0
LINE
8
Calque 1
10
559.528830
20
438.317250
11
559.984505
21
438.145046
0
LINE
8
Calque 1
10
559.984505
20
438.145046
11
560.786320
21
437.549490
0
LINE
8
Calque 1
10
560.786320
20
437.549490
11
561.834620
21
436.652440
0
LINE
8
Calque 1
10
561.834620
20
436.652440
11
561.040870
21
436.632240
0
LINE
8
Calque 1
10
561.040870
20
436.632240
11
560.238671
21
436.381618
0
LINE
8
Calque 1
10
560.238671
20
436.381618
11
559.413260
21
435.497830
0
LINE
8
Calque 1
10
559.413260
20
435.497830
11
556.405540
21
431.605540
0
LINE
8
Calque 1
10
556.405540
20
431.605540
11
554.762590
21
429.618319
0
LINE
8
Calque 1
10
554.762590
20
429.618319
11
553.865170
21
428.741720
0
LINE
8
Calque 1
10
553.865170
20
428.741720
11
553.553714
21
428.818276
0
LINE
8
Calque 1
10
553.553714
20
428.818276
11
553.319590
21
429.122630
0
LINE
8
Calque 1
10
553.319590
20
429.122630
11
553.319750
21
429.122610
0
LINE
8
Calque 1
10
472.801000
20
432.730000
11
471.593139
21
434.044238
0
LINE
8
Calque 1
10
471.593139
20
434.044238
11
469.917600
21
436.368020
0
LINE
8
Calque 1
10
469.917600
20
436.368020
11
468.235406
21
438.727588
0
LINE
8
Calque 1
10
468.235406
20
438.727588
11
467.698114
21
439.288062
0
LINE
8
Calque 1
10
467.698114
20
439.288062
11
467.313720
21
439.495280
0
LINE
8
Calque 1
10
467.313720
20
439.495280
11
466.893282
21
439.616302
0
LINE
8
Calque 1
10
466.893282
20
439.616302
11
466.718410
21
439.788550
0
LINE
8
Calque 1
10
466.718410
20
439.788550
11
468.145490
21
440.944800
0
LINE
8
Calque 1
10
468.145490
20
440.944800
11
469.197752
21
441.569604
0
LINE
8
Calque 1
10
469.197752
20
441.569604
11
469.723680
21
441.741220
0
LINE
8
Calque 1
10
469.723680
20
441.741220
11
469.612020
21
441.099130
0
LINE
8
Calque 1
10
469.612020
20
441.099130
11
469.569524
21
440.721223
0
LINE
8
Calque 1
10
469.569524
20
440.721223
11
469.814423
21
440.085776
0
LINE
8
Calque 1
10
469.814423
20
440.085776
11
471.475440
21
437.434520
0
LINE
8
Calque 1
10
471.475440
20
437.434520
11
473.175589
21
435.063071
0
LINE
8
Calque 1
10
473.175589
20
435.063071
11
474.277470
21
433.818070
0
LINE
8
Calque 1
10
474.277470
20
433.818070
11
474.989323
21
433.507921
0
LINE
8
Calque 1
10
474.989323
20
433.507921
11
475.867690
21
433.811070
0
LINE
8
Calque 1
10
475.867690
20
433.811070
11
476.599671
21
434.308185
0
LINE
8
Calque 1
10
476.599671
20
434.308185
11
477.075490
21
434.891070
0
LINE
8
Calque 1
10
477.075490
20
434.891070
11
477.236880
21
435.526473
0
LINE
8
Calque 1
10
477.236880
20
435.526473
11
477.212870
21
436.149860
0
LINE
8
Calque 1
10
477.212870
20
436.149860
11
476.497450
21
437.477872
0
LINE
8
Calque 1
10
476.497450
20
437.477872
11
474.996480
21
439.807390
0
LINE
8
Calque 1
10
474.996480
20
439.807390
11
473.278419
21
442.158931
0
LINE
8
Calque 1
10
473.278419
20
442.158931
11
472.728341
21
442.724587
0
LINE
8
Calque 1
10
472.728341
20
442.724587
11
472.340800
21
442.934640
0
LINE
8
Calque 1
10
472.340800
20
442.934640
11
471.920363
21
443.058991
0
LINE
8
Calque 1
10
471.920363
20
443.058991
11
471.745490
21
443.239240
0
LINE
8
Calque 1
10
471.745490
20
443.239240
11
472.686650
21
444.014590
0
LINE
8
Calque 1
10
472.686650
20
444.014590
11
473.886590
21
444.569890
0
LINE
8
Calque 1
10
473.886590
20
444.569890
11
473.998939
21
444.426234
0
LINE
8
Calque 1
10
473.998939
20
444.426234
11
473.859190
21
444.035250
0
LINE
8
Calque 1
10
473.859190
20
444.035250
11
473.709660
21
443.562120
0
LINE
8
Calque 1
10
473.709660
20
443.562120
11
473.751950
21
443.175360
0
LINE
8
Calque 1
10
473.751950
20
443.175360
11
475.909650
21
439.906410
0
LINE
8
Calque 1
10
475.909650
20
439.906410
11
477.493715
21
437.341895
0
LINE
8
Calque 1
10
477.493715
20
437.341895
11
477.860473
21
436.496518
0
LINE
8
Calque 1
10
477.860473
20
436.496518
11
478.020280
21
435.793180
0
LINE
8
Calque 1
10
478.020280
20
435.793180
11
477.997771
21
434.680149
0
LINE
8
Calque 1
10
477.997771
20
434.680149
11
477.430800
21
433.766430
0
LINE
8
Calque 1
10
477.430800
20
433.766430
11
476.701338
21
433.047231
0
LINE
8
Calque 1
10
476.701338
20
433.047231
11
475.960400
21
432.521840
0
LINE
8
Calque 1
10
475.960400
20
432.521840
11
475.205826
21
432.248261
0
LINE
8
Calque 1
10
475.205826
20
432.248261
11
474.443550
21
432.134470
0
LINE
8
Calque 1
10
474.443550
20
432.134470
11
473.644339
21
432.309342
0
LINE
8
Calque 1
10
473.644339
20
432.309342
11
472.800960
21
432.729780
0
LINE
8
Calque 1
10
472.800960
20
432.729780
11
472.801000
21
432.730000
0
LINE
8
Calque 1
10
545.101200
20
435.085530
11
543.712140
21
436.111400
0
LINE
8
Calque 1
10
543.712140
20
436.111400
11
543.915726
21
436.292410
0
LINE
8
Calque 1
10
543.915726
20
436.292410
11
544.405190
21
436.416600
0
LINE
8
Calque 1
10
544.405190
20
436.416600
11
544.849499
21
436.608564
0
LINE
8
Calque 1
10
544.849499
20
436.608564
11
545.413637
21
437.197458
0
LINE
8
Calque 1
10
545.413637
20
437.197458
11
547.458270
21
440.268650
0
LINE
8
Calque 1
10
547.458270
20
440.268650
11
549.325859
21
443.429168
0
LINE
8
Calque 1
10
549.325859
20
443.429168
11
549.591224
21
444.143856
0
LINE
8
Calque 1
10
549.591224
20
444.143856
11
549.542630
21
444.552070
0
LINE
8
Calque 1
10
549.542630
20
444.552070
11
549.407436
21
444.952624
0
LINE
8
Calque 1
10
549.407436
20
444.952624
11
549.469530
21
445.192340
0
LINE
8
Calque 1
10
549.469530
20
445.192340
11
550.056620
21
445.005119
0
LINE
8
Calque 1
10
550.056620
20
445.005119
11
551.183710
21
444.379140
0
LINE
8
Calque 1
10
551.183710
20
444.379140
11
552.209716
21
443.649119
0
LINE
8
Calque 1
10
552.209716
20
443.649119
11
552.553770
21
443.211680
0
LINE
8
Calque 1
10
552.553770
20
443.211680
11
551.939650
21
442.982610
0
LINE
8
Calque 1
10
551.939650
20
442.982610
11
551.490494
21
442.846598
0
LINE
8
Calque 1
10
551.490494
20
442.846598
11
551.074180
21
442.519590
0
LINE
8
Calque 1
10
551.074180
20
442.519590
11
548.651920
21
438.801150
0
LINE
8
Calque 1
10
548.651920
20
438.801150
11
546.622590
21
435.216050
0
LINE
8
Calque 1
10
546.622590
20
435.216050
11
546.940090
21
434.568860
0
LINE
8
Calque 1
10
546.940090
20
434.568860
11
547.111520
21
434.320601
0
LINE
8
Calque 1
10
547.111520
20
434.320601
11
546.873990
21
434.266240
0
LINE
8
Calque 1
10
546.873990
20
434.266240
11
545.101280
21
435.085530
0
LINE
8
Calque 1
10
545.101280
20
435.085530
11
545.101200
21
435.085530
0
LINE
8
Calque 1
10
480.111500
20
435.763110
11
480.109845
21
436.006707
0
LINE
8
Calque 1
10
480.109845
20
436.006707
11
480.337660
21
436.360540
0
LINE
8
Calque 1
10
480.337660
20
436.360540
11
480.487960
21
436.723382
0
LINE
8
Calque 1
10
480.487960
20
436.723382
11
480.349856
21
437.434921
0
LINE
8
Calque 1
10
480.349856
20
437.434921
11
478.821170
21
441.119310
0
LINE
8
Calque 1
10
478.821170
20
441.119310
11
477.276915
21
444.384821
0
LINE
8
Calque 1
10
477.276915
20
444.384821
11
476.770244
21
445.240600
0
LINE
8
Calque 1
10
476.770244
20
445.240600
11
476.446120
21
445.567950
0
LINE
8
Calque 1
10
476.446120
20
445.567950
11
475.978810
21
445.887940
0
LINE
8
Calque 1
10
475.978810
20
445.887940
11
477.212560
21
446.556890
0
LINE
8
Calque 1
10
477.212560
20
446.556890
11
478.446310
21
447.028060
0
LINE
8
Calque 1
10
478.446310
20
447.028060
11
479.663290
21
445.732940
0
LINE
8
Calque 1
10
479.663290
20
445.732940
11
482.275340
21
442.850320
0
LINE
8
Calque 1
10
482.275340
20
442.850320
11
483.670410
21
441.262820
0
LINE
8
Calque 1
10
483.670410
20
441.262820
11
483.505390
21
442.982610
0
LINE
8
Calque 1
10
483.505390
20
442.982610
11
483.101180
21
446.289900
0
LINE
8
Calque 1
10
483.101180
20
446.289900
11
482.859980
21
448.552280
0
LINE
8
Calque 1
10
482.859980
20
448.552280
11
482.910602
21
448.909118
0
LINE
8
Calque 1
10
482.910602
20
448.909118
11
483.093244
21
449.204996
0
LINE
8
Calque 1
10
483.093244
20
449.204996
11
484.021240
21
449.792320
0
LINE
8
Calque 1
10
484.021240
20
449.792320
11
485.328580
21
450.213390
0
LINE
8
Calque 1
10
485.328580
20
450.213390
11
485.186150
21
449.610530
0
LINE
8
Calque 1
10
485.186150
20
449.610530
11
485.096164
21
449.279866
0
LINE
8
Calque 1
10
485.096164
20
449.279866
11
485.186730
21
448.766835
0
LINE
8
Calque 1
10
485.186730
20
448.766835
11
486.028930
21
446.794780
0
LINE
8
Calque 1
10
486.028930
20
446.794780
11
488.058820
21
442.519590
0
LINE
8
Calque 1
10
488.058820
20
442.519590
11
488.883140
21
441.010751
0
LINE
8
Calque 1
10
488.883140
20
441.010751
11
489.198681
21
440.694937
0
LINE
8
Calque 1
10
489.198681
20
440.694937
11
489.502620
21
440.601360
0
LINE
8
Calque 1
10
489.502620
20
440.601360
11
489.859061
21
440.519775
0
LINE
8
Calque 1
10
489.859061
20
440.519775
11
489.953250
21
440.323620
0
LINE
8
Calque 1
10
489.953250
20
440.323620
11
489.441034
21
439.925308
0
LINE
8
Calque 1
10
489.441034
20
439.925308
11
488.339520
21
439.357660
0
LINE
8
Calque 1
10
488.339520
20
439.357660
11
487.218318
21
438.918489
0
LINE
8
Calque 1
10
487.218318
20
438.918489
11
486.658760
21
438.829050
0
LINE
8
Calque 1
10
486.658760
20
438.829050
11
486.664585
21
439.060339
0
LINE
8
Calque 1
10
486.664585
20
439.060339
11
486.902760
21
439.392270
0
LINE
8
Calque 1
10
486.902760
20
439.392270
11
487.069239
21
439.715498
0
LINE
8
Calque 1
10
487.069239
20
439.715498
11
486.973278
21
440.313225
0
LINE
8
Calque 1
10
486.973278
20
440.313225
11
485.677490
21
443.356260
0
LINE
8
Calque 1
10
485.677490
20
443.356260
11
484.503848
21
445.806153
0
LINE
8
Calque 1
10
484.503848
20
445.806153
11
483.969490
21
446.696660
0
LINE
8
Calque 1
10
483.969490
20
446.696660
11
484.300220
21
443.351570
0
LINE
8
Calque 1
10
484.300220
20
443.351570
11
484.710060
21
438.936650
0
LINE
8
Calque 1
10
484.710060
20
438.936650
11
484.644175
21
438.051633
0
LINE
8
Calque 1
10
484.644175
20
438.051633
11
484.485770
21
437.735040
0
LINE
8
Calque 1
10
484.485770
20
437.735040
11
481.421330
21
441.064380
0
LINE
8
Calque 1
10
481.421330
20
441.064380
11
478.484380
21
444.305520
0
LINE
8
Calque 1
10
478.484380
20
444.305520
11
478.654000
21
443.577920
0
LINE
8
Calque 1
10
478.654000
20
443.577920
11
480.173570
21
440.072710
0
LINE
8
Calque 1
10
480.173570
20
440.072710
11
481.348925
21
437.729360
0
LINE
8
Calque 1
10
481.348925
20
437.729360
11
481.753377
21
437.311639
0
LINE
8
Calque 1
10
481.753377
20
437.311639
11
482.208500
21
437.148180
0
LINE
8
Calque 1
10
482.208500
20
437.148180
11
482.990270
21
437.001250
0
LINE
8
Calque 1
10
482.990270
20
437.001250
11
481.633430
21
436.299630
0
LINE
8
Calque 1
10
481.633430
20
436.299630
11
480.626667
21
435.852615
0
LINE
8
Calque 1
10
480.626667
20
435.852615
11
480.111500
21
435.763110
0
LINE
8
Calque 1
10
480.111500
20
435.763110
11
480.111500
21
435.763110
0
LINE
8
Calque 1
10
541.132400
20
437.310590
11
540.151377
21
437.838025
0
LINE
8
Calque 1
10
540.151377
20
437.838025
11
539.743340
21
438.214950
0
LINE
8
Calque 1
10
539.743340
20
438.214950
11
539.928421
21
438.405455
0
LINE
8
Calque 1
10
539.928421
20
438.405455
11
540.373400
21
438.484690
0
LINE
8
Calque 1
10
540.373400
20
438.484690
11
540.732503
21
438.564083
0
LINE
8
Calque 1
10
540.732503
20
438.564083
11
541.058717
21
438.878306
0
LINE
8
Calque 1
10
541.058717
20
438.878306
11
541.939920
21
440.667500
0
LINE
8
Calque 1
10
541.939920
20
440.667500
11
543.422670
21
444.239380
0
LINE
8
Calque 1
10
543.422670
20
444.239380
11
543.890450
21
445.628440
0
LINE
8
Calque 1
10
543.890450
20
445.628440
11
540.815190
21
442.181180
0
LINE
8
Calque 1
10
540.815190
20
442.181180
11
538.651219
21
439.794058
0
LINE
8
Calque 1
10
538.651219
20
439.794058
11
537.656700
21
438.895640
0
LINE
8
Calque 1
10
537.656700
20
438.895640
11
537.586400
21
440.689250
0
LINE
8
Calque 1
10
537.586400
20
440.689250
11
538.000070
21
445.169270
0
LINE
8
Calque 1
10
538.000070
20
445.169270
11
538.172672
21
447.121334
0
LINE
8
Calque 1
10
538.172672
20
447.121334
11
538.135200
21
447.815100
0
LINE
8
Calque 1
10
538.135200
20
447.815100
11
536.562760
21
444.363930
0
LINE
8
Calque 1
10
536.562760
20
444.363930
11
535.431919
21
441.488321
0
LINE
8
Calque 1
10
535.431919
20
441.488321
11
535.411290
21
440.952673
0
LINE
8
Calque 1
10
535.411290
20
440.952673
11
535.650740
21
440.592000
0
LINE
8
Calque 1
10
535.650740
20
440.592000
11
535.936011
21
440.173559
0
LINE
8
Calque 1
10
535.936011
20
440.173559
11
535.957170
21
439.902020
0
LINE
8
Calque 1
10
535.957170
20
439.902020
11
535.473070
21
439.934420
0
LINE
8
Calque 1
10
535.473070
20
439.934420
11
534.543560
21
440.246720
0
LINE
8
Calque 1
10
534.543560
20
440.246720
11
533.631922
21
440.701584
0
LINE
8
Calque 1
10
533.631922
20
440.701584
11
533.190760
21
441.076730
0
LINE
8
Calque 1
10
533.190760
20
441.076730
11
533.288764
21
441.306623
0
LINE
8
Calque 1
10
533.288764
20
441.306623
11
533.713040
21
441.395110
0
LINE
8
Calque 1
10
533.713040
20
441.395110
11
534.105368
21
441.528423
0
LINE
8
Calque 1
10
534.105368
20
441.528423
11
534.549974
21
442.101630
0
LINE
8
Calque 1
10
534.549974
20
442.101630
11
536.213040
21
445.607330
0
LINE
8
Calque 1
10
536.213040
20
445.607330
11
537.717775
21
449.208918
0
LINE
8
Calque 1
10
537.717775
20
449.208918
11
537.840153
21
449.887595
0
LINE
8
Calque 1
10
537.840153
20
449.887595
11
537.672950
21
450.231240
0
LINE
8
Calque 1
10
537.672950
20
450.231240
11
537.436091
21
450.575884
0
LINE
8
Calque 1
10
537.436091
20
450.575884
11
537.444730
21
450.826380
0
LINE
8
Calque 1
10
537.444730
20
450.826380
11
537.964628
21
450.773128
0
LINE
8
Calque 1
10
537.964628
20
450.773128
11
538.956980
21
450.387460
0
LINE
8
Calque 1
10
538.956980
20
450.387460
11
540.285780
21
449.765090
0
LINE
8
Calque 1
10
540.285780
20
449.765090
11
540.113990
21
447.762910
0
LINE
8
Calque 1
10
540.113990
20
447.762910
11
539.760460
21
443.969410
0
LINE
8
Calque 1
10
539.760460
20
443.969410
11
539.683189
21
442.725301
0
LINE
8
Calque 1
10
539.683189
20
442.725301
11
539.752460
21
442.249620
0
LINE
8
Calque 1
10
539.752460
20
442.249620
11
542.262220
21
444.966980
0
LINE
8
Calque 1
10
542.262220
20
444.966980
11
544.774970
21
447.687250
0
LINE
8
Calque 1
10
544.774970
20
447.687250
11
546.200900
21
447.226370
0
LINE
8
Calque 1
10
546.200900
20
447.226370
11
547.034470
21
446.769955
0
LINE
8
Calque 1
10
547.034470
20
446.769955
11
547.284900
21
446.424330
0
LINE
8
Calque 1
10
547.284900
20
446.424330
11
547.030085
21
446.235958
0
LINE
8
Calque 1
10
547.030085
20
446.235958
11
546.648970
21
446.157610
0
LINE
8
Calque 1
10
546.648970
20
446.157610
11
546.236733
21
445.982736
0
LINE
8
Calque 1
10
546.236733
20
445.982736
11
545.907130
21
445.562290
0
LINE
8
Calque 1
10
545.907130
20
445.562290
11
544.115760
21
441.315810
0
LINE
8
Calque 1
10
544.115760
20
441.315810
11
542.870836
21
438.099503
0
LINE
8
Calque 1
10
542.870836
20
438.099503
11
542.830933
21
437.514809
0
LINE
8
Calque 1
10
542.830933
20
437.514809
11
543.062140
21
437.148630
0
LINE
8
Calque 1
10
543.062140
20
437.148630
11
543.392596
21
436.708214
0
LINE
8
Calque 1
10
543.392596
20
436.708214
11
543.025140
21
436.654280
0
LINE
8
Calque 1
10
543.025140
20
436.654280
11
541.132050
21
437.310590
0
LINE
8
Calque 1
10
541.132050
20
437.310590
11
541.132400
21
437.310590
 0 
ENDSEC
 0 
EOF