999
"DXF R12 Output" (www.mydxf.blogspot.com)
 0 
SECTION
 2 
HEADER
 9 
$ACADVER
 1 
AC1009
 9 
$EXTMIN
 10 
 0 
 20 
 0 
 9 
$EXTMAX
 10 
 8.5 
 20 
 11 
 0 
ENDSEC
 0 
SECTION
 2 
ENTITIES
0
LINE
8
Calque 1
10
411.732000
20
113.125000
11
411.555610
21
117.093700
0
LINE
8
Calque 1
10
411.555610
20
117.093700
11
411.555000
21
120.886000
0
LINE
8
Calque 1
10
411.555000
20
120.886000
11
413.340940
21
120.896000
0
LINE
8
Calque 1
10
413.340940
20
120.896000
11
417.709210
21
121.154100
0
LINE
8
Calque 1
10
417.709210
20
121.154100
11
421.942550
21
121.824500
0
LINE
8
Calque 1
10
421.942550
20
121.824500
11
423.846911
21
122.476250
0
LINE
8
Calque 1
10
423.846911
20
122.476250
11
426.107080
21
123.454400
0
LINE
8
Calque 1
10
426.107080
20
123.454400
11
428.550991
21
124.842425
0
LINE
8
Calque 1
10
428.550991
20
124.842425
11
430.766700
21
126.812000
0
LINE
8
Calque 1
10
430.766700
20
126.812000
11
432.698541
21
128.979313
0
LINE
8
Calque 1
10
432.698541
20
128.979313
11
433.983740
21
131.207900
0
LINE
8
Calque 1
10
433.983740
20
131.207900
11
434.879852
21
133.340313
0
LINE
8
Calque 1
10
434.879852
20
133.340313
11
435.530430
21
135.309000
0
LINE
8
Calque 1
10
435.530430
20
135.309000
11
435.793487
21
137.119744
0
LINE
8
Calque 1
10
435.793487
20
137.119744
11
435.946971
21
141.595725
0
LINE
8
Calque 1
10
435.946971
20
141.595725
11
436.091000
21
168.300300
0
LINE
8
Calque 1
10
436.091000
20
168.300300
11
436.175800
21
199.439600
0
LINE
8
Calque 1
10
436.175800
20
199.439600
11
434.911740
21
200.148460
0
LINE
8
Calque 1
10
434.911740
20
200.148460
11
431.398710
21
202.343070
0
LINE
8
Calque 1
10
431.398710
20
202.343070
11
428.751562
21
204.414809
0
LINE
8
Calque 1
10
428.751562
20
204.414809
11
425.480760
21
207.404330
0
LINE
8
Calque 1
10
425.480760
20
207.404330
11
421.811780
21
210.979840
0
LINE
8
Calque 1
10
421.811780
20
210.979840
11
418.013710
21
207.011090
0
LINE
8
Calque 1
10
418.013710
20
207.011090
11
414.208220
21
202.849160
0
LINE
8
Calque 1
10
414.208220
20
202.849160
11
415.849461
21
202.691760
0
LINE
8
Calque 1
10
415.849461
20
202.691760
11
419.805750
21
202.584580
0
LINE
8
Calque 1
10
419.805750
20
202.584580
11
425.410700
21
202.513180
0
LINE
8
Calque 1
10
425.410700
20
202.513180
11
418.548970
21
197.731300
0
LINE
8
Calque 1
10
418.548970
20
197.731300
11
408.644540
21
190.872330
0
LINE
8
Calque 1
10
408.644540
20
190.872330
11
398.458040
21
183.900920
0
LINE
8
Calque 1
10
398.458040
20
183.900920
11
384.699740
21
174.519120
0
LINE
8
Calque 1
10
384.699740
20
174.519120
11
376.815950
21
169.108920
0
LINE
8
Calque 1
10
376.815950
20
169.108920
11
375.449220
21
168.284120
0
LINE
8
Calque 1
10
375.449220
20
168.284120
11
378.131740
21
171.556920
0
LINE
8
Calque 1
10
378.131740
20
171.556920
11
387.171390
21
181.987420
0
LINE
8
Calque 1
10
387.171390
20
181.987420
11
396.407550
21
192.774020
0
LINE
8
Calque 1
10
396.407550
20
192.774020
11
399.384110
21
196.426980
0
LINE
8
Calque 1
10
399.384110
20
196.426980
11
394.196220
21
196.620570
0
LINE
8
Calque 1
10
394.196220
20
196.620570
11
389.008330
21
196.692270
0
LINE
8
Calque 1
10
389.008330
20
196.692270
11
393.071740
21
201.498850
0
LINE
8
Calque 1
10
393.071740
20
201.498850
11
402.812840
21
213.008250
0
LINE
8
Calque 1
10
402.812840
20
213.008250
11
411.081070
21
222.781860
0
LINE
8
Calque 1
10
411.081070
20
222.781860
11
412.910640
21
225.079366
0
LINE
8
Calque 1
10
412.910640
20
225.079366
11
413.671610
21
226.290940
0
LINE
8
Calque 1
10
413.671610
20
226.290940
11
413.146380
21
228.624580
0
LINE
8
Calque 1
10
413.146380
20
228.624580
11
412.184690
21
233.317580
0
LINE
8
Calque 1
10
412.184690
20
233.317580
11
411.862152
21
236.556485
0
LINE
8
Calque 1
10
411.862152
20
236.556485
11
411.750710
21
240.613130
0
LINE
8
Calque 1
10
411.750710
20
240.613130
11
411.862399
21
244.595016
0
LINE
8
Calque 1
10
411.862399
20
244.595016
11
412.175050
21
247.624590
0
LINE
8
Calque 1
10
412.175050
20
247.624590
11
413.111660
21
252.122510
0
LINE
8
Calque 1
10
413.111660
20
252.122510
11
413.779060
21
254.503750
0
LINE
8
Calque 1
10
413.779060
20
254.503750
11
413.495340
21
255.255612
0
LINE
8
Calque 1
10
413.495340
20
255.255612
11
412.458140
21
256.620420
0
LINE
8
Calque 1
10
412.458140
20
256.620420
11
400.091140
21
271.260020
0
LINE
8
Calque 1
10
400.091140
20
271.260020
11
389.109440
21
284.423020
0
LINE
8
Calque 1
10
389.109440
20
284.423020
11
390.504517
21
284.598076
0
LINE
8
Calque 1
10
390.504517
20
284.598076
11
394.228330
21
284.666190
0
LINE
8
Calque 1
10
394.228330
20
284.666190
11
399.436000
21
284.666000
0
LINE
8
Calque 1
10
399.436000
20
284.666000
11
398.682730
21
285.568950
0
LINE
8
Calque 1
10
398.682730
20
285.568950
11
395.821770
21
288.942390
0
LINE
8
Calque 1
10
395.821770
20
288.942390
11
390.496170
21
295.117040
0
LINE
8
Calque 1
10
390.496170
20
295.117040
11
381.623660
21
305.437240
0
LINE
8
Calque 1
10
381.623660
20
305.437240
11
375.572180
21
312.565630
0
LINE
8
Calque 1
10
375.572180
20
312.565630
11
375.374694
21
312.877984
0
LINE
8
Calque 1
10
375.374694
20
312.877984
11
375.457220
21
312.909470
0
LINE
8
Calque 1
10
375.457220
20
312.909470
11
380.748880
21
309.309350
0
LINE
8
Calque 1
10
380.748880
20
309.309350
11
388.139880
21
304.227460
0
LINE
8
Calque 1
10
388.139880
20
304.227460
11
397.664880
21
297.675160
0
LINE
8
Calque 1
10
397.664880
20
297.675160
11
408.909680
21
289.960750
0
LINE
8
Calque 1
10
408.909680
20
289.960750
11
418.831560
21
283.109990
0
LINE
8
Calque 1
10
418.831560
20
283.109990
11
425.039820
21
278.693820
0
LINE
8
Calque 1
10
425.039820
20
278.693820
11
425.042910
21
278.496554
0
LINE
8
Calque 1
10
425.042910
20
278.496554
11
424.344337
21
278.382038
0
LINE
8
Calque 1
10
424.344337
20
278.382038
11
419.619060
21
278.316000
0
LINE
8
Calque 1
10
419.619060
20
278.316000
11
413.810000
21
278.316000
0
LINE
8
Calque 1
10
413.810000
20
278.316000
11
417.899500
21
274.220110
0
LINE
8
Calque 1
10
417.899500
20
274.220110
11
421.989000
21
270.124210
0
LINE
8
Calque 1
10
421.989000
20
270.124210
11
424.907760
21
273.028480
0
LINE
8
Calque 1
10
424.907760
20
273.028480
11
427.590897
21
275.554690
0
LINE
8
Calque 1
10
427.590897
20
275.554690
11
429.943180
21
277.550020
0
LINE
8
Calque 1
10
429.943180
20
277.550020
11
434.144930
21
280.372250
0
LINE
8
Calque 1
10
434.144930
20
280.372250
11
436.230020
21
281.577190
0
LINE
8
Calque 1
10
436.230020
20
281.577190
11
436.090590
21
285.436700
0
LINE
8
Calque 1
10
436.090590
20
285.436700
11
435.840204
21
289.006289
0
LINE
8
Calque 1
10
435.840204
20
289.006289
11
435.245980
21
291.677460
0
LINE
8
Calque 1
10
435.245980
20
291.677460
11
434.468394
21
293.864409
0
LINE
8
Calque 1
10
434.468394
20
293.864409
11
433.589130
21
295.778500
0
LINE
8
Calque 1
10
433.589130
20
295.778500
11
432.370160
21
297.536540
0
LINE
8
Calque 1
10
432.370160
20
297.536540
11
430.761160
21
299.350380
0
LINE
8
Calque 1
10
430.761160
20
299.350380
11
428.949340
21
300.918135
0
LINE
8
Calque 1
10
428.949340
20
300.918135
11
427.229920
21
302.078550
0
LINE
8
Calque 1
10
427.229920
20
302.078550
11
423.698250
21
303.592970
0
LINE
8
Calque 1
10
423.698250
20
303.592970
11
420.193800
21
304.535000
0
LINE
8
Calque 1
10
420.193800
20
304.535000
11
415.126510
21
305.004960
0
LINE
8
Calque 1
10
415.126510
20
305.004960
11
411.686930
21
305.171210
0
LINE
8
Calque 1
10
411.686930
20
305.171210
11
411.687000
21
309.140000
0
LINE
8
Calque 1
10
411.687000
20
309.140000
11
411.687000
21
313.109000
0
LINE
8
Calque 1
10
411.687000
20
313.109000
11
458.187500
21
313.128900
0
LINE
8
Calque 1
10
458.187500
20
313.128900
11
504.688000
21
313.148800
0
LINE
8
Calque 1
10
504.688000
20
313.148800
11
504.688000
21
309.134000
0
LINE
8
Calque 1
10
504.688000
20
309.134000
11
504.688000
21
305.119000
0
LINE
8
Calque 1
10
504.688000
20
305.119000
11
501.314560
21
304.959630
0
LINE
8
Calque 1
10
501.314560
20
304.959630
11
496.353620
21
304.509320
0
LINE
8
Calque 1
10
496.353620
20
304.509320
11
493.046330
21
303.669930
0
LINE
8
Calque 1
10
493.046330
20
303.669930
11
489.474460
21
302.166200
0
LINE
8
Calque 1
10
489.474460
20
302.166200
11
487.612145
21
300.970580
0
LINE
8
Calque 1
10
487.612145
20
300.970580
11
485.730810
21
299.328020
0
LINE
8
Calque 1
10
485.730810
20
299.328020
11
484.014529
21
297.372326
0
LINE
8
Calque 1
10
484.014529
20
297.372326
11
482.764920
21
295.222840
0
LINE
8
Calque 1
10
482.764920
20
295.222840
11
481.842702
21
292.992717
0
LINE
8
Calque 1
10
481.842702
20
292.992717
11
481.134100
21
290.751600
0
LINE
8
Calque 1
10
481.134100
20
290.751600
11
480.685185
21
288.170126
0
LINE
8
Calque 1
10
480.685185
20
288.170126
11
480.424790
21
285.005940
0
LINE
8
Calque 1
10
480.424790
20
285.005940
11
480.271980
21
281.509240
0
LINE
8
Calque 1
10
480.271980
20
281.509240
11
481.146200
21
281.037190
0
LINE
8
Calque 1
10
481.146200
20
281.037190
11
484.821400
21
278.722710
0
LINE
8
Calque 1
10
484.821400
20
278.722710
11
487.773726
21
276.510154
0
LINE
8
Calque 1
10
487.773726
20
276.510154
11
491.053360
21
273.497190
0
LINE
8
Calque 1
10
491.053360
20
273.497190
11
494.625230
21
270.149810
0
LINE
8
Calque 1
10
494.625230
20
270.149810
11
498.602580
21
274.184710
0
LINE
8
Calque 1
10
498.602580
20
274.184710
11
502.439040
21
278.183880
0
LINE
8
Calque 1
10
502.439040
20
278.183880
11
496.816640
21
278.255280
0
LINE
8
Calque 1
10
496.816640
20
278.255280
11
492.848166
21
278.362467
0
LINE
8
Calque 1
10
492.848166
20
278.362467
11
491.202210
21
278.519860
0
LINE
8
Calque 1
10
491.202210
20
278.519860
11
496.814990
21
282.549500
0
LINE
8
Calque 1
10
496.814990
20
282.549500
11
505.869010
21
288.730670
0
LINE
8
Calque 1
10
505.869010
20
288.730670
11
513.551540
21
294.000130
0
LINE
8
Calque 1
10
513.551540
20
294.000130
11
524.872040
21
301.841880
0
LINE
8
Calque 1
10
524.872040
20
301.841880
11
536.459040
21
309.900360
0
LINE
8
Calque 1
10
536.459040
20
309.900360
11
541.048740
21
312.943070
0
LINE
8
Calque 1
10
541.048740
20
312.943070
11
538.007810
21
309.272410
0
LINE
8
Calque 1
10
538.007810
20
309.272410
11
525.973310
21
295.249510
0
LINE
8
Calque 1
10
525.973310
20
295.249510
11
517.069630
21
284.798510
0
LINE
8
Calque 1
10
517.069630
20
284.798510
11
522.255900
21
284.726810
0
LINE
8
Calque 1
10
522.255900
20
284.726810
11
527.442180
21
284.525150
0
LINE
8
Calque 1
10
527.442180
20
284.525150
11
525.391660
21
281.930460
0
LINE
8
Calque 1
10
525.391660
20
281.930460
11
520.166140
21
275.763100
0
LINE
8
Calque 1
10
520.166140
20
275.763100
11
513.112680
21
267.449330
0
LINE
8
Calque 1
10
513.112680
20
267.449330
11
506.233510
21
259.262350
0
LINE
8
Calque 1
10
506.233510
20
259.262350
11
502.908460
21
255.274170
0
LINE
8
Calque 1
10
502.908460
20
255.274170
11
502.780231
21
254.939710
0
LINE
8
Calque 1
10
502.780231
20
254.939710
11
502.798926
21
254.345159
0
LINE
8
Calque 1
10
502.798926
20
254.345159
11
503.345410
21
251.838500
0
LINE
8
Calque 1
10
503.345410
20
251.838500
11
504.396630
21
246.433960
0
LINE
8
Calque 1
10
504.396630
20
246.433960
11
504.686530
21
240.480840
0
LINE
8
Calque 1
10
504.686530
20
240.480840
11
504.396630
21
234.527710
0
LINE
8
Calque 1
10
504.396630
20
234.527710
11
503.348420
21
229.135090
0
LINE
8
Calque 1
10
503.348420
20
229.135090
11
502.802929
21
226.628944
0
LINE
8
Calque 1
10
502.802929
20
226.628944
11
502.784107
21
226.026747
0
LINE
8
Calque 1
10
502.784107
20
226.026747
11
502.911460
21
225.675500
0
LINE
8
Calque 1
10
502.911460
20
225.675500
11
506.143230
21
221.828020
0
LINE
8
Calque 1
10
506.143230
20
221.828020
11
512.228640
21
214.704270
0
LINE
8
Calque 1
10
512.228640
20
214.704270
11
518.049480
21
207.830270
0
LINE
8
Calque 1
10
518.049480
20
207.830270
11
524.061570
21
200.686520
0
LINE
8
Calque 1
10
524.061570
20
200.686520
11
527.427840
21
196.692300
0
LINE
8
Calque 1
10
527.427840
20
196.692300
11
522.275640
21
196.620600
0
LINE
8
Calque 1
10
522.275640
20
196.620600
11
518.637358
21
196.513270
0
LINE
8
Calque 1
10
518.637358
20
196.513270
11
517.125010
21
196.356020
0
LINE
8
Calque 1
10
517.125010
20
196.356020
11
524.042360
21
188.093420
0
LINE
8
Calque 1
10
524.042360
20
188.093420
11
532.970470
21
177.653920
0
LINE
8
Calque 1
10
532.970470
20
177.653920
11
537.989310
21
171.885120
0
LINE
8
Calque 1
10
537.989310
20
171.885120
11
540.875750
21
168.365820
0
LINE
8
Calque 1
10
540.875750
20
168.365820
11
538.663000
21
169.752920
0
LINE
8
Calque 1
10
538.663000
20
169.752920
11
530.881770
21
175.133320
0
LINE
8
Calque 1
10
530.881770
20
175.133320
11
518.975570
21
183.248220
0
LINE
8
Calque 1
10
518.975570
20
183.248220
11
509.156090
21
189.974350
0
LINE
8
Calque 1
10
509.156090
20
189.974350
11
498.232290
21
197.486090
0
LINE
8
Calque 1
10
498.232290
20
197.486090
11
490.910300
21
202.513170
0
LINE
8
Calque 1
10
490.910300
20
202.513170
11
496.674680
21
202.645460
0
LINE
8
Calque 1
10
496.674680
20
202.645460
11
502.439070
21
202.777760
0
LINE
8
Calque 1
10
502.439070
20
202.777760
11
498.445160
21
206.863180
0
LINE
8
Calque 1
10
498.445160
20
206.863180
11
494.451250
21
210.948600
0
LINE
8
Calque 1
10
494.451250
20
210.948600
11
491.433700
21
207.886000
0
LINE
8
Calque 1
10
491.433700
20
207.886000
11
488.643289
21
205.239304
0
LINE
8
Calque 1
10
488.643289
20
205.239304
11
486.171830
21
203.176640
0
LINE
8
Calque 1
10
486.171830
20
203.176640
11
482.135540
21
200.566320
0
LINE
8
Calque 1
10
482.135540
20
200.566320
11
480.343580
21
199.602760
0
LINE
8
Calque 1
10
480.343580
20
199.602760
11
480.413780
21
168.381960
0
LINE
8
Calque 1
10
480.413780
20
168.381960
11
480.483980
21
137.161160
0
LINE
8
Calque 1
10
480.483980
20
137.161160
11
481.075110
21
135.044460
0
LINE
8
Calque 1
10
481.075110
20
135.044460
11
481.814931
21
132.893747
0
LINE
8
Calque 1
10
481.814931
20
132.893747
11
482.763560
21
130.695260
0
LINE
8
Calque 1
10
482.763560
20
130.695260
11
484.012066
21
128.568860
0
LINE
8
Calque 1
10
484.012066
20
128.568860
11
485.639660
21
126.708560
0
LINE
8
Calque 1
10
485.639660
20
126.708560
11
487.496224
21
125.126447
0
LINE
8
Calque 1
10
487.496224
20
125.126447
11
489.504820
21
123.880860
0
LINE
8
Calque 1
10
489.504820
20
123.880860
11
493.311000
21
122.257660
0
LINE
8
Calque 1
10
493.311000
20
122.257660
11
496.618290
21
121.441060
0
LINE
8
Calque 1
10
496.618290
20
121.441060
11
501.446930
21
120.994260
0
LINE
8
Calque 1
10
501.446930
20
120.994260
11
504.688080
21
120.814260
0
LINE
8
Calque 1
10
504.688080
20
120.814260
11
504.689000
21
116.883000
0
LINE
8
Calque 1
10
504.689000
20
116.883000
11
504.689000
21
112.952000
0
LINE
8
Calque 1
10
504.689000
20
112.952000
11
458.298000
21
112.952000
0
LINE
8
Calque 1
10
458.298000
20
112.952000
11
411.731300
21
113.128400
0
LINE
8
Calque 1
10
411.731300
20
113.128400
11
411.732000
21
113.125000
0
LINE
8
Calque 1
10
465.737500
20
203.667600
11
470.367710
21
204.906170
0
LINE
8
Calque 1
10
470.367710
20
204.906170
11
472.648019
21
205.789681
0
LINE
8
Calque 1
10
472.648019
20
205.789681
11
475.077060
21
206.911040
0
LINE
8
Calque 1
10
475.077060
20
206.911040
11
477.521715
21
208.298559
0
LINE
8
Calque 1
10
477.521715
20
208.298559
11
479.839560
21
209.822000
0
LINE
8
Calque 1
10
479.839560
20
209.822000
11
482.193424
21
211.752860
0
LINE
8
Calque 1
10
482.193424
20
211.752860
11
484.724670
21
214.119920
0
LINE
8
Calque 1
10
484.724670
20
214.119920
11
487.096652
21
216.746310
0
LINE
8
Calque 1
10
487.096652
20
216.746310
11
489.047360
21
219.297040
0
LINE
8
Calque 1
10
489.047360
20
219.297040
11
491.763690
21
223.887220
0
LINE
8
Calque 1
10
491.763690
20
223.887220
11
492.768555
21
226.152770
0
LINE
8
Calque 1
10
492.768555
20
226.152770
11
493.708350
21
228.663810
0
LINE
8
Calque 1
10
493.708350
20
228.663810
11
495.077350
21
233.598640
0
LINE
8
Calque 1
10
495.077350
20
233.598640
11
495.448745
21
236.396213
0
LINE
8
Calque 1
10
495.448745
20
236.396213
11
495.551250
21
240.610100
0
LINE
8
Calque 1
10
495.551250
20
240.610100
11
495.443768
21
244.860628
0
LINE
8
Calque 1
10
495.443768
20
244.860628
11
495.055260
21
247.753850
0
LINE
8
Calque 1
10
495.055260
20
247.753850
11
493.650760
21
252.780930
0
LINE
8
Calque 1
10
493.650760
20
252.780930
11
492.633018
21
255.365463
0
LINE
8
Calque 1
10
492.633018
20
255.365463
11
491.464180
21
257.863910
0
LINE
8
Calque 1
10
491.464180
20
257.863910
11
490.075506
21
260.268219
0
LINE
8
Calque 1
10
490.075506
20
260.268219
11
488.529220
21
262.626410
0
LINE
8
Calque 1
10
488.529220
20
262.626410
11
486.686449
21
264.929326
0
LINE
8
Calque 1
10
486.686449
20
264.929326
11
484.584950
21
267.200720
0
LINE
8
Calque 1
10
484.584950
20
267.200720
11
482.353645
21
269.229250
0
LINE
8
Calque 1
10
482.353645
20
269.229250
11
480.198780
21
270.948240
0
LINE
8
Calque 1
10
480.198780
20
270.948240
11
476.246270
21
273.491360
0
LINE
8
Calque 1
10
476.246270
20
273.491360
11
471.940170
21
275.514520
0
LINE
8
Calque 1
10
471.940170
20
275.514520
11
469.334600
21
276.410751
0
LINE
8
Calque 1
10
469.334600
20
276.410751
11
466.516210
21
277.191310
0
LINE
8
Calque 1
10
466.516210
20
277.191310
11
463.187211
21
277.777044
0
LINE
8
Calque 1
10
463.187211
20
277.777044
11
458.386900
21
277.901910
0
LINE
8
Calque 1
10
458.386900
20
277.901910
11
453.834705
21
277.812034
0
LINE
8
Calque 1
10
453.834705
20
277.812034
11
450.978560
21
277.435800
0
LINE
8
Calque 1
10
450.978560
20
277.435800
11
446.038400
21
276.062060
0
LINE
8
Calque 1
10
446.038400
20
276.062060
11
441.773390
21
274.372360
0
LINE
8
Calque 1
10
441.773390
20
274.372360
11
437.320850
21
271.660030
0
LINE
8
Calque 1
10
437.320850
20
271.660030
11
434.574580
21
269.610002
0
LINE
8
Calque 1
10
434.574580
20
269.610002
11
432.041850
21
267.346960
0
LINE
8
Calque 1
10
432.041850
20
267.346960
11
429.918641
21
265.072444
0
LINE
8
Calque 1
10
429.918641
20
265.072444
11
428.184480
21
262.967390
0
LINE
8
Calque 1
10
428.184480
20
262.967390
11
425.637960
21
259.130930
0
LINE
8
Calque 1
10
425.637960
20
259.130930
11
423.758490
21
255.294470
0
LINE
8
Calque 1
10
423.758490
20
255.294470
11
422.275290
21
250.928850
0
LINE
8
Calque 1
10
422.275290
20
250.928850
11
421.172490
21
245.901770
0
LINE
8
Calque 1
10
421.172490
20
245.901770
11
420.888549
21
242.957948
0
LINE
8
Calque 1
10
420.888549
20
242.957948
11
420.911380
21
239.287180
0
LINE
8
Calque 1
10
420.911380
20
239.287180
11
421.175210
21
235.595959
0
LINE
8
Calque 1
10
421.175210
20
235.595959
11
421.702980
21
232.540310
0
LINE
8
Calque 1
10
421.702980
20
232.540310
11
423.055130
21
227.645520
0
LINE
8
Calque 1
10
423.055130
20
227.645520
11
423.947550
21
225.400860
0
LINE
8
Calque 1
10
423.947550
20
225.400860
11
425.097370
21
222.976470
0
LINE
8
Calque 1
10
425.097370
20
222.976470
11
426.537458
21
220.509533
0
LINE
8
Calque 1
10
426.537458
20
220.509533
11
428.127770
21
218.162580
0
LINE
8
Calque 1
10
428.127770
20
218.162580
11
429.909379
21
215.982495
0
LINE
8
Calque 1
10
429.909379
20
215.982495
11
431.809390
21
213.916740
0
LINE
8
Calque 1
10
431.809390
20
213.916740
11
433.831712
21
212.047455
0
LINE
8
Calque 1
10
433.831712
20
212.047455
11
435.907390
21
210.339720
0
LINE
8
Calque 1
10
435.907390
20
210.339720
11
439.849640
21
207.679070
0
LINE
8
Calque 1
10
439.849640
20
207.679070
11
443.634580
21
205.827760
0
LINE
8
Calque 1
10
443.634580
20
205.827760
11
447.954020
21
204.368190
0
LINE
8
Calque 1
10
447.954020
20
204.368190
11
452.830650
21
203.309900
0
LINE
8
Calque 1
10
452.830650
20
203.309900
11
455.708116
21
203.050290
0
LINE
8
Calque 1
10
455.708116
20
203.050290
11
459.312940
21
203.035480
0
LINE
8
Calque 1
10
459.312940
20
203.035480
11
462.893024
21
203.250215
0
LINE
8
Calque 1
10
462.893024
20
203.250215
11
465.737500
21
203.667600
0
LINE
8
Calque 1
10
465.737500
20
203.667600
11
465.737500
21
203.667600
0
LINE
8
Calque 1
10
452.830600
20
207.525210
11
449.835940
21
208.179410
0
LINE
8
Calque 1
10
449.835940
20
208.179410
11
449.090240
21
208.463890
0
LINE
8
Calque 1
10
449.090240
20
208.463890
11
452.084900
21
211.440120
0
LINE
8
Calque 1
10
452.084900
20
211.440120
11
454.613773
21
214.146177
0
LINE
8
Calque 1
10
454.613773
20
214.146177
11
456.488570
21
216.472840
0
LINE
8
Calque 1
10
456.488570
20
216.472840
11
457.786810
21
218.572056
0
LINE
8
Calque 1
10
457.786810
20
218.572056
11
458.929470
21
220.731280
0
LINE
8
Calque 1
10
458.929470
20
220.731280
11
459.775572
21
222.784229
0
LINE
8
Calque 1
10
459.775572
20
222.784229
11
460.360810
21
224.627920
0
LINE
8
Calque 1
10
460.360810
20
224.627920
11
460.644077
21
226.451886
0
LINE
8
Calque 1
10
460.644077
20
226.451886
11
460.764190
21
228.457390
0
LINE
8
Calque 1
10
460.764190
20
228.457390
11
460.644897
21
230.381686
0
LINE
8
Calque 1
10
460.644897
20
230.381686
11
460.348920
21
232.003710
0
LINE
8
Calque 1
10
460.348920
20
232.003710
11
459.311680
21
234.394310
0
LINE
8
Calque 1
10
459.311680
20
234.394310
11
458.549244
21
235.364764
0
LINE
8
Calque 1
10
458.549244
20
235.364764
11
457.584060
21
236.323120
0
LINE
8
Calque 1
10
457.584060
20
236.323120
11
456.440106
21
237.164604
0
LINE
8
Calque 1
10
456.440106
20
237.164604
11
455.247860
21
237.854070
0
LINE
8
Calque 1
10
455.247860
20
237.854070
11
453.818067
21
238.346852
0
LINE
8
Calque 1
10
453.818067
20
238.346852
11
452.102990
21
238.715480
0
LINE
8
Calque 1
10
452.102990
20
238.715480
11
450.166024
21
238.863063
0
LINE
8
Calque 1
10
450.166024
20
238.863063
11
448.186240
21
238.707480
0
LINE
8
Calque 1
10
448.186240
20
238.707480
11
446.271620
21
238.272586
0
LINE
8
Calque 1
10
446.271620
20
238.272586
11
444.499320
21
237.588370
0
LINE
8
Calque 1
10
444.499320
20
237.588370
11
442.939274
21
236.621925
0
LINE
8
Calque 1
10
442.939274
20
236.621925
11
441.605780
21
235.416770
0
LINE
8
Calque 1
10
441.605780
20
235.416770
11
440.557523
21
233.987424
0
LINE
8
Calque 1
10
440.557523
20
233.987424
11
439.868740
21
232.354280
0
LINE
8
Calque 1
10
439.868740
20
232.354280
11
439.459871
21
230.424210
0
LINE
8
Calque 1
10
439.459871
20
230.424210
11
439.336850
21
228.010900
0
LINE
8
Calque 1
10
439.336850
20
228.010900
11
439.336000
21
225.389000
0
LINE
8
Calque 1
10
439.336000
20
225.389000
11
438.211520
21
226.091830
0
LINE
8
Calque 1
10
438.211520
20
226.091830
11
435.394010
21
228.133650
0
LINE
8
Calque 1
10
435.394010
20
228.133650
11
433.607535
21
229.757391
0
LINE
8
Calque 1
10
433.607535
20
229.757391
11
431.689840
21
231.781010
0
LINE
8
Calque 1
10
431.689840
20
231.781010
11
430.008754
21
233.842048
0
LINE
8
Calque 1
10
430.008754
20
233.842048
11
428.791130
21
235.555730
0
LINE
8
Calque 1
10
428.791130
20
235.555730
11
427.249030
21
238.642500
0
LINE
8
Calque 1
10
427.249030
20
238.642500
11
426.452720
21
241.136720
0
LINE
8
Calque 1
10
426.452720
20
241.136720
11
426.430997
21
241.655944
0
LINE
8
Calque 1
10
426.430997
20
241.655944
11
426.575783
21
242.213425
0
LINE
8
Calque 1
10
426.575783
20
242.213425
11
427.567570
21
243.955680
0
LINE
8
Calque 1
10
427.567570
20
243.955680
11
428.938247
21
245.796949
0
LINE
8
Calque 1
10
428.938247
20
245.796949
11
430.469050
21
247.492320
0
LINE
8
Calque 1
10
430.469050
20
247.492320
11
432.370824
21
249.140938
0
LINE
8
Calque 1
10
432.370824
20
249.140938
11
434.633430
21
250.869790
0
LINE
8
Calque 1
10
434.633430
20
250.869790
11
436.781819
21
252.537181
0
LINE
8
Calque 1
10
436.781819
20
252.537181
11
437.158575
21
253.080107
0
LINE
8
Calque 1
10
437.158575
20
253.080107
11
437.318300
21
253.689570
0
LINE
8
Calque 1
10
437.318300
20
253.689570
11
437.654112
21
254.663404
0
LINE
8
Calque 1
10
437.654112
20
254.663404
11
438.291410
21
255.531180
0
LINE
8
Calque 1
10
438.291410
20
255.531180
11
439.149291
21
256.178940
0
LINE
8
Calque 1
10
439.149291
20
256.178940
11
440.077500
21
256.601970
0
LINE
8
Calque 1
10
440.077500
20
256.601970
11
451.903700
21
258.449230
0
LINE
8
Calque 1
10
451.903700
20
258.449230
11
467.101700
21
260.682210
0
LINE
8
Calque 1
10
467.101700
20
260.682210
11
471.451750
21
261.330930
0
LINE
8
Calque 1
10
471.451750
20
261.330930
11
476.229830
21
256.797930
0
LINE
8
Calque 1
10
476.229830
20
256.797930
11
486.233430
21
247.258240
0
LINE
8
Calque 1
10
486.233430
20
247.258240
11
491.458950
21
242.251540
0
LINE
8
Calque 1
10
491.458950
20
242.251540
11
491.459000
21
240.101000
0
LINE
8
Calque 1
10
491.459000
20
240.101000
11
491.185820
21
235.707940
0
LINE
8
Calque 1
10
491.185820
20
235.707940
11
490.244350
21
231.084670
0
LINE
8
Calque 1
10
490.244350
20
231.084670
11
489.432203
21
228.703420
0
LINE
8
Calque 1
10
489.432203
20
228.703420
11
488.418020
21
226.322170
0
LINE
8
Calque 1
10
488.418020
20
226.322170
11
485.857420
21
221.841960
0
LINE
8
Calque 1
10
485.857420
20
221.841960
11
484.251174
21
219.709153
0
LINE
8
Calque 1
10
484.251174
20
219.709153
11
482.358930
21
217.528810
0
LINE
8
Calque 1
10
482.358930
20
217.528810
11
480.210886
21
215.463053
0
LINE
8
Calque 1
10
480.210886
20
215.463053
11
477.989650
21
213.605750
0
LINE
8
Calque 1
10
477.989650
20
213.605750
11
475.801182
21
212.097086
0
LINE
8
Calque 1
10
475.801182
20
212.097086
11
473.731920
21
210.869560
0
LINE
8
Calque 1
10
473.731920
20
210.869560
11
469.366290
21
209.038190
0
LINE
8
Calque 1
10
469.366290
20
209.038190
11
465.000670
21
207.806910
0
LINE
8
Calque 1
10
465.000670
20
207.806910
11
462.437610
21
207.471518
0
LINE
8
Calque 1
10
462.437610
20
207.471518
11
459.047540
21
207.267360
0
LINE
8
Calque 1
10
459.047540
20
207.267360
11
455.507054
21
207.275088
0
LINE
8
Calque 1
10
455.507054
20
207.275088
11
452.829840
21
207.524780
0
LINE
8
Calque 1
10
452.829840
20
207.524780
11
452.830600
21
207.525210
0
LINE
8
Calque 1
10
448.332680
20
251.731610
11
449.771436
21
253.313039
0
LINE
8
Calque 1
10
449.771436
20
253.313039
11
450.083522
21
253.755225
0
LINE
8
Calque 1
10
450.083522
20
253.755225
11
450.052470
21
253.875780
0
LINE
8
Calque 1
10
450.052470
20
253.875780
11
445.828010
21
252.909400
0
LINE
8
Calque 1
10
445.828010
20
252.909400
11
442.049600
21
252.010060
0
LINE
8
Calque 1
10
442.049600
20
252.010060
11
443.578010
21
250.434950
0
LINE
8
Calque 1
10
443.578010
20
250.434950
11
444.950711
21
249.299659
0
LINE
8
Calque 1
10
444.950711
20
249.299659
11
445.344858
21
249.137630
0
LINE
8
Calque 1
10
445.344858
20
249.137630
11
445.636630
21
249.190120
0
LINE
8
Calque 1
10
445.636630
20
249.190120
11
448.332680
21
251.731610
0
LINE
8
Calque 1
10
448.332680
20
251.731610
11
448.332680
21
251.731610
0
LINE
8
Calque 1
10
341.176680
20
213.093510
11
341.176000
21
215.607000
0
LINE
8
Calque 1
10
341.176000
20
215.607000
11
367.899000
21
215.607000
0
LINE
8
Calque 1
10
367.899000
20
215.607000
11
389.467287
21
215.539990
0
LINE
8
Calque 1
10
389.467287
20
215.539990
11
393.524011
21
215.433913
0
LINE
8
Calque 1
10
393.524011
20
215.433913
11
394.621900
21
215.259620
0
LINE
8
Calque 1
10
394.621900
20
215.259620
11
394.388785
21
214.790950
0
LINE
8
Calque 1
10
394.388785
20
214.790950
11
393.828310
21
214.151940
0
LINE
8
Calque 1
10
393.828310
20
214.151940
11
391.912910
21
211.985770
0
LINE
8
Calque 1
10
391.912910
20
211.985770
11
390.791090
21
210.579910
0
LINE
8
Calque 1
10
390.791090
20
210.579910
11
365.984000
21
210.580000
0
LINE
8
Calque 1
10
365.984000
20
210.580000
11
341.176000
21
210.580000
0
LINE
8
Calque 1
10
341.176000
20
210.580000
11
341.176680
21
213.093510
0
LINE
8
Calque 1
10
523.788680
20
212.824700
11
521.887200
21
215.338240
0
LINE
8
Calque 1
10
521.887200
20
215.338240
11
528.008303
21
215.540179
0
LINE
8
Calque 1
10
528.008303
20
215.540179
11
546.493500
21
215.607050
0
LINE
8
Calque 1
10
546.493500
20
215.607050
11
571.099000
21
215.607000
0
LINE
8
Calque 1
10
571.099000
20
215.607000
11
571.099000
21
213.093000
0
LINE
8
Calque 1
10
571.099000
20
213.093000
11
571.099000
21
210.580000
0
LINE
8
Calque 1
10
571.099000
20
210.580000
11
548.394000
21
210.580000
0
LINE
8
Calque 1
10
548.394000
20
210.580000
11
525.689000
21
210.580000
0
LINE
8
Calque 1
10
525.689000
20
210.580000
11
523.788680
21
212.824700
 0 
ENDSEC
 0 
EOF